<svg xmlns="http://www.w3.org/2000/svg" xmlns:xlink="http://www.w3.org/1999/xlink" width="91.927" height="91.928" viewBox="0 0 91.927 91.928">
  <defs>
    <radialGradient id="radial-gradient" cx="0.076" cy="0.019" r="1.465" gradientTransform="translate(0.001)" gradientUnits="objectBoundingBox">
      <stop offset="0" stop-color="#f6f6f7"/>
      <stop offset="0.477" stop-color="#f9f9fa"/>
      <stop offset="0.715" stop-color="#fff"/>
    </radialGradient>
  </defs>
  <g id="Grupo_26935" data-name="Grupo 26935" transform="translate(-2989 -8804)">
    <g id="Grupo_26929" data-name="Grupo 26929" transform="translate(2914 8831)">
      <g id="Grupo_18423" data-name="Grupo 18423" transform="translate(75 -27)">
        <g id="Grupo_18421" data-name="Grupo 18421">
          <g id="Grupo_18420" data-name="Grupo 18420">
            <g id="Grupo_18419" data-name="Grupo 18419">
              <path id="Trazado_40936" data-name="Trazado 40936" d="M286.55,2191.684a45.964,45.964,0,1,1-45.963-45.962A45.963,45.963,0,0,1,286.55,2191.684Z" transform="translate(-194.623 -2145.721)" fill="#fff"/>
            </g>
          </g>
        </g>
        <path id="Trazado_40937" data-name="Trazado 40937" d="M286.23,2191.334a45.963,45.963,0,1,0-45.963,45.965A45.782,45.782,0,0,0,286.23,2191.334Z" transform="translate(-194.303 -2145.372)" fill="url(#radial-gradient)"/>
        <path id="Trazado_40938" data-name="Trazado 40938" d="M272.56,2188.562a35.084,35.084,0,1,0-35.084,35.084A34.953,34.953,0,0,0,272.56,2188.562Z" transform="translate(-191.373 -2142.446)" fill="none" stroke="#3487ad" stroke-miterlimit="10" stroke-width="4"/>
        <g id="Grupo_18422" data-name="Grupo 18422" transform="translate(8.143 25.805)">
          <path id="Trazado_40939" data-name="Trazado 40939" d="M279.682,2164.488a45.969,45.969,0,0,1-79.137,45.773,45.823,45.823,0,0,0,79.137-45.773Z" transform="translate(-200.545 -2164.488)" fill="#eceef0"/>
        </g>
      </g>
    </g>
    <g id="Grupo_26932" data-name="Grupo 26932" transform="translate(2909.837 8742.08)">
      <path id="Trazado_40940" data-name="Trazado 40940" d="M140.084,135.669H110.8a.638.638,0,0,1-.638-.638V116.273a4.124,4.124,0,0,1,2.618-3.821l5.895-2.282a.638.638,0,0,1,.46,1.19l-5.894,2.282a2.84,2.84,0,0,0-1.8,2.632v18.121h28.007V116.273a2.839,2.839,0,0,0-1.8-2.632l-5.895-2.282a.638.638,0,1,1,.461-1.19l5.894,2.282a4.123,4.123,0,0,1,2.618,3.821v18.758A.638.638,0,0,1,140.084,135.669Z" transform="translate(0 -5.344)" fill="#325a6a"/>
      <path id="Trazado_40941" data-name="Trazado 40941" d="M118,139.129a.638.638,0,0,1-.638-.638V126.868a.638.638,0,0,1,1.275,0v11.623A.637.637,0,0,1,118,139.129Z" transform="translate(-1.548 -8.804)" fill="#325a6a"/>
      <path id="Trazado_40942" data-name="Trazado 40942" d="M140.892,139.129a.638.638,0,0,1-.638-.638V126.868a.638.638,0,0,1,1.275,0v11.623A.637.637,0,0,1,140.892,139.129Z" transform="translate(-6.465 -8.804)" fill="#325a6a"/>
      <path id="Trazado_40943" data-name="Trazado 40943" d="M127.02,100.958c-.055,0-.109,0-.163-.006a2.186,2.186,0,0,1-1.6-.883L119.074,91.7a2.191,2.191,0,1,1,3.524-2.6l4.672,6.325,9.526-9.527a2.191,2.191,0,0,1,3.1,3.1l-11.326,11.325A2.177,2.177,0,0,1,127.02,100.958Zm-6.186-11.477a.915.915,0,0,0-.735,1.459l6.185,8.371a.916.916,0,0,0,1.384.1L138.993,88.09a.916.916,0,1,0-1.3-1.295L127.125,97.369l-5.553-7.516A.915.915,0,0,0,120.834,89.482Z" transform="translate(-1.822 0)" fill="#325a6a"/>
      <path id="Trazado_40944" data-name="Trazado 40944" d="M128.14,97.84l-.048,0a.637.637,0,0,1-.466-.257l-4.471-6.052a.638.638,0,0,1,.134-.892,8.271,8.271,0,0,1,10.684.716.637.637,0,0,1,.007.908l-5.391,5.392A.638.638,0,0,1,128.14,97.84Zm-3.562-6.533,3.634,4.921,4.388-4.389a6.991,6.991,0,0,0-8.023-.532Z" transform="translate(-2.765 -0.808)" fill="#325a6a"/>
      <path id="Trazado_40945" data-name="Trazado 40945" d="M127.352,106.67a8.29,8.29,0,0,1-7.2-12.409.637.637,0,0,1,1.066-.063l5.157,6.98a.916.916,0,0,0,1.384.1L134,95.04a.637.637,0,0,1,1.041.21,8.293,8.293,0,0,1-7.687,11.419Zm-6.535-10.863a7.022,7.022,0,1,0,13.349.867l-5.509,5.509a2.192,2.192,0,0,1-3.312-.247Z" transform="translate(-1.91 -1.866)" fill="#325a6a"/>
      <path id="Trazado_40946" data-name="Trazado 40946" d="M129.064,131.03a.635.635,0,0,1-.451-.186l-3.236-3.233a.638.638,0,0,1-.177-.559l1.877-10.937a.638.638,0,0,1,1.257.215l-1.821,10.612,2.552,2.549,2.551-2.549-1.821-10.612a.638.638,0,0,1,1.257-.215l1.877,10.937a.638.638,0,0,1-.177.559l-3.236,3.233A.638.638,0,0,1,129.064,131.03Z" transform="translate(-3.228 -6.516)" fill="#325a6a"/>
    </g>
  </g>
</svg>
