<svg xmlns="http://www.w3.org/2000/svg" xmlns:xlink="http://www.w3.org/1999/xlink" width="91.927" height="91.928" viewBox="0 0 91.927 91.928">
  <defs>
    <radialGradient id="radial-gradient" cx="0.076" cy="0.019" r="1.465" gradientTransform="translate(0.001)" gradientUnits="objectBoundingBox">
      <stop offset="0" stop-color="#f6f6f7"/>
      <stop offset="0.477" stop-color="#f9f9fa"/>
      <stop offset="0.715" stop-color="#fff"/>
    </radialGradient>
  </defs>
  <g id="Grupo_26936" data-name="Grupo 26936" transform="translate(-2989 -8936)">
    <g id="Grupo_26930" data-name="Grupo 26930" transform="translate(2914 8963)">
      <g id="Grupo_18423" data-name="Grupo 18423" transform="translate(75 -27)">
        <g id="Grupo_18421" data-name="Grupo 18421">
          <g id="Grupo_18420" data-name="Grupo 18420">
            <g id="Grupo_18419" data-name="Grupo 18419">
              <path id="Trazado_40936" data-name="Trazado 40936" d="M286.55,2191.684a45.964,45.964,0,1,1-45.963-45.962A45.963,45.963,0,0,1,286.55,2191.684Z" transform="translate(-194.623 -2145.721)" fill="#fff"/>
            </g>
          </g>
        </g>
        <path id="Trazado_40937" data-name="Trazado 40937" d="M286.23,2191.334a45.963,45.963,0,1,0-45.963,45.965A45.782,45.782,0,0,0,286.23,2191.334Z" transform="translate(-194.303 -2145.372)" fill="url(#radial-gradient)"/>
        <path id="Trazado_40938" data-name="Trazado 40938" d="M272.56,2188.562a35.084,35.084,0,1,0-35.084,35.084A34.953,34.953,0,0,0,272.56,2188.562Z" transform="translate(-191.373 -2142.446)" fill="none" stroke="#3487ad" stroke-miterlimit="10" stroke-width="4"/>
        <g id="Grupo_18422" data-name="Grupo 18422" transform="translate(8.143 25.805)">
          <path id="Trazado_40939" data-name="Trazado 40939" d="M279.682,2164.488a45.969,45.969,0,0,1-79.137,45.773,45.823,45.823,0,0,0,79.137-45.773Z" transform="translate(-200.545 -2164.488)" fill="#eceef0"/>
        </g>
      </g>
    </g>
    <g id="Grupo_26931" data-name="Grupo 26931" transform="translate(2989.097 8727.524)">
      <path id="Trazado_40947" data-name="Trazado 40947" d="M36.244,264.459a.717.717,0,0,1-.562-.269,14.723,14.723,0,0,1-3.294-9.331,14.9,14.9,0,0,1,28.8-5.362.721.721,0,0,1-1.345.518,13.458,13.458,0,0,0-26.013,4.843,13.3,13.3,0,0,0,2.975,8.427.721.721,0,0,1-.561,1.172Z" transform="translate(-1.067 -1.067)" fill="#325a6a"/>
      <path id="Trazado_40948" data-name="Trazado 40948" d="M61.523,267.234a.722.722,0,0,1-.562-1.173,13.667,13.667,0,0,0,.8-1.107.721.721,0,1,1,1.208.786c-.273.42-.572.832-.888,1.225A.721.721,0,0,1,61.523,267.234Z" transform="translate(-4.262 -3.84)" fill="#325a6a"/>
      <path id="Trazado_40949" data-name="Trazado 40949" d="M63.747,262.816a.721.721,0,0,1-.661-1.007,13.251,13.251,0,0,0,.72-2.143.721.721,0,0,1,1.4.341,14.889,14.889,0,0,1-.8,2.376A.722.722,0,0,1,63.747,262.816Zm1.126-4.614-.051,0a.721.721,0,0,1-.668-.77c.022-.313.033-.633.033-.95,0-.438-.021-.88-.063-1.314a.721.721,0,0,1,1.435-.139c.046.479.07.968.07,1.453,0,.351-.012.7-.037,1.051A.72.72,0,0,1,64.873,258.2Z" transform="translate(-4.512 -2.688)" fill="#325a6a"/>
      <path id="Trazado_40950" data-name="Trazado 40950" d="M64.438,253a.722.722,0,0,1-.7-.532,13.23,13.23,0,0,0-.426-1.3.721.721,0,1,1,1.345-.518,14.9,14.9,0,0,1,.473,1.439.721.721,0,0,1-.506.885A.71.71,0,0,1,64.438,253Z" transform="translate(-4.539 -2.216)" fill="#325a6a"/>
      <path id="Trazado_40951" data-name="Trazado 40951" d="M63.111,269.576a.721.721,0,0,1-.509-1.23l1.306-1.306a.309.309,0,0,0,0-.434l-2.586-2.585a1.234,1.234,0,0,1-.189-1.5,17.174,17.174,0,0,0,1.805-4.361,1.234,1.234,0,0,1,1.192-.926h3.658a.307.307,0,0,0,.306-.306v-6.278a.307.307,0,0,0-.306-.307H64.129a1.234,1.234,0,0,1-1.192-.926,17.161,17.161,0,0,0-1.805-4.36,1.234,1.234,0,0,1,.189-1.5l2.586-2.586a.307.307,0,0,0,0-.434L59.467,236.1a.306.306,0,0,0-.433,0l-2.587,2.586a1.237,1.237,0,0,1-1.5.189,17.207,17.207,0,0,0-4.361-1.806,1.233,1.233,0,0,1-.925-1.191v-3.658a.306.306,0,0,0-.307-.306H43.08a.306.306,0,0,0-.307.306v3.658a1.234,1.234,0,0,1-.926,1.191,17.244,17.244,0,0,0-4.361,1.805,1.234,1.234,0,0,1-1.5-.188L33.4,236.1a.307.307,0,0,0-.433,0l-4.439,4.439a.307.307,0,0,0,0,.434l2.586,2.586a1.233,1.233,0,0,1,.189,1.5,17.18,17.18,0,0,0-1.805,4.361,1.236,1.236,0,0,1-1.192.926H24.651a.306.306,0,0,0-.306.307v6.278a.306.306,0,0,0,.306.306H28.31a1.236,1.236,0,0,1,1.192.925,17.164,17.164,0,0,0,1.8,4.361,1.233,1.233,0,0,1-.188,1.5l-2.586,2.585a.307.307,0,0,0,0,.434l1.306,1.306a.72.72,0,0,1-1.019,1.019l-1.306-1.306a1.75,1.75,0,0,1,0-2.472l2.471-2.471a18.612,18.612,0,0,1-1.837-4.437h-3.5a1.75,1.75,0,0,1-1.748-1.748v-6.278a1.75,1.75,0,0,1,1.748-1.748h3.5a18.612,18.612,0,0,1,1.837-4.436L27.513,242a1.747,1.747,0,0,1,0-2.472l4.439-4.439a1.75,1.75,0,0,1,2.472,0l2.471,2.471a18.594,18.594,0,0,1,4.437-1.836v-3.5a1.751,1.751,0,0,1,1.748-1.748h6.278a1.751,1.751,0,0,1,1.748,1.748v3.5a18.609,18.609,0,0,1,4.437,1.836l2.471-2.471a1.789,1.789,0,0,1,2.472,0l4.439,4.439a1.748,1.748,0,0,1,0,2.472l-2.472,2.471a18.618,18.618,0,0,1,1.837,4.437h3.5a1.75,1.75,0,0,1,1.748,1.748v6.278a1.75,1.75,0,0,1-1.748,1.748h-3.5a18.61,18.61,0,0,1-1.836,4.437l2.471,2.471a1.75,1.75,0,0,1,0,2.472l-1.306,1.306A.717.717,0,0,1,63.111,269.576Z" fill="#325a6a"/>
      <path id="Trazado_40952" data-name="Trazado 40952" d="M48.38,263.969a6.263,6.263,0,1,1,6.263-6.263A6.271,6.271,0,0,1,48.38,263.969Zm0-11.085a4.821,4.821,0,1,0,4.821,4.821A4.827,4.827,0,0,0,48.38,252.884Z" transform="translate(-2.161 -2.358)" fill="#325a6a"/>
      <path id="Trazado_40953" data-name="Trazado 40953" d="M61.034,281.974H33.662a.721.721,0,0,1-.721-.721,14.431,14.431,0,0,1,10.59-13.879.72.72,0,1,1,.382,1.389,12.993,12.993,0,0,0-9.51,11.77H60.293a12.994,12.994,0,0,0-9.51-11.77.72.72,0,1,1,.382-1.389,14.432,14.432,0,0,1,10.59,13.879A.721.721,0,0,1,61.034,281.974Z" transform="translate(-1.129 -4.146)" fill="#325a6a"/>
    </g>
  </g>
</svg>
