<svg xmlns="http://www.w3.org/2000/svg" xmlns:xlink="http://www.w3.org/1999/xlink" width="91.927" height="91.928" viewBox="0 0 91.927 91.928">
  <defs>
    <radialGradient id="radial-gradient" cx="0.076" cy="0.019" r="1.465" gradientTransform="translate(0.001)" gradientUnits="objectBoundingBox">
      <stop offset="0" stop-color="#f6f6f7"/>
      <stop offset="0.477" stop-color="#f9f9fa"/>
      <stop offset="0.715" stop-color="#fff"/>
    </radialGradient>
  </defs>
  <g id="Grupo_26937" data-name="Grupo 26937" transform="translate(-2989 -9361)">
    <g id="Grupo_26933" data-name="Grupo 26933" transform="translate(2914 9388)">
      <g id="Grupo_18423" data-name="Grupo 18423" transform="translate(75 -27)">
        <g id="Grupo_18421" data-name="Grupo 18421">
          <g id="Grupo_18420" data-name="Grupo 18420">
            <g id="Grupo_18419" data-name="Grupo 18419">
              <path id="Trazado_40936" data-name="Trazado 40936" d="M286.55,2191.684a45.964,45.964,0,1,1-45.963-45.962A45.963,45.963,0,0,1,286.55,2191.684Z" transform="translate(-194.623 -2145.721)" fill="#fff"/>
            </g>
          </g>
        </g>
        <path id="Trazado_40937" data-name="Trazado 40937" d="M286.23,2191.334a45.963,45.963,0,1,0-45.963,45.965A45.782,45.782,0,0,0,286.23,2191.334Z" transform="translate(-194.303 -2145.372)" fill="url(#radial-gradient)"/>
        <path id="Trazado_40938" data-name="Trazado 40938" d="M272.56,2188.562a35.084,35.084,0,1,0-35.084,35.084A34.953,34.953,0,0,0,272.56,2188.562Z" transform="translate(-191.373 -2142.446)" fill="none" stroke="#3487ad" stroke-miterlimit="10" stroke-width="4"/>
        <g id="Grupo_18422" data-name="Grupo 18422" transform="translate(8.143 25.805)">
          <path id="Trazado_40939" data-name="Trazado 40939" d="M279.682,2164.488a45.969,45.969,0,0,1-79.137,45.773,45.823,45.823,0,0,0,79.137-45.773Z" transform="translate(-200.545 -2164.488)" fill="#eceef0"/>
        </g>
      </g>
    </g>
    <g id="Grupo_26934" data-name="Grupo 26934" transform="translate(2748.032 9224.511)">
      <path id="Trazado_40954" data-name="Trazado 40954" d="M303.481,195.992H272.975a6.007,6.007,0,1,1,0-12.013h30.505a.713.713,0,0,1,0,1.427H272.975a4.58,4.58,0,1,0,0,9.159h30.505a.713.713,0,0,1,0,1.427Z" transform="translate(0 -3.214)" fill="#325a6a"/>
      <path id="Trazado_40955" data-name="Trazado 40955" d="M306.839,195.992a.716.716,0,0,1-.65-.416,13.463,13.463,0,0,1,0-11.179.714.714,0,0,1,1.3.592,12.032,12.032,0,0,0,0,9.994.713.713,0,0,1-.353.945A.7.7,0,0,1,306.839,195.992Z" transform="translate(-4.612 -3.214)" fill="#325a6a"/>
      <path id="Trazado_40956" data-name="Trazado 40956" d="M284.062,193.982h-2.693a.713.713,0,0,1-.713-.713v-3.715a.713.713,0,0,1,.713-.713h2.693a.714.714,0,0,1,.713.713v3.715A.714.714,0,0,1,284.062,193.982Zm-1.98-1.427h1.266v-2.287h-1.266Z" transform="translate(-1.661 -3.804)" fill="#325a6a"/>
      <path id="Trazado_40957" data-name="Trazado 40957" d="M289.573,190.268H275.132a.714.714,0,0,1,0-1.428h14.441a.714.714,0,0,1,0,1.428Z" transform="translate(-0.904 -3.804)" fill="#325a6a"/>
      <path id="Trazado_40958" data-name="Trazado 40958" d="M311.008,209.5H298.334a.713.713,0,1,1,0-1.427h12.674a.713.713,0,0,1,0,1.427Z" transform="translate(-3.719 -6.138)" fill="#325a6a"/>
      <path id="Trazado_40959" data-name="Trazado 40959" d="M289.916,208.041H277.309a6.007,6.007,0,1,1,0-12.014h30.505a.713.713,0,0,1,0,1.427H277.309a4.58,4.58,0,1,0,0,9.16h12.606a.713.713,0,1,1,0,1.427Z" transform="translate(-0.526 -4.676)" fill="#325a6a"/>
      <path id="Trazado_40960" data-name="Trazado 40960" d="M311.173,208.041a.714.714,0,0,1-.65-.418,13.459,13.459,0,0,1,0-11.177.713.713,0,1,1,1.3.591,12.041,12.041,0,0,0,0,9.995.715.715,0,0,1-.648,1.01Z" transform="translate(-5.137 -4.676)" fill="#325a6a"/>
      <path id="Trazado_40961" data-name="Trazado 40961" d="M301.781,202.316H287.34a.713.713,0,1,1,0-1.427h14.441a.713.713,0,1,1,0,1.427Z" transform="translate(-2.385 -5.266)" fill="#325a6a"/>
      <path id="Trazado_40962" data-name="Trazado 40962" d="M292.6,211.788a.724.724,0,0,1-.273-.054.715.715,0,0,1-.44-.66V201.6a.713.713,0,0,1,.713-.713h5.036a.714.714,0,0,1,.713.713v9.451a.714.714,0,0,1-1.219.5l-2-2-2.024,2.025A.713.713,0,0,1,292.6,211.788Zm.713-9.472v7.036l1.311-1.311a.733.733,0,0,1,1.009,0l1.289,1.289v-7.014Z" transform="translate(-3.024 -5.266)" fill="#325a6a"/>
      <path id="Trazado_40963" data-name="Trazado 40963" d="M283.189,183.333a6.574,6.574,0,0,1-4.185-1.6,10.043,10.043,0,0,1-3.252-7.923,6.645,6.645,0,0,1,1.977-5.171c1.932-1.749,4.768-1.874,6.808-1.669a15.141,15.141,0,0,0,2.878.011c2.044-.187,4.884-.04,6.811,1.72a6.6,6.6,0,0,1,1.952,5.11,10.043,10.043,0,0,1-3.252,7.923,6.361,6.361,0,0,1-5.168,1.514,10.118,10.118,0,0,0-3.586,0A5.578,5.578,0,0,1,283.189,183.333Zm-.041-15.007a6.689,6.689,0,0,0-4.461,1.37,5.292,5.292,0,0,0-1.508,4.113,8.655,8.655,0,0,0,2.741,6.828,4.939,4.939,0,0,0,4,1.2,11.547,11.547,0,0,1,4.09,0,4.934,4.934,0,0,0,4-1.2,8.652,8.652,0,0,0,2.741-6.828,5.246,5.246,0,0,0-1.488-4.057c-1.623-1.481-4.28-1.483-5.718-1.352a16.471,16.471,0,0,1-3.15-.011C284.042,168.354,283.615,168.326,283.148,168.326Z" transform="translate(-1.066 -1.141)" fill="#325a6a"/>
      <path id="Trazado_40964" data-name="Trazado 40964" d="M294.339,175.163a.713.713,0,0,1-.714-.713,3.631,3.631,0,0,0-1.018-2.807c-1.126-1.027-3-1.025-4.01-.933a.713.713,0,1,1-.13-1.421,6.679,6.679,0,0,1,5.1,1.3,4.979,4.979,0,0,1,1.483,3.861A.713.713,0,0,1,294.339,175.163Z" transform="translate(-2.53 -1.426)" fill="#325a6a"/>
      <path id="Trazado_40965" data-name="Trazado 40965" d="M286.839,167.65a.715.715,0,0,1-.7-.571,13.026,13.026,0,0,0-2.981-5.7.714.714,0,1,1,1.025-.993,14.26,14.26,0,0,1,3.354,6.407.712.712,0,0,1-.556.84A.734.734,0,0,1,286.839,167.65Z" transform="translate(-1.94 -0.325)" fill="#325a6a"/>
      <path id="Trazado_40966" data-name="Trazado 40966" d="M287.765,164.071a13.22,13.22,0,0,1-1.939-.152.715.715,0,0,1-.607-.759c.005-.062.556-6.241,8.857-5.628a.714.714,0,0,1,.66.757,6.5,6.5,0,0,1-2.281,4.313A7.241,7.241,0,0,1,287.765,164.071Zm-.99-1.474a6.471,6.471,0,0,0,4.768-1.094,4.959,4.959,0,0,0,1.63-2.584C288.459,158.825,287.135,161.353,286.775,162.6Z" transform="translate(-2.214)" fill="#325a6a"/>
    </g>
  </g>
</svg>
