<svg xmlns="http://www.w3.org/2000/svg" width="414.243" height="245.417" viewBox="0 0 414.243 245.417">
  <g id="Grupo_16457" data-name="Grupo 16457" transform="translate(-244.343 -1975.363)">
    <path id="Trazado_39093" data-name="Trazado 39093" d="M531.994,2343.709q-.011-4.123-.022-8.246c.728-.751,1.615-.442,2.462-.36a12.881,12.881,0,1,0,.256-25.621,3.769,3.769,0,0,1-2.73-.342q0-18.4-.006-36.794c0-3.085.338-2.728-2.836-2.736-5.588-.016-11.178-.082-16.764.041-1.785.039-2.15-.547-2.118-2.2q.154-7.835,0-15.674c-.036-1.693.4-2.183,2.14-2.171,11.683.082,23.368.043,35.052.043q63.683,0,127.366-.048c2.057,0,2.733.429,2.66,2.588-.171,5.074-.116,10.159-.02,15.238.031,1.656-.34,2.265-2.142,2.228-5.876-.121-11.757.005-17.634-.08-1.534-.023-1.942.435-1.937,1.95.039,12.917,0,25.834-.023,38.751-.978.614-1.815-.071-2.68-.321a13.17,13.17,0,0,0-15.8,7.152,9.844,9.844,0,0,0-.687,2.06c-.5,2.354-.367,2.589,2.09,3.321a18.411,18.411,0,0,1,11.979,9.993c.818,1.726,1.724,2.6,3.651,1.7a1.63,1.63,0,0,1,1.475.092l.116,9.381c-.2,1.051-1.1,1.484-1.864,1.986-4.884,3.2-7.317,7.812-7.868,13.514-.272,2.814.361,3.4,3.135,3.549,2.18.121,4.463-.644,6.532.635q.007.635.013,1.271c-.8,1.006-1.945.811-3,.823-3.749.045-7.5-.025-11.247.031-5.392.081-7.734,2.324-8.1,7.7a3.477,3.477,0,0,1-.766,2.41h-3.92a4.013,4.013,0,0,1-.791-2.859c-.268-4.563-2.733-7.089-7.32-7.2-6.455-.154-12.915-.041-19.373-.048-6.531-.007-13.062-.036-19.591.011-5.371.039-7.773,2.285-8.319,7.673a3.659,3.659,0,0,1-.8,2.422h-2.178a4.011,4.011,0,0,1-.808-2.849c-.275-4.65-2.755-7.125-7.513-7.2-8.759-.128-17.52-.012-26.28-.062-1.328-.008-2.788.351-3.876-.848q.005-.639.011-1.278c.876-.891,2.018-.691,3.08-.7,6.235-.028,12.471,0,18.707-.019,2.867-.01,3.445-.677,3.15-3.5-.911-8.674-6.467-14.687-14.857-16.137a16.775,16.775,0,0,0-7.3.614C533.818,2343.833,532.922,2344.337,531.994,2343.709Z" transform="translate(-150.072 -154.782)" fill="#325c6d"/>
    <path id="Trazado_39094" data-name="Trazado 39094" d="M1066.343,2524.669c.016-1.23,0-2.463.056-3.691a7.183,7.183,0,0,1,7.068-7.136q20.961-.129,41.923,0a7.148,7.148,0,0,1,7.05,6.919c.091,1.3.066,2.6.094,3.905Z" transform="translate(-463.948 -303.889)" fill="#b2a864"/>
    <path id="Trazado_39095" data-name="Trazado 39095" d="M928.343,2524.673c.394-1.2.112-2.444.2-3.665.308-4.245,3.236-7.17,7.5-7.186q20.538-.074,41.077,0a7.21,7.21,0,0,1,7.482,7.378c.032,1.156-.041,2.315-.066,3.472Z" transform="translate(-386.059 -303.893)" fill="#b2a864"/>
    <path id="Trazado_39096" data-name="Trazado 39096" d="M244.343,2524.69c.005-.652.014-1.3.016-1.955.015-6.285,2.674-8.915,9.033-8.917q18.9-.005,37.793,0c6.653,0,9.213,2.534,9.257,9.142,0,.577.06,1.153.092,1.73Z" transform="translate(0 -303.91)" fill="#b2a864"/>
    <path id="Trazado_39097" data-name="Trazado 39097" d="M537.056,2513.632q14.784.062,29.568.13a15.955,15.955,0,0,1,2.811.172,7.206,7.206,0,0,1,6.054,6.956c.059,1.23.031,2.464.044,3.7H519.343c.032-1.152.054-2.3.1-3.455a7.34,7.34,0,0,1,7.451-7.4C530.279,2513.65,533.668,2513.661,537.056,2513.632Z" transform="translate(-155.214 -303.806)" fill="#b2a864"/>
    <path id="Trazado_39098" data-name="Trazado 39098" d="M791.234,2524.58c-.736-8.8,3.387-11.294,10.762-10.88,4.1.23,8.23-.036,12.347-.079q11.84.043,23.68.083c6.637.017,9.2,2.546,9.268,9.154.006.574.088,1.148.135,1.722Z" transform="translate(-308.625 -303.8)" fill="#b2a864"/>
    <path id="Trazado_39099" data-name="Trazado 39099" d="M382.2,2524.667c-.037-1.3-.159-2.6-.094-3.9a7.081,7.081,0,0,1,7.01-6.931q20.966-.127,41.934,0a7.074,7.074,0,0,1,7,6.934c.064,1.294-.058,2.6-.095,3.9Z" transform="translate(-77.743 -303.887)" fill="#b2a864"/>
    <path id="Trazado_39100" data-name="Trazado 39100" d="M653.343,2524.715c.054-1.227.08-2.455.166-3.679.3-4.17,3.149-7.1,7.324-7.119q20.655-.11,41.31,0c4.341.025,7.257,3.181,7.354,7.535.024,1.087.024,2.174.036,3.261Z" transform="translate(-230.845 -303.935)" fill="#b2a864"/>
    <path id="Trazado_39101" data-name="Trazado 39101" d="M559.447,2104.438c-2.9,1.167-5.4,3.047-8.091,4.593-.969.557-1.415.46-2.064-.459-3.34-4.731-3.369-4.712,1.375-8.137q11.387-8.219,22.786-16.421a3.741,3.741,0,0,0,1.686-2.592,9,9,0,0,1,10.493-7.2,9.09,9.09,0,0,1,7.358,10.809,8.96,8.96,0,0,1-10.577,7.084,4.512,4.512,0,0,0-3.828.758,10.209,10.209,0,0,1-1.68,1c-9.285,4.019-13.677,11.916-16.558,20.965-2.644,8.3-3.51,16.88-3.71,25.552-.032,1.359.394,1.737,1.72,1.714,4.209-.074,8.421-.094,12.629.008,1.543.038,1.909-.553,2.07-1.972,1.076-9.473,2.894-18.791,6.482-27.673,2.668-6.6,6.272-12.6,11.88-17.185a24.615,24.615,0,0,1,16.063-5.708c12.485.009,24.975.206,37.454-.059,10.876-.23,18.756,4.618,24.648,13.305,5.1,7.521,7.714,16.037,9.594,24.814a166.468,166.468,0,0,1,2.562,17.653c.161,1.539-.227,2.018-1.806,1.986-4.644-.1-9.293-.113-13.935.008-1.657.043-2.022-.546-2.17-2.073-.844-8.757-2.156-17.429-5.471-25.664-.251-.622-.275-1.419-1.292-1.924v2.2q0,12.63-.012,25.26c0,.817.348,1.79-.675,2.334-7.857-.056-15.714-.3-23.568.128l-.1-.158-.17.085c-1.151-.333-.91-1.367-.981-2.147-1.017-11.188-2.579-22.316-3.635-33.5-.295-3.123-.93-6.177-2.883-8.774a2.8,2.8,0,0,1-.136-3.077c.657-1.452,1.426-2.852,1.97-4.358.417-1.154.231-1.852-1.167-1.772a34.374,34.374,0,0,1-7.133-.621c-1.728-.263-2.266.343-1.958,2.078a12,12,0,0,0,1.7,4.211,3.067,3.067,0,0,1,.023,3.484c-3.423,5.438-3.808,11.507-4.242,17.728-.518,7.429,1,14.742.555,22.127-.044.723-.022,1.45-.031,2.175-.022,1.68-.681,2.39-2.528,2.356-4.707-.089-9.42-.155-14.129.037-1.145-.416-.815-1.406-.817-2.219q-.025-12.4-.01-24.8v-2.555c-1.148.483-1.211,1.437-1.488,2.16-3.092,8.058-4.462,16.493-5.228,25.032-.161,1.788-.709,2.248-2.461,2.242-17.694-.064-35.388-.091-53.08.025-2.3.015-2.313-.971-2.365-2.677-.057-1.861.285-2.686,2.445-2.6,4.852.182,9.718-.046,14.572.106,2.031.064,2.684-.412,2.722-2.567.2-11.164,1.712-22.1,6.272-32.445.38-.862,1.28-1.6.891-2.729Z" transform="translate(-162.645 -55.71)" fill="#325c6d"/>
    <path id="Trazado_39102" data-name="Trazado 39102" d="M740.686,2014.64c-.933.433-1.874.848-2.815,1.265-.735-1.708-2.685-3.249-5.488-4.475.047-.607.1-1.214.145-1.824.194-2.587.463-5.231-1.276-7.54-1.592-2.114-1.383-3.9.568-5.745a13.042,13.042,0,0,0,1.332-1.116c.408-.508,1.23-.981.394-1.785l.021.017c-.706-.876-1.447-.371-2.117.007a6.02,6.02,0,0,0-2.8,2.937,5.223,5.223,0,0,1-4.2,3.325c-1.342.284-2.655.715-3.982,1.078-3.815,1.043-7.6,1.553-11.551.507a27.581,27.581,0,0,0-7.316-.867,3.637,3.637,0,0,1-2.608-.876c-.644-.58-1.357-1.277-2.291-.683a2.7,2.7,0,0,0-1,2.51,5.325,5.325,0,0,0,.223,1.5,2.72,2.72,0,0,1-.839,3.123,2.555,2.555,0,0,0-.873,2.745,4.761,4.761,0,0,1-.392,3.158,18.1,18.1,0,0,0-1.486,4.527c-.134,1.11-.183,2.187.88,2.934.942.851.73,2.134,1.187,3.185,5.51,12.675,20.727,18.588,33.241,12.617,8.544-4.077,13.587-10.84,14.3-20.5A1.254,1.254,0,0,0,740.686,2014.64Z" transform="translate(-252.809 -9.928)" fill="#325c6d"/>
    <path id="Trazado_39103" data-name="Trazado 39103" d="M347.746,2454.706a17.667,17.667,0,0,1-6.407-1.266c-2.473-.987-4.585-2.2-5.408-5.115a12.486,12.486,0,0,0-3.838-5.724,5.09,5.09,0,0,1-1.7-3.823c-.321-7.145,2.392-12.817,8.609-16.4,6.285-3.625,12.738-3.354,18.659.835,5.831,4.125,8.147,9.979,7.1,17.1a6.341,6.341,0,0,1-1.543,3.512,10.177,10.177,0,0,0-1.958,2.857C358.757,2452.817,353.44,2454.059,347.746,2454.706Z" transform="translate(-48.55 -250.873)" fill="#dedede"/>
    <path id="Trazado_39104" data-name="Trazado 39104" d="M920.754,2437.48a17.352,17.352,0,0,1-24.246,15.9,3.831,3.831,0,0,1-2.46-2.726,17.871,17.871,0,0,0-6.479-9.542,3.313,3.313,0,0,1-1.45-2.7,17.331,17.331,0,1,1,34.635-.938Z" transform="translate(-362.216 -251.024)" fill="#dedede"/>
    <path id="Trazado_39105" data-name="Trazado 39105" d="M480.548,2454.8a14.613,14.613,0,0,1-4.13-.532c-2.39-.6-4.242-1.43-4.932-4.373a15.574,15.574,0,0,0-6.5-9,3.564,3.564,0,0,1-1.6-3.279,17.366,17.366,0,1,1,17.165,17.189Z" transform="translate(-123.629 -251.031)" fill="#dedede"/>
    <path id="Trazado_39106" data-name="Trazado 39106" d="M1036.608,2454.845c-.865-.074-1.736-.113-2.6-.227-2.556-.339-4.366-1.055-5.045-4.213-1.011-4.706-4.2-8.217-8.335-10.687a2.568,2.568,0,0,1-1.4-2.6,17.358,17.358,0,1,1,34.7,1.041,4.624,4.624,0,0,1-1.743,3.734,15.305,15.305,0,0,0-5.248,7.841,5.279,5.279,0,0,1-3.557,3.689A18.044,18.044,0,0,1,1036.608,2454.845Z" transform="translate(-437.358 -251.027)" fill="#dedede"/>
    <path id="Trazado_39107" data-name="Trazado 39107" d="M682.78,2170.822c4.495-.043,8.992-.176,13.484-.086,1.87.038,2.478-.328,2.526-2.406.194-8.424-1.089-16.794-.61-25.238.351-6.182,1.062-12.146,4.613-17.409.621-.92.336-1.542-.2-2.322a9.843,9.843,0,0,1-2.078-5.631c.011-1.592.485-2.615,2.5-2.035a20.2,20.2,0,0,0,8.407.692c1.747-.243,1.99.54,1.456,1.824-.835,2.006-1.826,3.947-2.745,5.917-.216.464-.889.835-.177,1.469,2.537,2.255,3.042,5.427,3.4,8.491,1.426,12.252,2.68,24.524,4,36.788Z" transform="translate(-247.46 -79.113)" fill="#fcfcfd"/>
    <path id="Trazado_39108" data-name="Trazado 39108" d="M1101.361,2483.074c-5.293,0-10.587-.05-15.879.032-1.484.024-2.005-.442-2.125-1.923a17.972,17.972,0,1,1,35.855-.145c-.112,1.538-.542,2.112-2.19,2.077C1111.8,2483,1106.581,2483.074,1101.361,2483.074Z" transform="translate(-473.518 -274.598)" fill="#dedede"/>
    <path id="Trazado_39109" data-name="Trazado 39109" d="M416.839,2483.073c-5.223,0-10.448-.084-15.667.046-1.781.044-2.18-.644-2.288-2.219a17.984,17.984,0,1,1,35.879.433c-.131,1.415-.67,1.789-2.038,1.77C427.43,2483.029,422.134,2483.073,416.839,2483.073Z" transform="translate(-87.202 -274.597)" fill="#dedede"/>
    <path id="Trazado_39110" data-name="Trazado 39110" d="M976,2483.073c-5.223,0-10.447-.042-15.669.028-1.42.019-2.042-.312-2.152-1.871a17.98,17.98,0,1,1,35.87-.219c-.089,1.536-.5,2.136-2.162,2.1C986.59,2483,981.293,2483.073,976,2483.073Z" transform="translate(-402.871 -274.597)" fill="#dedede"/>
    <path id="Trazado_39111" data-name="Trazado 39111" d="M279.265,2482.912c-5.294,0-10.588-.048-15.881.032-1.4.021-1.942-.418-2-1.807-.319-7.121,2.328-12.823,8.381-16.605,6.282-3.926,12.842-3.911,19.113.031,6.047,3.8,8.64,9.516,8.306,16.64-.071,1.518-.735,1.747-2.033,1.733C289.853,2482.881,284.559,2482.913,279.265,2482.912Z" transform="translate(-9.601 -274.436)" fill="#dedede"/>
    <path id="Trazado_39112" data-name="Trazado 39112" d="M830.987,2483.155c-2.671-.039-5.349-.21-8.011-.072-1.773.092-2.266-.654-2.306-2.208a17.706,17.706,0,0,1,7.12-15.276c1.023-.792,2.171-1.423,3.261-2.128a18.053,18.053,0,0,1,23.683,8.561,18.533,18.533,0,0,1,1.776,9.293c-.089,1.376-.639,1.795-2.022,1.788C846.654,2483.072,838.82,2483.13,830.987,2483.155Z" transform="translate(-325.282 -274.605)" fill="#dedede"/>
    <path id="Trazado_39113" data-name="Trazado 39113" d="M546.828,2463.6a19.146,19.146,0,0,1,12.945-.81c7.729,2.388,13.176,10.183,12.644,18.037-.112,1.658-.554,2.346-2.417,2.326-7.746-.08-15.494.027-23.241.066-2.68-.024-5.366-.159-8.039-.032-1.659.079-2.156-.571-2.2-2.087a17.945,17.945,0,0,1,8.437-16.394C545.562,2464.3,546.2,2463.964,546.828,2463.6Z" transform="translate(-164.905 -274.668)" fill="#dedede"/>
    <path id="Trazado_39114" data-name="Trazado 39114" d="M547.423,2385.908c7.568-1.187,13.03,1.167,15.966,7.007a12.756,12.756,0,0,1-1.266,14.284,12.967,12.967,0,0,1-13.184,5.206c-.5-.08-1-.118-1.5-.175-4.939-1.833-8.356-5.1-9.478-10.374C536.472,2394.887,540.1,2388.86,547.423,2385.908Z" transform="translate(-165.534 -231.548)" fill="#dedede"/>
    <path id="Trazado_39115" data-name="Trazado 39115" d="M1105.9,2398.722a13.662,13.662,0,0,1-16.275,13.429,2.846,2.846,0,0,1-2.346-1.891,16.972,16.972,0,0,0-7.067-8.295,3.242,3.242,0,0,1-1.646-3.22,13.667,13.667,0,0,1,27.333-.023Z" transform="translate(-470.846 -231.259)" fill="#dedede"/>
    <path id="Trazado_39116" data-name="Trazado 39116" d="M731.886,1983.51a5.661,5.661,0,0,0-4.335,3.74,4,4,0,0,1-3.169,2.9,53.157,53.157,0,0,0-6.929,1.843c-4.741,1.709-9.3.06-13.93-.468a23.883,23.883,0,0,0-3.462-.288c-1.534.051-2.8-.157-3.732-1.591-.663-1.024-1.269-.773-1.489.411a6.013,6.013,0,0,0,.325,3.635,1.661,1.661,0,0,1-.848,2.479c-1.13.651-1.676,1.426-.995,2.838.818,1.695-.363,3.194-1,4.609a8.672,8.672,0,0,0-.794,5.823c-1.657.419-1.941-.87-2.141-1.926a8.16,8.16,0,0,1,.256-3.64,17.321,17.321,0,0,0-.031-9.167c-.76-2.836.8-5.181,2.5-7.283a10.045,10.045,0,0,1,2.784-2.381c3.157-1.8,5.581-4.486,8.42-6.655,3.748-2.863,8.254-3.193,12.75-2.958a39.41,39.41,0,0,1,11.362,2.618,22.989,22.989,0,0,1,2.977,1.3C732.767,1980.607,732.926,1981.12,731.886,1983.51Z" transform="translate(-251.128)" fill="#fcfcfd"/>
    <path id="Trazado_39117" data-name="Trazado 39117" d="M984.916,2398.69a13.657,13.657,0,0,1,27.259-1.166,2.2,2.2,0,0,1-1.686,2.69,17.816,17.816,0,0,0-10.679,10.5,2.188,2.188,0,0,1-2.729,1.64A13.767,13.767,0,0,1,984.916,2398.69Z" transform="translate(-417.989 -231.259)" fill="#dedede"/>
    <path id="Trazado_39118" data-name="Trazado 39118" d="M818.05,2410.829c-3.943,1.433-3.912,1.415-5.949-2.166a18.274,18.274,0,0,0-12.333-9.208c-1.532-.342-2.147-.742-1.873-2.532a13.643,13.643,0,0,1,18.305-10.78q.91.347,1.822.691,8.838,6.479,6.562,15.423A14.242,14.242,0,0,1,818.05,2410.829Z" transform="translate(-312.396 -231.344)" fill="#dedede"/>
    <path id="Trazado_39119" data-name="Trazado 39119" d="M443.968,2398.885a13.654,13.654,0,0,1,27.1-2.511c.279,1.611.309,2.512-1.967,2.6-7.421.293-12.868,3.979-16.213,10.6-.7,1.38-1.187,1.623-2.514.767A13.846,13.846,0,0,1,443.968,2398.885Z" transform="translate(-112.671 -231.243)" fill="#dedede"/>
    <path id="Trazado_39120" data-name="Trazado 39120" d="M374.5,2407.159c-4.152-5.472-9.484-8.354-16.306-8.229a16.659,16.659,0,0,0-6.331,1.382c-1.1.473-1.514.374-1.623-.927-.462-5.533,3.318-11.287,8.887-13.39a13.651,13.651,0,0,1,15.981,5.023A13.356,13.356,0,0,1,374.5,2407.159Z" transform="translate(-59.747 -231.277)" fill="#dedede"/>
    <path id="Trazado_39121" data-name="Trazado 39121" d="M891.295,2398.624a13.645,13.645,0,1,1,27.133,2.16c-.238,1.516-.5,2.017-2.1,1.044-7.488-4.542-15.616-3.869-22.359,1.811-1.162.979-1.587.893-1.985-.523A14.664,14.664,0,0,1,891.295,2398.624Z" transform="translate(-365.145 -231.244)" fill="#dedede"/>
    <path id="Trazado_39122" data-name="Trazado 39122" d="M851.825,2314.178c0-3.187.035-6.374-.019-9.56-.019-1.108.313-1.555,1.476-1.525,2.606.065,5.215.057,7.821,0,1.08-.023,1.579.23,1.511,1.443-.239,4.266-.265,8.547-.616,12.8a8.784,8.784,0,0,1-8.32,7.782c-1.406.076-1.93-.353-1.883-1.817C851.892,2320.264,851.825,2317.221,851.825,2314.178Z" transform="translate(-342.853 -184.974)" fill="#325c6d"/>
    <path id="Trazado_39123" data-name="Trazado 39123" d="M762.776,2242.337c1.323-.548,2.708-.236,4.057-.236,6.5,0,13.009.065,19.512.108Z" transform="translate(-292.61 -150.5)" fill="#fcfcfd"/>
    <path id="Trazado_39124" data-name="Trazado 39124" d="M770.284,2420.392a17.182,17.182,0,0,1,17.014,20.3,5.187,5.187,0,0,1-1.319,2.663,15.81,15.81,0,0,0-3.51,5.457,6.207,6.207,0,0,1-2.877,3.38,17.093,17.093,0,0,1-16.642,1.059c-2.228-.991-4.134-2.278-4.865-4.884a8.554,8.554,0,0,0-2.486-4.047c-3.023-2.657-2.853-6.068-2.337-9.443A17.035,17.035,0,0,1,770.284,2420.392Z" transform="translate(-287.074 -251.18)" fill="#dedede"/>
    <path id="Trazado_39125" data-name="Trazado 39125" d="M625.712,2420.41a16.318,16.318,0,0,1,14.2,10.547c2.734,6.614,1.689,12.907-3.113,18.221-4.87,5.389-11.047,6.852-18.034,4.913-1.9-.527-3.228-1.357-3.779-3.588a16.909,16.909,0,0,0-6.766-9.58,3.348,3.348,0,0,1-1.483-2.9C606.423,2428.264,614.816,2419.914,625.712,2420.41Z" transform="translate(-204.533 -251.178)" fill="#dedede"/>
    <path id="Trazado_39126" data-name="Trazado 39126" d="M701.032,2483.063c-5.3,0-10.6-.035-15.9.024-1.359.015-1.9-.377-2.007-1.81a17.934,17.934,0,1,1,35.779-.282c-.089,1.542-.552,2.137-2.2,2.106C711.486,2483,706.259,2483.063,701.032,2483.063Z" transform="translate(-247.628 -274.63)" fill="#dedede"/>
    <path id="Trazado_39127" data-name="Trazado 39127" d="M704.049,2397.411c.123-4.275,2.691-8.529,7.789-10.936a12.737,12.737,0,0,1,14.291,1.731,13.02,13.02,0,0,1,4.713,13.616,4.762,4.762,0,0,1-1.328,2.424,22.384,22.384,0,0,0-2.378,2.822c-3.242,4.68-7.834,6.324-13.336,4.707C708.013,2410.074,704.071,2404.83,704.049,2397.411Z" transform="translate(-259.464 -231.229)" fill="#dedede"/>
    <path id="Trazado_39128" data-name="Trazado 39128" d="M594.313,2143.5l.244-.221.017.189-.291-.016Z" transform="translate(-197.511 -94.776)" fill="#cadfee"/>
    <path id="Trazado_39129" data-name="Trazado 39129" d="M753.6,2044.568c-.719-.259-1.568.19-2.224-.408a.338.338,0,0,1,.369-.075c.272-.212.621-.174.923-.287.577-.064,1.3-.524,1.664.165C754.608,2044.479,754.027,2044.566,753.6,2044.568Z" transform="translate(-286.177 -38.507)" fill="#fcfcfd"/>
    <path id="Trazado_39130" data-name="Trazado 39130" d="M762.237,2045.67c.906-.05,1.835-.283,2.658.331A6.215,6.215,0,0,1,762.237,2045.67Z" transform="translate(-292.306 -39.634)" fill="#cadfee"/>
    <path id="Trazado_39131" data-name="Trazado 39131" d="M770.326,2046.724a1.26,1.26,0,0,1,1.315.351A1.507,1.507,0,0,1,770.326,2046.724Z" transform="translate(-296.872 -40.253)" fill="#cadfee"/>
    <path id="Trazado_39132" data-name="Trazado 39132" d="M753.149,2044.034a.831.831,0,0,1-.923.287A.923.923,0,0,1,753.149,2044.034Z" transform="translate(-286.656 -38.744)" fill="#cadfee"/>
    <path id="Trazado_39133" data-name="Trazado 39133" d="M746.671,2013.146c-.469,1.172-1.733.877-2.31,1.614-2.673,1.264-5.342,2.539-8.023,3.785-.68.316-1.26.621-1.35,1.5a2.334,2.334,0,0,1-.588,1.125c-3.137,3.774-12.942,3.559-16.143-.342h0a1.79,1.79,0,0,1-.649-1.748c.093-1.058.322-2.148-1.218-2.174-1.307-.022-2.819-.447-3.346,1.5a4.116,4.116,0,0,1-3.471,2.927,15.611,15.611,0,0,1-10.545-1.534c-1.521-.784-2.787-1.96-2.4-3.969.388-2.027,1.9-2.515,3.708-2.654a19.674,19.674,0,0,1,10.405,1.64c3.167,1.557,6.387,1.461,9.7.853.714.284,1.613-.438,2.224.408-1.962.426-4.181.557-3.987,3.465,2.12,2.856,5.295,2.851,8.37,3.017a12.6,12.6,0,0,0,4.23-.749c1.117-.331,2.018-.9,2.089-2.16.075-1.32-.9-1.845-1.959-2.245-.47-.178-.932-.377-1.4-.567-.4-.272-.948.033-1.315-.351l-.865-.1c-.858-.332-1.819.158-2.658-.331-.913-1.171.074-1.031.732-1.01a22.237,22.237,0,0,1,8.456,2.19,19.744,19.744,0,0,1-.013-7.852c.5-3.336.334-6.57-3.1-8.525-.754-.428-.3-.673,0-1.122,1.342-1.956,2.084-4.392,4.522-5.456.152-.066.142-.5.207-.768,2.806-1.231,6.109.485,7.836,4.135a8.569,8.569,0,0,1,1.021,4.577c-.311,3.1.521,6.167.388,9.262A1.388,1.388,0,0,0,746.671,2013.146Zm-38.05,6.889c1.529-.131,2.713-.87,2.916-2.411.192-1.459-1.168-1.889-2.228-2.258a21.034,21.034,0,0,0-8.758-1c-.995.084-2.152.2-2.443,1.4-.329,1.365.612,2.161,1.672,2.722a16.177,16.177,0,0,0,7.307,1.642C707.469,2020.11,708.046,2020.083,708.621,2020.034Z" transform="translate(-255.234 -10.021)" fill="#fcfcfd"/>
    <path id="Trazado_39134" data-name="Trazado 39134" d="M743.311,2077.69s-12.757,6.841-20.849-.482A31.661,31.661,0,0,0,743.311,2077.69Z" transform="translate(-269.857 -57.483)" fill="#fcfcfd"/>
  </g>
</svg>
