<svg xmlns="http://www.w3.org/2000/svg" width="373.504" height="262.824" viewBox="0 0 373.504 262.824">
  <g id="Grupo_16699" data-name="Grupo 16699" transform="translate(0)">
    <g id="Background_Complete" data-name="Background Complete" transform="translate(47.524 14.953)">
      <g id="Grupo_16519" data-name="Grupo 16519" transform="translate(0)">
        <g id="Grupo_16481" data-name="Grupo 16481" transform="translate(229.034 76.158)">
          <g id="Grupo_16459" data-name="Grupo 16459">
            <g id="Grupo_16458" data-name="Grupo 16458">
              <path id="Trazado_39135" data-name="Trazado 39135" d="M119.331,192.007s3.4-2.783,8.734,5.48a113.865,113.865,0,0,1,7.535,13.119s1.362,1.706,2.494.384,2.5-4.886,4.7-4.495c2.277.406,3.258,2.8,3.208,6.471s.134,11.716.154,12.444.532,1.717,1.448.939,5.937-7.669,9.064-5.091,1.307,12.782,1.129,13.9.083,1.563.629,1.779,2.014-2.259,3.523-4.161,3.59-3.842,5.271-2.2,2.92,9.027-2.922,21.833l-3.1,5.757-6.558.306c-14.074-.2-20.22-4.484-20.983-6.7s1.883-3.271,4.247-3.82,5.231-.818,5.268-1.4-.252-1.011-1.34-1.329-11.088-3.04-12.08-6.969,7.386-5.519,8.48-6.014.408-1.388-.23-1.71-7.843-3.939-11.181-5.465-5.083-3.437-4.476-5.668c.586-2.152,4.393-1.867,6.073-2.325s.72-2.418.72-2.418a113.843,113.843,0,0,1-8.633-12.424c-5.185-8.359-1.106-10.266-1.106-10.266" transform="translate(-117.879 -191.557)" fill="#ebebeb"/>
            </g>
          </g>
          <g id="Grupo_16462" data-name="Grupo 16462" transform="translate(6.244 7.843)">
            <g id="Grupo_16461" data-name="Grupo 16461">
              <g id="Grupo_16460" data-name="Grupo 16460">
                <path id="Trazado_39136" data-name="Trazado 39136" d="M166.414,264.3c-3.832-6.124-10.826-16.894-16.782-26.172s-11.338-17.676-15.2-23.781l-4.567-7.233-1.243-1.966-.327-.509c-.075-.114-.118-.169-.118-.169s.031.063.1.181l.31.519,1.211,1.986c1.054,1.724,2.6,4.207,4.513,7.269,3.832,6.124,9.2,14.539,15.151,23.814s12.969,20.035,16.832,26.138" transform="translate(-128.176 -204.471)" fill="#e0e0e0"/>
              </g>
            </g>
          </g>
          <g id="Grupo_16465" data-name="Grupo 16465" transform="translate(21.455 20.001)">
            <g id="Grupo_16464" data-name="Grupo 16464" transform="translate(0)">
              <g id="Grupo_16463" data-name="Grupo 16463">
                <path id="Trazado_39137" data-name="Trazado 39137" d="M164.96,224.492a2.1,2.1,0,0,0-.119.458c-.065.3-.146.729-.241,1.264-.188,1.069-.41,2.554-.625,4.2-.206,1.62-.394,3.084-.536,4.2-.067.5-.124.93-.17,1.273a2.16,2.16,0,0,0-.045.471,2.085,2.085,0,0,0,.123-.457c.064-.3.145-.729.234-1.265.177-1.072.38-2.558.6-4.2.219-1.617.415-3.08.567-4.2.07-.5.129-.93.177-1.273A2.17,2.17,0,0,0,164.96,224.492Z" transform="translate(-163.218 -224.492)" fill="#e0e0e0"/>
              </g>
            </g>
          </g>
          <g id="Grupo_16468" data-name="Grupo 16468" transform="translate(7.263 29.592)">
            <g id="Grupo_16467" data-name="Grupo 16467">
              <g id="Grupo_16466" data-name="Grupo 16466">
                <path id="Trazado_39138" data-name="Trazado 39138" d="M180.661,242.737c.01-.055-3.03-.648-6.788-1.323s-6.814-1.179-6.824-1.124,3.029.648,6.788,1.324S180.65,242.792,180.661,242.737Z" transform="translate(-167.049 -240.285)" fill="#e0e0e0"/>
              </g>
            </g>
          </g>
          <g id="Grupo_16471" data-name="Grupo 16471" transform="translate(18.455 45.87)">
            <g id="Grupo_16470" data-name="Grupo 16470" transform="translate(0)">
              <g id="Grupo_16469" data-name="Grupo 16469">
                <path id="Trazado_39139" data-name="Trazado 39139" d="M163.139,267.1a2.283,2.283,0,0,0-.482.027l-1.3.138c-1.1.115-2.622.267-4.307.373s-3.214.158-4.321.183l-1.311.031a2.226,2.226,0,0,0-.482.035,2.211,2.211,0,0,0,.481.044c.31.015.759.029,1.313.033,1.109.012,2.642-.013,4.332-.123s3.213-.282,4.312-.434c.549-.078.993-.146,1.3-.2A2.183,2.183,0,0,0,163.139,267.1Z" transform="translate(-150.932 -267.09)" fill="#e0e0e0"/>
              </g>
            </g>
          </g>
          <g id="Grupo_16474" data-name="Grupo 16474" transform="translate(30.545 35.446)">
            <g id="Grupo_16473" data-name="Grupo 16473">
              <g id="Grupo_16472" data-name="Grupo 16472">
                <path id="Trazado_39140" data-name="Trazado 39140" d="M148.138,249.925a1.882,1.882,0,0,0-.217.39l-.523,1.094c-.434.927-1.021,2.214-1.657,3.64s-1.2,2.723-1.6,3.665l-.465,1.12a1.847,1.847,0,0,0-.145.422,1.912,1.912,0,0,0,.217-.39l.524-1.094c.434-.927,1.021-2.214,1.658-3.641s1.2-2.722,1.6-3.664c.183-.441.338-.816.465-1.12A1.9,1.9,0,0,0,148.138,249.925Z" transform="translate(-143.524 -249.925)" fill="#e0e0e0"/>
              </g>
            </g>
          </g>
          <g id="Grupo_16477" data-name="Grupo 16477" transform="translate(39.313 46.561)">
            <g id="Grupo_16476" data-name="Grupo 16476" transform="translate(0)">
              <g id="Grupo_16475" data-name="Grupo 16475">
                <path id="Trazado_39141" data-name="Trazado 39141" d="M132.78,268.226a3.077,3.077,0,0,0-.273.5l-.677,1.4c-.563,1.185-1.328,2.828-2.161,4.648s-1.578,3.474-2.108,4.674l-.618,1.427a3.087,3.087,0,0,0-.2.534,3.019,3.019,0,0,0,.273-.5c.176-.365.4-.835.677-1.4.563-1.185,1.328-2.829,2.162-4.649s1.578-3.473,2.107-4.674l.618-1.426A3.085,3.085,0,0,0,132.78,268.226Z" transform="translate(-126.741 -268.226)" fill="#e0e0e0"/>
              </g>
            </g>
          </g>
          <g id="Grupo_16480" data-name="Grupo 16480" transform="translate(23.857 59.382)">
            <g id="Grupo_16479" data-name="Grupo 16479" transform="translate(0)">
              <g id="Grupo_16478" data-name="Grupo 16478">
                <path id="Trazado_39142" data-name="Trazado 39142" d="M152.107,289.345a3.5,3.5,0,0,0-.612.019l-1.66.115c-1.4.1-3.338.221-5.48.3s-4.082.1-5.487.109l-1.664.008a3.5,3.5,0,0,0-.611.027,3.56,3.56,0,0,0,.609.052c.393.021.961.042,1.665.056,1.406.03,3.35.031,5.5-.05s4.083-.226,5.483-.359c.7-.068,1.266-.129,1.656-.18A3.67,3.67,0,0,0,152.107,289.345Z" transform="translate(-136.594 -289.338)" fill="#e0e0e0"/>
              </g>
            </g>
          </g>
        </g>
        <g id="Grupo_16488" data-name="Grupo 16488" transform="translate(283.988 78.076)">
          <g id="Grupo_16486" data-name="Grupo 16486" transform="translate(0)">
            <g id="Grupo_16483" data-name="Grupo 16483">
              <g id="Grupo_16482" data-name="Grupo 16482">
                <path id="Trazado_39143" data-name="Trazado 39143" d="M41.795,216.409a17.483,17.483,0,0,0,.169,2.994,21.773,21.773,0,0,0,2.73,8.036l.063-.11h-.132l.063.111L61.7,257.6l.107.189.115-.184L79.9,228.926l.884-1.412.137-.219h-.259l.123.214a22.043,22.043,0,0,0,2.71-7.577,20.978,20.978,0,0,0,.27-3.943q-.054-.979-.106-1.951-.146-.963-.29-1.917a22.115,22.115,0,0,0-7.34-12.551,21.27,21.27,0,0,0-5.916-3.477l-.782-.292-.389-.145-.4-.106-1.585-.413a22.105,22.105,0,0,0-3.169-.384,21.314,21.314,0,0,0-3.083.055c-.5.04-.994.149-1.484.219l-.731.118c-.24.05-.473.123-.709.183l-1.392.377-1.32.5c-.216.086-.436.16-.646.254l-.614.307-1.2.609a21.8,21.8,0,0,0-6.985,6.448,22.2,22.2,0,0,0-3.043,6.511,19.71,19.71,0,0,0-.536,2.572,14.224,14.224,0,0,0-.2,1.913q-.026.77-.041,1.182c-.008.266,0,.4,0,.4s.016-.136.033-.4.039-.667.069-1.179a14.679,14.679,0,0,1,.23-1.9,20.01,20.01,0,0,1,.559-2.555,22.26,22.26,0,0,1,3.067-6.451,21.7,21.7,0,0,1,6.953-6.364l1.195-.6.609-.3c.208-.092.426-.165.641-.248l1.307-.494,1.379-.368c.233-.059.464-.131.7-.18l.723-.114c.485-.067.971-.174,1.468-.212a21.032,21.032,0,0,1,3.049-.047,21.929,21.929,0,0,1,3.132.387l1.565.412.394.106.384.144.772.29a21.062,21.062,0,0,1,5.837,3.445,21.873,21.873,0,0,1,7.235,12.4q.141.942.284,1.892.052.96.1,1.928a20.705,20.705,0,0,1-.268,3.893,21.775,21.775,0,0,1-2.676,7.478l-.126.215h.25l-.121-.218-.884,1.411L61.7,257.472l.222,0L44.815,227.366l-.064.109h.133l-.064-.111a22,22,0,0,1-2.779-7.972c-.14-.968-.18-1.717-.212-2.22-.009-.246-.016-.434-.021-.57S41.795,216.409,41.795,216.409Z" transform="translate(-41.785 -194.715)" fill="#e0e0e0"/>
              </g>
            </g>
            <g id="Grupo_16485" data-name="Grupo 16485" transform="translate(7.636 8.021)">
              <g id="Grupo_16484" data-name="Grupo 16484">
                <path id="Trazado_39144" data-name="Trazado 39144" d="M54.345,221.356a1.221,1.221,0,0,0,.025-.215c.011-.156.026-.365.044-.63.009-.14.019-.295.029-.464s.055-.354.086-.554a9.7,9.7,0,0,1,.278-1.369,12.692,12.692,0,0,1,1.469-3.519,13.176,13.176,0,0,1,15.813-5.653,12.053,12.053,0,0,1,3.333,1.784,12.041,12.041,0,0,1,2.787,2.786A12.752,12.752,0,0,1,80.1,217.14a13.041,13.041,0,0,1,.022,8.3,12.741,12.741,0,0,1-1.87,3.629,12.011,12.011,0,0,1-2.773,2.8,12.084,12.084,0,0,1-3.324,1.8A13.211,13.211,0,0,1,56.309,228.1a12.691,12.691,0,0,1-1.486-3.511,9.724,9.724,0,0,1-.285-1.368c-.031-.2-.069-.384-.088-.554l-.032-.464c-.02-.265-.036-.474-.047-.63a1.2,1.2,0,0,0-.026-.215,1.258,1.258,0,0,0,0,.216c0,.156.012.366.019.633l.018.468c.015.171.049.356.075.559a9.449,9.449,0,0,0,.261,1.383,12.569,12.569,0,0,0,1.457,3.565,13.377,13.377,0,0,0,9.023,6.322,13.427,13.427,0,0,0,7.046-.583,12.343,12.343,0,0,0,3.4-1.829,12.287,12.287,0,0,0,2.837-2.855,13,13,0,0,0,1.914-3.705,13.3,13.3,0,0,0-.022-8.478,13,13,0,0,0-1.933-3.694,12.289,12.289,0,0,0-2.85-2.84,12.346,12.346,0,0,0-3.406-1.812,13.429,13.429,0,0,0-7.049-.548,13.383,13.383,0,0,0-8.99,6.367A12.592,12.592,0,0,0,54.7,218.1a9.365,9.365,0,0,0-.254,1.385c-.026.2-.059.387-.072.559s-.011.327-.016.468c-.007.267-.012.477-.016.633A1.233,1.233,0,0,0,54.345,221.356Z" transform="translate(-54.34 -207.923)" fill="#e0e0e0"/>
              </g>
            </g>
          </g>
          <g id="Grupo_16487" data-name="Grupo 16487" transform="translate(12.575 14.654)">
            <path id="Trazado_39145" data-name="Trazado 39145" d="M71.926,231.833l7.726-5.391-1.881-2.7-5.181,3.615-6.7-8.516L63.3,220.878Z" transform="translate(-63.304 -218.845)" fill="#e0e0e0"/>
          </g>
        </g>
        <g id="Grupo_16496" data-name="Grupo 16496" transform="translate(60.768)">
          <g id="Grupo_16495" data-name="Grupo 16495">
            <g id="Grupo_16494" data-name="Grupo 16494">
              <g id="Grupo_16493" data-name="Grupo 16493">
                <g id="Grupo_16492" data-name="Grupo 16492">
                  <g id="Grupo_16491" data-name="Grupo 16491">
                    <g id="Grupo_16490" data-name="Grupo 16490">
                      <g id="Grupo_16489" data-name="Grupo 16489">
                        <path id="Trazado_39146" data-name="Trazado 39146" d="M403.293,72.051a25.582,25.582,0,0,0-6.572,1.736l-4.83-4.048-8.3,6.315,2.614,5.735a25.533,25.533,0,0,0-3.425,5.873l-6.276.553-1.4,10.332,5.9,2.206a25.481,25.481,0,0,0,1.737,6.573l-4.048,4.83,6.314,8.3,5.735-2.614a25.558,25.558,0,0,0,5.874,3.423l.551,6.276,10.334,1.4,2.205-5.9a25.5,25.5,0,0,0,6.572-1.736l4.832,4.049,8.3-6.315-2.616-5.735a25.586,25.586,0,0,0,3.424-5.872l6.275-.553,1.4-10.332-5.9-2.205a25.485,25.485,0,0,0-1.736-6.573l4.049-4.83-6.314-8.3-5.735,2.614a25.537,25.537,0,0,0-5.873-3.424l-.553-6.275L405.5,66.15l-2.207,5.9Zm3.1,14.248a11.187,11.187,0,1,1-11.235,8.557A11.19,11.19,0,0,1,406.392,86.3Z" transform="translate(-375.107 -66.15)" fill="#f5f5f5" fill-rule="evenodd"/>
                      </g>
                    </g>
                  </g>
                </g>
              </g>
            </g>
          </g>
        </g>
        <g id="Grupo_16504" data-name="Grupo 16504" transform="translate(164.75 35.106)">
          <g id="Grupo_16503" data-name="Grupo 16503" transform="translate(0)">
            <g id="Grupo_16502" data-name="Grupo 16502">
              <g id="Grupo_16501" data-name="Grupo 16501">
                <g id="Grupo_16500" data-name="Grupo 16500">
                  <g id="Grupo_16499" data-name="Grupo 16499">
                    <g id="Grupo_16498" data-name="Grupo 16498">
                      <g id="Grupo_16497" data-name="Grupo 16497">
                        <path id="Trazado_39147" data-name="Trazado 39147" d="M258.457,127.787a16.6,16.6,0,0,0-4.266,1.127l-3.135-2.628-5.386,4.1,1.7,3.723a16.6,16.6,0,0,0-2.223,3.812l-4.074.359-.909,6.707,3.83,1.432a16.544,16.544,0,0,0,1.127,4.266l-2.628,3.136,4.1,5.385,3.723-1.7a16.616,16.616,0,0,0,3.813,2.223l.358,4.074,6.708.91,1.431-3.831a16.551,16.551,0,0,0,4.266-1.127l3.136,2.628,5.386-4.1-1.7-3.723a16.626,16.626,0,0,0,2.223-3.811l4.073-.36.91-6.707-3.831-1.431a16.52,16.52,0,0,0-1.127-4.267l2.628-3.136-4.1-5.385-3.723,1.7a16.584,16.584,0,0,0-3.812-2.223l-.359-4.073-6.707-.91-1.432,3.83Zm2.011,9.249a7.262,7.262,0,1,1-7.294,5.554A7.264,7.264,0,0,1,260.468,137.036Z" transform="translate(-240.16 -123.957)" fill="#ebebeb" fill-rule="evenodd"/>
                      </g>
                    </g>
                  </g>
                </g>
              </g>
            </g>
          </g>
        </g>
        <g id="Grupo_16515" data-name="Grupo 16515" transform="translate(99.887 65)">
          <g id="Grupo_16509" data-name="Grupo 16509" transform="translate(20.549 21.34)">
            <g id="Grupo_16508" data-name="Grupo 16508">
              <g id="Grupo_16507" data-name="Grupo 16507">
                <g id="Grupo_16506" data-name="Grupo 16506">
                  <g id="Grupo_16505" data-name="Grupo 16505">
                    <path id="Trazado_39148" data-name="Trazado 39148" d="M347.022,209.942a8.868,8.868,0,0,0-2.425,1.6,11.68,11.68,0,0,0-3.759,6.91,11.827,11.827,0,0,0,.415,5.506,12.008,12.008,0,0,0,3.467,5.306,12.015,12.015,0,0,0,6.365,2.91,11.971,11.971,0,0,0,12.5-6.858,12.018,12.018,0,0,0,.967-6.932,12.015,12.015,0,0,0-2.612-5.777,11.834,11.834,0,0,0-4.42-3.309,11.683,11.683,0,0,0-7.847-.542,8.87,8.87,0,0,0-2.655,1.183c.035.076.929-.48,2.721-.929a11.7,11.7,0,0,1,7.588.724,11.462,11.462,0,0,1,6.612,8.744,11.463,11.463,0,0,1-.952,6.559,11.368,11.368,0,0,1-11.819,6.483,11.464,11.464,0,0,1-6.042-2.722,11.464,11.464,0,0,1-3.822-10.275,11.693,11.693,0,0,1,3.467-6.789C346.117,210.467,347.067,210.013,347.022,209.942Z" transform="translate(-340.689 -208.322)" fill="#ebebeb"/>
                  </g>
                </g>
              </g>
            </g>
          </g>
          <g id="Grupo_16514" data-name="Grupo 16514">
            <g id="Grupo_16513" data-name="Grupo 16513">
              <g id="Grupo_16512" data-name="Grupo 16512">
                <g id="Grupo_16511" data-name="Grupo 16511">
                  <g id="Grupo_16510" data-name="Grupo 16510">
                    <path id="Trazado_39149" data-name="Trazado 39149" d="M319.634,186.686a2.524,2.524,0,0,0-.09-.4l-.319-1.21-1.306-4.77-.052.123,9.62-5.2-.21-.036,4.359,4.966.078.09.117-.029a26.751,26.751,0,0,1,7.036-.745l.134,0,.066-.118,3.224-5.772-.277.114,10.492,3.086-.19-.271c-.129,2.043-.27,4.292-.415,6.6l-.011.168.145.087a26.607,26.607,0,0,1,5.5,4.423l.121.128.17-.049,6.355-1.81-.346-.145,5.249,9.6.067-.386L364.2,199.5l-.145.128.046.189a26.691,26.691,0,0,1,.759,7l-.005.2.173.1,5.78,3.211-.157-.381-3.066,10.5.342-.24-6.6-.4-.2-.012-.105.174a26.514,26.514,0,0,1-4.4,5.488l0,0h0c-.041.151.09-.335-.092.338l0,.006,0,.013.007.025.015.05.029.1.058.2.114.4.229.8.457,1.594.907,3.167.162-.387-9.59,5.263.41.071-4.381-4.947-.133-.15-.194.048a26.5,26.5,0,0,1-7,.769l-.2,0-.1.172-3.2,5.784.37-.152-10.5-3.05.222.316q.2-3.359.395-6.6l.011-.183-.157-.094a26.545,26.545,0,0,1-5.508-4.4l-.122-.128-.169.049-6.349,1.83.322.135-5.281-9.579-.055.317,4.938-4.392.109-.1-.035-.142a26.687,26.687,0,0,1-.786-7.026l0-.135-.117-.064-5.792-3.187.094.23,3.015-10.515-.154.109,6.6.36.066,0,.033-.056a27.767,27.767,0,0,1,3.171-4.318l.9-.974a2.737,2.737,0,0,0,.3-.326,3.428,3.428,0,0,0-.336.287c-.213.2-.536.506-.944.938a25.938,25.938,0,0,0-3.275,4.282l.1-.052-6.6-.445-.12-.008-.035.117-3.107,10.487-.045.152.14.078,5.77,3.227-.114-.2a27.03,27.03,0,0,0,.76,7.153l.074-.239-4.96,4.368-.154.136.1.182,5.242,9.6.108.2.216-.061,6.355-1.808-.291-.08a27.076,27.076,0,0,0,5.619,4.519l-.146-.276-.41,6.6-.016.247.239.07,10.5,3.071.246.072.125-.225,3.212-5.778-.293.167a27.1,27.1,0,0,0,7.176-.78l-.326-.1,4.377,4.951.176.2.234-.128,9.593-5.259.236-.129-.074-.259-.907-3.168-.456-1.593-.229-.8-.114-.4-.058-.2-.029-.1-.014-.05-.007-.025,0-.013,0-.006c-.183.672-.05.185-.09.335h0l0,0a27.154,27.154,0,0,0,4.512-5.628l-.308.162,6.6.4.267.016.075-.256,3.056-10.5.073-.253-.23-.128-5.784-3.2.168.293a27.278,27.278,0,0,0-.788-7.173l-.1.316,4.943-4.385.188-.166-.12-.219-5.272-9.584-.115-.211-.231.066-6.349,1.829.29.079a27.087,27.087,0,0,0-5.63-4.5l.134.254c.136-2.307.269-4.557.389-6.6l.013-.212-.2-.059-10.507-3.036-.185-.053-.092.167-3.191,5.791.2-.114a27.066,27.066,0,0,0-7.142.8l.195.061-4.4-4.931-.091-.1-.119.066-9.559,5.316-.077.042.025.081c.608,2.037,1.077,3.608,1.4,4.7.159.516.282.915.374,1.212A3.11,3.11,0,0,0,319.634,186.686Z" transform="translate(-305.277 -173.182)" fill="#ebebeb"/>
                  </g>
                </g>
              </g>
            </g>
          </g>
        </g>
        <g id="Grupo_16518" data-name="Grupo 16518" transform="translate(0 50.948)">
          <g id="Grupo_16516" data-name="Grupo 16516" transform="translate(59.287)">
            <path id="Trazado_39150" data-name="Trazado 39150" d="M446.333,188.581l9.53-37.9-38.774-.641Z" transform="translate(-417.09 -150.044)" fill="#ebebeb"/>
          </g>
          <g id="Grupo_16517" data-name="Grupo 16517" transform="translate(0 7.362)">
            <rect id="Rectángulo_3833" data-name="Rectángulo 3833" width="22.033" height="89.102" transform="matrix(-0.604, -0.797, 0.797, -0.604, 13.319, 71.413)" fill="#ebebeb"/>
          </g>
        </g>
      </g>
    </g>
    <g id="Character" transform="translate(8.625 30.27)">
      <g id="Grupo_16672" data-name="Grupo 16672" transform="translate(0 0)">
        <path id="Trazado_39151" data-name="Trazado 39151" d="M558.186,370.172l-4.925,11.167s9.7,8.757,8.987,10.909l-22-8.772,6.96-17.715Z" transform="translate(-500.121 -199.127)" fill="#e8505b"/>
        <path id="Trazado_39152" data-name="Trazado 39152" d="M558.186,370.172l-4.925,11.167s9.7,8.757,8.987,10.909l-22-8.772,6.96-17.715Z" transform="translate(-500.121 -199.127)" fill="#325c6d"/>
        <path id="Trazado_39153" data-name="Trazado 39153" d="M540.142,393.794l.771-1.758,20.8,9.068s.81.817.424,1.462Z" transform="translate(-500.01 -209.445)" fill="#263238"/>
        <path id="Trazado_39154" data-name="Trazado 39154" d="M627.492,395.43l-6.165,10.533s8.636,9.8,7.686,11.862L608.16,406.6l8.933-16.807Z" transform="translate(-608.16 -208.566)" fill="#e8505b"/>
        <path id="Trazado_39155" data-name="Trazado 39155" d="M627.492,395.43l-6.165,10.533s8.636,9.8,7.686,11.862L608.16,406.6l8.933-16.807Z" transform="translate(-608.16 -208.566)" fill="#325c6d"/>
        <path id="Trazado_39156" data-name="Trazado 39156" d="M608.028,416.4l.966-1.659,19.632,11.379s.711.9.254,1.5Z" transform="translate(-608.028 -218.362)" fill="#263238"/>
        <g id="Grupo_16600" data-name="Grupo 16600" transform="translate(44.193)">
          <g id="Grupo_16596" data-name="Grupo 16596" transform="translate(0 6.769)">
            <g id="Grupo_16532" data-name="Grupo 16532" transform="translate(2.046)">
              <g id="Grupo_16531" data-name="Grupo 16531">
                <g id="Grupo_16530" data-name="Grupo 16530">
                  <g id="Grupo_16524" data-name="Grupo 16524">
                    <g id="Grupo_16523" data-name="Grupo 16523">
                      <g id="Grupo_16522" data-name="Grupo 16522">
                        <g id="Grupo_16521" data-name="Grupo 16521">
                          <g id="Grupo_16520" data-name="Grupo 16520">
                            <path id="Trazado_39157" data-name="Trazado 39157" d="M530.5,134.86l13.516,1.053.449-7.567s5.452-.08,6.268-5.4,1.614-17.7,1.614-17.7h0a18.722,18.722,0,0,0-18.958-.278l-.876.5Z" transform="translate(-530.503 -102.518)" fill="#ffbe9d"/>
                          </g>
                        </g>
                      </g>
                    </g>
                  </g>
                  <g id="Grupo_16529" data-name="Grupo 16529" transform="translate(7.308 22.798)">
                    <g id="Grupo_16528" data-name="Grupo 16528">
                      <g id="Grupo_16527" data-name="Grupo 16527">
                        <g id="Grupo_16526" data-name="Grupo 16526">
                          <g id="Grupo_16525" data-name="Grupo 16525">
                            <path id="Trazado_39158" data-name="Trazado 39158" d="M550.125,143.012a12.526,12.526,0,0,1-6.677-2.954s1.182,4.188,6.573,4.456Z" transform="translate(-543.449 -140.058)" fill="#eb996e"/>
                          </g>
                        </g>
                      </g>
                    </g>
                  </g>
                </g>
              </g>
            </g>
            <g id="Grupo_16544" data-name="Grupo 16544" transform="translate(0 8.188)">
              <g id="Grupo_16537" data-name="Grupo 16537">
                <g id="Grupo_16536" data-name="Grupo 16536">
                  <g id="Grupo_16535" data-name="Grupo 16535">
                    <g id="Grupo_16534" data-name="Grupo 16534">
                      <g id="Grupo_16533" data-name="Grupo 16533">
                        <path id="Trazado_39159" data-name="Trazado 39159" d="M567.3,116.369c-.086-.052-3.513-1.6-3.909,2.064s3.363,3.305,3.381,3.2S567.3,116.369,567.3,116.369Z" transform="translate(-563.361 -116)" fill="#ffbe9d"/>
                      </g>
                    </g>
                  </g>
                </g>
              </g>
              <g id="Grupo_16543" data-name="Grupo 16543" transform="translate(0.941 1.148)">
                <g id="Grupo_16542" data-name="Grupo 16542">
                  <g id="Grupo_16541" data-name="Grupo 16541">
                    <g id="Grupo_16540" data-name="Grupo 16540">
                      <g id="Grupo_16539" data-name="Grupo 16539">
                        <g id="Grupo_16538" data-name="Grupo 16538">
                          <path id="Trazado_39160" data-name="Trazado 39160" d="M567.276,120.867c-.015-.013-.069.038-.182.076a.644.644,0,0,1-.479-.042,1.587,1.587,0,0,1-.577-1.5,2.115,2.115,0,0,1,.277-.895.74.74,0,0,1,.533-.438.326.326,0,0,1,.358.216c.038.107.007.179.026.186s.086-.053.072-.207a.411.411,0,0,0-.119-.245.487.487,0,0,0-.343-.131.9.9,0,0,0-.728.5,2.177,2.177,0,0,0-.332,1,1.666,1.666,0,0,0,.76,1.683.688.688,0,0,0,.594-.033C567.26,120.956,567.289,120.876,567.276,120.867Z" transform="translate(-565.776 -117.891)" fill="#eb996e"/>
                        </g>
                      </g>
                    </g>
                  </g>
                </g>
              </g>
            </g>
            <g id="Grupo_16595" data-name="Grupo 16595" transform="translate(10.619 5.048)">
              <g id="Grupo_16594" data-name="Grupo 16594" transform="translate(0)">
                <g id="Grupo_16583" data-name="Grupo 16583" transform="translate(0.124 3.022)">
                  <g id="Grupo_16582" data-name="Grupo 16582">
                    <g id="Grupo_16581" data-name="Grupo 16581">
                      <g id="Grupo_16556" data-name="Grupo 16556" transform="translate(8.08 0.98)">
                        <g id="Grupo_16549" data-name="Grupo 16549" transform="translate(1.233 1.25)">
                          <g id="Grupo_16548" data-name="Grupo 16548">
                            <g id="Grupo_16547" data-name="Grupo 16547">
                              <g id="Grupo_16546" data-name="Grupo 16546">
                                <g id="Grupo_16545" data-name="Grupo 16545">
                                  <path id="Trazado_39161" data-name="Trazado 39161" d="M535.822,120.28a.77.77,0,0,1-.843.665.736.736,0,0,1-.689-.8.77.77,0,0,1,.842-.666A.736.736,0,0,1,535.822,120.28Z" transform="translate(-534.287 -119.479)" fill="#263238"/>
                                </g>
                              </g>
                            </g>
                          </g>
                        </g>
                        <g id="Grupo_16555" data-name="Grupo 16555">
                          <g id="Grupo_16554" data-name="Grupo 16554">
                            <g id="Grupo_16553" data-name="Grupo 16553">
                              <g id="Grupo_16552" data-name="Grupo 16552">
                                <g id="Grupo_16551" data-name="Grupo 16551">
                                  <g id="Grupo_16550" data-name="Grupo 16550">
                                    <path id="Trazado_39162" data-name="Trazado 39162" d="M536.879,118.451c-.109.086-.625-.423-1.446-.536s-1.478.213-1.553.1c-.037-.05.084-.216.373-.37a2.111,2.111,0,0,1,1.261-.2,2.028,2.028,0,0,1,1.133.55C536.871,118.222,536.931,118.413,536.879,118.451Z" transform="translate(-533.873 -117.42)" fill="#263238"/>
                                  </g>
                                </g>
                              </g>
                            </g>
                          </g>
                        </g>
                      </g>
                      <g id="Grupo_16568" data-name="Grupo 16568">
                        <g id="Grupo_16561" data-name="Grupo 16561" transform="translate(1.34 1.308)">
                          <g id="Grupo_16560" data-name="Grupo 16560">
                            <g id="Grupo_16559" data-name="Grupo 16559">
                              <g id="Grupo_16558" data-name="Grupo 16558">
                                <g id="Grupo_16557" data-name="Grupo 16557">
                                  <path id="Trazado_39163" data-name="Trazado 39163" d="M548.95,118.761a.769.769,0,0,1-.842.665.735.735,0,0,1-.689-.8.769.769,0,0,1,.842-.666A.736.736,0,0,1,548.95,118.761Z" transform="translate(-547.416 -117.96)" fill="#263238"/>
                                </g>
                              </g>
                            </g>
                          </g>
                        </g>
                        <g id="Grupo_16567" data-name="Grupo 16567">
                          <g id="Grupo_16566" data-name="Grupo 16566">
                            <g id="Grupo_16565" data-name="Grupo 16565">
                              <g id="Grupo_16564" data-name="Grupo 16564">
                                <g id="Grupo_16563" data-name="Grupo 16563">
                                  <g id="Grupo_16562" data-name="Grupo 16562">
                                    <path id="Trazado_39164" data-name="Trazado 39164" d="M550.184,116.837c-.109.086-.626-.423-1.446-.535s-1.478.212-1.553.1c-.037-.05.083-.216.373-.37a2.108,2.108,0,0,1,1.26-.2,2.026,2.026,0,0,1,1.133.55C550.176,116.608,550.236,116.8,550.184,116.837Z" transform="translate(-547.178 -115.807)" fill="#263238"/>
                                  </g>
                                </g>
                              </g>
                            </g>
                          </g>
                        </g>
                      </g>
                      <g id="Grupo_16574" data-name="Grupo 16574" transform="translate(5.126 0.646)">
                        <g id="Grupo_16573" data-name="Grupo 16573" transform="translate(0)">
                          <g id="Grupo_16572" data-name="Grupo 16572">
                            <g id="Grupo_16571" data-name="Grupo 16571">
                              <g id="Grupo_16570" data-name="Grupo 16570">
                                <g id="Grupo_16569" data-name="Grupo 16569">
                                  <path id="Trazado_39165" data-name="Trazado 39165" d="M540.125,123.753a5.454,5.454,0,0,1,1.366-.053c.212.007.416-.006.471-.144a1.07,1.07,0,0,0-.052-.64l-.395-1.682a27.571,27.571,0,0,1-.8-4.365,27.805,27.805,0,0,1,1.153,4.29c.128.589.251,1.15.367,1.687a1.227,1.227,0,0,1-.007.837.531.531,0,0,1-.388.257,1.411,1.411,0,0,1-.362,0A5.389,5.389,0,0,1,540.125,123.753Z" transform="translate(-540.125 -116.87)" fill="#263238"/>
                                </g>
                              </g>
                            </g>
                          </g>
                        </g>
                      </g>
                      <g id="Grupo_16580" data-name="Grupo 16580" transform="translate(2.423 7.756)">
                        <g id="Grupo_16579" data-name="Grupo 16579">
                          <g id="Grupo_16578" data-name="Grupo 16578">
                            <g id="Grupo_16577" data-name="Grupo 16577">
                              <g id="Grupo_16576" data-name="Grupo 16576">
                                <g id="Grupo_16575" data-name="Grupo 16575">
                                  <path id="Trazado_39166" data-name="Trazado 39166" d="M544.231,128.579c.135.011.011.9.684,1.64s1.634.774,1.623.9c0,.058-.236.143-.637.1a2.236,2.236,0,0,1-1.362-.7,1.945,1.945,0,0,1-.516-1.366C544.041,128.771,544.171,128.565,544.231,128.579Z" transform="translate(-544.021 -128.578)" fill="#263238"/>
                                </g>
                              </g>
                            </g>
                          </g>
                        </g>
                      </g>
                    </g>
                  </g>
                </g>
                <g id="Grupo_16588" data-name="Grupo 16588">
                  <g id="Grupo_16587" data-name="Grupo 16587">
                    <g id="Grupo_16586" data-name="Grupo 16586">
                      <g id="Grupo_16585" data-name="Grupo 16585">
                        <g id="Grupo_16584" data-name="Grupo 16584">
                          <path id="Trazado_39167" data-name="Trazado 39167" d="M549.893,111.7c-.112.211-.916-.01-1.894-.029-.978-.039-1.793.134-1.892-.084-.044-.1.121-.295.465-.466a3.291,3.291,0,0,1,2.885.086C549.789,111.4,549.942,111.6,549.893,111.7Z" transform="translate(-546.1 -110.83)" fill="#263238"/>
                        </g>
                      </g>
                    </g>
                  </g>
                </g>
                <g id="Grupo_16593" data-name="Grupo 16593" transform="translate(8.47 1.548)">
                  <g id="Grupo_16592" data-name="Grupo 16592">
                    <g id="Grupo_16591" data-name="Grupo 16591">
                      <g id="Grupo_16590" data-name="Grupo 16590">
                        <g id="Grupo_16589" data-name="Grupo 16589">
                          <path id="Trazado_39168" data-name="Trazado 39168" d="M536.566,114.449c-.171.166-.708-.107-1.386-.211-.674-.128-1.272-.051-1.377-.264-.045-.1.072-.277.348-.418a2.029,2.029,0,0,1,2.226.384C536.591,114.164,536.642,114.367,536.566,114.449Z" transform="translate(-533.795 -113.379)" fill="#263238"/>
                        </g>
                      </g>
                    </g>
                  </g>
                </g>
              </g>
            </g>
          </g>
          <g id="Grupo_16599" data-name="Grupo 16599" transform="translate(2.395)">
            <g id="Grupo_16598" data-name="Grupo 16598">
              <g id="Grupo_16597" data-name="Grupo 16597">
                <path id="Trazado_39169" data-name="Trazado 39169" d="M549.921,97.857a1.988,1.988,0,0,0-.48-1.861,1.411,1.411,0,0,0-1.829-.119,1.646,1.646,0,0,0-1.123-2.174c-.862-.177-1.7.375-2.57.488a4,4,0,0,1-2.45-.638c-.745-.429-1.42-.972-2.179-1.376A6.888,6.888,0,0,0,530,94.955a3.059,3.059,0,0,0-3.383.765,5.017,5.017,0,0,0-1.253,3.393,11.2,11.2,0,0,0,.273,2.48c-.01.069-.026.135-.035.2-.357,2.941-.509,6.432.739,6.627,2.177.341,2.235-3.842,2.235-3.842,2.822-.658,2.389-4.809,3.144-5.323s2.354-1.731,7.555,1.921a10.959,10.959,0,0,0,6.549,1.654c.047,0,.1,0,.143-.009l.033,0c.018,0,.032-.009.049-.012a5.075,5.075,0,0,0,1.523-.407,2.869,2.869,0,0,0,1.37-1.15,1.572,1.572,0,0,0-.071-1.713A3.452,3.452,0,0,0,549.921,97.857Z" transform="translate(-525.35 -91.372)" fill="#263238"/>
              </g>
            </g>
          </g>
        </g>
        <g id="Grupo_16601" data-name="Grupo 16601" transform="translate(46.444 27.419)">
          <path id="Trazado_39170" data-name="Trazado 39170" d="M557.229,146.336l-.6,21.178-13.176-28.367.33-2.626Z" transform="translate(-543.449 -136.521)" fill="#ebebeb"/>
        </g>
        <g id="Grupo_16614" data-name="Grupo 16614" transform="translate(4.699 95.563)">
          <g id="Grupo_16602" data-name="Grupo 16602" transform="translate(36.93 4.385)">
            <path id="Trazado_39171" data-name="Trazado 39171" d="M522.724,256.548c.483.158,27.918,27.9,27.3,32.888s-20.146,41.893-20.146,41.893l-13.934-6.87L529.017,292.1l-.171-2.007L512.871,277l.853-21.051Z" transform="translate(-512.871 -255.952)" fill="#263238"/>
          </g>
          <g id="Grupo_16603" data-name="Grupo 16603" transform="translate(0)">
            <path id="Trazado_39172" data-name="Trazado 39172" d="M608.453,259.179c-.319.484-5.07,44.074-6.343,46.33s-20.356,39.469-20.356,39.469l-14.168-5.709,17.3-40.9-1.971-38.709,1.068-10.93,21.391,4.385Z" transform="translate(-567.585 -248.731)" fill="#263238"/>
          </g>
          <g id="Grupo_16605" data-name="Grupo 16605" transform="translate(34.769 12.675)">
            <g id="Grupo_16604" data-name="Grupo 16604">
              <path id="Trazado_39173" data-name="Trazado 39173" d="M567.563,312.939a2.428,2.428,0,0,0,.093-.437l.206-1.258c.171-1.128.41-2.7.7-4.637l2.2-15.313,2.115-15.329c.253-1.939.459-3.519.606-4.65q.093-.79.149-1.266a2.368,2.368,0,0,0,.032-.445,2.432,2.432,0,0,0-.092.435c-.052.317-.12.735-.206,1.258-.171,1.128-.41,2.7-.7,4.637-.568,3.948-1.345,9.349-2.2,15.317-.823,5.971-1.569,11.376-2.115,15.327-.253,1.939-.459,3.519-.606,4.65l-.15,1.267A2.5,2.5,0,0,0,567.563,312.939Z" transform="translate(-567.559 -269.603)" fill="#455a64"/>
            </g>
          </g>
          <g id="Grupo_16607" data-name="Grupo 16607" transform="translate(17.645 48.388)">
            <g id="Grupo_16606" data-name="Grupo 16606" transform="translate(0)">
              <path id="Trazado_39174" data-name="Trazado 39174" d="M602.6,328.41a41.362,41.362,0,0,0,1.94,6.825,41.519,41.519,0,0,0-1.94-6.825Z" transform="translate(-602.593 -328.41)" fill="#455a64"/>
            </g>
          </g>
          <g id="Grupo_16609" data-name="Grupo 16609" transform="translate(15.508 49.699)">
            <g id="Grupo_16608" data-name="Grupo 16608">
              <path id="Trazado_39175" data-name="Trazado 39175" d="M605.815,339.131a3.977,3.977,0,0,0,.773-1.076,10.6,10.6,0,0,0,1.32-6.189,3.946,3.946,0,0,0-.268-1.3,13.833,13.833,0,0,1-1.825,8.562Z" transform="translate(-605.811 -330.569)" fill="#455a64"/>
            </g>
          </g>
          <g id="Grupo_16611" data-name="Grupo 16611" transform="translate(53.72 35.832)">
            <g id="Grupo_16610" data-name="Grupo 16610" transform="translate(0)">
              <path id="Trazado_39176" data-name="Trazado 39176" d="M543.881,307.741a7.472,7.472,0,0,0-3.919,3.575c.077.051.752-.941,1.837-1.921S543.924,307.822,543.881,307.741Z" transform="translate(-539.956 -307.734)" fill="#455a64"/>
            </g>
          </g>
          <g id="Grupo_16613" data-name="Grupo 16613" transform="translate(53.364 34.548)">
            <g id="Grupo_16612" data-name="Grupo 16612" transform="translate(0)">
              <path id="Trazado_39177" data-name="Trazado 39177" d="M545.622,305.623a6.072,6.072,0,0,0-2.116,3.427,51.823,51.823,0,0,1,2.116-3.427Z" transform="translate(-543.492 -305.619)" fill="#455a64"/>
            </g>
          </g>
        </g>
        <g id="Grupo_16644" data-name="Grupo 16644" transform="translate(11.404 28.629)">
          <g id="Grupo_16616" data-name="Grupo 16616">
            <g id="Grupo_16615" data-name="Grupo 16615">
              <path id="Trazado_39178" data-name="Trazado 39178" d="M591.32,176.409l-3.507,17.4-2.854,24.281s-11.767-1.643-16.782-3.231c-5.817-1.841-18.473-3.409-18.473-3.409l2.133,2.111c-4.529-1.268-7.412-5.59-7.412-5.59,7.805-7.239,14.463-22.13,14.463-22.13l5.935-29.468s.9-4.157,1.445-6.005,9.556-7.812,10.8-8.565l.785-.371.25-2.362.929-.556,9.753,8.86A10.569,10.569,0,0,1,592.183,154a76.437,76.437,0,0,1,.425,11.085C592.492,168.533,591.32,176.409,591.32,176.409Z" transform="translate(-544.425 -138.514)" fill="#325c6d"/>
            </g>
          </g>
          <g id="Grupo_16626" data-name="Grupo 16626" transform="translate(28.345 7.4)">
            <g id="Grupo_16617" data-name="Grupo 16617" transform="translate(0.154)">
              <path id="Trazado_39179" data-name="Trazado 39179" d="M531.729,151.052s5.153,2.763,6.046,5.107-1.763,28.047-1.763,28.047l18.5.347.058,11.025s-29.39,2.322-30.534.734c-1.546-2.149-3.343-22.233-3.343-22.233l-.667-14.45S521.732,148.609,531.729,151.052Z" transform="translate(-520.028 -150.699)" fill="#325c6d"/>
            </g>
            <g id="Grupo_16619" data-name="Grupo 16619" transform="translate(0 26.853)" opacity="0.3">
              <g id="Grupo_16618" data-name="Grupo 16618">
                <path id="Trazado_39180" data-name="Trazado 39180" d="M566.866,215.958a17.7,17.7,0,0,1-7.406.692c-2.607-.242-5.258-1.668-6.244-4.093-.754-1.857-.44-3.949-.554-5.95-.1-1.739-.53-3.438-.792-5.16s.63-4.886,1.2-6.531c0,0,.66,11.931,2.526,16.94a4.1,4.1,0,0,0,1.144,1.829,4.494,4.494,0,0,0,2.418.666,70.094,70.094,0,0,0,8.056-.163" transform="translate(-551.823 -194.916)"/>
              </g>
            </g>
            <g id="Grupo_16621" data-name="Grupo 16621" transform="translate(0.182 10.492)">
              <g id="Grupo_16620" data-name="Grupo 16620">
                <path id="Trazado_39181" data-name="Trazado 39181" d="M519.791,167.975a1.611,1.611,0,0,0,0,.262c.007.186.017.441.029.768.033.69.081,1.682.143,2.952.067,1.286.149,2.853.244,4.669.112,1.819.171,3.9.395,6.18.2,2.286.439,4.788.726,7.471s.616,5.548,1.126,8.546a18.647,18.647,0,0,0,.508,2.266,4.423,4.423,0,0,0,1.334,2,3.378,3.378,0,0,0,2.3.822c.816.018,1.634,0,2.46-.013,3.3-.081,6.717-.251,10.213-.44,5.252-.29,10.314-.618,15.044-.95l.136-.01v-.136c-.024-3.916-.046-7.605-.066-11.008v-.127l-.126,0-17.86-.384-5-.087-1.315-.013c-.3,0-.451.01-.451.01s.153.017.45.031l1.315.052,4.994.158,17.857.493-.127-.13c.011,3.4.023,7.092.036,11.008l.135-.146c-4.729.323-9.79.646-15.04.936-3.494.189-6.906.361-10.2.446-.823.011-1.641.033-2.444.016a3.085,3.085,0,0,1-2.126-.752A4.132,4.132,0,0,1,523.232,201a18.488,18.488,0,0,1-.5-2.223c-.516-2.981-.844-5.846-1.152-8.524s-.549-5.18-.762-7.463c-.237-2.282-.312-4.356-.44-6.173s-.214-3.38-.3-4.665c-.086-1.268-.153-2.259-.2-2.947-.025-.326-.045-.58-.06-.766A1.774,1.774,0,0,0,519.791,167.975Z" transform="translate(-519.787 -167.975)" fill="#263238"/>
              </g>
            </g>
            <g id="Grupo_16623" data-name="Grupo 16623" transform="translate(30.883 34.026)">
              <g id="Grupo_16622" data-name="Grupo 16622" transform="translate(0)">
                <path id="Trazado_39182" data-name="Trazado 39182" d="M525.983,217.42a47.009,47.009,0,0,0,.125-5.347,47.23,47.23,0,0,0-.18-5.345,46.815,46.815,0,0,0-.125,5.347A47.249,47.249,0,0,0,525.983,217.42Z" transform="translate(-525.8 -206.728)" fill="#263238"/>
              </g>
            </g>
            <g id="Grupo_16625" data-name="Grupo 16625" transform="translate(32.151 35.556)">
              <g id="Grupo_16624" data-name="Grupo 16624" transform="translate(0)">
                <path id="Trazado_39183" data-name="Trazado 39183" d="M522.933,209.392c.035-.02-.149-.226-.5-.109a.569.569,0,0,0-.375.489.671.671,0,0,0,.376.661.689.689,0,0,0,.744-.137.623.623,0,0,0,.181-.582c-.083-.349-.327-.423-.335-.388-.03.035.115.163.12.414a.421.421,0,0,1-.153.347.435.435,0,0,1-.432.069.416.416,0,0,1-.222-.367.357.357,0,0,1,.185-.31C522.736,209.352,522.914,209.432,522.933,209.392Z" transform="translate(-522.055 -209.247)" fill="#263238"/>
              </g>
            </g>
          </g>
          <g id="Grupo_16627" data-name="Grupo 16627" transform="translate(8.996 20.384)">
            <path id="Trazado_39184" data-name="Trazado 39184" d="M601.706,172.08s-9.626,12.586-10.8,16.017-.267,8.354,1.694,10.709,3.542,1.4,3.542,1.4Z" transform="translate(-590.385 -172.08)" fill="#325c6d"/>
          </g>
          <g id="Grupo_16629" data-name="Grupo 16629" transform="translate(15.097 47.471)">
            <g id="Grupo_16628" data-name="Grupo 16628" transform="translate(0)">
              <path id="Trazado_39185" data-name="Trazado 39185" d="M590.949,216.709a20.172,20.172,0,0,0,4.877.837,20.191,20.191,0,0,0-4.877-.837Z" transform="translate(-590.949 -216.683)" fill="#263238"/>
            </g>
          </g>
          <g id="Grupo_16631" data-name="Grupo 16631" transform="translate(5.056 56.777)">
            <g id="Grupo_16630" data-name="Grupo 16630">
              <path id="Trazado_39186" data-name="Trazado 39186" d="M610.21,232.007a3.24,3.24,0,0,0-.261.664c-.146.434-.367,1.059-.653,1.824a54.172,54.172,0,0,1-2.586,5.833,61.452,61.452,0,0,1-3.234,5.5c-.449.683-.82,1.232-1.08,1.609a3.26,3.26,0,0,0-.376.607,3.161,3.161,0,0,0,.471-.536c.29-.356.689-.888,1.162-1.558a47.227,47.227,0,0,0,3.327-5.486,42.9,42.9,0,0,0,2.518-5.9c.261-.779.452-1.416.564-1.861A3.232,3.232,0,0,0,610.21,232.007Z" transform="translate(-602.019 -232.007)" fill="#263238"/>
            </g>
          </g>
          <g id="Grupo_16633" data-name="Grupo 16633" transform="translate(4.179 58.269)" opacity="0.3">
            <g id="Grupo_16632" data-name="Grupo 16632">
              <path id="Trazado_39187" data-name="Trazado 39187" d="M611.517,234.463c-1.525,2.719-3.094,5.491-5.418,7.569a14.008,14.008,0,0,0-2.364,2.29,2.881,2.881,0,0,0-.3,3.1.972.972,0,0,0,.96.519,1.23,1.23,0,0,0,.628-.51,37.491,37.491,0,0,0,6.392-12.55" transform="translate(-603.103 -234.463)"/>
            </g>
          </g>
          <g id="Grupo_16635" data-name="Grupo 16635" transform="translate(12.236 22.282)" opacity="0.3">
            <g id="Grupo_16634" data-name="Grupo 16634">
              <path id="Trazado_39188" data-name="Trazado 39188" d="M593.344,201.384a4.655,4.655,0,0,1-1.584-4.36,16.145,16.145,0,0,1,1.6-4.577,75.361,75.361,0,0,0,4.688-13.751l.941-3.491-4.762,24.911Z" transform="translate(-591.717 -175.205)"/>
            </g>
          </g>
          <g id="Grupo_16637" data-name="Grupo 16637" transform="translate(34.103 3.046)">
            <g id="Grupo_16636" data-name="Grupo 16636" transform="translate(0)">
              <path id="Trazado_39189" data-name="Trazado 39189" d="M565.357,147.118a21.3,21.3,0,0,0-1.794-1.792,21.358,21.358,0,0,0-1.792-1.795,10.649,10.649,0,0,0,3.586,3.587Z" transform="translate(-561.766 -143.529)" fill="#263238"/>
            </g>
          </g>
          <g id="Grupo_16639" data-name="Grupo 16639" transform="translate(38.666 8.761)">
            <g id="Grupo_16638" data-name="Grupo 16638" transform="translate(0)">
              <path id="Trazado_39190" data-name="Trazado 39190" d="M548.392,152.947c-.015.051.556.223,1.408.644a11.188,11.188,0,0,1,5.11,5.17c.411.857.576,1.43.627,1.415.021-.005,0-.152-.066-.416a6.93,6.93,0,0,0-.364-1.087,10.051,10.051,0,0,0-5.216-5.278,6.87,6.87,0,0,0-1.082-.377A1.14,1.14,0,0,0,548.392,152.947Z" transform="translate(-548.391 -152.94)" fill="#263238"/>
            </g>
          </g>
          <g id="Grupo_16641" data-name="Grupo 16641" transform="translate(12.812 20.653)">
            <g id="Grupo_16640" data-name="Grupo 16640" transform="translate(0)">
              <path id="Trazado_39191" data-name="Trazado 39191" d="M590.661,202.834a1.023,1.023,0,0,0,.151-.242l.386-.722,1.385-2.71.005-.01,0-.015c.6-2.758,1.454-6.781,2.379-11.256.855-4.216,1.628-8.032,2.2-10.847l.632-3.294c.063-.363.115-.66.157-.9a.16.16,0,1,0-.06-.013l-.213.887c-.181.816-.427,1.925-.727,3.275-.593,2.81-1.4,6.619-2.286,10.829-.926,4.474-1.741,8.5-2.283,11.276l.008-.025c-.539,1.141-.978,2.068-1.3,2.752l-.337.746A1.067,1.067,0,0,0,590.661,202.834Z" transform="translate(-590.66 -172.522)" fill="#263238"/>
            </g>
          </g>
          <g id="Grupo_16643" data-name="Grupo 16643" transform="translate(44.791 17.548)">
            <g id="Grupo_16642" data-name="Grupo 16642" transform="translate(0)">
              <path id="Trazado_39192" data-name="Trazado 39192" d="M546.629,190.759a5.426,5.426,0,0,0,.141-.912c.07-.644.161-1.484.272-2.5.216-2.11.493-5.027.78-8.251s.531-6.145.692-8.26c.071-1.017.129-1.86.175-2.506a5.419,5.419,0,0,0,.022-.922,5.286,5.286,0,0,0-.141.913c-.07.644-.162,1.485-.272,2.5-.216,2.11-.493,5.027-.781,8.251s-.531,6.143-.692,8.258c-.071,1.017-.13,1.86-.175,2.506A5.277,5.277,0,0,0,546.629,190.759Z" transform="translate(-546.618 -167.41)" fill="#263238"/>
            </g>
          </g>
        </g>
        <g id="Grupo_16662" data-name="Grupo 16662" transform="translate(74.1 65.418)">
          <g id="Grupo_16647" data-name="Grupo 16647" transform="translate(0)">
            <g id="Grupo_16645" data-name="Grupo 16645" transform="translate(0 2.464)">
              <path id="Trazado_39193" data-name="Trazado 39193" d="M497.883,206.442s3.991-3.027,4.964-3.21c.746-.14,5.2-.066,7.248-.023a1.466,1.466,0,0,1,1.47,1.423.775.775,0,0,1-.014.145,1.336,1.336,0,0,1-.973,1.012,1.553,1.553,0,0,1,1.079,1.461c.017,1.156-1.383,1.4-1.383,1.4a2.074,2.074,0,0,1,.2.178,1.38,1.38,0,0,1-.677,2.316l-.632.143a1.367,1.367,0,0,1,.842,1.149c-.023,1.522-3.446,1.814-3.446,1.814s-8.46,1.339-8.643,1.278S497.883,206.442,497.883,206.442Z" transform="translate(-497.826 -203.15)" fill="#ffbe9d"/>
            </g>
            <g id="Grupo_16646" data-name="Grupo 16646" transform="translate(5.759)">
              <path id="Trazado_39194" data-name="Trazado 39194" d="M507.412,199.815a2.47,2.47,0,0,1-1.009,2.053l-4.714-.185s3.511-1.212,4.01-1.81a4.055,4.055,0,0,1,.673-.658A.666.666,0,0,1,507.412,199.815Z" transform="translate(-501.689 -199.093)" fill="#ffbe9d"/>
            </g>
          </g>
          <g id="Grupo_16649" data-name="Grupo 16649" transform="translate(7.977 2.389)">
            <g id="Grupo_16648" data-name="Grupo 16648">
              <path id="Trazado_39195" data-name="Trazado 39195" d="M500.382,203.182a6.92,6.92,0,0,0,2.153.152,8.736,8.736,0,0,0,2.148-.152,6.921,6.921,0,0,0-2.153-.152A8.739,8.739,0,0,0,500.382,203.182Z" transform="translate(-500.382 -203.027)" fill="#eb996e"/>
            </g>
          </g>
          <g id="Grupo_16651" data-name="Grupo 16651" transform="translate(9.036 5.003)">
            <g id="Grupo_16650" data-name="Grupo 16650" transform="translate(0)">
              <path id="Trazado_39196" data-name="Trazado 39196" d="M499.629,207.5a6.83,6.83,0,0,0,3.7-.132,35.036,35.036,0,0,0-3.7.132Z" transform="translate(-499.629 -207.332)" fill="#eb996e"/>
            </g>
          </g>
          <g id="Grupo_16653" data-name="Grupo 16653" transform="translate(6.614 4.83)">
            <g id="Grupo_16652" data-name="Grupo 16652">
              <path id="Trazado_39197" data-name="Trazado 39197" d="M508.316,207.057c-.07.043.021.3.287.471s.537.151.548.069-.176-.187-.383-.324S508.387,207.009,508.316,207.057Z" transform="translate(-508.294 -207.047)" fill="#eb996e"/>
            </g>
          </g>
          <g id="Grupo_16655" data-name="Grupo 16655" transform="translate(8.517 7.931)">
            <g id="Grupo_16654" data-name="Grupo 16654" transform="translate(0)">
              <path id="Trazado_39198" data-name="Trazado 39198" d="M499.9,212.384a13.582,13.582,0,0,0,4.053-.133,13.583,13.583,0,0,0-4.053.133Z" transform="translate(-499.901 -212.152)" fill="#eb996e"/>
            </g>
          </g>
          <g id="Grupo_16657" data-name="Grupo 16657" transform="translate(5.683 6.902)">
            <g id="Grupo_16656" data-name="Grupo 16656" transform="translate(0)">
              <path id="Trazado_39199" data-name="Trazado 39199" d="M509.529,210.459c-.038-.011-.111.084-.134.27a.97.97,0,0,0,.825,1.049c.186.022.3-.027.293-.066,0-.083-.406-.136-.675-.482S509.611,210.477,509.529,210.459Z" transform="translate(-509.39 -210.459)" fill="#eb996e"/>
            </g>
          </g>
          <g id="Grupo_16659" data-name="Grupo 16659" transform="translate(7.805 10.593)">
            <g id="Grupo_16658" data-name="Grupo 16658">
              <path id="Trazado_39200" data-name="Trazado 39200" d="M501.772,217.031a11.023,11.023,0,0,0,3.629-.449,11.066,11.066,0,0,0-3.629.449Z" transform="translate(-501.772 -216.536)" fill="#eb996e"/>
            </g>
          </g>
          <g id="Grupo_16661" data-name="Grupo 16661" transform="translate(5.082 9.601)">
            <g id="Grupo_16660" data-name="Grupo 16660">
              <path id="Trazado_39201" data-name="Trazado 39201" d="M510.616,214.9c-.039-.005-.1.1-.092.281a1.136,1.136,0,0,0,.253.64c.345.418.732.569.776.513.061-.072-.25-.349-.534-.7S510.7,214.917,510.616,214.9Z" transform="translate(-510.524 -214.903)" fill="#eb996e"/>
            </g>
          </g>
        </g>
        <g id="Grupo_16663" data-name="Grupo 16663" transform="translate(16.211 100.72)">
          <path id="Trazado_39202" data-name="Trazado 39202" d="M612.455,260.433a5.389,5.389,0,0,1-4.088-2.576c-.1-.163-.18-.385-.053-.527a.467.467,0,0,1,.356-.107,11.071,11.071,0,0,1,3.874.664.528.528,0,0,1,.347.26.535.535,0,0,1-.016.319l-.5,1.915" transform="translate(-608.249 -257.223)" fill="#37474f"/>
        </g>
        <g id="Grupo_16671" data-name="Grupo 16671" transform="translate(23.936 37.234)">
          <g id="Grupo_16666" data-name="Grupo 16666" transform="translate(36)">
            <path id="Trazado_39204" data-name="Trazado 39204" d="M541.269,152.684s1.941,6.515,1.406,6.145-1.694-1.4-1.694-1.4Z" transform="translate(-540.98 -152.684)" fill="#ebebeb"/>
          </g>
          <g id="Grupo_16667" data-name="Grupo 16667" transform="translate(36.074 3.004)">
            <path id="Trazado_39205" data-name="Trazado 39205" d="M541.521,157.63l1.061,2.537a3.458,3.458,0,0,1,.206.819c.087.711.189,2.013-.234,2.1a1.425,1.425,0,0,1-1.134-.469Z" transform="translate(-541.419 -157.63)" fill="#263238"/>
          </g>
          <g id="Grupo_16670" data-name="Grupo 16670" transform="translate(0 1.455)">
            <g id="Grupo_16668" data-name="Grupo 16668">
              <path id="Trazado_39206" data-name="Trazado 39206" d="M544.467,157.028s10.382-4.051,16.131-.474,6.8,9.285,10.22,9.285c6.677,0,6.463-4.711,6.463-4.711l1.419.43c.027.964,1.547,7.885-5.489,8.743s-9.993-8.734-16.323-8.743a21.01,21.01,0,0,0-11.135,3.423l-4.547-2.876Z" transform="translate(-541.206 -155.079)" fill="#263238"/>
            </g>
            <g id="Grupo_16669" data-name="Grupo 16669" transform="translate(0.771 0.54)">
              <path id="Trazado_39207" data-name="Trazado 39207" d="M583.1,170.536a9.755,9.755,0,0,1-4.005-4.595c-1.613-3.721-5.075-7.97-7.966-9.037s-9.58-1.813-14.2,1.2l-2.959,4,3.842,2.492a35.673,35.673,0,0,1,6.769-2.71c4.774-1.333,7.676.172,10.452,2.8.172.164.331.326.469.482a31.482,31.482,0,0,0,4.395,3.892A6.924,6.924,0,0,0,583.1,170.536Z" transform="translate(-553.966 -155.969)" fill="#455a64"/>
            </g>
          </g>
        </g>
      </g>
    </g>
    <g id="Flag" transform="translate(261.512 0)">
      <g id="Grupo_16680" data-name="Grupo 16680" transform="translate(0)">
        <g id="Grupo_16673" data-name="Grupo 16673">
          <path id="Trazado_39208" data-name="Trazado 39208" d="M134.222,70.88c6.158.949,10.673-4.223,12.112-8.829,1.329-4.251,1.961-8.674,3.828-12.718,2.609-5.651,9.52-8.263,15.723-7.741s12.452,3.631,17.941,6.568l-1.513,34.018s-11.951-12.725-17.693-12.957c-9.581-.387-9.06,15.363-18.363,17.687,0,0-13.044,3.536-21.862-7.854A32.054,32.054,0,0,1,118.3,63.045S122.588,69.088,134.222,70.88Z" transform="translate(-118.301 -41.527)" fill="#325c6d"/>
        </g>
        <g id="Grupo_16675" data-name="Grupo 16675" transform="translate(58.592 0.99)">
          <g id="Grupo_16674" data-name="Grupo 16674" transform="translate(0)">
            <path id="Trazado_39209" data-name="Trazado 39209" d="M125.066,43.157c-.084,0-1.76,36.12-3.743,80.676-1.983,44.571-3.523,80.693-3.438,80.7s1.759-36.113,3.743-80.683C123.61,79.291,125.15,43.161,125.066,43.157Z" transform="translate(-117.882 -43.157)" fill="#263238"/>
          </g>
        </g>
        <g id="Grupo_16677" data-name="Grupo 16677" transform="translate(17.913 18.17)" opacity="0.2">
          <g id="Grupo_16676" data-name="Grupo 16676" transform="translate(0)">
            <path id="Trazado_39210" data-name="Trazado 39210" d="M187.019,71.448a41.408,41.408,0,0,1-4.529,10.211,12.561,12.561,0,0,1-7.689,5.787,7.485,7.485,0,0,0-1.726.448,1.668,1.668,0,0,0-1.028,1.354c-.025.891.9,1.474,1.7,1.868a13.965,13.965,0,0,0,3.539,1.36c1.246.233,2.223.363,3.079-.573a17.881,17.881,0,0,0,2.227-2.668c2.811-4.79,4.2-11.641,4.431-17.061" transform="translate(-172.047 -71.448)"/>
          </g>
        </g>
        <g id="Grupo_16679" data-name="Grupo 16679" transform="translate(24.557 11.088)">
          <g id="Grupo_16678" data-name="Grupo 16678">
            <path id="Trazado_39211" data-name="Trazado 39211" d="M171.1,88.714a1.282,1.282,0,0,0,.277-.158c.175-.113.426-.292.735-.54a12.678,12.678,0,0,0,2.271-2.467,18.96,18.96,0,0,0,2.274-4.424,48.747,48.747,0,0,0,1.684-5.845,65.189,65.189,0,0,0,1.569-10.923c.079-1.411.092-2.554.091-3.344-.009-.367-.015-.667-.021-.91a1.244,1.244,0,0,0-.028-.316,1.221,1.221,0,0,0-.033.316c-.01.242-.022.542-.037.907-.035.788-.081,1.928-.187,3.332a72.913,72.913,0,0,1-1.651,10.869,51.817,51.817,0,0,1-1.651,5.817,19.518,19.518,0,0,1-2.187,4.4,13.781,13.781,0,0,1-2.172,2.5C171.449,88.445,171.087,88.692,171.1,88.714Z" transform="translate(-171.102 -59.786)" fill="#263238"/>
          </g>
        </g>
      </g>
    </g>
    <g id="Stairs" transform="translate(0 157.755)">
      <g id="Grupo_16681" data-name="Grupo 16681" transform="translate(283.065 9.976)">
        <path id="Trazado_39212" data-name="Trazado 39212" d="M138.1,317.722l-81.36,13.319V317.722Z" transform="translate(-56.736 -317.722)" fill="#e0e0e0"/>
      </g>
      <g id="Grupo_16682" data-name="Grupo 16682" transform="translate(188.275 40.064)">
        <path id="Trazado_39213" data-name="Trazado 39213" d="M294.183,367.267l-81.36,13.319V367.267Z" transform="translate(-212.824 -367.267)" fill="#e0e0e0"/>
      </g>
      <g id="Grupo_16683" data-name="Grupo 16683" transform="translate(94.137 68.846)">
        <path id="Trazado_39214" data-name="Trazado 39214" d="M449.2,414.662l-81.36,13.319V414.662Z" transform="translate(-367.835 -414.662)" fill="#e0e0e0"/>
      </g>
      <g id="Grupo_16684" data-name="Grupo 16684" transform="translate(0.124 91.75)">
        <path id="Trazado_39215" data-name="Trazado 39215" d="M604,452.376,522.643,465.7V452.376Z" transform="translate(-522.643 -452.376)" fill="#e0e0e0"/>
      </g>
      <g id="Grupo_16687" data-name="Grupo 16687" transform="translate(283.065 0)">
        <g id="Grupo_16685" data-name="Grupo 16685" transform="translate(0)">
          <rect id="Rectángulo_3834" data-name="Rectángulo 3834" width="81.36" height="9.976" fill="#325c6d"/>
        </g>
        <g id="Grupo_16686" data-name="Grupo 16686" transform="translate(0)" opacity="0.3">
          <rect id="Rectángulo_3835" data-name="Rectángulo 3835" width="25.388" height="9.976"/>
        </g>
      </g>
      <g id="Grupo_16690" data-name="Grupo 16690" transform="translate(188.275 30.088)">
        <g id="Grupo_16688" data-name="Grupo 16688" transform="translate(0)">
          <rect id="Rectángulo_3836" data-name="Rectángulo 3836" width="81.36" height="9.976" fill="#325c6d"/>
        </g>
        <g id="Grupo_16689" data-name="Grupo 16689" transform="translate(0)" opacity="0.3">
          <rect id="Rectángulo_3837" data-name="Rectángulo 3837" width="25.388" height="9.976"/>
        </g>
      </g>
      <g id="Grupo_16693" data-name="Grupo 16693" transform="translate(94.137 58.87)">
        <g id="Grupo_16691" data-name="Grupo 16691" transform="translate(0)">
          <rect id="Rectángulo_3838" data-name="Rectángulo 3838" width="81.36" height="9.976" fill="#325c6d"/>
        </g>
        <g id="Grupo_16692" data-name="Grupo 16692" transform="translate(0)" opacity="0.3">
          <rect id="Rectángulo_3839" data-name="Rectángulo 3839" width="25.388" height="9.976"/>
        </g>
      </g>
      <g id="Grupo_16696" data-name="Grupo 16696" transform="translate(0 81.774)">
        <g id="Grupo_16694" data-name="Grupo 16694" transform="translate(0)">
          <rect id="Rectángulo_3840" data-name="Rectángulo 3840" width="81.36" height="9.976" fill="#325c6d"/>
        </g>
        <g id="Grupo_16695" data-name="Grupo 16695" transform="translate(0)" opacity="0.3">
          <rect id="Rectángulo_3841" data-name="Rectángulo 3841" width="25.388" height="9.976"/>
        </g>
      </g>
      <g id="Grupo_16698" data-name="Grupo 16698" transform="translate(45.715 43.25)">
        <g id="Grupo_16697" data-name="Grupo 16697">
          <path id="Trazado_39216" data-name="Trazado 39216" d="M578.681,374.726a2.212,2.212,0,1,1-2.212-2.213A2.212,2.212,0,0,1,578.681,374.726Z" transform="translate(-574.256 -372.513)" fill="#ebebeb"/>
        </g>
      </g>
    </g>
  </g>
</svg>
