<svg id="Grupo_16969" data-name="Grupo 16969" xmlns="http://www.w3.org/2000/svg" width="284.085" height="203.4" viewBox="0 0 284.085 203.4">
  <g id="Grupo_16958" data-name="Grupo 16958" transform="translate(0 11.934)">
    <path id="Trazado_39443" data-name="Trazado 39443" d="M196.713,4.6V186.726H76.852a9.7,9.7,0,0,1-9.6,9.34H54.8V4.6Z" transform="translate(87.372 -4.6)" fill="#325a6a"/>
    <path id="Trazado_39444" data-name="Trazado 39444" d="M142.172,4.6V196.066H129.719a9.525,9.525,0,0,1-9.6-9.34H0V4.6Z" transform="translate(0 -4.6)" fill="#325a6a"/>
  </g>
  <g id="Grupo_16968" data-name="Grupo 16968" transform="translate(11.934)">
    <g id="Grupo_16965" data-name="Grupo 16965">
      <g id="Grupo_16961" data-name="Grupo 16961" transform="translate(128.422)">
        <g id="Grupo_16959" data-name="Grupo 16959">
          <path id="Trazado_39445" data-name="Trazado 39445" d="M183.3,0V153.328H95.091a40.577,40.577,0,0,0-37.878,25.425H54.1V40.991A41.078,41.078,0,0,1,95.091,0Z" transform="translate(-54.1)" fill="#dedede"/>
          <path id="Trazado_39446" data-name="Trazado 39446" d="M181.387,59.1V84.525H55.3A41.238,41.238,0,0,1,93.178,59.1h88.209Z" transform="translate(-52.187 94.228)" fill="#c6c5c5"/>
        </g>
        <g id="Grupo_16960" data-name="Grupo 16960" transform="translate(34.246 36.84)">
          <line id="Línea_186" data-name="Línea 186" x2="72.383" fill="none" stroke="#00223d" stroke-miterlimit="10" stroke-width="0.746"/>
          <line id="Línea_187" data-name="Línea 187" x2="72.383" transform="translate(0 21.274)" fill="none" stroke="#00223d" stroke-miterlimit="10" stroke-width="0.746"/>
          <line id="Línea_188" data-name="Línea 188" x2="72.383" transform="translate(0 42.548)" fill="none" stroke="#00223d" stroke-miterlimit="10" stroke-width="0.746"/>
          <line id="Línea_189" data-name="Línea 189" x2="72.383" transform="translate(0 63.822)" fill="none" stroke="#00223d" stroke-miterlimit="10" stroke-width="0.746"/>
          <line id="Línea_190" data-name="Línea 190" x2="49.034" transform="translate(0 84.836)" fill="none" stroke="#00223d" stroke-miterlimit="10" stroke-width="0.746"/>
        </g>
      </g>
      <g id="Grupo_16964" data-name="Grupo 16964">
        <g id="Grupo_16962" data-name="Grupo 16962">
          <path id="Trazado_39447" data-name="Trazado 39447" d="M4.6,0V153.328H92.809a40.577,40.577,0,0,1,37.878,25.425H133.8V40.991A41.078,41.078,0,0,0,92.809,0Z" transform="translate(-4.6)" fill="#dedede"/>
          <path id="Trazado_39448" data-name="Trazado 39448" d="M4.6,59.1V84.525H130.687A41.238,41.238,0,0,0,92.809,59.1H4.6Z" transform="translate(-4.6 94.228)" fill="#c6c5c5"/>
        </g>
        <g id="Grupo_16963" data-name="Grupo 16963" transform="translate(26.982 36.84)">
          <line id="Línea_191" data-name="Línea 191" x1="72.124" fill="none" stroke="#00223d" stroke-miterlimit="10" stroke-width="0.746"/>
          <line id="Línea_192" data-name="Línea 192" x1="72.124" transform="translate(0 21.274)" fill="none" stroke="#00223d" stroke-miterlimit="10" stroke-width="0.746"/>
          <line id="Línea_193" data-name="Línea 193" x1="72.124" transform="translate(0 42.548)" fill="none" stroke="#00223d" stroke-miterlimit="10" stroke-width="0.746"/>
          <line id="Línea_194" data-name="Línea 194" x1="72.124" transform="translate(0 63.822)" fill="none" stroke="#00223d" stroke-miterlimit="10" stroke-width="0.746"/>
          <line id="Línea_195" data-name="Línea 195" x1="49.034" transform="translate(23.09 84.836)" fill="none" stroke="#00223d" stroke-miterlimit="10" stroke-width="0.746"/>
        </g>
      </g>
    </g>
    <line id="Línea_196" data-name="Línea 196" y1="16.604" transform="translate(129.46 162.149)" fill="none" stroke="#00223d" stroke-miterlimit="10" stroke-width="0.898"/>
    <line id="Línea_197" data-name="Línea 197" y1="94.955" transform="translate(129.46 33.208)" fill="none" stroke="#00223d" stroke-miterlimit="10" stroke-width="0.898"/>
    <g id="Grupo_16966" data-name="Grupo 16966" transform="translate(105.202 121.158)">
      <path id="Trazado_39449" data-name="Trazado 39449" d="M75.255,66.936l-3.892,3.892L54.5,87.691V53.7l3.892-3.632a12.553,12.553,0,0,1,17.123,0A12.145,12.145,0,0,1,75.255,66.936Z" transform="translate(-30.242 -46.7)" fill="#faf6d3"/>
      <path id="Trazado_39450" data-name="Trazado 39450" d="M69.408,53.7V87.691L52.544,70.828l-3.892-3.892A12.02,12.02,0,0,1,65.775,50.073Z" transform="translate(-45.15 -46.7)" fill="#faf6d3"/>
    </g>
    <g id="Grupo_16967" data-name="Grupo 16967" transform="translate(177.716 166.041)">
      <path id="Trazado_39451" data-name="Trazado 39451" d="M92.51,64v37.359l-14.01-7V64Z" transform="translate(-64.49 -64)" fill="#b2a864"/>
      <path id="Trazado_39452" data-name="Trazado 39452" d="M87.11,64V94.354l-14.01,7V64Z" transform="translate(-73.1 -64)" fill="#b2a864"/>
    </g>
  </g>
</svg>
