<svg xmlns="http://www.w3.org/2000/svg" xmlns:xlink="http://www.w3.org/1999/xlink" width="673.684" height="300.681" viewBox="0 0 673.684 300.681">
  <defs>
    <filter id="Trazado_67306" x="26.587" y="90.659" width="36.025" height="59.157" filterUnits="userSpaceOnUse">
      <feOffset dy="3" input="SourceAlpha"/>
      <feGaussianBlur stdDeviation="3" result="blur"/>
      <feFlood flood-opacity="0.161"/>
      <feComposite operator="in" in2="blur"/>
      <feComposite in="SourceGraphic"/>
    </filter>
    <filter id="Trazado_67307" x="0" y="90.659" width="36.025" height="59.157" filterUnits="userSpaceOnUse">
      <feOffset dy="3" input="SourceAlpha"/>
      <feGaussianBlur stdDeviation="3" result="blur-2"/>
      <feFlood flood-opacity="0.161"/>
      <feComposite operator="in" in2="blur-2"/>
      <feComposite in="SourceGraphic"/>
    </filter>
    <filter id="Trazado_67304" x="4.763" y="176.137" width="589.94" height="124.544" filterUnits="userSpaceOnUse">
      <feOffset dx="5" dy="5" input="SourceAlpha"/>
      <feGaussianBlur stdDeviation="3" result="blur-3"/>
      <feFlood flood-opacity="0.161"/>
      <feComposite operator="in" in2="blur-3"/>
      <feComposite in="SourceGraphic"/>
    </filter>
    <filter id="Trazado_67305" x="634.23" y="176.137" width="39.453" height="77.105" filterUnits="userSpaceOnUse">
      <feOffset dx="5" dy="5" input="SourceAlpha"/>
      <feGaussianBlur stdDeviation="3" result="blur-4"/>
      <feFlood flood-opacity="0.161"/>
      <feComposite operator="in" in2="blur-4"/>
      <feComposite in="SourceGraphic"/>
    </filter>
    <filter id="Trazado_67308" x="609.171" y="217.179" width="36.026" height="59.157" filterUnits="userSpaceOnUse">
      <feOffset dx="5" dy="5" input="SourceAlpha"/>
      <feGaussianBlur stdDeviation="3" result="blur-5"/>
      <feFlood flood-opacity="0.161"/>
      <feComposite operator="in" in2="blur-5"/>
      <feComposite in="SourceGraphic"/>
    </filter>
    <filter id="Trazado_67309" x="582.584" y="217.179" width="36.025" height="59.157" filterUnits="userSpaceOnUse">
      <feOffset dx="5" dy="5" input="SourceAlpha"/>
      <feGaussianBlur stdDeviation="3" result="blur-6"/>
      <feFlood flood-opacity="0.161"/>
      <feComposite operator="in" in2="blur-6"/>
      <feComposite in="SourceGraphic"/>
    </filter>
    <linearGradient id="linear-gradient" x1="0.5" y1="1" x2="0.5" gradientUnits="objectBoundingBox">
      <stop offset="0" stop-color="#325a6a"/>
      <stop offset="0.529" stop-color="#33708b"/>
      <stop offset="1" stop-color="#3487ad"/>
    </linearGradient>
    <filter id="Trazado_67572" x="132.913" y="0" width="468.35" height="81.602" filterUnits="userSpaceOnUse">
      <feOffset dx="3" dy="2" input="SourceAlpha"/>
      <feGaussianBlur stdDeviation="1" result="blur-7"/>
      <feFlood flood-color="#325a6a" flood-opacity="0.549"/>
      <feComposite operator="in" in2="blur-7"/>
      <feComposite in="SourceGraphic"/>
    </filter>
  </defs>
  <g id="Grupo_26922" data-name="Grupo 26922" transform="translate(-2891.237 -4843.319)">
    <path id="Trazado_67571" data-name="Trazado 67571" d="M7.251,17.167a6.866,6.866,0,0,1-2.509-.453,5.943,5.943,0,0,1-2.008-1.27A5.732,5.732,0,0,1,1.406,13.41a7.214,7.214,0,0,1-.483-2.685A6.831,6.831,0,0,1,1.753,7.31,5.638,5.638,0,0,1,4.017,5.064a6.7,6.7,0,0,1,3.234-.773,6.512,6.512,0,0,1,3.507.949A5.533,5.533,0,0,1,12.99,7.868l-1.96.747a3.747,3.747,0,0,0-1.49-1.74,4.255,4.255,0,0,0-2.29-.624,4.453,4.453,0,0,0-1.661.308,4,4,0,0,0-1.345.87,3.911,3.911,0,0,0-.9,1.411,5.228,5.228,0,0,0-.325,1.885,5.3,5.3,0,0,0,.325,1.894,3.9,3.9,0,0,0,.9,1.419A3.946,3.946,0,0,0,5.59,14.9a4.51,4.51,0,0,0,1.661.3,4.271,4.271,0,0,0,2.294-.62,3.73,3.73,0,0,0,1.485-1.736l1.96.747a5.516,5.516,0,0,1-2.228,2.624A6.528,6.528,0,0,1,7.251,17.167Zm7.8-.167V3.5h2.039V17Zm6.987.167a3.669,3.669,0,0,1-1.349-.233,2.144,2.144,0,0,1-.984-.791,2.353,2.353,0,0,1-.391-1.384,2.564,2.564,0,0,1,.18-.989,2.165,2.165,0,0,1,.475-.725,2.789,2.789,0,0,1,.747-.51,5.358,5.358,0,0,1,.914-.347q.461-.127,1.068-.242l1.336-.246q.817-.158.817-.8a1.256,1.256,0,0,0-.492-1.1,2.1,2.1,0,0,0-1.239-.347,2.075,2.075,0,0,0-1.274.374,1.636,1.636,0,0,0-.6,1.182l-1.819-.334Q19.881,8,23.247,8a6.23,6.23,0,0,1,1.05.083,3.751,3.751,0,0,1,.958.3,2.756,2.756,0,0,1,.8.558,2.435,2.435,0,0,1,.536.9,3.743,3.743,0,0,1,.2,1.279v3.428a1.4,1.4,0,0,0,.185.844.8.8,0,0,0,.65.229h.141V17h-.958q-1.5,0-1.793-1.169h-.1a2.874,2.874,0,0,1-1.252,1.011A4.143,4.143,0,0,1,22.043,17.167Zm.475-1.591a2.351,2.351,0,0,0,1.767-.729,2.645,2.645,0,0,0,.7-1.916l-2.259.5a2.708,2.708,0,0,0-1.09.409.883.883,0,0,0-.36.751.849.849,0,0,0,.343.738A1.5,1.5,0,0,0,22.518,15.576Zm10.169,1.591a4.552,4.552,0,0,1-2.479-.628A2.623,2.623,0,0,1,29,14.715l1.714-.483a1.832,1.832,0,0,0,.694,1.112,2.138,2.138,0,0,0,1.283.374,2.049,2.049,0,0,0,1.072-.264.9.9,0,0,0,.431-.853.824.824,0,0,0-.114-.435,1.2,1.2,0,0,0-.272-.316,1.9,1.9,0,0,0-.453-.25,5.107,5.107,0,0,0-.536-.193l-.655-.193q-.413-.123-.686-.211a6.249,6.249,0,0,1-.844-.325,4,4,0,0,1-.694-.439,1.72,1.72,0,0,1-.532-.69,2.434,2.434,0,0,1-.18-.971,2.324,2.324,0,0,1,.448-1.45,2.549,2.549,0,0,1,1.178-.857A4.824,4.824,0,0,1,32.52,8a4.127,4.127,0,0,1,2.237.571,2.5,2.5,0,0,1,1.129,1.749l-1.6.378a1.594,1.594,0,0,0-.637-.984A2.178,2.178,0,0,0,31.5,9.648a.828.828,0,0,0-.417.76,1.032,1.032,0,0,0,.031.259.506.506,0,0,0,.119.215l.158.171a.825.825,0,0,0,.229.154q.158.079.255.123a2.767,2.767,0,0,0,.316.11l.325.1q.105.031.365.1l.365.092q.492.132.839.246a4.843,4.843,0,0,1,.765.338,2.665,2.665,0,0,1,.677.5,2.219,2.219,0,0,1,.435.708,2.571,2.571,0,0,1,.176.971,2.623,2.623,0,0,1-.281,1.244,2.139,2.139,0,0,1-.769.835,3.768,3.768,0,0,1-1.09.453A5.449,5.449,0,0,1,32.687,17.167ZM46.274,12.43l-.026.51H39.524a2.667,2.667,0,0,0,.773,1.934,2.525,2.525,0,0,0,1.784.668,2.424,2.424,0,0,0,1.314-.36,2.272,2.272,0,0,0,.875-1.028l1.846.316a3.886,3.886,0,0,1-1.529,1.986,4.392,4.392,0,0,1-2.487.712,4.533,4.533,0,0,1-3.313-1.222,4.494,4.494,0,0,1-1.248-3.366,4.512,4.512,0,0,1,1.248-3.366,4.433,4.433,0,0,1,3.252-1.23,4.21,4.21,0,0,1,3.067,1.129A4.453,4.453,0,0,1,46.274,12.43ZM42.047,9.485a2.58,2.58,0,0,0-1.6.479,2.332,2.332,0,0,0-.839,1.463h4.632a2.131,2.131,0,0,0-.7-1.45A2.251,2.251,0,0,0,42.047,9.485ZM59.493,3.5h2.021V17H59.581l-.053-1.406a2.845,2.845,0,0,1-1.182,1.178,3.608,3.608,0,0,1-1.762.431,4.1,4.1,0,0,1-2.953-1.235,4.2,4.2,0,0,1-.905-1.459,5.341,5.341,0,0,1-.334-1.92,5.28,5.28,0,0,1,.334-1.907,4.2,4.2,0,0,1,.905-1.455,4.116,4.116,0,0,1,2.953-1.235,3.656,3.656,0,0,1,1.727.409,2.84,2.84,0,0,1,1.182,1.121ZM55.165,14.688a2.458,2.458,0,0,0,1.868.8,2.42,2.42,0,0,0,1.863-.817,2.968,2.968,0,0,0,.747-2.083,2.946,2.946,0,0,0-.751-2.074A2.424,2.424,0,0,0,57.032,9.7a2.465,2.465,0,0,0-1.868.8,2.927,2.927,0,0,0-.751,2.1A2.943,2.943,0,0,0,55.165,14.688ZM72.4,12.43l-.026.51H65.654a2.667,2.667,0,0,0,.773,1.934,2.525,2.525,0,0,0,1.784.668,2.424,2.424,0,0,0,1.314-.36,2.272,2.272,0,0,0,.875-1.028l1.846.316a3.886,3.886,0,0,1-1.529,1.986,4.392,4.392,0,0,1-2.487.712,4.533,4.533,0,0,1-3.313-1.222,4.494,4.494,0,0,1-1.248-3.366,4.512,4.512,0,0,1,1.248-3.366,4.433,4.433,0,0,1,3.252-1.23,4.21,4.21,0,0,1,3.067,1.129A4.453,4.453,0,0,1,72.4,12.43ZM68.177,9.485a2.58,2.58,0,0,0-1.6.479,2.332,2.332,0,0,0-.839,1.463h4.632a2.131,2.131,0,0,0-.7-1.45A2.251,2.251,0,0,0,68.177,9.485ZM84.164,7.991a4.12,4.12,0,0,1,2.1.545,3.975,3.975,0,0,1,1.516,1.6,5.076,5.076,0,0,1,.571,2.448,5.431,5.431,0,0,1-.33,1.929,4.146,4.146,0,0,1-.9,1.459,4.038,4.038,0,0,1-1.332.905,4.128,4.128,0,0,1-1.622.321,3.624,3.624,0,0,1-1.727-.413,2.851,2.851,0,0,1-1.182-1.134v5.722H79.233V8.158h1.934L81.22,9.6A2.805,2.805,0,0,1,82.4,8.417,3.638,3.638,0,0,1,84.164,7.991Zm-.439,7.5a2.447,2.447,0,0,0,1.854-.791,2.946,2.946,0,0,0,.747-2.109,2.915,2.915,0,0,0-.747-2.1,2.575,2.575,0,0,0-3.727.031,2.92,2.92,0,0,0-.756,2.07,2.948,2.948,0,0,0,.756,2.083A2.447,2.447,0,0,0,83.725,15.488Zm8.868,1.679a3.669,3.669,0,0,1-1.349-.233,2.144,2.144,0,0,1-.984-.791,2.353,2.353,0,0,1-.391-1.384,2.564,2.564,0,0,1,.18-.989,2.165,2.165,0,0,1,.475-.725,2.789,2.789,0,0,1,.747-.51,5.358,5.358,0,0,1,.914-.347q.461-.127,1.068-.242l1.336-.246q.817-.158.817-.8a1.256,1.256,0,0,0-.492-1.1,2.1,2.1,0,0,0-1.239-.347,2.075,2.075,0,0,0-1.274.374,1.636,1.636,0,0,0-.6,1.182l-1.819-.334Q90.431,8,93.8,8a6.23,6.23,0,0,1,1.05.083,3.751,3.751,0,0,1,.958.3,2.756,2.756,0,0,1,.8.558,2.435,2.435,0,0,1,.536.9,3.743,3.743,0,0,1,.2,1.279v3.428a1.4,1.4,0,0,0,.185.844.8.8,0,0,0,.65.229h.141V17h-.958q-1.5,0-1.793-1.169h-.1a2.874,2.874,0,0,1-1.252,1.011A4.143,4.143,0,0,1,92.593,17.167Zm.475-1.591a2.351,2.351,0,0,0,1.767-.729,2.645,2.645,0,0,0,.7-1.916l-2.259.5a2.708,2.708,0,0,0-1.09.409.883.883,0,0,0-.36.751.849.849,0,0,0,.343.738A1.5,1.5,0,0,0,93.067,15.576ZM100.283,17V3.5h2.039V17Zm6.987.167a3.669,3.669,0,0,1-1.349-.233,2.144,2.144,0,0,1-.984-.791,2.353,2.353,0,0,1-.391-1.384,2.564,2.564,0,0,1,.18-.989,2.165,2.165,0,0,1,.475-.725,2.789,2.789,0,0,1,.747-.51,5.358,5.358,0,0,1,.914-.347q.461-.127,1.068-.242l1.336-.246q.817-.158.817-.8a1.256,1.256,0,0,0-.492-1.1,2.1,2.1,0,0,0-1.239-.347,2.075,2.075,0,0,0-1.274.374,1.636,1.636,0,0,0-.6,1.182l-1.819-.334Q105.108,8,108.475,8a6.23,6.23,0,0,1,1.05.083,3.751,3.751,0,0,1,.958.3,2.756,2.756,0,0,1,.8.558,2.435,2.435,0,0,1,.536.9,3.743,3.743,0,0,1,.2,1.279v3.428a1.4,1.4,0,0,0,.185.844.8.8,0,0,0,.65.229H113V17h-.958q-1.5,0-1.793-1.169h-.1a2.874,2.874,0,0,1-1.252,1.011A4.143,4.143,0,0,1,107.271,17.167Zm.475-1.591a2.351,2.351,0,0,0,1.767-.729,2.645,2.645,0,0,0,.7-1.916l-2.259.5a2.708,2.708,0,0,0-1.09.409.883.883,0,0,0-.36.751.849.849,0,0,0,.343.738A1.5,1.5,0,0,0,107.745,15.576ZM119.9,7.991a4.089,4.089,0,0,1,1.617.325,4.034,4.034,0,0,1,1.332.91,4.24,4.24,0,0,1,.9,1.455,5.28,5.28,0,0,1,.334,1.907,5.4,5.4,0,0,1-.33,1.92,4.146,4.146,0,0,1-.9,1.459A4.1,4.1,0,0,1,119.9,17.2a3.622,3.622,0,0,1-1.775-.435,2.81,2.81,0,0,1-1.178-1.182L116.895,17h-1.934V3.5h2.013l.009,6.038A2.813,2.813,0,0,1,118.16,8.4,3.667,3.667,0,0,1,119.9,7.991Zm-2.32,6.68a2.42,2.42,0,0,0,1.863.817,2.458,2.458,0,0,0,1.868-.8,2.943,2.943,0,0,0,.751-2.1,2.927,2.927,0,0,0-.751-2.1,2.465,2.465,0,0,0-1.868-.8,2.424,2.424,0,0,0-1.859.817,2.946,2.946,0,0,0-.751,2.074A2.968,2.968,0,0,0,117.58,14.671Zm10.608-5.027a2.67,2.67,0,0,1,1.121-1.125,3.5,3.5,0,0,1,1.727-.457V9.907a3.115,3.115,0,0,0-2.087.593,2.523,2.523,0,0,0-.681,1.991V17h-2.03V8.158h1.951Zm6.478,7.523a3.669,3.669,0,0,1-1.349-.233,2.144,2.144,0,0,1-.984-.791,2.353,2.353,0,0,1-.391-1.384,2.564,2.564,0,0,1,.18-.989,2.165,2.165,0,0,1,.475-.725,2.789,2.789,0,0,1,.747-.51,5.358,5.358,0,0,1,.914-.347q.461-.127,1.068-.242l1.336-.246q.817-.158.817-.8a1.256,1.256,0,0,0-.492-1.1,2.1,2.1,0,0,0-1.239-.347,2.075,2.075,0,0,0-1.274.374,1.636,1.636,0,0,0-.6,1.182l-1.819-.334Q132.5,8,135.87,8a6.23,6.23,0,0,1,1.05.083,3.751,3.751,0,0,1,.958.3,2.756,2.756,0,0,1,.8.558,2.435,2.435,0,0,1,.536.9,3.743,3.743,0,0,1,.2,1.279v3.428a1.4,1.4,0,0,0,.185.844.8.8,0,0,0,.65.229h.141V17h-.958q-1.5,0-1.793-1.169h-.1a2.874,2.874,0,0,1-1.252,1.011A4.143,4.143,0,0,1,134.666,17.167Zm.475-1.591a2.351,2.351,0,0,0,1.767-.729,2.645,2.645,0,0,0,.7-1.916l-2.259.5a2.708,2.708,0,0,0-1.09.409.883.883,0,0,0-.36.751.849.849,0,0,0,.343.738A1.5,1.5,0,0,0,135.141,15.576Zm12.929-9.105a1.207,1.207,0,0,1-.879-.365,1.226,1.226,0,0,1,0-1.749,1.236,1.236,0,0,1,1.753,0,1.22,1.22,0,0,1,0,1.749A1.2,1.2,0,0,1,148.069,6.471ZM147.032,17V8.158h2.03V17Zm9.6-9.009a3.273,3.273,0,0,1,2.338.8,2.96,2.96,0,0,1,.844,2.263V17h-2.039V11.489a1.814,1.814,0,0,0-.488-1.393,1.768,1.768,0,0,0-1.252-.453,2.066,2.066,0,0,0-1.494.558,2.311,2.311,0,0,0-.589,1.718V17h-2.021V8.158h2.021V9.2a2.987,2.987,0,0,1,1.138-.9A3.658,3.658,0,0,1,156.63,7.991Zm11.25.167h2.153L166.351,17H164.6l-3.656-8.842h2.145l2.382,6.521Zm5.44,9.009a3.669,3.669,0,0,1-1.349-.233,2.144,2.144,0,0,1-.984-.791,2.353,2.353,0,0,1-.391-1.384,2.564,2.564,0,0,1,.18-.989,2.165,2.165,0,0,1,.475-.725,2.789,2.789,0,0,1,.747-.51,5.358,5.358,0,0,1,.914-.347q.461-.127,1.068-.242l1.336-.246q.817-.158.817-.8a1.256,1.256,0,0,0-.492-1.1A2.1,2.1,0,0,0,174.4,9.45a2.075,2.075,0,0,0-1.274.374,1.636,1.636,0,0,0-.6,1.182l-1.819-.334Q171.158,8,174.524,8a6.23,6.23,0,0,1,1.05.083,3.751,3.751,0,0,1,.958.3,2.756,2.756,0,0,1,.8.558,2.435,2.435,0,0,1,.536.9,3.743,3.743,0,0,1,.2,1.279v3.428a1.4,1.4,0,0,0,.185.844.8.8,0,0,0,.65.229h.141V17h-.958q-1.5,0-1.793-1.169h-.1a2.874,2.874,0,0,1-1.252,1.011A4.143,4.143,0,0,1,173.32,17.167Zm.475-1.591a2.351,2.351,0,0,0,1.767-.729,2.645,2.645,0,0,0,.7-1.916l-2.259.5a2.708,2.708,0,0,0-1.09.409.883.883,0,0,0-.36.751.849.849,0,0,0,.343.738A1.5,1.5,0,0,0,173.795,15.576Zm9.167-5.933a2.67,2.67,0,0,1,1.121-1.125,3.5,3.5,0,0,1,1.727-.457V9.907a3.115,3.115,0,0,0-2.087.593,2.523,2.523,0,0,0-.681,1.991V17h-2.03V8.158h1.951Zm5.52-3.173a1.207,1.207,0,0,1-.879-.365,1.226,1.226,0,0,1,0-1.749,1.236,1.236,0,0,1,1.753,0,1.22,1.22,0,0,1,0,1.749A1.2,1.2,0,0,1,188.481,6.471ZM187.444,17V8.158h2.03V17Zm6.979.167a3.669,3.669,0,0,1-1.349-.233,2.144,2.144,0,0,1-.984-.791,2.353,2.353,0,0,1-.391-1.384,2.564,2.564,0,0,1,.18-.989,2.165,2.165,0,0,1,.475-.725,2.789,2.789,0,0,1,.747-.51,5.358,5.358,0,0,1,.914-.347q.461-.127,1.068-.242l1.336-.246q.817-.158.817-.8a1.256,1.256,0,0,0-.492-1.1A2.1,2.1,0,0,0,195.5,9.45a2.075,2.075,0,0,0-1.274.374,1.636,1.636,0,0,0-.6,1.182l-1.819-.334Q192.261,8,195.627,8a6.23,6.23,0,0,1,1.05.083,3.751,3.751,0,0,1,.958.3,2.756,2.756,0,0,1,.8.558,2.435,2.435,0,0,1,.536.9,3.743,3.743,0,0,1,.2,1.279v3.428a1.4,1.4,0,0,0,.185.844.8.8,0,0,0,.65.229h.141V17H199.2q-1.5,0-1.793-1.169h-.1a2.874,2.874,0,0,1-1.252,1.011A4.143,4.143,0,0,1,194.423,17.167Zm.475-1.591a2.351,2.351,0,0,0,1.767-.729,2.645,2.645,0,0,0,.7-1.916l-2.259.5a2.708,2.708,0,0,0-1.09.409.883.883,0,0,0-.36.751.849.849,0,0,0,.343.738A1.5,1.5,0,0,0,194.9,15.576Zm12.155-7.585a4.089,4.089,0,0,1,1.617.325,4.034,4.034,0,0,1,1.332.91,4.24,4.24,0,0,1,.9,1.455,5.28,5.28,0,0,1,.334,1.907,5.4,5.4,0,0,1-.33,1.92,4.146,4.146,0,0,1-.9,1.459,4.1,4.1,0,0,1-2.953,1.235,3.622,3.622,0,0,1-1.775-.435,2.81,2.81,0,0,1-1.178-1.182L204.047,17h-1.934V3.5h2.013l.009,6.038A2.813,2.813,0,0,1,205.313,8.4,3.667,3.667,0,0,1,207.053,7.991Zm-2.32,6.68a2.42,2.42,0,0,0,1.863.817,2.458,2.458,0,0,0,1.868-.8,2.943,2.943,0,0,0,.751-2.1,2.927,2.927,0,0,0-.751-2.1,2.465,2.465,0,0,0-1.868-.8,2.424,2.424,0,0,0-1.859.817,2.946,2.946,0,0,0-.751,2.074A2.968,2.968,0,0,0,204.732,14.671ZM213.39,17V3.5h2.039V17Zm12.929-4.57-.026.51h-6.724a2.667,2.667,0,0,0,.773,1.934,2.525,2.525,0,0,0,1.784.668,2.424,2.424,0,0,0,1.314-.36,2.272,2.272,0,0,0,.875-1.028l1.846.316a3.886,3.886,0,0,1-1.529,1.986,4.392,4.392,0,0,1-2.487.712,4.533,4.533,0,0,1-3.313-1.222,4.494,4.494,0,0,1-1.248-3.366,4.512,4.512,0,0,1,1.248-3.366,4.433,4.433,0,0,1,3.252-1.23,4.21,4.21,0,0,1,3.067,1.129A4.453,4.453,0,0,1,226.318,12.43Zm-4.228-2.944a2.58,2.58,0,0,0-1.6.479,2.332,2.332,0,0,0-.839,1.463h4.632a2.131,2.131,0,0,0-.7-1.45A2.251,2.251,0,0,0,222.091,9.485Zm14.889,7.673A4.376,4.376,0,0,1,232.4,12.57a4.439,4.439,0,0,1,1.288-3.313,4.92,4.92,0,0,1,6-.453,3.838,3.838,0,0,1,1.481,2.272l-1.881.246a2.356,2.356,0,0,0-.866-1.266,2.439,2.439,0,0,0-1.463-.439,2.32,2.32,0,0,0-1.828.813,3.131,3.131,0,0,0-.712,2.14,3.131,3.131,0,0,0,.712,2.14,2.32,2.32,0,0,0,1.828.813,2.456,2.456,0,0,0,1.463-.435,2.334,2.334,0,0,0,.866-1.261l1.881.237a3.843,3.843,0,0,1-1.49,2.276A4.485,4.485,0,0,1,236.979,17.158Zm11.9-9H250.9V17h-1.925l-.053-1.107a3.163,3.163,0,0,1-2.725,1.274,3.273,3.273,0,0,1-2.338-.8,2.96,2.96,0,0,1-.844-2.263V8.158h2.039v5.511a1.814,1.814,0,0,0,.488,1.393,1.781,1.781,0,0,0,1.261.453,2.051,2.051,0,0,0,1.49-.558,2.322,2.322,0,0,0,.584-1.718Zm10.5,0h2.1l-5.291,13h-2.065l1.9-4.447-3.542-8.552h2.224L257,14.486Zm7.251,9.009a4.647,4.647,0,0,1-3.349-1.244,4.421,4.421,0,0,1-1.3-3.353,4.4,4.4,0,0,1,1.3-3.335,5.149,5.149,0,0,1,6.706,0,4.4,4.4,0,0,1,1.3,3.34,4.421,4.421,0,0,1-1.3,3.353A4.658,4.658,0,0,1,266.634,17.167Zm-.018-1.635a2.479,2.479,0,0,0,1.916-.817,3.055,3.055,0,0,0,.747-2.145,3.039,3.039,0,0,0-.747-2.14,2.485,2.485,0,0,0-1.916-.813,2.428,2.428,0,0,0-1.881.813A3.061,3.061,0,0,0,264,12.57a3.088,3.088,0,0,0,.734,2.145A2.419,2.419,0,0,0,266.616,15.532Zm9.765,1.635a4.552,4.552,0,0,1-2.479-.628,2.623,2.623,0,0,1-1.213-1.824l1.714-.483a1.832,1.832,0,0,0,.694,1.112,2.138,2.138,0,0,0,1.283.374,2.049,2.049,0,0,0,1.072-.264.9.9,0,0,0,.431-.853.824.824,0,0,0-.114-.435,1.2,1.2,0,0,0-.272-.316,1.9,1.9,0,0,0-.453-.25,5.107,5.107,0,0,0-.536-.193l-.655-.193q-.413-.123-.686-.211a6.249,6.249,0,0,1-.844-.325,4,4,0,0,1-.694-.439,1.72,1.72,0,0,1-.532-.69,2.434,2.434,0,0,1-.18-.971,2.324,2.324,0,0,1,.448-1.45,2.549,2.549,0,0,1,1.178-.857A4.824,4.824,0,0,1,276.214,8a4.127,4.127,0,0,1,2.237.571,2.5,2.5,0,0,1,1.129,1.749l-1.6.378a1.594,1.594,0,0,0-.637-.984,2.178,2.178,0,0,0-2.145-.066.828.828,0,0,0-.417.76,1.032,1.032,0,0,0,.031.259.506.506,0,0,0,.119.215l.158.171a.825.825,0,0,0,.229.154q.158.079.255.123a2.767,2.767,0,0,0,.316.11l.325.1q.105.031.365.1l.365.092q.492.132.839.246a4.843,4.843,0,0,1,.765.338,2.665,2.665,0,0,1,.677.5,2.219,2.219,0,0,1,.435.708,2.571,2.571,0,0,1,.176.971,2.623,2.623,0,0,1-.281,1.244,2.139,2.139,0,0,1-.769.835,3.768,3.768,0,0,1-1.09.453A5.449,5.449,0,0,1,276.381,17.167Zm18.264-4.737-.026.51h-6.724a2.667,2.667,0,0,0,.773,1.934,2.525,2.525,0,0,0,1.784.668,2.424,2.424,0,0,0,1.314-.36,2.272,2.272,0,0,0,.875-1.028l1.846.316a3.886,3.886,0,0,1-1.529,1.986,4.392,4.392,0,0,1-2.487.712,4.533,4.533,0,0,1-3.313-1.222,4.494,4.494,0,0,1-1.248-3.366,4.512,4.512,0,0,1,1.248-3.366,4.433,4.433,0,0,1,3.252-1.23,4.21,4.21,0,0,1,3.067,1.129A4.453,4.453,0,0,1,294.645,12.43Zm-4.228-2.944a2.58,2.58,0,0,0-1.6.479,2.332,2.332,0,0,0-.839,1.463h4.632a2.131,2.131,0,0,0-.7-1.45A2.251,2.251,0,0,0,290.417,9.485ZM296.8,17V3.5h2.039V17Zm12.929-4.57-.026.51h-6.724a2.667,2.667,0,0,0,.773,1.934,2.525,2.525,0,0,0,1.784.668,2.424,2.424,0,0,0,1.314-.36,2.272,2.272,0,0,0,.875-1.028l1.846.316a3.886,3.886,0,0,1-1.529,1.986,4.392,4.392,0,0,1-2.487.712,4.533,4.533,0,0,1-3.313-1.222,4.494,4.494,0,0,1-1.248-3.366,4.512,4.512,0,0,1,1.248-3.366,4.433,4.433,0,0,1,3.252-1.23,4.21,4.21,0,0,1,3.067,1.129A4.453,4.453,0,0,1,309.727,12.43ZM305.5,9.485a2.58,2.58,0,0,0-1.6.479,2.332,2.332,0,0,0-.839,1.463H307.7a2.131,2.131,0,0,0-.7-1.45A2.251,2.251,0,0,0,305.5,9.485Zm16.146-1.494a3.107,3.107,0,0,1,2.171.734,2.664,2.664,0,0,1,.809,2.079V17h-2.03V11.366a1.736,1.736,0,0,0-.439-1.288,1.509,1.509,0,0,0-1.107-.435,1.657,1.657,0,0,0-1.27.523,2.3,2.3,0,0,0-.488,1.613V17h-2.057V11.41a1.8,1.8,0,0,0-.444-1.318,1.522,1.522,0,0,0-1.129-.448,1.644,1.644,0,0,0-1.274.541,2.442,2.442,0,0,0-.492,1.683V17H311.88V8.158h2.013v1.09a2.852,2.852,0,0,1,2.5-1.257,3.351,3.351,0,0,1,1.582.356,2.342,2.342,0,0,1,1.02,1.024A2.935,2.935,0,0,1,321.645,7.991Zm13.711,4.438-.026.51h-6.724a2.667,2.667,0,0,0,.773,1.934,2.525,2.525,0,0,0,1.784.668,2.424,2.424,0,0,0,1.314-.36,2.272,2.272,0,0,0,.875-1.028l1.846.316a3.886,3.886,0,0,1-1.529,1.986,4.392,4.392,0,0,1-2.487.712,4.533,4.533,0,0,1-3.313-1.222,4.494,4.494,0,0,1-1.248-3.366,4.512,4.512,0,0,1,1.248-3.366,4.433,4.433,0,0,1,3.252-1.23,4.21,4.21,0,0,1,3.067,1.129A4.453,4.453,0,0,1,335.355,12.43Zm-4.228-2.944a2.58,2.58,0,0,0-1.6.479,2.332,2.332,0,0,0-.839,1.463h4.632a2.131,2.131,0,0,0-.7-1.45A2.251,2.251,0,0,0,331.128,9.485Zm11.083-1.494a3.273,3.273,0,0,1,2.338.8,2.96,2.96,0,0,1,.844,2.263V17h-2.039V11.489a1.814,1.814,0,0,0-.488-1.393,1.768,1.768,0,0,0-1.252-.453,2.066,2.066,0,0,0-1.494.558,2.311,2.311,0,0,0-.589,1.718V17h-2.021V8.158h2.021V9.2a2.987,2.987,0,0,1,1.138-.9A3.658,3.658,0,0,1,342.211,7.991ZM351.141,17a2.5,2.5,0,0,1-1.863-.677,2.6,2.6,0,0,1-.668-1.907V9.74h-1.767V8.158h.606a1.382,1.382,0,0,0,1.042-.338,1.709,1.709,0,0,0,.321-1.182V5.267h1.846V8.158h1.925V9.74h-1.925v4.465a1.267,1.267,0,0,0,.3.918,1.093,1.093,0,0,0,.822.312h.8V17Zm7.374.167a4.647,4.647,0,0,1-3.349-1.244,4.421,4.421,0,0,1-1.3-3.353,4.4,4.4,0,0,1,1.3-3.335,5.149,5.149,0,0,1,6.706,0,4.4,4.4,0,0,1,1.3,3.34,4.421,4.421,0,0,1-1.3,3.353A4.658,4.658,0,0,1,358.515,17.167Zm-.018-1.635a2.479,2.479,0,0,0,1.916-.817,3.055,3.055,0,0,0,.747-2.145,3.039,3.039,0,0,0-.747-2.14,2.485,2.485,0,0,0-1.916-.813,2.428,2.428,0,0,0-1.881.813,3.061,3.061,0,0,0-.738,2.14,3.088,3.088,0,0,0,.734,2.145A2.419,2.419,0,0,0,358.5,15.532Zm9.765,1.635a4.552,4.552,0,0,1-2.479-.628,2.623,2.623,0,0,1-1.213-1.824l1.714-.483a1.832,1.832,0,0,0,.694,1.112,2.138,2.138,0,0,0,1.283.374,2.049,2.049,0,0,0,1.072-.264.9.9,0,0,0,.431-.853.824.824,0,0,0-.114-.435,1.2,1.2,0,0,0-.272-.316,1.9,1.9,0,0,0-.453-.25,5.107,5.107,0,0,0-.536-.193l-.655-.193q-.413-.123-.686-.211a6.249,6.249,0,0,1-.844-.325,4,4,0,0,1-.694-.439,1.72,1.72,0,0,1-.532-.69,2.434,2.434,0,0,1-.18-.971,2.324,2.324,0,0,1,.448-1.45,2.549,2.549,0,0,1,1.178-.857A4.824,4.824,0,0,1,368.095,8a4.127,4.127,0,0,1,2.237.571,2.5,2.5,0,0,1,1.129,1.749l-1.6.378a1.594,1.594,0,0,0-.637-.984,2.178,2.178,0,0,0-2.145-.066.828.828,0,0,0-.417.76,1.032,1.032,0,0,0,.031.259.506.506,0,0,0,.119.215l.158.171a.825.825,0,0,0,.229.154q.158.079.255.123a2.767,2.767,0,0,0,.316.11l.325.1q.105.031.365.1l.365.092q.492.132.839.246a4.843,4.843,0,0,1,.765.338,2.665,2.665,0,0,1,.677.5,2.219,2.219,0,0,1,.435.708,2.571,2.571,0,0,1,.176.971,2.623,2.623,0,0,1-.281,1.244,2.139,2.139,0,0,1-.769.835,3.768,3.768,0,0,1-1.09.453A5.449,5.449,0,0,1,368.262,17.167Zm13.192,0a4.552,4.552,0,0,1-2.479-.628,2.623,2.623,0,0,1-1.213-1.824l1.714-.483a1.832,1.832,0,0,0,.694,1.112,2.138,2.138,0,0,0,1.283.374,2.049,2.049,0,0,0,1.072-.264.9.9,0,0,0,.431-.853.824.824,0,0,0-.114-.435,1.2,1.2,0,0,0-.272-.316,1.9,1.9,0,0,0-.453-.25,5.107,5.107,0,0,0-.536-.193l-.655-.193q-.413-.123-.686-.211a6.249,6.249,0,0,1-.844-.325,4,4,0,0,1-.694-.439,1.72,1.72,0,0,1-.532-.69,2.434,2.434,0,0,1-.18-.971,2.324,2.324,0,0,1,.448-1.45,2.549,2.549,0,0,1,1.178-.857A4.824,4.824,0,0,1,381.287,8a4.127,4.127,0,0,1,2.237.571,2.5,2.5,0,0,1,1.129,1.749l-1.6.378a1.594,1.594,0,0,0-.637-.984,2.178,2.178,0,0,0-2.145-.066.828.828,0,0,0-.417.76,1.032,1.032,0,0,0,.031.259.506.506,0,0,0,.119.215l.158.171a.825.825,0,0,0,.229.154q.158.079.255.123a2.767,2.767,0,0,0,.316.11l.325.1q.105.031.365.1l.365.092q.492.132.839.246a4.843,4.843,0,0,1,.765.338,2.665,2.665,0,0,1,.677.5,2.219,2.219,0,0,1,.435.708,2.571,2.571,0,0,1,.176.971,2.623,2.623,0,0,1-.281,1.244,2.139,2.139,0,0,1-.769.835,3.768,3.768,0,0,1-1.09.453A5.449,5.449,0,0,1,381.454,17.167Zm13.588-4.737-.026.51h-6.724a2.667,2.667,0,0,0,.773,1.934,2.525,2.525,0,0,0,1.784.668,2.424,2.424,0,0,0,1.314-.36,2.272,2.272,0,0,0,.875-1.028l1.846.316a3.886,3.886,0,0,1-1.529,1.986,4.392,4.392,0,0,1-2.487.712,4.533,4.533,0,0,1-3.313-1.222,4.494,4.494,0,0,1-1.248-3.366,4.512,4.512,0,0,1,1.248-3.366,4.433,4.433,0,0,1,3.252-1.23,4.21,4.21,0,0,1,3.067,1.129A4.453,4.453,0,0,1,395.042,12.43Zm-4.228-2.944a2.58,2.58,0,0,0-1.6.479,2.332,2.332,0,0,0-.839,1.463h4.632a2.131,2.131,0,0,0-.7-1.45A2.251,2.251,0,0,0,390.814,9.485ZM405.7,17.158a4.376,4.376,0,0,1-4.579-4.588,4.439,4.439,0,0,1,1.288-3.313,4.92,4.92,0,0,1,6-.453,3.838,3.838,0,0,1,1.481,2.272l-1.881.246a2.356,2.356,0,0,0-.866-1.266,2.439,2.439,0,0,0-1.463-.439,2.32,2.32,0,0,0-1.828.813,3.131,3.131,0,0,0-.712,2.14,3.131,3.131,0,0,0,.712,2.14,2.32,2.32,0,0,0,1.828.813,2.456,2.456,0,0,0,1.463-.435,2.334,2.334,0,0,0,.866-1.261l1.881.237a3.843,3.843,0,0,1-1.49,2.276A4.485,4.485,0,0,1,405.7,17.158Zm8.306.009a3.669,3.669,0,0,1-1.349-.233,2.144,2.144,0,0,1-.984-.791,2.353,2.353,0,0,1-.391-1.384,2.564,2.564,0,0,1,.18-.989,2.165,2.165,0,0,1,.475-.725,2.789,2.789,0,0,1,.747-.51,5.358,5.358,0,0,1,.914-.347q.461-.127,1.068-.242L416,11.7q.817-.158.817-.8a1.256,1.256,0,0,0-.492-1.1,2.1,2.1,0,0,0-1.239-.347,2.075,2.075,0,0,0-1.274.374,1.636,1.636,0,0,0-.6,1.182l-1.819-.334Q411.847,8,415.213,8a6.23,6.23,0,0,1,1.05.083,3.751,3.751,0,0,1,.958.3,2.756,2.756,0,0,1,.8.558,2.435,2.435,0,0,1,.536.9,3.743,3.743,0,0,1,.2,1.279v3.428a1.4,1.4,0,0,0,.185.844.8.8,0,0,0,.65.229h.141V17h-.958q-1.5,0-1.793-1.169h-.1a2.874,2.874,0,0,1-1.252,1.011A4.143,4.143,0,0,1,414.009,17.167Zm.475-1.591a2.351,2.351,0,0,0,1.767-.729,2.645,2.645,0,0,0,.7-1.916l-2.259.5a2.708,2.708,0,0,0-1.09.409.883.883,0,0,0-.36.751.849.849,0,0,0,.343.738A1.5,1.5,0,0,0,414.483,15.576Zm9.167-5.933a2.67,2.67,0,0,1,1.121-1.125,3.5,3.5,0,0,1,1.727-.457V9.907a3.115,3.115,0,0,0-2.087.593,2.523,2.523,0,0,0-.681,1.991V17H421.7V8.158h1.951Zm6.478,7.523a3.669,3.669,0,0,1-1.349-.233,2.144,2.144,0,0,1-.984-.791,2.353,2.353,0,0,1-.391-1.384,2.564,2.564,0,0,1,.18-.989,2.165,2.165,0,0,1,.475-.725,2.789,2.789,0,0,1,.747-.51,5.358,5.358,0,0,1,.914-.347q.461-.127,1.068-.242l1.336-.246q.817-.158.817-.8a1.256,1.256,0,0,0-.492-1.1,2.1,2.1,0,0,0-1.239-.347,2.075,2.075,0,0,0-1.274.374,1.636,1.636,0,0,0-.6,1.182l-1.819-.334Q427.966,8,431.332,8a6.23,6.23,0,0,1,1.05.083,3.751,3.751,0,0,1,.958.3,2.756,2.756,0,0,1,.8.558,2.435,2.435,0,0,1,.536.9,3.743,3.743,0,0,1,.2,1.279v3.428a1.4,1.4,0,0,0,.185.844.8.8,0,0,0,.65.229h.141V17H434.9q-1.5,0-1.793-1.169h-.1a2.874,2.874,0,0,1-1.252,1.011A4.143,4.143,0,0,1,430.128,17.167Zm.475-1.591a2.351,2.351,0,0,0,1.767-.729,2.645,2.645,0,0,0,.7-1.916l-2.259.5a2.708,2.708,0,0,0-1.09.409.883.883,0,0,0-.36.751.849.849,0,0,0,.343.738A1.5,1.5,0,0,0,430.6,15.576Zm10.846,1.582a4.376,4.376,0,0,1-4.579-4.588,4.439,4.439,0,0,1,1.288-3.313,4.92,4.92,0,0,1,6-.453,3.838,3.838,0,0,1,1.481,2.272l-1.881.246a2.356,2.356,0,0,0-.866-1.266,2.439,2.439,0,0,0-1.463-.439,2.32,2.32,0,0,0-1.828.813,3.131,3.131,0,0,0-.712,2.14,3.131,3.131,0,0,0,.712,2.14,2.32,2.32,0,0,0,1.828.813,2.456,2.456,0,0,0,1.463-.435,2.334,2.334,0,0,0,.866-1.261l1.881.237a3.843,3.843,0,0,1-1.49,2.276A4.485,4.485,0,0,1,441.448,17.158ZM450.729,17a2.5,2.5,0,0,1-1.863-.677,2.6,2.6,0,0,1-.668-1.907V9.74h-1.767V8.158h.606a1.382,1.382,0,0,0,1.042-.338,1.709,1.709,0,0,0,.321-1.182V5.267h1.846V8.158h1.925V9.74h-1.925v4.465a1.267,1.267,0,0,0,.3.918,1.093,1.093,0,0,0,.822.312h.8V17Zm11.479-4.57-.026.51h-6.724a2.667,2.667,0,0,0,.773,1.934,2.525,2.525,0,0,0,1.784.668,2.424,2.424,0,0,0,1.314-.36,2.272,2.272,0,0,0,.875-1.028l1.846.316a3.886,3.886,0,0,1-1.529,1.986,4.392,4.392,0,0,1-2.487.712,4.533,4.533,0,0,1-3.313-1.222,4.494,4.494,0,0,1-1.248-3.366,4.512,4.512,0,0,1,1.248-3.366,4.433,4.433,0,0,1,3.252-1.23,4.21,4.21,0,0,1,3.067,1.129A4.453,4.453,0,0,1,462.208,12.43ZM457.98,9.485a2.58,2.58,0,0,0-1.6.479,2.332,2.332,0,0,0-.839,1.463h4.632a2.131,2.131,0,0,0-.7-1.45A2.251,2.251,0,0,0,457.98,9.485Zm8.332.158a2.67,2.67,0,0,1,1.121-1.125,3.5,3.5,0,0,1,1.727-.457V9.907a3.115,3.115,0,0,0-2.087.593,2.523,2.523,0,0,0-.681,1.991V17h-2.03V8.158h1.951Zm5.52-3.173a1.207,1.207,0,0,1-.879-.365,1.226,1.226,0,0,1,0-1.749,1.236,1.236,0,0,1,1.753,0,1.22,1.22,0,0,1,0,1.749A1.2,1.2,0,0,1,471.832,6.471ZM470.795,17V8.158h2.03V17Zm11.083-8.842-4.28,7.251h4.219V17h-7.163l4.254-7.242h-3.964v-1.6Zm3.709,9.009a3.669,3.669,0,0,1-1.349-.233,2.144,2.144,0,0,1-.984-.791,2.353,2.353,0,0,1-.391-1.384,2.564,2.564,0,0,1,.18-.989,2.165,2.165,0,0,1,.475-.725,2.789,2.789,0,0,1,.747-.51,5.358,5.358,0,0,1,.914-.347q.461-.127,1.068-.242l1.336-.246q.817-.158.817-.8a1.256,1.256,0,0,0-.492-1.1,2.1,2.1,0,0,0-1.239-.347,2.075,2.075,0,0,0-1.274.374,1.636,1.636,0,0,0-.6,1.182l-1.819-.334Q483.425,8,486.791,8a6.23,6.23,0,0,1,1.05.083,3.751,3.751,0,0,1,.958.3,2.756,2.756,0,0,1,.8.558,2.435,2.435,0,0,1,.536.9,3.743,3.743,0,0,1,.2,1.279v3.428a1.4,1.4,0,0,0,.185.844.8.8,0,0,0,.65.229h.141V17h-.958q-1.5,0-1.793-1.169h-.1a2.874,2.874,0,0,1-1.252,1.011A4.143,4.143,0,0,1,485.587,17.167Zm.475-1.591a2.351,2.351,0,0,0,1.767-.729,2.645,2.645,0,0,0,.7-1.916l-2.259.5a2.708,2.708,0,0,0-1.09.409.883.883,0,0,0-.36.751.849.849,0,0,0,.343.738A1.5,1.5,0,0,0,486.062,15.576Zm11.918-7.585a3.273,3.273,0,0,1,2.338.8,2.96,2.96,0,0,1,.844,2.263V17h-2.039V11.489a1.814,1.814,0,0,0-.488-1.393,1.768,1.768,0,0,0-1.252-.453,2.066,2.066,0,0,0-1.494.558,2.311,2.311,0,0,0-.589,1.718V17h-2.021V8.158H495.3V9.2a2.987,2.987,0,0,1,1.138-.9A3.658,3.658,0,0,1,497.979,7.991Zm-491.616,22a4.12,4.12,0,0,1,2.1.545,3.975,3.975,0,0,1,1.516,1.6,5.076,5.076,0,0,1,.571,2.448,5.431,5.431,0,0,1-.33,1.929,4.146,4.146,0,0,1-.9,1.459,4.038,4.038,0,0,1-1.332.905,4.128,4.128,0,0,1-1.622.321,3.624,3.624,0,0,1-1.727-.413,2.851,2.851,0,0,1-1.182-1.134v5.722H1.433V30.158H3.366L3.419,31.6A2.805,2.805,0,0,1,4.6,30.417,3.638,3.638,0,0,1,6.363,29.991Zm-.439,7.5A2.447,2.447,0,0,0,7.778,36.7a2.946,2.946,0,0,0,.747-2.109,2.915,2.915,0,0,0-.747-2.1,2.461,2.461,0,0,0-1.854-.782,2.453,2.453,0,0,0-1.872.813,3.23,3.23,0,0,0,0,4.153A2.447,2.447,0,0,0,5.924,37.488Zm10.705,1.679a4.647,4.647,0,0,1-3.349-1.244,4.421,4.421,0,0,1-1.3-3.353,4.4,4.4,0,0,1,1.3-3.335,4.647,4.647,0,0,1,3.349-1.244,4.668,4.668,0,0,1,3.357,1.239,4.4,4.4,0,0,1,1.3,3.34,4.421,4.421,0,0,1-1.3,3.353A4.658,4.658,0,0,1,16.629,39.167Zm-.018-1.635a2.479,2.479,0,0,0,1.916-.817,3.445,3.445,0,0,0,0-4.285,2.485,2.485,0,0,0-1.916-.813,2.428,2.428,0,0,0-1.881.813,3.486,3.486,0,0,0,0,4.285A2.419,2.419,0,0,0,16.611,37.532Zm8.763-5.889a2.67,2.67,0,0,1,1.121-1.125,3.5,3.5,0,0,1,1.727-.457v1.846a3.115,3.115,0,0,0-2.087.593,2.523,2.523,0,0,0-.681,1.991V39h-2.03V30.158h1.951Zm10.2-3.173a1.207,1.207,0,0,1-.879-.365,1.226,1.226,0,0,1,0-1.749,1.236,1.236,0,0,1,1.753,0,1.239,1.239,0,0,1-.87,2.114ZM34.532,39V30.158h2.03V39Zm9.6-9.009a3.273,3.273,0,0,1,2.338.8,2.96,2.96,0,0,1,.844,2.263V39H45.272V33.489a1.814,1.814,0,0,0-.488-1.393,1.768,1.768,0,0,0-1.252-.453,2.066,2.066,0,0,0-1.494.558,2.311,2.311,0,0,0-.589,1.718V39H39.428V30.158h2.021V31.2a2.987,2.987,0,0,1,1.138-.9A3.658,3.658,0,0,1,44.13,29.991ZM53.06,39a2.5,2.5,0,0,1-1.863-.677,2.6,2.6,0,0,1-.668-1.907V31.74H48.762V30.158h.606a1.382,1.382,0,0,0,1.042-.338,1.709,1.709,0,0,0,.321-1.182V27.267h1.846v2.892H54.5V31.74H52.576v4.465a1.267,1.267,0,0,0,.3.918,1.093,1.093,0,0,0,.822.312h.8V39Zm5.476-7.356a2.67,2.67,0,0,1,1.121-1.125,3.5,3.5,0,0,1,1.727-.457v1.846A3.115,3.115,0,0,0,59.3,32.5a2.523,2.523,0,0,0-.681,1.991V39h-2.03V30.158h1.951Zm8.314,7.523A4.647,4.647,0,0,1,63.5,37.923a4.421,4.421,0,0,1-1.3-3.353,4.4,4.4,0,0,1,1.3-3.335,5.149,5.149,0,0,1,6.706,0,4.4,4.4,0,0,1,1.3,3.34,4.421,4.421,0,0,1-1.3,3.353A4.658,4.658,0,0,1,66.85,39.167Zm-.018-1.635a2.479,2.479,0,0,0,1.916-.817,3.445,3.445,0,0,0,0-4.285,2.485,2.485,0,0,0-1.916-.813,2.428,2.428,0,0,0-1.881.813,3.486,3.486,0,0,0,0,4.285A2.419,2.419,0,0,0,66.832,37.532ZM80.033,25.5h2.021V39H80.121l-.053-1.406a2.845,2.845,0,0,1-1.182,1.178,3.608,3.608,0,0,1-1.762.431,4.1,4.1,0,0,1-2.953-1.235,4.2,4.2,0,0,1-.905-1.459,5.341,5.341,0,0,1-.334-1.92,5.28,5.28,0,0,1,.334-1.907,4.2,4.2,0,0,1,.905-1.455,4.116,4.116,0,0,1,2.953-1.235,3.656,3.656,0,0,1,1.727.409,2.84,2.84,0,0,1,1.182,1.121ZM75.7,36.688a2.458,2.458,0,0,0,1.868.8,2.42,2.42,0,0,0,1.863-.817,3.258,3.258,0,0,0,0-4.157,2.424,2.424,0,0,0-1.859-.817,2.465,2.465,0,0,0-1.868.8,3.305,3.305,0,0,0,0,4.2ZM90.6,30.158h2.021V39H90.694l-.053-1.107a3.163,3.163,0,0,1-2.725,1.274,3.273,3.273,0,0,1-2.338-.8,2.96,2.96,0,0,1-.844-2.263v-5.95h2.039v5.511a1.814,1.814,0,0,0,.488,1.393,1.781,1.781,0,0,0,1.261.453,2.051,2.051,0,0,0,1.49-.558,2.322,2.322,0,0,0,.584-1.718Zm8.719,9a4.376,4.376,0,0,1-4.579-4.588,4.439,4.439,0,0,1,1.288-3.313,4.92,4.92,0,0,1,6-.453,3.838,3.838,0,0,1,1.481,2.272l-1.881.246a2.356,2.356,0,0,0-.866-1.266,2.439,2.439,0,0,0-1.463-.439,2.32,2.32,0,0,0-1.828.813,3.573,3.573,0,0,0,0,4.28,2.32,2.32,0,0,0,1.828.813,2.456,2.456,0,0,0,1.463-.435,2.334,2.334,0,0,0,.866-1.261l1.881.237a3.843,3.843,0,0,1-1.49,2.276A4.485,4.485,0,0,1,99.316,39.158Zm7.26-10.687a1.207,1.207,0,0,1-.879-.365,1.226,1.226,0,0,1,0-1.749,1.236,1.236,0,0,1,1.753,0,1.239,1.239,0,0,1-.87,2.114ZM105.539,39V30.158h2.03V39Zm6.847-7.356a2.67,2.67,0,0,1,1.121-1.125,3.5,3.5,0,0,1,1.727-.457v1.846a3.115,3.115,0,0,0-2.087.593,2.523,2.523,0,0,0-.681,1.991V39h-2.03V30.158h1.951Zm14.836-1.485h2.021V39h-1.925l-.053-1.107a3.163,3.163,0,0,1-2.725,1.274,3.273,3.273,0,0,1-2.338-.8,2.96,2.96,0,0,1-.844-2.263v-5.95H123.4v5.511a1.814,1.814,0,0,0,.488,1.393,1.781,1.781,0,0,0,1.261.453,2.051,2.051,0,0,0,1.49-.558,2.322,2.322,0,0,0,.584-1.718Zm9.589-.167a3.273,3.273,0,0,1,2.338.8,2.96,2.96,0,0,1,.844,2.263V39h-2.039V33.489a1.814,1.814,0,0,0-.488-1.393,1.768,1.768,0,0,0-1.252-.453,2.066,2.066,0,0,0-1.494.558,2.311,2.311,0,0,0-.589,1.718V39h-2.021V30.158h2.021V31.2a2.987,2.987,0,0,1,1.138-.9A3.658,3.658,0,0,1,136.811,29.991ZM150.416,39a2.5,2.5,0,0,1-1.863-.677,2.6,2.6,0,0,1-.668-1.907V31.74h-1.767V30.158h.606a1.382,1.382,0,0,0,1.042-.338,1.709,1.709,0,0,0,.321-1.182V27.267h1.846v2.892h1.925V31.74h-1.925v4.465a1.267,1.267,0,0,0,.3.918,1.093,1.093,0,0,0,.822.312h.8V39Zm9.905-12.551-1.978,2.32h-1.31l2.259-3.059Zm1.573,7.98-.026.51h-6.724a2.667,2.667,0,0,0,.773,1.934,2.525,2.525,0,0,0,1.784.668,2.424,2.424,0,0,0,1.314-.36,2.272,2.272,0,0,0,.875-1.028l1.846.316a3.886,3.886,0,0,1-1.529,1.986,4.392,4.392,0,0,1-2.487.712,4.747,4.747,0,0,1-3.313-7.954,4.433,4.433,0,0,1,3.252-1.23,4.21,4.21,0,0,1,3.067,1.129A4.453,4.453,0,0,1,161.895,34.43Zm-4.228-2.944a2.58,2.58,0,0,0-1.6.479,2.332,2.332,0,0,0-.839,1.463h4.632a2.131,2.131,0,0,0-.7-1.45A2.251,2.251,0,0,0,157.667,31.485Zm8.332.158a2.67,2.67,0,0,1,1.121-1.125,3.5,3.5,0,0,1,1.727-.457v1.846a3.115,3.115,0,0,0-2.087.593,2.523,2.523,0,0,0-.681,1.991V39h-2.03V30.158H166Zm14.247-1.652a3.107,3.107,0,0,1,2.171.734,2.664,2.664,0,0,1,.809,2.079V39H181.2V33.366a1.736,1.736,0,0,0-.439-1.288,1.509,1.509,0,0,0-1.107-.435,1.657,1.657,0,0,0-1.27.523,2.3,2.3,0,0,0-.488,1.613V39h-2.057V33.41a1.8,1.8,0,0,0-.444-1.318,1.522,1.522,0,0,0-1.129-.448,1.644,1.644,0,0,0-1.274.541,2.442,2.442,0,0,0-.492,1.683V39h-2.013V30.158h2.013v1.09a2.852,2.852,0,0,1,2.5-1.257,3.351,3.351,0,0,1,1.582.356,2.342,2.342,0,0,1,1.02,1.024A2.935,2.935,0,0,1,180.246,29.991Zm6.724-1.521a1.207,1.207,0,0,1-.879-.365,1.226,1.226,0,0,1,0-1.749,1.236,1.236,0,0,1,1.753,0,1.239,1.239,0,0,1-.87,2.114ZM185.933,39V30.158h2.03V39Zm9.6-9.009a3.273,3.273,0,0,1,2.338.8,2.96,2.96,0,0,1,.844,2.263V39h-2.039V33.489a1.814,1.814,0,0,0-.488-1.393,1.768,1.768,0,0,0-1.252-.453,2.066,2.066,0,0,0-1.494.558,2.311,2.311,0,0,0-.589,1.718V39h-2.021V30.158h2.021V31.2a2.987,2.987,0,0,1,1.138-.9A3.658,3.658,0,0,1,195.53,29.991Zm9.791,9.176a4.647,4.647,0,0,1-3.349-1.244,4.421,4.421,0,0,1-1.3-3.353,4.4,4.4,0,0,1,1.3-3.335,5.149,5.149,0,0,1,6.706,0,4.4,4.4,0,0,1,1.3,3.34,4.421,4.421,0,0,1-1.3,3.353A4.658,4.658,0,0,1,205.321,39.167Zm-.018-1.635a2.479,2.479,0,0,0,1.916-.817,3.445,3.445,0,0,0,0-4.285,2.485,2.485,0,0,0-1.916-.813,2.428,2.428,0,0,0-1.881.813,3.486,3.486,0,0,0,0,4.285A2.419,2.419,0,0,0,205.3,37.532Zm7.392,4.676h-1.459l1.09-5.6h2.092Zm15.231-12.05h1.951v8.288a4.813,4.813,0,0,1-1.191,3.546,4.473,4.473,0,0,1-3.309,1.191q-3.349,0-4.43-2.725l1.679-.756a3.11,3.11,0,0,0,1.037,1.4,2.756,2.756,0,0,0,1.635.461,2.319,2.319,0,0,0,1.9-.778,3.387,3.387,0,0,0,.642-2.21v-1.31a2.923,2.923,0,0,1-1.182,1.05,3.664,3.664,0,0,1-1.7.4,3.8,3.8,0,0,1-2.861-1.23,4.374,4.374,0,0,1-1.173-3.146,4.794,4.794,0,0,1,.325-1.78,4.076,4.076,0,0,1,.875-1.38,4,4,0,0,1,1.288-.875,3.93,3.93,0,0,1,1.564-.316,3.552,3.552,0,0,1,1.736.426,2.85,2.85,0,0,1,1.165,1.129Zm-2.479,6.891a2.418,2.418,0,0,0,1.828-.791,2.842,2.842,0,0,0,0-3.836,2.528,2.528,0,0,0-3.661-.022,2.894,2.894,0,0,0,.009,3.872A2.427,2.427,0,0,0,225.448,37.049Zm15.311-2.619-.026.51h-6.724a2.667,2.667,0,0,0,.773,1.934,2.525,2.525,0,0,0,1.784.668,2.424,2.424,0,0,0,1.314-.36,2.272,2.272,0,0,0,.875-1.028l1.846.316a3.886,3.886,0,0,1-1.529,1.986,4.392,4.392,0,0,1-2.487.712,4.747,4.747,0,0,1-3.313-7.954,4.433,4.433,0,0,1,3.252-1.23,4.21,4.21,0,0,1,3.067,1.129A4.453,4.453,0,0,1,240.759,34.43Zm-4.228-2.944a2.58,2.58,0,0,0-1.6.479,2.332,2.332,0,0,0-.839,1.463h4.632a2.131,2.131,0,0,0-.7-1.45A2.251,2.251,0,0,0,236.531,31.485Zm11.083-1.494a3.273,3.273,0,0,1,2.338.8,2.96,2.96,0,0,1,.844,2.263V39h-2.039V33.489a1.814,1.814,0,0,0-.488-1.393,1.768,1.768,0,0,0-1.252-.453,2.066,2.066,0,0,0-1.494.558,2.311,2.311,0,0,0-.589,1.718V39h-2.021V30.158h2.021V31.2a2.987,2.987,0,0,1,1.138-.9A3.658,3.658,0,0,1,247.614,29.991Zm13.9,4.438-.026.51H254.76a2.667,2.667,0,0,0,.773,1.934,2.525,2.525,0,0,0,1.784.668,2.424,2.424,0,0,0,1.314-.36,2.272,2.272,0,0,0,.875-1.028l1.846.316a3.886,3.886,0,0,1-1.529,1.986,4.392,4.392,0,0,1-2.487.712,4.747,4.747,0,0,1-3.313-7.954,4.433,4.433,0,0,1,3.252-1.23,4.21,4.21,0,0,1,3.067,1.129A4.453,4.453,0,0,1,261.51,34.43Zm-4.228-2.944a2.58,2.58,0,0,0-1.6.479,2.332,2.332,0,0,0-.839,1.463h4.632a2.131,2.131,0,0,0-.7-1.45A2.251,2.251,0,0,0,257.282,31.485Zm8.332.158a2.67,2.67,0,0,1,1.121-1.125,3.5,3.5,0,0,1,1.727-.457v1.846a3.115,3.115,0,0,0-2.087.593,2.523,2.523,0,0,0-.681,1.991V39h-2.03V30.158h1.951Zm6.478,7.523a3.669,3.669,0,0,1-1.349-.233,2.144,2.144,0,0,1-.984-.791,2.353,2.353,0,0,1-.391-1.384,2.564,2.564,0,0,1,.18-.989,2.165,2.165,0,0,1,.475-.725,2.789,2.789,0,0,1,.747-.51,5.358,5.358,0,0,1,.914-.347q.461-.127,1.068-.242l1.336-.246q.817-.158.817-.8a1.256,1.256,0,0,0-.492-1.1,2.1,2.1,0,0,0-1.239-.347,2.075,2.075,0,0,0-1.274.374,1.636,1.636,0,0,0-.6,1.182l-1.819-.334Q269.93,30,273.3,30a6.23,6.23,0,0,1,1.05.083,3.751,3.751,0,0,1,.958.3,2.756,2.756,0,0,1,.8.558,2.435,2.435,0,0,1,.536.9,3.743,3.743,0,0,1,.2,1.279v3.428a1.4,1.4,0,0,0,.185.844.8.8,0,0,0,.65.229h.141V39h-.958q-1.5,0-1.793-1.169h-.1a2.874,2.874,0,0,1-1.252,1.011A4.143,4.143,0,0,1,272.092,39.167Zm.475-1.591a2.351,2.351,0,0,0,1.767-.729,2.645,2.645,0,0,0,.7-1.916l-2.259.5a2.708,2.708,0,0,0-1.09.409.883.883,0,0,0-.36.751.849.849,0,0,0,.343.738A1.5,1.5,0,0,0,272.566,37.576ZM279.782,39V25.5h2.039V39Zm14.669-9.009a3.107,3.107,0,0,1,2.171.734,2.664,2.664,0,0,1,.809,2.079V39H295.4V33.366a1.736,1.736,0,0,0-.439-1.288,1.509,1.509,0,0,0-1.107-.435,1.657,1.657,0,0,0-1.27.523,2.3,2.3,0,0,0-.488,1.613V39h-2.057V33.41a1.8,1.8,0,0,0-.444-1.318,1.522,1.522,0,0,0-1.129-.448,1.644,1.644,0,0,0-1.274.541,2.442,2.442,0,0,0-.492,1.683V39h-2.013V30.158H286.7v1.09a2.852,2.852,0,0,1,2.5-1.257,3.351,3.351,0,0,1,1.582.356,2.342,2.342,0,0,1,1.02,1.024A2.935,2.935,0,0,1,294.451,29.991Zm13.711,4.438-.026.51h-6.724a2.667,2.667,0,0,0,.773,1.934,2.525,2.525,0,0,0,1.784.668,2.424,2.424,0,0,0,1.314-.36,2.272,2.272,0,0,0,.875-1.028l1.846.316a3.886,3.886,0,0,1-1.529,1.986,4.392,4.392,0,0,1-2.487.712,4.747,4.747,0,0,1-3.313-7.954,4.433,4.433,0,0,1,3.252-1.23,4.21,4.21,0,0,1,3.067,1.129A4.453,4.453,0,0,1,308.162,34.43Zm-4.228-2.944a2.58,2.58,0,0,0-1.6.479,2.332,2.332,0,0,0-.839,1.463h4.632a2.131,2.131,0,0,0-.7-1.45A2.251,2.251,0,0,0,303.935,31.485Zm11.083-1.494a3.273,3.273,0,0,1,2.338.8,2.96,2.96,0,0,1,.844,2.263V39H316.16V33.489a1.814,1.814,0,0,0-.488-1.393,1.768,1.768,0,0,0-1.252-.453,2.066,2.066,0,0,0-1.494.558,2.311,2.311,0,0,0-.589,1.718V39h-2.021V30.158h2.021V31.2a2.987,2.987,0,0,1,1.138-.9A3.658,3.658,0,0,1,315.018,29.991ZM323.947,39a2.5,2.5,0,0,1-1.863-.677,2.6,2.6,0,0,1-.668-1.907V31.74h-1.767V30.158h.606a1.382,1.382,0,0,0,1.042-.338,1.709,1.709,0,0,0,.321-1.182V27.267h1.846v2.892h1.925V31.74h-1.925v4.465a1.267,1.267,0,0,0,.3.918,1.093,1.093,0,0,0,.822.312h.8V39Zm11.479-4.57-.026.51h-6.724a2.667,2.667,0,0,0,.773,1.934,2.525,2.525,0,0,0,1.784.668,2.424,2.424,0,0,0,1.314-.36,2.272,2.272,0,0,0,.875-1.028l1.846.316a3.886,3.886,0,0,1-1.529,1.986,4.392,4.392,0,0,1-2.487.712,4.747,4.747,0,0,1-3.313-7.954,4.433,4.433,0,0,1,3.252-1.23,4.21,4.21,0,0,1,3.067,1.129A4.453,4.453,0,0,1,335.426,34.43ZM331.2,31.485a2.58,2.58,0,0,0-1.6.479,2.332,2.332,0,0,0-.839,1.463H333.4a2.131,2.131,0,0,0-.7-1.45A2.251,2.251,0,0,0,331.2,31.485Zm15.759-1.494a3.273,3.273,0,0,1,2.338.8,2.96,2.96,0,0,1,.844,2.263V39H348.1V33.489a1.814,1.814,0,0,0-.488-1.393,1.768,1.768,0,0,0-1.252-.453,2.066,2.066,0,0,0-1.494.558,2.311,2.311,0,0,0-.589,1.718V39h-2.021V30.158h2.021V31.2a2.987,2.987,0,0,1,1.138-.9A3.658,3.658,0,0,1,346.957,29.991Zm9.791,9.176a4.647,4.647,0,0,1-3.349-1.244,4.421,4.421,0,0,1-1.3-3.353,4.4,4.4,0,0,1,1.3-3.335,5.149,5.149,0,0,1,6.706,0,4.4,4.4,0,0,1,1.3,3.34,4.421,4.421,0,0,1-1.3,3.353A4.658,4.658,0,0,1,356.748,39.167Zm-.018-1.635a2.479,2.479,0,0,0,1.916-.817,3.445,3.445,0,0,0,0-4.285,2.485,2.485,0,0,0-1.916-.813,2.428,2.428,0,0,0-1.881.813,3.486,3.486,0,0,0,0,4.285A2.419,2.419,0,0,0,356.73,37.532Zm16.576-7.541a3.107,3.107,0,0,1,2.171.734,2.664,2.664,0,0,1,.809,2.079V39h-2.03V33.366a1.736,1.736,0,0,0-.439-1.288,1.509,1.509,0,0,0-1.107-.435,1.657,1.657,0,0,0-1.27.523,2.3,2.3,0,0,0-.488,1.613V39h-2.057V33.41a1.8,1.8,0,0,0-.444-1.318,1.522,1.522,0,0,0-1.129-.448,1.644,1.644,0,0,0-1.274.541,2.442,2.442,0,0,0-.492,1.683V39h-2.013V30.158h2.013v1.09a2.852,2.852,0,0,1,2.5-1.257,3.351,3.351,0,0,1,1.582.356,2.342,2.342,0,0,1,1.02,1.024A2.935,2.935,0,0,1,373.307,29.991Zm6.724-1.521a1.207,1.207,0,0,1-.879-.365,1.226,1.226,0,0,1,0-1.749,1.236,1.236,0,0,1,1.753,0,1.239,1.239,0,0,1-.87,2.114ZM378.993,39V30.158h2.03V39Zm9.6-9.009a3.273,3.273,0,0,1,2.338.8,2.96,2.96,0,0,1,.844,2.263V39h-2.039V33.489a1.814,1.814,0,0,0-.488-1.393,1.768,1.768,0,0,0-1.252-.453,2.066,2.066,0,0,0-1.494.558,2.311,2.311,0,0,0-.589,1.718V39h-2.021V30.158h2.021V31.2a2.987,2.987,0,0,1,1.138-.9A3.658,3.658,0,0,1,388.591,29.991Zm7.954,9.176a3.669,3.669,0,0,1-1.349-.233,2.144,2.144,0,0,1-.984-.791,2.353,2.353,0,0,1-.391-1.384,2.564,2.564,0,0,1,.18-.989,2.165,2.165,0,0,1,.475-.725,2.789,2.789,0,0,1,.747-.51,5.358,5.358,0,0,1,.914-.347q.461-.127,1.068-.242l1.336-.246q.817-.158.817-.8a1.256,1.256,0,0,0-.492-1.1,2.1,2.1,0,0,0-1.239-.347,2.075,2.075,0,0,0-1.274.374,1.636,1.636,0,0,0-.6,1.182l-1.819-.334Q394.383,30,397.749,30a6.23,6.23,0,0,1,1.05.083,3.751,3.751,0,0,1,.958.3,2.756,2.756,0,0,1,.8.558,2.435,2.435,0,0,1,.536.9,3.743,3.743,0,0,1,.2,1.279v3.428a1.4,1.4,0,0,0,.185.844.8.8,0,0,0,.65.229h.141V39h-.958q-1.5,0-1.793-1.169h-.1a2.874,2.874,0,0,1-1.252,1.011A4.143,4.143,0,0,1,396.545,39.167Zm.475-1.591a2.351,2.351,0,0,0,1.767-.729,2.645,2.645,0,0,0,.7-1.916l-2.259.5a2.708,2.708,0,0,0-1.09.409.883.883,0,0,0-.36.751.849.849,0,0,0,.343.738A1.5,1.5,0,0,0,397.02,37.576ZM404.235,39V25.5h2.039V39Zm15.258-8.842h2.021V39H419.59l-.053-1.107a3.163,3.163,0,0,1-2.725,1.274,3.273,3.273,0,0,1-2.338-.8,2.96,2.96,0,0,1-.844-2.263v-5.95h2.039v5.511a1.814,1.814,0,0,0,.488,1.393,1.781,1.781,0,0,0,1.261.453,2.051,2.051,0,0,0,1.49-.558,2.322,2.322,0,0,0,.584-1.718Zm13.482,9.009a4.647,4.647,0,0,1-3.349-1.244,4.421,4.421,0,0,1-1.3-3.353,4.4,4.4,0,0,1,1.3-3.335,5.149,5.149,0,0,1,6.706,0,4.4,4.4,0,0,1,1.3,3.34,4.421,4.421,0,0,1-1.3,3.353A4.658,4.658,0,0,1,432.976,39.167Zm-.018-1.635a2.479,2.479,0,0,0,1.916-.817,3.445,3.445,0,0,0,0-4.285,2.485,2.485,0,0,0-1.916-.813,2.428,2.428,0,0,0-1.881.813,3.486,3.486,0,0,0,0,4.285A2.419,2.419,0,0,0,432.958,37.532Zm8.763-5.889a2.67,2.67,0,0,1,1.121-1.125,3.5,3.5,0,0,1,1.727-.457v1.846a3.115,3.115,0,0,0-2.087.593,2.523,2.523,0,0,0-.681,1.991V39h-2.03V30.158h1.951Zm6.478,7.523a3.669,3.669,0,0,1-1.349-.233,2.144,2.144,0,0,1-.984-.791,2.353,2.353,0,0,1-.391-1.384,2.564,2.564,0,0,1,.18-.989,2.165,2.165,0,0,1,.475-.725,2.789,2.789,0,0,1,.747-.51,5.358,5.358,0,0,1,.914-.347q.461-.127,1.068-.242l1.336-.246q.817-.158.817-.8a1.256,1.256,0,0,0-.492-1.1,2.1,2.1,0,0,0-1.239-.347,2.075,2.075,0,0,0-1.274.374,1.636,1.636,0,0,0-.6,1.182l-1.819-.334Q446.036,30,449.4,30a6.23,6.23,0,0,1,1.05.083,3.751,3.751,0,0,1,.958.3,2.756,2.756,0,0,1,.8.558,2.435,2.435,0,0,1,.536.9,3.743,3.743,0,0,1,.2,1.279v3.428a1.4,1.4,0,0,0,.185.844.8.8,0,0,0,.65.229h.141V39h-.958q-1.5,0-1.793-1.169h-.1a2.874,2.874,0,0,1-1.252,1.011A4.143,4.143,0,0,1,448.2,39.167Zm.475-1.591a2.351,2.351,0,0,0,1.767-.729,2.645,2.645,0,0,0,.7-1.916l-2.259.5a2.708,2.708,0,0,0-1.09.409.883.883,0,0,0-.36.751.849.849,0,0,0,.343.738A1.5,1.5,0,0,0,448.673,37.576Zm10.846,1.582a4.376,4.376,0,0,1-4.579-4.588,4.439,4.439,0,0,1,1.288-3.313,4.92,4.92,0,0,1,6-.453,3.838,3.838,0,0,1,1.481,2.272l-1.881.246a2.356,2.356,0,0,0-.866-1.266,2.439,2.439,0,0,0-1.463-.439,2.32,2.32,0,0,0-1.828.813,3.573,3.573,0,0,0,0,4.28,2.32,2.32,0,0,0,1.828.813,2.456,2.456,0,0,0,1.463-.435,2.334,2.334,0,0,0,.866-1.261l1.881.237a3.843,3.843,0,0,1-1.49,2.276A4.485,4.485,0,0,1,459.519,39.158Zm7.26-10.687a1.207,1.207,0,0,1-.879-.365,1.226,1.226,0,0,1,0-1.749,1.236,1.236,0,0,1,1.753,0,1.239,1.239,0,0,1-.87,2.114ZM465.741,39V30.158h2.03V39Zm8.815.167a4.647,4.647,0,0,1-3.349-1.244,4.421,4.421,0,0,1-1.3-3.353,4.4,4.4,0,0,1,1.3-3.335,5.149,5.149,0,0,1,6.706,0,4.4,4.4,0,0,1,1.3,3.34,4.421,4.421,0,0,1-1.3,3.353A4.658,4.658,0,0,1,474.557,39.167Zm-.018-1.635a2.479,2.479,0,0,0,1.916-.817,3.445,3.445,0,0,0,0-4.285,2.485,2.485,0,0,0-1.916-.813,2.428,2.428,0,0,0-1.881.813,3.486,3.486,0,0,0,0,4.285A2.419,2.419,0,0,0,474.539,37.532Zm11.514-7.541a3.273,3.273,0,0,1,2.338.8,2.96,2.96,0,0,1,.844,2.263V39H487.2V33.489a1.814,1.814,0,0,0-.488-1.393,1.768,1.768,0,0,0-1.252-.453,2.066,2.066,0,0,0-1.494.558,2.311,2.311,0,0,0-.589,1.718V39h-2.021V30.158h2.021V31.2a2.987,2.987,0,0,1,1.138-.9A3.658,3.658,0,0,1,486.053,29.991Zm7.954,9.176a3.669,3.669,0,0,1-1.349-.233,2.144,2.144,0,0,1-.984-.791,2.353,2.353,0,0,1-.391-1.384,2.564,2.564,0,0,1,.18-.989,2.165,2.165,0,0,1,.475-.725,2.789,2.789,0,0,1,.747-.51,5.358,5.358,0,0,1,.914-.347q.461-.127,1.068-.242L496,33.7q.817-.158.817-.8a1.256,1.256,0,0,0-.492-1.1,2.1,2.1,0,0,0-1.239-.347,2.075,2.075,0,0,0-1.274.374,1.636,1.636,0,0,0-.6,1.182l-1.819-.334Q491.845,30,495.211,30a6.23,6.23,0,0,1,1.05.083,3.751,3.751,0,0,1,.958.3,2.756,2.756,0,0,1,.8.558,2.435,2.435,0,0,1,.536.9,3.743,3.743,0,0,1,.2,1.279v3.428a1.4,1.4,0,0,0,.185.844.8.8,0,0,0,.65.229h.141V39h-.958q-1.5,0-1.793-1.169h-.1a2.874,2.874,0,0,1-1.252,1.011A4.143,4.143,0,0,1,494.007,39.167Zm.475-1.591a2.351,2.351,0,0,0,1.767-.729,2.645,2.645,0,0,0,.7-1.916l-2.259.5a2.708,2.708,0,0,0-1.09.409.883.883,0,0,0-.36.751.849.849,0,0,0,.343.738A1.5,1.5,0,0,0,494.481,37.576ZM501.7,39V25.5h2.039V39Zm6.381,3.208h-1.459l1.09-5.6H509.8ZM5.265,61.158A4.376,4.376,0,0,1,.686,56.57a4.439,4.439,0,0,1,1.288-3.313,4.5,4.5,0,0,1,3.292-1.266,4.493,4.493,0,0,1,2.711.813,3.838,3.838,0,0,1,1.481,2.272l-1.881.246a2.356,2.356,0,0,0-.866-1.266,2.439,2.439,0,0,0-1.463-.439,2.32,2.32,0,0,0-1.828.813,3.573,3.573,0,0,0,0,4.28,2.32,2.32,0,0,0,1.828.813,2.456,2.456,0,0,0,1.463-.435,2.334,2.334,0,0,0,.866-1.261l1.881.237a3.843,3.843,0,0,1-1.49,2.276A4.485,4.485,0,0,1,5.265,61.158Zm10.143.009a4.647,4.647,0,0,1-3.349-1.244,4.949,4.949,0,0,1,0-6.688,4.647,4.647,0,0,1,3.349-1.244,4.668,4.668,0,0,1,3.357,1.239,4.955,4.955,0,0,1,0,6.693A4.658,4.658,0,0,1,15.407,61.167Zm-.018-1.635a2.479,2.479,0,0,0,1.916-.817,3.445,3.445,0,0,0,0-4.285,2.485,2.485,0,0,0-1.916-.813,2.428,2.428,0,0,0-1.881.813,3.486,3.486,0,0,0,0,4.285A2.419,2.419,0,0,0,15.39,59.532ZM26.9,51.991a3.273,3.273,0,0,1,2.338.8,2.96,2.96,0,0,1,.844,2.263V61H28.046V55.489a1.814,1.814,0,0,0-.488-1.393,1.768,1.768,0,0,0-1.252-.453,2.066,2.066,0,0,0-1.494.558,2.311,2.311,0,0,0-.589,1.718V61H22.2V52.158h2.021V53.2a2.987,2.987,0,0,1,1.138-.9A3.658,3.658,0,0,1,26.9,51.991ZM45.475,56.43l-.026.51H38.725a2.667,2.667,0,0,0,.773,1.934,2.525,2.525,0,0,0,1.784.668,2.424,2.424,0,0,0,1.314-.36,2.272,2.272,0,0,0,.875-1.028l1.846.316a3.886,3.886,0,0,1-1.529,1.986,4.392,4.392,0,0,1-2.487.712,4.747,4.747,0,0,1-3.313-7.954,4.433,4.433,0,0,1,3.252-1.23,4.21,4.21,0,0,1,3.067,1.129A4.453,4.453,0,0,1,45.475,56.43Zm-4.228-2.944a2.58,2.58,0,0,0-1.6.479,2.332,2.332,0,0,0-.839,1.463h4.632a2.131,2.131,0,0,0-.7-1.45A2.251,2.251,0,0,0,41.247,53.485ZM47.628,61V47.5h2.039V61Zm16.049-8.842H65.61V65.377H63.589v-5.7A2.812,2.812,0,0,1,62.407,60.8a3.669,3.669,0,0,1-1.718.4A3.968,3.968,0,0,1,57.7,59.941,4.644,4.644,0,0,1,56.5,56.588a5.341,5.341,0,0,1,.334-1.92,4.15,4.15,0,0,1,.905-1.455,4.07,4.07,0,0,1,1.332-.9,4.128,4.128,0,0,1,1.622-.321,3.65,3.65,0,0,1,1.753.422,2.806,2.806,0,0,1,1.182,1.16Zm-2.558,7.33A2.443,2.443,0,0,0,63,58.671a2.958,2.958,0,0,0,.751-2.083,2.92,2.92,0,0,0-.756-2.07,2.575,2.575,0,0,0-3.727-.031,2.915,2.915,0,0,0-.747,2.1,2.946,2.946,0,0,0,.747,2.109A2.447,2.447,0,0,0,61.119,59.488Zm13.034-7.33h2.021V61H74.25L74.2,59.893a3.163,3.163,0,0,1-2.725,1.274,3.273,3.273,0,0,1-2.338-.8,2.96,2.96,0,0,1-.844-2.263v-5.95H70.33v5.511a1.814,1.814,0,0,0,.488,1.393,1.781,1.781,0,0,0,1.261.453,2.051,2.051,0,0,0,1.49-.558,2.322,2.322,0,0,0,.584-1.718ZM87.064,56.43l-.026.51H80.314a2.667,2.667,0,0,0,.773,1.934,2.525,2.525,0,0,0,1.784.668,2.424,2.424,0,0,0,1.314-.36,2.272,2.272,0,0,0,.875-1.028l1.846.316a3.886,3.886,0,0,1-1.529,1.986,4.392,4.392,0,0,1-2.487.712,4.747,4.747,0,0,1-3.313-7.954,4.433,4.433,0,0,1,3.252-1.23A4.21,4.21,0,0,1,85.9,53.112,4.453,4.453,0,0,1,87.064,56.43Zm-4.228-2.944a2.58,2.58,0,0,0-1.6.479,2.332,2.332,0,0,0-.839,1.463h4.632a2.131,2.131,0,0,0-.7-1.45A2.251,2.251,0,0,0,82.837,53.485ZM98.42,49.144H98.1q-.088,0-.3.013a1.687,1.687,0,0,0-.308.04q-.1.026-.272.083a.685.685,0,0,0-.259.136q-.083.079-.2.2a.731.731,0,0,0-.171.286,3.374,3.374,0,0,0-.1.387,2.588,2.588,0,0,0-.044.5v1.371H98.42V53.74H96.451V61H94.43V53.74H92.716V52.158H94.43V50.77a5.234,5.234,0,0,1,.1-1.077,3.175,3.175,0,0,1,.281-.822,2.028,2.028,0,0,1,.461-.589,2.579,2.579,0,0,1,.6-.4,3.3,3.3,0,0,1,.747-.237,6.7,6.7,0,0,1,.848-.119q.417-.031.954-.031Zm5.449,12.023a4.647,4.647,0,0,1-3.349-1.244,4.949,4.949,0,0,1,0-6.688,5.149,5.149,0,0,1,6.706,0,4.955,4.955,0,0,1,0,6.693A4.658,4.658,0,0,1,103.869,61.167Zm-.018-1.635a2.479,2.479,0,0,0,1.916-.817,3.445,3.445,0,0,0,0-4.285,2.485,2.485,0,0,0-1.916-.813,2.428,2.428,0,0,0-1.881.813,3.486,3.486,0,0,0,0,4.285A2.419,2.419,0,0,0,103.852,59.532Zm8.763-5.889a2.67,2.67,0,0,1,1.121-1.125,3.5,3.5,0,0,1,1.727-.457v1.846a3.115,3.115,0,0,0-2.087.593,2.523,2.523,0,0,0-.681,1.991V61h-2.03V52.158h1.951Zm14.247-1.652a3.107,3.107,0,0,1,2.171.734,2.664,2.664,0,0,1,.809,2.079V61h-2.03V55.366a1.736,1.736,0,0,0-.439-1.288,1.509,1.509,0,0,0-1.107-.435,1.657,1.657,0,0,0-1.27.523,2.3,2.3,0,0,0-.488,1.613V61h-2.057V55.41a1.8,1.8,0,0,0-.444-1.318,1.522,1.522,0,0,0-1.129-.448,1.644,1.644,0,0,0-1.274.541,2.442,2.442,0,0,0-.492,1.683V61H117.1V52.158h2.013v1.09a2.852,2.852,0,0,1,2.5-1.257,3.351,3.351,0,0,1,1.582.356,2.342,2.342,0,0,1,1.02,1.024A2.935,2.935,0,0,1,126.861,51.991Zm7.77,9.176a3.669,3.669,0,0,1-1.349-.233,2.144,2.144,0,0,1-.984-.791,2.353,2.353,0,0,1-.391-1.384,2.564,2.564,0,0,1,.18-.989,2.165,2.165,0,0,1,.475-.725,2.789,2.789,0,0,1,.747-.51,5.358,5.358,0,0,1,.914-.347q.461-.127,1.068-.242l1.336-.246q.817-.158.817-.8a1.256,1.256,0,0,0-.492-1.1,2.1,2.1,0,0,0-1.239-.347,2.075,2.075,0,0,0-1.274.374,1.636,1.636,0,0,0-.6,1.182l-1.819-.334Q132.469,52,135.835,52a6.23,6.23,0,0,1,1.05.083,3.751,3.751,0,0,1,.958.3,2.756,2.756,0,0,1,.8.558,2.435,2.435,0,0,1,.536.9,3.743,3.743,0,0,1,.2,1.279v3.428a1.4,1.4,0,0,0,.185.844.8.8,0,0,0,.65.229h.141V61H139.4q-1.5,0-1.793-1.169h-.1a2.874,2.874,0,0,1-1.252,1.011A4.143,4.143,0,0,1,134.631,61.167Zm.475-1.591a2.351,2.351,0,0,0,1.767-.729,2.645,2.645,0,0,0,.7-1.916l-2.259.5a2.708,2.708,0,0,0-1.09.409.883.883,0,0,0-.36.751.849.849,0,0,0,.343.738A1.5,1.5,0,0,0,135.105,59.576Zm11.918-7.585a3.273,3.273,0,0,1,2.338.8,2.96,2.96,0,0,1,.844,2.263V61h-2.039V55.489a1.814,1.814,0,0,0-.488-1.393,1.768,1.768,0,0,0-1.252-.453,2.066,2.066,0,0,0-1.494.558,2.311,2.311,0,0,0-.589,1.718V61h-2.021V52.158h2.021V53.2a2.987,2.987,0,0,1,1.138-.9A3.658,3.658,0,0,1,147.023,51.991Zm16.778.167h1.951v8.288a4.813,4.813,0,0,1-1.191,3.546,4.473,4.473,0,0,1-3.309,1.191q-3.349,0-4.43-2.725L158.5,61.7a3.11,3.11,0,0,0,1.037,1.4,2.756,2.756,0,0,0,1.635.461,2.319,2.319,0,0,0,1.9-.778,3.387,3.387,0,0,0,.642-2.21v-1.31a2.923,2.923,0,0,1-1.182,1.05,3.664,3.664,0,0,1-1.7.4,3.8,3.8,0,0,1-2.861-1.23,4.374,4.374,0,0,1-1.173-3.146,4.794,4.794,0,0,1,.325-1.78,4.076,4.076,0,0,1,.875-1.38,4,4,0,0,1,1.288-.875,3.93,3.93,0,0,1,1.564-.316,3.552,3.552,0,0,1,1.736.426,2.85,2.85,0,0,1,1.165,1.129Zm-2.479,6.891a2.418,2.418,0,0,0,1.828-.791,2.842,2.842,0,0,0,0-3.836A2.528,2.528,0,0,0,159.5,54.4a2.894,2.894,0,0,0,.009,3.872A2.427,2.427,0,0,0,161.323,59.049Zm9.237-5.405a2.67,2.67,0,0,1,1.121-1.125,3.5,3.5,0,0,1,1.727-.457v1.846a3.115,3.115,0,0,0-2.087.593,2.523,2.523,0,0,0-.681,1.991V61h-2.03V52.158h1.951Zm10.16-1.485h2.021V61h-1.925l-.053-1.107a3.163,3.163,0,0,1-2.725,1.274,3.273,3.273,0,0,1-2.338-.8,2.96,2.96,0,0,1-.844-2.263v-5.95H176.9v5.511a1.814,1.814,0,0,0,.488,1.393,1.781,1.781,0,0,0,1.261.453,2.051,2.051,0,0,0,1.49-.558,2.322,2.322,0,0,0,.584-1.718Zm9.817-.167a4.12,4.12,0,0,1,2.1.545,3.975,3.975,0,0,1,1.516,1.6,5.076,5.076,0,0,1,.571,2.448,5.431,5.431,0,0,1-.33,1.929,4.146,4.146,0,0,1-.9,1.459,4.038,4.038,0,0,1-1.332.905,4.128,4.128,0,0,1-1.622.321,3.624,3.624,0,0,1-1.727-.413,2.851,2.851,0,0,1-1.182-1.134v5.722h-2.021V52.158h1.934l.053,1.441a2.805,2.805,0,0,1,1.182-1.182A3.638,3.638,0,0,1,190.538,51.991Zm-.439,7.5a2.447,2.447,0,0,0,1.854-.791,2.946,2.946,0,0,0,.747-2.109,2.915,2.915,0,0,0-.747-2.1,2.575,2.575,0,0,0-3.727.031,3.23,3.23,0,0,0,0,4.153A2.447,2.447,0,0,0,190.1,59.488ZM200.8,61.167a4.647,4.647,0,0,1-3.349-1.244,4.949,4.949,0,0,1,0-6.688,5.149,5.149,0,0,1,6.706,0,4.955,4.955,0,0,1,0,6.693A4.658,4.658,0,0,1,200.8,61.167Zm-.018-1.635a2.479,2.479,0,0,0,1.916-.817,3.445,3.445,0,0,0,0-4.285,2.485,2.485,0,0,0-1.916-.813,2.428,2.428,0,0,0-1.881.813,3.486,3.486,0,0,0,0,4.285A2.419,2.419,0,0,0,200.786,59.532Zm14.44,1.635a4.552,4.552,0,0,1-2.479-.628,2.623,2.623,0,0,1-1.213-1.824l1.714-.483a1.832,1.832,0,0,0,.694,1.112,2.138,2.138,0,0,0,1.283.374,2.049,2.049,0,0,0,1.072-.264.9.9,0,0,0,.431-.853.824.824,0,0,0-.114-.435,1.2,1.2,0,0,0-.272-.316,1.9,1.9,0,0,0-.453-.25,5.107,5.107,0,0,0-.536-.193l-.655-.193q-.413-.123-.686-.211a6.249,6.249,0,0,1-.844-.325,4,4,0,0,1-.694-.439,1.72,1.72,0,0,1-.532-.69,2.434,2.434,0,0,1-.18-.971,2.324,2.324,0,0,1,.448-1.45,2.549,2.549,0,0,1,1.178-.857A4.824,4.824,0,0,1,215.06,52a4.127,4.127,0,0,1,2.237.571,2.5,2.5,0,0,1,1.129,1.749l-1.6.378a1.594,1.594,0,0,0-.637-.984,2.178,2.178,0,0,0-2.145-.066.828.828,0,0,0-.417.76,1.032,1.032,0,0,0,.031.259.506.506,0,0,0,.119.215l.158.171a.825.825,0,0,0,.229.154q.158.079.255.123a2.767,2.767,0,0,0,.316.11l.325.1q.105.031.365.1l.365.092q.492.132.839.246a4.843,4.843,0,0,1,.765.338,2.665,2.665,0,0,1,.677.5,2.219,2.219,0,0,1,.435.708,2.571,2.571,0,0,1,.176.971,2.623,2.623,0,0,1-.281,1.244,2.139,2.139,0,0,1-.769.835,3.768,3.768,0,0,1-1.09.453A5.449,5.449,0,0,1,215.227,61.167Zm6.6-10.7a1.207,1.207,0,0,1-.879-.365,1.226,1.226,0,0,1,0-1.749,1.236,1.236,0,0,1,1.753,0,1.239,1.239,0,0,1-.87,2.114ZM220.79,61V52.158h2.03V61Zm9.6-9.009a3.273,3.273,0,0,1,2.338.8,2.96,2.96,0,0,1,.844,2.263V61H231.53V55.489a1.814,1.814,0,0,0-.488-1.393,1.768,1.768,0,0,0-1.252-.453,2.066,2.066,0,0,0-1.494.558,2.311,2.311,0,0,0-.589,1.718V61h-2.021V52.158h2.021V53.2a2.987,2.987,0,0,1,1.138-.9A3.658,3.658,0,0,1,230.388,51.991ZM239.317,61a2.5,2.5,0,0,1-1.863-.677,2.6,2.6,0,0,1-.668-1.907V53.74H235.02V52.158h.606a1.382,1.382,0,0,0,1.042-.338,1.709,1.709,0,0,0,.321-1.182V49.267h1.846v2.892h1.925V53.74h-1.925v4.465a1.267,1.267,0,0,0,.3.918,1.093,1.093,0,0,0,.822.312h.8V61Zm6.249-10.2,2.259-3.059,1.028.738-1.978,2.32Zm-.712,10.371a3.669,3.669,0,0,1-1.349-.233,2.144,2.144,0,0,1-.984-.791,2.353,2.353,0,0,1-.391-1.384,2.564,2.564,0,0,1,.18-.989,2.165,2.165,0,0,1,.475-.725,2.789,2.789,0,0,1,.747-.51,5.358,5.358,0,0,1,.914-.347q.461-.127,1.068-.242l1.336-.246q.817-.158.817-.8a1.256,1.256,0,0,0-.492-1.1,2.1,2.1,0,0,0-1.239-.347,2.075,2.075,0,0,0-1.274.374,1.636,1.636,0,0,0-.6,1.182l-1.819-.334Q242.692,52,246.059,52a6.23,6.23,0,0,1,1.05.083,3.751,3.751,0,0,1,.958.3,2.756,2.756,0,0,1,.8.558,2.435,2.435,0,0,1,.536.9,3.743,3.743,0,0,1,.2,1.279v3.428a1.4,1.4,0,0,0,.185.844.8.8,0,0,0,.65.229h.141V61h-.958q-1.5,0-1.793-1.169h-.1a2.874,2.874,0,0,1-1.252,1.011A4.143,4.143,0,0,1,244.854,61.167Zm.475-1.591a2.351,2.351,0,0,0,1.767-.729,2.645,2.645,0,0,0,.7-1.916l-2.259.5a2.708,2.708,0,0,0-1.09.409.883.883,0,0,0-.36.751.849.849,0,0,0,.343.738A1.5,1.5,0,0,0,245.329,59.576Zm10.846,1.582A4.376,4.376,0,0,1,251.6,56.57a4.439,4.439,0,0,1,1.288-3.313,4.92,4.92,0,0,1,6-.453,3.838,3.838,0,0,1,1.481,2.272l-1.881.246a2.356,2.356,0,0,0-.866-1.266,2.439,2.439,0,0,0-1.463-.439,2.32,2.32,0,0,0-1.828.813,3.573,3.573,0,0,0,0,4.28,2.32,2.32,0,0,0,1.828.813,2.456,2.456,0,0,0,1.463-.435,2.334,2.334,0,0,0,.866-1.261l1.881.237a3.843,3.843,0,0,1-1.49,2.276A4.485,4.485,0,0,1,256.175,61.158ZM265.456,61a2.5,2.5,0,0,1-1.863-.677,2.6,2.6,0,0,1-.668-1.907V53.74h-1.767V52.158h.606a1.382,1.382,0,0,0,1.042-.338,1.709,1.709,0,0,0,.321-1.182V49.267h1.846v2.892H266.9V53.74h-1.925v4.465a1.267,1.267,0,0,0,.3.918,1.093,1.093,0,0,0,.822.312h.8V61Zm4.562-10.529a1.207,1.207,0,0,1-.879-.365,1.226,1.226,0,0,1,0-1.749,1.236,1.236,0,0,1,1.753,0,1.239,1.239,0,0,1-.87,2.114ZM268.98,61V52.158h2.03V61Zm8.728.158a4.376,4.376,0,0,1-4.579-4.588,4.439,4.439,0,0,1,1.288-3.313,4.92,4.92,0,0,1,6-.453,3.838,3.838,0,0,1,1.481,2.272l-1.881.246a2.356,2.356,0,0,0-.866-1.266,2.439,2.439,0,0,0-1.463-.439,2.32,2.32,0,0,0-1.828.813,3.573,3.573,0,0,0,0,4.28,2.32,2.32,0,0,0,1.828.813,2.456,2.456,0,0,0,1.463-.435,2.334,2.334,0,0,0,.866-1.261l1.881.237a3.843,3.843,0,0,1-1.49,2.276A4.485,4.485,0,0,1,277.708,61.158Zm10.143.009a4.647,4.647,0,0,1-3.349-1.244,4.949,4.949,0,0,1,0-6.688,5.149,5.149,0,0,1,6.706,0,4.955,4.955,0,0,1,0,6.693A4.658,4.658,0,0,1,287.851,61.167Zm-.018-1.635a2.479,2.479,0,0,0,1.916-.817,3.445,3.445,0,0,0,0-4.285,2.485,2.485,0,0,0-1.916-.813,2.428,2.428,0,0,0-1.881.813,3.486,3.486,0,0,0,0,4.285A2.419,2.419,0,0,0,287.833,59.532Zm8,1.644a1.2,1.2,0,0,1-.87-.365,1.21,1.21,0,0,1,0-1.74,1.237,1.237,0,0,1,2.109.875,1.178,1.178,0,0,1-.365.87A1.2,1.2,0,0,1,295.831,61.176Z" transform="translate(2961 4976.556)" fill="#32687f"/>
    <g transform="matrix(1, 0, 0, 1, 2891.24, 4843.32)" filter="url(#Trazado_67306)">
      <path id="Trazado_67306-2" data-name="Trazado 67306" d="M3087.693,3589.234h-8.048q.261-7.407,2.519-11.284a13.92,13.92,0,0,1,7.031-5.835l-3.755-6.013a23.211,23.211,0,0,0-11.5,10.385q-2.767,5.15-2.767,16.652v14.12h16.523Z" transform="translate(-3035.58 -3469.44)" fill="#3487ad"/>
    </g>
    <g transform="matrix(1, 0, 0, 1, 2891.24, 4843.32)" filter="url(#Trazado_67307)">
      <path id="Trazado_67307-2" data-name="Trazado 67307" d="M3040.248,3589.234H3032.2q.26-7.407,2.518-11.284a13.925,13.925,0,0,1,7.031-5.835L3038,3566.1a23.205,23.205,0,0,0-11.5,10.385q-2.767,5.15-2.767,16.652v14.12h16.523Z" transform="translate(-3014.73 -3469.44)" fill="#3487ad"/>
    </g>
    <g id="Grupo_26522" data-name="Grupo 26522" transform="translate(2534 -2974.022)">
      <g transform="matrix(1, 0, 0, 1, 357.24, 7817.34)" filter="url(#Trazado_67304)">
        <path id="Trazado_67304-2" data-name="Trazado 67304" d="M3110.6,3965.6v-39.791h-73.881a8.023,8.023,0,0,1-8.014-8.013v-45.685H3023.3V3917.8a13.436,13.436,0,0,0,13.421,13.421H3105.2v47.438l47.438-47.438h442.607v-5.407H3150.4Z" transform="translate(-3014.54 -3691.97)" fill="#3487ad"/>
      </g>
      <g transform="matrix(1, 0, 0, 1, 357.24, 7817.34)" filter="url(#Trazado_67305)">
        <path id="Trazado_67305-2" data-name="Trazado 67305" d="M4162.655,3872.111V3917.8a8.022,8.022,0,0,1-8.014,8.013h-8.031v5.407h8.031a13.437,13.437,0,0,0,13.422-13.421v-45.685Z" transform="translate(-3508.38 -3691.97)" fill="#3487ad"/>
      </g>
      <g transform="matrix(1, 0, 0, 1, 357.24, 7817.34)" filter="url(#Trazado_67308)">
        <path id="Trazado_67308-2" data-name="Trazado 67308" d="M4103.393,3963.377h8.048q-.261,7.407-2.518,11.284a13.927,13.927,0,0,1-7.032,5.835l3.755,6.013a23.213,23.213,0,0,0,11.5-10.386q2.767-5.15,2.768-16.652v-14.12h-16.523Z" transform="translate(-3488.72 -3724.17)" fill="#3487ad"/>
      </g>
      <g transform="matrix(1, 0, 0, 1, 357.24, 7817.34)" filter="url(#Trazado_67309)">
        <path id="Trazado_67309-2" data-name="Trazado 67309" d="M4055.948,3963.377h8.047q-.26,7.407-2.518,11.284a13.923,13.923,0,0,1-7.031,5.835l3.755,6.013a23.207,23.207,0,0,0,11.5-10.386q2.767-5.15,2.767-16.652v-14.12h-16.522Z" transform="translate(-3467.86 -3724.17)" fill="#3487ad"/>
      </g>
    </g>
    <g transform="matrix(1, 0, 0, 1, 2891.24, 4843.32)" filter="url(#Trazado_67572)">
      <path id="Trazado_67572-2" data-name="Trazado 67572" d="M10.632,0H451.718A10.632,10.632,0,0,1,462.35,10.632V64.97A10.632,10.632,0,0,1,451.718,75.6H10.632A10.632,10.632,0,0,1,0,64.97V10.632A10.632,10.632,0,0,1,10.632,0Z" transform="translate(132.91 1)" fill="url(#linear-gradient)"/>
    </g>
    <path id="Trazado_67573" data-name="Trazado 67573" d="M8.465,5.478a4.671,4.671,0,0,1,3.577,1.445A5.026,5.026,0,0,1,13.4,10.494a4.9,4.9,0,0,1-1.343,3.55,4.756,4.756,0,0,1-3.588,1.391H5.231V21H2.009V5.478Zm-.537,7.262A2.368,2.368,0,0,0,9.7,12.132a2.308,2.308,0,0,0,.591-1.681,2.289,2.289,0,0,0-.6-1.66,2.347,2.347,0,0,0-1.767-.618h-2.7v4.565ZM24.374,18a10.331,10.331,0,0,0,.269,2.7V21h-2.89l-.247-1.2a3.591,3.591,0,0,1-1.547,1.063,5.7,5.7,0,0,1-2,.354,5.254,5.254,0,0,1-1.031-.1A3.506,3.506,0,0,1,16,20.791a2.82,2.82,0,0,1-.768-.575,2.52,2.52,0,0,1-.516-.875,3.488,3.488,0,0,1-.193-1.2,3.322,3.322,0,0,1,.2-1.2,2.807,2.807,0,0,1,.537-.9,3.258,3.258,0,0,1,.87-.655,6.658,6.658,0,0,1,1.1-.473,13.092,13.092,0,0,1,1.311-.344l1.815-.408a2,2,0,0,0,.822-.349.7.7,0,0,0,.242-.553,1.14,1.14,0,0,0-.542-1.063,2.533,2.533,0,0,0-1.316-.322A1.894,1.894,0,0,0,17.4,13.566l-2.739-.494a3.708,3.708,0,0,1,1.6-2.519,6.362,6.362,0,0,1,3.47-.811q4.641,0,4.641,3.985ZM18.928,19.12a2.488,2.488,0,0,0,1.912-.8,3.372,3.372,0,0,0,.741-2.369l-2.621.741a3.1,3.1,0,0,0-1.1.451.927.927,0,0,0-.381.795,1.029,1.029,0,0,0,.408.875A1.689,1.689,0,0,0,18.928,19.12Zm11.419-7.412a3.585,3.585,0,0,1,1.45-1.327,4.425,4.425,0,0,1,2.159-.553v2.761a4.183,4.183,0,0,0-2.643.666,2.908,2.908,0,0,0-.816,2.363V21H27.382V9.957h2.965ZM44.763,18a10.331,10.331,0,0,0,.269,2.7V21h-2.89l-.247-1.2a3.591,3.591,0,0,1-1.547,1.063,5.7,5.7,0,0,1-2,.354,5.254,5.254,0,0,1-1.031-.1,3.506,3.506,0,0,1-.929-.328,2.82,2.82,0,0,1-.768-.575,2.52,2.52,0,0,1-.516-.875,3.488,3.488,0,0,1-.193-1.2,3.322,3.322,0,0,1,.2-1.2,2.807,2.807,0,0,1,.537-.9,3.258,3.258,0,0,1,.87-.655,6.658,6.658,0,0,1,1.1-.473,13.092,13.092,0,0,1,1.311-.344l1.815-.408a2,2,0,0,0,.822-.349.7.7,0,0,0,.242-.553,1.14,1.14,0,0,0-.542-1.063,2.533,2.533,0,0,0-1.316-.322,1.894,1.894,0,0,0-2.159,1.687l-2.739-.494a3.708,3.708,0,0,1,1.6-2.519,6.362,6.362,0,0,1,3.47-.811q4.641,0,4.641,3.985ZM39.316,19.12a2.488,2.488,0,0,0,1.912-.8,3.372,3.372,0,0,0,.741-2.369l-2.621.741a3.1,3.1,0,0,0-1.1.451.927.927,0,0,0-.381.795,1.029,1.029,0,0,0,.408.875A1.689,1.689,0,0,0,39.316,19.12ZM53.485,21V4.5h3.126V21Zm15.383-3a10.331,10.331,0,0,0,.269,2.7V21h-2.89L66,19.8a3.591,3.591,0,0,1-1.547,1.063,5.7,5.7,0,0,1-2,.354,5.254,5.254,0,0,1-1.031-.1,3.506,3.506,0,0,1-.929-.328,2.82,2.82,0,0,1-.768-.575,2.52,2.52,0,0,1-.516-.875,3.488,3.488,0,0,1-.193-1.2,3.322,3.322,0,0,1,.2-1.2,2.807,2.807,0,0,1,.537-.9,3.258,3.258,0,0,1,.87-.655,6.658,6.658,0,0,1,1.1-.473,13.092,13.092,0,0,1,1.311-.344l1.815-.408a2,2,0,0,0,.822-.349.7.7,0,0,0,.242-.553,1.14,1.14,0,0,0-.542-1.063,2.533,2.533,0,0,0-1.316-.322A1.894,1.894,0,0,0,61.9,13.566l-2.739-.494a3.708,3.708,0,0,1,1.6-2.519,6.362,6.362,0,0,1,3.47-.811q4.641,0,4.641,3.985ZM63.422,19.12a2.488,2.488,0,0,0,1.912-.8,3.372,3.372,0,0,0,.741-2.369l-2.621.741a3.1,3.1,0,0,0-1.1.451.927.927,0,0,0-.381.795,1.029,1.029,0,0,0,.408.875A1.689,1.689,0,0,0,63.422,19.12ZM86.2,21l-4.039-6.832h-.935V21H78V5.478h5.629a6.511,6.511,0,0,1,2.256.36,3.9,3.9,0,0,1,1.563,1A4.278,4.278,0,0,1,88.328,8.3a5.363,5.363,0,0,1,.3,1.815,3.791,3.791,0,0,1-.849,2.551,4.277,4.277,0,0,1-2.438,1.337L90.009,21ZM81.222,8.152v3.706h1.9q2.417,0,2.417-1.848a1.682,1.682,0,0,0-.591-1.364,2.809,2.809,0,0,0-1.826-.494ZM102.889,21l-1.128-3.2H95.24L94.112,21h-3.3L96.529,5.478h3.942L106.187,21Zm-6.7-5.9h4.63l-2.31-6.585ZM117.52,8.313h-5.758v3.523h5.1v2.8h-5.1v3.513h5.758V21h-9V5.478h9ZM126.146,21V4.5h3.126V21Zm15.383-3a10.331,10.331,0,0,0,.269,2.7V21h-2.89l-.247-1.2a3.591,3.591,0,0,1-1.547,1.063,5.7,5.7,0,0,1-2,.354,5.254,5.254,0,0,1-1.031-.1,3.506,3.506,0,0,1-.929-.328,2.82,2.82,0,0,1-.768-.575,2.52,2.52,0,0,1-.516-.875,3.488,3.488,0,0,1-.193-1.2,3.322,3.322,0,0,1,.2-1.2,2.807,2.807,0,0,1,.537-.9,3.258,3.258,0,0,1,.87-.655,6.658,6.658,0,0,1,1.1-.473,13.092,13.092,0,0,1,1.311-.344l1.815-.408a2,2,0,0,0,.822-.349.7.7,0,0,0,.242-.553,1.14,1.14,0,0,0-.542-1.063,2.533,2.533,0,0,0-1.316-.322,1.894,1.894,0,0,0-2.159,1.687l-2.739-.494a3.708,3.708,0,0,1,1.6-2.519,6.362,6.362,0,0,1,3.47-.811q4.641,0,4.641,3.985Zm-5.446,1.117a2.488,2.488,0,0,0,1.912-.8,3.372,3.372,0,0,0,.741-2.369l-2.621.741a3.1,3.1,0,0,0-1.1.451.927.927,0,0,0-.381.795,1.029,1.029,0,0,0,.408.875A1.689,1.689,0,0,0,136.082,19.12Zm20.646-9.378a5.371,5.371,0,0,1,2.063.4,5.161,5.161,0,0,1,1.692,1.117,5.054,5.054,0,0,1,1.144,1.821,6.76,6.76,0,0,1,.419,2.422,6.76,6.76,0,0,1-.419,2.422,5.054,5.054,0,0,1-1.144,1.821,5.161,5.161,0,0,1-1.692,1.117,5.371,5.371,0,0,1-2.062.4,4.792,4.792,0,0,1-2-.408,3.131,3.131,0,0,1-1.386-1.16v6.682h-3.094V9.957h2.933l.086,1.482a3.025,3.025,0,0,1,1.38-1.251A4.744,4.744,0,0,1,156.729,9.742Zm-.7,8.948a2.779,2.779,0,0,0,2.089-.865,3.212,3.212,0,0,0,.833-2.326,3.212,3.212,0,0,0-.833-2.326,2.957,2.957,0,0,0-4.195.016,3.213,3.213,0,0,0-.838,2.31,3.213,3.213,0,0,0,.838,2.31A2.784,2.784,0,0,0,156.03,18.69Zm11.312-6.982a3.585,3.585,0,0,1,1.45-1.327,4.425,4.425,0,0,1,2.159-.553v2.761a4.183,4.183,0,0,0-2.643.666,2.908,2.908,0,0,0-.816,2.363V21h-3.115V9.957h2.965Zm15.748,3.609-.032.741h-8.186a2.859,2.859,0,0,0,.881,2.02,2.817,2.817,0,0,0,1.944.7,2.715,2.715,0,0,0,1.456-.381,2.344,2.344,0,0,0,.929-1.112l2.836.419a4.821,4.821,0,0,1-1.934,2.589,5.749,5.749,0,0,1-3.266.924,5.978,5.978,0,0,1-4.3-1.52,5.546,5.546,0,0,1-1.6-4.216,5.579,5.579,0,0,1,1.6-4.216,5.8,5.8,0,0,1,4.2-1.542,5.543,5.543,0,0,1,3.964,1.407A5.52,5.52,0,0,1,183.09,15.317Zm-5.446-3.405a2.445,2.445,0,0,0-2.686,2.127h5.07a2.326,2.326,0,0,0-.763-1.579A2.417,2.417,0,0,0,177.644,11.912Zm14.276-2.17a5.371,5.371,0,0,1,2.063.4,5.161,5.161,0,0,1,1.692,1.117,5.054,5.054,0,0,1,1.144,1.821,6.76,6.76,0,0,1,.419,2.422,6.76,6.76,0,0,1-.419,2.422,5.054,5.054,0,0,1-1.144,1.821,5.161,5.161,0,0,1-1.692,1.117,5.371,5.371,0,0,1-2.062.4,4.792,4.792,0,0,1-2-.408,3.131,3.131,0,0,1-1.386-1.16v6.682h-3.094V9.957h2.933l.086,1.482a3.025,3.025,0,0,1,1.38-1.251A4.744,4.744,0,0,1,191.92,9.742Zm-.7,8.948a2.779,2.779,0,0,0,2.089-.865,3.212,3.212,0,0,0,.833-2.326,3.212,3.212,0,0,0-.833-2.326,2.957,2.957,0,0,0-4.195.016,3.213,3.213,0,0,0-.838,2.31,3.213,3.213,0,0,0,.838,2.31A2.784,2.784,0,0,0,191.222,18.69Zm13.492,2.524a6.944,6.944,0,0,1-3.126-.677,5.058,5.058,0,0,1-2.143-1.987,5.922,5.922,0,0,1-.779-3.083,5.4,5.4,0,0,1,1.676-4.189,7.005,7.005,0,0,1,8.755,0,5.4,5.4,0,0,1,1.676,4.189,5.432,5.432,0,0,1-1.676,4.206A6.219,6.219,0,0,1,204.714,21.215Zm-.032-2.46a2.835,2.835,0,0,0,2.186-.9,3.378,3.378,0,0,0,.833-2.385,3.378,3.378,0,0,0-.833-2.385,2.835,2.835,0,0,0-2.186-.9,2.731,2.731,0,0,0-2.122.908,3.409,3.409,0,0,0-.822,2.379,3.409,3.409,0,0,0,.822,2.379A2.731,2.731,0,0,0,204.682,18.755Zm12.278,2.46a6.171,6.171,0,0,1-3.223-.773,3.269,3.269,0,0,1-1.579-2.3l2.589-.73a2.08,2.08,0,0,0,2.213,1.644,2.285,2.285,0,0,0,1.128-.252.879.879,0,0,0,.44-.854.9.9,0,0,0-.183-.569,1.446,1.446,0,0,0-.564-.408,7.026,7.026,0,0,0-.752-.29q-.371-.118-.983-.285t-1.021-.317a6.836,6.836,0,0,1-.972-.414,4.147,4.147,0,0,1-.806-.569,2.3,2.3,0,0,1-.6-.865,3.12,3.12,0,0,1-.209-1.182,2.821,2.821,0,0,1,1.2-2.471,5.352,5.352,0,0,1,3.131-.838,5.487,5.487,0,0,1,2.89.709,3.209,3.209,0,0,1,1.482,2.213l-2.4.537a1.876,1.876,0,0,0-1.966-1.4,2.153,2.153,0,0,0-1.085.247.794.794,0,0,0-.43.73.837.837,0,0,0,.064.333.659.659,0,0,0,.226.269,3.289,3.289,0,0,0,.312.2,2.35,2.35,0,0,0,.44.177q.29.091.483.14l.564.145.575.15q.591.161,1.037.322a6.072,6.072,0,0,1,.951.451,3.412,3.412,0,0,1,.833.65,2.9,2.9,0,0,1,.542.913,3.372,3.372,0,0,1,.215,1.23,3.322,3.322,0,0,1-.371,1.6,2.782,2.782,0,0,1-1.015,1.08,4.941,4.941,0,0,1-1.434.58A7.439,7.439,0,0,1,216.96,21.215ZM225.307,8.3a1.737,1.737,0,0,1-1.268-.521,1.71,1.71,0,0,1-.526-1.262,1.69,1.69,0,0,1,.532-1.251,1.742,1.742,0,0,1,1.262-.521,1.788,1.788,0,0,1,1.772,1.772A1.788,1.788,0,0,1,225.307,8.3ZM223.728,21V9.957h3.115V21Zm11.312.2a5.9,5.9,0,0,1-4.265-1.59,5.491,5.491,0,0,1-1.654-4.146,5.479,5.479,0,0,1,1.649-4.146,6.556,6.556,0,0,1,7.847-.516,4.748,4.748,0,0,1,1.848,3l-2.857.312a2.448,2.448,0,0,0-.924-1.45,2.809,2.809,0,0,0-1.676-.483,2.533,2.533,0,0,0-2.02.9,3.538,3.538,0,0,0-.773,2.385,3.542,3.542,0,0,0,.773,2.379,2.526,2.526,0,0,0,2.02.908,2.785,2.785,0,0,0,1.67-.483,2.505,2.505,0,0,0,.929-1.45l2.857.312a4.761,4.761,0,0,1-1.864,3A5.86,5.86,0,0,1,235.039,21.2Zm9.206-12.9a1.737,1.737,0,0,1-1.268-.521,1.71,1.71,0,0,1-.526-1.262,1.69,1.69,0,0,1,.532-1.251,1.742,1.742,0,0,1,1.262-.521,1.788,1.788,0,0,1,1.772,1.772A1.788,1.788,0,0,1,244.245,8.3ZM242.666,21V9.957h3.115V21ZM253.172,8.453,255.986,4.5l1.525,1.074-2.438,2.879Zm.956,12.762A6.944,6.944,0,0,1,251,20.538a5.058,5.058,0,0,1-2.143-1.987,5.922,5.922,0,0,1-.779-3.083,5.4,5.4,0,0,1,1.676-4.189,7.005,7.005,0,0,1,8.755,0,5.4,5.4,0,0,1,1.676,4.189,5.432,5.432,0,0,1-1.676,4.206A6.219,6.219,0,0,1,254.128,21.215Zm-.032-2.46a2.835,2.835,0,0,0,2.186-.9,3.378,3.378,0,0,0,.833-2.385,3.378,3.378,0,0,0-.833-2.385,2.835,2.835,0,0,0-2.186-.9,2.731,2.731,0,0,0-2.122.908,3.409,3.409,0,0,0-.822,2.379,3.409,3.409,0,0,0,.822,2.379A2.731,2.731,0,0,0,254.1,18.755Zm14.91-9.013a4.3,4.3,0,0,1,3.051.994,3.684,3.684,0,0,1,1.063,2.831V21h-3.1V14.232a1.924,1.924,0,0,0-.553-1.525,2.084,2.084,0,0,0-1.423-.483,2.908,2.908,0,0,0-.924.14,2.373,2.373,0,0,0-.773.435,1.923,1.923,0,0,0-.553.833,3.851,3.851,0,0,0-.209,1.278V21h-3.094V9.957h3.094v1.225A4.255,4.255,0,0,1,269.006,9.742Zm23.214,5.575-.032.741H284a2.859,2.859,0,0,0,.881,2.02,2.817,2.817,0,0,0,1.944.7,2.715,2.715,0,0,0,1.456-.381,2.344,2.344,0,0,0,.929-1.112l2.836.419a4.821,4.821,0,0,1-1.934,2.589,5.749,5.749,0,0,1-3.266.924,5.978,5.978,0,0,1-4.3-1.52,5.546,5.546,0,0,1-1.6-4.216,5.579,5.579,0,0,1,1.6-4.216,5.8,5.8,0,0,1,4.2-1.542,5.544,5.544,0,0,1,3.964,1.407A5.52,5.52,0,0,1,292.22,15.317Zm-5.446-3.405a2.445,2.445,0,0,0-2.686,2.127h5.07a2.326,2.326,0,0,0-.763-1.579A2.417,2.417,0,0,0,286.773,11.912Zm11.688,9.3a6.171,6.171,0,0,1-3.223-.773,3.269,3.269,0,0,1-1.579-2.3l2.589-.73a2.08,2.08,0,0,0,2.213,1.644,2.285,2.285,0,0,0,1.128-.252.879.879,0,0,0,.44-.854.9.9,0,0,0-.183-.569,1.446,1.446,0,0,0-.564-.408,7.027,7.027,0,0,0-.752-.29q-.371-.118-.983-.285t-1.021-.317a6.836,6.836,0,0,1-.972-.414,4.146,4.146,0,0,1-.806-.569,2.3,2.3,0,0,1-.6-.865,3.12,3.12,0,0,1-.209-1.182,2.821,2.821,0,0,1,1.2-2.471,5.352,5.352,0,0,1,3.131-.838,5.487,5.487,0,0,1,2.89.709,3.209,3.209,0,0,1,1.482,2.213l-2.4.537a1.876,1.876,0,0,0-1.966-1.4,2.153,2.153,0,0,0-1.085.247.794.794,0,0,0-.43.73.837.837,0,0,0,.064.333.659.659,0,0,0,.226.269,3.291,3.291,0,0,0,.312.2,2.35,2.35,0,0,0,.44.177q.29.091.483.14l.564.145.575.15q.591.161,1.037.322a6.07,6.07,0,0,1,.951.451,3.412,3.412,0,0,1,.833.65,2.9,2.9,0,0,1,.542.913,3.373,3.373,0,0,1,.215,1.23,3.322,3.322,0,0,1-.371,1.6,2.782,2.782,0,0,1-1.015,1.08,4.941,4.941,0,0,1-1.434.58A7.439,7.439,0,0,1,298.461,21.215Zm19.8-11.258h3.094V21H318.42l-.075-1.332a4.217,4.217,0,0,1-3.513,1.547,4.3,4.3,0,0,1-3.051-.994,3.684,3.684,0,0,1-1.063-2.831V9.957h3.1v6.768a1.909,1.909,0,0,0,.553,1.515,2.1,2.1,0,0,0,1.434.483,2.49,2.49,0,0,0,1.756-.628,2.7,2.7,0,0,0,.693-2.046Zm12.815-.215a4.3,4.3,0,0,1,3.051.994,3.684,3.684,0,0,1,1.063,2.831V21h-3.1V14.232a1.924,1.924,0,0,0-.553-1.525,2.084,2.084,0,0,0-1.423-.483,2.908,2.908,0,0,0-.924.14,2.373,2.373,0,0,0-.773.435,1.923,1.923,0,0,0-.553.833,3.851,3.851,0,0,0-.209,1.278V21h-3.094V9.957h3.094v1.225A4.255,4.255,0,0,1,331.074,9.742ZM347.241,18a10.33,10.33,0,0,0,.269,2.7V21h-2.89l-.247-1.2a3.591,3.591,0,0,1-1.547,1.063,5.7,5.7,0,0,1-2,.354,5.254,5.254,0,0,1-1.031-.1,3.506,3.506,0,0,1-.929-.328,2.82,2.82,0,0,1-.768-.575,2.52,2.52,0,0,1-.516-.875,3.488,3.488,0,0,1-.193-1.2,3.321,3.321,0,0,1,.2-1.2,2.807,2.807,0,0,1,.537-.9,3.258,3.258,0,0,1,.87-.655,6.657,6.657,0,0,1,1.1-.473,13.092,13.092,0,0,1,1.311-.344l1.815-.408a2,2,0,0,0,.822-.349.7.7,0,0,0,.242-.553,1.14,1.14,0,0,0-.542-1.063,2.533,2.533,0,0,0-1.316-.322,1.894,1.894,0,0,0-2.159,1.687l-2.739-.494a3.708,3.708,0,0,1,1.6-2.519,6.362,6.362,0,0,1,3.47-.811q4.641,0,4.641,3.985Zm-5.446,1.117a2.488,2.488,0,0,0,1.912-.8,3.372,3.372,0,0,0,.741-2.369l-2.621.741a3.1,3.1,0,0,0-1.1.451.927.927,0,0,0-.381.795,1.029,1.029,0,0,0,.408.875A1.689,1.689,0,0,0,341.795,19.12Zm10.259-4.941a1.686,1.686,0,0,1-1.241-.526,1.724,1.724,0,0,1-.521-1.257,1.779,1.779,0,0,1,1.762-1.762,1.724,1.724,0,0,1,1.257.521,1.686,1.686,0,0,1,.526,1.241,1.8,1.8,0,0,1-1.783,1.783Zm0,7.036a1.779,1.779,0,0,1-1.762-1.762,1.724,1.724,0,0,1,.521-1.257,1.686,1.686,0,0,1,1.241-.526,1.8,1.8,0,0,1,1.783,1.783,1.686,1.686,0,0,1-.526,1.241A1.724,1.724,0,0,1,352.054,21.215Z" transform="translate(3093 4871.24)" fill="#fff"/>
    <g id="Grupo_26524" data-name="Grupo 26524" transform="translate(2980.619 4851.783)">
      <path id="Trazado_67310" data-name="Trazado 67310" d="M1355.564-375.6h2.721a1.012,1.012,0,0,1,1.014,1.012v56.957a1.012,1.012,0,0,1-1.014,1.012l-36.069,0a1.459,1.459,0,0,0-1.352.882,4,4,0,0,1-3.695,2.467,4.01,4.01,0,0,1-3.7-2.469,1.454,1.454,0,0,0-1.35-.882h-36.069a1.013,1.013,0,0,1-1.013-1.012v-56.957a1.013,1.013,0,0,1,1.013-1.012h2.5l38.481,6.9Z" transform="translate(-1273.639 377)" fill="#ffd354"/>
      <path id="Trazado_67311" data-name="Trazado 67311" d="M1312.685-316.349a5.4,5.4,0,0,1-4.991-3.331l-36.125-.02a2.417,2.417,0,0,1-2.415-2.415v-56.956a2.417,2.417,0,0,1,2.415-2.415h2.5a1.393,1.393,0,0,1,.247.022l38.234,6.856,38.284-6.857a1.412,1.412,0,0,1,.247-.022h2.722a2.418,2.418,0,0,1,2.416,2.415v56.956a2.418,2.418,0,0,1-2.416,2.415l-36.069,0A5.521,5.521,0,0,1,1312.685-316.349Zm-40.727-6.156h35.679a2.845,2.845,0,0,1,2.646,1.748,2.6,2.6,0,0,0,2.4,1.6,2.6,2.6,0,0,0,2.4-1.6,2.853,2.853,0,0,1,2.646-1.744l35.681,0v-56.177H1351.2L1312.8-371.8a1.4,1.4,0,0,1-.495,0l-38.359-6.879h-1.984Z" transform="translate(-1269.154 381.486)" fill="#325a6a"/>
    </g>
    <g id="Grupo_26525" data-name="Grupo 26525" transform="translate(2987.64 4845.268)">
      <path id="Trazado_67312" data-name="Trazado 67312" d="M1339.619-336.572c-15.413-18.763-35.1-14.393-35.1-14.393v-51.6s19.7-4.816,35.108,13.948Z" transform="translate(-1303.12 404.483)" fill="#fff"/>
      <path id="Trazado_67313" data-name="Trazado 67313" d="M1335.135-339.531a1.4,1.4,0,0,1-1.084-.512c-14.651-17.835-32.94-14.083-33.711-13.914a1.405,1.405,0,0,1-1.18-.277,1.4,1.4,0,0,1-.524-1.092v-51.6a1.4,1.4,0,0,1,1.069-1.362c.205-.05,20.735-4.8,36.525,14.42a1.405,1.405,0,0,1,.318.89l-.011,52.045a1.4,1.4,0,0,1-.93,1.32A1.4,1.4,0,0,1,1335.135-339.531Zm-30.065-17.6a39.345,39.345,0,0,1,28.663,12.513l.01-47.851c-12.744-15.184-28.119-13.969-32.3-13.3v48.823A33.764,33.764,0,0,1,1305.069-357.135Z" transform="translate(-1298.635 408.844)" fill="#325a6a"/>
    </g>
    <g id="Grupo_26526" data-name="Grupo 26526" transform="translate(3022.748 4845.068)">
      <path id="Trazado_67314" data-name="Trazado 67314" d="M1451.925-337.265c15.528-18.9,35.108-14.177,35.108-14.177v-51.987s-19.58-4.726-35.108,14.178Z" transform="translate(-1450.523 405.318)" fill="#fff"/>
      <path id="Trazado_67315" data-name="Trazado 67315" d="M1447.441-340.226a1.4,1.4,0,0,1-.472-.082,1.4,1.4,0,0,1-.929-1.32v-51.986a1.4,1.4,0,0,1,.318-.89c15.9-19.36,36.315-14.7,36.52-14.651a1.4,1.4,0,0,1,1.073,1.363v51.987a1.4,1.4,0,0,1-.535,1.1,1.4,1.4,0,0,1-1.2.262c-.764-.182-18.943-4.256-33.694,13.7A1.4,1.4,0,0,1,1447.441-340.226Zm1.4-52.882v47.79c12.695-13.211,27.355-12.749,32.3-12.134v-49.178C1476.972-407.281,1461.675-408.406,1448.843-393.108Z" transform="translate(-1446.039 409.681)" fill="#325a6a"/>
    </g>
    <g id="Grupo_26527" data-name="Grupo 26527" transform="translate(3045.41 4858.479)">
      <path id="Trazado_67316" data-name="Trazado 67316" d="M1542.587-350.087a1.4,1.4,0,0,1-1.378-1.153,1.4,1.4,0,0,1,1.131-1.629,31.5,31.5,0,0,1,7.142-.467,1.4,1.4,0,0,1,1.331,1.47,1.4,1.4,0,0,1-1.47,1.331,28.623,28.623,0,0,0-6.505.426A1.394,1.394,0,0,1,1542.587-350.087Z" transform="translate(-1541.187 353.374)" fill="#325a6a"/>
    </g>
    <g id="Grupo_26528" data-name="Grupo 26528" transform="translate(3029.449 4859.973)">
      <path id="Trazado_67317" data-name="Trazado 67317" d="M1475.576-337.712a1.4,1.4,0,0,1-1.028-.448,1.4,1.4,0,0,1,.074-1.982,35.522,35.522,0,0,1,12.427-6.892,1.4,1.4,0,0,1,1.762.91,1.4,1.4,0,0,1-.91,1.762,33.082,33.082,0,0,0-11.37,6.275A1.4,1.4,0,0,1,1475.576-337.712Z" transform="translate(-1474.173 347.1)" fill="#325a6a"/>
    </g>
    <g id="Grupo_26529" data-name="Grupo 26529" transform="translate(3029.448 4865.179)">
      <path id="Trazado_67318" data-name="Trazado 67318" d="M1475.575-314.359a1.4,1.4,0,0,1-1.028-.448,1.4,1.4,0,0,1,.074-1.982c.4-.372,9.966-9.109,23.808-8.414a1.4,1.4,0,0,1,1.331,1.47,1.4,1.4,0,0,1-1.47,1.331c-12.671-.637-21.671,7.585-21.761,7.668A1.4,1.4,0,0,1,1475.575-314.359Z" transform="translate(-1474.172 325.242)" fill="#325a6a"/>
    </g>
    <g id="Grupo_26530" data-name="Grupo 26530" transform="translate(3029.449 4871.881)">
      <path id="Trazado_67319" data-name="Trazado 67319" d="M1475.577-286.222a1.4,1.4,0,0,1-1.029-.449,1.4,1.4,0,0,1,.074-1.98c.4-.372,9.983-9.1,23.809-8.414a1.4,1.4,0,0,1,1.331,1.471,1.4,1.4,0,0,1-1.47,1.331c-12.626-.635-21.672,7.586-21.762,7.669A1.4,1.4,0,0,1,1475.577-286.222Z" transform="translate(-1474.174 297.103)" fill="#325a6a"/>
    </g>
    <g id="Grupo_26531" data-name="Grupo 26531" transform="translate(3029.449 4877.913)">
      <path id="Trazado_67320" data-name="Trazado 67320" d="M1475.577-260.9a1.4,1.4,0,0,1-1.029-.449,1.4,1.4,0,0,1,.074-1.98c.4-.372,9.983-9.1,23.809-8.414a1.4,1.4,0,0,1,1.331,1.47,1.4,1.4,0,0,1-1.47,1.33c-12.626-.633-21.672,7.586-21.762,7.67A1.4,1.4,0,0,1,1475.577-260.9Z" transform="translate(-1474.174 271.78)" fill="#325a6a"/>
    </g>
    <g id="Grupo_26532" data-name="Grupo 26532" transform="translate(3035.815 4883.945)">
      <path id="Trazado_67321" data-name="Trazado 67321" d="M1502.309-239.844a1.4,1.4,0,0,1-1.245-.755,1.4,1.4,0,0,1,.6-1.891,33.819,33.819,0,0,1,17.133-3.925,1.4,1.4,0,0,1,1.33,1.471,1.41,1.41,0,0,1-1.47,1.33,31.017,31.017,0,0,0-15.7,3.612A1.4,1.4,0,0,1,1502.309-239.844Z" transform="translate(-1500.905 246.453)" fill="#325a6a"/>
    </g>
    <g id="Grupo_26533" data-name="Grupo 26533" transform="translate(3029.449 4889.302)">
      <path id="Trazado_67322" data-name="Trazado 67322" d="M1475.577-218.438a1.4,1.4,0,0,1-1.029-.449,1.4,1.4,0,0,1,.074-1.98,29.047,29.047,0,0,1,3.876-2.876,1.4,1.4,0,0,1,1.936.432,1.4,1.4,0,0,1-.432,1.936,26.868,26.868,0,0,0-3.473,2.566A1.4,1.4,0,0,1,1475.577-218.438Z" transform="translate(-1474.174 223.962)" fill="#325a6a"/>
    </g>
    <g id="Grupo_26534" data-name="Grupo 26534" transform="translate(2993.93 4858.479)">
      <path id="Trazado_67323" data-name="Trazado 67323" d="M1349.232-342.495a1.4,1.4,0,0,1-.952-.372c-.09-.083-9.146-8.3-21.764-7.669a1.411,1.411,0,0,1-1.47-1.331,1.4,1.4,0,0,1,1.331-1.47c13.824-.692,23.409,8.042,23.81,8.414a1.4,1.4,0,0,1,.074,1.98A1.4,1.4,0,0,1,1349.232-342.495Z" transform="translate(-1325.044 353.377)" fill="#325a6a"/>
    </g>
    <g id="Grupo_26535" data-name="Grupo 26535" transform="translate(2993.93 4865.18)">
      <path id="Trazado_67324" data-name="Trazado 67324" d="M1349.232-314.359a1.4,1.4,0,0,1-.952-.373c-.09-.083-9.146-8.3-21.764-7.669a1.411,1.411,0,0,1-1.47-1.331,1.4,1.4,0,0,1,1.331-1.471c13.824-.692,23.409,8.042,23.81,8.414a1.4,1.4,0,0,1,.074,1.98A1.4,1.4,0,0,1,1349.232-314.359Z" transform="translate(-1325.044 325.241)" fill="#325a6a"/>
    </g>
    <g id="Grupo_26536" data-name="Grupo 26536" transform="translate(2993.932 4871.882)">
      <path id="Trazado_67325" data-name="Trazado 67325" d="M1332.5-293.945a1.443,1.443,0,0,1-.216-.016,28.483,28.483,0,0,0-5.759-.3,1.4,1.4,0,0,1-1.471-1.33,1.4,1.4,0,0,1,1.33-1.471,31.363,31.363,0,0,1,6.327.33,1.4,1.4,0,0,1,1.172,1.6A1.4,1.4,0,0,1,1332.5-293.945Z" transform="translate(-1325.05 297.102)" fill="#325a6a"/>
    </g>
    <g id="Grupo_26537" data-name="Grupo 26537" transform="translate(3003.941 4873.11)">
      <path id="Trazado_67326" data-name="Trazado 67326" d="M1381.254-282.29a1.4,1.4,0,0,1-.952-.372,33.44,33.44,0,0,0-12.211-6.53,1.4,1.4,0,0,1-.959-1.736,1.4,1.4,0,0,1,1.736-.958,35.648,35.648,0,0,1,13.34,7.168,1.4,1.4,0,0,1,.074,1.98A1.4,1.4,0,0,1,1381.254-282.29Z" transform="translate(-1367.077 291.943)" fill="#325a6a"/>
    </g>
    <g id="Grupo_26538" data-name="Grupo 26538" transform="translate(2993.93 4877.912)">
      <path id="Trazado_67327" data-name="Trazado 67327" d="M1349.232-260.9a1.4,1.4,0,0,1-.952-.372c-.09-.083-9.146-8.3-21.764-7.67a1.409,1.409,0,0,1-1.47-1.33,1.4,1.4,0,0,1,1.331-1.471c13.824-.691,23.409,8.042,23.81,8.414a1.4,1.4,0,0,1,.074,1.98A1.4,1.4,0,0,1,1349.232-260.9Z" transform="translate(-1325.044 271.782)" fill="#325a6a"/>
    </g>
    <g id="Grupo_26539" data-name="Grupo 26539" transform="translate(2993.93 4883.943)">
      <path id="Trazado_67328" data-name="Trazado 67328" d="M1349.232-235.577a1.4,1.4,0,0,1-.952-.372c-.09-.083-9.146-8.3-21.764-7.669a1.412,1.412,0,0,1-1.47-1.331,1.4,1.4,0,0,1,1.331-1.471c13.824-.69,23.409,8.042,23.81,8.414a1.4,1.4,0,0,1,.074,1.98A1.4,1.4,0,0,1,1349.232-235.577Z" transform="translate(-1325.044 246.459)" fill="#325a6a"/>
    </g>
  </g>
</svg>
