<svg xmlns="http://www.w3.org/2000/svg" width="740" height="641" viewBox="0 0 740 641">
  <g id="Polígono_51" data-name="Polígono 51" fill="#d6ece1">
    <path d="M 719.2177124023438 640.4999389648438 L 718.7177124023438 640.4999389648438 L 20.78236389160156 640.4999389648438 C 16.62509155273438 640.4999389648438 12.90209102630615 638.3506469726563 10.82327270507813 634.75048828125 C 8.744544982910156 631.1502685546875 8.744181632995605 626.8514404296875 10.82245445251465 623.2510375976563 L 360.0401000976563 18.25492286682129 C 362.1187133789063 14.65383148193359 365.8420104980469 12.50401306152344 370 12.50401306152344 C 374.1578979492188 12.50401306152344 377.8811950683594 14.65383148193359 379.9598083496094 18.25492286682129 L 729.1776123046875 623.2510375976563 C 731.255615234375 626.85107421875 731.2551879882813 631.14990234375 729.1763916015625 634.7501831054688 C 727.0974731445313 638.3504638671875 723.3746337890625 640.4999389648438 719.2177124023438 640.4999389648438 Z" stroke="none"/>
    <path d="M 369.9999084472656 13.00390625 C 366.0228271484375 13.00390625 362.4614562988281 15.06036376953125 360.4731750488281 18.50482177734375 L 11.25555419921875 623.5008544921875 C 9.26751708984375 626.94482421875 9.26788330078125 631.0568237304688 11.25628662109375 634.50048828125 C 13.2447509765625 637.944091796875 16.80584716796875 639.9999389648438 20.78228759765625 639.9999389648438 L 719.2177124023438 639.9999389648438 C 723.1939086914063 639.9999389648438 726.7548217773438 637.9439086914063 728.7433471679688 634.5001220703125 C 730.7318115234375 631.056396484375 730.7322998046875 626.9444580078125 728.7444458007813 623.5008544921875 L 379.5267333984375 18.50482177734375 C 377.5384521484375 15.06036376953125 373.9770812988281 13.00390625 369.9999084472656 13.00390625 M 369.9999694824219 12.00396728515625 C 374.041748046875 12.00396728515625 378.0835571289063 14.0042724609375 380.392822265625 18.00494384765625 L 729.6105346679688 623.0009155273438 C 734.2280883789063 631.0004272460938 728.453857421875 640.9999389648438 719.2177734375 640.9999389648438 C 719.2172241210938 640.9999389648438 719.2182006835938 640.9999389648438 719.2176513671875 640.9999389648438 L 20.78228759765625 640.9999389648438 C 11.545166015625 641 5.7716064453125 631.0009155273438 10.38946533203125 623.0009155273438 L 359.6070861816406 18.00494384765625 C 361.9163513183594 14.0042724609375 365.9581604003906 12.00396728515625 369.9999694824219 12.00396728515625 Z" stroke="none" fill="#fff6f6"/>
  </g>
</svg>
