<svg xmlns="http://www.w3.org/2000/svg" viewBox="0 0 814.88 231.74"><defs><style>.cls-1{isolation:isolate;}.cls-2{opacity:0.38;}.cls-10,.cls-100,.cls-101,.cls-102,.cls-103,.cls-104,.cls-11,.cls-12,.cls-13,.cls-14,.cls-15,.cls-16,.cls-17,.cls-18,.cls-19,.cls-20,.cls-21,.cls-22,.cls-23,.cls-24,.cls-25,.cls-26,.cls-27,.cls-28,.cls-29,.cls-3,.cls-30,.cls-31,.cls-32,.cls-33,.cls-34,.cls-35,.cls-36,.cls-37,.cls-38,.cls-39,.cls-40,.cls-41,.cls-42,.cls-43,.cls-44,.cls-46,.cls-47,.cls-48,.cls-49,.cls-5,.cls-50,.cls-51,.cls-52,.cls-53,.cls-54,.cls-55,.cls-56,.cls-57,.cls-58,.cls-59,.cls-6,.cls-60,.cls-61,.cls-62,.cls-63,.cls-64,.cls-65,.cls-66,.cls-67,.cls-68,.cls-69,.cls-7,.cls-70,.cls-71,.cls-72,.cls-73,.cls-74,.cls-75,.cls-76,.cls-77,.cls-78,.cls-79,.cls-8,.cls-80,.cls-81,.cls-82,.cls-83,.cls-84,.cls-85,.cls-86,.cls-87,.cls-88,.cls-89,.cls-9,.cls-90,.cls-91,.cls-92,.cls-93,.cls-94,.cls-95,.cls-96,.cls-97,.cls-98,.cls-99{fill:none;}.cls-3{stroke:#f15a29;}.cls-10,.cls-100,.cls-101,.cls-102,.cls-103,.cls-104,.cls-11,.cls-12,.cls-13,.cls-14,.cls-15,.cls-16,.cls-17,.cls-18,.cls-19,.cls-20,.cls-21,.cls-22,.cls-23,.cls-24,.cls-25,.cls-26,.cls-27,.cls-28,.cls-29,.cls-3,.cls-30,.cls-31,.cls-32,.cls-33,.cls-34,.cls-35,.cls-36,.cls-37,.cls-38,.cls-39,.cls-40,.cls-41,.cls-42,.cls-43,.cls-44,.cls-46,.cls-47,.cls-48,.cls-5,.cls-50,.cls-51,.cls-52,.cls-53,.cls-54,.cls-55,.cls-56,.cls-57,.cls-58,.cls-59,.cls-6,.cls-60,.cls-61,.cls-62,.cls-63,.cls-64,.cls-65,.cls-66,.cls-67,.cls-68,.cls-69,.cls-7,.cls-70,.cls-71,.cls-72,.cls-73,.cls-74,.cls-75,.cls-76,.cls-77,.cls-78,.cls-79,.cls-80,.cls-81,.cls-82,.cls-83,.cls-84,.cls-85,.cls-86,.cls-87,.cls-88,.cls-89,.cls-9,.cls-90,.cls-91,.cls-92,.cls-93,.cls-94,.cls-95,.cls-96,.cls-97,.cls-98,.cls-99{stroke-miterlimit:10;}.cls-10,.cls-100,.cls-101,.cls-102,.cls-103,.cls-104,.cls-11,.cls-12,.cls-13,.cls-14,.cls-15,.cls-16,.cls-17,.cls-18,.cls-19,.cls-20,.cls-21,.cls-22,.cls-23,.cls-24,.cls-25,.cls-26,.cls-27,.cls-28,.cls-29,.cls-3,.cls-30,.cls-31,.cls-32,.cls-33,.cls-34,.cls-35,.cls-36,.cls-37,.cls-38,.cls-39,.cls-40,.cls-41,.cls-42,.cls-43,.cls-44,.cls-46,.cls-47,.cls-49,.cls-5,.cls-50,.cls-51,.cls-52,.cls-53,.cls-54,.cls-55,.cls-56,.cls-57,.cls-58,.cls-59,.cls-6,.cls-60,.cls-61,.cls-62,.cls-63,.cls-64,.cls-65,.cls-66,.cls-67,.cls-68,.cls-69,.cls-70,.cls-71,.cls-72,.cls-73,.cls-74,.cls-75,.cls-76,.cls-77,.cls-78,.cls-79,.cls-8,.cls-80,.cls-81,.cls-82,.cls-83,.cls-84,.cls-85,.cls-86,.cls-87,.cls-88,.cls-89,.cls-9,.cls-90,.cls-91,.cls-92,.cls-93,.cls-94,.cls-95,.cls-96,.cls-97,.cls-98,.cls-99{stroke-width:0.36px;}.cls-4{mix-blend-mode:screen;}.cls-5{stroke:#f7941e;}.cls-6{stroke:#f7921f;}.cls-7{stroke:#f7901f;}.cls-48,.cls-7{stroke-width:0.36px;}.cls-8{stroke:#f68e20;}.cls-49,.cls-8{stroke-miterlimit:10;}.cls-9{stroke:#f68b20;}.cls-10{stroke:#f68921;}.cls-11{stroke:#f68722;}.cls-12{stroke:#f68522;}.cls-13{stroke:#f58323;}.cls-14{stroke:#f58124;}.cls-15{stroke:#f57f24;}.cls-16{stroke:#f57d25;}.cls-17{stroke:#f57a25;}.cls-18{stroke:#f47826;}.cls-19{stroke:#f47627;}.cls-20{stroke:#f47427;}.cls-21{stroke:#f47228;}.cls-22{stroke:#f47028;}.cls-23{stroke:#f36e29;}.cls-24{stroke:#f36c2a;}.cls-25{stroke:#f3692a;}.cls-26{stroke:#f3672b;}.cls-27{stroke:#f2652c;}.cls-28{stroke:#f2632c;}.cls-29{stroke:#f2612d;}.cls-30{stroke:#f25f2d;}.cls-31{stroke:#f25d2e;}.cls-32{stroke:#f15b2f;}.cls-33{stroke:#f1582f;}.cls-34{stroke:#f15630;}.cls-35{stroke:#f15430;}.cls-36{stroke:#f15231;}.cls-37{stroke:#f05032;}.cls-38{stroke:#f04e32;}.cls-39{stroke:#f04c33;}.cls-40{stroke:#f04a34;}.cls-41{stroke:#f04734;}.cls-42{stroke:#ef4535;}.cls-43{stroke:#ef4335;}.cls-44{stroke:#ef4136;}.cls-45{opacity:0.5;}.cls-105,.cls-45{mix-blend-mode:hard-light;}.cls-46{stroke:#f9ed32;}.cls-47{stroke:#f9e932;}.cls-48{stroke:#f8e432;}.cls-49{stroke:#f8e032;}.cls-50{stroke:#f8db32;}.cls-51{stroke:#f8d733;}.cls-52{stroke:#f7d333;}.cls-53{stroke:#f7ce33;}.cls-54{stroke:#f7ca33;}.cls-55{stroke:#f7c533;}.cls-56{stroke:#f6c133;}.cls-57{stroke:#f6bc33;}.cls-58{stroke:#f6b833;}.cls-59{stroke:#f6b433;}.cls-60{stroke:#f5af33;}.cls-61{stroke:#f5ab34;}.cls-62{stroke:#f5a634;}.cls-63{stroke:#f5a234;}.cls-64{stroke:#f49e34;}.cls-65{stroke:#f49934;}.cls-66{stroke:#f49534;}.cls-67{stroke:#f49034;}.cls-68{stroke:#f38c34;}.cls-69{stroke:#f38834;}.cls-70{stroke:#f38334;}.cls-71{stroke:#f37f35;}.cls-72{stroke:#f27a35;}.cls-73{stroke:#f27635;}.cls-74{stroke:#f27235;}.cls-75{stroke:#f26d35;}.cls-76{stroke:#f16935;}.cls-77{stroke:#f16435;}.cls-78{stroke:#f16035;}.cls-79{stroke:#f15b35;}.cls-80{stroke:#f05735;}.cls-81{stroke:#f05336;}.cls-82{stroke:#f04e36;}.cls-83{stroke:#f04a36;}.cls-84{stroke:#ef4536;}.cls-85{stroke:#f7911f;}.cls-86{stroke:#f68f20;}.cls-87{stroke:#f68c20;}.cls-88{stroke:#f58423;}.cls-89{stroke:#f58123;}.cls-90{stroke:#f57c25;}.cls-91{stroke:#f47926;}.cls-92{stroke:#f47727;}.cls-93{stroke:#f47128;}.cls-94{stroke:#f36f29;}.cls-95{stroke:#f3662b;}.cls-96{stroke:#f2642c;}.cls-97{stroke:#f25e2d;}.cls-98{stroke:#f25c2e;}.cls-99{stroke:#f1592f;}.cls-100{stroke:#f15431;}.cls-101{stroke:#f15131;}.cls-102{stroke:#f04934;}.cls-103{stroke:#f04634;}.cls-104{stroke:#ef4435;}.cls-106,.cls-107,.cls-108,.cls-109{fill:#f1f2f2;fill-rule:evenodd;}.cls-106{opacity:0.8;}.cls-108{opacity:0.6;}.cls-109{opacity:0.4;}</style></defs><g class="cls-1"><g id="Capa_2" data-name="Capa 2"><g id="BACKGROUND"><g class="cls-2"><path class="cls-3" d="M712.26,112.89c-5.93-5.56,6.56,4.63,0,0a121.13,121.13,0,0,0-41.12-18.68c-29.37-7.14-61.1-3-87.47,13.79-16.94,10.8-32.22,26.34-51.23,30.77-27.59,6.44-54.43-12.05-78.14-29.41s-51.21-35.12-78.5-27.15c-19.74,5.77-35,24.09-54.23,31.68-40.3,15.9-153.93,2.69-182.7-47.13"/><path class="cls-3" d="M712.68,111.77c-5.81-5.45,6.32,4.46-.1-.07a117.5,117.5,0,0,0-40.7-18.34,113.41,113.41,0,0,0-72.25,6.27,107.9,107.9,0,0,0-14.13,7.63c-16.72,10.72-31.75,26-50.44,30.63a55.42,55.42,0,0,1-28.07-.53c-8.51-2.27-16.5-6.27-24.5-10.87-7.61-4.38-15.13-9.4-22.42-14.33l-4.9-3.34c-2.49-1.69-5-3.37-7.53-5a218.49,218.49,0,0,0-23.05-13.15c-8.26-4-16.68-7.36-25.06-9a52.35,52.35,0,0,0-24.59.43c-19.86,5.42-35.27,23.6-54.62,31.13-40.57,15.8-152.89,2.71-181.87-46.43"/><path class="cls-3" d="M713.11,110.65c-5.7-5.33,6.07,4.28-.22-.15a113.91,113.91,0,0,0-40.26-18C648.9,87,623.68,88.9,601.27,99a104.7,104.7,0,0,0-13.94,7.57C570.84,117.16,556,132.15,537.68,137a55.68,55.68,0,0,1-28.57-.06c-8.84-2.27-16.78-6.52-24.95-11.19-7.76-4.44-15.52-9.45-23.06-14.24L456,108.27c-2.57-1.62-5.16-3.22-7.76-4.77a234.54,234.54,0,0,0-23.63-12.3c-8.51-3.87-17.12-7.34-25.59-9.2-8.19-1.82-16.46-2.28-25-.12-20,5.07-35.57,23.1-55,30.58-40.84,15.69-151.85,2.72-181-45.75"/><path class="cls-3" d="M713.53,109.53c-5.58-5.22,5.84,4.11-.32-.22a111.07,111.07,0,0,0-39.84-17.64c-23.5-5.26-48.39-3.36-70.46,6.59a104.45,104.45,0,0,0-13.75,7.51c-16.27,10.58-30.82,25.3-48.86,30.34a56.09,56.09,0,0,1-29.06.42c-9.18-2.28-17.06-6.78-25.42-11.53-7.9-4.49-15.9-9.47-23.69-14.14-1.76-1.06-3.5-2.11-5.22-3.13-2.65-1.56-5.32-3.08-8-4.53-7.86-4.27-15.68-7.87-24.21-11.47C416,88,407.15,84.42,398.6,82.39c-8.28-2-16.63-2.74-25.39-.68-20.08,4.73-35.87,22.61-55.39,30-41.1,15.58-150.8,2.74-180.2-45"/><path class="cls-3" d="M714,108.41c-5.47-5.11,5.59,3.94-.43-.3a107.9,107.9,0,0,0-39.42-17.28c-23.25-5.06-47.84-3.12-69.56,6.74A103.63,103.63,0,0,0,591,105c-16,10.5-30.36,25-48.07,30.2a56.51,56.51,0,0,1-29.56.88c-9.51-2.31-17.34-7-25.88-11.85-8-4.55-16.28-9.51-24.33-14.06-1.81-1-3.6-2-5.37-3-2.74-1.5-5.48-2.94-8.21-4.29-8.07-4-16-7.18-24.78-10.63-9-3.54-18-7.29-26.66-9.49-8.36-2.16-16.8-3.19-25.78-1.23-20.18,4.39-36.17,22.11-55.77,29.47C275.2,126.5,166.81,113.78,137.2,66.66"/><path class="cls-3" d="M714.39,107.29c-5.36-5,5.35,3.77-.54-.37a105,105,0,0,0-39-16.94c-23-4.86-47.28-2.86-68.66,6.9a101.53,101.53,0,0,0-13.36,7.41c-15.83,10.42-29.9,24.64-47.3,30.05a56.63,56.63,0,0,1-30,1.35c-9.84-2.32-17.63-7.27-26.35-12.17-8.18-4.61-16.65-9.56-25-14-1.87-1-3.71-2-5.53-2.9-2.82-1.44-5.64-2.8-8.44-4.05-8.28-3.72-16.28-6.49-25.36-9.8-9.27-3.39-18.47-7.25-27.18-9.63-8.45-2.33-17-3.64-26.19-1.79C351.2,85.46,335,103,315.33,110.3c-41.65,15.37-148.72,2.78-178.54-43.67"/><path class="cls-3" d="M714.81,106.17c-5.24-4.88,5.11,3.6-.64-.45A102,102,0,0,0,675.6,89.14c-22.77-4.66-46.74-2.61-67.77,7.06a98.35,98.35,0,0,0-13.17,7.35c-15.6,10.34-29.43,24.32-46.51,29.91a56.91,56.91,0,0,1-30.54,1.82c-10.17-2.33-17.91-7.53-26.8-12.5-8.33-4.66-17-9.6-25.61-13.88-1.91-1-3.8-1.91-5.68-2.79-2.9-1.37-5.81-2.66-8.66-3.82-8.5-3.44-16.59-5.78-25.94-9-9.53-3.23-18.92-7.22-27.71-9.77-8.54-2.5-17.14-4.09-26.59-2.35-20.38,3.77-36.76,21.13-56.54,28.37-41.91,15.27-147.68,2.8-177.71-43"/><path class="cls-3" d="M715.24,105.05c-5.13-4.76,4.86,3.42-.76-.53a99,99,0,0,0-38.14-16.23c-22.52-4.45-46.18-2.36-66.87,7.22a100.37,100.37,0,0,0-13,7.29c-15.38,10.27-29,24-45.72,29.77-9.47,3.25-20.12,4.72-31,2.29-10.51-2.34-18.2-7.78-27.27-12.82-8.47-4.72-17.42-9.65-26.24-13.8-2-.92-3.91-1.83-5.84-2.68-3-1.3-6-2.51-8.89-3.57-8.71-3.17-16.89-5.09-26.51-8.12-9.78-3.08-19.38-7.2-28.25-9.92-8.63-2.67-17.3-4.53-27-2.9-20.47,3.45-37.06,20.63-56.92,27.81C270.65,124,166.19,111.68,136,66.58"/><path class="cls-3" d="M715.66,103.93c-5-4.65,4.63,3.25-.86-.6a95.94,95.94,0,0,0-37.72-15.88c-22.28-4.26-45.65-2.15-66,7.37a97.19,97.19,0,0,0-12.79,7.24c-15.15,10.2-28.5,23.72-44.93,29.62-9.5,3.42-20.35,5.19-31.53,2.76-10.84-2.35-18.48-8-27.73-13.14-8.61-4.78-17.79-9.7-26.87-13.71-2-.89-4-1.77-6-2.57-3.07-1.24-6.13-2.37-9.11-3.33-8.93-2.9-17.2-4.4-27.1-7.29s-19.82-7.17-28.77-10.06c-8.72-2.84-17.47-5-27.39-3.46C348.33,84,331.53,101,311.58,108.14,269.13,123.2,166,111,135.54,66.55"/><path class="cls-3" d="M716.09,102.8c-4.9-4.52,4.38,3.09-1-.67a93.11,93.11,0,0,0-37.3-15.53c-22-4-45.09-1.9-65.07,7.53a95.83,95.83,0,0,0-12.6,7.19c-14.92,10.12-28,23.43-44.14,29.48-9.53,3.58-20.58,5.64-32,3.23-11.18-2.36-18.77-8.28-28.2-13.47a280.13,280.13,0,0,0-27.51-13.62c-2.07-.86-4.12-1.7-6.15-2.46-3.16-1.18-6.29-2.22-9.34-3.1-9.14-2.62-17.5-3.7-27.67-6.44s-20.28-7.15-29.31-10.21c-8.8-3-17.63-5.42-27.78-4-20.65,2.86-37.66,19.64-57.7,26.7-42.72,15-144.55,2.86-175.21-40.89"/><path class="cls-3" d="M716.51,101.68c-4.78-4.41,4.15,2.92-1.07-.74a90.28,90.28,0,0,0-36.87-15.18C656.78,81.9,634,84.1,614.39,93.44a94.84,94.84,0,0,0-12.4,7.14c-14.71,10-27.57,23.14-43.36,29.33-9.56,3.75-20.81,6.11-32.51,3.7-11.52-2.37-19.06-8.53-28.66-13.8a242.11,242.11,0,0,0-28.15-13.52c-2.13-.83-4.23-1.64-6.31-2.35-3.24-1.11-6.46-2.08-9.57-2.86-9.35-2.34-17.8-3-28.24-5.61s-20.73-7.12-29.84-10.35c-8.89-3.19-17.8-5.86-28.19-4.57-20.73,2.57-38,19.15-58.08,26.15-43,14.85-143.5,2.88-174.38-40.2"/><path class="cls-3" d="M716.94,100.56c-4.67-4.29,3.9,2.75-1.19-.82a87.75,87.75,0,0,0-36.44-14.83c-21.54-3.66-44-1.41-63.28,7.85a91.65,91.65,0,0,0-12.21,7.08c-14.48,10-27.11,22.86-42.58,29.19-9.58,3.92-21,6.56-33,4.16s-19.34-8.77-29.12-14.12a217,217,0,0,0-28.78-13.44c-2.18-.79-4.34-1.56-6.47-2.23-3.33-1.05-6.62-1.94-9.79-2.62C444.5,98.71,436,98.46,425.25,96s-21.17-7.1-30.37-10.5c-9-3.36-17.95-6.29-28.58-5.12C345.48,82.67,328,99,307.83,106c-43.25,14.75-142.46,2.9-173.54-39.5"/><path class="cls-3" d="M717.37,99.44c-4.56-4.18,3.66,2.57-1.3-.89a84.61,84.61,0,0,0-36-14.48c-21.29-3.46-43.44-1.16-62.38,8a92.44,92.44,0,0,0-12,7c-14.26,9.89-26.63,22.6-41.79,29-9.61,4.09-21.26,7-33.49,4.64s-19.63-9-29.59-14.45A195.15,195.15,0,0,0,471.36,105c-2.23-.77-4.44-1.5-6.62-2.13-3.41-1-6.79-1.78-10-2.37-9.79-1.79-18.41-1.63-29.4-3.94s-21.63-7.07-30.9-10.64c-9.07-3.53-18.12-6.73-29-5.68-20.9,2-38.55,18.16-58.85,25-43.52,14.65-141.41,2.92-172.71-38.81"/><path class="cls-3" d="M717.79,98.32c-4.44-4.07,3.43,2.39-1.4-1A82.2,82.2,0,0,0,680.8,83.22c-21-3.26-42.9-.91-61.49,8.16a90.4,90.4,0,0,0-11.83,7c-14,9.82-26.16,22.33-41,28.9-9.64,4.28-21.49,7.5-34,5.11s-19.9-9.28-30.05-14.77a180,180,0,0,0-30.05-13.26c-2.29-.74-4.55-1.43-6.78-2a101.81,101.81,0,0,0-10.24-2.14c-10-1.5-18.72-.93-30-3.1s-22.09-7-31.43-10.78c-9.17-3.68-18.29-7.16-29.39-6.24-21,1.74-38.85,17.67-59.24,24.49C261.55,119.08,165,107.48,133.45,66.42"/><path class="cls-3" d="M718.22,97.2c-4.33-4,3.18,2.22-1.51-1a79.48,79.48,0,0,0-35.17-13.78c-20.8-3.08-42.34-.67-60.59,8.31a89,89,0,0,0-11.64,6.92c-13.81,9.74-25.69,22.07-40.21,28.76-9.67,4.45-21.72,8-34.48,5.57s-20.19-9.52-30.51-15.09a167.44,167.44,0,0,0-30.69-13.17c-2.34-.71-4.66-1.37-6.94-1.91A93.58,93.58,0,0,0,456,99.87c-10.23-1.23-19-.24-30.56-2.26s-22.53-7-32-10.93c-9.25-3.85-18.44-7.59-29.78-6.79-21.08,1.47-39.16,17.17-59.62,23.94-44.06,14.43-139.34,3-171-37.43"/><path class="cls-3" d="M718.64,96.08c-4.21-3.84,2.94,2-1.61-1.12a77.06,77.06,0,0,0-34.75-13.43c-20.55-2.88-41.79-.41-59.69,8.48a86.16,86.16,0,0,0-11.44,6.86c-13.59,9.66-25.22,21.82-39.43,28.61-9.7,4.64-22,8.42-35,6-13.19-2.41-20.47-9.78-31-15.42A157.43,157.43,0,0,0,474.44,103c-2.39-.67-4.76-1.29-7.09-1.79a89.68,89.68,0,0,0-10.7-1.66c-10.44-.95-19.31.45-31.13-1.43s-23-7-32.49-11.07c-9.34-4-18.61-8-30.19-7.35-21.15,1.21-39.45,16.68-60,23.39-44.33,14.32-138.29,3-170.22-36.74"/><path class="cls-3" d="M719.07,95c-4.1-3.72,2.7,1.88-1.73-1.19A74.52,74.52,0,0,0,683,80.69c-20.3-2.69-41.24-.17-58.79,8.63A85.79,85.79,0,0,0,613,96.12c-13.37,9.59-24.74,21.58-38.64,28.48-9.73,4.82-22.18,8.88-35.47,6.51-13.53-2.41-20.76-10-31.44-15.75a149.54,149.54,0,0,0-32-13c-2.44-.64-4.87-1.23-7.25-1.68a87.8,87.8,0,0,0-10.92-1.43c-10.66-.66-19.62,1.15-31.71-.58s-23.44-7-33-11.22C383.13,83.27,373.8,79,362,79.56c-21.24,1-39.75,16.19-60.39,22.83-44.59,14.22-137.25,3-169.39-36"/><path class="cls-3" d="M719.49,93.84c-4-3.61,2.46,1.71-1.83-1.27-10-6.93-20.39-11-33.89-12.73-20.06-2.5-40.69.08-57.9,8.79a84.39,84.39,0,0,0-11.06,6.75c-13.14,9.51-24.26,21.34-37.86,28.33-9.74,5-22.4,9.35-36,7-13.86-2.42-21-10.28-31.9-16.07a142.8,142.8,0,0,0-32.59-12.9c-2.5-.61-5-1.16-7.41-1.57A84.51,84.51,0,0,0,457.94,99c-10.88-.38-19.92,1.84-32.29.25s-23.87-6.94-33.55-11.36c-9.51-4.38-18.92-8.86-31-8.46-21.31.7-40,15.7-60.77,22.28-44.86,14.12-136.2,3-168.56-35.35"/><path class="cls-3" d="M719.92,92.72c-3.88-3.49,2.22,1.53-1.94-1.34-9.85-6.82-20-10.81-33.47-12.38-19.81-2.31-40.14.33-57,8.94a81.8,81.8,0,0,0-10.88,6.7c-12.93,9.41-23.78,21.1-37.07,28.18-9.77,5.21-22.63,9.82-36.45,7.45-14.2-2.42-21.33-10.52-32.36-16.39a137,137,0,0,0-33.24-12.81c-2.55-.58-5.07-1.1-7.56-1.47a83.2,83.2,0,0,0-11.37-.94c-11.1-.1-20.23,2.52-32.87,1.09s-24.33-6.92-34.08-11.51c-9.6-4.56-19.09-9.28-31.39-9-21.4.46-40.35,15.21-61.16,21.73C254,115,163.93,104,131.37,66.29"/><path class="cls-3" d="M720.35,91.6c-3.77-3.38,2,1.36-2.05-1.42-9.7-6.7-19.65-10.57-33-12-19.56-2.12-39.58.58-56.09,9.11a78.7,78.7,0,0,0-10.69,6.64c-12.71,9.33-23.3,20.87-36.28,28-9.79,5.4-22.86,10.28-37,7.92-14.53-2.43-21.61-10.78-32.82-16.72a132.24,132.24,0,0,0-33.87-12.73c-2.6-.55-5.18-1-7.72-1.35a80.67,80.67,0,0,0-11.6-.7c-11.31.18-20.53,3.21-33.44,1.92S401,93.39,391.17,88.63c-9.68-4.73-19.24-9.69-31.78-9.57-21.48.2-40.65,14.71-61.55,21.17-45.4,13.91-134.12,3.06-166.89-34"/><path class="cls-3" d="M720.77,90.47c-3.65-3.25,1.74,1.2-2.15-1.48C709.07,82.4,699.33,78.65,686,77.31c-19.31-1.94-39,.83-55.19,9.26a77.56,77.56,0,0,0-10.49,6.59c-12.49,9.25-22.82,20.65-35.5,27.89-9.81,5.61-23.09,10.75-37.44,8.39-14.87-2.44-21.9-11-33.29-17a127.68,127.68,0,0,0-34.5-12.64c-2.66-.52-5.29-1-7.88-1.24a80,80,0,0,0-11.83-.47c-11.53.48-20.83,3.91-34,2.76-13-1.13-25.23-6.86-35.14-11.79S371.3,78.91,358.52,78.89c-21.56,0-40.94,14.22-61.93,20.62-45.66,13.8-133.07,3.08-166.06-33.27"/><path class="cls-3" d="M721.2,89.35c-3.54-3.14,1.49,1-2.27-1.56-9.38-6.47-18.91-10.1-32.19-11.33-19.07-1.75-38.48,1.08-54.3,9.42a77.46,77.46,0,0,0-10.3,6.53c-12.27,9.18-22.33,20.44-34.71,27.76-9.83,5.81-23.32,11.2-37.94,8.85-15.2-2.44-22.18-11.27-33.75-17.36A124,124,0,0,0,480.6,99.11c-2.7-.49-5.39-.89-8-1.13a77.86,77.86,0,0,0-12.05-.23c-11.75.76-21.14,4.59-34.6,3.6-13.29-1-25.68-6.84-35.68-11.94s-19.56-10.52-32.58-10.68c-21.65-.28-41.25,13.72-62.32,20.06-45.93,13.7-132,3.1-165.22-32.58"/><path class="cls-3" d="M721.62,88.23c-3.42-3,1.25.86-2.37-1.64-9.23-6.35-18.54-9.87-31.77-11-18.81-1.57-37.93,1.33-53.4,9.57A76,76,0,0,0,624,91.67c-12,9.11-21.84,20.22-33.92,27.61-9.85,6-23.55,11.67-38.43,9.33-15.53-2.45-22.47-11.53-34.21-17.69a120.83,120.83,0,0,0-35.78-12.46c-2.76-.46-5.5-.82-8.19-1a75.07,75.07,0,0,0-12.28,0c-12,1-21.44,5.28-35.17,4.43-13.54-.83-26.13-6.81-36.21-12.08s-19.73-10.93-33-11.24c-21.72-.51-41.54,13.23-62.7,19.51-46.2,13.6-131,3.12-164.39-31.88"/><path class="cls-3" d="M722.05,87.11c-3.31-2.91,1,.68-2.48-1.71-9.08-6.24-18.17-9.64-31.35-10.63-18.56-1.39-37.37,1.59-52.5,9.73a75,75,0,0,0-9.92,6.43c-11.82,9-21.34,20-33.14,27.46-9.86,6.24-23.77,12.14-38.92,9.8-15.86-2.45-22.74-11.78-34.67-18A118.49,118.49,0,0,0,482.66,97.8c-2.81-.42-5.61-.75-8.35-.91a75.71,75.71,0,0,0-12.5.26c-12.19,1.33-21.74,6-35.76,5.27-13.78-.69-26.58-6.79-36.74-12.23s-19.89-11.34-33.38-11.8c-21.81-.74-41.84,12.74-63.08,19-46.47,13.49-130,3.14-163.57-31.19"/><path class="cls-3" d="M722.47,86c-3.19-2.8.77.51-2.58-1.79C711,78.09,702.09,74.79,689,73.93c-18.32-1.21-36.83,1.83-51.61,9.89a72.48,72.48,0,0,0-9.73,6.37c-11.59,9-20.84,19.8-32.35,27.32-9.87,6.45-24,12.6-39.41,10.26-16.2-2.46-23-12-35.14-18.34a116,116,0,0,0-37.05-12.28c-2.86-.39-5.71-.68-8.5-.8a74.48,74.48,0,0,0-12.73.49c-12.4,1.62-22,6.66-36.33,6.11-14-.54-27-6.76-37.27-12.37S368.8,78.84,355.07,78.23c-21.9-1-42.14,12.24-63.47,18.4C244.86,110,162.7,99.79,128.87,66.14"/><path class="cls-3" d="M722.9,84.87c-3.08-2.68.53.34-2.69-1.86-8.78-6-17.44-9.18-30.5-9.93-18.07-1-36.27,2.09-50.71,10a72,72,0,0,0-9.54,6.31c-11.37,8.88-20.34,19.61-31.56,27.18-9.88,6.67-24.23,13.07-39.91,10.74-16.53-2.47-23.31-12.28-35.59-18.67-11-5.74-24.2-10.51-37.69-12.19-2.92-.37-5.82-.61-8.66-.69a74.46,74.46,0,0,0-13,.73c-12.61,1.91-22.34,7.35-36.9,6.95-14.29-.4-27.48-6.74-37.8-12.51S368.17,78.82,354.2,78.06c-22-1.2-42.44,11.75-63.85,17.85-47,13.29-127.86,3.18-161.9-29.8"/><path class="cls-3" d="M723.32,83.75c-3-2.57.29.17-2.8-1.94-8.62-5.88-17.06-9-30.07-9.57-17.81-.86-35.72,2.34-49.81,10.2a70.08,70.08,0,0,0-9.34,6.26c-11.15,8.8-19.84,19.41-30.78,27-9.89,6.89-24.46,13.53-40.4,11.2-16.87-2.47-23.6-12.53-36.06-19a112.32,112.32,0,0,0-38.32-12.11c-3-.33-5.93-.54-8.82-.57a73.3,73.3,0,0,0-13.18,1c-12.83,2.19-22.65,8-37.49,7.78-14.53-.25-27.93-6.71-38.33-12.65S367.54,78.81,353.34,77.9c-22.07-1.43-42.74,11.25-64.24,17.3C241.83,108.37,162.28,98.39,128,66.08"/><path class="cls-3" d="M723.75,82.63c-2.85-2.45,0,0-2.91-2-8.47-5.77-16.69-8.73-29.65-9.23C673.63,70.71,656,74,642.28,81.75A68.62,68.62,0,0,0,633.13,88c-10.93,8.73-19.33,19.21-30,26.89-9.89,7.12-24.7,14-40.9,11.67-17.21-2.44-23.88-12.78-36.52-19.31-11.3-5.85-25-10.62-39-12a88.08,88.08,0,0,0-9-.46,73.5,73.5,0,0,0-13.41,1.2c-13,2.49-22.95,8.73-38.06,8.62-14.79-.1-28.38-6.68-38.86-12.79s-20.54-13-35-14c-22.15-1.65-43,10.76-64.62,16.75-47.54,13.07-125.77,3.21-160.23-28.42"/><path class="cls-3" d="M724.18,81.51c-2.74-2.34-.2-.17-3-2.09-8.32-5.65-16.32-8.5-29.22-8.87-17.32-.51-34.62,2.85-48,10.52a67.11,67.11,0,0,0-9,6.15c-10.7,8.65-18.82,19-29.2,26.74-9.89,7.36-24.93,14.5-41.39,12.15-17.55-2.45-24.17-13-37-19.64-11.44-5.91-25.32-10.67-39.59-11.93a88,88,0,0,0-9.13-.36A73.47,73.47,0,0,0,465,95.63c-13.26,2.77-23.26,9.41-38.64,9.46-15,0-28.83-6.66-39.4-12.94s-20.7-13.36-35.38-14.59c-22.24-1.86-43.33,10.27-65,16.2C238.79,106.72,161.87,97,127.2,66"/><path class="cls-3" d="M724.6,80.39c-2.62-2.22-.44-.34-3.12-2.16-8.17-5.54-16-8.28-28.8-8.53-17.07-.33-34.06,3.11-47.12,10.68a66.59,66.59,0,0,0-8.77,6.1c-10.47,8.57-18.31,18.83-28.42,26.6-9.87,7.59-25.15,15-41.88,12.61-17.88-2.45-24.45-13.28-37.44-20-11.59-6-25.71-10.72-40.23-11.84a87.9,87.9,0,0,0-9.29-.25,72.9,72.9,0,0,0-13.86,1.69c-13.48,3.06-23.56,10.1-39.22,10.29-15.29.19-29.28-6.62-39.92-13.08S365.66,78.79,350.75,77.4c-22.33-2.09-43.64,9.77-65.4,15.64-48.08,12.86-123.68,3.25-158.57-27"/><path class="cls-3" d="M725,79.27c-2.51-2.11-.68-.52-3.23-2.24-8-5.41-15.59-8-28.38-8.17-16.82-.16-33.5,3.36-46.22,10.83a65.34,65.34,0,0,0-8.58,6c-10.25,8.51-17.79,18.65-27.63,26.46s-25.38,15.43-42.37,13.08c-18.22-2.46-24.74-13.53-37.91-20.29C519,99,504.63,94.21,489.84,93.23a87.73,87.73,0,0,0-9.44-.13A72.46,72.46,0,0,0,466.31,95c-13.69,3.34-23.86,10.78-39.79,11.13-15.54.33-29.73-6.6-40.45-13.23s-21-14.14-36.19-15.7c-22.42-2.3-43.93,9.28-65.78,15.09C235.76,105.08,161.46,95.59,126.37,66"/><path class="cls-3" d="M725.45,78.14c-2.39-2-.92-.68-3.34-2.3-7.86-5.3-15.21-7.83-28-7.83-16.56,0-32.94,3.62-45.32,11a64,64,0,0,0-8.38,6c-10,8.43-17.27,18.46-26.85,26.32-9.84,8.07-25.61,15.89-42.87,13.54-18.55-2.46-25-13.77-38.37-20.61-11.86-6.08-26.46-10.82-41.5-11.66a85.44,85.44,0,0,0-9.6,0A73.52,73.52,0,0,0,467,94.72c-13.91,3.64-24.17,11.45-40.37,12-15.8.45-30.19-6.57-41-13.37S364.4,78.78,349,77.07c-22.51-2.52-44.23,8.78-66.17,14.53C234.24,104.25,161.25,94.89,126,66"/><path class="cls-3" d="M725.88,77a21,21,0,0,0-3.45-2.38c-7.71-5.18-14.84-7.61-27.52-7.47-16.32.17-32.4,3.87-44.43,11.14a62.5,62.5,0,0,0-8.19,5.94c-9.79,8.37-16.75,18.28-26.06,26.17-9.82,8.32-25.84,16.35-43.36,14C554,122,547.56,110.41,534,103.5c-12-6.14-26.83-10.9-42.13-11.57a85.7,85.7,0,0,0-9.76.09,73.22,73.22,0,0,0-14.54,2.4c-14.12,3.93-24.47,12.13-41,12.8-16,.6-30.63-6.54-41.51-13.51s-21.37-14.93-37-16.81c-22.6-2.73-44.53,8.3-66.55,14-48.88,12.55-120.55,3.31-156.07-24.95"/><path class="cls-3" d="M726.3,75.9a23.34,23.34,0,0,0-3.55-2.45c-7.56-5.06-14.48-7.39-27.1-7.13-16.07.34-31.84,4.13-43.53,11.31a61.86,61.86,0,0,0-8,5.88c-9.56,8.29-16.21,18.09-25.27,26-9.79,8.58-26.07,16.82-43.86,14.49-19.22-2.48-25.58-14.28-39.29-21.26-12.15-6.19-27.22-11-42.78-11.48a85.92,85.92,0,0,0-9.91.19,74.19,74.19,0,0,0-14.76,2.65c-14.34,4.21-24.78,12.82-41.53,13.64-16.3.75-31.08-6.52-42.05-13.66s-21.53-15.31-37.38-17.37c-22.7-2.93-44.83,7.81-66.93,13.43C231.21,102.6,160.84,93.49,125.12,65.9"/><path class="cls-3" d="M726.73,74.78a29.46,29.46,0,0,0-3.66-2.53c-7.41-4.94-14.11-7.17-26.68-6.77-15.82.5-31.28,4.38-42.63,11.46A60.51,60.51,0,0,0,646,82.76c-9.34,8.23-15.68,17.92-24.48,25.89-9.76,8.83-26.3,17.28-44.35,14.95-19.55-2.48-25.87-14.52-39.76-21.58-12.29-6.25-27.59-11-43.41-11.4a88.5,88.5,0,0,0-10.07.31,74.15,74.15,0,0,0-15,2.89c-14.55,4.5-25.08,13.51-42.1,14.47-16.55.9-31.54-6.49-42.58-13.8s-21.7-15.7-37.78-17.92c-22.79-3.15-45.13,7.31-67.32,12.87C229.69,101.78,160.64,92.8,124.7,65.87"/><path class="cls-3" d="M727.16,73.66a36.8,36.8,0,0,0-3.77-2.61c-7.26-4.81-13.74-7-26.25-6.42-15.58.67-30.73,4.64-41.74,11.62A59,59,0,0,0,647.78,82c-9.11,8.15-15.14,17.74-23.7,25.74-9.71,9.1-26.52,17.75-44.84,15.43-19.88-2.49-26.15-14.78-40.22-21.91-12.43-6.31-28-11-44-11.31a86.62,86.62,0,0,0-10.23.42,75.41,75.41,0,0,0-15.22,3.12c-14.75,4.83-25.38,14.21-42.68,15.32-16.79,1-32-6.47-43.11-14S361.87,78.8,345.56,76.4c-22.88-3.36-45.42,6.82-67.7,12.32C228.17,101,160.43,92.1,124.28,65.85"/><path class="cls-3" d="M727.58,72.54a42.55,42.55,0,0,0-3.88-2.68c-7.11-4.7-13.37-6.74-25.82-6.07-15.33.82-30.17,4.9-40.84,11.77a58.42,58.42,0,0,0-7.42,5.72c-8.9,8.07-14.61,17.55-22.92,25.6-9.67,9.36-26.75,18.21-45.33,15.89-20.22-2.5-26.44-15-40.69-22.23A102.54,102.54,0,0,0,496,89.32a87,87,0,0,0-10.38.53,75.25,75.25,0,0,0-15.44,3.36c-15,5.11-25.69,14.9-43.26,16.15-17.05,1.2-32.43-6.44-43.64-14.09s-22-16.47-38.58-19c-23-3.57-45.73,6.32-68.09,11.76-50,12.13-116.38,3.4-152.74-22.18"/><path class="cls-3" d="M728,71.42c-1.72-1.3-2.38-1.7-4-2.76-7-4.57-13-6.53-25.4-5.72-15.08,1-29.6,5.18-39.94,11.94a55.9,55.9,0,0,0-7.23,5.66c-8.67,8-14.06,17.37-22.13,25.45-9.61,9.63-27,18.67-45.83,16.36-20.55-2.5-26.72-15.28-41.14-22.56A102.36,102.36,0,0,0,497,88.67a83.56,83.56,0,0,0-10.54.64,74.62,74.62,0,0,0-15.67,3.6c-15.18,5.39-26,15.58-43.83,17-17.3,1.34-32.89-6.42-44.17-14.24s-22.21-16.85-39-19.59c-23.07-3.77-46,5.83-68.47,11.21C225.14,99.31,160,90.7,123.45,65.8"/><path class="cls-3" d="M728.43,70.3c-1.6-1.18-2.62-1.87-4.09-2.83-6.82-4.44-12.64-6.35-25-5.37-14.84,1.11-29,5.43-39,12.09a54,54,0,0,0-7.05,5.61c-8.44,7.91-13.51,17.19-21.34,25.31-9.55,9.89-27.2,19.13-46.32,16.83-20.89-2.51-27-15.53-41.61-22.89a102.27,102.27,0,0,0-45.95-11,85.79,85.79,0,0,0-10.69.76,75.63,75.63,0,0,0-15.9,3.83c-15.4,5.68-26.3,16.28-44.42,17.83-17.55,1.49-33.33-6.39-44.7-14.38S360,78.82,343,75.9c-23.18-4-46.32,5.34-68.86,10.66C223.62,98.48,159.81,90,123,65.77"/><path class="cls-3" d="M728.86,69.18c-8.89-6.39-14-9.24-28.75-7.93S671.61,66.93,662,73.5C649.06,82.29,644,94,634.56,104.22s-27.43,19.6-46.82,17.3c-21.22-2.52-27.29-15.78-42.07-23.21a102,102,0,0,0-46.59-11,80.84,80.84,0,0,0-27,4.94c-15.61,6-26.6,17-45,18.66-17.8,1.64-33.78-6.36-45.23-14.52s-22.56-17.61-39.79-20.7c-23.27-4.18-46.61,4.84-69.24,10.11C222.1,97.66,159.61,89.3,122.62,65.74"/></g><g class="cls-4"><path class="cls-5" d="M761.24,40.58c-5.65,5.54-67.54,36.7-73.8,41.3a113.27,113.27,0,0,1-39.26,18.6c-28,7.11-58.34,3-83.52-13.73C548.49,76,533.9,60.53,515.75,56.11c-26.35-6.41-52,12-74.62,29.29s-48.89,35-74.94,27c-18.85-5.74-33.39-24-51.78-31.55-38.49-15.83-147-2.67-174.45,46.93"/><path class="cls-6" d="M760.33,42.62c-3.66,3.49-27.09,15.5-46.53,25.36-13.53,6.82-25.49,12.53-28.2,14.23-12.38,7.78-25.26,14.23-39,17.56-2.88.7-5.79,1.29-8.71,1.77a108,108,0,0,1-55.5-5,100.15,100.15,0,0,1-18.91-9.42c-8.77-5.57-17.1-12.53-25.78-18.46-7.31-5-14.85-9.25-23.11-11.28-25-6.13-49.26,9.38-71.08,25.5l-3.36,2.5c-22.64,16.95-48.58,34.37-74.63,27.2-8.21-2.27-15.79-6.77-23.15-11.92-10.15-7.11-20.16-15.09-31.27-19.32-38.32-14.57-144.31-2.14-171.56,46.48"/><path class="cls-7" d="M759.42,44.66c-4,3.72-27.9,15.58-47.28,24.86-13.5,6.46-25.51,11.49-28.38,13-12.62,6.71-25.1,13.38-38.81,16.53-2.87.65-5.77,1.21-8.68,1.68-18.48,3-37.59,1.89-55.2-4.35a99.24,99.24,0,0,1-18.83-8.92c-8.77-5.31-17.1-12-25.8-17.76-7.31-4.85-14.84-9-23.08-11.09-24.86-6.17-49.05,8.52-70.88,24.27l-3.37,2.44c-22.63,16.62-48.3,33.81-74.32,27.36-8.52-2.11-16.52-6.51-24.24-11.71-10.63-7.18-21.24-15.14-32.82-19.21-38.1-13.38-141.63-1.6-168.66,46"/><path class="cls-8" d="M758.51,46.71c-4.31,3.93-28.72,15.64-48,24.35C697,77.15,685,81.5,681.92,82.87,669.16,88.55,657,95.39,643.34,98.36c-2.87.62-5.75,1.15-8.65,1.61-18.4,2.91-37.42,2.14-54.91-3.71A99.65,99.65,0,0,1,561,87.84c-8.75-5.06-17.11-11.46-25.81-17.06-7.32-4.71-14.85-8.83-23.06-10.89-24.76-6.21-48.85,7.65-70.68,23l-3.38,2.39c-22.63,16.28-48,33.29-74,27.53-8.84-2-17.25-6.26-25.33-11.51-11.11-7.24-22.32-15.2-34.37-19.1C266.56,70,165.44,81.16,138.62,127.81"/><path class="cls-9" d="M757.59,48.75c-4.62,4.16-29.53,15.7-48.77,23.86-13.46,5.7-25.27,10-28.74,10.59-11.65,7.12-24.79,11.66-38.36,14.45-2.85.58-5.73,1.09-8.62,1.53-18.31,2.84-37.23,2.35-54.61-3.05a101,101,0,0,1-18.68-7.93c-8.73-4.8-17.1-10.93-25.82-16.35-7.32-4.57-14.84-8.62-23-10.7-24.67-6.25-48.65,6.78-70.5,21.79l-3.38,2.34c-22.62,15.94-47.79,32.79-73.69,27.7-9.17-1.8-18-6-26.43-11.31-11.59-7.31-23.38-15.25-35.92-19-37.52-11.19-136.28-.54-162.87,45.13"/><path class="cls-10" d="M756.68,50.79c-4.94,4.38-30.35,15.76-49.52,23.36-13.44,5.33-25.23,9.16-28.92,9.38-11.55,6.69-24.63,10.8-38.13,13.41-2.85.54-5.72,1-8.6,1.46-18.22,2.75-37,2.59-54.31-2.41a101.48,101.48,0,0,1-18.6-7.42c-8.72-4.55-17.1-10.4-25.83-15.66-7.33-4.43-14.84-8.41-23-10.5-24.57-6.29-48.45,5.91-70.3,20.56-1.13.75-2.26,1.52-3.38,2.28-22.63,15.6-47.57,32.33-73.39,27.87-9.5-1.64-18.72-5.75-27.52-11.11-12.06-7.37-24.43-15.31-37.46-18.88-37.18-10.19-133.61,0-160,44.68"/><path class="cls-11" d="M755.77,52.84c-5.27,4.59-31.18,15.81-50.27,22.85-13.43,5-25.18,8.29-29.1,8.17-11.46,6.26-24.46,10-37.91,12.38-2.83.5-5.69,1-8.56,1.37-18.15,2.68-36.88,2.84-54-1.76a100.43,100.43,0,0,1-18.52-6.92c-8.71-4.29-17.11-9.86-25.85-15-7.33-4.29-14.84-8.21-23-10.31-24.48-6.33-48.25,5-70.11,19.32-1.14.74-2.27,1.48-3.39,2.24-22.63,15.26-47.35,31.89-73.08,28-9.84-1.48-19.45-5.5-28.61-10.91-12.54-7.43-25.48-15.38-39-18.77-36.81-9.24-130.93.53-157.09,44.23"/><path class="cls-12" d="M754.86,54.88c-5.59,4.82-32,15.87-51,22.36-13.41,4.57-25.14,7.4-29.28,7C663.2,90,650.25,93.31,636.87,95.53c-2.82.47-5.67.89-8.53,1.3-18.06,2.6-36.71,3.07-53.73-1.11a100.72,100.72,0,0,1-18.43-6.43c-8.7-4-17.11-9.32-25.86-14.25-7.34-4.15-14.84-8-22.94-10.11-24.37-6.37-48,4.22-69.92,18.08-1.13.73-2.27,1.45-3.39,2.19-22.66,14.87-47.15,31.48-72.77,28.19-10.18-1.3-20.18-5.24-29.7-10.7-13-7.5-26.51-15.45-40.56-18.67-36.41-8.33-128.25,1.07-154.2,43.79"/><path class="cls-13" d="M753.94,56.92c-5.91,5-32.83,15.92-51.76,21.86-13.4,4.2-25.09,6.53-29.46,5.74-11.26,5.39-24.15,8.26-37.46,10.3-2.82.43-5.66.83-8.5,1.22-18,2.53-36.54,3.32-53.44-.46A101.45,101.45,0,0,1,555,89.66c-8.69-3.78-17.11-8.79-25.88-13.55-7.34-4-14.84-7.79-22.9-9.92-24.28-6.41-47.82,3.36-69.73,16.85-1.14.7-2.28,1.41-3.4,2.13-22.65,14.53-46.95,31.1-72.46,28.36-10.52-1.13-20.91-5-30.79-10.5-13.5-7.56-27.53-15.52-42.11-18.56-36-7.49-125.58,1.6-151.3,43.34"/><path class="cls-14" d="M753,59c-6.23,5.26-33.66,16-52.52,21.35-13.38,3.82-25,5.65-29.63,4.53-11.16,5-24,7.41-37.24,9.26-2.8.4-5.63.76-8.47,1.15-17.89,2.45-36.36,3.56-53.14.18A102.48,102.48,0,0,1,553.75,90c-8.67-3.51-17.1-8.26-25.89-12.85C520.52,73.3,513,69.6,505,67.45c-24.18-6.45-47.61,2.49-69.53,15.61-1.15.69-2.29,1.37-3.41,2.08-22.65,14.19-46.76,30.74-72.14,28.53-10.88-1-21.65-4.73-31.9-10.3-14-7.63-28.54-15.61-43.65-18.45-35.54-6.69-122.9,2.13-148.41,42.89"/><path class="cls-15" d="M752.12,61c-6.55,5.48-34.49,16-53.27,20.85-13.36,3.44-25,4.77-29.81,3.32-11.06,4.52-23.83,6.55-37,8.23-2.8.35-5.62.69-8.45,1.06-17.81,2.38-36.18,3.81-52.84.84a102.89,102.89,0,0,1-18.2-4.93c-8.67-3.25-17.11-7.72-25.9-12.14-7.35-3.73-14.83-7.37-22.84-9.53-24.09-6.49-47.42,1.63-69.35,14.37-1.14.67-2.28,1.34-3.41,2-22.65,13.84-46.58,30.41-71.83,28.7-11.22-.76-22.38-4.48-33-10.1C311.78,96,296.67,88,281,85.37,245.94,79.44,160.8,88,135.51,127.81"/><path class="cls-16" d="M751.2,63.05c-6.87,5.71-35.31,16.08-54,20.36-13.35,3-25,3.89-30,2.1-11,4.09-23.67,5.69-36.79,7.19-2.79.32-5.6.63-8.41,1-17.73,2.3-36,4-52.55,1.48a104.37,104.37,0,0,1-18.12-4.42c-8.66-3-17.11-7.19-25.92-11.45-7.35-3.59-14.83-7.15-22.81-9.33-24-6.53-47.21.77-69.15,13.14-1.15.65-2.29,1.3-3.42,2-22.65,13.5-46.4,30.1-71.52,28.87-11.58-.57-23.11-4.23-34.08-9.9-14.92-7.75-30.55-15.79-46.74-18.23-34.62-5.22-117.55,3.2-142.62,42"/><path class="cls-17" d="M750.29,65.1C743.1,71,714.14,81.22,695.53,85c-13.34,2.68-24.9,3-30.17.89-10.87,3.65-23.51,4.84-36.56,6.15-2.78.28-5.58.56-8.39.91-17.64,2.23-35.84,4.3-52.25,2.14a105.5,105.5,0,0,1-18-3.93c-8.65-2.74-17.11-6.65-25.93-10.75-7.36-3.44-14.83-6.94-22.78-9.13-23.9-6.57-47-.1-69,11.9-1.15.63-2.3,1.26-3.43,1.92-22.65,13.16-46.23,29.8-71.21,29-11.93-.36-23.84-4-35.17-9.69-15.4-7.82-31.55-15.9-48.29-18.12C240.21,81.73,159.48,90,134.62,127.81"/><path class="cls-18" d="M749.38,67.14c-7.52,6.15-37,16.17-55.51,19.35-13.33,2.3-24.86,2.14-30.36-.32-10.76,3.22-23.35,4-36.33,5.12-2.77.24-5.56.49-8.36.83-17.55,2.15-35.67,4.54-52,2.78a106.64,106.64,0,0,1-18-3.43c-8.64-2.47-17.12-6.11-25.95-10-7.36-3.31-14.82-6.74-22.75-8.94-23.79-6.62-46.81-1-68.76,10.66-1.16.61-2.31,1.23-3.44,1.87-22.64,12.82-46.06,29.53-70.9,29.2-12.28-.16-24.57-3.71-36.26-9.49-15.88-7.88-32.55-16-49.84-18-33.65-3.89-112.2,4.26-136.83,41.09"/><path class="cls-19" d="M748.47,69.18C740.63,75.55,710.65,85.4,692.21,88c-13.33,1.9-24.81,1.25-30.54-1.54-10.66,2.79-23.19,3.13-36.1,4.08-2.76.2-5.55.43-8.33.76-17.47,2.07-35.5,4.78-51.66,3.42a108.36,108.36,0,0,1-17.89-2.92,183,183,0,0,1-26-9.35C514.37,79.33,506.91,76,499,73.75c-23.7-6.66-46.61-1.83-68.58,9.43-1.15.59-2.31,1.19-3.44,1.81-22.64,12.48-45.88,29.27-70.58,29.37-12.64,0-25.31-3.46-37.36-9.28-16.35-8-33.54-16.16-51.39-17.92-33.15-3.27-109.52,4.8-133.94,40.65"/><path class="cls-20" d="M747.55,71.23c-8.15,6.59-38.65,16.26-57,18.35-13.32,1.52-24.77.37-30.72-2.75-10.56,2.35-23,2.27-35.88,3-2.75.17-5.52.37-8.3.68-17.39,2-35.33,5-51.36,4.08a110.28,110.28,0,0,1-17.81-2.43,170,170,0,0,1-26-8.64c-7.37-3-14.82-6.32-22.69-8.55-23.6-6.7-46.4-2.69-68.38,8.19-1.16.57-2.31,1.15-3.45,1.76-22.64,12.14-45.71,29-70.27,29.54-13,.27-26-3.21-38.45-9.08-16.83-8-34.53-16.29-52.93-17.81-32.65-2.68-106.85,5.34-131,40.2"/><path class="cls-21" d="M746.64,73.27c-8.48,6.81-39.49,16.3-57.75,17.85-13.31,1.14-24.72-.5-30.9-4-10.46,1.92-22.87,1.41-35.65,2-2.75.13-5.51.3-8.27.61C596.76,91.68,578.9,95,563,94.49a111.2,111.2,0,0,1-17.72-1.93,152.75,152.75,0,0,1-26-7.94c-7.39-2.87-14.83-6.1-22.67-8.35-23.5-6.74-46.2-3.56-68.18,7-1.16.55-2.32,1.11-3.46,1.71-22.63,11.79-45.54,28.78-70,29.7-13.35.5-26.77-3-39.54-8.88C298.17,97.68,280,89.31,261,88.06c-32.15-2.12-104.17,5.87-128.16,39.75"/><path class="cls-22" d="M745.73,75.31c-8.8,7-40.33,16.34-58.5,17.36-13.31.74-24.68-1.39-31.08-5.18-10.37,1.49-22.72.55-35.43,1-2.73.08-5.49.23-8.24.52-17.22,1.84-35,5.53-50.78,5.37a113.56,113.56,0,0,1-17.64-1.42,143.07,143.07,0,0,1-26-7.24c-7.39-2.73-14.82-5.9-22.63-8.16-23.41-6.78-46-4.42-68,5.72-1.16.53-2.32,1.08-3.46,1.66-22.63,11.45-45.37,28.56-69.65,29.86-13.71.74-27.5-2.7-40.63-8.67-17.79-8.15-36.5-16.61-56-17.59-31.63-1.59-101.5,6.4-125.26,39.3"/><path class="cls-23" d="M744.82,77.36c-9.13,7.25-41.17,16.37-59.25,16.85-13.3.35-24.63-2.26-31.26-6.4-10.27,1.06-22.56-.3-35.2-.06-2.73,0-5.47.17-8.22.45-17.13,1.76-34.82,5.77-50.48,6a116.34,116.34,0,0,1-17.56-.93,131.82,131.82,0,0,1-26-6.54c-7.4-2.59-14.82-5.69-22.61-8-23.31-6.82-45.8-5.29-67.8,4.48-1.17.52-2.33,1-3.47,1.61-22.62,11.11-45.2,28.36-69.34,30-14.06,1-28.23-2.44-41.72-8.47C293.64,98.23,274.41,89.65,254.32,89,223.2,87.88,155.5,95.89,132,127.81"/><path class="cls-24" d="M743.9,79.4c-9.44,7.48-42,16.41-60,16.35-13.3,0-24.59-3.14-31.44-7.61-10.17.63-22.4-1.15-35-1.1-2.72,0-5.45.11-8.18.37-17.06,1.69-34.66,6-50.19,6.67a118.39,118.39,0,0,1-17.49-.43,123.56,123.56,0,0,1-26-5.83c-7.4-2.45-14.82-5.48-22.57-7.78-23.21-6.85-45.6-6.15-67.61,3.26-1.17.49-2.33,1-3.48,1.55-22.62,10.77-45,28.16-69,30.2-14.42,1.22-29-2.19-42.82-8.27-18.74-8.27-38.47-17-59.13-17.37-30.61-.59-96.14,7.47-119.47,38.4"/><path class="cls-25" d="M743,81.44c-9.76,7.7-42.85,16.44-60.75,15.86-13.28-.44-24.53-4-31.61-8.83-10.07.2-22.24-2-34.76-2.14a79.5,79.5,0,0,0-8.15.3c-17,1.61-34.48,6.27-49.89,7.31a122,122,0,0,1-17.41.08,116.17,116.17,0,0,1-26-5.14c-7.41-2.31-14.82-5.27-22.55-7.58-23.11-6.89-45.4-7-67.42,2-1.17.48-2.33,1-3.48,1.5-22.61,10.44-44.85,28-68.71,30.37-14.77,1.48-29.7-1.94-43.91-8.07-19.22-8.34-39.46-17.19-60.67-17.26-30.11-.11-93.47,8-116.59,38"/><path class="cls-26" d="M742.08,83.49C732,91.41,698.39,100,680.58,98.84c-13.28-.83-24.49-4.9-31.79-10-10-.24-22.09-2.87-34.53-3.17a71.32,71.32,0,0,0-8.13.21c-16.88,1.54-34.31,6.53-49.59,8a126.05,126.05,0,0,1-17.33.57A109,109,0,0,1,513.16,90c-7.41-2.17-14.81-5.06-22.51-7.39-23-6.93-45.21-7.88-67.23.78-1.17.46-2.34.94-3.49,1.45-22.61,10.1-44.67,27.79-68.4,30.53-15.12,1.75-30.43-1.68-45-7.86-19.69-8.4-40.44-17.41-62.21-17.16-29.6.35-90.79,8.54-113.69,37.51"/><path class="cls-27" d="M741.16,85.53c-10.4,8.14-44.52,16.49-62.24,14.85-13.27-1.23-24.44-5.78-32-11.25-9.88-.67-21.93-3.73-34.31-4.21a64.29,64.29,0,0,0-8.09.14c-16.8,1.46-34.15,6.78-49.3,8.61A129.06,129.06,0,0,1,538,94.74,102.3,102.3,0,0,1,511.94,91c-7.42-2-14.82-4.85-22.49-7.19-22.92-7-45-8.75-67-.45-1.18.44-2.35.89-3.5,1.39-22.6,9.76-44.49,27.62-68.09,30.7-15.47,2-31.16-1.42-46.1-7.66-20.17-8.46-41.42-17.65-63.76-17-29.09.78-88.12,9.07-110.8,37.06"/><path class="cls-28" d="M740.25,87.57c-10.73,8.36-45.36,16.52-63,14.36a68,68,0,0,1-32.15-12.47c-9.78-1.11-21.77-4.59-34.08-5.25a60.39,60.39,0,0,0-8.07.06c-16.72,1.39-34,7-49,9.27a134.11,134.11,0,0,1-17.17,1.57,97.77,97.77,0,0,1-26.08-3c-7.42-1.89-14.81-4.65-22.45-7-22.83-7-44.81-9.62-66.85-1.69-1.17.42-2.34.86-3.5,1.34-22.6,9.43-44.3,27.46-67.78,30.87-15.82,2.3-31.89-1.17-47.19-7.46-20.64-8.53-42.41-17.9-65.31-16.94-28.58,1.21-85.44,9.6-107.9,36.61"/><path class="cls-29" d="M739.34,89.62c-11.05,8.58-46.2,16.53-63.74,13.85a71.07,71.07,0,0,1-32.33-13.68c-9.68-1.54-21.61-5.45-33.86-6.29a55.32,55.32,0,0,0-8,0c-16.63,1.31-33.8,7.29-48.71,9.91a137.58,137.58,0,0,1-17.09,2.07,92.42,92.42,0,0,1-26.08-2.33c-7.43-1.75-14.82-4.43-22.43-6.8-22.73-7-44.61-10.49-66.65-2.93-1.18.41-2.35.83-3.51,1.29-22.59,9.09-44.11,27.31-67.46,31-16.17,2.58-32.63-.92-48.29-7.26C280,99.89,257.74,90.3,234.29,91.65c-28.08,1.61-82.76,10.14-105,36.16"/><path class="cls-30" d="M738.43,91.66c-11.38,8.8-47,16.56-64.49,13.35a74.61,74.61,0,0,1-32.51-14.89c-9.58-2-21.46-6.31-33.63-7.32a51,51,0,0,0-8-.1c-16.55,1.24-33.64,7.55-48.42,10.56a141.85,141.85,0,0,1-17,2.57,88.51,88.51,0,0,1-26.1-1.62c-7.43-1.61-14.81-4.23-22.39-6.61-22.63-7.09-44.41-11.36-66.46-4.16-1.18.38-2.36.79-3.52,1.24-22.58,8.75-43.92,27.15-67.15,31.2-16.51,2.87-33.36-.67-49.38-7.06C277.76,100.16,255,90.35,231,92.1c-27.6,2-80.09,10.67-102.12,35.71"/><path class="cls-31" d="M737.51,93.7c-11.69,9-47.87,16.58-65.23,12.86a78.7,78.7,0,0,1-32.69-16.11c-9.48-2.41-21.3-7.17-33.41-8.36a48.33,48.33,0,0,0-8-.17c-16.46,1.16-33.46,7.8-48.12,11.21a148.8,148.8,0,0,1-16.93,3.07A84.67,84.67,0,0,1,507,95.27c-7.44-1.47-14.81-4-22.37-6.41-22.53-7.13-44.21-12.23-66.27-5.4-1.18.37-2.36.75-3.52,1.19-22.58,8.41-43.73,27-66.84,31.36-16.85,3.18-34.09-.41-50.47-6.85-22.08-8.72-45.41-18.78-69.95-16.61-27.11,2.39-77.42,11.2-99.22,35.26"/><path class="cls-32" d="M736.6,95.75c-12,9.24-48.71,16.59-66,12.35-13.23-3.25-24.22-10.18-32.87-17.32-9.39-2.84-21.14-8-33.18-9.4a45,45,0,0,0-8-.25c-16.39,1.08-33.3,8.07-47.83,11.86a151.47,151.47,0,0,1-16.85,3.57,81.91,81.91,0,0,1-26.13-.22C498.37,95,491,92.53,483.48,90.12,461,83,439.46,77,417.4,83.48c-1.19.35-2.36.72-3.53,1.14-22.57,8.08-43.53,26.87-66.53,31.53-17.18,3.49-34.82-.15-51.56-6.65-22.56-8.78-46.41-19.11-71.5-16.5-26.62,2.77-74.74,11.73-96.33,34.81"/><path class="cls-33" d="M735.69,97.79c-12.34,9.47-49.54,16.6-66.73,11.85-13.22-3.65-24.17-11-33.05-18.53-9.29-3.27-21-8.9-33-10.44a42,42,0,0,0-7.92-.32c-16.3,1-33.12,8.32-47.53,12.5a154.88,154.88,0,0,1-16.77,4.07,78.34,78.34,0,0,1-26.14.48c-7.45-1.2-14.81-3.6-22.31-6-22.34-7.21-43.81-14-65.88-7.87-1.19.33-2.37.68-3.54,1.08-22.56,7.74-43.32,26.73-66.21,31.7-17.52,3.8-35.56.1-52.66-6.45-23-8.85-47.42-19.47-73.05-16.39-26.14,3.13-72.06,12.27-93.43,34.36"/><path class="cls-34" d="M734.78,99.83c-12.66,9.69-50.38,16.62-67.48,11.35-13.21-4.06-23-13.51-33.23-19.74A92.28,92.28,0,0,0,601.34,80a40.27,40.27,0,0,0-7.9-.41c-16.21.93-33,8.59-47.23,13.16a160.54,160.54,0,0,1-16.7,4.56,75.7,75.7,0,0,1-26.15,1.19c-7.45-1.07-14.8-3.39-22.27-5.83-22.25-7.25-43.62-14.85-65.7-9.11-1.19.31-2.37.65-3.54,1-22.56,7.41-43.11,26.6-65.9,31.87-17.85,4.12-36.29.35-53.75-6.25-23.51-8.91-48.44-19.84-74.59-16.29-25.69,3.5-69.39,12.81-90.55,33.92"/><path class="cls-35" d="M733.86,101.88c-13,9.91-51.2,16.62-68.23,10.85-13.19-4.48-23-14.25-33.41-21a90,90,0,0,0-32.5-12.51,37.08,37.08,0,0,0-7.86-.48c-16.13.85-32.78,8.84-46.94,13.8a166.54,166.54,0,0,1-16.62,5.07,73.62,73.62,0,0,1-26.16,1.88c-7.46-.92-14.81-3.18-22.25-5.63-22.15-7.29-43.42-15.72-65.5-10.35-1.19.29-2.38.61-3.55,1-22.55,7.08-42.9,26.48-65.59,32-18.17,4.45-37,.6-54.84-6-24-9-49.47-20.24-76.14-16.18-25.22,3.84-66.71,13.34-87.65,33.47"/><path class="cls-36" d="M733,103.92c-13.3,10.13-52,16.63-69,10.35-13.18-4.89-23-15-33.59-22.17-8.33-5.68-20.5-11.48-32.28-13.55a35.57,35.57,0,0,0-7.83-.56c-16,.78-32.6,9.11-46.64,14.46-5.49,2.08-11,4.07-16.54,5.56a71.62,71.62,0,0,1-26.18,2.59c-7.46-.79-14.8-3-22.22-5.44-22-7.33-43.21-16.6-65.3-11.58-1.2.27-2.38.57-3.56.92-22.54,6.75-42.68,26.35-65.28,32.2-18.49,4.79-37.75.86-55.93-5.84-24.47-9-50.51-20.66-77.69-16.07-24.77,4.18-64,13.87-84.76,33"/><path class="cls-37" d="M732,106c-13.62,10.36-52.86,16.65-69.73,9.85-13.16-5.3-23.07-15.69-33.77-23.38-8.28-6-20.34-12.35-32-14.59a34.33,34.33,0,0,0-7.81-.63c-16,.7-32.43,9.37-46.34,15.1-5.45,2.24-10.93,4.4-16.46,6.06-8.5,2.57-17.13,4-26.19,3.29-7.47-.64-14.81-2.76-22.19-5.24-21.95-7.37-43-17.47-65.12-12.82-1.19.25-2.38.54-3.56.87-22.53,6.42-42.46,26.23-65,32.37-18.81,5.13-38.48,1.12-57-5.64-24.94-9.1-51.55-21.1-79.24-16-24.33,4.52-61.36,14.41-81.86,32.57"/><path class="cls-38" d="M731.13,108c-14,10.57-53.68,16.65-70.48,9.35-13.15-5.72-23.13-16.42-33.95-24.6-8.24-6.23-20.18-13.21-31.83-15.62a32.43,32.43,0,0,0-7.77-.72c-15.88.63-32.26,9.64-46.06,15.75-5.41,2.4-10.86,4.73-16.37,6.57-8.49,2.83-17.13,4.58-26.21,4-7.47-.51-14.8-2.56-22.16-5-21.85-7.41-42.82-18.35-64.92-14.06-1.2.24-2.39.51-3.56.82-22.54,6.09-42.24,26.12-64.66,32.54-19.13,5.48-39.22,1.37-58.12-5.44-25.42-9.17-52.61-21.57-80.79-15.85-23.9,4.85-58.68,14.94-79,32.12"/><path class="cls-39" d="M730.21,110.05C716,120.85,675.71,126.7,659,118.9c-13.13-6.13-23.2-17.14-34.13-25.81-8.22-6.52-20-14.07-31.6-16.66a30.47,30.47,0,0,0-7.75-.79c-15.79.55-32.08,9.89-45.76,16.4-5.37,2.55-10.8,5-16.3,7.06-8.47,3.11-17.13,5.12-26.21,4.69-7.48-.36-14.8-2.34-22.13-4.85-21.76-7.45-42.63-19.22-64.73-15.29-1.21.21-2.4.46-3.57.76-22.53,5.76-42,26-64.35,32.71-19.44,5.83-39.95,1.62-59.22-5.24-25.89-9.23-53.66-22.06-82.32-15.74-23.48,5.17-56,15.47-76.08,31.67"/><path class="cls-40" d="M729.3,112.09c-14.59,11-55.32,16.66-72,8.35-13.11-6.54-23.28-17.85-34.31-27-8.2-6.81-19.86-14.94-31.38-17.7a29.43,29.43,0,0,0-7.71-.86c-15.72.47-31.91,10.15-45.47,17-5.34,2.71-10.74,5.38-16.22,7.56-8.46,3.38-17.13,5.65-26.23,5.4-7.48-.23-14.8-2.14-22.1-4.66-21.66-7.49-42.43-20.14-64.54-16.53q-1.8.28-3.57.72c-22.51,5.46-41.78,25.88-64,32.87-19.74,6.19-40.68,1.87-60.31-5-26.37-9.29-54.74-22.58-83.87-15.63-23.07,5.5-53.34,16-73.18,31.22"/><path class="cls-41" d="M728.39,114.14c-14.91,11.24-56.14,16.66-72.72,7.85-13.09-7-23.36-18.58-34.49-28.24C613,86.64,601.48,77.93,590,75a28.13,28.13,0,0,0-7.69-.94c-15.63.4-31.73,10.42-45.17,17.69-5.3,2.87-10.68,5.71-16.14,8.07-8.45,3.64-17.13,6.18-26.24,6.09-7.49-.08-14.8-1.92-22.07-4.46-21.57-7.53-42.23-21-64.35-17.76-1.21.17-2.4.39-3.58.66-22.51,5.13-41.53,25.77-63.73,33-20,6.57-41.41,2.14-61.4-4.83C252.81,103.2,223.82,89.44,194.24,97c-22.67,5.82-50.66,16.54-70.29,30.78"/><path class="cls-42" d="M727.47,116.18c-15.22,11.46-57,16.67-73.46,7.35-13.07-7.38-23.46-19.29-34.67-29.45-8.18-7.42-19.54-16.68-30.93-19.77a26.56,26.56,0,0,0-7.66-1c-15.54.32-31.53,10.7-44.87,18.34-5.26,3-10.61,6-16.06,8.56-8.43,3.93-17.14,6.72-26.26,6.8-7.49.05-14.79-1.72-22-4.27-21.46-7.57-42-21.87-64.15-19-1.21.15-2.41.36-3.59.61-22.5,4.79-41.29,25.65-63.42,33.2-20.34,6.94-42.14,2.39-62.49-4.63-27.32-9.42-56.94-23.69-87-15.42-22.29,6.14-48,17.08-67.39,30.33"/><path class="cls-43" d="M726.56,118.22c-15.55,11.69-57.76,16.65-74.21,6.85-13-7.81-23.56-20-34.85-30.66-8.19-7.73-19.38-17.54-30.7-20.81a25.85,25.85,0,0,0-7.63-1.1c-15.46.24-31.36,11-44.58,19-5.23,3.19-10.55,6.37-16,9.06-8.43,4.2-17.14,7.26-26.28,7.5-7.49.2-14.79-1.51-22-4.07-21.37-7.61-41.83-22.74-64-20.24-1.21.14-2.41.33-3.59.56-22.5,4.45-41,25.54-63.1,33.37-20.64,7.32-42.88,2.64-63.59-4.43C248.28,103.76,218,89,187.56,97.93c-21.91,6.46-45.3,17.61-64.5,29.88"/><path class="cls-44" d="M725.65,120.27c-15.87,11.9-58.59,16.68-75,6.35-13-8.21-23.66-20.73-35-31.88-10-9.85-24.32-23.17-38.08-23-15.38.16-31.19,11.21-44.28,19.64-13.25,8.52-27.15,17.08-42.19,17.76-29.7,1.32-56.13-28.21-85.75-25.35-24.17,2.33-43.22,25.51-66.39,34-20.93,7.7-43.61,2.89-64.68-4.23C246,104,215.08,88.69,184.23,98.38c-21.56,6.77-42.63,18.14-61.61,29.43"/></g><g class="cls-45"><path class="cls-46" d="M814.76,173.92c-5.59-5.21-65.43-32.78-71.54-37a102.87,102.87,0,0,0-37.92-16.33A94.85,94.85,0,0,0,627,139.06C612.15,150.72,599,167,582.08,172.45c-24.62,7.92-49.64-9-71.79-25s-47.73-32.13-72-22.71c-17.56,6.82-30.51,25.86-47.56,34.47-35.68,18-138.79,11.08-166.91-36.88"/><path class="cls-47" d="M813.81,171.93c-5.69-5.25-64.54-32.13-70.88-36.31a105.12,105.12,0,0,0-37.55-15.76c-1.27-.25-2.55-.47-3.83-.66a94.2,94.2,0,0,0-73.36,19.58c-7,5.59-13.77,12.31-20.72,18.1-7.83,6.51-15.92,12-25,14.65s-18,2-26.94-.3c-16-4.12-31.57-13.67-46.11-23.66-12.26-8.44-25.4-17.47-38.86-22.21-11.41-4-23-4.94-34.35-.55q-2,.78-3.9,1.74c-15.94,8-28.71,24.71-44.77,32.43-35.46,17.06-136.28,10.4-164.15-36.59"/><path class="cls-48" d="M812.86,169.94c-5.8-5.29-63.65-31.47-70.22-35.6-11.82-7.43-24.33-12.79-37.18-15.19-1.26-.23-2.52-.43-3.78-.61a93.71,93.71,0,0,0-72.26,20c-7.1,5.7-14,12.63-21.1,18.28-8,6.37-16.29,11.47-25.47,13.82s-18.21,1.55-27.3-.7c-16.31-4-32.1-12.47-47-22.23C496,139.42,482.72,130.05,469,125.25c-11.58-4.06-23.38-4.86-34.87-.4-1.35.52-2.67,1.11-4,1.76-16.21,8-29.46,24.64-45.81,32.12-35.23,16.11-133.78,9.7-161.4-36.32"/><path class="cls-49" d="M811.91,168c-5.9-5.34-62.76-30.82-69.56-34.89-11.83-7.08-24.14-12.42-36.81-14.62-1.24-.22-2.48-.4-3.73-.56a93.26,93.26,0,0,0-71.16,20.33c-7.17,5.82-14.21,13-21.48,18.47-8.18,6.21-16.66,10.91-25.93,13s-18.44,1.09-27.66-1.09c-16.64-3.88-32.63-11.29-47.89-20.82-12.82-8-26.27-17.76-40.2-22.63-11.75-4.11-23.75-4.76-35.41-.24-1.37.53-2.71,1.13-4,1.78-16.49,8.13-30.21,24.57-46.85,31.8-35,15.2-131.28,9-158.65-36"/><path class="cls-50" d="M811,166c-6-5.38-61.86-30.16-68.9-34.18-11.82-6.74-24-12-36.43-14-1.23-.2-2.46-.36-3.69-.51a92.84,92.84,0,0,0-70.06,20.71c-7.24,5.93-14.43,13.28-21.85,18.66-8.36,6.06-17,10.34-26.41,12.14s-18.65.64-28-1.48a164.06,164.06,0,0,1-48.77-19.41C493.72,140,480.12,130,466,125c-11.93-4.16-24.11-4.68-35.94-.09-1.39.54-2.76,1.14-4.1,1.8-16.76,8.21-30.95,24.5-47.9,31.48-34.7,14.3-128.77,8.34-155.89-35.75"/><path class="cls-51" d="M810,164c-6.1-5.42-60.94-29.51-68.23-33.47C730,124.1,718,118.9,705.71,117c-1.22-.19-2.43-.34-3.64-.46a92.48,92.48,0,0,0-69,21.08c-7.3,6-14.63,13.6-22.22,18.84-8.54,5.91-17.4,9.78-26.87,11.31s-18.87.15-28.38-1.88c-17.27-3.68-33.7-8.92-49.67-18-13.39-7.65-27.14-18.06-41.53-23-12.1-4.2-24.48-4.59-36.48.07-1.41.55-2.79,1.16-4.16,1.82-17,8.3-31.68,24.43-48.94,31.16-34.41,13.43-126.27,7.65-153.14-35.46"/><path class="cls-52" d="M809.05,162c-6.21-5.46-60-28.85-67.57-32.75-11.78-6.1-23.6-11.21-35.69-12.91-1.2-.17-2.39-.3-3.58-.41a92.18,92.18,0,0,0-67.88,21.46c-7.37,6.16-14.85,13.92-22.6,19a64.45,64.45,0,0,1-27.34,10.48c-9.47,1.21-19.09-.32-28.74-2.28C538.07,161,521.42,156.87,505.1,148c-13.67-7.45-27.58-18.2-42.21-23.26-12.27-4.24-24.83-4.49-37,.23-1.43.55-2.83,1.17-4.22,1.84-17.3,8.38-32.4,24.37-50,30.85-34.09,12.57-123.75,7-150.38-35.19"/><path class="cls-53" d="M808.1,160c-6.31-5.49-59.12-28.2-66.91-32-11.74-5.79-23.42-10.81-35.32-12.34-1.18-.15-2.36-.26-3.53-.35a91.9,91.9,0,0,0-66.78,21.83c-7.43,6.27-15.07,14.24-23,19.22a63.22,63.22,0,0,1-27.8,9.64c-9.58,1-19.31-.78-29.1-2.67-17.9-3.46-34.76-6.56-51.45-15.15-14-7.26-28-18.35-42.87-23.47-12.44-4.3-25.2-4.41-37.54.38-1.45.56-2.88,1.19-4.29,1.86-17.58,8.47-33.12,24.3-51,30.53-33.77,11.74-121.25,6.28-147.63-34.9"/><path class="cls-54" d="M807.15,158c-6.42-5.53-58.2-27.54-66.25-31.33-11.7-5.49-23.24-10.4-34.95-11.76-1.17-.14-2.33-.23-3.48-.31a91.79,91.79,0,0,0-65.69,22.21c-7.49,6.39-15.28,14.57-23.35,19.4A62.49,62.49,0,0,1,585.17,165c-9.69.69-19.54-1.24-29.47-3.07-18.22-3.34-35.31-5.33-52.33-13.73-14.25-7-28.45-18.49-43.54-23.68a54.27,54.27,0,0,0-38.08.54q-2.21.85-4.35,1.89c-17.85,8.54-33.82,24.24-52.07,30.2-33.43,10.93-118.75,5.59-144.88-34.62"/><path class="cls-55" d="M806.2,156c-6.52-5.58-57.28-26.91-65.59-30.62-11.65-5.21-23.06-10-34.58-11.2-1.15-.12-2.29-.19-3.43-.25-22.49-1.16-45.6,6.25-64.59,22.58-7.56,6.5-15.5,14.89-23.73,19.59a61.88,61.88,0,0,1-28.73,8c-9.79.42-19.75-1.7-29.82-3.46-18.54-3.23-35.85-4.14-53.23-12.31-14.53-6.83-28.88-18.64-44.2-23.89a55.13,55.13,0,0,0-38.61.69q-2.25.87-4.42,1.91c-18.12,8.63-34.52,24.18-53.12,29.89-33.06,10.14-116.24,4.9-142.12-34.34"/><path class="cls-56" d="M805.25,154c-6.63-5.62-56.35-26.26-64.93-29.91-11.59-4.93-22.88-9.6-34.21-10.62-1.13-.11-2.26-.16-3.38-.21-22.14-.82-44.82,6.76-63.49,23-7.63,6.62-15.72,15.21-24.1,19.78-9.42,5.14-19.25,7-29.2,7.13s-20-2.17-30.19-3.85c-18.85-3.12-36.38-3-54.11-10.9-14.81-6.63-29.32-18.78-44.88-24.1a55.94,55.94,0,0,0-39.14.85c-1.51.58-3,1.23-4.48,1.93-18.39,8.71-35.22,24.13-54.16,29.57-32.69,9.38-113.74,4.22-139.37-34.06"/><path class="cls-57" d="M804.29,152.05c-6.72-5.66-55.41-25.62-64.26-29.2-11.52-4.66-22.7-9.19-33.84-10-1.12-.09-2.23-.13-3.33-.15-21.79-.49-44,7.25-62.4,23.33-7.68,6.74-15.93,15.53-24.47,20-9.6,5-19.62,6.42-29.67,6.3s-20.19-2.63-30.54-4.25c-19.18-3-36.91-1.76-55-9.48-15.09-6.43-29.75-18.92-45.54-24.31a56.84,56.84,0,0,0-39.68,1c-1.53.59-3,1.25-4.54,2-18.67,8.8-35.9,24.09-55.21,29.25-32.3,8.64-111.23,3.54-136.61-33.77"/><path class="cls-58" d="M803.34,150.06c-6.83-5.7-54.48-25-63.6-28.48-11.45-4.41-22.52-8.79-33.47-9.49-1.1-.07-2.2-.09-3.28-.09-21.43-.15-43.25,7.75-61.3,23.71-7.75,6.85-16.15,15.85-24.85,20.14-9.77,4.84-20,5.85-30.13,5.47s-20.42-3.1-30.91-4.65c-19.49-2.89-37.44-.58-55.89-8.06-15.38-6.23-30.19-19.08-46.21-24.52a57.76,57.76,0,0,0-40.21,1.15c-1.56.61-3.09,1.27-4.61,2-18.94,8.89-36.58,24.06-56.25,28.94-31.91,7.91-108.73,2.84-133.86-33.49"/><path class="cls-59" d="M802.39,148.07c-6.93-5.74-53.54-24.34-62.94-27.77-11.38-4.15-22.35-8.38-33.1-8.91-1.08-.06-2.16-.06-3.23,0-21.08.19-42.47,8.26-60.2,24.09-7.81,7-16.37,16.17-25.23,20.33-10,4.68-20.36,5.29-30.59,4.63s-20.64-3.56-31.27-5c-19.82-2.78-38,.6-56.79-6.65-15.65-6-30.63-19.22-46.87-24.73-13.48-4.58-27.38-3.87-40.75,1.31-1.58.62-3.13,1.29-4.67,2-19.21,9-37.26,24-57.3,28.62-31.5,7.21-106.21,2.16-131.1-33.21"/><path class="cls-60" d="M801.44,146.08c-7-5.78-52.6-23.71-62.28-27.06-11.3-3.9-22.17-8-32.73-8.34-1.07,0-2.13,0-3.18,0-20.73.52-41.68,8.77-59.11,24.46-7.87,7.08-16.58,16.49-25.6,20.51-10.12,4.54-20.73,4.73-31.06,3.8s-20.86-4-31.63-5.44c-20.13-2.65-38.51,1.8-57.67-5.22-15.94-5.84-31.07-19.37-47.55-24.94-13.65-4.63-27.74-3.79-41.27,1.46-1.6.62-3.18,1.3-4.74,2-19.48,9.06-37.92,24-58.34,28.3-31.08,6.54-103.71,1.48-128.35-32.92"/><path class="cls-61" d="M800.49,144.09c-7.14-5.82-51.66-23.09-61.62-26.34-11.22-3.67-22-7.57-32.36-7.77-1,0-2.1,0-3.13,0-20.37.86-40.89,9.29-58,24.84-7.93,7.2-16.8,16.81-26,20.7-10.3,4.38-21.1,4.16-31.52,3s-21.09-4.48-32-5.83c-20.46-2.54-39,3-58.57-3.81-16.21-5.63-31.5-19.51-48.21-25.15-13.82-4.67-28.11-3.69-41.81,1.62-1.62.63-3.22,1.32-4.8,2-19.76,9.13-38.59,24-59.38,28-30.66,5.88-101.21.79-125.6-32.64"/><path class="cls-62" d="M799.54,142.11c-7.25-5.87-50.72-22.48-60.95-25.64-11.15-3.44-21.82-7.16-32-7.2-1,0-2.07,0-3.08.11-20,1.19-40.11,9.79-56.92,25.21-8,7.33-17,17.13-26.35,20.89-10.48,4.22-21.47,3.6-32,2.12s-21.3-4.94-32.35-6.23c-20.77-2.42-39.57,4.17-59.45-2.38-16.5-5.44-31.94-19.66-48.88-25.36-14-4.72-28.47-3.61-42.35,1.77q-2.46,1-4.86,2.07c-20,9.22-39.25,24-60.43,27.66-30.23,5.24-98.7.1-122.84-32.36"/><path class="cls-63" d="M798.58,140.12c-7.34-5.91-49.76-21.86-60.28-24.93-11.06-3.22-21.65-6.75-31.62-6.63-1,0-2,.09-3,.16C684,110.26,664.34,119,647.82,134.31c-8.05,7.45-17.22,17.46-26.72,21.07-10.66,4.08-21.84,3-32.46,1.29s-21.53-5.4-32.71-6.62c-21.1-2.3-40.11,5.36-60.35-1-16.77-5.24-32.37-19.8-49.54-25.57-14.17-4.77-28.84-3.52-42.88,1.93q-2.49,1-4.92,2.09c-20.31,9.3-39.92,24-61.48,27.34-29.79,4.62-96.2-.58-120.09-32.08"/><path class="cls-64" d="M797.63,138.13c-7.45-5.95-48.81-21.26-59.62-24.21-11-3-21.47-6.35-31.25-6.06-1,0-2,.11-3,.21-19.33,1.87-38.52,10.83-54.73,26-8.11,7.57-17.44,17.78-27.1,21.26-10.83,3.92-22.21,2.47-32.93.46s-21.74-5.87-33.07-7c-21.41-2.19-40.63,6.54-61.24.44-17-5-32.8-19.94-50.21-25.78-14.34-4.81-29.19-3.42-43.41,2.09-1.68.65-3.34,1.36-5,2.11-20.58,9.39-40.57,24-62.53,27-29.35,4-93.69-1.27-117.33-31.79"/><path class="cls-65" d="M796.68,136.14c-7.55-6-47.86-20.65-59-23.5-10.88-2.79-21.29-5.94-30.88-5.49-1,0-2,.15-2.93.26-19,2.21-37.72,11.35-53.63,26.34-8.17,7.7-17.66,18.1-27.48,21.45-11,3.77-22.58,1.9-33.39-.38s-22-6.33-33.43-7.42c-21.73-2.06-41.17,7.73-62.13,1.87-17.34-4.85-33.24-20.09-50.88-26-14.51-4.86-29.56-3.34-44,2.24q-2.55,1-5,2.13c-20.86,9.47-41.22,24-63.57,26.71-28.91,3.44-91.19-2-114.58-31.52"/><path class="cls-66" d="M795.73,134.15c-7.66-6-46.91-20.06-58.3-22.79-10.79-2.58-21.11-5.52-30.51-4.91-1,.06-1.94.18-2.88.31-18.62,2.54-36.92,11.87-52.53,26.71-8.23,7.82-17.88,18.42-27.86,21.63-11.18,3.62-22.95,1.34-33.85-1.21s-22.19-6.79-33.79-7.81c-22.06-2-41.71,8.91-63,3.28-17.61-4.65-33.67-20.24-51.54-26.2-14.69-4.91-29.92-3.25-44.48,2.4q-2.59,1-5.11,2.15c-21.13,9.56-41.87,24.09-64.61,26.39-28.46,2.87-88.68-2.64-111.83-31.23"/><path class="cls-67" d="M794.78,132.16c-7.76-6.07-46-19.47-57.64-22.07-10.7-2.39-20.94-5.12-30.14-4.35-1,.08-1.91.22-2.83.36-18.27,2.88-36.12,12.4-51.44,27.09-8.28,7.95-18.09,18.75-28.23,21.82-11.36,3.46-23.32.78-34.32-2s-22.41-7.25-34.15-8.2c-22.37-1.83-42.23,10.09-63.91,4.7-17.9-4.46-34.11-20.39-52.21-26.41-14.87-5-30.29-3.16-45,2.55-1.74.68-3.47,1.4-5.17,2.17-21.4,9.65-42.52,24.15-65.66,26.07-28,2.33-86.17-3.33-109.07-30.95"/><path class="cls-68" d="M793.83,130.18c-7.87-6.12-45-18.89-57-21.37-10.6-2.19-20.76-4.7-29.77-3.78-1,.1-1.87.26-2.78.42C686.38,108.67,669,118.37,654,132.91c-8.34,8.07-18.31,19.07-28.6,22-11.54,3.31-23.69.21-34.79-2.89s-22.64-7.7-34.51-8.6c-22.7-1.7-42.77,11.28-64.81,6.12-18.17-4.25-34.54-20.53-52.88-26.62-15-5-30.65-3.07-45.54,2.71-1.77.68-3.52,1.42-5.24,2.19-21.67,9.73-43.16,24.22-66.7,25.76-27.56,1.79-83.67-4-106.32-30.67"/><path class="cls-69" d="M792.87,128.19c-8-6.16-44-18.32-56.31-20.66-10.51-2-20.58-4.29-29.4-3.2-.93.11-1.84.29-2.73.47-17.56,3.55-34.52,13.45-49.24,27.83-8.4,8.2-18.53,19.39-29,22.19-11.72,3.16-24.06-.35-35.26-3.71s-22.85-8.17-34.87-9c-23-1.59-43.3,12.46-65.69,7.54-18.46-4.06-35-20.68-53.55-26.84-15.21-5-31-3-46.08,2.87-1.79.69-3.55,1.43-5.3,2.22-21.95,9.81-43.81,24.3-67.75,25.43-27.11,1.28-81.16-4.7-103.56-30.38"/><path class="cls-70" d="M791.92,126.2c-8.07-6.2-43.09-17.75-55.65-19.94-10.42-1.82-20.41-3.88-29-2.64-.92.14-1.81.32-2.68.52-17.21,3.89-33.71,14-48.15,28.21-8.44,8.33-18.74,19.71-29.35,22.38-11.89,3-24.43-.92-35.72-4.55s-23.08-8.63-35.23-9.39c-23.34-1.47-43.83,13.64-66.59,9-18.73-3.86-35.41-20.82-54.21-27-15.38-5.1-31.38-2.89-46.62,3q-2.7,1.05-5.36,2.24c-22.22,9.89-44.46,24.4-68.79,25.11-26.66.78-78.66-5.39-100.81-30.1"/><path class="cls-71" d="M791,124.21C782.8,118,748.83,107,736,105c-10.32-1.64-20.23-3.46-28.66-2.06-.9.15-1.77.35-2.63.57-16.86,4.22-32.9,14.51-47.05,28.58-8.5,8.46-19,20-29.73,22.57-12.07,2.85-24.8-1.49-36.19-5.39s-23.29-9.09-35.59-9.79c-23.65-1.34-44.35,14.79-67.47,10.38-19-3.71-35.86-21-54.88-27.26-15.56-5.14-31.74-2.8-47.15,3.18q-2.75,1.06-5.43,2.26c-22.49,10-45.11,24.52-69.83,24.79-26.22.29-76.16-6.07-98.06-29.81"/><path class="cls-72" d="M790,122.22c-8.28-6.27-41.18-16.64-54.33-18.52-10.23-1.46-20.05-3-28.29-1.49-.88.17-1.74.39-2.57.62-16.52,4.57-32.1,15-46,29-8.55,8.59-19.17,20.36-30.11,22.76-12.24,2.69-25.16-2.08-36.65-6.23s-23.52-9.55-36-10.18c-24-1.23-44.89,16-68.37,11.79-19.29-3.51-36.29-21.11-55.55-27.46-15.72-5.19-32.1-2.72-47.68,3.33-1.85.71-3.68,1.48-5.49,2.28-22.76,10.06-45.76,24.66-70.88,24.48-25.77-.19-73.65-6.76-95.3-29.54"/><path class="cls-73" d="M789.07,120.23c-8.38-6.31-40.23-16.09-53.67-17.8-10.14-1.29-19.88-2.63-27.91-.92-.88.18-1.72.42-2.53.67-16.16,4.9-31.29,15.57-44.87,29.33-8.6,8.73-19.38,20.68-30.48,22.94-12.42,2.55-25.53-2.64-37.11-7.06s-23.74-10-36.32-10.58c-24.29-1.1-45.42,17.16-69.25,13.21-19.57-3.31-36.73-21.25-56.22-27.67-15.9-5.24-32.46-2.62-48.21,3.49-1.87.72-3.73,1.49-5.56,2.3C353.9,138.29,330.53,153,305,152.3c-25.34-.65-71.15-7.44-92.55-29.25"/><path class="cls-74" d="M788.12,118.25c-8.49-6.36-39.28-15.57-53-17.1-10.05-1.12-19.7-2.21-27.54-.35-.86.2-1.68.46-2.48.72-15.81,5.24-30.48,16.11-43.77,29.72-8.65,8.85-19.6,21-30.86,23.12-12.59,2.39-25.89-3.21-37.58-7.9s-24-10.46-36.67-11c-24.62-1-46,18.34-70.15,14.63-19.85-3.12-37.16-21.41-56.88-27.89-16.07-5.28-32.83-2.53-48.75,3.64-1.89.74-3.77,1.52-5.62,2.33-23.31,10.24-47.07,25-73,23.84-24.9-1.1-68.63-8.13-89.79-29"/><path class="cls-75" d="M787.17,116.26c-8.59-6.4-38.32-15-52.35-16.39-10-1-19.52-1.78-27.17.22-.84.22-1.65.5-2.43.78-15.46,5.57-29.67,16.64-42.67,30.09-8.7,9-19.82,21.31-31.23,23.31-12.78,2.24-26.27-3.77-38.05-8.73s-24.19-10.93-37-11.37c-24.93-.86-46.48,19.53-71,16-20.14-2.92-37.6-21.55-57.55-28.09-16.25-5.33-33.19-2.45-49.29,3.79q-2.87,1.13-5.68,2.35c-23.58,10.32-47.73,25.18-74,23.53-24.47-1.55-66.13-8.82-87.05-28.69"/><path class="cls-76" d="M786.21,114.27c-8.69-6.44-37.36-14.53-51.68-15.67-9.88-.8-19.34-1.37-26.8.79-.83.24-1.62.53-2.38.82-15.1,5.91-28.85,17.18-41.58,30.47-8.74,9.12-20,21.64-31.6,23.49-12.95,2.09-26.64-4.33-38.52-9.56s-24.4-11.36-37.39-11.77c-25.26-.69-47,20.72-71.93,17.47-20.41-2.72-38-21.7-58.22-28.31-16.41-5.38-33.55-2.35-49.81,4-1.94.75-3.85,1.55-5.75,2.38-23.85,10.4-48.4,25.38-75.05,23.2-24.06-2-63.63-9.5-84.3-28.41"/><path class="cls-77" d="M785.26,112.28c-8.79-6.48-36.41-14-51-15-9.79-.63-19.16-.94-26.43,1.36-.81.26-1.58.56-2.33.88-14.75,6.25-28,17.72-40.48,30.84-8.78,9.26-20.25,22-32,23.68-13.13,1.93-27-4.9-39-10.4s-24.63-11.82-37.76-12.16c-25.57-.57-47.55,21.9-72.81,18.88-20.7-2.52-38.47-21.84-58.89-28.51-16.59-5.43-33.92-2.27-50.35,4.1q-2.93,1.14-5.81,2.4c-24.13,10.48-49.08,25.62-76.1,22.88-23.64-2.39-61.12-10.19-81.54-28.12"/><path class="cls-78" d="M784.31,110.29C775.41,103.77,748.84,96.77,734,96c-9.72-.47-19-.52-26.07,1.94-.8.27-1.55.59-2.28.92-14.4,6.59-27.22,18.26-39.38,31.22-8.83,9.4-20.47,22.28-32.36,23.87-13.3,1.78-27.37-5.47-39.44-11.24s-24.85-12.28-38.12-12.55c-25.9-.46-48.09,23.08-73.71,20.3-21-2.33-38.9-22-59.55-28.73-16.76-5.47-34.28-2.18-50.88,4.26q-3,1.16-5.88,2.42C341.89,139,316.52,154.32,289.15,151c-23.23-2.8-58.62-10.87-78.79-27.84"/><path class="cls-79" d="M783.36,108.3c-9-6.56-34.52-13-49.69-13.53-9.64-.33-18.81-.1-25.7,2.5a23.81,23.81,0,0,0-2.23,1c-14,6.92-26.4,18.8-38.29,31.59-8.86,9.54-20.68,22.6-32.73,24-13.48,1.63-27.74-6-39.91-12.07s-25.07-12.74-38.48-12.95c-26.21-.33-48.61,24.27-74.59,21.72-21.26-2.13-39.34-22.13-60.22-28.94-16.94-5.52-34.65-2.08-51.42,4.42q-3,1.17-5.94,2.44c-24.67,10.65-50.46,26.15-78.19,22.25-22.83-3.21-56.11-11.56-76-27.56"/><path class="cls-80" d="M782.41,106.31c-9.11-6.6-33.58-12.54-49-12.82-9.56-.17-18.63.33-25.33,3.07-.76.32-1.48.67-2.18,1-13.69,7.25-25.58,19.33-37.19,32-8.9,9.68-20.9,22.92-33.11,24.24-13.65,1.48-28.11-6.59-40.37-12.9s-25.29-13.21-38.84-13.35c-26.53-.22-49.15,25.46-75.49,23.13-21.54-1.93-39.77-22.27-60.88-29.14-17.11-5.57-35-2-52,4.57-2,.78-4,1.61-6,2.46C337.09,139.31,310.87,155,282.8,150.5c-22.44-3.61-53.61-12.25-73.28-27.27"/><path class="cls-81" d="M781.46,104.33c-9.21-6.65-32.63-12.08-48.37-12.12-9.49,0-18.45.76-25,3.65-.74.33-1.45.7-2.13,1.08-13.34,7.59-24.75,19.88-36.09,32.34-8.94,9.82-21.12,23.25-33.48,24.43-13.84,1.32-28.49-7.16-40.85-13.74s-25.51-13.67-39.2-13.74c-26.85-.1-49.68,26.64-76.37,24.55-21.82-1.74-40.21-22.42-61.56-29.36-17.28-5.61-35.37-1.91-52.48,4.73q-3.06,1.18-6.07,2.48c-25.22,10.82-51.88,26.77-80.27,21.61-22.07-4-51.1-12.93-70.53-27"/><path class="cls-82" d="M780.5,102.34c-9.31-6.69-31.69-11.62-47.7-11.4-9.41.12-18.26,1.18-24.59,4.21a22.6,22.6,0,0,0-2.07,1.14c-13,7.93-23.94,20.42-35,32.71-9,10-21.33,23.57-33.86,24.61-14,1.17-28.86-7.72-41.31-14.57s-25.74-14.13-39.56-14.14c-27.17,0-50.22,27.83-77.27,26-22.1-1.53-40.64-22.57-62.22-29.56-17.45-5.66-35.73-1.82-53,4.88-2.06.8-4.1,1.64-6.13,2.5-25.49,10.91-52.6,27.11-81.32,21.3-21.7-4.39-48.59-13.62-67.77-26.71"/><path class="cls-83" d="M779.55,100.35c-9.41-6.73-30.75-11.17-47-10.69-9.35.27-18.08,1.61-24.22,4.79a21.85,21.85,0,0,0-2,1.18c-12.65,8.27-23.11,21-33.91,33.09-9,10.12-21.54,23.89-34.23,24.8-14.19,1-29.22-8.28-41.78-15.41s-26-14.59-39.92-14.53c-27.49.14-50.74,29-78.15,27.39-22.39-1.34-41.09-22.72-62.89-29.78-17.63-5.71-36.1-1.73-53.55,5-2.09.81-4.15,1.65-6.2,2.53-25.76,11-53.34,27.46-82.36,21-21.35-4.77-46.09-14.31-65-26.43"/><path class="cls-84" d="M778.6,98.36c-9.52-6.77-29.82-10.72-46.38-10-9.28.42-17.89,2.05-23.85,5.36a22.7,22.7,0,0,0-2,1.24c-12.29,8.6-22.29,21.51-32.81,33.46-9,10.27-21.76,24.21-34.61,25-14.36.86-29.59-8.85-42.24-16.25s-26.18-15.05-40.28-14.92c-27.81.25-51.28,30.19-79.05,28.8-22.66-1.14-41.52-22.86-63.55-30-17.8-5.76-36.47-1.65-54.09,5.19-2.1.81-4.19,1.67-6.26,2.55-26,11.07-54.1,27.84-83.41,20.65-21-5.15-43.58-15-62.26-26.14"/><path class="cls-44" d="M777.65,96.37c-15.52-11-56.09-13.3-71.12-2.05-11.94,8.94-21.46,22.06-31.71,33.84-9.07,10.42-22,24.54-35,25.17-14.54.72-30-9.41-42.7-17.08s-26.4-15.51-40.65-15.32c-28.12.38-51.81,31.38-79.93,30.23-22.95-.95-42-23-64.23-30.2-20.11-6.5-41.33-.4-60.94,7.92-26.31,11.16-54.87,28.25-84.45,20.34-20.67-5.53-41.08-15.68-59.51-25.87"/></g><g class="cls-4"><path class="cls-5" d="M588.58,164.71c-8.07-3.29-15.86-10.12-22.64-15.69-9.93-8.14-19.88-13-32.18-16.84-28.68-9.05-47,9.23-69.9,23.11-25.58,15.49-49.77,11.57-74.08-2.69-11.47-6.73-19-14.74-33.94-13.57-14.46,1.13-25.65,13.62-38.31,19.89-12.35,6.11-23.11,12.37-37.31,12.67-16,.35-32.26-10.75-46.61-16.73-33-13.77-66.62-21.85-97,1.29"/><path class="cls-85" d="M590.43,162.06c-8.38-3.29-16.55-9.95-23.63-15.29-10.13-7.64-20.06-12.15-32.31-15.7-28.44-8.23-46.46,10.22-69.33,24.09-25.74,15.63-50.18,10.94-74.57-3.27-11.5-6.7-19.18-14.73-34.06-13.64s-26.15,13.4-39,19.86-24.42,13.56-39.35,13.66c-16.26.11-32.54-11-47.13-17.08-32.4-13.49-66.59-21.94-96.31,1"/><path class="cls-86" d="M592.28,159.41c-8.68-3.28-17.24-9.79-24.62-14.9-10.32-7.14-20.23-11.33-32.43-14.54-28.21-7.42-46,11.2-68.77,25.07-25.9,15.76-50.59,10.3-75.06-3.85-11.54-6.68-19.33-14.68-34.19-13.71-15.09,1-26.65,13.14-39.71,19.82-13.45,6.87-25.72,14.76-41.39,14.65-16.49-.12-32.8-11.28-47.64-17.42-31.76-13.22-66.57-22-95.65.62"/><path class="cls-87" d="M594.13,156.75c-9-3.27-17.91-9.61-25.61-14.49A100.58,100.58,0,0,0,536,128.86c-28-6.61-45.43,12.18-68.21,26.06-26.05,15.9-51,9.67-75.54-4.44-11.57-6.65-19.48-14.65-34.31-13.77-15.41.9-27.15,12.91-40.41,19.78-14,7.25-27,16-43.44,15.64-16.72-.34-33.06-11.54-48.14-17.77-31.14-12.94-66.55-22.11-95,.3"/><path class="cls-10" d="M596,154.1c-9.28-3.26-18.56-9.44-26.6-14.1a104.08,104.08,0,0,0-32.68-12.24c-27.72-5.8-44.92,13.16-67.64,27-26.21,16-51.4,9-76-5-11.6-6.62-19.63-14.62-34.44-13.84-15.72.83-27.64,12.68-41.11,19.75-14.55,7.64-28.32,17.18-45.47,16.63-17-.55-33.33-11.8-48.66-18.12-30.5-12.67-66.53-22.19-94.32,0"/><path class="cls-11" d="M597.82,151.45c-9.59-3.26-19.21-9.27-27.59-13.7a107.4,107.4,0,0,0-32.81-11.1c-27.47-5-44.4,14.15-67.07,28-26.36,16.18-51.81,8.4-76.52-5.61-11.64-6.59-19.78-14.59-34.57-13.9-16,.75-28.13,12.44-41.8,19.71-15.1,8-29.63,18.39-47.52,17.61-17.18-.74-33.59-12.06-49.16-18.45-29.87-12.4-66.52-22.29-93.66-.37"/><path class="cls-88" d="M599.67,148.8c-9.89-3.25-19.86-9.11-28.58-13.31a111,111,0,0,0-32.93-9.94c-27.22-4.2-43.9,15.13-66.51,29-26.52,16.31-52.22,7.77-77-6.19-11.66-6.57-19.92-14.58-34.68-14-16.36.67-28.63,12.21-42.51,19.67-15.64,8.41-30.92,19.62-49.56,18.6-17.41-.94-33.87-12.29-49.67-18.8-29.25-12.06-66.49-22.37-93-.7"/><path class="cls-89" d="M601.51,146.15c-10.19-3.24-20.48-9-29.56-12.92a114.47,114.47,0,0,0-33.06-8.79c-27-3.4-43.38,16.11-65.95,30-26.67,16.44-52.62,7.13-77.5-6.78-11.69-6.54-20.07-14.55-34.81-14-16.67.58-29.12,12-43.2,19.63-16.2,8.8-32.23,20.84-51.61,19.59-17.64-1.14-34.13-12.55-50.17-19.15-28.63-11.77-66.48-22.45-92.34-1"/><path class="cls-15" d="M603.36,143.5c-10.49-3.24-21.1-8.8-30.55-12.52a117,117,0,0,0-33.19-7.64c-26.7-2.62-42.86,17.09-65.38,31-26.83,16.59-53,6.5-78-7.36-11.73-6.51-20.22-14.53-34.93-14.1-17,.5-29.62,11.76-43.91,19.6-16.74,9.2-33.52,22.07-53.64,20.58-17.87-1.32-34.41-12.81-50.69-19.5-28-11.49-66.45-22.53-91.67-1.35"/><path class="cls-90" d="M605.21,140.85c-10.8-3.23-21.72-8.66-31.54-12.13-11.18-3.94-21.39-5.67-33.32-6.49-26.43-1.83-42.35,18.08-64.81,32-27,16.72-53.44,5.87-78.48-7.94-11.76-6.49-20.37-14.52-35.06-14.17-17.3.41-30.11,11.53-44.6,19.56-17.29,9.59-34.83,23.3-55.69,21.57-18.1-1.51-34.67-13.07-51.2-19.84-27.35-11.21-66.43-22.63-91-1.69"/><path class="cls-91" d="M607.05,138.2c-11.09-3.23-22.32-8.53-32.52-11.73-11.26-3.54-21.56-4.87-33.44-5.35-26.17-1-41.84,19.07-64.25,32.94-27.14,16.85-53.85,5.23-79-8.53-11.79-6.46-20.52-14.51-35.19-14.23-17.62.32-30.59,11.3-45.3,19.52-17.83,10-36.12,24.54-57.73,22.56-18.33-1.69-34.93-13.33-51.7-20.19-26.73-10.93-66.41-22.71-90.35-2"/><path class="cls-92" d="M608.9,135.55c-11.4-3.22-22.92-8.41-33.51-11.34-11.34-3.14-21.72-4.07-33.57-4.19-25.9-.27-41.32,20-63.69,33.91-27.29,17-54.25,4.6-79.46-9.11-11.82-6.43-20.66-14.49-35.3-14.3-17.94.24-31.09,11.08-46,19.49-18.38,10.38-37.43,25.78-59.78,23.55C239,171.7,222.39,160,205.38,153c-26.09-10.65-66.39-22.79-89.68-2.34"/><path class="cls-20" d="M610.75,132.9c-11.7-3.22-23.52-8.29-34.5-10.94-11.41-2.76-21.87-3.27-33.7-3-25.63.5-40.81,21-63.12,34.9-27.45,17.13-54.67,4-79.95-9.69-11.85-6.41-20.81-14.49-35.43-14.37-18.25.15-31.58,10.85-46.7,19.45-18.92,10.77-38.72,27-61.81,24.53-18.79-2-35.47-13.84-52.72-20.87-25.46-10.37-66.37-22.89-89-2.68"/><path class="cls-93" d="M612.59,130.25c-12-3.21-24.11-8.19-35.49-10.55s-22-2.48-33.82-1.89c-25.35,1.26-40.29,22-62.55,35.88C453.12,171,425.65,157,400.29,143.41c-11.88-6.38-21-14.47-35.55-14.43-18.58.05-32.07,10.63-47.4,19.42-19.47,11.16-40,28.27-63.86,25.51-19-2.2-35.73-14.1-53.23-21.22-24.82-10.09-66.35-23-88.36-3"/><path class="cls-94" d="M614.44,127.6c-12.3-3.2-24.7-8.1-36.48-10.16-11.53-2-22.18-1.68-33.94-.74-25.09,2-39.78,23-62,36.86-27.76,17.41-55.48,2.7-80.92-10.86-11.92-6.36-21.11-14.46-35.68-14.5-18.89,0-32.56,10.41-48.1,19.39-20,11.55-41.33,29.52-65.9,26.5-19.25-2.37-36-14.37-53.73-21.57-24.19-9.81-66.34-23.05-87.7-3.33"/><path class="cls-24" d="M616.29,125c-12.61-3.2-25.3-8-37.47-9.76-11.59-1.66-22.34-.9-34.07.41-24.81,2.76-39.27,24-61.43,37.84C455.41,171,427.43,155.51,401.91,142c-12-6.33-21.26-14.45-35.81-14.56-19.2-.14-33,10.19-48.79,19.35-20.55,11.95-42.63,30.78-67.95,27.49-19.48-2.53-36.26-14.63-54.24-21.91-23.55-9.55-66.31-23.14-87-3.67"/><path class="cls-25" d="M618.14,122.29c-12.91-3.18-25.9-7.93-38.46-9.36-11.66-1.32-22.5-.11-34.2,1.56-24.53,3.51-38.75,25-60.86,38.83-28.07,17.68-56.3,1.43-81.9-12-12-6.31-21.41-14.46-35.93-14.63-19.53-.24-33.54,10-49.5,19.31-21.09,12.35-43.93,32-70,28.48-19.72-2.7-36.53-14.89-54.76-22.26-22.91-9.27-66.29-23.23-86.37-4"/><path class="cls-95" d="M620,119.64c-13.21-3.18-26.48-7.87-39.44-9-11.73-1-22.66.67-34.33,2.71-24.26,4.24-38.23,25.94-60.29,39.8-28.23,17.82-56.71.8-82.4-12.61-12-6.28-21.55-14.45-36-14.7-19.84-.33-34,9.75-50.19,19.28-21.64,12.75-45.24,33.3-72,29.47C225.3,171.77,208.46,159.48,190,152c-22.28-9-66.27-23.31-85.71-4.32"/><path class="cls-96" d="M621.83,117c-13.52-3.17-27.08-7.82-40.43-8.57-11.79-.65-22.82,1.45-34.45,3.86-24,5-37.73,26.93-59.74,40.79-28.38,18-57.11.17-82.88-13.2-12-6.25-21.7-14.44-36.17-14.76-20.16-.44-34.52,9.52-50.9,19.24-22.17,13.15-46.54,34.57-74.07,30.45-20.18-3-37.05-15.41-55.77-22.94-21.64-8.72-66.25-23.4-85-4.66"/><path class="cls-29" d="M623.68,114.34c-13.82-3.16-27.68-7.79-41.42-8.17-11.87-.34-23,2.23-34.58,5C524,116.87,510.47,139.09,488.51,153,460,171,431,152.48,405.14,139.17c-12.07-6.23-21.85-14.45-36.3-14.83-20.48-.55-35,9.3-51.59,19.2-22.72,13.55-47.85,35.84-76.12,31.44-20.41-3.17-37.32-15.67-56.27-23.29-21-8.45-66.23-23.48-84.38-5"/><path class="cls-97" d="M625.52,111.69c-14.12-3.16-28.27-7.76-42.4-7.78-11.94,0-23.14,3-34.71,6.16-23.46,6.41-36.69,28.89-58.6,42.76-28.69,18.22-57.93-1.11-83.86-14.37-12.11-6.2-22-14.45-36.43-14.9-20.79-.64-35.48,9.09-52.29,19.17-23.25,14-49.15,37.11-78.15,32.43-20.65-3.33-37.59-15.94-56.79-23.64-20.37-8.17-66.21-23.57-83.72-5.31"/><path class="cls-98" d="M627.37,109c-14.42-3.15-28.88-7.74-43.4-7.38-12,.29-23.29,3.77-34.83,7.31-23.19,7.12-36.18,29.87-58,43.73-28.85,18.36-58.34-1.73-84.35-14.95-12.14-6.17-22.16-14.44-36.55-15-21.11-.76-36,8.87-53,19.13-23.8,14.36-50.46,38.38-80.2,33.42-20.88-3.48-37.85-16.2-57.29-24-19.74-7.91-66.19-23.66-83.06-5.65"/><path class="cls-99" d="M629.22,106.39c-14.73-3.15-29.49-7.73-44.39-7-12.09.6-23.46,4.54-35,8.46-22.94,7.83-35.67,30.86-57.48,44.72-29,18.5-58.74-2.37-84.84-15.53-12.16-6.15-22.3-14.45-36.67-15-21.42-.87-36.46,8.64-53.69,19.09-24.33,14.76-51.76,39.66-82.24,34.41-21.11-3.64-38.11-16.47-57.8-24.33-19.1-7.63-66.17-23.74-82.39-6"/><path class="cls-34" d="M631.06,103.74C616,100.6,601,96,585.69,97.14c-12.17.9-23.62,5.31-35.08,9.62-22.68,8.52-35.16,31.84-56.91,45.7-29.16,18.63-59.15-3-85.33-16.12-12.2-6.12-22.45-14.45-36.79-15.09-21.75-1-36.95,8.42-54.39,19.05-24.87,15.17-53.07,40.94-84.29,35.4C211.56,171.91,194.53,159,174.59,151c-18.46-7.36-66.15-23.82-81.73-6.3"/><path class="cls-100" d="M632.91,101.09c-15.33-3.14-30.71-7.73-46.36-6.2-12.26,1.19-23.79,6.07-35.21,10.76-22.43,9.23-34.64,32.82-56.34,46.68-29.32,18.78-59.56-3.63-85.82-16.7-12.23-6.09-22.6-14.45-36.92-15.16-22.06-1.09-37.43,8.21-55.08,19-25.42,15.57-54.39,42.22-86.33,36.39-21.59-3.94-38.64-17-58.82-25-17.83-7.08-66.13-23.91-81.07-6.63"/><path class="cls-101" d="M634.76,98.44c-15.63-3.13-31.33-7.74-47.35-5.81-12.35,1.49-24,6.83-35.34,11.92-22.18,9.92-34.12,33.8-55.77,47.66-29.47,18.91-60-4.27-86.31-17.29-12.26-6.06-22.75-14.45-37.05-15.22-22.37-1.21-37.92,8-55.78,19-26,16-55.69,43.5-88.37,37.37-21.82-4.09-38.9-17.26-59.33-25.36-17.19-6.82-66.11-24-80.4-7"/><path class="cls-38" d="M636.6,95.79c-15.93-3.12-32-7.76-48.33-5.41-12.45,1.78-24.14,7.58-35.46,13.06-21.94,10.61-33.62,34.79-55.22,48.65-29.62,19-60.37-4.91-86.79-17.87-12.3-6-22.9-14.46-37.17-15.29-22.69-1.33-38.39,7.8-56.48,18.95-26.46,16.42-57,44.77-90.42,38.35-22-4.24-39.16-17.53-59.83-25.71-16.55-6.55-66.09-24.08-79.74-7.3"/><path class="cls-39" d="M638.45,93.14c-16.23-3.12-32.58-7.78-49.32-5-12.55,2.07-24.32,8.35-35.59,14.22-21.7,11.3-33.1,35.77-54.65,49.62-29.78,19.19-60.78-5.53-87.28-18.45-12.33-6-23-14.47-37.3-15.36-23-1.44-38.87,7.59-57.18,18.92-27,16.82-58.31,46.06-92.45,39.34-22.3-4.39-39.43-17.8-60.35-26.06-15.91-6.27-66.07-24.16-79.08-7.62"/><path class="cls-102" d="M640.3,90.49c-16.54-3.11-33.22-7.81-50.31-4.62-12.66,2.36-24.49,9.1-35.72,15.36-21.47,12-32.58,36.75-54.08,50.61-29.94,19.32-61.19-6.17-87.78-19-12.36-6-23.18-14.47-37.41-15.42-23.32-1.56-39.37,7.36-57.88,18.88-27.55,17.21-59.63,47.35-94.5,40.33-22.53-4.54-39.67-18.11-60.85-26.4-15.27-6-66.05-24.26-78.42-8"/><path class="cls-103" d="M642.14,87.83c-16.83-3.1-33.85-7.84-51.3-4.22-12.76,2.65-24.67,9.85-35.84,16.52-21.24,12.67-32.07,37.73-53.51,51.59-30.09,19.45-61.6-6.81-88.27-19.62-12.39-6-23.33-14.48-37.54-15.49-23.63-1.69-39.85,7.13-58.58,18.84-28.09,17.61-60.93,48.64-96.54,41.32-22.77-4.69-39.94-18.38-61.36-26.75-14.63-5.76-66-24.34-77.75-8.29"/><path class="cls-104" d="M644,85.18c-17.14-3.09-34.5-7.88-52.29-3.83C578.83,84.29,566.85,92,555.74,99c-21,13.36-31.56,38.72-53,52.57-30.24,19.6-62-7.43-88.75-20.2-12.42-5.93-23.48-14.5-37.67-15.56-23.94-1.83-40.34,6.92-59.27,18.81-28.63,18-62.26,50-98.59,42.31-23-4.81-40.2-18.64-61.87-27.1-14-5.48-66-24.42-77.09-8.61"/><path class="cls-44" d="M645.84,82.53c-17.44-3.09-35.15-7.92-53.28-3.43-13,3.22-25,11.36-36.09,18.82-20.81,14-31,39.7-52.39,53.55-30.4,19.73-62.41-8.07-89.24-20.79-12.46-5.9-23.63-14.49-37.79-15.62-24.27-1.93-40.83,6.69-60,18.77-29.17,18.41-63.56,51.23-100.62,43.3-23.25-5-40.47-18.9-62.38-27.44-13.36-5.21-66-24.51-76.43-8.95"/></g><g class="cls-105"><path class="cls-5" d="M511.09,112.66c-8.08,3.29-15.86,10.11-22.64,15.68-9.93,8.15-19.88,13-32.18,16.85-28.68,9.05-47-9.24-69.9-23.11-25.59-15.49-49.77-11.57-74.08,2.68-11.47,6.73-19,14.74-33.94,13.58-14.46-1.13-25.65-13.63-38.31-19.89-12.35-6.12-23.12-12.37-37.31-12.68-16-.34-32.27,10.75-46.62,16.73-33,13.78-66.61,21.86-97-1.28"/><path class="cls-85" d="M512.94,115.31c-8.38,3.28-16.56,10-23.63,15.29-10.14,7.64-20.06,12.15-32.31,15.69-28.44,8.24-46.46-10.21-69.33-24.09-25.75-15.63-50.18-10.94-74.57,3.27-11.51,6.7-19.19,14.73-34.07,13.64s-26.14-13.4-39-19.85-24.42-13.57-39.35-13.67c-16.26-.1-32.53,11-47.12,17.08-32.41,13.5-66.6,21.94-96.32-1"/><path class="cls-86" d="M514.79,118c-8.69,3.28-17.24,9.78-24.63,14.89-10.31,7.15-20.22,11.34-32.43,14.55-28.2,7.42-45.94-11.2-68.77-25.08-25.89-15.76-50.58-10.3-75,3.86-11.54,6.68-19.33,14.67-34.19,13.7-15.09-1-26.65-13.14-39.71-19.81-13.45-6.88-25.72-14.77-41.39-14.66-16.49.12-32.8,11.28-47.64,17.43-31.77,13.22-66.57,22-95.65-.63"/><path class="cls-87" d="M516.63,120.61c-9,3.27-17.91,9.61-25.61,14.5a100.73,100.73,0,0,1-32.55,13.39c-28,6.61-45.44-12.18-68.21-26-26.05-15.9-51-9.67-75.54,4.44-11.57,6.65-19.48,14.64-34.32,13.77-15.4-.91-27.14-12.91-40.4-19.78-14-7.26-27-16-43.44-15.64-16.72.33-33.06,11.53-48.14,17.76-31.14,12.95-66.56,22.12-95-.29"/><path class="cls-10" d="M518.48,123.26c-9.29,3.27-18.57,9.44-26.6,14.1a104.1,104.1,0,0,1-32.68,12.25c-27.72,5.8-44.92-13.17-67.64-27-26.21-16-51.4-9-76,5-11.6,6.63-19.62,14.62-34.43,13.84-15.72-.83-27.65-12.67-41.11-19.74-14.55-7.65-28.33-17.18-45.48-16.63-16.95.54-33.32,11.8-48.65,18.11-30.5,12.67-66.53,22.2-94.32,0"/><path class="cls-11" d="M520.33,125.91c-9.59,3.26-19.22,9.28-27.59,13.71a107.57,107.57,0,0,1-32.81,11.09c-27.47,5-44.4-14.14-67.07-28-26.37-16.17-51.81-8.4-76.53,5.61-11.63,6.6-19.77,14.59-34.56,13.9-16-.75-28.14-12.44-41.8-19.71-15.1-8-29.63-18.39-47.52-17.61-17.19.75-33.6,12.06-49.17,18.46-29.86,12.39-66.51,22.28-93.66.36"/><path class="cls-88" d="M522.17,128.56c-9.89,3.25-19.85,9.11-28.57,13.31a111,111,0,0,1-32.94,9.95c-27.21,4.2-43.89-15.13-66.51-29-26.52-16.3-52.22-7.76-77,6.2-11.66,6.57-19.92,14.57-34.69,14-16.35-.67-28.63-12.22-42.5-19.68-15.65-8.41-30.93-19.61-49.56-18.6-17.41,1-33.87,12.29-49.67,18.81-29.26,12-66.49,22.36-93,.69"/><path class="cls-89" d="M524,131.21c-10.19,3.25-20.48,9-29.56,12.92a114.24,114.24,0,0,1-33.06,8.79c-27,3.41-43.38-16.11-65.95-30-26.67-16.45-52.63-7.14-77.5,6.77-11.7,6.55-20.07,14.56-34.81,14-16.67-.59-29.12-12-43.2-19.64-16.2-8.8-32.23-20.84-51.61-19.59-17.64,1.14-34.13,12.55-50.18,19.15-28.62,11.77-66.47,22.46-92.33,1"/><path class="cls-15" d="M525.87,133.86c-10.5,3.24-21.1,8.81-30.55,12.53A117.65,117.65,0,0,1,462.13,154c-26.7,2.61-42.86-17.1-65.38-31-26.83-16.58-53-6.5-78,7.36-11.73,6.52-20.22,14.54-34.94,14.1-17-.5-29.61-11.75-43.9-19.6-16.74-9.19-33.53-22.07-53.65-20.58-17.87,1.33-34.4,12.81-50.68,19.5-28,11.49-66.45,22.54-91.68,1.35"/><path class="cls-90" d="M527.71,136.51c-10.79,3.24-21.71,8.67-31.53,12.13-11.18,3.94-21.4,5.67-33.32,6.49-26.43,1.83-42.35-18.07-64.81-31.95-27-16.72-53.45-5.86-78.48,7.95-11.76,6.49-20.37,14.52-35.06,14.16-17.31-.41-30.11-11.52-44.6-19.56-17.29-9.58-34.83-23.3-55.69-21.56-18.1,1.5-34.67,13.06-51.2,19.84-27.36,11.21-66.43,22.62-91,1.68"/><path class="cls-91" d="M529.56,139.17c-11.1,3.22-22.32,8.52-32.52,11.73-11.26,3.53-21.56,4.86-33.45,5.34-26.16,1-41.83-19.06-64.25-32.93-27.14-16.86-53.85-5.24-79,8.52-11.79,6.47-20.51,14.51-35.18,14.24-17.62-.33-30.6-11.3-45.3-19.53-17.83-10-36.13-24.54-57.73-22.55-18.33,1.68-34.93,13.32-51.7,20.18-26.73,10.93-66.42,22.71-90.35,2"/><path class="cls-92" d="M531.41,141.82c-11.4,3.21-22.92,8.4-33.52,11.33-11.33,3.14-21.71,4.07-33.56,4.19-25.9.28-41.33-20-63.69-33.91-27.29-17-54.26-4.6-79.46,9.11-11.82,6.44-20.66,14.49-35.31,14.3-17.93-.24-31.08-11.08-46-19.49C221.5,117,202.45,101.57,180.1,103.81c-18.56,1.86-35.2,13.59-52.21,20.53C101.8,135,61.5,147.14,38.21,126.68"/><path class="cls-20" d="M533.25,144.47c-11.7,3.21-23.51,8.29-34.5,10.94-11.4,2.75-21.87,3.27-33.69,3-25.63-.5-40.81-21-63.12-34.9-27.45-17.13-54.67-4-79.95,9.7-11.85,6.41-20.81,14.48-35.43,14.36-18.26-.14-31.58-10.85-46.7-19.45-18.92-10.77-38.73-27-61.82-24.53-18.79,2-35.46,13.85-52.72,20.88-25.45,10.37-66.37,22.88-89,2.67"/><path class="cls-93" d="M535.1,147.12c-12,3.2-24.11,8.18-35.49,10.54s-22,2.48-33.82,1.89c-25.35-1.25-40.29-22-62.56-35.87-27.6-17.27-55.07-3.34-80.43,10.28-11.89,6.38-21,14.47-35.56,14.43-18.57-.06-32.07-10.63-47.39-19.42-19.47-11.16-40-28.28-63.86-25.52-19,2.2-35.73,14.11-53.23,21.22-24.82,10.1-66.35,23-88.36,3"/><path class="cls-94" d="M537,149.77c-12.31,3.2-24.71,8.09-36.48,10.15-11.53,2-22.18,1.68-34,.74-25.08-2-39.78-23-62-36.86-27.76-17.4-55.48-2.7-80.92,10.86-11.92,6.36-21.11,14.47-35.68,14.5-18.89,0-32.56-10.41-48.1-19.38-20-11.56-41.33-29.53-65.9-26.51-19.25,2.37-36,14.37-53.74,21.57-24.18,9.82-66.33,23-87.69,3.34"/><path class="cls-24" d="M538.8,152.42c-12.61,3.19-25.3,8-37.47,9.75-11.6,1.67-22.34.9-34.07-.4-24.81-2.76-39.27-24-61.43-37.85-27.92-17.54-55.89-2.06-81.42,11.45-11.94,6.33-21.25,14.46-35.8,14.56-19.21.14-33.05-10.18-48.79-19.34-20.55-12-42.64-30.79-67.95-27.5-19.48,2.54-36.26,14.63-54.24,21.92-23.55,9.54-66.31,23.14-87,3.66"/><path class="cls-25" d="M540.64,155.07c-12.91,3.19-25.89,7.94-38.45,9.36-11.66,1.32-22.5.11-34.2-1.56-24.54-3.5-38.75-25-60.86-38.82-28.07-17.68-56.3-1.44-81.91,12-12,6.3-21.41,14.45-35.93,14.63-19.52.23-33.53-10-49.49-19.31-21.09-12.36-43.93-32.05-70-28.48-19.71,2.69-36.52,14.88-54.75,22.25-22.92,9.27-66.29,23.23-86.37,4"/><path class="cls-95" d="M542.49,157.72c-13.21,3.18-26.48,7.88-39.44,9-11.73,1-22.66-.68-34.33-2.71-24.26-4.24-38.24-25.95-60.3-39.81-28.22-17.82-56.7-.8-82.39,12.61-12,6.28-21.56,14.45-36,14.7-19.84.34-34-9.74-50.19-19.27-21.64-12.76-45.24-33.31-72-29.47-19.95,2.85-36.79,15.15-55.26,22.6-22.29,9-66.27,23.31-85.71,4.33"/><path class="cls-96" d="M544.34,160.37c-13.52,3.17-27.08,7.83-40.43,8.57-11.8.66-22.82-1.45-34.46-3.86-24-5-37.72-26.92-59.73-40.79-28.38-18-57.11-.16-82.88,13.2-12,6.25-21.71,14.45-36.18,14.76-20.16.44-34.51-9.52-50.89-19.24-22.17-13.15-46.54-34.56-74.07-30.45-20.18,3-37.06,15.41-55.77,23-21.65,8.72-66.25,23.39-85,4.65"/><path class="cls-29" d="M546.18,163c-13.81,3.17-27.67,7.79-41.42,8.18-11.86.33-23-2.23-34.57-5C446.46,160.5,433,138.28,411,124.42c-28.54-18.09-57.52.46-83.37,13.78-12.08,6.22-21.86,14.44-36.3,14.83-20.48.54-35-9.31-51.59-19.21C217,120.27,191.91,98,163.64,102.38c-20.41,3.17-37.32,15.67-56.28,23.29-21,8.45-66.23,23.49-84.38,5"/><path class="cls-97" d="M548,165.67c-14.12,3.16-28.27,7.76-42.41,7.78-11.93,0-23.13-3-34.7-6.16-23.46-6.4-36.7-28.89-58.6-42.75-28.7-18.23-57.93,1.1-83.86,14.36-12.11,6.2-22,14.45-36.43,14.9-20.79.65-35.49-9.08-52.29-19.17-23.25-13.95-49.15-37.1-78.16-32.43-20.64,3.33-37.58,15.94-56.78,23.64-20.37,8.17-66.21,23.57-83.72,5.32"/><path class="cls-98" d="M549.88,168.32c-14.42,3.16-28.88,7.74-43.4,7.39-12-.29-23.29-3.77-34.83-7.31-23.19-7.12-36.18-29.88-58-43.74-28.84-18.36-58.33,1.74-84.35,15-12.13,6.17-22.15,14.45-36.55,15-21.1.76-36-8.86-53-19.13-23.8-14.35-50.46-38.38-80.2-33.42-20.88,3.49-37.85,16.2-57.3,24-19.73,7.9-66.19,23.65-83.05,5.64"/><path class="cls-99" d="M551.72,171c-14.72,3.15-29.48,7.73-44.38,7-12.09-.59-23.46-4.54-35-8.46-22.93-7.82-35.66-30.85-57.47-44.72-29-18.49-58.74,2.37-84.84,15.54-12.17,6.14-22.3,14.44-36.67,15-21.43.86-36.46-8.65-53.69-19.1-24.33-14.76-51.76-39.65-82.24-34.4-21.12,3.63-38.11,16.46-57.8,24.33-19.1,7.62-66.17,23.73-82.4,6"/><path class="cls-34" d="M553.57,173.62c-15,3.15-30.09,7.73-45.37,6.6-12.17-.9-23.63-5.31-35.08-9.61-22.68-8.53-35.16-31.84-56.91-45.7-29.16-18.64-59.15,3-85.33,16.12-12.2,6.11-22.45,14.44-36.8,15.09-21.74,1-36.94-8.43-54.38-19.06-24.88-15.16-53.08-40.93-84.29-35.39C134.06,105.45,117,118.4,97.1,126.34,78.64,133.7,31,150.17,15.37,132.65"/><path class="cls-100" d="M555.42,176.28c-15.33,3.13-30.71,7.72-46.36,6.2-12.26-1.2-23.79-6.07-35.21-10.77-22.43-9.22-34.64-32.82-56.34-46.68-29.32-18.77-59.56,3.64-85.82,16.7-12.23,6.09-22.6,14.45-36.92,15.16-22.06,1.09-37.44-8.21-55.09-19-25.41-15.57-54.38-42.21-86.32-36.38-21.59,3.94-38.64,17-58.82,25-17.83,7.09-66.13,23.91-81.07,6.64"/><path class="cls-101" d="M557.26,178.93c-15.62,3.12-31.32,7.73-47.34,5.8-12.36-1.49-24-6.83-35.34-11.91C452.4,162.9,440.46,139,418.8,125.15c-29.47-18.9-60,4.27-86.3,17.29-12.27,6.06-22.75,14.45-37.05,15.23-22.37,1.2-37.92-8-55.78-19-25.95-16-55.69-43.5-88.37-37.37-21.82,4.09-38.9,17.26-59.33,25.37-17.19,6.81-66.11,24-80.4,7"/><path class="cls-38" d="M559.11,181.58c-15.93,3.12-32,7.75-48.33,5.41-12.45-1.79-24.14-7.59-35.47-13.07-21.94-10.61-33.61-34.78-55.21-48.64-29.62-19-60.37,4.9-86.8,17.87-12.29,6-22.89,14.46-37.17,15.29-22.68,1.32-38.38-7.81-56.48-18.95-26.46-16.43-57-44.78-90.41-38.36-22.06,4.24-39.16,17.53-59.84,25.71-16.55,6.55-66.08,24.09-79.74,7.3"/><path class="cls-39" d="M561,184.23c-16.23,3.11-32.58,7.78-49.33,5-12.55-2.07-24.31-8.34-35.58-14.21-21.71-11.3-33.1-35.77-54.65-49.63-29.78-19.18-60.78,5.54-87.29,18.45-12.32,6-23,14.47-37.29,15.36-23,1.44-38.88-7.58-57.18-18.91-27-16.82-58.31-46.07-92.46-39.35-22.29,4.39-39.42,17.81-60.34,26.06-15.91,6.28-66.07,24.17-79.08,7.63"/><path class="cls-102" d="M562.81,186.88c-16.54,3.11-33.22,7.81-50.32,4.62-12.65-2.36-24.49-9.1-35.71-15.37-21.47-12-32.59-36.75-54.08-50.61-29.94-19.32-61.19,6.17-87.78,19-12.36,6-23.19,14.47-37.42,15.42-23.32,1.56-39.36-7.36-57.88-18.87-27.54-17.22-59.62-47.36-94.49-40.34-22.54,4.54-39.68,18.11-60.86,26.41-15.26,6-66,24.25-78.41,7.95"/><path class="cls-103" d="M564.65,189.53c-16.83,3.1-33.85,7.84-51.3,4.22-12.76-2.64-24.67-9.85-35.84-16.51-21.25-12.67-32.07-37.74-53.52-51.59-30.09-19.46-61.59,6.8-88.26,19.62-12.39,5.95-23.34,14.48-37.54,15.49-23.64,1.68-39.86-7.14-58.58-18.84-28.09-17.62-60.94-48.65-96.54-41.32-22.77,4.68-39.94,18.37-61.36,26.74-14.63,5.76-66,24.34-77.76,8.29"/><path class="cls-104" d="M566.5,192.18c-17.14,3.1-34.5,7.88-52.29,3.83-12.88-2.93-24.86-10.61-36-17.67-21-13.35-31.55-38.72-52.95-52.57-30.25-19.59-62,7.44-88.75,20.2-12.42,5.93-23.48,14.51-37.67,15.56-23.95,1.83-40.34-6.91-59.28-18.8-28.63-18-62.25-50-98.58-42.31-23,4.8-40.2,18.63-61.87,27.09-14,5.48-66,24.43-77.09,8.62"/><path class="cls-44" d="M568.35,194.83c-17.44,3.09-35.15,7.92-53.28,3.43-13-3.21-25-11.36-36.09-18.81-20.81-14-31.05-39.7-52.39-53.56-30.4-19.73-62.42,8.07-89.24,20.79-12.46,5.91-23.63,14.5-37.8,15.62-24.26,1.94-40.83-6.68-60-18.76C210.41,125.13,176,92.3,139,100.24c-23.24,5-40.46,18.9-62.37,27.44-13.37,5.2-66,24.51-76.43,8.94"/></g><path class="cls-106" d="M509.18,29c-1.18-.05-4.55,1.64-4.91,1.59a55,55,0,0,0-9,.23c-3.4.48-5.11.87-5.85.74s-4.06,1.3-6.21,2-5-.06-6.89.81a7.58,7.58,0,0,0-2.87,2.51c-.41.35-7.3,6.23-10.22,12.57s-6.95,15.33-7.35,16S452,68.55,451,70.75s-1.58,2.78-1.76,4a17.94,17.94,0,0,1-.69,2.3c-.13.63-1.48,2.73-1.69,3.34s-.43.64-.92,1.94a17,17,0,0,0-.94,3.2,1.12,1.12,0,0,0,.61,1,17.77,17.77,0,0,0-.54,2.9,1.11,1.11,0,0,0,.75,1.15A1.58,1.58,0,0,0,445.9,92a1.33,1.33,0,0,0,1.84,0c.32-.38.81-1,.81-1a.83.83,0,0,0,.59,1.06c.83.22,3.64-3.8,5.14-5.44s2.41-2.4,2.41-2.27a3.2,3.2,0,0,0,1.81,1.84c1.1.28,2.17-.18,2-.72s-1.28-.84-1.36-2.5,1.89-4.29,2.1-6.34-.28-4.29,0-5.54,2.17-2,4.68-6.44,4.24-6.24,6.43-7.92,11.19-9.17,11.81-10,.84-.87.84-.87a19.07,19.07,0,0,0,4.14,1.08c2.58.41,3,.2,3,.2a171.77,171.77,0,0,0-6.82,18.24c-3,9.71-5.37,20.5-6.49,23.26A11.64,11.64,0,0,1,475.47,93a6,6,0,0,0-1.28.46c-.41.26-9.3,7-11.19,11.19s-2,13.7-4.34,16.76-6.75,5-10.94,13-6.33,13.7-11.55,16.76-12.77,6.44-16.76,12.57-8.89,13.29-11.8,16.35a70.86,70.86,0,0,1-7.23,6.16,2.42,2.42,0,0,0-.33.51s-.74.39-1.08.23a52.62,52.62,0,0,0-6.26.05c-.53.1-2.53-.41-4.08.33s-2.89,3.86-3,6.16,2.3,8.18,2,15.23,1,9.56,2.4,11,5.26,5.06,8.18,5.41,5.62-.15,6.18-1.53.36-1.63-.51-2.61a15.13,15.13,0,0,1-2.25-5.16c-.15-1.07.21-6.23.77-7.15s1.84-1.94,2.45-3.17,1.18-1.68.82-2.45a7.38,7.38,0,0,1-.41-1,30.15,30.15,0,0,1,1.23-3.48c.4-.71,1.63-1.33,2.76-2.86s3.27-7.25,7.56-10.12a120.33,120.33,0,0,0,14.31-11.14c5.31-4.8,12.36-5.82,17.17-10.22s3.57-4,7.15-6.74,14.15-10.12,20.18-16.56a128.28,128.28,0,0,1,15.33-13.59c.51-.2,4.86,2.1,11.35,2s11.7.26,16.09.31,5.37.72,5.37.72-8.23,7-10.53,11-2.5,4.55-3.78,6-7.15,7.95-8.86,9.38-2.46,1.87-2.46,2.12a1.54,1.54,0,0,1-.07.46s-2.25,1.64-2.4,1.66-.57-.13-.87.15a2.87,2.87,0,0,1-1.13.64c-.23,0-.61-.41-1.3-.12s-4.44,3.62-5.26,4.24-2.66,1.27-3.73,2.81a4.45,4.45,0,0,0,.2,4.85c.82,1.13,9.2,6.34,12.52,9.25s7.08,7.51,10.86,9.07,7.67,1.84,9.17,1.07,2.53-2,2.15-2.76-.51-.56-.67-1.15a4,4,0,0,0-1-1.58c-.2-.13-3.32-4.32-5.57-6.11a8.51,8.51,0,0,1-3.22-4.95c-.05-.82-.61-3.48-.25-5s.66-2.35.1-2.86-.92-.82-.92-.82l.56-.92a.63.63,0,0,0,.92-.31,47.82,47.82,0,0,1,12.11-12c6.75-4.4,10.53-7,14.11-10.22s6.9-5.42,9.66-8.79a18.43,18.43,0,0,0,3.88-8.84c0-1.13-3.53-7.92-11.65-12.73s-15.53-8.32-21.87-10a55.86,55.86,0,0,1-9.3-3.07s2.4-4.59,3.83-8.27a21.61,21.61,0,0,1,4-6.39s2.55,3.78,4.9,6.64,2.71,3.32,4.09,2.76,21.57-11.09,26.37-15.89,5.93-5.47,7.56-5.93a18.49,18.49,0,0,0,7.77-5.06c2.09-2.6,2.61-3.32,3.12-3.83a46.55,46.55,0,0,0,4.42-4c1.4-1.66,1.84-2.25,1.4-2.91s-.66-.79-1.56-.18-3.39,2.91-4.14,3.58-1.25.71-1,.25,4.86-4.65,5.93-6,1.48-2,1-2.58-.71-.59-1.51,0-5.06,4.06-5.06,4.06a58.15,58.15,0,0,0,4.37-5.37c.54-1.07-.07-2.19-.92-2.14S566,53,564.85,54.35s-2.55,3.22-3.06,3a.72.72,0,0,1-.21-1.07c.15-.26,2.86-5.57,3.73-7.46s.61-2.76-.1-2.92S564,47,562.71,48.52s-3.63,6.08-3.63,5.72.3-2.35-.72-2.6-1.28.61-1.28,1.48a4.66,4.66,0,0,1-.66,2.81c-.72,1.33-2.55,2.56-3.53,4.7s-1.48,5.93-2.09,6.49-10.42,6.49-12.88,7.67-5,.56-7.66.61a9.82,9.82,0,0,0-4,.77s1.43-5.37.36-9.2-3.58-6.75-3.58-7a19.13,19.13,0,0,0,0-8.59c-1.12-4.5-1.94-6.74-1.84-7.87s1.28-3.68,3.58-5.92,3-2.46,4.24-2,4.5,1,5.72.41,1-2.35,1.69-3.12,1.51-.69,1.74-1.38-.21-.92,0-1.12.36-.18.41-.66-.26-1.26-.13-1.67.74-.33,1.1-.69,1-.15,1.64-.79,0-1.73-.9-3.34a7.34,7.34,0,0,1-1-3.71c.1-.38.92-.69,1-2.17s-.92-2.5-1.38-4.5-.15-3.42-1.22-5.57C533.26-1.58,521.21-1.95,514.88,4,511.4,7.28,512,13,512,16s.92,5.52-.1,8A37.13,37.13,0,0,1,509.18,29Z"/><path class="cls-107" d="M570.07,84.22c-.93,3.15-3.15,2.8-6.41,7.47s-3.74,6.3-4,6.88.22-5.73.57-7.95,2.27-11.17,3.47-13.41,6.65-13.6,6.65-13.6a13.63,13.63,0,0,0,3.73-.11,11.84,11.84,0,0,1,.11,4.68c-.41,3.09-3.21,12.89-4.15,16ZM608.64,23c-.17.64-1.75,4.26-3.38,5.72a2.24,2.24,0,0,0-1.16-.32c-.76,0-3.47,2.25-4.82,2.89s-2.85.23-5.19,2-5.07,5.42-6.88,6.77-2.28.05-7,1.28S568.48,47.84,564.69,51s-4.67,3.2-5.83,3.79a4.42,4.42,0,0,0-2.57,2.68c-.93,1.87-1.87,4.78-4,12s-1.11,22.22-1.11,24.15-.52,2.22-2,5.25a12.42,12.42,0,0,0-.93,6.94c.11.53-.53,1.75-1,3.21s.52,1.87,1.22,2,1.46-1.81,1.58-2.16.46-.23.4.64-.93,2.28-1,3.68,2.16,2.22,2,2.33a49.64,49.64,0,0,1-6.77,12.95c-4.78,6.42-5.37,22.06-5.37,22.06a9.58,9.58,0,0,1-3,2.21c-2.1,1.05-12.25-3.26-16.8-3.85s-4.67,0-8.52.93-20.07,0-21.47-1.16-4.43-4.55-6.3-6.42-2.8-2.8-5.71-2.45-3.62.93-6.19,6.07-8.05,10.27-11.67,15.63a20.09,20.09,0,0,0-3.44,13.3c.35,2.39,1.23,3.33,4,2.92S468.84,170.22,473,167a18.19,18.19,0,0,1,8.87-3.62,36.87,36.87,0,0,0,4.2-1.75c1.52-.82,1.05-.47,1.75-.12s4.78-.46,12.6.35a178.09,178.09,0,0,1,25.9,4.9c7.59,2.1,14.82,3.62,17.39,3.27s9.33-9.45,18.43-19.6A67.83,67.83,0,0,0,575,128.81a116.15,116.15,0,0,0,17,14c10.85,7.46,13.65,9.56,15.17,12.48s1,8.17,1.28,13.88a49,49,0,0,0,3.73,16.92c2.22,5.14,2.39,19.4,2.39,19.86s-.08.5-.4.91-.09,2.86-.09,2.86a3.47,3.47,0,0,1-.76,1.22c-.7.88-.82,3.27-.93,4a19.18,19.18,0,0,1-.53,3.15,8.65,8.65,0,0,0-1.22,4.67c.17,2.27,1.57,1.75,5.6,2.39s15.57-.59,19.42-.59,12.49-3.55,14-4.31,2-3,2.28-4-.76-.87-.82-1.34-2.86-2.1-4.31-1.81a26.07,26.07,0,0,1-7.59.41c-3.79-.29-5.37-3.33-6.42-4s-1.16-1-2.45-1.86-2.1,1.63-2.45,1.16a14.64,14.64,0,0,1-.93-2.68,5.19,5.19,0,0,1,.23-1c.18-.47-.35-1.57-1.16-3.38s-1.52-19.49-2.1-32,1.28-16.8,1.4-18a11.23,11.23,0,0,0-2.8-7.82c-2.57-2.56-6.07-11.2-12.72-19s-17.79-17.39-17.79-17.39-.53-1.57,1.16-4.72,3-5.08,5.08-8.75A75.56,75.56,0,0,0,602.05,86s.76-.24,4.14-1,18.64-6.3,18.64-6.3a8.58,8.58,0,0,1,3-.43c1.6.08,10.2-.5,11.31-1.26s.44-1,.47-1.22a14.59,14.59,0,0,1,.79-1.4,4.18,4.18,0,0,0,.06-2,9.33,9.33,0,0,0,.49-1.6c.12-.7-.41-1.4-.47-1.72s.59-1,.65-1.58-.21-1.28-1.49-1.72-2.16-1.19-3.79-1.14a4,4,0,0,0-3.56,1.58c-1.23,1.34-4.64,3.79-5.17,4.4s-2,.53-5.33,1.17-11.44.38-11.44.38a53.34,53.34,0,0,1,2.45-5.08c1.17-2,2.74-3.32,3.33-7.35s-1.93-11.58-2-11.78a8.07,8.07,0,0,1,.41-3.06c.5-1.64,5.69-5.81,6.48-6s4,.41,5.6.73a1.9,1.9,0,0,0,2.51-1.4,8.28,8.28,0,0,1,1.43-2.16,1.21,1.21,0,0,0,.72-.29,1.19,1.19,0,0,0,.15-1,1.67,1.67,0,0,0-.47-.62,5.2,5.2,0,0,0,1.67-.49c.75-.41.11-1.75.17-2s.47-.53,1.34-.65,1.52-.76,1.11-2.33a13.23,13.23,0,0,1-.23-5.13c.29-.65,1.4-1.4,1.34-2.4s1.75-5.71-.58-9.91c-4.42-7.95-15-11.78-22.52-5.37-3.15,2.68-4.32,5.19-4.2,9.28A37.58,37.58,0,0,1,608.64,23Z"/><path class="cls-108" d="M394.09,37.29c-1.13,0-4.36,1.57-4.7,1.52a52.36,52.36,0,0,0-8.64.22c-3.26.46-4.9.83-5.61.71s-3.89,1.25-5.94,1.88-4.8,0-6.61.79a7.29,7.29,0,0,0-2.74,2.39c-.39.35-7,6-9.79,12S343.4,71.53,343,72.21s-3.72,2.94-4.65,5-1.52,2.67-1.69,3.8a17.36,17.36,0,0,1-.66,2.2c-.12.61-1.42,2.62-1.61,3.21s-.42.61-.88,1.86a15.82,15.82,0,0,0-.91,3.06,1.1,1.1,0,0,0,.59,1,17.11,17.11,0,0,0-.52,2.77,1.06,1.06,0,0,0,.71,1.1,1.57,1.57,0,0,0,.09,1.34,1.28,1.28,0,0,0,1.76,0c.31-.37.77-1,.77-1a.8.8,0,0,0,.57,1c.79.21,3.48-3.65,4.93-5.22s2.3-2.3,2.3-2.17A3.08,3.08,0,0,0,345.55,92c1.05.27,2.08-.17,1.88-.69s-1.22-.8-1.3-2.39,1.81-4.12,2-6.07-.27-4.12,0-5.31,2.08-2,4.48-6.17,4.06-6,6.17-7.59,10.72-8.78,11.3-9.59.81-.83.81-.83a18.57,18.57,0,0,0,4,1c2.47.39,2.91.2,2.91.2A163.82,163.82,0,0,0,371.24,72c-2.83,9.3-5.14,19.63-6.21,22.27a11.12,11.12,0,0,1-3.23,4.26,5.82,5.82,0,0,0-1.23.44c-.39.25-8.9,6.71-10.72,10.72s-1.9,13.12-4.16,16.06-6.46,4.79-10.47,12.43-6.07,13.12-11.06,16.05-12.24,6.17-16.06,12S299.59,179,296.8,182a68.37,68.37,0,0,1-6.93,5.9,2.52,2.52,0,0,0-.32.49s-.71.36-1,.22a48.33,48.33,0,0,0-6,0c-.51.09-2.42-.4-3.92.31s-2.76,3.7-2.91,5.9,2.2,7.83,1.91,14.59.93,9.15,2.3,10.57,5,4.85,7.83,5.19,5.39-.15,5.93-1.47.34-1.57-.49-2.5a14.53,14.53,0,0,1-2.16-4.94c-.14-1,.2-6,.74-6.85s1.76-1.86,2.35-3,1.12-1.61.78-2.35a7,7,0,0,1-.39-.93,29,29,0,0,1,1.17-3.33c.39-.68,1.57-1.27,2.65-2.74s3.13-7,7.24-9.69a115.55,115.55,0,0,0,13.71-10.67c5.09-4.6,11.84-5.58,16.44-9.79s3.43-3.82,6.85-6.46,13.56-9.69,19.34-15.86a122.28,122.28,0,0,1,14.68-13c.49-.19,4.65,2,10.87,2s11.21.25,15.42.29,5.14.69,5.14.69-7.88,6.71-10.08,10.57-2.4,4.36-3.63,5.73-6.85,7.61-8.49,9-2.35,1.79-2.35,2a1.4,1.4,0,0,1-.07.44s-2.15,1.57-2.3,1.59-.54-.12-.83.15a2.87,2.87,0,0,1-1.08.61c-.22,0-.59-.39-1.25-.12s-4.26,3.48-5,4.06-2.54,1.23-3.57,2.69a4.29,4.29,0,0,0,.19,4.65c.79,1.08,8.81,6.07,12,8.86s6.77,7.2,10.4,8.69,7.34,1.76,8.78,1,2.43-1.93,2.06-2.64-.49-.54-.64-1.1a3.69,3.69,0,0,0-1-1.52c-.19-.12-3.18-4.14-5.33-5.85a8.2,8.2,0,0,1-3.09-4.75c0-.78-.58-3.33-.24-4.8s.64-2.25.1-2.74-.88-.78-.88-.78l.54-.88a.6.6,0,0,0,.88-.29,45.55,45.55,0,0,1,11.6-11.51c6.46-4.21,10.08-6.75,13.51-9.79s6.6-5.18,9.25-8.41a17.67,17.67,0,0,0,3.72-8.47c0-1.08-3.38-7.59-11.16-12.19s-14.88-8-20.95-9.54a53.66,53.66,0,0,1-8.91-2.94s2.3-4.41,3.67-7.93a20.61,20.61,0,0,1,3.87-6.12s2.45,3.62,4.7,6.36,2.59,3.19,3.91,2.65S427,90.6,431.58,86s5.68-5.23,7.25-5.67a17.77,17.77,0,0,0,7.44-4.85c2-2.49,2.49-3.18,3-3.67A44.38,44.38,0,0,0,453.49,68c1.34-1.59,1.76-2.16,1.34-2.79s-.63-.76-1.49-.17-3.26,2.79-4,3.42-1.2.69-1,.25,4.65-4.46,5.67-5.7,1.42-2,.93-2.48-.68-.56-1.44,0-4.85,3.9-4.85,3.9a59.79,59.79,0,0,0,4.19-5.14c.51-1-.08-2.11-.88-2.06s-3.53,3-4.6,4.36-2.45,3.08-2.94,2.84a.71.71,0,0,1-.2-1c.15-.25,2.75-5.34,3.58-7.15s.58-2.64-.1-2.79-1.13,1.13-2.4,2.55-3.47,5.82-3.47,5.48.29-2.25-.69-2.5-1.22.59-1.22,1.42a4.47,4.47,0,0,1-.64,2.69c-.68,1.28-2.45,2.45-3.38,4.51s-1.42,5.67-2,6.21S424,80,421.62,81.13s-4.79.53-7.34.58a9.41,9.41,0,0,0-3.87.74s1.37-5.14.35-8.81-3.43-6.46-3.43-6.76a18.31,18.31,0,0,0,0-8.22c-1.08-4.31-1.86-6.46-1.76-7.54A11.45,11.45,0,0,1,409,45.44c2.21-2.15,2.84-2.35,4.07-1.91s4.3,1,5.48.4,1-2.26,1.61-3,1.45-.66,1.67-1.32-.2-.88,0-1.08.35-.17.4-.63-.25-1.2-.13-1.6.71-.31,1.06-.66,1-.14,1.56-.75,0-1.67-.85-3.21a7,7,0,0,1-.94-3.55c.1-.37.89-.66,1-2.08s-.88-2.4-1.32-4.31-.14-3.28-1.17-5.33c-4.22-8.45-15.76-8.8-21.83-3.09-3.33,3.14-2.79,8.57-2.79,11.51s.88,5.28-.1,7.63A36.34,36.34,0,0,1,394.09,37.29Z"/><path class="cls-109" d="M151.8,205.57l-.2,0s1.05-1.58.2,0Zm126-139.47s-4.05,2.5-11.85,7.94-15.52,15.41-21.06,20.65-8.25,5.11-8.25,5.11-.46-.25-1.49.16a49.57,49.57,0,0,0-10.86,6.39c-4.11,3.39-6.58,16.75-8.73,19.93s-3.49,3.08-9.66,7.91-14.28,18.59-18.18,22.19-6.47,5.44-13.87,8.32-13.87,13.46-19.72,21-9.76,9.5-10.22,10-.31.15-1.54,0-6.22,1.65-6.89,1.85-2.46-.51-3.75,0-2.51,4.11-2.62,5.19a23.71,23.71,0,0,0,.16,3c.05,1.49.28,6.58.51,7.5a10.65,10.65,0,0,1,.21,2.29,15.05,15.05,0,0,0,.41,1.74,5,5,0,0,1-.1,2.16c-.26,1.08.15,1.57.15,2.54s.36.82.56,1.59a6,6,0,0,0,1,2.26,5.48,5.48,0,0,1,1,1.85,2.74,2.74,0,0,0,1.54,1.34c.51.26.92,1.13,1.59,1.69s1,.41,1.75.57.72.46,1.9.41.92-.1,1.9-.1a44.29,44.29,0,0,0,6.67-.77,6.27,6.27,0,0,0,2.21-2.78,1.35,1.35,0,0,0-.61-1.38,5.35,5.35,0,0,0-1.08-1c-.72-.51-3.24-1.34-3.6-1.75s-.31-1.07.31-2.51.51-3.91.87-4.47,2-2.11,2.52-2.88-.46-1.8-.46-1.8A21.49,21.49,0,0,1,151,207c.38-.65.65-1.12.82-1.45a1.65,1.65,0,0,0,.93-.6c.57-.67,6.21-8.42,8.48-10.48a102.24,102.24,0,0,1,20.64-16.13c12.74-7.7,5.14-3.49,11-5.54s7.91-4.57,7.91-4.57.36-.21,2.26-1.13,10.53-6.63,19.16-13.41,23.42-15.82,23.42-15.82A42.76,42.76,0,0,1,253,140c5,1.74,12.22,2.46,15.51,3.08s11.61,4.11,11.61,4.11-3.91,2.67-9.14,6.67-4.63,5.76-7.71,9.56-12.87,8.94-13,9-.11.64-.36.77-3.39,2.28-3.39,2.28a6,6,0,0,1-.72,0c-.36-.05-1.18.46-1.9.62s-1-.26-2.31.36-4.68,4.77-4.68,4.77a8.32,8.32,0,0,0-2.26.88c-1.18.67-1.69,3.23-1.54,4.21a8.62,8.62,0,0,0,1.95,3.29,15.26,15.26,0,0,0,1.8,1.74,29,29,0,0,0,3.39,2.62c1.85,1.39,2.31,1,3.9,2.26a61,61,0,0,1,5.5,5.09c0,.25.72.72,1.8,1.64a17.24,17.24,0,0,0,2.51,1.64c1.24.83,1.85,1.19,2.93,1.9a13.19,13.19,0,0,0,2.06,1c.41.26,1.33.16,2.15.57a5.63,5.63,0,0,0,2.57.51c.87,0,1.08.21,2.31.21a3.4,3.4,0,0,0,2.78-1.65,2.11,2.11,0,0,0,.1-1.54c-.16-.41-.16-.41-.52-1.44s-4-3.75-4-3.75a5.42,5.42,0,0,0-1.24-1.33c-.92-.77-1.54-.72-2.87-2.06s-1.54-3.59-2.06-5.59.11-4.27-.36-5.45a4.13,4.13,0,0,1,.31-2.77,1.41,1.41,0,0,1,.62-.36c.31,0,1.18-2.88,3.75-4.62s8.11-6.17,14.48-8.32,17.05-11.3,18.7-12.33a55.54,55.54,0,0,0,7.19-5.14c3.9-3.18,4.52-6.47,4.52-7.55s-1.18-2.26-2.72-4.93-7.91-10.27-10.89-12.22-16.34-9.92-18.7-10.22-6.93-3-6.93-3a31.93,31.93,0,0,1,5.65-4.22c2.31-1.13,4.82-1.13,7-1.59a6.13,6.13,0,0,0,3.44-2.16s.05-.15,2.26-.77,5.09-3.54,5.09-3.54a6.32,6.32,0,0,1,1.33-.46c1.34-.41,5.55-2.21,5.55-2.21s.1,0,.36.87,3.65,8.58,5.39,13.15,5.81,9.14,8.12,9.92,1.39-.11,3.59-1,6.06-1.85,12-3.6,19.88-11.35,20.91-12.22,2.56-.62,5.54-2.62a26,26,0,0,0,5.29-5,31.37,31.37,0,0,1,3-2.95A32.64,32.64,0,0,0,367,93.24a2.16,2.16,0,0,0,.36-1.11.65.65,0,0,0-.08-.67c-.26-.25-1.23.13-1.59.21s-1.6.46-2.16.56a21.58,21.58,0,0,0-3.26,1.57c-.57.33,1-1.28,1.33-1.72a13.85,13.85,0,0,1,3-2.18,11.29,11.29,0,0,0,2.63-1.69,1.73,1.73,0,0,0,.18-.82,2.44,2.44,0,0,0,0-.66c-.1-.31-.31-.3-1.19,0s-2,.45-3,.81a21.58,21.58,0,0,0-3.14,1.9s.49-.54.9-1a27.89,27.89,0,0,1,2.36-2c.88-.64,2.52-2,2.62-2.49a1.45,1.45,0,0,0-.13-.9,1.1,1.1,0,0,0-.43-.69c-.39-.28-.52,0-1.83.54s-3.39,1.72-4.34,2.21-3.08,3.11-3.28,3,1.1-2.43,1.64-3.41a11.72,11.72,0,0,1,2.31-2.7,6.35,6.35,0,0,0,1.57-2.46.84.84,0,0,0-.13-.53,3,3,0,0,0-.22-.55.67.67,0,0,0-.87-.21c-.29.21-2.07,1.92-3.23,2.71a7.13,7.13,0,0,0-2,1.85c-.41.57-2.61,4-2.61,4a10,10,0,0,0-.5-3,1.29,1.29,0,0,0-.77-.64c-.14-.08-.8-.44-1.12,0s-.24,2.67-.86,4.31-1.44,1.85-2.52,3.39-.72,6.53-.82,6.89-.2.46-2.31,1.49-12.22,5.13-14.33,4.93-9.55-.36-9.55-.36.51-5.5-.52-8.79-4.11-5.44-4.26-5.9,1.08-3.39.72-6.94a15.81,15.81,0,0,0-2.16-6.31,34.05,34.05,0,0,1,2.77-2.57c1-.72,4.63-1.65,5.86-1.8s3.49.77,5.7,2.31,2.67.46,3.9-1,1.13-2.34,1.13-2.34a5.27,5.27,0,0,1,.67-.18c.62-.16.54-.51.62-1s-.34-.59-.29-.85,1.13-.31,1.49-.64.11-.8.18-1.34a1,1,0,0,1,1.16-.9c.64.06,2.52.31,2.75-.53s-.59-4.73-.75-5.35a3.6,3.6,0,0,1,1.34-2.92,4.91,4.91,0,0,0,1.38-3.91c-.05-1.44-.31-8.88-4-12-7.76-6.46-21.6-6.34-25,5-1.33,4.52-1.33,5.7-2.41,7.86a34.32,34.32,0,0,1-2.62,4.26,42.13,42.13,0,0,1-4.52-1,27.58,27.58,0,0,0-6.68-.82c-.51,0-3.49-2.26-8.83-4.62s-13.61-3.18-14.64-3.59a8.26,8.26,0,0,0-3.08-1c-1.13,0-2.21.82-4.21,1.18a60.11,60.11,0,0,0-16.49,4.72c-7.4,3.5-14,7.76-14.74,7.92s-2.78-.67-4.68-.88-2.41.67-3.18.52-1.7-1.24-2.42-1.9-1.38,0-1.95,1.07.57,3.09.57,3.09a3.79,3.79,0,0,1-1.13-.11,24.17,24.17,0,0,1-2.78-.92,25.25,25.25,0,0,0-5.06-.59,5.1,5.1,0,0,0-1.23.15,1.12,1.12,0,0,1-.41.08,10.75,10.75,0,0,0-2.31.33c-.44.21,0,.59,0,.59a5.33,5.33,0,0,0-.7.72c-.2.31-.43.72.88,1.08a11.4,11.4,0,0,0,3.39.13,1.39,1.39,0,0,0,.15.85c.23.38.39.41,1.44.64s4.55,1.16,5.88,2.39,1.9,2.31,4,2.62,8.42-4.06,8.42-4.06A14.77,14.77,0,0,1,236,66.2c2.42-.21,9.66-2.77,13.46-3.49a100.08,100.08,0,0,1,14.28-1.08,23,23,0,0,0,7-1.18s.36.41,1.39,1.74S277.17,65.84,277.79,66.1Z"/></g></g></g></svg>