<svg xmlns="http://www.w3.org/2000/svg" xmlns:xlink="http://www.w3.org/1999/xlink" width="393.998" height="275.987" viewBox="0 0 393.998 275.987">
  <defs>
    <linearGradient id="linear-gradient" x1="-13.86" y1="1" x2="-13.86" gradientUnits="objectBoundingBox">
      <stop offset="0.863" stop-color="#ffda7d"/>
      <stop offset="1" stop-color="#feac22"/>
    </linearGradient>
    <linearGradient id="linear-gradient-2" x1="71.38" y1="3.612" x2="71.509" y2="3.307" gradientUnits="objectBoundingBox">
      <stop offset="0" stop-color="#cfeaf9"/>
      <stop offset="1" stop-color="#e5e8ec"/>
    </linearGradient>
  </defs>
  <g id="Grupo_31726" data-name="Grupo 31726" transform="translate(564.377 -2155.646)">
    <path id="Trazado_66237" data-name="Trazado 66237" d="M-182.5,2347.65c-11.273-3.633-17.559-10.233-46.232-.33s-68.662,25.4-89.182,26.629c-23.7,1.414-57.234-3.462-56.526-45.328.942-55.779,34.445-92.177,65.477-116.584,21.275-16.73,38.754-25.071,58.54-27.156s53.275-8.564,68.054-14.806,51.813-26.38,76.256-4.454c25.605,22.974,123.729,137.114-3.438,191.741C-150.335,2374.885-161.135,2354.532-182.5,2347.65Z" transform="translate(-124.551)" fill="#fbecdb"/>
    <g id="Grupo_31700" data-name="Grupo 31700" transform="translate(-551.097 2286.032)">
      <g id="Grupo_31697" data-name="Grupo 31697" transform="translate(0 75.181)">
        <path id="Trazado_66238" data-name="Trazado 66238" d="M-525.795,2777.872h3.482a2.227,2.227,0,0,0,2.088-2.336v-15.684a2.223,2.223,0,0,0-2.088-2.334h-3.482v-4.667h266.583c3.46,0,6.265,3.135,6.265,7v15.684c0,3.867-2.805,6.991-6.265,6.991H-525.795Z" transform="translate(525.795 -2752.852)" fill="#06597d"/>
        <path id="Trazado_66239" data-name="Trazado 66239" d="M-525.795,2777.872h3.482a2.227,2.227,0,0,0,2.088-2.336v-15.684a2.223,2.223,0,0,0-2.088-2.334h-3.482v-4.667h160v29.675h-160Z" transform="translate(525.795 -2752.852)" fill="#01284c"/>
        <path id="Trazado_66240" data-name="Trazado 66240" d="M-513.59,2784.427v-15.684a2.223,2.223,0,0,0-2.088-2.334h263.1a2.223,2.223,0,0,1,2.084,2.334v15.684a2.227,2.227,0,0,1-2.084,2.336h-263.1A2.227,2.227,0,0,0-513.59,2784.427Z" transform="translate(519.16 -2761.742)" fill="#f7f8fc"/>
        <path id="Trazado_66241" data-name="Trazado 66241" d="M-513.59,2784.427v-15.684a2.223,2.223,0,0,0-2.088-2.334h160.7a2.226,2.226,0,0,1,2.091,2.334v15.684a2.229,2.229,0,0,1-2.091,2.336h-160.7A2.227,2.227,0,0,0-513.59,2784.427Z" transform="translate(519.16 -2761.742)" fill="#bcd0e2"/>
        <path id="Trazado_66242" data-name="Trazado 66242" d="M169.4,2822.541l10.2-6.345,10.2,6.345v-24.1H169.4Z" transform="translate(69.894 -2782.75)" fill="url(#linear-gradient)"/>
      </g>
      <g id="Grupo_31698" data-name="Grupo 31698" transform="translate(30.327 0)">
        <path id="Trazado_66243" data-name="Trazado 66243" d="M-112.108,2548.322c-1.127,6.523-1.734-8.327-1.734-1.14a120.489,120.489,0,0,0,2.194,23.085H-283.18v-21.945Z" transform="translate(336.364 -2541.474)" fill="#e5e8ec"/>
        <path id="Trazado_66244" data-name="Trazado 66244" d="M-87.087,2554.335c-.259,1.5-.482,3.031-.686,4.573H-242.5v-4.573Z" transform="translate(309.686 -2547.487)" fill="#06597d" opacity="0.2"/>
        <path id="Trazado_66245" data-name="Trazado 66245" d="M-306.81,2534.44h179.773a1.96,1.96,0,0,1,1.961,1.958v4.89h-82.551v21.945h82.551v4.892a1.964,1.964,0,0,1-1.961,1.961H-306.81a1.962,1.962,0,0,1-1.961-1.961V2536.4A1.958,1.958,0,0,1-306.81,2534.44Z" transform="translate(353.146 -2534.44)" fill="#f8c44f"/>
        <path id="Trazado_66246" data-name="Trazado 66246" d="M-435.731,2534.44h139a1.955,1.955,0,0,0-1.958,1.958v31.727a1.96,1.96,0,0,0,1.958,1.961h-139a1.961,1.961,0,0,1-1.958-1.961V2536.4A1.957,1.957,0,0,1-435.731,2534.44Z" transform="translate(437.689 -2534.44)" fill="#e2b348"/>
        <path id="Trazado_66247" data-name="Trazado 66247" d="M-435.731,2534.44h139a1.955,1.955,0,0,0-1.958,1.958v6.526h-139V2536.4A1.957,1.957,0,0,1-435.731,2534.44Z" transform="translate(437.689 -2534.44)" fill="#cba141"/>
      </g>
      <g id="Grupo_31699" data-name="Grupo 31699" transform="translate(16.563 35.64)">
        <path id="Trazado_66248" data-name="Trazado 66248" d="M-255.686,2672.92h-3.4a2.233,2.233,0,0,1-2.032-2.383v-25.411a2.242,2.242,0,0,1,2.032-2.388h3.4v-4.759H-471.569c-3.375,0-6.107,3.2-6.107,7.147v25.411c0,3.949,2.732,7.152,6.107,7.152h215.883Z" transform="translate(477.676 -2637.979)" fill="#06597d"/>
        <path id="Trazado_66249" data-name="Trazado 66249" d="M-46.161,2672.92h-3.4a2.233,2.233,0,0,1-2.032-2.383v-25.411a2.241,2.241,0,0,1,2.032-2.388h3.4v-4.759H-158.174v39.71H-46.161Z" transform="translate(268.151 -2637.979)" fill="#1386b7"/>
        <path id="Trazado_66250" data-name="Trazado 66250" d="M-253.353,2679.6v-25.411a2.242,2.242,0,0,1,2.032-2.388H-463.806a2.24,2.24,0,0,0-2.032,2.388V2679.6a2.231,2.231,0,0,0,2.032,2.383H-251.32A2.233,2.233,0,0,1-253.353,2679.6Z" transform="translate(469.913 -2647.045)" fill="#b0bfde"/>
        <path id="Trazado_66251" data-name="Trazado 66251" d="M-63.231,2679.6v-25.411A2.242,2.242,0,0,1-61.2,2651.8H-173.891a2.24,2.24,0,0,0-2.033,2.388V2679.6a2.231,2.231,0,0,0,2.033,2.383H-61.2A2.233,2.233,0,0,1-63.231,2679.6Z" transform="translate(279.791 -2647.045)" fill="#d8e8ed"/>
      </g>
    </g>
    <g id="Grupo_31709" data-name="Grupo 31709" transform="translate(-510.928 2209.892)">
      <path id="Trazado_66252" data-name="Trazado 66252" d="M-409.1,2456.271l73.7,47.608,46.813-139.934-73.7-47.606Z" transform="translate(409.1 -2315.272)" fill="#06497d"/>
      <path id="Trazado_66253" data-name="Trazado 66253" d="M-407.941,2453.175l73.7,47.6,46.812-139.932-73.7-47.608Z" transform="translate(408.34 -2313.239)" fill="#136fb7"/>
      <path id="Trazado_66254" data-name="Trazado 66254" d="M-190.278,2800.524l-7.815,20.778,17.5,7.65,4.919-3.777Z" transform="translate(270.725 -2632.793)" fill="#021e4c"/>
      <path id="Trazado_66255" data-name="Trazado 66255" d="M-189.119,2797.426l-7.819,20.781,17.716,7.879L-171,2804.24Z" transform="translate(269.967 -2630.762)" fill="#06497d"/>
      <path id="Trazado_66256" data-name="Trazado 66256" d="M-67.222,2450.656l-4.887,12.982,4.56,2.435,5.123-13.612Z" transform="translate(188.106 -2403.355)" fill="#06497d"/>
      <g id="Grupo_31705" data-name="Grupo 31705" transform="translate(88.612 4.641)">
        <g id="Grupo_31704" data-name="Grupo 31704" transform="translate(0)" style="isolation: isolate">
          <g id="Grupo_31701" data-name="Grupo 31701">
            <path id="Trazado_66257" data-name="Trazado 66257" d="M-151.668,2516.607l67.285-49.505,46.981-140.38-9.414,7.029Z" transform="translate(151.668 -2326.722)" fill="#06497d"/>
          </g>
          <g id="Grupo_31702" data-name="Grupo 31702" transform="translate(0 140.38)">
            <path id="Trazado_66258" data-name="Trazado 66258" d="M-151.668,2784.054l2.337.986,67.285-49.507-2.336-.985Z" transform="translate(151.668 -2734.549)" fill="#021e4c"/>
          </g>
          <g id="Grupo_31703" data-name="Grupo 31703" transform="translate(67.285)">
            <path id="Trazado_66259" data-name="Trazado 66259" d="M43.807,2467.1l2.336.985L93.123,2327.71l-2.336-.989Z" transform="translate(-43.807 -2326.722)" fill="#136fb7"/>
          </g>
        </g>
      </g>
      <g id="Grupo_31706" data-name="Grupo 31706" transform="translate(74.13 2.667)">
        <path id="Trazado_66260" data-name="Trazado 66260" d="M-193.74,2503.274l64.039-47.812,44.909-134.476-64.042,47.812Z" transform="translate(193.74 -2320.986)" fill="#f7f8fc"/>
      </g>
      <path id="Trazado_66261" data-name="Trazado 66261" d="M-398.2,2452.22l70.935,48.6,44.909-134.475-70.939-48.6Z" transform="translate(401.953 -2316.196)" fill="url(#linear-gradient-2)"/>
      <g id="Grupo_31707" data-name="Grupo 31707" transform="translate(74.13 137.142)">
        <path id="Trazado_66262" data-name="Trazado 66262" d="M-193.74,2759.472l15.88,6.72,64.035-47.814-15.877-6.717Z" transform="translate(193.74 -2711.66)" fill="#97d3f1"/>
      </g>
      <g id="Grupo_31708" data-name="Grupo 31708" transform="translate(138.169 2.667)">
        <path id="Trazado_66263" data-name="Trazado 66263" d="M-7.7,2455.462l15.877,6.717,44.907-134.473-15.874-6.72Z" transform="translate(7.697 -2320.986)" fill="#cfeaf9"/>
      </g>
    </g>
    <g id="Grupo_31718" data-name="Grupo 31718" transform="translate(-564.377 2200.969)">
      <g id="Grupo_31716" data-name="Grupo 31716" transform="translate(0 0)">
        <g id="Grupo_31713" data-name="Grupo 31713" transform="translate(13.422 8.565)">
          <path id="Trazado_66264" data-name="Trazado 66264" d="M-258.168,2941.1c-.326.434-.083,1.571-.083,1.571s5.7.716,7.529.251a9.553,9.553,0,0,0,2.035-1.042c.13-.077.352-.561.473-.636.233-.152.35.1.55-.039a6.3,6.3,0,0,0,.864-.654c.493-2.861-.177-4.021-.177-4.021s-4.859-1.783-5.76-.557C-254.869,2938.869-257.461,2940.148-258.168,2941.1Z" transform="translate(350.259 -2720.977)" fill="#163f59"/>
          <path id="Trazado_66265" data-name="Trazado 66265" d="M-376.307,2934.591l-.84,4.633h-2.227s-.248-.658-.633-.658c-.318,0-.735.658-1.17.658h-11.461s-.2-.977.047-1.312a4.424,4.424,0,0,1,1.382-.621c2.329-.685,8.991-2.828,10.149-5.159C-379.657,2929.292-376.307,2934.591-376.307,2934.591Z" transform="translate(438.383 -2718.193)" fill="#163f59"/>
          <g id="Grupo_31710" data-name="Grupo 31710" transform="translate(12.721 26.471)">
            <path id="Trazado_66266" data-name="Trazado 66266" d="M-262.062,2626.627l4.748-2.643.561-.591-.662-1.057-1.047.13.188-3.1-4.976-.881-2.549-1.193,2.356,8.391" transform="translate(342.429 -2538.748)" fill="#e9d6b8"/>
            <path id="Trazado_66267" data-name="Trazado 66267" d="M-393.328,2412.378s5.322,5.859-11.061,21.334-19.375,10.949-19.375,10.949l-4.949-3.292-3.674-17.222,7.912-1.842.861,1.02a2.991,2.991,0,0,0,2.553-1.044c.856-1.209,6.281-5.283,14.1-15.341C-403.347,2402.3-394.345,2411.241-393.328,2412.378Z" transform="translate(451.677 -2399.931)" fill="#d1dbea"/>
            <path id="Trazado_66268" data-name="Trazado 66268" d="M-467.827,2424.841s-16.528-.3-17.845-17.5c-.394-5.116-1.7-.173-2.6,4.711s2.117,18.649,10.95,24.182,12.6,6.886,16.014,4.635S-467.827,2424.841-467.827,2424.841Z" transform="translate(488.426 -2399.645)" fill="#e9d6b8"/>
            <path id="Trazado_66269" data-name="Trazado 66269" d="M-358.085,2820.886s2.573,3.716,4.458.235c4.348-8.017,10.817-27.826,11.037-36.84a92.535,92.535,0,0,0-1.881-21.917l-13.775-4.49Z" transform="translate(403.056 -2630.936)" fill="#163f59"/>
            <path id="Trazado_66270" data-name="Trazado 66270" d="M-357.622,2583.211l-.624,59.241,12.517,6.909a85.291,85.291,0,0,0,8.454-32.176c.4-7.659.6-24.837-3.682-30.68C-346.769,2578.588-357.622,2583.211-357.622,2583.211Z" transform="translate(403.056 -2515.515)" fill="#163f59"/>
            <path id="Trazado_66271" data-name="Trazado 66271" d="M-343.162,2582.328l2.043,20.5,5.568,22.245,5.925,20.786,21.154,57.7,6.155.5s-.774-43.316-8.289-55.946c-3.975-6.68-3.973-21.517-5.807-37.493-.33-2.876,1.3-9.375,1.037-12a42.814,42.814,0,0,0-6.367-18.1Z" transform="translate(393.164 -2514.632)" fill="#194866"/>
            <path id="Trazado_66272" data-name="Trazado 66272" d="M-366.006,2467.506l27.13-.6,11.581-38.791s7.516-23.46-6.883-23.761-31-.295-31-.295S-377.07,2425.935-366.006,2467.506Z" transform="translate(411.234 -2398.913)" fill="#d1dbea"/>
            <path id="Trazado_66273" data-name="Trazado 66273" d="M-248.339,2555.455l-17.184,20.913s.624,3.049,2,1.429c.169-.19-.662-.81.381-1.382,4.223-2.3,14.133-5.85,17.806-9.4a61.257,61.257,0,0,0,8.26-10.145Z" transform="translate(342.25 -2498.193)" fill="#e9d6b8"/>
            <path id="Trazado_66274" data-name="Trazado 66274" d="M-312.889,2410.2l.687,4.8,8.244-7.814v-1.2Z" transform="translate(373.311 -2400.175)" fill="#b0bfde"/>
            <path id="Trazado_66275" data-name="Trazado 66275" d="M-323.193,2409.188l-1.449,6.258,3.661-3.15Z" transform="translate(381.019 -2402.273)" fill="#b0bfde"/>
            <path id="Trazado_66276" data-name="Trazado 66276" d="M-401.6,2460.579l-2.153-3.892-.95-1.5a3.227,3.227,0,0,1-2.2.649l2.14,2.6,1.964,3.521,1.107,5.365Z" transform="translate(434.963 -2432.436)" fill="#b0bfde"/>
            <path id="Trazado_66277" data-name="Trazado 66277" d="M-260.944,2428.1l9.435,27.176,2.042.815-1.137,1.8,11.637,2.027,5.112-8.884-13.59-36.88s-5.257-7.752-16.958-9.041C-272.888,2404.183-261.622,2425.838-260.944,2428.1Z" transform="translate(343.581 -2399.582)" fill="#d1dbea"/>
            <path id="Trazado_66278" data-name="Trazado 66278" d="M-205.965,2546.069s-7.934,1.487-12.1,2.119l.892.357-1.137,1.8,4.028.669,5.868.131.918-2.173-1.713-.429Z" transform="translate(311.289 -2492.038)" fill="#b0bfde"/>
            <path id="Trazado_66279" data-name="Trazado 66279" d="M-307.367,2389.1a30.383,30.383,0,0,1-1.461,5.15c-.937,2.1-9.077,4.807-10.33,5.106s.312-6.317.312-7.814c0-1.149.74-.791-.151-2.443Z" transform="translate(377.743 -2389.1)" fill="#e9d6b8"/>
          </g>
          <g id="Grupo_31711" data-name="Grupo 31711" transform="translate(66.974)">
            <path id="Trazado_66280" data-name="Trazado 66280" d="M-324.438,2345.954a2.365,2.365,0,0,0,1.954,2.709l10.5,1.684a2.37,2.37,0,0,0,2.71-1.962l2.494-15.552a2.365,2.365,0,0,0-1.962-2.708l-10.5-1.679a2.359,2.359,0,0,0-2.707,1.958Z" transform="translate(326.652 -2322.832)" fill="#e9d6b8"/>
            <path id="Trazado_66281" data-name="Trazado 66281" d="M-321.119,2333.056a9.043,9.043,0,0,1-1.28-2.7,3.538,3.538,0,0,1,1.956-2.678c1.28-.49,2.046.926,2.046.926s-2.028.738-2.187,1.112S-321.119,2333.056-321.119,2333.056Z" transform="translate(325.297 -2322.284)" fill="#163f59"/>
            <path id="Trazado_66282" data-name="Trazado 66282" d="M-303.031,2329.366s2.541-5.719,2.532-7.518-.014-3.04-2.119-3.582c-3.151-.8-3.3-.127-4.7-1.353s-3.82-4.01-4.745-4.4c-1.543-.649-4.136-.513-4.713,2.485a3.412,3.412,0,0,1-1.9,2.624c.08.292.627.641,1.559,1.31,2.682,1.928,4.387,2.5,6.716,2.274s6.693-.823,6.915.911-.784,6.756-.654,7.173S-303.473,2329.6-303.031,2329.366Z" transform="translate(322.853 -2312.198)" fill="#194866"/>
            <path id="Trazado_66283" data-name="Trazado 66283" d="M-285.038,2364.936a.793.793,0,0,0,.658.9l2.266.364a.791.791,0,0,0,.9-.656l.665-4.143a.79.79,0,0,0-.654-.906l-2.268-.362a.781.781,0,0,0-.9.652Z" transform="translate(300.801 -2343.629)" fill="#e9d6b8"/>
            <path id="Trazado_66284" data-name="Trazado 66284" d="M-324.321,2358.62a.781.781,0,0,0,.647.9l2.268.361a.783.783,0,0,0,.9-.652l.666-4.142a.792.792,0,0,0-.652-.9l-2.27-.369a.8.8,0,0,0-.9.656Z" transform="translate(326.563 -2339.487)" fill="#e9d6b8"/>
            <path id="Trazado_66285" data-name="Trazado 66285" d="M-312.219,2365.57s-.98,6.123-1.31,8.166c-.293,1.844-1.679,5.779-12.1,4.1-6.176-.988-5.221-5.485-4.981-6.976a13.411,13.411,0,0,1,2.766-4.875c.028-.015-.4,2.531-.4,2.531a4.983,4.983,0,0,1,4.611-1.785c4.733.756,5.365,3.7,7.459,3.987C-314.57,2370.938-312.944,2368.513-312.219,2365.57Z" transform="translate(330.812 -2347.198)" fill="#194866"/>
            <path id="Trazado_66286" data-name="Trazado 66286" d="M-313.631,2377.941l-3.236-.522a.784.784,0,0,1-.652-.905l.075-.451,4.792.77-.075.453A.791.791,0,0,1-313.631,2377.941Z" transform="translate(322.102 -2354.08)" fill="#e9d6b8"/>
          </g>
          <g id="Grupo_31712" data-name="Grupo 31712" transform="translate(0 23.195)">
            <path id="Trazado_66287" data-name="Trazado 66287" d="M-509.45,2393.445s1.561-5.288.752-6.608-4.065-5.932-4.065-5.932l-.93-1.1s-1.695.437.526,3.516.377,2.212.377,2.212l-3-1.96-3.846-2.1-1.595-1.168s-.86-.729-1.205-.717c-.99.039-.6.838-.6.838l5.852,5.1-6.583-3.126s-.907-.249-1.19.182c-.269.405,0,.553,0,.553l6.677,5.419-3.566-1.2s-.891-.219-1.19.186c-.324.442-.418.553-.418.553l13.138,6.664Z" transform="translate(525.181 -2379.583)" fill="#e9d6b8"/>
            <path id="Trazado_66288" data-name="Trazado 66288" d="M-518.316,2395.32l-4.746-1.907a3.914,3.914,0,0,0-1.642-.494.714.714,0,0,0-.68.74l6.9,3.632Z" transform="translate(525.384 -2388.326)" fill="#e9d6b8"/>
          </g>
        </g>
        <g id="Grupo_31715" data-name="Grupo 31715">
          <g id="Grupo_31714" data-name="Grupo 31714">
            <path id="Trazado_66289" data-name="Trazado 66289" d="M-482.58,2326.636l-24.313-34.9a3.154,3.154,0,0,0,3.284-.961,6.566,6.566,0,0,0,.844-1.126l26.141,37.544-16.458,28.161c-.008.008-.02.013-.02.028a6.427,6.427,0,0,1-1.068,1.473c-1.424,1.436-3.3,1.475-4.336.112a2.519,2.519,0,0,1-.208-1.816,12.3,12.3,0,0,1,.827-1.645l15.3-26.1A.741.741,0,0,0-482.58,2326.636Z" transform="translate(526.68 -2288.847)" fill="#ccd9e9"/>
            <path id="Trazado_66290" data-name="Trazado 66290" d="M-537.007,2356.527a.341.341,0,0,1-.126-.1l-.089-.135-27.05-38.848a.706.706,0,0,1,.011-.761l16.919-28.943a.953.953,0,0,1,.13-.18.636.636,0,0,1,.34-.176.421.421,0,0,1,.45.176l3.407,4.922h0l22.737,32.627a.74.74,0,0,1-.012.768l-15.3,26.1a12.342,12.342,0,0,0-.827,1.645,2.519,2.519,0,0,0,.208,1.816c1.033,1.363,2.912,1.323,4.336-.112a6.431,6.431,0,0,0,1.068-1.473c0-.015.012-.021.02-.028l16.458-28.161-26.141-37.545a.293.293,0,0,1-.024.031,3.97,3.97,0,0,1,.4-.635.492.492,0,0,1,.788,0l26.15,37.546a.752.752,0,0,1-.016.767l-16.921,28.945c-.033.044-.066.073-.1.117a7.933,7.933,0,0,1-1.039,1.376C-533.113,2358.173-535.589,2358.243-537.007,2356.527Z" transform="translate(564.377 -2287.316)" fill="#f8c44f"/>
          </g>
          <path id="Trazado_66291" data-name="Trazado 66291" d="M-477.14,2328.089a1.017,1.017,0,0,0-.083.085,4.147,4.147,0,0,1-3.185,1.343,3.29,3.29,0,0,1-2.39-1.311l-.051-.072-.037-.071c-.006-.023-.03-.062-.042-.1l.356-.6a.734.734,0,0,0,.02-.769l-24.31-34.9a3.121,3.121,0,0,0,3.273-.958,6.669,6.669,0,0,0,.844-1.131l26.141,37.546Z" transform="translate(526.66 -2288.821)" fill="#e5e8ec"/>
        </g>
      </g>
      <g id="Grupo_31717" data-name="Grupo 31717" transform="translate(7.815 38.086)">
        <path id="Trazado_66292" data-name="Trazado 66292" d="M-539.83,2411.881l-1.842-4.567,2-2.97,2.738-3.457,1.021-1.681s.506-1,.828-1.138c.935-.4.888.458.888.458l-3.409,6.879,4.874-5.513s.744-.6,1.178-.358c.408.234.22.471.22.471l-4.048,7.512,2.836-2.563s.737-.575,1.172-.362a6.512,6.512,0,0,0,.617.29l-4.474,5.75,1.6,1.92-3.35.335Z" transform="translate(541.672 -2397.962)" fill="#e9d6b8"/>
        <path id="Trazado_66293" data-name="Trazado 66293" d="M-526.125,2411.764l3.654-3.681a4.233,4.233,0,0,1,1.332-1.13.682.682,0,0,1,.923.338l-4.967,6.082Z" transform="translate(531.477 -2403.819)" fill="#e9d6b8"/>
      </g>
    </g>
    <g id="Grupo_31725" data-name="Grupo 31725" transform="translate(-323.128 2268.022)">
      <g id="Grupo_31723" data-name="Grupo 31723" transform="translate(0 0)">
        <path id="Trazado_66294" data-name="Trazado 66294" d="M208.829,2558a10.917,10.917,0,1,1-5.129-14.386A10.8,10.8,0,0,1,208.829,2558Z" transform="translate(-170.364 -2521.708)" fill="#282723"/>
        <path id="Trazado_66295" data-name="Trazado 66295" d="M214.4,2589.831a13.782,13.782,0,1,1-6.475-18.165A13.635,13.635,0,0,1,214.4,2589.831Z" transform="translate(-170.456 -2539.91)" fill="#282723"/>
        <g id="Grupo_31721" data-name="Grupo 31721" transform="translate(28.384 30.635)">
          <g id="Grupo_31720" data-name="Grupo 31720" transform="translate(0 31.141)">
            <g id="Grupo_31719" data-name="Grupo 31719" transform="translate(4.081 2.161)">
              <path id="Trazado_66296" data-name="Trazado 66296" d="M230.809,2668.653s-.4,1.79,8.215,3.976,21.806,3.266,21.806,3.266l-19.406-6.9S233.88,2666.7,230.809,2668.653Z" transform="translate(-230.807 -2667.866)" fill="#e2c59c"/>
              <path id="Trazado_66297" data-name="Trazado 66297" d="M295.33,2686.33c4.067,1.165,5.225,3.7,6.656,4.8a30.042,30.042,0,0,1,2.767,2.5c-.409-2-1.707-2.422-2.2-3.175s-.407-.42,1.07-.113c.84.175,1.871,2.04,2.683,3.144a3.48,3.48,0,0,0,1.253,1.172,18.579,18.579,0,0,0-1.638-3.334,21.458,21.458,0,0,0-3.293-3.98,16.631,16.631,0,0,0-5.47-1.761C294.89,2685.248,292.4,2685.49,295.33,2686.33Z" transform="translate(-272.247 -2679.389)" fill="#e2c59c"/>
              <path id="Trazado_66298" data-name="Trazado 66298" d="M318.375,2691.025a23.3,23.3,0,0,1,3.314,2.25c.3.395,1.41,2.523,1.41,2.523a4.255,4.255,0,0,1-1.6-1.35A37.435,37.435,0,0,0,318.375,2691.025Z" transform="translate(-288.233 -2683.053)" fill="#e2c59c"/>
            </g>
            <path id="Trazado_66299" data-name="Trazado 66299" d="M227.848,2661.91s-8.005-1.781-8.815,3.035c-.46,2.74,1.068,4.176,3.5,4.676,4.515.92,9.7,1.727,9.7,1.727l4.332-6.6Z" transform="translate(-218.951 -2661.588)" fill="#b0bfde"/>
          </g>
          <path id="Trazado_66300" data-name="Trazado 66300" d="M228.352,2598.6l-2.231-21.876s.161-5.727-1.9-5.607c-2.974.168-3.542,5.112-3.8,6.884a58.673,58.673,0,0,0-1.229,14.139c.036,5.612-.363,11.951-.01,15.74.245,2.608,2.785-.293,5.433-.542C229.553,2606.878,228.352,2598.6,228.352,2598.6Z" transform="translate(-219.005 -2571.117)" fill="#b0bfde"/>
        </g>
        <path id="Trazado_66301" data-name="Trazado 66301" d="M385.6,2824.656l7.308,15.845,10.135.225,5.123-1.036-11.02-2.621-5.9-14.714Z" transform="translate(-299.856 -2705.241)" fill="#e9d6b8"/>
        <path id="Trazado_66302" data-name="Trazado 66302" d="M405.989,2873.938l1.345-.317.753-1.643,8.175.36,6.583-1.216a1.227,1.227,0,0,0-.441-.674c-1.164-.616-6.277-.925-6.277-.925s.537,1.421-.042,1.72-6.891-.091-8.406-.3c-2.6-.371-3.953-1.029-3.837-.68C404.012,2870.765,405.989,2873.938,405.989,2873.938Z" transform="translate(-311.812 -2736.173)" fill="#161711"/>
        <path id="Trazado_66303" data-name="Trazado 66303" d="M235.716,2707.327l23.9-.635,17.8,38.965,7.371-2.91-17.366-46.888s-1.375-2.967-8.6-2.967c-7.021,0-35.367-.775-38.588.121C212.6,2695.14,237.032,2700.852,235.716,2707.327Z" transform="translate(-190.437 -2620.136)" fill="#854638"/>
        <path id="Trazado_66304" data-name="Trazado 66304" d="M179.254,2517.672a10.916,10.916,0,1,1-5.131-14.385A10.8,10.8,0,0,1,179.254,2517.672Z" transform="translate(-150.97 -2495.262)" fill="#282723"/>
        <path id="Trazado_66305" data-name="Trazado 66305" d="M221.08,2501.1a8.209,8.209,0,0,1-10.973,3.78l-.138-4.4a8.2,8.2,0,0,1-3.779-10.971l1.343-2.766a8.21,8.21,0,0,1,10.975-3.787l1.842.9a8.207,8.207,0,0,1,3.785,10.974Z" transform="translate(-181.652 -2482.119)" fill="#282723"/>
        <path id="Trazado_66306" data-name="Trazado 66306" d="M216.555,2501.554a16.121,16.121,0,0,1-1.189,1.994c-3.053,4.373-7.686,6.565-11.05,5.476a24.76,24.76,0,0,1-3.829,5.205,12.464,12.464,0,0,1-4.647,2.492c-2.147,3.047-.931,11.826,6.741,12.728,4.612.545,3.668-4.315,2.056-7.347-.754-1.422-1.48-3.06-1.315-3.858.583-2.8,1.608-3.18,3.248-4.137a6.723,6.723,0,0,1,5.307.059.935.935,0,0,0,.756.032,5.643,5.643,0,0,0,.98-1.428l2.968-6.084A5.806,5.806,0,0,0,216.555,2501.554Z" transform="translate(-174.791 -2494.864)" fill="#e9d6b8"/>
        <path id="Trazado_66307" data-name="Trazado 66307" d="M187.907,2622.447s3.5.723,4.473,1.087c1.3.487,5.1-.129,5.1-.129s.486-18.774,1.4-25.328,2.613-8.329,2.6-10.378a22.656,22.656,0,0,0-.866-6.581c-.578-2.542,1.111-5.92.536-5.272-.925,1.04-4.4,2.66-7.634-.926C192.971,2574.3,187.907,2622.447,187.907,2622.447Z" transform="translate(-170.209 -2542.973)" fill="#194866"/>
        <path id="Trazado_66308" data-name="Trazado 66308" d="M216.461,2555.5s4.766,4.8,4.575,6.379.29,8.2-.8,15.26-1.971,8.8-2.152,13.954,1.012,6.3.581,12.624c-.339,4.951-1.116,9.32-1.116,9.32a4.118,4.118,0,0,1-3.947-1.207c-1.695-1.84-1.085-19.062-.455-23.3s3.114-15.368,2.963-18.318-1.1-10.009-1.627-10.937C213.174,2556.96,216.083,2555.744,216.461,2555.5Z" transform="translate(-186.335 -2530.243)" fill="#d1dbea"/>
        <path id="Trazado_66309" data-name="Trazado 66309" d="M220.276,2554.217a2.563,2.563,0,0,1-.589.641,10.643,10.643,0,0,0-1.4,1.268s.954-.457,1.316.364a16.22,16.22,0,0,1,.722,3.3s1.764-2.91,1.343-3.833C220.911,2554.279,220.276,2554.217,220.276,2554.217Z" transform="translate(-190.131 -2529.4)" fill="#b0bfde"/>
        <path id="Trazado_66310" data-name="Trazado 66310" d="M162.667,2559.679a11.4,11.4,0,1,1-7.575-14.04A11.285,11.285,0,0,1,162.667,2559.679Z" transform="translate(-139.056 -2523.429)" fill="#282723"/>
        <path id="Trazado_66311" data-name="Trazado 66311" d="M317.134,2837l.354,11.1,2.264,2.662,6.027,3.474,4.467-.811-7.875-5.868-.579-11.647Z" transform="translate(-254.954 -2714.132)" fill="#e9d6b8"/>
        <path id="Trazado_66312" data-name="Trazado 66312" d="M317.934,2872.855l2.025,1.445.621-.494,5.587,3.541s5.086,1.329,6.071.172c.319-.373-.5-.992-1.636-1.832a9.588,9.588,0,0,0-1.446-.926s-.232.866-2.242,1.2c-.646.1-4.629-2.533-6-3.214-2.458-1.228-3.435-2.95-3.559-2.791C317.034,2870.382,317.934,2872.855,317.934,2872.855Z" transform="translate(-255.054 -2736.451)" fill="#161711"/>
        <path id="Trazado_66313" data-name="Trazado 66313" d="M155.161,2669.06l2.883,6.811,4.952.605,39.986,2.547s3.579-1.1,5.857,4.549c3.241,8.046-1,48.327-1,48.327l-5.916-.093-3.2-37.976s-38.434,6.724-49.5,3.324c-4.247-1.3-7.492-8.8-6.887-16.384.473-5.937,4.442-11.4,4.442-11.4Z" transform="translate(-140.276 -2604.712)" fill="#ad5c49"/>
        <path id="Trazado_66314" data-name="Trazado 66314" d="M156.813,2602.586s1.857-16.761,2.909-24.7.823-21.245,1.064-23.156a27.556,27.556,0,0,1,1.242-4.652s-1.931-4.331-4.453-4.189c-2.219.127-9.222,2.471-12.612,3.847-2.343.955-1.116,27.676-1.324,29.08-.758,5.074-3.252,10.891-4.865,14.908a58.3,58.3,0,0,0-2.281,7.964S149.294,2600.18,156.813,2602.586Z" transform="translate(-136.491 -2523.938)" fill="#d1dbea"/>
        <path id="Trazado_66315" data-name="Trazado 66315" d="M194.98,2542.081l1.88,2.122s2.63,3.631,1.776,3.123c-1.086-.648-2.329,3.142-2.329,3.142l-3.5-7.174Z" transform="translate(-173.424 -2521.441)" fill="#b0bfde"/>
        <g id="Grupo_31722" data-name="Grupo 31722" transform="translate(5.876 59.739)">
          <path id="Trazado_66316" data-name="Trazado 66316" d="M153.912,2657.3s-2.923,2.076,8.127,3.212,27.541.321,27.541.321l-25.278-4.791S157.331,2654.631,153.912,2657.3Z" transform="translate(-153.562 -2655.671)" fill="#e9d6b8"/>
          <path id="Trazado_66317" data-name="Trazado 66317" d="M229.349,2668.078c5.242.689,7.158,3.365,9.135,4.379a37.438,37.438,0,0,1,3.894,2.394c-.883-2.19-2.569-2.468-3.329-3.241s-.58-.407,1.3-.293c1.07.069,2.7,2.014,3.913,3.129a4.475,4.475,0,0,0,1.772,1.129,21.664,21.664,0,0,0-2.66-3.5,26.99,26.99,0,0,0-4.827-3.98,22.717,22.717,0,0,0-7.093-1.138C228.6,2666.927,225.572,2667.585,229.349,2668.078Z" transform="translate(-202.103 -2663.07)" fill="#e9d6b8"/>
          <path id="Trazado_66318" data-name="Trazado 66318" d="M258.6,2670.438a30.69,30.69,0,0,1,4.521,2.022c.444.4,2.222,2.624,2.222,2.624a5.568,5.568,0,0,1-2.232-1.271A46.93,46.93,0,0,0,258.6,2670.438Z" transform="translate(-222.444 -2665.355)" fill="#e9d6b8"/>
        </g>
        <path id="Trazado_66319" data-name="Trazado 66319" d="M156.682,2589.21l3.594-24.346s-.89-5.014-2.445-6.731c-1.847-2.038-5.364-1.431-5.364-1.431s-4.113,3.371-4.409,22.65c-.2,13.19-1.412,18.616,4.274,19.186,5.3.536,11.359.868,11.359.868l4.026-7.962Z" transform="translate(-143.916 -2530.974)" fill="#b0bfde"/>
      </g>
      <g id="Grupo_31724" data-name="Grupo 31724" transform="translate(42.684 53.427)">
        <rect id="Rectángulo_6427" data-name="Rectángulo 6427" width="34.885" height="0.72" transform="translate(0.086 17.98)" fill="#cdd5d7"/>
        <path id="Trazado_66320" data-name="Trazado 66320" d="M305.475,2655.269a.954.954,0,0,0,.884,1.008h17.89c.485,0,1.148-.355,1.743-1.764l8.842-16.15a.923.923,0,0,0-1.03-1.014l-18.358.555a1.708,1.708,0,0,0-1.159,1.223Z" transform="translate(-289.992 -2637.333)" fill="#cdd5d7"/>
        <path id="Trazado_66321" data-name="Trazado 66321" d="M278.142,2691.659H260.494a6.575,6.575,0,0,0,2.857.551h29.4a6.582,6.582,0,0,0,2.857-.551Z" transform="translate(-260.494 -2672.959)" fill="#b7bec0"/>
      </g>
    </g>
  </g>
</svg>
