<svg xmlns="http://www.w3.org/2000/svg" width="287.724" height="236.759" viewBox="0 0 287.724 236.759">
  <g id="Grupo_32356" data-name="Grupo 32356" transform="translate(-841.621 -1942)">
    <circle id="Elipse_1342" data-name="Elipse 1342" cx="96.5" cy="96.5" r="96.5" transform="translate(850.195 2141.418) rotate(-81.428)" fill="#fff"/>
    <path id="Trazado_61045" data-name="Trazado 61045" d="M304.582,320a118.411,118.411,0,1,1,83.706-202.087L385.7,120.5a114.852,114.852,0,1,0,33.6,81.123V199.8h50.655v3.656H422.947A118.279,118.279,0,0,1,304.582,320Z" transform="translate(655.419 1858.755)" fill="#ff3648"/>
    <g id="Grupo_29032" data-name="Grupo 29032" transform="translate(1110.771 2045.43)">
      <path id="Trazado_61046" data-name="Trazado 61046" d="M335.924,169.726l-2.494-2.678,13.206-12.272L333.43,142.5l2.494-2.678L352,154.776Z" transform="translate(-333.43 -139.822)" fill="#ff3648"/>
    </g>
    <text id="Garantizar_que_se_dé_a_conocer_el_SG-SST_a_los_trabajadores_y_contratistas." data-name="Garantizar que se dé a conocer el SG-SST a los trabajadores y contratistas." transform="translate(886 2031)" fill="#4d1c0d" font-size="15" font-family="SegoeUI, Segoe UI"><tspan x="-73.861" y="16">Garantizar que se dé a </tspan><tspan x="-66.237" y="33">conocer el SG-SST a </tspan><tspan x="-58.477" y="50">los trabajadores y </tspan><tspan x="-39.774" y="67">contratistas.</tspan></text>
  </g>
</svg>
