<svg xmlns="http://www.w3.org/2000/svg" xmlns:xlink="http://www.w3.org/1999/xlink" width="91.927" height="91.927" viewBox="0 0 91.927 91.927">
  <defs>
    <radialGradient id="radial-gradient" cx="0.076" cy="0.019" r="1.465" gradientTransform="translate(0.001)" gradientUnits="objectBoundingBox">
      <stop offset="0" stop-color="#f6f6f7"/>
      <stop offset="0.477" stop-color="#f9f9fa"/>
      <stop offset="0.715" stop-color="#fff"/>
    </radialGradient>
    <linearGradient id="linear-gradient" x1="0.5" x2="0.5" y2="1" gradientUnits="objectBoundingBox">
      <stop offset="0" stop-color="#325a6a"/>
      <stop offset="0.529" stop-color="#33708b"/>
      <stop offset="1" stop-color="#3487ad"/>
    </linearGradient>
  </defs>
  <g id="Grupo_26932" data-name="Grupo 26932" transform="translate(1394 -6874.25)">
    <g id="Grupo_26922" data-name="Grupo 26922" transform="translate(-1469 6901.25)">
      <g id="Grupo_18423" data-name="Grupo 18423" transform="translate(75 -27)">
        <g id="Grupo_18421" data-name="Grupo 18421">
          <g id="Grupo_18420" data-name="Grupo 18420">
            <g id="Grupo_18419" data-name="Grupo 18419">
              <path id="Trazado_40936" data-name="Trazado 40936" d="M286.55,2191.684a45.964,45.964,0,1,1-45.963-45.962A45.963,45.963,0,0,1,286.55,2191.684Z" transform="translate(-194.623 -2145.721)" fill="#fff"/>
            </g>
          </g>
        </g>
        <path id="Trazado_40937" data-name="Trazado 40937" d="M286.23,2191.334a45.963,45.963,0,1,0-45.963,45.965A45.782,45.782,0,0,0,286.23,2191.334Z" transform="translate(-194.303 -2145.372)" fill="url(#radial-gradient)"/>
        <path id="Trazado_40938" data-name="Trazado 40938" d="M272.56,2188.562a35.084,35.084,0,1,0-35.084,35.084A34.953,34.953,0,0,0,272.56,2188.562Z" transform="translate(-191.373 -2142.446)" fill="none" stroke="#3487ad" stroke-miterlimit="10" stroke-width="4"/>
        <g id="Grupo_18422" data-name="Grupo 18422" transform="translate(8.143 25.805)">
          <path id="Trazado_40939" data-name="Trazado 40939" d="M279.682,2164.488a45.969,45.969,0,0,1-79.137,45.773,45.823,45.823,0,0,0,79.137-45.773Z" transform="translate(-200.545 -2164.488)" fill="#eceef0"/>
        </g>
      </g>
    </g>
    <g id="Grupo_26925" data-name="Grupo 26925" transform="translate(-1713.356 6877.173)">
      <path id="Trazado_40970" data-name="Trazado 40970" d="M349.164,33.656a3.5,3.5,0,1,1,3.5-3.5A3.5,3.5,0,0,1,349.164,33.656Zm0-5.633a2.134,2.134,0,1,0,2.133,2.134A2.136,2.136,0,0,0,349.164,28.023Z" transform="translate(-0.687 -0.412)" fill="url(#linear-gradient)"/>
      <path id="Trazado_40971" data-name="Trazado 40971" d="M345.19,49.249a.682.682,0,0,1-.682-.682V41.347a.682.682,0,0,1,1.365,0v7.219A.682.682,0,0,1,345.19,49.249Z" transform="translate(-0.503 -2.646)" fill="url(#linear-gradient)"/>
      <path id="Trazado_40972" data-name="Trazado 40972" d="M352.264,64.422h-2.849a.682.682,0,0,1-.682-.682V52.055a.254.254,0,0,0-.091-.2.258.258,0,0,0-.214-.057.3.3,0,0,0-.208.3V63.739a.683.683,0,0,1-.682.682h-2.85a.682.682,0,0,1-.682-.682V49.7a2.007,2.007,0,0,1-2.649-1.951V40.492a4.578,4.578,0,0,1,4.057-4.549,26.419,26.419,0,0,1,3.07-.1.683.683,0,0,1-.007,1.366,24.784,24.784,0,0,0-2.908.092,3.211,3.211,0,0,0-2.847,3.192v7.256a.675.675,0,0,0,.508.677.643.643,0,0,0,.776-.629.682.682,0,1,1,1.365,0v15.26h1.485V52.1a1.662,1.662,0,0,1,1.354-1.65,1.623,1.623,0,0,1,1.888,1.6v11h1.484V47.8a.682.682,0,1,1,1.365,0V63.739A.682.682,0,0,1,352.264,64.422Z" transform="translate(0 -1.876)" fill="url(#linear-gradient)"/>
      <path id="Trazado_40973" data-name="Trazado 40973" d="M349.455,47.762a.684.684,0,0,1-.609-.372l-1.28-2.509a.683.683,0,0,1-.071-.384l.4-3.749a.683.683,0,1,1,1.357.146l-.382,3.548.58,1.136.58-1.136-.38-3.52a.683.683,0,0,1,1.357-.146l.4,3.722a.683.683,0,0,1-.071.384l-1.28,2.509A.681.681,0,0,1,349.455,47.762Z" transform="translate(-0.979 -2.562)" fill="url(#linear-gradient)"/>
      <path id="Trazado_40974" data-name="Trazado 40974" d="M352.767,51.6H345.19a.682.682,0,1,1,0-1.365h7.577a.682.682,0,1,1,0,1.365Z" transform="translate(-0.503 -4.173)" fill="url(#linear-gradient)"/>
      <path id="Trazado_40975" data-name="Trazado 40975" d="M353.486,48.479a.682.682,0,0,1-.682-.682V39.4a.683.683,0,0,1,.682-.682H361.2a.757.757,0,1,0,0-1.514H349.7a.683.683,0,0,1,0-1.366h11.5a2.122,2.122,0,1,1,0,4.244h-7.033V47.8A.682.682,0,0,1,353.486,48.479Z" transform="translate(-1.222 -1.877)" fill="url(#linear-gradient)"/>
      <path id="Trazado_40976" data-name="Trazado 40976" d="M390.521,47.683H362.149a.682.682,0,0,1-.682-.682V37.527a.682.682,0,0,1,.682-.682h1.039a.757.757,0,1,0,0-1.514h-1.039a.683.683,0,0,1-.682-.683V24.76a.683.683,0,0,1,.682-.683h28.372a.683.683,0,0,1,.682.683V47A.683.683,0,0,1,390.521,47.683Zm-27.689-1.365h27.007V25.443H362.832v8.522h.356a2.122,2.122,0,1,1,0,4.244h-.356Z" transform="translate(-3.208)" fill="url(#linear-gradient)"/>
      <path id="Trazado_40977" data-name="Trazado 40977" d="M383.064,35.421a.673.673,0,0,1-.26-.052.683.683,0,0,1-.422-.63V27.417a.683.683,0,0,1,.683-.682,7.949,7.949,0,0,1,5.659,2.344.683.683,0,0,1,0,.966l-5.176,5.176A.68.68,0,0,1,383.064,35.421Zm.683-7.287v4.956l3.5-3.5A6.58,6.58,0,0,0,383.748,28.134Z" transform="translate(-6.545 -0.424)" fill="url(#linear-gradient)"/>
      <path id="Trazado_40978" data-name="Trazado 40978" d="M379.272,44.6a8,8,0,0,1,0-16.008.683.683,0,0,1,.682.682v7.039l4.976,4.977a.682.682,0,0,1,0,.965A7.948,7.948,0,0,1,379.272,44.6ZM378.589,30a6.639,6.639,0,1,0,4.87,11.756l-4.67-4.67a.681.681,0,0,1-.2-.482Z" transform="translate(-4.772 -0.721)" fill="url(#linear-gradient)"/>
      <path id="Trazado_40979" data-name="Trazado 40979" d="M389.715,42.868a.682.682,0,0,1-.483-.2l-5.176-5.176a.683.683,0,0,1,0-.966l5.176-5.176a.683.683,0,0,1,.9-.06,7.271,7.271,0,0,1,2.412,5.719,7.952,7.952,0,0,1-2.344,5.659A.68.68,0,0,1,389.715,42.868ZM385.5,37.009,389.69,41.2a6.593,6.593,0,0,0,1.486-4.187,6.314,6.314,0,0,0-1.457-4.218Z" transform="translate(-6.78 -1.128)" fill="url(#linear-gradient)"/>
      <path id="Trazado_40980" data-name="Trazado 40980" d="M390.775,54.291H361.218a1.876,1.876,0,1,1,0-3.751h29.557a1.876,1.876,0,0,1,0,3.751ZM361.218,51.9a.511.511,0,0,0,0,1.021h29.557a.511.511,0,0,0,0-1.021Z" transform="translate(-2.869 -4.222)" fill="url(#linear-gradient)"/>
    </g>
  </g>
</svg>
