<svg xmlns="http://www.w3.org/2000/svg" xmlns:xlink="http://www.w3.org/1999/xlink" width="86.907" height="177.057" viewBox="0 0 86.907 177.057">
  <defs>
    <linearGradient id="linear-gradient" x1="0.5" x2="0.5" y2="1" gradientUnits="objectBoundingBox">
      <stop offset="0" stop-color="#325a6a"/>
      <stop offset="0.529" stop-color="#33708b"/>
      <stop offset="1" stop-color="#3487ad"/>
    </linearGradient>
  </defs>
  <g id="Grupo_26942" data-name="Grupo 26942" transform="translate(379.5 -5261.201)">
    <path id="Trazado_67589" data-name="Trazado 67589" d="M43.454,0A43.454,43.454,0,0,1,86.907,43.454V133.6A43.454,43.454,0,0,1,0,133.6V43.454A43.454,43.454,0,0,1,43.454,0Z" transform="translate(-379.5 5261.201)" fill="url(#linear-gradient)"/>
    <path id="Trazado_67590" data-name="Trazado 67590" d="M-1.846-15.886A30.953,30.953,0,0,1-2.56-8.877,16.332,16.332,0,0,1-4.625-3.724,9.3,9.3,0,0,1-7.943-.538,9.083,9.083,0,0,1-12.415.549a8.482,8.482,0,0,1-4.23-1.044,8.865,8.865,0,0,1-3.131-3.043,15.424,15.424,0,0,1-1.934-4.911,30.366,30.366,0,0,1-.659-6.669,34.373,34.373,0,0,1,.692-7.295,16.686,16.686,0,0,1,2.032-5.306,9.046,9.046,0,0,1,3.329-3.23,9.347,9.347,0,0,1,4.559-1.088Q-1.846-32.036-1.846-15.886Zm-3.691.352q0-13.447-6.394-13.447-6.746,0-6.746,13.689,0,12.766,6.614,12.766Q-5.537-2.527-5.537-15.535ZM21.292-9.624A10.605,10.605,0,0,1,20.5-5.449a9.128,9.128,0,0,1-2.252,3.208A10.085,10.085,0,0,1,14.722-.176a13.792,13.792,0,0,1-4.592.725Q5.735.549,3.6-.769V-4.592a12,12,0,0,0,6.57,2.065,8.891,8.891,0,0,0,3.087-.505A6.86,6.86,0,0,0,15.6-4.438a6.021,6.021,0,0,0,1.483-2.175A7.363,7.363,0,0,0,17.6-9.4a5.978,5.978,0,0,0-2.065-4.823,9.058,9.058,0,0,0-6-1.747q-.637,0-1.34.022T6.79-15.9q-.7.033-1.373.077T4.2-15.71l1.077-15.8H19.841v3.252H8.394l-.637,9.25q.7-.044,1.494-.077t1.406-.033a14.141,14.141,0,0,1,4.482.659,9.5,9.5,0,0,1,3.351,1.879,7.877,7.877,0,0,1,2.087,2.988A10.511,10.511,0,0,1,21.292-9.624Z" transform="translate(-336.745 5321.226)" fill="#fff"/>
    <path id="Trazado_67591" data-name="Trazado 67591" d="M-16.656.827A3.991,3.991,0,0,1-19.607-.414a4.084,4.084,0,0,1-1.222-2.97,4.147,4.147,0,0,1,1.222-2.989,3.962,3.962,0,0,1,2.951-1.26,4.065,4.065,0,0,1,3.008,1.26,4.115,4.115,0,0,1,1.241,2.989,4.052,4.052,0,0,1-1.241,2.97A4.1,4.1,0,0,1-16.656.827ZM.038.827A3.991,3.991,0,0,1-2.914-.414a4.084,4.084,0,0,1-1.222-2.97A4.147,4.147,0,0,1-2.914-6.373,3.962,3.962,0,0,1,.038-7.632a4.065,4.065,0,0,1,3.008,1.26A4.115,4.115,0,0,1,4.286-3.384,4.052,4.052,0,0,1,3.045-.414,4.1,4.1,0,0,1,.038.827Zm16.693,0A3.991,3.991,0,0,1,13.78-.414a4.084,4.084,0,0,1-1.222-2.97A4.147,4.147,0,0,1,13.78-6.373a3.962,3.962,0,0,1,2.951-1.26,4.065,4.065,0,0,1,3.008,1.26,4.115,4.115,0,0,1,1.241,2.989,4.052,4.052,0,0,1-1.241,2.97A4.1,4.1,0,0,1,16.731.827Z" transform="translate(-336.333 5403.116)" fill="#fff"/>
  </g>
</svg>
