<svg xmlns="http://www.w3.org/2000/svg" xmlns:xlink="http://www.w3.org/1999/xlink" width="86.907" height="177.057" viewBox="0 0 86.907 177.057">
  <defs>
    <linearGradient id="linear-gradient" x1="0.5" x2="0.5" y2="1" gradientUnits="objectBoundingBox">
      <stop offset="0" stop-color="#faf6d3"/>
      <stop offset="0.334" stop-color="#e4deb1"/>
      <stop offset="1" stop-color="#b2a864"/>
    </linearGradient>
  </defs>
  <g id="Grupo_26943" data-name="Grupo 26943" transform="translate(405.5 -5611.201)">
    <path id="Trazado_67592" data-name="Trazado 67592" d="M43.454,0A43.454,43.454,0,0,1,86.907,43.454V133.6A43.454,43.454,0,0,1,0,133.6V43.454A43.454,43.454,0,0,1,43.454,0Z" transform="translate(-405.5 5611.201)" fill="url(#linear-gradient)"/>
    <path id="Trazado_67593" data-name="Trazado 67593" d="M-1.846-15.886A30.953,30.953,0,0,1-2.56-8.877,16.332,16.332,0,0,1-4.625-3.724,9.3,9.3,0,0,1-7.943-.538,9.083,9.083,0,0,1-12.415.549a8.482,8.482,0,0,1-4.23-1.044,8.865,8.865,0,0,1-3.131-3.043,15.424,15.424,0,0,1-1.934-4.911,30.366,30.366,0,0,1-.659-6.669,34.373,34.373,0,0,1,.692-7.295,16.686,16.686,0,0,1,2.032-5.306,9.046,9.046,0,0,1,3.329-3.23,9.347,9.347,0,0,1,4.559-1.088Q-1.846-32.036-1.846-15.886Zm-3.691.352q0-13.447-6.394-13.447-6.746,0-6.746,13.689,0,12.766,6.614,12.766Q-5.537-2.527-5.537-15.535ZM22.456-10a11.672,11.672,0,0,1-.747,4.241,10.194,10.194,0,0,1-2.065,3.34A9.227,9.227,0,0,1,16.5-.231a9.951,9.951,0,0,1-3.955.78A8.989,8.989,0,0,1,8.295-.439,9,9,0,0,1,5.109-3.285,13.648,13.648,0,0,1,3.12-7.822a24.581,24.581,0,0,1-.681-6.042,28.4,28.4,0,0,1,.912-7.46,18.123,18.123,0,0,1,2.593-5.735A11.953,11.953,0,0,1,10-30.74a10.862,10.862,0,0,1,5.3-1.3,12.755,12.755,0,0,1,5.229.9v3.406a11.105,11.105,0,0,0-5.142-1.252,7.662,7.662,0,0,0-3.8.945,8.729,8.729,0,0,0-2.9,2.67A13.022,13.022,0,0,0,6.823-21.2a21.126,21.126,0,0,0-.648,5.427h.088q2.175-3.933,7.185-3.933a9.457,9.457,0,0,1,3.724.7,8.041,8.041,0,0,1,2.834,1.989,8.953,8.953,0,0,1,1.813,3.065A11.667,11.667,0,0,1,22.456-10Zm-3.691.461a9.806,9.806,0,0,0-.417-2.966,6.434,6.434,0,0,0-1.2-2.241,5.163,5.163,0,0,0-1.923-1.417,6.47,6.47,0,0,0-2.593-.494,6.069,6.069,0,0,0-2.483.505,6.183,6.183,0,0,0-1.978,1.373,6.363,6.363,0,0,0-1.307,2.021,6.4,6.4,0,0,0-.472,2.45,9.773,9.773,0,0,0,.461,3.043,7.861,7.861,0,0,0,1.3,2.472A6.165,6.165,0,0,0,10.14-3.131a5.432,5.432,0,0,0,2.56.6,5.862,5.862,0,0,0,2.483-.516,5.539,5.539,0,0,0,1.912-1.439,6.663,6.663,0,0,0,1.23-2.208A8.752,8.752,0,0,0,18.765-9.536Z" transform="translate(-362.745 5671.226)" fill="#325c6d"/>
    <path id="Trazado_67594" data-name="Trazado 67594" d="M-4.7-23.687a16.23,16.23,0,0,1,.6,2.538,18.621,18.621,0,0,1,.263,3.1A9.653,9.653,0,0,1-4.794-13.7a17.965,17.965,0,0,1-2.387,3.628A36.179,36.179,0,0,1-10.3-6.824q-1.692,1.56-3.121,3.158A18.031,18.031,0,0,0-15.81-.32a7.882,7.882,0,0,0-.959,3.854,7.053,7.053,0,0,0,.7,3.2,6.746,6.746,0,0,0,1.9,2.331,8.327,8.327,0,0,0,2.782,1.41,11.672,11.672,0,0,0,3.346.47,14.583,14.583,0,0,0,11.016-5v6.617A22.126,22.126,0,0,1-8.948,16.167a18.707,18.707,0,0,1-5.376-.752,13.021,13.021,0,0,1-4.4-2.237,10.813,10.813,0,0,1-2.989-3.7,11.376,11.376,0,0,1-1.109-5.151,12.012,12.012,0,0,1,.978-4.963,17.913,17.913,0,0,1,2.463-4,31.755,31.755,0,0,1,3.215-3.4q1.729-1.579,3.215-3.139a17.239,17.239,0,0,0,2.463-3.252,7.308,7.308,0,0,0,.978-3.722A11.135,11.135,0,0,0-9.926-21.3a22.422,22.422,0,0,0-.827-2.387ZM-8.083-39.327a4.156,4.156,0,0,1,2.933,1.2A3.853,3.853,0,0,1-3.91-35.191a3.93,3.93,0,0,1-1.241,2.933,4.01,4.01,0,0,1-2.933,1.241,4.01,4.01,0,0,1-2.933-1.241,3.93,3.93,0,0,1-1.241-2.933,3.853,3.853,0,0,1,1.241-2.933A4.156,4.156,0,0,1-8.083-39.327Zm28.5-14.588L19.7-15.189H14.625l-.677-38.726ZM17.257.677a4.053,4.053,0,0,1-2.951-1.2,3.96,3.96,0,0,1-1.222-2.933A4.021,4.021,0,0,1,14.306-6.41a4.021,4.021,0,0,1,2.951-1.222A4.04,4.04,0,0,1,20.19-6.41a3.991,3.991,0,0,1,1.241,2.951A3.93,3.93,0,0,1,20.19-.526,4.072,4.072,0,0,1,17.257.677Z" transform="translate(-362.333 5753.116)" fill="#325c6d"/>
  </g>
</svg>
