<svg xmlns="http://www.w3.org/2000/svg" xmlns:xlink="http://www.w3.org/1999/xlink" width="86.907" height="177.057" viewBox="0 0 86.907 177.057">
  <defs>
    <linearGradient id="linear-gradient" x1="0.5" x2="0.5" y2="1" gradientUnits="objectBoundingBox">
      <stop offset="0" stop-color="#325a6a"/>
      <stop offset="0.529" stop-color="#33708b"/>
      <stop offset="1" stop-color="#3487ad"/>
    </linearGradient>
  </defs>
  <g id="Grupo_26940" data-name="Grupo 26940" transform="translate(415.5 -4360.201)">
    <path id="Trazado_67583" data-name="Trazado 67583" d="M43.454,0A43.454,43.454,0,0,1,86.907,43.454V133.6A43.454,43.454,0,0,1,0,133.6V43.454A43.454,43.454,0,0,1,43.454,0Z" transform="translate(-415.5 4360.201)" fill="url(#linear-gradient)"/>
    <path id="Trazado_67584" data-name="Trazado 67584" d="M-1.846-15.886A30.953,30.953,0,0,1-2.56-8.877,16.332,16.332,0,0,1-4.625-3.724,9.3,9.3,0,0,1-7.943-.538,9.083,9.083,0,0,1-12.415.549a8.482,8.482,0,0,1-4.23-1.044,8.865,8.865,0,0,1-3.131-3.043,15.424,15.424,0,0,1-1.934-4.911,30.366,30.366,0,0,1-.659-6.669,34.373,34.373,0,0,1,.692-7.295,16.686,16.686,0,0,1,2.032-5.306,9.046,9.046,0,0,1,3.329-3.23,9.347,9.347,0,0,1,4.559-1.088Q-1.846-32.036-1.846-15.886Zm-3.691.352q0-13.447-6.394-13.447-6.746,0-6.746,13.689,0,12.766,6.614,12.766Q-5.537-2.527-5.537-15.535ZM20.94-8.921a9.185,9.185,0,0,1-.8,3.878,8.563,8.563,0,0,1-2.263,2.988,10.446,10.446,0,0,1-3.5,1.923,14.176,14.176,0,0,1-4.5.681A13.089,13.089,0,0,1,2.7-1.165V-5.032A11.479,11.479,0,0,0,10-2.527a9.914,9.914,0,0,0,2.977-.417A6.676,6.676,0,0,0,15.26-4.153a5.368,5.368,0,0,0,1.472-1.912,5.97,5.97,0,0,0,.516-2.527q0-6.174-8.789-6.174H5.845V-17.82H8.328q7.778,0,7.778-5.8,0-5.361-5.933-5.361a10.1,10.1,0,0,0-6.262,2.241v-3.494a13.69,13.69,0,0,1,7.163-1.8,11.007,11.007,0,0,1,3.582.549A8.207,8.207,0,0,1,17.4-29.949a6.816,6.816,0,0,1,1.769,2.373,7.324,7.324,0,0,1,.626,3.054q0,6.218-6.284,8v.088a9.94,9.94,0,0,1,2.966.78,7.915,7.915,0,0,1,2.351,1.571A7,7,0,0,1,20.38-11.81,7.261,7.261,0,0,1,20.94-8.921Z" transform="translate(-372.745 4420.226)" fill="#fff"/>
    <path id="Trazado_67585" data-name="Trazado 67585" d="M.15-30.98a4.034,4.034,0,0,1-2.989-1.241,4.084,4.084,0,0,1-1.222-2.97,3.96,3.96,0,0,1,1.222-2.933,4.1,4.1,0,0,1,2.989-1.2,4.116,4.116,0,0,1,2.97,1.2,3.93,3.93,0,0,1,1.241,2.933,4.052,4.052,0,0,1-1.241,2.97A4.052,4.052,0,0,1,.15-30.98ZM3.534-8.572l-6.016,18.5h-4.4l4.4-18.5Z" transform="translate(-372.333 4502.116)" fill="#fff"/>
  </g>
</svg>
