<svg xmlns="http://www.w3.org/2000/svg" xmlns:xlink="http://www.w3.org/1999/xlink" width="91.907" height="187.243" viewBox="0 0 91.907 187.243">
  <defs>
    <linearGradient id="linear-gradient" x1="0.5" x2="0.5" y2="1" gradientUnits="objectBoundingBox">
      <stop offset="0" stop-color="#325a6a"/>
      <stop offset="0.529" stop-color="#33708b"/>
      <stop offset="1" stop-color="#3487ad"/>
    </linearGradient>
  </defs>
  <g id="Grupo_26938" data-name="Grupo 26938" transform="translate(382.5 -3432.052)">
    <path id="Trazado_67577" data-name="Trazado 67577" d="M45.954,0A45.954,45.954,0,0,1,91.907,45.954v95.336a45.954,45.954,0,0,1-91.907,0V45.954A45.954,45.954,0,0,1,45.954,0Z" transform="translate(-382.5 3432.052)" fill="url(#linear-gradient)"/>
    <path id="Trazado_67578" data-name="Trazado 67578" d="M-1.928-16.592a32.328,32.328,0,0,1-.746,7.321A17.058,17.058,0,0,1-4.831-3.89,9.709,9.709,0,0,1-8.3-.562,9.487,9.487,0,0,1-12.966.574a8.859,8.859,0,0,1-4.418-1.09,9.259,9.259,0,0,1-3.27-3.178,16.11,16.11,0,0,1-2.02-5.129,31.715,31.715,0,0,1-.688-6.965,35.9,35.9,0,0,1,.723-7.619,17.427,17.427,0,0,1,2.123-5.542,9.448,9.448,0,0,1,3.477-3.374,9.762,9.762,0,0,1,4.762-1.136Q-1.928-33.46-1.928-16.592Zm-3.855.367q0-14.045-6.678-14.045-7.045,0-7.045,14.3,0,13.333,6.908,13.333Q-5.783-2.639-5.783-16.225ZM16.615,0H12.852V-28.434a8.712,8.712,0,0,1-1.274,1A20.761,20.761,0,0,1,9.7-26.323q-1.044.551-2.2,1.033a16.011,16.011,0,0,1-2.26.757v-3.81a21.88,21.88,0,0,0,2.628-.929q1.388-.585,2.731-1.308t2.536-1.515a20.133,20.133,0,0,0,2.065-1.549h1.423Z" transform="translate(-337.896 3494.574)" fill="#fff"/>
    <path id="Trazado_67579" data-name="Trazado 67579" d="M.04.87a4.2,4.2,0,0,1-3.1-1.305A4.3,4.3,0,0,1-4.351-3.56,4.362,4.362,0,0,1-3.065-6.7,4.168,4.168,0,0,1,.04-8.029,4.277,4.277,0,0,1,3.2-6.7,4.328,4.328,0,0,1,4.509-3.56,4.263,4.263,0,0,1,3.2-.435,4.309,4.309,0,0,1,.04.87Z" transform="translate(-337.035 3581.794)" fill="#fff"/>
  </g>
</svg>
