<svg xmlns="http://www.w3.org/2000/svg" xmlns:xlink="http://www.w3.org/1999/xlink" width="86.907" height="177.057" viewBox="0 0 86.907 177.057">
  <defs>
    <linearGradient id="linear-gradient" x1="0.5" x2="0.5" y2="1" gradientUnits="objectBoundingBox">
      <stop offset="0" stop-color="#faf6d3"/>
      <stop offset="0.334" stop-color="#e4deb1"/>
      <stop offset="1" stop-color="#b2a864"/>
    </linearGradient>
  </defs>
  <g id="Grupo_26941" data-name="Grupo 26941" transform="translate(405.5 -4884.201)">
    <path id="Trazado_67586" data-name="Trazado 67586" d="M43.454,0A43.454,43.454,0,0,1,86.907,43.454V133.6A43.454,43.454,0,0,1,0,133.6V43.454A43.454,43.454,0,0,1,43.454,0Z" transform="translate(-405.5 4884.201)" fill="url(#linear-gradient)"/>
    <path id="Trazado_67587" data-name="Trazado 67587" d="M-1.846-15.886A30.953,30.953,0,0,1-2.56-8.877,16.332,16.332,0,0,1-4.625-3.724,9.3,9.3,0,0,1-7.943-.538,9.083,9.083,0,0,1-12.415.549a8.482,8.482,0,0,1-4.23-1.044,8.865,8.865,0,0,1-3.131-3.043,15.424,15.424,0,0,1-1.934-4.911,30.366,30.366,0,0,1-.659-6.669,34.373,34.373,0,0,1,.692-7.295,16.686,16.686,0,0,1,2.032-5.306,9.046,9.046,0,0,1,3.329-3.23,9.347,9.347,0,0,1,4.559-1.088Q-1.846-32.036-1.846-15.886Zm-3.691.352q0-13.447-6.394-13.447-6.746,0-6.746,13.689,0,12.766,6.614,12.766Q-5.537-2.527-5.537-15.535ZM18.677-31.509V-10.7H22.72v3.3H18.677V0h-3.56V-7.4H.308v-3.12Q2.373-12.854,4.482-15.5t4.032-5.372q1.923-2.725,3.56-5.438a49.7,49.7,0,0,0,2.758-5.2ZM4.373-10.7H15.117V-26.125Q13.469-23.247,12-20.984T9.2-16.875q-1.329,1.846-2.538,3.34T4.373-10.7Z" transform="translate(-362.745 4944.226)" fill="#325c6d"/>
    <path id="Trazado_67588" data-name="Trazado 67588" d="M.038-30.98a3.991,3.991,0,0,1-2.951-1.241,4.084,4.084,0,0,1-1.222-2.97,3.96,3.96,0,0,1,1.222-2.933,4.053,4.053,0,0,1,2.951-1.2,4.162,4.162,0,0,1,3.008,1.2,3.93,3.93,0,0,1,1.241,2.933,4.052,4.052,0,0,1-1.241,2.97A4.1,4.1,0,0,1,.038-30.98ZM.038.827A3.991,3.991,0,0,1-2.914-.414a4.084,4.084,0,0,1-1.222-2.97A4.147,4.147,0,0,1-2.914-6.373,3.962,3.962,0,0,1,.038-7.632a4.065,4.065,0,0,1,3.008,1.26A4.115,4.115,0,0,1,4.286-3.384,4.052,4.052,0,0,1,3.045-.414,4.1,4.1,0,0,1,.038.827Z" transform="translate(-362.333 5026.116)" fill="#325c6d"/>
  </g>
</svg>
