<svg xmlns="http://www.w3.org/2000/svg" xmlns:xlink="http://www.w3.org/1999/xlink" width="89.907" height="183.168" viewBox="0 0 89.907 183.168">
  <defs>
    <linearGradient id="linear-gradient" x1="0.5" x2="0.5" y2="1" gradientUnits="objectBoundingBox">
      <stop offset="0" stop-color="#faf6d3"/>
      <stop offset="0.334" stop-color="#e4deb1"/>
      <stop offset="1" stop-color="#b2a864"/>
    </linearGradient>
  </defs>
  <g id="Grupo_26939" data-name="Grupo 26939" transform="translate(398.5 -3801.089)">
    <path id="Trazado_67580" data-name="Trazado 67580" d="M44.954,0A44.954,44.954,0,0,1,89.907,44.954v93.261a44.954,44.954,0,0,1-89.907,0V44.954A44.954,44.954,0,0,1,44.954,0Z" transform="translate(-398.5 3801.089)" fill="url(#linear-gradient)"/>
    <path id="Trazado_67581" data-name="Trazado 67581" d="M-1.928-16.592a32.328,32.328,0,0,1-.746,7.321A17.058,17.058,0,0,1-4.831-3.89,9.709,9.709,0,0,1-8.3-.562,9.487,9.487,0,0,1-12.966.574a8.859,8.859,0,0,1-4.418-1.09,9.259,9.259,0,0,1-3.27-3.178,16.11,16.11,0,0,1-2.02-5.129,31.715,31.715,0,0,1-.688-6.965,35.9,35.9,0,0,1,.723-7.619,17.427,17.427,0,0,1,2.123-5.542,9.448,9.448,0,0,1,3.477-3.374,9.762,9.762,0,0,1,4.762-1.136Q-1.928-33.46-1.928-16.592Zm-3.855.367q0-14.045-6.678-14.045-7.045,0-7.045,14.3,0,13.333,6.908,13.333Q-5.783-2.639-5.783-16.225Zm23.5-8.055a6.8,6.8,0,0,0-.47-2.639,5.228,5.228,0,0,0-1.285-1.87A5.266,5.266,0,0,0,14.045-29.9a7.5,7.5,0,0,0-2.387-.367,7.9,7.9,0,0,0-2.157.3,10.487,10.487,0,0,0-2.054.826,12.635,12.635,0,0,0-1.928,1.262,13.925,13.925,0,0,0-1.733,1.629v-4.039a11.253,11.253,0,0,1,3.546-2.352,12.484,12.484,0,0,1,4.785-.815,11.551,11.551,0,0,1,3.741.585,8.577,8.577,0,0,1,2.983,1.71,7.9,7.9,0,0,1,1.985,2.777,9.366,9.366,0,0,1,.723,3.787,12.985,12.985,0,0,1-.448,3.534,10.93,10.93,0,0,1-1.354,2.983A14.4,14.4,0,0,1,17.464-15.4a32.345,32.345,0,0,1-3.236,2.616Q11.911-11.13,10.407-9.96A16.891,16.891,0,0,0,8.021-7.768,6.36,6.36,0,0,0,6.781-5.726a7.14,7.14,0,0,0-.356,2.352H22.812V0H2.5V-1.629A13.578,13.578,0,0,1,2.96-5.347,9.654,9.654,0,0,1,4.475-8.4,16.939,16.939,0,0,1,7.24-11.291q1.71-1.446,4.188-3.259a26.478,26.478,0,0,0,2.995-2.456,12.767,12.767,0,0,0,1.939-2.341,8.407,8.407,0,0,0,1.044-2.375A10.241,10.241,0,0,0,17.717-24.28Z" transform="translate(-354.236 3863.012)" fill="#325a6a"/>
    <path id="Trazado_67582" data-name="Trazado 67582" d="M3.626-8.795-2.546,10.184H-7.059L-2.546-8.795Z" transform="translate(-354.291 3946.901)" fill="#325a6a"/>
  </g>
</svg>
