<svg xmlns="http://www.w3.org/2000/svg" xmlns:xlink="http://www.w3.org/1999/xlink" width="145.215" height="144.156" viewBox="0 0 145.215 144.156">
  <defs>
    <linearGradient id="linear-gradient" x1="0.851" y1="0.137" x2="0.087" y2="0.621" gradientUnits="objectBoundingBox">
      <stop offset="0" stop-color="#ff9085"/>
      <stop offset="1" stop-color="#fb6fbb"/>
    </linearGradient>
    <linearGradient id="linear-gradient-2" x1="0.655" y1="0.1" x2="0.325" y2="1.024" gradientUnits="objectBoundingBox">
      <stop offset="0" stop-color="#aa80f9"/>
      <stop offset="0.996" stop-color="#6165d7"/>
    </linearGradient>
    <linearGradient id="linear-gradient-3" x1="-6.627" y1="0.652" x2="-6.321" y2="1.284" gradientUnits="objectBoundingBox">
      <stop offset="0.004" stop-color="#e38ddd"/>
      <stop offset="1" stop-color="#9571f6"/>
    </linearGradient>
    <linearGradient id="linear-gradient-4" x1="-6.714" y1="0.658" x2="-6.405" y2="1.29" xlink:href="#linear-gradient-3"/>
    <linearGradient id="linear-gradient-5" x1="-6.636" y1="0.387" x2="-6.593" y2="1.047" xlink:href="#linear-gradient-2"/>
    <clipPath id="clip-path">
      <path id="SVGID" d="M2221.728,2441.973a38.947,38.947,0,0,1-3.59-20.625c1.169-9.815,5.854-12.263,9.135-22.976,4.684-15.292-3.564-25.1,2.444-30.276a10.485,10.485,0,0,1,11.215-1.211c9.435,5.286,9.986,32.717-2.757,44.829-5.763,5.478-11.309,5.5-15.351,12.222C2219.253,2429.872,2220.366,2437.069,2221.728,2441.973Z" transform="translate(-2217.9 -2365.784)" fill="url(#linear-gradient)"/>
    </clipPath>
    <clipPath id="clip-path-2">
      <path id="SVGID-2" data-name="SVGID" d="M2207.216,2487.381c-1.116-4-2.194-10.317.5-16.365,4.705-10.551,15.6-8.4,24.537-20.131,7.206-9.458,3.918-15.844,12.315-22.521,1.406-1.118,8.81-7.233,15.084-4.716a10.928,10.928,0,0,1,5.445,5.606c4.563,10-4.241,27.4-17.21,36.323-7.451,5.129-10.156,4.011-23.543,10.5A78.837,78.837,0,0,0,2207.216,2487.381Z" transform="translate(-2206.03 -2423.046)" fill="url(#linear-gradient-2)"/>
    </clipPath>
    <linearGradient id="linear-gradient-8" x1="0.483" y1="-5.365" x2="0.442" y2="-4.762" xlink:href="#linear-gradient-2"/>
    <linearGradient id="linear-gradient-9" y1="0.5" x2="1" y2="0.5" gradientUnits="objectBoundingBox">
      <stop offset="0" stop-color="#311944"/>
      <stop offset="1" stop-color="#6b3976"/>
    </linearGradient>
    <linearGradient id="linear-gradient-11" x1="0.908" y1="0.991" x2="-0.581" y2="-0.802" xlink:href="#linear-gradient"/>
    <linearGradient id="linear-gradient-12" y1="0.5" x2="1" y2="0.5" gradientUnits="objectBoundingBox">
      <stop offset="0.004" stop-color="#26264f"/>
      <stop offset="1" stop-color="#444b8c"/>
    </linearGradient>
    <linearGradient id="linear-gradient-14" x1="0.83" y1="0.974" x2="0.626" y2="0.681" gradientUnits="objectBoundingBox">
      <stop offset="0" stop-color="#ffc444"/>
      <stop offset="0.996" stop-color="#f36f56"/>
    </linearGradient>
    <linearGradient id="linear-gradient-18" x1="-0.44" y1="2.375" x2="-0.935" y2="1.837" xlink:href="#linear-gradient-12"/>
    <clipPath id="clip-path-3">
      <path id="SVGID-3" data-name="SVGID" d="M1969.218,2541.313c-13.446-13.736-21.084-57.611-7.64-70.7,13.241-12.893,71.568-2.395,81.364,13.561,13.364,21.767-14.606,44.85-27.048,57.657C2003.269,2554.825,1982.4,2554.78,1969.218,2541.313Z" transform="translate(-1954.54 -2464.83)" fill="none"/>
    </clipPath>
    <linearGradient id="linear-gradient-20" x1="-231.643" y1="5.99" x2="-228.795" y2="7.749" xlink:href="#linear-gradient-14"/>
    <linearGradient id="linear-gradient-21" x1="-15.396" y1="0.48" x2="-14.592" y2="0.513" xlink:href="#linear-gradient-14"/>
    <linearGradient id="linear-gradient-22" x1="-41.431" y1="8.134" x2="-40.441" y2="8.134" gradientUnits="objectBoundingBox">
      <stop offset="0" stop-color="#444b8c"/>
      <stop offset="0.996" stop-color="#26264f"/>
    </linearGradient>
    <linearGradient id="linear-gradient-23" x1="-157.431" y1="4.691" x2="-156.124" y2="2.891" xlink:href="#linear-gradient-14"/>
    <linearGradient id="linear-gradient-24" x1="-42.199" y1="13.2" x2="-41.233" y2="13.2" xlink:href="#linear-gradient-22"/>
    <linearGradient id="linear-gradient-25" x1="-125.482" y1="9.102" x2="-124.422" y2="7.213" xlink:href="#linear-gradient-14"/>
    <linearGradient id="linear-gradient-26" x1="6.047" y1="0.515" x2="5.119" y2="-0.148" xlink:href="#linear-gradient-2"/>
    <linearGradient id="linear-gradient-27" x1="6.72" y1="0.528" x2="5.664" y2="-0.146" xlink:href="#linear-gradient-2"/>
    <linearGradient id="linear-gradient-28" x1="2.016" y1="1.07" x2="0.923" y2="0.418" xlink:href="#linear-gradient-2"/>
    <linearGradient id="linear-gradient-29" x1="0.959" y1="0.835" x2="1.623" y2="-0.249" xlink:href="#linear-gradient-14"/>
    <linearGradient id="linear-gradient-30" x1="17.516" y1="-15.384" x2="17.572" y2="-17.154" xlink:href="#linear-gradient-14"/>
    <linearGradient id="linear-gradient-31" x1="-62.571" y1="-3.661" x2="-63.249" y2="-5.21" xlink:href="#linear-gradient-9"/>
    <linearGradient id="linear-gradient-32" x1="-2.266" y1="-4.97" x2="-2.301" y2="-1.808" xlink:href="#linear-gradient-14"/>
    <linearGradient id="linear-gradient-33" x1="-74.475" y1="-5.517" x2="-75.278" y2="-7.645" xlink:href="#linear-gradient-9"/>
    <linearGradient id="linear-gradient-34" x1="-334.327" y1="-93.064" x2="-334.144" y2="-88.168" gradientUnits="objectBoundingBox">
      <stop offset="0" stop-color="#ffc444"/>
      <stop offset="1" stop-color="#f36f56"/>
    </linearGradient>
    <linearGradient id="linear-gradient-35" x1="1.163" y1="0.808" x2="2.003" y2="-0.847" xlink:href="#linear-gradient-3"/>
    <linearGradient id="linear-gradient-36" x1="0.838" y1="0.728" x2="0.376" y2="0.417" xlink:href="#linear-gradient-12"/>
    <linearGradient id="linear-gradient-37" x1="-26.104" y1="1.599" x2="-27.148" y2="2.096" xlink:href="#linear-gradient-12"/>
    <linearGradient id="linear-gradient-38" x1="0.521" y1="4.564" x2="0.495" y2="-0.403" xlink:href="#linear-gradient-2"/>
    <linearGradient id="linear-gradient-39" x1="-69.615" y1="0.117" x2="-69.11" y2="2.436" xlink:href="#linear-gradient-14"/>
    <linearGradient id="linear-gradient-40" x1="-8.413" y1="5.213" x2="-7.521" y2="3.314" xlink:href="#linear-gradient-14"/>
  </defs>
  <g id="Grupo_31983" data-name="Grupo 31983" transform="translate(-1750.541 -2365.784)">
    <path id="Trazado_66780" data-name="Trazado 66780" d="M1877.27,2494.646a55.1,55.1,0,0,1-9.674,7.853c-25.054,16.728-53.692,11.907-62.547,10.259-14.285-2.659-26.345-4.535-36.705-13.9-23.543-21.27-22.4-65.641-4.408-93.127,2.133-3.259,20.1-29.885,48.8-33.637.7-.092,1.226-.144,1.684-.192,4.44-.47,31.953-2.951,54.388,15.844a66.936,66.936,0,0,1,13.172,14.945C1899.5,2429.759,1899.555,2471.675,1877.27,2494.646Z" transform="translate(0 -4.741)" fill="#f4f7fa"/>
    <g id="Grupo_31962" data-name="Grupo 31962" transform="translate(1754.208 2397.746)">
      <g id="Grupo_31960" data-name="Grupo 31960" transform="translate(0 34.606)">
        <g id="Grupo_31959" data-name="Grupo 31959">
          <path id="Trazado_66781" data-name="Trazado 66781" d="M1851.416,2794.835c-5.1,5.6-13.189,12.432-24.4,15.179-2.608.639-13.665,3.347-17-1.271-1.839-2.549-.153-5.711-2.248-7.252-2.278-1.676-5.075,1.472-10.692,1.306-4.162-.123-9.765-2.063-11.282-5.894-1.392-3.514,1.884-5.511.511-9.178-1.247-3.33-4.358-2.783-9.339-7.438-2.427-2.269-5.922-5.536-5.61-9.269.281-3.358,3.322-3.272,4.561-7.288,1.349-4.372-1.709-6.249-1.2-13.231.2-2.815.4-5.513,2.239-6.682,3.038-1.933,8.375,1.7,10.488,3.52.891.766,5.825,5.006,5.6,10.543-.117,2.814-1.49,4.1-.583,5.658,1.079,1.855,3.578.983,6.758,2.492,4.423,2.1,6.3,6.974,6.884,8.474,2.229,5.776.2,9.912,2.719,11.347.915.521,2.3.376,5.065.088,3.184-.332,3.75-.949,5.045-.794,3.3.4,4.676,5.009,6.272,7.229C1827.625,2795.754,1834,2798.375,1851.416,2794.835Z" transform="translate(-1771.336 -2743.266)" fill="url(#linear-gradient-3)"/>
        </g>
        <path id="Trazado_66782" data-name="Trazado 66782" d="M1820.74,2804.158c-1.866-1.829-1.34-4.54-4.6-7.345-5.255-4.525-10.9-1.146-15.315-5.151-3.19-2.893-.988-5.326-3.971-11.871-3.876-8.505-8.959-7.39-12.522-15.254-2.969-6.552-.3-9.229-3.151-16.034a24.036,24.036,0,0,0-2.824-4.964,3.509,3.509,0,0,0-1.405.5c-1.838,1.169-2.034,3.867-2.239,6.682-.509,6.981,2.549,8.859,1.2,13.231-1.239,4.015-4.28,3.93-4.561,7.288-.312,3.734,3.183,7,5.61,9.269,4.981,4.656,8.092,4.109,9.339,7.438,1.373,3.668-1.9,5.665-.511,9.178,1.517,3.831,7.12,5.771,11.282,5.894,5.617.166,8.414-2.982,10.692-1.306,2.1,1.541.41,4.7,2.248,7.252,3.33,4.618,14.388,1.91,17,1.271,10.554-2.585,18.341-8.788,23.471-14.177C1831.206,2806.74,1823.618,2806.978,1820.74,2804.158Z" transform="translate(-1771.336 -2743.491)" opacity="0.3" fill="url(#linear-gradient-4)" style="mix-blend-mode: multiply;isolation: isolate"/>
      </g>
      <g id="Grupo_31961" data-name="Grupo 31961" transform="translate(7.912 0)">
        <path id="Trazado_66783" data-name="Trazado 66783" d="M1893.823,2631.8a132.874,132.874,0,0,1-19.661,7.636c-8.861,2.645-11.951,2.531-14.009.914-3-2.358-2.048-6.532-5.283-7.958-2.667-1.175-4.139,1.3-7.607.485-4.5-1.057-6.994-6.393-7.929-8.394-2.117-4.531-.808-5.937-2.882-9.149-2.656-4.112-5.691-3.182-8.418-6.24-4.9-5.49,1.467-12.323-1.658-22.979-2.467-8.414-7.368-7.337-9.442-15.785-1.706-6.947-.709-17.123,5.926-21.317.693-.438,4.962-3.032,8.985-1.507,6.44,2.442,8.344,13.961,8.238,20.789-.1,6.143-1.818,8.426.116,11.139,2.081,2.919,5.131,1.759,11.717,5.252,4.483,2.377,7.308,3.875,8.433,6.867,1.9,5.042-3.177,8.628-1.022,14.754a10.751,10.751,0,0,0,3.621,5.067c3.65,2.687,6.563.615,10.006,2.611,3.919,2.272,2.845,6.523,6.026,10.875C1881.04,2627.679,1885.079,2630.806,1893.823,2631.8Z" transform="translate(-1816.202 -2547.029)" fill="url(#linear-gradient-5)"/>
      </g>
      <path id="Trazado_66784" data-name="Trazado 66784" d="M1868.08,2632.984c-2.357-2.9-1.509-6.253-5.4-10.179-5.6-5.648-11.311-2.7-15.649-7.537-4.04-4.51-.174-8.285-3.548-17.22-3.42-9.055-8.44-7.957-11.539-16.474-2.8-7.693.472-10.853-1.69-20.3a37.891,37.891,0,0,0-4.423-10.94,14.109,14.109,0,0,0-2.968,1.4c-6.636,4.194-7.632,14.37-5.926,21.317,2.073,8.448,6.974,7.371,9.442,15.785,3.125,10.656-3.238,17.488,1.658,22.979,2.727,3.058,5.761,2.128,8.418,6.24,2.075,3.212.765,4.618,2.882,9.149.935,2,3.428,7.336,7.929,8.394,3.468.814,4.94-1.66,7.607-.485,3.235,1.425,2.281,5.6,5.283,7.958,2.058,1.616,5.148,1.731,14.009-.914a132.874,132.874,0,0,0,19.661-7.636q-.438-.05-.86-.107C1877.51,2638.35,1870.885,2636.433,1868.08,2632.984Z" transform="translate(-1808.29 -2549.746)" fill="#fff" opacity="0.3" style="mix-blend-mode: soft-light;isolation: isolate"/>
    </g>
    <g id="Grupo_31972" data-name="Grupo 31972" transform="translate(1830.865 2365.784)">
      <g id="Grupo_31966" data-name="Grupo 31966" transform="translate(2.093 0)">
        <g id="Grupo_31965" data-name="Grupo 31965">
          <path id="SVGID-4" data-name="SVGID" d="M2221.728,2441.973a38.947,38.947,0,0,1-3.59-20.625c1.169-9.815,5.854-12.263,9.135-22.976,4.684-15.292-3.564-25.1,2.444-30.276a10.485,10.485,0,0,1,11.215-1.211c9.435,5.286,9.986,32.717-2.757,44.829-5.763,5.478-11.309,5.5-15.351,12.222C2219.253,2429.872,2220.366,2437.069,2221.728,2441.973Z" transform="translate(-2217.9 -2365.784)" fill="url(#linear-gradient)"/>
          <g id="Grupo_31964" data-name="Grupo 31964" clip-path="url(#clip-path)">
            <g id="Grupo_31963" data-name="Grupo 31963" transform="translate(1.33 -2.265)" opacity="0.5" style="mix-blend-mode: soft-light;isolation: isolate">
              <path id="Trazado_66785" data-name="Trazado 66785" d="M2225.615,2419.123l-.175-.024a37.681,37.681,0,0,1,1.454-6.3c1.522-4.7,3.468-7.406,5.931-10.827a87.223,87.223,0,0,0,5.438-8.287c3.787-6.633,4.935-8.942,5.793-12.547a34.513,34.513,0,0,0-.121-16.275,33.652,33.652,0,0,0-5.666-11.814l.141-.105a33.821,33.821,0,0,1,5.7,11.876,34.693,34.693,0,0,1,.122,16.36c-.863,3.627-2.014,5.944-5.811,12.594a87.537,87.537,0,0,1-5.448,8.3c-2.455,3.409-4.393,6.1-5.907,10.779A37.51,37.51,0,0,0,2225.615,2419.123Z" transform="translate(-2225.44 -2352.941)" fill="#fff"/>
              <path id="Trazado_66786" data-name="Trazado 66786" d="M2273.3,2396.639l-.018-.144c-.639-5.046-4.226-7.969-7.123-9.532a22.283,22.283,0,0,0-6.215-2.211l.028-.174a22.466,22.466,0,0,1,6.266,2.227c2.907,1.567,6.5,4.488,7.2,9.52a18.542,18.542,0,0,0,4.292-4.748,16.613,16.613,0,0,0,1.878-13.751l.169-.048a16.783,16.783,0,0,1-1.9,13.9,18.366,18.366,0,0,1-4.455,4.879Z" transform="translate(-2253.859 -2373.399)" fill="#fff"/>
              <path id="Trazado_66787" data-name="Trazado 66787" d="M2283.32,2508.228a16.765,16.765,0,0,1-4.733-.648l-.071-.023.011-.073c1.46-9.774-5.4-13.968-5.47-14.01l.09-.151c.07.042,7,4.27,5.565,14.112.828.25,8.72,2.426,14.547-3.221l.123.127A14.136,14.136,0,0,1,2283.32,2508.228Z" transform="translate(-2264.661 -2468.566)" fill="#fff"/>
              <path id="Trazado_66788" data-name="Trazado 66788" d="M2265.6,2565.411a13.421,13.421,0,0,1-2.109-.161,9.336,9.336,0,0,1-3.821-1.369l-.051-.037.019-.061c1.654-5.284-2.317-13.21-2.358-13.289l.157-.08c.04.08,4.013,8.008,2.388,13.359.567.372,5.754,3.486,14.337-.749l.078.158A19.51,19.51,0,0,1,2265.6,2565.411Z" transform="translate(-2251.665 -2515.59)" fill="#fff"/>
            </g>
          </g>
        </g>
      </g>
      <g id="Grupo_31970" data-name="Grupo 31970" transform="translate(0 10.098)">
        <g id="Grupo_31969" data-name="Grupo 31969">
          <path id="SVGID-5" data-name="SVGID" d="M2207.216,2487.381c-1.116-4-2.194-10.317.5-16.365,4.705-10.551,15.6-8.4,24.537-20.131,7.206-9.458,3.918-15.844,12.315-22.521,1.406-1.118,8.81-7.233,15.084-4.716a10.928,10.928,0,0,1,5.445,5.606c4.563,10-4.241,27.4-17.21,36.323-7.451,5.129-10.156,4.011-23.543,10.5A78.837,78.837,0,0,0,2207.216,2487.381Z" transform="translate(-2206.03 -2423.046)" fill="url(#linear-gradient-2)"/>
          <g id="Grupo_31968" data-name="Grupo 31968" clip-path="url(#clip-path-2)">
            <g id="Grupo_31967" data-name="Grupo 31967" transform="translate(0.366 -4.039)" opacity="0.7" style="mix-blend-mode: soft-light;isolation: isolate">
              <path id="Trazado_66789" data-name="Trazado 66789" d="M2208.279,2473.547l-.175-.017c.969-9.958,4.1-16.918,9.318-20.688a16.773,16.773,0,0,1,6.957-2.835,18.308,18.308,0,0,0,8.09-3.509,15.884,15.884,0,0,0,5.238-6.93,38.6,38.6,0,0,1,5.807-9.193,41.138,41.138,0,0,1,7.106-6.769,19.547,19.547,0,0,0,5.578-5.912c2.913-4.819,4.067-10.718,3.433-17.533l.176-.016c.638,6.854-.525,12.789-3.457,17.641a19.7,19.7,0,0,1-5.62,5.96,40.981,40.981,0,0,0-7.079,6.742,38.457,38.457,0,0,0-5.784,9.156,16.02,16.02,0,0,1-5.291,6.994,18.454,18.454,0,0,1-8.158,3.541,16.617,16.617,0,0,0-6.892,2.806C2212.354,2456.723,2209.244,2463.642,2208.279,2473.547Z" transform="translate(-2208.104 -2400.144)" fill="#fff"/>
              <path id="Trazado_66790" data-name="Trazado 66790" d="M2431.794,2447.3l.024-.116c.03-.14,2.93-14.118-2.648-19.157l.118-.131c5.38,4.86,3,17.844,2.726,19.209a26.485,26.485,0,0,0,15.658-6.75,25.02,25.02,0,0,0,4.928-5.919l.155.084a25.205,25.205,0,0,1-4.96,5.962,26.662,26.662,0,0,1-15.885,6.809Z" transform="translate(-2390.186 -2422.999)" fill="#fff"/>
              <path id="Trazado_66791" data-name="Trazado 66791" d="M2391.434,2517.294a30.854,30.854,0,0,1-8.537-1.116l-.072-.023.012-.075c1.18-7.252-1.625-17.088-1.654-17.186l.169-.049c.029.1,2.825,9.9,1.67,17.187a32.341,32.341,0,0,0,27.509-5.223l.106.141a31.587,31.587,0,0,1-18.789,6.342C2391.71,2517.294,2391.571,2517.294,2391.434,2517.294Z" transform="translate(-2350.662 -2481.439)" fill="#fff"/>
              <path id="Trazado_66792" data-name="Trazado 66792" d="M2328.77,2600.53a41.735,41.735,0,0,1-10.464-1.285,26.638,26.638,0,0,1-6.052-2.263l-.08-.047.051-.078c4.635-7.1,1.382-17.661,1.349-17.766l.168-.053c.034.106,3.288,10.663-1.317,17.836.908.492,9.326,4.791,22.438,3.079l.023.175A47.233,47.233,0,0,1,2328.77,2600.53Z" transform="translate(-2293.822 -2547.491)" fill="#fff"/>
            </g>
          </g>
        </g>
      </g>
      <g id="Grupo_31971" data-name="Grupo 31971" transform="translate(2.093 41.037)">
        <path id="Trazado_66793" data-name="Trazado 66793" d="M2217.9,2619.911a44.227,44.227,0,0,1,11.637-4.42c9.235-2.069,13.07.274,17.272-3.017,4.35-3.406,2.3-7.528,7.467-11.294.435-.317,5.971-4.24,10.281-2.009,3.015,1.561,3.81,5.3,4.184,7.049,1.449,6.8-1.056,16.6-8.617,20.662-7.169,3.855-15.264.626-17.832-.418-4.505-1.832-5.39-3.781-9.987-5.5A27.22,27.22,0,0,0,2217.9,2619.911Z" transform="translate(-2217.9 -2598.489)" fill="url(#linear-gradient-8)"/>
      </g>
    </g>
    <g id="Grupo_31973" data-name="Grupo 31973" transform="translate(1757.305 2374.409)">
      <path id="Trazado_66794" data-name="Trazado 66794" d="M1833.134,2457.724a4.025,4.025,0,0,0,5.642-1.656,4.5,4.5,0,0,0-1.64-5.939c-.1-.061-.211-.114-.317-.165a24.384,24.384,0,0,0,.844-3.58c.115.008.231.015.349.014a4.224,4.224,0,0,0,4.071-4.413,4.3,4.3,0,0,0-4.245-4.308c-.12,0-.238.012-.355.024a24.963,24.963,0,0,0-.982-3.556c.106-.054.21-.11.313-.175a4.463,4.463,0,0,0,1.4-5.977,4.061,4.061,0,0,0-5.7-1.512c-.1.063-.195.132-.288.2a23.143,23.143,0,0,0-2.542-2.572c.065-.1.128-.2.185-.313,1.1-2.1,2.546-4.379.522-5.52-4.677-2.637-6.683-.822-7.784,1.277-.057.109-.106.22-.153.331a21.538,21.538,0,0,0-3.406-.905c.007-.121.012-.242.01-.365-.048-2.4.66-3.647-1.632-3.86-4.993-.464-6.676,1.592-6.628,3.991,0,.125.013.248.025.371a21.62,21.62,0,0,0-3.356,1.006c-.052-.111-.106-.221-.167-.328a4.016,4.016,0,0,0-5.657-1.5,4.459,4.459,0,0,0-1.388,5.949c.06.105.126.2.193.3a22.713,22.713,0,0,0-2.411,2.64c-.1-.068-.194-.135-.3-.2a3.98,3.98,0,0,0-5.58,1.668,4.484,4.484,0,0,0,1.62,5.9c.1.061.208.113.314.163a24.336,24.336,0,0,0-.835,3.561c-.114-.008-.228-.015-.344-.014a4.188,4.188,0,0,0-4.017,4.385,4.262,4.262,0,0,0,4.189,4.282c.118,0,.235-.011.35-.023a25,25,0,0,0,.971,3.537c-.1.053-.208.109-.309.173a4.447,4.447,0,0,0-1.385,5.937c1.175,2.061,5.067,3.285,7.01,2.067.1-.062-1.173-.671-1.081-.741a23.161,23.161,0,0,0,2.52,2.573c-.064.1-.127.2-.183.311a4.5,4.5,0,0,0,1.624,5.913,3.98,3.98,0,0,0,5.6-1.642c.057-.108.106-.219.153-.33a21.585,21.585,0,0,0,3.4.925c-.007.12-.013.241-.01.364a4.3,4.3,0,0,0,4.215,4.308,4.19,4.19,0,0,0,4.047-4.386c0-.125-.013-.249-.026-.372a21.586,21.586,0,0,0,3.368-.987c.052.111.106.222.168.33a4.061,4.061,0,0,0,5.691,1.54,4.451,4.451,0,0,0,1.4-5.964c-.061-.106-.128-.207-.195-.305a22.679,22.679,0,0,0,2.432-2.64C1832.931,2457.6,1833.03,2457.663,1833.134,2457.724Zm-24.96-1.653a16.318,16.318,0,0,1-5.9-21.462,14.533,14.533,0,0,1,20.354-6.062,16.312,16.312,0,0,1,5.935,21.517A14.531,14.531,0,0,1,1808.174,2456.072Z" transform="translate(-1788.894 -2414.693)" fill="url(#linear-gradient-9)"/>
      <path id="Trazado_66795" data-name="Trazado 66795" d="M1936.984,2472.162a4.224,4.224,0,0,0,4.071-4.413,4.3,4.3,0,0,0-4.245-4.308c-.12,0-.238.012-.355.024a24.941,24.941,0,0,0-.983-3.556c.106-.054.211-.11.313-.175,1.963-1.231,4.394-4.383,3.008-6.334-2.63-3.7-5.349-2.387-7.31-1.155-.1.063-.195.132-.288.2a23.129,23.129,0,0,0-2.542-2.572c.065-.1.128-.2.185-.313a4.53,4.53,0,0,0,.257-3.592q-2.838,4.805-5.589,9.659a16.4,16.4,0,0,1,4.027,20.2,14.647,14.647,0,0,1-15.142,7.881c-.265.671-.526,1.347-.81,2.011-.771,1.8-1.647,3.553-2.524,5.3q.827.223,1.661.379c-.007.121-.013.241-.01.365.047,2.4,1.493,4.552,5.627,4.666,2.289.063,2.682-2.342,2.635-4.744,0-.125-.013-.249-.025-.372a21.585,21.585,0,0,0,3.367-.987c.052.111.106.222.168.33,1.185,2.071,5.3,3.241,7.257,2.02s1.02-4.373-.167-6.445c-.061-.106-.127-.206-.195-.305a22.709,22.709,0,0,0,2.432-2.64c.1.069.2.136.3.2a4.025,4.025,0,0,0,5.642-1.656,4.5,4.5,0,0,0-1.64-5.939c-.1-.061-.211-.114-.317-.165a24.38,24.38,0,0,0,.844-3.58C1936.75,2472.156,1936.866,2472.163,1936.984,2472.162Z" transform="translate(-1887.867 -2440.456)" fill="url(#linear-gradient-9)"/>
      <path id="Trazado_66796" data-name="Trazado 66796" d="M1845.27,2458.369a4.028,4.028,0,0,0,5.645-1.656,4.5,4.5,0,0,0-1.641-5.941c-.1-.061-.211-.114-.317-.165a24.375,24.375,0,0,0,.845-3.581c.115.009.231.016.349.014a4.226,4.226,0,0,0,4.073-4.414,4.3,4.3,0,0,0-4.247-4.309c-.12,0-.238.011-.355.023a24.931,24.931,0,0,0-.983-3.557c.106-.054.211-.11.313-.174a4.464,4.464,0,0,0,1.4-5.979,4.064,4.064,0,0,0-5.708-1.513c-.1.063-.2.133-.289.2a23.2,23.2,0,0,0-2.543-2.573c.065-.1.128-.2.185-.313a4.489,4.489,0,0,0-1.637-5.927,4.027,4.027,0,0,0-5.629,1.683c-.057.108-.106.22-.154.331a21.612,21.612,0,0,0-3.408-.906c.007-.121.012-.242.01-.365a4.138,4.138,0,1,0-8.265.13c0,.125.013.249.025.371a21.585,21.585,0,0,0-3.358,1.006c-.052-.111-.106-.221-.167-.329a4.018,4.018,0,0,0-5.661-1.5,4.459,4.459,0,0,0-1.389,5.951c.06.105.126.2.193.3a22.751,22.751,0,0,0-2.412,2.641c-.1-.068-.194-.135-.3-.2a3.983,3.983,0,0,0-5.583,1.669,4.485,4.485,0,0,0,1.621,5.9c.1.061.208.113.314.164a24.335,24.335,0,0,0-.835,3.562c-.114-.009-.228-.015-.344-.014a4.191,4.191,0,0,0-4.02,4.387,4.264,4.264,0,0,0,4.191,4.283c.119,0,.235-.011.351-.023a24.907,24.907,0,0,0,.972,3.538c-.1.053-.208.109-.31.173a4.447,4.447,0,0,0-1.386,5.939,4.019,4.019,0,0,0,5.647,1.528c.1-.062.193-.131.286-.2a23.16,23.16,0,0,0,2.522,2.573c-.064.1-.127.2-.184.311a4.5,4.5,0,0,0,1.625,5.914,3.983,3.983,0,0,0,5.6-1.642c.057-.108.106-.219.153-.33a21.566,21.566,0,0,0,3.4.926c-.007.12-.013.241-.01.365a4.3,4.3,0,0,0,4.218,4.31,4.192,4.192,0,0,0,4.049-4.387c0-.125-.013-.249-.025-.372a21.608,21.608,0,0,0,3.369-.987c.052.111.106.222.168.33a4.064,4.064,0,0,0,5.694,1.541,4.451,4.451,0,0,0,1.4-5.966c-.061-.106-.127-.206-.2-.3a22.717,22.717,0,0,0,2.433-2.641C1845.068,2458.24,1845.166,2458.308,1845.27,2458.369Zm-24.974-1.655a16.322,16.322,0,0,1-5.906-21.469,14.544,14.544,0,0,1,20.366-6.063,16.315,16.315,0,0,1,5.938,21.523A14.541,14.541,0,0,1,1820.3,2456.715Z" transform="translate(-1798.869 -2414.921)" fill="url(#linear-gradient-11)"/>
    </g>
    <g id="Grupo_31975" data-name="Grupo 31975" transform="translate(1814.83 2415.844)">
      <g id="Grupo_31974" data-name="Grupo 31974" transform="translate(0 0)">
        <path id="Trazado_66797" data-name="Trazado 66797" d="M2179.661,2718.512c2.954,1.892,6.671.692,8.3-2.684a7.6,7.6,0,0,0-2.414-9.537c-.153-.1-.31-.182-.467-.263a42.364,42.364,0,0,0,1.242-5.759c.17.013.34.023.513.02,3.38-.06,6.066-3.25,6-7.125s-2.872-6.959-6.252-6.889c-.177,0-.35.021-.522.041a42.856,42.856,0,0,0-1.445-5.705c.155-.088.309-.179.46-.283a7.6,7.6,0,0,0,2.063-9.621c-1.75-3.31-5.507-4.366-8.39-2.363-.147.1-.286.215-.424.329a35.349,35.349,0,0,0-3.733-4.1c.095-.164.188-.33.271-.505,1.621-3.386,3.74-7.063.768-8.867-6.863-4.165-9.8-1.225-11.416,2.156-.083.175-.156.354-.225.533a29.194,29.194,0,0,0-4.986-1.4c.01-.194.018-.387.015-.585-.07-3.848.966-5.854-2.387-6.162-7.295-.668-9.751,2.647-9.682,6.486,0,.2.019.4.037.593a29.711,29.711,0,0,0-4.895,1.655c-.076-.176-.154-.351-.244-.523-1.719-3.276-5.408-4.312-8.239-2.32a7.594,7.594,0,0,0-2.019,9.524c.088.168.184.325.281.481a35.674,35.674,0,0,0-3.505,4.246c-.14-.108-.282-.214-.432-.309-2.89-1.842-6.516-.618-8.1,2.728s-.532,7.549,2.351,9.4c.149.1.3.178.455.258a42.384,42.384,0,0,0-1.211,5.69c-.166-.012-.331-.022-.5-.019-3.288.068-5.894,3.215-5.826,7.029s2.787,6.86,6.075,6.8c.172,0,.341-.02.509-.039a42.784,42.784,0,0,0,1.409,5.639c-.151.086-.3.175-.45.277-2.815,1.957-3.714,6.2-2.01,9.482s7.358,5.225,10.182,3.272c.145-.1-1.706-1.067-1.571-1.179a35.568,35.568,0,0,0,3.665,4.1c-.093.161-.184.325-.267.5a7.588,7.588,0,0,0,2.363,9.445c2.9,1.884,6.552.7,8.151-2.636.083-.173.154-.35.223-.528a29.239,29.239,0,0,0,4.954,1.473c-.01.193-.018.386-.015.583.07,3.841,2.824,6.927,6.157,6.892s5.988-3.183,5.918-7.033c0-.2-.019-.4-.037-.6a29.657,29.657,0,0,0,4.931-1.589c.076.178.156.355.246.529,1.736,3.319,5.472,4.422,8.345,2.459s3.8-6.255,2.054-9.578c-.089-.17-.187-.331-.286-.489a35.575,35.575,0,0,0,3.572-4.249C2179.363,2718.307,2179.508,2718.415,2179.661,2718.512Zm-36.536-2.544c-10.542-6.8-14.378-22.118-8.6-34.275,5.794-12.186,19.086-16.65,29.717-9.92,10.676,6.759,14.584,22.212,8.7,34.463C2167.074,2718.459,2153.711,2722.793,2143.125,2715.969Z" transform="translate(-2115.099 -2649.657)" fill="url(#linear-gradient-12)"/>
        <path id="Trazado_66798" data-name="Trazado 66798" d="M2330.742,2740.668c3.38-.06,6.066-3.25,6-7.125s-2.872-6.959-6.251-6.889c-.177,0-.35.021-.523.041a42.7,42.7,0,0,0-1.445-5.7c.156-.088.31-.179.461-.283,2.89-2,6.47-7.093,4.427-10.214-3.871-5.917-7.871-3.772-10.753-1.769-.148.1-.286.215-.424.329a35.421,35.421,0,0,0-3.733-4.1c.095-.164.188-.33.271-.5a7.9,7.9,0,0,0,.377-5.769q-4.166,7.75-8.2,15.568c8.523,7.506,11.243,21.254,5.906,32.366-4.514,9.4-13.461,14.126-22.167,12.708-.388,1.076-.769,2.159-1.183,3.223-1.126,2.884-2.4,5.692-3.683,8.5q1.207.356,2.423.6c-.01.193-.018.386-.015.583.07,3.841,2.18,7.285,8.221,7.464,3.348.1,3.924-3.754,3.854-7.6,0-.2-.019-.4-.037-.6a29.625,29.625,0,0,0,4.931-1.589c.076.178.156.356.246.529,1.736,3.319,7.768,5.19,10.644,3.227s1.5-7.022-.245-10.346c-.089-.17-.187-.33-.286-.489a35.553,35.553,0,0,0,3.572-4.249c.143.11.288.219.441.316,2.954,1.892,6.67.692,8.3-2.684a7.6,7.6,0,0,0-2.414-9.537c-.153-.1-.31-.182-.467-.263a42.328,42.328,0,0,0,1.242-5.759C2330.4,2740.661,2330.569,2740.671,2330.742,2740.668Z" transform="translate(-2259.007 -2690.037)" fill="url(#linear-gradient-12)"/>
        <path id="Trazado_66799" data-name="Trazado 66799" d="M2197.3,2719.472c2.958,1.894,6.679.693,8.309-2.685a7.6,7.6,0,0,0-2.417-9.543c-.153-.1-.31-.182-.468-.263a42.3,42.3,0,0,0,1.244-5.763c.17.013.34.024.513.021,3.385-.06,6.074-3.251,6-7.129s-2.875-6.963-6.26-6.894c-.177,0-.35.021-.523.041a42.806,42.806,0,0,0-1.447-5.709c.156-.088.31-.179.461-.283a7.606,7.606,0,0,0,2.066-9.626c-1.752-3.312-5.514-4.369-8.4-2.365-.148.1-.287.215-.424.329a35.464,35.464,0,0,0-3.738-4.1c.095-.164.188-.33.272-.506,1.623-3.388.545-7.641-2.4-9.493s-6.642-.605-8.258,2.778c-.084.175-.156.354-.225.533a29.22,29.22,0,0,0-4.992-1.406c.01-.194.019-.388.015-.585-.07-3.85-2.837-6.9-6.176-6.8s-5.978,3.283-5.908,7.124c0,.2.019.4.037.594a29.767,29.767,0,0,0-4.9,1.655c-.076-.176-.155-.352-.244-.523-1.72-3.278-5.415-4.316-8.249-2.322a7.594,7.594,0,0,0-2.022,9.53c.088.168.184.326.281.482a35.791,35.791,0,0,0-3.51,4.248c-.14-.108-.282-.213-.432-.309-2.894-1.843-6.524-.62-8.112,2.728s-.533,7.554,2.354,9.4c.15.1.3.178.456.258a42.351,42.351,0,0,0-1.213,5.694c-.165-.012-.332-.022-.5-.019-3.292.068-5.9,3.216-5.833,7.033s2.79,6.864,6.082,6.806c.172,0,.342-.019.51-.039a42.881,42.881,0,0,0,1.411,5.643c-.152.086-.3.175-.45.278-2.819,1.957-3.719,6.2-2.013,9.488s5.38,4.371,8.206,2.418c.145-.1.281-.21.416-.322a35.572,35.572,0,0,0,3.67,4.1c-.093.161-.185.325-.268.5a7.591,7.591,0,0,0,2.366,9.451c2.905,1.885,6.56.706,8.161-2.637.083-.173.154-.35.223-.528a29.308,29.308,0,0,0,4.961,1.475c-.01.193-.019.387-.015.583.07,3.843,2.828,6.932,6.165,6.9s6-3.185,5.926-7.037c0-.2-.019-.4-.037-.6a29.671,29.671,0,0,0,4.937-1.589c.076.178.156.356.247.529,1.738,3.321,5.479,4.425,8.355,2.462s3.8-6.258,2.057-9.584c-.089-.17-.187-.33-.287-.489a35.653,35.653,0,0,0,3.577-4.251C2197,2719.266,2197.146,2719.374,2197.3,2719.472Zm-36.582-2.55c-10.555-6.8-14.4-22.133-8.608-34.3,5.8-12.193,19.11-16.659,29.754-9.923,10.69,6.764,14.6,22.228,8.711,34.486C2184.7,2719.417,2171.316,2723.751,2160.717,2716.922Z" transform="translate(-2129.56 -2649.955)" fill="url(#linear-gradient-14)"/>
      </g>
    </g>
    <g id="Grupo_31976" data-name="Grupo 31976" transform="translate(1757.304 2394.227)">
      <path id="Trazado_66800" data-name="Trazado 66800" d="M1790.327,2936.154l-.65-.61a2.5,2.5,0,0,1-.022-3.617l40.157-40.1,4.094,4.173-39.868,40.058A2.68,2.68,0,0,1,1790.327,2936.154Z" transform="translate(-1788.893 -2827.505)" fill="url(#linear-gradient-12)"/>
      <path id="Trazado_66801" data-name="Trazado 66801" d="M1998.865,2540.356c-14.972-16.5-40-17.928-55.84-2.59-16.13,15.62-16.054,42.061.085,58.437,15.76,15.991,40.594,15.928,55.561.444C2013.379,2581.43,2013.5,2556.481,1998.865,2540.356Zm-51.156,51.24c-13.446-13.736-13.5-35.837-.052-48.928,13.241-12.893,34.247-11.8,46.873,2.029,12.384,13.56,12.3,34.608-.146,47.415C1981.76,2605.108,1960.891,2605.063,1947.709,2591.6Z" transform="translate(-1905.913 -2527.075)" fill="url(#linear-gradient-12)"/>
      <path id="Trazado_66802" data-name="Trazado 66802" d="M1829.813,2891.828l-5.12,5.113a7.193,7.193,0,0,1-.062,4.839c-1.725,4.2-7.331,3.6-11.485,9.663-2.084,3.041-1.026,3.707-3.172,6.2-3.547,4.116-6.874,2.8-9.99,6.485-3.152,3.729-1.708,7.394-4.044,8.478-1,.464-2.625.422-5.444-1.514l-.84.839a2.5,2.5,0,0,0,.022,3.617l.65.61a2.68,2.68,0,0,0,3.711-.1L1833.906,2896Z" transform="translate(-1788.894 -2827.505)" opacity="0.3" fill="url(#linear-gradient-12)" style="mix-blend-mode: multiply;isolation: isolate"/>
      <path id="Trazado_66803" data-name="Trazado 66803" d="M2032.372,2623.547c-13.055,13.451-34.65,13.422-48.3-.506-13.936-14.219-13.99-37.11-.057-50.663,13.714-13.341,35.456-12.186,48.513,2.127C2045.323,2588.534,2045.231,2610.3,2032.372,2623.547Z" transform="translate(-1941.02 -2556.693)" fill="#fff" opacity="0.1"/>
      <path id="Trazado_66804" data-name="Trazado 66804" d="M2010.732,2545.94c-14.972-16.5-40-17.927-55.84-2.589-16.13,15.62-16.054,42.061.085,58.437,15.76,15.991,40.594,15.928,55.561.443C2025.246,2587.014,2025.365,2562.065,2010.732,2545.94Zm-51.156,51.24c-13.446-13.736-13.5-35.837-.052-48.928,13.241-12.893,34.247-11.8,46.873,2.029,12.384,13.56,12.3,34.608-.145,47.415C1993.628,2610.692,1972.758,2610.646,1959.577,2597.181Z" transform="translate(-1915.687 -2531.674)" fill="url(#linear-gradient-18)"/>
      <path id="Trazado_66805" data-name="Trazado 66805" d="M2020.19,2558.307c-14.145-15.552-37.75-16.859-52.667-2.385-15.176,14.724-15.109,39.625.073,55.067,14.846,15.1,38.278,15.079,52.419.475C2033.924,2597.1,2034.031,2573.525,2020.19,2558.307Zm-49.625,49.708c-13.446-13.737-13.5-35.837-.052-48.928,13.241-12.893,34.247-11.8,46.873,2.029,12.383,13.56,12.3,34.608-.146,47.415C2004.615,2621.526,1983.746,2621.48,1970.565,2608.014Z" transform="translate(-1926.675 -2542.508)" fill="url(#linear-gradient-12)"/>
    </g>
    <g id="Grupo_31982" data-name="Grupo 31982" transform="translate(1786.516 2383.25)">
      <g id="Grupo_31981" data-name="Grupo 31981" transform="translate(0)" clip-path="url(#clip-path-3)">
        <g id="Grupo_31980" data-name="Grupo 31980" transform="translate(4.777 5.476)">
          <path id="Trazado_66806" data-name="Trazado 66806" d="M2419.935,2589.5a6.55,6.55,0,0,0,1.32-2.332c.038-.583.856.218.277,1.522-.174.392-.142.544-.049.661.264.337,1.169-.379,1.792-.041a1.746,1.746,0,0,1,.3,2.33c-.409.485-1.038.13-1.761.476-.58.277-.436.974-.714,2.755-.575-.027-1.861.946-2.075.411C2418.2,2593.23,2419.424,2590.177,2419.935,2589.5Z" transform="translate(-2341.664 -2570.914)" fill="url(#linear-gradient-20)"/>
          <path id="Trazado_66807" data-name="Trazado 66807" d="M2254.461,2589.716l3.536-.247c2.781,11.237.786,22.137-5.49,26.146-9.805,6.263-28.028-5.537-31.977-18.385-1.733-5.64-1.339-13.778,2.126-15.36.961-.439,2.453-.507,5.687,1.308,9.655,5.42,9.908,15.665,14.816,16.533C2245.341,2600.1,2248.865,2598.706,2254.461,2589.716Z" transform="translate(-2177.575 -2566.493)" fill="url(#linear-gradient-21)"/>
          <path id="Trazado_66808" data-name="Trazado 66808" d="M2134.841,3288.781c-.407.374-.432,1.247-.449,1.817a1.4,1.4,0,0,0,.022.47c.247.64,1.518.632,3.516.714,3.159.129,4.108.32,4.325-.162.2-.452-.4-1.135-.465-1.21a2.882,2.882,0,0,0-1.6-.748c-1.511-.4-2.528-.6-2.836-.666C2135.429,3288.607,2135.108,3288.536,2134.841,3288.781Z" transform="translate(-2107.448 -3148.838)" fill="url(#linear-gradient-22)"/>
          <path id="Trazado_66809" data-name="Trazado 66809" d="M2137.813,3271.586l.123,3.6a1.946,1.946,0,0,1-2.011.14l-.62-3.561Z" transform="translate(-2108.205 -3134.793)" fill="url(#linear-gradient-23)"/>
          <path id="Trazado_66810" data-name="Trazado 66810" d="M2285.367,3284.517a1.771,1.771,0,0,0-.3,2.114c.411.528,1.091.185,2.957.34,2,.167,2.5.668,3.878.365.558-.122,1.548-.439,1.551-.833,0-.277-.485-.446-2.106-1.087a21.412,21.412,0,0,0-2.782-1.062C2287.328,3284.08,2286.084,3283.805,2285.367,3284.517Z" transform="translate(-2231.367 -3145.071)" fill="url(#linear-gradient-24)"/>
          <path id="Trazado_66811" data-name="Trazado 66811" d="M2284.492,3268.5l.826,3.395a1.947,1.947,0,0,1-1.994.293l-1.319-3.323Z" transform="translate(-2229.035 -3132.249)" fill="url(#linear-gradient-25)"/>
          <path id="Trazado_66812" data-name="Trazado 66812" d="M2183.566,2850.866a313.4,313.4,0,0,0,5.93,74.673l-3.9.829a32.651,32.651,0,0,1-8.554-15.045c-1-4.251-.481-6.38-.985-11.57-.8-8.263-3.086-12.692-5.33-19.441a108.925,108.925,0,0,1-5.166-26.66Z" transform="translate(-2133.125 -2788.266)" fill="url(#linear-gradient-26)"/>
          <path id="Trazado_66813" data-name="Trazado 66813" d="M2181.771,2908.879c-1.431-5.668-4.189-7.167-4.287-12.518-.069-3.785,1.291-4.094,1.2-7.717-.137-5.494-3.356-8.375-4.973-11.832-1.708-3.65-2.362-9.513,2.24-19.266l-10.391,1.608a108.93,108.93,0,0,0,5.166,26.66c2.244,6.749,4.528,11.177,5.33,19.44.5,5.19-.02,7.319.985,11.57a32.651,32.651,0,0,0,8.554,15.045l.992-.211a19.175,19.175,0,0,1-4.818-10.435C2181.283,2916.526,2183.214,2914.594,2181.771,2908.879Z" transform="translate(-2133.125 -2793.769)" opacity="0.3" fill="url(#linear-gradient-27)" style="mix-blend-mode: multiply;isolation: isolate"/>
          <path id="Trazado_66814" data-name="Trazado 66814" d="M2099.09,2845.854q-2.32,21.357-4.248,43.527-1.44,16.633-2.572,32.856l-3.953.275a45.8,45.8,0,0,1-3.531-10.788c-1.1-5.679-.6-8.99-.9-14.831-.34-6.552-1.263-8.024-2.594-16.337-2.7-16.871-4.052-25.306.232-30.279C2082.914,2848.662,2087.217,2844.655,2099.09,2845.854Z" transform="translate(-2061.641 -2783.956)" fill="url(#linear-gradient-28)"/>
          <path id="Trazado_66815" data-name="Trazado 66815" d="M2014.1,2576c5.232-3.327,9.921-5.921,15.5-7.154,4.957-1.1,8.711-.748,13.357-.4,9,.683,14.624,1.111,18.317,5.348,3.266,3.748,3.337,8.612,3.359,9.647.09,4.17-1.531,6.3-2.724,9.755-1.918,5.563.023,6.6.586,21.4,0,0,.56,17.547-3.912,20.219-1.913,1.144-3.545,5.075-13.309,4.108-6.547-.649-8.676-.769-11.992.353-4.515,1.528-6.3-1.4-8.16-2.235-1.786-.8-2.014-3.884-2.229-9.26-.333-8.293-.312-13.929-.343-15.947-.141-9.257-2.485-16.326-5.487-25.378C2015.186,2580.8,2015.608,2579.225,2014.1,2576Z" transform="translate(-2008.372 -2555.373)" fill="url(#linear-gradient-29)"/>
          <g id="Grupo_31978" data-name="Grupo 31978" transform="translate(25.542)">
            <path id="Trazado_66816" data-name="Trazado 66816" d="M2134.631,2518.066a27.25,27.25,0,0,1-.776,5.409c-.359,1.433-.581,1.8-.856,2.085-.414.436-1.024.788-4.4,1.437-1.838.353-2.071.328-2.121.506-.242.868,4.544,4.125,9.694,3.677,3.151-.275,6.093-1.907,5.968-2.854s-3.277-.613-4.117-2.369c-.584-1.222.232-2.868,1.165-4.217C2138.438,2520.138,2135.379,2519.668,2134.631,2518.066Z" transform="translate(-2126.467 -2514.154)" fill="url(#linear-gradient-30)"/>
            <g id="Grupo_31977" data-name="Grupo 31977" transform="translate(5.837)">
              <path id="Trazado_66817" data-name="Trazado 66817" d="M2167.651,2501.026a3.3,3.3,0,0,0,.135-3.778,3.589,3.589,0,0,0-2.512-1.281c-1.986-.337-4.552.362-5.527,2.155-.578,1.062.426,3.387.58,3.8.175.471.528.648.844,1.014.438.507,1.122,1.313,2.238,2.661a8.2,8.2,0,0,1,.526-1.332,7.273,7.273,0,0,1,1.034-1.543C2166.077,2501.51,2166.9,2501.917,2167.651,2501.026Z" transform="translate(-2159.569 -2495.884)" fill="url(#linear-gradient-31)"/>
              <path id="Trazado_66818" data-name="Trazado 66818" d="M2165.148,2522.155a4.472,4.472,0,0,0,3.823,2.195c2.35-.028,2.973-5.261,1.537-6.455a2.96,2.96,0,0,0-2.3-.422c-.487.109-.66.3-1.46.462-.737.15-.938.058-1.168.231-.287.217-.518.773-.142,2.332a1.276,1.276,0,0,0-1.339-.52.8.8,0,0,0-.328.287C2163.417,2520.849,2163.924,2521.644,2165.148,2522.155Z" transform="translate(-2162.941 -2513.61)" fill="url(#linear-gradient-32)"/>
              <path id="Trazado_66819" data-name="Trazado 66819" d="M2166.408,2519.838c.108.09-.259.493-.317,1.088a2.871,2.871,0,0,0,2.175,2.789c.7.107.919-.308,2.094-.369a5.357,5.357,0,0,1,1.7.189,2.82,2.82,0,0,1-.994,3.078,2.938,2.938,0,0,1-2.573-.049,3.356,3.356,0,0,1-1.844-1.51c-.516-1.03.075-1.6-.542-2.314a5.441,5.441,0,0,1-1.123-1.212,3.247,3.247,0,0,1-.214-.458C2165.409,2520.463,2166.251,2519.708,2166.408,2519.838Z" transform="translate(-2163.853 -2515.602)" fill="url(#linear-gradient-33)"/>
              <path id="Trazado_66820" data-name="Trazado 66820" d="M2194.191,2543.256a2.855,2.855,0,0,1-1.391.142c-.042,0-.09.005-.1.027a1.076,1.076,0,0,0,1.041.366c.373-.084.676-.416.632-.507C2194.356,2543.245,2194.273,2543.246,2194.191,2543.256Z" transform="translate(-2186.859 -2534.897)" fill="url(#linear-gradient-34)"/>
            </g>
          </g>
          <path id="Trazado_66821" data-name="Trazado 66821" d="M2075.944,2727.176c-4.8-2.049-4.774-6.29-9.26-8.059-6.285-2.48-14.268,2.425-14.576,1.715-.341-.789,11.39-3.89,14.72-12.615,1.265-3.315,1.594-8.168-.791-10.214-2.845-2.441-6.784,1.484-11.207-.7-5.087-2.512-4.208-9.84-8.546-11.067-2.3-.65-4.745.783-6.5,2.155,2.218,6.928,3.809,13.037,3.924,20.61.031,2.018.01,7.654.343,15.947.216,5.376.443,8.459,2.229,9.26,1.863.834,3.469,2.225,7.984.7,3.316-1.122,5.974-.649,12.521,0,9.764.968,11.042-1.779,12.956-2.922,1.246-.745,1.838-1.865,2.235-4.016A11.945,11.945,0,0,1,2075.944,2727.176Z" transform="translate(-2029.528 -2652.534)" opacity="0.3" fill="url(#linear-gradient-35)" style="mix-blend-mode: multiply;isolation: isolate"/>
          <g id="Grupo_31979" data-name="Grupo 31979" transform="translate(36.913 28.362)">
            <path id="Trazado_66822" data-name="Trazado 66822" d="M2216.418,2658.742l-18.7,2.654a.509.509,0,0,0-.423.381l-6.333,25.441c-.091.365.4,1.2.765,1.127l18.3-4.425a.511.511,0,0,0,.386-.365l6.858-23.843C2217.371,2659.359,2216.78,2658.69,2216.418,2658.742Z" transform="translate(-2190.951 -2658.382)" fill="url(#linear-gradient-36)"/>
            <path id="Trazado_66823" data-name="Trazado 66823" d="M2218.4,2661.967l-18.7,2.654a.509.509,0,0,0-.423.381l-6.333,25.441a.509.509,0,0,0,.6.621l18.469-3.919a.509.509,0,0,0,.385-.365l6.564-24.176A.509.509,0,0,0,2218.4,2661.967Z" transform="translate(-2192.579 -2661.036)" fill="url(#linear-gradient-37)"/>
            <path id="Trazado_66824" data-name="Trazado 66824" d="M2274.632,2659.084l.523-2.03a.272.272,0,0,0-.291-.338l-6.834.7a.271.271,0,0,0-.238.215l-.466,2.234a.272.272,0,0,0,.3.325l6.777-.9A.272.272,0,0,0,2274.632,2659.084Z" transform="translate(-2253.853 -2656.714)" fill="url(#linear-gradient-38)"/>
            <path id="Trazado_66825" data-name="Trazado 66825" d="M2240.5,2684.014c.815-4.079-1.456-6.449.278-9.732,2.453-4.643,8.866-3.441,10.442-7.146.425-1,.531-2.434-.4-4.561l4.288-.608a.509.509,0,0,1,.563.637l-6.564,24.176a.509.509,0,0,1-.386.365l-11.225,2.383A11.23,11.23,0,0,0,2240.5,2684.014Z" transform="translate(-2229.287 -2661.037)" fill="#fff" opacity="0.3" style="mix-blend-mode: soft-light;isolation: isolate"/>
          </g>
          <path id="Trazado_66826" data-name="Trazado 66826" d="M2175.067,2760.567a16.767,16.767,0,0,0,3.8-1.655c1.024-.8,2.071-2.026,3.69-2.131s3.327.549,2.6.814-1.967,1.885-2.971,2.576a10.3,10.3,0,0,1-3.884,1.007,9.2,9.2,0,0,0-2.132,1.271Z" transform="translate(-2140.955 -2710.763)" fill="url(#linear-gradient-39)"/>
          <path id="Trazado_66827" data-name="Trazado 66827" d="M2017.4,2638.474a5.7,5.7,0,0,1,2.263,3.6c.633,5.022-7.988,11.375-16.213,12.065a20.59,20.59,0,0,1-16.021-6.02c-7.49-7.7-7.932-22.181-.068-35.243l6.032,2.988a14.609,14.609,0,0,1,8.119,14.991c-.573,4.087.745,7.777,3.115,9.458C2007.648,2642.463,2012.992,2641.759,2017.4,2638.474Z" transform="translate(-1981.631 -2592.248)" fill="url(#linear-gradient-40)"/>
        </g>
      </g>
    </g>
  </g>
</svg>
