<svg xmlns="http://www.w3.org/2000/svg" xmlns:xlink="http://www.w3.org/1999/xlink" width="157.17" height="156.166" viewBox="0 0 157.17 156.166">
  <defs>
    <linearGradient id="linear-gradient" x1="-3.024" y1="0.876" x2="-2.712" y2="3.746" gradientUnits="objectBoundingBox">
      <stop offset="0" stop-color="#ff9085"/>
      <stop offset="1" stop-color="#fb6fbb"/>
    </linearGradient>
    <clipPath id="clip-path">
      <path id="SVGID" d="M1423.349,701.138c1.6,5.319,3.438,10.667,5.074,16.015-2.451,2.008-5.384,4.311-8.169,1.515-3.872-3.886-12.763-.263-16.464,2.168-4.58,3.008-15.084,8.591-17.392.872-1.922-6.427-.558-11.149-8.72-10.4s-13.65-2.18-14.729-9.605c-1.135-7.813-12.288-11.745-9.242-19.345,5.307-13.243,24.359-1.429,30.118,8.272s9.435,4.2,16.648,1.9c9.848-3.139,8.121,9.154,13.615,10.7C1418.4,704.441,1419.884,702.645,1423.349,701.138Z" transform="translate(-1353.182 -676.45)" fill="none"/>
    </clipPath>
    <clipPath id="clip-path-2">
      <path id="SVGID-2" data-name="SVGID" d="M1414.3,568.96q6.211-4.556,12.282-9.4c.1.025-2.379-10.232-8.985-12.725-12.98-4.73-10.5-16.662-10.886-22.72-.221-8.721-5.27-16.721-12.627-10.706-7.244,5.674-15.032-9.622-18.765-22.638-1.321-6.6-10.027-10.755-16.4-9.317-6.57,1.324-10.811,8.236-7.655,21.116,3.021,15.258,16.646,18.039,23.279,22.905,6.52,4.772.166,14.958,9.6,17.2,8.055,2.168,17.008,2.006,17.094,10.185C1401.213,561,1404.122,566.065,1414.3,568.96Z" transform="translate(-1350.191 -481.167)" fill="none"/>
    </clipPath>
    <linearGradient id="linear-gradient-2" x1="8.121" y1="2.395" x2="7.692" y2="3.455" gradientUnits="objectBoundingBox">
      <stop offset="0" stop-color="#aa80f9"/>
      <stop offset="0.996" stop-color="#6165d7"/>
    </linearGradient>
    <linearGradient id="linear-gradient-3" x1="0.453" y1="1.209" x2="0.493" y2="0.605" gradientUnits="objectBoundingBox">
      <stop offset="0.004" stop-color="#26264f"/>
      <stop offset="1" stop-color="#444b8c"/>
    </linearGradient>
    <linearGradient id="linear-gradient-4" x1="0.341" y1="0.939" x2="0.642" y2="-0.276" xlink:href="#linear-gradient-3"/>
    <linearGradient id="linear-gradient-5" x1="0" y1="0.5" x2="1" y2="0.5" xlink:href="#linear-gradient-3"/>
    <linearGradient id="linear-gradient-6" x1="0.384" y1="1.047" x2="0.649" y2="-0.416" xlink:href="#linear-gradient-3"/>
    <linearGradient id="linear-gradient-9" x1="0.475" y1="1.004" x2="0.576" y2="-0.995" xlink:href="#linear-gradient-3"/>
    <linearGradient id="linear-gradient-10" x1="0.429" y1="0.313" x2="1.075" y2="1.164" gradientUnits="objectBoundingBox">
      <stop offset="0" stop-color="#fcb148"/>
      <stop offset="0.052" stop-color="#fdb946"/>
      <stop offset="0.142" stop-color="#fec144"/>
      <stop offset="0.318" stop-color="#ffc444"/>
      <stop offset="0.485" stop-color="#fdb946"/>
      <stop offset="0.775" stop-color="#f99c4c"/>
      <stop offset="0.866" stop-color="#f8924f"/>
      <stop offset="1" stop-color="#f8924f"/>
    </linearGradient>
    <linearGradient id="linear-gradient-11" x1="-0.641" y1="0.986" x2="0.67" y2="0.427" gradientUnits="objectBoundingBox">
      <stop offset="0.494" stop-color="#ebeff2"/>
      <stop offset="1" stop-color="#fff"/>
    </linearGradient>
    <linearGradient id="linear-gradient-12" x1="-0.788" y1="1.049" x2="0.523" y2="0.49" xlink:href="#linear-gradient-11"/>
    <linearGradient id="linear-gradient-13" x1="-0.573" y1="10.266" x2="0.045" y2="4.833" xlink:href="#linear-gradient-11"/>
    <linearGradient id="linear-gradient-14" x1="0.546" y1="0.061" x2="0.39" y2="1.002" xlink:href="#linear-gradient-10"/>
    <linearGradient id="linear-gradient-15" x1="15.632" y1="-0.018" x2="16.696" y2="1.5" gradientUnits="objectBoundingBox">
      <stop offset="0" stop-color="#ffc444"/>
      <stop offset="0.996" stop-color="#f36f56"/>
    </linearGradient>
    <linearGradient id="linear-gradient-16" x1="1.054" y1="1.947" x2="2.001" y2="0.286" gradientUnits="objectBoundingBox">
      <stop offset="0.004" stop-color="#e38ddd"/>
      <stop offset="1" stop-color="#9571f6"/>
    </linearGradient>
    <linearGradient id="linear-gradient-17" x1="-60.968" y1="11.886" x2="-59.977" y2="11.886" gradientUnits="objectBoundingBox">
      <stop offset="0" stop-color="#444b8c"/>
      <stop offset="0.996" stop-color="#26264f"/>
    </linearGradient>
    <linearGradient id="linear-gradient-18" x1="-239.242" y1="5.896" x2="-237.935" y2="4.097" xlink:href="#linear-gradient-15"/>
    <linearGradient id="linear-gradient-19" x1="-63.036" y1="19.567" x2="-62.07" y2="19.567" xlink:href="#linear-gradient-17"/>
    <linearGradient id="linear-gradient-20" x1="-179.704" y1="12.239" x2="-178.645" y2="10.35" xlink:href="#linear-gradient-15"/>
    <linearGradient id="linear-gradient-21" x1="6.889" y1="0.371" x2="5.961" y2="-0.292" xlink:href="#linear-gradient-2"/>
    <linearGradient id="linear-gradient-22" x1="7.54" y1="0.381" x2="6.483" y2="-0.292" xlink:href="#linear-gradient-2"/>
    <linearGradient id="linear-gradient-23" x1="1.582" y1="1.131" x2="0.489" y2="0.48" xlink:href="#linear-gradient-2"/>
    <linearGradient id="linear-gradient-24" x1="1.361" y1="2.287" x2="2.433" y2="0.139" xlink:href="#linear-gradient-16"/>
    <linearGradient id="linear-gradient-25" x1="0.281" y1="0.845" x2="0.921" y2="-0.295" xlink:href="#linear-gradient-16"/>
    <linearGradient id="linear-gradient-26" x1="10.069" y1="-19.52" x2="10.125" y2="-21.289" xlink:href="#linear-gradient-15"/>
    <linearGradient id="linear-gradient-27" x1="-87.592" y1="-7.1" x2="-88.269" y2="-8.65" gradientUnits="objectBoundingBox">
      <stop offset="0" stop-color="#311944"/>
      <stop offset="1" stop-color="#6b3976"/>
    </linearGradient>
    <linearGradient id="linear-gradient-28" x1="-10.071" y1="-9.165" x2="-10.107" y2="-6.004" xlink:href="#linear-gradient-15"/>
    <linearGradient id="linear-gradient-29" x1="-104.044" y1="-10.236" x2="-104.848" y2="-12.364" xlink:href="#linear-gradient-27"/>
    <linearGradient id="linear-gradient-30" x1="-462.098" y1="-152.583" x2="-461.914" y2="-147.686" gradientUnits="objectBoundingBox">
      <stop offset="0" stop-color="#ffc444"/>
      <stop offset="1" stop-color="#f36f56"/>
    </linearGradient>
    <linearGradient id="linear-gradient-31" x1="-2.65" y1="0.122" x2="-2.491" y2="1.149" xlink:href="#linear-gradient-15"/>
    <linearGradient id="linear-gradient-32" x1="-1.693" y1="0.954" x2="-0.616" y2="-0.762" xlink:href="#linear-gradient-16"/>
    <linearGradient id="linear-gradient-33" x1="0.408" y1="0.83" x2="1.212" y2="-0.839" xlink:href="#linear-gradient-16"/>
  </defs>
  <g id="Grupo_32007" data-name="Grupo 32007" transform="translate(-1338.271 -195.847)">
    <path id="Trazado_66847" data-name="Trazado 66847" d="M1476.531,330.155a60.094,60.094,0,0,1-10.554,8.567c-27.333,18.251-58.578,12.99-68.238,11.192-15.585-2.9-28.742-4.947-40.045-15.159-25.685-23.205-24.436-71.614-4.809-101.6,2.327-3.556,21.924-32.6,53.236-36.7.766-.1,1.337-.157,1.838-.21,4.844-.513,34.861-3.22,59.337,17.286a73.015,73.015,0,0,1,14.37,16.305C1500.784,259.364,1500.844,305.093,1476.531,330.155Z" transform="translate(0)" fill="#f4f7fa"/>
    <g id="Grupo_31997" data-name="Grupo 31997" transform="translate(1341.139 288.312)">
      <g id="Grupo_31996" data-name="Grupo 31996" transform="translate(0 0)">
        <path id="Trazado_66848" data-name="Trazado 66848" d="M1422.213,718.891a6.66,6.66,0,0,0,1.46-2.781c.216-3.552,1.052-10.176-1.267-13.138-.4-.506-3.092.636-3.757.38-1.9.311-2.534.536-4.481-.054-5.748-1.741-3.769-13.851-13.686-10.761-7.264,2.262-10.883,7.809-16.655-1.9s-24.811-21.513-30.123-8.275c-3.048,7.6,8.108,11.532,9.242,19.346,1.078,7.425,6.567,10.351,14.73,9.6s6.792,3.972,8.72,10.4c2.316,7.724,12.79,2.127,17.4-.87C1407.518,718.429,1418.609,714.792,1422.213,718.891Z" transform="translate(-1353.179 -676.453)" fill="url(#linear-gradient)"/>
        <g id="Grupo_31995" data-name="Grupo 31995" transform="translate(0.001)">
          <g id="Grupo_31994" data-name="Grupo 31994" clip-path="url(#clip-path)">
            <g id="Grupo_31993" data-name="Grupo 31993" transform="translate(1.04 -2.998)">
              <path id="Trazado_66849" data-name="Trazado 66849" d="M1417.663,715.986a66.415,66.415,0,0,1-29.026-6.745,79.634,79.634,0,0,1-30.05-26.038l.158-.111a79.44,79.44,0,0,0,29.976,25.976,65.71,65.71,0,0,0,38.76,5.977l.029.19A65.01,65.01,0,0,1,1417.663,715.986Z" transform="translate(-1358.588 -678.817)" fill="#fcfdfe"/>
              <path id="Trazado_66850" data-name="Trazado 66850" d="M1528.322,866.5l-.153-.116c4.39-5.794,13.853-12.42,21.095-14.769l.059.183C1542.113,854.132,1532.692,860.728,1528.322,866.5Z" transform="translate(-1495.543 -814.913)" fill="#fcfdfe"/>
              <path id="Trazado_66851" data-name="Trazado 66851" d="M1622.265,771.141c-3.962-.513-7.507-3-10.536-7.4a45.034,45.034,0,0,1-5.618-12.272l.184-.057a44.843,44.843,0,0,0,5.593,12.22c3,4.348,6.5,6.809,10.4,7.315Z" transform="translate(-1558.489 -733.995)" fill="#fcfdfe"/>
              <path id="Trazado_66852" data-name="Trazado 66852" d="M1407.134,817.213l-.1-.163c4.692-2.939,11.822-6.161,19.144-4.828l-.035.19C1418.881,811.088,1411.8,814.292,1407.134,817.213Z" transform="translate(-1397.712 -782.852)" fill="#fcfdfe"/>
              <path id="Trazado_66853" data-name="Trazado 66853" d="M1410.408,680.977c-2.272-2.823-5.97-9.188-5.206-20.108l.192.014c-.759,10.854,2.909,17.173,5.164,19.974Z" transform="translate(-1396.151 -660.869)" fill="#fcfdfe"/>
            </g>
          </g>
        </g>
      </g>
    </g>
    <g id="Grupo_32001" data-name="Grupo 32001" transform="translate(1340.564 250.741)">
      <g id="Grupo_32000" data-name="Grupo 32000" transform="translate(0)">
        <g id="Grupo_31999" data-name="Grupo 31999" clip-path="url(#clip-path-2)">
          <path id="Trazado_66854" data-name="Trazado 66854" d="M1414.3,568.96q6.211-4.556,12.282-9.4c.1.025-2.379-10.232-8.985-12.725-12.98-4.73-10.5-16.662-10.886-22.72-.247-8.7-4.92-15.726-12.389-11.8-8.35,4.19-15.421-8.472-19-21.539-1.321-6.6-10.027-10.755-16.4-9.317-6.57,1.324-10.811,8.236-7.655,21.116,3.021,15.258,16.646,18.039,23.279,22.905,6.52,4.772.166,14.958,9.6,17.2,8.055,2.168,17.008,2.006,17.094,10.185C1401.213,561,1404.122,566.065,1414.3,568.96Z" transform="translate(-1350.191 -481.167)" fill="url(#linear-gradient-2)"/>
          <g id="Grupo_31998" data-name="Grupo 31998" transform="translate(-1.344 -3.921)">
            <path id="Trazado_66855" data-name="Trazado 66855" d="M1457.365,549.853a294.785,294.785,0,0,0-27.746-33.108c-2.308-2.6-4.708-5.175-7.029-7.664-6.222-6.673-12.656-13.574-17.547-21.28a56.536,56.536,0,0,1-9.1-27l.208-.014a56.334,56.334,0,0,0,9.071,26.9c4.88,7.689,11.307,14.583,17.523,21.249,2.322,2.49,4.722,5.065,7.028,7.663a293.361,293.361,0,0,1,27.784,33.167Z" transform="translate(-1385.795 -460.789)" fill="#beb8f2"/>
            <path id="Trazado_66856" data-name="Trazado 66856" d="M1368.324,594.791c-7.155-2.729-16.263-7.178-21.156-9.568-2.08-1.016-3.723-1.819-3.9-1.841l.01-.081-.078-.1c.1-.075.114-.087,4.055,1.839,4.89,2.389,13.992,6.835,21.139,9.56Z" transform="translate(-1343.205 -559.627)" fill="#beb8f2"/>
            <path id="Trazado_66857" data-name="Trazado 66857" d="M1445.572,517.334c-2.711-11.826,1.937-20.37,3.233-21.85.074-.085.124-.127.186-.121l-.019.208a.089.089,0,0,0,.051-.01c-.576.394-6.133,9.137-3.246,21.727Z" transform="translate(-1425.203 -488.71)" fill="#beb8f2"/>
            <path id="Trazado_66858" data-name="Trazado 66858" d="M1604.578,659.641c-3.1-5.414-4.311-12.381-3.612-20.709a67.276,67.276,0,0,1,2.607-13.465c.071-.24.128-.43.132-.464l.207.027c-.006.048-.04.165-.139.5a67.064,67.064,0,0,0-2.6,13.423c-.7,8.285.511,15.211,3.585,20.588Z" transform="translate(-1551.219 -593.409)" fill="#beb8f2"/>
            <path id="Trazado_66859" data-name="Trazado 66859" d="M1512.575,768.016c-8.674-5.5-19.911-.091-20.015-.03l-.052-.089,0,0,.019.1-.113-.057.024-.124c.084-.075,11.505-5.529,20.253.019Z" transform="translate(-1463.704 -706.756)" fill="#beb8f2"/>
            <path id="Trazado_66860" data-name="Trazado 66860" d="M1699.527,839.29c-1.144-2.485-2.02-7.3.306-16.11.054-.206.1-.384.1-.417l.088.009.1-.063c.03.049.03.049-.1.524-2.311,8.754-1.448,13.516-.319,15.97Z" transform="translate(-1630.038 -753.077)" fill="#beb8f2"/>
            <path id="Trazado_66861" data-name="Trazado 66861" d="M1624.867,872.809c-1.324-1.573-5.015-4.065-14.863-3.077-.145.014-.238.024-.272.025l-.006-.209c.032,0,.12-.01.257-.024,9.943-1,13.693,1.545,15.043,3.15Z" transform="translate(-1558.449 -790.704)" fill="#beb8f2"/>
          </g>
        </g>
      </g>
    </g>
    <g id="Grupo_32003" data-name="Grupo 32003" transform="translate(1371.487 206.771)">
      <path id="Trazado_66862" data-name="Trazado 66862" d="M1604.474,297.169c0-24.6-20.944-44.542-46.779-44.542s-46.779,19.942-46.779,44.542a43.878,43.878,0,0,0,19.554,36.224,18.375,18.375,0,0,1,8.069,15.161v3.408a13.41,13.41,0,0,0,13.41,13.41h11.493a13.41,13.41,0,0,0,13.41-13.41v-3.408a18.375,18.375,0,0,1,8.069-15.161A43.877,43.877,0,0,0,1604.474,297.169Z" transform="translate(-1510.916 -252.627)" fill="#f4f7fa" opacity="0.75"/>
      <ellipse id="Elipse_1452" data-name="Elipse 1452" cx="10.377" cy="5.494" rx="10.377" ry="5.494" transform="translate(36.402 127.112)" fill="url(#linear-gradient-3)"/>
      <path id="Trazado_66863" data-name="Trazado 66863" d="M1682.4,890.856v5.61a4.929,4.929,0,0,0,2.794,4.454,26.292,26.292,0,0,0,12.08,2.232,27.137,27.137,0,0,0,9.636-1.681,5.01,5.01,0,0,0,3.064-4.64v-3.1Z" transform="translate(-1649.405 -768.064)" fill="url(#linear-gradient-4)"/>
      <path id="Trazado_66864" data-name="Trazado 66864" d="M1682.4,895.77a5.452,5.452,0,0,0,1.454,1.016c2.668,1.272,20.147,4.116,24.363,2.532a5.678,5.678,0,0,0,1.472-.813,5.084,5.084,0,0,0,.286-1.673v-3.1l-27.574-2.871Z" transform="translate(-1649.405 -768.064)" opacity="0.3" fill="url(#linear-gradient-5)" style="mix-blend-mode: multiply;isolation: isolate"/>
      <path id="Trazado_66865" data-name="Trazado 66865" d="M1676.568,870.956a2.632,2.632,0,0,0-2.9,2.618v.159a5.529,5.529,0,0,0,3.134,5c2.668,1.273,20.147,4.116,24.363,2.532a5.094,5.094,0,0,0,3.438-4.887v-.128a2.632,2.632,0,0,0-2.359-2.618Z" transform="translate(-1642.351 -751.981)" fill="url(#linear-gradient-6)"/>
      <path id="Trazado_66866" data-name="Trazado 66866" d="M1704.106,873.629l-25.671-2.673a2.626,2.626,0,0,0-2.459,1.159,5.493,5.493,0,0,0,2.689,2.82c2.668,1.272,20.891,4.487,24.363,2.851a6.023,6.023,0,0,0,2.979-3.019A2.627,2.627,0,0,0,1704.106,873.629Z" transform="translate(-1644.219 -751.981)" opacity="0.3" fill="url(#linear-gradient-5)" style="mix-blend-mode: multiply;isolation: isolate"/>
      <path id="Trazado_66867" data-name="Trazado 66867" d="M1675.563,823.771a1.9,1.9,0,0,0-1.9,1.9v4.394a5.529,5.529,0,0,0,3.134,5c2.668,1.273,20.891,4.487,24.363,2.851a5.8,5.8,0,0,0,3.438-5.206v-7.036a1.9,1.9,0,0,0-1.9-1.9Z" transform="translate(-1642.351 -713.886)" fill="url(#linear-gradient-5)"/>
      <ellipse id="Elipse_1453" data-name="Elipse 1453" cx="15.085" cy="3.566" rx="15.085" ry="3.566" transform="translate(31.694 107.686)" fill="url(#linear-gradient-9)"/>
      <path id="Trazado_66868" data-name="Trazado 66868" d="M1604.474,297.169c0-24.6-20.944-44.542-46.779-44.542s-46.779,19.942-46.779,44.542a43.878,43.878,0,0,0,19.554,36.224,18.375,18.375,0,0,1,8.069,15.161v3.408a13.41,13.41,0,0,0,13.41,13.41h11.493a13.41,13.41,0,0,0,13.41-13.41v-3.408a18.375,18.375,0,0,1,8.069-15.161A43.877,43.877,0,0,0,1604.474,297.169Z" transform="translate(-1510.916 -252.627)" fill="url(#linear-gradient-10)"/>
      <ellipse id="Elipse_1454" data-name="Elipse 1454" cx="11.038" cy="2.61" rx="11.038" ry="2.61" transform="translate(35.741 105.831)" fill="#f4f7fa" opacity="0.5" style="mix-blend-mode: soft-light;isolation: isolate"/>
      <g id="Grupo_32002" data-name="Grupo 32002" transform="translate(35.145 39.652)">
        <path id="Trazado_66869" data-name="Trazado 66869" d="M1702.347,554.119a.638.638,0,0,1-.632-.557l-8.12-63.149a.638.638,0,0,1,1.265-.163l8.12,63.149a.638.638,0,0,1-.551.714A.628.628,0,0,1,1702.347,554.119Z" transform="translate(-1693.589 -483.736)" fill="url(#linear-gradient-11)"/>
        <path id="Trazado_66870" data-name="Trazado 66870" d="M1762.641,554.119a.626.626,0,0,1-.082-.005.638.638,0,0,1-.551-.714l8.12-63.149a.638.638,0,0,1,1.265.163l-8.12,63.149A.638.638,0,0,1,1762.641,554.119Z" transform="translate(-1748.84 -483.736)" fill="url(#linear-gradient-12)"/>
        <path id="Trazado_66871" data-name="Trazado 66871" d="M1718.641,465.351a.638.638,0,0,1-.533-.287l-2.241-3.4a.1.1,0,0,0-.177,0l-1.48,2.478a1.377,1.377,0,0,1-2.334.057l-2.032-3.046a.1.1,0,0,0-.088-.051.109.109,0,0,0-.085.047l-1.785,2.58a1.379,1.379,0,0,1-1.13.6h0a1.383,1.383,0,0,1-1.133-.594l-2.573-3.686a.117.117,0,0,0-.091-.048.1.1,0,0,0-.086.055l-2.349,4.054a.638.638,0,0,1-1.1-.64l2.349-4.054a1.377,1.377,0,0,1,2.327-.1l2.573,3.686a.1.1,0,0,0,.087.048h0a.1.1,0,0,0,.085-.047l1.785-2.58a1.377,1.377,0,0,1,2.283.022l2.031,3.046c.023.034.057.063.091.05a.1.1,0,0,0,.086-.053l1.48-2.478a1.377,1.377,0,0,1,2.338-.05l2.241,3.4a.638.638,0,0,1-.532.989Z" transform="translate(-1698.227 -458.724)" fill="url(#linear-gradient-13)"/>
      </g>
      <path id="Trazado_66872" data-name="Trazado 66872" d="M1558.544,362.71c1-17.168,29.944-21.186,29.82-36.518-.076-9.443-11.577-16.456-14.033-17.86-18.1-10.35-40.37,1.6-44.969-6.857-1.145-2.106-.609-4.4-.3-5.7a12.231,12.231,0,0,1,3.061-5.492c-12.767,7.953-21.2,21.687-21.2,37.3A43.878,43.878,0,0,0,1530.47,363.8a18.375,18.375,0,0,1,8.069,15.161v3.409a13.41,13.41,0,0,0,13.41,13.41h11.493a13.41,13.41,0,0,0,13.41-13.41v-2.725a8.8,8.8,0,0,1-5.391,2.041C1564.549,381.629,1558.045,371.253,1558.544,362.71Z" transform="translate(-1510.916 -283.034)" opacity="0.3" fill="url(#linear-gradient-14)" style="mix-blend-mode: multiply;isolation: isolate"/>
      <ellipse id="Elipse_1455" data-name="Elipse 1455" cx="40.254" cy="38.821" rx="40.254" ry="38.821" transform="translate(7.273 7.458)" fill="#f4f7fa" opacity="0.44" style="mix-blend-mode: soft-light;isolation: isolate"/>
    </g>
    <g id="Grupo_32006" data-name="Grupo 32006" transform="translate(1434.036 244.551)">
      <path id="Trazado_66873" data-name="Trazado 66873" d="M1870.338,455.075l.683-1.284a1.58,1.58,0,0,0,.913-.578l.285-.449a1.039,1.039,0,0,0-.375-.983.516.516,0,0,1-.153-.44c.071-.488.215-1.488.243-1.743a1.089,1.089,0,0,0-.125-.531.128.128,0,0,0-.241.018l-.547,2.014a.506.506,0,0,0-.589.258.976.976,0,0,0-.436.62,10.109,10.109,0,0,0,0,1.347l-.6,1.355Z" transform="translate(-1862.976 -448.99)" fill="url(#linear-gradient-15)"/>
      <path id="Trazado_66874" data-name="Trazado 66874" d="M1844.286,475.477c-.375.869-2.463,5.929-.053,10.626,2.687,5.238,9.919,7.978,17.154,5.615.057.936.652,12.781-5.165,15.609-6.246,3.036-18.005-5.229-19.925-15.609-1.643-8.881,4.692-16.072,5.719-17.2Z" transform="translate(-1836.025 -469.606)" fill="url(#linear-gradient-16)"/>
      <path id="Trazado_66875" data-name="Trazado 66875" d="M1979.5,969.182c.249.229.265.765.276,1.115a.864.864,0,0,1-.014.288c-.151.393-.931.388-2.157.438-1.938.079-2.52.2-2.653-.1-.125-.277.244-.7.285-.742a1.77,1.77,0,0,1,.984-.459c.927-.244,1.551-.37,1.74-.408C1979.142,969.075,1979.339,969.032,1979.5,969.182Z" transform="translate(-1948.204 -869.03)" fill="url(#linear-gradient-17)"/>
      <path id="Trazado_66876" data-name="Trazado 66876" d="M1991.325,959.505l-.075,2.206a1.194,1.194,0,0,0,1.234.086l.38-2.185Z" transform="translate(-1961.386 -861.285)" fill="url(#linear-gradient-18)"/>
      <path id="Trazado_66877" data-name="Trazado 66877" d="M1893.029,966.8a1.086,1.086,0,0,1,.182,1.3c-.252.324-.669.114-1.814.209-1.227.1-1.532.41-2.379.224-.342-.075-.95-.27-.952-.511,0-.17.3-.273,1.292-.667a13.13,13.13,0,0,1,1.707-.651C1891.825,966.532,1892.589,966.363,1893.029,966.8Z" transform="translate(-1878.054 -866.952)" fill="url(#linear-gradient-19)"/>
      <path id="Trazado_66878" data-name="Trazado 66878" d="M1907.086,957.768l-.507,2.083a1.194,1.194,0,0,0,1.224.18l.809-2.038Z" transform="translate(-1893.005 -859.882)" fill="url(#linear-gradient-20)"/>
      <path id="Trazado_66879" data-name="Trazado 66879" d="M1909.938,722.918a192.319,192.319,0,0,1-3.638,45.812l2.392.508a20.03,20.03,0,0,0,5.248-9.23c.617-2.608.295-3.914.6-7.1.492-5.07,1.893-7.787,3.27-11.927a66.817,66.817,0,0,0,3.17-16.356Z" transform="translate(-1892.78 -670.216)" fill="url(#linear-gradient-21)"/>
      <path id="Trazado_66880" data-name="Trazado 66880" d="M1918.528,758.167c.878-3.478,2.57-4.4,2.63-7.68.042-2.322-.792-2.512-.737-4.734.084-3.371,2.059-5.138,3.051-7.259,1.048-2.24,1.449-5.836-1.375-11.82l6.375.986a66.83,66.83,0,0,1-3.17,16.356c-1.377,4.14-2.778,6.857-3.27,11.927-.309,3.184.012,4.49-.6,7.1a20.032,20.032,0,0,1-5.248,9.23l-.609-.129a11.763,11.763,0,0,0,2.956-6.4C1918.827,762.859,1917.642,761.674,1918.528,758.167Z" transform="translate(-1900.268 -673.25)" opacity="0.3" fill="url(#linear-gradient-22)" style="mix-blend-mode: multiply;isolation: isolate"/>
      <path id="Trazado_66881" data-name="Trazado 66881" d="M1966.639,720.111q1.424,13.1,2.606,26.7.884,10.2,1.578,20.158l2.425.169a28.1,28.1,0,0,0,2.167-6.619c.674-3.484.366-5.516.552-9.1.208-4.019.775-4.923,1.591-10.023,1.657-10.35,2.486-15.525-.142-18.577C1976.563,721.833,1973.923,719.375,1966.639,720.111Z" transform="translate(-1941.51 -667.84)" fill="url(#linear-gradient-23)"/>
      <path id="Trazado_66882" data-name="Trazado 66882" d="M1837.326,513.925a7.845,7.845,0,0,0,.549,2.676c1.057,2.621,3.573,4.532,3.051,7.469-.261,1.468-1.066,1.983-.737,3.051.467,1.514,2.381,1.443,4.419,3.156,1.808,1.52,1.909,2.927,2.84,4.208,1.26,1.735,4.107,3.321,11.007,2.818a6.432,6.432,0,0,1-2.234,1.85c-6.246,3.036-18.005-5.229-19.925-15.609A17.645,17.645,0,0,1,1837.326,513.925Z" transform="translate(-1836.026 -501.432)" opacity="0.3" fill="url(#linear-gradient-24)" style="mix-blend-mode: multiply;isolation: isolate"/>
      <path id="Trazado_66883" data-name="Trazado 66883" d="M1938.823,567.615a52.462,52.462,0,0,0-31.172-.88l-1.3,7.295a86.845,86.845,0,0,0,.142,9.643c.274,3.9.542,3.961,1.17,9.468,1.023,8.98.595,11.326,2.4,12.4,1.174.7,1.6-.145,7.589-.739,4.017-.4,6.066-.583,8.1.1,2.77.937,3.7,2.511,4.839,2,1.1-.491,1.235-2.383,1.368-5.681.2-5.088.192-8.546.21-9.784.086-5.68,1.525-10.016,3.366-15.57A75.226,75.226,0,0,1,1938.823,567.615Z" transform="translate(-1892.759 -542.507)" fill="url(#linear-gradient-25)"/>
      <g id="Grupo_32005" data-name="Grupo 32005" transform="translate(22.818 14.296)">
        <path id="Trazado_66884" data-name="Trazado 66884" d="M1959.233,535.771a16.692,16.692,0,0,0,.476,3.319c.22.879.356,1.1.525,1.28.254.267.628.483,2.7.881,1.128.217,1.271.2,1.3.31.149.532-2.788,2.531-5.947,2.256-1.934-.168-3.738-1.17-3.661-1.751s2.01-.376,2.526-1.453c.358-.749-.142-1.759-.715-2.587C1956.9,537.042,1958.774,536.754,1959.233,535.771Z" transform="translate(-1954.625 -533.371)" fill="url(#linear-gradient-26)"/>
        <g id="Grupo_32004" data-name="Grupo 32004" transform="translate(0.668)">
          <path id="Trazado_66885" data-name="Trazado 66885" d="M1958.507,526.452a2.021,2.021,0,0,1-.083-2.318,2.2,2.2,0,0,1,1.541-.786,3.329,3.329,0,0,1,3.391,1.322c.355.652-.261,2.078-.356,2.333-.107.289-.324.4-.517.622-.268.311-.688.806-1.373,1.632a5.072,5.072,0,0,0-.323-.817,4.471,4.471,0,0,0-.634-.947C1959.473,526.75,1958.967,527,1958.507,526.452Z" transform="translate(-1958.099 -523.298)" fill="url(#linear-gradient-27)"/>
          <path id="Trazado_66886" data-name="Trazado 66886" d="M1963.18,538.314a2.743,2.743,0,0,1-2.346,1.347c-1.442-.017-1.824-3.227-.943-3.96a1.816,1.816,0,0,1,1.408-.259c.3.067.405.184.9.284.453.092.576.036.717.142.176.133.318.474.087,1.431a.783.783,0,0,1,.822-.319.5.5,0,0,1,.2.176C1964.242,537.512,1963.931,538,1963.18,538.314Z" transform="translate(-1959.167 -533.072)" fill="url(#linear-gradient-28)"/>
          <path id="Trazado_66887" data-name="Trazado 66887" d="M1963.042,536.77c-.067.055.159.3.194.667a1.761,1.761,0,0,1-1.334,1.711c-.431.066-.564-.189-1.285-.227a3.294,3.294,0,0,0-1.042.116,1.73,1.73,0,0,0,.61,1.889,1.8,1.8,0,0,0,1.579-.03,2.058,2.058,0,0,0,1.131-.927c.317-.632-.046-.983.333-1.419a3.344,3.344,0,0,0,.689-.744,2,2,0,0,0,.131-.281C1963.656,537.153,1963.139,536.689,1963.042,536.77Z" transform="translate(-1959.243 -534.17)" fill="url(#linear-gradient-29)"/>
          <path id="Trazado_66888" data-name="Trazado 66888" d="M1962.129,549.937a1.75,1.75,0,0,0,.854.087c.026,0,.055,0,.059.017a.66.66,0,0,1-.639.225c-.228-.051-.415-.255-.387-.311C1962.027,549.93,1962.078,549.931,1962.129,549.937Z" transform="translate(-1961.26 -544.809)" fill="url(#linear-gradient-30)"/>
        </g>
      </g>
      <path id="Trazado_66889" data-name="Trazado 66889" d="M2030.579,697.809l-1.446-.081s-1.584-1.325-2.3-1.243a6.187,6.187,0,0,0-1.931.688c-.131.1.395.693.921.635s1.7.227,1.91.69,1.121.743,1.276.472l1.943.386Z" transform="translate(-1988.544 -648.866)" fill="url(#linear-gradient-31)"/>
      <path id="Trazado_66890" data-name="Trazado 66890" d="M2043.13,599.422a3.494,3.494,0,0,0,.588,2.544c1.911,2.448,8.4,1.447,12.263-1.832a12.631,12.631,0,0,0,4.313-9.573c-.109-6.59-6.216-13.047-15.3-15.278l-4.034,12.059c5.6.085,9,4.307,8.5,7.321C2049.083,596.909,2046.464,598.928,2043.13,599.422Z" transform="translate(-2001.532 -550.985)" fill="url(#linear-gradient-32)"/>
      <path id="Trazado_66891" data-name="Trazado 66891" d="M1922.514,658.817c2.946-1.257,2.929-3.859,5.681-4.944,3.927-1.549,8.265,2.05,8.942,1.052.7-1.039-4.476-4.223-3.787-7.364.548-2.5,4.165-2.054,6.1-5.47,1.838-3.241.056-6.238,1.683-7.364.583-.4,1.613-.563,3.564.3a41.42,41.42,0,0,0-2.407,12.644c-.019,1.238-.006,4.7-.21,9.784-.132,3.3-.272,5.19-1.368,5.681-1.143.512-2.07-1.062-4.839-2-2.034-.688-4.084-.5-8.1-.105-5.99.594-6.415,1.441-7.588.739a3.144,3.144,0,0,1-1.371-2.464A7.329,7.329,0,0,0,1922.514,658.817Z" transform="translate(-1902.886 -598.727)" opacity="0.3" fill="url(#linear-gradient-33)" style="mix-blend-mode: multiply;isolation: isolate"/>
    </g>
  </g>
</svg>
