<svg xmlns="http://www.w3.org/2000/svg" width="313.861" height="222.586" viewBox="0 0 313.861 222.586">
  <g id="Grupo_32219" data-name="Grupo 32219" transform="translate(-1299.265 -657.783)">
    <path id="Trazado_67090" data-name="Trazado 67090" d="M1600.712,1269.89H1346.338c-8.046,0-14.629,2.726-14.629,6.057h0c0,2.307,3.158,4.323,7.77,5.345h-22.4c-8.046,0-14.629,2.726-14.629,6.057h0c0,3.332,6.583,6.058,14.629,6.058h7.805c-2.18,1.058-3.5,2.428-3.5,3.92v2.423c0,3.332,6.583,6.058,14.629,6.058H1586.6c8.046,0,14.629-2.726,14.629-6.058v-2.423c0-3.332-6.583-6.058-14.629-6.058l-17.038.135a10.556,10.556,0,0,0,4.819-1.277,3.748,3.748,0,0,0,1.377-5.652c-.786-1.221-2.044-2.189-5.163-2.552l30.119.082c8.046,0,14.629-2.726,14.629-6.058h0C1615.34,1272.616,1608.757,1269.89,1600.712,1269.89Z" transform="translate(-2.215 -425.439)" fill="#516784" opacity="0.1" style="mix-blend-mode: multiply;isolation: isolate"/>
    <g id="Grupo_32097" data-name="Grupo 32097" transform="translate(1389.418 666.718)">
      <path id="Trazado_67091" data-name="Trazado 67091" d="M1680.73,784.908s-6.4,8.32-7.915,30.334l5.77.591s.091-19.357,5.1-29.8Z" transform="translate(-1649.05 -755.075)" fill="#145566"/>
      <g id="Grupo_32095" data-name="Grupo 32095" transform="translate(30.725 0)">
        <path id="Trazado_67092" data-name="Trazado 67092" d="M1728.625,687.081s-19.877,1.6-28.133,9.871-3.48,21.8-3.48,21.8,13.535,4.752,21.791-3.518S1728.625,687.081,1728.625,687.081Z" transform="translate(-1695.638 -687.081)" fill="#c8d6a1"/>
        <path id="Trazado_67093" data-name="Trazado 67093" d="M1698.829,745.549s.781.273,2.073.573l17.8-20.481-20.451,17.836C1698.555,744.769,1698.829,745.549,1698.829,745.549Z" transform="translate(-1697.455 -713.882)" fill="#145566"/>
      </g>
      <g id="Grupo_32096" data-name="Grupo 32096" transform="translate(0 12.021)">
        <path id="Trazado_67094" data-name="Trazado 67094" d="M1594.888,726.5s1.5,17.734,8.9,25.074,19.464,3.032,19.464,3.032,4.2-12.1-3.213-19.435S1594.888,726.5,1594.888,726.5Z" transform="translate(-1594.888 -726.498)" fill="#c8d6a1"/>
        <path id="Trazado_67095" data-name="Trazado 67095" d="M1647.264,778.388s.241-.7.5-1.852L1629.43,760.72l15.987,18.191C1646.569,778.636,1647.264,778.388,1647.264,778.388Z" transform="translate(-1618.896 -750.284)" fill="#145566"/>
      </g>
      <path id="Trazado_67096" data-name="Trazado 67096" d="M1700.144,750.049s21.554-1.64,29.084-17.934C1729.228,732.115,1724.617,758.334,1700.144,750.049Z" transform="translate(-1668.045 -718.381)" fill="#a4ad82"/>
    </g>
    <g id="Grupo_32105" data-name="Grupo 32105" transform="translate(1438.241 802.747)">
      <g id="Grupo_32100" data-name="Grupo 32100" transform="translate(0.965 10.879)">
        <g id="Grupo_32098" data-name="Grupo 32098" transform="translate(1.093 57.596)">
          <path id="Trazado_67097" data-name="Trazado 67097" d="M1768.792,1359.993l-.451,2.318-4.858,1.557-1.753-2.7,2.654-1.938,4.858-1.557Z" transform="translate(-1761.73 -1357.675)" fill="#112033"/>
        </g>
        <g id="Grupo_32099" data-name="Grupo 32099">
          <path id="Trazado_67098" data-name="Trazado 67098" d="M1776.735,1170.965l-10.057,57.051-4.55.165-2.7-39.668-1.278-19.7Z" transform="translate(-1758.148 -1168.81)" fill="#1a3151"/>
        </g>
      </g>
      <g id="Grupo_32103" data-name="Grupo 32103" transform="translate(14.762 12.428)">
        <g id="Grupo_32101" data-name="Grupo 32101">
          <path id="Trazado_67099" data-name="Trazado 67099" d="M1821.941,1173.89l-6.464,55.922-4.172.368-4.414-42.851-3.5-12.633Z" transform="translate(-1803.389 -1173.89)" fill="#1a3151"/>
        </g>
        <g id="Grupo_32102" data-name="Grupo 32102" transform="translate(7.894 55.36)">
          <path id="Trazado_67100" data-name="Trazado 67100" d="M1829.275,1355.821l.205,2.4,4.717,2.007,2.05-2.6-2.461-2.206Z" transform="translate(-1829.275 -1355.423)" fill="#112033"/>
        </g>
      </g>
      <g id="Grupo_32104" data-name="Grupo 32104" transform="translate(0)">
        <path id="Trazado_67101" data-name="Trazado 67101" d="M1757.04,1147.2l-2.058-6.588,2.058-7.475,31.256,1.088v11.34Z" transform="translate(-1754.983 -1133.137)" fill="#484f5b"/>
      </g>
    </g>
    <g id="Grupo_32109" data-name="Grupo 32109" transform="translate(1405.516 751.176)">
      <g id="Grupo_32106" data-name="Grupo 32106" transform="translate(0 4.616)">
        <path id="Trazado_67102" data-name="Trazado 67102" d="M1654.085,981.777l-.613,2.794-4.734-.475-1.062-2.791,1.564-2.04,1.724,1.47.115-.524-.418-.639.648-.409Z" transform="translate(-1647.675 -979.164)" fill="#ebceb1"/>
      </g>
      <g id="Grupo_32108" data-name="Grupo 32108" transform="translate(4.74 0)">
        <g id="Grupo_32107" data-name="Grupo 32107">
          <path id="Trazado_67103" data-name="Trazado 67103" d="M1699.711,964.029l-17.821,8.486-17.544-2.529-1.127,4.226,20.281,6.519L1709.719,972Z" transform="translate(-1663.219 -964.029)" fill="#145566"/>
        </g>
      </g>
    </g>
    <g id="Grupo_32113" data-name="Grupo 32113" transform="translate(1439.994 725.491)">
      <g id="Grupo_32111" data-name="Grupo 32111" transform="translate(4.188 9.118)">
        <g id="Grupo_32110" data-name="Grupo 32110">
          <path id="Trazado_67104" data-name="Trazado 67104" d="M1787.233,909.7c-3.16,1.973-7.625.844-10.512,3.224a7.237,7.237,0,0,0-2.128,6.79,6.068,6.068,0,0,0,1.449,3.131,5.655,5.655,0,0,0,1.835,1.236,7.941,7.941,0,0,0,2.837.661,15.006,15.006,0,0,1-.442,2.636l5.444-.619-.346-3.184a7.78,7.78,0,0,0,1.248-.921,9.077,9.077,0,0,0,2.5-8.83A17.579,17.579,0,0,0,1787.233,909.7Z" transform="translate(-1774.464 -909.705)" fill="#ebceb1"/>
        </g>
      </g>
      <g id="Grupo_32112" data-name="Grupo 32112" transform="translate(0)">
        <path id="Trazado_67105" data-name="Trazado 67105" d="M1769.394,891.542c.13-.048.262-.093.393-.136a14.043,14.043,0,0,1,5.929-.575c1.361.157,2.888.675,3.358,2.116a6.3,6.3,0,0,1,.2,2.035q-.015,1.287-.03,2.574a.916.916,0,0,0,.072.452c.224.412.889.231,1.17-.144a15.1,15.1,0,0,0,2.628-5.194c.268-1.358-.22-2.948.348-4.229a7.376,7.376,0,0,1,1.2-1.516,4.34,4.34,0,0,0,.759-3.962,3.333,3.333,0,0,0-1.652-2.033c-1.341-.643-2.955-.088-4.408-.407-.737-.162-1.415-.546-2.159-.672-1.568-.266-3.091.651-4.286,1.7a15.375,15.375,0,0,1-3.736,2.93c-1.171.507-2.486.572-3.692.99a7.176,7.176,0,0,0-4.314,4.412c-.781,2.254-.6,5.086,1.077,6.853a24.33,24.33,0,0,1,2.218,2.875c.242.346,1.631,1.623,1.527.282-.081-1.041-.5-2.035-.571-3.076C1765.247,894.28,1767.156,892.369,1769.394,891.542Z" transform="translate(-1760.731 -879.806)" fill="#1a3151"/>
      </g>
    </g>
    <g id="Grupo_32114" data-name="Grupo 32114" transform="translate(1433.607 751.14)">
      <path id="Trazado_67106" data-name="Trazado 67106" d="M1768.242,965.172l-15.116-1.26s-4.983,6.494-10.469,25.175a74.632,74.632,0,0,0-1.42,35.217s17.053-3.072,41.131-.307l-7.015-46.352Z" transform="translate(-1739.787 -963.912)" fill="#145566"/>
    </g>
    <g id="Grupo_32136" data-name="Grupo 32136" transform="translate(1358.632 719.385)">
      <g id="Grupo_32135" data-name="Grupo 32135" transform="translate(0 0)">
        <g id="Grupo_32117" data-name="Grupo 32117" transform="translate(28.609)">
          <g id="Grupo_32115" data-name="Grupo 32115" transform="translate(22.83)">
            <path id="Trazado_67107" data-name="Trazado 67107" d="M1662.612,867.145l1.312-2.176-.55-2.18.4-.353.447.477.053-1.942,1.022-1.186,2.053.207,1.544,1.5-.419,2.052-1.632,1.859-1.669,3.058Z" transform="translate(-1662.612 -859.784)" fill="#d19974"/>
          </g>
          <g id="Grupo_32116" data-name="Grupo 32116" transform="translate(0 5.956)">
            <path id="Trazado_67108" data-name="Trazado 67108" d="M1609.639,879.315l-12.271,22.047-9.618,2.6,5.288,15,11.575-8.6,2.967-3.216,7.717-26.1Z" transform="translate(-1587.75 -879.315)" fill="#9ea6ad"/>
          </g>
        </g>
        <g id="Grupo_32125" data-name="Grupo 32125" transform="translate(0 27.667)">
          <g id="Grupo_32118" data-name="Grupo 32118" transform="translate(26.475 121.417)">
            <path id="Trazado_67109" data-name="Trazado 67109" d="M1580.753,1349.249v2.137l5.481,2.74,2.74-2.74-2.74-2.74h-.354l-.088.6Z" transform="translate(-1580.753 -1348.646)" fill="#112033"/>
          </g>
          <g id="Grupo_32119" data-name="Grupo 32119" transform="translate(9.859 121.417)">
            <path id="Trazado_67110" data-name="Trazado 67110" d="M1529.385,1348.646h-.378l-2.74,2.74,2.74,2.74,5.481-2.74v-2.137h-5.039Z" transform="translate(-1526.267 -1348.646)" fill="#112033"/>
          </g>
          <g id="Grupo_32124" data-name="Grupo 32124">
            <g id="Grupo_32120" data-name="Grupo 32120" transform="translate(22.807 0.19)">
              <path id="Trazado_67111" data-name="Trazado 67111" d="M1589.822,1009.231c-.343-3.6-.7-7.2-1.135-10.785a135.052,135.052,0,0,0-4.05-21.227c-.764-2.647-1.646-5.257-2.527-7.866l-3.219-9.532c-1.333-3.949-3.584-6.731-7.525-8.112a14.622,14.622,0,0,0-2.208-.576,2.415,2.415,0,0,0-.046.252,2.07,2.07,0,0,1-.388,1.075l2.587.025s7.3,25.934,7.565,30.4c.1,1.7.441,5.408.818,9.315l3.963.594.17,14.945c.222.065.443.128.661.187a11.364,11.364,0,0,1,3.325,2C1589.357,1011.009,1590.033,1011.436,1589.822,1009.231Z" transform="translate(-1568.725 -951.131)" fill="#9ea6ad"/>
            </g>
            <g id="Grupo_32121" data-name="Grupo 32121" transform="translate(27.228 41.261)">
              <path id="Trazado_67112" data-name="Trazado 67112" d="M1589.772,1085.807c.6,6.184,1.289,12.864,1.289,12.864s-3.2.077-7.838.428c.343-.008.686-.017,1.028-.02,3.223-.029,6.567,1.364,9.653,2.266l-.17-14.945Z" transform="translate(-1583.223 -1085.807)" fill="#667482"/>
            </g>
            <path id="Trazado_67113" data-name="Trazado 67113" d="M1513.017,951.973c.146.017-.07-1.342-.122-1.462a11.576,11.576,0,0,0-8.514,3.838,21.411,21.411,0,0,0-2.959,5.806c-2.22,5.735-3.227,11.049-4.335,17.079-.706,3.845-1.359,7.673-1.872,11.49a119.808,119.808,0,0,0-1.086,12.634c-.013.464-.1,1.759-.156,3.307-.108,3.242-.038,7.578,1.3,7.74a1.3,1.3,0,0,0,.715-.192,47.253,47.253,0,0,0,4.609-2.94,16.391,16.391,0,0,1,1.689-.957,21.3,21.3,0,0,1,3.795-1.374c-2.21.117-2.484-.3-2.484-.3s1.994-8.143,3.393-15.226a66.733,66.733,0,0,0,1.337-8.846c.155-5.5.847-23.645.847-23.645l3.354-6.942.619.006Z" transform="translate(-1493.938 -950.507)" fill="#9ea6ad"/>
            <g id="Grupo_32122" data-name="Grupo 32122" transform="translate(6.646 54.533)">
              <path id="Trazado_67114" data-name="Trazado 67114" d="M1546.994,1131.594c-3.086-.9-6.43-2.3-9.653-2.267-.342,0-.685.012-1.028.021l-.876.068c-2.16.174-4.587.406-7.121.714l-.373.045a43.949,43.949,0,0,1-6.712,1.054,21.291,21.291,0,0,0-3.795,1.374,16.4,16.4,0,0,0-1.689.957l-.017,3.521,6.179,59.813h5.066v.609H1527l5.57-40.12.023-.226,3.052,40.346h.029v-.609h5.091l6.457-44.928Z" transform="translate(-1515.73 -1129.327)" fill="#1a3151"/>
            </g>
            <g id="Grupo_32123" data-name="Grupo 32123" transform="translate(9.662 1.476)">
              <path id="Trazado_67115" data-name="Trazado 67115" d="M1549.735,995.131c-.377-3.907-.716-7.616-.818-9.315-.268-4.47-7.565-30.4-7.565-30.4l-2.587-.025a.952.952,0,0,1-.09.094.807.807,0,0,1-.278.162,1.515,1.515,0,0,1-.661.018l-2.565-.309-.619-.006-3.354,6.942s-.692,18.149-.847,23.645a66.737,66.737,0,0,1-1.337,8.847c-1.4,7.083-3.393,15.226-3.393,15.226s.275.416,2.485.3a43.966,43.966,0,0,0,6.711-1.054l.373-.045c2.534-.308,4.961-.54,7.121-.714l.876-.068c4.634-.352,7.838-.428,7.838-.428S1550.332,1001.315,1549.735,995.131Z" transform="translate(-1525.62 -955.346)" fill="#fff"/>
            </g>
          </g>
        </g>
        <g id="Grupo_32128" data-name="Grupo 32128" transform="translate(5.27 33.443)">
          <g id="Grupo_32126" data-name="Grupo 32126" transform="translate(18.433 31.09)">
            <path id="Trazado_67116" data-name="Trazado 67116" d="M1573.156,1071.4l2.025,1.508,2.182-.379.314.429-.5.414,1.9.213,1.079,1.133-.371,2.064-1.592,1.443-1.977-.592-1.689-1.806-2.86-1.942Z" transform="translate(-1571.662 -1071.395)" fill="#d19974"/>
          </g>
          <g id="Grupo_32127" data-name="Grupo 32127">
            <path id="Trazado_67117" data-name="Trazado 67117" d="M1532.931,1000.453,1522.2,991.8l-.878-22.348-8.546,8.675-1.557,14.386,2.1,5.425,18.153,7.554Z" transform="translate(-1511.219 -969.448)" fill="#9ea6ad"/>
          </g>
        </g>
        <g id="Grupo_32134" data-name="Grupo 32134" transform="translate(14.056 5.596)">
          <g id="Grupo_32129" data-name="Grupo 32129" transform="translate(11.161 3.603)">
            <path id="Trazado_67118" data-name="Trazado 67118" d="M1578.906,893.361a9.445,9.445,0,0,1,.908,4.258,1.349,1.349,0,0,0,.3,1.086c.319.263,0,.787.269.471a7.187,7.187,0,0,0,1.241-1.826,15.677,15.677,0,0,0,.144-2.925,4.254,4.254,0,0,0-.674-2.414,4.712,4.712,0,0,0-1.13-.973,5.982,5.982,0,0,0-1.908-.994c-1.2-.294-1.974.11-.944,1.03A7.537,7.537,0,0,1,1578.906,893.361Z" transform="translate(-1576.628 -889.949)" fill="#1a3151"/>
          </g>
          <g id="Grupo_32131" data-name="Grupo 32131" transform="translate(1.318 3.684)">
            <g id="Grupo_32130" data-name="Grupo 32130">
              <path id="Trazado_67119" data-name="Trazado 67119" d="M1548.071,909.749l5,.74a31.383,31.383,0,0,0,.672-4.438c1.47-.178,3.209-.568,3.786-2.094a5.179,5.179,0,0,0,.244-1.533q.187-3.226.373-6.452a6.345,6.345,0,0,0-.132-2.214,4.444,4.444,0,0,0-2.531-2.527,9.394,9.394,0,0,0-8.662.084,4.749,4.749,0,0,0-1.82,1.679,7.649,7.649,0,0,0-.641,3.982q.036,1.895.071,3.79c.027,1.453.157,3.131,1.224,3.953.566.437,1.321.551,1.8,1.1C1548.3,906.8,1547.807,908.422,1548.071,909.749Z" transform="translate(-1544.35 -890.215)" fill="#d19974"/>
            </g>
          </g>
          <g id="Grupo_32132" data-name="Grupo 32132" transform="translate(0.984 13.936)">
            <path id="Trazado_67120" data-name="Trazado 67120" d="M1557.566,924.96c0-.4-.115-1.578-.743-.874a1.215,1.215,0,0,0-.238.709,2.754,2.754,0,0,1-.116.756,1.314,1.314,0,0,1-1.36.726,1.274,1.274,0,0,1-.611-.181,1.95,1.95,0,0,1-.448-.464l-.971-1.258c-.556-.721-1.744-.484-2.546-.42a5.052,5.052,0,0,0-2.639.883c-.079.058-.156.119-.233.18a2.742,2.742,0,0,1-.594.39,1.755,1.755,0,0,1-2.05-.781c-.213-.313-.406-.711-.757-.78a.724.724,0,0,0-.709.39,2.138,2.138,0,0,0-.244.872,6.594,6.594,0,0,0,.39,3.272c.919,2.191,2.891,2.558,4.889,2.614l2.37.067a7.386,7.386,0,0,0,4.229-.729,5.281,5.281,0,0,0,2.14-3.267A8.447,8.447,0,0,0,1557.566,924.96Zm-5.43,2.753a2.724,2.724,0,0,1-2.458.16c-.354-.129-.17-.735.185-.606a2.19,2.19,0,0,0,2.007-.119C1552.2,926.948,1552.463,927.513,1552.136,927.713Z" transform="translate(-1543.255 -923.835)" fill="#1a3151"/>
          </g>
          <g id="Grupo_32133" data-name="Grupo 32133">
            <path id="Trazado_67121" data-name="Trazado 67121" d="M1556.216,881.555a11.61,11.61,0,0,0,.388-1.573,3.049,3.049,0,0,1-1.537.053q.022-.464.044-.928c.011-.257-3.4-.617-3.68-.655-2.592-.353-4.963-.685-7.389.613a7.206,7.206,0,0,0-3.882,5.2,11.2,11.2,0,0,0,1.354,7.159,15.68,15.68,0,0,1-.077-2.6,5.136,5.136,0,0,1,.63-1.6,6.671,6.671,0,0,1,2.446-2.359,12.714,12.714,0,0,1,5.16-1.472,13.688,13.688,0,0,1,5.207.268c.76.251.878.454,1.385-.313a13.6,13.6,0,0,0,.761-1.735Z" transform="translate(-1540.029 -878.135)" fill="#1a3151"/>
          </g>
        </g>
      </g>
    </g>
    <g id="Grupo_32139" data-name="Grupo 32139" transform="translate(1343.155 718.95)">
      <g id="Grupo_32137" data-name="Grupo 32137" transform="translate(13.038 0)">
        <path id="Trazado_67122" data-name="Trazado 67122" d="M1489.4,862.162c-.374-1.267-.748-2.535-1.111-3.806l-1.657.469q.082,1.4.163,2.791c-.286-.046-.571-.095-.857-.141.47,1.048.964,2.083,1.45,3.124.588-.076,1.175-.167,1.765-.223C1489.233,863.639,1489.289,862.894,1489.4,862.162Z" transform="translate(-1485.939 -858.356)" fill="#b77d63"/>
      </g>
      <g id="Grupo_32138" data-name="Grupo 32138" transform="translate(0 5.061)">
        <path id="Trazado_67123" data-name="Trazado 67123" d="M1444.259,907.317a5.275,5.275,0,0,1-.26-.594,10.51,10.51,0,0,1-.346-7.064,1.627,1.627,0,0,1,.561-.854,1.817,1.817,0,0,1,.805-.223l7.257-.833a1.2,1.2,0,0,0,.641-.2,1.159,1.159,0,0,0,.308-.518c.751-2.035,4.864-21.656,3.584-21.787,1.185-.094,2.369-.2,3.554-.288,1.19,6.292,2.525,24.152.81,26.292-3.886,4.852-5.463,5.175-11.217,7.945a5.122,5.122,0,0,1-2.25.637A4.244,4.244,0,0,1,1444.259,907.317Z" transform="translate(-1443.187 -874.953)" fill="#d1e7f5"/>
      </g>
    </g>
    <g id="Grupo_32162" data-name="Grupo 32162" transform="translate(1313.256 719.59)">
      <g id="Grupo_32142" data-name="Grupo 32142">
        <g id="Grupo_32140" data-name="Grupo 32140" transform="translate(2.305)">
          <path id="Trazado_67124" data-name="Trazado 67124" d="M1352.7,864.262c.374-1.267.748-2.535,1.111-3.806l1.657.469q-.082,1.4-.163,2.791l.857-.141c-.47,1.048-.964,2.083-1.45,3.124-.588-.076-1.175-.167-1.765-.223C1352.87,865.739,1352.815,864.994,1352.7,864.262Z" transform="translate(-1352.703 -860.456)" fill="#b77d63"/>
        </g>
        <g id="Grupo_32141" data-name="Grupo 32141" transform="translate(0 5.061)">
          <path id="Trazado_67125" data-name="Trazado 67125" d="M1362.875,909.417a5.275,5.275,0,0,0,.26-.594,10.51,10.51,0,0,0,.346-7.064,1.627,1.627,0,0,0-.561-.854,1.817,1.817,0,0,0-.805-.223l-7.257-.833a1.2,1.2,0,0,1-.641-.2,1.16,1.16,0,0,1-.308-.518c-.75-2.035-4.864-21.656-3.584-21.787-1.185-.094-2.369-.2-3.554-.289-1.19,6.292-2.525,24.152-.81,26.292,3.886,4.852,5.463,5.175,11.217,7.945a5.121,5.121,0,0,0,2.25.637A4.244,4.244,0,0,0,1362.875,909.417Z" transform="translate(-1345.143 -877.053)" fill="#d1e7f5"/>
        </g>
      </g>
      <g id="Grupo_32161" data-name="Grupo 32161" transform="translate(6.635 3.615)">
        <g id="Grupo_32153" data-name="Grupo 32153" transform="translate(0 22.757)">
          <g id="Grupo_32148" data-name="Grupo 32148" transform="translate(9.645 114.906)">
            <g id="Grupo_32145" data-name="Grupo 32145" transform="translate(1.034)">
              <g id="Grupo_32143" data-name="Grupo 32143" transform="translate(0 1.242)">
                <path id="Trazado_67126" data-name="Trazado 67126" d="M1401.932,1328.341l-.012,5.085,2.951.007.013-5.638Z" transform="translate(-1401.92 -1327.796)" fill="#b77d63"/>
              </g>
              <g id="Grupo_32144" data-name="Grupo 32144" transform="translate(13.267)">
                <path id="Trazado_67127" data-name="Trazado 67127" d="M1446.19,1323.875l-.764,5.472,3.176.443.847-6.067Z" transform="translate(-1445.426 -1323.724)" fill="#b77d63"/>
              </g>
            </g>
            <g id="Grupo_32146" data-name="Grupo 32146" transform="translate(12.629 5.624)">
              <path id="Trazado_67128" data-name="Trazado 67128" d="M1444.832,1342.609l-2.9-.442-1.147.433-.84,2,6.448,4h0a1.735,1.735,0,0,0,.412-2.71l-.258-.271Z" transform="translate(-1439.941 -1342.167)" fill="#112033"/>
            </g>
            <g id="Grupo_32147" data-name="Grupo 32147" transform="translate(0 6.872)">
              <path id="Trazado_67129" data-name="Trazado 67129" d="M1402.514,1346.266l-2.951-.007-1.034,1.36.206,2.157,7.573.47.217-.492a1.585,1.585,0,0,0-1.241-2.212l-.168-.023Z" transform="translate(-1398.529 -1346.259)" fill="#112033"/>
            </g>
          </g>
          <g id="Grupo_32149" data-name="Grupo 32149" transform="translate(1.692 50.864)">
            <path id="Trazado_67130" data-name="Trazado 67130" d="M1372.451,1130.625l5.261,24.034,3.2,27.209,4.88.011,3.866-68.154-16.346.264Z" transform="translate(-1372.451 -1113.726)" fill="#145566"/>
          </g>
          <g id="Grupo_32151" data-name="Grupo 32151" transform="translate(15.852 51.35)">
            <g id="Grupo_32150" data-name="Grupo 32150">
              <path id="Trazado_67131" data-name="Trazado 67131" d="M1436.022,1130.337l.631,23.32-4.268,27.535-6.247-.036-1.278-29.206-4.489-21.175-1.491-13.857,13.613-1.6Z" transform="translate(-1418.88 -1115.319)" fill="#145566"/>
            </g>
          </g>
          <g id="Grupo_32152" data-name="Grupo 32152">
            <path id="Trazado_67132" data-name="Trazado 67132" d="M1390.1,946.936l-15.287,1.739-2.543,8.445-3.61,24.863-1.761,21.129,24.576.378,8.09-1.295-2.082-22.184-3.071-25.184Z" transform="translate(-1366.902 -946.936)" fill="#d1e7f5"/>
          </g>
        </g>
        <g id="Grupo_32160" data-name="Grupo 32160" transform="translate(3.426)">
          <g id="Grupo_32154" data-name="Grupo 32154" transform="translate(7.519 4.481)">
            <path id="Trazado_67133" data-name="Trazado 67133" d="M1413.308,888.927a6.578,6.578,0,0,0-4.683-1.923c-6.013.063-6.472,5.914-5.352,10.465a8.893,8.893,0,0,0,3.157,5.183,5.581,5.581,0,0,0,1.5.763v0c-.092.311-.073,4.081-.34,4.045a8.2,8.2,0,0,0,4.148-.525c-.042-1.125.1-2.51-.007-3.726a3.873,3.873,0,0,0,.488-.3c1.61-1.169,2.132-3.306,2.432-5.273C1415.045,895.09,1415.28,890.917,1413.308,888.927Z" transform="translate(-1402.79 -887.004)" fill="#b77d63"/>
          </g>
          <g id="Grupo_32155" data-name="Grupo 32155" transform="translate(12.625)">
            <path id="Trazado_67134" data-name="Trazado 67134" d="M1425.361,884.319c.193.228.521.285.756.469.784.615.024,1.969.5,2.846a3.45,3.45,0,0,1-.668,4.027c-.4.317-.93.539-1.1,1.018-.193.558.2,1.281-.2,1.717a2.351,2.351,0,0,0,2.561.165,6.394,6.394,0,0,1,2.571-.838c.289.011.635.055.813-.171a.929.929,0,0,0,.127-.5c.21-2.087,2.671-1.553,3-3.246.088-.455-.467-1.579-.458-2.174.015-.949.557-1.8.235-2.769-.133-.4-.4-.748-.539-1.148a4.955,4.955,0,0,1,.18-2.542,2.353,2.353,0,0,0-.551-2.381c-.54-.4-1.323-.351-1.855-.764-1.179-.914-.314-3.3-1.641-3.979-.681-.349-1.509.033-2.266-.078a5.422,5.422,0,0,1-2.071-1.208c-.668-.454-1.671-.7-2.216-.1-.459.5-.335,1.339-.757,1.873-.361.457-1,.555-1.528.8-2.474,1.169,2.186,1.932,2.855,2.751a18.293,18.293,0,0,1,1.574,2.783C1425.159,881.8,1424.855,883.722,1425.361,884.319Z" transform="translate(-1419.536 -872.311)" fill="#1a3151"/>
          </g>
          <g id="Grupo_32156" data-name="Grupo 32156" transform="translate(0 0.301)">
            <path id="Trazado_67135" data-name="Trazado 67135" d="M1389.372,879.13c-3.026.644-1.191,2.9-2.158,4.749-.38.727-1.422,1-1.629,1.793-.167.639.3,1.249.673,1.793s.66,1.333.21,1.816c-.136.145-.326.243-.421.418-.248.456.315.92.791,1.127s1.061.613.871,1.1c-.556,1.414-.912.817-.01,2.018.218.29.6.239.806.535a1.384,1.384,0,0,1-1.549.355c-1.409-.547-1.02.139-2.12.312-1.159.182-1.2-.173-2.209-.82-.946-.6-2.928-1.026-3.264-2.25-.187-.684.344-1.388.187-2.077-.147-.646-.861-1.136-1.19-1.744-.668-1.231.343-2.578.552-3.9.29-1.826-.79-4.1,1.137-5.25.414-.247.92-.4,1.343-.636,1.246-.706,1.493-1.992,1.981-3.1a3.227,3.227,0,0,1,3.278-2.038c1.389.232,2.126,1.552,3.538,1.691a5.406,5.406,0,0,1,1.474.123,1.378,1.378,0,0,1,.671.687c.336.622,1.315,2.714.575,3.29C1391.947,879.873,1390.655,878.858,1389.372,879.13Z" transform="translate(-1378.136 -873.299)" fill="#1a3151"/>
          </g>
          <g id="Grupo_32157" data-name="Grupo 32157" transform="translate(17.837 4.39)">
            <path id="Trazado_67136" data-name="Trazado 67136" d="M1441.508,895.583a1.747,1.747,0,0,0,.324-.735.946.946,0,0,0-.517-.95,5.132,5.132,0,0,0-.657-.283c-.466-.2-.842-.415-.629-1.093.034-.108.128-.215.174-.319a1.826,1.826,0,0,0,.077-1.27,1.041,1.041,0,0,0-.643-.7,3.034,3.034,0,0,0-.785-.012c-.994-.068-.621-.986-.555-1.546a1.759,1.759,0,0,0-1.555-1.972c-.154-.02-.153.223,0,.242a1.542,1.542,0,0,1,1.166.8,1.947,1.947,0,0,1,.065,1.356,1.243,1.243,0,0,0,.249,1.183c.527.46,1.3-.17,1.735.51.419.655-.045,1.207-.235,1.81-.483,1.529,2.634,1.044,1.684,2.7-.245.426-.713.844-.633,1.388a.711.711,0,0,0,.761.657c.153-.016.156-.259,0-.242-.661.069-.517-.751-.348-1.048C1441.278,895.888,1441.4,895.742,1441.508,895.583Z" transform="translate(-1436.626 -886.706)" fill="#9ea6ad"/>
          </g>
          <g id="Grupo_32158" data-name="Grupo 32158" transform="translate(4.226 5.446)">
            <path id="Trazado_67137" data-name="Trazado 67137" d="M1396.817,890.211c-.846-.106-2.161-.081-2.279,1.031a6.205,6.205,0,0,0,.372,1.643c.182,1.1-.929,1.336-1.7,1.668-.829.355-1.551,1.311-.67,2.033q.159.111.313.231l-.189.738c-.075.1-.292.173-.387.257a.717.717,0,0,0-.277.428.472.472,0,0,0,.452.567c.156.007.156-.235,0-.242q.034-.317.069-.634c.065-.042.131-.084.2-.124s.142-.088.206-.141a.954.954,0,0,0,.252-.293.59.59,0,0,0-.152-.725c-.2-.2-.417-.273-.554-.558-.233-.484.1-.915.535-1.171.455-.268,1-.346,1.449-.623a1.456,1.456,0,0,0,.585-1.875c-.181-.581-.514-1.352.122-1.778a2.472,2.472,0,0,1,1.658-.188C1396.971,890.473,1396.97,890.231,1396.817,890.211Z" transform="translate(-1391.992 -890.171)" fill="#9ea6ad"/>
          </g>
          <g id="Grupo_32159" data-name="Grupo 32159" transform="translate(1.846 9.605)">
            <path id="Trazado_67138" data-name="Trazado 67138" d="M1385.745,904.045a.121.121,0,0,0-.064-.234c-.661.195-1.515.527-1.493,1.356a.793.793,0,0,0,.279.6c.273.232.6.215.837.516a.7.7,0,0,1-.812,1.08.121.121,0,0,0-.065.234.972.972,0,0,0,1.305-1.015,1.04,1.04,0,0,0-.637-.794c-.476-.268-.894-.675-.445-1.2A2.2,2.2,0,0,1,1385.745,904.045Z" transform="translate(-1384.188 -903.806)" fill="#9ea6ad"/>
          </g>
        </g>
      </g>
    </g>
    <g id="Grupo_32182" data-name="Grupo 32182" transform="translate(1548.798 718.95)">
      <g id="Grupo_32165" data-name="Grupo 32165" transform="translate(0 0.896)">
        <g id="Grupo_32163" data-name="Grupo 32163" transform="translate(0.838)">
          <path id="Trazado_67139" data-name="Trazado 67139" d="M2120.26,865.479l.648-4.186,1.789.227.187,2.975.89-.288-.988,3.508-1.888.017Z" transform="translate(-2120.26 -861.293)" fill="#ebceb1"/>
        </g>
        <g id="Grupo_32164" data-name="Grupo 32164" transform="translate(0 5.353)">
          <path id="Trazado_67140" data-name="Trazado 67140" d="M2139.3,912.109a3.783,3.783,0,0,0,.1-1.082,7.055,7.055,0,0,0-2.02-4.363c-1.758-1.9-4.126-3.265-6.086-4.957l-6.728-5.8-2.964-17.059-3.742.227-.353,21.27c3.1,2.424,6.142,4.78,9.07,7.38,2.625,2.331,4.973,5.381,8.462,6.39C2137.015,914.681,2138.849,913.907,2139.3,912.109Z" transform="translate(-2117.513 -878.845)" fill="#1a3151"/>
        </g>
      </g>
      <g id="Grupo_32178" data-name="Grupo 32178" transform="translate(6.261 6.905)">
        <g id="Grupo_32170" data-name="Grupo 32170" transform="translate(1.3 72.863)">
          <g id="Grupo_32166" data-name="Grupo 32166" transform="translate(10.499 2.196)">
            <path id="Trazado_67141" data-name="Trazado 67141" d="M2191.2,1127.125l1.452,9.994-2.915,56.367-4.889-1.025-8.111-64.081Z" transform="translate(-2176.735 -1127.125)" fill="#1a3151"/>
          </g>
          <g id="Grupo_32167" data-name="Grupo 32167">
            <path id="Trazado_67142" data-name="Trazado 67142" d="M2143.251,1120.243l-.945,37.368,9.491,32.257,5.532-2.057-4.659-28.767,4.278-39.12Z" transform="translate(-2142.306 -1119.924)" fill="#1a3151"/>
          </g>
          <g id="Grupo_32168" data-name="Grupo 32168" transform="translate(7.127 64.866)">
            <path id="Trazado_67143" data-name="Trazado 67143" d="M2173.592,1332.628l-6.623,3.036,2.223,4.631-3.473,2.188s-.327,1.928.839,2.742,8.723-5.533,8.723-5.533Z" transform="translate(-2165.676 -1332.628)" fill="#112033"/>
          </g>
          <g id="Grupo_32169" data-name="Grupo 32169" transform="translate(14.467 65.961)">
            <path id="Trazado_67144" data-name="Trazado 67144" d="M2200.24,1336.219l-7.184,1.213.945,5.049-3.922,1.212s-.816,1.777.1,2.866,9.86-3.08,9.86-3.08Z" transform="translate(-2189.744 -1336.219)" fill="#112033"/>
          </g>
        </g>
        <g id="Grupo_32171" data-name="Grupo 32171" transform="translate(23.436 11.405)">
          <path id="Trazado_67145" data-name="Trazado 67145" d="M2219.158,924.534a19.633,19.633,0,0,1-4.265,2.983,33.418,33.418,0,0,0,3.423-8.466.879.879,0,0,1,.332-.592.824.824,0,0,1,.635.007C2223,919.584,2221.391,922.482,2219.158,924.534Z" transform="translate(-2214.893 -918.398)" fill="#1a3151"/>
        </g>
        <g id="Grupo_32175" data-name="Grupo 32175" transform="translate(12.479)">
          <g id="Grupo_32172" data-name="Grupo 32172" transform="translate(2.682 3.982)">
            <path id="Trazado_67146" data-name="Trazado 67146" d="M2196.093,910.7a5.827,5.827,0,0,1-3.766,1.787,4.159,4.159,0,0,1-3.6-2.4c-2.111-3.884-1.407-18.086,8.668-15.788C2206.542,896.394,2200.134,907.026,2196.093,910.7Z" transform="translate(-2187.757 -894.057)" fill="#ebceb1"/>
          </g>
          <g id="Grupo_32173" data-name="Grupo 32173" transform="translate(0 1.464)">
            <path id="Trazado_67147" data-name="Trazado 67147" d="M2183.228,901.082c-.948.456-2-.392-2.6-1.259a10.229,10.229,0,0,1,.625-12.044c2.34-2.755,7.534-2.922,6.2,1.357-.472,1.517-2.344,2.947-2.989,4.563A25.021,25.021,0,0,0,2183.228,901.082Z" transform="translate(-2178.963 -885.8)" fill="#1a3151"/>
          </g>
          <g id="Grupo_32174" data-name="Grupo 32174" transform="translate(8.615)">
            <path id="Trazado_67148" data-name="Trazado 67148" d="M2220.967,885.841c2.624,4.409,1.6,10.142,3.592,14.87a15.217,15.217,0,0,1-10.373-5.72c-2.446-3.14-9.561-8.335-5.989-12.179C2211.834,878.9,2218.668,881.978,2220.967,885.841Z" transform="translate(-2207.213 -881)" fill="#1a3151"/>
          </g>
        </g>
        <g id="Grupo_32176" data-name="Grupo 32176" transform="translate(15.704 18.807)">
          <path id="Trazado_67149" data-name="Trazado 67149" d="M2194.923,944.21a26.453,26.453,0,0,0-.836,5.343l-4.006-1.493a.59.59,0,0,1-.456-.914l1.472-4.024a.76.76,0,0,1,.232-.379c.237-.169.563-.02.812.131l3.532,2.13Z" transform="translate(-2189.538 -942.669)" fill="#ebceb1"/>
        </g>
        <g id="Grupo_32177" data-name="Grupo 32177" transform="translate(0 21.694)">
          <path id="Trazado_67150" data-name="Trazado 67150" d="M2167.993,960.37c2.57,4.463,2.559,9.516,2.2,14.349-.8,10.943.239,23.631-3.534,34.091-7.122-.006-20.774-3.272-27.868-4-1.382-9.514-.577-15.076.2-25.849.384-5.312,1.209-12.438,3.089-17.5,1.54-4.143,5.643-9.492,11.837-9.322A18.237,18.237,0,0,1,2167.993,960.37Z" transform="translate(-2138.044 -952.137)" fill="#1a3151"/>
        </g>
      </g>
      <g id="Grupo_32181" data-name="Grupo 32181" transform="translate(26.046)">
        <g id="Grupo_32179" data-name="Grupo 32179" transform="translate(11.927)">
          <path id="Trazado_67151" data-name="Trazado 67151" d="M2246.256,862.9l-1.672-4.548-1.955.658.462,3.378-1.063-.122,1.9,3.71,2.121-.407Z" transform="translate(-2242.029 -858.356)" fill="#ebceb1"/>
        </g>
        <g id="Grupo_32180" data-name="Grupo 32180" transform="translate(0 6)">
          <path id="Trazado_67152" data-name="Trazado 67152" d="M2203.353,919.913a4.305,4.305,0,0,1-.359-1.189,8.067,8.067,0,0,1,1.28-5.348c1.541-2.53,3.888-4.592,5.705-6.931l6.233-8.027-.527-19.8,4.247-.59,5.2,23.77c-2.931,3.417-5.808,6.746-8.5,10.322-2.417,3.206-4.361,7.156-8.046,9.075C2206.5,922.282,2204.268,921.827,2203.353,919.913Z" transform="translate(-2202.92 -878.032)" fill="#1a3151"/>
        </g>
      </g>
    </g>
    <g id="Grupo_32188" data-name="Grupo 32188" transform="translate(1389.027 751.988)">
      <g id="Grupo_32183" data-name="Grupo 32183" transform="translate(0 0)">
        <circle id="Elipse_1462" data-name="Elipse 1462" cx="49.597" cy="49.597" r="49.597" fill="#b5d6ca"/>
      </g>
      <path id="Trazado_67153" data-name="Trazado 67153" d="M1795.025,971.359q1.327.324,2.625.719Z" transform="translate(-1733.599 -969.936)" fill="#95b84c"/>
      <g id="Grupo_32184" data-name="Grupo 32184" transform="translate(3.314 3.662)">
        <path id="Trazado_67154" data-name="Trazado 67154" d="M1799.733,985.307q.319.1.635.2l.189-.138A5.693,5.693,0,0,1,1799.733,985.307Z" transform="translate(-1740.186 -983.292)" fill="#a2c24b"/>
        <path id="Trazado_67155" data-name="Trazado 67155" d="M1791.758,988.193c1.525,0,3.808,2.532,4.98,1.747,1.613-1.081,1.215-2.092,1.651-2.661q-1.747-.728-3.564-1.314Z" transform="translate(-1734.642 -983.749)" fill="#a2c24b"/>
        <path id="Trazado_67156" data-name="Trazado 67156" d="M1796.415,984.351q-.723-.221-1.456-.419A5.484,5.484,0,0,0,1796.415,984.351Z" transform="translate(-1736.867 -982.337)" fill="#a2c24b"/>
        <path id="Trazado_67157" data-name="Trazado 67157" d="M1690.448,1001.8a46.251,46.251,0,0,0-8.343-10.553c-.044-.041-.089-.081-.133-.122q-.494-.463-1-.911l-.147-.127q-.508-.445-1.029-.876l-.122-.1q-.541-.442-1.093-.869l-.082-.062q-.578-.443-1.17-.868l-.039-.028q-.615-.44-1.245-.861l0,0q-1.288-.86-2.636-1.633h0a45.727,45.727,0,0,0-16.006-5.572h0q-.5-.075-1-.14c-.189-.025-.379-.045-.568-.068-.218-.025-.436-.053-.655-.075h0q-1.383-.139-2.791-.193h0c-.2-.008-.406-.014-.609-.019-.416-.012-.833-.021-1.251-.021q-.542,0-1.082.014c-.135,0-.269.008-.4.012-.218.007-.436.015-.654.025l-.517.027-.5.032c-.2.014-.409.028-.614.045l-.281.025q-1.785.156-3.529.445h0q-.464.077-.924.162h0q-.594.111-1.183.238l-.045.01q-.571.123-1.136.26l-.063.015q-.56.136-1.113.286l-.063.017q-.558.152-1.111.318l-.044.013q-.57.171-1.134.357l0,0a45.871,45.871,0,0,0-11.725,5.829h0a46.048,46.048,0,0,0-10.372,65.988,46.07,46.07,0,0,1,9.781-57.758c.072-.062.146-.124.219-.186.195-.167.389-.333.587-.5.112-.092.225-.183.338-.274.161-.131.322-.262.484-.39.123-.1.247-.192.37-.287.156-.12.312-.241.469-.359.128-.1.257-.191.386-.286q.233-.172.468-.341c.132-.095.265-.188.4-.282q.235-.165.473-.328c.134-.091.268-.183.4-.273q.241-.161.484-.319c.135-.088.27-.175.406-.262q.249-.158.5-.313c.133-.083.267-.166.4-.247.177-.107.356-.212.535-.316.126-.074.252-.149.38-.222.207-.119.416-.234.625-.349.1-.056.2-.113.3-.169q.463-.251.931-.491c.094-.048.19-.094.285-.142.223-.112.446-.224.67-.333.128-.062.256-.121.384-.181.194-.091.388-.183.584-.272.139-.063.279-.125.419-.187.187-.083.374-.166.563-.246.145-.062.29-.122.436-.183.186-.077.371-.153.558-.228q.222-.089.446-.175.281-.109.564-.214.223-.083.446-.164c.192-.07.385-.137.578-.2.148-.051.3-.1.444-.152.2-.067.4-.131.6-.2.143-.045.286-.092.429-.136.217-.067.435-.131.654-.195.129-.038.257-.077.386-.113.279-.079.56-.154.841-.228l.208-.056q.526-.135,1.056-.258c.108-.025.217-.048.326-.072.248-.056.5-.111.745-.162.138-.029.277-.055.416-.082.221-.044.442-.087.664-.128.15-.027.3-.052.452-.078.212-.036.424-.072.637-.105l.47-.07q.315-.046.631-.089l.476-.06q.319-.038.637-.073l.474-.049c.217-.021.435-.04.653-.058l.466-.037c.227-.016.454-.03.682-.043.147-.009.294-.018.442-.026.251-.012.5-.02.756-.029.125,0,.249-.01.374-.013q.567-.014,1.136-.014c.1,0,.193,0,.29,0h0a45.848,45.848,0,0,1,19.179,4.3l.175.084q.442.209.88.427l.377.191q.345.176.686.358c.127.067.254.135.381.2q.406.221.808.45l.312.179q.429.249.853.508c.132.081.263.163.394.245q.3.187.6.379c.136.088.273.176.408.266q.323.214.643.434c.105.072.212.143.318.217h0A46.332,46.332,0,0,1,1690.448,1001.8Z" transform="translate(-1604.47 -978.701)" fill="#fff" opacity="0.07"/>
      </g>
      <g id="Grupo_32186" data-name="Grupo 32186" transform="translate(17.603 1.423)">
        <path id="Trazado_67158" data-name="Trazado 67158" d="M1754.7,981.86h0Z" transform="translate(-1723.128 -978.658)" fill="#c4d8a1"/>
        <g id="Grupo_32185" data-name="Grupo 32185">
          <path id="Trazado_67159" data-name="Trazado 67159" d="M1700.75,973.088a14.428,14.428,0,0,0-4.212.062,5.92,5.92,0,0,0,1.236-1.073q-1.3-.395-2.625-.719-.1.03-.189.063c-1.2.42-1.375.464-1.178,1.221a8.841,8.841,0,0,1-1.321-.656h-5.742c3.637,4.023-3.414,3.757-5.989,3.765-.471,0-.581-.942-.312-1.19a16.171,16.171,0,0,1,2.481,0c2.344,0,2.05-.189,2.05-2.575-2.33,1.718-2.249,0-4.892,0a11.886,11.886,0,0,0-5.869,1.114l2.124,1.81c-.892-.2-3.8-1.343-4.594-1-.37.158-.465,1.143-.923,1.143-1.847,0-6.873,1.01-6.873-1.108,0-.01-.034-.018-.091-.026a49.611,49.611,0,0,0-12.5,7.723,29.817,29.817,0,0,1,5.4-.255,22.789,22.789,0,0,1,1.753,4.222c.082,1.71-1.084,2.386-1.949,4.012a20.41,20.41,0,0,0-2.094,10.162c.007.12,1.983,1.9,1.983,2.6,0,2.951.309,3,2.336,5.173v-3.62c1.209,3.169,2.67,4.389,3.762,7.489,1.239,3.519,6.134.816,7.8,3.134.732,1.021,2.1.553,2.752,1.549l1.771,2.7c1.067,1.629,2.369,1.065,4.277,1.065,1.833,0-1.668,6.331-1.668,6.865,0,2.2,3,7.192,2.978,8.071-.056,2.607,3.2,2.972,4.966,4.577,1.415,1.295.406,4.962.362,6.588a10.3,10.3,0,0,0,.677,3.784h0c.385,1.088.875,2.136,1.314,3.214.077.188.152.378.225.568.032.083.061.168.091.252.059.16.115.32.169.482.03.089.058.179.086.269.053.168.1.338.148.509.022.081.045.162.066.245.063.252.12.507.165.768.232,1.334-.281,2.773.016,4.051.3,1.313,1.432,2.131,1.415,3.582-.026,2.242,6.279,2.663,7.5,2.663-.006,0-4.6-2.387-4.6-2.1,0-2.128,1.095-1.98,1.1-3.278,0-1.542-1.4-2.811-.525-4.993.945-2.359.838-2.287,3.395-2.287a15.25,15.25,0,0,0-.5-3.2c2.284-3.56,7.6-6.985,9-7.946,1.91-1.306.84-4.83,1.667-6.707.727-1.65,2.928-3.175,3.035-5.205a2.228,2.228,0,0,0-.005-.3c0-.024-.006-.046-.009-.069a1.838,1.838,0,0,0-.036-.211c0-.019-.01-.037-.015-.056a1.646,1.646,0,0,0-.07-.2l-.013-.03a1.438,1.438,0,0,0-.115-.206h0a2.456,2.456,0,0,0-2.156-.811c-1.129.038-1.241-1.85-2.095-1.85a11.289,11.289,0,0,1-6.892-1.927c-.341-.252-.722-3.281-1.3-4.031-.833-1.075-3.5.813-4.532-.649-.391-.553-1.316-2.72-1.948-2.72-.86,0-5.6-.922-6.595-.02.153-.138-1.617-.676-1.868-.676.108,0-6.09,3.21-6.09,1.543,0-2.161,1.054-4.954-1.51-4.954-4.12,0-.615-1.071-.615-2.959,0-2.421-3.99.665-6.092.667.055,0-2.367-3.973-1.206-3.973.834,0,.964-1.7,1.583-2.422,1.627-1.9,4.406-2.1,6.362-1.744.792.145,3.664,3.476,3.672,4.162,0-.164,1.17-.913,1.329-1.156.566-.868.246-1.243.388-2.112.474-2.918.6-3.495,2.923-5.268,1.711-1.3,4.1-2.8,5.443-4.485a9.016,9.016,0,0,1,3.47-2.686c-.152.075,1.414.954,1.742.954,1.345,0,1.67-1.137,2.407-2.158h-2.337c2.638-2.017-2.136-3.063,3.151-3.063,2.6,0,2.837.035,4.425-1.81-2.526,0-1.912-.016-1.912-2.589,0-.428-.714-2-1.4-1.329-1.864,1.832-1.8-.335-2.612-1.553-1.055-1.575-2.193.046-2.633,1-.546,1.184-5.028,3.036-5.019,4.582.006.906-1.474.869-1.447-.141.041-1.516-5.2-2.965-5.285-3.557-.114-.781,2.593-2.888,4.948-2.888,1.082,0,.552-1.253.885-1.253,2.243,0,4.888-.7,6.115-2.506-.307,0-3.186.021-3.186-.015,0-1.028-.439-1.656.739-1.656,2.767,0,3.587,2.158,6.624,2.158l-3.257,2.366c1.525,0,3.808,2.532,4.98,1.747,2.164-1.45.705-2.776,2.5-3.075a2.136,2.136,0,0,0,.883.549c.562.2,2.588.561,2.932,1.075.414.619,1.468,4.287.694,4.606-1.257.518-4.939,4.507-2.123,5.5,2.176.769,2.735-.2,4.671-1.412,1.8-1.127,2.29-.713,4.317,0a12.515,12.515,0,0,1,2.887.207c1.71.6,1.585-.475,1.765-.412a4.71,4.71,0,0,0,2.983.042A49.688,49.688,0,0,0,1700.75,973.088Z" transform="translate(-1651.327 -971.359)" fill="#3ababa"/>
          <path id="Trazado_67160" data-name="Trazado 67160" d="M1743.6,1089.956l-1.005,1.008c3.125,0,5.027,1.008,7.8,1.008C1748.533,1089.057,1747.075,1089.956,1743.6,1089.956Z" transform="translate(-1714.762 -1053.698)" fill="#3ababa"/>
          <path id="Trazado_67161" data-name="Trazado 67161" d="M1770.22,1098.51c-2.508-.076-2.625.3-4.161,2.021q1.982,0,3.965.005C1771.17,1100.537,1771.011,1098.533,1770.22,1098.51Z" transform="translate(-1731.07 -1059.727)" fill="#3ababa"/>
          <path id="Trazado_67162" data-name="Trazado 67162" d="M1787.744,1103.54c0-3.516-3.577,0,0,0Z" transform="translate(-1745.037 -1062.144)" fill="#3ababa"/>
        </g>
      </g>
      <g id="Grupo_32187" data-name="Grupo 32187" transform="translate(7.803 7.266)" opacity="0.08">
        <path id="Trazado_67163" data-name="Trazado 67163" d="M1686.934,990.518a49.6,49.6,0,0,1-67.743,68.988,49.6,49.6,0,1,0,67.743-68.988Z" transform="translate(-1619.191 -990.518)"/>
      </g>
    </g>
    <g id="Grupo_32190" data-name="Grupo 32190" transform="translate(1480.587 658.782)">
      <g id="Grupo_32189" data-name="Grupo 32189">
        <path id="Trazado_67164" data-name="Trazado 67164" d="M1912.982,661.061s-19.14,21.2-19.14,38.891,13.24,21.889,19.14,21.889,19.14-4.2,19.14-21.889S1912.982,661.061,1912.982,661.061Z" transform="translate(-1893.842 -661.061)" fill="#d1e7f5"/>
        <path id="Trazado_67165" data-name="Trazado 67165" d="M1906.131,714.539l-.008-.038a12.9,12.9,0,0,1-.467-2.477c-.03-1.29,0-2.58.085-3.867a56.653,56.653,0,0,1,1.1-7.89,86.043,86.043,0,0,1,4.946-15.537q1.414-3.385,3.044-6.674.767-1.552,1.578-3.082a32.192,32.192,0,0,0,1.59-2.905l-.051-.051s-17.247,21.259-16.354,38.186a31.254,31.254,0,0,0,.341,3.266q.124.778.292,1.548a4.044,4.044,0,0,0,.269,1.286,2.4,2.4,0,0,0,1.89,1.163,1.405,1.405,0,0,0,1.535-.81A3.726,3.726,0,0,0,1906.131,714.539Z" transform="translate(-1899.21 -668.676)" fill="#fff" opacity="0.47"/>
      </g>
      <path id="Trazado_67166" data-name="Trazado 67166" d="M1917.389,825.847a1.823,1.823,0,0,0-1.246-.516,1.858,1.858,0,0,0-1.036.34,1.791,1.791,0,0,0-.85,1.994,1.866,1.866,0,1,0,3.131-1.818Z" transform="translate(-1907.997 -775.235)" fill="#fff" opacity="0.47"/>
    </g>
    <g id="Grupo_32191" data-name="Grupo 32191" transform="translate(1299.265 657.783)">
      <path id="Trazado_67167" data-name="Trazado 67167" d="M1388.783,730.35a21.125,21.125,0,0,1-1.055,6.715,20.843,20.843,0,0,1-4.655,7.618,22.161,22.161,0,0,1-16.428,6.734,18.531,18.531,0,0,1-4.656-.786,21.234,21.234,0,1,1,26.794-20.281Z" transform="translate(-1332.158 -693.516)" fill="#ebb044"/>
      <path id="Trazado_67168" data-name="Trazado 67168" d="M1394.279,673.03a46.981,46.981,0,0,1,11.67-.019.426.426,0,0,0,.453-.584l-5.886-14.379a.427.427,0,0,0-.79,0l-5.893,14.4A.426.426,0,0,0,1394.279,673.03Z" transform="translate(-1364.971 -657.783)" fill="#ebb044"/>
      <path id="Trazado_67169" data-name="Trazado 67169" d="M1440.189,687.811a46.988,46.988,0,0,1,9.739,6.431.426.426,0,0,0,.7-.237l3.037-15.237a.427.427,0,0,0-.659-.437l-12.865,8.746A.426.426,0,0,0,1440.189,687.811Z" transform="translate(-1397.048 -672.012)" fill="#ebb044"/>
      <path id="Trazado_67170" data-name="Trazado 67170" d="M1478.074,735.938a47,47,0,0,1,3.787,11.039.426.426,0,0,0,.7.24L1494.268,737a.427.427,0,0,0-.255-.748l-15.529-.928A.426.426,0,0,0,1478.074,735.938Z" transform="translate(-1423.514 -711.679)" fill="#ebb044"/>
      <path id="Trazado_67171" data-name="Trazado 67171" d="M1482.651,781a47.017,47.017,0,0,1-3.042,11.267.426.426,0,0,0,.445.59l15.419-1.908a.427.427,0,0,0,.207-.762l-12.347-9.463A.426.426,0,0,0,1482.651,781Z" transform="translate(-1424.586 -743.17)" fill="#ebb044"/>
      <path id="Trazado_67172" data-name="Trazado 67172" d="M1448.839,826.8a46.991,46.991,0,0,1-9.716,6.464.426.426,0,0,0-.055.737l12.85,8.733a.427.427,0,0,0,.659-.436l-3.043-15.256A.426.426,0,0,0,1448.839,826.8Z" transform="translate(-1396.303 -775.185)" fill="#ebb044"/>
      <path id="Trazado_67173" data-name="Trazado 67173" d="M1353.785,692.055a47,47,0,0,0-8.815,7.649.426.426,0,0,1-.725-.143l-5-14.71a.427.427,0,0,1,.6-.519l13.9,6.988A.426.426,0,0,1,1353.785,692.055Z" transform="translate(-1327.034 -676.203)" fill="#ebb044"/>
      <path id="Trazado_67174" data-name="Trazado 67174" d="M1315.588,739.463a47,47,0,0,0-3.573,11.11.426.426,0,0,1-.694.253l-11.9-9.986a.427.427,0,0,1,.241-.753l15.508-1.227A.426.426,0,0,1,1315.588,739.463Z" transform="translate(-1299.265 -714.133)" fill="#ebb044"/>
      <path id="Trazado_67175" data-name="Trazado 67175" d="M1312.876,784.289A46.971,46.971,0,0,0,1317,795.206a.426.426,0,0,1-.385.631l-15.532-.4a.427.427,0,0,1-.281-.739l11.366-10.621A.427.427,0,0,1,1312.876,784.289Z" transform="translate(-1300.24 -745.484)" fill="#ebb044"/>
      <path id="Trazado_67176" data-name="Trazado 67176" d="M1350.337,826.8a47,47,0,0,0,9.716,6.464.426.426,0,0,1,.055.737l-12.85,8.733a.427.427,0,0,1-.659-.436l3.043-15.256A.426.426,0,0,1,1350.337,826.8Z" transform="translate(-1332.158 -775.185)" fill="#ebb044"/>
      <path id="Trazado_67177" data-name="Trazado 67177" d="M1407.038,850.145a47.007,47.007,0,0,1-11.67.052.426.426,0,0,0-.451.585l5.926,14.363a.427.427,0,0,0,.79,0l5.853-14.413A.426.426,0,0,0,1407.038,850.145Z" transform="translate(-1365.724 -791.479)" fill="#ebb044"/>
    </g>
    <g id="Grupo_32195" data-name="Grupo 32195" transform="translate(1462.062 752.4)">
      <g id="Grupo_32193" data-name="Grupo 32193" transform="translate(0 0)">
        <g id="Grupo_32192" data-name="Grupo 32192">
          <path id="Trazado_67178" data-name="Trazado 67178" d="M1833.164,973.1l15.831,14.534,5.911,16.711,4.266-.965-3.648-20.988-22.429-14.346Z" transform="translate(-1833.094 -968.045)" fill="#145566"/>
        </g>
      </g>
      <g id="Grupo_32194" data-name="Grupo 32194" transform="translate(21.661 34.473)">
        <path id="Trazado_67179" data-name="Trazado 67179" d="M1905.146,1081.842l2.759-.755,1.778,4.413-1.978,2.237-2.533-.437.5-2.21-.517.141-.372.667-.663-.384Z" transform="translate(-1904.122 -1081.087)" fill="#ebceb1"/>
      </g>
    </g>
    <g id="Grupo_32217" data-name="Grupo 32217" transform="translate(1481.177 714.44)">
      <g id="Grupo_32201" data-name="Grupo 32201" transform="translate(21.005 147.557)">
        <g id="Grupo_32198" data-name="Grupo 32198" transform="translate(1.145)">
          <g id="Grupo_32196" data-name="Grupo 32196" transform="translate(0 1.261)">
            <path id="Trazado_67180" data-name="Trazado 67180" d="M1968.421,1332.164l-.013,5.629,3.267.008.015-6.241Z" transform="translate(-1968.408 -1331.56)" fill="#edd3b8"/>
          </g>
          <g id="Grupo_32197" data-name="Grupo 32197" transform="translate(14.862)">
            <path id="Trazado_67181" data-name="Trazado 67181" d="M2017.141,1328.462l.646,6.083,3.53-.375-.716-6.743Z" transform="translate(-2017.141 -1327.426)" fill="#edd3b8"/>
          </g>
        </g>
        <g id="Grupo_32199" data-name="Grupo 32199" transform="translate(15.887 6.54)">
          <path id="Trazado_67182" data-name="Trazado 67182" d="M2020.993,1348.871l-3.173.711-1.01.908-.063,2.4,8.259,1.533h0a1.921,1.921,0,0,0-.665-2.961l-.375-.176Z" transform="translate(-2016.748 -1348.871)" fill="#112033"/>
        </g>
        <g id="Grupo_32200" data-name="Grupo 32200" transform="translate(0 7.494)">
          <path id="Trazado_67183" data-name="Trazado 67183" d="M1969.066,1352.008,1965.8,1352l-1.145,1.5.229,2.388,8.384.52.241-.544a1.755,1.755,0,0,0-1.374-2.449l-.185-.025Z" transform="translate(-1964.654 -1352)" fill="#112033"/>
        </g>
      </g>
      <g id="Grupo_32205" data-name="Grupo 32205" transform="translate(14.762 75.854)">
        <g id="Grupo_32202" data-name="Grupo 32202">
          <path id="Trazado_67184" data-name="Trazado 67184" d="M1944.182,1111.688l3.1,27.755,1.231,31.074,10.5.036,4.2-78.249-16.931.266Z" transform="translate(-1944.182 -1092.303)" fill="#145566"/>
        </g>
        <g id="Grupo_32204" data-name="Grupo 32204" transform="translate(15.573 0.009)">
          <g id="Grupo_32203" data-name="Grupo 32203">
            <path id="Trazado_67185" data-name="Trazado 67185" d="M2011.018,1108.014l2.279,27.076-2.885,35.4-10.2-.3-1.472-34.4-1.727-24.7-1.764-18.407,12.213-.351Z" transform="translate(-1995.249 -1092.333)" fill="#145566"/>
          </g>
        </g>
      </g>
      <g id="Grupo_32206" data-name="Grupo 32206" transform="translate(13.14 31.016)">
        <path id="Trazado_67186" data-name="Trazado 67186" d="M1965.446,945.273l-21.671,2.9-2.381,6-.379,20.771-2.15,17.8,27.685.125,6.906-1.748-2.171-18.661-1.042-20.584Z" transform="translate(-1938.865 -945.273)" fill="#9ea6ad"/>
      </g>
      <g id="Grupo_32209" data-name="Grupo 32209" transform="translate(35.974 24.453)">
        <g id="Grupo_32207" data-name="Grupo 32207" transform="translate(18.092)">
          <path id="Trazado_67187" data-name="Trazado 67187" d="M2076.88,929.488l.679-5.326-2.23-.407-1.26,3.538-.969-.689-.035,4.633,2.263.74Z" transform="translate(-2073.065 -923.755)" fill="#ebceb1"/>
        </g>
        <g id="Grupo_32208" data-name="Grupo 32208" transform="translate(0 5.907)">
          <path id="Trazado_67188" data-name="Trazado 67188" d="M2016.679,948.375l11.17,7.913,3.476-13.165,4.418,1.7-2.219,27.081-3.858.75L2013.74,961.89Z" transform="translate(-2013.74 -943.123)" fill="#9ea6ad"/>
        </g>
      </g>
      <g id="Grupo_32212" data-name="Grupo 32212">
        <g id="Grupo_32210" data-name="Grupo 32210" transform="translate(10.724)">
          <path id="Trazado_67189" data-name="Trazado 67189" d="M1931.578,847.4q1.419-1.912,2.826-3.832l1.675,1.213q-.67,1.54-1.338,3.08c.342.066.683.129,1.024.2-.963.988-1.947,1.951-2.926,2.923-.631-.329-1.256-.674-1.9-.981C1931.156,849.136,1931.4,848.273,1931.578,847.4Z" transform="translate(-1930.94 -843.569)" fill="#ebceb1"/>
        </g>
        <g id="Grupo_32211" data-name="Grupo 32211" transform="translate(0 4.967)">
          <path id="Trazado_67190" data-name="Trazado 67190" d="M1917.054,900.284a2.91,2.91,0,0,0,.3-1.232,7.818,7.818,0,0,0-1.524-5.041c-1.66-2.3-3.9-3.927-5.627-6.082a77.394,77.394,0,0,1-5.25-7.729,93.374,93.374,0,0,1,4.786-18.549c-1.3-.6-2.586-1.21-3.888-1.794-4.329,7.251-7.235,14.769-10.078,22.686,2.494,3.711,4.935,7.329,7.705,10.878,2.484,3.181,4.807,6.679,8.543,8.455A3.553,3.553,0,0,0,1917.054,900.284Z" transform="translate(-1895.776 -859.857)" fill="#9ea6ad"/>
        </g>
      </g>
      <g id="Grupo_32216" data-name="Grupo 32216" transform="translate(17.7 7.463)">
        <g id="Grupo_32213" data-name="Grupo 32213" transform="translate(6.18 5.651)">
          <path id="Trazado_67191" data-name="Trazado 67191" d="M1985.726,888.7a7.282,7.282,0,0,0-5.184-2.129c-6.656.069-7.165,6.547-5.925,11.586a9.845,9.845,0,0,0,3.494,5.738,6.181,6.181,0,0,0,1.666.845v0c-.1.345-.082,4.518-.377,4.479a9.079,9.079,0,0,0,4.592-.581c-.046-1.245.114-2.779-.008-4.125a4.306,4.306,0,0,0,.54-.329c1.782-1.295,2.36-3.66,2.693-5.837C1987.65,895.52,1987.91,890.9,1985.726,888.7Z" transform="translate(-1974.082 -886.569)" fill="#eacdb0"/>
        </g>
        <g id="Grupo_32214" data-name="Grupo 32214">
          <path id="Trazado_67192" data-name="Trazado 67192" d="M1978.948,897.061c.077-1.693-1.286-2.755-1.078-4.437.489-3.939.967-7.707.3-11.676a22.614,22.614,0,0,0-2.552-7.821,10,10,0,0,0-6.168-4.875,10.409,10.409,0,0,0-8.195,1.712c-2.062,1.722-2.672,4.539-3.451,7.177-1.092,3.7-1.281,7.483-2.245,11.132a44.655,44.655,0,0,0-1.692,13.551c1.257.457,2.111-.99,3.175-1.411,3.362-1.329,6.561.163,9.713,1.271,3.538,1.245,11.1,1.018,14.735,1.942C1981.83,900.264,1978.839,899.477,1978.948,897.061Zm-11.879-7.4c-.663-.339-1.3-.57-1.961-.978-.628-.387-1.264-.761-1.89-1.152a3.4,3.4,0,0,1-.678-.713c-.233-.271-.461-.547-.677-.832a2.867,2.867,0,0,1-.515-1.33c-.1-.535-.2-1.071-.281-1.609a19.633,19.633,0,0,1-.272-3.308,10.21,10.21,0,0,1,.352-2.589,4.313,4.313,0,0,1,.629-.509q.149-.1.3-.194a10.134,10.134,0,0,1,4.506-1.375,8.925,8.925,0,0,1,2.11.047,6.455,6.455,0,0,1,4.285,2.834,19.872,19.872,0,0,1,.04,6.1,14.885,14.885,0,0,1-1.33,2.508,17.272,17.272,0,0,1-2.327,2.426c-.717.72-1.013,1.352-2.161.743Z" transform="translate(-1953.817 -868.039)" fill="#b5d6ca"/>
        </g>
        <g id="Grupo_32215" data-name="Grupo 32215" transform="translate(6.907 5.651)" opacity="0.17">
          <path id="Trazado_67193" data-name="Trazado 67193" d="M1986.575,887.418a11.467,11.467,0,0,0-5.116-.84c-1.71.053-4.146.421-4.779,2.231a4.354,4.354,0,0,0-.181,1.913c.044-.209.1-.417.155-.622a4.462,4.462,0,0,1,.655-.509q.155-.1.314-.194a10.859,10.859,0,0,1,4.69-1.375,9.642,9.642,0,0,1,2.2.047,7.013,7.013,0,0,1,4.017,2.474A3.361,3.361,0,0,0,1986.575,887.418Z" transform="translate(-1976.467 -886.568)"/>
        </g>
      </g>
    </g>
    <g id="Grupo_32218" data-name="Grupo 32218" transform="translate(1536.17 661.699)">
      <path id="Trazado_67194" data-name="Trazado 67194" d="M2246.191,808.9a2.435,2.435,0,0,0-.245-.679c-.123-.235-.488-.911-.97-1.8Z" transform="translate(-2193.477 -765.003)" fill="none"/>
      <path id="Trazado_67195" data-name="Trazado 67195" d="M2176.155,690.517l4.585,1.364,5.925,1.764,4.585,1.365a2.873,2.873,0,0,0,3.643-2.2l1.056-4.764c.374-1.693.985-4.463,1.36-6.158l1.056-4.763c.376-1.693-.691-2.251-2.369-1.24l-2.876,1.735c-1.054-1.839-2.108-3.667-2.515-4.336-.927-1.52-2.707-2.682-6.2-2.662l-13.855.081,5.785,10.4a1.95,1.95,0,0,1,.358.521c.276.571,1.325,2.536,2.369,4.478l-2.814,1.7C2174.565,688.807,2174.526,690.03,2176.155,690.517Z" transform="translate(-2141.744 -670.623)" fill="#3ababa"/>
      <path id="Trazado_67196" data-name="Trazado 67196" d="M2123.4,674.352c-1.486,2.309-5.254,8.455-5.254,8.455a2.9,2.9,0,0,0,.958,4l9.24,5.548a2.916,2.916,0,0,0,3.995-1.031l5.694-9.575c.5-.843,1.095-.968,1.577-.469l-5.785-10.4-3.337.02C2128.082,670.923,2125.332,671.351,2123.4,674.352Z" transform="translate(-2105.025 -670.808)" fill="#309693"/>
      <path id="Trazado_67197" data-name="Trazado 67197" d="M2078.137,757.622c1.041,2.066,3.922,7.386,6.034,11.284l6.549-10.955c.771-1.348,2.2-3.847,3.4-5.917l3.352,1.906c1.7.968,2.754.383,2.338-1.3l-1.173-4.736c-.415-1.682-1.1-4.436-1.513-6.119l-1.17-4.736a2.87,2.87,0,0,0-3.7-2.1l-4.55,1.483-5.879,1.915-4.55,1.482c-1.617.526-1.548,1.75.153,2.717l2.471,1.406c-1.262,2.5-2.749,5.448-3.124,6.294C2076.1,751.771,2076.516,754.409,2078.137,757.622Z" transform="translate(-2076.104 -715.229)" fill="#3ababa"/>
      <path id="Trazado_67198" data-name="Trazado 67198" d="M2109.1,810.715l-6.548,10.955c1.177,2.17,2.115,3.9,2.364,4.383.691,1.344,1.681,3.976,7.93,3.94l9.085-.053a2.933,2.933,0,0,0,2.873-2.974l-.06-10.972a2.933,2.933,0,0,0-2.908-2.941l-12.409.072c-1.12.007-1.263-.753-.869-1.459C2108.613,811.57,2108.813,811.221,2109.1,810.715Z" transform="translate(-2094.488 -767.992)" fill="#309693"/>
      <path id="Trazado_67199" data-name="Trazado 67199" d="M2235.447,767.109l5.414,11.063c1.895-3.572,5.111-9.775,6.426-12.456,1.758-3.588,2.256-6.7,1.446-8.333s-4.82-9.59-4.82-9.59a2.617,2.617,0,0,0-3.788-1.079l-9.179,5.777a3.166,3.166,0,0,0-1.056,4.133s2.789,5.131,4.343,8c.482.891.847,1.567.97,1.8A2.45,2.45,0,0,1,2235.447,767.109Z" transform="translate(-2182.733 -723.217)" fill="#3ababa"/>
      <path id="Trazado_67200" data-name="Trazado 67200" d="M2204.885,818.171c.214-.371.7-1.277,1.34-2.48l-5.414-11.063c.115.643-.2,1.08-.982,1.084l-5.6.034-.031-3.43c-.018-1.993-1.034-2.639-2.26-1.437l-3.447,3.38c-1.225,1.2-3.231,3.166-4.455,4.367l-3.447,3.38a2.991,2.991,0,0,0,.035,4.327l3.507,3.317,4.531,4.284,3.505,3.317c1.246,1.178,2.253.514,2.234-1.479l-.03-3.26,4.287-.026C2202.56,822.464,2204.033,819.641,2204.885,818.171Z" transform="translate(-2148.097 -760.736)" fill="#309693"/>
    </g>
  </g>
</svg>
