<svg xmlns="http://www.w3.org/2000/svg" xmlns:xlink="http://www.w3.org/1999/xlink" width="406.451" height="301.603" viewBox="0 0 406.451 301.603">
  <defs>
    <linearGradient id="linear-gradient" x1="-0.38" y1="3.893" x2="0.623" y2="3.893" gradientUnits="objectBoundingBox">
      <stop offset="0" stop-color="#eef7f6"/>
      <stop offset="1" stop-color="#b2deeb"/>
    </linearGradient>
    <linearGradient id="linear-gradient-2" x1="-0.466" y1="1.812" x2="0.527" y2="1.812" xlink:href="#linear-gradient"/>
    <linearGradient id="linear-gradient-3" x1="-107.199" y1="0.5" x2="-106.199" y2="0.5" gradientUnits="objectBoundingBox">
      <stop offset="0" stop-color="#daece5"/>
      <stop offset="1" stop-color="#b2deeb"/>
    </linearGradient>
    <linearGradient id="linear-gradient-4" y1="0.5" x2="1" y2="0.5" gradientUnits="objectBoundingBox">
      <stop offset="0" stop-color="#b2deeb"/>
      <stop offset="1" stop-color="#daece5"/>
    </linearGradient>
  </defs>
  <g id="Grupo_32352" data-name="Grupo 32352" transform="translate(-1071.373 -348.665)">
    <g id="Grupo_32258" data-name="Grupo 32258" transform="translate(1077.96 367.087)">
      <g id="Grupo_32254" data-name="Grupo 32254" transform="translate(39.731)">
        <path id="Trazado_67404" data-name="Trazado 67404" d="M1182.351,450.913s14.981-53.939-17.536-78.935c-60.273,36.706-24.014,95.886-24.014,95.886Z" transform="translate(-1129.988 -371.978)" fill="#0f787a"/>
        <path id="Trazado_67405" data-name="Trazado 67405" d="M1165.375,371.978c-.209.128-.414.257-.621.385l-1.215,65.949-30.51-27.594q-.2.66-.374,1.318l30.854,27.905-.351,19.031,1.238-.5.7-37.937h0l20.069-12.877c-.073-.439-.147-.876-.227-1.315l-19.816,12.715.858-46.591c-.2-.16-.4-.325-.6-.484Z" transform="translate(-1130.547 -371.978)" fill="#53b6b9"/>
      </g>
      <g id="Grupo_32255" data-name="Grupo 32255" transform="translate(6.604 12.382)">
        <path id="Trazado_67406" data-name="Trazado 67406" d="M1158.519,442.565s-21.952-51.328-61.07-54.918c-26.738,38.944,12.164,75.366,12.164,75.366l45.719,17.119Z" transform="translate(-1088.066 -387.647)" fill="#ffc630"/>
        <path id="Trazado_67407" data-name="Trazado 67407" d="M1135.917,408.429l-10.359,22.483-27.013-43.163c-.308-.035-.613-.074-.924-.1-.105.153-.2.306-.3.459l14.468,23.118-22.694-3.725c-.041.214-.075.428-.113.642l-.093.569,23.769,3.9,24.11,38.526-40.038-5.268c.26.454.52.9.782,1.343l40.1,5.276,17.121,27.357.773.289.1-1.208-29.269-46.766,10.488-22.764Q1136.375,408.91,1135.917,408.429Z" transform="translate(-1088.238 -387.647)" fill="#fff"/>
      </g>
      <g id="Grupo_32257" data-name="Grupo 32257" transform="translate(0 78.359)">
        <path id="Trazado_67408" data-name="Trazado 67408" d="M1144.341,483.726s-39.745-24.321-64.632-5.348c6.167,63.6,87.507,60.25,87.507,60.25Z" transform="translate(-1079.709 -471.139)" fill="#002f4c"/>
        <g id="Grupo_32256" data-name="Grupo 32256" transform="translate(0 0.112)">
          <path id="Trazado_67409" data-name="Trazado 67409" d="M1079.709,478.408c.024.245.052.486.078.729l56.2,28.7-31.3,14.149q.59.414,1.188.812l31.513-14.246,21.952,11.208-.731-1.754-42.738-21.822-8.179-24.8q-.663-.057-1.327-.1l7.949,24.106L1080.266,478c-.185.135-.372.265-.556.405Z" transform="translate(-1079.709 -471.281)" fill="#0f787a"/>
        </g>
      </g>
    </g>
    <g id="Grupo_32259" data-name="Grupo 32259" transform="translate(1253.11 473.567)">
      <path id="Trazado_67410" data-name="Trazado 67410" d="M1448.2,691.049l.316.559c1.3-.737,2.6-1.522,3.86-2.334l-.347-.54C1450.783,689.539,1449.495,690.318,1448.2,691.049Z" transform="translate(-1332.162 -544.907)" fill="#53b6b9"/>
      <path id="Trazado_67411" data-name="Trazado 67411" d="M1481.224,660.282l.531.36c.841-1.236,1.656-2.513,2.424-3.793l-.55-.33C1482.867,657.79,1482.058,659.056,1481.224,660.282Z" transform="translate(-1339.089 -538.149)" fill="#53b6b9"/>
      <path id="Trazado_67412" data-name="Trazado 67412" d="M1474.34,669.323l.485.42c.977-1.131,1.934-2.306,2.846-3.492l-.509-.391C1476.258,667.037,1475.309,668.2,1474.34,669.323Z" transform="translate(-1337.644 -540.108)" fill="#53b6b9"/>
      <path id="Trazado_67413" data-name="Trazado 67413" d="M1466.469,677.535l.435.472c1.1-1.011,2.186-2.069,3.228-3.145l-.461-.446C1468.636,675.482,1467.56,676.531,1466.469,677.535Z" transform="translate(-1335.993 -541.903)" fill="#53b6b9"/>
      <path id="Trazado_67414" data-name="Trazado 67414" d="M1427.375,700.1l.18.616c1.437-.42,2.883-.888,4.3-1.392l-.216-.6C1430.234,699.22,1428.8,699.685,1427.375,700.1Z" transform="translate(-1327.792 -547.002)" fill="#53b6b9"/>
      <path id="Trazado_67415" data-name="Trazado 67415" d="M1438.045,696.172l.25.59c1.38-.583,2.761-1.215,4.1-1.876l-.283-.576C1440.783,694.966,1439.414,695.593,1438.045,696.172Z" transform="translate(-1330.03 -546.076)" fill="#53b6b9"/>
      <path id="Trazado_67416" data-name="Trazado 67416" d="M1491.683,640.161l.6.23c.535-1.4,1.038-2.828,1.491-4.255l-.611-.2C1492.711,637.355,1492.213,638.775,1491.683,640.161Z" transform="translate(-1341.283 -533.832)" fill="#53b6b9"/>
      <path id="Trazado_67417" data-name="Trazado 67417" d="M1498.834,606.943c.035-1.5.026-3.014-.025-4.508l-.642.022c.051,1.482.06,2.986.025,4.471Z" transform="translate(-1342.643 -526.803)" fill="#53b6b9"/>
      <path id="Trazado_67418" data-name="Trazado 67418" d="M1487.028,650.525l.569.3c.693-1.326,1.357-2.69,1.973-4.055l-.585-.264C1488.375,647.858,1487.716,649.211,1487.028,650.525Z" transform="translate(-1340.306 -536.048)" fill="#53b6b9"/>
      <path id="Trazado_67419" data-name="Trazado 67419" d="M1497.292,618.218l.636.088c.2-1.486.37-2.994.489-4.481l-.639-.051C1497.659,615.248,1497.5,616.744,1497.292,618.218Z" transform="translate(-1342.459 -529.181)" fill="#53b6b9"/>
      <path id="Trazado_67420" data-name="Trazado 67420" d="M1416.33,702.781l.108.633c1.479-.252,2.97-.551,4.43-.887l-.145-.625C1419.275,702.236,1417.8,702.532,1416.33,702.781Z" transform="translate(-1325.475 -547.669)" fill="#53b6b9"/>
      <path id="Trazado_67421" data-name="Trazado 67421" d="M1498.306,595.553c-.138-1.49-.321-3-.545-4.477l-.635.1c.222,1.467.4,2.961.541,4.439Z" transform="translate(-1342.425 -524.42)" fill="#53b6b9"/>
      <path id="Trazado_67422" data-name="Trazado 67422" d="M1495.115,629.343l.622.16c.371-1.448.7-2.928.993-4.4l-.63-.124C1495.814,626.44,1495.483,627.907,1495.115,629.343Z" transform="translate(-1342.003 -531.533)" fill="#53b6b9"/>
      <path id="Trazado_67423" data-name="Trazado 67423" d="M1301.356,618.767c.193,1.486.431,2.984.71,4.453l.63-.119c-.276-1.456-.512-2.943-.7-4.416Z" transform="translate(-1301.356 -530.212)" fill="#53b6b9"/>
      <path id="Trazado_67424" data-name="Trazado 67424" d="M1306.887,640.852c.528,1.4,1.1,2.8,1.714,4.176l.586-.262c-.6-1.36-1.177-2.753-1.7-4.142Z" transform="translate(-1302.516 -534.815)" fill="#53b6b9"/>
      <path id="Trazado_67425" data-name="Trazado 67425" d="M1317.325,661.08c.833,1.242,1.713,2.478,2.616,3.673l.512-.387c-.9-1.185-1.769-2.411-2.6-3.644Z" transform="translate(-1304.706 -539.03)" fill="#53b6b9"/>
      <path id="Trazado_67426" data-name="Trazado 67426" d="M1303.479,629.967c.365,1.456.776,2.92,1.222,4.347l.612-.191c-.443-1.416-.85-2.867-1.212-4.312Z" transform="translate(-1301.801 -532.546)" fill="#53b6b9"/>
      <path id="Trazado_67427" data-name="Trazado 67427" d="M1324.206,670.164c.969,1.14,1.985,2.267,3.018,3.35l.464-.443c-1.024-1.074-2.031-2.192-2.993-3.322Z" transform="translate(-1306.149 -540.924)" fill="#53b6b9"/>
      <path id="Trazado_67428" data-name="Trazado 67428" d="M1311.525,651.267c.683,1.327,1.418,2.655,2.181,3.95l.552-.326c-.757-1.284-1.485-2.6-2.163-3.918Z" transform="translate(-1303.489 -536.985)" fill="#53b6b9"/>
      <path id="Trazado_67429" data-name="Trazado 67429" d="M1332.077,678.4c1.094,1.023,2.231,2.025,3.379,2.982l.411-.493c-1.14-.948-2.267-1.943-3.351-2.957Z" transform="translate(-1307.801 -542.641)" fill="#53b6b9"/>
      <path id="Trazado_67430" data-name="Trazado 67430" d="M1375.8,701.414c-1.444-.341-2.9-.729-4.32-1.154l-.183.615c1.434.427,2.9.819,4.356,1.163Z" transform="translate(-1316.028 -547.325)" fill="#53b6b9"/>
      <path id="Trazado_67431" data-name="Trazado 67431" d="M1396.881,507.367l-.01-.642c-1.5.024-3.019.092-4.507.2l.047.641C1393.886,507.458,1395.391,507.39,1396.881,507.367Z" transform="translate(-1320.447 -506.725)" fill="#53b6b9"/>
      <path id="Trazado_67432" data-name="Trazado 67432" d="M1496.466,584.3c-.309-1.464-.665-2.942-1.061-4.39l-.62.168c.392,1.437.746,2.9,1.053,4.355Z" transform="translate(-1341.934 -522.077)" fill="#53b6b9"/>
      <path id="Trazado_67433" data-name="Trazado 67433" d="M1364.767,698.653l.218-.6c-1.4-.506-2.794-1.059-4.158-1.644l-.253.589C1361.949,697.585,1363.36,698.143,1364.767,698.653Z" transform="translate(-1313.779 -546.516)" fill="#53b6b9"/>
      <path id="Trazado_67434" data-name="Trazado 67434" d="M1419.542,508.739c-1.461-.314-2.952-.59-4.433-.821l-.1.634c1.469.229,2.948.5,4.4.816Z" transform="translate(-1325.198 -506.975)" fill="#53b6b9"/>
      <path id="Trazado_67435" data-name="Trazado 67435" d="M1386.857,704.16l.077-.637c-1.472-.175-2.963-.4-4.425-.656l-.112.631C1383.87,703.76,1385.374,703.983,1386.857,704.16Z" transform="translate(-1318.356 -547.872)" fill="#53b6b9"/>
      <path id="Trazado_67436" data-name="Trazado 67436" d="M1363.711,513.757l-.228-.6c-1.4.533-2.8,1.113-4.169,1.724l.262.586C1360.932,514.86,1362.323,514.285,1363.711,513.757Z" transform="translate(-1313.514 -508.074)" fill="#53b6b9"/>
      <path id="Trazado_67437" data-name="Trazado 67437" d="M1344.533,688.252l.352-.537c-1.237-.808-2.471-1.667-3.666-2.551l-.382.516C1342.041,686.571,1343.285,687.437,1344.533,688.252Z" transform="translate(-1309.638 -544.158)" fill="#53b6b9"/>
      <path id="Trazado_67438" data-name="Trazado 67438" d="M1398.23,705l0-.642c-1.482-.007-2.986-.058-4.469-.15l-.041.64C1395.22,704.943,1396.735,704.995,1398.23,705Z" transform="translate(-1320.733 -548.153)" fill="#53b6b9"/>
      <path id="Trazado_67439" data-name="Trazado 67439" d="M1354.342,694.035l.288-.574c-1.328-.664-2.654-1.376-3.941-2.115l-.32.556C1351.667,692.648,1353,693.366,1354.342,694.035Z" transform="translate(-1311.638 -545.455)" fill="#53b6b9"/>
      <path id="Trazado_67440" data-name="Trazado 67440" d="M1385.585,508.2l-.085-.635c-1.485.2-2.983.44-4.454.722l.122.631C1382.626,508.64,1384.113,508.4,1385.585,508.2Z" transform="translate(-1318.073 -506.902)" fill="#53b6b9"/>
      <path id="Trazado_67441" data-name="Trazado 67441" d="M1374.479,510.345l-.157-.623c-1.451.367-2.911.782-4.34,1.234l.193.612C1371.592,511.12,1373.04,510.708,1374.479,510.345Z" transform="translate(-1315.752 -507.354)" fill="#53b6b9"/>
      <path id="Trazado_67442" data-name="Trazado 67442" d="M1408.208,507.752l.063-.639c-1.489-.146-3-.253-4.5-.315l-.028.641C1405.229,507.5,1406.732,507.605,1408.208,507.752Z" transform="translate(-1322.835 -506.74)" fill="#53b6b9"/>
      <path id="Trazado_67443" data-name="Trazado 67443" d="M1483.419,552.8c-.788-1.274-1.623-2.541-2.482-3.767l-.526.368c.853,1.216,1.68,2.473,2.462,3.736Z" transform="translate(-1338.918 -515.601)" fill="#53b6b9"/>
      <path id="Trazado_67444" data-name="Trazado 67444" d="M1476.774,543.541c-.927-1.173-1.9-2.337-2.894-3.457l-.48.425c.986,1.112,1.952,2.266,2.87,3.43Z" transform="translate(-1337.447 -513.723)" fill="#53b6b9"/>
      <path id="Trazado_67445" data-name="Trazado 67445" d="M1458.1,685.327c1.211-.881,2.411-1.809,3.568-2.758l-.407-.5c-1.147.94-2.338,1.86-3.539,2.735Z" transform="translate(-1334.157 -543.51)" fill="#53b6b9"/>
      <path id="Trazado_67446" data-name="Trazado 67446" d="M1493.337,573.312c-.478-1.422-1-2.847-1.561-4.236l-.6.239c.554,1.377,1.074,2.791,1.548,4.2Z" transform="translate(-1341.177 -519.805)" fill="#53b6b9"/>
      <path id="Trazado_67447" data-name="Trazado 67447" d="M1488.965,562.77c-.637-1.357-1.322-2.711-2.036-4.027l-.564.306c.708,1.3,1.387,2.649,2.019,3.995Z" transform="translate(-1340.167 -517.637)" fill="#53b6b9"/>
      <path id="Trazado_67448" data-name="Trazado 67448" d="M1469.122,535.1c-1.056-1.061-2.156-2.105-3.268-3.1l-.428.477c1.1.99,2.194,2.026,3.241,3.079Z" transform="translate(-1335.774 -512.027)" fill="#53b6b9"/>
      <path id="Trazado_67449" data-name="Trazado 67449" d="M1409.614,704.44l-.07-.638c-1.473.164-2.973.287-4.457.365l.034.641C1406.617,704.729,1408.129,704.6,1409.614,704.44Z" transform="translate(-1323.117 -548.068)" fill="#53b6b9"/>
      <path id="Trazado_67450" data-name="Trazado 67450" d="M1441.155,515.789c-1.355-.642-2.744-1.253-4.129-1.813l-.241.6c1.373.555,2.751,1.159,4.095,1.8Z" transform="translate(-1329.766 -508.246)" fill="#53b6b9"/>
      <path id="Trazado_67451" data-name="Trazado 67451" d="M1460.561,527.6c-1.167-.932-2.379-1.842-3.6-2.706l-.371.524c1.211.857,2.412,1.761,3.57,2.684Z" transform="translate(-1333.921 -510.536)" fill="#53b6b9"/>
      <path id="Trazado_67452" data-name="Trazado 67452" d="M1451.2,521.133c-1.269-.793-2.576-1.557-3.885-2.273l-.308.563c1.3.71,2.594,1.468,3.853,2.255Z" transform="translate(-1331.911 -509.271)" fill="#53b6b9"/>
      <path id="Trazado_67453" data-name="Trazado 67453" d="M1430.552,511.639c-1.417-.48-2.867-.925-4.31-1.323l-.171.619c1.431.4,2.87.836,4.274,1.312Z" transform="translate(-1327.519 -507.478)" fill="#53b6b9"/>
    </g>
    <g id="Grupo_32260" data-name="Grupo 32260" transform="translate(1100.399 379.665)">
      <path id="Trazado_67454" data-name="Trazado 67454" d="M1155.475,413.587l-.48-.627c-1.463,1.119-2.914,2.3-4.314,3.5l.514.6C1152.585,415.865,1154.025,414.7,1155.475,413.587Z" transform="translate(-1117.036 -393.153)" fill="#53b6b9"/>
      <path id="Trazado_67455" data-name="Trazado 67455" d="M1120.813,456.3l-.708-.351c-.816,1.651-1.6,3.345-2.314,5.037l.727.31C1119.232,459.619,1120,457.938,1120.813,456.3Z" transform="translate(-1110.136 -402.172)" fill="#53b6b9"/>
      <path id="Trazado_67456" data-name="Trazado 67456" d="M1127.555,444.186l-.663-.43c-1,1.544-1.968,3.139-2.88,4.741l.687.39C1125.6,447.3,1126.564,445.717,1127.555,444.186Z" transform="translate(-1111.441 -399.613)" fill="#53b6b9"/>
      <path id="Trazado_67457" data-name="Trazado 67457" d="M1135.656,432.932l-.61-.5c-1.17,1.419-2.315,2.894-3.405,4.383l.637.467C1133.359,435.8,1134.5,434.34,1135.656,432.932Z" transform="translate(-1113.042 -397.237)" fill="#53b6b9"/>
      <path id="Trazado_67458" data-name="Trazado 67458" d="M1179.247,399.3l-.324-.721c-1.682.756-3.366,1.572-5,2.425l.365.7C1175.909,400.859,1177.579,400.05,1179.247,399.3Z" transform="translate(-1121.911 -390.136)" fill="#53b6b9"/>
      <path id="Trazado_67459" data-name="Trazado 67459" d="M1166.939,405.755l-.406-.679c-1.584.946-3.162,1.949-4.687,2.983l.443.654C1163.8,407.688,1165.367,406.692,1166.939,405.755Z" transform="translate(-1119.378 -391.499)" fill="#53b6b9"/>
      <path id="Trazado_67460" data-name="Trazado 67460" d="M1111.748,482.508l-.77-.179c-.416,1.794-.786,3.625-1.1,5.442l.779.134C1110.968,486.1,1111.335,484.287,1111.748,482.508Z" transform="translate(-1108.476 -407.705)" fill="#53b6b9"/>
      <path id="Trazado_67461" data-name="Trazado 67461" d="M1108.913,524.19c.211,1.832.478,3.68.793,5.494l.778-.136c-.313-1.8-.578-3.633-.787-5.449Z" transform="translate(-1108.274 -416.468)" fill="#53b6b9"/>
      <path id="Trazado_67462" data-name="Trazado 67462" d="M1115.523,469.122l-.744-.267c-.621,1.734-1.2,3.51-1.72,5.279l.758.223C1114.332,472.6,1114.906,470.841,1115.523,469.122Z" transform="translate(-1109.143 -404.879)" fill="#53b6b9"/>
      <path id="Trazado_67463" data-name="Trazado 67463" d="M1108.894,510.193h-.79c0,1.847.056,3.713.162,5.548l.789-.046C1108.95,513.877,1108.9,512.026,1108.894,510.193Z" transform="translate(-1108.104 -413.551)" fill="#53b6b9"/>
      <path id="Trazado_67464" data-name="Trazado 67464" d="M1192.242,394.317l-.239-.753c-1.761.557-3.528,1.173-5.253,1.832l.281.738C1188.742,395.481,1190.5,394.87,1192.242,394.317Z" transform="translate(-1124.603 -389.084)" fill="#53b6b9"/>
      <path id="Trazado_67465" data-name="Trazado 67465" d="M1111.32,538c.42,1.795.9,3.6,1.422,5.367l.758-.225c-.519-1.752-.994-3.543-1.411-5.322Z" transform="translate(-1108.779 -419.347)" fill="#53b6b9"/>
      <path id="Trazado_67466" data-name="Trazado 67466" d="M1109.549,496.259l-.785-.089c-.208,1.829-.364,3.69-.467,5.531l.789.044C1109.188,499.919,1109.344,498.073,1109.549,496.259Z" transform="translate(-1108.145 -410.609)" fill="#53b6b9"/>
      <path id="Trazado_67467" data-name="Trazado 67467" d="M1351.3,504.069l.789-.029c-.068-1.841-.189-3.7-.362-5.539l-.786.073C1351.117,500.394,1351.238,502.243,1351.3,504.069Z" transform="translate(-1159.047 -411.098)" fill="#53b6b9"/>
      <path id="Trazado_67468" data-name="Trazado 67468" d="M1350.614,490.079c-.277-1.818-.611-3.656-.993-5.462l-.773.164c.379,1.791.711,3.614.985,5.417Z" transform="translate(-1158.607 -408.185)" fill="#53b6b9"/>
      <path id="Trazado_67469" data-name="Trazado 67469" d="M1347.542,476.379c-.486-1.779-1.031-3.565-1.619-5.31l-.749.252c.583,1.73,1.123,3.5,1.606,5.267Z" transform="translate(-1157.836 -405.343)" fill="#53b6b9"/>
      <path id="Trazado_67470" data-name="Trazado 67470" d="M1349.791,529.492c.258.051.515.1.773.164.177-1.047.341-2.1.482-3.14l-.783-.106C1350.125,527.435,1349.963,528.464,1349.791,529.492Z" transform="translate(-1158.805 -416.952)" fill="#53b6b9"/>
      <path id="Trazado_67471" data-name="Trazado 67471" d="M1351.123,518.017l.788.061c.141-1.833.231-3.7.268-5.547l-.79-.016C1351.352,514.348,1351.263,516.2,1351.123,518.017Z" transform="translate(-1159.084 -414.038)" fill="#53b6b9"/>
      <path id="Trazado_67472" data-name="Trazado 67472" d="M1336.762,450.468c-.88-1.617-1.821-3.232-2.8-4.8l-.672.417c.968,1.557,1.9,3.159,2.775,4.763Z" transform="translate(-1155.344 -400.014)" fill="#53b6b9"/>
      <path id="Trazado_67473" data-name="Trazado 67473" d="M1320.364,427.725c-1.225-1.374-2.508-2.733-3.812-4.037l-.559.559c1.294,1.294,2.566,2.642,3.781,4Z" transform="translate(-1151.715 -395.404)" fill="#53b6b9"/>
      <path id="Trazado_67474" data-name="Trazado 67474" d="M1342.9,463.112c-.691-1.715-1.44-3.43-2.226-5.1l-.714.337c.779,1.652,1.522,3.352,2.207,5.053Z" transform="translate(-1156.743 -402.605)" fill="#53b6b9"/>
      <path id="Trazado_67475" data-name="Trazado 67475" d="M1310.335,417.915c-1.375-1.226-2.8-2.429-4.247-3.574l-.491.619c1.431,1.136,2.849,2.33,4.212,3.546Z" transform="translate(-1149.534 -393.443)" fill="#53b6b9"/>
      <path id="Trazado_67476" data-name="Trazado 67476" d="M1329.213,438.623c-1.058-1.5-2.178-3-3.328-4.448l-.619.491c1.14,1.439,2.251,2.923,3.3,4.413Z" transform="translate(-1153.66 -397.604)" fill="#53b6b9"/>
      <path id="Trazado_67477" data-name="Trazado 67477" d="M1299.259,409.32c-1.507-1.062-3.063-2.093-4.625-3.065l-.417.67c1.55.964,3.093,1.987,4.586,3.04Z" transform="translate(-1147.147 -391.747)" fill="#53b6b9"/>
      <path id="Trazado_67478" data-name="Trazado 67478" d="M1300.257,608.17l.457.645c1.5-1.064,3-2.187,4.439-3.339l-.493-.617C1303.229,606,1301.747,607.114,1300.257,608.17Z" transform="translate(-1148.414 -433.41)" fill="#53b6b9"/>
      <path id="Trazado_67479" data-name="Trazado 67479" d="M1241.89,389.234c1.818.172,3.657.4,5.464.677l.119-.782c-1.822-.279-3.675-.509-5.51-.683Z" transform="translate(-1136.17 -388.011)" fill="#53b6b9"/>
      <path id="Trazado_67480" data-name="Trazado 67480" d="M1249.026,629.568l.122.781c1.828-.284,3.666-.624,5.464-1.011l-.167-.773C1252.663,628.95,1250.84,629.287,1249.026,629.568Z" transform="translate(-1137.667 -438.383)" fill="#53b6b9"/>
      <path id="Trazado_67481" data-name="Trazado 67481" d="M1115.309,551.447c.625,1.734,1.31,3.475,2.036,5.176l.727-.311c-.721-1.686-1.4-3.414-2.021-5.133Z" transform="translate(-1109.615 -422.149)" fill="#53b6b9"/>
      <path id="Trazado_67482" data-name="Trazado 67482" d="M1255.822,390.575l-.164.774c1.787.38,3.588.819,5.35,1.3l.209-.762C1259.44,391.4,1257.625,390.959,1255.822,390.575Z" transform="translate(-1139.058 -388.457)" fill="#53b6b9"/>
      <path id="Trazado_67483" data-name="Trazado 67483" d="M1221.144,631.728c1.835.135,3.7.22,5.546.251l.013-.79c-1.83-.031-3.681-.115-5.5-.25Z" transform="translate(-1131.818 -438.881)" fill="#53b6b9"/>
      <path id="Trazado_67484" data-name="Trazado 67484" d="M1227.95,387.912l.014.79c1.825-.035,3.681-.017,5.508.051l.03-.789C1231.661,387.895,1229.789,387.878,1227.95,387.912Z" transform="translate(-1133.245 -387.895)" fill="#53b6b9"/>
      <path id="Trazado_67485" data-name="Trazado 67485" d="M1288.44,615.7l.38.693c1.617-.886,3.229-1.831,4.792-2.808l-.419-.67C1291.644,613.883,1290.044,614.82,1288.44,615.7Z" transform="translate(-1145.935 -435.099)" fill="#53b6b9"/>
      <path id="Trazado_67486" data-name="Trazado 67486" d="M1282.336,399.542l-.337.715c1.646.777,3.3,1.615,4.9,2.491l.378-.694C1285.659,401.171,1284,400.326,1282.336,399.542Z" transform="translate(-1144.584 -390.338)" fill="#53b6b9"/>
      <path id="Trazado_67487" data-name="Trazado 67487" d="M1213.945,388.826l.105.783c1.808-.242,3.651-.435,5.476-.573l-.059-.788C1217.626,388.388,1215.768,388.581,1213.945,388.826Z" transform="translate(-1130.307 -387.969)" fill="#53b6b9"/>
      <path id="Trazado_67488" data-name="Trazado 67488" d="M1269.345,394.291l-.253.748c1.732.585,3.469,1.229,5.163,1.912l.3-.733C1272.843,395.529,1271.091,394.88,1269.345,394.291Z" transform="translate(-1141.876 -389.237)" fill="#53b6b9"/>
      <path id="Trazado_67489" data-name="Trazado 67489" d="M1262.655,626.475l.211.761c1.776-.491,3.563-1.041,5.309-1.634l-.254-.748C1266.189,625.442,1264.417,625.987,1262.655,626.475Z" transform="translate(-1140.526 -437.604)" fill="#53b6b9"/>
      <path id="Trazado_67490" data-name="Trazado 67490" d="M1275.852,621.829l.3.732c1.707-.693,3.418-1.446,5.084-2.238l-.339-.714C1279.241,620.4,1277.545,621.142,1275.852,621.829Z" transform="translate(-1143.294 -436.504)" fill="#53b6b9"/>
      <path id="Trazado_67491" data-name="Trazado 67491" d="M1235.149,631.079l.031.79c1.841-.073,3.706-.2,5.544-.377l-.076-.787C1238.825,630.881,1236.974,631.007,1235.149,631.079Z" transform="translate(-1134.755 -438.832)" fill="#53b6b9"/>
      <path id="Trazado_67492" data-name="Trazado 67492" d="M1136.148,587.845c1.176,1.42,2.409,2.824,3.664,4.175l.578-.538c-1.245-1.339-2.467-2.733-3.634-4.14Z" transform="translate(-1113.987 -429.735)" fill="#53b6b9"/>
      <path id="Trazado_67493" data-name="Trazado 67493" d="M1145.713,598.117c1.329,1.275,2.713,2.529,4.114,3.727l.514-.6c-1.39-1.189-2.763-2.433-4.081-3.7Z" transform="translate(-1115.994 -431.876)" fill="#53b6b9"/>
      <path id="Trazado_67494" data-name="Trazado 67494" d="M1144.455,422.118c-1.327,1.28-2.635,2.615-3.885,3.968l.58.536c1.241-1.341,2.537-2.665,3.854-3.934Z" transform="translate(-1114.915 -395.074)" fill="#53b6b9"/>
      <path id="Trazado_67495" data-name="Trazado 67495" d="M1120.837,564.361c.823,1.654,1.7,3.3,2.62,4.9l.686-.393c-.907-1.587-1.781-3.223-2.6-4.862Z" transform="translate(-1110.775 -424.84)" fill="#53b6b9"/>
      <path id="Trazado_67496" data-name="Trazado 67496" d="M1127.818,576.545c1.007,1.547,2.071,3.083,3.163,4.568l.637-.469c-1.084-1.471-2.14-3-3.138-4.53Z" transform="translate(-1112.24 -427.379)" fill="#53b6b9"/>
      <path id="Trazado_67497" data-name="Trazado 67497" d="M1156.385,607.227c1.467,1.116,2.985,2.2,4.511,3.232l.441-.655c-1.513-1.02-3.019-2.1-4.474-3.206Z" transform="translate(-1118.232 -433.774)" fill="#53b6b9"/>
      <path id="Trazado_67498" data-name="Trazado 67498" d="M1200.155,391.319l.194.767c1.769-.449,3.577-.853,5.374-1.2l-.15-.775C1203.762,390.46,1201.938,390.867,1200.155,391.319Z" transform="translate(-1127.414 -388.36)" fill="#53b6b9"/>
      <path id="Trazado_67499" data-name="Trazado 67499" d="M1193.6,626.467c1.762.554,3.559,1.063,5.342,1.512l.193-.767c-1.768-.445-3.55-.949-5.3-1.5Z" transform="translate(-1126.04 -437.785)" fill="#53b6b9"/>
      <path id="Trazado_67500" data-name="Trazado 67500" d="M1168.024,615.058c1.582.939,3.213,1.844,4.849,2.692l.364-.7c-1.623-.841-3.241-1.739-4.809-2.67Z" transform="translate(-1120.674 -435.406)" fill="#53b6b9"/>
      <path id="Trazado_67501" data-name="Trazado 67501" d="M1180.48,621.5c1.682.751,3.406,1.463,5.122,2.115l.281-.739c-1.7-.646-3.412-1.351-5.08-2.1Z" transform="translate(-1123.287 -436.749)" fill="#53b6b9"/>
      <path id="Trazado_67502" data-name="Trazado 67502" d="M1207.221,629.892c1.809.345,3.652.642,5.48.884l.1-.784c-1.813-.239-3.641-.534-5.435-.877Z" transform="translate(-1128.897 -438.498)" fill="#53b6b9"/>
    </g>
    <g id="Grupo_32261" data-name="Grupo 32261" transform="translate(1299.099 432.8)">
      <path id="Trazado_67503" data-name="Trazado 67503" d="M1373.246,495.254l.252.749a20.867,20.867,0,0,0,5.036-2.489l-.443-.655A20.012,20.012,0,0,1,1373.246,495.254Z" transform="translate(-1362.425 -463.049)" fill="#53b6b9"/>
      <path id="Trazado_67504" data-name="Trazado 67504" d="M1384.487,487.1l.6.514a20.96,20.96,0,0,0,3.053-4.718l-.715-.337A20.167,20.167,0,0,1,1384.487,487.1Z" transform="translate(-1364.784 -460.889)" fill="#53b6b9"/>
      <path id="Trazado_67505" data-name="Trazado 67505" d="M1363.966,497.2h-4.413v.79h4.413q.573,0,1.139-.03l-.042-.789Q1364.518,497.2,1363.966,497.2Z" transform="translate(-1359.553 -463.954)" fill="#53b6b9"/>
      <path id="Trazado_67506" data-name="Trazado 67506" d="M1390.537,471.187a20.367,20.367,0,0,1-.285,3.4l.779.132a21.19,21.19,0,0,0,.3-3.528v-2.051h-.79Z" transform="translate(-1365.993 -458.073)" fill="#53b6b9"/>
      <rect id="Rectángulo_6495" data-name="Rectángulo 6495" width="0.79" height="5.532" transform="translate(24.545)" fill="#53b6b9"/>
    </g>
    <g id="Grupo_32264" data-name="Grupo 32264" transform="translate(1259.076 479.814)">
      <path id="Trazado_67507" data-name="Trazado 67507" d="M1449.037,569.935c-1.046-1.172-7-2.031-13.706-1.672a58.4,58.4,0,0,0-7.834-15.154c4.017-4.284,7.807-9.222,7.131-12.049-1.373-5.739-14.663-14.731-17.159-14.873-1.6-.091-6.563,3.648-11.12,8.785a58.4,58.4,0,0,0-16.008-5.405c-.185-5.884-1-12.084-3.48-13.608-5.027-3.087-20.784-.048-22.649,1.616-1.169,1.043-2.026,6.963-1.677,13.643a58.339,58.339,0,0,0-15.614,7.466c-4.172-3.852-8.859-7.351-11.585-6.7-5.738,1.373-14.73,14.663-14.873,17.159-.084,1.486,3.142,5.885,7.727,10.159a58.378,58.378,0,0,0-6.109,17.044c-5.309.288-10.473,1.168-11.846,3.405-3.087,5.027-.048,20.784,1.617,22.649.937,1.05,5.817,1.85,11.647,1.747a58.36,58.36,0,0,0,8.2,16.949c-3.313,3.784-6.014,7.757-5.435,10.18,1.373,5.739,14.663,14.731,17.159,14.873,1.373.078,5.239-2.677,9.192-6.715a58.38,58.38,0,0,0,18.064,5.946c.335,5,1.235,9.7,3.352,11,5.028,3.087,20.784.048,22.649-1.617,1.053-.94,1.854-5.841,1.746-11.69a58.418,58.418,0,0,0,16.433-8.612c3.934,3.517,8.163,6.5,10.7,5.891,5.739-1.373,14.731-14.663,14.873-17.158.085-1.493-3.175-5.929-7.8-10.223a58.31,58.31,0,0,0,5.238-16.935c5.627-.234,11.332-1.082,12.786-3.45C1453.741,587.557,1450.7,571.8,1449.037,569.935Zm-67.388,43.623a26.264,26.264,0,1,1,24.328-28.068A26.265,26.265,0,0,1,1381.65,613.558Z" transform="translate(-1308.905 -514.63)" fill="#54b6b8"/>
      <g id="Grupo_32262" data-name="Grupo 32262" transform="translate(33.095 34.19)">
        <path id="Trazado_67508" data-name="Trazado 67508" d="M1391.433,633.69a37.944,37.944,0,1,1,35.147-40.549A37.987,37.987,0,0,1,1391.433,633.69Zm-5.284-74.036a36.28,36.28,0,1,0,38.771,33.6A36.321,36.321,0,0,0,1386.149,559.654Z" transform="translate(-1350.787 -557.897)" fill="#fff"/>
      </g>
      <g id="Grupo_32263" data-name="Grupo 32263" transform="translate(26.717 18.661)">
        <path id="Trazado_67509" data-name="Trazado 67509" d="M1439.179,587.476c-.248-.01-.5-.024-.743-.047a53.574,53.574,0,0,1-95,46.36l-.005,0c-.236.07-.475.13-.715.185a54.27,54.27,0,0,0,96.465-46.5Z" transform="translate(-1342.715 -548.563)" fill="#fff"/>
        <path id="Trazado_67510" data-name="Trazado 67510" d="M1353.6,552.493a53.308,53.308,0,0,1,31.882-13.531c.241-.017.479-.02.72-.033-.1-.224-.192-.454-.283-.684-.163.01-.324.01-.487.022a54,54,0,0,0-32.19,13.611C1353.366,552.08,1353.485,552.286,1353.6,552.493Z" transform="translate(-1344.923 -538.245)" fill="#fff"/>
      </g>
    </g>
    <g id="Grupo_32267" data-name="Grupo 32267" transform="translate(1111.882 389.702)">
      <path id="Trazado_67511" data-name="Trazado 67511" d="M1291.765,472.759c-1.151-1.491-8.2-3.027-16.248-3.17a70.017,70.017,0,0,0-8.074-18.789c5.17-4.78,10.122-10.361,9.555-13.8-1.151-6.979-16.276-18.867-19.249-19.249-1.9-.245-8.159,3.8-14.047,9.556a70,70,0,0,0-18.682-7.83c.281-7.051-.159-14.535-3-16.57-5.749-4.121-24.85-1.832-27.222,0-1.486,1.147-3.017,8.153-3.169,16.171a69.928,69.928,0,0,0-19.309,7.595c-4.66-4.963-9.966-9.546-13.281-9-6.979,1.151-18.867,16.276-19.25,19.249-.228,1.768,3.255,7.3,8.372,12.807a70,70,0,0,0-8.76,19.861c-6.374-.108-12.623.5-14.456,3.061-4.12,5.748-1.831,24.849,0,27.222,1.032,1.336,6.8,2.709,13.778,3.083a70,70,0,0,0,8.357,20.968c-4.284,4.241-7.854,8.762-7.368,11.709,1.151,6.979,16.277,18.867,19.249,19.25,1.636.21,6.492-2.754,11.564-7.246a69.968,69.968,0,0,0,21.094,8.652c-.026,6.01.649,11.7,3.07,13.438,5.749,4.121,24.85,1.832,27.222,0,1.339-1.034,2.715-6.827,3.085-13.83A70.024,70.024,0,0,0,1245.383,547c4.4,4.541,9.208,8.466,12.289,7.958,6.979-1.151,18.867-16.277,19.249-19.249.228-1.778-3.291-7.361-8.449-12.889a69.892,69.892,0,0,0,7.708-19.8c6.75.2,13.644-.326,15.585-3.034C1295.886,494.232,1293.6,475.131,1291.765,472.759Zm-84.306,46.411a31.487,31.487,0,1,1,31.487-31.486A31.486,31.486,0,0,1,1207.459,519.17Z" transform="translate(-1122.636 -400.596)" fill="#a4d1bc"/>
      <g id="Grupo_32265" data-name="Grupo 32265" transform="translate(39.584 40.902)">
        <path id="Trazado_67512" data-name="Trazado 67512" d="M1218.218,543.335a45.489,45.489,0,1,1,45.489-45.489A45.541,45.541,0,0,1,1218.218,543.335Zm0-88.983a43.494,43.494,0,1,0,43.494,43.494A43.543,43.543,0,0,0,1218.218,454.352Z" transform="translate(-1172.729 -452.357)" fill="#fff"/>
      </g>
      <g id="Grupo_32266" data-name="Grupo 32266" transform="translate(29.345 22.147)">
        <path id="Trazado_67513" data-name="Trazado 67513" d="M1279.093,493.486c-.3-.033-.591-.072-.884-.119a64.227,64.227,0,0,1-117.56,47.329l-.007,0c-.288.063-.578.115-.871.16a65.061,65.061,0,0,0,119.322-47.371Z" transform="translate(-1159.771 -442.205)" fill="#fff"/>
        <path id="Trazado_67514" data-name="Trazado 67514" d="M1180.488,442.917a63.9,63.9,0,0,1,39.279-13.46c.29,0,.575.018.864.021-.1-.277-.19-.559-.28-.842-.2,0-.388-.014-.584-.014a64.734,64.734,0,0,0-39.654,13.529C1180.243,442.4,1180.368,442.66,1180.488,442.917Z" transform="translate(-1164.038 -428.623)" fill="#fff"/>
      </g>
    </g>
    <g id="Grupo_32274" data-name="Grupo 32274" transform="translate(1292.688 348.665)">
      <g id="Grupo_32273" data-name="Grupo 32273">
        <g id="Grupo_32269" data-name="Grupo 32269" transform="translate(9.837 21.652)">
          <path id="Trazado_67515" data-name="Trazado 67515" d="M1376.736,429l17.46.426a31.262,31.262,0,0,1-.552-9.411,5.2,5.2,0,0,1,2.551-3.654c17.428-10.187,13.6-22.532,13.6-22.532s-1.4-15.57-23.349-17.609c-23.4-2.175-22.508,18.7-22.508,18.7s-1.353,11.567,10.619,19.737a7.034,7.034,0,0,1,2.967,5.15A25.112,25.112,0,0,1,1376.736,429Z" transform="translate(-1363.889 -376.065)" fill="#f99200"/>
          <path id="Trazado_67516" data-name="Trazado 67516" d="M1397.573,443.431l-.153,6.254c-.058,2.344-1.635,4.224-3.506,4.178l-10.632-.259c-1.871-.046-3.355-2-3.3-4.344l.152-6.254Z" transform="translate(-1367.265 -390.108)" fill="#53b6b9"/>
          <path id="Trazado_67517" data-name="Trazado 67517" d="M1393.764,456.651l-1.272,2.828-6.612-.161-1.376-2.893Z" transform="translate(-1368.214 -392.923)" fill="#0f787a"/>
          <g id="Grupo_32268" data-name="Grupo 32268" transform="translate(14.246 19.917)">
            <path id="Trazado_67518" data-name="Trazado 67518" d="M1398.753,406.929c2.775-4.878-3.693-7.489-6.864-4.179a3.452,3.452,0,0,0-.883,2.254c-.065,1.467-.1,3.755-.1,3.755a26.033,26.033,0,0,1-2.722-.7,12.266,12.266,0,0,0-.287-4.112c-1.686-5.464-8.75-1.445-4.793,2.528a10.211,10.211,0,0,0,3.8,2.171q-.2,12.85-.409,25.7l1.193.029.251-15.8q.065-4.1.13-8.2c.007-.429.031-.886.058-1.352a20.376,20.376,0,0,0,2.617.537l-.607,24.869,1.193.029.6-24.774c.24.017.488.039.712.044C1394.918,409.782,1397.557,409.03,1398.753,406.929Zm-11.811.712c-1.668-.6-4.017-1.8-4.2-3.48a1.29,1.29,0,0,1,.461-1.094c3.019-2.572,3.765,2.221,3.735,2.819A14.781,14.781,0,0,1,1386.942,407.641Zm10.8-.939a5.874,5.874,0,0,1-5.781,2.228l.093-3.809a2.638,2.638,0,0,1,.825-1.866,3.72,3.72,0,0,1,4.5-.712C1398.6,403.351,1398.69,405.366,1397.738,406.7Z" transform="translate(-1381.917 -401.269)" fill="#fff"/>
          </g>
        </g>
        <g id="Grupo_32270" data-name="Grupo 32270" transform="translate(0 6.384)">
          <path id="Trazado_67519" data-name="Trazado 67519" d="M1361.6,367.366a.922.922,0,0,0,.031-1.305l-8.6-9.031a.923.923,0,0,0-1.337,1.274l8.6,9.031A.923.923,0,0,0,1361.6,367.366Z" transform="translate(-1351.441 -356.743)" fill="#ffc630"/>
        </g>
        <g id="Grupo_32271" data-name="Grupo 32271" transform="translate(48.821 7.795)">
          <path id="Trazado_67520" data-name="Trazado 67520" d="M1413.477,368.69a.923.923,0,0,1,.031-1.306l9.031-8.6a.924.924,0,1,1,1.275,1.338l-9.031,8.6A.923.923,0,0,1,1413.477,368.69Z" transform="translate(-1413.222 -358.529)" fill="#ffc630"/>
        </g>
        <g id="Grupo_32272" data-name="Grupo 32272" transform="translate(31.586)">
          <path id="Trazado_67521" data-name="Trazado 67521" d="M1392.314,362.979a.923.923,0,0,0,.946-.9l.3-12.466a.924.924,0,1,0-1.847-.045l-.3,12.466A.923.923,0,0,0,1392.314,362.979Z" transform="translate(-1391.413 -348.665)" fill="#ffc630"/>
        </g>
      </g>
    </g>
    <g id="Grupo_32281" data-name="Grupo 32281" transform="translate(1430.036 418.372)">
      <g id="Grupo_32275" data-name="Grupo 32275">
        <path id="Trazado_67522" data-name="Trazado 67522" d="M1550.722,443.841l3.219,5.931-6.479-1.322-22.211-6.428Z" transform="translate(-1525.25 -437.956)" fill="#a4d1bb"/>
        <path id="Trazado_67523" data-name="Trazado 67523" d="M1558.647,451.337l-10.961-.44,2.648-1.413Z" transform="translate(-1529.957 -439.522)" fill="#53b6b9"/>
        <path id="Trazado_67524" data-name="Trazado 67524" d="M1550.722,442.761l1.768-5.884-27.24,4.066Z" transform="translate(-1525.25 -436.877)" fill="url(#linear-gradient)"/>
        <path id="Trazado_67525" data-name="Trazado 67525" d="M1525.25,442.022l22.211,6.428-3.073,8.493Z" transform="translate(-1525.25 -437.956)" fill="url(#linear-gradient-2)"/>
      </g>
      <g id="Grupo_32280" data-name="Grupo 32280" transform="translate(3.936 15.488)">
        <g id="Grupo_32276" data-name="Grupo 32276" transform="translate(19.604)">
          <path id="Trazado_67526" data-name="Trazado 67526" d="M1557.925,458.892a.508.508,0,0,0,.084-.844,14.5,14.5,0,0,0-2.205-1.505.512.512,0,1,0-.5.894,13.521,13.521,0,0,1,2.048,1.4A.516.516,0,0,0,1557.925,458.892Z" transform="translate(-1555.039 -456.477)" fill="#53b6b9"/>
        </g>
        <g id="Grupo_32278" data-name="Grupo 32278" transform="translate(0 3.675)">
          <g id="Grupo_32277" data-name="Grupo 32277">
            <path id="Trazado_67527" data-name="Trazado 67527" d="M1546.121,515.972a.509.509,0,0,1,.164-.7,14.4,14.4,0,0,0,3.693-3.336.518.518,0,0,1,.723-.084.511.511,0,0,1,.087.719,15.4,15.4,0,0,1-3.958,3.57l-.028.017A.518.518,0,0,1,1546.121,515.972Zm5.722-5.865a.51.51,0,0,1-.211-.693,18.2,18.2,0,0,0,1.75-4.7.515.515,0,0,1,1.006.224,19.209,19.209,0,0,1-1.849,4.961.5.5,0,0,1-.208.208A.519.519,0,0,1,1551.843,510.107Zm2.425-7.839a.517.517,0,0,1-.491-.537l.009-.232a23.513,23.513,0,0,0-.374-4.8.508.508,0,0,1,.416-.592.516.516,0,0,1,.6.416,24.591,24.591,0,0,1,.39,5.014l-.009.247a.511.511,0,0,1-.271.426A.52.52,0,0,1,1554.268,502.268Zm-.921-8.187a.518.518,0,0,1-.639-.35,37.335,37.335,0,0,0-1.792-4.782.513.513,0,0,1,.939-.416,38.031,38.031,0,0,1,1.841,4.914.509.509,0,0,1-.249.593A.567.567,0,0,1,1553.347,494.081Zm-3.089-7.68a.519.519,0,0,1-.7-.219q-.1-.191-.2-.382a17.422,17.422,0,0,1-1.651.588.518.518,0,0,1-.643-.343.508.508,0,0,1,.343-.638q.741-.222,1.456-.514c-.56-1.006-1.176-2.051-1.87-3.176a.509.509,0,0,1,.169-.7.519.519,0,0,1,.708.171c.72,1.165,1.356,2.247,1.935,3.29a15.631,15.631,0,0,0,2.114-1.235.515.515,0,0,1,.717.126.509.509,0,0,1-.124.713,16.749,16.749,0,0,1-2.216,1.3c.059.111.118.221.176.333a.509.509,0,0,1-.212.687Zm3.958-4.394a.509.509,0,0,1-.028-.723,12.793,12.793,0,0,0,2.628-4.19.515.515,0,0,1,.962.368,13.789,13.789,0,0,1-2.834,4.519.511.511,0,0,1-.133.1A.518.518,0,0,1,1554.216,482.006Zm-9.652,5.016a16.193,16.193,0,0,1-5.341-.3.512.512,0,1,1,.228-1,15.144,15.144,0,0,0,5,.279.516.516,0,0,1,.568.454.511.511,0,0,1-.455.563ZM1558,474.79a.515.515,0,0,1-.433-.583,15.458,15.458,0,0,0-.078-4.985.509.509,0,0,1,.418-.591.516.516,0,0,1,.6.417,16.48,16.48,0,0,1,.083,5.313.509.509,0,0,1-.265.374A.514.514,0,0,1,1558,474.79Zm-21.833,10.87a13.515,13.515,0,0,1-1.226-.669,11.021,11.021,0,0,1-2.979-2.7.509.509,0,0,1,.1-.717.518.518,0,0,1,.721.1,10,10,0,0,0,2.7,2.447,12.706,12.706,0,0,0,1.133.618.511.511,0,0,1,.023.912A.517.517,0,0,1,1536.172,485.66Zm9.153-6.541a19.105,19.105,0,0,0-3.278-3.831.51.51,0,0,1-.056-.722.519.519,0,0,1,.726-.053,20.086,20.086,0,0,1,3.46,4.033.51.51,0,0,1-.136.711l-.046.027A.518.518,0,0,1,1545.325,479.12Zm12.04-12.5a.518.518,0,0,1-.662-.3,16.38,16.38,0,0,0-.948-2.082,15.67,15.67,0,0,0-1.505-2.279.509.509,0,0,1,.084-.718.514.514,0,0,1,.723.085,16.681,16.681,0,0,1,1.6,2.428,17.423,17.423,0,0,1,1.007,2.213.509.509,0,0,1-.237.627A.718.718,0,0,1,1557.365,466.622Zm-26.263,13.1a.517.517,0,0,1-.633-.359,5.649,5.649,0,0,1,.318-4.09,5.164,5.164,0,0,1,.849-1.222.514.514,0,0,1,.756.7,4.135,4.135,0,0,0-.682.981,4.592,4.592,0,0,0-.25,3.364.509.509,0,0,1-.25.586A.5.5,0,0,1,1531.1,479.724Zm8.458-6.031a7.413,7.413,0,0,0-4.752-.341.517.517,0,0,1-.635-.357.512.512,0,0,1,.356-.63,8.363,8.363,0,0,1,5.438.39.512.512,0,0,1,.269.673.506.506,0,0,1-.228.247A.515.515,0,0,1,1539.56,473.693Z" transform="translate(-1530.231 -461.128)" fill="#53b6b9"/>
          </g>
        </g>
        <g id="Grupo_32279" data-name="Grupo 32279" transform="translate(10.416 59.051)">
          <path id="Trazado_67528" data-name="Trazado 67528" d="M1546.695,532.166a.509.509,0,0,0,.247-.6.519.519,0,0,0-.646-.339,11.049,11.049,0,0,1-2.409.458.51.51,0,0,0-.473.548.517.517,0,0,0,.555.472,12.143,12.143,0,0,0,2.635-.5A.522.522,0,0,0,1546.695,532.166Z" transform="translate(-1543.412 -531.204)" fill="#53b6b9"/>
        </g>
      </g>
    </g>
    <g id="Grupo_32302" data-name="Grupo 32302" transform="translate(1351.854 510.486)">
      <g id="Grupo_32291" data-name="Grupo 32291" transform="translate(46.461)">
        <g id="Grupo_32282" data-name="Grupo 32282" transform="translate(31.552)">
          <path id="Trazado_67529" data-name="Trazado 67529" d="M1572.993,691.728l-44.482-138.283h-3.475l44.482,138.283Z" transform="translate(-1525.036 -553.444)" fill="#0f787a"/>
        </g>
        <g id="Grupo_32283" data-name="Grupo 32283">
          <path id="Trazado_67530" data-name="Trazado 67530" d="M1533.065,691.728l-44.482-138.283h-3.475l44.482,138.283Z" transform="translate(-1485.108 -553.444)" fill="#0f787a"/>
        </g>
        <g id="Grupo_32284" data-name="Grupo 32284" transform="translate(17.583 49.245)">
          <path id="Trazado_67531" data-name="Trazado 67531" d="M1540.612,615.78v2.828l-32.694-.018-.559-2.828Z" transform="translate(-1507.359 -615.762)" fill="#0f787a"/>
        </g>
        <g id="Grupo_32285" data-name="Grupo 32285" transform="translate(10.824 30.864)">
          <path id="Trazado_67532" data-name="Trazado 67532" d="M1532.058,592.52v2.828l-32.694-.018-.559-2.828Z" transform="translate(-1498.805 -592.502)" fill="#0f787a"/>
        </g>
        <g id="Grupo_32286" data-name="Grupo 32286" transform="translate(5.235 12.483)">
          <path id="Trazado_67533" data-name="Trazado 67533" d="M1524.986,569.259v2.828l-32.694-.018-.559-2.828Z" transform="translate(-1491.733 -569.241)" fill="#0f787a"/>
        </g>
        <g id="Grupo_32287" data-name="Grupo 32287" transform="translate(23.538 67.862)">
          <path id="Trazado_67534" data-name="Trazado 67534" d="M1548.148,639.34v2.828l-32.694-.018-.559-2.828Z" transform="translate(-1514.895 -639.322)" fill="#0f787a"/>
        </g>
        <g id="Grupo_32288" data-name="Grupo 32288" transform="translate(29.127 86.479)">
          <path id="Trazado_67535" data-name="Trazado 67535" d="M1555.221,662.9v2.828l-32.695-.018-.559-2.828Z" transform="translate(-1521.968 -662.881)" fill="#0f787a"/>
        </g>
        <g id="Grupo_32289" data-name="Grupo 32289" transform="translate(36.23 105.821)">
          <path id="Trazado_67536" data-name="Trazado 67536" d="M1562.888,687.375l1.321,2.829-32.694-.018-.558-2.828Z" transform="translate(-1530.956 -687.358)" fill="#0f787a"/>
        </g>
        <g id="Grupo_32290" data-name="Grupo 32290" transform="translate(42.359 125.163)">
          <path id="Trazado_67537" data-name="Trazado 67537" d="M1570.645,711.852l1.321,2.829-32.694-.018-.559-2.828Z" transform="translate(-1538.713 -711.835)" fill="#0f787a"/>
        </g>
      </g>
      <g id="Grupo_32301" data-name="Grupo 32301">
        <g id="Grupo_32292" data-name="Grupo 32292">
          <path id="Trazado_67538" data-name="Trazado 67538" d="M1429.789,691.728l44.482-138.283H1470.8l-44.482,138.283Z" transform="translate(-1426.314 -553.444)" fill="#002f4c"/>
        </g>
        <g id="Grupo_32293" data-name="Grupo 32293" transform="translate(31.552)">
          <path id="Trazado_67539" data-name="Trazado 67539" d="M1469.717,691.728,1514.2,553.444h-3.475l-44.482,138.283Z" transform="translate(-1466.242 -553.444)" fill="#002f4c"/>
        </g>
        <g id="Grupo_32294" data-name="Grupo 32294" transform="translate(28.673 49.245)">
          <path id="Trazado_67540" data-name="Trazado 67540" d="M1462.6,615.78v2.828l32.694-.018.559-2.828Z" transform="translate(-1462.598 -615.762)" fill="#002f4c"/>
        </g>
        <g id="Grupo_32295" data-name="Grupo 32295" transform="translate(35.432 30.864)">
          <path id="Trazado_67541" data-name="Trazado 67541" d="M1471.152,592.52v2.828l32.694-.018.559-2.828Z" transform="translate(-1471.152 -592.502)" fill="#002f4c"/>
        </g>
        <g id="Grupo_32296" data-name="Grupo 32296" transform="translate(41.021 12.483)">
          <path id="Trazado_67542" data-name="Trazado 67542" d="M1478.224,569.259v2.828l32.694-.018.559-2.828Z" transform="translate(-1478.224 -569.241)" fill="#002f4c"/>
        </g>
        <g id="Grupo_32297" data-name="Grupo 32297" transform="translate(22.718 67.862)">
          <path id="Trazado_67543" data-name="Trazado 67543" d="M1455.062,639.34v2.828l32.694-.018.559-2.828Z" transform="translate(-1455.062 -639.322)" fill="#002f4c"/>
        </g>
        <g id="Grupo_32298" data-name="Grupo 32298" transform="translate(17.129 86.479)">
          <path id="Trazado_67544" data-name="Trazado 67544" d="M1447.99,662.9v2.828l32.694-.018.559-2.828Z" transform="translate(-1447.99 -662.881)" fill="#002f4c"/>
        </g>
        <g id="Grupo_32299" data-name="Grupo 32299" transform="translate(10.026 105.821)">
          <path id="Trazado_67545" data-name="Trazado 67545" d="M1440.323,687.375,1439,690.2l32.694-.018.559-2.828Z" transform="translate(-1439.002 -687.358)" fill="#002f4c"/>
        </g>
        <g id="Grupo_32300" data-name="Grupo 32300" transform="translate(3.897 125.163)">
          <path id="Trazado_67546" data-name="Trazado 67546" d="M1432.566,711.852l-1.321,2.829,32.694-.018.559-2.828Z" transform="translate(-1431.245 -711.835)" fill="#002f4c"/>
        </g>
      </g>
    </g>
    <g id="Grupo_32309" data-name="Grupo 32309" transform="translate(1361.734 404.437)">
      <g id="Grupo_32308" data-name="Grupo 32308" transform="translate(3.157)">
        <path id="Trazado_67547" data-name="Trazado 67547" d="M1472.148,479.249s11.857-7.781,14.734-11.641,4.617-22.822-.994-12.47-15.87,22.453-15.87,22.453Z" transform="translate(-1448.519 -426.132)" fill="#f18c72"/>
        <path id="Trazado_67548" data-name="Trazado 67548" d="M1471.771,486.021v2.254a4.374,4.374,0,0,1-.592,2.2l-1.539,2.65-1.421-7.7,1.421-1.065Z" transform="translate(-1448.142 -432.904)" fill="#f18c72"/>
        <g id="Grupo_32304" data-name="Grupo 32304" transform="translate(26.405)">
          <path id="Trazado_67549" data-name="Trazado 67549" d="M1489.42,434.875l1.817,4.906,5.1-2.258-4.557-6.752Z" transform="translate(-1478.995 -421.661)" fill="#f18c72"/>
          <g id="Grupo_32303" data-name="Grupo 32303" transform="translate(3.549 3.601)">
            <path id="Trazado_67550" data-name="Trazado 67550" d="M1486.476,435.021a2.8,2.8,0,0,1-1.566.356c-2.875-1.617-4.191-9.133-4.191-9.133l2.128-2.444,4.45.454,2.356,4.313a3.988,3.988,0,0,1-.03,3.787h0A7.784,7.784,0,0,1,1486.476,435.021Z" transform="translate(-1480.719 -423.8)" fill="#f7a57a"/>
          </g>
          <path id="Trazado_67551" data-name="Trazado 67551" d="M1487.043,426.059c-.55-.649-1.29-2.405-1.984-1.912-.506.36-2.352,1.362-2.986,1.674-1.512.741-4.5,1.471-5.624-.829a3.3,3.3,0,0,1,2.8-4.429c1.949-.235,4.786-.034,5.58-.642,1.335-1.024,3.238-.88,3.835.388a14.025,14.025,0,0,1,.9,5.329,7.852,7.852,0,0,1-.541,2.715h0Z" transform="translate(-1476.227 -419.243)" fill="#122043"/>
          <path id="Trazado_67552" data-name="Trazado 67552" d="M1491.568,427.121a1.267,1.267,0,0,0-1.347.816c-.261.583-.081,1.163.4,1.3a1.266,1.266,0,0,0,1.347-.816C1492.23,427.833,1492.051,427.253,1491.568,427.121Z" transform="translate(-1479.138 -420.89)" fill="#f7a57a"/>
        </g>
        <path id="Trazado_67553" data-name="Trazado 67553" d="M1442.812,496.816l.947.517v-.517Z" transform="translate(-1442.812 -435.516)" fill="#0f787a"/>
        <path id="Trazado_67554" data-name="Trazado 67554" d="M1456.267,498.253a22.123,22.123,0,0,0-12.508-1.631c-.107-.5-.948-.517-.948-.517l9.949-2.676Z" transform="translate(-1442.812 -434.806)" fill="#122043"/>
        <g id="Grupo_32305" data-name="Grupo 32305" transform="translate(7.056 46.514)">
          <path id="Trazado_67555" data-name="Trazado 67555" d="M1452.438,488.3c-.028-.058-2.761-5.783,2.793-9.272s9.889,4.01,9.932,4.087l-.77.54c-.157-.277-3.927-6.752-8.715-3.746a6.041,6.041,0,0,0-2.443,7.907Z" transform="translate(-1451.741 -478.106)" fill="#122043"/>
        </g>
        <path id="Trazado_67556" data-name="Trazado 67556" d="M1497.125,437.844c10.446,6.3,7.989,34.88,7.989,34.88h-17.387s-2.341-22.467,2.959-33.009A4.6,4.6,0,0,1,1497.125,437.844Z" transform="translate(-1452.126 -423.01)" fill="#54b6b8"/>
        <path id="Trazado_67557" data-name="Trazado 67557" d="M1467.719,492.724l-1.933-7.879a1.408,1.408,0,0,0-1.878-.978l-10.382,4.032a1.722,1.722,0,0,0-.686,2.724l5.437,6.363a12.034,12.034,0,0,0,5.621-1.162C1466.919,494.421,1467.719,492.724,1467.719,492.724Z" transform="translate(-1444.829 -432.78)" fill="#122043"/>
        <g id="Grupo_32306" data-name="Grupo 32306" transform="translate(54.316 110.335)">
          <path id="Trazado_67558" data-name="Trazado 67558" d="M1518.73,563.3s-.013,3.033-6.105,4.854c-1.25.373-.844.743-1.078,1.268h7.011l2.745-3.086.854.733,1.979-1.945s-.925-2.815-2.432-2.839Z" transform="translate(-1511.547 -559.586)" fill="#122043"/>
          <path id="Trazado_67559" data-name="Trazado 67559" d="M1519.2,559.957l1.139,2.627h0a2.749,2.749,0,0,0,2.85-.865l.126-.149-.921-2.7Z" transform="translate(-1513.152 -558.869)" fill="#f7a57a"/>
        </g>
        <path id="Trazado_67560" data-name="Trazado 67560" d="M1499.345,516.544c0,.329,15.536,30.09,15.536,30.09l2.943-1.666s-5.142-23.926-10.938-33.818a11.97,11.97,0,0,1-1.573-4.808c-1.028-9.858-1.724-13.738-1.724-13.738l-6.156,22.374Z" transform="translate(-1454.27 -434.632)" fill="#122043"/>
        <path id="Trazado_67561" data-name="Trazado 67561" d="M1486.262,460.172s-3.64,5.841-7.9,8.681-19.887,4.1-19.887,4.1l-2.113,2.384a1.254,1.254,0,0,1-1.376.344l-.448-.167a1.813,1.813,0,0,1-.844-2.752l.92-1.291a2.117,2.117,0,0,1,1.482-.873l4.273-.486s11.522-3.456,14.206-6.227,6.292-11.139,6.292-11.139Z" transform="translate(-1445.023 -426.272)" fill="#f7a57a"/>
        <g id="Grupo_32307" data-name="Grupo 32307" transform="translate(30.667 112.401)">
          <path id="Trazado_67562" data-name="Trazado 67562" d="M1490.069,565.094a15.609,15.609,0,0,1-6.41,2.948c-.981.25-2.039-.084-2.039,1.535h5.407l4.5-.778v.778h2.429s.676-3.972-.743-4.482Z" transform="translate(-1481.62 -562.24)" fill="#122043"/>
          <path id="Trazado_67563" data-name="Trazado 67563" d="M1492.79,561.483l-.478,2.854h0a2.748,2.748,0,0,0,2.976.1l.167-.1-.242-2.854Z" transform="translate(-1483.863 -561.483)" fill="#f7a57a"/>
        </g>
        <path id="Trazado_67564" data-name="Trazado 67564" d="M1487.864,482.154l3.773,63.305h3.078s5.9-15.714,3.8-28.1a15.584,15.584,0,0,1,1.027-8.873c5.434-12.415,5.712-26.33,5.712-26.33Z" transform="translate(-1452.263 -432.44)" fill="#002f4c"/>
      </g>
      <path id="Trazado_67565" data-name="Trazado 67565" d="M1441.835,499.235s-3.514,7.455-2.958,11.821c.391,3.066,1.76,3.878,2.811,4.14a2.61,2.61,0,0,0,2.765-1.109C1447.332,509.792,1441.835,499.235,1441.835,499.235Z" transform="translate(-1438.817 -436.024)" fill="url(#linear-gradient-3)"/>
    </g>
    <g id="Grupo_32327" data-name="Grupo 32327" transform="translate(1071.373 557.713)">
      <g id="Grupo_32326" data-name="Grupo 32326" transform="translate(0 2.014)">
        <g id="Grupo_32317" data-name="Grupo 32317">
          <g id="Grupo_32310" data-name="Grupo 32310">
            <path id="Trazado_67566" data-name="Trazado 67566" d="M1098.393,615.757l-27.019,90.54h3.118l27.019-90.54Z" transform="translate(-1071.373 -615.757)" fill="#0f787a"/>
          </g>
          <g id="Grupo_32311" data-name="Grupo 32311" transform="translate(28.307)">
            <path id="Trazado_67567" data-name="Trazado 67567" d="M1134.214,615.757l-27.019,90.54h3.118l27.019-90.54Z" transform="translate(-1107.195 -615.757)" fill="#0f787a"/>
          </g>
          <g id="Grupo_32312" data-name="Grupo 32312" transform="translate(27.154)">
            <path id="Trazado_67568" data-name="Trazado 67568" d="M1105.735,615.757v2.5l29.332-.018.455-2.482Z" transform="translate(-1105.735 -615.757)" fill="#0f787a"/>
          </g>
          <g id="Grupo_32313" data-name="Grupo 32313" transform="translate(22.139 17.75)">
            <path id="Trazado_67569" data-name="Trazado 67569" d="M1099.39,638.237v2.735l29.332-.018.5-2.735Z" transform="translate(-1099.39 -638.219)" fill="#0f787a"/>
          </g>
          <g id="Grupo_32314" data-name="Grupo 32314" transform="translate(15.767 36.455)">
            <path id="Trazado_67570" data-name="Trazado 67570" d="M1092.512,661.907l-1.185,2.736,29.332-.018.5-2.735Z" transform="translate(-1091.327 -661.89)" fill="#0f787a"/>
          </g>
          <g id="Grupo_32315" data-name="Grupo 32315" transform="translate(10.268 55.159)">
            <path id="Trazado_67571" data-name="Trazado 67571" d="M1085.552,685.577l-1.185,2.736,29.331-.018.5-2.735Z" transform="translate(-1084.367 -685.56)" fill="#0f787a"/>
          </g>
          <g id="Grupo_32316" data-name="Grupo 32316" transform="translate(5.118 73.447)">
            <path id="Trazado_67572" data-name="Trazado 67572" d="M1079.035,708.72l-1.185,2.736,29.332-.018.5-2.735Z" transform="translate(-1077.85 -708.703)" fill="#0f787a"/>
          </g>
        </g>
        <g id="Grupo_32325" data-name="Grupo 32325" transform="translate(124.798)">
          <g id="Grupo_32318" data-name="Grupo 32318" transform="translate(28.307)">
            <path id="Trazado_67573" data-name="Trazado 67573" d="M1265.123,615.757l27.019,90.54h3.118l-27.019-90.54Z" transform="translate(-1265.123 -615.757)" fill="#002f4c"/>
          </g>
          <g id="Grupo_32319" data-name="Grupo 32319">
            <path id="Trazado_67574" data-name="Trazado 67574" d="M1229.3,615.757l27.019,90.54h3.118l-27.019-90.54Z" transform="translate(-1229.302 -615.757)" fill="#002f4c"/>
          </g>
          <g id="Grupo_32320" data-name="Grupo 32320" transform="translate(1.504)">
            <path id="Trazado_67575" data-name="Trazado 67575" d="M1231.2,615.757l.455,2.482,29.332.018v-2.5Z" transform="translate(-1231.205 -615.757)" fill="#002f4c"/>
          </g>
          <g id="Grupo_32321" data-name="Grupo 32321" transform="translate(6.472 17.75)">
            <path id="Trazado_67576" data-name="Trazado 67576" d="M1267.324,638.237v2.735l-29.332-.018-.5-2.735Z" transform="translate(-1237.491 -638.219)" fill="#002f4c"/>
          </g>
          <g id="Grupo_32322" data-name="Grupo 32322" transform="translate(12.844 36.455)">
            <path id="Trazado_67577" data-name="Trazado 67577" d="M1274.2,661.907l1.185,2.736-29.332-.018-.5-2.735Z" transform="translate(-1245.555 -661.89)" fill="#002f4c"/>
          </g>
          <g id="Grupo_32323" data-name="Grupo 32323" transform="translate(18.343 55.159)">
            <path id="Trazado_67578" data-name="Trazado 67578" d="M1281.162,685.577l1.185,2.736-29.332-.018-.5-2.735Z" transform="translate(-1252.514 -685.56)" fill="#002f4c"/>
          </g>
          <g id="Grupo_32324" data-name="Grupo 32324" transform="translate(23.493 73.447)">
            <path id="Trazado_67579" data-name="Trazado 67579" d="M1287.679,708.72l1.185,2.736-29.332-.018-.5-2.735Z" transform="translate(-1259.031 -708.703)" fill="#002f4c"/>
          </g>
        </g>
      </g>
      <rect id="Rectángulo_6496" data-name="Rectángulo 6496" width="143.124" height="4.513" transform="translate(21.62 0)" fill="#002f4c"/>
    </g>
    <g id="Grupo_32334" data-name="Grupo 32334" transform="translate(1098.114 431.179)">
      <path id="Trazado_67580" data-name="Trazado 67580" d="M1122.2,605.767a2.523,2.523,0,0,0-.879,2.076c.2,1.163.477,3.888.477,3.888h1.106l-.034-2.541c0-.166,2.373,2.541,2.774,2.541h5.856s.389-1.714-3.05-2.265S1122.2,605.767,1122.2,605.767Z" transform="translate(-1108.587 -485.114)" fill="#002f4c"/>
      <g id="Grupo_32328" data-name="Grupo 32328" transform="translate(0 117.797)">
        <path id="Trazado_67581" data-name="Trazado 67581" d="M1111.142,603.072l-.156,2.424a2.264,2.264,0,0,0,.4,1.435,9.087,9.087,0,0,0,1.761,1.83c-1.7.545-3.242-1.358-4.052-2.623a3.023,3.023,0,0,1-.439-2.078l.285-1.908Z" transform="translate(-1105.928 -602.152)" fill="#f18c72"/>
        <path id="Trazado_67582" data-name="Trazado 67582" d="M1107.908,605s-1.494.134-1.742,1.27-.954,3.434-.954,3.434l.815.65,1.148-2.279a33.981,33.981,0,0,0,2.863,3.493h6.391s0-2.115-4-2.211C1108.745,609.271,1107.908,605,1107.908,605Z" transform="translate(-1105.213 -602.75)" fill="#122043"/>
      </g>
      <g id="Grupo_32333" data-name="Grupo 32333" transform="translate(0.782)">
        <g id="Grupo_32330" data-name="Grupo 32330" transform="translate(13.001 0.897)">
          <path id="Trazado_67583" data-name="Trazado 67583" d="M1139.41,462.679l-7.1,18.548-4.474-3.329,10-16.854Z" transform="translate(-1123.741 -455.65)" fill="#f18c72"/>
          <g id="Grupo_32329" data-name="Grupo 32329" transform="translate(13.834)">
            <path id="Trazado_67584" data-name="Trazado 67584" d="M1141.116,455.639a2.89,2.89,0,0,0-.642,1.959l-.313,2.677.365.415,1.256,1.114c-.045-.554-.108,0-.108,0l2.02-3.515s2.442-1.566-.638-3.876a.885.885,0,0,0-1.012-.065A2.262,2.262,0,0,0,1141.116,455.639Z" transform="translate(-1140.161 -454.218)" fill="#f18c72"/>
          </g>
          <path id="Trazado_67585" data-name="Trazado 67585" d="M1122.654,498.817a116.6,116.6,0,0,0,8.571-13.4l-3.849-4.383-4.722,5.5Z" transform="translate(-1122.654 -459.845)" fill="#005558"/>
        </g>
        <path id="Trazado_67586" data-name="Trazado 67586" d="M1108.584,594.373l2.261.393c.467-2.8,7.5-16.094,8.068-23a156.008,156.008,0,0,1,2.415-16.2l-7.56-2.248s-1.915,0,.188,15.62C1109.228,575.148,1107.96,589.23,1108.584,594.373Z" transform="translate(-1106.671 -474.112)" fill="#f18c72"/>
        <path id="Trazado_67587" data-name="Trazado 67587" d="M1115.669,546.134s1.776,10.685,4.246,22.112c-2.58,6.9,1.352,26.156,1.425,26.088.3-.279,1.655,1.395,1.655,1.395s2.867-16.994,3.5-24.657.792-17.007.792-17.007Z" transform="translate(-1108.188 -472.604)" fill="#f7a57a"/>
        <path id="Trazado_67588" data-name="Trazado 67588" d="M1148.847,461.545l-7.1,18.548-4.474-3.329,10-16.854Z" transform="translate(-1112.72 -454.516)" fill="#f7a57a"/>
        <g id="Grupo_32331" data-name="Grupo 32331" transform="translate(34.292)">
          <path id="Trazado_67589" data-name="Trazado 67589" d="M1150.552,454.5a2.884,2.884,0,0,0-.642,1.959l-.314,2.678.366.414,1.256,1.115c-.044-.554-.107,0-.107,0l2.019-3.516s2.443-1.565-.638-3.876a.887.887,0,0,0-1.012-.065A2.266,2.266,0,0,0,1150.552,454.5Z" transform="translate(-1149.597 -453.084)" fill="#f7a57a"/>
        </g>
        <path id="Trazado_67590" data-name="Trazado 67590" d="M1123.536,489.777h-4.574l1.826-5.376,3.577,2.2Z" transform="translate(-1108.879 -459.653)" fill="#f18c72"/>
        <path id="Trazado_67591" data-name="Trazado 67591" d="M1128.518,494.616c-.023-.135-.054-.248-.081-.373,4.53-5.841,8.375-9.955,8.375-9.955l-3.85-4.383-8.752,8.31-2.568.01a5.144,5.144,0,0,0-6.5.835c-1.106,1.141-1.844,4.237-1.1,7.509,2.038,9.021.443,13.793.443,13.793l11.8,4.4s.268-7.845.453-13.346V501.4a6.13,6.13,0,0,1,.958-3.011A5.378,5.378,0,0,0,1128.518,494.616Z" transform="translate(-1107.784 -458.71)" fill="#0f787a"/>
        <g id="Grupo_32332" data-name="Grupo 32332" transform="translate(8.764 15.084)">
          <path id="Trazado_67592" data-name="Trazado 67592" d="M1124.794,472.172l-7.5,2.626.74,5.6c.01.079.031.155.047.233.144.026.288.052.431.088.024.006.046.013.07.02l.068.014a5.136,5.136,0,0,1,3.507,3.51,8.848,8.848,0,0,0,3.246-.041,3.261,3.261,0,0,0,1.705-.736C1128.688,480.033,1124.794,472.172,1124.794,472.172Z" transform="translate(-1117.292 -472.172)" fill="#f7a57a"/>
        </g>
        <path id="Trazado_67593" data-name="Trazado 67593" d="M1122.294,476.446c-2.02.987-1.543,11.395-1.893,18.482a8.055,8.055,0,0,1-6.82,7.534c-2.674.427-5.609.5-7.38-.5,1.171-.958,7.481-10.243,5.46-22.537-.266-1.618-.3-6.123,2.427-8.569,3.026-2.716,9.273.827,9.273.827S1125.068,475.09,1122.294,476.446Z" transform="translate(-1106.202 -456.596)" fill="#122043"/>
        <path id="Trazado_67594" data-name="Trazado 67594" d="M1125.654,518.1a87.65,87.65,0,0,1,1.57,12.755c0,2.614-.641,19.08-.641,19.08s-11.212.812-13.39.812c-.54-13.493-3.616-13.908-3.616-20.2,0-2.735,1.4-5.826,2.479-7.8a11.407,11.407,0,0,0,1.555-4.375l.073-.256Z" transform="translate(-1106.91 -466.723)" fill="#ffc630"/>
        <path id="Trazado_67595" data-name="Trazado 67595" d="M1113.469,556.208" transform="translate(-1107.726 -474.717)" fill="#ffc630"/>
      </g>
    </g>
    <g id="Grupo_32344" data-name="Grupo 32344" transform="translate(1189.591 435.736)">
      <g id="Grupo_32337" data-name="Grupo 32337" transform="translate(21.689 115.576)">
        <path id="Trazado_67596" data-name="Trazado 67596" d="M1249.339,609.017l9.28-.01c1.232.129,2.609.479,2.84,1.547a6.214,6.214,0,0,1,.134,1.414c-.328.386-12.633-.051-12.633-.051l-.054-.044A1.951,1.951,0,0,1,1249.339,609.017Z" transform="translate(-1248.421 -605.927)" fill="#002b49"/>
        <path id="Trazado_67597" data-name="Trazado 67597" d="M1261.737,612.74l-12.634-.051.109.492h12.542Z" transform="translate(-1248.564 -606.699)" fill="#53b6b9"/>
        <g id="Grupo_32335" data-name="Grupo 32335" transform="translate(4.357 3.08)">
          <path id="Trazado_67598" data-name="Trazado 67598" d="M1254.169,609.007l.836.006-.26,1.137h-.81Z" transform="translate(-1253.934 -609.007)" fill="#fff"/>
        </g>
        <g id="Grupo_32336" data-name="Grupo 32336" transform="translate(6.148 3.08)">
          <path id="Trazado_67599" data-name="Trazado 67599" d="M1256.437,609.007l.836.006-.26,1.137h-.81Z" transform="translate(-1256.202 -609.007)" fill="#fff"/>
        </g>
        <path id="Trazado_67600" data-name="Trazado 67600" d="M1248.777,605.109l.637,3.091h0a3.011,3.011,0,0,0,2.488.059l.141-.062.447-3.087Z" transform="translate(-1248.496 -605.109)" fill="#f7a57a"/>
      </g>
      <g id="Grupo_32340" data-name="Grupo 32340" transform="translate(0 115.576)">
        <path id="Trazado_67601" data-name="Trazado 67601" d="M1221.892,609.017l9.28-.01c1.232.129,2.609.479,2.839,1.547a6.184,6.184,0,0,1,.134,1.414c-.329.386-12.633-.051-12.633-.051l-.054-.044A1.951,1.951,0,0,1,1221.892,609.017Z" transform="translate(-1220.974 -605.927)" fill="#122043"/>
        <path id="Trazado_67602" data-name="Trazado 67602" d="M1234.289,612.74l-12.634-.051.109.492h12.542Z" transform="translate(-1221.117 -606.699)" fill="#53b6b9"/>
        <g id="Grupo_32338" data-name="Grupo 32338" transform="translate(4.356 3.08)">
          <path id="Trazado_67603" data-name="Trazado 67603" d="M1226.722,609.007l.836.006-.26,1.137h-.81Z" transform="translate(-1226.487 -609.007)" fill="#fff"/>
        </g>
        <g id="Grupo_32339" data-name="Grupo 32339" transform="translate(6.148 3.08)">
          <path id="Trazado_67604" data-name="Trazado 67604" d="M1228.99,609.007l.835.006-.26,1.137h-.81Z" transform="translate(-1228.754 -609.007)" fill="#fff"/>
        </g>
        <path id="Trazado_67605" data-name="Trazado 67605" d="M1222.539,605.109l-.4,3.091h0a3.009,3.009,0,0,0,2.488.059l.141-.062,1.487-3.087Z" transform="translate(-1221.218 -605.109)" fill="#f7a57a"/>
      </g>
      <g id="Grupo_32341" data-name="Grupo 32341" transform="translate(7.527 11.625)">
        <path id="Trazado_67606" data-name="Trazado 67606" d="M1238.142,473.561l-7.643,4.983,2.359,6.039c.033.085.078.164.115.247.168-.01.336-.02.506-.02.028,0,.054,0,.082,0s.053,0,.08,0a5.9,5.9,0,0,1,4.872,2.952,10.164,10.164,0,0,0,3.607-.936,3.736,3.736,0,0,0,1.7-1.287C1244.638,481.256,1238.142,473.561,1238.142,473.561Z" transform="translate(-1230.499 -473.561)" fill="#f7a57a"/>
      </g>
      <path id="Trazado_67607" data-name="Trazado 67607" d="M1252.22,475.123s.936,8.87-.948,14.519c.875.759,4.086,4.2,5.1-.26s-1.134-15.821-1.134-15.821Z" transform="translate(-1227.33 -461.936)" fill="#f7a57a"/>
      <g id="Grupo_32343" data-name="Grupo 32343" transform="translate(18.507 0.117)">
        <g id="Grupo_32342" data-name="Grupo 32342" transform="translate(0 12.442)">
          <path id="Trazado_67608" data-name="Trazado 67608" d="M1246.193,474.743l-1.8,1.157.642,1.343,1.929-.85Z" transform="translate(-1244.395 -474.743)" fill="#122043"/>
          <path id="Trazado_67609" data-name="Trazado 67609" d="M1245.134,476.62c.18.41.193.8.028.873s-.443-.2-.623-.612-.193-.8-.029-.874S1244.953,476.209,1245.134,476.62Z" transform="translate(-1244.395 -475.006)" fill="#122043"/>
        </g>
        <path id="Trazado_67610" data-name="Trazado 67610" d="M1268.292,464.9c0-.017.005-.033.007-.051a17.95,17.95,0,0,0-1.739-3.121,15.678,15.678,0,0,1-1.67-2.729l-18.568,12.152,1.2,2.27,20.77-7.675A5.7,5.7,0,0,1,1268.292,464.9Z" transform="translate(-1244.799 -458.998)" fill="#002f4c"/>
      </g>
      <path id="Trazado_67611" data-name="Trazado 67611" d="M1237.86,491.288l-.668,4.17h5.908l.425-5.11Z" transform="translate(-1224.376 -465.458)" fill="#f18c72"/>
      <path id="Trazado_67612" data-name="Trazado 67612" d="M1256.752,496.484s6.979-2.222,9.166-5.211-1.514-19.342-1.514-19.342l.478-2.944a2.74,2.74,0,0,0-2.681-3.179l-1.864-.017a1.067,1.067,0,0,0-.984,1.5l2.452,5.517s1.84,12.387-.737,13.328a29.058,29.058,0,0,1-6.554,1.359Z" transform="translate(-1228.01 -460.307)" fill="#f7a57a"/>
      <path id="Trazado_67613" data-name="Trazado 67613" d="M1238.405,487.126l-1.8-3.982,1.166-.733a2.194,2.194,0,0,0,.91-2.566l-1.279-3.752s3.637-.445,3.527-3.833c0-1.745-2.4-1.754-2.4-1.754a3.489,3.489,0,0,1-2.944,1.744c-.956-.12-3.581.232-5.352,3.323-1.191,2.079-.668,5.335.368,7.779.929,2.189,3.3,3.412,5.652,3.773Z" transform="translate(-1222.774 -461.296)" fill="#002b49"/>
      <path id="Trazado_67614" data-name="Trazado 67614" d="M1229.559,533.862a131.273,131.273,0,0,0,2.206,17.69,15.807,15.807,0,0,1-.544,8.135c-4.167,12.38-10.009,30.995-10.009,30.995h5.2s11.774-22,14.809-32.914,3.554-14.378,3.554-14.378l-3.61-9.528Z" transform="translate(-1221.024 -474.586)" fill="#132143"/>
      <path id="Trazado_67615" data-name="Trazado 67615" d="M1237.246,483.987a1.69,1.69,0,0,0,.966,1.854c.747.4,1.527.21,1.74-.417a1.689,1.689,0,0,0-.966-1.854C1238.24,483.172,1237.461,483.359,1237.246,483.987Z" transform="translate(-1224.376 -463.992)" fill="#f7a57a"/>
      <path id="Trazado_67616" data-name="Trazado 67616" d="M1248.72,525.274h-16.945v-21.74a9.224,9.224,0,0,1,8.366-9.184l11.784-1.426s1.386,2.121,5.246,7.049a39.772,39.772,0,0,1-10.01,4.188Z" transform="translate(-1223.24 -465.998)" fill="#53b6b9"/>
      <path id="Trazado_67617" data-name="Trazado 67617" d="M1231.775,533.862s2.394,8.662,11.224,18.37a11.352,11.352,0,0,1,3.3,8.828l-1.821,29.622h5.271s6.425-24.6,5.039-36.725a55.651,55.651,0,0,0-6.063-20.095Z" transform="translate(-1223.24 -474.586)" fill="#002f4c"/>
      <path id="Trazado_67618" data-name="Trazado 67618" d="M1270.293,462.852c.912,1.891,2.149,3.184,2.762,2.887s.373-2.069-.538-3.959-2.148-3.184-2.762-2.887S1269.382,460.962,1270.293,462.852Z" transform="translate(-1231.136 -458.85)" fill="#0f787a"/>
      <path id="Trazado_67619" data-name="Trazado 67619" d="M1251.545,470.255l.157.075a2.361,2.361,0,0,0,1.769.111l.1-.035a3.154,3.154,0,0,0,2.009-2.037h0a.585.585,0,0,0-.677-.75l-1.174.246a1.772,1.772,0,0,0-1.114.759Z" transform="translate(-1227.387 -460.687)" fill="#f7a57a"/>
    </g>
    <g id="Grupo_32351" data-name="Grupo 32351" transform="translate(1258.34 532.009)">
      <path id="Trazado_67620" data-name="Trazado 67620" d="M1333.388,609.54l5.3,9.982-5.84-.282-.41-10.022Z" transform="translate(-1313.106 -586.668)" fill="#f7a57a"/>
      <path id="Trazado_67621" data-name="Trazado 67621" d="M1322.617,604.026l4.9-.007,2.029,31.642h-8.773Z" transform="translate(-1310.658 -585.577)" fill="#fff"/>
      <g id="Grupo_32346" data-name="Grupo 32346" transform="translate(1.956 110.126)">
        <path id="Trazado_67622" data-name="Trazado 67622" d="M1311.465,721.572a2.562,2.562,0,0,0-.988,2.164c.222,1.212.536,4.051.536,4.051h1.244l-.038-2.648c0-.173,2.668,2.648,3.119,2.648h6.583s.437-1.787-3.429-2.36S1311.465,721.572,1311.465,721.572Z" transform="translate(-1310.45 -720.364)" fill="#002f4c"/>
        <g id="Grupo_32345" data-name="Grupo 32345" transform="translate(0.821)">
          <path id="Trazado_67623" data-name="Trazado 67623" d="M1314.536,720.043l.892,2.323a2.983,2.983,0,0,0,1.216,1.543,11.653,11.653,0,0,0,3.073,1.4c-1.789,1.527-4.635-.067-6.264-1.2a3.984,3.984,0,0,1-1.591-2.306l-.373-1.76Z" transform="translate(-1311.489 -720.043)" fill="#f7a57a"/>
        </g>
      </g>
      <g id="Grupo_32348" data-name="Grupo 32348" transform="translate(14.497 110.126)">
        <path id="Trazado_67624" data-name="Trazado 67624" d="M1327.335,721.572a2.562,2.562,0,0,0-.988,2.164c.221,1.212.536,4.051.536,4.051h1.244l-.038-2.648c0-.173,2.668,2.648,3.119,2.648h6.583s.437-1.787-3.429-2.36S1327.335,721.572,1327.335,721.572Z" transform="translate(-1326.32 -720.364)" fill="#002f4c"/>
        <g id="Grupo_32347" data-name="Grupo 32347" transform="translate(0.821)">
          <path id="Trazado_67625" data-name="Trazado 67625" d="M1330.406,720.043l.892,2.323a2.979,2.979,0,0,0,1.216,1.543,11.652,11.652,0,0,0,3.073,1.4c-1.789,1.527-4.635-.067-6.264-1.2a3.98,3.98,0,0,1-1.591-2.306l-.373-1.76Z" transform="translate(-1327.359 -720.043)" fill="#f7a57a"/>
        </g>
      </g>
      <path id="Trazado_67626" data-name="Trazado 67626" d="M1318.343,644.061s-.823,4.729,3.907,27.975c-3.828,12.114,2.3,32.384,2.3,32.384h4.469l3.043-60.359Z" transform="translate(-1310.138 -593.977)" fill="#005558"/>
      <path id="Trazado_67627" data-name="Trazado 67627" d="M1328.623,604.028l1.588,38.391,5.261-2.252a56.482,56.482,0,0,1-2.146-17.219c-.8-7.241,3.3-3.426-1.73-17.367C1329.723,604.021,1328.623,604.028,1328.623,604.028Z" transform="translate(-1312.306 -585.579)" fill="#ffc630"/>
      <path id="Trazado_67628" data-name="Trazado 67628" d="M1327.928,597.558l-.616,3.237a2.06,2.06,0,0,1-3.118,1.36l-2.159-1.353,3.855-8.715Z" transform="translate(-1310.924 -583.074)" fill="#f18c72"/>
      <path id="Trazado_67629" data-name="Trazado 67629" d="M1312.125,644.061s-5.855,4.729-1.126,27.975c-3.829,12.114-.451,32.384-.451,32.384h4.012l11.287-60.359Z" transform="translate(-1308.222 -593.977)" fill="#0f787a"/>
      <path id="Trazado_67630" data-name="Trazado 67630" d="M1319.933,599.911s-4.943,2.778-6.479,5.257c-1.463,2.364-1.97,7.744-2.111,12.534-.193,6.576-3.369,23.854-3.369,23.854h13.25l.33-37.611Z" transform="translate(-1307.974 -584.715)" fill="#ffc630"/>
      <path id="Trazado_67631" data-name="Trazado 67631" d="M1332.372,585.456c-3-.76-5.879,2.312-5.879,2.312l-2.255,12.143-3.468-5.344s-.2-7.261,3.154-12.069c2.4-2.911,7.006-2.076,9.335.756a7.151,7.151,0,0,1,1.26,5.028c-.147,2.349-.813,15.832-.813,15.832l-6.865-5.085a31.9,31.9,0,0,1,.821-3.864C1328.793,590.874,1334.384,585.965,1332.372,585.456Z" transform="translate(-1310.658 -580.681)" fill="#122043"/>
      <path id="Trazado_67632" data-name="Trazado 67632" d="M1326.755,589.4a1.083,1.083,0,0,1,1.28.667.934.934,0,0,1-.325,1.319,1.084,1.084,0,0,1-1.279-.668A.933.933,0,0,1,1326.755,589.4Z" transform="translate(-1311.818 -582.499)" fill="#f7a57a"/>
      <g id="Grupo_32349" data-name="Grupo 32349" transform="translate(14.601 3.616)">
        <path id="Trazado_67633" data-name="Trazado 67633" d="M1330,596.694a2.383,2.383,0,0,0,1.466.19c2.607-1.889,3.548-9.434,3.548-9.434l-2.064-2.193-4.111.9-2.025,4.494a4.136,4.136,0,0,0,.168,3.731h0A6.628,6.628,0,0,0,1330,596.694Z" transform="translate(-1326.451 -585.257)" fill="#f7a57a"/>
      </g>
      <path id="Trazado_67634" data-name="Trazado 67634" d="M1334.49,585.818c-.214,2.283-6.566,2.469-6.566,2.469l-.331-3.09,3.7-2.038,2.932,1.763A1.947,1.947,0,0,1,1334.49,585.818Z" transform="translate(-1312.09 -581.201)" fill="#122043"/>
      <path id="Trazado_67635" data-name="Trazado 67635" d="M1336.136,586.985a4.358,4.358,0,0,0,.649,2.33l.5-.914-.013-.79-.5-.616S1336.347,586.136,1336.136,586.985Z" transform="translate(-1313.875 -581.925)" fill="#122043"/>
      <path id="Trazado_67636" data-name="Trazado 67636" d="M1315.574,606.556c-6.411.748-3.382,17.288-2.006,24.078a2.875,2.875,0,0,0,3.674,2.179c5.578-1.76,13.728-9.065,13.728-9.065l-1.291-1.626-10.826,2.528S1323.007,605.689,1315.574,606.556Z" transform="translate(-1308.743 -586.103)" fill="#f7a57a"/>
      <path id="Trazado_67637" data-name="Trazado 67637" d="M1332.292,621.209l-2.093,12.957a.617.617,0,0,0,.609.716h8.289a.617.617,0,0,0,.609-.521l2.057-12.957a.618.618,0,0,0-.61-.714H1332.9A.617.617,0,0,0,1332.292,621.209Z" transform="translate(-1312.635 -589.074)" fill="#fff"/>
      <g id="Grupo_32350" data-name="Grupo 32350" transform="translate(25.935 33.741)">
        <path id="Trazado_67638" data-name="Trazado 67638" d="M1343.716,627.51a5.689,5.689,0,0,0-.145-1.683c-.2-1.226-.146-3.146-1.4-2.189a6.3,6.3,0,0,0-1.32,3.062,3.66,3.66,0,0,0,.789,2.737l.861,1.875A5.423,5.423,0,0,0,1343.716,627.51Z" transform="translate(-1340.794 -623.38)" fill="#f7a57a"/>
      </g>
      <path id="Trazado_67639" data-name="Trazado 67639" d="M1337.629,626.893a.633.633,0,1,0,.633-.632A.633.633,0,0,0,1337.629,626.893Z" transform="translate(-1314.195 -590.243)" fill="url(#linear-gradient-4)"/>
    </g>
  </g>
</svg>
