<svg xmlns="http://www.w3.org/2000/svg" xmlns:xlink="http://www.w3.org/1999/xlink" width="286.678" height="243.537" viewBox="0 0 286.678 243.537">
  <defs>
    <clipPath id="clip-path">
      <path id="SVGID" d="M1617.807,2063.468c-.924.925,2.035-1.777,4.98-1.777s34.975-.433,36.492-.433,3.881.65,1.606,2.859l-29.577,28.722a8.876,8.876,0,0,1-5.844,2.383h-37.474c1.784,0-2.9.476-.714-1.646S1619.505,2061.77,1617.807,2063.468Z" transform="translate(-1586.681 -2061.258)" fill="#5e8ab7"/>
    </clipPath>
    <clipPath id="clip-path-2">
      <path id="SVGID-2" data-name="SVGID" d="M2223.247,2081.087c-.924.924,2.035-1.777,4.98-1.777s34.975-.433,36.492-.433,3.881.65,1.606,2.859l-29.577,28.722a8.877,8.877,0,0,1-5.844,2.383h-37.474c1.784,0-2.9.477-.714-1.646S2224.945,2079.388,2223.247,2081.087Z" transform="translate(-2192.122 -2078.877)" fill="#5e8ab7"/>
    </clipPath>
    <linearGradient id="linear-gradient" y1="0.5" x2="1" y2="0.5" gradientUnits="objectBoundingBox">
      <stop offset="0.063" stop-color="#d8eefc"/>
      <stop offset="0.899" stop-color="#fff"/>
    </linearGradient>
  </defs>
  <g id="Grupo_32094" data-name="Grupo 32094" transform="translate(-1549.489 -141.696)">
    <g id="Grupo_32014" data-name="Grupo 32014" transform="translate(1549.489 141.696)">
      <path id="Trazado_66989" data-name="Trazado 66989" d="M1708.425,2251.376c51.975-.126,53.414,9.808,31.808,11.688,52.728-1.7,101.018,8.6,95.5,19.1-5.016,9.544-111.893-.3-79.913,2.236,15.689,1.242,38.1,5.768,10.307,6.5-5.485.145-30.313,2.017-14.4,6.983,5.576,1.74-173.492,3.681-159.115-5.308,2.181-1.364,53.968-2.59,44.6-3.208-21.859-1.442-88.477-4.568-87.723-12.036.725-7.186,56.2-7.483,51.45-7.905C1595.382,2268.931,1592.946,2251.656,1708.425,2251.376Z" transform="translate(-1549.489 -2055.821)" fill="#f2f1f3"/>
      <path id="Trazado_66990" data-name="Trazado 66990" d="M2709.806,343.246l-3.3-1.441s5.934-25.861,5.288-34.318c0,0-38.1-10.738-36.19-39.334,0,0,32.06-1.055,37.436,35.3,0,0,5.549-25.048,5.923-50.392,0,0-30.135-3.01-27.174-28.206,0,0,19.764-3.15,28.581,15.413,0,0,1.477-19.957-.326-30.881,8.55,1.014-22.43,10.872-23.007-25.08,0,0,16.518,2.3,23.3,16.05l-1.845-22.061s-13.7-18.076-2.935-36.6c0,0,17.386,13.8,6.018,35l1.075,23.687s9.24-19.513,24.584-15.435c0,0-6.907,25.11-23.919,24.554,0,0,1.57,21.941-.588,37.023,0,0,7-26.7,31.132-24.351,0,0,.635,22.514-30.175,29.346a383.574,383.574,0,0,1-7.39,51.387s2.483-27.694,33.292-34.526c0,0,7.959,26.69-33.234,41.419A181.78,181.78,0,0,1,2709.806,343.246Z" transform="translate(-2571.152 -141.696)" fill="#e9e3e6" opacity="0.41"/>
      <path id="Trazado_66991" data-name="Trazado 66991" d="M1905.81,1624.651l-1.429-.228s-.495-10.559-1.654-13.756c0,0-15.846-.363-18.185-11.577,0,0,12.247-3.585,18.231,9.9a114.322,114.322,0,0,0-3.139-20.015s-11.943,1.827-13.512-8.181c0,0,7.281-3.174,12.678,3.109,0,0-1.578-7.841-3.449-11.874,3.405-.457-7.478,6.415-11.569-7.389,0,0,6.616-.75,10.709,3.879l-3.085-8.323s-7.226-5.611-5.069-13.819c0,0,8.188,3.6,6.086,12.9l2.963,9.026s1.463-8.439,7.818-8.388c0,0,.039,10.366-6.58,11.838a87.037,87.037,0,0,1,3.757,14.332s-.175-10.99,9.383-12.474c0,0,2.667,8.617-8.476,14.306a153.127,153.127,0,0,1,2.68,20.544s-2.022-10.923,9.121-16.612c0,0,5.94,9.5-8.357,19.264A72.359,72.359,0,0,1,1905.81,1624.651Z" transform="translate(-1852.796 -1416.17)" fill="#e9e3e6" opacity="0.41"/>
      <path id="Trazado_66992" data-name="Trazado 66992" d="M3409.916,869.973l-2.362-1.582s8.512-19.362,9.277-26.052c0,0-28.126-13.649-22.341-35.7,0,0,25.179,3.61,23.919,32.726a229.365,229.365,0,0,0,12.185-38.509s-23.067-6.516-16.975-25.771c0,0,15.9.275,19.993,15.981,0,0,4.148-15.371,4.38-24.146,0,0-17.271-5.228-14.191-22.755,0,0,12.546,4.08,15.772,15.747l1.871-17.472s-7.978-16,3.2-28.968c0,0,11.5,13.173-.557,28.147l-2.716,18.635s12.861-6.595,24.224-1.29c0,0-11.88,11.285-25.073,8.5,0,0-2.067,17.34-6.015,28.812,0,0,9.469-19.874,27.951-14.7,0,0-2.884,17.658-27.954,18.73a307.428,307.428,0,0,1-13.479,39.082s6.094-21.27,31.165-22.342c0,0,2.206,21.93-32.153,27.729A145.966,145.966,0,0,1,3409.916,869.973Z" transform="translate(-3222.759 -660.47)" fill="#e9e3e6" opacity="0.41"/>
      <path id="Trazado_66993" data-name="Trazado 66993" d="M4026.624,2112.27l-.34-.115a20.105,20.105,0,0,0,.221-3.442s-3.869-.753-3.932-3.6a3.784,3.784,0,0,1,4.019,3.191,28.43,28.43,0,0,0,.142-5.039s-3.011-.053-2.94-2.572a2.767,2.767,0,0,1,2.966,1.294,17.51,17.51,0,0,0-.3-3.056,2.605,2.605,0,0,1-2.5-2.3,3.3,3.3,0,0,1,2.448,1.4l-.377-2.169a3.488,3.488,0,0,1-.614-3.6,2.753,2.753,0,0,1,.905,3.417l.315,2.337s.743-2.008,2.3-1.729c0,0-.462,2.543-2.152,2.626a21.524,21.524,0,0,1,.269,3.671s.457-2.7,2.868-2.665c0,0,.261,2.224-2.729,3.152a38.141,38.141,0,0,1-.278,5.149,4.041,4.041,0,0,1,2.992-3.69s1.024,2.578-2.925,4.372A18.021,18.021,0,0,1,4026.624,2112.27Z" transform="translate(-3793.334 -1911.459)" fill="#f2f1f3"/>
      <path id="Trazado_66994" data-name="Trazado 66994" d="M2279.868,1166.212l-2.89-.02s-4.428-20-7.758-25.757c0,0-31.343,3.917-39.619-16.8,0,0,22.961-10.4,39.162,13.579a217.647,217.647,0,0,0-12.73-37.266s-22.935,6.957-29.3-11.676c0,0,13.309-8.171,26,2.243,0,0-5.673-14.5-10.679-21.646,0,0-17.38,4.93-25.212-10.729,0,0,12.792-3.355,22.37,4.284l-8.8-14.978s-16.075-8.6-14.509-24.885c0,0,17.31,4.479,16.21,22.831l8.791,16.355s.123-16.523,12.661-18.273c0,0,3.467,19.761-9.094,24.494,0,0,8.56,14.976,12.09,26.246,0,0-3.939-20.911,14.409-26.523,0,0,8.073,15.661-12.024,29.752a291.369,291.369,0,0,1,12,38.409s-7.558-20.248,12.54-34.339c0,0,14.813,16.4-10.167,39.175A137.088,137.088,0,0,1,2279.868,1166.212Z" transform="translate(-2154.029 -940.915)" fill="#f2f1f3"/>
      <path id="Trazado_66995" data-name="Trazado 66995" d="M3991.365,1759.239l-.832-1.044s6.769-7.585,8.123-10.508c0,0-10.679-10.081-4.74-19.263,0,0,10.856,5.127,5.9,18.134a112.354,112.354,0,0,0,11.314-15.744s-9.462-6.15-3.805-14.022c0,0,7.156,2.329,6.646,10.008,0,0,4.192-6.384,5.618-10.324,0,0-7.032-4.763-3-12.271,0,0,5.066,3.588,4.77,9.317l3.478-7.651s-1.2-8.351,5.811-12.671c0,0,3.222,7.559-4.49,12.666l-4.035,8.06s6.691-4.91,11.037-.932c0,0-6.953,7.169-12.507,4.078a83.992,83.992,0,0,1-7.061,12.21s7.279-7.684,14.867-2.778c0,0-3.964,7.595-15.476,4.6A150.591,150.591,0,0,1,4001,1746.932a16.235,16.235,0,0,1,17.473-5.792s-2.3,10.235-18.732,8.094A71.65,71.65,0,0,1,3991.365,1759.239Z" transform="translate(-3764.264 -1549.386)" fill="#f2f1f3" opacity="0.41"/>
      <path id="Trazado_66996" data-name="Trazado 66996" d="M3419.967,1959.175l.479-.708s-4.586-4.457-5.562-6.241c0,0,6.3-6.976,2.168-12.49,0,0-6.621,3.838-2.948,11.836a69.682,69.682,0,0,1-7.795-9.4s5.7-4.413,1.8-9.111a6.465,6.465,0,0,0-3.762,6.714,42.407,42.407,0,0,1-3.977-6.258s4.228-3.4,1.369-7.956c0,0-3.039,2.55-2.61,6.174l-2.515-4.674s.4-5.37-4.2-7.739a6.575,6.575,0,0,0,3.365,7.806l2.884,4.9s-4.423-2.761-6.992,0c0,0,4.684,4.182,8.051,1.921a52.342,52.342,0,0,0,4.966,7.379s-4.912-4.492-9.483-.969c0,0,2.819,4.613,9.944,2.1a93.417,93.417,0,0,0,8.222,9.411,10.062,10.062,0,0,0-11.252-2.744s1.885,6.379,12.143,4.14A44.392,44.392,0,0,0,3419.967,1959.175Z" transform="translate(-3220.917 -1754.55)" fill="#f2f1f3"/>
    </g>
    <g id="Grupo_32016" data-name="Grupo 32016" transform="translate(1687.623 161.556)">
      <path id="Trazado_66997" data-name="Trazado 66997" d="M3118.687,525.879l-1.81,3.527-2.289,47h5.685v-47Z" transform="translate(-3107.647 -510.128)" fill="#5e8ab7"/>
      <g id="Grupo_32015" data-name="Grupo 32015">
        <path id="Trazado_66998" data-name="Trazado 66998" d="M3107.558,461.975h0a1.245,1.245,0,0,0,.472-1.7l-2.891-5.121c-.37.182-.738.374-1.1.579s-.718.421-1.065.644l2.891,5.121A1.244,1.244,0,0,0,3107.558,461.975Z" transform="translate(-3097.107 -445.963)" fill="#5e8ab7"/>
        <path id="Trazado_66999" data-name="Trazado 66999" d="M3162.911,519.828a1.244,1.244,0,0,0-1.183,1.3h0a1.244,1.244,0,0,0,1.3,1.184l5.935-.287a21.085,21.085,0,0,0-.094-2.487Z" transform="translate(-3150.416 -504.377)" fill="#5e8ab7"/>
        <path id="Trazado_67000" data-name="Trazado 67000" d="M3099.566,535.886h0a1.245,1.245,0,0,0-1.7.439L3094.3,542.4a21.15,21.15,0,0,0,2.128,1.291l3.574-6.1A1.244,1.244,0,0,0,3099.566,535.886Z" transform="translate(-3089.243 -519.051)" fill="#5e8ab7"/>
        <path id="Trazado_67001" data-name="Trazado 67001" d="M3056.241,365.15l-4.834-8.563a1.244,1.244,0,0,0-1.7-.472h0a1.244,1.244,0,0,0-.472,1.7l4.834,8.563q.52-.335,1.065-.644C3055.5,365.524,3055.871,365.331,3056.241,365.15Z" transform="translate(-3048.211 -355.954)" fill="#7daedf"/>
        <path id="Trazado_67002" data-name="Trazado 67002" d="M3241.788,517.373l6.787-.323a1.244,1.244,0,0,0,1.184-1.3h0a1.244,1.244,0,0,0-1.3-1.184l-9.661.46a21.033,21.033,0,0,1,.094,2.487l2.9-.138Z" transform="translate(-3220.342 -499.861)" fill="#7daedf"/>
        <path id="Trazado_67003" data-name="Trazado 67003" d="M3039.882,616.129a1.244,1.244,0,0,0,.439,1.7h0a1.244,1.244,0,0,0,1.7-.439l4.872-8.254a21.075,21.075,0,0,1-2.128-1.291Z" transform="translate(-3039.709 -584.499)" fill="#7daedf"/>
      </g>
      <circle id="Elipse_1456" data-name="Elipse 1456" cx="2.151" cy="2.151" r="2.151" transform="translate(8.876 14.237)" fill="#8c8786"/>
      <circle id="Elipse_1457" data-name="Elipse 1457" cx="2.151" cy="2.151" r="2.151" transform="translate(8.876 14.237)" fill="#7daedf"/>
    </g>
    <g id="Grupo_32018" data-name="Grupo 32018" transform="translate(1746.889 192.925)">
      <path id="Trazado_67004" data-name="Trazado 67004" d="M3743.326,832.582l-1.472,2.869-1.862,38.231h4.624V835.451Z" transform="translate(-3734.346 -819.77)" fill="#5e8ab7"/>
      <g id="Grupo_32017" data-name="Grupo 32017" transform="translate(0)">
        <path id="Trazado_67005" data-name="Trazado 67005" d="M3734.274,780.6h0a1.012,1.012,0,0,0,.384-1.379l-2.352-4.165q-.452.221-.9.471t-.866.524l2.351,4.165A1.012,1.012,0,0,0,3734.274,780.6Z" transform="translate(-3725.774 -767.576)" fill="#5e8ab7"/>
        <path id="Trazado_67006" data-name="Trazado 67006" d="M3779.3,827.659a1.012,1.012,0,0,0-.963,1.059h0a1.012,1.012,0,0,0,1.059.963l4.827-.233a17.1,17.1,0,0,0-.077-2.023Z" transform="translate(-3769.135 -815.091)" fill="#5e8ab7"/>
        <path id="Trazado_67007" data-name="Trazado 67007" d="M3727.773,840.722h0a1.012,1.012,0,0,0-1.386.357l-2.894,4.941a17.171,17.171,0,0,0,1.73,1.05l2.907-4.962A1.012,1.012,0,0,0,3727.773,840.722Z" transform="translate(-3719.377 -827.027)" fill="#5e8ab7"/>
        <path id="Trazado_67008" data-name="Trazado 67008" d="M3692.533,701.842l-3.932-6.965a1.012,1.012,0,0,0-1.379-.384h0a1.013,1.013,0,0,0-.384,1.379l3.933,6.965q.423-.273.866-.524T3692.533,701.842Z" transform="translate(-3686 -694.362)" fill="#5e8ab7"/>
        <path id="Trazado_67009" data-name="Trazado 67009" d="M3843.459,825.662l5.521-.263a1.012,1.012,0,0,0,.963-1.059h0a1.012,1.012,0,0,0-1.06-.963l-7.858.374a17.1,17.1,0,0,1,.077,2.023l2.357-.112Z" transform="translate(-3826.014 -811.418)" fill="#5e8ab7"/>
        <path id="Trazado_67010" data-name="Trazado 67010" d="M3679.226,905.992a1.012,1.012,0,0,0,.357,1.386h0a1.012,1.012,0,0,0,1.386-.357l3.963-6.714a17.137,17.137,0,0,1-1.73-1.05Z" transform="translate(-3679.085 -880.264)" fill="#5e8ab7"/>
      </g>
      <circle id="Elipse_1458" data-name="Elipse 1458" cx="1.75" cy="1.75" r="1.75" transform="translate(6.962 14.778) rotate(-80.783)" fill="#5e8ab7"/>
      <circle id="Elipse_1459" data-name="Elipse 1459" cx="1.75" cy="1.75" r="1.75" transform="translate(6.962 14.778) rotate(-80.783)" fill="#5e8ab7"/>
    </g>
    <g id="Grupo_32020" data-name="Grupo 32020" transform="translate(1717.89 153.935)">
      <path id="Trazado_67011" data-name="Trazado 67011" d="M3499.337,560.115l-3.051,5.944-3.858,79.213h9.58V566.059Z" transform="translate(-3480.73 -533.569)" fill="#5e8ab7"/>
      <g id="Grupo_32019" data-name="Grupo 32019" transform="translate(0 0)">
        <path id="Trazado_67012" data-name="Trazado 67012" d="M3480.582,452.413h0a2.1,2.1,0,0,0,.795-2.857l-4.872-8.63q-.936.459-1.857.976t-1.795,1.086l4.873,8.63A2.1,2.1,0,0,0,3480.582,452.413Z" transform="translate(-3462.97 -425.428)" fill="#5e8ab7"/>
        <path id="Trazado_67013" data-name="Trazado 67013" d="M3573.87,549.915a2.1,2.1,0,0,0-1.995,2.194h0a2.1,2.1,0,0,0,2.194,1.995l10-.483a35.563,35.563,0,0,0-.159-4.191Z" transform="translate(-3552.811 -523.875)" fill="#5e8ab7"/>
        <path id="Trazado_67014" data-name="Trazado 67014" d="M3467.113,576.98h0a2.1,2.1,0,0,0-2.872.74l-6,10.238a35.574,35.574,0,0,0,3.585,2.176l6.023-10.282A2.1,2.1,0,0,0,3467.113,576.98Z" transform="translate(-3449.716 -548.606)" fill="#5e8ab7"/>
        <path id="Trazado_67015" data-name="Trazado 67015" d="M3394.1,289.23l-8.147-14.431a2.1,2.1,0,0,0-2.857-.8h0a2.1,2.1,0,0,0-.8,2.857l8.148,14.431q.877-.565,1.795-1.086T3394.1,289.23Z" transform="translate(-3380.561 -273.732)" fill="#7daedf"/>
        <path id="Trazado_67016" data-name="Trazado 67016" d="M3706.805,545.777l11.439-.544a2.1,2.1,0,0,0,1.995-2.194h0a2.1,2.1,0,0,0-2.194-1.995l-16.283.775a35.565,35.565,0,0,1,.16,4.191l4.884-.232Z" transform="translate(-3670.661 -516.263)" fill="#7daedf"/>
        <path id="Trazado_67017" data-name="Trazado 67017" d="M3366.525,712.216a2.1,2.1,0,0,0,.74,2.872h0a2.1,2.1,0,0,0,2.872-.74l8.211-13.912a35.534,35.534,0,0,1-3.586-2.176Z" transform="translate(-3366.234 -658.909)" fill="#7daedf"/>
      </g>
      <circle id="Elipse_1460" data-name="Elipse 1460" cx="3.626" cy="3.626" r="3.626" transform="translate(14.425 30.618) rotate(-80.783)" fill="#8c8786"/>
      <circle id="Elipse_1461" data-name="Elipse 1461" cx="3.626" cy="3.626" r="3.626" transform="translate(14.425 30.618) rotate(-80.783)" fill="#7daedf"/>
    </g>
    <g id="Grupo_32059" data-name="Grupo 32059" transform="translate(1552.245 319.349)">
      <g id="Grupo_32039" data-name="Grupo 32039">
        <g id="Grupo_32021" data-name="Grupo 32021" transform="translate(54.093 19.982)">
          <path id="Trazado_67018" data-name="Trazado 67018" d="M2162.78,2279.391l5.711,12.258h8.636l-8.915-17.83Z" transform="translate(-2162.78 -2273.819)" fill="#0c2961"/>
        </g>
        <g id="Grupo_32022" data-name="Grupo 32022" transform="translate(54.093 19.982)">
          <path id="Trazado_67019" data-name="Trazado 67019" d="M2162.78,2279.391l5.711,12.258h4.318l-8.915-17.83Z" transform="translate(-2162.78 -2273.819)" fill="#123e7d"/>
        </g>
        <g id="Grupo_32023" data-name="Grupo 32023" transform="translate(0 0.407)">
          <path id="Trazado_67020" data-name="Trazado 67020" d="M1610.123,2068.131c-.938.911,2.944-2.686,5.889-2.686s36.138-2.8,37.655-2.8,2.719,3.019.443,5.228l-29.577,28.722a8.874,8.874,0,0,1-5.844,2.383h-37.474c-1.584,0-3.093-1.746-.907-3.868S1610.39,2067.871,1610.123,2068.131Z" transform="translate(-1579.215 -2062.643)" fill="#123e7d"/>
        </g>
        <g id="Grupo_32024" data-name="Grupo 32024" transform="translate(0.692 0.279)">
          <path id="Trazado_67021" data-name="Trazado 67021" d="M1617.807,2063.468c-.924.925,2.035-1.777,4.98-1.777s34.975-.433,36.492-.433,3.881.65,1.606,2.859l-29.577,28.722a8.876,8.876,0,0,1-5.844,2.383h-37.474c1.784,0-2.9.476-.714-1.646S1619.505,2061.77,1617.807,2063.468Z" transform="translate(-1586.681 -2061.258)" fill="#5e8ab7"/>
        </g>
        <g id="Grupo_32030" data-name="Grupo 32030" transform="translate(0.692 0.279)">
          <path id="SVGID-3" data-name="SVGID" d="M1617.807,2063.468c-.924.925,2.035-1.777,4.98-1.777s34.975-.433,36.492-.433,3.881.65,1.606,2.859l-29.577,28.722a8.876,8.876,0,0,1-5.844,2.383h-37.474c1.784,0-2.9.476-.714-1.646S1619.505,2061.77,1617.807,2063.468Z" transform="translate(-1586.681 -2061.258)" fill="#5e8ab7"/>
          <g id="Grupo_32029" data-name="Grupo 32029" clip-path="url(#clip-path)">
            <g id="Grupo_32025" data-name="Grupo 32025" transform="translate(46.018 -15.121)">
              <path id="Trazado_67022" data-name="Trazado 67022" d="M2122.416,1930.032h-4.039l-35.242-31.9h4.04Z" transform="translate(-2083.135 -1898.134)" fill="#7daedf"/>
            </g>
            <g id="Grupo_32026" data-name="Grupo 32026" transform="translate(37.521 -13.31)">
              <path id="Trazado_67023" data-name="Trazado 67023" d="M2032.838,1949.568l-6.129.975-35.242-31.9,6.129-.975Z" transform="translate(-1991.467 -1917.669)" fill="#7daedf"/>
            </g>
            <g id="Grupo_32027" data-name="Grupo 32027" transform="translate(22.597 -0.355)">
              <path id="Trazado_67024" data-name="Trazado 67024" d="M1876.872,2092.666h-7.408l-39-35.242h7.408Z" transform="translate(-1830.468 -2057.424)" fill="#7daedf"/>
            </g>
            <g id="Grupo_32028" data-name="Grupo 32028" transform="translate(7.016 2.965)">
              <path id="Trazado_67025" data-name="Trazado 67025" d="M1712.6,2128.491l-11.239,1.788-39-35.242,11.239-1.788Z" transform="translate(-1662.367 -2093.249)" fill="#7daedf"/>
            </g>
          </g>
        </g>
        <g id="Grupo_32031" data-name="Grupo 32031" transform="translate(25.884 8.002)" opacity="0.25">
          <rect id="Rectángulo_6478" data-name="Rectángulo 6478" width="0.557" height="43.252" transform="translate(0 0.557) rotate(-89.631)" fill="#fff"/>
        </g>
        <g id="Grupo_32032" data-name="Grupo 32032" transform="translate(31.107 2.918)" opacity="0.25">
          <rect id="Rectángulo_6479" data-name="Rectángulo 6479" width="0.557" height="43.252" transform="matrix(0.006, -1, 1, 0.006, 0, 0.557)" fill="#fff"/>
        </g>
        <g id="Grupo_32033" data-name="Grupo 32033" transform="translate(19.824 13.922)" opacity="0.25">
          <rect id="Rectángulo_6480" data-name="Rectángulo 6480" width="0.557" height="43.252" transform="matrix(0.006, -1, 1, 0.006, 0, 0.557)" fill="#fff"/>
        </g>
        <g id="Grupo_32034" data-name="Grupo 32034" transform="translate(13.974 19.703)" opacity="0.25">
          <rect id="Rectángulo_6481" data-name="Rectángulo 6481" width="0.557" height="43.252" transform="matrix(0.006, -1, 1, 0.006, 0, 0.557)" fill="#fff"/>
        </g>
        <g id="Grupo_32035" data-name="Grupo 32035" transform="translate(8.402 25.345)" opacity="0.25">
          <rect id="Rectángulo_6482" data-name="Rectángulo 6482" width="0.557" height="43.252" transform="translate(0 0.557) rotate(-89.631)" fill="#fff"/>
        </g>
        <g id="Grupo_32036" data-name="Grupo 32036" transform="translate(13.419 0.563)" opacity="0.25">
          <path id="Trazado_67026" data-name="Trazado 67026" d="M1724.49,2097.9l-.2-.151h-.31c0-.152,0-.323,32.675-33.417l.4.392C1746.006,2075.906,1724.987,2097.236,1724.49,2097.9Z" transform="translate(-1723.979 -2064.328)" fill="#fff"/>
        </g>
        <g id="Grupo_32037" data-name="Grupo 32037" transform="translate(27.721 0.215)" opacity="0.25">
          <path id="Trazado_67027" data-name="Trazado 67027" d="M1879.119,2094.782l-.839.129c0-.152.811-1.245,33.486-34.339l.4.392C1901.117,2072.149,1879.616,2094.121,1879.119,2094.782Z" transform="translate(-1878.28 -2060.571)" fill="#fff"/>
        </g>
        <g id="Grupo_32038" data-name="Grupo 32038" transform="translate(0.411)" opacity="0.25">
          <path id="Trazado_67028" data-name="Trazado 67028" d="M1585.388,2092.817a2.036,2.036,0,0,1-1.614-.584c-.276-.424-.089-.956.557-1.584,1.217-1.181,11.235-11.07,19.284-19.016l10.4-10.267c.326-.322.556-.548.723-.7.035-.039.075-.079.115-.119l.062-.063.014.014c.157-.126.229-.141.3-.1a9.786,9.786,0,0,1,4.8-1.708c1.712,0,13.49-.15,22.953-.27,6.924-.088,12.9-.164,13.539-.164.382,0,2.309.055,2.747,1.134.248.611-.07,1.353-.947,2.2l-29.577,28.722a9.138,9.138,0,0,1-6.038,2.461h-36.937l-.023.01A1.361,1.361,0,0,1,1585.388,2092.817Zm29.609-31.63c-1.223,1.2-5.8,5.719-10.99,10.843-8.05,7.946-18.069,17.836-19.288,19.018-.388.378-.572.7-.49.861.108.213.583.311.948.343v-.036h37.535a8.551,8.551,0,0,0,5.65-2.3l29.577-28.722c.688-.669.971-1.219.818-1.595-.219-.541-1.309-.786-2.23-.786-.632,0-6.61.076-13.532.164-9.465.12-21.245.27-22.961.27a9.7,9.7,0,0,0-4.739,1.77A1.985,1.985,0,0,1,1615,2061.187Z" transform="translate(-1583.651 -2058.252)" fill="#fff"/>
        </g>
      </g>
      <g id="Grupo_32058" data-name="Grupo 32058" transform="translate(56.12 1.633)">
        <g id="Grupo_32040" data-name="Grupo 32040" transform="translate(54.093 19.982)">
          <path id="Trazado_67029" data-name="Trazado 67029" d="M2768.22,2297.01l5.711,12.258h8.636l-8.915-17.83Z" transform="translate(-2768.22 -2291.438)" fill="#0c2961"/>
        </g>
        <g id="Grupo_32041" data-name="Grupo 32041" transform="translate(54.093 19.982)">
          <path id="Trazado_67030" data-name="Trazado 67030" d="M2768.22,2297.01l5.711,12.258h4.318l-8.915-17.83Z" transform="translate(-2768.22 -2291.438)" fill="#123e7d"/>
        </g>
        <g id="Grupo_32042" data-name="Grupo 32042" transform="translate(0 0.407)">
          <path id="Trazado_67031" data-name="Trazado 67031" d="M2215.563,2085.75c-.938.911,2.944-2.686,5.888-2.686s36.138-2.8,37.655-2.8,2.719,3.019.443,5.228l-29.577,28.722a8.877,8.877,0,0,1-5.844,2.383h-37.474c-1.583,0-3.093-1.746-.906-3.869S2215.831,2085.49,2215.563,2085.75Z" transform="translate(-2184.655 -2080.262)" fill="#123e7d"/>
        </g>
        <g id="Grupo_32043" data-name="Grupo 32043" transform="translate(0.692 0.279)">
          <path id="Trazado_67032" data-name="Trazado 67032" d="M2223.247,2081.087c-.924.924,2.035-1.777,4.98-1.777s34.975-.433,36.492-.433,3.881.65,1.606,2.859l-29.577,28.722a8.877,8.877,0,0,1-5.844,2.383h-37.474c1.784,0-2.9.477-.714-1.646S2224.945,2079.388,2223.247,2081.087Z" transform="translate(-2192.122 -2078.877)" fill="#5e8ab7"/>
        </g>
        <g id="Grupo_32049" data-name="Grupo 32049" transform="translate(0.692 0.279)">
          <path id="SVGID-4" data-name="SVGID" d="M2223.247,2081.087c-.924.924,2.035-1.777,4.98-1.777s34.975-.433,36.492-.433,3.881.65,1.606,2.859l-29.577,28.722a8.877,8.877,0,0,1-5.844,2.383h-37.474c1.784,0-2.9.477-.714-1.646S2224.945,2079.388,2223.247,2081.087Z" transform="translate(-2192.122 -2078.877)" fill="#5e8ab7"/>
          <g id="Grupo_32048" data-name="Grupo 32048" clip-path="url(#clip-path-2)">
            <g id="Grupo_32044" data-name="Grupo 32044" transform="translate(46.018 -15.121)">
              <path id="Trazado_67033" data-name="Trazado 67033" d="M2727.856,1947.651h-4.039l-35.242-31.9h4.04Z" transform="translate(-2688.575 -1915.753)" fill="#7daedf"/>
            </g>
            <g id="Grupo_32045" data-name="Grupo 32045" transform="translate(37.521 -13.31)">
              <path id="Trazado_67034" data-name="Trazado 67034" d="M2638.278,1967.187l-6.129.975-35.242-31.9,6.129-.975Z" transform="translate(-2596.907 -1935.288)" fill="#7daedf"/>
            </g>
            <g id="Grupo_32046" data-name="Grupo 32046" transform="translate(22.597 -0.355)">
              <path id="Trazado_67035" data-name="Trazado 67035" d="M2482.312,2110.285H2474.9l-39-35.242h7.408Z" transform="translate(-2435.908 -2075.043)" fill="#7daedf"/>
            </g>
            <g id="Grupo_32047" data-name="Grupo 32047" transform="translate(7.016 2.965)">
              <path id="Trazado_67036" data-name="Trazado 67036" d="M2318.042,2146.11,2306.8,2147.9l-39-35.242,11.239-1.788Z" transform="translate(-2267.807 -2110.868)" fill="#7daedf"/>
            </g>
          </g>
        </g>
        <g id="Grupo_32050" data-name="Grupo 32050" transform="translate(25.884 8.002)" opacity="0.25">
          <rect id="Rectángulo_6483" data-name="Rectángulo 6483" width="0.557" height="43.252" transform="matrix(0.006, -1, 1, 0.006, 0, 0.557)" fill="#fff"/>
        </g>
        <g id="Grupo_32051" data-name="Grupo 32051" transform="translate(31.107 2.918)" opacity="0.25">
          <rect id="Rectángulo_6484" data-name="Rectángulo 6484" width="0.557" height="43.252" transform="matrix(0.006, -1, 1, 0.006, 0, 0.557)" fill="#fff"/>
        </g>
        <g id="Grupo_32052" data-name="Grupo 32052" transform="translate(19.824 13.922)" opacity="0.25">
          <rect id="Rectángulo_6485" data-name="Rectángulo 6485" width="0.557" height="43.252" transform="matrix(0.006, -1, 1, 0.006, 0, 0.557)" fill="#fff"/>
        </g>
        <g id="Grupo_32053" data-name="Grupo 32053" transform="translate(13.974 19.703)" opacity="0.25">
          <rect id="Rectángulo_6486" data-name="Rectángulo 6486" width="0.557" height="43.252" transform="matrix(0.006, -1, 1, 0.006, 0, 0.557)" fill="#fff"/>
        </g>
        <g id="Grupo_32054" data-name="Grupo 32054" transform="translate(8.402 25.345)" opacity="0.25">
          <rect id="Rectángulo_6487" data-name="Rectángulo 6487" width="0.557" height="43.252" transform="matrix(0.006, -1, 1, 0.006, 0, 0.557)" fill="#fff"/>
        </g>
        <g id="Grupo_32055" data-name="Grupo 32055" transform="translate(13.419 0.563)" opacity="0.25">
          <path id="Trazado_67037" data-name="Trazado 67037" d="M2329.93,2115.516l-.2-.151h-.309c0-.152,0-.323,32.675-33.417l.4.392C2351.446,2093.525,2330.427,2114.855,2329.93,2115.516Z" transform="translate(-2329.419 -2081.947)" fill="#fff"/>
        </g>
        <g id="Grupo_32056" data-name="Grupo 32056" transform="translate(27.721 0.215)" opacity="0.25">
          <path id="Trazado_67038" data-name="Trazado 67038" d="M2484.559,2112.4l-.839.129c0-.152.811-1.245,33.486-34.34l.4.392C2506.558,2089.768,2485.056,2111.74,2484.559,2112.4Z" transform="translate(-2483.72 -2078.19)" fill="#fff"/>
        </g>
        <g id="Grupo_32057" data-name="Grupo 32057" transform="translate(0.411)" opacity="0.25">
          <path id="Trazado_67039" data-name="Trazado 67039" d="M2190.828,2110.436a2.037,2.037,0,0,1-1.614-.584c-.276-.424-.089-.957.557-1.584,1.217-1.182,11.235-11.07,19.284-19.016l10.405-10.267c.326-.322.556-.548.723-.7.035-.039.075-.078.116-.119l.062-.062.014.014c.157-.126.229-.142.3-.1a9.788,9.788,0,0,1,4.8-1.708c1.712,0,13.49-.149,22.953-.269,6.924-.088,12.9-.164,13.539-.164.382,0,2.309.055,2.747,1.134.248.612-.07,1.353-.947,2.2l-29.577,28.722a9.14,9.14,0,0,1-6.038,2.462h-36.937l-.023.01A1.379,1.379,0,0,1,2190.828,2110.436Zm29.609-31.63c-1.223,1.2-5.8,5.72-10.99,10.843-8.05,7.946-18.069,17.835-19.288,19.018-.389.378-.572.7-.49.861.108.213.583.312.948.344v-.036h37.535a8.553,8.553,0,0,0,5.65-2.3l29.577-28.722c.688-.669.971-1.22.818-1.595-.219-.54-1.31-.786-2.23-.786-.632,0-6.61.076-13.531.164-9.465.12-21.245.269-22.961.269a9.7,9.7,0,0,0-4.739,1.77A2.013,2.013,0,0,1,2220.437,2078.806Z" transform="translate(-2189.09 -2075.871)" fill="#fff"/>
        </g>
      </g>
    </g>
    <g id="Grupo_32063" data-name="Grupo 32063" transform="translate(1615.582 209.786)">
      <path id="Trazado_67040" data-name="Trazado 67040" d="M3617.192,1001.382l-1.5-1.285s7.181-13.184,8.177-17.887c0,0-18.222-11.617-12.711-26.9,0,0,16.924,4.28,14,24.891a168.7,168.7,0,0,0,11.045-26.544s-15.276-6.2-9.754-19.474c0,0,10.827,1.277,12.508,12.721,0,0,3.92-10.644,4.7-16.866,0,0-11.414-4.892-8.069-17.141,0,0,8.271,3.754,9.645,12.267l2.515-12.293s-4.309-11.917,4.239-20.373a16.022,16.022,0,0,1-2.376,19.97l-3.175,13.061s7.908-9.227,15.285-4.682c0,0-7.571,12.627-16.376,9.749,0,0-2.641,12.185-6.148,20.071,0,0,7.87-13.482,20.114-8.546,0,0-3.22,12.356-20.4,11.411a226.044,226.044,0,0,1-11.969,26.863,23.029,23.029,0,0,1,22.848-13.76s-.051,15.739-23.905,17.522A106.949,106.949,0,0,1,3617.192,1001.382Z" transform="translate(-3485.206 -890.995)" fill="#1b8c89"/>
      <g id="Grupo_32062" data-name="Grupo 32062" transform="translate(0)">
        <g id="Grupo_32061" data-name="Grupo 32061">
          <g id="Grupo_32060" data-name="Grupo 32060">
            <path id="Trazado_67041" data-name="Trazado 67041" d="M2441.627,1641.726c-1.319-2.323,6.781-7.552,4.877-13.36-1.022-3.12-4.345-4.618-4.029-8.058.207-2.246,1.769-3.2,1.272-4.029-.745-1.242-4.723.148-11.239,1.7-11.436,2.718-13.926,1.94-15.056,1.485a12.075,12.075,0,0,1-5.009-3.93,76.656,76.656,0,0,1-60.318-46.594l0,0c-5.719,2.474-6.161,8.084-9.739,7.792,0,0-.4-.033-5.089-2.545-.577-5.177-1.323-6.311-1.908-6.362-1.633-.142-4.89,7.905-2.227,11.133.92,1.116,2.2,1.235,2.545,2.545.454,1.728-1.513,2.513-1.59,4.453-.126,3.165,4.994,3.9,5.726,7.952.5,2.791-1.594,4.288-.636,5.726,1.148,1.723,4.389-.091,8.27.636,4.991.935,5.992,5.124,14,13.36a64.068,64.068,0,0,0,9.225,8.27c8.976,6.4,14.449,5.836,15.9,9.861,1.578,4.362-2.223,9.941-5.726,12.724-5.246,4.169-11.557,3.393-13.28,3.181a18.287,18.287,0,0,1-2.735-.545,76.616,76.616,0,0,0,81.56-4.251C2443.845,1642.983,2442.113,1642.582,2441.627,1641.726Z" transform="translate(-2325.692 -1503.719)" fill="#276ab3"/>
            <path id="Trazado_67042" data-name="Trazado 67042" d="M2273.077,1573.258c.7-3.58,3.134-4.657,2.7-8.27-.514-4.321-4.214-4.651-5.01-9.861-.408-2.669.329-4.118-.875-6.918-.743-1.729-1.489-2.26-2.386-3.658-2.026-3.158-2.024-6.38-2.147-9.145-.138-3.1-.493-6.972-1.052-11.728a76.658,76.658,0,0,0,25.766,75.4c-2.035-2.089-4.247-4.567-6.822-7.453C2276.405,1583.951,2271.98,1578.853,2273.077,1573.258Z" transform="translate(-2262.509 -1463.666)" fill="#276ab3"/>
            <path id="Trazado_67043" data-name="Trazado 67043" d="M2606.431,1229.469c2.388-2.872,5.664-2.737,7-6.15.774-1.979-.563-2.958.212-4.665.97-2.137,3.394-2.149,7.528-3.711,7.3-2.758,8.966-6.206,11.769-5.089,2.068.823,1.512,2.838,4.029,4.241,3.865,2.155,9.62-.116,9.649-1.378.016-.665-1.561-.953-1.485-1.59.095-.794,2.579-.649,5.408-1.8,1.389-.567,4.537-1.851,5.3-4.559.613-2.172-.395-4.95-1.8-5.3-1.536-.383-2.716,2.329-4.135,1.909-1.246-.369-2.132-2.99-1.484-5.089a4.407,4.407,0,0,1,.9-1.608q-1.28.42-2.586.777a2.647,2.647,0,0,1-.226,1.785c-.735,1.416-2.145,1.177-2.439,2.439-.432,1.856,2.327,3.635,1.8,4.453-.274.428-1.288.343-2.015.106-2.469-.8-2.3-3.574-4.559-5.3-2.643-2.022-6.612-1.089-6.68-.636-.086.583,6.148,1.206,6.574,3.711a1.4,1.4,0,0,1-.318,1.272c-.535.4-1.558-.177-2.227-.53-2.674-1.411-4.776-2.521-6.574-2.333-1.381.144-2.3,1.05-4.135,2.863a7.864,7.864,0,0,0-2.651,4.135c-.232,1.256.2,1.39,0,2.439a6.194,6.194,0,0,1-6.149,4.559,4.887,4.887,0,0,1-3.393-1.59,4.639,4.639,0,0,1-.742-4.877c1.339-2.559,5.339-1.6,6.15-3.817.562-1.537-1.2-2.418-.742-4.771.26-1.333.927-1.57,1.9-3.3a54.5,54.5,0,0,1-27.5-15.587,5.172,5.172,0,0,0-3.779,1.281c-1.869,1.819-.913,4.2-2.783,5.089-1.635.778-4.2-.164-5.328-1.829-1.624-2.406-.054-6.056.8-8.032,1.423-3.309,2.887-3.881,2.545-5.487-.5-2.324-4.134-2.8-3.9-4.692.089-.713.527-1.428,1.82-2.379q-.456-1.054-.867-2.131a14.226,14.226,0,0,0-4.567,1.329c-1.1.542-4.162,2.043-4.454,4.453-.227,1.877,1.454,2.406,1.591,4.453.26,3.9-5.414,8.362-7.635,7.316-.287-.135-.507-.358-1.248-2.024-1.413-3.176-1.507-4.376-2.251-5.928-.371-.773-2.1-4.385-4.453-4.453-2.982-.087-4.935,5.58-5.089,6.044-.778,2.332-1.344,6.319.318,7.316,1.209.725,2.324-.9,4.771-.954,4.45-.108,7.855,5.077,8.907,6.68,2.12,3.229,4.052,8.288,2.544,9.543-.643.536-2.558-.059-6.362-1.272-3.95-1.26-5.125-1.919-6.044-1.272-1.271.895-.068,2.89-1.272,4.771-1.489,2.325-4.424.99-8.388,2.7A76.656,76.656,0,0,0,2608,1247.594a18.2,18.2,0,0,1-1.777-2.857C2603.907,1240.256,2603.137,1233.431,2606.431,1229.469Z" transform="translate(-2521.245 -1135.782)" fill="#3882c5"/>
            <path id="Trazado_67044" data-name="Trazado 67044" d="M2699.084,907.827c-11.865,8.81-14.765,12.28-14,14,.831,1.851,5.8,1.6,6.044,3.5.2,1.549-2.952,2.788-2.545,4.135.27.894,1.894,1.124,2.571,1.219,1.214.172,3.693.136,4.428-1.219.77-1.421-1.253-2.675-.955-5.089a5.692,5.692,0,0,1,3.817-4.453c1.667-.492,3.21.168,5.3,1.613a54.726,54.726,0,0,1-1.456-12.565q0-2.226.177-4.407l-.335.091A9.138,9.138,0,0,1,2699.084,907.827Z" transform="translate(-2645.813 -901.933)" fill="#276ab3"/>
            <path id="Trazado_67045" data-name="Trazado 67045" d="M2873.287,895.863c.877.606,1.848,1.347,2.969,2.2,2.136,1.633,3.8,2.9,3.5,3.817-.274.843-1.958.6-4.339.9q.412,1.076.867,2.131l.009-.007c4.576-3.357,12.9-4.568,15.9-1.113.584.672,1.086,1.658,2.227,1.909,1.711.376,3.17-1.274,3.737-.8.4.341-.018,1.449-.477,2.624-1.372,3.509-2.18,5.332-2.625,6.521-1.492,3.992-.269,4.531-1.431,5.805-1.6,1.76-4.251,1.079-6.718,1.1a54.5,54.5,0,0,0,27.5,15.587c.073-.13.147-.267.224-.416,1.251-2.424.73-3.112,1.485-4.453,1.91-3.4,6.605-1.4,9.437-4.665a8.2,8.2,0,0,0,.424-9.331c-1.245-1.825-3.518-2.948-4.135-2.439-.644.531,1.055,2.391.954,5.514-.01.3-.2,4.567-2.757,5.726-2.212,1-5.36-.7-6.892-2.757-3.365-4.517-.683-13.094,4.453-16.223,2.073-1.263,5.358-2.134,6.68-.848s.076,4.064,1.272,4.665a2.224,2.224,0,0,0,2.545-1.166c.722-1.537-1.5-2.943-2.014-6.044-.449-2.693.951-3.269.848-5.513-.162-3.523-3.752-5.18-10.709-11.133-4.954-4.239-7.431-6.359-7.1-7.528.149-.532.74-.972,1.674-1.321a77.022,77.022,0,0,0-38.791.276q-.174,2.181-.177,4.407A54.715,54.715,0,0,0,2873.287,895.863Z" transform="translate(-2815.351 -876.269)" fill="#4a9cd8"/>
            <path id="Trazado_67046" data-name="Trazado 67046" d="M3614.664,1442.421c-.033-1.379-2.023-2.872-3.923-2.757a4.2,4.2,0,0,0-3.5,2.757c-.655,1.8.383,3.245.65,4.683q1.306-.357,2.585-.777C3612.046,1444.518,3614.7,1444.034,3614.664,1442.421Z" transform="translate(-3482.4 -1387.435)" fill="#276ab3"/>
            <path id="Trazado_67047" data-name="Trazado 67047" d="M3263.731,1840.252a76.341,76.341,0,0,1-54.872,23.171,77.23,77.23,0,0,1-10.461-.714,12.073,12.073,0,0,0,5.009,3.929c1.13.455,3.62,1.233,15.056-1.484,6.516-1.548,10.494-2.939,11.239-1.7.5.828-1.066,1.783-1.272,4.029-.316,3.441,3.007,4.939,4.029,8.058,1.9,5.807-6.2,11.037-4.877,13.36.486.856,2.218,1.257,4.789,1.141A76.574,76.574,0,0,0,3263.731,1840.252Z" transform="translate(-3111.647 -1750.897)" fill="url(#linear-gradient)"/>
            <path id="Trazado_67048" data-name="Trazado 67048" d="M3255.827,1520.6c-.969,1.726-1.636,1.963-1.9,3.3-.459,2.353,1.3,3.234.742,4.771-.811,2.221-4.811,1.258-6.149,3.817a4.638,4.638,0,0,0,.742,4.877,4.887,4.887,0,0,0,3.393,1.59,6.2,6.2,0,0,0,6.15-4.559c.2-1.049-.232-1.183,0-2.439a7.863,7.863,0,0,1,2.65-4.135c1.836-1.812,2.754-2.719,4.135-2.863,1.8-.188,3.9.922,6.574,2.333.668.353,1.691.927,2.226.53a1.4,1.4,0,0,0,.318-1.272c-.426-2.5-6.661-3.128-6.574-3.711.067-.453,4.037-1.386,6.68.636,2.258,1.727,2.091,4.5,4.56,5.3.727.237,1.74.322,2.015-.106.524-.818-2.235-2.6-1.8-4.453.293-1.262,1.7-1.023,2.438-2.439a2.647,2.647,0,0,0,.227-1.785,54.884,54.884,0,0,1-26.428.609Z" transform="translate(-3156.762 -1460.322)" fill="url(#linear-gradient)"/>
            <path id="Trazado_67049" data-name="Trazado 67049" d="M3222.159,1390.346a54.514,54.514,0,0,1-19.417,11.24,4.405,4.405,0,0,0-.9,1.607c-.648,2.1.238,4.721,1.484,5.089,1.42.42,2.6-2.292,4.135-1.909,1.408.351,2.416,3.129,1.8,5.3-.765,2.708-3.912,3.993-5.3,4.559-2.828,1.154-5.313,1.008-5.407,1.8-.076.637,1.5.925,1.484,1.59-.03,1.262-5.783,3.533-9.649,1.378-2.518-1.4-1.962-3.418-4.029-4.241-2.8-1.116-4.469,2.331-11.769,5.089-4.135,1.562-6.558,1.574-7.528,3.711-.775,1.707.562,2.687-.212,4.665-1.335,3.413-4.61,3.278-7,6.15-3.294,3.962-2.524,10.787-.212,15.268a18.233,18.233,0,0,0,1.777,2.857,77.23,77.23,0,0,0,10.461.714,76.341,76.341,0,0,0,54.872-23.171,76.846,76.846,0,0,0-4.589-41.7Z" transform="translate(-3074.665 -1342.694)" fill="url(#linear-gradient)"/>
            <path id="Trazado_67050" data-name="Trazado 67050" d="M3273.892,902.9c-.327,1.169,2.15,3.289,7.1,7.528,6.957,5.953,10.547,7.611,10.709,11.133.1,2.245-1.3,2.821-.848,5.514.517,3.1,2.736,4.507,2.015,6.044a2.224,2.224,0,0,1-2.545,1.166c-1.2-.6.037-3.392-1.272-4.665s-4.607-.414-6.68.848c-5.136,3.129-7.818,11.705-4.453,16.223,1.532,2.057,4.681,3.759,6.892,2.757,2.557-1.159,2.747-5.428,2.757-5.726.1-3.122-1.6-4.982-.954-5.514.617-.509,2.89.614,4.135,2.439a8.2,8.2,0,0,1-.424,9.331c-2.831,3.261-7.527,1.269-9.437,4.665-.754,1.342-.234,2.029-1.485,4.453-.077.148-.151.285-.224.416a54.883,54.883,0,0,0,26.428-.61c-.267-1.438-1.305-2.881-.65-4.683a4.2,4.2,0,0,1,3.5-2.757c1.9-.116,3.89,1.378,3.923,2.757.039,1.613-2.618,2.1-4.187,3.906a54.517,54.517,0,0,0,19.417-11.24,76.74,76.74,0,0,0-52.047-45.306C3274.632,901.927,3274.041,902.368,3273.892,902.9Z" transform="translate(-3180.118 -899.233)" fill="url(#linear-gradient)"/>
            <path id="Trazado_67051" data-name="Trazado 67051" d="M2571.522,2345.129a76.758,76.758,0,0,1-11.6-7.986C2564.015,2341.341,2567.385,2343.964,2571.522,2345.129Z" transform="translate(-2532.358 -2201.729)" fill="url(#linear-gradient)"/>
            <path id="Trazado_67052" data-name="Trazado 67052" d="M2335.329,1243.835c3.5-2.782,7.3-8.361,5.726-12.724-1.456-4.025-6.929-3.462-15.9-9.861a64.054,64.054,0,0,1-9.225-8.27c-8-8.236-9-12.425-14-13.36-3.882-.727-7.122,1.087-8.27-.636-.958-1.437,1.14-2.935.636-5.726-.731-4.049-5.852-4.787-5.726-7.952.078-1.941,2.045-2.725,1.59-4.453-.344-1.31-1.624-1.429-2.544-2.545-2.664-3.228.593-11.275,2.227-11.133.585.051,1.332,1.184,1.909,6.362,4.688,2.512,5.089,2.545,5.089,2.545,3.577.292,4.02-5.318,9.739-7.792l0,0a76.853,76.853,0,0,1-4.73-42.046,76.413,76.413,0,0,0-19.9,36.84c.559,4.756.914,8.63,1.051,11.728.123,2.765.121,5.987,2.147,9.145.9,1.4,1.643,1.929,2.386,3.658,1.2,2.8.467,4.249.875,6.918.8,5.21,4.5,5.54,5.01,9.861.43,3.613-2,4.69-2.7,8.27-1.1,5.6,3.328,10.693,10.179,18.37,2.576,2.886,4.788,5.363,6.822,7.453a76.729,76.729,0,0,0,11.6,7.986,18.281,18.281,0,0,0,2.735.545C2323.771,1247.228,2330.083,1248,2335.329,1243.835Z" transform="translate(-2280.15 -1103.071)" fill="url(#linear-gradient)"/>
            <path id="Trazado_67053" data-name="Trazado 67053" d="M2499.323,965.334c1.2-1.881,0-3.877,1.272-4.771.919-.647,2.094.013,6.044,1.272,3.8,1.213,5.718,1.808,6.362,1.272,1.507-1.255-.425-6.314-2.545-9.543-1.052-1.6-4.456-6.788-8.906-6.68-2.447.059-3.562,1.68-4.771.954-1.662-1-1.1-4.984-.318-7.316.155-.464,2.107-6.131,5.089-6.044,2.352.069,4.083,3.68,4.453,4.453.744,1.552.839,2.753,2.251,5.928.741,1.666.961,1.889,1.248,2.024,2.22,1.045,7.894-3.416,7.634-7.316-.136-2.047-1.817-2.576-1.59-4.453.291-2.41,3.35-3.911,4.453-4.453a14.229,14.229,0,0,1,4.568-1.329,54.141,54.141,0,0,1-2.129-6.919c-2.091-1.445-3.634-2.1-5.3-1.613a5.692,5.692,0,0,0-3.817,4.453c-.3,2.415,1.724,3.669.954,5.089-.734,1.356-3.213,1.391-4.427,1.219-.677-.1-2.3-.325-2.571-1.219-.407-1.347,2.744-2.587,2.545-4.135-.245-1.9-5.213-1.648-6.044-3.5-.769-1.715,2.13-5.186,14-14a9.138,9.138,0,0,0,3.052-3.181,76.514,76.514,0,0,0-34.619,20.458,76.846,76.846,0,0,0,4.73,42.046C2494.9,966.325,2497.833,967.659,2499.323,965.334Z" transform="translate(-2464.5 -902.82)" fill="url(#linear-gradient)"/>
            <path id="Trazado_67054" data-name="Trazado 67054" d="M2894.008,1093.676c.3-.914-1.363-2.184-3.5-3.817-1.121-.857-2.092-1.6-2.969-2.2a54.132,54.132,0,0,0,2.129,6.919C2892.05,1094.272,2893.734,1094.519,2894.008,1093.676Z" transform="translate(-2829.604 -1068.061)" fill="url(#linear-gradient)"/>
            <path id="Trazado_67055" data-name="Trazado 67055" d="M2898.761,1187.668c-.238,1.893,3.4,2.368,3.9,4.692.342,1.606-1.122,2.178-2.545,5.487-.849,1.976-2.419,5.626-.8,8.032,1.124,1.665,3.693,2.607,5.328,1.829,1.871-.89.915-3.27,2.783-5.089a5.172,5.172,0,0,1,3.78-1.281,54.654,54.654,0,0,1-10.628-16.048C2899.288,1186.239,2898.85,1186.955,2898.761,1187.668Z" transform="translate(-2839.648 -1156.645)" fill="url(#linear-gradient)"/>
            <path id="Trazado_67056" data-name="Trazado 67056" d="M2937.2,1169c1.162-1.274-.061-1.814,1.431-5.805.445-1.189,1.252-3.011,2.624-6.521.46-1.176.882-2.283.477-2.624-.567-.479-2.026,1.171-3.738.8-1.141-.251-1.643-1.237-2.227-1.908-3-3.455-11.328-2.244-15.9,1.113l-.01.007a54.648,54.648,0,0,0,10.628,16.048C2932.951,1170.078,2935.6,1170.759,2937.2,1169Z" transform="translate(-2858.925 -1125.412)" fill="url(#linear-gradient)"/>
          </g>
        </g>
      </g>
    </g>
    <path id="Trazado_67057" data-name="Trazado 67057" d="M2464.59,1334.2l-10.289-2.763s-12.632,0-14.6-12.9c0,0,21.906-13.035,15.963-31.253,0,0-20.109,4.432-17.408,28.839a199.035,199.035,0,0,1-12.059-31.7s18.237-6.758,12.207-22.606c0,0-12.812,1.113-15.208,14.544,0,0-4.236-12.692-4.93-20.056,0,0,13.635-5.354,10.135-19.917,0,0-9.887,4.126-11.816,14.114l-2.52-14.584s5.512-13.895-4.259-24.174c0,0-8.516,11.712,2.076,23.631l3.269,15.515s-8.989-11.165-17.851-6.075c0,0,8.469,15.163,18.953,12.089,0,0,2.671,14.463,6.52,23.888,0,0-8.79-16.181-23.4-10.806,0,0,3.348,14.684,23.64,14.194a266.622,266.622,0,0,0,13.137,32.106s-6.147-17.542-26.439-17.052c0,0-.512,18.558,27.549,21.527C2437.255,1320.767,2443.353,1342.755,2464.59,1334.2Z" transform="translate(-769.224 -970.868)" fill="#d6d5d7" style="mix-blend-mode: multiply;isolation: isolate"/>
    <path id="Trazado_67058" data-name="Trazado 67058" d="M2373.832,1377.265l-10.483-1.9s-12.588,1.052-15.623-11.637c0,0,20.745-14.814,13.3-32.474,0,0-19.67,6.091-14.946,30.188a199.016,199.016,0,0,1-14.656-30.582s17.61-8.253,10.282-23.544c0,0-12.675,2.176-13.945,15.76,0,0-5.278-12.295-6.583-19.575,0,0,13.141-6.471,8.442-20.691,0,0-9.51,4.935-10.6,15.048l-3.726-14.324s4.337-14.305-6.257-23.736c0,0-7.511,12.38,4.037,23.376l4.55,15.189s-9.887-10.378-18.3-4.568c0,0,9.7,14.4,19.894,10.468,0,0,3.866,14.19,8.487,23.262,0,0-10.107-15.393-24.223-8.819,0,0,4.559,14.355,24.74,12.177a266.676,266.676,0,0,0,15.765,30.9s-7.587-16.97-27.767-14.792c0,0,1.035,18.537,29.246,19.158C2345.474,1366.151,2353.381,1387.556,2373.832,1377.265Z" transform="translate(-680.338 -1014.463)" fill="#1b8c89"/>
    <g id="Grupo_32093" data-name="Grupo 32093" transform="translate(1730.592 280.879)">
      <g id="Grupo_32064" data-name="Grupo 32064" transform="translate(51.786 71.836)">
        <rect id="Rectángulo_6488" data-name="Rectángulo 6488" width="1.226" height="4.368" rx="0.613" transform="translate(2.007 4.294) rotate(169.414)" fill="#f5c0c9"/>
      </g>
      <g id="Grupo_32065" data-name="Grupo 32065" transform="translate(50.366 75.322)">
        <path id="Trazado_67059" data-name="Trazado 67059" d="M4051.094,2455.819l.435,1.9s-3.8.712-3.875,2.847c0,0-1.107,1.107-1.028-.633a7.286,7.286,0,0,1,1.7-3.6v-.474Z" transform="translate(-4046.622 -2455.819)" fill="#103e3a"/>
      </g>
      <g id="Grupo_32066" data-name="Grupo 32066" transform="translate(44.749 38.922)">
        <path id="Trazado_67060" data-name="Trazado 67060" d="M3986.033,2079.845l.017-.173a2.256,2.256,0,0,1,.041-.226l.029-.12a1.251,1.251,0,0,1,.041-.136,2.972,2.972,0,0,1,.145-.344l.483-.989c.149-.309.3-.617.446-.929q.885-1.865,1.7-3.774.471-1.107.915-2.234c.04-.1.078-.2.117-.3l3.659-7.066c.707-.132,1.405-.264,2.143-.416h0l8.849,2.254-5.166,4.612c-1.05.937-2.007,1.936-2.959,2.941s-1.855,2.042-2.746,3.088-1.753,2.113-2.6,3.192c-.214.268-.42.541-.628.812l-.312.407-.156.2,0,0c0-.037,0-.075-.005-.11,0-.012,0-.023,0-.035l.006-.018.013-.057c.007-.032.013-.093.014-.1a.408.408,0,0,0,0-.046c0-.042,0-.033-.008-.039s-.008,0-.011.016a1.007,1.007,0,0,0-.016.246l-.017.057a1.307,1.307,0,0,1-.094.227l-.026.047.01-.013.02-.025.039-.051.074-.1c.012.225.04.481.076.742a35.183,35.183,0,0,0,.863,3.84c.362,1.294.759,2.589,1.2,3.871a68.256,68.256,0,0,0,3.025,7.551l-2.626,1.1c-.919-2.6-1.95-5.125-3.006-7.667l-1.586-3.826c-.268-.642-.526-1.29-.781-1.948s-.507-1.325-.737-2.04c-.117-.359-.229-.727-.323-1.153a5.323,5.323,0,0,1-.116-.737c-.007-.07-.012-.146-.012-.24A2.6,2.6,0,0,1,3986.033,2079.845Z" transform="translate(-3986.025 -2063.135)" fill="#103e3a"/>
      </g>
      <g id="Grupo_32067" data-name="Grupo 32067" transform="translate(53.575 54.659)">
        <path id="Trazado_67061" data-name="Trazado 67061" d="M4109.435,2260.8a16.437,16.437,0,0,1-5.279,3.727,16.14,16.14,0,0,1-6.369,1.335,16.494,16.494,0,0,1-11.579-28.289,16.334,16.334,0,0,1,27.753,11.578A16.826,16.826,0,0,1,4109.435,2260.8Zm2.124-17.353a14.742,14.742,0,0,0-24.147-4.671,14.569,14.569,0,0,0,.208,20.542,14.393,14.393,0,0,0,10.167,4.17,15.1,15.1,0,0,0,10.305-4.031,14.6,14.6,0,0,0,3.332-4.656,14.37,14.37,0,0,0,1.235-5.649A14.972,14.972,0,0,0,4111.558,2243.45Z" transform="translate(-4081.244 -2232.905)" fill="#123e7d"/>
      </g>
      <g id="Grupo_32068" data-name="Grupo 32068" transform="translate(67.077 67.869)">
        <path id="Trazado_67062" data-name="Trazado 67062" d="M4226.9,2378.456a3.04,3.04,0,1,1,3.04,3.04A3.043,3.043,0,0,1,4226.9,2378.456Zm1.154,0a1.886,1.886,0,1,0,1.886-1.886A1.889,1.889,0,0,0,4228.059,2378.456Z" transform="translate(-4226.905 -2375.416)" fill="#123e7d"/>
      </g>
      <g id="Grupo_32069" data-name="Grupo 32069" transform="translate(0 54.273)">
        <path id="Trazado_67063" data-name="Trazado 67063" d="M3531.855,2256.969a16.558,16.558,0,0,1-23.571.391,16.637,16.637,0,1,1,23.523-23.523,16.312,16.312,0,0,1,3.414,5.346,17.918,17.918,0,0,1,1.156,6.2A16.29,16.29,0,0,1,3531.855,2256.969Zm-1.178-22a14.514,14.514,0,0,0-10.411-4.006,14.72,14.72,0,0,0-5.465,1.224,14.273,14.273,0,0,0-4.545,3.183,14.331,14.331,0,0,0-2.974,15.388,14.591,14.591,0,0,0,3.011,4.6,14.78,14.78,0,0,0,4.536,3.153,14.348,14.348,0,0,0,5.437,1.21,14.561,14.561,0,0,0,10.364-3.972,14.831,14.831,0,0,0,4.571-10.364A14.488,14.488,0,0,0,3530.677,2234.967Z" transform="translate(-3503.266 -2228.743)" fill="#123e7d"/>
      </g>
      <g id="Grupo_32070" data-name="Grupo 32070" transform="translate(13.96 67.709)">
        <path id="Trazado_67064" data-name="Trazado 67064" d="M3659.247,2379.23a3.233,3.233,0,0,1-2.339.857,3.2,3.2,0,0,1,0-6.392,3.2,3.2,0,0,1,2.339,5.535Zm-2.339-4.069a1.737,1.737,0,1,0,0,3.46,1.738,1.738,0,0,0,0-3.46Z" transform="translate(-3653.867 -2373.691)" fill="#123e7d"/>
      </g>
      <g id="Grupo_32071" data-name="Grupo 32071" transform="translate(42.024 69.116)">
        <path id="Trazado_67065" data-name="Trazado 67065" d="M3956.625,2392.783a3.913,3.913,0,1,1,3.913,3.914A3.918,3.918,0,0,1,3956.625,2392.783Zm1.154,0a2.76,2.76,0,1,0,2.76-2.76A2.763,2.763,0,0,0,3957.779,2392.783Z" transform="translate(-3956.625 -2388.87)" fill="#123e7d"/>
      </g>
      <g id="Grupo_32072" data-name="Grupo 32072" transform="translate(18.391 45.332)">
        <path id="Trazado_67066" data-name="Trazado 67066" d="M3753.82,2155l-14.76-15.85-.118-.127-.169-.041h0l-24.757-6.473-.875-.229-.377.872h0c-1.533,3.934-3.163,7.857-4.908,11.707-.876,1.924-1.785,3.833-2.77,5.69-.491.929-1.008,1.842-1.563,2.717a8.969,8.969,0,0,1-1.85,2.264l.616.976a9.652,9.652,0,0,0,2.3-2.53c.62-.9,1.187-1.813,1.726-2.742,1.081-1.857,2.075-3.751,3.037-5.659,1.917-3.821,3.7-7.685,5.414-11.608h0l-1.252.643,24.992,5.5h0l-.287-.168,14.76,15.85Z" transform="translate(-3701.672 -2132.284)" fill="#123e7d"/>
      </g>
      <g id="Grupo_32073" data-name="Grupo 32073" transform="translate(29.074 30.666)">
        <path id="Trazado_67067" data-name="Trazado 67067" d="M3821.061,1974.1c-.215.017-.625-.044-1.048-.035a2.519,2.519,0,0,0-1.373.415,4.3,4.3,0,0,0-.515.508c-.123.187-.248.377-.36.568a6.6,6.6,0,0,0-.407,1.157,7.652,7.652,0,0,0-.228,1.148c-.048.379-.119.763-.129,1.137l-.069,1.13-.01,1.121c-.016.75.021,1.49.051,2.232s.078,1.481.134,2.219c.091,1.479.272,2.941.414,4.412l1.611-.206c-.178-1.445-.4-2.89-.524-4.337-.074-.723-.152-1.447-.189-2.169s-.1-1.446-.107-2.164a17.516,17.516,0,0,1,.279-4.209,5.435,5.435,0,0,1,.29-.925l.219-.366c.079-.11.175-.174.254-.274a1.316,1.316,0,0,1,.7-.214c.31-.023.632.041,1.15,0Z" transform="translate(-3816.918 -1974.062)" fill="#123e7d"/>
      </g>
      <g id="Grupo_32074" data-name="Grupo 32074" transform="translate(49.312 69.673)">
        <path id="Trazado_67068" data-name="Trazado 67068" d="M4053.475,2394.879l-18.222,2.8.112,1.148,18.35-1.479Z" transform="translate(-4035.253 -2394.879)" fill="#123e7d"/>
      </g>
      <g id="Grupo_32075" data-name="Grupo 32075" transform="translate(36.758 68.983)">
        <path id="Trazado_67069" data-name="Trazado 67069" d="M3902.615,2387.436l-2.795,1.534,15.606,8.738.271-.123c1.6-.726,2.04-1.28,2.129-1.617l-1.116-.294a.384.384,0,0,1,.035-.091,3.35,3.35,0,0,1-1.258.827l-13.306-7.729.63-.108Z" transform="translate(-3899.82 -2387.436)" fill="#123e7d"/>
      </g>
      <g id="Grupo_32076" data-name="Grupo 32076" transform="translate(54.813 41.367)">
        <rect id="Rectángulo_6489" data-name="Rectángulo 6489" width="11.713" height="1.154" transform="translate(0 11.035) rotate(-70.408)" fill="#123e7d"/>
      </g>
      <g id="Grupo_32077" data-name="Grupo 32077" transform="translate(45.737 3.954)">
        <path id="Trazado_67070" data-name="Trazado 67070" d="M4002.307,1696.881l-1.74-3.005s-3.8.554-3.875-3.084.554-4.9.554-4.9l4.112.316,3.4,11.624Z" transform="translate(-3996.685 -1685.889)" fill="#f5c0c9"/>
      </g>
      <g id="Grupo_32078" data-name="Grupo 32078" transform="translate(30.224 29.574)">
        <path id="Trazado_67071" data-name="Trazado 67071" d="M3830.238,1964.508l2.75-.954a.635.635,0,0,0,.633-.633h0a.635.635,0,0,0-.633-.633h-2.8c-.348,0-.837.285-.837.633l-.021.628A1.274,1.274,0,0,0,3830.238,1964.508Z" transform="translate(-3829.33 -1962.287)" fill="#f5c0c9"/>
      </g>
      <g id="Grupo_32079" data-name="Grupo 32079" transform="translate(45.404 1.59)">
        <path id="Trazado_67072" data-name="Trazado 67072" d="M3995.486,1660.452c-1.023.1-2.61-.237-2.373,1.423s4.349,2.768,4.349,3.954,3.084,7.038,4.112,7.591,2.372-3.163,1.74-4.824c-.506-1.328.252-6.3-3.793-7.79A9.007,9.007,0,0,0,3995.486,1660.452Z" transform="translate(-3993.09 -1660.381)" fill="#103e3a"/>
      </g>
      <g id="Grupo_32080" data-name="Grupo 32080" transform="translate(48.771 56.027)">
        <path id="Trazado_67073" data-name="Trazado 67073" d="M4029.44,2247.682c0-.015.006-.025.01-.016s.006,0,.009.039c0,.015,0,.031,0,.046s-.007.07-.014.1l-.013.057-.005.018A1,1,0,0,1,4029.44,2247.682Z" transform="translate(-4029.424 -2247.663)" fill="#103e3a"/>
      </g>
      <g id="Grupo_32081" data-name="Grupo 32081" transform="translate(39.753 45.143)">
        <path id="Trazado_67074" data-name="Trazado 67074" d="M3932.157,2130.247c0,.012,0,.023-.008.035s-.013.044-.021.066c0-.013,0-.03.005-.042A.388.388,0,0,0,3932.157,2130.247Z" transform="translate(-3932.128 -2130.247)" fill="#103e3a"/>
      </g>
      <g id="Grupo_32082" data-name="Grupo 32082" transform="translate(48.635 56.292)">
        <path id="Trazado_67075" data-name="Trazado 67075" d="M4027.977,2250.811l-.02.026-.01.013.026-.047a1.312,1.312,0,0,0,.094-.227l.017-.057v.035c0,.035,0,.073.006.11l-.075.1Z" transform="translate(-4027.948 -2250.518)" fill="#103e3a"/>
      </g>
      <g id="Grupo_32083" data-name="Grupo 32083" transform="translate(48.692 39.318)">
        <path id="Trazado_67076" data-name="Trazado 67076" d="M4029.081,2073.146c.48-1.318,1.862-4.363,2.244-5.747l-.437,2.6-2.326,4.49C4028.738,2074.041,4028.914,2073.6,4029.081,2073.146Z" transform="translate(-4028.563 -2067.399)" fill="#103e3a"/>
      </g>
      <g id="Grupo_32084" data-name="Grupo 32084" transform="translate(48.538 46.405)">
        <path id="Trazado_67077" data-name="Trazado 67077" d="M4026.938,2144.161l-.037-.006.154-.3C4027.015,2143.959,4026.977,2144.061,4026.938,2144.161Z" transform="translate(-4026.901 -2143.858)" fill="#103e3a"/>
      </g>
      <g id="Grupo_32085" data-name="Grupo 32085" transform="translate(48.749 22.854)">
        <path id="Trazado_67078" data-name="Trazado 67078" d="M4029.177,1893.182s1.344,13.127,1.819,14.234,5.377,3.084,5.377,3.084l-4.587-20.718Z" transform="translate(-4029.177 -1889.782)" fill="#e95d00"/>
      </g>
      <g id="Grupo_32086" data-name="Grupo 32086" transform="translate(51.181 0)">
        <path id="Trazado_67079" data-name="Trazado 67079" d="M4059.61,1643.247c-1.049-.14-4.712.673-4.135,2.6s.769,5.481,3.173,5.193,4.135-.288,4.327-2.212S4062.494,1643.632,4059.61,1643.247Z" transform="translate(-4055.414 -1643.232)" fill="#103e3a"/>
      </g>
      <g id="Grupo_32087" data-name="Grupo 32087" transform="translate(51.221 2.611)">
        <path id="Trazado_67080" data-name="Trazado 67080" d="M4059.908,1676.405s-3.365-.192-4.039-5a6.055,6.055,0,0,0,4.327,6.346Z" transform="translate(-4055.849 -1671.405)" fill="#f48400"/>
      </g>
      <g id="Grupo_32091" data-name="Grupo 32091" transform="translate(36.784 40.625)">
        <g id="Grupo_32088" data-name="Grupo 32088" transform="translate(2.519 25.009)">
          <rect id="Rectángulo_6490" data-name="Rectángulo 6490" width="1.226" height="4.368" rx="0.613" transform="translate(1.226 4.368) rotate(180)" fill="#f5c0c9"/>
        </g>
        <g id="Grupo_32089" data-name="Grupo 32089" transform="translate(0 28.103)">
          <path id="Trazado_67081" data-name="Trazado 67081" d="M3904.37,2384.762l-.04,1.938a7.884,7.884,0,0,0-2.613,1.488,15.236,15.236,0,0,1-1.261,1.082c-.909-.83.2-3.044.316-3.163s1.463-.791,1.463-.791l.158-.633Z" transform="translate(-3900.1 -2384.683)" fill="#103e3a"/>
        </g>
        <g id="Grupo_32090" data-name="Grupo 32090" transform="translate(0.147)">
          <path id="Trazado_67082" data-name="Trazado 67082" d="M3901.716,2086.586l.024-.251.007-.062a.266.266,0,0,1,.007-.042l.037-.134a2.5,2.5,0,0,1,.212-.5,2.5,2.5,0,0,1,.468-.592l.114-.1.09-.073c.061-.047.123-.093.187-.138a4.879,4.879,0,0,1,1-.5c.268-.1.514-.183.744-.25.465-.135.892-.243,1.315-.34,1.678-.368,3.267-.633,4.869-.895l4.776-.783,2.388-.417c.092-.018.676.426.767.409,0,0,5.675,4.742,5.5,5.187l-3.812,1.875c-1.149-.184-8.289-.5-9.431-.616a39.07,39.07,0,0,0-4.463-.241c-.343.005-.679.017-.972.046l.006-.081s-.178.1-.026.083h.02l-.035.482c-.1,1.509-.146,3.07-.165,4.622s-.011,3.112.023,4.669c.072,3.114.22,6.23.551,9.327l-2.507.177c-.042-1.565-.146-3.122-.257-4.68s-.245-3.115-.4-4.672-.312-3.114-.478-4.676-.343-3.12-.49-4.731l-.055-.606-.034-.651c0-.113-.013-.208-.014-.337C3901.691,2086.921,3901.7,2086.754,3901.716,2086.586Z" transform="translate(-3901.685 -2081.502)" fill="#006e75"/>
        </g>
      </g>
      <g id="Grupo_32092" data-name="Grupo 32092" transform="translate(33.566 14.363)">
        <path id="Trazado_67083" data-name="Trazado 67083" d="M3888.551,1800.272s-1.977-2.373-4.428-2.056-9.173,12.969-9.173,12.969l-9.49,1.107-.079,3.954s10.6,0,11.546-.633a26.442,26.442,0,0,0,3.275-3.887s1.482,3.7,1.482,12.206c0,3.679,4.621,4.8,4.621,4.8s12.467,4.86,11.755,1.222-.875-6.1-2.931-10.848S3888.551,1800.272,3888.551,1800.272Z" transform="translate(-3865.381 -1798.187)" fill="#f48400"/>
      </g>
    </g>
  </g>
</svg>
