<svg xmlns="http://www.w3.org/2000/svg" width="122" height="122" viewBox="0 0 122 122">
  <g id="Grupo_22084" data-name="Grupo 22084" transform="translate(-625 -11123)">
    <circle id="Elipse_1058" data-name="Elipse 1058" cx="61" cy="61" r="61" transform="translate(625 11123)" fill="#0f3f9c"/>
    <path id="Trazado_39140" data-name="Trazado 39140" d="M18.555-7.4a7.5,7.5,0,0,1-.723,3.359A6.963,6.963,0,0,1,15.82-1.582,9.113,9.113,0,0,1,12.734-.068,14.141,14.141,0,0,1,8.809.449,14.991,14.991,0,0,1,6.387.264a14.557,14.557,0,0,1-2-.459A9.155,9.155,0,0,1,2.949-.762a4.183,4.183,0,0,1-.742-.449,1.041,1.041,0,0,1-.264-.352,2.9,2.9,0,0,1-.156-.459,3.82,3.82,0,0,1-.1-.664q-.029-.4-.029-.967a3.681,3.681,0,0,1,.156-1.3.5.5,0,0,1,.469-.361,1.746,1.746,0,0,1,.674.264,11.887,11.887,0,0,0,1.221.566,14.389,14.389,0,0,0,1.738.566,8.875,8.875,0,0,0,2.266.264,6.417,6.417,0,0,0,1.895-.254,4.216,4.216,0,0,0,1.4-.713,2.859,2.859,0,0,0,.859-1.113,3.626,3.626,0,0,0,.283-1.455,3.572,3.572,0,0,0-.342-1.582,3.253,3.253,0,0,0-1.016-1.2,5,5,0,0,0-1.7-.771,9.428,9.428,0,0,0-2.412-.273H4.961a1.19,1.19,0,0,1-.43-.068.584.584,0,0,1-.293-.283,1.723,1.723,0,0,1-.166-.6,8.049,8.049,0,0,1-.049-.986,7.17,7.17,0,0,1,.049-.928,1.638,1.638,0,0,1,.156-.557.615.615,0,0,1,.273-.273.934.934,0,0,1,.4-.078H7.109a7.008,7.008,0,0,0,2.012-.264A4.2,4.2,0,0,0,10.6-15.8a3.221,3.221,0,0,0,.908-1.182,3.689,3.689,0,0,0,.313-1.533,3.465,3.465,0,0,0-.215-1.221,2.747,2.747,0,0,0-.635-1A2.941,2.941,0,0,0,9.883-21.4a4.526,4.526,0,0,0-1.562-.244,5.955,5.955,0,0,0-1.914.3,12.155,12.155,0,0,0-1.611.664q-.713.361-1.211.674a1.658,1.658,0,0,1-.732.313.533.533,0,0,1-.273-.068.51.51,0,0,1-.2-.264,2.229,2.229,0,0,1-.117-.566,9.486,9.486,0,0,1-.039-.957q0-.488.02-.811a2.705,2.705,0,0,1,.078-.537,1.633,1.633,0,0,1,.146-.371,1.531,1.531,0,0,1,.283-.342,5.529,5.529,0,0,1,.8-.557,9.336,9.336,0,0,1,1.523-.723,13.437,13.437,0,0,1,2.119-.6A13.1,13.1,0,0,1,9.8-25.723a11.212,11.212,0,0,1,3.252.43,6.674,6.674,0,0,1,2.383,1.24A5.192,5.192,0,0,1,16.9-22.061a6.8,6.8,0,0,1,.5,2.666,7.583,7.583,0,0,1-.293,2.148,5.777,5.777,0,0,1-.859,1.777,5.212,5.212,0,0,1-1.416,1.328,6.431,6.431,0,0,1-1.963.82v.059a7.308,7.308,0,0,1,2.383.674,6.106,6.106,0,0,1,1.787,1.3,5.553,5.553,0,0,1,1.123,1.768A5.7,5.7,0,0,1,18.555-7.4Z" transform="translate(677 11192)" fill="#fff"/>
  </g>
</svg>
