<svg xmlns="http://www.w3.org/2000/svg" width="122" height="122" viewBox="0 0 122 122">
  <g id="Grupo_22085" data-name="Grupo 22085" transform="translate(-1174 -11123)">
    <circle id="Elipse_1059" data-name="Elipse 1059" cx="61" cy="61" r="61" transform="translate(1174 11123)" fill="#c67e82"/>
    <path id="Trazado_39141" data-name="Trazado 39141" d="M19.453-7.266a4.3,4.3,0,0,1-.205,1.514q-.205.518-.557.518H16.445v4.57a.531.531,0,0,1-.117.342.866.866,0,0,1-.41.244,3.677,3.677,0,0,1-.762.146q-.469.049-1.211.049-.7,0-1.182-.049A3.508,3.508,0,0,1,12-.078a.792.792,0,0,1-.391-.244A.562.562,0,0,1,11.5-.664v-4.57H1.836A1.609,1.609,0,0,1,1.348-5.3a.662.662,0,0,1-.361-.312,1.953,1.953,0,0,1-.215-.7A8.655,8.655,0,0,1,.7-7.539q0-.625.029-1.084a7.108,7.108,0,0,1,.1-.83,3.987,3.987,0,0,1,.2-.7,6.516,6.516,0,0,1,.322-.7L9.2-24.707a.8.8,0,0,1,.332-.3,2.473,2.473,0,0,1,.654-.215,7.584,7.584,0,0,1,1.064-.127q.645-.039,1.563-.039,1,0,1.7.049a6.54,6.54,0,0,1,1.123.156,1.664,1.664,0,0,1,.615.264.464.464,0,0,1,.2.371V-9.336h2.246q.313,0,.537.479A4.052,4.052,0,0,1,19.453-7.266ZM11.5-20.957h-.039L4.8-9.336h6.7Z" transform="translate(1225 11192)" fill="#fff"/>
  </g>
</svg>
