<svg xmlns="http://www.w3.org/2000/svg" width="789" height="549" viewBox="0 0 789 549">
  <g id="Grupo_22061" data-name="Grupo 22061" transform="translate(-528 -8164)">
    <path id="Trazado_38345" data-name="Trazado 38345" d="M813.99,392.193l-14.693,56L768.654,565.023l-56.117-60.252c-64.426,29.751-145.816,47.5-234.3,47.5-208.884,0-378.249-98.94-378.249-221,0-120.382,164.765-218.308,369.717-220.943C308.428,146,194.593,224.307,202.942,302.13,212.812,394,389.189,450.4,596.9,428.1q20.033-2.158,39.418-5.148L576,358.186l202.6,28.94Z" transform="translate(503.01 8118.67)" fill="#45c3cc"/>
    <path id="Trazado_39099" data-name="Trazado 39099" d="M65,0A65,65,0,1,1,0,65,65,65,0,0,1,65,0Z" transform="translate(804 8583)" fill="#fdd108"/>
    <path id="Trazado_39089" data-name="Trazado 39089" d="M65,0A65,65,0,1,1,0,65,65,65,0,0,1,65,0Z" transform="translate(879 8164)" fill="#fdd108"/>
    <path id="Trazado_39090" data-name="Trazado 39090" d="M4.351-10.742A1.7,1.7,0,0,1,5.6-11.258a1.715,1.715,0,0,1,1.251.516A1.689,1.689,0,0,1,7.369-9.5a1.684,1.684,0,0,1-.521,1.251,1.725,1.725,0,0,1-1.251.51,1.694,1.694,0,0,1-1.235-.51A1.693,1.693,0,0,1,3.846-9.5,1.716,1.716,0,0,1,4.351-10.742Zm2.535,4.49v1.16a2.571,2.571,0,0,1-.263,1.2,2.406,2.406,0,0,1-.682.822,7.531,7.531,0,0,1-1.149.682A2.324,2.324,0,0,0,3.459-.129a2.232,2.232,0,0,0,.612,1.692,2.235,2.235,0,0,0,1.611.585A2.2,2.2,0,0,0,7.3,1.542a2.147,2.147,0,0,0,.612-1.6A4.219,4.219,0,0,0,7.788-1l2.771.354a7.094,7.094,0,0,1,.054.806A4.286,4.286,0,0,1,9.26,3.438,4.962,4.962,0,0,1,5.726,4.705a5.108,5.108,0,0,1-3.6-1.294A4.479,4.479,0,0,1,.72-.054a5.111,5.111,0,0,1,.236-1.6A3.628,3.628,0,0,1,1.6-2.863a4.415,4.415,0,0,1,.865-.806,4.6,4.6,0,0,1,.994-.521,1.676,1.676,0,0,0,.709-.478,1.167,1.167,0,0,0,.226-.747v-.838ZM28.864.645,26.179,1.665,24.191-.569a8.8,8.8,0,0,1-3.738.784,8.609,8.609,0,0,1-4.12-.972,7.117,7.117,0,0,1-2.868-2.8,8.313,8.313,0,0,1-1.047-4.211,8.305,8.305,0,0,1,1.047-4.216,7.1,7.1,0,0,1,2.863-2.788,8.639,8.639,0,0,1,4.125-.967,8.639,8.639,0,0,1,4.125.967,7.1,7.1,0,0,1,2.863,2.788,8.305,8.305,0,0,1,1.047,4.216,7.815,7.815,0,0,1-2.062,5.6ZM15.63-7.767a5.19,5.19,0,0,0,1.354,3.8,4.649,4.649,0,0,0,3.47,1.38,4.649,4.649,0,0,0,3.47-1.38,5.19,5.19,0,0,0,1.354-3.8,4.914,4.914,0,0,0-1.364-3.652,4.707,4.707,0,0,0-3.459-1.354,4.707,4.707,0,0,0-3.459,1.354A4.914,4.914,0,0,0,15.63-7.767Zm22.892-3.276h3.094V0H38.683l-.075-1.332A4.217,4.217,0,0,1,35.095.215a4.3,4.3,0,0,1-3.051-.994A3.684,3.684,0,0,1,30.98-3.609v-7.434h3.1v6.768a1.909,1.909,0,0,0,.553,1.515,2.1,2.1,0,0,0,1.434.483,2.49,2.49,0,0,0,1.756-.628,2.7,2.7,0,0,0,.693-2.046Zm14.7-4.426L50.778-12.59h-1.9l2.814-3.953ZM55.2-5.683l-.032.741H46.986a2.859,2.859,0,0,0,.881,2.02,2.817,2.817,0,0,0,1.944.7A2.715,2.715,0,0,0,51.267-2.6,2.344,2.344,0,0,0,52.2-3.717l2.836.419A4.821,4.821,0,0,1,53.1-.709a5.749,5.749,0,0,1-3.266.924,5.978,5.978,0,0,1-4.3-1.52,5.546,5.546,0,0,1-1.6-4.216,5.579,5.579,0,0,1,1.6-4.216,5.8,5.8,0,0,1,4.2-1.542A5.544,5.544,0,0,1,53.7-9.872,5.52,5.52,0,0,1,55.2-5.683ZM49.758-9.088a2.445,2.445,0,0,0-2.686,2.127h5.07A2.326,2.326,0,0,0,51.38-8.54,2.417,2.417,0,0,0,49.758-9.088ZM60.4-4.791v-1.16a2.571,2.571,0,0,1,.263-1.2,2.406,2.406,0,0,1,.682-.822A7.531,7.531,0,0,1,62.5-8.658a2.324,2.324,0,0,0,1.332-2.256,2.232,2.232,0,0,0-.612-1.692,2.235,2.235,0,0,0-1.611-.585,2.2,2.2,0,0,0-1.622.607,2.147,2.147,0,0,0-.612,1.6,4.219,4.219,0,0,0,.129.945L56.729-10.4a7.093,7.093,0,0,1-.054-.806,4.286,4.286,0,0,1,1.354-3.276,4.962,4.962,0,0,1,3.534-1.268,5.108,5.108,0,0,1,3.6,1.294,4.479,4.479,0,0,1,1.407,3.464,5.111,5.111,0,0,1-.236,1.6,3.628,3.628,0,0,1-.645,1.208,4.415,4.415,0,0,1-.865.806,4.6,4.6,0,0,1-.994.521,1.676,1.676,0,0,0-.709.478,1.167,1.167,0,0,0-.226.747v.838ZM62.928-.3a1.663,1.663,0,0,1-1.235.516A1.715,1.715,0,0,1,60.441-.3a1.689,1.689,0,0,1-.521-1.246A1.684,1.684,0,0,1,60.441-2.8a1.725,1.725,0,0,1,1.251-.51,1.694,1.694,0,0,1,1.235.51,1.693,1.693,0,0,1,.516,1.251A1.7,1.7,0,0,1,62.928-.3Z" transform="translate(909 8232)" fill="#00223d"/>
    <path id="Trazado_39087" data-name="Trazado 39087" d="M65,0A65,65,0,1,1,0,65,65,65,0,0,1,65,0Z" transform="translate(634 8208)" fill="#fdd108"/>
    <path id="Trazado_39088" data-name="Trazado 39088" d="M4.351-10.742A1.7,1.7,0,0,1,5.6-11.258a1.715,1.715,0,0,1,1.251.516A1.689,1.689,0,0,1,7.369-9.5a1.684,1.684,0,0,1-.521,1.251,1.725,1.725,0,0,1-1.251.51,1.694,1.694,0,0,1-1.235-.51A1.693,1.693,0,0,1,3.846-9.5,1.716,1.716,0,0,1,4.351-10.742Zm2.535,4.49v1.16a2.571,2.571,0,0,1-.263,1.2,2.406,2.406,0,0,1-.682.822,7.531,7.531,0,0,1-1.149.682A2.324,2.324,0,0,0,3.459-.129a2.232,2.232,0,0,0,.612,1.692,2.235,2.235,0,0,0,1.611.585A2.2,2.2,0,0,0,7.3,1.542a2.147,2.147,0,0,0,.612-1.6A4.219,4.219,0,0,0,7.788-1l2.771.354a7.094,7.094,0,0,1,.054.806A4.286,4.286,0,0,1,9.26,3.438,4.962,4.962,0,0,1,5.726,4.705a5.108,5.108,0,0,1-3.6-1.294A4.479,4.479,0,0,1,.72-.054a5.111,5.111,0,0,1,.236-1.6A3.628,3.628,0,0,1,1.6-2.863a4.415,4.415,0,0,1,.865-.806,4.6,4.6,0,0,1,.994-.521,1.676,1.676,0,0,0,.709-.478,1.167,1.167,0,0,0,.226-.747v-.838ZM28.864.645,26.179,1.665,24.191-.569a8.8,8.8,0,0,1-3.738.784,8.609,8.609,0,0,1-4.12-.972,7.117,7.117,0,0,1-2.868-2.8,8.313,8.313,0,0,1-1.047-4.211,8.305,8.305,0,0,1,1.047-4.216,7.1,7.1,0,0,1,2.863-2.788,8.639,8.639,0,0,1,4.125-.967,8.639,8.639,0,0,1,4.125.967,7.1,7.1,0,0,1,2.863,2.788,8.305,8.305,0,0,1,1.047,4.216,7.815,7.815,0,0,1-2.062,5.6ZM15.63-7.767a5.19,5.19,0,0,0,1.354,3.8,4.649,4.649,0,0,0,3.47,1.38,4.649,4.649,0,0,0,3.47-1.38,5.19,5.19,0,0,0,1.354-3.8,4.914,4.914,0,0,0-1.364-3.652,4.707,4.707,0,0,0-3.459-1.354,4.707,4.707,0,0,0-3.459,1.354A4.914,4.914,0,0,0,15.63-7.767Zm22.892-3.276h3.094V0H38.683l-.075-1.332A4.217,4.217,0,0,1,35.095.215a4.3,4.3,0,0,1-3.051-.994A3.684,3.684,0,0,1,30.98-3.609v-7.434h3.1v6.768a1.909,1.909,0,0,0,.553,1.515,2.1,2.1,0,0,0,1.434.483,2.49,2.49,0,0,0,1.756-.628,2.7,2.7,0,0,0,.693-2.046ZM46.4-12.7a1.737,1.737,0,0,1-1.268-.521A1.71,1.71,0,0,1,44.6-14.48a1.69,1.69,0,0,1,.532-1.251,1.742,1.742,0,0,1,1.262-.521,1.712,1.712,0,0,1,1.246.521,1.7,1.7,0,0,1,.526,1.251,1.71,1.71,0,0,1-.526,1.262A1.712,1.712,0,0,1,46.4-12.7ZM44.816,0V-11.043h3.115V0ZM59.533-15.469,57.095-12.59h-1.9l2.814-3.953Zm1.987,9.786-.032.741H53.3a2.859,2.859,0,0,0,.881,2.02,2.817,2.817,0,0,0,1.944.7A2.715,2.715,0,0,0,57.583-2.6a2.344,2.344,0,0,0,.929-1.112l2.836.419A4.821,4.821,0,0,1,59.415-.709a5.749,5.749,0,0,1-3.266.924,5.978,5.978,0,0,1-4.3-1.52,5.546,5.546,0,0,1-1.6-4.216,5.579,5.579,0,0,1,1.6-4.216,5.8,5.8,0,0,1,4.2-1.542,5.544,5.544,0,0,1,3.964,1.407A5.52,5.52,0,0,1,61.521-5.683ZM56.074-9.088a2.445,2.445,0,0,0-2.686,2.127h5.07A2.326,2.326,0,0,0,57.7-8.54,2.417,2.417,0,0,0,56.074-9.088Zm14.319-2.17a4.3,4.3,0,0,1,3.051.994,3.684,3.684,0,0,1,1.063,2.831V0H71.4V-6.768a1.924,1.924,0,0,0-.553-1.525,2.084,2.084,0,0,0-1.423-.483,2.908,2.908,0,0,0-.924.14,2.373,2.373,0,0,0-.773.435,1.923,1.923,0,0,0-.553.833,3.85,3.85,0,0,0-.209,1.278V0H63.873V-11.043h3.094v1.225A4.255,4.255,0,0,1,70.394-11.258Zm9.958,6.467v-1.16a2.571,2.571,0,0,1,.263-1.2,2.406,2.406,0,0,1,.682-.822,7.531,7.531,0,0,1,1.149-.682,2.324,2.324,0,0,0,1.332-2.256,2.232,2.232,0,0,0-.612-1.692,2.235,2.235,0,0,0-1.611-.585,2.2,2.2,0,0,0-1.622.607,2.147,2.147,0,0,0-.612,1.6,4.219,4.219,0,0,0,.129.945L76.678-10.4a7.094,7.094,0,0,1-.054-.806,4.286,4.286,0,0,1,1.354-3.276,4.962,4.962,0,0,1,3.534-1.268,5.108,5.108,0,0,1,3.6,1.294,4.479,4.479,0,0,1,1.407,3.464,5.111,5.111,0,0,1-.236,1.6,3.628,3.628,0,0,1-.645,1.208,4.415,4.415,0,0,1-.865.806,4.6,4.6,0,0,1-.994.521,1.676,1.676,0,0,0-.709.478,1.167,1.167,0,0,0-.226.747v.838ZM82.876-.3a1.663,1.663,0,0,1-1.235.516A1.715,1.715,0,0,1,80.389-.3a1.689,1.689,0,0,1-.521-1.246A1.684,1.684,0,0,1,80.389-2.8a1.725,1.725,0,0,1,1.251-.51,1.694,1.694,0,0,1,1.235.51,1.693,1.693,0,0,1,.516,1.251A1.7,1.7,0,0,1,82.876-.3Z" transform="translate(656 8280)" fill="#00223d"/>
    <path id="Trazado_39091" data-name="Trazado 39091" d="M65,0A65,65,0,1,1,0,65,65,65,0,0,1,65,0Z" transform="translate(528 8359)" fill="#fdd108"/>
    <path id="Trazado_39092" data-name="Trazado 39092" d="M4.351-10.742A1.7,1.7,0,0,1,5.6-11.258a1.715,1.715,0,0,1,1.251.516A1.689,1.689,0,0,1,7.369-9.5a1.684,1.684,0,0,1-.521,1.251,1.725,1.725,0,0,1-1.251.51,1.694,1.694,0,0,1-1.235-.51A1.693,1.693,0,0,1,3.846-9.5,1.716,1.716,0,0,1,4.351-10.742Zm2.535,4.49v1.16a2.571,2.571,0,0,1-.263,1.2,2.406,2.406,0,0,1-.682.822,7.531,7.531,0,0,1-1.149.682A2.324,2.324,0,0,0,3.459-.129a2.232,2.232,0,0,0,.612,1.692,2.235,2.235,0,0,0,1.611.585A2.2,2.2,0,0,0,7.3,1.542a2.147,2.147,0,0,0,.612-1.6A4.219,4.219,0,0,0,7.788-1l2.771.354a7.094,7.094,0,0,1,.054.806A4.286,4.286,0,0,1,9.26,3.438,4.962,4.962,0,0,1,5.726,4.705a5.108,5.108,0,0,1-3.6-1.294A4.479,4.479,0,0,1,.72-.054a5.111,5.111,0,0,1,.236-1.6A3.628,3.628,0,0,1,1.6-2.863a4.415,4.415,0,0,1,.865-.806,4.6,4.6,0,0,1,.994-.521,1.676,1.676,0,0,0,.709-.478,1.167,1.167,0,0,0,.226-.747v-.838ZM20.378.215a8.664,8.664,0,0,1-3.164-.569A7.439,7.439,0,0,1,14.7-1.944a7.167,7.167,0,0,1-1.654-2.524,8.8,8.8,0,0,1-.6-3.3,8.408,8.408,0,0,1,1.031-4.216A7.021,7.021,0,0,1,16.3-14.771a8.476,8.476,0,0,1,4.077-.967,8.237,8.237,0,0,1,4.555,1.257,6.88,6.88,0,0,1,2.782,3.459l-3.008,1.1a4.252,4.252,0,0,0-1.665-2.095,4.756,4.756,0,0,0-2.664-.752,4.559,4.559,0,0,0-3.395,1.354,4.98,4.98,0,0,0-1.332,3.652,4.988,4.988,0,0,0,1.337,3.658A4.554,4.554,0,0,0,20.378-2.75a4.738,4.738,0,0,0,2.659-.757,4.271,4.271,0,0,0,1.67-2.1l3.008,1.1a6.908,6.908,0,0,1-2.782,3.464A8.211,8.211,0,0,1,20.378.215ZM34.139-12.547,36.953-16.5l1.525,1.074L36.04-12.547ZM35.095.215a6.944,6.944,0,0,1-3.126-.677,5.058,5.058,0,0,1-2.143-1.987,5.922,5.922,0,0,1-.779-3.083,5.4,5.4,0,0,1,1.676-4.189,6.217,6.217,0,0,1,4.372-1.536,6.232,6.232,0,0,1,4.383,1.536,5.4,5.4,0,0,1,1.676,4.189,5.432,5.432,0,0,1-1.676,4.206A6.219,6.219,0,0,1,35.095.215Zm-.032-2.46a2.835,2.835,0,0,0,2.186-.9,3.378,3.378,0,0,0,.833-2.385,3.378,3.378,0,0,0-.833-2.385,2.835,2.835,0,0,0-2.186-.9,2.731,2.731,0,0,0-2.122.908,3.409,3.409,0,0,0-.822,2.379,3.409,3.409,0,0,0,.822,2.379A2.731,2.731,0,0,0,35.063-2.245Zm21.474-9.013a4.219,4.219,0,0,1,2.847.9,3.209,3.209,0,0,1,1.042,2.573V0H57.331V-6.907a1.845,1.845,0,0,0-.494-1.4,1.731,1.731,0,0,0-1.246-.473,2,2,0,0,0-1.5.6,2.732,2.732,0,0,0-.58,1.944V0H50.381V-6.875A1.894,1.894,0,0,0,49.887-8.3a1.762,1.762,0,0,0-1.278-.478,1.932,1.932,0,0,0-1.493.634,3.027,3.027,0,0,0-.58,2.073V0H43.452V-11.043h3.083v1.3a3.755,3.755,0,0,1,3.2-1.515,4.722,4.722,0,0,1,2.079.424A2.829,2.829,0,0,1,53.12-9.6,3.9,3.9,0,0,1,56.536-11.258ZM68.578.215a6.944,6.944,0,0,1-3.126-.677,5.058,5.058,0,0,1-2.143-1.987,5.922,5.922,0,0,1-.779-3.083,5.4,5.4,0,0,1,1.676-4.189,6.217,6.217,0,0,1,4.372-1.536,6.232,6.232,0,0,1,4.383,1.536,5.4,5.4,0,0,1,1.676,4.189,5.432,5.432,0,0,1-1.676,4.206A6.219,6.219,0,0,1,68.578.215Zm-.032-2.46a2.835,2.835,0,0,0,2.186-.9,3.378,3.378,0,0,0,.833-2.385,3.378,3.378,0,0,0-.833-2.385,2.835,2.835,0,0,0-2.186-.9,2.731,2.731,0,0,0-2.122.908A3.409,3.409,0,0,0,65.6-5.532a3.409,3.409,0,0,0,.822,2.379A2.731,2.731,0,0,0,68.546-2.245ZM79.782-4.791v-1.16a2.571,2.571,0,0,1,.263-1.2,2.406,2.406,0,0,1,.682-.822,7.531,7.531,0,0,1,1.149-.682,2.324,2.324,0,0,0,1.332-2.256,2.232,2.232,0,0,0-.612-1.692,2.235,2.235,0,0,0-1.611-.585,2.2,2.2,0,0,0-1.622.607,2.147,2.147,0,0,0-.612,1.6,4.219,4.219,0,0,0,.129.945L76.108-10.4a7.094,7.094,0,0,1-.054-.806,4.286,4.286,0,0,1,1.354-3.276,4.962,4.962,0,0,1,3.534-1.268,5.108,5.108,0,0,1,3.6,1.294,4.479,4.479,0,0,1,1.407,3.464,5.111,5.111,0,0,1-.236,1.6,3.628,3.628,0,0,1-.645,1.208,4.415,4.415,0,0,1-.865.806,4.6,4.6,0,0,1-.994.521,1.676,1.676,0,0,0-.709.478,1.167,1.167,0,0,0-.226.747v.838ZM82.307-.3a1.663,1.663,0,0,1-1.235.516A1.715,1.715,0,0,1,79.82-.3,1.689,1.689,0,0,1,79.3-1.547,1.684,1.684,0,0,1,79.82-2.8a1.725,1.725,0,0,1,1.251-.51,1.694,1.694,0,0,1,1.235.51,1.693,1.693,0,0,1,.516,1.251A1.7,1.7,0,0,1,82.307-.3Z" transform="translate(544 8431)" fill="#00223d"/>
    <path id="Trazado_39096" data-name="Trazado 39096" d="M65,0A65,65,0,1,1,0,65,65,65,0,0,1,65,0Z" transform="translate(624 8517)" fill="#fdd108"/>
    <path id="Trazado_39097" data-name="Trazado 39097" d="M4.351-10.742A1.7,1.7,0,0,1,5.6-11.258a1.715,1.715,0,0,1,1.251.516A1.689,1.689,0,0,1,7.369-9.5a1.684,1.684,0,0,1-.521,1.251,1.725,1.725,0,0,1-1.251.51,1.694,1.694,0,0,1-1.235-.51A1.693,1.693,0,0,1,3.846-9.5,1.716,1.716,0,0,1,4.351-10.742Zm2.535,4.49v1.16a2.571,2.571,0,0,1-.263,1.2,2.406,2.406,0,0,1-.682.822,7.531,7.531,0,0,1-1.149.682A2.324,2.324,0,0,0,3.459-.129a2.232,2.232,0,0,0,.612,1.692,2.235,2.235,0,0,0,1.611.585A2.2,2.2,0,0,0,7.3,1.542a2.147,2.147,0,0,0,.612-1.6A4.219,4.219,0,0,0,7.788-1l2.771.354a7.094,7.094,0,0,1,.054.806A4.286,4.286,0,0,1,9.26,3.438,4.962,4.962,0,0,1,5.726,4.705a5.108,5.108,0,0,1-3.6-1.294A4.479,4.479,0,0,1,.72-.054a5.111,5.111,0,0,1,.236-1.6A3.628,3.628,0,0,1,1.6-2.863a4.415,4.415,0,0,1,.865-.806,4.6,4.6,0,0,1,.994-.521,1.676,1.676,0,0,0,.709-.478,1.167,1.167,0,0,0,.226-.747v-.838ZM20.378.215a8.664,8.664,0,0,1-3.164-.569A7.439,7.439,0,0,1,14.7-1.944a7.167,7.167,0,0,1-1.654-2.524,8.8,8.8,0,0,1-.6-3.3,8.408,8.408,0,0,1,1.031-4.216A7.021,7.021,0,0,1,16.3-14.771a8.476,8.476,0,0,1,4.077-.967,8.237,8.237,0,0,1,4.555,1.257,6.88,6.88,0,0,1,2.782,3.459l-3.008,1.1a4.252,4.252,0,0,0-1.665-2.095,4.756,4.756,0,0,0-2.664-.752,4.559,4.559,0,0,0-3.395,1.354,4.98,4.98,0,0,0-1.332,3.652,4.988,4.988,0,0,0,1.337,3.658A4.554,4.554,0,0,0,20.378-2.75a4.738,4.738,0,0,0,2.659-.757,4.271,4.271,0,0,0,1.67-2.1l3.008,1.1a6.908,6.908,0,0,1-2.782,3.464A8.211,8.211,0,0,1,20.378.215ZM37.265-11.043h3.094V0H37.426l-.075-1.332A4.217,4.217,0,0,1,33.838.215a4.3,4.3,0,0,1-3.051-.994,3.684,3.684,0,0,1-1.063-2.831v-7.434h3.1v6.768a1.909,1.909,0,0,0,.553,1.515,2.1,2.1,0,0,0,1.434.483,2.49,2.49,0,0,0,1.756-.628,2.7,2.7,0,0,0,.693-2.046Zm14.147-4.394-2.438,2.879h-1.9l2.814-3.953ZM52.615-3a10.331,10.331,0,0,0,.269,2.7V0h-2.89l-.247-1.2A3.591,3.591,0,0,1,48.2-.14a5.7,5.7,0,0,1-2,.354,5.254,5.254,0,0,1-1.031-.1,3.506,3.506,0,0,1-.929-.328,2.82,2.82,0,0,1-.768-.575,2.52,2.52,0,0,1-.516-.875,3.488,3.488,0,0,1-.193-1.2,3.322,3.322,0,0,1,.2-1.2,2.807,2.807,0,0,1,.537-.9,3.258,3.258,0,0,1,.87-.655,6.658,6.658,0,0,1,1.1-.473,13.092,13.092,0,0,1,1.311-.344L48.6-6.832a2,2,0,0,0,.822-.349.7.7,0,0,0,.242-.553A1.14,1.14,0,0,0,49.119-8.8,2.533,2.533,0,0,0,47.8-9.12a1.894,1.894,0,0,0-2.159,1.687L42.9-7.928a3.708,3.708,0,0,1,1.6-2.519,6.362,6.362,0,0,1,3.47-.811q4.641,0,4.641,3.985ZM47.169-1.88a2.488,2.488,0,0,0,1.912-.8,3.372,3.372,0,0,0,.741-2.369L47.2-4.308a3.1,3.1,0,0,0-1.1.451.927.927,0,0,0-.381.795,1.029,1.029,0,0,0,.408.875A1.689,1.689,0,0,0,47.169-1.88Zm14.975-9.378a4.3,4.3,0,0,1,3.051.994,3.684,3.684,0,0,1,1.063,2.831V0h-3.1V-6.768A1.923,1.923,0,0,0,62.6-8.293a2.084,2.084,0,0,0-1.423-.483,2.908,2.908,0,0,0-.924.14,2.373,2.373,0,0,0-.773.435,1.923,1.923,0,0,0-.553.833,3.85,3.85,0,0,0-.209,1.278V0H55.623V-11.043h3.094v1.225A4.255,4.255,0,0,1,62.144-11.258ZM77.086-16.5H80.18V0H77.247l-.075-1.439a3.154,3.154,0,0,1-1.4,1.251A4.719,4.719,0,0,1,73.7.258a5.371,5.371,0,0,1-2.062-.4,5.12,5.12,0,0,1-1.692-1.123A5.117,5.117,0,0,1,68.8-3.083,6.717,6.717,0,0,1,68.385-5.5a6.278,6.278,0,0,1,.73-3.078,5.005,5.005,0,0,1,1.928-2,5.31,5.31,0,0,1,2.659-.677,4.837,4.837,0,0,1,2,.4,3.128,3.128,0,0,1,1.38,1.144ZM74.411-2.31A2.754,2.754,0,0,0,76.5-3.19a3.225,3.225,0,0,0,.833-2.31A3.232,3.232,0,0,0,76.5-7.815,2.751,2.751,0,0,0,74.411-8.7a2.783,2.783,0,0,0-2.1.87A3.231,3.231,0,0,0,71.479-5.5a3.216,3.216,0,0,0,.833,2.32A2.783,2.783,0,0,0,74.411-2.31ZM88.526.215A6.944,6.944,0,0,1,85.4-.462a5.058,5.058,0,0,1-2.143-1.987,5.922,5.922,0,0,1-.779-3.083,5.4,5.4,0,0,1,1.676-4.189,6.217,6.217,0,0,1,4.372-1.536,6.232,6.232,0,0,1,4.383,1.536,5.4,5.4,0,0,1,1.676,4.189,5.432,5.432,0,0,1-1.676,4.206A6.219,6.219,0,0,1,88.526.215Zm-.032-2.46a2.835,2.835,0,0,0,2.186-.9,3.378,3.378,0,0,0,.833-2.385,3.378,3.378,0,0,0-.833-2.385,2.835,2.835,0,0,0-2.186-.9,2.731,2.731,0,0,0-2.122.908,3.409,3.409,0,0,0-.822,2.379,3.409,3.409,0,0,0,.822,2.379A2.731,2.731,0,0,0,88.494-2.245ZM99.73-4.791v-1.16a2.571,2.571,0,0,1,.263-1.2,2.406,2.406,0,0,1,.682-.822,7.531,7.531,0,0,1,1.149-.682,2.324,2.324,0,0,0,1.332-2.256,2.232,2.232,0,0,0-.612-1.692,2.235,2.235,0,0,0-1.611-.585,2.2,2.2,0,0,0-1.622.607,2.147,2.147,0,0,0-.612,1.6,4.219,4.219,0,0,0,.129.945L96.057-10.4A7.094,7.094,0,0,1,96-11.2a4.286,4.286,0,0,1,1.354-3.276,4.962,4.962,0,0,1,3.534-1.268,5.108,5.108,0,0,1,3.6,1.294,4.479,4.479,0,0,1,1.407,3.464,5.111,5.111,0,0,1-.236,1.6,3.628,3.628,0,0,1-.645,1.208,4.415,4.415,0,0,1-.865.806,4.6,4.6,0,0,1-.994.521,1.676,1.676,0,0,0-.709.478,1.167,1.167,0,0,0-.226.747v.838ZM102.255-.3a1.663,1.663,0,0,1-1.235.516A1.715,1.715,0,0,1,99.768-.3a1.689,1.689,0,0,1-.521-1.246A1.684,1.684,0,0,1,99.768-2.8a1.725,1.725,0,0,1,1.251-.51,1.694,1.694,0,0,1,1.235.51,1.693,1.693,0,0,1,.516,1.251A1.7,1.7,0,0,1,102.255-.3Z" transform="translate(634 8590)" fill="#00223d"/>
    <path id="Trazado_39101" data-name="Trazado 39101" d="M4.351-10.742A1.7,1.7,0,0,1,5.6-11.258a1.715,1.715,0,0,1,1.251.516A1.689,1.689,0,0,1,7.369-9.5a1.684,1.684,0,0,1-.521,1.251,1.725,1.725,0,0,1-1.251.51,1.694,1.694,0,0,1-1.235-.51A1.693,1.693,0,0,1,3.846-9.5,1.716,1.716,0,0,1,4.351-10.742Zm2.535,4.49v1.16a2.571,2.571,0,0,1-.263,1.2,2.406,2.406,0,0,1-.682.822,7.531,7.531,0,0,1-1.149.682A2.324,2.324,0,0,0,3.459-.129a2.232,2.232,0,0,0,.612,1.692,2.235,2.235,0,0,0,1.611.585A2.2,2.2,0,0,0,7.3,1.542a2.147,2.147,0,0,0,.612-1.6A4.219,4.219,0,0,0,7.788-1l2.771.354a7.094,7.094,0,0,1,.054.806A4.286,4.286,0,0,1,9.26,3.438,4.962,4.962,0,0,1,5.726,4.705a5.108,5.108,0,0,1-3.6-1.294A4.479,4.479,0,0,1,.72-.054a5.111,5.111,0,0,1,.236-1.6A3.628,3.628,0,0,1,1.6-2.863a4.415,4.415,0,0,1,.865-.806,4.6,4.6,0,0,1,.994-.521,1.676,1.676,0,0,0,.709-.478,1.167,1.167,0,0,0,.226-.747v-.838ZM13.5,0V-15.522h5.618a8.759,8.759,0,0,1,3.239.559,5.966,5.966,0,0,1,2.32,1.584,6.893,6.893,0,0,1,1.375,2.444,10.09,10.09,0,0,1,.467,3.169,10.127,10.127,0,0,1-.467,3.18A6.893,6.893,0,0,1,24.68-2.143,5.966,5.966,0,0,1,22.36-.559,8.759,8.759,0,0,1,19.121,0Zm3.223-2.847H18.96A3.813,3.813,0,0,0,22.1-4.109a5.657,5.657,0,0,0,1.031-3.658A5.657,5.657,0,0,0,22.1-11.424a3.813,3.813,0,0,0-3.137-1.262H16.726Zm16.6-9.7L36.137-16.5l1.525,1.074-2.438,2.879ZM34.278.215a6.944,6.944,0,0,1-3.126-.677,5.058,5.058,0,0,1-2.143-1.987,5.922,5.922,0,0,1-.779-3.083,5.4,5.4,0,0,1,1.676-4.189,6.217,6.217,0,0,1,4.372-1.536,6.232,6.232,0,0,1,4.383,1.536,5.4,5.4,0,0,1,1.676,4.189,5.432,5.432,0,0,1-1.676,4.206A6.219,6.219,0,0,1,34.278.215Zm-.032-2.46a2.835,2.835,0,0,0,2.186-.9,3.378,3.378,0,0,0,.833-2.385,3.378,3.378,0,0,0-.833-2.385,2.835,2.835,0,0,0-2.186-.9,2.731,2.731,0,0,0-2.122.908A3.409,3.409,0,0,0,31.3-5.532a3.409,3.409,0,0,0,.822,2.379A2.731,2.731,0,0,0,34.246-2.245Zm14.91-9.013a4.3,4.3,0,0,1,3.051.994,3.684,3.684,0,0,1,1.063,2.831V0h-3.1V-6.768a1.923,1.923,0,0,0-.553-1.525,2.084,2.084,0,0,0-1.423-.483,2.908,2.908,0,0,0-.924.14,2.373,2.373,0,0,0-.773.435,1.923,1.923,0,0,0-.553.833,3.85,3.85,0,0,0-.209,1.278V0H42.636V-11.043h3.094v1.225A4.255,4.255,0,0,1,49.156-11.258ZM64.1-16.5h3.094V0H64.26l-.075-1.439a3.154,3.154,0,0,1-1.4,1.251,4.719,4.719,0,0,1-2.068.446,5.371,5.371,0,0,1-2.062-.4A5.12,5.12,0,0,1,56.96-1.262a5.117,5.117,0,0,1-1.144-1.821A6.717,6.717,0,0,1,55.4-5.5a6.278,6.278,0,0,1,.73-3.078,5.005,5.005,0,0,1,1.928-2,5.31,5.31,0,0,1,2.659-.677,4.837,4.837,0,0,1,2,.4A3.128,3.128,0,0,1,64.1-9.711ZM61.424-2.31a2.754,2.754,0,0,0,2.089-.881,3.225,3.225,0,0,0,.833-2.31,3.232,3.232,0,0,0-.838-2.315A2.751,2.751,0,0,0,61.424-8.7a2.783,2.783,0,0,0-2.1.87A3.231,3.231,0,0,0,58.491-5.5a3.216,3.216,0,0,0,.833,2.32A2.783,2.783,0,0,0,61.424-2.31ZM80.781-5.683l-.032.741H72.563a2.859,2.859,0,0,0,.881,2.02,2.817,2.817,0,0,0,1.944.7A2.715,2.715,0,0,0,76.844-2.6a2.344,2.344,0,0,0,.929-1.112l2.836.419A4.821,4.821,0,0,1,78.676-.709,5.749,5.749,0,0,1,75.41.215a5.978,5.978,0,0,1-4.3-1.52,5.546,5.546,0,0,1-1.6-4.216,5.579,5.579,0,0,1,1.6-4.216,5.8,5.8,0,0,1,4.2-1.542,5.544,5.544,0,0,1,3.964,1.407A5.52,5.52,0,0,1,80.781-5.683ZM75.335-9.088a2.445,2.445,0,0,0-2.686,2.127h5.07a2.326,2.326,0,0,0-.763-1.579A2.417,2.417,0,0,0,75.335-9.088Zm10.646,4.3v-1.16a2.571,2.571,0,0,1,.263-1.2,2.406,2.406,0,0,1,.682-.822,7.531,7.531,0,0,1,1.149-.682,2.324,2.324,0,0,0,1.332-2.256,2.232,2.232,0,0,0-.612-1.692,2.235,2.235,0,0,0-1.611-.585,2.2,2.2,0,0,0-1.622.607,2.147,2.147,0,0,0-.612,1.6,4.219,4.219,0,0,0,.129.945L82.307-10.4a7.094,7.094,0,0,1-.054-.806,4.286,4.286,0,0,1,1.354-3.276,4.962,4.962,0,0,1,3.534-1.268,5.108,5.108,0,0,1,3.6,1.294,4.479,4.479,0,0,1,1.407,3.464,5.111,5.111,0,0,1-.236,1.6,3.628,3.628,0,0,1-.645,1.208,4.415,4.415,0,0,1-.865.806,4.6,4.6,0,0,1-.994.521,1.676,1.676,0,0,0-.709.478,1.167,1.167,0,0,0-.226.747v.838ZM88.5-.3A1.663,1.663,0,0,1,87.27.215,1.715,1.715,0,0,1,86.018-.3,1.689,1.689,0,0,1,85.5-1.547,1.684,1.684,0,0,1,86.018-2.8a1.725,1.725,0,0,1,1.251-.51A1.694,1.694,0,0,1,88.5-2.8a1.693,1.693,0,0,1,.516,1.251A1.7,1.7,0,0,1,88.5-.3Z" transform="translate(820 8655)" fill="#00223d"/>
    <path id="Trazado_39100" data-name="Trazado 39100" d="M65,0A65,65,0,1,1,0,65,65,65,0,0,1,65,0Z" transform="translate(1009 8583)" fill="#fdd108"/>
    <path id="Trazado_39102" data-name="Trazado 39102" d="M4.351-10.742A1.7,1.7,0,0,1,5.6-11.258a1.715,1.715,0,0,1,1.251.516A1.689,1.689,0,0,1,7.369-9.5a1.684,1.684,0,0,1-.521,1.251,1.725,1.725,0,0,1-1.251.51,1.694,1.694,0,0,1-1.235-.51A1.693,1.693,0,0,1,3.846-9.5,1.716,1.716,0,0,1,4.351-10.742Zm2.535,4.49v1.16a2.571,2.571,0,0,1-.263,1.2,2.406,2.406,0,0,1-.682.822,7.531,7.531,0,0,1-1.149.682A2.324,2.324,0,0,0,3.459-.129a2.232,2.232,0,0,0,.612,1.692,2.235,2.235,0,0,0,1.611.585A2.2,2.2,0,0,0,7.3,1.542a2.147,2.147,0,0,0,.612-1.6A4.219,4.219,0,0,0,7.788-1l2.771.354a7.094,7.094,0,0,1,.054.806A4.286,4.286,0,0,1,9.26,3.438,4.962,4.962,0,0,1,5.726,4.705a5.108,5.108,0,0,1-3.6-1.294A4.479,4.479,0,0,1,.72-.054a5.111,5.111,0,0,1,.236-1.6A3.628,3.628,0,0,1,1.6-2.863a4.415,4.415,0,0,1,.865-.806,4.6,4.6,0,0,1,.994-.521,1.676,1.676,0,0,0,.709-.478,1.167,1.167,0,0,0,.226-.747v-.838ZM20.378.215a8.664,8.664,0,0,1-3.164-.569A7.439,7.439,0,0,1,14.7-1.944a7.167,7.167,0,0,1-1.654-2.524,8.8,8.8,0,0,1-.6-3.3,8.408,8.408,0,0,1,1.031-4.216A7.021,7.021,0,0,1,16.3-14.771a8.476,8.476,0,0,1,4.077-.967,8.237,8.237,0,0,1,4.555,1.257,6.88,6.88,0,0,1,2.782,3.459l-3.008,1.1a4.252,4.252,0,0,0-1.665-2.095,4.756,4.756,0,0,0-2.664-.752,4.559,4.559,0,0,0-3.395,1.354,4.98,4.98,0,0,0-1.332,3.652,4.988,4.988,0,0,0,1.337,3.658A4.554,4.554,0,0,0,20.378-2.75a4.738,4.738,0,0,0,2.659-.757,4.271,4.271,0,0,0,1.67-2.1l3.008,1.1a6.908,6.908,0,0,1-2.782,3.464A8.211,8.211,0,0,1,20.378.215ZM37.265-11.043h3.094V0H37.426l-.075-1.332A4.217,4.217,0,0,1,33.838.215a4.3,4.3,0,0,1-3.051-.994,3.684,3.684,0,0,1-1.063-2.831v-7.434h3.1v6.768a1.909,1.909,0,0,0,.553,1.515,2.1,2.1,0,0,0,1.434.483,2.49,2.49,0,0,0,1.756-.628,2.7,2.7,0,0,0,.693-2.046Zm14.147-4.394-2.438,2.879h-1.9l2.814-3.953ZM52.615-3a10.331,10.331,0,0,0,.269,2.7V0h-2.89l-.247-1.2A3.591,3.591,0,0,1,48.2-.14a5.7,5.7,0,0,1-2,.354,5.254,5.254,0,0,1-1.031-.1,3.506,3.506,0,0,1-.929-.328,2.82,2.82,0,0,1-.768-.575,2.52,2.52,0,0,1-.516-.875,3.488,3.488,0,0,1-.193-1.2,3.322,3.322,0,0,1,.2-1.2,2.807,2.807,0,0,1,.537-.9,3.258,3.258,0,0,1,.87-.655,6.658,6.658,0,0,1,1.1-.473,13.092,13.092,0,0,1,1.311-.344L48.6-6.832a2,2,0,0,0,.822-.349.7.7,0,0,0,.242-.553A1.14,1.14,0,0,0,49.119-8.8,2.533,2.533,0,0,0,47.8-9.12a1.894,1.894,0,0,0-2.159,1.687L42.9-7.928a3.708,3.708,0,0,1,1.6-2.519,6.362,6.362,0,0,1,3.47-.811q4.641,0,4.641,3.985ZM47.169-1.88a2.488,2.488,0,0,0,1.912-.8,3.372,3.372,0,0,0,.741-2.369L47.2-4.308a3.1,3.1,0,0,0-1.1.451.927.927,0,0,0-.381.795,1.029,1.029,0,0,0,.408.875A1.689,1.689,0,0,0,47.169-1.88Zm14.975-9.378a4.3,4.3,0,0,1,3.051.994,3.684,3.684,0,0,1,1.063,2.831V0h-3.1V-6.768A1.923,1.923,0,0,0,62.6-8.293a2.084,2.084,0,0,0-1.423-.483,2.908,2.908,0,0,0-.924.14,2.373,2.373,0,0,0-.773.435,1.923,1.923,0,0,0-.553.833,3.85,3.85,0,0,0-.209,1.278V0H55.623V-11.043h3.094v1.225A4.255,4.255,0,0,1,62.144-11.258ZM73.369,0a3.335,3.335,0,0,1-2.492-.9A3.489,3.489,0,0,1,70-3.448V-8.669h-2.17v-2.374h.7A1.822,1.822,0,0,0,69.9-11.5a2.378,2.378,0,0,0,.44-1.644v-1.461h2.793v3.566H75.41v2.374H73.133v4.888q0,1.429,1.278,1.429h1V0Zm9.539.215a6.944,6.944,0,0,1-3.126-.677,5.058,5.058,0,0,1-2.143-1.987,5.922,5.922,0,0,1-.779-3.083,5.4,5.4,0,0,1,1.676-4.189,6.217,6.217,0,0,1,4.372-1.536,6.232,6.232,0,0,1,4.383,1.536,5.4,5.4,0,0,1,1.676,4.189,5.432,5.432,0,0,1-1.676,4.206A6.219,6.219,0,0,1,82.908.215Zm-.032-2.46a2.835,2.835,0,0,0,2.186-.9,3.378,3.378,0,0,0,.833-2.385,3.378,3.378,0,0,0-.833-2.385,2.835,2.835,0,0,0-2.186-.9,2.731,2.731,0,0,0-2.122.908,3.409,3.409,0,0,0-.822,2.379,3.409,3.409,0,0,0,.822,2.379A2.731,2.731,0,0,0,82.876-2.245ZM94.112-4.791v-1.16a2.571,2.571,0,0,1,.263-1.2,2.406,2.406,0,0,1,.682-.822,7.531,7.531,0,0,1,1.149-.682,2.324,2.324,0,0,0,1.332-2.256,2.232,2.232,0,0,0-.612-1.692,2.235,2.235,0,0,0-1.611-.585,2.2,2.2,0,0,0-1.622.607,2.147,2.147,0,0,0-.612,1.6,4.219,4.219,0,0,0,.129.945L90.438-10.4a7.094,7.094,0,0,1-.054-.806,4.286,4.286,0,0,1,1.354-3.276,4.962,4.962,0,0,1,3.534-1.268,5.108,5.108,0,0,1,3.6,1.294,4.479,4.479,0,0,1,1.407,3.464,5.111,5.111,0,0,1-.236,1.6A3.628,3.628,0,0,1,99.4-8.18a4.415,4.415,0,0,1-.865.806,4.6,4.6,0,0,1-.994.521,1.676,1.676,0,0,0-.709.478,1.167,1.167,0,0,0-.226.747v.838ZM96.637-.3A1.663,1.663,0,0,1,95.4.215,1.715,1.715,0,0,1,94.15-.3a1.689,1.689,0,0,1-.521-1.246A1.684,1.684,0,0,1,94.15-2.8a1.725,1.725,0,0,1,1.251-.51,1.694,1.694,0,0,1,1.235.51,1.693,1.693,0,0,1,.516,1.251A1.7,1.7,0,0,1,96.637-.3Z" transform="translate(1023 8659)" fill="#00223d"/>
    <path id="Trazado_39098" data-name="Trazado 39098" d="M11.011-15.522v2.836H7.326V0H4.136V-12.687H.43v-2.836ZM16.425.215A6.944,6.944,0,0,1,13.3-.462a5.058,5.058,0,0,1-2.143-1.987,5.922,5.922,0,0,1-.779-3.083,5.4,5.4,0,0,1,1.676-4.189,6.217,6.217,0,0,1,4.372-1.536,6.232,6.232,0,0,1,4.383,1.536,5.4,5.4,0,0,1,1.676,4.189,5.432,5.432,0,0,1-1.676,4.206A6.219,6.219,0,0,1,16.425.215Zm-.032-2.46a2.835,2.835,0,0,0,2.186-.9,3.378,3.378,0,0,0,.833-2.385,3.378,3.378,0,0,0-.833-2.385,2.835,2.835,0,0,0-2.186-.9,2.731,2.731,0,0,0-2.122.908,3.409,3.409,0,0,0-.822,2.379,3.409,3.409,0,0,0,.822,2.379A2.731,2.731,0,0,0,16.393-2.245Zm21.474-9.013a4.219,4.219,0,0,1,2.847.9,3.209,3.209,0,0,1,1.042,2.573V0H38.661V-6.907a1.845,1.845,0,0,0-.494-1.4,1.731,1.731,0,0,0-1.246-.473,2,2,0,0,0-1.5.6,2.732,2.732,0,0,0-.58,1.944V0H31.711V-6.875A1.894,1.894,0,0,0,31.217-8.3a1.762,1.762,0,0,0-1.278-.478,1.932,1.932,0,0,0-1.493.634,3.027,3.027,0,0,0-.58,2.073V0H24.782V-11.043h3.083v1.3a3.755,3.755,0,0,1,3.2-1.515,4.722,4.722,0,0,1,2.079.424A2.829,2.829,0,0,1,34.45-9.6,3.9,3.9,0,0,1,37.866-11.258ZM53.818-3a10.331,10.331,0,0,0,.269,2.7V0H51.2L50.95-1.2A3.591,3.591,0,0,1,49.4-.14a5.7,5.7,0,0,1-2,.354,5.254,5.254,0,0,1-1.031-.1,3.506,3.506,0,0,1-.929-.328,2.82,2.82,0,0,1-.768-.575,2.52,2.52,0,0,1-.516-.875,3.488,3.488,0,0,1-.193-1.2,3.322,3.322,0,0,1,.2-1.2,2.807,2.807,0,0,1,.537-.9,3.258,3.258,0,0,1,.87-.655,6.658,6.658,0,0,1,1.1-.473,13.092,13.092,0,0,1,1.311-.344L49.8-6.832a2,2,0,0,0,.822-.349.7.7,0,0,0,.242-.553A1.14,1.14,0,0,0,50.322-8.8a2.533,2.533,0,0,0-1.316-.322,1.894,1.894,0,0,0-2.159,1.687l-2.739-.494a3.708,3.708,0,0,1,1.6-2.519,6.362,6.362,0,0,1,3.47-.811q4.641,0,4.641,3.985ZM48.372-1.88a2.488,2.488,0,0,0,1.912-.8,3.372,3.372,0,0,0,.741-2.369L48.4-4.308a3.1,3.1,0,0,0-1.1.451.927.927,0,0,0-.381.795,1.029,1.029,0,0,0,.408.875A1.689,1.689,0,0,0,48.372-1.88Zm22-14.62h3.094V0H70.533l-.075-1.439a3.154,3.154,0,0,1-1.4,1.251,4.719,4.719,0,0,1-2.068.446,5.371,5.371,0,0,1-2.062-.4,5.12,5.12,0,0,1-1.692-1.123A5.117,5.117,0,0,1,62.09-3.083,6.717,6.717,0,0,1,61.671-5.5a6.278,6.278,0,0,1,.73-3.078,5.005,5.005,0,0,1,1.928-2,5.31,5.31,0,0,1,2.659-.677,4.837,4.837,0,0,1,2,.4,3.128,3.128,0,0,1,1.38,1.144ZM67.7-2.31a2.754,2.754,0,0,0,2.089-.881,3.225,3.225,0,0,0,.833-2.31,3.232,3.232,0,0,0-.838-2.315A2.751,2.751,0,0,0,67.7-8.7a2.783,2.783,0,0,0-2.1.87A3.231,3.231,0,0,0,64.765-5.5,3.216,3.216,0,0,0,65.6-3.18,2.783,2.783,0,0,0,67.7-2.31ZM87.055-5.683l-.032.741H78.837a2.859,2.859,0,0,0,.881,2.02,2.817,2.817,0,0,0,1.944.7A2.715,2.715,0,0,0,83.118-2.6a2.344,2.344,0,0,0,.929-1.112l2.836.419A4.821,4.821,0,0,1,84.949-.709a5.749,5.749,0,0,1-3.266.924,5.978,5.978,0,0,1-4.3-1.52,5.546,5.546,0,0,1-1.6-4.216,5.579,5.579,0,0,1,1.6-4.216,5.8,5.8,0,0,1,4.2-1.542,5.544,5.544,0,0,1,3.964,1.407A5.52,5.52,0,0,1,87.055-5.683ZM81.608-9.088a2.445,2.445,0,0,0-2.686,2.127h5.07A2.326,2.326,0,0,0,83.23-8.54,2.417,2.417,0,0,0,81.608-9.088ZM2.009,30V14.478H7.627a8.759,8.759,0,0,1,3.239.559,5.966,5.966,0,0,1,2.32,1.584,6.893,6.893,0,0,1,1.375,2.444,10.09,10.09,0,0,1,.467,3.169,10.127,10.127,0,0,1-.467,3.18,6.893,6.893,0,0,1-1.375,2.444,5.966,5.966,0,0,1-2.32,1.584A8.759,8.759,0,0,1,7.627,30Zm3.223-2.847H7.466A3.813,3.813,0,0,0,10.6,25.891a5.657,5.657,0,0,0,1.031-3.658A5.657,5.657,0,0,0,10.6,18.576a3.813,3.813,0,0,0-3.137-1.262H5.231Zm22.795-2.836-.032.741H19.809a2.859,2.859,0,0,0,.881,2.02,2.817,2.817,0,0,0,1.944.7,2.715,2.715,0,0,0,1.456-.381,2.344,2.344,0,0,0,.929-1.112l2.836.419a4.821,4.821,0,0,1-1.934,2.589,5.749,5.749,0,0,1-3.266.924,5.978,5.978,0,0,1-4.3-1.52,5.546,5.546,0,0,1-1.6-4.216,5.579,5.579,0,0,1,1.6-4.216,5.8,5.8,0,0,1,4.2-1.542,5.544,5.544,0,0,1,3.964,1.407A5.52,5.52,0,0,1,28.026,24.317ZM22.58,20.912a2.445,2.445,0,0,0-2.686,2.127h5.07A2.326,2.326,0,0,0,24.2,21.46,2.417,2.417,0,0,0,22.58,20.912ZM35.374,30.2a5.9,5.9,0,0,1-4.265-1.59,5.491,5.491,0,0,1-1.654-4.146A5.479,5.479,0,0,1,31.1,20.321a5.918,5.918,0,0,1,4.27-1.579,5.884,5.884,0,0,1,3.577,1.063,4.748,4.748,0,0,1,1.848,3l-2.857.312a2.448,2.448,0,0,0-.924-1.45,2.809,2.809,0,0,0-1.676-.483,2.533,2.533,0,0,0-2.02.9,3.538,3.538,0,0,0-.773,2.385,3.542,3.542,0,0,0,.773,2.379,2.526,2.526,0,0,0,2.02.908,2.785,2.785,0,0,0,1.67-.483,2.505,2.505,0,0,0,.929-1.45l2.857.312a4.761,4.761,0,0,1-1.864,3A5.86,5.86,0,0,1,35.374,30.2ZM44.58,17.3a1.737,1.737,0,0,1-1.268-.521,1.71,1.71,0,0,1-.526-1.262,1.69,1.69,0,0,1,.532-1.251,1.742,1.742,0,0,1,1.262-.521,1.778,1.778,0,0,1,0,3.556ZM43,30V18.957h3.115V30Zm10.205.215a6.171,6.171,0,0,1-3.223-.773,3.269,3.269,0,0,1-1.579-2.3l2.589-.73a2.08,2.08,0,0,0,2.213,1.644,2.285,2.285,0,0,0,1.128-.252.879.879,0,0,0,.44-.854.9.9,0,0,0-.183-.569,1.446,1.446,0,0,0-.564-.408,7.026,7.026,0,0,0-.752-.29q-.371-.118-.983-.285t-1.021-.317a6.836,6.836,0,0,1-.972-.414,4.147,4.147,0,0,1-.806-.569,2.3,2.3,0,0,1-.6-.865,3.12,3.12,0,0,1-.209-1.182,2.821,2.821,0,0,1,1.2-2.471,5.352,5.352,0,0,1,3.131-.838,5.487,5.487,0,0,1,2.89.709,3.209,3.209,0,0,1,1.482,2.213l-2.4.537a1.876,1.876,0,0,0-1.966-1.4,2.153,2.153,0,0,0-1.085.247.794.794,0,0,0-.43.73.837.837,0,0,0,.064.333.659.659,0,0,0,.226.269,3.29,3.29,0,0,0,.312.2,2.35,2.35,0,0,0,.44.177q.29.091.483.14l.564.145.575.15q.591.161,1.037.322a6.071,6.071,0,0,1,.951.451,3.412,3.412,0,0,1,.833.65,2.9,2.9,0,0,1,.542.913,3.372,3.372,0,0,1,.215,1.23,3.322,3.322,0,0,1-.371,1.6,2.782,2.782,0,0,1-1.015,1.08,4.941,4.941,0,0,1-1.434.58A7.439,7.439,0,0,1,53.206,30.215ZM61.553,17.3a1.737,1.737,0,0,1-1.268-.521,1.71,1.71,0,0,1-.526-1.262,1.69,1.69,0,0,1,.532-1.251,1.742,1.742,0,0,1,1.262-.521,1.778,1.778,0,0,1,0,3.556ZM59.974,30V18.957h3.115V30Zm11.462.215a6.944,6.944,0,0,1-3.126-.677,5.058,5.058,0,0,1-2.143-1.987,5.922,5.922,0,0,1-.779-3.083,5.4,5.4,0,0,1,1.676-4.189,7.005,7.005,0,0,1,8.755,0,5.4,5.4,0,0,1,1.676,4.189,5.432,5.432,0,0,1-1.676,4.206A6.219,6.219,0,0,1,71.436,30.215Zm-.032-2.46a2.835,2.835,0,0,0,2.186-.9,3.378,3.378,0,0,0,.833-2.385,3.378,3.378,0,0,0-.833-2.385,2.835,2.835,0,0,0-2.186-.9,2.731,2.731,0,0,0-2.122.908,3.409,3.409,0,0,0-.822,2.379,3.409,3.409,0,0,0,.822,2.379A2.731,2.731,0,0,0,71.4,27.755Zm14.91-9.013a4.3,4.3,0,0,1,3.051.994,3.684,3.684,0,0,1,1.063,2.831V30h-3.1V23.232a1.924,1.924,0,0,0-.553-1.525,2.084,2.084,0,0,0-1.423-.483,2.908,2.908,0,0,0-.924.14,2.373,2.373,0,0,0-.773.435,1.923,1.923,0,0,0-.553.833,3.85,3.85,0,0,0-.209,1.278V30H79.793V18.957h3.094v1.225A4.255,4.255,0,0,1,86.313,18.742Zm17.5,5.575-.032.741H95.595a2.859,2.859,0,0,0,.881,2.02,2.817,2.817,0,0,0,1.944.7,2.715,2.715,0,0,0,1.456-.381,2.344,2.344,0,0,0,.929-1.112l2.836.419a4.821,4.821,0,0,1-1.934,2.589,5.749,5.749,0,0,1-3.266.924,5.978,5.978,0,0,1-4.3-1.52,5.546,5.546,0,0,1-1.6-4.216,5.579,5.579,0,0,1,1.6-4.216,5.8,5.8,0,0,1,4.2-1.542,5.544,5.544,0,0,1,3.964,1.407A5.52,5.52,0,0,1,103.813,24.317Zm-5.446-3.405a2.445,2.445,0,0,0-2.686,2.127h5.07a2.326,2.326,0,0,0-.763-1.579A2.417,2.417,0,0,0,98.366,20.912Zm11.688,9.3a6.171,6.171,0,0,1-3.223-.773,3.269,3.269,0,0,1-1.579-2.3l2.589-.73a2.08,2.08,0,0,0,2.213,1.644,2.285,2.285,0,0,0,1.128-.252.879.879,0,0,0,.44-.854.9.9,0,0,0-.183-.569,1.446,1.446,0,0,0-.564-.408,7.026,7.026,0,0,0-.752-.29q-.371-.118-.983-.285t-1.021-.317a6.836,6.836,0,0,1-.972-.414,4.147,4.147,0,0,1-.806-.569,2.3,2.3,0,0,1-.6-.865,3.12,3.12,0,0,1-.209-1.182,2.821,2.821,0,0,1,1.2-2.471,5.352,5.352,0,0,1,3.131-.838,5.487,5.487,0,0,1,2.89.709,3.209,3.209,0,0,1,1.482,2.213l-2.4.537a1.876,1.876,0,0,0-1.966-1.4,2.153,2.153,0,0,0-1.085.247.794.794,0,0,0-.43.73.837.837,0,0,0,.064.333.659.659,0,0,0,.226.269,3.29,3.29,0,0,0,.312.2,2.35,2.35,0,0,0,.44.177q.29.091.483.14l.564.145.575.15q.591.161,1.037.322a6.071,6.071,0,0,1,.951.451,3.412,3.412,0,0,1,.833.65,2.9,2.9,0,0,1,.542.913,3.372,3.372,0,0,1,.215,1.23,3.322,3.322,0,0,1-.371,1.6,2.782,2.782,0,0,1-1.015,1.08,4.941,4.941,0,0,1-1.434.58A7.439,7.439,0,0,1,110.054,30.215Z" transform="translate(1181 8538)" fill="#00223d"/>
    <g id="Grupo_18215" data-name="Grupo 18215" transform="translate(787.642 8184.723)">
      <g id="Grupo_18197" data-name="Grupo 18197" transform="translate(156.358 133.329)">
        <path id="Trazado_37245" data-name="Trazado 37245" d="M185.434,186.106a56.833,56.833,0,0,1,9.1-9.841,49.122,49.122,0,0,0,7.216-7.774,10.677,10.677,0,0,0,1.614-7.777,9.646,9.646,0,0,0-4.175-6.812,16.028,16.028,0,0,0-9.452-2.546,21.555,21.555,0,0,0-10.839,2.685,20.917,20.917,0,0,0-7.726,7.774L156.358,151.22a31.986,31.986,0,0,1,13.678-13.143q9.094-4.747,21.316-4.748,13.5,0,22.372,6.262a23.791,23.791,0,0,1,10.32,16.858,24.385,24.385,0,0,1-.707,11.146,22.57,22.57,0,0,1-4.405,7.845,85.58,85.58,0,0,1-7.363,7.156,61.735,61.735,0,0,0-7.555,7.637,13.456,13.456,0,0,0-2.842,7.638H181.945A21.875,21.875,0,0,1,185.434,186.106Z" transform="translate(-156.358 -133.329)" fill="#fc737b"/>
        <path id="Trazado_37246" data-name="Trazado 37246" d="M193.593,189.8a10.73,10.73,0,1,1-10.729-10.731A10.73,10.73,0,0,1,193.593,189.8Z" transform="translate(-147.766 -108.417)" fill="#fc737b"/>
      </g>
    </g>
    <path id="Trazado_39093" data-name="Trazado 39093" d="M12.4,0,11.269-3.2H4.748L3.62,0H.322L6.037-15.522H9.979L15.694,0Zm-6.7-5.9h4.63l-2.31-6.585Zm18.444-5.36a4.3,4.3,0,0,1,3.051.994,3.684,3.684,0,0,1,1.063,2.831V0h-3.1V-6.768a1.924,1.924,0,0,0-.553-1.525,2.084,2.084,0,0,0-1.423-.483,2.908,2.908,0,0,0-.924.14,2.373,2.373,0,0,0-.773.435,1.923,1.923,0,0,0-.553.833,3.85,3.85,0,0,0-.209,1.278V0H17.617V-11.043h3.094v1.225A4.255,4.255,0,0,1,24.138-11.258ZM39.1-15.437l-2.438,2.879h-1.9l2.814-3.953ZM40.3-3a10.331,10.331,0,0,0,.269,2.7V0h-2.89l-.247-1.2A3.591,3.591,0,0,1,35.89-.14a5.7,5.7,0,0,1-2,.354,5.254,5.254,0,0,1-1.031-.1,3.506,3.506,0,0,1-.929-.328,2.82,2.82,0,0,1-.768-.575,2.52,2.52,0,0,1-.516-.875,3.488,3.488,0,0,1-.193-1.2,3.321,3.321,0,0,1,.2-1.2,2.807,2.807,0,0,1,.537-.9,3.258,3.258,0,0,1,.87-.655,6.658,6.658,0,0,1,1.1-.473,13.092,13.092,0,0,1,1.311-.344l1.815-.408a2,2,0,0,0,.822-.349.7.7,0,0,0,.242-.553A1.14,1.14,0,0,0,36.808-8.8a2.533,2.533,0,0,0-1.316-.322,1.894,1.894,0,0,0-2.159,1.687l-2.739-.494a3.708,3.708,0,0,1,1.6-2.519,6.362,6.362,0,0,1,3.47-.811q4.641,0,4.641,3.985ZM34.858-1.88a2.488,2.488,0,0,0,1.912-.8,3.372,3.372,0,0,0,.741-2.369l-2.621.741a3.1,3.1,0,0,0-1.1.451.927.927,0,0,0-.381.795,1.029,1.029,0,0,0,.408.875A1.689,1.689,0,0,0,34.858-1.88ZM43.313,0V-16.5h3.126V0Zm7.906-12.7a1.737,1.737,0,0,1-1.268-.521,1.71,1.71,0,0,1-.526-1.262,1.69,1.69,0,0,1,.532-1.251,1.742,1.742,0,0,1,1.262-.521,1.712,1.712,0,0,1,1.246.521,1.7,1.7,0,0,1,.526,1.251,1.71,1.71,0,0,1-.526,1.262A1.712,1.712,0,0,1,51.219-12.7ZM49.64,0V-11.043h3.115V0ZM59.845.215a6.171,6.171,0,0,1-3.223-.773,3.269,3.269,0,0,1-1.579-2.3l2.589-.73a2.08,2.08,0,0,0,2.213,1.644A2.285,2.285,0,0,0,60.973-2.2a.879.879,0,0,0,.44-.854.9.9,0,0,0-.183-.569,1.446,1.446,0,0,0-.564-.408,7.026,7.026,0,0,0-.752-.29q-.371-.118-.983-.285T57.911-4.92a6.836,6.836,0,0,1-.972-.414,4.147,4.147,0,0,1-.806-.569,2.3,2.3,0,0,1-.6-.865,3.12,3.12,0,0,1-.209-1.182,2.821,2.821,0,0,1,1.2-2.471,5.352,5.352,0,0,1,3.131-.838,5.487,5.487,0,0,1,2.89.709,3.209,3.209,0,0,1,1.482,2.213l-2.4.537a1.876,1.876,0,0,0-1.966-1.4,2.153,2.153,0,0,0-1.085.247.794.794,0,0,0-.43.73.837.837,0,0,0,.064.333.659.659,0,0,0,.226.269,3.29,3.29,0,0,0,.312.2,2.35,2.35,0,0,0,.44.177q.29.091.483.14l.564.145.575.15q.591.161,1.037.322a6.071,6.071,0,0,1,.951.451,3.412,3.412,0,0,1,.833.65,2.9,2.9,0,0,1,.542.913,3.372,3.372,0,0,1,.215,1.23,3.322,3.322,0,0,1-.371,1.6A2.782,2.782,0,0,1,63-.553a4.941,4.941,0,0,1-1.434.58A7.439,7.439,0,0,1,59.845.215ZM68.191-12.7a1.737,1.737,0,0,1-1.268-.521A1.71,1.71,0,0,1,66.4-14.48a1.69,1.69,0,0,1,.532-1.251,1.742,1.742,0,0,1,1.262-.521,1.712,1.712,0,0,1,1.246.521,1.7,1.7,0,0,1,.526,1.251,1.71,1.71,0,0,1-.526,1.262A1.712,1.712,0,0,1,68.191-12.7ZM66.612,0V-11.043h3.115V0ZM76.817.215a6.171,6.171,0,0,1-3.223-.773,3.269,3.269,0,0,1-1.579-2.3l2.589-.73a2.08,2.08,0,0,0,2.213,1.644A2.285,2.285,0,0,0,77.945-2.2a.879.879,0,0,0,.44-.854A.9.9,0,0,0,78.2-3.62a1.446,1.446,0,0,0-.564-.408,7.026,7.026,0,0,0-.752-.29q-.371-.118-.983-.285T74.884-4.92a6.836,6.836,0,0,1-.972-.414,4.147,4.147,0,0,1-.806-.569,2.3,2.3,0,0,1-.6-.865,3.12,3.12,0,0,1-.209-1.182,2.821,2.821,0,0,1,1.2-2.471,5.352,5.352,0,0,1,3.131-.838,5.487,5.487,0,0,1,2.89.709A3.209,3.209,0,0,1,81-8.336L78.6-7.8a1.876,1.876,0,0,0-1.966-1.4,2.153,2.153,0,0,0-1.085.247.794.794,0,0,0-.43.73.837.837,0,0,0,.064.333.659.659,0,0,0,.226.269,3.29,3.29,0,0,0,.312.2,2.35,2.35,0,0,0,.44.177q.29.091.483.14l.564.145.575.15q.591.161,1.037.322a6.071,6.071,0,0,1,.951.451,3.412,3.412,0,0,1,.833.65,2.9,2.9,0,0,1,.542.913,3.372,3.372,0,0,1,.215,1.23,3.322,3.322,0,0,1-.371,1.6,2.782,2.782,0,0,1-1.015,1.08,4.941,4.941,0,0,1-1.434.58A7.439,7.439,0,0,1,76.817.215Zm-65.807,17.1H5.253v3.523h5.1v2.8h-5.1v3.513h5.758V30h-9V14.478h9Zm6.8,12.9a6.171,6.171,0,0,1-3.223-.773,3.269,3.269,0,0,1-1.579-2.3l2.589-.73a2.08,2.08,0,0,0,2.213,1.644,2.285,2.285,0,0,0,1.128-.252.879.879,0,0,0,.44-.854.9.9,0,0,0-.183-.569,1.446,1.446,0,0,0-.564-.408,7.026,7.026,0,0,0-.752-.29q-.371-.118-.983-.285t-1.021-.317a6.836,6.836,0,0,1-.972-.414A4.147,4.147,0,0,1,14.1,24.1a2.3,2.3,0,0,1-.6-.865,3.12,3.12,0,0,1-.209-1.182,2.821,2.821,0,0,1,1.2-2.471,5.352,5.352,0,0,1,3.131-.838,5.487,5.487,0,0,1,2.89.709,3.209,3.209,0,0,1,1.482,2.213l-2.4.537a1.876,1.876,0,0,0-1.966-1.4,2.153,2.153,0,0,0-1.085.247.794.794,0,0,0-.43.73.837.837,0,0,0,.064.333.659.659,0,0,0,.226.269,3.29,3.29,0,0,0,.312.2,2.35,2.35,0,0,0,.44.177q.29.091.483.14l.564.145.575.15q.591.161,1.037.322a6.071,6.071,0,0,1,.951.451,3.412,3.412,0,0,1,.833.65,2.9,2.9,0,0,1,.542.913,3.372,3.372,0,0,1,.215,1.23,3.322,3.322,0,0,1-.371,1.6,2.782,2.782,0,0,1-1.015,1.08,4.941,4.941,0,0,1-1.434.58A7.439,7.439,0,0,1,17.811,30.215ZM28.692,30a3.335,3.335,0,0,1-2.492-.9,3.489,3.489,0,0,1-.881-2.551V21.331h-2.17V18.957h.7a1.822,1.822,0,0,0,1.375-.462,2.378,2.378,0,0,0,.44-1.644V15.391h2.793v3.566h2.277v2.374H28.456v4.888q0,1.429,1.278,1.429h1V30Zm7.4-9.292a3.585,3.585,0,0,1,1.45-1.327,4.425,4.425,0,0,1,2.159-.553v2.761a4.183,4.183,0,0,0-2.643.666,2.908,2.908,0,0,0-.816,2.363V30H33.129V18.957h2.965ZM50.51,27a10.331,10.331,0,0,0,.269,2.7V30h-2.89l-.247-1.2a3.591,3.591,0,0,1-1.547,1.063,5.7,5.7,0,0,1-2,.354,5.254,5.254,0,0,1-1.031-.1,3.506,3.506,0,0,1-.929-.328,2.82,2.82,0,0,1-.768-.575,2.52,2.52,0,0,1-.516-.875,3.488,3.488,0,0,1-.193-1.2,3.322,3.322,0,0,1,.2-1.2,2.807,2.807,0,0,1,.537-.9,3.258,3.258,0,0,1,.87-.655,6.658,6.658,0,0,1,1.1-.473,13.092,13.092,0,0,1,1.311-.344l1.815-.408a2,2,0,0,0,.822-.349.7.7,0,0,0,.242-.553,1.14,1.14,0,0,0-.542-1.063A2.533,2.533,0,0,0,45.7,20.88a1.894,1.894,0,0,0-2.159,1.687L40.8,22.072a3.708,3.708,0,0,1,1.6-2.519,6.362,6.362,0,0,1,3.47-.811q4.641,0,4.641,3.985ZM45.063,28.12a2.488,2.488,0,0,0,1.912-.8,3.372,3.372,0,0,0,.741-2.369l-2.621.741a3.1,3.1,0,0,0-1.1.451.927.927,0,0,0-.381.795,1.029,1.029,0,0,0,.408.875A1.689,1.689,0,0,0,45.063,28.12ZM57.481,30a3.335,3.335,0,0,1-2.492-.9,3.489,3.489,0,0,1-.881-2.551V21.331h-2.17V18.957h.7a1.822,1.822,0,0,0,1.375-.462,2.378,2.378,0,0,0,.44-1.644V15.391h2.793v3.566h2.277v2.374H57.245v4.888q0,1.429,1.278,1.429h1V30ZM70.275,14.531,67.837,17.41h-1.9l2.814-3.953Zm1.987,9.786-.032.741H64.045a2.859,2.859,0,0,0,.881,2.02,2.817,2.817,0,0,0,1.944.7,2.715,2.715,0,0,0,1.456-.381,2.344,2.344,0,0,0,.929-1.112l2.836.419a4.821,4.821,0,0,1-1.934,2.589,5.749,5.749,0,0,1-3.266.924,5.978,5.978,0,0,1-4.3-1.52,5.546,5.546,0,0,1-1.6-4.216,5.579,5.579,0,0,1,1.6-4.216,5.8,5.8,0,0,1,4.2-1.542,5.544,5.544,0,0,1,3.964,1.407A5.52,5.52,0,0,1,72.263,24.317Zm-5.446-3.405a2.445,2.445,0,0,0-2.686,2.127H69.2a2.326,2.326,0,0,0-.763-1.579A2.417,2.417,0,0,0,66.816,20.912Zm15.4-1.955h2.943V29.173a8.261,8.261,0,0,1-.414,2.75,4.535,4.535,0,0,1-1.2,1.885,4.993,4.993,0,0,1-1.837,1.058,7.744,7.744,0,0,1-2.406.344q-4.372,0-5.693-3.427l2.567-1.1a3.746,3.746,0,0,0,1.192,1.6,3.04,3.04,0,0,0,1.815.516q2.868,0,2.868-3.405V28.109a3.479,3.479,0,0,1-1.391,1.09,4.625,4.625,0,0,1-1.96.414,4.945,4.945,0,0,1-3.545-1.488,5.1,5.1,0,0,1-1.09-1.735,6.413,6.413,0,0,1,0-4.474,4.9,4.9,0,0,1,1.1-1.713,5.042,5.042,0,0,1,1.611-1.074,4.973,4.973,0,0,1,1.95-.387,4.491,4.491,0,0,1,2.046.457,3.264,3.264,0,0,1,1.37,1.219Zm-4.748,7.3a2.84,2.84,0,0,0,4.061-.011,3.087,3.087,0,0,0,.005-4.2,2.859,2.859,0,0,0-4.071-.016,3.152,3.152,0,0,0,.005,4.227ZM89.955,17.3a1.737,1.737,0,0,1-1.268-.521,1.71,1.71,0,0,1-.526-1.262,1.69,1.69,0,0,1,.532-1.251,1.742,1.742,0,0,1,1.262-.521,1.778,1.778,0,0,1,0,3.556ZM88.376,30V18.957h3.115V30Zm11.312.2a5.9,5.9,0,0,1-4.265-1.59,5.491,5.491,0,0,1-1.654-4.146,5.479,5.479,0,0,1,1.649-4.146,6.556,6.556,0,0,1,7.847-.516,4.748,4.748,0,0,1,1.848,3l-2.857.312a2.448,2.448,0,0,0-.924-1.45,2.809,2.809,0,0,0-1.676-.483,2.533,2.533,0,0,0-2.02.9,3.538,3.538,0,0,0-.773,2.385,3.542,3.542,0,0,0,.773,2.379,2.526,2.526,0,0,0,2.02.908,2.785,2.785,0,0,0,1.67-.483,2.505,2.505,0,0,0,.929-1.45l2.857.312a4.761,4.761,0,0,1-1.864,3A5.86,5.86,0,0,1,99.688,30.2Zm12.772.011a6.944,6.944,0,0,1-3.126-.677,5.058,5.058,0,0,1-2.143-1.987,5.922,5.922,0,0,1-.779-3.083,5.4,5.4,0,0,1,1.676-4.189,7.005,7.005,0,0,1,8.755,0,5.4,5.4,0,0,1,1.676,4.189,5.432,5.432,0,0,1-1.676,4.206A6.219,6.219,0,0,1,112.46,30.215Zm-.032-2.46a2.835,2.835,0,0,0,2.186-.9,3.378,3.378,0,0,0,.833-2.385,3.378,3.378,0,0,0-.833-2.385,2.835,2.835,0,0,0-2.186-.9,2.731,2.731,0,0,0-2.122.908,3.409,3.409,0,0,0-.822,2.379,3.409,3.409,0,0,0,.822,2.379A2.731,2.731,0,0,0,112.428,27.755Z" transform="translate(1023 8217)" fill="#00223d"/>
    <path id="Trazado_39094" data-name="Trazado 39094" d="M4.351-10.742A1.7,1.7,0,0,1,5.6-11.258a1.715,1.715,0,0,1,1.251.516A1.689,1.689,0,0,1,7.369-9.5a1.684,1.684,0,0,1-.521,1.251,1.725,1.725,0,0,1-1.251.51,1.694,1.694,0,0,1-1.235-.51A1.693,1.693,0,0,1,3.846-9.5,1.716,1.716,0,0,1,4.351-10.742Zm2.535,4.49v1.16a2.571,2.571,0,0,1-.263,1.2,2.406,2.406,0,0,1-.682.822,7.531,7.531,0,0,1-1.149.682A2.324,2.324,0,0,0,3.459-.129a2.232,2.232,0,0,0,.612,1.692,2.235,2.235,0,0,0,1.611.585A2.2,2.2,0,0,0,7.3,1.542a2.147,2.147,0,0,0,.612-1.6A4.219,4.219,0,0,0,7.788-1l2.771.354a7.094,7.094,0,0,1,.054.806A4.286,4.286,0,0,1,9.26,3.438,4.962,4.962,0,0,1,5.726,4.705a5.108,5.108,0,0,1-3.6-1.294A4.479,4.479,0,0,1,.72-.054a5.111,5.111,0,0,1,.236-1.6A3.628,3.628,0,0,1,1.6-2.863a4.415,4.415,0,0,1,.865-.806,4.6,4.6,0,0,1,.994-.521,1.676,1.676,0,0,0,.709-.478,1.167,1.167,0,0,0,.226-.747v-.838Zm18.788-9.271a4.671,4.671,0,0,1,3.577,1.445A5.026,5.026,0,0,1,30.6-10.506a4.9,4.9,0,0,1-1.343,3.55,4.756,4.756,0,0,1-3.588,1.391H22.44V0H19.218V-15.522Zm-.537,7.262a2.368,2.368,0,0,0,1.772-.607,2.308,2.308,0,0,0,.591-1.681,2.289,2.289,0,0,0-.6-1.66,2.347,2.347,0,0,0-1.767-.618h-2.7v4.565ZM37.673.215a6.944,6.944,0,0,1-3.126-.677A5.058,5.058,0,0,1,32.4-2.449a5.922,5.922,0,0,1-.779-3.083A5.4,5.4,0,0,1,33.3-9.722a6.217,6.217,0,0,1,4.372-1.536,6.232,6.232,0,0,1,4.383,1.536,5.4,5.4,0,0,1,1.676,4.189,5.432,5.432,0,0,1-1.676,4.206A6.219,6.219,0,0,1,37.673.215Zm-.032-2.46a2.835,2.835,0,0,0,2.186-.9,3.378,3.378,0,0,0,.833-2.385,3.378,3.378,0,0,0-.833-2.385,2.835,2.835,0,0,0-2.186-.9,2.731,2.731,0,0,0-2.122.908A3.409,3.409,0,0,0,34.7-5.532a3.409,3.409,0,0,0,.822,2.379A2.731,2.731,0,0,0,37.641-2.245ZM49-9.292a3.585,3.585,0,0,1,1.45-1.327,4.425,4.425,0,0,1,2.159-.553v2.761a4.183,4.183,0,0,0-2.643.666,2.908,2.908,0,0,0-.816,2.363V0H46.03V-11.043H49Zm19.121-1.751h2.933V5.371H67.955v-6.66A3.184,3.184,0,0,1,66.569-.15a4.766,4.766,0,0,1-1.987.408,5.371,5.371,0,0,1-2.062-.4,5.161,5.161,0,0,1-1.692-1.117,5.054,5.054,0,0,1-1.144-1.821A6.76,6.76,0,0,1,59.265-5.5a6.76,6.76,0,0,1,.419-2.422,5.054,5.054,0,0,1,1.144-1.821A5.161,5.161,0,0,1,62.52-10.86a5.371,5.371,0,0,1,2.063-.4,4.817,4.817,0,0,1,2.068.435,3.047,3.047,0,0,1,1.391,1.23ZM65.28-2.31a2.767,2.767,0,0,0,2.1-.881,3.225,3.225,0,0,0,.833-2.31,3.213,3.213,0,0,0-.838-2.31A2.771,2.771,0,0,0,65.28-8.69a2.779,2.779,0,0,0-2.089.865A3.212,3.212,0,0,0,62.358-5.5a3.212,3.212,0,0,0,.833,2.326A2.779,2.779,0,0,0,65.28-2.31Zm16.3-8.733H84.67V0H81.737l-.075-1.332A4.217,4.217,0,0,1,78.149.215,4.3,4.3,0,0,1,75.1-.779a3.684,3.684,0,0,1-1.063-2.831v-7.434h3.1v6.768a1.909,1.909,0,0,0,.553,1.515,2.1,2.1,0,0,0,1.434.483,2.49,2.49,0,0,0,1.756-.628,2.7,2.7,0,0,0,.693-2.046Zm14.7-4.426L93.833-12.59h-1.9l2.814-3.953Zm1.987,9.786-.032.741H90.041a2.859,2.859,0,0,0,.881,2.02,2.817,2.817,0,0,0,1.944.7A2.715,2.715,0,0,0,94.322-2.6a2.344,2.344,0,0,0,.929-1.112l2.836.419A4.821,4.821,0,0,1,96.153-.709a5.749,5.749,0,0,1-3.266.924,5.978,5.978,0,0,1-4.3-1.52,5.546,5.546,0,0,1-1.6-4.216,5.579,5.579,0,0,1,1.6-4.216,5.8,5.8,0,0,1,4.2-1.542,5.544,5.544,0,0,1,3.964,1.407A5.52,5.52,0,0,1,98.259-5.683ZM92.813-9.088a2.445,2.445,0,0,0-2.686,2.127H95.2a2.326,2.326,0,0,0-.763-1.579A2.417,2.417,0,0,0,92.813-9.088Zm16.36,4.3v-1.16a2.571,2.571,0,0,1,.263-1.2,2.406,2.406,0,0,1,.682-.822,7.531,7.531,0,0,1,1.149-.682,2.324,2.324,0,0,0,1.332-2.256,2.232,2.232,0,0,0-.612-1.692,2.235,2.235,0,0,0-1.611-.585,2.2,2.2,0,0,0-1.622.607,2.147,2.147,0,0,0-.612,1.6,4.219,4.219,0,0,0,.129.945L105.5-10.4a7.094,7.094,0,0,1-.054-.806A4.286,4.286,0,0,1,106.8-14.48a4.962,4.962,0,0,1,3.534-1.268,5.108,5.108,0,0,1,3.6,1.294,4.479,4.479,0,0,1,1.407,3.464,5.111,5.111,0,0,1-.236,1.6,3.628,3.628,0,0,1-.645,1.208,4.415,4.415,0,0,1-.865.806,4.6,4.6,0,0,1-.994.521,1.676,1.676,0,0,0-.709.478,1.167,1.167,0,0,0-.226.747v.838ZM111.7-.3a1.663,1.663,0,0,1-1.235.516A1.715,1.715,0,0,1,109.21-.3a1.689,1.689,0,0,1-.521-1.246A1.684,1.684,0,0,1,109.21-2.8a1.725,1.725,0,0,1,1.251-.51,1.694,1.694,0,0,1,1.235.51,1.693,1.693,0,0,1,.516,1.251A1.7,1.7,0,0,1,111.7-.3Z" transform="translate(1023 8361)" fill="#00223d"/>
    <path id="Trazado_39095" data-name="Trazado 39095" d="M4.351-10.742A1.7,1.7,0,0,1,5.6-11.258a1.715,1.715,0,0,1,1.251.516A1.689,1.689,0,0,1,7.369-9.5a1.684,1.684,0,0,1-.521,1.251,1.725,1.725,0,0,1-1.251.51,1.694,1.694,0,0,1-1.235-.51A1.693,1.693,0,0,1,3.846-9.5,1.716,1.716,0,0,1,4.351-10.742Zm2.535,4.49v1.16a2.571,2.571,0,0,1-.263,1.2,2.406,2.406,0,0,1-.682.822,7.531,7.531,0,0,1-1.149.682A2.324,2.324,0,0,0,3.459-.129a2.232,2.232,0,0,0,.612,1.692,2.235,2.235,0,0,0,1.611.585A2.2,2.2,0,0,0,7.3,1.542a2.147,2.147,0,0,0,.612-1.6A4.219,4.219,0,0,0,7.788-1l2.771.354a7.094,7.094,0,0,1,.054.806A4.286,4.286,0,0,1,9.26,3.438,4.962,4.962,0,0,1,5.726,4.705a5.108,5.108,0,0,1-3.6-1.294A4.479,4.479,0,0,1,.72-.054a5.111,5.111,0,0,1,.236-1.6A3.628,3.628,0,0,1,1.6-2.863a4.415,4.415,0,0,1,.865-.806,4.6,4.6,0,0,1,.994-.521,1.676,1.676,0,0,0,.709-.478,1.167,1.167,0,0,0,.226-.747v-.838Zm18.788-9.271a4.671,4.671,0,0,1,3.577,1.445A5.026,5.026,0,0,1,30.6-10.506a4.9,4.9,0,0,1-1.343,3.55,4.756,4.756,0,0,1-3.588,1.391H22.44V0H19.218V-15.522Zm-.537,7.262a2.368,2.368,0,0,0,1.772-.607,2.308,2.308,0,0,0,.591-1.681,2.289,2.289,0,0,0-.6-1.66,2.347,2.347,0,0,0-1.767-.618h-2.7v4.565ZM41.583-3a10.331,10.331,0,0,0,.269,2.7V0h-2.89l-.247-1.2A3.591,3.591,0,0,1,37.168-.14a5.7,5.7,0,0,1-2,.354,5.254,5.254,0,0,1-1.031-.1,3.506,3.506,0,0,1-.929-.328,2.82,2.82,0,0,1-.768-.575,2.52,2.52,0,0,1-.516-.875,3.488,3.488,0,0,1-.193-1.2,3.321,3.321,0,0,1,.2-1.2,2.807,2.807,0,0,1,.537-.9,3.258,3.258,0,0,1,.87-.655,6.658,6.658,0,0,1,1.1-.473,13.092,13.092,0,0,1,1.311-.344l1.815-.408a2,2,0,0,0,.822-.349.7.7,0,0,0,.242-.553A1.14,1.14,0,0,0,38.086-8.8a2.533,2.533,0,0,0-1.316-.322,1.894,1.894,0,0,0-2.159,1.687l-2.739-.494a3.708,3.708,0,0,1,1.6-2.519,6.362,6.362,0,0,1,3.47-.811q4.641,0,4.641,3.985ZM36.137-1.88a2.488,2.488,0,0,0,1.912-.8,3.372,3.372,0,0,0,.741-2.369l-2.621.741a3.1,3.1,0,0,0-1.1.451.927.927,0,0,0-.381.795,1.029,1.029,0,0,0,.408.875A1.689,1.689,0,0,0,36.137-1.88ZM47.556-9.292a3.585,3.585,0,0,1,1.45-1.327,4.425,4.425,0,0,1,2.159-.553v2.761a4.183,4.183,0,0,0-2.643.666,2.908,2.908,0,0,0-.816,2.363V0H44.591V-11.043h2.965ZM61.972-3A10.331,10.331,0,0,0,62.24-.3V0h-2.89L59.1-1.2A3.591,3.591,0,0,1,57.557-.14a5.7,5.7,0,0,1-2,.354,5.254,5.254,0,0,1-1.031-.1A3.506,3.506,0,0,1,53.6-.209a2.82,2.82,0,0,1-.768-.575,2.52,2.52,0,0,1-.516-.875,3.488,3.488,0,0,1-.193-1.2,3.322,3.322,0,0,1,.2-1.2,2.807,2.807,0,0,1,.537-.9,3.258,3.258,0,0,1,.87-.655,6.658,6.658,0,0,1,1.1-.473,13.092,13.092,0,0,1,1.311-.344l1.815-.408a2,2,0,0,0,.822-.349.7.7,0,0,0,.242-.553A1.14,1.14,0,0,0,58.475-8.8a2.533,2.533,0,0,0-1.316-.322A1.894,1.894,0,0,0,55-7.434l-2.739-.494a3.708,3.708,0,0,1,1.6-2.519,6.362,6.362,0,0,1,3.47-.811q4.641,0,4.641,3.985ZM56.525-1.88a2.488,2.488,0,0,0,1.912-.8,3.372,3.372,0,0,0,.741-2.369l-2.621.741a3.1,3.1,0,0,0-1.1.451.927.927,0,0,0-.381.795,1.029,1.029,0,0,0,.408.875A1.689,1.689,0,0,0,56.525-1.88Zm22.15-9.163h2.933V5.371H78.515v-6.66A3.184,3.184,0,0,1,77.129-.15a4.766,4.766,0,0,1-1.987.408,5.371,5.371,0,0,1-2.062-.4,5.161,5.161,0,0,1-1.692-1.117,5.054,5.054,0,0,1-1.144-1.821A6.76,6.76,0,0,1,69.824-5.5a6.76,6.76,0,0,1,.419-2.422,5.054,5.054,0,0,1,1.144-1.821,5.161,5.161,0,0,1,1.692-1.117,5.371,5.371,0,0,1,2.063-.4,4.817,4.817,0,0,1,2.068.435A3.047,3.047,0,0,1,78.6-9.593ZM75.84-2.31a2.767,2.767,0,0,0,2.1-.881,3.225,3.225,0,0,0,.833-2.31,3.213,3.213,0,0,0-.838-2.31A2.771,2.771,0,0,0,75.84-8.69a2.779,2.779,0,0,0-2.089.865A3.212,3.212,0,0,0,72.918-5.5a3.212,3.212,0,0,0,.833,2.326A2.779,2.779,0,0,0,75.84-2.31Zm16.3-8.733h3.094V0H92.3l-.075-1.332A4.217,4.217,0,0,1,88.709.215a4.3,4.3,0,0,1-3.051-.994,3.684,3.684,0,0,1-1.063-2.831v-7.434h3.1v6.768a1.909,1.909,0,0,0,.553,1.515,2.1,2.1,0,0,0,1.434.483,2.49,2.49,0,0,0,1.756-.628,2.7,2.7,0,0,0,.693-2.046Zm14.7-4.426-2.438,2.879h-1.9l2.814-3.953Zm1.987,9.786-.032.741H100.6a2.859,2.859,0,0,0,.881,2.02,2.817,2.817,0,0,0,1.944.7,2.715,2.715,0,0,0,1.456-.381,2.344,2.344,0,0,0,.929-1.112l2.836.419a4.821,4.821,0,0,1-1.934,2.589,5.749,5.749,0,0,1-3.266.924,5.978,5.978,0,0,1-4.3-1.52,5.546,5.546,0,0,1-1.6-4.216,5.579,5.579,0,0,1,1.6-4.216,5.8,5.8,0,0,1,4.2-1.542,5.544,5.544,0,0,1,3.964,1.407A5.52,5.52,0,0,1,108.818-5.683Zm-5.446-3.405a2.445,2.445,0,0,0-2.686,2.127h5.07a2.326,2.326,0,0,0-.763-1.579A2.417,2.417,0,0,0,103.372-9.088Zm16.36,4.3v-1.16a2.571,2.571,0,0,1,.263-1.2,2.406,2.406,0,0,1,.682-.822,7.531,7.531,0,0,1,1.149-.682,2.324,2.324,0,0,0,1.332-2.256,2.232,2.232,0,0,0-.612-1.692,2.235,2.235,0,0,0-1.611-.585,2.2,2.2,0,0,0-1.622.607,2.147,2.147,0,0,0-.612,1.6,4.219,4.219,0,0,0,.129.945l-2.771-.354A7.094,7.094,0,0,1,116-11.2a4.286,4.286,0,0,1,1.354-3.276,4.962,4.962,0,0,1,3.534-1.268,5.108,5.108,0,0,1,3.6,1.294,4.479,4.479,0,0,1,1.407,3.464,5.111,5.111,0,0,1-.236,1.6,3.628,3.628,0,0,1-.645,1.208,4.415,4.415,0,0,1-.865.806,4.6,4.6,0,0,1-.994.521,1.676,1.676,0,0,0-.709.478,1.167,1.167,0,0,0-.226.747v.838ZM122.257-.3a1.663,1.663,0,0,1-1.235.516A1.715,1.715,0,0,1,119.77-.3a1.689,1.689,0,0,1-.521-1.246A1.684,1.684,0,0,1,119.77-2.8a1.725,1.725,0,0,1,1.251-.51,1.694,1.694,0,0,1,1.235.51,1.693,1.693,0,0,1,.516,1.251A1.7,1.7,0,0,1,122.257-.3Z" transform="translate(1023 8392)" fill="#00223d"/>
  </g>
</svg>
