<svg xmlns="http://www.w3.org/2000/svg" xmlns:xlink="http://www.w3.org/1999/xlink" width="482.212" height="380.457" viewBox="0 0 482.212 380.457">
  <defs>
    <clipPath id="clip-path">
      <rect id="Rectángulo_3201" data-name="Rectángulo 3201" width="382.861" height="380.457" fill="none"/>
    </clipPath>
  </defs>
  <g id="Grupo_22079" data-name="Grupo 22079" transform="translate(-451.918 -5091.754)">
    <g id="Grupo_21596" data-name="Grupo 21596" transform="translate(451.918 5140.691)">
      <g id="Grupo_18509" data-name="Grupo 18509" transform="translate(23.959 200.712)">
        <path id="Trazado_37987" data-name="Trazado 37987" d="M363.275,1946.2a.9.9,0,0,1-.9-.9c0-1.186-.023-2.387-.069-3.571a.9.9,0,0,1,1.8-.07c.047,1.207.07,2.431.07,3.64A.9.9,0,0,1,363.275,1946.2Zm-.631-10.793a.9.9,0,0,1-.895-.8c-.139-1.181-.3-2.375-.487-3.548a.9.9,0,0,1,1.783-.28c.188,1.2.355,2.413.5,3.618a.9.9,0,0,1-.791,1A.921.921,0,0,1,362.644,1935.409Zm-1.887-10.663a.9.9,0,0,1-.877-.694c-.273-1.149-.573-2.312-.891-3.457a.9.9,0,0,1,1.739-.484c.325,1.167.63,2.352.909,3.524a.9.9,0,0,1-.879,1.111Zm-3.091-10.354a.9.9,0,0,1-.849-.6c-.4-1.109-.828-2.229-1.271-3.329a.9.9,0,1,1,1.674-.674c.451,1.119.886,2.26,1.294,3.389a.9.9,0,0,1-.849,1.209Zm-4.216-9.948a.9.9,0,0,1-.812-.506c-.519-1.061-1.066-2.133-1.626-3.185a.9.9,0,1,1,1.593-.848c.57,1.071,1.127,2.161,1.654,3.241a.9.9,0,0,1-.81,1.3Zm-5.245-9.462a.9.9,0,0,1-.767-.426c-.623-1-1.276-2.013-1.94-3.007a.9.9,0,0,1,1.5-1c.675,1.01,1.338,2.038,1.972,3.056a.9.9,0,0,1-.765,1.379Zm-6.154-8.9a.9.9,0,0,1-.718-.355c-.72-.942-1.465-1.889-2.217-2.813a.9.9,0,1,1,1.4-1.139c.763.938,1.52,1.9,2.25,2.856a.9.9,0,0,1-.716,1.45Zm-6.949-8.3a.9.9,0,0,1-.666-.293c-.8-.874-1.627-1.751-2.457-2.608a.9.9,0,0,1,1.3-1.256c.842.869,1.68,1.759,2.492,2.645a.9.9,0,0,1-.665,1.512Zm-7.636-7.671a.9.9,0,0,1-.613-.24c-.875-.809-1.771-1.617-2.663-2.4a.9.9,0,0,1,1.19-1.357c.9.793,1.812,1.611,2.7,2.432a.9.9,0,0,1-.613,1.564Zm-8.227-7.035a.9.9,0,0,1-.559-.195c-.932-.737-1.888-1.474-2.841-2.189a.9.9,0,1,1,1.084-1.443c.965.725,1.932,1.471,2.876,2.217a.9.9,0,0,1-.56,1.61Zm-8.731-6.4a.9.9,0,0,1-.506-.156c-.985-.669-1.992-1.335-2.992-1.981a.9.9,0,0,1,.979-1.517c1.012.653,2.03,1.328,3.027,2a.9.9,0,0,1-.508,1.649Zm-9.161-5.768a.9.9,0,0,1-.454-.123c-1.019-.594-2.069-1.191-3.121-1.774a.9.9,0,0,1,.875-1.578c1.063.589,2.125,1.193,3.155,1.793a.9.9,0,0,1-.455,1.682Zm-9.526-5.144a.9.9,0,0,1-.4-.1c-1.053-.525-2.139-1.053-3.23-1.57a.9.9,0,1,1,.772-1.631c1.1.522,2.2,1.055,3.263,1.586a.9.9,0,0,1-.4,1.71Zm-9.833-4.529a.9.9,0,0,1-.351-.072c-1.086-.46-2.2-.92-3.321-1.368a.9.9,0,1,1,.671-1.675c1.128.452,2.257.917,3.354,1.381a.9.9,0,0,1-.352,1.733Zm-10.09-3.923a.907.907,0,0,1-.3-.052c-1.125-.4-2.268-.793-3.4-1.169a.9.9,0,1,1,.571-1.712c1.139.38,2.293.777,3.429,1.18a.9.9,0,0,1-.3,1.753Zm-10.3-3.326a.908.908,0,0,1-.253-.036c-1.139-.332-2.3-.66-3.458-.973a.9.9,0,1,1,.472-1.742c1.166.316,2.341.647,3.491.982a.9.9,0,0,1-.252,1.769Zm-10.474-2.737a.907.907,0,0,1-.2-.023c-1.164-.27-2.344-.532-3.507-.78a.9.9,0,1,1,.376-1.765c1.174.25,2.364.514,3.539.787a.9.9,0,0,1-.2,1.781Zm-10.609-2.158a.905.905,0,0,1-.157-.014c-1.177-.207-2.37-.4-3.545-.589a.9.9,0,1,1,.28-1.783c1.185.186,2.389.386,3.576.594a.9.9,0,0,1-.155,1.791Zm-10.71-1.585a.879.879,0,0,1-.11-.007c-1.173-.142-2.374-.277-3.571-.4a.9.9,0,0,1,.186-1.8c1.207.125,2.419.261,3.6.4a.9.9,0,0,1-.107,1.8Zm-10.778-1.021-.063,0c-1.186-.081-2.393-.154-3.588-.215a.9.9,0,1,1,.093-1.8c1.2.062,2.422.135,3.618.217a.9.9,0,0,1-.061,1.8Zm-10.817-.465h-.016c-1.182-.02-2.391-.031-3.594-.032a.9.9,0,0,1,0-1.8h0c1.213,0,2.432.012,3.624.033a.9.9,0,0,1-.015,1.8Z" transform="translate(-203.695 -1824.19)" fill="#658ed6"/>
      </g>
      <g id="Grupo_18510" data-name="Grupo 18510" transform="translate(263.189 68.291)">
        <path id="Trazado_37988" data-name="Trazado 37988" d="M1952.652,1101.4a.9.9,0,0,1-.9-.9q0-1.811.012-3.616a.9.9,0,0,1,.9-.9h.006a.9.9,0,0,1,.9.908q-.012,1.8-.012,3.6A.9.9,0,0,1,1952.652,1101.4Zm.106-10.829h-.018a.9.9,0,0,1-.884-.92q.036-1.811.083-3.615a.917.917,0,0,1,.926-.878.9.9,0,0,1,.878.926q-.048,1.8-.083,3.6A.9.9,0,0,1,1952.759,1090.572Zm.32-10.825h-.036a.9.9,0,0,1-.866-.937q.071-1.81.155-3.612a.9.9,0,1,1,1.8.083q-.083,1.8-.154,3.6A.9.9,0,0,1,1953.079,1079.747Zm.536-10.816-.054,0a.9.9,0,0,1-.847-.954q.107-1.809.228-3.609a.9.9,0,0,1,1.8.12q-.119,1.793-.227,3.6A.9.9,0,0,1,1953.615,1068.931Zm.757-10.8c-.024,0-.049,0-.073,0a.9.9,0,0,1-.827-.972q.146-1.807.3-3.6a.9.9,0,1,1,1.8.157q-.156,1.791-.3,3.591A.9.9,0,0,1,1954.372,1058.127Zm.981-10.785a.9.9,0,0,1-.9-.994q.183-1.8.379-3.6a.9.9,0,0,1,1.794.2q-.195,1.787-.377,3.583A.9.9,0,0,1,1955.353,1047.343Zm1.211-10.762a.9.9,0,0,1-.9-1.013q.222-1.8.456-3.587a.9.9,0,1,1,1.789.234q-.233,1.781-.455,3.575A.9.9,0,0,1,1956.563,1036.581Zm1.447-10.733a.893.893,0,0,1-.132-.01.9.9,0,0,1-.762-1.023q.262-1.8.537-3.577a.9.9,0,1,1,1.783.275q-.274,1.775-.535,3.563A.9.9,0,0,1,1958.01,1025.848Zm1.69-10.7a.89.89,0,0,1-.152-.013.9.9,0,0,1-.738-1.041q.3-1.788.62-3.564a.9.9,0,0,1,1.777.317q-.315,1.767-.618,3.549A.9.9,0,0,1,1959.7,1015.151Zm1.942-10.654a.926.926,0,0,1-.173-.017.9.9,0,0,1-.713-1.058q.346-1.782.706-3.548a.9.9,0,1,1,1.768.36q-.358,1.759-.7,3.533A.9.9,0,0,1,1961.642,1004.5Zm2.2-10.6a.914.914,0,0,1-.2-.021.9.9,0,0,1-.686-1.076q.392-1.773.8-3.529a.9.9,0,0,1,1.759.406q-.4,1.748-.794,3.513A.9.9,0,0,1,1963.845,993.894Zm2.478-10.542a.9.9,0,0,1-.876-1.121q.439-1.762.891-3.507a.9.9,0,0,1,1.747.453q-.45,1.736-.887,3.491A.9.9,0,0,1,1966.323,983.352Zm2.766-10.471a.9.9,0,0,1-.869-1.145q.489-1.751.992-3.481a.9.9,0,1,1,1.733.5q-.5,1.722-.986,3.464A.9.9,0,0,1,1969.089,972.881Zm3.071-10.384a.9.9,0,0,1-.862-1.172q.543-1.736,1.1-3.449a.9.9,0,1,1,1.716.557q-.552,1.7-1.092,3.431A.9.9,0,0,1,1972.161,962.5Zm3.4-10.284a.9.9,0,0,1-.852-1.2q.6-1.718,1.212-3.411a.9.9,0,0,1,1.7.614q-.609,1.684-1.2,3.392A.9.9,0,0,1,1975.556,952.213Zm3.746-10.161a.9.9,0,0,1-.841-1.23q.661-1.7,1.335-3.366a.9.9,0,1,1,1.673.676q-.67,1.658-1.327,3.345A.9.9,0,0,1,1979.3,942.052Zm4.123-10.013a.9.9,0,0,1-.827-1.263c.479-1.1.974-2.215,1.469-3.311a.9.9,0,1,1,1.644.744c-.492,1.088-.983,2.194-1.459,3.288A.9.9,0,0,1,1983.425,932.039Zm4.536-9.833a.9.9,0,0,1-.81-1.3c.532-1.088,1.076-2.179,1.617-3.243a.9.9,0,0,1,1.609.818c-.537,1.056-1.077,2.138-1.6,3.217A.9.9,0,0,1,1987.961,922.206Zm4.991-9.609a.9.9,0,0,1-.789-1.339c.586-1.061,1.185-2.124,1.781-3.158a.9.9,0,1,1,1.563.9c-.591,1.025-1.184,2.078-1.765,3.129A.9.9,0,0,1,1992.952,912.6Zm5.5-9.327a.9.9,0,0,1-.763-1.383c.648-1.03,1.31-2.056,1.966-3.05a.9.9,0,1,1,1.506.994c-.648.983-1.3,2-1.945,3.017A.9.9,0,0,1,1998.448,903.27Zm6.065-8.966a.9.9,0,0,1-.729-1.433c.717-.984,1.448-1.963,2.174-2.909a.9.9,0,1,1,1.432,1.1c-.717.934-1.439,1.9-2.146,2.872A.9.9,0,0,1,2004.513,894.3Zm6.706-8.494a.9.9,0,0,1-.684-1.49c.795-.925,1.606-1.841,2.41-2.722a.9.9,0,1,1,1.332,1.217c-.792.867-1.591,1.769-2.374,2.68A.9.9,0,0,1,2011.219,885.81Zm7.429-7.863a.9.9,0,0,1-.623-1.554c.883-.845,1.784-1.675,2.677-2.467a.9.9,0,1,1,1.2,1.35c-.876.778-1.76,1.592-2.628,2.422A.9.9,0,0,1,2018.648,877.947Zm8.234-7a.9.9,0,0,1-.541-1.625c.98-.734,1.979-1.446,2.97-2.117a.9.9,0,0,1,1.013,1.494c-.967.656-1.943,1.352-2.9,2.068A.9.9,0,0,1,2026.882,870.943Zm9.092-5.828a.9.9,0,0,1-.427-1.7c1.081-.58,2.181-1.131,3.268-1.636a.9.9,0,1,1,.761,1.636c-1.056.491-2.124,1.026-3.175,1.59A.9.9,0,0,1,2035.974,865.115Zm9.915-4.243a.9.9,0,0,1-.276-1.762c1.166-.375,2.35-.712,3.52-1a.9.9,0,0,1,.436,1.751c-1.131.282-2.277.608-3.4.97A.9.9,0,0,1,2045.889,860.872Zm10.54-2.233a.9.9,0,0,1-.092-1.8c1.214-.126,2.445-.209,3.658-.247h.029a.9.9,0,0,1,.028,1.8c-1.171.036-2.358.117-3.529.238A.876.876,0,0,1,2056.429,858.639Z" transform="translate(-1951.75 -856.592)" fill="#658ed6"/>
      </g>
      <g id="Grupo_18514" data-name="Grupo 18514" transform="translate(276.649 184.584)">
        <g id="Grupo_18511" data-name="Grupo 18511" transform="translate(0 140.69)">
          <path id="Trazado_37989" data-name="Trazado 37989" d="M2051,2737.975a.9.9,0,0,1-.9-.9q0-.909.011-1.815a.9.9,0,0,1,.9-.892h.011a.9.9,0,0,1,.891.913q-.01.9-.011,1.793A.9.9,0,0,1,2051,2737.975Z" transform="translate(-2050.101 -2734.366)" fill="#658ed6"/>
        </g>
        <g id="Grupo_18512" data-name="Grupo 18512" transform="translate(0.273 0.276)">
          <path id="Trazado_37990" data-name="Trazado 37990" d="M2053,1843.478l-.056,0a.9.9,0,0,1-.845-.956c.073-1.192.162-2.391.264-3.565a.9.9,0,0,1,1.8.156c-.1,1.159-.188,2.343-.261,3.52A.9.9,0,0,1,2053,1843.478Zm1.048-10.6a.849.849,0,0,1-.123-.009.9.9,0,0,1-.772-1.016c.161-1.178.339-2.368.529-3.535a.9.9,0,1,1,1.781.289c-.187,1.153-.363,2.327-.522,3.49A.9.9,0,0,1,2054.048,1832.877Zm1.835-10.493a.893.893,0,0,1-.189-.02.9.9,0,0,1-.694-1.071c.247-1.155.513-2.327.791-3.485a.9.9,0,1,1,1.755.421c-.274,1.144-.537,2.3-.781,3.442A.9.9,0,0,1,2055.883,1822.384Zm2.617-10.326a.9.9,0,0,1-.866-1.157c.334-1.136.689-2.289,1.055-3.428a.9.9,0,1,1,1.718.552c-.361,1.125-.712,2.264-1.041,3.385A.9.9,0,0,1,2058.5,1812.058Zm3.4-10.125a.9.9,0,0,1-.844-1.222c.421-1.113.862-2.236,1.31-3.336a.9.9,0,0,1,1.671.681c-.442,1.087-.877,2.195-1.293,3.294A.9.9,0,0,1,2061.9,1801.933Zm4.148-9.836a.9.9,0,0,1-.817-1.284c.5-1.073,1.025-2.159,1.556-3.226a.9.9,0,0,1,1.616.8c-.524,1.054-1.042,2.125-1.537,3.186A.9.9,0,0,1,2066.046,1792.1Zm4.875-9.49a.9.9,0,0,1-.786-1.345c.581-1.033,1.184-2.076,1.792-3.1a.9.9,0,0,1,1.551.923c-.6,1.01-1.2,2.04-1.771,3.06A.9.9,0,0,1,2070.92,1782.607Zm5.571-9.095a.9.9,0,0,1-.75-1.4c.657-.988,1.336-1.982,2.019-2.954a.9.9,0,0,1,1.477,1.036c-.674.96-1.344,1.942-1.993,2.917A.9.9,0,0,1,2076.491,1773.512Zm6.232-8.649a.9.9,0,0,1-.711-1.457c.729-.936,1.48-1.876,2.232-2.794a.9.9,0,1,1,1.4,1.144c-.742.906-1.484,1.835-2.2,2.76A.9.9,0,0,1,2082.723,1764.863Zm6.858-8.158a.9.9,0,0,1-.668-1.508c.8-.881,1.617-1.763,2.433-2.619a.9.9,0,1,1,1.306,1.245c-.805.845-1.613,1.715-2.4,2.586A.9.9,0,0,1,2089.58,1756.7Zm7.442-7.623a.9.9,0,0,1-.622-1.556c.852-.81,1.733-1.627,2.619-2.43a.9.9,0,0,1,1.211,1.338c-.876.793-1.746,1.6-2.587,2.4A.9.9,0,0,1,2097.022,1749.081Zm7.986-7.046a.9.9,0,0,1-.572-1.6c.923-.755,1.863-1.5,2.792-2.227a.9.9,0,0,1,1.107,1.425c-.918.713-1.845,1.453-2.757,2.2A.9.9,0,0,1,2105.009,1742.035Zm8.485-6.43a.9.9,0,0,1-.519-1.641c.972-.681,1.964-1.358,2.948-2.011a.9.9,0,1,1,1,1.5c-.972.646-1.952,1.314-2.911,1.986A.9.9,0,0,1,2113.494,1735.6Zm8.937-5.777a.9.9,0,0,1-.462-1.678c1.02-.607,2.06-1.208,3.089-1.785a.9.9,0,1,1,.884,1.574c-1.017.57-2.042,1.163-3.049,1.762A.9.9,0,0,1,2122.43,1729.828Zm9.339-5.091a.9.9,0,0,1-.4-1.71c1.06-.527,2.141-1.048,3.211-1.548a.9.9,0,0,1,.763,1.635c-1.057.493-2.124,1.007-3.17,1.528A.906.906,0,0,1,2131.769,1724.737Zm9.687-4.375a.9.9,0,0,1-.341-1.738c1.1-.448,2.216-.886,3.315-1.3a.9.9,0,1,1,.638,1.688c-1.085.41-2.187.843-3.273,1.285A.9.9,0,0,1,2141.456,1720.362Zm10-3.639a.9.9,0,0,1-.276-1.761c1.125-.362,2.274-.716,3.416-1.052a.9.9,0,1,1,.51,1.731c-1.128.332-2.262.681-3.373,1.039A.908.908,0,0,1,2151.455,1716.723Zm10.256-2.88a.9.9,0,0,1-.21-1.78c1.16-.279,2.333-.546,3.486-.792a.9.9,0,1,1,.377,1.765c-1.137.243-2.295.506-3.441.782A.9.9,0,0,1,2161.71,1713.844Zm10.442-2.1a.9.9,0,0,1-.143-1.793c1.172-.191,2.362-.369,3.535-.529a.9.9,0,1,1,.244,1.788c-1.158.159-2.333.334-3.49.522A.9.9,0,0,1,2172.152,1711.743Zm10.571-1.315a.9.9,0,0,1-.077-1.8c1.174-.1,2.373-.191,3.565-.265a.9.9,0,0,1,.111,1.8c-1.177.073-2.361.161-3.52.262C2182.776,1710.427,2182.75,1710.429,2182.723,1710.429Z" transform="translate(-2052.096 -1708.361)" fill="#658ed6"/>
        </g>
        <g id="Grupo_18513" data-name="Grupo 18513" transform="translate(140.692)">
          <path id="Trazado_37991" data-name="Trazado 37991" d="M3079.04,1708.158a.9.9,0,0,1-.011-1.8q.907-.012,1.816-.011a.9.9,0,0,1,0,1.8q-.9,0-1.793.011Z" transform="translate(-3078.139 -1706.342)" fill="#658ed6"/>
        </g>
      </g>
      <g id="Grupo_18518" data-name="Grupo 18518" transform="translate(301.347 237.015)">
        <g id="Grupo_18515" data-name="Grupo 18515" transform="translate(0 81.234)">
          <path id="Trazado_37992" data-name="Trazado 37992" d="M2231.469,2686.635a.9.9,0,0,1-.9-.9q0-.914.019-1.823a.9.9,0,0,1,1.8.038q-.019.89-.019,1.786A.9.9,0,0,1,2231.469,2686.635Z" transform="translate(-2230.567 -2683.026)" fill="#658ed6"/>
        </g>
        <g id="Grupo_18516" data-name="Grupo 18516" transform="translate(0.485 0.489)">
          <path id="Trazado_37993" data-name="Trazado 37993" d="M2235.013,2168.343a.872.872,0,0,1-.1-.005.9.9,0,0,1-.8-.994c.13-1.206.289-2.428.472-3.631a.9.9,0,1,1,1.784.271c-.179,1.178-.335,2.374-.462,3.554A.9.9,0,0,1,2235.013,2168.343Zm1.87-10.7a.924.924,0,0,1-.214-.025.9.9,0,0,1-.663-1.09c.288-1.181.6-2.371.944-3.539a.9.9,0,0,1,1.733.5c-.332,1.142-.642,2.307-.923,3.462A.9.9,0,0,1,2236.883,2157.644Zm3.257-10.362a.9.9,0,0,1-.841-1.229c.441-1.136.914-2.276,1.4-3.39a.9.9,0,0,1,1.652.727c-.479,1.09-.942,2.206-1.374,3.317A.9.9,0,0,1,2240.14,2147.281Zm4.594-9.85a.9.9,0,0,1-.79-1.337c.585-1.066,1.2-2.134,1.835-3.174a.9.9,0,0,1,1.543.937c-.619,1.018-1.223,2.063-1.8,3.106A.9.9,0,0,1,2244.734,2137.431Zm5.844-9.163a.9.9,0,0,1-.727-1.437c.718-.978,1.469-1.956,2.232-2.906a.9.9,0,0,1,1.407,1.13c-.747.93-1.482,1.886-2.184,2.844A.9.9,0,0,1,2250.578,2128.269Zm6.987-8.321a.9.9,0,0,1-.652-1.527c.839-.876,1.71-1.747,2.589-2.59a.9.9,0,0,1,1.248,1.3c-.861.824-1.713,1.677-2.534,2.534A.9.9,0,0,1,2257.565,2119.948Zm8.009-7.342a.9.9,0,0,1-.566-1.606c.948-.761,1.924-1.511,2.9-2.23a.9.9,0,1,1,1.069,1.455c-.958.7-1.914,1.438-2.841,2.182A.9.9,0,0,1,2265.573,2112.606Zm8.893-6.235a.9.9,0,0,1-.469-1.673c1.04-.632,2.1-1.249,3.167-1.831a.9.9,0,1,1,.869,1.582c-1.038.571-2.081,1.173-3.1,1.792A.9.9,0,0,1,2274.466,2106.371Zm9.627-5.019a.9.9,0,0,1-.364-1.729c1.113-.49,2.249-.961,3.376-1.4a.9.9,0,0,1,.654,1.682c-1.1.429-2.214.89-3.3,1.37A.9.9,0,0,1,2284.094,2101.352Zm10.2-3.712a.9.9,0,0,1-.251-1.769c1.169-.34,2.36-.658,3.538-.945a.9.9,0,1,1,.427,1.753c-1.153.281-2.317.592-3.462.925A.9.9,0,0,1,2294.294,2097.64Zm10.605-2.341a.9.9,0,0,1-.135-1.795c1.2-.183,2.423-.342,3.631-.474a.9.9,0,0,1,.194,1.795c-1.182.128-2.377.284-3.553.463A.875.875,0,0,1,2304.9,2095.3Z" transform="translate(-2234.11 -2093.026)" fill="#658ed6"/>
        </g>
        <g id="Grupo_18517" data-name="Grupo 18517" transform="translate(81.233)">
          <path id="Trazado_37994" data-name="Trazado 37994" d="M2825.038,2091.276a.9.9,0,0,1-.018-1.8q.909-.019,1.824-.019a.9.9,0,1,1,0,1.8q-.895,0-1.786.019Z" transform="translate(-2824.136 -2089.452)" fill="#658ed6"/>
        </g>
      </g>
      <g id="Grupo_18519" data-name="Grupo 18519" transform="translate(84.064 73.09)">
        <path id="Trazado_37995" data-name="Trazado 37995" d="M711.681,1136.191a.9.9,0,0,1-.9-.9q0-1.806-.007-3.606a.9.9,0,0,1,.9-.906h0a.9.9,0,0,1,.9.9q.008,1.8.008,3.614A.9.9,0,0,1,711.681,1136.191Zm-.067-10.83a.9.9,0,0,1-.9-.891q-.022-1.807-.052-3.606a.9.9,0,0,1,.887-.917h.015a.9.9,0,0,1,.9.888q.03,1.8.052,3.613a.9.9,0,0,1-.891.913Zm-.2-10.828a.9.9,0,0,1-.9-.88q-.045-1.806-.1-3.6a.9.9,0,0,1,.876-.928h.027a.9.9,0,0,1,.9.876q.052,1.8.1,3.612a.9.9,0,0,1-.88.925Zm-.339-10.825a.9.9,0,0,1-.9-.868q-.068-1.806-.144-3.6a.9.9,0,0,1,1.8-.076q.076,1.8.144,3.61a.9.9,0,0,1-.868.936Zm-.478-10.82a.9.9,0,0,1-.9-.857q-.092-1.805-.191-3.6a.9.9,0,0,1,1.8-.1q.1,1.8.191,3.609a.9.9,0,0,1-.855.947Zm-.622-10.812a.9.9,0,0,1-.9-.845q-.116-1.8-.239-3.6a.9.9,0,1,1,1.8-.124q.123,1.8.24,3.606a.9.9,0,0,1-.843.958Zm-.768-10.8a.9.9,0,0,1-.9-.833q-.141-1.8-.289-3.594a.9.9,0,0,1,1.8-.149q.149,1.8.29,3.6a.9.9,0,0,1-.829.97C709.253,1071.271,709.229,1071.272,709.205,1071.272Zm-.92-10.792a.9.9,0,0,1-.9-.819q-.167-1.8-.341-3.589a.9.9,0,0,1,1.8-.175q.175,1.793.342,3.6a.9.9,0,0,1-.815.982C708.341,1060.479,708.313,1060.481,708.285,1060.481Zm-1.078-10.777a.9.9,0,0,1-.9-.806q-.194-1.8-.4-3.584a.9.9,0,0,1,1.793-.2q.2,1.789.4,3.593a.9.9,0,0,1-.8.994A.973.973,0,0,1,707.208,1049.7Zm-1.242-10.759a.9.9,0,0,1-.894-.792q-.222-1.8-.452-3.577a.9.9,0,0,1,1.79-.231q.23,1.786.453,3.587a.9.9,0,0,1-.785,1.006A.888.888,0,0,1,705.966,1038.944Zm-1.416-10.737a.9.9,0,0,1-.892-.777q-.252-1.792-.511-3.568a.9.9,0,0,1,1.786-.261q.261,1.781.513,3.579a.9.9,0,0,1-.768,1.019A.928.928,0,0,1,704.55,1028.207Zm-1.6-10.713a.9.9,0,0,1-.89-.761q-.284-1.788-.575-3.558a.9.9,0,0,1,1.781-.293q.293,1.776.577,3.569a.9.9,0,0,1-.892,1.044Zm-1.8-10.681a.9.9,0,0,1-.887-.744q-.318-1.784-.644-3.546a.9.9,0,1,1,1.775-.328q.327,1.768.646,3.558a.9.9,0,0,1-.89,1.061Zm-2.008-10.643a.9.9,0,0,1-.884-.726q-.355-1.778-.719-3.531a.9.9,0,1,1,1.767-.366q.365,1.76.721,3.544a.9.9,0,0,1-.886,1.079Zm-2.24-10.6a.9.9,0,0,1-.88-.705q-.4-1.77-.8-3.513a.9.9,0,0,1,1.758-.408q.406,1.75.8,3.527a.9.9,0,0,1-.881,1.1Zm-2.5-10.539a.9.9,0,0,1-.874-.683q-.442-1.76-.892-3.489a.9.9,0,1,1,1.746-.456q.453,1.737.9,3.506a.9.9,0,0,1-.876,1.122Zm-2.785-10.467a.9.9,0,0,1-.868-.657q-.493-1.748-1-3.46a.9.9,0,0,1,1.732-.509q.506,1.722,1,3.478a.9.9,0,0,1-.623,1.113A.892.892,0,0,1,691.624,964.568ZM688.508,954.2a.9.9,0,0,1-.859-.628q-.554-1.731-1.118-3.42a.9.9,0,1,1,1.712-.572q.568,1.7,1.125,3.443a.9.9,0,0,1-.86,1.177ZM685,943.947a.9.9,0,0,1-.848-.593c-.414-1.132-.838-2.265-1.262-3.367a.9.9,0,1,1,1.685-.646c.427,1.111.854,2.253,1.272,3.394a.9.9,0,0,1-.847,1.213Zm-3.969-10.076a.9.9,0,0,1-.831-.549c-.472-1.11-.956-2.217-1.438-3.291a.9.9,0,0,1,1.646-.739c.487,1.085.976,2.2,1.453,3.324a.9.9,0,0,1-.83,1.256Zm-4.551-9.824a.9.9,0,0,1-.806-.495c-.548-1.083-1.108-2.151-1.663-3.175a.9.9,0,0,1,1.587-.859c.563,1.039,1.13,2.122,1.686,3.219a.9.9,0,0,1-.8,1.31Zm-5.308-9.432a.9.9,0,0,1-.764-.421c-.647-1.028-1.307-2.032-1.962-2.984a.9.9,0,1,1,1.487-1.022c.668.973,1.342,2,2,3.045a.9.9,0,0,1-.763,1.383Zm-6.344-8.753a.9.9,0,0,1-.689-.319c-.783-.924-1.583-1.809-2.376-2.63a.9.9,0,0,1,1.3-1.254c.82.849,1.646,1.763,2.455,2.717a.9.9,0,0,1-.688,1.486Zm-7.812-7.421a.9.9,0,0,1-.53-.173,30.249,30.249,0,0,0-2.928-1.891.9.9,0,0,1,.887-1.572,32.077,32.077,0,0,1,3.1,2,.9.9,0,0,1-.532,1.632Zm-9.666-4.533a.9.9,0,0,1-.191-.02,19.358,19.358,0,0,0-3.405-.426.9.9,0,1,1,.062-1.8,21.141,21.141,0,0,1,3.724.465.9.9,0,0,1-.19,1.784Z" transform="translate(-642.886 -891.659)" fill="#658ed6"/>
      </g>
      <g id="Grupo_18520" data-name="Grupo 18520" transform="translate(341.61 219.581)">
        <path id="Trazado_37996" data-name="Trazado 37996" d="M2524.77,1968.894a8.406,8.406,0,0,0,9.732-6.826q1.28,1.824,2.559,3.652a8.4,8.4,0,0,1-9.729,6.826Q2526.053,1970.718,2524.77,1968.894Z" transform="translate(-2524.77 -1962.068)" fill="#f0c964"/>
      </g>
      <g id="Grupo_18521" data-name="Grupo 18521" transform="translate(250.599 319.808)">
        <path id="Trazado_37997" data-name="Trazado 37997" d="M1859.755,2701.247a8.407,8.407,0,0,0,9.732-6.826q1.279,1.824,2.559,3.652a8.406,8.406,0,0,1-9.728,6.827Q1861.038,2703.071,1859.755,2701.247Z" transform="translate(-1859.755 -2694.421)" fill="#f0c964"/>
      </g>
      <g id="Grupo_18522" data-name="Grupo 18522" transform="translate(394.296 152.283)">
        <path id="Trazado_37998" data-name="Trazado 37998" d="M2911.321,1470.321a8.407,8.407,0,0,0,11.126,4.186q-.785,2.089-1.574,4.176a8.407,8.407,0,0,1-11.124-4.188Q2910.539,1472.41,2911.321,1470.321Z" transform="translate(-2909.749 -1470.321)" fill="#416eca"/>
      </g>
      <g id="Grupo_18523" data-name="Grupo 18523" transform="translate(359.383 109.998)">
        <path id="Trazado_37999" data-name="Trazado 37999" d="M2661.533,1173.61a8.4,8.4,0,0,0-6.891-9.683l3.636-2.587a8.407,8.407,0,0,1,6.891,9.683Q2663.353,1172.318,2661.533,1173.61Z" transform="translate(-2654.642 -1161.34)" fill="#edba3f"/>
      </g>
      <g id="Grupo_18524" data-name="Grupo 18524" transform="translate(102.919 135.035)">
        <path id="Trazado_38000" data-name="Trazado 38000" d="M787.548,1356.558a8.4,8.4,0,0,0-6.891-9.683q1.816-1.294,3.636-2.587a8.406,8.406,0,0,1,6.891,9.683Q789.368,1355.265,787.548,1356.558Z" transform="translate(-780.657 -1344.288)" fill="#ca5e2b"/>
      </g>
      <g id="Grupo_18525" data-name="Grupo 18525" transform="translate(178.217 253.727)">
        <path id="Trazado_38001" data-name="Trazado 38001" d="M1337.747,2223.844a8.4,8.4,0,0,0-6.891-9.684q1.816-1.294,3.636-2.587a8.407,8.407,0,0,1,6.891,9.684Q1339.567,2222.55,1337.747,2223.844Z" transform="translate(-1330.856 -2211.573)" fill="#ca5e2b"/>
      </g>
      <g id="Grupo_18526" data-name="Grupo 18526" transform="translate(425.303 87.96)">
        <path id="Trazado_38002" data-name="Trazado 38002" d="M3136.318,1006.8a8.4,8.4,0,0,0,9.956-6.493l2.438,3.738a8.407,8.407,0,0,1-9.954,6.493Q3137.536,1008.675,3136.318,1006.8Z" transform="translate(-3136.318 -1000.311)" fill="#ca5e2b"/>
      </g>
      <g id="Grupo_18527" data-name="Grupo 18527" transform="translate(51.116 141.17)">
        <path id="Trazado_38003" data-name="Trazado 38003" d="M412.949,1398.634a8.4,8.4,0,0,0-10.818-4.922q.923-2.028,1.848-4.061a8.4,8.4,0,0,1,10.818,4.921Q413.875,1396.6,412.949,1398.634Z" transform="translate(-402.131 -1389.114)" fill="#658ed6"/>
      </g>
      <g id="Grupo_18528" data-name="Grupo 18528" transform="translate(118.571 203.646)">
        <path id="Trazado_38004" data-name="Trazado 38004" d="M897.953,1845.627a8.4,8.4,0,0,0,8.965,7.8c-.976,1.125-1.954,2.244-2.929,3.368a8.407,8.407,0,0,1-8.965-7.806Q896.488,1847.311,897.953,1845.627Z" transform="translate(-895.024 -1845.627)" fill="#e59323"/>
      </g>
      <g id="Grupo_18529" data-name="Grupo 18529" transform="translate(142.053 110.046)">
        <path id="Trazado_38005" data-name="Trazado 38005" d="M1066.606,1171.176a8.4,8.4,0,0,0,7.167-9.481l3.558,2.69a8.406,8.406,0,0,1-7.168,9.483Q1068.388,1172.521,1066.606,1171.176Z" transform="translate(-1066.606 -1161.695)" fill="#282871"/>
      </g>
      <g id="Grupo_18530" data-name="Grupo 18530" transform="translate(318.493 60.275)">
        <path id="Trazado_38006" data-name="Trazado 38006" d="M2366.911,800.885c-5.962.165-1.676,8.934-7.64,9.1q-1.708-1.434-3.417-2.868c5.964-.166,1.678-8.934,7.64-9.1Q2365.2,799.45,2366.911,800.885Z" transform="translate(-2355.854 -798.016)" fill="#edba3f"/>
      </g>
      <g id="Grupo_18531" data-name="Grupo 18531" transform="translate(328.094 289.828)">
        <path id="Trazado_38007" data-name="Trazado 38007" d="M2438.3,2479.148c-5.8-1.375-3.923,8.2-9.728,6.829q-1.282-1.827-2.562-3.654c5.805,1.375,3.923-8.2,9.73-6.827Q2437.021,2477.324,2438.3,2479.148Z" transform="translate(-2426.012 -2475.362)" fill="#e59323"/>
      </g>
      <g id="Grupo_18532" data-name="Grupo 18532" transform="translate(162.279 306.082)">
        <path id="Trazado_38008" data-name="Trazado 38008" d="M1219.916,2594.129c-4.1,4.335,5.132,7.511,1.033,11.843-1.48.127-2.962.259-4.443.384,4.1-4.332-5.132-7.5-1.033-11.84Q1217.7,2594.326,1219.916,2594.129Z" transform="translate(-1214.397 -2594.129)" fill="#282871"/>
      </g>
      <g id="Grupo_18533" data-name="Grupo 18533" transform="translate(290.827 4.549)">
        <path id="Trazado_38009" data-name="Trazado 38009" d="M2163.456,393.036c-5.837,1.24-.044,9.1-5.878,10.334-1.29-.737-2.587-1.471-3.877-2.209,5.835-1.236.039-9.09,5.876-10.33Q2161.517,391.938,2163.456,393.036Z" transform="translate(-2153.701 -390.83)" fill="#416eca"/>
      </g>
      <g id="Grupo_18534" data-name="Grupo 18534" transform="translate(112.28 32.582)">
        <path id="Trazado_38010" data-name="Trazado 38010" d="M850.051,595.663c2.871,5.231,8.723-2.582,11.589,2.647-.333,1.448-.662,2.9-1,4.349-2.867-5.231-8.715,2.584-11.586-2.646Q849.559,597.835,850.051,595.663Z" transform="translate(-849.058 -595.663)" fill="#ca5e2b"/>
      </g>
      <g id="Grupo_18547" data-name="Grupo 18547" transform="translate(373.001 53.787)">
        <g id="Grupo_18536" data-name="Grupo 18536" transform="translate(15.106 5.998)">
          <g id="Grupo_18535" data-name="Grupo 18535">
            <path id="Trazado_38011" data-name="Trazado 38011" d="M2865.285,800.889a.978.978,0,0,1-.305-1.78l7.177-4.522a.977.977,0,0,1,1.041,1.653l-7.175,4.522A.976.976,0,0,1,2865.285,800.889Z" transform="translate(-2864.524 -794.438)" fill="#658ed6"/>
          </g>
        </g>
        <g id="Grupo_18538" data-name="Grupo 18538" transform="translate(10.89)">
          <g id="Grupo_18537" data-name="Grupo 18537">
            <path id="Trazado_38012" data-name="Trazado 38012" d="M2834.8,761.011a.978.978,0,0,1-.76-.916l-.326-8.467a.977.977,0,0,1,.939-1.017.991.991,0,0,1,1.012.942l.326,8.466a.974.974,0,0,1-.937,1.013A1.2,1.2,0,0,1,2834.8,761.011Z" transform="translate(-2833.714 -750.612)" fill="#658ed6"/>
          </g>
        </g>
        <g id="Grupo_18540" data-name="Grupo 18540" transform="translate(0 6.873)">
          <g id="Grupo_18539" data-name="Grupo 18539">
            <path id="Trazado_38013" data-name="Trazado 38013" d="M2762.4,806.7a.977.977,0,0,1-.238-.086l-7.5-3.947a.979.979,0,0,1-.409-1.322,1,1,0,0,1,1.318-.413l7.5,3.951a.977.977,0,0,1-.671,1.817Z" transform="translate(-2754.143 -800.83)" fill="#658ed6"/>
          </g>
        </g>
        <g id="Grupo_18542" data-name="Grupo 18542" transform="translate(0.496 15.207)">
          <g id="Grupo_18541" data-name="Grupo 18541">
            <path id="Trazado_38014" data-name="Trazado 38014" d="M2758.529,868.175a.964.964,0,0,1-.61-.433.976.976,0,0,1,.3-1.347l7.169-4.519a.977.977,0,1,1,1.042,1.653l-7.169,4.519A.967.967,0,0,1,2758.529,868.175Z" transform="translate(-2757.768 -861.726)" fill="#658ed6"/>
          </g>
        </g>
        <g id="Grupo_18544" data-name="Grupo 18544" transform="translate(11.558 17.258)">
          <g id="Grupo_18543" data-name="Grupo 18543">
            <path id="Trazado_38015" data-name="Trazado 38015" d="M2839.681,887.115a.98.98,0,0,1-.76-.916l-.326-8.467a.98.98,0,0,1,.939-1.016.992.992,0,0,1,1.011.941l.328,8.467a.975.975,0,0,1-.939,1.012A1.128,1.128,0,0,1,2839.681,887.115Z" transform="translate(-2838.595 -876.717)" fill="#658ed6"/>
          </g>
        </g>
        <g id="Grupo_18546" data-name="Grupo 18546" transform="translate(15.28 14.92)">
          <g id="Grupo_18545" data-name="Grupo 18545">
            <path id="Trazado_38016" data-name="Trazado 38016" d="M2874.045,865.5a1.1,1.1,0,0,1-.24-.089l-7.49-3.949a.971.971,0,0,1-.409-1.322.988.988,0,0,1,1.316-.406l7.492,3.947a.978.978,0,0,1-.67,1.82Z" transform="translate(-2865.791 -859.631)" fill="#658ed6"/>
          </g>
        </g>
      </g>
      <g id="Grupo_18560" data-name="Grupo 18560" transform="translate(0 187.776)">
        <g id="Grupo_18549" data-name="Grupo 18549" transform="translate(15.106 5.998)">
          <g id="Grupo_18548" data-name="Grupo 18548">
            <path id="Trazado_38017" data-name="Trazado 38017" d="M139.771,1779.939a.978.978,0,0,1-.3-1.78l7.176-4.522a.977.977,0,0,1,1.042,1.653l-7.175,4.522A.976.976,0,0,1,139.771,1779.939Z" transform="translate(-139.009 -1773.488)" fill="#658ed6"/>
          </g>
        </g>
        <g id="Grupo_18551" data-name="Grupo 18551" transform="translate(10.89)">
          <g id="Grupo_18550" data-name="Grupo 18550">
            <path id="Trazado_38018" data-name="Trazado 38018" d="M109.285,1740.063a.978.978,0,0,1-.76-.916l-.326-8.466a.977.977,0,0,1,.939-1.017.99.99,0,0,1,1.012.942l.326,8.466a.974.974,0,0,1-.938,1.013A1.208,1.208,0,0,1,109.285,1740.063Z" transform="translate(-108.198 -1729.664)" fill="#658ed6"/>
          </g>
        </g>
        <g id="Grupo_18553" data-name="Grupo 18553" transform="translate(0 6.873)">
          <g id="Grupo_18552" data-name="Grupo 18552">
            <path id="Trazado_38019" data-name="Trazado 38019" d="M36.886,1785.75a.976.976,0,0,1-.238-.086l-7.5-3.947a.979.979,0,0,1-.409-1.322,1,1,0,0,1,1.318-.413l7.5,3.951a.977.977,0,0,1-.671,1.817Z" transform="translate(-28.628 -1779.881)" fill="#658ed6"/>
          </g>
        </g>
        <g id="Grupo_18555" data-name="Grupo 18555" transform="translate(0.496 15.206)">
          <g id="Grupo_18554" data-name="Grupo 18554">
            <path id="Trazado_38020" data-name="Trazado 38020" d="M33.015,1847.227a.966.966,0,0,1-.61-.433.976.976,0,0,1,.3-1.347l7.169-4.519a.977.977,0,1,1,1.042,1.653l-7.169,4.519A.969.969,0,0,1,33.015,1847.227Z" transform="translate(-32.253 -1840.777)" fill="#658ed6"/>
          </g>
        </g>
        <g id="Grupo_18557" data-name="Grupo 18557" transform="translate(11.558 17.258)">
          <g id="Grupo_18556" data-name="Grupo 18556" transform="translate(0)">
            <path id="Trazado_38021" data-name="Trazado 38021" d="M114.166,1866.167a.979.979,0,0,1-.76-.916l-.326-8.466a.98.98,0,0,1,.939-1.016.992.992,0,0,1,1.012.941l.328,8.467a.975.975,0,0,1-.939,1.012A1.105,1.105,0,0,1,114.166,1866.167Z" transform="translate(-113.079 -1855.769)" fill="#658ed6"/>
          </g>
        </g>
        <g id="Grupo_18559" data-name="Grupo 18559" transform="translate(15.28 14.92)">
          <g id="Grupo_18558" data-name="Grupo 18558">
            <path id="Trazado_38022" data-name="Trazado 38022" d="M148.531,1844.555a1.1,1.1,0,0,1-.24-.089l-7.49-3.95a.971.971,0,0,1-.409-1.322.988.988,0,0,1,1.317-.406l7.492,3.947a.978.978,0,0,1-.67,1.82Z" transform="translate(-140.276 -1838.681)" fill="#658ed6"/>
          </g>
        </g>
      </g>
      <g id="Grupo_18573" data-name="Grupo 18573" transform="translate(314.569 149.967)">
        <g id="Grupo_18562" data-name="Grupo 18562" transform="translate(15.106 5.998)">
          <g id="Grupo_18561" data-name="Grupo 18561">
            <path id="Trazado_38023" data-name="Trazado 38023" d="M2438.326,1503.668a.978.978,0,0,1-.3-1.78l7.176-4.522a.977.977,0,0,1,1.042,1.653l-7.175,4.522A.975.975,0,0,1,2438.326,1503.668Z" transform="translate(-2437.565 -1497.218)" fill="#658ed6"/>
          </g>
        </g>
        <g id="Grupo_18564" data-name="Grupo 18564" transform="translate(10.89)">
          <g id="Grupo_18563" data-name="Grupo 18563">
            <path id="Trazado_38024" data-name="Trazado 38024" d="M2407.84,1463.792a.978.978,0,0,1-.76-.916l-.326-8.466a.978.978,0,0,1,.939-1.017.99.99,0,0,1,1.012.942l.326,8.466a.974.974,0,0,1-.937,1.012A1.233,1.233,0,0,1,2407.84,1463.792Z" transform="translate(-2406.753 -1453.393)" fill="#658ed6"/>
          </g>
        </g>
        <g id="Grupo_18566" data-name="Grupo 18566" transform="translate(0 6.872)">
          <g id="Grupo_18565" data-name="Grupo 18565">
            <path id="Trazado_38025" data-name="Trazado 38025" d="M2335.44,1509.479a.989.989,0,0,1-.238-.086l-7.5-3.947a.979.979,0,0,1-.409-1.322,1,1,0,0,1,1.318-.413l7.5,3.951a.977.977,0,0,1-.672,1.817Z" transform="translate(-2327.183 -1503.609)" fill="#658ed6"/>
          </g>
        </g>
        <g id="Grupo_18568" data-name="Grupo 18568" transform="translate(0.496 15.206)">
          <g id="Grupo_18567" data-name="Grupo 18567">
            <path id="Trazado_38026" data-name="Trazado 38026" d="M2331.57,1570.956a.978.978,0,0,1-.3-1.78l7.169-4.519a.977.977,0,1,1,1.042,1.653l-7.169,4.519A.969.969,0,0,1,2331.57,1570.956Z" transform="translate(-2330.809 -1564.506)" fill="#658ed6"/>
          </g>
        </g>
        <g id="Grupo_18570" data-name="Grupo 18570" transform="translate(11.558 17.258)">
          <g id="Grupo_18569" data-name="Grupo 18569">
            <path id="Trazado_38027" data-name="Trazado 38027" d="M2412.721,1589.9a.98.98,0,0,1-.76-.916l-.326-8.467a.98.98,0,0,1,.939-1.016.992.992,0,0,1,1.011.941l.328,8.467a.975.975,0,0,1-.939,1.012A1.128,1.128,0,0,1,2412.721,1589.9Z" transform="translate(-2411.634 -1579.498)" fill="#658ed6"/>
          </g>
        </g>
        <g id="Grupo_18572" data-name="Grupo 18572" transform="translate(15.28 14.92)">
          <g id="Grupo_18571" data-name="Grupo 18571">
            <path id="Trazado_38028" data-name="Trazado 38028" d="M2447.086,1568.284a1.1,1.1,0,0,1-.24-.089l-7.49-3.949a.971.971,0,0,1-.409-1.322.988.988,0,0,1,1.316-.406l7.492,3.947a.978.978,0,0,1-.67,1.82Z" transform="translate(-2438.832 -1562.41)" fill="#658ed6"/>
          </g>
        </g>
      </g>
      <g id="Grupo_18586" data-name="Grupo 18586" transform="translate(385.365 224.269)">
        <g id="Grupo_18575" data-name="Grupo 18575" transform="translate(15.106 5.998)">
          <g id="Grupo_18574" data-name="Grupo 18574">
            <path id="Trazado_38029" data-name="Trazado 38029" d="M2955.635,2046.6a.978.978,0,0,1-.3-1.78l7.176-4.522a.977.977,0,0,1,1.042,1.653l-7.175,4.522A.977.977,0,0,1,2955.635,2046.6Z" transform="translate(-2954.874 -2040.147)" fill="#658ed6"/>
          </g>
        </g>
        <g id="Grupo_18577" data-name="Grupo 18577" transform="translate(10.89)">
          <g id="Grupo_18576" data-name="Grupo 18576">
            <path id="Trazado_38030" data-name="Trazado 38030" d="M2925.149,2006.721a.979.979,0,0,1-.76-.916l-.326-8.467a.977.977,0,0,1,.939-1.017.99.99,0,0,1,1.012.942l.326,8.466a.974.974,0,0,1-.937,1.013A1.224,1.224,0,0,1,2925.149,2006.721Z" transform="translate(-2924.062 -1996.322)" fill="#658ed6"/>
          </g>
        </g>
        <g id="Grupo_18579" data-name="Grupo 18579" transform="translate(0 6.872)">
          <g id="Grupo_18578" data-name="Grupo 18578">
            <path id="Trazado_38031" data-name="Trazado 38031" d="M2852.75,2052.408a.972.972,0,0,1-.238-.086l-7.5-3.947a.979.979,0,0,1-.409-1.322,1,1,0,0,1,1.319-.413l7.5,3.951a.977.977,0,0,1-.672,1.817Z" transform="translate(-2844.492 -2046.538)" fill="#658ed6"/>
          </g>
        </g>
        <g id="Grupo_18581" data-name="Grupo 18581" transform="translate(0.496 15.206)">
          <g id="Grupo_18580" data-name="Grupo 18580">
            <path id="Trazado_38032" data-name="Trazado 38032" d="M2848.879,2113.884a.965.965,0,0,1-.61-.433.976.976,0,0,1,.3-1.348l7.169-4.519a.977.977,0,1,1,1.042,1.653l-7.169,4.519A.967.967,0,0,1,2848.879,2113.884Z" transform="translate(-2848.118 -2107.435)" fill="#658ed6"/>
          </g>
        </g>
        <g id="Grupo_18583" data-name="Grupo 18583" transform="translate(11.558 17.258)">
          <g id="Grupo_18582" data-name="Grupo 18582">
            <path id="Trazado_38033" data-name="Trazado 38033" d="M2930.03,2132.824a.98.98,0,0,1-.759-.916l-.326-8.466a.98.98,0,0,1,.939-1.016.993.993,0,0,1,1.012.941l.328,8.467a.975.975,0,0,1-.939,1.012A1.167,1.167,0,0,1,2930.03,2132.824Z" transform="translate(-2928.944 -2122.426)" fill="#658ed6"/>
          </g>
        </g>
        <g id="Grupo_18585" data-name="Grupo 18585" transform="translate(15.28 14.92)">
          <g id="Grupo_18584" data-name="Grupo 18584">
            <path id="Trazado_38034" data-name="Trazado 38034" d="M2964.4,2111.213a1.1,1.1,0,0,1-.24-.089l-7.49-3.95a.971.971,0,0,1-.409-1.322.988.988,0,0,1,1.317-.406l7.492,3.947a.978.978,0,0,1-.669,1.82Z" transform="translate(-2956.141 -2105.339)" fill="#658ed6"/>
          </g>
        </g>
      </g>
      <g id="Grupo_18587" data-name="Grupo 18587" transform="translate(425.703 174.072)">
        <path id="Trazado_38035" data-name="Trazado 38035" d="M3144.769,1638.106l-5.527-8.572,56.509,3.948Z" transform="translate(-3139.242 -1629.534)" fill="#e3a026"/>
        <path id="Trazado_38036" data-name="Trazado 38036" d="M3179.626,1677.066V1663l50.982-4.625Z" transform="translate(-3174.1 -1654.432)" fill="#de801e"/>
        <path id="Trazado_38037" data-name="Trazado 38037" d="M3196.934,1667.29l6.2,10.377,42.41-19.287Z" transform="translate(-3189.038 -1654.432)" fill="#e3a026"/>
        <path id="Trazado_38038" data-name="Trazado 38038" d="M3179.626,1733.265l2.369-9.776,4.369,7.307Z" transform="translate(-3174.1 -1710.631)" fill="#ca5e2b"/>
      </g>
      <g id="Grupo_18588" data-name="Grupo 18588" transform="translate(29.194 52.962)">
        <path id="Trazado_38039" data-name="Trazado 38039" d="M292.934,757.07q2.764-4.081,5.527-8.36c-18.836,1.316-37.673-5.268-56.509-3.952C258.946,746.3,275.94,754.272,292.934,757.07Z" transform="translate(-241.952 -744.583)" fill="#e3a026"/>
        <path id="Trazado_38040" data-name="Trazado 38040" d="M292.934,772.235V758.173c-16.994-2.8-33.988-10.771-50.982-12.312C258.946,752.09,275.94,764.748,292.934,772.235Z" transform="translate(-241.952 -745.686)" fill="#de801e"/>
        <path id="Trazado_38041" data-name="Trazado 38041" d="M290.565,762.252q-3.1,4.876-6.2,9.566c-14.137-8.65-28.273-19.528-42.41-25.957C258.156,748.832,274.361,757.648,290.565,762.252Z" transform="translate(-241.952 -745.686)" fill="#e3a026"/>
        <path id="Trazado_38042" data-name="Trazado 38042" d="M571.984,875.613q-1.184-4.975-2.369-9.983-2.185,3.433-4.369,6.771C567.492,873.545,569.737,874.624,571.984,875.613Z" transform="translate(-521.002 -849.064)" fill="#ca5e2b"/>
      </g>
      <g id="Grupo_18589" data-name="Grupo 18589" transform="translate(59.232 230.95)">
        <path id="Trazado_38043" data-name="Trazado 38043" d="M465.989,2054.234a4.55,4.55,0,1,1,4.549-4.55A4.555,4.555,0,0,1,465.989,2054.234Zm0-7.294a2.745,2.745,0,1,0,2.745,2.745A2.748,2.748,0,0,0,465.989,2046.94Z" transform="translate(-461.439 -2045.135)" fill="#ca5e2b"/>
      </g>
      <g id="Grupo_18590" data-name="Grupo 18590" transform="translate(174.271)">
        <path id="Trazado_38044" data-name="Trazado 38044" d="M1306.573,366.686a4.55,4.55,0,1,1,4.55-4.55A4.555,4.555,0,0,1,1306.573,366.686Zm0-7.295a2.745,2.745,0,1,0,2.745,2.745A2.748,2.748,0,0,0,1306.573,359.392Z" transform="translate(-1302.024 -357.587)" fill="#ca5e2b"/>
      </g>
      <g id="Grupo_18591" data-name="Grupo 18591" transform="translate(91.026 178.753)">
        <path id="Trazado_38045" data-name="Trazado 38045" d="M698.3,1672.837a4.549,4.549,0,1,1,4.549-4.549A4.554,4.554,0,0,1,698.3,1672.837Zm0-7.294a2.745,2.745,0,1,0,2.745,2.745A2.748,2.748,0,0,0,698.3,1665.543Z" transform="translate(-693.753 -1663.738)" fill="#282871"/>
      </g>
      <g id="Grupo_18592" data-name="Grupo 18592" transform="translate(381.149 274.888)">
        <path id="Trazado_38046" data-name="Trazado 38046" d="M2818.229,2375.292a4.549,4.549,0,1,1,4.551-4.549A4.554,4.554,0,0,1,2818.229,2375.292Zm0-7.292a2.744,2.744,0,1,0,2.746,2.744A2.747,2.747,0,0,0,2818.229,2368Z" transform="translate(-2813.68 -2366.195)" fill="#282871"/>
      </g>
      <g id="Grupo_18593" data-name="Grupo 18593" transform="translate(133.856 51.009)">
        <path id="Trazado_38047" data-name="Trazado 38047" d="M1011.261,739.411a4.549,4.549,0,1,1,4.549-4.55A4.555,4.555,0,0,1,1011.261,739.411Zm0-7.294a2.745,2.745,0,1,0,2.745,2.745A2.748,2.748,0,0,0,1011.261,732.117Z" transform="translate(-1006.712 -730.312)" fill="#658ed6"/>
      </g>
      <g id="Grupo_18594" data-name="Grupo 18594" transform="translate(437.067 225.717)">
        <path id="Trazado_38048" data-name="Trazado 38048" d="M3226.824,2016a4.55,4.55,0,1,1,4.549-4.549A4.554,4.554,0,0,1,3226.824,2016Zm0-7.294a2.745,2.745,0,1,0,2.744,2.745A2.748,2.748,0,0,0,3226.824,2008.7Z" transform="translate(-3222.275 -2006.899)" fill="#658ed6"/>
      </g>
      <g id="Grupo_18595" data-name="Grupo 18595" transform="translate(15.454 83.411)">
        <path id="Trazado_38049" data-name="Trazado 38049" d="M146.1,976.167a4.549,4.549,0,1,1,4.549-4.55A4.555,4.555,0,0,1,146.1,976.167Zm0-7.294a2.745,2.745,0,1,0,2.745,2.745A2.748,2.748,0,0,0,146.1,968.873Z" transform="translate(-141.551 -967.068)" fill="#edba3f"/>
      </g>
      <g id="Grupo_18596" data-name="Grupo 18596" transform="translate(368.451 15.124)">
        <path id="Trazado_38050" data-name="Trazado 38050" d="M2725.448,477.2a4.55,4.55,0,1,1,4.551-4.55A4.555,4.555,0,0,1,2725.448,477.2Zm0-7.294a2.745,2.745,0,1,0,2.746,2.745A2.748,2.748,0,0,0,2725.448,469.9Z" transform="translate(-2720.898 -468.096)" fill="#edba3f"/>
      </g>
    </g>
    <g id="Grupo_21597" data-name="Grupo 21597" transform="translate(509.427 5091.754)">
      <g id="Grupo_18692" data-name="Grupo 18692" clip-path="url(#clip-path)">
        <g id="Grupo_18691" data-name="Grupo 18691" transform="translate(29.144 158.12)">
          <g id="Grupo_18650" data-name="Grupo 18650">
            <path id="Trazado_38051" data-name="Trazado 38051" d="M821.711,2361.473c-3.145,19.87-3.987,47.646,9.761,54.66s79.681,0,79.681,0-29.459-28.914-30.3-56.822S821.711,2361.473,821.711,2361.473Z" transform="translate(-806.161 -2184.304)" fill="#416eca"/>
            <path id="Trazado_38052" data-name="Trazado 38052" d="M739.1,2331.158c-1.5,7.634-5.119,28.093-13.854,23.1-8.987-5.133-4.126-9.362,1.381-11.97,6.012-2.846,2.4-12.556,3.755-15.591S739.1,2331.158,739.1,2331.158Z" transform="translate(-720.259 -2165.773)" fill="#e3e5fd"/>
            <path id="Trazado_38053" data-name="Trazado 38053" d="M830.869,1655.156c-.39.024-.8.007-1.2.011a3.311,3.311,0,0,0,.726-.179c-.647.363-3.354.448-4.351.8a47.119,47.119,0,0,0-9.85,5.079,96.986,96.986,0,0,0-18.409,15.7,86.484,86.484,0,0,0-14.1,19.726c-3.082,6.131-5.873,24.377-4.273,31.847l-12.959-5.274c-2.872-1.169,1.278-55.44,5.638-65.681,3.439-8.081,40.708-40.639,59.548-39.279,18.064,1.3,21.172,26.48,9.2,34.525A18.072,18.072,0,0,1,830.869,1655.156Z" transform="translate(-759.305 -1554.568)" fill="#e3e5fd"/>
            <g id="Grupo_18598" data-name="Grupo 18598" transform="translate(149.998 159.354)">
              <path id="Trazado_38054" data-name="Trazado 38054" d="M1818.539,2328.55a2.245,2.245,0,0,1-1.045-4.231l8.136-4.279a2.245,2.245,0,0,1,2.089,3.974l-8.136,4.279A2.233,2.233,0,0,1,1818.539,2328.55Z" transform="translate(-1816.293 -2319.781)" fill="#eebfa8"/>
            </g>
            <g id="Grupo_18601" data-name="Grupo 18601" transform="translate(152.243 164.042)">
              <g id="Grupo_18600" data-name="Grupo 18600">
                <g id="Grupo_18599" data-name="Grupo 18599">
                  <path id="Trazado_38055" data-name="Trazado 38055" d="M1859.609,2360.61c-5.166.7-3.941-1.058-11.578,3.547-6.966,4.211-17.009,4.921-15.1-3.964s14.163-5.655,18.975-5.274a37.5,37.5,0,0,1,7.735,1.337Z" transform="translate(-1832.697 -2354.035)" fill="#de9c8c"/>
                </g>
              </g>
            </g>
            <g id="Grupo_18622" data-name="Grupo 18622" transform="translate(72.328)">
              <g id="Grupo_18606" data-name="Grupo 18606" transform="translate(0 41.018)">
                <g id="Grupo_18605" data-name="Grupo 18605">
                  <g id="Grupo_18604" data-name="Grupo 18604">
                    <g id="Grupo_18603" data-name="Grupo 18603">
                      <g id="Grupo_18602" data-name="Grupo 18602">
                        <path id="Trazado_38056" data-name="Trazado 38056" d="M1253.053,1502.577a7.114,7.114,0,0,1-4.235-5.943c-1.07-13.059,12.345-33.956,18.517-39.66a7.1,7.1,0,0,1,9.613,10.454c-4.5,4.151-14.536,21.314-14,28.05a7.1,7.1,0,0,1-6.5,7.655A7.278,7.278,0,0,1,1253.053,1502.577Z" transform="translate(-1248.758 -1455.102)" fill="#eebfa8"/>
                      </g>
                    </g>
                  </g>
                </g>
              </g>
              <g id="Grupo_18610" data-name="Grupo 18610" transform="translate(14.259 41.018)">
                <g id="Grupo_18609" data-name="Grupo 18609">
                  <g id="Grupo_18608" data-name="Grupo 18608">
                    <g id="Grupo_18607" data-name="Grupo 18607">
                      <path id="Trazado_38057" data-name="Trazado 38057" d="M1367.282,1457.384a7.1,7.1,0,0,0-10.016-.41,39.294,39.294,0,0,0-3.9,4.431c-1.247,7.021.438,15.324,3.433,21.383,3.194-6.446,7.527-13.019,10.084-15.36A7.106,7.106,0,0,0,1367.282,1457.384Z" transform="translate(-1352.948 -1455.102)" fill="#de9c8c"/>
                    </g>
                  </g>
                </g>
              </g>
              <g id="Grupo_18614" data-name="Grupo 18614" transform="translate(15.732 17.977)">
                <g id="Grupo_18613" data-name="Grupo 18613">
                  <g id="Grupo_18612" data-name="Grupo 18612">
                    <g id="Grupo_18611" data-name="Grupo 18611">
                      <path id="Trazado_38058" data-name="Trazado 38058" d="M1392.256,1287.582c.716,9-4.947,43.354-14.51,45.366-9.552,1.991-19.692-25.4-10.282-37.69S1392.256,1287.582,1392.256,1287.582Z" transform="translate(-1363.715 -1286.736)" fill="#eebfa8"/>
                    </g>
                  </g>
                </g>
              </g>
              <g id="Grupo_18617" data-name="Grupo 18617" transform="translate(5.979)">
                <g id="Grupo_18616" data-name="Grupo 18616">
                  <g id="Grupo_18615" data-name="Grupo 18615">
                    <path id="Trazado_38059" data-name="Trazado 38059" d="M1302.63,1200.231c2.787-8.084,9.682-14.748,22.708-14.43s29.006-23.507,17.408-29.456-14.159,17.86-17.728,12.213-4.2-11.583-9.841-9.074-3.127,11.279-5.948,11.59-7.661-5.37-11.909.765c-2.332,3.353,1.258,8.641-.308,11.145s-4.858,7.81-4.543,14.543C1292.788,1204.374,1299.5,1209.315,1302.63,1200.231Z" transform="translate(-1292.449 -1155.381)" fill="#e59323"/>
                  </g>
                </g>
              </g>
              <g id="Grupo_18621" data-name="Grupo 18621" transform="translate(14.568 31.041)">
                <g id="Grupo_18620" data-name="Grupo 18620">
                  <g id="Grupo_18619" data-name="Grupo 18619">
                    <g id="Grupo_18618" data-name="Grupo 18618">
                      <path id="Trazado_38060" data-name="Trazado 38060" d="M1361.129,1388.277c.13,3.436-1.063,6.27-2.7,6.318-1.637.09-3.062-2.632-3.214-6.064-.141-3.41,1.057-6.263,2.7-6.329C1359.542,1382.134,1360.984,1384.885,1361.129,1388.277Z" transform="translate(-1355.208 -1382.201)" fill="#eebfa8"/>
                    </g>
                  </g>
                </g>
              </g>
            </g>
            <g id="Grupo_18626" data-name="Grupo 18626" transform="translate(14.65 61.039)">
              <g id="Grupo_18625" data-name="Grupo 18625">
                <g id="Grupo_18624" data-name="Grupo 18624">
                  <g id="Grupo_18623" data-name="Grupo 18623">
                    <path id="Trazado_38061" data-name="Trazado 38061" d="M883.827,1601.733c-38.279,8.63-61.477,110.529-55.622,120.606s64.287,10.9,61.648-.237c-4.292-18.136,6.346-76.685,11.908-83.764C907.34,1631.244,901.88,1597.653,883.827,1601.733Z" transform="translate(-827.305 -1601.391)" fill="#f1f2ff"/>
                  </g>
                </g>
              </g>
            </g>
            <g id="Grupo_18631" data-name="Grupo 18631" transform="translate(14.427 133.882)">
              <g id="Grupo_18630" data-name="Grupo 18630">
                <g id="Grupo_18629" data-name="Grupo 18629">
                  <g id="Grupo_18628" data-name="Grupo 18628">
                    <g id="Grupo_18627" data-name="Grupo 18627">
                      <path id="Trazado_38062" data-name="Trazado 38062" d="M861.517,2190.732c-3.072,0-6.255-.113-9.464-.345-6.762-.49-22.853-2.258-26.224-8.06a1.122,1.122,0,1,1,1.941-1.127c1.907,3.282,11.5,6.01,24.446,6.949,12.645.917,25.253-.106,31.373-2.547,2.832-1.13,4.1-2.414,3.767-3.816-1.947-8.231-1.066-25.869,2.357-47.183a1.122,1.122,0,0,1,2.216.356c-3.379,21.039-4.272,38.352-2.389,46.31.432,1.823-.105,4.418-5.12,6.418C879.5,2189.648,871.039,2190.732,861.517,2190.732Z" transform="translate(-825.677 -2133.658)" fill="#b0c4ec"/>
                    </g>
                  </g>
                </g>
              </g>
            </g>
            <g id="Grupo_18634" data-name="Grupo 18634" transform="translate(134.568 164.705)">
              <g id="Grupo_18633" data-name="Grupo 18633">
                <g id="Grupo_18632" data-name="Grupo 18632">
                  <path id="Trazado_38063" data-name="Trazado 38063" d="M1703.587,2364.791c5.165.7,3.941-1.058,11.578,3.547,6.966,4.211,19.719,7.264,17.8-1.621s-16.872-8-21.685-7.617a37.5,37.5,0,0,0-7.735,1.337Z" transform="translate(-1703.55 -2358.879)" fill="#eebfa8"/>
                </g>
              </g>
            </g>
            <g id="Grupo_18637" data-name="Grupo 18637" transform="translate(56.397 73.477)">
              <g id="Grupo_18636" data-name="Grupo 18636">
                <g id="Grupo_18635" data-name="Grupo 18635">
                  <path id="Trazado_38064" data-name="Trazado 38064" d="M1167.427,1703.748c2.594,7.075-1.072,11.155-1.223,17.438-2.929,23.811,22.655,52.5,47.071,59.443,1,3.659,1.943,7.334,2.9,11-1.288.019-2.355.01-2.952,0-15.189-.182-29.991-6.725-42.315-15.213-21.881-15.048-40.726-39.564-38.353-67.335C1133.576,1690.037,1160.82,1685.711,1167.427,1703.748Z" transform="translate(-1132.355 -1692.276)" fill="#f1f2ff"/>
                </g>
              </g>
            </g>
            <g id="Grupo_18641" data-name="Grupo 18641" transform="translate(64.072 125.112)">
              <g id="Grupo_18640" data-name="Grupo 18640">
                <g id="Grupo_18639" data-name="Grupo 18639">
                  <g id="Grupo_18638" data-name="Grupo 18638">
                    <path id="Trazado_38065" data-name="Trazado 38065" d="M1263.1,2118.429c-.71,0-1.233-.008-1.487-.012-17.289-.207-32.89-8.495-42.931-15.411-12.856-8.841-23.264-19.821-30.1-31.752a1.122,1.122,0,1,1,1.948-1.115c6.666,11.64,16.839,22.366,29.421,31.018,9.785,6.74,24.961,14.815,41.692,15.016.255,0,.785.012,1.49.012l-.2-.778c-.754-2.9-1.534-5.889-2.332-8.821a1.122,1.122,0,1,1,2.166-.589c.8,2.943,1.583,5.943,2.339,8.844l.566,2.172a1.123,1.123,0,0,1-1.07,1.406C1264.039,2118.426,1263.532,2118.429,1263.1,2118.429Z" transform="translate(-1188.433 -2069.574)" fill="#b0c4ec"/>
                  </g>
                </g>
              </g>
            </g>
            <g id="Grupo_18645" data-name="Grupo 18645" transform="translate(68.017 55.265)">
              <g id="Grupo_18644" data-name="Grupo 18644">
                <g id="Grupo_18643" data-name="Grupo 18643">
                  <g id="Grupo_18642" data-name="Grupo 18642">
                    <path id="Trazado_38066" data-name="Trazado 38066" d="M1224.061,1559.335c-4.592,1.827-11.777,10.086-1.7,17.394s22.987,13.89,20.456,5.793C1240.3,1574.433,1228.55,1557.535,1224.061,1559.335Z" transform="translate(-1217.259 -1559.202)" fill="#f1f2ff"/>
                  </g>
                </g>
              </g>
            </g>
            <g id="Grupo_18646" data-name="Grupo 18646" transform="translate(145.757 171.437)">
              <path id="Trazado_38067" data-name="Trazado 38067" d="M1785.8,2408.932c-2.8,2.79,7.049,7.694,10.449,5.892S1789.171,2405.573,1785.8,2408.932Z" transform="translate(-1785.307 -2408.072)" fill="#de9c8c"/>
            </g>
            <g id="Grupo_18649" data-name="Grupo 18649" transform="translate(149.415 160.88)">
              <g id="Grupo_18647" data-name="Grupo 18647" transform="translate(4.288 0)">
                <path id="Trazado_38068" data-name="Trazado 38068" d="M1853.75,2340.288a2.228,2.228,0,0,1-1.15-.318l-8.136-4.864a2.245,2.245,0,0,1,2.3-3.854l8.136,4.864a2.245,2.245,0,0,1-1.154,4.171Z" transform="translate(-1843.371 -2330.934)" fill="#de9c8c"/>
              </g>
              <g id="Grupo_18648" data-name="Grupo 18648">
                <path id="Trazado_38069" data-name="Trazado 38069" d="M1814.283,2337.455a2.244,2.244,0,0,1-.963-4.272l4.287-2.034a2.244,2.244,0,0,1,1.925,4.055l-4.287,2.034A2.231,2.231,0,0,1,1814.283,2337.455Z" transform="translate(-1812.036 -2330.931)" fill="#de9c8c"/>
              </g>
            </g>
          </g>
          <g id="Grupo_18690" data-name="Grupo 18690" transform="translate(168.138 0.578)">
            <path id="Trazado_38070" data-name="Trazado 38070" d="M2246.277,2361.473c3.146,19.87,3.988,47.646-9.76,54.66s-79.681,0-79.681,0,29.459-28.914,30.3-56.822S2246.277,2361.473,2246.277,2361.473Z" transform="translate(-2128.372 -2184.882)" fill="#171766"/>
            <g id="Grupo_18671" data-name="Grupo 18671" transform="translate(12.614)">
              <g id="Grupo_18655" data-name="Grupo 18655" transform="translate(26.956 40.441)">
                <g id="Grupo_18654" data-name="Grupo 18654">
                  <g id="Grupo_18653" data-name="Grupo 18653">
                    <g id="Grupo_18652" data-name="Grupo 18652">
                      <g id="Grupo_18651" data-name="Grupo 18651">
                        <path id="Trazado_38071" data-name="Trazado 38071" d="M2264.164,1502.577a7.114,7.114,0,0,0,4.235-5.943c1.07-13.059-12.345-33.956-18.517-39.66a7.1,7.1,0,0,0-9.613,10.454c4.5,4.151,14.536,21.314,14,28.05a7.1,7.1,0,0,0,6.5,7.655A7.278,7.278,0,0,0,2264.164,1502.577Z" transform="translate(-2237.979 -1455.102)" fill="#eebfa8"/>
                      </g>
                    </g>
                  </g>
                </g>
              </g>
              <g id="Grupo_18659" data-name="Grupo 18659" transform="translate(26.956 40.441)">
                <g id="Grupo_18658" data-name="Grupo 18658">
                  <g id="Grupo_18657" data-name="Grupo 18657">
                    <g id="Grupo_18656" data-name="Grupo 18656">
                      <path id="Trazado_38072" data-name="Trazado 38072" d="M2239.865,1457.384a7.1,7.1,0,0,1,10.016-.41,39.26,39.26,0,0,1,3.9,4.431c1.248,7.021-.438,15.324-3.432,21.383-3.194-6.446-7.527-13.019-10.084-15.36A7.105,7.105,0,0,1,2239.865,1457.384Z" transform="translate(-2237.979 -1455.102)" fill="#de9c8c"/>
                    </g>
                  </g>
                </g>
              </g>
              <g id="Grupo_18663" data-name="Grupo 18663" transform="translate(13.101 17.399)">
                <g id="Grupo_18662" data-name="Grupo 18662">
                  <g id="Grupo_18661" data-name="Grupo 18661">
                    <g id="Grupo_18660" data-name="Grupo 18660">
                      <path id="Trazado_38073" data-name="Trazado 38073" d="M2136.8,1287.582c-.716,9,4.947,43.354,14.51,45.366,9.552,1.991,19.692-25.4,10.282-37.69S2136.8,1287.582,2136.8,1287.582Z" transform="translate(-2136.742 -1286.736)" fill="#eebfa8"/>
                    </g>
                  </g>
                </g>
              </g>
              <g id="Grupo_18666" data-name="Grupo 18666">
                <g id="Grupo_18665" data-name="Grupo 18665">
                  <g id="Grupo_18664" data-name="Grupo 18664">
                    <path id="Trazado_38074" data-name="Trazado 38074" d="M2082.288,1203.874c-5.344-6.676-14.571-12.428-27.4-14.72-18.708-3.342-13.283-33.269-12.719-29.167,1.489,10.829,26.128,5.76,38.743,15.475C2099.619,1189.864,2083.88,1205.862,2082.288,1203.874Z" transform="translate(-2041.013 -1159.602)" fill="#282871"/>
                  </g>
                </g>
              </g>
              <g id="Grupo_18670" data-name="Grupo 18670" transform="translate(37.247 32.288)">
                <g id="Grupo_18669" data-name="Grupo 18669">
                  <g id="Grupo_18668" data-name="Grupo 18668">
                    <g id="Grupo_18667" data-name="Grupo 18667">
                      <path id="Trazado_38075" data-name="Trazado 38075" d="M2313.184,1401.6c-.13,3.436,1.063,6.27,2.7,6.318,1.637.09,3.062-2.632,3.213-6.064.141-3.41-1.056-6.264-2.7-6.329C2314.771,1395.46,2313.328,1398.211,2313.184,1401.6Z" transform="translate(-2313.174 -1395.527)" fill="#eebfa8"/>
                    </g>
                  </g>
                </g>
              </g>
            </g>
            <g id="Grupo_18674" data-name="Grupo 18674" transform="translate(0 75.061)">
              <g id="Grupo_18673" data-name="Grupo 18673">
                <g id="Grupo_18672" data-name="Grupo 18672">
                  <path id="Trazado_38076" data-name="Trazado 38076" d="M2003.36,1719.548c-2.594,7.076,1.072,11.155,1.223,17.438,2.928,23.811-31.2,51.233-55.615,58.173-1,3.66,4.138,11.364,5.642,12.274,1.288.019,2.355.01,2.953,0,15.189-.182,29.991-6.725,42.315-15.213,21.882-15.047,40.726-39.564,38.352-67.335C2037.211,1705.837,2009.967,1701.511,2003.36,1719.548Z" transform="translate(-1948.84 -1708.076)" fill="#171766"/>
                </g>
              </g>
            </g>
            <g id="Grupo_18678" data-name="Grupo 18678" transform="translate(51.63 54.976)">
              <g id="Grupo_18677" data-name="Grupo 18677">
                <g id="Grupo_18676" data-name="Grupo 18676">
                  <g id="Grupo_18675" data-name="Grupo 18675">
                    <path id="Trazado_38077" data-name="Trazado 38077" d="M2343.3,1561.4c4.715,1.484,12.487,9.191,2.977,17.222s-21.9,15.545-19.973,7.284C2328.213,1577.651,2338.688,1559.933,2343.3,1561.4Z" transform="translate(-2326.101 -1561.312)" fill="#fff"/>
                  </g>
                </g>
              </g>
            </g>
            <g id="Grupo_18679" data-name="Grupo 18679" transform="translate(33.316 35.239)">
              <path id="Trazado_38078" data-name="Trazado 38078" d="M2204.533,1417.976c1.31,3.017,1.5,18.16-4.489,22.727-4.727,3.606-5.8-.642-7.761-3.074,1.308,4.208,7.088,16.723,14.777,5.973,5.041-7.05,8.533-16.425,4.6-18.889a6.159,6.159,0,0,1-3.138-4.865C2208.516,1415.046,2204.533,1417.976,2204.533,1417.976Z" transform="translate(-2192.282 -1417.091)" fill="#282871"/>
            </g>
            <g id="Grupo_18683" data-name="Grupo 18683" transform="translate(52.826 62.242)">
              <g id="Grupo_18682" data-name="Grupo 18682">
                <g id="Grupo_18681" data-name="Grupo 18681">
                  <g id="Grupo_18680" data-name="Grupo 18680">
                    <path id="Trazado_38079" data-name="Trazado 38079" d="M2357.946,1615.142c37.1,12.786,48.954,116.616,42.026,125.99s-65.094,3.766-61.248-7.013c6.26-17.554,2.124-76.919-2.627-84.565C2331.33,1641.889,2340.451,1609.1,2357.946,1615.142Z" transform="translate(-2334.84 -1614.404)" fill="#282871"/>
                  </g>
                </g>
              </g>
            </g>
            <g id="Grupo_18688" data-name="Grupo 18688" transform="translate(55.401 139.434)">
              <g id="Grupo_18687" data-name="Grupo 18687">
                <g id="Grupo_18686" data-name="Grupo 18686">
                  <g id="Grupo_18685" data-name="Grupo 18685">
                    <g id="Grupo_18684" data-name="Grupo 18684">
                      <path id="Trazado_38080" data-name="Trazado 38080" d="M2394.624,2233.864c-1.708,0-3.235-.038-4.458-.084-13.18-.5-25.691-2.948-31.874-6.243-4.766-2.539-5.015-5.177-4.385-6.942,2.5-7.01,3.57-21.949,2.936-40.986a1.122,1.122,0,1,1,2.243-.075c.3,9.135.615,31.5-3.065,41.816-.484,1.357.635,2.773,3.326,4.208,5.815,3.1,18.234,5.5,30.9,5.98,12.969.489,22.8-1.166,25.059-4.219a1.122,1.122,0,0,1,1.805,1.334C2413.847,2233.074,2402.383,2233.864,2394.624,2233.864Z" transform="translate(-2353.656 -2178.448)" fill="#416eca"/>
                    </g>
                  </g>
                </g>
              </g>
            </g>
            <path id="Trazado_38081" data-name="Trazado 38081" d="M2611.554,2545.425c-2.531,8.488-9.677,31.017.844,30.915,10.823-.1,8.549-7.068,4.854-12.768-4.033-6.224,4.22-13.927,4.537-17.726S2611.554,2545.425,2611.554,2545.425Z" transform="translate(-2516.778 -2354.574)" fill="#eebfa8"/>
            <path id="Trazado_38082" data-name="Trazado 38082" d="M2396.2,1699.954c.306.212.646.385.963.578a3.21,3.21,0,0,1-.525-.549c.4.726,2.552,2.094,3.24,2.972a58.358,58.358,0,0,1,6.264,10.5,145.862,145.862,0,0,1,9.676,26.8,148.2,148.2,0,0,1,4.891,29.436c.472,8.536.346,18.021-3.39,25.9h12.159c2.694,0,3.271-4.065,4.1-6.293a87.053,87.053,0,0,0,3.835-14.114c3.91-20.474,3.141-42.266-.636-62.7-2.814-15.229-8.136-37.139-23.748-44.43-14.966-6.992-30.96,9.117-23.961,24.045A18.058,18.058,0,0,0,2396.2,1699.954Z" transform="translate(-2327.366 -1597.025)" fill="#282871"/>
            <g id="Grupo_18689" data-name="Grupo 18689" transform="translate(77.658 115.312)">
              <path id="Trazado_38083" data-name="Trazado 38083" d="M2540.75,2086.573h-12.159a1.122,1.122,0,0,1-1.014-1.6c3.7-7.8,3.735-17.2,3.283-25.36A145.75,145.75,0,0,0,2526,2030.4a143.7,143.7,0,0,0-9.6-26.6,1.122,1.122,0,1,1,2.017-.983,145.855,145.855,0,0,1,9.753,27.009,147.974,147.974,0,0,1,4.926,29.66c.438,7.9.422,16.947-2.791,24.842h10.44a1.122,1.122,0,1,1,0,2.245Z" transform="translate(-2516.291 -2002.186)" fill="#416eca"/>
            </g>
          </g>
        </g>
      </g>
    </g>
  </g>
</svg>
