<svg xmlns="http://www.w3.org/2000/svg" width="122" height="122" viewBox="0 0 122 122">
  <g id="Grupo_22087" data-name="Grupo 22087" transform="translate(-1174 -11704)">
    <circle id="Elipse_1061" data-name="Elipse 1061" cx="61" cy="61" r="61" transform="translate(1174 11704)" fill="#fa7527"/>
    <path id="Trazado_39143" data-name="Trazado 39143" d="M19.063-8.437a10.411,10.411,0,0,1-.586,3.545A7.836,7.836,0,0,1,16.758-2.08,7.95,7.95,0,0,1,13.965-.225a10.12,10.12,0,0,1-3.828.674A10.52,10.52,0,0,1,7.07.049,6.886,6.886,0,0,1,4.8-1.1,6.119,6.119,0,0,1,3.242-2.93a10.393,10.393,0,0,1-.967-2.422,16.951,16.951,0,0,1-.5-2.93q-.137-1.582-.137-3.359,0-1.484.146-3.105a18.742,18.742,0,0,1,.566-3.184,13.857,13.857,0,0,1,1.182-2.979A8.96,8.96,0,0,1,5.5-23.389a8.986,8.986,0,0,1,2.91-1.689,11.809,11.809,0,0,1,4.053-.625,12.861,12.861,0,0,1,1.494.088q.752.088,1.4.225a7.061,7.061,0,0,1,1.094.313,2.284,2.284,0,0,1,.6.3.919.919,0,0,1,.225.283,1.769,1.769,0,0,1,.127.342,2.553,2.553,0,0,1,.068.459q.02.273.02.664,0,.605-.029,1.006a2.548,2.548,0,0,1-.107.625.639.639,0,0,1-.215.322.556.556,0,0,1-.332.1,1.968,1.968,0,0,1-.605-.127q-.371-.127-.9-.283a10.289,10.289,0,0,0-1.24-.273,10.28,10.28,0,0,0-1.65-.117,5.605,5.605,0,0,0-2.676.586A4.927,4.927,0,0,0,7.949-19.6a6.935,6.935,0,0,0-1,2.334,13,13,0,0,0-.332,2.813A10.313,10.313,0,0,1,7.607-15a7.807,7.807,0,0,1,1.211-.469,11.653,11.653,0,0,1,1.416-.322,9.862,9.862,0,0,1,1.621-.127,9.125,9.125,0,0,1,3.281.527,5.657,5.657,0,0,1,2.236,1.5,6.1,6.1,0,0,1,1.279,2.363A10.86,10.86,0,0,1,19.063-8.437Zm-5.039.488A7.736,7.736,0,0,0,13.848-9.7a3.342,3.342,0,0,0-.566-1.27,2.408,2.408,0,0,0-1.035-.781,4.127,4.127,0,0,0-1.562-.264,5.887,5.887,0,0,0-1.074.1,7.128,7.128,0,0,0-1.035.273,7.232,7.232,0,0,0-.977.42,9.466,9.466,0,0,0-.879.518,21.607,21.607,0,0,0,.234,3.486A6.956,6.956,0,0,0,7.646-5,2.716,2.716,0,0,0,8.8-3.838,3.6,3.6,0,0,0,10.41-3.5a3.516,3.516,0,0,0,1.572-.332,3.068,3.068,0,0,0,1.123-.937,4.406,4.406,0,0,0,.684-1.416A6.343,6.343,0,0,0,14.023-7.949Z" transform="translate(1225 11773)" fill="#fff"/>
  </g>
</svg>
