<svg xmlns="http://www.w3.org/2000/svg" width="122" height="122" viewBox="0 0 122 122">
  <g id="Grupo_22086" data-name="Grupo 22086" transform="translate(-625 -11704)">
    <circle id="Elipse_1060" data-name="Elipse 1060" cx="61" cy="61" r="61" transform="translate(625 11704)" fill="#a93827"/>
    <path id="Trazado_39142" data-name="Trazado 39142" d="M18.438-8.2a8.965,8.965,0,0,1-.713,3.662,7.48,7.48,0,0,1-2.012,2.715A9.016,9.016,0,0,1,12.588-.137,13.218,13.218,0,0,1,8.535.449,16.19,16.19,0,0,1,6.309.3,15.771,15.771,0,0,1,4.414-.068,11.073,11.073,0,0,1,3.037-.518a2.89,2.89,0,0,1-.7-.371.941.941,0,0,1-.244-.322,2.01,2.01,0,0,1-.127-.42,4.4,4.4,0,0,1-.068-.615q-.02-.371-.02-.879,0-.547.039-.928a2.53,2.53,0,0,1,.127-.615A.786.786,0,0,1,2.246-5a.414.414,0,0,1,.273-.1,1.423,1.423,0,0,1,.6.225,10.47,10.47,0,0,0,1.055.5,10.559,10.559,0,0,0,1.592.5,9.758,9.758,0,0,0,2.246.225,8.415,8.415,0,0,0,2.061-.234,4.063,4.063,0,0,0,1.572-.752,3.458,3.458,0,0,0,1-1.3,4.546,4.546,0,0,0,.352-1.875,4.468,4.468,0,0,0-.293-1.67,3.022,3.022,0,0,0-.918-1.24,4.17,4.17,0,0,0-1.621-.762,9.942,9.942,0,0,0-2.422-.254,16.534,16.534,0,0,0-2.061.117,13.984,13.984,0,0,1-1.748.117,1.02,1.02,0,0,1-.811-.283,1.647,1.647,0,0,1-.244-1.045V-23.809a1.68,1.68,0,0,1,.3-1.123,1.23,1.23,0,0,1,.967-.342H16.113a.544.544,0,0,1,.332.117.879.879,0,0,1,.264.371,2.512,2.512,0,0,1,.156.674,8.872,8.872,0,0,1,.049,1.006,5.085,5.085,0,0,1-.205,1.7q-.205.527-.6.527H7.129v5.41q.684-.078,1.357-.1t1.416-.02a12.664,12.664,0,0,1,3.643.479A7.275,7.275,0,0,1,16.221-13.7a5.973,5.973,0,0,1,1.65,2.3A8.347,8.347,0,0,1,18.438-8.2Z" transform="translate(677 11773)" fill="#fff"/>
  </g>
</svg>
