<svg xmlns="http://www.w3.org/2000/svg" width="771.094" height="221.617" viewBox="0 0 771.094 221.617">
  <g id="Grupo_22081" data-name="Grupo 22081" transform="translate(-506.906 -10263.383)">
    <rect id="Rectángulo_4259" data-name="Rectángulo 4259" width="495" height="71" rx="10" transform="translate(783 10414)" fill="#fc737b"/>
    <path id="Trazado_39137" data-name="Trazado 39137" d="M20.059-17.6a9.986,9.986,0,0,1-.664,3.77,7.273,7.273,0,0,1-1.934,2.764,8.523,8.523,0,0,1-3.115,1.709A14.414,14.414,0,0,1,10-8.77H7.891V-.7a.543.543,0,0,1-.127.352.891.891,0,0,1-.42.254,4.1,4.1,0,0,1-.781.156,10.857,10.857,0,0,1-1.25.059A10.909,10.909,0,0,1,4.072.059,4.114,4.114,0,0,1,3.281-.1a.823.823,0,0,1-.41-.254A.571.571,0,0,1,2.754-.7V-23.437a1.824,1.824,0,0,1,.479-1.377,1.744,1.744,0,0,1,1.26-.459h5.957q.9,0,1.709.068a18.016,18.016,0,0,1,1.943.293,8.587,8.587,0,0,1,2.295.83,6.824,6.824,0,0,1,1.982,1.533,6.393,6.393,0,0,1,1.25,2.168A8.466,8.466,0,0,1,20.059-17.6Zm-5.371.371a4.538,4.538,0,0,0-.469-2.187,3.237,3.237,0,0,0-1.152-1.27,3.819,3.819,0,0,0-1.436-.518,10.97,10.97,0,0,0-1.553-.107H7.891v8.574h2.3a5.575,5.575,0,0,0,2.061-.332,3.524,3.524,0,0,0,1.357-.928,4.017,4.017,0,0,0,.8-1.426A5.743,5.743,0,0,0,14.688-17.227ZM37.813-.605a.52.52,0,0,1-.2.43A1.339,1.339,0,0,1,37,.049a8.339,8.339,0,0,1-1.24.068A8.462,8.462,0,0,1,34.482.049a1.1,1.1,0,0,1-.566-.225.562.562,0,0,1-.166-.43V-1.992A7.92,7.92,0,0,1,31.3-.2a7.121,7.121,0,0,1-3.057.645A8.551,8.551,0,0,1,25.693.088,5.74,5.74,0,0,1,23.682-.986a4.834,4.834,0,0,1-1.318-1.768,6.013,6.013,0,0,1-.469-2.461,5.571,5.571,0,0,1,.6-2.646,4.845,4.845,0,0,1,1.777-1.855A8.849,8.849,0,0,1,27.207-10.8a21,21,0,0,1,4.082-.352h1.7v-1.055a5.541,5.541,0,0,0-.166-1.436,2.393,2.393,0,0,0-.547-1.025,2.257,2.257,0,0,0-1.016-.605,5.418,5.418,0,0,0-1.572-.2,8.083,8.083,0,0,0-2.2.273,12.6,12.6,0,0,0-1.709.605q-.742.332-1.24.605a1.814,1.814,0,0,1-.811.273.582.582,0,0,1-.381-.137,1,1,0,0,1-.273-.391,2.7,2.7,0,0,1-.166-.625,5.28,5.28,0,0,1-.059-.82,3.72,3.72,0,0,1,.1-.957,1.474,1.474,0,0,1,.371-.635,3.651,3.651,0,0,1,.957-.625,11.242,11.242,0,0,1,1.6-.635,14.808,14.808,0,0,1,2-.479,13.234,13.234,0,0,1,2.236-.186,13.356,13.356,0,0,1,3.506.4,5.912,5.912,0,0,1,2.393,1.23,4.782,4.782,0,0,1,1.367,2.139,9.993,9.993,0,0,1,.43,3.105ZM32.988-8.066H31.113a10.075,10.075,0,0,0-2.031.176,3.9,3.9,0,0,0-1.367.527,2.173,2.173,0,0,0-.771.85A2.564,2.564,0,0,0,26.7-5.371a2.2,2.2,0,0,0,.693,1.719,2.77,2.77,0,0,0,1.924.625,3.6,3.6,0,0,0,1.9-.527A7.9,7.9,0,0,0,32.988-5.1Zm20.918-8.4q0,.7-.039,1.152a3.544,3.544,0,0,1-.117.7.688.688,0,0,1-.205.352.513.513,0,0,1-.322.1,1.077,1.077,0,0,1-.352-.068q-.2-.068-.439-.146t-.537-.146a2.837,2.837,0,0,0-.645-.068,2.172,2.172,0,0,0-.82.166,3.46,3.46,0,0,0-.85.518,6.309,6.309,0,0,0-.918.938,15.252,15.252,0,0,0-1.025,1.445V-.664a.531.531,0,0,1-.117.342.862.862,0,0,1-.4.244,3.484,3.484,0,0,1-.752.146,11.886,11.886,0,0,1-1.191.049A11.886,11.886,0,0,1,43.984.068a3.484,3.484,0,0,1-.752-.146.862.862,0,0,1-.4-.244.531.531,0,0,1-.117-.342V-18.086a.6.6,0,0,1,.1-.342.716.716,0,0,1,.352-.244,2.8,2.8,0,0,1,.654-.146,8.556,8.556,0,0,1,1.006-.049,9.029,9.029,0,0,1,1.035.049,2.347,2.347,0,0,1,.635.146.716.716,0,0,1,.322.244.6.6,0,0,1,.1.342v2.168A13.9,13.9,0,0,1,48.2-17.529a7.29,7.29,0,0,1,1.152-1.006,3.626,3.626,0,0,1,1.094-.518,4.212,4.212,0,0,1,1.094-.146q.254,0,.547.029a5.307,5.307,0,0,1,.605.1,4.009,4.009,0,0,1,.547.156,1.082,1.082,0,0,1,.342.186.606.606,0,0,1,.156.215,1.693,1.693,0,0,1,.088.322,4.784,4.784,0,0,1,.059.615Q53.906-17.168,53.906-16.465ZM70.9-.605a.52.52,0,0,1-.2.43,1.339,1.339,0,0,1-.615.225,8.339,8.339,0,0,1-1.24.068A8.462,8.462,0,0,1,67.568.049,1.1,1.1,0,0,1,67-.176a.562.562,0,0,1-.166-.43V-1.992A7.92,7.92,0,0,1,64.385-.2a7.121,7.121,0,0,1-3.057.645A8.551,8.551,0,0,1,58.779.088,5.74,5.74,0,0,1,56.768-.986a4.834,4.834,0,0,1-1.318-1.768,6.013,6.013,0,0,1-.469-2.461,5.57,5.57,0,0,1,.6-2.646,4.845,4.845,0,0,1,1.777-1.855A8.849,8.849,0,0,1,60.293-10.8a21,21,0,0,1,4.082-.352h1.7v-1.055a5.541,5.541,0,0,0-.166-1.436,2.393,2.393,0,0,0-.547-1.025,2.257,2.257,0,0,0-1.016-.605,5.418,5.418,0,0,0-1.572-.2,8.083,8.083,0,0,0-2.2.273,12.6,12.6,0,0,0-1.709.605q-.742.332-1.24.605a1.814,1.814,0,0,1-.811.273.582.582,0,0,1-.381-.137,1,1,0,0,1-.273-.391A2.7,2.7,0,0,1,56-14.863a5.28,5.28,0,0,1-.059-.82,3.72,3.72,0,0,1,.1-.957,1.474,1.474,0,0,1,.371-.635,3.651,3.651,0,0,1,.957-.625,11.242,11.242,0,0,1,1.6-.635,14.808,14.808,0,0,1,2-.479A13.234,13.234,0,0,1,63.2-19.2a13.356,13.356,0,0,1,3.506.4,5.912,5.912,0,0,1,2.393,1.23,4.782,4.782,0,0,1,1.367,2.139,9.993,9.993,0,0,1,.43,3.105ZM66.074-8.066H64.2a10.075,10.075,0,0,0-2.031.176,3.9,3.9,0,0,0-1.367.527,2.173,2.173,0,0,0-.771.85,2.564,2.564,0,0,0-.244,1.143,2.2,2.2,0,0,0,.693,1.719,2.77,2.77,0,0,0,1.924.625,3.6,3.6,0,0,0,1.9-.527A7.9,7.9,0,0,0,66.074-5.1Zm23.691,7.4a.531.531,0,0,1-.117.342.862.862,0,0,1-.4.244A3.484,3.484,0,0,1,88.5.068,11.886,11.886,0,0,1,87.3.117,11.886,11.886,0,0,1,86.113.068a3.484,3.484,0,0,1-.752-.146.862.862,0,0,1-.4-.244.531.531,0,0,1-.117-.342V-26.348a.571.571,0,0,1,.117-.352.875.875,0,0,1,.4-.264,3.351,3.351,0,0,1,.752-.166,9.919,9.919,0,0,1,1.191-.059,9.919,9.919,0,0,1,1.191.059,3.351,3.351,0,0,1,.752.166.875.875,0,0,1,.4.264.571.571,0,0,1,.117.352Zm19.746.059a.52.52,0,0,1-.2.43,1.339,1.339,0,0,1-.615.225,8.339,8.339,0,0,1-1.24.068,8.462,8.462,0,0,1-1.279-.068,1.1,1.1,0,0,1-.566-.225.562.562,0,0,1-.166-.43V-1.992A7.92,7.92,0,0,1,103-.2a7.121,7.121,0,0,1-3.057.645A8.551,8.551,0,0,1,97.393.088,5.74,5.74,0,0,1,95.381-.986a4.834,4.834,0,0,1-1.318-1.768,6.013,6.013,0,0,1-.469-2.461,5.571,5.571,0,0,1,.6-2.646,4.845,4.845,0,0,1,1.777-1.855A8.849,8.849,0,0,1,98.906-10.8a21,21,0,0,1,4.082-.352h1.7v-1.055a5.541,5.541,0,0,0-.166-1.436,2.393,2.393,0,0,0-.547-1.025,2.257,2.257,0,0,0-1.016-.605,5.418,5.418,0,0,0-1.572-.2,8.083,8.083,0,0,0-2.2.273,12.6,12.6,0,0,0-1.709.605q-.742.332-1.24.605a1.814,1.814,0,0,1-.811.273.582.582,0,0,1-.381-.137,1,1,0,0,1-.273-.391,2.7,2.7,0,0,1-.166-.625,5.28,5.28,0,0,1-.059-.82,3.72,3.72,0,0,1,.1-.957,1.474,1.474,0,0,1,.371-.635,3.651,3.651,0,0,1,.957-.625,11.242,11.242,0,0,1,1.6-.635,14.808,14.808,0,0,1,2-.479,13.234,13.234,0,0,1,2.236-.186,13.356,13.356,0,0,1,3.506.4,5.912,5.912,0,0,1,2.393,1.23,4.782,4.782,0,0,1,1.367,2.139,9.993,9.993,0,0,1,.43,3.105Zm-4.824-7.461h-1.875a10.075,10.075,0,0,0-2.031.176,3.9,3.9,0,0,0-1.367.527,2.173,2.173,0,0,0-.771.85A2.564,2.564,0,0,0,98.4-5.371a2.2,2.2,0,0,0,.693,1.719,2.77,2.77,0,0,0,1.924.625,3.6,3.6,0,0,0,1.9-.527A7.9,7.9,0,0,0,104.688-5.1ZM133.77-2.383a6.149,6.149,0,0,1-.107,1.318,1.423,1.423,0,0,1-.283.645,1.544,1.544,0,0,1-.518.332,4.849,4.849,0,0,1-.8.254,8.355,8.355,0,0,1-1,.166,9.988,9.988,0,0,1-1.084.059A7.791,7.791,0,0,1,127.441.02a4.218,4.218,0,0,1-1.777-1.143,4.757,4.757,0,0,1-1.035-1.943A10.245,10.245,0,0,1,124.3-5.84v-8.926h-2.09q-.371,0-.566-.459a4.278,4.278,0,0,1-.2-1.533,7.9,7.9,0,0,1,.049-.957,2.305,2.305,0,0,1,.146-.615.716.716,0,0,1,.244-.322.6.6,0,0,1,.342-.1h2.07v-3.887a.606.606,0,0,1,.107-.352.805.805,0,0,1,.391-.264,3.1,3.1,0,0,1,.762-.156q.479-.049,1.182-.049.723,0,1.2.049a2.944,2.944,0,0,1,.752.156.875.875,0,0,1,.391.264.571.571,0,0,1,.117.352v3.887h3.789a.6.6,0,0,1,.342.1.716.716,0,0,1,.244.322,2.3,2.3,0,0,1,.146.615,7.9,7.9,0,0,1,.049.957,4.278,4.278,0,0,1-.2,1.533q-.2.459-.566.459H129.2v8.184a4.072,4.072,0,0,0,.449,2.139,1.742,1.742,0,0,0,1.6.713,3.3,3.3,0,0,0,.7-.068,4.476,4.476,0,0,0,.557-.156q.244-.088.41-.156a.8.8,0,0,1,.3-.068.412.412,0,0,1,.225.068.459.459,0,0,1,.166.273,4.239,4.239,0,0,1,.107.557A6.75,6.75,0,0,1,133.77-2.383Zm20.781-7.168a13.313,13.313,0,0,1-.586,4.063,8.573,8.573,0,0,1-1.777,3.164A7.9,7.9,0,0,1,149.2-.273a11.208,11.208,0,0,1-4.2.723A11.5,11.5,0,0,1,140.957-.2a7.273,7.273,0,0,1-2.852-1.875,7.705,7.705,0,0,1-1.68-3.027,14.092,14.092,0,0,1-.547-4.1,13.2,13.2,0,0,1,.6-4.072,8.579,8.579,0,0,1,1.787-3.164,7.971,7.971,0,0,1,2.979-2.041,11.132,11.132,0,0,1,4.189-.723,11.726,11.726,0,0,1,4.063.635,7.1,7.1,0,0,1,2.842,1.865A7.771,7.771,0,0,1,154-13.672,14.167,14.167,0,0,1,154.551-9.551Zm-5.059.2a12.788,12.788,0,0,0-.205-2.373,5.583,5.583,0,0,0-.693-1.885,3.467,3.467,0,0,0-1.3-1.25,4.172,4.172,0,0,0-2.041-.449,4.315,4.315,0,0,0-1.914.4,3.436,3.436,0,0,0-1.348,1.172,5.606,5.606,0,0,0-.791,1.855,10.494,10.494,0,0,0-.264,2.471,12.222,12.222,0,0,0,.215,2.373,5.873,5.873,0,0,0,.693,1.885,3.3,3.3,0,0,0,1.3,1.24,4.261,4.261,0,0,0,2.031.439,4.363,4.363,0,0,0,1.934-.4,3.463,3.463,0,0,0,1.348-1.162,5.357,5.357,0,0,0,.781-1.846A10.881,10.881,0,0,0,149.492-9.355Zm36.66,8.691a.531.531,0,0,1-.117.342.859.859,0,0,1-.391.244,3.3,3.3,0,0,1-.742.146,11.886,11.886,0,0,1-1.191.049q-.742,0-1.211-.049a3.484,3.484,0,0,1-.752-.146.792.792,0,0,1-.391-.244.562.562,0,0,1-.107-.342V-11a7.162,7.162,0,0,0-.166-1.6,3.758,3.758,0,0,0-.508-1.24,2.4,2.4,0,0,0-.859-.8,2.548,2.548,0,0,0-1.24-.283,2.939,2.939,0,0,0-1.777.684,11.862,11.862,0,0,0-1.953,1.992V-.664a.531.531,0,0,1-.117.342.862.862,0,0,1-.4.244,3.484,3.484,0,0,1-.752.146A11.642,11.642,0,0,1,172.3.117a11.886,11.886,0,0,1-1.191-.049,3.484,3.484,0,0,1-.752-.146.862.862,0,0,1-.4-.244.531.531,0,0,1-.117-.342V-11a7.162,7.162,0,0,0-.166-1.6,3.9,3.9,0,0,0-.5-1.24,2.3,2.3,0,0,0-.859-.8,2.562,2.562,0,0,0-1.23-.283,2.961,2.961,0,0,0-1.8.684,11.363,11.363,0,0,0-1.934,1.992V-.664a.531.531,0,0,1-.117.342.862.862,0,0,1-.4.244,3.484,3.484,0,0,1-.752.146A11.886,11.886,0,0,1,160.9.117a11.886,11.886,0,0,1-1.191-.049,3.484,3.484,0,0,1-.752-.146.862.862,0,0,1-.4-.244.531.531,0,0,1-.117-.342V-18.086a.6.6,0,0,1,.1-.342.716.716,0,0,1,.352-.244,2.8,2.8,0,0,1,.654-.146,8.556,8.556,0,0,1,1.006-.049,9.029,9.029,0,0,1,1.035.049,2.347,2.347,0,0,1,.635.146.716.716,0,0,1,.322.244.6.6,0,0,1,.1.342v2.012a11.52,11.52,0,0,1,2.881-2.344,6.188,6.188,0,0,1,3-.781,7.656,7.656,0,0,1,1.934.225,5.516,5.516,0,0,1,1.533.645,4.813,4.813,0,0,1,1.162,1.006,5.843,5.843,0,0,1,.82,1.309,14.746,14.746,0,0,1,1.533-1.445,9.018,9.018,0,0,1,1.484-.986,6.789,6.789,0,0,1,1.465-.566,6.061,6.061,0,0,1,1.494-.186,6.6,6.6,0,0,1,2.93.586,5.135,5.135,0,0,1,1.924,1.592,6.406,6.406,0,0,1,1.045,2.354,12.593,12.593,0,0,1,.313,2.852Zm19.668.059a.52.52,0,0,1-.2.43,1.339,1.339,0,0,1-.615.225,8.339,8.339,0,0,1-1.24.068A8.462,8.462,0,0,1,202.49.049a1.1,1.1,0,0,1-.566-.225.562.562,0,0,1-.166-.43V-1.992a7.92,7.92,0,0,1-2.451,1.8,7.121,7.121,0,0,1-3.057.645A8.551,8.551,0,0,1,193.7.088a5.74,5.74,0,0,1-2.012-1.074,4.834,4.834,0,0,1-1.318-1.768,6.013,6.013,0,0,1-.469-2.461,5.57,5.57,0,0,1,.6-2.646,4.845,4.845,0,0,1,1.777-1.855,8.849,8.849,0,0,1,2.939-1.084,21,21,0,0,1,4.082-.352H201v-1.055a5.541,5.541,0,0,0-.166-1.436,2.393,2.393,0,0,0-.547-1.025,2.257,2.257,0,0,0-1.016-.605,5.418,5.418,0,0,0-1.572-.2,8.083,8.083,0,0,0-2.2.273,12.6,12.6,0,0,0-1.709.605q-.742.332-1.24.605a1.814,1.814,0,0,1-.811.273.582.582,0,0,1-.381-.137,1,1,0,0,1-.273-.391,2.7,2.7,0,0,1-.166-.625,5.28,5.28,0,0,1-.059-.82,3.72,3.72,0,0,1,.1-.957,1.474,1.474,0,0,1,.371-.635,3.651,3.651,0,0,1,.957-.625,11.242,11.242,0,0,1,1.6-.635,14.808,14.808,0,0,1,2-.479,13.234,13.234,0,0,1,2.236-.186,13.356,13.356,0,0,1,3.506.4,5.912,5.912,0,0,1,2.393,1.23,4.782,4.782,0,0,1,1.367,2.139,9.994,9.994,0,0,1,.43,3.105ZM201-8.066h-1.875a10.075,10.075,0,0,0-2.031.176,3.9,3.9,0,0,0-1.367.527,2.173,2.173,0,0,0-.771.85,2.564,2.564,0,0,0-.244,1.143,2.2,2.2,0,0,0,.693,1.719,2.77,2.77,0,0,0,1.924.625,3.6,3.6,0,0,0,1.9-.527A7.9,7.9,0,0,0,201-5.1Zm35.293,7.4a.637.637,0,0,1-.1.361.714.714,0,0,1-.332.244,2.267,2.267,0,0,1-.635.137q-.4.039-.986.039-.625,0-1.016-.039a2.379,2.379,0,0,1-.635-.137.783.783,0,0,1-.352-.244.594.594,0,0,1-.107-.361V-2.6a11.2,11.2,0,0,1-2.822,2.246,6.743,6.743,0,0,1-3.271.8,6.8,6.8,0,0,1-3.369-.771A6.432,6.432,0,0,1,220.42-2.4a9.027,9.027,0,0,1-1.26-3.057,16.841,16.841,0,0,1-.391-3.682,16.138,16.138,0,0,1,.5-4.18,9.458,9.458,0,0,1,1.455-3.164,6.451,6.451,0,0,1,2.383-2.012,7.327,7.327,0,0,1,3.281-.7,5.856,5.856,0,0,1,2.656.6,9.441,9.441,0,0,1,2.363,1.748v-9.434a.606.606,0,0,1,.107-.352.805.805,0,0,1,.391-.264,3.351,3.351,0,0,1,.752-.166,9.919,9.919,0,0,1,1.191-.059,9.919,9.919,0,0,1,1.191.059,3.17,3.17,0,0,1,.742.166.875.875,0,0,1,.391.264.571.571,0,0,1,.117.352ZM231.406-12.3a10.81,10.81,0,0,0-2.021-2.031,3.388,3.388,0,0,0-2.021-.7,2.833,2.833,0,0,0-1.65.479,3.493,3.493,0,0,0-1.113,1.279,6.815,6.815,0,0,0-.625,1.787,9.9,9.9,0,0,0-.205,2.021,12.7,12.7,0,0,0,.176,2.129,6.67,6.67,0,0,0,.576,1.846,3.5,3.5,0,0,0,1.064,1.3,2.761,2.761,0,0,0,1.68.488,3.351,3.351,0,0,0,.986-.146,3.754,3.754,0,0,0,.977-.479,6.566,6.566,0,0,0,1.025-.869q.527-.537,1.152-1.318Zm25.918,2.422a1.9,1.9,0,0,1-.4,1.328,1.434,1.434,0,0,1-1.1.43H245.215a7.239,7.239,0,0,0,.264,2.021,3.856,3.856,0,0,0,.84,1.543,3.659,3.659,0,0,0,1.484.967,6.358,6.358,0,0,0,2.178.332,12.253,12.253,0,0,0,2.266-.186,15.024,15.024,0,0,0,1.689-.41q.713-.225,1.182-.41a2.193,2.193,0,0,1,.762-.186.574.574,0,0,1,.293.068.509.509,0,0,1,.2.244,1.633,1.633,0,0,1,.107.5q.029.322.029.811,0,.43-.02.732a4.609,4.609,0,0,1-.059.518,1.239,1.239,0,0,1-.117.361,1.355,1.355,0,0,1-.205.283,2.374,2.374,0,0,1-.693.371,10.976,10.976,0,0,1-1.445.459,19.772,19.772,0,0,1-2.012.391,16.719,16.719,0,0,1-2.422.166,12.823,12.823,0,0,1-4.072-.586,7.251,7.251,0,0,1-2.92-1.777,7.394,7.394,0,0,1-1.748-3.008,14.124,14.124,0,0,1-.576-4.258,13.533,13.533,0,0,1,.605-4.189,8.783,8.783,0,0,1,1.758-3.164,7.558,7.558,0,0,1,2.8-1.982A9.643,9.643,0,0,1,249.1-19.2a9.743,9.743,0,0,1,3.74.645,6.747,6.747,0,0,1,2.549,1.787,7.21,7.21,0,0,1,1.465,2.705,11.781,11.781,0,0,1,.469,3.4Zm-4.766-1.406a5.052,5.052,0,0,0-.83-3.252,3.211,3.211,0,0,0-2.744-1.182,3.563,3.563,0,0,0-1.631.352,3.339,3.339,0,0,0-1.152.947,4.32,4.32,0,0,0-.7,1.406,7.005,7.005,0,0,0-.283,1.729ZM291.7-13.008a17.287,17.287,0,0,1-.908,5.947,10.1,10.1,0,0,1-2.607,4.033,10.455,10.455,0,0,1-4.131,2.295A20.213,20.213,0,0,1,278.262,0h-6.035a1.6,1.6,0,0,1-1.084-.381,1.561,1.561,0,0,1-.439-1.24V-23.652a1.561,1.561,0,0,1,.439-1.24,1.6,1.6,0,0,1,1.084-.381h6.484a18.131,18.131,0,0,1,5.732.791,10.386,10.386,0,0,1,3.965,2.344,10.054,10.054,0,0,1,2.451,3.838A15.306,15.306,0,0,1,291.7-13.008Zm-5.312.176a12.683,12.683,0,0,0-.42-3.34,7.11,7.11,0,0,0-1.348-2.676,6.249,6.249,0,0,0-2.383-1.768,9.663,9.663,0,0,0-3.818-.635h-2.6V-4.062H278.5a10.1,10.1,0,0,0,3.555-.547,5.944,5.944,0,0,0,2.412-1.65A7.123,7.123,0,0,0,285.908-9,13.729,13.729,0,0,0,286.387-12.832Zm25.332,2.949a1.9,1.9,0,0,1-.4,1.328,1.434,1.434,0,0,1-1.1.43H299.609a7.239,7.239,0,0,0,.264,2.021,3.856,3.856,0,0,0,.84,1.543,3.659,3.659,0,0,0,1.484.967,6.358,6.358,0,0,0,2.178.332,12.252,12.252,0,0,0,2.266-.186,15.024,15.024,0,0,0,1.689-.41q.713-.225,1.182-.41a2.193,2.193,0,0,1,.762-.186.574.574,0,0,1,.293.068.509.509,0,0,1,.2.244,1.633,1.633,0,0,1,.107.5q.029.322.029.811,0,.43-.02.732a4.609,4.609,0,0,1-.059.518,1.239,1.239,0,0,1-.117.361,1.355,1.355,0,0,1-.205.283,2.374,2.374,0,0,1-.693.371,10.975,10.975,0,0,1-1.445.459,19.771,19.771,0,0,1-2.012.391,16.719,16.719,0,0,1-2.422.166,12.823,12.823,0,0,1-4.072-.586,7.25,7.25,0,0,1-2.92-1.777,7.394,7.394,0,0,1-1.748-3.008,14.123,14.123,0,0,1-.576-4.258,13.532,13.532,0,0,1,.605-4.189,8.784,8.784,0,0,1,1.758-3.164,7.558,7.558,0,0,1,2.8-1.982A9.643,9.643,0,0,1,303.5-19.2a9.743,9.743,0,0,1,3.74.645,6.747,6.747,0,0,1,2.549,1.787,7.21,7.21,0,0,1,1.465,2.705,11.781,11.781,0,0,1,.469,3.4Zm-4.766-1.406a5.052,5.052,0,0,0-.83-3.252,3.211,3.211,0,0,0-2.744-1.182,3.563,3.563,0,0,0-1.631.352,3.339,3.339,0,0,0-1.152.947,4.32,4.32,0,0,0-.7,1.406,7.005,7.005,0,0,0-.283,1.729Zm21.992,7.852q0,.508-.029.85a4.965,4.965,0,0,1-.078.576,1.773,1.773,0,0,1-.117.381,1.414,1.414,0,0,1-.3.371,4.3,4.3,0,0,1-.8.547,7.9,7.9,0,0,1-1.289.576,10.439,10.439,0,0,1-1.572.41,9.646,9.646,0,0,1-1.748.156A9.489,9.489,0,0,1,319.443-.2a6.689,6.689,0,0,1-2.607-1.846,8.115,8.115,0,0,1-1.592-2.979,13.777,13.777,0,0,1-.537-4.023,13.954,13.954,0,0,1,.654-4.521,8.644,8.644,0,0,1,1.826-3.154,7.284,7.284,0,0,1,2.773-1.855,9.867,9.867,0,0,1,3.516-.605,8.554,8.554,0,0,1,1.533.137,8.872,8.872,0,0,1,1.406.371,7.541,7.541,0,0,1,1.172.527,3.582,3.582,0,0,1,.732.508,2.046,2.046,0,0,1,.3.361,1.232,1.232,0,0,1,.137.381,4.965,4.965,0,0,1,.078.576q.029.342.029.83a4.509,4.509,0,0,1-.2,1.592q-.2.459-.508.459a1.2,1.2,0,0,1-.7-.273q-.371-.273-.879-.605a6.555,6.555,0,0,0-1.211-.605,4.634,4.634,0,0,0-1.68-.273,3.339,3.339,0,0,0-2.93,1.475,7.625,7.625,0,0,0-1.016,4.326A10.849,10.849,0,0,0,320-6.914a5.283,5.283,0,0,0,.752,1.8A3.17,3.17,0,0,0,322-4.033a3.993,3.993,0,0,0,1.748.361,4.565,4.565,0,0,0,1.748-.3,7.117,7.117,0,0,0,1.279-.674q.547-.371.918-.674a1.087,1.087,0,0,1,.625-.3.442.442,0,0,1,.293.1.691.691,0,0,1,.186.361,4.437,4.437,0,0,1,.107.674Q328.945-4.082,328.945-3.437Zm8.477,2.773a.531.531,0,0,1-.117.342.862.862,0,0,1-.4.244,3.484,3.484,0,0,1-.752.146,11.886,11.886,0,0,1-1.191.049A11.886,11.886,0,0,1,333.77.068a3.484,3.484,0,0,1-.752-.146.862.862,0,0,1-.4-.244.531.531,0,0,1-.117-.342V-18.047a.531.531,0,0,1,.117-.342.923.923,0,0,1,.4-.254,3.351,3.351,0,0,1,.752-.166,9.919,9.919,0,0,1,1.191-.059,9.919,9.919,0,0,1,1.191.059,3.351,3.351,0,0,1,.752.166.923.923,0,0,1,.4.254.531.531,0,0,1,.117.342Zm.371-23.32a2.756,2.756,0,0,1-.605,2.051,3.335,3.335,0,0,1-2.246.566,3.332,3.332,0,0,1-2.236-.547,2.674,2.674,0,0,1-.576-1.973,2.823,2.823,0,0,1,.6-2.061,3.289,3.289,0,0,1,2.256-.576,3.292,3.292,0,0,1,2.227.557A2.681,2.681,0,0,1,337.793-23.984Zm16.8,18.4a5.863,5.863,0,0,1-.557,2.617,5.209,5.209,0,0,1-1.572,1.895,7.086,7.086,0,0,1-2.4,1.143,11.325,11.325,0,0,1-3.008.381A11.46,11.46,0,0,1,345.186.3a11.287,11.287,0,0,1-1.592-.371,8.326,8.326,0,0,1-1.172-.459,2.887,2.887,0,0,1-.684-.439,1.362,1.362,0,0,1-.332-.645,5.391,5.391,0,0,1-.117-1.3,8.369,8.369,0,0,1,.039-.908,2.318,2.318,0,0,1,.117-.547.513.513,0,0,1,.2-.273.574.574,0,0,1,.293-.068,1.457,1.457,0,0,1,.635.244q.42.244,1.045.537a11.09,11.09,0,0,0,1.455.547,6.441,6.441,0,0,0,1.885.254,4.64,4.64,0,0,0,1.182-.137,2.978,2.978,0,0,0,.9-.391,1.657,1.657,0,0,0,.576-.645,1.983,1.983,0,0,0,.2-.9,1.491,1.491,0,0,0-.361-1.006,3.209,3.209,0,0,0-.957-.732,10.994,10.994,0,0,0-1.348-.586q-.752-.273-1.543-.605a14.133,14.133,0,0,1-1.543-.762,5.885,5.885,0,0,1-1.348-1.055,4.8,4.8,0,0,1-.957-1.5,5.54,5.54,0,0,1-.361-2.109,5.353,5.353,0,0,1,.488-2.295,4.992,4.992,0,0,1,1.406-1.787,6.662,6.662,0,0,1,2.236-1.152,9.941,9.941,0,0,1,2.959-.41,10.588,10.588,0,0,1,1.592.117,11.631,11.631,0,0,1,1.4.293,6.669,6.669,0,0,1,1.055.381,3.479,3.479,0,0,1,.615.352.975.975,0,0,1,.264.293,1.237,1.237,0,0,1,.117.352q.039.205.068.508t.029.752q0,.527-.029.859a2.248,2.248,0,0,1-.1.527.468.468,0,0,1-.186.264.533.533,0,0,1-.273.068,1.333,1.333,0,0,1-.547-.205,9.882,9.882,0,0,0-.928-.439,10.956,10.956,0,0,0-1.289-.439,6.2,6.2,0,0,0-1.67-.205,4.3,4.3,0,0,0-1.152.137,2.191,2.191,0,0,0-.8.391,1.643,1.643,0,0,0-.469.6,1.741,1.741,0,0,0-.156.732,1.458,1.458,0,0,0,.371,1.016,3.4,3.4,0,0,0,.977.723,11.082,11.082,0,0,0,1.377.586q.771.273,1.563.6a14.293,14.293,0,0,1,1.563.752,5.908,5.908,0,0,1,1.377,1.055,4.87,4.87,0,0,1,.977,1.494A5.224,5.224,0,0,1,354.59-5.586ZM363.2-.664a.531.531,0,0,1-.117.342.862.862,0,0,1-.4.244,3.484,3.484,0,0,1-.752.146,11.886,11.886,0,0,1-1.191.049,11.886,11.886,0,0,1-1.191-.049,3.484,3.484,0,0,1-.752-.146.862.862,0,0,1-.4-.244.531.531,0,0,1-.117-.342V-18.047a.531.531,0,0,1,.117-.342.923.923,0,0,1,.4-.254,3.351,3.351,0,0,1,.752-.166,9.919,9.919,0,0,1,1.191-.059,9.919,9.919,0,0,1,1.191.059,3.351,3.351,0,0,1,.752.166.923.923,0,0,1,.4.254.531.531,0,0,1,.117.342Zm.371-23.32a2.756,2.756,0,0,1-.605,2.051,3.335,3.335,0,0,1-2.246.566,3.332,3.332,0,0,1-2.236-.547,2.674,2.674,0,0,1-.576-1.973,2.823,2.823,0,0,1,.6-2.061,3.289,3.289,0,0,1,2.256-.576,3.292,3.292,0,0,1,2.227.557A2.681,2.681,0,0,1,363.574-23.984ZM385.723-9.551a13.313,13.313,0,0,1-.586,4.063,8.573,8.573,0,0,1-1.777,3.164,7.9,7.9,0,0,1-2.988,2.051,11.208,11.208,0,0,1-4.2.723A11.5,11.5,0,0,1,372.129-.2a7.273,7.273,0,0,1-2.852-1.875A7.705,7.705,0,0,1,367.6-5.1a14.091,14.091,0,0,1-.547-4.1,13.2,13.2,0,0,1,.6-4.072,8.579,8.579,0,0,1,1.787-3.164,7.972,7.972,0,0,1,2.979-2.041A11.132,11.132,0,0,1,376.6-19.2a11.726,11.726,0,0,1,4.063.635,7.1,7.1,0,0,1,2.842,1.865,7.771,7.771,0,0,1,1.67,3.027A14.166,14.166,0,0,1,385.723-9.551Zm-5.059.2a12.788,12.788,0,0,0-.205-2.373,5.582,5.582,0,0,0-.693-1.885,3.467,3.467,0,0,0-1.3-1.25,4.172,4.172,0,0,0-2.041-.449,4.315,4.315,0,0,0-1.914.4,3.436,3.436,0,0,0-1.348,1.172,5.606,5.606,0,0,0-.791,1.855,10.494,10.494,0,0,0-.264,2.471,12.223,12.223,0,0,0,.215,2.373,5.873,5.873,0,0,0,.693,1.885,3.3,3.3,0,0,0,1.3,1.24,4.261,4.261,0,0,0,2.031.439,4.363,4.363,0,0,0,1.934-.4,3.463,3.463,0,0,0,1.348-1.162,5.357,5.357,0,0,0,.781-1.846A10.881,10.881,0,0,0,380.664-9.355ZM406.25-.664a.531.531,0,0,1-.117.342.859.859,0,0,1-.391.244,3.326,3.326,0,0,1-.752.146q-.479.049-1.182.049-.723,0-1.2-.049a3.326,3.326,0,0,1-.752-.146.859.859,0,0,1-.391-.244.531.531,0,0,1-.117-.342v-9.941a8.384,8.384,0,0,0-.186-1.992,3.927,3.927,0,0,0-.537-1.24,2.393,2.393,0,0,0-.908-.8,2.828,2.828,0,0,0-1.3-.283,3.255,3.255,0,0,0-1.895.684,10.232,10.232,0,0,0-1.992,1.992V-.664a.531.531,0,0,1-.117.342.862.862,0,0,1-.4.244,3.484,3.484,0,0,1-.752.146,11.886,11.886,0,0,1-1.191.049,11.886,11.886,0,0,1-1.191-.049,3.484,3.484,0,0,1-.752-.146.862.862,0,0,1-.4-.244.531.531,0,0,1-.117-.342V-18.086a.6.6,0,0,1,.1-.342.716.716,0,0,1,.352-.244,2.8,2.8,0,0,1,.654-.146,8.556,8.556,0,0,1,1.006-.049,9.029,9.029,0,0,1,1.035.049,2.348,2.348,0,0,1,.635.146.716.716,0,0,1,.322.244.6.6,0,0,1,.1.342v2.012a11.061,11.061,0,0,1,2.939-2.344,6.637,6.637,0,0,1,3.115-.781,6.9,6.9,0,0,1,3,.586,5.248,5.248,0,0,1,1.973,1.592,6.463,6.463,0,0,1,1.084,2.354,13.724,13.724,0,0,1,.332,3.242Zm20.918-9.219a1.9,1.9,0,0,1-.4,1.328,1.434,1.434,0,0,1-1.1.43H415.059a7.239,7.239,0,0,0,.264,2.021,3.856,3.856,0,0,0,.84,1.543,3.659,3.659,0,0,0,1.484.967,6.358,6.358,0,0,0,2.178.332,12.252,12.252,0,0,0,2.266-.186,15.024,15.024,0,0,0,1.689-.41q.713-.225,1.182-.41a2.193,2.193,0,0,1,.762-.186.574.574,0,0,1,.293.068.509.509,0,0,1,.2.244,1.633,1.633,0,0,1,.107.5q.029.322.029.811,0,.43-.02.732a4.609,4.609,0,0,1-.059.518,1.239,1.239,0,0,1-.117.361,1.355,1.355,0,0,1-.205.283,2.374,2.374,0,0,1-.693.371,10.975,10.975,0,0,1-1.445.459A19.771,19.771,0,0,1,421.8.283a16.719,16.719,0,0,1-2.422.166A12.823,12.823,0,0,1,415.3-.137a7.25,7.25,0,0,1-2.92-1.777,7.394,7.394,0,0,1-1.748-3.008,14.123,14.123,0,0,1-.576-4.258,13.532,13.532,0,0,1,.605-4.189,8.784,8.784,0,0,1,1.758-3.164,7.558,7.558,0,0,1,2.8-1.982,9.643,9.643,0,0,1,3.721-.684,9.743,9.743,0,0,1,3.74.645,6.747,6.747,0,0,1,2.549,1.787,7.21,7.21,0,0,1,1.465,2.705,11.781,11.781,0,0,1,.469,3.4ZM422.4-11.289a5.052,5.052,0,0,0-.83-3.252,3.211,3.211,0,0,0-2.744-1.182,3.563,3.563,0,0,0-1.631.352,3.339,3.339,0,0,0-1.152.947,4.32,4.32,0,0,0-.7,1.406,7.005,7.005,0,0,0-.283,1.729Zm21.074,5.7a5.863,5.863,0,0,1-.557,2.617,5.209,5.209,0,0,1-1.572,1.895,7.086,7.086,0,0,1-2.4,1.143,11.325,11.325,0,0,1-3.008.381A11.46,11.46,0,0,1,434.072.3a11.287,11.287,0,0,1-1.592-.371,8.326,8.326,0,0,1-1.172-.459,2.887,2.887,0,0,1-.684-.439,1.362,1.362,0,0,1-.332-.645,5.391,5.391,0,0,1-.117-1.3,8.369,8.369,0,0,1,.039-.908,2.318,2.318,0,0,1,.117-.547.513.513,0,0,1,.2-.273.574.574,0,0,1,.293-.068,1.457,1.457,0,0,1,.635.244q.42.244,1.045.537a11.09,11.09,0,0,0,1.455.547,6.441,6.441,0,0,0,1.885.254,4.64,4.64,0,0,0,1.182-.137,2.978,2.978,0,0,0,.9-.391A1.657,1.657,0,0,0,438.5-4.3a1.983,1.983,0,0,0,.2-.9A1.491,1.491,0,0,0,438.33-6.2a3.209,3.209,0,0,0-.957-.732,10.994,10.994,0,0,0-1.348-.586q-.752-.273-1.543-.605a14.133,14.133,0,0,1-1.543-.762,5.885,5.885,0,0,1-1.348-1.055,4.8,4.8,0,0,1-.957-1.5,5.54,5.54,0,0,1-.361-2.109,5.353,5.353,0,0,1,.488-2.295,4.992,4.992,0,0,1,1.406-1.787,6.662,6.662,0,0,1,2.236-1.152,9.941,9.941,0,0,1,2.959-.41,10.588,10.588,0,0,1,1.592.117,11.631,11.631,0,0,1,1.4.293,6.669,6.669,0,0,1,1.055.381,3.479,3.479,0,0,1,.615.352.975.975,0,0,1,.264.293,1.237,1.237,0,0,1,.117.352q.039.205.068.508t.029.752q0,.527-.029.859a2.248,2.248,0,0,1-.1.527.468.468,0,0,1-.186.264.533.533,0,0,1-.273.068,1.333,1.333,0,0,1-.547-.205,9.882,9.882,0,0,0-.928-.439,10.956,10.956,0,0,0-1.289-.439,6.2,6.2,0,0,0-1.67-.205,4.3,4.3,0,0,0-1.152.137,2.191,2.191,0,0,0-.8.391,1.643,1.643,0,0,0-.469.6,1.741,1.741,0,0,0-.156.732,1.458,1.458,0,0,0,.371,1.016,3.4,3.4,0,0,0,.977.723,11.082,11.082,0,0,0,1.377.586q.771.273,1.563.6a14.293,14.293,0,0,1,1.563.752,5.908,5.908,0,0,1,1.377,1.055,4.87,4.87,0,0,1,.977,1.494A5.224,5.224,0,0,1,443.477-5.586Z" transform="translate(805 10461)" fill="#fff"/>
    <path id="Trazado_37507" data-name="Trazado 37507" d="M136.489-92.743a43.1,43.1,0,0,1-.405,6.42,15.319,15.319,0,0,1-1.149,4.19,5.683,5.683,0,0,1-1.689,2.23,3.627,3.627,0,0,1-2.162.676h-96.5a3.423,3.423,0,0,1-2.027-.676,5.683,5.683,0,0,1-1.689-2.23,15.318,15.318,0,0,1-1.149-4.19,43.1,43.1,0,0,1-.405-6.42A52.937,52.937,0,0,1,29.65-99.3a14.945,14.945,0,0,1,1.081-4.257,6.273,6.273,0,0,1,1.689-2.365,3.4,3.4,0,0,1,2.162-.743H67.155v-113.8L39.043-204.922a20.672,20.672,0,0,1-5.068,1.825,3.335,3.335,0,0,1-3.109-.811,7.018,7.018,0,0,1-1.554-3.987,59.937,59.937,0,0,1-.405-7.974q0-3.244.135-5.339a12.991,12.991,0,0,1,.676-3.582,6.539,6.539,0,0,1,1.487-2.433,17.008,17.008,0,0,1,2.568-2.027l37.573-24.328a5.426,5.426,0,0,1,1.689-.878A14.087,14.087,0,0,1,75.67-255q1.622-.2,4.257-.27t6.825-.068q5.136,0,8.312.2a23.713,23.713,0,0,1,4.8.676,3.778,3.778,0,0,1,2.162,1.284,3.578,3.578,0,0,1,.541,2.027v144.48h28.518a3.687,3.687,0,0,1,2.23.743,5.9,5.9,0,0,1,1.757,2.365,14.945,14.945,0,0,1,1.081,4.257A52.938,52.938,0,0,1,136.489-92.743ZM266-167.349a193.705,193.705,0,0,1-3.379,37.843q-3.379,16.894-11.015,28.788a51.5,51.5,0,0,1-19.868,18.246q-12.231,6.352-29.937,6.352-17.976,0-29.734-6.15a46.388,46.388,0,0,1-18.651-17.705q-6.893-11.556-9.664-28.247A232.24,232.24,0,0,1,140.982-166a190.284,190.284,0,0,1,3.446-37.776q3.446-16.962,11.083-28.856a51.5,51.5,0,0,1,19.868-18.246q12.231-6.352,29.8-6.352,17.976,0,29.8,6.15A46.277,46.277,0,0,1,253.7-233.372q6.893,11.556,9.6,28.247A237.931,237.931,0,0,1,266-167.349Zm-35.816,1.757q0-12.434-.676-21.963a131.906,131.906,0,0,0-2.095-16.556A60.8,60.8,0,0,0,223.9-216a23.961,23.961,0,0,0-5.068-7.771,17.033,17.033,0,0,0-6.758-4.122,27.281,27.281,0,0,0-8.38-1.216q-7.974,0-13.178,3.852t-8.244,11.556a74.1,74.1,0,0,0-4.257,19.192,257.621,257.621,0,0,0-1.216,26.761,263.911,263.911,0,0,0,1.487,30.883q1.487,12.232,4.663,19.462t8.177,10.137a23.55,23.55,0,0,0,12.029,2.906,24.082,24.082,0,0,0,9.326-1.689,19.6,19.6,0,0,0,7.1-5.068,27.894,27.894,0,0,0,5.068-8.515,66.149,66.149,0,0,0,3.311-11.894,117.2,117.2,0,0,0,1.757-15.272Q230.184-155.32,230.184-165.592Z" transform="translate(478 10522)" fill="#45c3cc"/>
    <path id="Trazado_39136" data-name="Trazado 39136" d="M97.852-115.82a40.744,40.744,0,0,1-.244,4.834,13.18,13.18,0,0,1-.732,3.223,4.3,4.3,0,0,1-1.221,1.807,2.521,2.521,0,0,1-1.611.586H62.4V-3.516a2.715,2.715,0,0,1-.635,1.758,4.455,4.455,0,0,1-2.1,1.27,20.57,20.57,0,0,1-3.955.781,54.544,54.544,0,0,1-6.2.293,54.544,54.544,0,0,1-6.2-.293,20.57,20.57,0,0,1-3.955-.781,4.455,4.455,0,0,1-2.1-1.27,2.715,2.715,0,0,1-.635-1.758V-105.371H4.98a2.464,2.464,0,0,1-1.66-.586,4.573,4.573,0,0,1-1.172-1.807,13.181,13.181,0,0,1-.732-3.223,40.744,40.744,0,0,1-.244-4.834,43.046,43.046,0,0,1,.244-4.98,13.276,13.276,0,0,1,.732-3.271A4.14,4.14,0,0,1,3.32-125.83a2.6,2.6,0,0,1,1.66-.537H94.043a2.664,2.664,0,0,1,1.611.537,3.916,3.916,0,0,1,1.221,1.758,13.276,13.276,0,0,1,.732,3.271A43.047,43.047,0,0,1,97.852-115.82ZM135.938-3.32a2.655,2.655,0,0,1-.586,1.709,4.308,4.308,0,0,1-2,1.221,17.421,17.421,0,0,1-3.76.732,59.428,59.428,0,0,1-5.957.244,59.428,59.428,0,0,1-5.957-.244,17.421,17.421,0,0,1-3.76-.732,4.308,4.308,0,0,1-2-1.221,2.655,2.655,0,0,1-.586-1.709V-90.234a2.655,2.655,0,0,1,.586-1.709,4.616,4.616,0,0,1,2-1.27,16.756,16.756,0,0,1,3.76-.83,49.6,49.6,0,0,1,5.957-.293,49.6,49.6,0,0,1,5.957.293,16.756,16.756,0,0,1,3.76.83,4.616,4.616,0,0,1,2,1.27,2.655,2.655,0,0,1,.586,1.709Zm1.855-116.6q0,7.422-3.027,10.254t-11.23,2.832q-8.3,0-11.182-2.734t-2.881-9.863q0-7.422,2.979-10.3t11.279-2.881q8.2,0,11.133,2.783T137.793-119.922ZM248.145-48.145a81.257,81.257,0,0,1-2.49,20.947,47.256,47.256,0,0,1-7.275,15.869A32.257,32.257,0,0,1,226.465-1.27a36.4,36.4,0,0,1-16.309,3.516,31.065,31.065,0,0,1-6.982-.732,26.88,26.88,0,0,1-6.152-2.246,38.126,38.126,0,0,1-5.908-3.76,69.884,69.884,0,0,1-6.055-5.273V31.25a2.857,2.857,0,0,1-.586,1.758,4.376,4.376,0,0,1-2,1.318,16.756,16.756,0,0,1-3.76.83,49.6,49.6,0,0,1-5.957.293,49.6,49.6,0,0,1-5.957-.293,16.756,16.756,0,0,1-3.76-.83,4.376,4.376,0,0,1-2-1.318,2.857,2.857,0,0,1-.586-1.758V-90.43a3.009,3.009,0,0,1,.488-1.709,3.571,3.571,0,0,1,1.709-1.221,13.18,13.18,0,0,1,3.223-.732,42.783,42.783,0,0,1,5.029-.244,41.754,41.754,0,0,1,4.932.244,13.18,13.18,0,0,1,3.223.732,3.571,3.571,0,0,1,1.709,1.221,3.009,3.009,0,0,1,.488,1.709v10.254a88.483,88.483,0,0,1,7.471-6.885,45.184,45.184,0,0,1,7.471-4.98,33.931,33.931,0,0,1,7.861-2.979A36.8,36.8,0,0,1,212.7-96q9.57,0,16.309,3.76a30.845,30.845,0,0,1,10.986,10.3,46.394,46.394,0,0,1,6.2,15.234A84.484,84.484,0,0,1,248.145-48.145Zm-25.586,1.758a66.845,66.845,0,0,0-.83-10.693,31.609,31.609,0,0,0-2.832-9.131,17.381,17.381,0,0,0-5.273-6.4A13.444,13.444,0,0,0,205.469-75a16.43,16.43,0,0,0-4.834.732,18.77,18.77,0,0,0-4.883,2.393,34.17,34.17,0,0,0-5.127,4.3,61.345,61.345,0,0,0-5.566,6.543v28.711a57.4,57.4,0,0,0,9.863,10.107,15.928,15.928,0,0,0,9.766,3.564,13.522,13.522,0,0,0,8.154-2.441,18.882,18.882,0,0,0,5.518-6.4,32.224,32.224,0,0,0,3.174-8.936A49.279,49.279,0,0,0,222.559-46.387ZM328.125-27.93a29.316,29.316,0,0,1-2.783,13.086,26.044,26.044,0,0,1-7.861,9.473A35.428,35.428,0,0,1,305.469.342a56.625,56.625,0,0,1-15.039,1.9,57.3,57.3,0,0,1-9.326-.732,56.432,56.432,0,0,1-7.959-1.855,41.629,41.629,0,0,1-5.859-2.295,14.437,14.437,0,0,1-3.418-2.2,6.807,6.807,0,0,1-1.66-3.223,26.957,26.957,0,0,1-.586-6.494,41.832,41.832,0,0,1,.2-4.541,11.6,11.6,0,0,1,.586-2.734,2.565,2.565,0,0,1,.977-1.367,2.869,2.869,0,0,1,1.465-.342,7.286,7.286,0,0,1,3.174,1.221q2.1,1.221,5.225,2.686a55.452,55.452,0,0,0,7.275,2.734,32.205,32.205,0,0,0,9.424,1.27,23.2,23.2,0,0,0,5.908-.684,14.891,14.891,0,0,0,4.492-1.953,8.285,8.285,0,0,0,2.881-3.223,9.915,9.915,0,0,0,.977-4.492,7.454,7.454,0,0,0-1.807-5.029,16.046,16.046,0,0,0-4.785-3.662,54.978,54.978,0,0,0-6.738-2.93q-3.76-1.367-7.715-3.027a70.658,70.658,0,0,1-7.715-3.809,29.43,29.43,0,0,1-6.738-5.273,23.976,23.976,0,0,1-4.785-7.52,27.7,27.7,0,0,1-1.807-10.547,26.767,26.767,0,0,1,2.441-11.475,24.958,24.958,0,0,1,7.031-8.936,33.31,33.31,0,0,1,11.182-5.762A49.706,49.706,0,0,1,297.559-96a52.94,52.94,0,0,1,7.959.586,58.155,58.155,0,0,1,6.982,1.465,33.338,33.338,0,0,1,5.273,1.9,17.4,17.4,0,0,1,3.076,1.758,4.874,4.874,0,0,1,1.318,1.465,6.191,6.191,0,0,1,.586,1.758q.2,1.025.342,2.539t.146,3.76q0,2.637-.146,4.3a11.239,11.239,0,0,1-.488,2.637,2.341,2.341,0,0,1-.928,1.318,2.664,2.664,0,0,1-1.367.342,6.664,6.664,0,0,1-2.734-1.025,49.4,49.4,0,0,0-4.639-2.2,54.779,54.779,0,0,0-6.445-2.2,31.021,31.021,0,0,0-8.35-1.025,21.513,21.513,0,0,0-5.762.684,10.957,10.957,0,0,0-4,1.953A8.217,8.217,0,0,0,286.035-73a8.7,8.7,0,0,0-.781,3.662,7.289,7.289,0,0,0,1.855,5.078,17.02,17.02,0,0,0,4.883,3.613,55.4,55.4,0,0,0,6.885,2.93q3.857,1.367,7.813,2.979a71.472,71.472,0,0,1,7.813,3.76,29.537,29.537,0,0,1,6.885,5.273,24.35,24.35,0,0,1,4.883,7.471A26.121,26.121,0,0,1,328.125-27.93Z" transform="translate(771 10396)" fill="#00223d"/>
  </g>
</svg>
