<svg xmlns="http://www.w3.org/2000/svg" width="122" height="122" viewBox="0 0 122 122">
  <g id="Grupo_22083" data-name="Grupo 22083" transform="translate(-1174 -10543)">
    <circle id="Elipse_1057" data-name="Elipse 1057" cx="61" cy="61" r="61" transform="translate(1174 10543)" fill="#74ab5c"/>
    <path id="Trazado_39139" data-name="Trazado 39139" d="M18.672-2.09a8.149,8.149,0,0,1-.049.967,2.8,2.8,0,0,1-.146.654.748.748,0,0,1-.254.361A.606.606,0,0,1,17.871,0H3.34A3.09,3.09,0,0,1,2.6-.078a.963.963,0,0,1-.508-.3,1.42,1.42,0,0,1-.283-.654,5.738,5.738,0,0,1-.088-1.113,8.881,8.881,0,0,1,.059-1.1,3.026,3.026,0,0,1,.215-.82,3.814,3.814,0,0,1,.4-.7,7.106,7.106,0,0,1,.635-.752L7.4-10.215a23.071,23.071,0,0,0,2.109-2.49,14.475,14.475,0,0,0,1.25-2.051,7.6,7.6,0,0,0,.615-1.709,7.149,7.149,0,0,0,.166-1.484,3.613,3.613,0,0,0-.205-1.221,2.868,2.868,0,0,0-.605-1.006,2.763,2.763,0,0,0-1.006-.674A3.8,3.8,0,0,0,8.3-21.094,6.515,6.515,0,0,0,6.26-20.8a9.818,9.818,0,0,0-1.562.654q-.674.361-1.123.664a1.43,1.43,0,0,1-.7.3.431.431,0,0,1-.3-.117.841.841,0,0,1-.205-.391,4.5,4.5,0,0,1-.127-.732,10.87,10.87,0,0,1-.049-1.123q0-.449.029-.752a3.413,3.413,0,0,1,.088-.527,1.529,1.529,0,0,1,.156-.391,2.036,2.036,0,0,1,.342-.4,4.649,4.649,0,0,1,.9-.6,11.072,11.072,0,0,1,1.611-.7,15.414,15.414,0,0,1,2.109-.576,12.028,12.028,0,0,1,2.4-.234,10.784,10.784,0,0,1,3.447.5,6.837,6.837,0,0,1,2.451,1.387,5.561,5.561,0,0,1,1.455,2.109,7.134,7.134,0,0,1,.479,2.627,12.517,12.517,0,0,1-.234,2.422,9.25,9.25,0,0,1-.977,2.568,20.375,20.375,0,0,1-2.09,3.047,48.879,48.879,0,0,1-3.574,3.877L7.832-4.16h9.961a.614.614,0,0,1,.361.117.912.912,0,0,1,.283.361,2.275,2.275,0,0,1,.176.645A6.641,6.641,0,0,1,18.672-2.09Z" transform="translate(1225 10612)" fill="#fff"/>
  </g>
</svg>
