<svg xmlns="http://www.w3.org/2000/svg" width="122" height="122" viewBox="0 0 122 122">
  <g id="Grupo_22082" data-name="Grupo 22082" transform="translate(-625 -10543)">
    <circle id="Elipse_1056" data-name="Elipse 1056" cx="61" cy="61" r="61" transform="translate(625 10543)" fill="#fcc73d"/>
    <path id="Trazado_39138" data-name="Trazado 39138" d="M18.438-1.953a6.228,6.228,0,0,1-.059.928,2.214,2.214,0,0,1-.166.605.821.821,0,0,1-.244.322.524.524,0,0,1-.312.1H3.711a.5.5,0,0,1-.293-.1A.821.821,0,0,1,3.174-.42a2.214,2.214,0,0,1-.166-.605,6.228,6.228,0,0,1-.059-.928A7.65,7.65,0,0,1,3-2.9a2.16,2.16,0,0,1,.156-.615A.906.906,0,0,1,3.4-3.857a.492.492,0,0,1,.313-.107H8.418V-20.41L4.355-18.164a2.987,2.987,0,0,1-.732.264.482.482,0,0,1-.449-.117,1.014,1.014,0,0,1-.225-.576,8.662,8.662,0,0,1-.059-1.152q0-.469.02-.771a1.877,1.877,0,0,1,.1-.518.945.945,0,0,1,.215-.352,2.458,2.458,0,0,1,.371-.293L9.023-25.2a.784.784,0,0,1,.244-.127,2.036,2.036,0,0,1,.381-.078q.234-.029.615-.039t.986-.01q.742,0,1.2.029a3.427,3.427,0,0,1,.693.1.546.546,0,0,1,.313.186.517.517,0,0,1,.078.293V-3.965h4.121a.533.533,0,0,1,.322.107.853.853,0,0,1,.254.342,2.16,2.16,0,0,1,.156.615A7.65,7.65,0,0,1,18.438-1.953Z" transform="translate(677 10612)" fill="#fff"/>
  </g>
</svg>
