<svg xmlns="http://www.w3.org/2000/svg" width="266" height="266" viewBox="0 0 266 266">
  <g id="Grupo_22093" data-name="Grupo 22093" transform="translate(-422 -2175)">
    <g id="Grupo_22067" data-name="Grupo 22067">
      <circle id="Elipse_1048" data-name="Elipse 1048" cx="133" cy="133" r="133" transform="translate(422 2175)" fill="#f0c4c6"/>
      <g id="Grupo_21683" data-name="Grupo 21683" transform="translate(-833.279 953.228)">
        <g id="Grupo_21662" data-name="Grupo 21662" transform="translate(1323.2 1239.605)">
          <g id="Grupo_21661" data-name="Grupo 21661" transform="translate(1.111 0)">
            <g id="Grupo_21651" data-name="Grupo 21651" transform="translate(0 10.583)">
              <g id="Grupo_21643" data-name="Grupo 21643">
                <path id="Trazado_38475" data-name="Trazado 38475" d="M1568,1315.428c-1.4-1.025-2.9-2.037-4.48-3.026-14.685-9.183-36.222-16.36-43.17-12.858-2.363,9.887,18.532,40.062,33.283,47.953,9.311,4.981,18.016,2.353,22.645-3.5a16.062,16.062,0,0,0,1.968-3.195c2.634-5.668,2.043-13.06-3.775-19.647A41.264,41.264,0,0,0,1568,1315.428Z" transform="translate(-1520.113 -1298.575)" fill="#fff" fill-rule="evenodd"/>
                <path id="Trazado_38476" data-name="Trazado 38476" d="M1563.2,1349.887a20.919,20.919,0,0,1-9.844-2.632c-6.824-3.651-15.668-12.559-23.08-23.247s-11.331-20.178-10.232-24.772l.007-.027.024-.012c3.274-1.65,9.925-1.057,18.728,1.668a109.1,109.1,0,0,1,24.5,11.192c1.6,1,3.113,2.023,4.484,3.03h0a41.208,41.208,0,0,1,6.48,5.737c5.311,6.014,6.726,13.383,3.784,19.712a16.13,16.13,0,0,1-11.578,9.039A17.036,17.036,0,0,1,1563.2,1349.887Zm-43.048-50.6c-1.069,4.573,2.844,14.013,10.221,24.651,7.4,10.674,16.229,19.567,23.038,23.209,9.618,5.145,18.266,1.958,22.571-3.482a16.023,16.023,0,0,0,1.961-3.183c2.921-6.284,1.513-13.6-3.766-19.583a41.093,41.093,0,0,0-6.461-5.719h0c-1.368-1-2.874-2.022-4.476-3.024a108.952,108.952,0,0,0-24.472-11.179C1530.013,1298.268,1523.406,1297.669,1520.15,1299.29Z" transform="translate(-1519.859 -1298.28)" fill="#95a9e4"/>
              </g>
              <g id="Grupo_21644" data-name="Grupo 21644" transform="translate(0.203 0.922)">
                <rect id="Rectángulo_3602" data-name="Rectángulo 3602" width="0.119" height="71.443" transform="matrix(0.622, -0.783, 0.783, 0.622, 0, 0.093)" fill="#95a9e4"/>
              </g>
              <g id="Grupo_21645" data-name="Grupo 21645" transform="translate(7.171 17.838)">
                <path id="Trazado_38477" data-name="Trazado 38477" d="M1559.643,1400.069l-.023-.116c5.689-1.131,14.267-2.756,14.353-2.772l.022.117C1573.909,1397.313,1565.332,1398.938,1559.643,1400.069Z" transform="translate(-1559.62 -1397.18)" fill="#95a9e4"/>
              </g>
              <g id="Grupo_21646" data-name="Grupo 21646" transform="translate(9.516 20.261)">
                <rect id="Rectángulo_3603" data-name="Rectángulo 3603" width="15.569" height="0.119" transform="translate(0 4.006) rotate(-14.911)" fill="#95a9e4"/>
              </g>
              <g id="Grupo_21647" data-name="Grupo 21647" transform="translate(35.382 9.361)">
                <rect id="Rectángulo_3604" data-name="Rectángulo 3604" width="0.119" height="20.738" transform="translate(0 0.008) rotate(-3.848)" fill="#95a9e4"/>
              </g>
              <g id="Grupo_21648" data-name="Grupo 21648" transform="translate(27.012 37.649)">
                <path id="Trazado_38478" data-name="Trazado 38478" d="M1669.664,1513.826l-.039-.113,19.425-6.7.039.113Z" transform="translate(-1669.625 -1507.017)" fill="#95a9e4"/>
              </g>
              <g id="Grupo_21649" data-name="Grupo 21649" transform="translate(43.866 15.263)">
                <rect id="Rectángulo_3605" data-name="Rectángulo 3605" width="20.462" height="0.119" transform="translate(0 20.394) rotate(-85.323)" fill="#95a9e4"/>
              </g>
              <g id="Grupo_21650" data-name="Grupo 21650" transform="translate(11.784 0.798)">
                <path id="Trazado_38479" data-name="Trazado 38479" d="M1589.2,1315.3c-.584-1.923-2.145-7-4.013-12.561l.113-.038c1.869,5.567,3.43,10.641,4.015,12.564Z" transform="translate(-1585.191 -1302.705)" fill="#95a9e4"/>
              </g>
            </g>
            <g id="Grupo_21660" data-name="Grupo 21660" transform="translate(36.73)">
              <g id="Grupo_21652" data-name="Grupo 21652">
                <path id="Trazado_38480" data-name="Trazado 38480" d="M1748.781,1267.031c-.42-1.116-.906-2.265-1.446-3.431-5.018-10.819-14.742-23.057-20.068-23.65-5.081,4.814-4.374,30.078,1.167,40.176,3.5,6.374,9.507,8.132,14.378,6.5a11.064,11.064,0,0,0,2.337-1.1c3.651-2.279,6.089-6.765,5.21-12.753A28.434,28.434,0,0,0,1748.781,1267.031Z" transform="translate(-1723.776 -1239.888)" fill="#ebf1fd" fill-rule="evenodd"/>
                <path id="Trazado_38481" data-name="Trazado 38481" d="M1739.027,1286.972a11.235,11.235,0,0,1-4.214-.822,13.6,13.6,0,0,1-6.7-6.279c-2.565-4.674-4.318-13.141-4.574-22.1s1.053-15.91,3.418-18.152l.02-.019.027,0c2.514.28,6.132,3.125,10.188,8.011a75.151,75.151,0,0,1,9.927,15.673c.547,1.18,1.034,2.336,1.448,3.434a28.392,28.392,0,0,1,1.582,5.75c.8,5.474-1.155,10.264-5.238,12.812a11.09,11.09,0,0,1-5.88,1.684Zm-12.013-47.243c-2.329,2.239-3.616,9.146-3.361,18.043.256,8.938,2,17.384,4.56,22.043,3.608,6.574,9.785,7.987,14.307,6.469a11.032,11.032,0,0,0,2.324-1.1c4.041-2.523,5.979-7.268,5.183-12.694a28.277,28.277,0,0,0-1.575-5.725c-.412-1.1-.9-2.249-1.445-3.426a75,75,0,0,0-9.91-15.647C1733.075,1242.851,1729.5,1240.023,1727.015,1239.729Z" transform="translate(-1723.503 -1239.605)" fill="#7d8ec5"/>
              </g>
              <g id="Grupo_21653" data-name="Grupo 21653" transform="translate(3.434 0.043)">
                <rect id="Rectángulo_3606" data-name="Rectángulo 3606" width="0.119" height="49.195" transform="translate(0 0.038) rotate(-18.421)" fill="#7d8ec5"/>
              </g>
              <g id="Grupo_21654" data-name="Grupo 21654" transform="translate(0.067 13.981)">
                <path id="Trazado_38482" data-name="Trazado 38482" d="M1733.193,1321.031c-.056-.023-5.615-2.311-9.321-3.8l.044-.11c3.707,1.487,9.266,3.775,9.322,3.8Z" transform="translate(-1723.872 -1317.123)" fill="#7d8ec5"/>
              </g>
              <g id="Grupo_21655" data-name="Grupo 21655" transform="translate(0.049 16.977)">
                <rect id="Rectángulo_3607" data-name="Rectángulo 3607" width="0.119" height="10.72" transform="translate(0 0.113) rotate(-71.86)" fill="#7d8ec5"/>
              </g>
              <g id="Grupo_21656" data-name="Grupo 21656" transform="translate(13.612 18.112)">
                <rect id="Rectángulo_3608" data-name="Rectángulo 3608" width="14.279" height="0.119" transform="translate(0 12.461) rotate(-60.765)" fill="#7d8ec5"/>
              </g>
              <g id="Grupo_21657" data-name="Grupo 21657" transform="translate(2.599 35.133)">
                <path id="Trazado_38483" data-name="Trazado 38483" d="M1751.637,1437.951l-13.723-3.442.029-.115,13.723,3.442Z" transform="translate(-1737.914 -1434.394)" fill="#7d8ec5"/>
              </g>
              <g id="Grupo_21658" data-name="Grupo 21658" transform="translate(15.575 25.346)">
                <rect id="Rectángulo_3609" data-name="Rectángulo 3609" width="14.09" height="0.119" transform="matrix(0.616, -0.788, 0.788, 0.616, 0, 11.101)" fill="#7d8ec5"/>
              </g>
              <g id="Grupo_21659" data-name="Grupo 21659" transform="translate(7.774 4.321)">
                <path id="Trazado_38484" data-name="Trazado 38484" d="M1766.718,1272.352l-.114-.033c.386-1.327,1.392-4.838,2.408-8.755l.115.03C1768.111,1267.512,1767.1,1271.024,1766.718,1272.352Z" transform="translate(-1766.604 -1263.564)" fill="#7d8ec5"/>
              </g>
            </g>
          </g>
          <path id="Trazado_38485" data-name="Trazado 38485" d="M1631.355,1409.236c-37.693,57.891-158.247,40.2-103.727-24.781,13.429-16.005,33.047-48.986,56.224-56.575C1615.072,1317.658,1658.112,1368.142,1631.355,1409.236Z" transform="translate(-1513.701 -1310.863)" fill="#f3f8ff" fill-rule="evenodd"/>
        </g>
        <g id="Grupo_21682" data-name="Grupo 21682" transform="translate(1281.279 1257.186)">
          <ellipse id="Elipse_1049" data-name="Elipse 1049" cx="106.605" cy="19.087" rx="106.605" ry="19.087" transform="translate(0 144.457)" fill="#f3f8ff"/>
          <g id="Grupo_21665" data-name="Grupo 21665" transform="translate(64.086 39.404)">
            <g id="Grupo_21663" data-name="Grupo 21663" transform="translate(0 3.112)">
              <path id="Trazado_38486" data-name="Trazado 38486" d="M1646.735,1575.041l-8.139,115.068a.57.57,0,1,1-1.138-.081l8.175-115.573a.5.5,0,0,1,.007-.056.573.573,0,0,1,.494-.474l.044,0h0l6.162-.251a.57.57,0,0,1,.591.516l12.325,128.908a.57.57,0,0,1-1.136.109l-12.273-128.37Z" transform="translate(-1637.3 -1573.513)" fill="#f0ca64" fill-rule="evenodd"/>
              <path id="Trazado_38487" data-name="Trazado 38487" d="M1663.98,1703.165a.728.728,0,0,1-.722-.657L1651,1574.285l-4.826.2-8.129,114.928a.726.726,0,1,1-1.449-.1l8.174-115.573a.612.612,0,0,1,.009-.074.729.729,0,0,1,.629-.6l.052,0,6.168-.251a.719.719,0,0,1,.753.656l12.325,128.907a.728.728,0,0,1-.654.793C1664.026,1703.164,1664,1703.165,1663.98,1703.165Zm-12.7-129.2.014.146,12.273,128.37a.42.42,0,0,0,.452.373.415.415,0,0,0,.373-.452l-12.325-128.907a.427.427,0,0,0-.429-.375l-6.162.251a.432.432,0,0,0-.259.106.413.413,0,0,0-.133.24.375.375,0,0,0-.005.042L1636.9,1689.33a.414.414,0,0,0,.384.443.407.407,0,0,0,.443-.384l8.149-115.206Z" transform="translate(-1636.592 -1572.805)" fill="#f0ca64"/>
            </g>
            <g id="Grupo_21664" data-name="Grupo 21664" transform="translate(36.833)">
              <path id="Trazado_38488" data-name="Trazado 38488" d="M1850.947,1557.789l-8.139,115.068a.57.57,0,0,1-1.138-.081l8.175-115.573a.51.51,0,0,1,.007-.056.573.573,0,0,1,.494-.474l.044,0h0l6.162-.252a.57.57,0,0,1,.591.516l12.325,128.907a.57.57,0,0,1-1.135.109l-12.274-128.37Z" transform="translate(-1841.512 -1556.261)" fill="#f0ca64" fill-rule="evenodd"/>
              <path id="Trazado_38489" data-name="Trazado 38489" d="M1868.191,1685.913a.728.728,0,0,1-.722-.657l-12.259-128.223-4.826.2-8.129,114.928a.726.726,0,1,1-1.449-.1l8.175-115.573a.656.656,0,0,1,.008-.072.726.726,0,0,1,.232-.421.717.717,0,0,1,.4-.181c.02,0,.039,0,.058,0l6.162-.251a.719.719,0,0,1,.753.656l12.325,128.908a.727.727,0,0,1-.653.792C1868.238,1685.912,1868.215,1685.913,1868.191,1685.913Zm-12.7-129.2.014.147,12.274,128.37a.409.409,0,0,0,.149.28.42.42,0,0,0,.3.093.415.415,0,0,0,.373-.451L1856.28,1556.24a.428.428,0,0,0-.429-.375l-6.162.251a.433.433,0,0,0-.259.106.413.413,0,0,0-.133.241l0,.041-8.175,115.573a.415.415,0,0,0,.384.443.409.409,0,0,0,.443-.385l8.149-115.206Z" transform="translate(-1840.804 -1555.552)" fill="#f0ca64"/>
            </g>
            <path id="Trazado_38490" data-name="Trazado 38490" d="M1732.418,1656.853l18.738-1.792,1.152-.11,15.769-1.508-5.5-57.553-6.131.586-1.152.11-28.376,2.713Z" transform="translate(-1710.625 -1588.615)" fill="#f8e6ba" fill-rule="evenodd"/>
            <path id="Trazado_38491" data-name="Trazado 38491" d="M1665.447,1665.561l14.944-1.429-5.066-52.986-6.078.7Z" transform="translate(-1660.243 -1601.12)" fill="#e7bd58" fill-rule="evenodd"/>
            <path id="Trazado_38492" data-name="Trazado 38492" d="M1726.573,1596.329l28.376-2.713.1-1.35-28.547,3.275Z" transform="translate(-1710.281 -1585.644)" fill="#e7bd58" fill-rule="evenodd"/>
            <path id="Trazado_38493" data-name="Trazado 38493" d="M1752.717,1635.141l5.031,38.735s17.607-3.773,26.662-4.779c0,0-1.572-33.314-4.15-39.993Z" transform="translate(-1731.772 -1615.838)" fill="#f3f8ff" fill-rule="evenodd"/>
            <path id="Trazado_38494" data-name="Trazado 38494" d="M1752.015,1644.87a14.649,14.649,0,0,1-4.354,5.582l1.053,1.509a16.159,16.159,0,0,0,4.559-6.037Z" transform="translate(-1727.628 -1628.76)" fill="#e1761c" fill-rule="evenodd"/>
            <path id="Trazado_38495" data-name="Trazado 38495" d="M1889.392,1623.011a14.65,14.65,0,0,1-5.837-4.007l-1.443,1.143a16.162,16.162,0,0,0,6.3,4.184Z" transform="translate(-1837.83 -1607.56)" fill="#e1761c" fill-rule="evenodd"/>
            <path id="Trazado_38496" data-name="Trazado 38496" d="M1758.88,1676.091c.366-.079.733-.154,1.1-.23a.19.19,0,0,1,.078.372c-.433.09-.866.18-1.3.274a.182.182,0,0,1-.15-.03.185.185,0,0,1-.08-.131l-4.627-35.627a.19.19,0,0,1,.377-.049l4.6,35.422Zm26.3-4.718c-.173-3.63-.4-7.265-.637-10.89a.19.19,0,1,1,.38-.025c.246,3.687.471,7.384.646,11.076a.19.19,0,0,1-.169.2c-3.615.4-7.261,1.029-10.841,1.669q-4.238.759-8.46,1.6a.19.19,0,0,1-.074-.373q4.226-.837,8.467-1.6c3.531-.632,7.124-1.25,10.69-1.653Zm-1.041-16.548c-.36-4.7-.769-9.427-1.354-14.108a.19.19,0,0,1,.377-.047c.586,4.687.995,9.417,1.356,14.126a.19.19,0,0,1-.379.029Zm-6.193-22.362-17.89,3.921a.19.19,0,1,1-.081-.371l17.89-3.921a.19.19,0,1,1,.081.371Z" transform="translate(-1732.742 -1618.283)" fill="#6666c7" fill-rule="evenodd"/>
          </g>
          <g id="Grupo_21668" data-name="Grupo 21668" transform="translate(115.427 0)">
            <path id="Trazado_38497" data-name="Trazado 38497" d="M2050.269,1712.389c1.2,4.693,4.423,17.37,6.069,24.371,2.047,8.7,21.3,44.036,21.3,44.036a6.085,6.085,0,0,0,4.443-3.442c-6.37-20.466-14.969-42.054-14.969-42.054-.9-10.521-3.822-37.957-3.822-37.957-2.995,1.1-10.054,2.182-15.494,2.552-2.85,1.417-6.23,2.067-6.581.85a1.049,1.049,0,0,1,.259-.931,1.3,1.3,0,0,1-.734-.349s-11.318,16.484-15.138,31.108,9.2,53.475,9.2,53.475a9.135,9.135,0,0,0,4.973.005s-1.165-38-3.127-48.794C2040.527,1730.7,2050.269,1712.389,2050.269,1712.389Z" transform="translate(-2006.207 -1632.364)" fill="#8093cd" fill-rule="evenodd"/>
            <path id="Trazado_38498" data-name="Trazado 38498" d="M2297.275,2153.1c1.255,1.45,8.489-5.284,8.984-6.867s-1.106-5.28-1.106-5.28a6.085,6.085,0,0,1-4.443,3.443S2296.021,2151.646,2297.275,2153.1Z" transform="translate(-2229.278 -1995.96)" fill="#e7bd58" fill-rule="evenodd"/>
            <path id="Trazado_38499" data-name="Trazado 38499" d="M2035.515,2182.79c.975,2.414,11.11.581,11.875.012s1.027-4.733,1.027-4.733a9.14,9.14,0,0,1-4.974-.005S2034.54,2180.376,2035.515,2182.79Z" transform="translate(-2014.843 -2026.38)" fill="#e7bd58" fill-rule="evenodd"/>
            <path id="Trazado_38500" data-name="Trazado 38500" d="M2154.683,1450.641l3.7,5.252s1.593,1.306,3.678,2.94c2.988,2.341,6.985,5.354,8.75,6.158-1.244,1.2-3.085,3.283-5.091,5.656-5.159,6.1-11.408,14.138-11.408,14.138.047,1.13,1.215,2.1,2.07,2.667a8.7,8.7,0,0,0,.894.521,120.877,120.877,0,0,0,10.956-8.166c6.111-5.163,12.18-11.658,10.463-16-3.253-8.215-17.334-22.39-21.22-23.058a8.467,8.467,0,0,0-1.625-.1C2151.906,1444.04,2154.683,1450.641,2154.683,1450.641Z" transform="translate(-2111.801 -1421.972)" fill="#d6e0fd" fill-rule="evenodd"/>
            <path id="Trazado_38501" data-name="Trazado 38501" d="M1995.015,1489.52c5.44-.37,12.5-1.45,15.494-2.552a5.089,5.089,0,0,0,1.083-.515s-.707-2.766-1.738-6.629a120.972,120.972,0,0,1-10.956,8.166s-2.889-1.4-2.964-3.187c0,0,6.191-7.961,11.336-14.052-1.446-5.028-2.993-10.292-3.587-11.9-2.085-1.634-3.678-2.94-3.678-2.94l-3.7-5.252s-2.776-6.6,1.167-9.985c-4.188.105-10.541,2.34-10.541,2.34s-2.065,4.034-8.057,4.044c0,0-6.039,4.112-7.1,9.3-.806,3.943.717,11.486,1.493,14.874-3.872-5.094-8.835-10.85-8.835-10.85a8.2,8.2,0,0,0-3.929,3.132s11.538,27.106,19.487,20.352a11.479,11.479,0,0,0,3.2-4.882c2.3,5.138,4.3,9.483,4.767,10.11a.854.854,0,0,0,.4.25c.014.005.161.012.4.02C1990.181,1489.407,1994.906,1489.494,1995.015,1489.52Z" transform="translate(-1953.424 -1421.99)" fill="#d6e0fd" fill-rule="evenodd"/>
            <path id="Trazado_38502" data-name="Trazado 38502" d="M1921.425,1524.065c-1.5.991,6.9,6.507,6.9,6.507a8.2,8.2,0,0,1,3.929-3.131s-4.647-4.974-5.87-4.947,1.317,3.035,1.317,3.035S1922.928,1523.074,1921.425,1524.065Z" transform="translate(-1921.245 -1489.053)" fill="#e3817e" fill-rule="evenodd"/>
            <path id="Trazado_38503" data-name="Trazado 38503" d="M2013.788,1359.971s1.422,11.531,6.981,11.391a5.86,5.86,0,0,0,.806-.076l.973,5.836c5.991-.009,8.057-4.044,8.057-4.044l-3.584-8.983a2.03,2.03,0,0,0,.741-2.224c-.494-1.31-2.665-.823-2.665-.823-2.668-2.051-2.534-5.7-2.534-5.7s-4.592,5.344-5.6,2.314C2016.956,1357.664,2015.5,1359.779,2013.788,1359.971Z" transform="translate(-1997.097 -1352.055)" fill="#e3817e" fill-rule="evenodd"/>
            <path id="Trazado_38504" data-name="Trazado 38504" d="M2003.452,1345c1.71-.193,3.168-2.307,3.168-2.307,1.014,3.03,5.605-2.314,5.605-2.314s-.133,3.65,2.534,5.7c0,0,2.171-.487,2.665.823.467-2.911-.814-7.185-2.577-8.627s-7.852-2.009-11.628.846S2001.742,1345.191,2003.452,1345Z" transform="translate(-1986.76 -1337.083)" fill="#373191" fill-rule="evenodd"/>
            <g id="Grupo_21666" data-name="Grupo 21666" transform="translate(6.92 18.52)">
              <path id="Trazado_38505" data-name="Trazado 38505" d="M2059.827,1577.29c1.7-.116,3.391-.286,5.078-.495,1.989-.246,3.982-.545,5.949-.927a29.288,29.288,0,0,0,4.4-1.119.161.161,0,1,1,.111.3,29.568,29.568,0,0,1-4.451,1.133c-1.974.384-3.975.684-5.971.931-1.7.21-3.408.382-5.117.5a.12.12,0,0,1-.036,0c-.323-.039-.765-.026-1.1-.034q-1.106-.027-2.212-.051-1.131-.025-2.262-.054a10.293,10.293,0,0,1-1.12-.049,1.011,1.011,0,0,1-.469-.3,12.221,12.221,0,0,1-.88-1.647c-.535-1.093-1.047-2.2-1.556-3.3-1.438-3.125-2.838-6.27-4.231-9.414q-3.222-7.272-6.385-14.57a.161.161,0,1,1,.3-.128q3.163,7.3,6.383,14.568c1.393,3.144,2.792,6.287,4.229,9.411.507,1.1,1.019,2.207,1.552,3.3a12.091,12.091,0,0,0,.85,1.6.762.762,0,0,0,.3.188c.311.043.776.029,1.1.038q1.1.028,2.206.052,1.127.026,2.254.052C2058.969,1577.261,2059.594,1577.248,2059.827,1577.29Z" transform="translate(-2025.146 -1528.442)" fill="#7a8dc8" fill-rule="evenodd"/>
              <path id="Trazado_38506" data-name="Trazado 38506" d="M1963.657,1488.849a8.584,8.584,0,0,0-3.7,2.947c.562,1.317,1.192,2.633,1.824,3.916a84.351,84.351,0,0,0,4.629,8.293c1.748,2.72,4.268,6.212,7.008,7.985a.161.161,0,0,1-.175.271c-2.786-1.8-5.328-5.316-7.1-8.081a84.565,84.565,0,0,1-4.647-8.325c-.647-1.312-1.291-2.658-1.863-4.005a.155.155,0,0,1-.012-.064.159.159,0,0,1,.02-.077,8.827,8.827,0,0,1,4-3.2.16.16,0,0,1,.031-.01.15.15,0,0,1,.04,0,.16.16,0,0,1,.118.056c2.464,2.859,4.885,5.794,7.218,8.759q.59.75,1.174,1.507c-.894-4.037-2.083-10.536-1.33-14.217a10.031,10.031,0,0,1,.888-2.495,20.614,20.614,0,0,1,6.277-6.9.161.161,0,1,1,.182.266,20.3,20.3,0,0,0-6.171,6.782,9.715,9.715,0,0,0-.86,2.414c-.784,3.838.594,10.874,1.483,14.765.7.92,1.386,1.85,2.048,2.793a21.793,21.793,0,0,1,2.256,3.723.161.161,0,0,1-.3.123,21.522,21.522,0,0,0-2.222-3.661c-.659-.94-1.343-1.865-2.039-2.782a.155.155,0,0,1-.037-.049q-.793-1.042-1.6-2.068C1968.483,1494.578,1966.091,1491.677,1963.657,1488.849Z" transform="translate(-1959.612 -1468.786)" fill="#7a8dc8" fill-rule="evenodd"/>
              <path id="Trazado_38507" data-name="Trazado 38507" d="M2172.425,1533.565a20.971,20.971,0,0,1-2.436-1.506c-1.173-.8-2.32-1.65-3.454-2.506-2.148-1.622-4.281-3.3-6.362-5.007a.161.161,0,1,1,.2-.249c2.078,1.705,4.208,3.38,6.352,5,1.13.854,2.274,1.7,3.442,2.5a19.729,19.729,0,0,0,2.5,1.532,6.447,6.447,0,0,1,1.156-.943.161.161,0,1,1,.158.281,6.512,6.512,0,0,0-1.15.952.15.15,0,0,1-.034.034l-.2.2c-.744.738-1.458,1.52-2.155,2.3-1.888,2.114-3.709,4.3-5.507,6.493q-4.349,5.3-8.569,10.724c.1,1.249,1.742,2.422,2.789,2.951,1.253-.812,2.49-1.682,3.7-2.551,2.762-1.981,5.469-4.074,8.036-6.3a.161.161,0,0,1,.211.244c-2.575,2.234-5.29,4.334-8.059,6.321-1.24.89-2.508,1.78-3.791,2.609a.157.157,0,0,1-.158.01c-1.183-.576-2.994-1.878-3.054-3.326a.153.153,0,0,1,.034-.106q4.23-5.441,8.612-10.778c1.8-2.194,3.625-4.386,5.516-6.5.7-.787,1.42-1.573,2.169-2.316Z" transform="translate(-2120.614 -1509.019)" fill="#7a8dc8" fill-rule="evenodd"/>
              <path id="Trazado_38508" data-name="Trazado 38508" d="M2116.811,1439.767h.03a8.623,8.623,0,0,1,1.641.1c1.622.279,4.439,2.62,5.669,3.68a77.66,77.66,0,0,1,7.7,7.735q1.412,1.618,2.737,3.309a.161.161,0,0,1-.254.2q-1.316-1.685-2.725-3.3a77.326,77.326,0,0,0-7.664-7.7c-1.167-1.005-3.979-3.343-5.514-3.607a8.251,8.251,0,0,0-1.535-.094,6.853,6.853,0,0,0-1.97,6.071,13.655,13.655,0,0,0,.89,3.691.161.161,0,1,1-.3.125,13.958,13.958,0,0,1-.914-3.786,7.306,7.306,0,0,1,1.8-6.083,42.763,42.763,0,0,0-10.057,2.313.161.161,0,0,1-.107-.3A41.14,41.14,0,0,1,2116.811,1439.767Z" transform="translate(-2079.702 -1439.762)" fill="#7a8dc8" fill-rule="evenodd"/>
            </g>
            <g id="Grupo_21667" data-name="Grupo 21667" transform="translate(18.529 72)">
              <path id="Trazado_38509" data-name="Trazado 38509" d="M2036.9,1736.518a126.616,126.616,0,0,0-9.058,17.654,67.254,67.254,0,0,0-2.837,8.35,33.52,33.52,0,0,0-.576,10.132,104.861,104.861,0,0,0,1.734,12.737.161.161,0,1,1-.317.06,105.159,105.159,0,0,1-1.74-12.776,33.791,33.791,0,0,1,.587-10.234,67.492,67.492,0,0,1,2.849-8.391,126.93,126.93,0,0,1,9.081-17.7.161.161,0,1,1,.276.167Z" transform="translate(-2023.978 -1736.273)" fill="#272875" fill-rule="evenodd"/>
              <path id="Trazado_38510" data-name="Trazado 38510" d="M2153.229,1765.7l-1.886-.937a.161.161,0,0,1,.143-.289l1.953.97a.155.155,0,0,1,.084.1c2.231,8.705,4.476,17.437,6.533,26.183a28.558,28.558,0,0,0,1.242,3.728c.681,1.745,1.432,3.47,2.2,5.177,1.928,4.279,4.006,8.506,6.114,12.7q.652,1.3,1.31,2.589a.161.161,0,0,1-.287.146q-.658-1.294-1.311-2.591c-2.11-4.2-4.19-8.428-6.12-12.711-.772-1.713-1.525-3.442-2.208-5.193a28.867,28.867,0,0,1-1.255-3.771C2157.691,1783.086,2155.453,1774.38,2153.229,1765.7Z" transform="translate(-2128.298 -1759.374)" fill="#272875" fill-rule="evenodd"/>
              <path id="Trazado_38511" data-name="Trazado 38511" d="M2246.8,1789.891c1.57,3.94,3.074,7.919,4.554,11.893,3.227,8.659,6.318,17.387,9.152,26.183q.638,1.981,1.257,3.968a.152.152,0,0,1,0,.1,5.411,5.411,0,0,1-.967,1.5,6.564,6.564,0,0,1-3.593,2.04.161.161,0,1,1-.068-.316,6.24,6.24,0,0,0,3.42-1.938,5.254,5.254,0,0,0,.886-1.352q-.61-1.959-1.239-3.911c-2.833-8.791-5.922-17.514-9.147-26.169-1.482-3.979-2.989-7.963-4.561-11.908a.158.158,0,0,1-.01-.046c-.734-8.591-1.653-17.194-2.543-25.772a.161.161,0,1,1,.321-.033C2245.153,1772.708,2246.071,1781.306,2246.8,1789.891Z" transform="translate(-2204.268 -1758.993)" fill="#272875" fill-rule="evenodd"/>
              <path id="Trazado_38512" data-name="Trazado 38512" d="M2080.785,1849.144a.159.159,0,0,1-.016-.086c-.09-.487-.193-.967-.316-1.429a.161.161,0,0,1,.312-.083c.1.376.187.763.265,1.156a42.59,42.59,0,0,0,2.813-4.072c1.29-2.034,2.521-4.112,3.728-6.2q.621-1.073,1.233-2.15a.161.161,0,0,1,.281.16q-.614,1.078-1.235,2.152c-1.209,2.088-2.442,4.169-3.734,6.208a40.388,40.388,0,0,1-3.008,4.311c.141.781.25,1.574.351,2.335.255,1.923.448,3.859.621,5.791.441,4.906.749,9.833,1.023,14.751.48,8.611.852,17.251,1.116,25.872a.16.16,0,0,1-.1.156,8.8,8.8,0,0,1-5.077,0,.161.161,0,1,1,.091-.309,8.625,8.625,0,0,0,4.763.049c-.264-8.58-.634-17.179-1.112-25.748-.274-4.914-.582-9.838-1.022-14.74-.173-1.927-.366-3.859-.62-5.777C2081.036,1850.726,2080.927,1849.928,2080.785,1849.144Z" transform="translate(-2069.012 -1818.178)" fill="#272875" fill-rule="evenodd"/>
            </g>
            <path id="Trazado_38513" data-name="Trazado 38513" d="M2056.2,1431.542a5.057,5.057,0,0,0,3.481-2.41.161.161,0,1,1,.271.175,5.376,5.376,0,0,1-3.7,2.553.161.161,0,1,1-.053-.318Z" transform="translate(-2031.749 -1412.469)" fill="#fff" fill-rule="evenodd"/>
            <path id="Trazado_38514" data-name="Trazado 38514" d="M2026.324,1391.742c.133.2.158.6-.048.729s-.552-.052-.685-.253-.151-.6.048-.729S2026.191,1391.541,2026.324,1391.742Z" transform="translate(-2006.688 -1381.639)" fill="#232323" fill-rule="evenodd"/>
            <path id="Trazado_38515" data-name="Trazado 38515" d="M2050.27,1383.013c.133.2.151.6-.048.729s-.553-.052-.685-.254-.158-.6.048-.729S2050.137,1382.811,2050.27,1383.013Z" transform="translate(-2026.313 -1374.484)" fill="#232323" fill-rule="evenodd"/>
            <path id="Trazado_38516" data-name="Trazado 38516" d="M2044.809,1375.9a1.989,1.989,0,0,1,.306-.137,2.9,2.9,0,0,1,1.613-.105.149.149,0,0,1,.108.179.151.151,0,0,1-.179.114,2.554,2.554,0,0,0-1.44.091,2.107,2.107,0,0,0-.2.083l-.05.025-.014.008h0a.152.152,0,0,1-.205-.052A.154.154,0,0,1,2044.809,1375.9Z" transform="translate(-2022.459 -1368.644)" fill="#232323" fill-rule="evenodd"/>
            <path id="Trazado_38517" data-name="Trazado 38517" d="M2020.531,1383.213a.967.967,0,0,1,.18-.3,1.6,1.6,0,0,1,.694-.466,2.748,2.748,0,0,1,.867-.154.148.148,0,0,1,.153.142.152.152,0,0,1-.147.154,2.455,2.455,0,0,0-.772.135,1.3,1.3,0,0,0-.565.378.778.778,0,0,0-.106.151c-.01.018-.022.033-.02.039l0,.01-.009,0h.009l-.009,0h.009a.146.146,0,0,1-.186.094A.151.151,0,0,1,2020.531,1383.213Z" transform="translate(-2002.618 -1374.142)" fill="#232323" fill-rule="evenodd"/>
            <path id="Trazado_38518" data-name="Trazado 38518" d="M2037.068,1394.943l.546,2.493.912-.332a.074.074,0,0,1,.051.138l-1,.365a.068.068,0,0,1-.062-.007.089.089,0,0,1-.037-.054l-.555-2.587a.071.071,0,0,1,.064-.081A.076.076,0,0,1,2037.068,1394.943Z" transform="translate(-2016.057 -1384.454)" fill="#232323" fill-rule="evenodd"/>
            <path id="Trazado_38519" data-name="Trazado 38519" d="M2048.412,1404.658a7.776,7.776,0,0,1-2.433,2,1.916,1.916,0,0,0,1.652.071C2048.325,1406.3,2048.412,1404.658,2048.412,1404.658Z" transform="translate(-2023.481 -1392.47)" fill="#fdfdfd" fill-rule="evenodd"/>
            <path id="Trazado_38520" data-name="Trazado 38520" d="M2115.212,1690.9c.352,1.218,3.731.568,6.582-.85a11.337,11.337,0,0,0,2.989-2.051c-.855-.564-2.022-1.537-2.07-2.667,0,0-5.3.518-4.912,1.173s2.643.666,2.643.666-3.871,1.36-4.973,2.8A1.049,1.049,0,0,0,2115.212,1690.9Z" transform="translate(-2080.203 -1622.524)" fill="#e3817e" fill-rule="evenodd"/>
          </g>
          <g id="Grupo_21672" data-name="Grupo 21672" transform="translate(10.279 29.56)">
            <path id="Trazado_38521" data-name="Trazado 38521" d="M1358.69,1753.754s-10.757,12.333,5.241,41.769c-4.479,20.584-6.506,45.113-6.506,45.113a8.363,8.363,0,0,0,4.906.427s.126-.39.355-1.1c0,0-.179.373,4.327.875,2.433-4.312,18.364-33.259,17.181-50.009-1.28-18.13-10.718-33.409-10.718-33.409s-3.2-.5-6.24-1.318c.988,2.307,1.653,3.931,1.653,3.931s4.427,1.653,4.667,2.4-2.24.64-2.24.64,4.853,2.266,4.159,4.08-6.961-1.119-9.839-5.039C1365.636,1762.114,1362.117,1758.356,1358.69,1753.754Z" transform="translate(-1352.107 -1708.161)" fill="#e7bd58" fill-rule="evenodd"/>
            <path id="Trazado_38522" data-name="Trazado 38522" d="M1363.649,2239.841c.693,1.226,9.439,5.333,10.772,4.106.454-.418-.015-1.486-.832-2.713a47.632,47.632,0,0,0-4.464-5.351,8.364,8.364,0,0,1-4.906-.427S1362.956,2238.614,1363.649,2239.841Z" transform="translate(-1358.901 -2102.981)" fill="#d2e2f5" fill-rule="evenodd"/>
            <path id="Trazado_38523" data-name="Trazado 38523" d="M1394.955,2232.828a47.6,47.6,0,0,1,4.464,5.351s5.9,1.007,5.417-.593-5.2-4.981-5.2-4.981c-4.506-.5-4.327-.875-4.327-.875Z" transform="translate(-1384.731 -2099.927)" fill="#d2e2f5" fill-rule="evenodd"/>
            <path id="Trazado_38524" data-name="Trazado 38524" d="M1349.2,1604.96c-.623-1.221-1.211-2.293-1.722-3.1,1.251-.365,3.313-2.008,5.228-3.732l-3.506,6.828Zm11.172,12.075s4.373-6.292,8.745-9.278a20.22,20.22,0,0,0,3.851-3.505s.787,11.664,3.454,13.264,12.638-.907,23.3-4.426a6.013,6.013,0,0,0-.374-4.159c-6.559,0-18.195,2.186-18.195,2.186-.012-.871-.039-2.21-.094-3.768-.156-4.374-.541-10.479-1.489-12.833a16.2,16.2,0,0,0-4.379-6.089c-3.359-.8-5.066-4.266-5.066-4.266a16.145,16.145,0,0,0-3.962-1.1,42.006,42.006,0,0,0-5.743-.584,7.827,7.827,0,0,0-1.469.093c-7.165,1.09-18.958,11.023-19.754,17.291-.428,3.372,2.932,8.867,6.385,13.5,3.427,4.6,6.946,8.36,6.946,8.36a5.541,5.541,0,0,0,3.253-2.08s-.664-1.624-1.653-3.931C1357.171,1616.533,1360.372,1617.035,1360.372,1617.035Z" transform="translate(-1339.003 -1567.775)" fill="#aec6f2" fill-rule="evenodd"/>
            <path id="Trazado_38525" data-name="Trazado 38525" d="M1673.24,1694.568s4.773-1.84,5.093-3.547a5.459,5.459,0,0,0-.746-3.413s2.959-5.226,1.813-5.706-6.533,8.506-6.533,8.506A6.014,6.014,0,0,1,1673.24,1694.568Z" transform="translate(-1612.518 -1649.254)" fill="#e3817e" fill-rule="evenodd"/>
            <path id="Trazado_38526" data-name="Trazado 38526" d="M1519.429,1546.068c5.28,2.24,10.558-9.225,10.558-9.225A27.917,27.917,0,0,1,1519,1534.87s-1.333-.827-2.027.266a1.688,1.688,0,0,0,.293,2.053l-6.425,7.705s1.707,3.466,5.066,4.266l2.758-3.541A3.4,3.4,0,0,0,1519.429,1546.068Z" transform="translate(-1479.718 -1528.51)" fill="#e3817e" fill-rule="evenodd"/>
            <path id="Trazado_38527" data-name="Trazado 38527" d="M1413.282,1790.653c2.878,3.919,9.146,6.852,9.839,5.039s-4.16-4.079-4.16-4.079,2.48.106,2.24-.64-4.667-2.4-4.667-2.4A5.542,5.542,0,0,1,1413.282,1790.653Z" transform="translate(-1399.753 -1736.7)" fill="#e3817e" fill-rule="evenodd"/>
            <path id="Trazado_38528" data-name="Trazado 38528" d="M1496.778,1521.623a16.2,16.2,0,0,1,4.379,6.089c.948,2.353,1.333,8.458,1.489,12.832,12.24-.4,12.584-9.59,11.518-13.963s-.853-7.359-.533-12.371-.8-5.626-.8-5.626.533-3.2-1.28-4.319-8.585-5.866-13.758-1.44-11.642,7.3-10.042,13.435a16.157,16.157,0,0,1,3.962,1.1l6.425-7.705a1.688,1.688,0,0,1-.293-2.053c.693-1.093,2.027-.267,2.027-.267a27.92,27.92,0,0,0,10.985,1.973s-5.279,11.465-10.559,9.225a3.4,3.4,0,0,1-.761-.448Z" transform="translate(-1460.586 -1500.972)" fill="#373191" fill-rule="evenodd"/>
            <path id="Trazado_38529" data-name="Trazado 38529" d="M1403.146,2247.449a37.047,37.047,0,0,0-3.438-4.249.161.161,0,1,1,.239-.217,37.377,37.377,0,0,1,3.468,4.287.161.161,0,0,1-.269.178Z" transform="translate(-1388.592 -2109.108)" fill-rule="evenodd"/>
            <g id="Grupo_21669" data-name="Grupo 21669" transform="translate(0 14.539)">
              <path id="Trazado_38530" data-name="Trazado 38530" d="M1528.974,1678.818a23.647,23.647,0,0,1-3,4.312.161.161,0,0,1-.244-.211,23.323,23.323,0,0,0,2.953-4.249.161.161,0,1,1,.287.147Z" transform="translate(-1491.891 -1661.088)" fill="#7a8dc8" fill-rule="evenodd"/>
              <path id="Trazado_38531" data-name="Trazado 38531" d="M1418.256,1643.673c-1.474,1.554-3.045,3.084-4.635,4.516a.161.161,0,1,1-.216-.239c1.584-1.426,3.149-2.95,4.617-4.5a.161.161,0,0,1,.234.222Z" transform="translate(-1399.81 -1632.251)" fill="#7a8dc8" fill-rule="evenodd"/>
              <path id="Trazado_38532" data-name="Trazado 38532" d="M1539.62,1637.23c3.618-.675,7.332-1.237,10.983-1.657a62.46,62.46,0,0,1,7.05-.5.157.157,0,0,1,.141.084,6.213,6.213,0,0,1,.387,4.28.162.162,0,0,1-.1.11c-3.875,1.279-19.853,6.562-23.437,4.411-1.284-.771-2.019-3.625-2.336-4.992a.161.161,0,1,1,.314-.073c.289,1.248,1.016,4.085,2.188,4.788,3.4,2.042,19.208-3.134,23.087-4.414a5.948,5.948,0,0,0-.338-3.872,62.72,62.72,0,0,0-6.917.494c-3.662.421-7.388.985-11.016,1.664q.005.467.007.933a.161.161,0,0,1-.323,0q0-.518-.008-1.037h0a.155.155,0,0,1,0-.057c-.032-2.758-.139-5.541-.326-8.283-.109-1.594-.248-3.2-.472-4.781a15.777,15.777,0,0,0-.776-3.449,16.117,16.117,0,0,0-4.33-6.023.161.161,0,1,1,.2-.252,16.434,16.434,0,0,1,4.428,6.155,16.073,16.073,0,0,1,.8,3.525c.225,1.59.365,3.2.474,4.8C1539.479,1631.786,1539.585,1634.52,1539.62,1637.23Z" transform="translate(-1497.304 -1608.623)" fill="#7a8dc8" fill-rule="evenodd"/>
              <path id="Trazado_38533" data-name="Trazado 38533" d="M1358.171,1581.689a.154.154,0,0,1,.055-.009,7.839,7.839,0,0,1,1.472-.093,37.721,37.721,0,0,1,7.451.938,12.266,12.266,0,0,1,2.32.759.161.161,0,0,1-.144.288,11.952,11.952,0,0,0-2.252-.734,37.415,37.415,0,0,0-7.386-.929,7.265,7.265,0,0,0-1.089.046,4.718,4.718,0,0,1,1.509,4.023,6.5,6.5,0,0,1-.643,2.273.161.161,0,1,1-.284-.153,6.191,6.191,0,0,0,.606-2.152,4.415,4.415,0,0,0-1.608-3.933c-7.035,1.133-18.755,10.9-19.548,17.139-.426,3.355,3.047,8.712,4.888,11.361,1.733,2.494,3.636,4.9,5.6,7.21.888,1.044,1.8,2.092,2.734,3.095a5.158,5.158,0,0,0,3.017-1.918c-1.392-3.392-7.363-17.631-9.351-19.051a.161.161,0,1,1,.187-.262c2.1,1.5,8.127,15.931,9.494,19.267a.157.157,0,0,1-.01.144,5.425,5.425,0,0,1-3.359,2.155.158.158,0,0,1-.151-.048c-.961-1.027-1.9-2.1-2.807-3.173-1.975-2.322-3.884-4.733-5.623-7.235-1.9-2.737-5.384-8.118-4.943-11.585C1339.123,1592.7,1350.985,1582.819,1358.171,1581.689Z" transform="translate(-1338.271 -1581.582)" fill="#7a8dc8" fill-rule="evenodd"/>
            </g>
            <g id="Grupo_21670" data-name="Grupo 21670" transform="translate(2.886 49.099)">
              <path id="Trazado_38534" data-name="Trazado 38534" d="M1456.152,1773.269c.543.88,1.049,1.817,1.531,2.731,1.243,2.355,2.37,4.783,3.387,7.243a76.325,76.325,0,0,1,5.823,23.509c.507,7.182-2.06,15.933-4.475,22.647-1.773,4.929-3.846,9.772-6.078,14.51a.161.161,0,1,1-.292-.137c2.228-4.729,4.3-9.562,6.066-14.482,2.4-6.666,4.96-15.385,4.457-22.515a76.017,76.017,0,0,0-5.8-23.408c-1.014-2.451-2.136-4.87-3.375-7.215-.479-.908-.981-1.838-1.521-2.712a.161.161,0,1,1,.274-.169Z" transform="translate(-1437.532 -1773.193)" fill="#f8e6ba" fill-rule="evenodd"/>
              <path id="Trazado_38535" data-name="Trazado 38535" d="M1354.593,1827.7c.111,9.7,4.194,19.828,8.757,28.224a.161.161,0,0,1-.283.154c-4.59-8.446-8.684-18.615-8.8-28.375a.161.161,0,1,1,.322,0Z" transform="translate(-1354.271 -1817.734)" fill="#f8e6ba" fill-rule="evenodd"/>
              <path id="Trazado_38536" data-name="Trazado 38536" d="M1372.12,1898.649a.215.215,0,0,1,.012-.038q3.517-10.883,6.91-21.808c1.41-4.547,2.806-9.1,4.131-13.674.506-1.747,1.005-3.5,1.467-5.259.286-1.087.594-2.239.779-3.347a21.44,21.44,0,0,0-.278-5.9c-.4-2.713-.982-5.427-1.609-8.1-1.174-4.993-2.557-10.039-4.08-14.941a.161.161,0,0,1,.308-.1c1.525,4.909,2.91,9.963,4.086,14.963.63,2.678,1.213,5.4,1.614,8.123a21.661,21.661,0,0,1,.277,6c-.186,1.119-.5,2.279-.785,3.376-.463,1.762-.962,3.517-1.469,5.266-1.326,4.574-2.722,9.132-4.133,13.68q-3.378,10.893-6.891,21.748a23.658,23.658,0,0,0,4.168.739.161.161,0,1,1-.036.321,24.322,24.322,0,0,1-3.884-.625,2.144,2.144,0,0,1-.347-.127l-.28.865a.156.156,0,0,1-.117.107,8.164,8.164,0,0,1-5.014-.439.159.159,0,0,1-.089-.157c.266-3.195.6-6.4.958-9.582.81-7.273,1.776-14.541,2.958-21.763a.161.161,0,0,1,.318.052c-1.18,7.217-2.146,14.48-2.955,21.748-.35,3.146-.683,6.307-.947,9.462a7.932,7.932,0,0,0,4.611.386Z" transform="translate(-1364.589 -1815.966)" fill="#f8e6ba" fill-rule="evenodd"/>
            </g>
            <path id="Trazado_38537" data-name="Trazado 38537" d="M1430.356,1795.2c1.526.8,4.185,2.493,3.619,3.973a.911.911,0,0,1-.169.279c-.647.729-2.278.215-3.028-.068a16.544,16.544,0,0,1-4.379-2.6.161.161,0,0,1,.2-.25,16.218,16.218,0,0,0,4.29,2.546c.582.22,2.158.736,2.672.156a.586.586,0,0,0,.109-.18c.554-1.448-3.055-3.4-4.077-3.876a.161.161,0,0,1,.076-.307c.229.01,2.223.02,2.079-.429-.123-.384-1.965-1.217-2.349-1.388a.161.161,0,0,1,.131-.295c.519.231,2.347,1.029,2.525,1.584a.442.442,0,0,1,0,.283C1431.914,1795.05,1431.043,1795.171,1430.356,1795.2Z" transform="translate(-1410.456 -1740.119)" fill="#fff" fill-rule="evenodd"/>
            <path id="Trazado_38538" data-name="Trazado 38538" d="M1566.341,1537.633a22.234,22.234,0,0,1-3.436-.126,27.55,27.55,0,0,1-7.62-1.859.161.161,0,1,1,.122-.3,27.213,27.213,0,0,0,7.53,1.836,21.944,21.944,0,0,0,3.384.125.161.161,0,1,1,.02.322Z" transform="translate(-1516.061 -1529.14)" fill="#fff" fill-rule="evenodd"/>
            <path id="Trazado_38539" data-name="Trazado 38539" d="M1545.253,1580.786a5.835,5.835,0,0,1-1.848-3.266.161.161,0,1,1,.313-.078,5.536,5.536,0,0,0,1.734,3.09.161.161,0,0,1-.2.254Z" transform="translate(-1506.403 -1563.55)" fill="#fff" fill-rule="evenodd"/>
            <path id="Trazado_38540" data-name="Trazado 38540" d="M1571.088,1568.374a15.065,15.065,0,0,0,1.534,2.026,1.222,1.222,0,0,1-1.265-.371A1.969,1.969,0,0,1,1571.088,1568.374Z" transform="translate(-1529.034 -1556.217)" fill="#c3204b" fill-rule="evenodd"/>
            <path id="Trazado_38541" data-name="Trazado 38541" d="M1581.566,1548.974a.446.446,0,1,0,.217.623A.468.468,0,0,0,1581.566,1548.974Z" transform="translate(-1537.118 -1540.264)" fill="#232323" fill-rule="evenodd"/>
            <path id="Trazado_38542" data-name="Trazado 38542" d="M1597.559,1560.876a.45.45,0,1,0,.008.662A.47.47,0,0,0,1597.559,1560.876Z" transform="translate(-1550.142 -1549.938)" fill="#232323" fill-rule="evenodd"/>
            <path id="Trazado_38543" data-name="Trazado 38543" d="M1600.548,1552.665a1.832,1.832,0,0,1,.67.144.831.831,0,0,1,.516.97.062.062,0,1,0,.122.019.952.952,0,0,0-.588-1.1,1.944,1.944,0,0,0-.72-.155.062.062,0,0,0,0,.123Z" transform="translate(-1553.193 -1543.241)" fill="#232323" fill-rule="evenodd"/>
            <path id="Trazado_38544" data-name="Trazado 38544" d="M1583.063,1557.453q-.331.7-.668,1.39c-.144.3-.288.591-.437.884-.053.1-.106.209-.162.313a1.19,1.19,0,0,1-.091.155c-.065.05-.4-.16-.454-.2a5.022,5.022,0,0,1-.437-.326.063.063,0,0,0-.081.1c.16.134.894.737,1.075.5a1.338,1.338,0,0,0,.1-.17c.056-.1.11-.21.163-.316.149-.294.294-.59.438-.886q.337-.694.668-1.391a.063.063,0,1,0-.115-.054Z" transform="translate(-1536.983 -1547.236)" fill="#232323" fill-rule="evenodd"/>
            <path id="Trazado_38545" data-name="Trazado 38545" d="M1581.981,1541.677a1.825,1.825,0,0,1,.685-.006.968.968,0,0,1,.824.869.062.062,0,1,0,.123-.008,1.09,1.09,0,0,0-.923-.982,1.947,1.947,0,0,0-.736.006.062.062,0,0,0,.027.12Z" transform="translate(-1537.963 -1534.205)" fill="#232323" fill-rule="evenodd"/>
            <path id="Trazado_38546" data-name="Trazado 38546" d="M1570.885,1535.147a2.574,2.574,0,0,1,.366,3.616c-.048.062-.1.121-.15.178a1.3,1.3,0,0,1,.436.318c.028-.041.057-.08.087-.119a2.48,2.48,0,0,1,2.516-.968,1.951,1.951,0,0,1,1.229.948,2.593,2.593,0,0,1-2.814,3.646,1.95,1.95,0,0,1-1.228-.948,2.418,2.418,0,0,1,.078-2.348,1.015,1.015,0,0,0-.49-.344,2.538,2.538,0,0,1-3.254.2,2.643,2.643,0,0,1,3.224-4.179Zm3.2,3.256a2.356,2.356,0,0,0-2.547,3.3,1.713,1.713,0,0,0,1.079.832,2.356,2.356,0,0,0,2.547-3.3,1.713,1.713,0,0,0-1.079-.832Zm-6.276.734a2.405,2.405,0,1,0-.323-3.282A2.336,2.336,0,0,0,1567.806,1539.138Z" transform="translate(-1525.517 -1528.574)" fill="#232323" fill-rule="evenodd"/>
            <g id="Grupo_21671" data-name="Grupo 21671" transform="translate(39.171 5.942)">
              <path id="Trazado_38547" data-name="Trazado 38547" d="M1556.015,1534.376l2.509,1a.073.073,0,0,1-.017.1c-.032.023-.064,0-.1-.017l-2.509-1c-.037-.015-.016-.078.016-.1A.072.072,0,0,1,1556.015,1534.376Z" transform="translate(-1555.8 -1534.268)" fill="#232323" fill-rule="evenodd"/>
              <path id="Trazado_38548" data-name="Trazado 38548" d="M1558.126,1535.214a.2.2,0,0,1-.085-.024l-2.526-1.01a.11.11,0,0,1-.068-.09.169.169,0,0,1,.067-.147.151.151,0,0,1,.193.015l2.513,1,.013.019a.15.15,0,0,1-.035.209A.122.122,0,0,1,1558.126,1535.214Z" transform="translate(-1555.446 -1533.915)" fill="#232323"/>
            </g>
          </g>
          <g id="Grupo_21681" data-name="Grupo 21681" transform="translate(143.163 53.38)">
            <g id="Grupo_21673" data-name="Grupo 21673" transform="translate(0 13.678)">
              <path id="Trazado_38549" data-name="Trazado 38549" d="M2077.55,1716.074c1.793-4.2-.865-8.089-.767-7.015s-.5,1.253-1.467,3.173.749,3.649.749,3.649A1.543,1.543,0,0,1,2077.55,1716.074Z" transform="translate(-2075.021 -1708.878)" fill="#6666c7" fill-rule="evenodd"/>
              <path id="Trazado_38550" data-name="Trazado 38550" d="M2080.811,1747.221s.121,1.693.321,4.117c0,0,.149-.546,1.55-.153-.22-2.236-.386-3.771-.386-3.771A1.544,1.544,0,0,0,2080.811,1747.221Z" transform="translate(-2079.767 -1740.218)" fill="#eaaa28" fill-rule="evenodd"/>
              <path id="Trazado_38551" data-name="Trazado 38551" d="M2082.59,1769.187c.5,6.032,1.483,16.592,2.3,16.868.842.283-.156-10.952-.755-17.021C2082.739,1768.641,2082.59,1769.187,2082.59,1769.187Z" transform="translate(-2081.225 -1758.068)" fill="#f8e6ba" fill-rule="evenodd"/>
            </g>
            <path id="Trazado_38552" data-name="Trazado 38552" d="M2142.786,1755.791c-1.094-2.058-1.5-5.146-1.04-6.594a12.5,12.5,0,0,1-5.791-.49,13.286,13.286,0,0,0-5.226,1.551,7,7,0,0,0-1.549,1.209c-2.1,2.216-5.93,10.837-7.525,14.9-3.214-1.935-11.775-6.155-11.775-6.155s-.084.064-.222.174a15.906,15.906,0,0,0-1.674,1.527,3.769,3.769,0,0,0-.529.705s7.958,14.793,16.125,11.626a10.477,10.477,0,0,0,4.656-4.118,75.538,75.538,0,0,0,1.836,8.507,4.437,4.437,0,0,0,.559.345c3.839,2.015,12.766.578,15.113-.369a1.239,1.239,0,0,0,.558-.337,10.01,10.01,0,0,0,.433-2.09c.281-1.907.588-4.709.8-6.807l.076-.745c.1-1.005.173-1.759.2-2.023-2.46.027-5.653-.9-5.837-3.618C2141.773,1759.979,2143.969,1758.018,2142.786,1755.791Z" transform="translate(-2101.606 -1727.845)" fill="#edd1ce" fill-rule="evenodd"/>
            <path id="Trazado_38553" data-name="Trazado 38553" d="M2084.589,1787.027s-1.781-5.375-2.558-5.249.4,2.573.4,2.573-3.555-4.087-5.217-2.938,3.055,5.591,5.7,7.142A15.9,15.9,0,0,1,2084.589,1787.027Z" transform="translate(-2076.535 -1754.485)" fill="#e3817e" fill-rule="evenodd"/>
            <path id="Trazado_38554" data-name="Trazado 38554" d="M2323.166,1841.666c-.716,1.146-1.752,2.811-2.431,3.934a10.021,10.021,0,0,1-.433,2.09,1.238,1.238,0,0,1-.557.337s.579,1.248,1.367,3.464c2.609-2.186,8.637-7.524,8.573-10.144-.082-3.343-3.154-7.949-3.154-7.949a4.807,4.807,0,0,1-3.958,2.585c-.242.024-.5.038-.761.041-.025.264-.1,1.018-.2,2.023-.024.235-.049.485-.076.745C2322.04,1839.745,2322.673,1840.9,2323.166,1841.666Z" transform="translate(-2275.606 -1797.261)" fill="#edd1ce" fill-rule="evenodd"/>
            <path id="Trazado_38555" data-name="Trazado 38555" d="M2223.03,1917.971c-.788-2.217-1.367-3.464-1.367-3.464-2.347.946-11.274,2.383-15.113.369-3.453,8.551-6.47,26.924-6.47,26.924l.3.152a26.7,26.7,0,0,0,10.773,2.675,37.688,37.688,0,0,0,4.485-.052,46.828,46.828,0,0,0,8.867-1.514c1.769-.48,2.823-.88,2.823-.88s.4-3.982-1.265-12.887A75.6,75.6,0,0,0,2223.03,1917.971Z" transform="translate(-2177.523 -1863.741)" fill="#aec6f2" fill-rule="evenodd"/>
            <path id="Trazado_38556" data-name="Trazado 38556" d="M2294.788,2072.821a46.827,46.827,0,0,1-8.867,1.514,15.488,15.488,0,0,0,.309,5.191c.643,3.535,5.01,22.639,5.01,22.639q.343.845.681,1.692c1.833,1.1,5.056-.2,5.056-.2a244.573,244.573,0,0,0-2.768-24.655C2294.952,2077.562,2294.788,2072.821,2294.788,2072.821Z" transform="translate(-2247.811 -1993.5)" fill="#e3817e" fill-rule="evenodd"/>
            <path id="Trazado_38557" data-name="Trazado 38557" d="M2220.162,2097.127c-4.475-11.028-9.435-21.57-10.921-24.687.3-1.081,1.117-3.091,1.117-3.091a26.7,26.7,0,0,1-10.773-2.675s-.88,4.451-.229,6.556,7.866,17.365,17.148,28.579c0,0,1.83.56,4.34-2.99Z" transform="translate(-2176.734 -1988.462)" fill="#e3817e" fill-rule="evenodd"/>
            <path id="Trazado_38558" data-name="Trazado 38558" d="M2283.38,2244.9c-2.51,3.549-4.34,2.989-4.34,2.989s-4.984,8.474-3.266,10.917c1.147,1.631,5.734-1.973,8.7-5.127,1.479-1.57,2.556-3.029,2.607-3.672C2287.239,2248.068,2283.38,2244.9,2283.38,2244.9Z" transform="translate(-2239.27 -2134.541)" fill="#f0d287" fill-rule="evenodd"/>
            <path id="Trazado_38559" data-name="Trazado 38559" d="M2319.579,2243.985s3.859,3.17,3.7,5.107c-.051.644-1.128,2.1-2.607,3.673,2.422-.391,6.214-1.2,6.329-2.412.169-1.791-2.37-6.569-2.37-6.569S2321.412,2245.087,2319.579,2243.985Z" transform="translate(-2275.469 -2133.628)" fill="#f0d287" fill-rule="evenodd"/>
            <path id="Trazado_38560" data-name="Trazado 38560" d="M2255.414,1662.735c-1.294.362-5.467,9.658-.1,12.719l-.439,2.793.081-.006a12.493,12.493,0,0,0,5.791.49,1.993,1.993,0,0,1,.131-.32c.657-1.259,1.542-2.54.071-3.957s-1.755-4.535-1.755-4.535,1.445-.716,1.154-1.583-1.377-.691-1.377-.691a3.031,3.031,0,0,1-1.478-2.657A2.4,2.4,0,0,0,2255.414,1662.735Z" transform="translate(-2220.608 -1657.379)" fill="#e3817e" fill-rule="evenodd"/>
            <g id="Grupo_21674" data-name="Grupo 21674" transform="translate(47.294 42.852)">
              <path id="Trazado_38561" data-name="Trazado 38561" d="M2339.108,1871.664c-.267.429-.537.856-.8,1.285a.111.111,0,0,1-.188-.118l.8-1.285a.111.111,0,1,1,.189.118Z" transform="translate(-2337.942 -1871.338)" fill="#e4b3b1" fill-rule="evenodd"/>
              <path id="Trazado_38562" data-name="Trazado 38562" d="M2337.5,1872.447a.271.271,0,0,1-.141-.04.267.267,0,0,1-.119-.166.264.264,0,0,1,.033-.2l.8-1.285a.267.267,0,1,1,.453.283l-.805,1.286a.262.262,0,0,1-.167.119A.278.278,0,0,1,2337.5,1872.447Zm-.038-.29h0Z" transform="translate(-2337.232 -1870.627)" fill="#e4b3b1"/>
            </g>
            <g id="Grupo_21675" data-name="Grupo 21675" transform="translate(45.94 38.393)">
              <path id="Trazado_38563" data-name="Trazado 38563" d="M2330.825,1846.894c0,.031-.006.066-.009.1a.111.111,0,1,1-.222-.021c0-.035.005-.075.01-.109a.111.111,0,0,1,.22.03Z" transform="translate(-2330.438 -1846.612)" fill="#fff" fill-rule="evenodd"/>
              <path id="Trazado_38564" data-name="Trazado 38564" d="M2330,1846.54h-.026a.267.267,0,0,1-.24-.291c0-.06.007-.091.011-.118a.267.267,0,0,1,.1-.174.26.26,0,0,1,.2-.05.265.265,0,0,1,.177.107.258.258,0,0,1,.049.19l-.009.1a.267.267,0,0,1-.265.242Z" transform="translate(-2329.73 -1845.902)" fill="#fff"/>
            </g>
            <g id="Grupo_21676" data-name="Grupo 21676" transform="translate(28.799 22.142)">
              <path id="Trazado_38565" data-name="Trazado 38565" d="M2236.938,1766.607a27.051,27.051,0,0,0,.717-4.833c.075-1.462.106-4.774-1.992-4.882a.111.111,0,1,1,.011-.222,1.853,1.853,0,0,1,.984.325c2.1,1.462,1.016,7.538.5,9.665a.111.111,0,1,1-.216-.053Z" transform="translate(-2235.401 -1756.514)" fill="#e4b3b1" fill-rule="evenodd"/>
              <path id="Trazado_38566" data-name="Trazado 38566" d="M2236.337,1766.192a.257.257,0,0,1-.063-.008.267.267,0,0,1-.2-.323h0a27.105,27.105,0,0,0,.713-4.8,10.406,10.406,0,0,0-.177-2.9c-.278-1.161-.838-1.771-1.667-1.814a.267.267,0,0,1-.166-.464.275.275,0,0,1,.193-.069,2.008,2.008,0,0,1,1.066.353c2.5,1.745.638,9.5.558,9.83A.268.268,0,0,1,2236.337,1766.192Z" transform="translate(-2234.692 -1755.805)" fill="#e4b3b1"/>
            </g>
            <g id="Grupo_21677" data-name="Grupo 21677" transform="translate(26.364 37.869)">
              <path id="Trazado_38567" data-name="Trazado 38567" d="M2222.074,1848.06a25.037,25.037,0,0,0,2.2-4.129.111.111,0,1,1,.2.088,25.269,25.269,0,0,1-2.223,4.165.111.111,0,1,1-.184-.125Z" transform="translate(-2221.899 -1843.708)" fill="#e4b3b1" fill-rule="evenodd"/>
              <path id="Trazado_38568" data-name="Trazado 38568" d="M2221.458,1847.68a.264.264,0,0,1-.148-.046.268.268,0,0,1-.072-.371h0a24.66,24.66,0,0,0,2.189-4.1.267.267,0,0,1,.491.211,25.282,25.282,0,0,1-2.238,4.191.269.269,0,0,1-.171.113A.283.283,0,0,1,2221.458,1847.68Zm.038-.243Z" transform="translate(-2221.192 -1842.998)" fill="#e4b3b1"/>
            </g>
            <g id="Grupo_21678" data-name="Grupo 21678" transform="translate(33.982 15.324)">
              <path id="Trazado_38569" data-name="Trazado 38569" d="M2265.364,1719l-.849,5.4a.111.111,0,0,1-.22-.034l.849-5.4a.111.111,0,0,1,.22.034Z" transform="translate(-2264.137 -1718.713)" fill="#fff" fill-rule="evenodd"/>
              <path id="Trazado_38570" data-name="Trazado 38570" d="M2263.7,1723.935a.243.243,0,0,1-.04,0,.267.267,0,0,1-.223-.306l.849-5.4a.267.267,0,1,1,.528.083l-.849,5.4A.269.269,0,0,1,2263.7,1723.935Z" transform="translate(-2263.429 -1718.004)" fill="#fff"/>
            </g>
            <g id="Grupo_21679" data-name="Grupo 21679" transform="translate(5.583 32.102)">
              <path id="Trazado_38571" data-name="Trazado 38571" d="M2109.388,1812.127a10.449,10.449,0,0,0-2.34,2.329.111.111,0,0,1-.2-.1,10.743,10.743,0,0,1,2.456-2.443.113.113,0,0,1,.056-.022.114.114,0,0,1,.061.011q3.314,1.633,6.6,3.336c1.731.9,3.513,1.816,5.183,2.822a.126.126,0,0,1,.023.017.106.106,0,0,1,.028.045.108.108,0,0,1,0,.076c-.17.434-.338.87-.493,1.31a.112.112,0,0,1-.21-.074c.146-.412.3-.822.462-1.23-1.644-.984-3.393-1.886-5.093-2.768Q2112.674,1813.747,2109.388,1812.127Z" transform="translate(-2106.683 -1811.73)" fill="#e4b3b1" fill-rule="evenodd"/>
              <path id="Trazado_38572" data-name="Trazado 38572" d="M2119.947,1819.026a.27.27,0,0,1-.089-.015.267.267,0,0,1-.163-.34c.132-.373.272-.744.416-1.113-1.546-.919-3.19-1.771-4.781-2.6l-.191-.1c-2.167-1.124-4.333-2.22-6.441-3.259a9.838,9.838,0,0,0-2.221,2.219.267.267,0,0,1-.491-.048.267.267,0,0,1,.02-.2,11.6,11.6,0,0,1,2.5-2.494.273.273,0,0,1,.133-.053.293.293,0,0,1,.147.026c2.173,1.07,4.394,2.193,6.6,3.337l.186.1c1.667.864,3.391,1.758,5.006,2.73l.049.036a.268.268,0,0,1,.071.111.272.272,0,0,1,0,.18c-.17.433-.337.868-.492,1.306A.267.267,0,0,1,2119.947,1819.026Zm.042-.253h0Z" transform="translate(-2105.974 -1811.025)" fill="#e4b3b1"/>
            </g>
            <g id="Grupo_21680" data-name="Grupo 21680" transform="translate(28.813 48.168)">
              <path id="Trazado_38573" data-name="Trazado 38573" d="M2235.215,1903.3l-.035.087.2.106c1.948.967,4.907,1.039,7.022.945a35.976,35.976,0,0,0,5.769-.725c.488-.1,2.661-.573,2.918-1.025a10.471,10.471,0,0,0,.446-2.129.111.111,0,1,0-.22-.032,11.022,11.022,0,0,1-.419,2.052c-.194.342-2.384.836-2.771.917a35.734,35.734,0,0,1-5.733.72c-2.109.094-5.115.023-7.019-.976a.11.11,0,0,0-.056-.012.1.1,0,0,0-.025,0,.11.11,0,0,0-.069.055Z" transform="translate(-2235.106 -1900.372)" fill="#e4b3b1" fill-rule="evenodd"/>
              <path id="Trazado_38574" data-name="Trazado 38574" d="M2240.74,1904.257a13.423,13.423,0,0,1-5.726-.981l-.245-.132.019-.049c.011-.03.023-.059.035-.087l.006-.015a.174.174,0,0,1,.108-.089.208.208,0,0,1,.042-.007.177.177,0,0,1,.083.02c1.858.976,4.825,1.065,6.988.969a35.979,35.979,0,0,0,5.723-.719,8.731,8.731,0,0,0,2.731-.889,10.2,10.2,0,0,0,.4-1.927l.016-.1a.171.171,0,0,1,.306-.077.168.168,0,0,1,.031.127l-.019.133a9.236,9.236,0,0,1-.434,2.017c-.241.424-1.957.843-2.957,1.054a36.151,36.151,0,0,1-5.779.726Q2241.38,1904.257,2240.74,1904.257Zm-5.822-1.168.151.082a15.21,15.21,0,0,0,6.991.938,36.161,36.161,0,0,0,5.76-.724c1.646-.348,2.721-.72,2.878-1a9.505,9.505,0,0,0,.42-1.975l.019-.133a.057.057,0,0,0-.01-.039.054.054,0,0,0-.034-.021.061.061,0,0,0-.059.044l-.015.1a9.837,9.837,0,0,1-.411,1.969c-.219.386-2.545.89-2.809.946a35.911,35.911,0,0,1-5.743.722c-2.178.1-5.167.005-7.048-.982a.073.073,0,0,0-.028-.006.06.06,0,0,0-.043.028l-.058-.015.055.023Z" transform="translate(-2234.769 -1900.101)" fill="#e4b3b1"/>
            </g>
            <path id="Trazado_38575" data-name="Trazado 38575" d="M2264.491,1654.073a1.964,1.964,0,0,0-.131.32c-.464,1.448-.054,4.536,1.04,6.594,1.183,2.226-1.013,4.187-.809,7.2.184,2.72,3.376,3.646,5.836,3.618.264,0,.519-.017.761-.041a4.807,4.807,0,0,0,3.958-2.585,3.78,3.78,0,0,0,.009-2.856c-1.136-3.15-2.936-3.708-2.017-6.508s2.274-2.566.924-5.556-1.552-2.236-1.827-5.975.657-13.889-8.271-14.069c-6.76-3.916-8.354,3.074-5.688,4.917a4.284,4.284,0,0,1,.748-.734,2.4,2.4,0,0,1,2.082,2.252,3.031,3.031,0,0,0,1.478,2.657s1.085-.176,1.377.692-1.154,1.583-1.154,1.583.284,3.118,1.755,4.535S2265.148,1652.814,2264.491,1654.073Z" transform="translate(-2224.22 -1633.041)" fill="#373191" fill-rule="evenodd"/>
            <path id="Trazado_38576" data-name="Trazado 38576" d="M2210.717,1946.637a43.657,43.657,0,0,0,13.915-1.741.111.111,0,1,0-.062-.214c-7.853,2.249-17.443,2.824-24.874-1.047.275-1.667.581-3.333.895-4.993.692-3.663,1.45-7.321,2.319-10.945.472-1.968.977-3.93,1.545-5.872.481-1.646,1.01-3.3,1.647-4.9l-.2-.106c-.644,1.608-1.177,3.281-1.664,4.942-.569,1.945-1.075,3.911-1.547,5.883-.87,3.628-1.628,7.29-2.321,10.956-.319,1.688-.63,3.382-.908,5.078a.108.108,0,0,0,.058.116,26.657,26.657,0,0,0,10.922,2.828l.037,0Z" transform="translate(-2177.018 -1865.637)" fill="#7a8dc8" fill-rule="evenodd"/>
            <path id="Trazado_38577" data-name="Trazado 38577" d="M2253.689,2082.063c-.348.858-.717,1.785-.982,2.675l-.318-.659a.111.111,0,0,0-.2.1l.436.9.019.039c1.2,2.514,2.374,5.053,3.528,7.589,2.81,6.174,5.521,12.409,8.038,18.709a7.734,7.734,0,0,1-3.018,2.74,2.155,2.155,0,0,1-1.163.158.111.111,0,1,0-.065.213,2.324,2.324,0,0,0,1.31-.164,7.842,7.842,0,0,0,3.083-2.769,18.355,18.355,0,0,1,2.269,2.267,4.64,4.64,0,0,1,1.3,2.669c-.068.859-1.99,2.982-2.577,3.605a.111.111,0,1,0,.162.153c.64-.679,2.562-2.8,2.637-3.74a4.771,4.771,0,0,0-1.354-2.829,18.287,18.287,0,0,0-1.844-1.9,7.638,7.638,0,0,0,4.481-.482.111.111,0,1,0-.083-.206c-1.343.543-3.614.987-4.926.228-2.52-6.31-5.235-12.556-8.05-18.74-1.152-2.532-2.319-5.067-3.521-7.577a28.526,28.526,0,0,1,1.072-2.964Z" transform="translate(-2220.226 -2001.076)" fill="#fff" fill-rule="evenodd"/>
          </g>
        </g>
      </g>
    </g>
  </g>
</svg>
