<svg xmlns="http://www.w3.org/2000/svg" width="266" height="266" viewBox="0 0 266 266">
  <g id="Grupo_22092" data-name="Grupo 22092" transform="translate(-422 -1796)">
    <g id="Grupo_22066" data-name="Grupo 22066">
      <circle id="Elipse_1047" data-name="Elipse 1047" cx="133" cy="133" r="133" transform="translate(422 1796)" fill="#f0c4c6"/>
      <g id="Grupo_21642" data-name="Grupo 21642" transform="translate(390.492 1334.953)">
        <g id="Grupo_21618" data-name="Grupo 21618" transform="translate(124.584 490.349)">
          <g id="Grupo_21617" data-name="Grupo 21617" transform="translate(70.486)">
            <g id="Grupo_21607" data-name="Grupo 21607">
              <g id="Grupo_21599" data-name="Grupo 21599">
                <path id="Trazado_38358" data-name="Trazado 38358" d="M941.975,539.769c.816-1.515,1.605-3.132,2.361-4.825,7.013-15.713,11.108-37.89,6.706-44.245-10.053-.963-36.864,23.75-42.6,39.35-3.618,9.847.166,18.049,6.56,21.8a15.947,15.947,0,0,0,3.414,1.5c5.939,1.811,13.13.211,18.811-6.42A41.009,41.009,0,0,0,941.975,539.769Z" transform="translate(-906.991 -490.623)" fill="#fff" fill-rule="evenodd"/>
                <path id="Trazado_38359" data-name="Trazado 38359" d="M922.812,553.817a16.03,16.03,0,0,1-15.156-10.841,19.586,19.586,0,0,1,.475-13.219c2.652-7.216,10.2-17.142,19.691-25.905s18.287-13.921,22.956-13.477l.023,0,.013.019c2.072,2.992,2.4,9.615.936,18.649a108.362,108.362,0,0,1-7.637,25.644c-.765,1.713-1.559,3.338-2.362,4.828l-.043-.023.043.023a40.976,40.976,0,0,1-4.75,7.163C933.024,551.321,927.95,553.817,922.812,553.817Zm27.379-63.371c-4.768,0-13.211,5.085-22.3,13.478-9.484,8.753-17.019,18.665-19.665,25.867-3.74,10.177.59,18.251,6.539,21.739a15.916,15.916,0,0,0,3.4,1.492c6.589,2.01,13.6-.385,18.759-6.4a40.856,40.856,0,0,0,4.739-7.146c.8-1.488,1.6-3.11,2.359-4.822a108.272,108.272,0,0,0,7.63-25.62c1.462-8.99,1.14-15.579-.907-18.558C950.566,490.455,950.381,490.446,950.191,490.446Z" transform="translate(-906.723 -490.349)" fill="#95a9e4"/>
              </g>
              <g id="Grupo_21600" data-name="Grupo 21600" transform="translate(7.971 0.051)">
                <path id="Trazado_38360" data-name="Trazado 38360" d="M960.322,551.887l-.085-.05,36.036-61.148.085.05Z" transform="translate(-960.237 -490.69)" fill="#95a9e4"/>
              </g>
              <g id="Grupo_21601" data-name="Grupo 21601" transform="translate(25.578 9.603)">
                <path id="Trazado_38361" data-name="Trazado 38361" d="M1083.135,568.59c-.028-.082-2.808-8.3-4.7-13.739l.093-.032c1.9,5.441,4.677,13.658,4.7,13.74Z" transform="translate(-1078.431 -554.819)" fill="#95a9e4"/>
              </g>
              <g id="Grupo_21602" data-name="Grupo 21602" transform="translate(22.299 12.418)">
                <path id="Trazado_38362" data-name="Trazado 38362" d="M1062.445,587.994l-6.026-14.245.091-.038,6.026,14.245Z" transform="translate(-1056.419 -573.711)" fill="#95a9e4"/>
              </g>
              <g id="Grupo_21603" data-name="Grupo 21603" transform="translate(20.46 35.826)">
                <rect id="Rectángulo_3599" data-name="Rectángulo 3599" width="20.602" height="0.098" transform="translate(0 4.202) rotate(-11.768)" fill="#95a9e4"/>
              </g>
              <g id="Grupo_21604" data-name="Grupo 21604" transform="translate(4.963 32.394)">
                <path id="Trazado_38363" data-name="Trazado 38363" d="M949.3,726.054l-9.264-18.19.087-.044,9.264,18.19Z" transform="translate(-940.041 -707.82)" fill="#95a9e4"/>
              </g>
              <g id="Grupo_21605" data-name="Grupo 21605" transform="translate(15.927 46.663)">
                <path id="Trazado_38364" data-name="Trazado 38364" d="M1013.652,804.782l-.005-.1,20.3-1.079.005.1Z" transform="translate(-1013.646 -803.605)" fill="#95a9e4"/>
              </g>
              <g id="Grupo_21606" data-name="Grupo 21606" transform="translate(33.968 11.424)">
                <path id="Trazado_38365" data-name="Trazado 38365" d="M1134.8,572.806l-.041-.089c1.812-.84,6.591-3.075,11.806-5.679l.044.088C1141.393,569.73,1136.614,571.966,1134.8,572.806Z" transform="translate(-1134.76 -567.038)" fill="#95a9e4"/>
              </g>
            </g>
            <g id="Grupo_21616" data-name="Grupo 21616" transform="translate(15.877 36.009)">
              <g id="Grupo_21608" data-name="Grupo 21608">
                <path id="Trazado_38366" data-name="Trazado 38366" d="M1034.879,759.1c1.041-.567,2.1-1.2,3.176-1.9,9.954-6.427,20.655-17.68,20.505-23-5.436-4.336-30.2-.162-39.368,6.681-5.79,4.32-6.691,10.474-4.412,15.041a11.009,11.009,0,0,0,1.407,2.147c2.745,3.278,7.495,5.059,13.265,3.37A28.222,28.222,0,0,0,1034.879,759.1Z" transform="translate(-1013.578 -732.381)" fill="#ebf1fd" fill-rule="evenodd"/>
                <path id="Trazado_38367" data-name="Trazado 38367" d="M1024.869,761.839a11.447,11.447,0,0,1-8.986-4.03,11.04,11.04,0,0,1-2.236-9.8,13.5,13.5,0,0,1,5.25-7.455c4.245-3.167,12.332-6.057,21.106-7.542s15.793-1.155,18.322.862l.018.014v.023c.071,2.509-2.229,6.458-6.476,11.12a74.643,74.643,0,0,1-14.051,11.923c-1.087.7-2.156,1.34-3.179,1.9h0a28.221,28.221,0,0,1-5.437,2.347A15.426,15.426,0,0,1,1024.869,761.839Zm24.971-29.655a60.019,60.019,0,0,0-9.821.921c-8.76,1.483-16.831,4.366-21.064,7.523-5.977,4.459-6.515,10.737-4.4,14.98a10.941,10.941,0,0,0,1.4,2.138c3.042,3.632,7.981,4.886,13.213,3.354a28.111,28.111,0,0,0,5.417-2.339h0c1.021-.556,2.088-1.193,3.173-1.893a74.519,74.519,0,0,0,14.032-11.907c4.217-4.629,6.507-8.544,6.451-11.028C1056.776,732.775,1053.8,732.184,1049.839,732.184Z" transform="translate(-1013.311 -732.087)" fill="#7d8ec5"/>
              </g>
              <g id="Grupo_21609" data-name="Grupo 21609" transform="translate(1.171 1.795)">
                <rect id="Rectángulo_3600" data-name="Rectángulo 3600" width="48.873" height="0.098" transform="translate(0 21.684) rotate(-26.339)" fill="#7d8ec5"/>
              </g>
              <g id="Grupo_21610" data-name="Grupo 21610" transform="translate(28.264 0.385)">
                <path id="Trazado_38368" data-name="Trazado 38368" d="M1203.152,744.393l-.1-.024c.015-.058,1.5-5.842,2.453-9.694l.1.023C1204.653,738.55,1203.167,744.335,1203.152,744.393Z" transform="translate(-1203.057 -734.675)" fill="#7d8ec5"/>
              </g>
              <g id="Grupo_21611" data-name="Grupo 21611" transform="translate(25.887 0.779)">
                <rect id="Rectángulo_3601" data-name="Rectángulo 3601" width="10.651" height="0.098" transform="matrix(0.176, -0.984, 0.984, 0.176, 0, 10.484)" fill="#7d8ec5"/>
              </g>
              <g id="Grupo_21612" data-name="Grupo 21612" transform="translate(16.319 15.987)">
                <path id="Trazado_38369" data-name="Trazado 38369" d="M1136.086,844.654l-13.219-5.149.036-.091,13.219,5.149Z" transform="translate(-1122.867 -839.413)" fill="#7d8ec5"/>
              </g>
              <g id="Grupo_21613" data-name="Grupo 21613" transform="translate(8.755 5.789)">
                <path id="Trazado_38370" data-name="Trazado 38370" d="M1072.182,784.94l-.1-.011,1.5-13.976.1.011Z" transform="translate(-1072.085 -770.953)" fill="#7d8ec5"/>
              </g>
              <g id="Grupo_21614" data-name="Grupo 21614" transform="translate(10.795 18.728)">
                <path id="Trazado_38371" data-name="Trazado 38371" d="M1097.9,864.908l-12.115-7.011.049-.085,12.115,7.011Z" transform="translate(-1085.782 -857.813)" fill="#7d8ec5"/>
              </g>
              <g id="Grupo_21615" data-name="Grupo 21615" transform="translate(32.753 7.836)">
                <path id="Trazado_38372" data-name="Trazado 38372" d="M1242.135,785.953c-4.011-.462-7.594-.968-8.948-1.164l.014-.1c1.354.2,4.936.7,8.945,1.164Z" transform="translate(-1233.187 -784.692)" fill="#7d8ec5"/>
              </g>
            </g>
          </g>
          <path id="Trazado_38373" data-name="Trazado 38373" d="M478.668,680.777c-62.148-29.113-61.345-150.158,10.1-105.467,17.6,11.008,52.746,25.768,63.4,47.526C566.527,652.145,522.784,701.443,478.668,680.777Z" transform="translate(-433.537 -554.317)" fill="#ffc" fill-rule="evenodd"/>
        </g>
        <g id="Grupo_21641" data-name="Grupo 21641" transform="translate(70.508 528.526)">
          <g id="Grupo_21623" data-name="Grupo 21623" transform="translate(111.044 10.117)">
            <g id="Grupo_21619" data-name="Grupo 21619" transform="translate(13.319 30.252)">
              <path id="Trazado_38374" data-name="Trazado 38374" d="M930.6,1021.019c7.816-5.4,24.656-3.632,26.718.547,0,0,.041.091.111.267a1.857,1.857,0,0,1,.06.971c-1.012,5.02-2.588,7.14-15.413,14.391-12.643,7.148-9.434,18.523-9.34,18.846q-.346.04-.7.077c-3.582.214-10.908-1.229-16.076-2.387-3.3-.74-5.727-1.364-5.727-1.364-6.975-2.566-6.525-17.18,2.025-19.634S922.045,1026.932,930.6,1021.019Z" transform="translate(-905.385 -1017.647)" fill="#f0ca64" fill-rule="evenodd"/>
              <path id="Trazado_38375" data-name="Trazado 38375" d="M1084.989,1271.133c1.757-.2,3.431-.459,5.006-.746l2.64,40.115h-2.385l-5.956-39.292c.252-.015.485-.038.7-.07Z" transform="translate(-1057.644 -1232.739)" fill="#d8a432" fill-rule="evenodd"/>
              <path id="Trazado_38376" data-name="Trazado 38376" d="M1181.34,1244.735a55.065,55.065,0,0,0,5.624-2l2.718,41.3H1187.3Z" transform="translate(-1140.234 -1209.202)" fill="#d8a432" fill-rule="evenodd"/>
              <path id="Trazado_38377" data-name="Trazado 38377" d="M922.37,1250.726s2.423.624,5.727,1.364l-6.064,40h-2.386Z" transform="translate(-917.523 -1216.007)" fill="#d8a432" fill-rule="evenodd"/>
            </g>
            <g id="Grupo_21622" data-name="Grupo 21622">
              <path id="Trazado_38378" data-name="Trazado 38378" d="M1171.194,1180.2s7.737.532,7.922-.383-4.411-3.715-6.176-3.9a3.349,3.349,0,0,0-2.861,1.544C1171.38,1178.25,1171.194,1180.2,1171.194,1180.2Z" transform="translate(-1117.332 -1122.077)" fill="#373191" fill-rule="evenodd"/>
              <path id="Trazado_38379" data-name="Trazado 38379" d="M861.724,955.329c1.95.464,10.122-1.3,10.819-2.089s-.6-2.554-.6-2.554l.12-8.8a30.163,30.163,0,0,0,5.193,4.236c-.809,2.146-2.148,6.361-3.228,9.85-.958,3.1-1.714,5.622-1.714,5.622a4.716,4.716,0,0,0,2.925.929s.126-.21.343-.587c1.547-2.687,7.729-13.85,6.018-17.8a31.928,31.928,0,0,0-5.932-8.257,24.4,24.4,0,0,0-3.633-3.258,5.367,5.367,0,0,0-.878-.455,14.9,14.9,0,0,0-5.228-.8c-4.086,2.043-5.154.975-5.154.975s-4.806,2.043-5.688,5.432c-.674,2.59.468,8.864,1.044,11.682-1.743,2-7.265,14.3-7.265,14.3a3.842,3.842,0,0,0,3.39.65,65.423,65.423,0,0,0,7.516-12.2C860.455,953.924,861.147,955.192,861.724,955.329Z" transform="translate(-843.964 -913.967)" fill="#f2d1cf" fill-rule="evenodd"/>
              <path id="Trazado_38380" data-name="Trazado 38380" d="M935.355,1105.291c2.869,1.334,14.477-1.731,28.964-8.231,0,0,.186-1.95-1.114-2.74,0,0-16.282.744-20.74,2.973a50.532,50.532,0,0,0-.393-10.384c-.217.377-.343.587-.343.587-1.417,4.551-4.086,7.5-5.084,6.454s1.509-4.365,1.509-4.365-1.741.906-2.252.534,2.9-3.552,2.9-3.552.755-2.526,1.714-5.622a10.438,10.438,0,0,0-1.482-2.736c-.7.79-8.869,2.554-10.819,2.089,0,0-4.573,22.333,3.971,24.562A13.8,13.8,0,0,0,935.355,1105.291Z" transform="translate(-910.457 -1038.936)" fill="#aec6f2" fill-rule="evenodd"/>
              <path id="Trazado_38381" data-name="Trazado 38381" d="M987.241,1141.7c1,1.045,3.667-1.9,5.084-6.454a4.715,4.715,0,0,1-2.925-.929s-3.412,3.18-2.9,3.552,2.252-.534,2.252-.534S986.242,1140.653,987.241,1141.7Z" transform="translate(-961.052 -1086.685)" fill="#e3817e" fill-rule="evenodd"/>
              <path id="Trazado_38382" data-name="Trazado 38382" d="M815.973,1153.287c.093,1.9,5.34-2.089,5.34-2.089s-1.207,1.9-.232,1.718,3.18-3.459,3.18-3.459a3.842,3.842,0,0,1-3.39-.65S815.88,1151.383,815.973,1153.287Z" transform="translate(-815.971 -1099.017)" fill="#e3817e" fill-rule="evenodd"/>
              <path id="Trazado_38383" data-name="Trazado 38383" d="M900.847,860.493a3.43,3.43,0,0,0,3-.063l.09,4.381s1.068,1.068,5.154-.975l-.887-6.193-.25-1.747s.952-.627.6-1.346-1.486-.325-1.486-.325c-3.018-.047-2.275-.51-3.065-1.393s-2.182-.232-3.715-.7a2,2,0,0,1-.308-.123C899.709,853.655,898.9,859.459,900.847,860.493Z" transform="translate(-887.127 -846.433)" fill="#e3817e" fill-rule="evenodd"/>
              <path id="Trazado_38384" data-name="Trazado 38384" d="M958.339,836.482a14.9,14.9,0,0,1,5.228.8,5.38,5.38,0,0,1,.878.455,24.411,24.411,0,0,1,3.633,3.258c6.134,1.2,8.074-5.384,4.778-7.1s-1.486-2.879-1.9-6.176-2.414-2.043-5.293-3.157-2.275-4.69-4.411-4.69a3.278,3.278,0,0,0-2.76,2.093,2.918,2.918,0,0,1,.81,1.436c.743,3.111-.488,5.98-1.846,6.89Z" transform="translate(-936.377 -819.079)" fill="#373191" fill-rule="evenodd"/>
              <path id="Trazado_38385" data-name="Trazado 38385" d="M900.966,823.164s1.138-.395,1.486.325-.6,1.346-.6,1.346l.25,1.747c1.358-.91,2.589-3.779,1.846-6.89a2.917,2.917,0,0,0-.81-1.436c-1.582-1.547-4.677-1.307-4.677-1.307-.806-.905-2.419-2.174-4.41-.89-2.685,1.732-1.574,4.191-.169,4.891a2.006,2.006,0,0,0,.308.123c1.532.464,2.925-.186,3.715.7S897.948,823.117,900.966,823.164Z" transform="translate(-881.024 -815.372)" fill="#373191" fill-rule="evenodd"/>
              <g id="Grupo_21620" data-name="Grupo 21620" transform="translate(4.759 17.255)">
                <path id="Trazado_38386" data-name="Trazado 38386" d="M944.755,1049.085c.462.642,1.185,1.992.568,2.692-.57.646-4.612,1.485-5.524,1.66-1.269.243-4.2.766-5.432.473a.14.14,0,1,1,.065-.273c1.173.28,4.1-.243,5.315-.476.815-.156,4.875-1.013,5.366-1.57.508-.575-.249-1.884-.611-2.378a.135.135,0,0,1-.027-.085l.027-1.949a.14.14,0,0,1,.281,0Z" transform="translate(-921.397 -1029.666)" fill="#edbbb9" fill-rule="evenodd"/>
                <path id="Trazado_38387" data-name="Trazado 38387" d="M899.624,998.512c.578,2.39,1.256,4.812,2,7.155.376,1.189.779,2.382,1.242,3.54a.14.14,0,1,1-.261.1c-.466-1.165-.871-2.364-1.249-3.56-.743-2.348-1.423-4.777-2-7.173a.14.14,0,0,1,.273-.066Z" transform="translate(-891.686 -988.275)" fill="#edbbb9" fill-rule="evenodd"/>
                <path id="Trazado_38388" data-name="Trazado 38388" d="M967.825,931.5a3.056,3.056,0,0,0-2.007,1.934,4.187,4.187,0,0,0-.262,1.431.14.14,0,1,1-.281.009,4.464,4.464,0,0,1,.279-1.537,3.332,3.332,0,0,1,1.871-1.989,14.345,14.345,0,0,0-4.816-.656.14.14,0,1,1-.009-.281,14.053,14.053,0,0,1,5.262.8.142.142,0,0,1,.047.019,5.422,5.422,0,0,1,.879.455,19.831,19.831,0,0,1,2.866,2.47,42.947,42.947,0,0,1,3.559,4.007,24.382,24.382,0,0,1,3.193,5.1c1.708,3.944-4.248,14.967-6.37,18.515a.136.136,0,0,1-.117.068,4.576,4.576,0,0,1-3.025-.967.137.137,0,0,1-.037-.142q1.272-4.261,2.614-8.506c.46-1.457.927-2.913,1.413-4.362.279-.832.562-1.68.875-2.507a21.222,21.222,0,0,1-1.959-1.379,39.285,39.285,0,0,1-5.375-5.171.14.14,0,1,1,.213-.182,39.021,39.021,0,0,0,5.335,5.132,21.108,21.108,0,0,0,1.888,1.333q.076-.2.155-.391a.14.14,0,1,1,.26.106q-.105.259-.205.522a.148.148,0,0,1-.016.043c-.324.851-.616,1.726-.9,2.583-.485,1.447-.951,2.9-1.411,4.357q-1.326,4.2-2.588,8.417a4.381,4.381,0,0,0,2.685.833c2.091-3.51,7.952-14.407,6.313-18.192a24.109,24.109,0,0,0-3.156-5.039,42.649,42.649,0,0,0-3.535-3.98,19.584,19.584,0,0,0-2.822-2.434A5.11,5.11,0,0,0,967.825,931.5Z" transform="translate(-945.403 -930.4)" fill="#edbbb9" fill-rule="evenodd"/>
                <path id="Trazado_38389" data-name="Trazado 38389" d="M848.234,968.5a3.662,3.662,0,0,0,3.134.572,58.742,58.742,0,0,0,6.174-9.554.14.14,0,1,1,.248.131,58.91,58.91,0,0,1-6.231,9.633.136.136,0,0,1-.065.045,3.927,3.927,0,0,1-3.522-.675.14.14,0,0,1-.05-.089.143.143,0,0,1,0-.046.134.134,0,0,1,.012-.035c1.12-2.5,2.289-4.991,3.489-7.452.69-1.415,1.395-2.829,2.145-4.213a17.1,17.1,0,0,1,1.6-2.6c-.379-1.829-.7-3.7-.932-5.526a19.441,19.441,0,0,1-.092-6.158,4.881,4.881,0,0,1,.224-.66c.891-2.119,3.487-3.993,5.545-4.867a.14.14,0,1,1,.11.258,12.946,12.946,0,0,0-4.442,3.192,5.581,5.581,0,0,0-1.165,2.147,19.285,19.285,0,0,0,.1,6.051c.235,1.831.554,3.7.934,5.53a.141.141,0,0,1,.016.076q.144.689.3,1.37a.14.14,0,1,1-.274.063q-.127-.556-.247-1.121a19.362,19.362,0,0,0-1.429,2.381c-.748,1.38-1.451,2.791-2.139,4.2C850.493,963.583,849.341,966.04,848.234,968.5Z" transform="translate(-847.921 -936.013)" fill="#edbbb9" fill-rule="evenodd"/>
              </g>
              <g id="Grupo_21621" data-name="Grupo 21621" transform="translate(16.397 48.139)">
                <path id="Trazado_38390" data-name="Trazado 38390" d="M995.173,1147.622a2.775,2.775,0,0,0-1.053-2.525.14.14,0,1,1,.146-.24,3.071,3.071,0,0,1,1.181,2.872.137.137,0,0,1-.082.115c-3.368,1.511-6.783,2.931-10.242,4.22-2.829,1.054-5.707,2.031-8.616,2.841-2.158.6-8.093,2.16-10.222,1.17-2.72-1.264-2.888-15.274-2.877-18.2a.14.14,0,0,1,.281,0c-.011,2.756.2,16.778,2.714,17.947,2.031.944,7.968-.612,10.029-1.186,2.9-.808,5.772-1.783,8.593-2.834C988.451,1150.524,991.835,1149.118,995.173,1147.622Z" transform="translate(-957.841 -1137.732)" fill="#6666c7" fill-rule="evenodd"/>
                <path id="Trazado_38391" data-name="Trazado 38391" d="M926.347,1163.291c-.113,4.1.1,12.423,5.069,13.719q.465.121.938.207a.14.14,0,1,1-.05.276q-.484-.088-.959-.211c-5.15-1.343-5.4-9.738-5.279-14a.14.14,0,1,1,.281.008Z" transform="translate(-926.046 -1159.361)" fill="#6666c7" fill-rule="evenodd"/>
                <path id="Trazado_38392" data-name="Trazado 38392" d="M1029.565,1192.06q-.043.773-.1,1.545a.14.14,0,0,1-.28-.022q.063-.81.108-1.621a.14.14,0,0,1,.027-.076.144.144,0,0,1,.041-.036l.013-.007a17.482,17.482,0,0,1,4.091-1.214c1.854-.373,3.744-.637,5.622-.861q1.435-.171,2.874-.309a.14.14,0,1,1,.027.279q-1.435.14-2.868.308c-1.87.222-3.753.485-5.6.857A17.647,17.647,0,0,0,1029.565,1192.06Z" transform="translate(-1013.818 -1181.753)" fill="#6666c7" fill-rule="evenodd"/>
              </g>
              <path id="Trazado_38393" data-name="Trazado 38393" d="M957.785,833.019a3.06,3.06,0,0,1,.848,1.5,8.2,8.2,0,0,1-.138,4.345,5.2,5.2,0,0,1-1.766,2.694.14.14,0,1,1-.156-.233,4.951,4.951,0,0,0,1.655-2.545,7.924,7.924,0,0,0,.133-4.2,2.779,2.779,0,0,0-.772-1.368.14.14,0,0,1,.2-.2Z" transform="translate(-935.576 -830.236)" fill="#fff" fill-rule="evenodd"/>
              <path id="Trazado_38394" data-name="Trazado 38394" d="M825.209,1161.4a14.27,14.27,0,0,1-3.961,2.191.14.14,0,0,1-.061-.274,16.106,16.106,0,0,0,4.386-2.535.14.14,0,0,1,.2.187,6.143,6.143,0,0,0-.407.757c-.053.119-.261.615-.158.732.035.04.145.024.189.015.607-.115,1.833-1.686,2.239-2.22a.14.14,0,1,1,.223.17c-.467.615-1.687,2.188-2.41,2.326a.464.464,0,0,1-.452-.106C824.786,1162.4,824.983,1161.846,825.209,1161.4Z" transform="translate(-820.317 -1108.708)" fill="#fff" fill-rule="evenodd"/>
              <path id="Trazado_38395" data-name="Trazado 38395" d="M987.559,1141.148c-.627.273-1.515.568-1.9.287-.507-.369,1.023-1.895,1.259-2.146q.419-.445.854-.874a.141.141,0,1,1,.2.2c-.325.321-2.249,2.261-2.146,2.593.37.269,1.737-.355,2.105-.545a.14.14,0,0,1,.176.209c-.531.7-2.308,3.358-1.519,4.183a.621.621,0,0,0,.71.1.14.14,0,0,1,.1.264.892.892,0,0,1-1.01-.174C985.562,1144.392,986.792,1142.262,987.559,1141.148Z" transform="translate(-960.293 -1090.139)" fill="#fff" fill-rule="evenodd"/>
              <path id="Trazado_38396" data-name="Trazado 38396" d="M898.085,816.946a5.5,5.5,0,0,0-1.372-1.476,3.148,3.148,0,0,0-4.923,2.779,2.578,2.578,0,0,0,1.627,1.88,5.9,5.9,0,0,0,1.783.185,3.6,3.6,0,0,1,1.53.2,1.461,1.461,0,0,1,.464.348,8.422,8.422,0,0,1,.555.862c.375.507,1.868.476,2.408.484a.14.14,0,0,1,0,.281c-.68-.011-2.167.028-2.629-.6a8.587,8.587,0,0,0-.538-.842,1.182,1.182,0,0,0-.376-.282,3.419,3.419,0,0,0-1.409-.176,6.154,6.154,0,0,1-1.866-.2,2.856,2.856,0,0,1-1.82-2.09,3.426,3.426,0,0,1,5.363-3.064,5.784,5.784,0,0,1,1.447,1.559.14.14,0,1,1-.241.144Z" transform="translate(-880.214 -814.561)" fill="#fff" fill-rule="evenodd"/>
              <path id="Trazado_38397" data-name="Trazado 38397" d="M927.35,899.995a7.622,7.622,0,0,0,2.022-1.3.14.14,0,0,1,.192.2,7.9,7.9,0,0,1-2.1,1.357.14.14,0,1,1-.111-.258Z" transform="translate(-910.687 -886.127)" fill="#fff" fill-rule="evenodd"/>
              <path id="Trazado_38398" data-name="Trazado 38398" d="M922.207,863.453a.29.29,0,0,0-.314.3.35.35,0,0,0,.336.324.29.29,0,0,0,.314-.3A.35.35,0,0,0,922.207,863.453Z" transform="translate(-906.115 -856.17)" fill="#232323" fill-rule="evenodd"/>
              <path id="Trazado_38399" data-name="Trazado 38399" d="M904.833,861.5a.29.29,0,0,0-.314.3.35.35,0,0,0,.336.324.29.29,0,0,0,.314-.3A.35.35,0,0,0,904.833,861.5Z" transform="translate(-891.329 -854.507)" fill="#232323" fill-rule="evenodd"/>
              <path id="Trazado_38400" data-name="Trazado 38400" d="M911.88,884.383a8.832,8.832,0,0,1-1.955.7,1.268,1.268,0,0,0,1.3.362A1.146,1.146,0,0,0,911.88,884.383Z" transform="translate(-895.93 -873.982)" fill="#fff" fill-rule="evenodd"/>
              <path id="Trazado_38401" data-name="Trazado 38401" d="M903.3,854.937a1.3,1.3,0,0,0-.436-.288.985.985,0,0,0-1.017.173.05.05,0,1,0,.062.079.886.886,0,0,1,.918-.159,1.21,1.21,0,0,1,.4.263.05.05,0,1,0,.073-.068Z" transform="translate(-889.039 -848.616)" fill="#232323" fill-rule="evenodd"/>
              <path id="Trazado_38402" data-name="Trazado 38402" d="M907.716,871.7c0-.028.014-.069.02-.091.017-.076.037-.151.056-.226.1-.379.2-.758.307-1.135a.05.05,0,0,0-.1-.027c-.107.381-.211.764-.31,1.148a2.35,2.35,0,0,0-.077.35c0,.069.109.093.163.106a2.449,2.449,0,0,0,.274.045c.133.016.269.029.4.037a.05.05,0,0,0,.006-.1A3.725,3.725,0,0,1,907.716,871.7Z" transform="translate(-893.964 -861.899)" fill="#232323" fill-rule="evenodd"/>
              <path id="Trazado_38403" data-name="Trazado 38403" d="M923.751,856.991a1.3,1.3,0,0,0-.369-.369.986.986,0,0,0-1.031-.035.05.05,0,0,0,.045.09.885.885,0,0,1,.931.029,1.21,1.21,0,0,1,.339.338.05.05,0,1,0,.085-.052Z" transform="translate(-906.481 -850.217)" fill="#232323" fill-rule="evenodd"/>
            </g>
            <path id="Trazado_38404" data-name="Trazado 38404" d="M1086.5,1079.955c-.094-.323-3.3-11.7,9.34-18.846,12.826-7.251,14.4-9.371,15.413-14.391a1.856,1.856,0,0,0-.06-.971c.749,1.911,4.764,13.883-5.228,29.307l-.082.036a55.082,55.082,0,0,1-5.624,2,78.507,78.507,0,0,1-8.755,2.115C1089.933,1079.5,1088.26,1079.751,1086.5,1079.955Z" transform="translate(-1045.838 -1011.31)" fill="#f8e6ba" fill-rule="evenodd"/>
          </g>
          <ellipse id="Elipse_1046" data-name="Elipse 1046" cx="93.75" cy="17.129" rx="93.75" ry="17.129" transform="translate(0 110.701)" fill="#f3f8ff"/>
          <g id="Grupo_21628" data-name="Grupo 21628" transform="translate(9.772)">
            <g id="Grupo_21624" data-name="Grupo 21624" transform="translate(1.329 43.68)">
              <path id="Trazado_38405" data-name="Trazado 38405" d="M171.962,1043.25c-7.816-5.4-24.657-3.632-26.718.547,0,0-.041.091-.11.267a1.856,1.856,0,0,0-.06.971c1.012,5.02,2.588,7.14,15.413,14.391,12.643,7.148,9.434,18.523,9.34,18.846q.346.04.7.078c3.582.214,10.908-1.229,16.077-2.387,3.3-.74,5.727-1.364,5.727-1.364,6.975-2.566,6.525-17.18-2.025-19.634S180.512,1049.162,171.962,1043.25Z" transform="translate(-145.035 -1039.878)" fill="#f0ca64" fill-rule="evenodd"/>
              <path id="Trazado_38406" data-name="Trazado 38406" d="M267.784,1293.363c-1.757-.2-3.431-.459-5.006-.745l-2.64,40.115h2.385l5.956-39.292c-.252-.015-.485-.038-.7-.07Z" transform="translate(-242.992 -1254.97)" fill="#d8a432" fill-rule="evenodd"/>
              <path id="Trazado_38407" data-name="Trazado 38407" d="M171.433,1266.965a55.07,55.07,0,0,1-5.624-2l-2.717,41.3h2.385Z" transform="translate(-160.402 -1231.432)" fill="#d8a432" fill-rule="evenodd"/>
              <path id="Trazado_38408" data-name="Trazado 38408" d="M429.787,1272.956s-2.423.624-5.727,1.364l6.063,40h2.386Z" transform="translate(-382.497 -1238.237)" fill="#d8a432" fill-rule="evenodd"/>
            </g>
            <g id="Grupo_21627" data-name="Grupo 21627" transform="translate(2.434)">
              <path id="Trazado_38409" data-name="Trazado 38409" d="M553.967,1547.437c1.06.269,8.658.269,10.425-.628s-4.259-3.759-7.3-4.345a9.865,9.865,0,0,1-4.136,1.632S552.907,1547.168,553.967,1547.437Z" transform="translate(-493.298 -1423.919)" fill="#d8a432" fill-rule="evenodd"/>
              <path id="Trazado_38410" data-name="Trazado 38410" d="M272.521,1188.719c.665-.06,1.269-.145,1.819-.249a9.868,9.868,0,0,0,4.136-1.632,3.491,3.491,0,0,0,1.113-1.212s-3.181-38.728-7.421-45.989-22.152-13.672-22.152-13.672c-3.18.68-12.879,2.247-22.369-1.373,0,0-3.274,7.156-1.6,13.162s12.457,10.489,22.97,12.64c-6.879,12.56-12.589,35.59-12.589,35.59a2.957,2.957,0,0,0,.486.626,11.664,11.664,0,0,0,4.364,2.229c.227.068.362.1.362.1s18.555-32.592,19.408-41.644a9.512,9.512,0,0,0,3.484,1.929C264.9,1163,272.521,1188.719,272.521,1188.719Z" transform="translate(-214.68 -1068.293)" fill="#7d9ffb" fill-rule="evenodd"/>
              <path id="Trazado_38411" data-name="Trazado 38411" d="M292.849,1545.552c.839,1.838,7.333,6.5,8.481,5.334s-2.969-7.722-2.969-7.722a11.665,11.665,0,0,1-4.364-2.229S292.01,1543.714,292.849,1545.552Z" transform="translate(-271.76 -1422.617)" fill="#d8a432" fill-rule="evenodd"/>
              <path id="Trazado_38412" data-name="Trazado 38412" d="M188.547,906.986c.7-.149,1.081-.256,1.081-.256.266-.526.526-1.107.779-1.731.177-.524,1.155-3.248,1.324-3.8.858-2.817,1.611-5.982,2.234-8.939,0,0,2.908,5.956,7.944,6.226s16.167-5.827,24.207-12.641c-.574-1.793-1.414-2.151-1.414-2.151-6.139,1.426-16.923,4.926-20.271,6.027-1.931-6.415-4.508-13.084-6.41-15.978-1.943-2.958-7.421-4.079-7.421-4.079-7.554.4-7.333-2.376-7.333-2.376s-8.437.762-12.236,2.465-14.577,11.654-17.493,22.233c-1.391,5.046,4.917,7.929,11.981,9.566l.078,3.837q.29.117.58.228C175.668,909.232,185.367,907.666,188.547,906.986Z" transform="translate(-153.212 -849.314)" fill="#d2e2f5" fill-rule="evenodd"/>
              <path id="Trazado_38413" data-name="Trazado 38413" d="M633.793,956.747c3.335-.324,8.636-3.754,7.863-4.9s-5.168,1.1-5.168,1.1,1.391-2.017.817-2.331-4.926,3.979-4.926,3.979S633.218,954.954,633.793,956.747Z" transform="translate(-560.889 -920.219)" fill="#e3817e" fill-rule="evenodd"/>
              <path id="Trazado_38414" data-name="Trazado 38414" d="M352.117,1092.466a12.559,12.559,0,0,0,7.453,1.744c1.118-.1,1.893-.417,1.938-.926.041-.457-.444-.885-1.133-1.257a19.422,19.422,0,0,0-4.1-1.387s2.209-.135,1.988-.672-5.478-.3-5.478-.3A3.723,3.723,0,0,1,352.117,1092.466Z" transform="translate(-322.375 -1038.525)" fill="#e3817e" fill-rule="evenodd"/>
              <path id="Trazado_38415" data-name="Trazado 38415" d="M362.493,790.809a3.643,3.643,0,0,0,.512.084c4.859.448,5.831-10.13,5.831-10.13-5.036.986-7.6-1.345-7.6-1.345a4.492,4.492,0,0,1-2.341,2.2s-1.06-1.165-1.546-.314.4,1.7.4,1.7l-3.534,9.5s-.221,2.779,7.333,2.376Z" transform="translate(-324.16 -774.536)" fill="#e3817e" fill-rule="evenodd"/>
              <path id="Trazado_38416" data-name="Trazado 38416" d="M377.284,753.721a4.492,4.492,0,0,0,2.341-2.2s2.562,2.331,7.6,1.345c0,0,2.96.359,3.225-2.062s-6.847-6.455-11.838-2.51c0,0-2.26-.566-2.79,4.992C376.332,752.675,377.284,753.721,377.284,753.721Z" transform="translate(-342.546 -746.643)" fill="#373191" fill-rule="evenodd"/>
              <g id="Grupo_21625" data-name="Grupo 21625" transform="translate(0 17.835)">
                <path id="Trazado_38417" data-name="Trazado 38417" d="M261.131,1125.322a41.142,41.142,0,0,1-22.444-1.378.136.136,0,0,1-.078-.175.133.133,0,0,1,.172-.079,40.882,40.882,0,0,0,22.295,1.367.134.134,0,0,1,.158.1A.136.136,0,0,1,261.131,1125.322Z" transform="translate(-225.768 -1085.353)" fill="#7a8dc8" fill-rule="evenodd"/>
                <path id="Trazado_38418" data-name="Trazado 38418" d="M427.339,961.62c-.521,3.609-1.188,7.252-1.938,10.816a.134.134,0,0,1-.159.1.136.136,0,0,1-.1-.161c.749-3.559,1.415-7.2,1.935-10.8a.134.134,0,1,1,.264.039Z" transform="translate(-384.518 -947.3)" fill="#7a8dc8" fill-rule="evenodd"/>
                <path id="Trazado_38419" data-name="Trazado 38419" d="M447.029,1014.055a7.727,7.727,0,0,0,4.636,2.046c2.518.134,6.076-1.317,8.333-2.366a69.578,69.578,0,0,0,10.7-6.315q1.2-.849,2.367-1.743a.133.133,0,0,1,.187.026.137.137,0,0,1-.026.19q-1.171.9-2.376,1.749a69.833,69.833,0,0,1-10.742,6.34c-2.3,1.071-5.886,2.527-8.458,2.39a7.988,7.988,0,0,1-4.8-2.111.138.138,0,0,1-.015-.191A.132.132,0,0,1,447.029,1014.055Z" transform="translate(-402.962 -984.903)" fill="#7a8dc8" fill-rule="evenodd"/>
                <path id="Trazado_38420" data-name="Trazado 38420" d="M170.749,868.919c1.45.715.68,5.729.493,6.759a.134.134,0,0,1-.156.109.136.136,0,0,1-.107-.158c.165-.912,1.023-6.66-.674-6.521a14.836,14.836,0,0,0-2.709,1.738,40.163,40.163,0,0,0-3.622,3.175,49.46,49.46,0,0,0-7.574,9.431,30.96,30.96,0,0,0-3.493,7.792,4.566,4.566,0,0,0-.006,2.576c1.329,4.391,9.666,6.391,13.5,7.17a91.167,91.167,0,0,0,10.178,1.424q1.746.153,3.5.25c.493.027,1.014.063,1.507.063.547,0,.982-1.157,1.092-1.583a3.053,3.053,0,0,0,.074-1.371c-3.851-1.982-7.853-3.864-11.831-5.556-2.058-.876-4.155-1.717-6.277-2.421-.482-.16-1.009-.329-1.553-.488a.13.13,0,0,1-.081-.023,14.634,14.634,0,0,0-3.208-.614.136.136,0,0,1,.012-.271,14.875,14.875,0,0,1,3.256.62,12.9,12.9,0,0,0,3.267-3.647,32.9,32.9,0,0,0,2.423-4.587c.321-.729.642-1.494.906-2.247a.133.133,0,0,1,.171-.083.136.136,0,0,1,.081.173c-.266.76-.59,1.531-.913,2.267a33.176,33.176,0,0,1-2.443,4.625,13.572,13.572,0,0,1-3.16,3.6c.463.138.91.283,1.326.421,2.129.706,4.232,1.55,6.3,2.428,4,1.7,8.029,3.6,11.9,5.592a.13.13,0,0,1,.068.084,3.213,3.213,0,0,1-.059,1.569c-.149.574-.63,1.786-1.351,1.786-.5,0-1.024-.037-1.522-.063q-1.755-.094-3.506-.25a91.3,91.3,0,0,1-10.208-1.428c-4.317-.879-15.515-3.479-13.694-10.085a31.226,31.226,0,0,1,3.523-7.862,49.728,49.728,0,0,1,7.616-9.483,40.455,40.455,0,0,1,3.646-3.2,14.992,14.992,0,0,1,2.782-1.779,24.312,24.312,0,0,1,5.016-1.432,69.768,69.768,0,0,1,7.262-1.045.136.136,0,0,1,.023.27,69.531,69.531,0,0,0-7.234,1.041A26.218,26.218,0,0,0,170.749,868.919Z" transform="translate(-152.451 -866.374)" fill="#7a8dc8" fill-rule="evenodd"/>
                <path id="Trazado_38421" data-name="Trazado 38421" d="M416.6,902.344c3.823-1.264,7.675-2.477,11.529-3.626,2.845-.849,5.734-1.689,8.624-2.36a.126.126,0,0,1,.081.007c.707.3,1.276,1.568,1.489,2.235a.136.136,0,0,1-.086.171.133.133,0,0,1-.168-.087,4.027,4.027,0,0,0-1.3-2.051c-2.87.668-5.739,1.5-8.564,2.346-3.888,1.16-7.776,2.384-11.632,3.66l-.021.008-.017,0-1,.333a.134.134,0,0,1-.169-.086.136.136,0,0,1,.085-.171l.9-.3q-.286-.946-.586-1.886c-.877-2.748-1.845-5.488-2.939-8.156a35.286,35.286,0,0,0-2.829-5.772c-1.392-2.118-4.968-3.536-7.337-4.021a.136.136,0,0,1-.1-.16.134.134,0,0,1,.157-.106c2.447.5,6.07,1.951,7.506,4.137a35.54,35.54,0,0,1,2.854,5.818c1.1,2.674,2.066,5.422,2.946,8.176Q416.315,901.4,416.6,902.344Z" transform="translate(-365.294 -879.948)" fill="#7a8dc8" fill-rule="evenodd"/>
              </g>
              <g id="Grupo_21626" data-name="Grupo 21626" transform="translate(15.98 61.477)">
                <path id="Trazado_38422" data-name="Trazado 38422" d="M305.639,1230.428c4.161-7.314,19.6-35.343,19.367-42.242-.107-3.142-2.38-6-4.534-8.06a37.745,37.745,0,0,0-6.007-4.58c-.986-.619-2.036-1.244-3.078-1.766a.137.137,0,0,1-.061-.182.133.133,0,0,1,.179-.062c1.049.526,2.107,1.155,3.1,1.779a38,38,0,0,1,6.05,4.613c2.212,2.114,4.509,5.026,4.618,8.248.239,7.019-15.329,35.232-19.454,42.476a.131.131,0,0,1-.148.064,11.817,11.817,0,0,1-4.787-2.368.137.137,0,0,1,0-.192.133.133,0,0,1,.189,0A11.5,11.5,0,0,0,305.639,1230.428Z" transform="translate(-294.72 -1171.412)" fill="#6666c7" fill-rule="evenodd"/>
                <path id="Trazado_38423" data-name="Trazado 38423" d="M491.414,1315.487c-1.108-4.351-2.135-8.731-3.021-13.135-.593-2.949-1.128-5.919-1.539-8.9a64,64,0,0,1-.674-7.852.134.134,0,1,1,.267,0,63.687,63.687,0,0,0,.671,7.817c.411,2.976.944,5.94,1.536,8.883.885,4.4,1.912,8.775,3.018,13.121a.136.136,0,0,1-.1.165A.134.134,0,0,1,491.414,1315.487Z" transform="translate(-452.448 -1266.679)" fill="#6666c7" fill-rule="evenodd"/>
                <path id="Trazado_38424" data-name="Trazado 38424" d="M470.564,1215.186c-.206-2.5-.445-4.993-.693-7.485-.542-5.444-1.153-10.887-1.884-16.308-.6-4.477-1.278-8.991-2.19-13.414-.361-1.751-.764-3.515-1.273-5.229a16.46,16.46,0,0,0-1.36-3.461c-2.347-4.019-8.815-7.627-12.955-9.678a.137.137,0,0,1-.061-.181.133.133,0,0,1,.179-.062c4.2,2.08,10.686,5.705,13.067,9.784a16.708,16.708,0,0,1,1.386,3.521c.512,1.721.916,3.493,1.279,5.252.914,4.429,1.59,8.95,2.194,13.432.731,5.424,1.343,10.87,1.885,16.317.249,2.505.489,5.016.7,7.525a.133.133,0,0,1-.011.066,3.772,3.772,0,0,1-1.027,1.173,10.093,10.093,0,0,1-4.32,1.75.134.134,0,0,1-.156-.108.136.136,0,0,1,.107-.158,9.849,9.849,0,0,0,4.2-1.7A3.691,3.691,0,0,0,470.564,1215.186Z" transform="translate(-421.772 -1159.354)" fill="#6666c7" fill-rule="evenodd"/>
                <path id="Trazado_38425" data-name="Trazado 38425" d="M278.113,1257.47a.139.139,0,0,1,.041.015.136.136,0,0,1,.061.073.132.132,0,0,1,.007.056.137.137,0,0,1-.016.056,94.049,94.049,0,0,0-5.475,12.474c-1.9,5.135-3.564,10.384-5.08,15.648a.134.134,0,0,1-.166.092.136.136,0,0,1-.091-.168c1.518-5.271,3.185-10.526,5.087-15.667a95.066,95.066,0,0,1,5.4-12.349q-1.261-.261-2.512-.564c-5.146-1.247-11.2-3.26-15.586-6.322a.137.137,0,0,1-.034-.188.132.132,0,0,1,.186-.035c4.355,3.042,10.385,5.043,15.5,6.282Q276.768,1257.195,278.113,1257.47Z" transform="translate(-259.728 -1236.979)" fill="#6666c7" fill-rule="evenodd"/>
              </g>
              <path id="Trazado_38426" data-name="Trazado 38426" d="M645.556,951.876c1.319-.626,4.223-1.836,4.9-.838.486.718-.92,1.858-1.379,2.214a.132.132,0,0,1-.187-.025.137.137,0,0,1,.025-.19c.307-.238,1.664-1.339,1.321-1.845-.623-.921-4.238.757-5,1.143a.131.131,0,0,1-.161-.033.136.136,0,0,1-.008-.166c.179-.259,1.234-1.931.866-2.133-.368-.118-2.787,2.083-3.121,2.389a.132.132,0,0,1-.189-.01.137.137,0,0,1,.009-.191c.413-.38,2.881-2.725,3.424-2.428C646.584,950.051,645.976,951.2,645.556,951.876Z" transform="translate(-569.578 -919.484)" fill="#fff" fill-rule="evenodd"/>
              <path id="Trazado_38427" data-name="Trazado 38427" d="M385.805,831.752c-1.968-.471-3.307-2.454-4.149-4.183a.137.137,0,0,1,.061-.182.133.133,0,0,1,.179.062c.8,1.647,2.091,3.591,3.97,4.04a.136.136,0,0,1,.1.163A.134.134,0,0,1,385.805,831.752Z" transform="translate(-347.503 -815.348)" fill="#fff" fill-rule="evenodd"/>
              <path id="Trazado_38428" data-name="Trazado 38428" d="M435.883,800.993c-.07.2-.01.547.192.616s.457-.161.528-.362,0-.547-.192-.616S435.954,800.792,435.883,800.993Z" transform="translate(-393.639 -792.577)" fill="#232323" fill-rule="evenodd"/>
              <path id="Trazado_38429" data-name="Trazado 38429" d="M413.65,796.635c-.07.2,0,.547.192.616s.457-.161.527-.363.01-.546-.192-.616S413.72,796.434,413.65,796.635Z" transform="translate(-374.719 -788.869)" fill="#232323" fill-rule="evenodd"/>
              <path id="Trazado_38430" data-name="Trazado 38430" d="M411.2,788.774a1.727,1.727,0,0,0-.287-.053,2.5,2.5,0,0,0-1.388.25.133.133,0,0,0-.054.177.131.131,0,0,0,.175.06,2.2,2.2,0,0,1,1.239-.226c.083.009.144.02.185.029l.048.011.014,0h0a.132.132,0,0,0,.163-.088A.136.136,0,0,0,411.2,788.774Z" transform="translate(-371.17 -782.441)" fill="#232323" fill-rule="evenodd"/>
              <path id="Trazado_38431" data-name="Trazado 38431" d="M434.3,791.987a.864.864,0,0,0-.214-.215,1.38,1.38,0,0,0-.685-.254,2.359,2.359,0,0,0-.766.05.131.131,0,0,0,.056.256,2.11,2.11,0,0,1,.682-.047,1.125,1.125,0,0,1,.558.205.685.685,0,0,1,.121.108c.013.014.025.024.025.03l.006.008.007,0-.007,0h0l.007,0-.007,0a.126.126,0,0,0,.177.042A.135.135,0,0,0,434.3,791.987Z" transform="translate(-390.807 -784.823)" fill="#232323" fill-rule="evenodd"/>
              <path id="Trazado_38432" data-name="Trazado 38432" d="M422.451,807.916l.2,1.49-.842-.093a.065.065,0,0,0-.014.13l.925.1a.057.057,0,0,0,.051-.019.078.078,0,0,0,.02-.054l-.208-1.572a.063.063,0,0,0-.071-.056A.067.067,0,0,0,422.451,807.916Z" transform="translate(-381.624 -798.726)" fill="#232323" fill-rule="evenodd"/>
              <path id="Trazado_38433" data-name="Trazado 38433" d="M411.33,825.3a2.178,2.178,0,0,0,.342.521,1.791,1.791,0,0,0,1.156.61,2.387,2.387,0,0,0,1.092-.161.068.068,0,0,0,.037-.082.06.06,0,0,0-.08-.039,2.284,2.284,0,0,1-1.036.152,1.644,1.644,0,0,1-1.07-.567,1.7,1.7,0,0,1-.243-.337.7.7,0,0,1-.058-.107l-.018-.03v-.009a.068.068,0,0,0-.087-.036A.065.065,0,0,0,411.33,825.3Z" transform="translate(-372.764 -813.51)" fill="#232323" fill-rule="evenodd"/>
            </g>
            <path id="Trazado_38434" data-name="Trazado 38434" d="M162.232,1102.186c.094-.323,3.3-11.7-9.34-18.846-12.825-7.251-14.4-9.37-15.413-14.391a1.856,1.856,0,0,1,.06-.971c-.749,1.911-4.764,13.883,5.228,29.307l.082.036a55.055,55.055,0,0,0,5.624,2,78.5,78.5,0,0,0,8.754,2.115C158.8,1101.727,160.475,1101.982,162.232,1102.186Z" transform="translate(-136.111 -1020.112)" fill="#f8e6ba" fill-rule="evenodd"/>
          </g>
          <g id="Grupo_21636" data-name="Grupo 21636" transform="translate(38.71 40.081)">
            <g id="Grupo_21629" data-name="Grupo 21629" transform="translate(0 22.68)">
              <path id="Trazado_38435" data-name="Trazado 38435" d="M657.844,1259.606v-56.68q-.918,0-1.848,0t-1.847,0v57.361a1.886,1.886,0,0,0,3.7,0Z" transform="translate(-605.92 -1197.719)" fill="#f0ca64" fill-rule="evenodd"/>
              <path id="Trazado_38436" data-name="Trazado 38436" d="M430.531,1173.125c0-2.848-22.42-5.158-50.077-5.158s-50.076,2.309-50.076,5.158c0,2.755,20.974,5.006,47.373,5.15q1.343.007,2.7.007t2.7-.007C409.557,1178.13,430.531,1175.879,430.531,1173.125Z" transform="translate(-330.378 -1167.967)" fill="#f8e6ba" fill-rule="evenodd"/>
              <path id="Trazado_38437" data-name="Trazado 38437" d="M576.695,1583.321c0-1.354-7.555-2.466-17.217-2.593v.807a1.849,1.849,0,0,1-3.7,0v-.807c-9.662.127-17.217,1.24-17.217,2.593,0,1.439,8.536,2.605,19.065,2.605S576.695,1584.76,576.695,1583.321Z" transform="translate(-507.554 -1519.243)" fill="#d8a432" fill-rule="evenodd"/>
            </g>
            <g id="Grupo_21635" data-name="Grupo 21635" transform="translate(28.56)">
              <g id="Grupo_21634" data-name="Grupo 21634" transform="translate(0.108)">
                <path id="Trazado_38438" data-name="Trazado 38438" d="M522.863,1107.616c.341.692,3.307,1.345,6.939,1.5,3.687.155,6.734-.261,7.057-.94l.028-.11c.031-.743-3.09-1.478-6.972-1.641s-7.053.307-7.085,1.05Z" transform="translate(-522.83 -1092.883)" fill="#b8ccfc" fill-rule="evenodd"/>
                <g id="Grupo_21630" data-name="Grupo 21630" transform="translate(7.108 1.748)">
                  <path id="Trazado_38439" data-name="Trazado 38439" d="M611.968,1033.341c3.023-2.578,2.458-6.644,2.118-5.768s-.875.783-2.372,1.907a2.943,2.943,0,0,0-.829,3.136A1.344,1.344,0,0,1,611.968,1033.341Z" transform="translate(-604.75 -1027.452)" fill="#6666c7" fill-rule="evenodd"/>
                  <path id="Trazado_38440" data-name="Trazado 38440" d="M604.057,1062.119s-.561,1.367-1.344,3.335c0,0,.328-.368,1.268.481.694-1.829,1.159-3.091,1.159-3.091A1.344,1.344,0,0,0,604.057,1062.119Z" transform="translate(-597.921 -1056.955)" fill="#eaaa28" fill-rule="evenodd"/>
                  <path id="Trazado_38441" data-name="Trazado 38441" d="M575.338,1084.053c-1.948,4.9-5.268,13.514-4.734,14.048s4.119-8.6,6-13.567C575.666,1083.685,575.338,1084.053,575.338,1084.053Z" transform="translate(-570.547 -1075.554)" fill="#f8e6ba" fill-rule="evenodd"/>
                </g>
                <g id="Grupo_21631" data-name="Grupo 21631" transform="translate(6.421 3.39)">
                  <path id="Trazado_38442" data-name="Trazado 38442" d="M570.25,1044.754c2.125-3.357.383-7.073.317-6.136s-.6,1.007-1.7,2.523a2.943,2.943,0,0,0,.136,3.241A1.344,1.344,0,0,1,570.25,1044.754Z" transform="translate(-568.042 -1038.47)" fill="#aec6f2" fill-rule="evenodd"/>
                  <path id="Trazado_38443" data-name="Trazado 38443" d="M570.676,1077.987s-.132,1.472-.3,3.583c0,0,.2-.448,1.354.085.122-1.952.193-3.295.193-3.295A1.344,1.344,0,0,0,570.676,1077.987Z" transform="translate(-569.716 -1072.076)" fill="#eaaa28" fill-rule="evenodd"/>
                  <path id="Trazado_38444" data-name="Trazado 38444" d="M566.6,1101.2c-.412,5.254-1.036,14.468-.368,14.82.685.36,1.391-9.435,1.722-14.735C566.8,1100.749,566.6,1101.2,566.6,1101.2Z" transform="translate(-565.936 -1091.704)" fill="#f8e6ba" fill-rule="evenodd"/>
                </g>
                <g id="Grupo_21632" data-name="Grupo 21632" transform="translate(1.312)">
                  <path id="Trazado_38445" data-name="Trazado 38445" d="M533.965,1021.936c1.356-3.734-1.143-6.991-1.006-6.062s-.374,1.113-1.122,2.829a2.944,2.944,0,0,0,.827,3.136A1.343,1.343,0,0,1,533.965,1021.936Z" transform="translate(-531.637 -1015.714)" fill="#8093cd" fill-rule="evenodd"/>
                  <path id="Trazado_38446" data-name="Trazado 38446" d="M538.542,1056.139s.187,1.466.478,3.564c0,0,.1-.482,1.34-.208-.3-1.933-.518-3.26-.518-3.26A1.344,1.344,0,0,0,538.542,1056.139Z" transform="translate(-537.513 -1050.014)" fill="#ffc" fill-rule="evenodd"/>
                  <path id="Trazado_38447" data-name="Trazado 38447" d="M541.749,1079.093c.724,5.22,2.09,14.353,2.818,14.554.746.205-.664-9.514-1.478-14.761C541.852,1078.611,541.749,1079.093,541.749,1079.093Z" transform="translate(-540.243 -1069.403)" fill="#f0ca64" fill-rule="evenodd"/>
                </g>
                <g id="Grupo_21633" data-name="Grupo 21633" transform="translate(5.793 3.494)">
                  <path id="Trazado_38448" data-name="Trazado 38448" d="M591.241,1045.208c-.843-3.883,2.07-6.775,1.809-5.872s.222,1.153.732,2.954a2.944,2.944,0,0,1-1.24,3A1.344,1.344,0,0,0,591.241,1045.208Z" transform="translate(-586.713 -1039.17)" fill="#8093cd" fill-rule="evenodd"/>
                  <path id="Trazado_38449" data-name="Trazado 38449" d="M587.99,1079.04s-.382,1.428-.951,3.467c0,0-.038-.491-1.3-.386.556-1.875.951-3.161.951-3.161A1.344,1.344,0,0,1,587.99,1079.04Z" transform="translate(-582.16 -1072.922)" fill="#f8e6ba" fill-rule="evenodd"/>
                  <path id="Trazado_38450" data-name="Trazado 38450" d="M566.6,1101.225c-1.417,5.076-4,13.943-4.744,14.045-.767.1,1.934-9.339,3.444-14.43C566.558,1100.734,566.6,1101.225,566.6,1101.225Z" transform="translate(-561.718 -1091.64)" fill="#d8a432" fill-rule="evenodd"/>
                </g>
                <path id="Trazado_38451" data-name="Trazado 38451" d="M523.049,1114.617l3.089,13.6c.027.407,1.773.622,3.9.481s3.828-.586,3.8-.993l3.207-12.526c-.323.679-3.37,1.095-7.057.94C526.357,1115.962,523.391,1115.309,523.049,1114.617Z" transform="translate(-523.016 -1099.884)" fill="#edf5ff" fill-rule="evenodd"/>
              </g>
              <path id="Trazado_38452" data-name="Trazado 38452" d="M536.11,1112.518l.02-.078c-.012-.265-.775-.548-.96-.613a.14.14,0,1,1,.093-.265c.352.123,1.167.427,1.148.9a.136.136,0,0,1,0,.029l-.028.11a.145.145,0,0,1-.009.026c-.554,1.165-6.112,1.065-7.189,1.02-1.137-.048-6.485-.413-7.059-1.576a.14.14,0,0,1,.252-.124c.212.431,1.714.784,2.139.876a31.954,31.954,0,0,0,9.445.387c.394-.053,1.934-.285,2.153-.693Zm-12.711,3.933,1.709,7.522a.14.14,0,1,1-.274.062l-1.709-7.522a.14.14,0,0,1,.274-.062Zm9.777,8.66c-.019.8-3.43,1.083-3.933,1.117-.48.032-.961.048-1.442.043a.14.14,0,0,1,0-.281c.474,0,.948-.011,1.421-.042a14.753,14.753,0,0,0,2.682-.393c.113-.03,1-.288.988-.451a.142.142,0,0,1,0-.044l1.634-6.383a.14.14,0,0,1,.272.07l-1.629,6.365Zm1.678-7.688.623-2.435a.14.14,0,1,1,.272.07l-.623,2.434a.14.14,0,0,1-.272-.07Z" transform="translate(-522.107 -1097.278)" fill="#7a8dc8" fill-rule="evenodd"/>
            </g>
            <path id="Trazado_38453" data-name="Trazado 38453" d="M695.213,1170.109a34.325,34.325,0,0,1,16.53-3.436,32.21,32.21,0,0,0,7.286,3.858s-12.208,1.992-13.972,3.664Z" transform="translate(-640.867 -1144.164)" fill="#edf5ff" fill-rule="evenodd"/>
            <path id="Trazado_38454" data-name="Trazado 38454" d="M617.512,1168.691a34.324,34.324,0,0,1,16.8-1.693,32.211,32.211,0,0,0,6.844,4.6s-12.349.708-14.278,2.186Z" transform="translate(-574.741 -1144.16)" fill="#e4ebfd" fill-rule="evenodd"/>
          </g>
          <g id="Grupo_21640" data-name="Grupo 21640" transform="translate(88.668 39.089)">
            <path id="Trazado_38455" data-name="Trazado 38455" d="M671.634,1009.054s-5.621,7.512-5.875,15c0,0,1.309,2.347,11.7,4.334,0,0,2.128-11.063,6.363-14.492C683.818,1013.894,675.605,1009.2,671.634,1009.054Z" transform="translate(-665.759 -1009.054)" fill="#edf5ff" fill-rule="evenodd"/>
            <g id="Grupo_21639" data-name="Grupo 21639" transform="translate(8.615 4.735)">
              <path id="Trazado_38456" data-name="Trazado 38456" d="M757.631,1124.456c4.164,1.776,11.731-1.147,11.731-1.147s.009-.1.094-13.386-2.832-13.172-2.832-13.172a9.815,9.815,0,0,1-4.743-.354,12.994,12.994,0,0,0-6.424,2.872c-2.724-1.056-10.733-2.144-10.733-2.144-2.161-7.3-6.311-10.675-6.311-10.675a5.472,5.472,0,0,0-1.966.995c.1.461,1.536,11.215,5.7,13.966a33.668,33.668,0,0,0,11.044,4.242A135.256,135.256,0,0,0,757.631,1124.456Z" transform="translate(-734.531 -1079.656)" fill="#b8ccfc" fill-rule="evenodd"/>
              <path id="Trazado_38457" data-name="Trazado 38457" d="M856.984,1356.584a60.6,60.6,0,0,0,4.1-9.052,33.351,33.351,0,0,0,2.33,8.773c1.929,4.567,12.4,20.24,12.4,20.24a3.52,3.52,0,0,0,2.831-1.8s-5.06-16.142-9.138-20.372c-.659-15.821-3.612-20.485-3.612-20.485s-7.567,2.923-11.731,1.147c0,0-5.27,11.365-4.127,20.043s7.625,26.433,7.625,26.433,2.066.542,3.1-.542C860.764,1380.971,858.022,1362.363,856.984,1356.584Z" transform="translate(-831.061 -1290.237)" fill="#95a9e4" fill-rule="evenodd"/>
              <path id="Trazado_38458" data-name="Trazado 38458" d="M1012.155,1615.449c1.338.423,5.582-3.8,5.671-4.729s-1.382-2.545-1.382-2.545a3.52,3.52,0,0,1-2.831,1.8S1010.816,1615.026,1012.155,1615.449Z" transform="translate(-968.862 -1523.666)" fill="#e7bd58" fill-rule="evenodd"/>
              <path id="Trazado_38459" data-name="Trazado 38459" d="M864.82,1655.8c1.243.906,7.716-1.382,8.429-3.185s.1-2.649.1-2.649c-1.039,1.083-3.1.541-3.1.541S863.576,1654.89,864.82,1655.8Z" transform="translate(-843.651 -1559.227)" fill="#e7bd58" fill-rule="evenodd"/>
              <path id="Trazado_38460" data-name="Trazado 38460" d="M728.32,1048.489s1.25-4.855.79-4.677-1.285,1.6-1.285,1.6-.588-4.168-2.572-3.5,1.1,7.566,1.1,7.566A5.47,5.47,0,0,1,728.32,1048.489Z" transform="translate(-724.439 -1041.695)" fill="#e3817e" fill-rule="evenodd"/>
              <path id="Trazado_38461" data-name="Trazado 38461" d="M886.624,1078.081c.558,1.19,2,1.61,3.249,1.741l-.362,2.387a9.818,9.818,0,0,0,4.743.354l.234-4.318a1.468,1.468,0,0,1-1.159.008c-1.42-.6-1.526-2.583-1.526-2.583s1.3-.245,1.229-1.016-1.167-.677-1.167-.677a4.207,4.207,0,0,1,1.086-2.088s-2.8-.481-4.143-2.109C888.252,1070.857,885.672,1076.053,886.624,1078.081Z" transform="translate(-862.161 -1065.469)" fill="#e3817e" fill-rule="evenodd"/>
              <path id="Trazado_38462" data-name="Trazado 38462" d="M906.978,1053.424c1-2.76.3-3.616-.242-3.667,0,0-3.811-4.968-5.052-4.347a.551.551,0,0,0-.282.509c-1.591-.765-3.444-1.194-3.634.792a2.932,2.932,0,0,0,.689,2.218c1.344,1.628,4.143,2.109,4.143,2.109a4.207,4.207,0,0,0-1.086,2.088s1.092-.093,1.167.677-1.229,1.016-1.229,1.016.107,1.98,1.527,2.583a1.468,1.468,0,0,0,1.159-.008C905.2,1056.964,906.245,1055.447,906.978,1053.424Z" transform="translate(-871.811 -1044.618)" fill="#373191" fill-rule="evenodd"/>
              <g id="Grupo_21637" data-name="Grupo 21637" transform="translate(18.661 51.719)">
                <path id="Trazado_38463" data-name="Trazado 38463" d="M898.872,1501.963q-.956-6.494-1.952-12.982c-.406-2.646-.815-5.292-1.245-7.934-.161-.991-.324-1.982-.5-2.972-.1-.588-.2-1.192-.339-1.774a.148.148,0,0,1,.289-.067c.135.587.238,1.2.342,1.789.174.99.337,1.983.5,2.975.429,2.643.839,5.29,1.245,7.937q1,6.526,1.963,13.058a.144.144,0,0,1-.04.124,3.515,3.515,0,0,1-3.249.583.148.148,0,1,1,.074-.287A3.318,3.318,0,0,0,898.872,1501.963Z" transform="translate(-887.987 -1463)" fill="#272875" fill-rule="evenodd"/>
                <path id="Trazado_38464" data-name="Trazado 38464" d="M850.15,1406.481a29.345,29.345,0,0,0-.824,10.2,51.311,51.311,0,0,0,1.029,5.25c.489,2.035,1.046,4.057,1.634,6.066q.329,1.123.671,2.243a.148.148,0,0,1-.284.087q-.342-1.121-.672-2.246c-.589-2.014-1.147-4.04-1.637-6.08a51.689,51.689,0,0,1-1.035-5.281,29.627,29.627,0,0,1,.83-10.309.148.148,0,1,1,.289.068Z" transform="translate(-848.867 -1403.58)" fill="#272875" fill-rule="evenodd"/>
                <path id="Trazado_38465" data-name="Trazado 38465" d="M926.169,1392.292c-.55,1.618-1.147,3.234-1.756,4.83a.148.148,0,0,1-.277-.106c.608-1.593,1.2-3.2,1.753-4.82a.148.148,0,0,1,.281.1Z" transform="translate(-912.915 -1391.493)" fill="#272875" fill-rule="evenodd"/>
                <path id="Trazado_38466" data-name="Trazado 38466" d="M927.987,1445.334a33.084,33.084,0,0,0,1.79,5.659,33.926,33.926,0,0,0,1.837,3.521c.928,1.621,1.9,3.22,2.884,4.807a.148.148,0,0,1-.252.156c-.985-1.59-1.96-3.192-2.89-4.816a34.261,34.261,0,0,1-1.853-3.553,33.374,33.374,0,0,1-1.806-5.71.148.148,0,0,1,.289-.064Z" transform="translate(-915.952 -1436.701)" fill="#272875" fill-rule="evenodd"/>
                <path id="Trazado_38467" data-name="Trazado 38467" d="M973.737,1400.527a.148.148,0,0,1-.014-.057,94,94,0,0,0-1.214-12.251.148.148,0,1,1,.292-.051,94.133,94.133,0,0,1,1.216,12.234,17.975,17.975,0,0,1,2.521,3.769c.921,1.716,1.729,3.513,2.482,5.309,1.533,3.656,2.944,7.523,4.131,11.312a.144.144,0,0,1-.015.122,3.761,3.761,0,0,1-2.958,1.869.148.148,0,1,1,0-.3,3.456,3.456,0,0,0,2.668-1.671c-1.18-3.759-2.58-7.595-4.1-11.222-.749-1.787-1.554-3.575-2.47-5.283a17.489,17.489,0,0,0-2.513-3.744A.144.144,0,0,1,973.737,1400.527Z" transform="translate(-954.089 -1388.045)" fill="#272875" fill-rule="evenodd"/>
              </g>
              <g id="Grupo_21638" data-name="Grupo 21638" transform="translate(1.767 6.646)">
                <path id="Trazado_38468" data-name="Trazado 38468" d="M755.943,1163.208a8.668,8.668,0,0,0,2.641,3.333,27.009,27.009,0,0,0,6.775,3.1.148.148,0,1,1-.089.283,27.3,27.3,0,0,1-6.849-3.136,8.93,8.93,0,0,1-2.742-3.447.148.148,0,1,1,.265-.134Z" transform="translate(-752.652 -1151.557)" fill="#6666c7" fill-rule="evenodd"/>
                <path id="Trazado_38469" data-name="Trazado 38469" d="M889.407,1181.2c0-.049,0-.1,0-.143.006-.495.009-.99.012-1.484q.043-5.828.077-11.656c.02-3.154-.061-8.55-1.351-11.51-.167-.384-.776-1.536-1.327-1.513a.148.148,0,0,1-.012-.3c.728-.03,1.378,1.158,1.611,1.691,1.312,3.01,1.4,8.422,1.376,11.63q-.037,5.828-.077,11.656,0,.742-.012,1.485c0,.081,0,.177-.005.258a.145.145,0,0,1-.094.124c-3.11,1.2-8.662,2.5-11.843,1.145a.148.148,0,0,1,.116-.273C880.943,1183.625,886.363,1182.363,889.407,1181.2Z" transform="translate(-856.486 -1144.3)" fill="#6666c7" fill-rule="evenodd"/>
                <path id="Trazado_38470" data-name="Trazado 38470" d="M869.144,1184.817a2.8,2.8,0,0,1,.3-.408,4.765,4.765,0,0,0,.477-.735,5.455,5.455,0,0,0,.534-2.9.148.148,0,1,1,.3-.019,5.743,5.743,0,0,1-.567,3.052,5.067,5.067,0,0,1-.506.781,3.3,3.3,0,0,0-.267.346.148.148,0,1,1-.271-.12Z" transform="translate(-849.219 -1166.445)" fill="#6666c7" fill-rule="evenodd"/>
                <path id="Trazado_38471" data-name="Trazado 38471" d="M848.08,1213.852c.376.086.753.169,1.13.253a.148.148,0,1,1-.065.289q-.511-.114-1.023-.229a102.547,102.547,0,0,0,2.437,11.649.148.148,0,1,1-.287.075,101.37,101.37,0,0,1-2.486-11.99.148.148,0,0,1,.293-.046Z" transform="translate(-831.053 -1194.622)" fill="#6666c7" fill-rule="evenodd"/>
                <path id="Trazado_38472" data-name="Trazado 38472" d="M737.593,1085.458a.148.148,0,0,1,.067.031,15.763,15.763,0,0,1,2.385,2.64,25.949,25.949,0,0,1,3.947,8.017c2.041.281,8.137,1.178,10.589,2.105a12.872,12.872,0,0,1,6.439-2.848.148.148,0,0,1,.029.3,12.581,12.581,0,0,0-6.157,2.679,2.863,2.863,0,0,1,.456.244.148.148,0,0,1-.168.245,2.969,2.969,0,0,0-.538-.275l-.018.016a.148.148,0,0,1-.246-.118c-2.485-.9-8.661-1.807-10.52-2.062a.146.146,0,0,1-.122-.1,25.686,25.686,0,0,0-3.928-8.016,15.822,15.822,0,0,0-2.273-2.535,5.758,5.758,0,0,0-1.834.937.148.148,0,1,1-.2-.217,6.126,6.126,0,0,1,2.022-1.027A.143.143,0,0,1,737.593,1085.458Z" transform="translate(-735.452 -1085.455)" fill="#6666c7" fill-rule="evenodd"/>
              </g>
              <path id="Trazado_38473" data-name="Trazado 38473" d="M909.1,1128.936l-.168,1.108a.148.148,0,1,1-.293-.044l.168-1.108a.148.148,0,0,1,.293.044Z" transform="translate(-881.07 -1115.668)" fill="#fff" fill-rule="evenodd"/>
              <path id="Trazado_38474" data-name="Trazado 38474" d="M728.219,1043.152a6.6,6.6,0,0,0-1.113,1.481.148.148,0,0,1-.275-.053c-.148-1.029-.829-3.9-2.378-3.376-1.02.346-.384,2.8-.2,3.5a.148.148,0,1,1-.286.077c-.241-.9-.886-3.427.389-3.858,1.641-.556,2.431,1.833,2.7,3.217a3.935,3.935,0,0,1,1.153-1.321.2.2,0,0,1,.139,0c.261.089.145.724.119.92-.071.527-.182,1.06-.294,1.58a.148.148,0,0,1-.29-.062A14.7,14.7,0,0,0,728.219,1043.152Z" transform="translate(-723.591 -1040.842)" fill="#fff" fill-rule="evenodd"/>
            </g>
          </g>
        </g>
      </g>
    </g>
  </g>
</svg>
