<svg xmlns="http://www.w3.org/2000/svg" width="122" height="122" viewBox="0 0 122 122">
  <g id="Grupo_22089" data-name="Grupo 22089" transform="translate(-1174 -12285)">
    <circle id="Elipse_1063" data-name="Elipse 1063" cx="61" cy="61" r="61" transform="translate(1174 12285)" fill="#777876"/>
    <path id="Trazado_39145" data-name="Trazado 39145" d="M19.063-6.777a7.513,7.513,0,0,1-.6,3.066,5.952,5.952,0,0,1-1.758,2.275A8,8,0,0,1,13.828-.029,14.833,14.833,0,0,1,9.863.449,14.792,14.792,0,0,1,6.094.02,7.707,7.707,0,0,1,3.379-1.24,5.223,5.223,0,0,1,1.738-3.291a6.792,6.792,0,0,1-.547-2.8,6.235,6.235,0,0,1,.322-2.021,5.936,5.936,0,0,1,.957-1.758A8.426,8.426,0,0,1,4.053-11.4,15.844,15.844,0,0,1,6.23-12.754a12.808,12.808,0,0,1-1.8-1.182,7.637,7.637,0,0,1-1.367-1.387,5.62,5.62,0,0,1-.859-1.65,6.267,6.267,0,0,1-.293-1.953,6.884,6.884,0,0,1,.537-2.764,5.857,5.857,0,0,1,1.6-2.148,7.353,7.353,0,0,1,2.666-1.4,12.753,12.753,0,0,1,3.711-.488,12.546,12.546,0,0,1,3.584.449A6.661,6.661,0,0,1,16.465-24a5.018,5.018,0,0,1,1.416,1.963,6.728,6.728,0,0,1,.459,2.529,5.4,5.4,0,0,1-.3,1.787,6.727,6.727,0,0,1-.85,1.65A8.113,8.113,0,0,1,15.84-14.6a10.8,10.8,0,0,1-1.816,1.26,15.694,15.694,0,0,1,2.129,1.328A8.583,8.583,0,0,1,17.734-10.5a6.3,6.3,0,0,1,.986,1.729A5.665,5.665,0,0,1,19.063-6.777ZM13.4-19.043a3.642,3.642,0,0,0-.2-1.23,2.256,2.256,0,0,0-.615-.928,2.758,2.758,0,0,0-1.035-.576,4.829,4.829,0,0,0-1.455-.2,3.458,3.458,0,0,0-2.441.752,2.715,2.715,0,0,0-.8,2.08,3.153,3.153,0,0,0,.205,1.152,3.183,3.183,0,0,0,.635,1,5.893,5.893,0,0,0,1.113.918q.684.449,1.621.957a8,8,0,0,0,2.2-1.8A3.31,3.31,0,0,0,13.4-19.043Zm.586,12.617a3.445,3.445,0,0,0-.244-1.318,3.508,3.508,0,0,0-.762-1.123,7.038,7.038,0,0,0-1.3-1.016,20.393,20.393,0,0,0-1.816-1A15.292,15.292,0,0,0,8.281-9.9,6.045,6.045,0,0,0,7.148-8.877a3.921,3.921,0,0,0-.674,1.133A3.6,3.6,0,0,0,6.25-6.465a2.819,2.819,0,0,0,.986,2.324,4.588,4.588,0,0,0,2.939.8,4.276,4.276,0,0,0,2.861-.82A2.839,2.839,0,0,0,13.984-6.426Z" transform="translate(1225 12354)" fill="#fff"/>
  </g>
</svg>
