<svg xmlns="http://www.w3.org/2000/svg" width="266" height="266" viewBox="0 0 266 266">
  <g id="Grupo_22095" data-name="Grupo 22095" transform="translate(-422 -3111)">
    <g id="Grupo_22069" data-name="Grupo 22069">
      <circle id="Elipse_1053" data-name="Elipse 1053" cx="133" cy="133" r="133" transform="translate(422 3111)" fill="#f0c4c6"/>
      <g id="Grupo_21799" data-name="Grupo 21799" transform="translate(310.3 2538.772)">
        <g id="Grupo_21784" data-name="Grupo 21784" transform="translate(133.7 629.961)">
          <g id="Grupo_21774" data-name="Grupo 21774" transform="translate(0 8.484)">
            <g id="Grupo_21766" data-name="Grupo 21766">
              <path id="Trazado_38793" data-name="Trazado 38793" d="M177.464,761.654c-1.277-.755-2.645-1.494-4.082-2.211-13.341-6.653-32.563-11.347-38.447-8.18-1.527,8.074,18.388,31.307,31.715,36.916,8.413,3.541,15.88.99,19.609-3.951a12.649,12.649,0,0,0,1.547-2.669c1.994-4.693,1.074-10.611-4.372-15.62A35.907,35.907,0,0,0,177.464,761.654Z" transform="translate(-134.769 -750.168)" fill="#fff" fill-rule="evenodd"/>
              <path id="Trazado_38794" data-name="Trazado 38794" d="M173.332,788.825a20.117,20.117,0,0,1-7.786-1.655c-6.17-2.6-14.393-9.324-21.46-17.556s-11.015-15.683-10.3-19.443l.007-.035.034-.018c2.779-1.5,8.635-1.354,16.489.4a100.778,100.778,0,0,1,22.04,7.78c1.458.727,2.833,1.472,4.088,2.213h0a35.922,35.922,0,0,1,5.984,4.295c4.981,4.582,6.623,10.452,4.39,15.7a12.7,12.7,0,0,1-1.556,2.685,14.284,14.284,0,0,1-8.1,5.187A16.368,16.368,0,0,1,173.332,788.825Zm-39.39-38.593c-.672,3.73,3.26,11.112,10.276,19.285,7.051,8.214,15.25,14.924,21.4,17.511,8.676,3.651,16.046.659,19.506-3.925a12.608,12.608,0,0,0,1.537-2.653c2.207-5.192.58-11-4.353-15.536a35.74,35.74,0,0,0-5.955-4.275c-1.252-.74-2.623-1.482-4.077-2.207C159.439,752.032,139.928,747.067,133.942,750.232Z" transform="translate(-133.7 -749.089)" fill="#8eace8"/>
            </g>
            <g id="Grupo_21767" data-name="Grupo 21767" transform="translate(0.117 1.031)">
              <path id="Trazado_38795" data-name="Trazado 38795" d="M186.666,796.652l-51.324-32.965.1-.127,51.324,32.965Z" transform="translate(-135.342 -763.56)" fill="#8eace8"/>
            </g>
            <g id="Grupo_21768" data-name="Grupo 21768" transform="translate(7.288 13.571)">
              <path id="Trazado_38796" data-name="Trazado 38796" d="M236.074,942.734l-.043-.15c4.913-1.2,12.324-2.934,12.4-2.951l.042.151C248.4,939.8,240.986,941.538,236.074,942.734Z" transform="translate(-236.031 -939.633)" fill="#8eace8"/>
            </g>
            <g id="Grupo_21769" data-name="Grupo 21769" transform="translate(9.538 15.364)">
              <path id="Trazado_38797" data-name="Trazado 38797" d="M267.671,968.946l-.053-.147,12.932-3.989.053.147Z" transform="translate(-267.617 -964.809)" fill="#8eace8"/>
            </g>
            <g id="Grupo_21770" data-name="Grupo 21770" transform="translate(31.318 6.074)">
              <path id="Trazado_38798" data-name="Trazado 38798" d="M575.769,850.967l-2.345-16.579.167-.02,2.345,16.579Z" transform="translate(-573.424 -834.367)" fill="#8eace8"/>
            </g>
            <g id="Grupo_21771" data-name="Grupo 21771" transform="translate(25.926 28.264)">
              <path id="Trazado_38799" data-name="Trazado 38799" d="M497.778,1152.442l-.065-.143,16.62-6.363.065.143Z" transform="translate(-497.714 -1145.936)" fill="#8eace8"/>
            </g>
            <g id="Grupo_21772" data-name="Grupo 21772" transform="translate(40.13 10.324)">
              <path id="Trazado_38800" data-name="Trazado 38800" d="M697.321,910.536l-.168,0,.425-16.492.168,0Z" transform="translate(-697.153 -894.04)" fill="#8eace8"/>
            </g>
            <g id="Grupo_21773" data-name="Grupo 21773" transform="translate(10.221 0.361)">
              <path id="Trazado_38801" data-name="Trazado 38801" d="M281.407,764.115c-.613-1.512-2.249-5.5-4.193-9.905l.156-.059c1.946,4.4,3.582,8.4,4.2,9.91Z" transform="translate(-277.214 -754.151)" fill="#8eace8"/>
            </g>
          </g>
          <g id="Grupo_21783" data-name="Grupo 21783" transform="translate(47.449 0)">
            <g id="Grupo_21775" data-name="Grupo 21775">
              <path id="Trazado_38802" data-name="Trazado 38802" d="M823.889,651.784c-.428-.877-.915-1.777-1.451-2.688-4.977-8.454-14.147-17.814-18.836-18.024-4.18,4.129-2.185,24.422,3.211,32.27,3.406,4.954,8.756,6.066,12.926,4.507a9.963,9.963,0,0,0,1.983-1c3.068-2.017,4.955-5.749,3.86-10.523A21.679,21.679,0,0,0,823.889,651.784Z" transform="translate(-801.255 -630.994)" fill="#ebf2ff" fill-rule="evenodd"/>
              <path id="Trazado_38803" data-name="Trazado 38803" d="M814.792,667.535a11.283,11.283,0,0,1-9.384-5.183c-5.437-7.909-7.442-28.175-3.2-32.364l.027-.026.039,0c2.222.1,5.548,2.211,9.367,5.944a61.07,61.07,0,0,1,9.539,12.12c.544.923,1.033,1.829,1.454,2.693a21.728,21.728,0,0,1,1.7,4.552c1,4.377-.452,8.34-3.894,10.6a10.074,10.074,0,0,1-2,1.013A10.443,10.443,0,0,1,814.792,667.535ZM802.3,630.12c-1.9,1.922-2.642,7.528-1.936,14.654.711,7.175,2.7,13.878,5.184,17.495a10.878,10.878,0,0,0,12.822,4.476,9.943,9.943,0,0,0,1.966-1c3.386-2.226,4.816-6.13,3.827-10.444a21.58,21.58,0,0,0-1.687-4.521h0c-.42-.86-.907-1.763-1.449-2.683C816.249,639.981,807.045,630.382,802.3,630.12Z" transform="translate(-799.921 -629.961)" fill="#7690c9"/>
            </g>
            <g id="Grupo_21776" data-name="Grupo 21776" transform="translate(2.268 0.05)">
              <path id="Trazado_38804" data-name="Trazado 38804" d="M847.9,667.5l-16.137-36.776.157-.058,16.137,36.776Z" transform="translate(-831.766 -630.666)" fill="#7690c9"/>
            </g>
            <g id="Grupo_21777" data-name="Grupo 21777" transform="translate(0.107 11.421)">
              <path id="Trazado_38805" data-name="Trazado 38805" d="M809.775,793.054c-.05-.015-5.034-1.577-8.357-2.588l.053-.147c3.323,1.01,8.308,2.573,8.358,2.589Z" transform="translate(-801.418 -790.319)" fill="#7690c9"/>
            </g>
            <g id="Grupo_21778" data-name="Grupo 21778" transform="translate(0.256 13.832)">
              <path id="Trazado_38806" data-name="Trazado 38806" d="M812.61,826.494l-9.09-2.174.043-.15,9.09,2.174Z" transform="translate(-803.52 -824.17)" fill="#7690c9"/>
            </g>
            <g id="Grupo_21779" data-name="Grupo 21779" transform="translate(12.828 13.733)">
              <path id="Trazado_38807" data-name="Trazado 38807" d="M980.194,833.226l-.152-.067,5.422-10.375.152.067Z" transform="translate(-980.042 -822.783)" fill="#7690c9"/>
            </g>
            <g id="Grupo_21780" data-name="Grupo 21780" transform="translate(3.48 28.313)">
              <path id="Trazado_38808" data-name="Trazado 38808" d="M860.964,1029.73l-12.187-2.081.03-.153,12.187,2.081Z" transform="translate(-848.777 -1027.497)" fill="#7690c9"/>
            </g>
            <g id="Grupo_21781" data-name="Grupo 21781" transform="translate(14.869 19.367)">
              <path id="Trazado_38809" data-name="Trazado 38809" d="M1008.826,911.336l-.139-.088,6.984-9.366.139.088Z" transform="translate(-1008.687 -901.883)" fill="#7690c9"/>
            </g>
            <g id="Grupo_21782" data-name="Grupo 21782" transform="translate(6.769 3.165)">
              <path id="Trazado_38810" data-name="Trazado 38810" d="M895.127,681.6l-.165-.034c.262-1.075.946-3.925,1.628-7.164l.165.03C896.073,677.67,895.389,680.522,895.127,681.6Z" transform="translate(-894.962 -674.399)" fill="#7690c9"/>
            </g>
          </g>
        </g>
        <path id="Trazado_38811" data-name="Trazado 38811" d="M397.052,844.946c-102.377,40.993-249.258-79.72-117.87-115.733,32.362-8.869,88.183-33.743,126.2-24.18C456.6,717.916,469.726,815.846,397.052,844.946Z" transform="translate(-86.819 -67.726)" fill="#f2f9ff" fill-rule="evenodd"/>
        <g id="Grupo_21786" data-name="Grupo 21786" transform="translate(174.806 666.693)">
          <path id="Trazado_38812" data-name="Trazado 38812" d="M1225.315,2119.755l5.18,30.364h2.038l-2.325-31.539S1228.138,2119.118,1225.315,2119.755Z" transform="translate(-1188.674 -2049.29)" fill="#8eace8" fill-rule="evenodd"/>
          <path id="Trazado_38813" data-name="Trazado 38813" d="M748.565,1731.751c3.06.185,9.318-1.059,13.733-2.057,2.823-.638,4.892-1.175,4.892-1.175,5.959-2.21,5.574-14.8-1.73-16.915s-8.361-5-15.666-10.091c-6.677-4.656-21.063-3.129-22.824.471,0,0-.035.078-.094.23a1.614,1.614,0,0,0-.051.837c.865,4.325,2.211,6.151,13.167,12.4,10.8,6.158,8.059,15.958,7.979,16.236Z" transform="translate(-725.658 -1659.23)" fill="#b2ceff" fill-rule="evenodd"/>
          <g id="Grupo_21785" data-name="Grupo 21785" transform="translate(0.237 0)">
            <path id="Trazado_38814" data-name="Trazado 38814" d="M1068.9,2552.475c.625,1.393,8.313,2.619,8.65,1.562s-5.287-4.373-5.287-4.373-.745.312-3.34-.072A3.943,3.943,0,0,0,1068.9,2552.475Z" transform="translate(-1043.381 -2449.604)" fill="#7690c9" fill-rule="evenodd"/>
            <path id="Trazado_38815" data-name="Trazado 38815" d="M1351.313,2515.965c.625.481,8.145.024,8.578-1.465s-6.128-2.691-6.128-2.691-.192,1.3-3.027,1.3C1350.735,2513.106,1350.688,2515.484,1351.313,2515.965Z" transform="translate(-1305.398 -2414.512)" fill="#7690c9" fill-rule="evenodd"/>
            <path id="Trazado_38816" data-name="Trazado 38816" d="M751.254,1460.679l-2.509,6.6s-5,8.014-.383,15.126,24.027,5.959,24.027,5.959-.682,1.029-1.365,5.572a23.75,23.75,0,0,0,8.756-.194,17.414,17.414,0,0,0,6.61-2.876c-1.726-6.561-3.5-12.091-4.871-13.457-3.844-3.844-15.585-6.4-15.585-6.4,1.713-2.712,4.084-10.186,5.192-13.855l1.392.283c.637-1,1.184-1.831,1.489-2.334,0,0,1.37-4.349,1.9-4.3s-.024,1.874-.024,1.874.5-.685,1.163-1.427c0-1.753-.16-3.95-.875-5.036a10.18,10.18,0,0,0-2.2-2.159c-9.074,6.442-15.8-2.2-15.8-2.2-.511.1-1.049.224-1.609.367-2.754.7-6.412,4.3-9.052,9.1,0,0,.271,2.107,6.56,4.791A41.586,41.586,0,0,1,751.254,1460.679Z" transform="translate(-744.111 -1420.769)" fill="#e73c6f" fill-rule="evenodd"/>
            <path id="Trazado_38817" data-name="Trazado 38817" d="M924.141,1241.238a5.425,5.425,0,0,0,1.012,0c4.084-.336,2.5-10.292,2.5-10.292a19.537,19.537,0,0,1-7.957,2.991,1.827,1.827,0,0,0-1.562.24c-.553.529-.072,1.538.865,1.85l-1.225,9.442a22.309,22.309,0,0,0-6.176.5s6.722,8.638,15.8,2.2a32.425,32.425,0,0,0-3.325-2.213Z" transform="translate(-897.541 -1224.878)" fill="#ff837f" fill-rule="evenodd"/>
            <path id="Trazado_38818" data-name="Trazado 38818" d="M718.811,1567.262c5.705-.072,15.274-5.361,20.456-10.735a7,7,0,0,0,2.541-1.478c2.17-1.806,4.18-4.647,3.274-5.37-1.275-1.017-4.084,2.811-4.084,2.811s.817-2.115.192-1.97-3.364,4.709-3.364,4.709a89.491,89.491,0,0,0-16.505,5.428,41.6,41.6,0,0,0,2.817-4.556c-6.288-2.684-6.56-4.791-6.56-4.791a26.528,26.528,0,0,0-3.394,11.464C714.054,1566.019,715.945,1567.3,718.811,1567.262Z" transform="translate(-714.176 -1520.747)" fill="#ff837f" fill-rule="evenodd"/>
            <path id="Trazado_38819" data-name="Trazado 38819" d="M1055.54,1567.062c3.863,2.048,5.147-4.571,6.829-12.447.173-.811,4.9-5.1,3.755-6.486-.544-.661-1.854.556-2.826,1.649-.66.742-1.163,1.427-1.163,1.427s.553-1.826.024-1.874-1.9,4.3-1.9,4.3c-.305.5-.852,1.33-1.489,2.335C1056.447,1559.632,1052.917,1565.671,1055.54,1567.062Z" transform="translate(-1030.365 -1519.294)" fill="#ff837f" fill-rule="evenodd"/>
            <path id="Trazado_38820" data-name="Trazado 38820" d="M1059.218,1664.2a35.913,35.913,0,0,1,3.791-7.292l-1.392-.283c-.568,1.883-1.47,4.767-2.444,7.5Z" transform="translate(-1034.602 -1620.234)" fill="#ff837f" fill-rule="evenodd"/>
            <path id="Trazado_38821" data-name="Trazado 38821" d="M1211.979,2133.918c3.183,9.894,9.883,24.539,9.883,24.539,2.835,0,3.027-1.3,3.027-1.3s-2.955-15.295-6.086-27.2a17.409,17.409,0,0,1-6.61,2.876C1212.13,2133.173,1212.058,2133.533,1211.979,2133.918Z" transform="translate(-1176.525 -2059.864)" fill="#ff837f" fill-rule="evenodd"/>
            <path id="Trazado_38822" data-name="Trazado 38822" d="M1076.11,2197.434c.957-2.872,5.088-18.789,6.575-26,.079-.385.151-.745.214-1.077a23.748,23.748,0,0,1-8.756.194c-.686,4.56-1.373,12.661-1.373,26.816C1075.365,2197.747,1076.11,2197.434,1076.11,2197.434Z" transform="translate(-1047.23 -2097.375)" fill="#ff837f" fill-rule="evenodd"/>
            <path id="Trazado_38823" data-name="Trazado 38823" d="M823.741,1167.162c.56-.143,1.1-.264,1.609-.367a22.312,22.312,0,0,1,6.176-.5l1.225-9.442c-.937-.312-1.418-1.321-.865-1.85a1.828,1.828,0,0,1,1.562-.24,19.532,19.532,0,0,0,7.957-2.991,5.247,5.247,0,0,0,1.99-1.766c.288-1.057.336-3.316-1.73-4.133s-5.43,1.538-5.43,1.538-3.556-.529-6.68,4.229-1.2,5.91-5.142,8.121c-3.673,2.06-6.4,5.345-5.508,10.684A11.355,11.355,0,0,1,823.741,1167.162Z" transform="translate(-811.289 -1145.703)" fill="#372d96" fill-rule="evenodd"/>
            <path id="Trazado_38824" data-name="Trazado 38824" d="M750.216,1959.626a11.841,11.841,0,0,0,1.54,3.491c2.081,3.208,7.142,4.555,10.682,5.172a58.237,58.237,0,0,0,9,.783c1.389.022,2.825.021,4.213-.062a.145.145,0,0,1,.018.29c-1.4.083-2.839.085-4.235.063a58.484,58.484,0,0,1-9.047-.788c-3.635-.634-8.74-2.008-10.875-5.3a12.14,12.14,0,0,1-1.578-3.577.145.145,0,0,1,.281-.073Z" transform="translate(-747.384 -1901.556)" fill="#222378" fill-rule="evenodd"/>
            <path id="Trazado_38825" data-name="Trazado 38825" d="M1023.75,1806.092l-.02-.005a.146.146,0,0,1-.1-.135.139.139,0,0,1,0-.024c.143-.951.307-1.9.513-2.841a.145.145,0,0,1,.284.062c-.195.888-.352,1.786-.489,2.685a22.43,22.43,0,0,0,5.045.253,18.767,18.767,0,0,0,9.992-3.267c-.711-2.7-3.034-11.522-4.808-13.3-3.022-3.022-11.321-5.443-15.513-6.361a.145.145,0,0,1-.092-.22,29.15,29.15,0,0,0,2.268-5.052.145.145,0,0,1,.272.1,30.909,30.909,0,0,1-2.186,4.931c4.318.964,12.431,3.369,15.457,6.395,1.862,1.862,4.208,10.857,4.909,13.523a.144.144,0,0,1-.015.11.135.135,0,0,1-.022.029.131.131,0,0,1-.022.018,19.011,19.011,0,0,1-10.223,3.377A22.366,22.366,0,0,1,1023.75,1806.092Z" transform="translate(-996.863 -1732.778)" fill="#222378" fill-rule="evenodd"/>
            <path id="Trazado_38826" data-name="Trazado 38826" d="M766.391,1577.794a18.577,18.577,0,0,1-5.542-3.361,3.509,3.509,0,0,1-.964-1.485.145.145,0,0,1,.288-.037,3.408,3.408,0,0,0,.882,1.318,18.383,18.383,0,0,0,5.476,3.309c.551-1.022,1.068-2.074,1.5-3.1a.145.145,0,1,1,.268.113,43.052,43.052,0,0,1-2.76,5.3.145.145,0,1,1-.249-.151C765.662,1579.088,766.033,1578.448,766.391,1577.794Z" transform="translate(-756.627 -1542.366)" fill="#222378" fill-rule="evenodd"/>
            <path id="Trazado_38827" data-name="Trazado 38827" d="M1112.5,1569.783c.231-.74.493-1.488.768-2.211.137-.36.789-2.218,1.277-2.174.449.041.4.774.276,1.372.24-.3.491-.6.741-.876a.145.145,0,0,1,.217.193c-.4.448-.8.932-1.154,1.416a.145.145,0,0,1-.256-.128c.049-.163.434-1.662.163-1.688-.415.132-1.589,3.654-1.759,4.2a.147.147,0,0,1-.014.032c-.477.787-1,1.559-1.491,2.337a.145.145,0,1,1-.245-.156C1111.506,1571.328,1112.022,1570.563,1112.5,1569.783Z" transform="translate(-1082.732 -1535.506)" fill="#fff" fill-rule="evenodd"/>
            <path id="Trazado_38828" data-name="Trazado 38828" d="M1070.857,2221.432a.146.146,0,0,1-.127-.144c0-5.608.094-11.238.419-16.837a.145.145,0,1,1,.29.017c-.322,5.552-.417,11.134-.419,16.694a10.525,10.525,0,0,0,3.079.086c.218-.66.407-1.341.6-2.01.318-1.127.625-2.258.928-3.389q1.2-4.475,2.316-8.972c.883-3.534,1.755-7.088,2.518-10.649a.145.145,0,0,1,.284.061c-.764,3.565-1.636,7.122-2.52,10.659q-1.124,4.5-2.317,8.977c-.3,1.133-.61,2.265-.929,3.393-.2.7-.394,1.4-.623,2.089a.141.141,0,0,1-.081.088A10.056,10.056,0,0,1,1070.857,2221.432Z" transform="translate(-1045.336 -2121.301)" fill="#fff" fill-rule="evenodd"/>
            <path id="Trazado_38829" data-name="Trazado 38829" d="M1054.984,1363.31a.145.145,0,0,1,.27.077v.083a.093.093,0,0,1,0,.016.145.145,0,0,1-.159.13,8.284,8.284,0,0,1-2.393-.781.145.145,0,0,1,.113-.268A8.738,8.738,0,0,0,1054.984,1363.31Z" transform="translate(-1028.507 -1347.111)" fill="#fff" fill-rule="evenodd"/>
            <path id="Trazado_38830" data-name="Trazado 38830" d="M797.76,1554.509l.01,0a8.9,8.9,0,0,0,3.411-2.294,12.708,12.708,0,0,0,2.017-2.514c.211-.361.7-1.289.409-1.7a.4.4,0,0,0-.079-.083c-1.017-.811-3.361,2.084-3.877,2.784a.145.145,0,0,1-.252-.139c.088-.226.568-1.613.39-1.78a.08.08,0,0,0-.029,0c-.487.112-2.861,3.956-3.272,4.643a.141.141,0,0,1-.037.041.146.146,0,0,1-.054.026,100.238,100.238,0,0,0-14.322,4.47c-1.095.45-2.188.933-3.241,1.474-.344.177-.71.366-1.038.573a.145.145,0,1,1-.155-.246c.336-.211.708-.4,1.06-.586,1.061-.545,2.161-1.031,3.264-1.484a100.321,100.321,0,0,1,14.3-4.47c.537-.894,2.778-4.575,3.425-4.724.553-.128.429.691.241,1.366.973-1.173,2.756-2.992,3.774-2.179,1.2.96-1.683,4.1-2.324,4.733a9.231,9.231,0,0,1-3.506,2.359,39.071,39.071,0,0,1-7.314,5.776c-3.519,2.2-8.991,4.92-13.215,4.974a.145.145,0,1,1,0-.291c4.163-.053,9.6-2.762,13.065-4.93a38.756,38.756,0,0,0,7.288-5.761A.146.146,0,0,1,797.76,1554.509Z" transform="translate(-772.714 -1518.868)" fill="#fff" fill-rule="evenodd"/>
            <path id="Trazado_38831" data-name="Trazado 38831" d="M1073.827,1268.2a.342.342,0,0,1,.333.386.413.413,0,0,1-.434.34.342.342,0,0,1-.333-.386A.413.413,0,0,1,1073.827,1268.2Z" transform="translate(-1047.806 -1259.479)" fill="#434242" fill-rule="evenodd"/>
            <path id="Trazado_38832" data-name="Trazado 38832" d="M1116.956,1267.784a.343.343,0,0,1,.333.387.413.413,0,0,1-.434.34.342.342,0,0,1-.333-.386A.413.413,0,0,1,1116.956,1267.784Z" transform="translate(-1087.864 -1259.089)" fill="#434242" fill-rule="evenodd"/>
            <path id="Trazado_38833" data-name="Trazado 38833" d="M1076.541,1319.812a10.43,10.43,0,0,0,2.21,1.058,1.5,1.5,0,0,1-1.57.268A1.351,1.351,0,0,1,1076.541,1319.812Z" transform="translate(-1050.729 -1307.412)" fill="#fff" fill-rule="evenodd"/>
            <path id="Trazado_38834" data-name="Trazado 38834" d="M1111.056,1251.132a1.534,1.534,0,0,1,.547-.285,1.162,1.162,0,0,1,1.172.326.059.059,0,1,1-.083.084,1.045,1.045,0,0,0-1.058-.3,1.421,1.421,0,0,0-.5.26.059.059,0,0,1-.078-.089Z" transform="translate(-1082.771 -1243.315)" fill="#434242" fill-rule="evenodd"/>
            <path id="Trazado_38835" data-name="Trazado 38835" d="M1101.454,1289.937c0-.033-.009-.083-.012-.109-.011-.091-.025-.182-.038-.272-.069-.457-.145-.913-.223-1.369a.059.059,0,0,1,.117-.02c.079.46.156.922.225,1.384a2.767,2.767,0,0,1,.048.42c-.014.08-.139.1-.2.1a2.974,2.974,0,0,1-.326.02c-.158,0-.32,0-.478-.006a.059.059,0,1,1,.005-.118A4.385,4.385,0,0,0,1101.454,1289.937Z" transform="translate(-1072.991 -1277.975)" fill="#434242" fill-rule="evenodd"/>
            <path id="Trazado_38836" data-name="Trazado 38836" d="M1060.827,1251.013a1.545,1.545,0,0,1,.478-.389,1.163,1.163,0,0,1,1.214.084.059.059,0,1,1-.064.1,1.045,1.045,0,0,0-1.1-.078,1.424,1.424,0,0,0-.438.356.059.059,0,0,1-.094-.072Z" transform="translate(-1036.126 -1243.028)" fill="#434242" fill-rule="evenodd"/>
          </g>
          <path id="Trazado_38837" data-name="Trazado 38837" d="M721.408,1776.247a66.874,66.874,0,0,0,11.755,2.464c.081-.279,2.821-10.078-7.979-16.236-10.956-6.247-12.3-8.073-13.167-12.4a1.613,1.613,0,0,1,.051-.836c-.64,1.646-4.07,11.961,4.466,25.248l.07.031A46.837,46.837,0,0,0,721.408,1776.247Z" transform="translate(-710.849 -1706.256)" fill="#84b3d3" fill-rule="evenodd"/>
          <path id="Trazado_38838" data-name="Trazado 38838" d="M761.093,2139.751l5.088-33.851a46.753,46.753,0,0,1-4.8-1.727l-2.321,35.578Z" transform="translate(-755.622 -2035.91)" fill="#8eace8" fill-rule="evenodd"/>
        </g>
        <g id="Grupo_21792" data-name="Grupo 21792" transform="translate(227.496 663.268)">
          <g id="Grupo_21790" data-name="Grupo 21790" transform="translate(0 0)">
            <g id="Grupo_21787" data-name="Grupo 21787" transform="translate(0 34.81)">
              <path id="Trazado_38839" data-name="Trazado 38839" d="M1479.973,2038.581l5.052-31.068c-2.823-.638-4.892-1.175-4.892-1.175l-2.2,32.243Z" transform="translate(-1475.992 -1976.427)" fill="#8eace8" fill-rule="evenodd"/>
              <path id="Trazado_38840" data-name="Trazado 38840" d="M1495.012,1589.743c-1.761-3.6-16.147-5.127-22.824-.471-7.3,5.094-8.361,7.977-15.666,10.091s-7.689,14.7-1.73,16.915c0,0,2.07.538,4.892,1.175,4.416,1,10.673,2.241,13.733,2.057q.3-.032.594-.067c-.081-.279-2.821-10.078,7.979-16.236,10.956-6.247,12.3-8.073,13.167-12.4a1.612,1.612,0,0,0-.051-.837C1495.047,1589.821,1495.012,1589.743,1495.012,1589.743Z" transform="translate(-1450.652 -1586.367)" fill="#b2ceff" fill-rule="evenodd"/>
              <path id="Trazado_38841" data-name="Trazado 38841" d="M1943.689,1993.658l5.087,33.851h2.038l-2.322-35.578A46.8,46.8,0,0,1,1943.689,1993.658Z" transform="translate(-1908.574 -1963.046)" fill="#8eace8" fill-rule="evenodd"/>
            </g>
            <g id="Grupo_21789" data-name="Grupo 21789" transform="translate(2.003)">
              <path id="Trazado_38842" data-name="Trazado 38842" d="M1582.934,2456.27c.673,1.3,7.977-1.73,8.65-2.979s-.625-2.788-.625-2.788c-1.346,1.057-3.652.673-3.652.673S1582.261,2454.972,1582.934,2456.27Z" transform="translate(-1575.459 -2354.148)" fill="#e73c6f" fill-rule="evenodd"/>
              <path id="Trazado_38843" data-name="Trazado 38843" d="M1783.14,2433.9c1.105,1.25,5.574-2.979,6.343-4.709s-.865-3.652-.865-3.652c-.961,1.586-3.364,1.441-3.364,1.441S1782.034,2432.651,1783.14,2433.9Z" transform="translate(-1761.248 -2330.962)" fill="#e73c6f" fill-rule="evenodd"/>
              <path id="Trazado_38844" data-name="Trazado 38844" d="M1499.305,1730.288c2.979-.911,17.879-5.6,19.954-8.974,2.307-3.748.34-11.114.34-11.114-2.307,1.345-14.512.769-15.137-.048,0,0-20.33,6.357-22.829,13.277s2.595,25.18,2.595,25.18a23.475,23.475,0,0,0,3.075.227,16.456,16.456,0,0,0,5.971-.9c.252-.1.5-.208.737-.328.906,2.508,1.557,4.169,1.557,4.169a9.5,9.5,0,0,0,2.829-.134,13.968,13.968,0,0,0,5.293-2.172,16.81,16.81,0,0,0,1.97-1.539S1501.789,1736.127,1499.305,1730.288Z" transform="translate(-1480.788 -1666.525)" fill="#728fcc" fill-rule="evenodd"/>
              <path id="Trazado_38845" data-name="Trazado 38845" d="M1794.251,1485.182c.625.817,12.83,1.394,15.137.048.7-.406.968-1.5,1.009-2.98a34.5,34.5,0,0,0-.309-4.633c-.318-2.732-.765-5.684-.789-7.958-.89-.985-1.5-1.68-1.5-1.68-2.258.673-14.849-.048-14.849-.048a57.261,57.261,0,0,0,.528,7.064,19.085,19.085,0,0,1,.234,3.124C1793.8,1480.945,1793.839,1484.643,1794.251,1485.182Z" transform="translate(-1770.578 -1441.556)" fill="#8eace8" fill-rule="evenodd"/>
              <path id="Trazado_38846" data-name="Trazado 38846" d="M1575.575,2256.331s2.306.384,3.652-.673l-3.016-14.941a16.459,16.459,0,0,1-5.971.9Z" transform="translate(-1563.727 -2159.302)" fill="#ff837f" fill-rule="evenodd"/>
              <path id="Trazado_38847" data-name="Trazado 38847" d="M1726.009,2264.447l6.4,10.9s2.4.144,3.364-1.441l-4.468-11.628A13.978,13.978,0,0,1,1726.009,2264.447Z" transform="translate(-1708.401 -2179.326)" fill="#ff837f" fill-rule="evenodd"/>
              <path id="Trazado_38848" data-name="Trazado 38848" d="M1519.829,1393.793c1.505-.036,3.045-1.1,4.512-2.691a19.1,19.1,0,0,0-.234-3.124,57.259,57.259,0,0,1-.528-7.064,21.93,21.93,0,0,1,.982-6.673,4.972,4.972,0,0,0-1.079,1.1c-.922,1.364-2.635,5.9-3.839,9.82-.305.995-.578,1.951-.8,2.807-2.964-2.537-10.838-7.965-10.838-7.965s-1.638-4.6-2.142-4.455,0,2.09,0,2.09-1.754-3.2-2.739-2.355,1.834,4.7,3.055,5.872C1506.182,1381.155,1513.726,1393.937,1519.829,1393.793Z" transform="translate(-1501.201 -1354.54)" fill="#ff837f" fill-rule="evenodd"/>
              <path id="Trazado_38849" data-name="Trazado 38849" d="M1829.022,1367.649a77.2,77.2,0,0,0,5.673,5.809c-1.234.453-3.007,1.252-4.884,2.15-4.389,2.1-9.35,4.729-9.35,4.729s-3.7-.322-3.9.3,1.73.769,1.73.769-3.848.831-4.085,1.3c-.076.15.042.479.449.747a3.637,3.637,0,0,0,2.455.348,15.236,15.236,0,0,0,4.884-1.733,67.644,67.644,0,0,0,8.121-1.826c6.216-1.834,10.675-4.353,10.331-6.823-.427-3.071-4-8.756-7.516-12.111-.445-.425-.89-.812-1.327-1.152a17.645,17.645,0,0,0-3.4-2.056s-.831,1.335-.687,7.87C1827.526,1365.969,1828.133,1366.664,1829.022,1367.649Z" transform="translate(-1790.301 -1339.547)" fill="#ff837f" fill-rule="evenodd"/>
              <path id="Trazado_38850" data-name="Trazado 38850" d="M1792.812,1170.275s12.59.721,14.849.048c-.144-6.535.687-7.87.687-7.87a18.806,18.806,0,0,0-4.964-1.548l-.841-6.992s1.081-1.009.649-1.73-1.37-.288-1.37-.288a2.493,2.493,0,0,1-1.694-.318,7.068,7.068,0,0,0-3.58-1.946,4,4,0,0,1-2.9-2.18s-1.345,8.65,2.355,11.2a2.159,2.159,0,0,0,1.511.314l-.118,2.737a14.965,14.965,0,0,0-3.606,1.9A21.918,21.918,0,0,0,1792.812,1170.275Z" transform="translate(-1770.436 -1143.9)" fill="#ff837f" fill-rule="evenodd"/>
              <path id="Trazado_38851" data-name="Trazado 38851" d="M1729.2,1103.338a7.072,7.072,0,0,1,3.58,1.946,2.493,2.493,0,0,0,1.693.319s.937-.432,1.37.288-.649,1.73-.649,1.73l.841,6.992a18.806,18.806,0,0,1,4.964,1.548,17.641,17.641,0,0,1,3.4,2.056c.437.34.881.727,1.327,1.152.682-5.11-1.932-6.23-3.036-7.24s-.577-3.988-1.25-5.622-3.172-2.643-4.133-4.661a7.365,7.365,0,0,0-6.007-4.229,7.5,7.5,0,0,0-4.853,1.586s-2.425.432-2.618,4.372-1.826,4.036-2.259,6.535.337,3.893-.769,6.007-.144,4.9.336,6.151-1.81,3.753.393,5.961c1.2-3.924,2.917-8.456,3.839-9.82a4.969,4.969,0,0,1,1.078-1.1,14.966,14.966,0,0,1,3.607-1.9l.118-2.737a2.159,2.159,0,0,1-1.511-.314c-3.7-2.547-2.355-11.2-2.355-11.2A4,4,0,0,0,1729.2,1103.338Z" transform="translate(-1703.088 -1097.608)" fill="#372d96" fill-rule="evenodd"/>
              <path id="Trazado_38852" data-name="Trazado 38852" d="M1833.139,1822c2.984-1.065,11.515-4.195,13.019-6.639a8.493,8.493,0,0,0,1.052-3.735.145.145,0,1,1,.29.023,8.762,8.762,0,0,1-1.094,3.864c-1.564,2.542-10.094,5.663-13.169,6.761a.145.145,0,0,1-.1-.274Z" transform="translate(-1807.811 -1760.65)" fill="#222378" fill-rule="evenodd"/>
              <path id="Trazado_38853" data-name="Trazado 38853" d="M1485.419,1794.906a.59.59,0,0,0-.071.007.145.145,0,0,1,.028-.007,21.172,21.172,0,0,1-3.186-.24.143.143,0,0,1-.117-.1c-.39-1.4-.734-2.824-1.059-4.237-.706-3.064-1.314-6.174-1.734-9.29-.449-3.333-.953-8.544.2-11.741.98-2.714,4.553-5.1,6.936-6.5a.145.145,0,1,1,.147.251c-2.31,1.356-5.859,3.718-6.81,6.35-1.134,3.141-.629,8.328-.187,11.6.419,3.107,1.025,6.209,1.729,9.264.318,1.379.653,2.77,1.031,4.134,2.836.433,6.9.305,9.486-.941-1.078-2.987-2.1-6-3.016-9.042-.615-2.041-1.189-4.107-1.651-6.188a27.858,27.858,0,0,1-.755-5.128c-.093-3.5,3.4-6.561,5.994-8.414a45.054,45.054,0,0,1,6.281-3.683c1.006-.494,2.055-.986,3.1-1.4a.145.145,0,0,1,.108.27c-1.036.412-2.078.9-3.077,1.391a44.773,44.773,0,0,0-6.24,3.659c-2.5,1.785-5.962,4.789-5.872,8.169a27.582,27.582,0,0,0,.748,5.073c.46,2.074,1.033,4.133,1.646,6.167.925,3.071,1.958,6.116,3.049,9.132h0a.155.155,0,0,1,.012.034c.491,1.359.993,2.721,1.52,4.068a10.226,10.226,0,0,0,3.018-.2,14.678,14.678,0,0,0,6.8-3.557c-1.153-3.51-2.357-7.016-3.61-10.491-.719-2-1.457-3.993-2.255-5.96-.314-.774-.638-1.547-.989-2.3a11.917,11.917,0,0,0-.788-1.5.145.145,0,0,1,.243-.159,12.2,12.2,0,0,1,.809,1.533c.354.762.679,1.539,1,2.317.8,1.97,1.538,3.971,2.259,5.971,1.264,3.507,2.48,7.046,3.642,10.589a.142.142,0,0,1-.041.153,15,15,0,0,1-7.008,3.689,10.247,10.247,0,0,1-3.2.191.142.142,0,0,1-.113-.091c-.522-1.33-1.019-2.676-1.5-4.02a10.823,10.823,0,0,1-2.4.793A19.956,19.956,0,0,1,1485.419,1794.906Z" transform="translate(-1478.774 -1712.44)" fill="#222378" fill-rule="evenodd"/>
              <path id="Trazado_38854" data-name="Trazado 38854" d="M2022.965,1667.1c-.026.954-.149,2.557-1.081,3.1a.145.145,0,1,1-.146-.251c.812-.474.915-2.035.937-2.858a.145.145,0,1,1,.29.008Z" transform="translate(-1983 -1626.399)" fill="#222378" fill-rule="evenodd"/>
              <path id="Trazado_38855" data-name="Trazado 38855" d="M1791.544,1373.625c2.35.131,12.435.645,14.65.059l.039.044.154-.265a46,46,0,0,1,.105-4.767,14.675,14.675,0,0,1,.346-2.338.145.145,0,0,0-.282-.071,32.145,32.145,0,0,0-.461,7.122c-2.17.558-12.266.052-14.56-.076a20.533,20.533,0,0,1,.779-5.8.145.145,0,0,0-.281-.076,20.623,20.623,0,0,0-.784,6.018,51.558,51.558,0,0,0,.534,7.1c.4,1.363.1,9.327.793,10.234a.145.145,0,0,0,.231-.176c-.592-.774-.341-8.778-.745-10.14A51.184,51.184,0,0,1,1791.544,1373.625Z" transform="translate(-1768.984 -1347.051)" fill="#222378" fill-rule="evenodd"/>
              <path id="Trazado_38856" data-name="Trazado 38856" d="M1804.555,2276.708l-1.428-3.716a.145.145,0,0,1,.271-.1l1.428,3.716a.145.145,0,0,1-.271.1Z" transform="translate(-1780.017 -2189.097)" fill="#fff" fill-rule="evenodd"/>
              <path id="Trazado_38857" data-name="Trazado 38857" d="M1728.368,2297.831l4.072,6.936a.145.145,0,0,1-.25.147l-4.072-6.936a.145.145,0,1,1,.25-.147Z" transform="translate(-1710.34 -2212.283)" fill="#fff" fill-rule="evenodd"/>
              <path id="Trazado_38858" data-name="Trazado 38858" d="M1654.13,2249.224l-1.175-5.822a.145.145,0,0,1,.285-.057l1.175,5.822a.145.145,0,0,1-.285.057Z" transform="translate(-1640.546 -2161.635)" fill="#fff" fill-rule="evenodd"/>
              <path id="Trazado_38859" data-name="Trazado 38859" d="M1857.119,1292.736a7.349,7.349,0,0,0,2.71-1.077.145.145,0,0,1,.149.25,7.606,7.606,0,0,1-2.826,1.116.145.145,0,1,1-.033-.289Z" transform="translate(-1830.053 -1277.82)" fill="#fff" fill-rule="evenodd"/>
              <path id="Trazado_38860" data-name="Trazado 38860" d="M1506.03,1378.2a.147.147,0,0,1-.028-.048c-.2-.57-1.565-4.226-1.965-4.363-.3.087.042,1.688.1,1.914a.145.145,0,0,1-.268.106c-.29-.53-1.772-2.95-2.517-2.314-.645.55.853,2.845,1.18,3.33a15.05,15.05,0,0,0,1.881,2.326l.009.009a.146.146,0,0,1,.016.022c.554.936,1.174,1.865,1.795,2.759a45.338,45.338,0,0,0,4.386,5.46.145.145,0,1,1-.21.2,45.585,45.585,0,0,1-4.415-5.5c-.621-.894-1.241-1.822-1.8-2.759a15.4,15.4,0,0,1-1.906-2.36c-.441-.651-1.984-2.983-1.128-3.714.776-.663,1.874.68,2.519,1.664-.093-.614-.109-1.319.274-1.429.5-.143,1.284,1.9,1.426,2.235.311.743.608,1.507.878,2.266q3.081,2.124,6.111,4.335c1.135.828,2.267,1.666,3.372,2.532.361.283.764.6,1.154.92.42-1.613.921-3.219,1.45-4.8.521-1.553,1.079-3.1,1.7-4.623a17.9,17.9,0,0,1,1.448-3.017,5.108,5.108,0,0,1,1.11-1.132.145.145,0,1,1,.178.229,4.815,4.815,0,0,0-1.047,1.065,17.636,17.636,0,0,0-1.419,2.964c-.615,1.512-1.172,3.058-1.691,4.605-.542,1.616-1.055,3.262-1.48,4.914a9.926,9.926,0,0,1,.78.743.145.145,0,1,1-.213.2,9.819,9.819,0,0,0-.781-.742.144.144,0,0,1-.079-.068c-.429-.365-.885-.717-1.285-1.031-1.1-.865-2.232-1.7-3.364-2.527q-3.039-2.217-6.144-4.357A.148.148,0,0,1,1506.03,1378.2Z" transform="translate(-1499.333 -1352.647)" fill="#fff" fill-rule="evenodd"/>
              <path id="Trazado_38861" data-name="Trazado 38861" d="M1819.065,1483.024c.135-.035,11.638-6.211,15.091-7.16a.145.145,0,0,0-.077-.28c-.259.071-.525.157-.792.251a43.007,43.007,0,0,1-3.123-3.067c-1.335-1.405-2.651-2.849-3.928-4.309l-.154.265a95.831,95.831,0,0,0,6.892,7.224c-1.805.68-4.511,1.991-6.226,2.832-2.6,1.274-5.192,2.6-7.751,3.954-.724-.064-3.789-.293-4,.409-.145.47.478.718,1.061.843-1.2.279-3.2.8-3.407,1.2-.125.246.076.56.246.73a2.349,2.349,0,0,0,1.27.573c2,.331,4.718-.844,6.448-1.736q1.885-.309,3.752-.715a.145.145,0,0,0-.062-.284q-1.87.408-3.759.716c-.168.028-3.821,2.147-6.331,1.732a2.082,2.082,0,0,1-1.112-.491c-.063-.063-.243-.291-.192-.393.194-.351,3.453-1.107,3.985-1.221a.145.145,0,0,0-.02-.287c-.224-.017-1.719-.2-1.6-.581C1815.418,1482.751,1819,1483.042,1819.065,1483.024Z" transform="translate(-1788.833 -1442.047)" fill="#fff" fill-rule="evenodd"/>
              <path id="Trazado_38862" data-name="Trazado 38862" d="M1832.019,1251.777a12.964,12.964,0,0,1-2.041.772,1.049,1.049,0,0,0,1.089.308C1831.757,1252.663,1832.019,1251.777,1832.019,1251.777Z" transform="translate(-1804.965 -1240.797)" fill="#e51a4b" fill-rule="evenodd"/>
              <path id="Trazado_38863" data-name="Trazado 38863" d="M1850.56,1201.2a.383.383,0,1,1-.442.354A.4.4,0,0,1,1850.56,1201.2Z" transform="translate(-1823.669 -1193.821)" fill="#434242" fill-rule="evenodd"/>
              <path id="Trazado_38864" data-name="Trazado 38864" d="M1807.548,1204.717a.386.386,0,1,1-.308.478A.4.4,0,0,1,1807.548,1204.717Z" transform="translate(-1783.835 -1197.076)" fill="#434242" fill-rule="evenodd"/>
              <path id="Trazado_38865" data-name="Trazado 38865" d="M1802.842,1185.7a1.579,1.579,0,0,0-.553-.2.713.713,0,0,0-.819.469.053.053,0,1,1-.1-.042.818.818,0,0,1,.931-.532,1.674,1.674,0,0,1,.594.216.053.053,0,1,1-.056.09Z" transform="translate(-1778.393 -1179.131)" fill="#434242" fill-rule="evenodd"/>
              <path id="Trazado_38866" data-name="Trazado 38866" d="M1825.069,1205.327q-.078.657-.15,1.316c-.031.28-.061.561-.087.842-.01.1-.018.2-.025.3a1,1,0,0,0,0,.154c.025.067.361.065.42.063a4.281,4.281,0,0,0,.467-.037.055.055,0,0,1,.015.108c-.177.024-.987.127-1.011-.127a1.19,1.19,0,0,1,.005-.169c.007-.1.016-.2.026-.3.026-.281.056-.563.087-.844q.072-.658.15-1.317a.055.055,0,0,1,.108.013Z" transform="translate(-1800.054 -1197.598)" fill="#434242" fill-rule="evenodd"/>
              <path id="Trazado_38867" data-name="Trazado 38867" d="M1847.961,1184.954a1.562,1.562,0,0,0-.5-.318.831.831,0,0,0-1,.255.053.053,0,0,1-.086-.062.936.936,0,0,1,1.12-.292,1.668,1.668,0,0,1,.532.341.053.053,0,0,1-.075.075Z" transform="translate(-1820.192 -1178.278)" fill="#434242" fill-rule="evenodd"/>
              <path id="Trazado_38868" data-name="Trazado 38868" d="M1781.163,1173.379a2.21,2.21,0,0,0-1.92,2.461q.01.1.027.2a1.116,1.116,0,0,0-.462.032c0-.042,0-.085-.009-.127a2.13,2.13,0,0,0-1.387-1.854,1.676,1.676,0,0,0-1.327.128,2.227,2.227,0,0,0,.378,3.938,1.676,1.676,0,0,0,1.327-.127,2.077,2.077,0,0,0,1.017-1.743.87.87,0,0,1,.514-.026,2.179,2.179,0,0,0,2.274,1.632,2.27,2.27,0,0,0-.433-4.512Zm-3.813.905a2.024,2.024,0,0,1,.342,3.564,1.469,1.469,0,0,1-1.165.112,2.024,2.024,0,0,1-.343-3.564,1.47,1.47,0,0,1,1.165-.112Zm4.227,3.4a2.066,2.066,0,1,1,1.736-2.238A2.007,2.007,0,0,1,1781.577,1177.688Z" transform="translate(-1753.965 -1167.973)" fill="#434242" fill-rule="evenodd"/>
              <g id="Grupo_21788" data-name="Grupo 21788" transform="translate(29.394 7.266)">
                <path id="Trazado_38869" data-name="Trazado 38869" d="M1894.825,1201.11l-2.282-.419a.062.062,0,0,0-.034.081c.013.031.047.028.081.034l2.283.419c.033.006.047-.049.034-.081A.062.062,0,0,0,1894.825,1201.11Z" transform="translate(-1892.431 -1200.616)" fill="#434242" fill-rule="evenodd"/>
                <path id="Trazado_38870" data-name="Trazado 38870" d="M1893.927,1200.315l-.018,0-2.283-.418a.144.144,0,0,1-.135-.079.134.134,0,0,1,.074-.175l.02-.008,2.286.419a.137.137,0,0,1,.151.081.152.152,0,0,1-.019.144A.1.1,0,0,1,1893.927,1200.315Z" transform="translate(-1891.481 -1199.633)" fill="#434242"/>
              </g>
            </g>
            <path id="Trazado_38871" data-name="Trazado 38871" d="M1785.6,1664a46.748,46.748,0,0,0,4.8-1.727l.07-.031c8.535-13.287,5.105-23.6,4.466-25.248a1.615,1.615,0,0,1,.051.837c-.865,4.325-2.21,6.151-13.167,12.4-10.8,6.158-8.059,15.957-7.979,16.236A66.866,66.866,0,0,0,1785.6,1664Z" transform="translate(-1750.484 -1598.583)" fill="#84b3d3" fill-rule="evenodd"/>
          </g>
          <g id="Grupo_21791" data-name="Grupo 21791" transform="translate(2.898 7.529)">
            <path id="Trazado_38872" data-name="Trazado 38872" d="M1513.748,1301.07c.085,4.777.86,7.256,1.8,7.694a.711.711,0,0,0,.5.046c1.046-.277,2.173-2.844,2.734-7.383A8.31,8.31,0,0,1,1513.748,1301.07Z" transform="translate(-1512.152 -1294.109)" fill="#ffeb97" fill-rule="evenodd"/>
            <path id="Trazado_38873" data-name="Trazado 38873" d="M1534.638,1418.545a.254.254,0,0,0,.262-.245l.028-.81.288-8.311a.288.288,0,0,0,0-.031.71.71,0,0,1-.5-.046l-.009.059-.288,8.309v0l-.028.808A.254.254,0,0,0,1534.638,1418.545Z" transform="translate(-1531.327 -1394.447)" fill="#d4e2ff" fill-rule="evenodd"/>
            <path id="Trazado_38874" data-name="Trazado 38874" d="M1495.478,1529.079c2.124-.084,2.627-.852,2.292-1.411-.357-.6-1.557-.927-2.824-1l-.028.81a.253.253,0,0,1-.507-.018l.028-.808c-1.609-.006-3.162.4-3.092,1.213C1491.414,1528.649,1493.677,1529.151,1495.478,1529.079Z" transform="translate(-1491.344 -1503.624)" fill="#99beff" fill-rule="evenodd"/>
            <path id="Trazado_38875" data-name="Trazado 38875" d="M1513.646,1214.765a8.311,8.311,0,0,0,5.027.357,52.094,52.094,0,0,0,.358-6.025,6.738,6.738,0,0,1-5.142-.95c-.206,2.562-.276,4.764-.243,6.618Zm3.126-2.458a.266.266,0,1,1-.265.266.265.265,0,0,1,.265-.266Zm-1.139-1.425a.286.286,0,1,1-.286.286.286.286,0,0,1,.286-.286Zm-.678,2.236a.475.475,0,1,1-.475.475A.475.475,0,0,1,1514.956,1213.117Z" transform="translate(-1512.051 -1207.804)" fill="#8eace8" fill-rule="evenodd"/>
            <path id="Trazado_38876" data-name="Trazado 38876" d="M1517.161,1203.669a6.738,6.738,0,0,0,5.142.95c-.251-.671-.726-1.09-2.291-1.258A6.951,6.951,0,0,0,1517.161,1203.669Z" transform="translate(-1515.322 -1203.325)" fill="#d4e2ff" fill-rule="evenodd"/>
            <path id="Trazado_38877" data-name="Trazado 38877" d="M1553.912,1266.822a.266.266,0,1,0,.266-.266A.266.266,0,0,0,1553.912,1266.822Z" transform="translate(-1549.456 -1262.053)" fill="#ffeb97" fill-rule="evenodd"/>
            <path id="Trazado_38878" data-name="Trazado 38878" d="M1537.917,1247.119a.286.286,0,1,0-.286-.287A.286.286,0,0,0,1537.917,1247.119Z" transform="translate(-1534.334 -1243.468)" fill="#ffeb97" fill-rule="evenodd"/>
            <path id="Trazado_38879" data-name="Trazado 38879" d="M1525.941,1278.885a.475.475,0,1,0-.475-.475A.475.475,0,0,0,1525.941,1278.885Z" transform="translate(-1523.036 -1272.621)" fill="#ffeb97" fill-rule="evenodd"/>
          </g>
        </g>
        <path id="Trazado_38880" data-name="Trazado 38880" d="M1263.311,2219.748a4.141,4.141,0,0,0,2.376-.6,1.183,1.183,0,0,0,.411-.553c-.458-2.375-.947-4.748-1.443-7.115-1.063-5.078-2.183-10.149-3.41-15.19a.145.145,0,0,1,.283-.069c1.227,5.043,2.348,10.118,3.412,15.2.5,2.378.99,4.762,1.449,7.147a.143.143,0,0,1,0,.048,1.376,1.376,0,0,1-.5.746,4.449,4.449,0,0,1-2.667.676.143.143,0,0,1-.132-.085c-2.318-5.07-4.523-10.26-6.57-15.442a.145.145,0,1,1,.27-.107C1258.82,2209.554,1261.01,2214.71,1263.311,2219.748Z" transform="translate(-1042.838 -1454.607)" fill="#fff" fill-rule="evenodd"/>
        <g id="Grupo_21793" data-name="Grupo 21793" transform="translate(190.26 708.085)">
          <path id="Trazado_38881" data-name="Trazado 38881" d="M980.215,1735.338c12.135,0,23.307-.333,32.187-.892,3.251-.2,6.2-.44,8.768-.7,7.149-.723,11.423-1.639,11.423-2.636,0-2.335-23.451-4.229-52.378-4.229s-52.379,1.893-52.379,4.229c0,.987,4.189,1.9,11.211,2.615,2.578.264,5.538.5,8.813.711C956.768,1735,968,1735.338,980.215,1735.338Z" transform="translate(-927.836 -1726.88)" fill="#fff" fill-rule="evenodd"/>
          <path id="Trazado_38882" data-name="Trazado 38882" d="M936.5,1878.016l16.372-54.339c-3.275-.208-6.235-.447-8.813-.711l-10.826,55.05Z" transform="translate(-932.851 -1816.123)" fill="#728fcc" fill-rule="evenodd"/>
          <path id="Trazado_38883" data-name="Trazado 38883" d="M2115.2,1823.97l16.322,54.328h3.268l-10.822-55.028C2121.4,1823.53,2118.454,1823.765,2115.2,1823.97Z" transform="translate(-2030.637 -1816.405)" fill="#728fcc" fill-rule="evenodd"/>
        </g>
        <g id="Grupo_21794" data-name="Grupo 21794" transform="translate(208.076 688.224)">
          <path id="Trazado_38884" data-name="Trazado 38884" d="M1190.989,1547.087c-.273,4.77-1.144,7.217-2.1,7.618a.712.712,0,0,1-.5.026c-1.034-.318-2.06-2.927-2.442-7.484A8.309,8.309,0,0,0,1190.989,1547.087Z" transform="translate(-1185.385 -1540.031)" fill="#ffeb97" fill-rule="evenodd"/>
          <path id="Trazado_38885" data-name="Trazado 38885" d="M1219.875,1663.486a.254.254,0,0,1-.252-.255l0-.811.038-8.316a.257.257,0,0,1,0-.031.71.71,0,0,0,.5-.026l.007.059-.038,8.314v0l0,.809A.254.254,0,0,1,1219.875,1663.486Z" transform="translate(-1216.657 -1639.374)" fill="#d4e2ff" fill-rule="evenodd"/>
          <path id="Trazado_38886" data-name="Trazado 38886" d="M1180.326,1774c-2.119-.167-2.591-.954-2.234-1.5.38-.581,1.592-.866,2.861-.889l0,.811a.253.253,0,0,0,.507,0l0-.809c1.608.057,3.143.525,3.042,1.333C1184.4,1773.729,1182.123,1774.141,1180.326,1774Z" transform="translate(-1177.984 -1748.564)" fill="#99beff" fill-rule="evenodd"/>
          <path id="Trazado_38887" data-name="Trazado 38887" d="M1188.946,1460.727a8.309,8.309,0,0,1-5.036.16,52.035,52.035,0,0,1-.122-6.035,6.738,6.738,0,0,0,5.175-.747c.1,2.569.089,4.771-.017,6.622Zm-3.027-2.579a.266.266,0,1,0,.255.276.265.265,0,0,0-.255-.276Zm1.194-1.379a.286.286,0,1,0,.275.3.287.287,0,0,0-.275-.3Zm.589,2.26a.475.475,0,1,0,.456.493A.475.475,0,0,0,1187.7,1459.029Z" transform="translate(-1183.343 -1453.671)" fill="#8eace8" fill-rule="evenodd"/>
          <path id="Trazado_38888" data-name="Trazado 38888" d="M1189.416,1448.453a6.737,6.737,0,0,1-5.175.748c.278-.66.769-1.061,2.339-1.167A6.946,6.946,0,0,1,1189.416,1448.453Z" transform="translate(-1183.795 -1448.02)" fill="#d4e2ff" fill-rule="evenodd"/>
          <path id="Trazado_38889" data-name="Trazado 38889" d="M1210.822,1511.151a.265.265,0,1,1-.255-.276A.265.265,0,0,1,1210.822,1511.151Z" transform="translate(-1207.99 -1506.398)" fill="#ffeb97" fill-rule="evenodd"/>
          <path id="Trazado_38890" data-name="Trazado 38890" d="M1227.021,1492.08a.286.286,0,1,1,.3-.275A.287.287,0,0,1,1227.021,1492.08Z" transform="translate(-1223.273 -1488.41)" fill="#ffeb97" fill-rule="evenodd"/>
          <path id="Trazado_38891" data-name="Trazado 38891" d="M1232.726,1524.194a.475.475,0,1,1,.493-.456A.475.475,0,0,1,1232.726,1524.194Z" transform="translate(-1228.403 -1517.887)" fill="#ffeb97" fill-rule="evenodd"/>
        </g>
        <g id="Grupo_21797" data-name="Grupo 21797" transform="translate(274.68 666.25)">
          <g id="Grupo_21795" data-name="Grupo 21795" transform="translate(0 0)">
            <path id="Trazado_38892" data-name="Trazado 38892" d="M2131.168,1827.638c12.4-.837,21.843-4.86,22.486-9.359a21.538,21.538,0,0,0-1.322-10.283s-2.355,5.526-13.791,3.556c0,0-18.38,4.469-22.705,10.523s11.245,40.076,11.245,40.076,3.459-.288,4.276-1.249c0,0-1.885-11.629-4.311-21.705a75.889,75.889,0,0,0-3.479-11.456A71.74,71.74,0,0,0,2131.168,1827.638Z" transform="translate(-2114.939 -1760.383)" fill="#c0d8f9" fill-rule="evenodd"/>
            <path id="Trazado_38893" data-name="Trazado 38893" d="M2211.716,2556.609c.48,1.1,9.226-1.442,9.514-2.355a11.487,11.487,0,0,0-.144-3.411c-.817.961-4.277,1.25-4.277,1.25S2211.235,2555.5,2211.716,2556.609Z" transform="translate(-2204.669 -2450.324)" fill="#66c" fill-rule="evenodd"/>
            <path id="Trazado_38894" data-name="Trazado 38894" d="M2374.191,2467.844c1.009.913,6.583-4.037,6.728-5.094a5.777,5.777,0,0,0-.724-2.667,7.7,7.7,0,0,1-3.77,1.442S2373.182,2466.931,2374.191,2467.844Z" transform="translate(-2355.419 -2366.028)" fill="#66c" fill-rule="evenodd"/>
            <path id="Trazado_38895" data-name="Trazado 38895" d="M2237.774,2095.341c3.79,7.594,8.9,16.683,8.9,16.683a7.7,7.7,0,0,0,3.77-1.442c.187-.131.291-.216.291-.216a138.673,138.673,0,0,0-8.838-26.585,71.808,71.808,0,0,1-7.6.1A75.84,75.84,0,0,1,2237.774,2095.341Z" transform="translate(-2225.667 -2016.527)" fill="#c0d8f9" fill-rule="evenodd"/>
            <path id="Trazado_38896" data-name="Trazado 38896" d="M2212.673,1404.432c11.437,1.97,13.791-3.556,13.791-3.556s-1.586-21.143-3.845-26.477-4.841-4.72-4.841-4.72a7.414,7.414,0,0,1-4.854.336,22,22,0,0,0-6.123,3.563c-.125.12-.242.242-.352.365a8.43,8.43,0,0,0-.9,1.322,45.4,45.4,0,0,0-2.371,4.995c-.9,2.167-1.743,4.467-2.305,6.255-.7-7.587-1.388-10.914-1.388-10.914a8.79,8.79,0,0,0-2.659-.123c-.415.024-.7.051-.7.051s-4.132,17.3,2.788,20.663c3.191,1.551,6.239-1.19,8.6-4.594C2208.723,1395.291,2212.673,1404.432,2212.673,1404.432Z" transform="translate(-2189.072 -1353.263)" fill="#e73c6f" fill-rule="evenodd"/>
            <path id="Trazado_38897" data-name="Trazado 38897" d="M2293.411,1429.241a45.49,45.49,0,0,1,2.371-4.995l-.946-1.851a9.417,9.417,0,0,0-2.423.762c-.228.1-.364.176-.364.176Z" transform="translate(-2279.308 -1402.245)" fill="#e73c6f" fill-rule="evenodd"/>
            <path id="Trazado_38898" data-name="Trazado 38898" d="M2272.347,1302.62c-1.466.072-1.41,3.878.844,9.292a9.424,9.424,0,0,1,2.423-.762c.058.115.168-4.878-.24-5.19s-.7,1.466-.7,1.466S2273.813,1302.548,2272.347,1302.62Z" transform="translate(-2260.086 -1291)" fill="#ff837f" fill-rule="evenodd"/>
            <path id="Trazado_38899" data-name="Trazado 38899" d="M2215.576,1323.312a8.786,8.786,0,0,1,2.659.123s1.371-5.5.986-5.839-1.3,1.658-1.3,1.658.649-6.151-.913-5.743S2214.43,1318.384,2215.576,1323.312Z" transform="translate(-2207.826 -1301.098)" fill="#ff837f" fill-rule="evenodd"/>
            <path id="Trazado_38900" data-name="Trazado 38900" d="M2405.278,1212.489a7.412,7.412,0,0,0,4.853-.336l-.053-4.441a2.764,2.764,0,0,1-.716-.1c-1.586-.408-2.451-1.994-1.85-2.355a1.943,1.943,0,0,0,.793-1.922c-.12-.721-1.057-.721-1.057-.721l.041-.889a11.482,11.482,0,0,1-4.533-1.673c-.421,1.687-2.422,10.623,2.5,10.493Z" transform="translate(-2381.426 -1195.738)" fill="#ff837f" fill-rule="evenodd"/>
            <path id="Trazado_38901" data-name="Trazado 38901" d="M2401.372,1148.808c.721-2.115.721-5.046-.24-6.295s-5.67-3.652-5.911-2.883a1.478,1.478,0,0,0,.433,1.394s-2.884-1.778-4.518-.865c-1.09.609-1.117,2.266.843,3.637a11.477,11.477,0,0,0,4.532,1.673l-.041.889s.937,0,1.057.721a1.943,1.943,0,0,1-.793,1.922c-.6.36.264,1.946,1.85,2.355a2.771,2.771,0,0,0,.716.1C2400.34,1151.443,2400.773,1150.565,2401.372,1148.808Z" transform="translate(-2370.648 -1139.481)" fill="#372d96" fill-rule="evenodd"/>
            <path id="Trazado_38902" data-name="Trazado 38902" d="M2456.278,1580.274c-.352-4.671-.824-9.381-1.412-14.026q-.205-1.623-.439-3.243a.145.145,0,1,1,.287-.042q.236,1.622.44,3.248c.589,4.662,1.063,9.389,1.416,14.077a.135.135,0,0,1-.011.068,6.617,6.617,0,0,1-2.678,2.608c-3.273,1.833-7.706,1.649-11.271,1.035a.145.145,0,1,1,.05-.286c3.491.6,7.872.794,11.08-1A6.438,6.438,0,0,0,2456.278,1580.274Z" transform="translate(-2419.033 -1532.686)" fill="#222378" fill-rule="evenodd"/>
            <path id="Trazado_38903" data-name="Trazado 38903" d="M2365.589,1426.121a3.581,3.581,0,0,0-.739-1.8c-1.1-1.39-2.979-1.672-4.642-1.581a.145.145,0,1,1-.016-.29c1.766-.1,3.727.219,4.886,1.691a3.863,3.863,0,0,1,.8,1.959.145.145,0,0,1-.29.016Z" transform="translate(-2342.47 -1402.286)" fill="#222378" fill-rule="evenodd"/>
            <path id="Trazado_38904" data-name="Trazado 38904" d="M2253.375,1551.454c-.343.922-.749,1.85-1.158,2.744a42.031,42.031,0,0,1-3.056,5.611c-1.855,2.815-5.3,7.052-9.153,5.18a5.253,5.253,0,0,1-.729-.431.145.145,0,0,1,.167-.237,5.035,5.035,0,0,0,.689.407c5.854,2.846,11.472-9.349,12.967-13.375a.145.145,0,0,1,.272.1Z" transform="translate(-2230.238 -1521.931)" fill="#222378" fill-rule="evenodd"/>
            <path id="Trazado_38905" data-name="Trazado 38905" d="M2224.274,1460.015a.14.14,0,0,1-.019.059,16.386,16.386,0,0,0-.649,2.513.145.145,0,1,1-.288-.042,16.728,16.728,0,0,1,.663-2.569c-.255-2.75-.552-5.507-.95-8.24-.122-.84-.249-1.705-.417-2.539a9.7,9.7,0,0,0-2.524-.088.145.145,0,0,1-.017-.29,8.794,8.794,0,0,1,2.72.133.142.142,0,0,1,.089.106c.177.865.309,1.764.436,2.636.366,2.518.647,5.056.889,7.589.511-1.552,1.084-3.093,1.692-4.61.618-1.543,1.28-3.091,2.023-4.579a.145.145,0,0,1,.26.13c-.74,1.481-1.4,3.021-2.014,4.557-.608,1.519-1.181,3.06-1.692,4.614C2224.412,1459.594,2224.344,1459.8,2224.274,1460.015Z" transform="translate(-2212.332 -1426.751)" fill="#222378" fill-rule="evenodd"/>
            <path id="Trazado_38906" data-name="Trazado 38906" d="M2336.973,2224.1a7.638,7.638,0,0,0,3.817-1.565,138.779,138.779,0,0,0-5.234-17.727.145.145,0,1,1,.272-.1,138.926,138.926,0,0,1,5.265,17.853.143.143,0,0,1-.05.144,7.855,7.855,0,0,1-4.146,1.69.143.143,0,0,1-.133-.074c-1.816-3.221-3.583-6.486-5.316-9.751a.145.145,0,1,1,.256-.136C2333.422,2217.671,2335.173,2220.908,2336.973,2224.1Z" transform="translate(-2315.884 -2128.753)" fill="#222378" fill-rule="evenodd"/>
            <path id="Trazado_38907" data-name="Trazado 38907" d="M2121.663,1914.581a.144.144,0,0,1-.024-.055c-.119-.265-.241-.525-.368-.778a.146.146,0,0,1,.26-.13q.18.36.349.737a61.858,61.858,0,0,0,20.025-2.3c3.009-.929,8.668-3.135,9.7-6.512a.145.145,0,1,1,.278.085c-1.068,3.5-6.763,5.739-9.891,6.7a62.049,62.049,0,0,1-19.98,2.315,47.41,47.41,0,0,1,1.913,5.619c.846,2.931,1.564,5.911,2.23,8.887.938,4.19,1.771,8.41,2.542,12.634.355,1.943.7,3.894,1.018,5.844a.142.142,0,0,1-.033.117c-.712.837-3.3,1.213-4.376,1.3a.144.144,0,0,1-.144-.084c-2.87-6.266-15.193-34.674-11.231-40.221,2.347-3.286,8.576-5.914,12.364-7.333a.145.145,0,0,1,.1.272c-3.72,1.395-9.927,4.008-12.229,7.23-2.5,3.5,2.1,16.743,3.408,20.477,1.583,4.515,3.349,8.981,5.207,13.39.841,2,1.7,4,2.6,5.973,1.017-.093,3.351-.446,4.032-1.142-.312-1.925-.655-3.851-1.005-5.769-.77-4.221-1.6-8.436-2.539-12.623-.665-2.97-1.382-5.945-2.226-8.87A45.79,45.79,0,0,0,2121.663,1914.581Z" transform="translate(-2113.153 -1847.138)" fill="#222378" fill-rule="evenodd"/>
          </g>
          <g id="Grupo_21796" data-name="Grupo 21796" transform="translate(7.566 41.33)">
            <path id="Trazado_38908" data-name="Trazado 38908" d="M2295.8,1750.258a33.742,33.742,0,0,0,15.374.468,18.876,18.876,0,0,0,4.906-1.659,8.3,8.3,0,0,0,1.945-1.376c11.049-10.882,10.359-24.194,6.771-26.972-3.789-2.934-6.649,1.229-17.65,9.053-7.025,5-17.861.231-19.887,8.117-.806,3.139.749,6.314,2.356,8.575a7.572,7.572,0,0,0,1.7,1.69A14.629,14.629,0,0,0,2295.8,1750.258Z" transform="translate(-2282.216 -1719.778)" fill="#84b3d3" fill-rule="evenodd"/>
            <path id="Trazado_38909" data-name="Trazado 38909" d="M2221.577,2155.6l11.387-35.288a14.609,14.609,0,0,1-4.485-2.1l-9.095,37.391Z" transform="translate(-2219.384 -2089.836)" fill="#8eace8" fill-rule="evenodd"/>
            <path id="Trazado_38910" data-name="Trazado 38910" d="M2625.91,2132.693l11.078,34.82h2.192l-8.364-36.478A18.881,18.881,0,0,1,2625.91,2132.693Z" transform="translate(-2596.957 -2101.744)" fill="#8eace8" fill-rule="evenodd"/>
          </g>
        </g>
        <g id="Grupo_21798" data-name="Grupo 21798" transform="translate(273.399 686.941)">
          <path id="Trazado_38911" data-name="Trazado 38911" d="M2117.571,1527.74c.085,4.777.86,7.256,1.8,7.694a.711.711,0,0,0,.5.046c1.046-.277,2.173-2.844,2.733-7.383A8.309,8.309,0,0,1,2117.571,1527.74Z" transform="translate(-2115.976 -1520.779)" fill="#ffeb97" fill-rule="evenodd"/>
          <path id="Trazado_38912" data-name="Trazado 38912" d="M2138.461,1645.215a.254.254,0,0,0,.262-.245l.028-.81.289-8.311c0-.01,0-.021,0-.031a.71.71,0,0,1-.5-.046l-.009.059-.288,8.309v0l-.028.808A.254.254,0,0,0,2138.461,1645.215Z" transform="translate(-2135.15 -1621.117)" fill="#d4e2ff" fill-rule="evenodd"/>
          <path id="Trazado_38913" data-name="Trazado 38913" d="M2099.3,1755.749c2.124-.084,2.627-.852,2.292-1.411-.357-.6-1.557-.927-2.824-1l-.028.81a.253.253,0,0,1-.507-.018l.028-.808c-1.609-.006-3.162.4-3.092,1.212C2095.238,1755.319,2097.5,1755.821,2099.3,1755.749Z" transform="translate(-2095.168 -1730.294)" fill="#99beff" fill-rule="evenodd"/>
          <path id="Trazado_38914" data-name="Trazado 38914" d="M2117.469,1441.435a8.309,8.309,0,0,0,5.026.357,52.09,52.09,0,0,0,.358-6.025,6.738,6.738,0,0,1-5.142-.95c-.205,2.563-.276,4.764-.243,6.618Zm3.126-2.458a.266.266,0,1,1-.266.266.265.265,0,0,1,.266-.266Zm-1.139-1.425a.286.286,0,1,1-.286.286.286.286,0,0,1,.286-.286Zm-.677,2.236a.475.475,0,1,1-.475.475A.475.475,0,0,1,2118.779,1439.787Z" transform="translate(-2115.874 -1434.474)" fill="#8eace8" fill-rule="evenodd"/>
          <path id="Trazado_38915" data-name="Trazado 38915" d="M2120.984,1430.339a6.738,6.738,0,0,0,5.142.95c-.251-.671-.727-1.09-2.291-1.258A6.951,6.951,0,0,0,2120.984,1430.339Z" transform="translate(-2119.145 -1429.995)" fill="#d4e2ff" fill-rule="evenodd"/>
          <path id="Trazado_38916" data-name="Trazado 38916" d="M2157.735,1493.491a.265.265,0,1,0,.266-.265A.266.266,0,0,0,2157.735,1493.491Z" transform="translate(-2153.279 -1488.723)" fill="#ffeb97" fill-rule="evenodd"/>
          <path id="Trazado_38917" data-name="Trazado 38917" d="M2141.74,1473.788a.286.286,0,1,0-.286-.286A.286.286,0,0,0,2141.74,1473.788Z" transform="translate(-2138.158 -1470.137)" fill="#ffeb97" fill-rule="evenodd"/>
          <path id="Trazado_38918" data-name="Trazado 38918" d="M2129.764,1505.556a.475.475,0,1,0-.475-.475A.475.475,0,0,0,2129.764,1505.556Z" transform="translate(-2126.859 -1499.292)" fill="#ffeb97" fill-rule="evenodd"/>
        </g>
      </g>
    </g>
  </g>
</svg>
