<svg xmlns="http://www.w3.org/2000/svg" width="122" height="122" viewBox="0 0 122 122">
  <g id="Grupo_22090" data-name="Grupo 22090" transform="translate(-625 -12866)">
    <circle id="Elipse_1064" data-name="Elipse 1064" cx="61" cy="61" r="61" transform="translate(625 12866)" fill="#030203"/>
    <path id="Trazado_39146" data-name="Trazado 39146" d="M18.73-13.789q0,1.543-.156,3.193a18.6,18.6,0,0,1-.6,3.232,14.394,14.394,0,0,1-1.211,3.008,8.893,8.893,0,0,1-1.992,2.49A9.145,9.145,0,0,1,11.807-.176,12.281,12.281,0,0,1,7.676.449,11.931,11.931,0,0,1,6.006.332,13.908,13.908,0,0,1,4.492.039,9.143,9.143,0,0,1,3.33-.332a2.258,2.258,0,0,1-.693-.4,1.207,1.207,0,0,1-.312-.6,4.746,4.746,0,0,1-.1-1.094q0-.645.029-1.035a2.067,2.067,0,0,1,.117-.605.534.534,0,0,1,.215-.283.63.63,0,0,1,.3-.068,2.381,2.381,0,0,1,.664.137q.43.137,1.045.313A13.737,13.737,0,0,0,6-3.652a10.125,10.125,0,0,0,1.738.137A5.983,5.983,0,0,0,10.508-4.1a5.041,5.041,0,0,0,1.836-1.582,6.894,6.894,0,0,0,1.035-2.3,12.546,12.546,0,0,0,.371-2.754,9.886,9.886,0,0,1-2.168.986,9.258,9.258,0,0,1-2.91.42,9.771,9.771,0,0,1-3.418-.527,5.605,5.605,0,0,1-2.285-1.523,6.086,6.086,0,0,1-1.279-2.422,11.927,11.927,0,0,1-.4-3.223,10.333,10.333,0,0,1,.566-3.486,7.618,7.618,0,0,1,1.68-2.754,7.568,7.568,0,0,1,2.773-1.807,10.59,10.59,0,0,1,3.848-.645,10.383,10.383,0,0,1,3.076.41A6.792,6.792,0,0,1,15.5-24.141a6.666,6.666,0,0,1,1.582,1.846,9.882,9.882,0,0,1,1,2.412,17.088,17.088,0,0,1,.508,2.871Q18.73-15.469,18.73-13.789Zm-5.1-.7a21.8,21.8,0,0,0-.234-3.5,7.029,7.029,0,0,0-.7-2.246,2.8,2.8,0,0,0-1.172-1.191,3.625,3.625,0,0,0-1.641-.352,3.591,3.591,0,0,0-1.582.322,2.992,2.992,0,0,0-1.1.908,4.02,4.02,0,0,0-.654,1.387A6.773,6.773,0,0,0,6.328-17.4a8.046,8.046,0,0,0,.186,1.826A3.367,3.367,0,0,0,7.1-14.268a2.406,2.406,0,0,0,1.045.771,4.27,4.27,0,0,0,1.563.254,6.6,6.6,0,0,0,2.139-.342A6.687,6.687,0,0,0,13.633-14.492Z" transform="translate(677 12935)" fill="#fff"/>
  </g>
</svg>
