<svg xmlns="http://www.w3.org/2000/svg" width="122" height="122" viewBox="0 0 122 122">
  <g id="Grupo_22091" data-name="Grupo 22091" transform="translate(-1174 -12866)">
    <circle id="Elipse_1065" data-name="Elipse 1065" cx="61" cy="61" r="61" transform="translate(1174 12866)" fill="#fcb22a"/>
    <path id="Trazado_39147" data-name="Trazado 39147" d="M18.438-1.953a6.228,6.228,0,0,1-.059.928,2.214,2.214,0,0,1-.166.605.821.821,0,0,1-.244.322.524.524,0,0,1-.312.1H3.711a.5.5,0,0,1-.293-.1A.821.821,0,0,1,3.174-.42a2.214,2.214,0,0,1-.166-.605,6.228,6.228,0,0,1-.059-.928A7.65,7.65,0,0,1,3-2.9a2.16,2.16,0,0,1,.156-.615A.906.906,0,0,1,3.4-3.857a.492.492,0,0,1,.313-.107H8.418V-20.41L4.355-18.164a2.987,2.987,0,0,1-.732.264.482.482,0,0,1-.449-.117,1.014,1.014,0,0,1-.225-.576,8.662,8.662,0,0,1-.059-1.152q0-.469.02-.771a1.877,1.877,0,0,1,.1-.518.945.945,0,0,1,.215-.352,2.458,2.458,0,0,1,.371-.293L9.023-25.2a.784.784,0,0,1,.244-.127,2.036,2.036,0,0,1,.381-.078q.234-.029.615-.039t.986-.01q.742,0,1.2.029a3.427,3.427,0,0,1,.693.1.546.546,0,0,1,.313.186.517.517,0,0,1,.078.293V-3.965h4.121a.533.533,0,0,1,.322.107.853.853,0,0,1,.254.342,2.16,2.16,0,0,1,.156.615A7.65,7.65,0,0,1,18.438-1.953ZM39.453-12.734a27.993,27.993,0,0,1-.488,5.469,11.985,11.985,0,0,1-1.592,4.16A7.442,7.442,0,0,1,34.5-.469a9.3,9.3,0,0,1-4.326.918,9.224,9.224,0,0,1-4.3-.889A6.7,6.7,0,0,1,23.184-3a11.638,11.638,0,0,1-1.4-4.082,33.561,33.561,0,0,1-.4-5.459,27.5,27.5,0,0,1,.5-5.459,12.123,12.123,0,0,1,1.6-4.17A7.442,7.442,0,0,1,26.357-24.8a9.254,9.254,0,0,1,4.307-.918,9.285,9.285,0,0,1,4.307.889,6.687,6.687,0,0,1,2.705,2.559,11.507,11.507,0,0,1,1.387,4.082A34.383,34.383,0,0,1,39.453-12.734Zm-5.176.254q0-1.8-.1-3.174a19.062,19.062,0,0,0-.3-2.393,8.787,8.787,0,0,0-.508-1.719,3.463,3.463,0,0,0-.732-1.123,2.462,2.462,0,0,0-.977-.6,3.942,3.942,0,0,0-1.211-.176,3.115,3.115,0,0,0-1.9.557,3.7,3.7,0,0,0-1.191,1.67,10.708,10.708,0,0,0-.615,2.773,37.229,37.229,0,0,0-.176,3.867,38.138,38.138,0,0,0,.215,4.463,10.229,10.229,0,0,0,.674,2.813,3.018,3.018,0,0,0,1.182,1.465,3.4,3.4,0,0,0,1.738.42,3.48,3.48,0,0,0,1.348-.244,2.833,2.833,0,0,0,1.025-.732,4.031,4.031,0,0,0,.732-1.23,9.559,9.559,0,0,0,.479-1.719,16.937,16.937,0,0,0,.254-2.207Q34.277-11,34.277-12.48Z" transform="translate(1217 12935)" fill="#fff"/>
  </g>
</svg>
