<svg xmlns="http://www.w3.org/2000/svg" width="266" height="266" viewBox="0 0 266 266">
  <g id="Grupo_22094" data-name="Grupo 22094" transform="translate(-422 -2644)">
    <g id="Grupo_22068" data-name="Grupo 22068">
      <circle id="Elipse_1052" data-name="Elipse 1052" cx="133" cy="133" r="133" transform="translate(422 2644)" fill="#f0c4c6"/>
      <g id="Grupo_21765" data-name="Grupo 21765" transform="translate(262.386 2633.579)">
        <path id="Trazado_38578" data-name="Trazado 38578" d="M740.168,1640.666c48.463,0,87.991-4.387,87.991-9.766s-39.527-9.766-87.991-9.766-87.991,4.387-87.991,9.766S691.7,1640.666,740.168,1640.666Z" transform="translate(-433.427 -1407.545)" fill="#f2f9ff" fill-rule="evenodd"/>
        <g id="Grupo_21721" data-name="Grupo 21721" transform="translate(190.646 47.494)">
          <g id="Grupo_21692" data-name="Grupo 21692" transform="translate(14.671 0)">
            <g id="Grupo_21684" data-name="Grupo 21684">
              <path id="Trazado_38579" data-name="Trazado 38579" d="M341.71,109.458c-.928-1.921-1.817-3.969-2.66-6.108-7.827-19.853-11.685-47.556-5.882-55.188,12.508-.642,44.372,31.449,50.619,51.091,3.943,12.4-1.2,22.354-9.324,26.648a19.79,19.79,0,0,1-4.312,1.667c-7.458,1.919-16.28-.458-22.955-8.986A50.867,50.867,0,0,1,341.71,109.458Z" transform="translate(-330.297 -48.083)" fill="#fefefe" fill-rule="evenodd"/>
              <path id="Trazado_38580" data-name="Trazado 38580" d="M360.311,127.219a24.389,24.389,0,0,1-13.821-9.183A50.783,50.783,0,0,1,341,108.9h0c-.913-1.889-1.808-3.945-2.662-6.111a134.412,134.412,0,0,1-8.057-32.195c-1.325-11.276-.549-19.466,2.184-23.062l.02-.025.032,0c5.81-.3,16.43,6.583,27.71,17.959s20.088,24.093,22.978,33.18a24.3,24.3,0,0,1-.137,16.41,19.885,19.885,0,0,1-22.754,12.166ZM332.551,47.64c-2.7,3.58-3.455,11.722-2.137,22.936a134.247,134.247,0,0,0,8.048,32.16c.853,2.164,1.747,4.217,2.658,6.1h0a50.649,50.649,0,0,0,5.478,9.112c6.057,7.739,14.611,11.089,22.883,8.962a19.732,19.732,0,0,0,4.3-1.662c7.56-3.993,13.364-13.757,9.291-26.566-2.883-9.067-11.675-21.759-22.945-33.124C348.891,54.232,338.332,47.369,332.551,47.64Z" transform="translate(-329.645 -47.494)" fill="#8eace8"/>
            </g>
            <g id="Grupo_21685" data-name="Grupo 21685" transform="translate(2.809 0.047)">
              <path id="Trazado_38581" data-name="Trazado 38581" d="M397.556,125.74,356.261,48l.123-.065,41.295,77.739Z" transform="translate(-356.261 -47.936)" fill="#8eace8"/>
            </g>
            <g id="Grupo_21686" data-name="Grupo 21686" transform="translate(18.53 12.889)">
              <path id="Trazado_38582" data-name="Trazado 38582" d="M505.336,186.427l-.129-.05c.039-.1,3.935-10.128,6.582-16.766l.128.051C509.271,176.3,505.375,186.326,505.336,186.427Z" transform="translate(-505.207 -169.611)" fill="#8eace8"/>
            </g>
            <g id="Grupo_21687" data-name="Grupo 21687" transform="translate(20.784 16.552)">
              <rect id="Rectángulo_3610" data-name="Rectángulo 3610" width="19.183" height="0.138" transform="translate(0 17.326) rotate(-64.585)" fill="#8eace8"/>
            </g>
            <g id="Grupo_21688" data-name="Grupo 21688" transform="translate(5.119 44.543)">
              <rect id="Rectángulo_3611" data-name="Rectángulo 3611" width="0.139" height="25.551" transform="matrix(0.248, -0.969, 0.969, 0.248, 0, 0.135)" fill="#8eace8"/>
            </g>
            <g id="Grupo_21689" data-name="Grupo 21689" transform="translate(36.936 42.257)">
              <path id="Trazado_38583" data-name="Trazado 38583" d="M679.709,469.953l-.12-.069,12.476-22.029.12.069Z" transform="translate(-679.588 -447.855)" fill="#8eace8"/>
            </g>
            <g id="Grupo_21690" data-name="Grupo 21690" transform="translate(9.996 58.218)">
              <rect id="Rectángulo_3612" data-name="Rectángulo 3612" width="0.139" height="25.212" transform="translate(0 0.138) rotate(-84.407)" fill="#8eace8"/>
            </g>
            <g id="Grupo_21691" data-name="Grupo 21691" transform="translate(0.048 14.037)">
              <path id="Trazado_38584" data-name="Trazado 38584" d="M344.417,188.3c-2.19-1.135-7.971-4.158-14.32-7.685l.067-.121c6.347,3.527,12.126,6.549,14.316,7.683Z" transform="translate(-330.097 -180.491)" fill="#8eace8"/>
            </g>
          </g>
          <g id="Grupo_21701" data-name="Grupo 21701" transform="translate(0 68.439)">
            <g id="Grupo_21693" data-name="Grupo 21693">
              <path id="Trazado_38585" data-name="Trazado 38585" d="M227.453,728.7c-1.471-.505-2.987-1.095-4.526-1.755-14.293-6.13-30.614-18.341-31.588-25.26,6.082-6.805,39.04-6.843,52.412,0,8.441,4.318,10.96,12.084,9.014,18.495a14.411,14.411,0,0,1-1.349,3.087c-2.832,4.845-8.587,8.194-16.425,7.275A37.044,37.044,0,0,1,227.453,728.7Z" transform="translate(-191.265 -696.501)" fill="#ecf6ff" fill-rule="evenodd"/>
              <path id="Trazado_38586" data-name="Trazado 38586" d="M231.653,729.56a43.859,43.859,0,0,1-4.841-1.38h0c-1.448-.5-2.973-1.089-4.531-1.757a97.993,97.993,0,0,1-20.8-12.344c-6.521-5.1-10.366-9.707-10.825-12.971l0-.032.021-.024c2.83-3.166,11.844-5.136,23.524-5.142s22.782,1.958,28.971,5.123a17.728,17.728,0,0,1,8.434,8.5,14.5,14.5,0,0,1-.741,13.182c-3.166,5.416-9.331,8.148-16.493,7.309Q233.083,729.872,231.653,729.56Zm-4.8-1.511a37,37,0,0,0,7.523,1.836c7.106.833,13.221-1.874,16.358-7.241a14.4,14.4,0,0,0,1.342-3.073c1.807-5.954-.268-13.957-8.98-18.413-6.171-3.156-17.248-5.114-28.908-5.108-11.613.005-20.571,1.948-23.4,5.071.476,3.226,4.3,7.787,10.769,12.849A97.835,97.835,0,0,0,222.335,726.3c1.555.667,3.076,1.257,4.522,1.753Z" transform="translate(-190.646 -695.911)" fill="#7690c9"/>
            </g>
            <g id="Grupo_21694" data-name="Grupo 21694" transform="translate(0.053 5.122)">
              <rect id="Rectángulo_3613" data-name="Rectángulo 3613" width="0.138" height="64.149" transform="translate(0 0.132) rotate(-73.246)" fill="#7690c9"/>
            </g>
            <g id="Grupo_21695" data-name="Grupo 21695" transform="translate(18.095 0.196)">
              <path id="Trazado_38587" data-name="Trazado 38587" d="M367.392,709.827c-.032-.072-3.226-7.232-5.3-12.007l.127-.056c2.079,4.775,5.272,11.934,5.3,12.005Z" transform="translate(-362.088 -697.765)" fill="#7690c9"/>
            </g>
            <g id="Grupo_21696" data-name="Grupo 21696" transform="translate(21.999 0.058)">
              <path id="Trazado_38588" data-name="Trazado 38588" d="M403.81,709.658l-4.737-13.153.13-.047,4.737,13.153Z" transform="translate(-399.074 -696.458)" fill="#7690c9"/>
            </g>
            <g id="Grupo_21697" data-name="Grupo 21697" transform="translate(24.254 17.227)">
              <path id="Trazado_38589" data-name="Trazado 38589" d="M420.508,868.818l-.071-.12,15.975-9.568.071.119Z" transform="translate(-420.437 -859.13)" fill="#7690c9"/>
            </g>
            <g id="Grupo_21698" data-name="Grupo 21698" transform="translate(45.761 2.693)">
              <rect id="Rectángulo_3614" data-name="Rectángulo 3614" width="0.138" height="18.449" transform="translate(0 0.038) rotate(-15.745)" fill="#7690c9"/>
            </g>
            <g id="Grupo_21699" data-name="Grupo 21699" transform="translate(33.82 19.569)">
              <rect id="Rectángulo_3615" data-name="Rectángulo 3615" width="18.373" height="0.138" transform="matrix(0.77, -0.638, 0.638, 0.77, 0, 11.725)" fill="#7690c9"/>
            </g>
            <g id="Grupo_21700" data-name="Grupo 21700" transform="translate(5.881 10.284)">
              <path id="Trazado_38590" data-name="Trazado 38590" d="M246.4,796.954l-.039-.133c5.074-1.474,9.607-2.919,11.32-3.471l.042.132C256.014,794.035,251.479,795.479,246.4,796.954Z" transform="translate(-246.365 -793.35)" fill="#7690c9"/>
            </g>
          </g>
          <path id="Trazado_38607" data-name="Trazado 38607" d="M398.024,399.618c-66.97,9.786-72.551-57.787-53.7-77.338S370.685,288.029,370,278.244s18.374-49.39,99.217,3.794C603.878,370.629,454.171,391.413,398.024,399.618Z" transform="translate(-319.709 -218.283)" fill="#f2f9ff" fill-rule="evenodd"/>
        </g>
        <g id="Grupo_21726" data-name="Grupo 21726" transform="translate(196.861 124.899)">
          <g id="Grupo_21722" data-name="Grupo 21722" transform="translate(1.411 47.983)">
            <ellipse id="Elipse_1050" data-name="Elipse 1050" cx="11.221" cy="3.259" rx="11.221" ry="3.259" transform="translate(2.723)" fill="#cde4f7"/>
            <path id="Trazado_38608" data-name="Trazado 38608" d="M310.208,1266.35c0,1.8-5.024,3.259-11.221,3.259s-11.221-1.459-11.221-3.259a24.169,24.169,0,0,0,0,5.239c0,.755.884,1.45,2.368,2a17.1,17.1,0,0,0,2.758.734,33.572,33.572,0,0,0,6.095.522,33.975,33.975,0,0,0,5.842-.476,18.3,18.3,0,0,0,2.762-.691c1.387-.48,2.3-1.079,2.551-1.736.019-.179.035-.359.049-.536A34.309,34.309,0,0,0,310.208,1266.35Z" transform="translate(-285.043 -1263.091)" fill="#b2ceff" fill-rule="evenodd"/>
            <path id="Trazado_38609" data-name="Trazado 38609" d="M452.541,1351.063c0,.01,0,.021,0,.031v-.031Zm-2.184-14.561,2.155,14.407.028.185v.008l2.36,15.773a.417.417,0,0,1,.122.276v.541l1.65,11.032H458.2l-5.08-42.912A18.325,18.325,0,0,1,450.357,1336.5Z" transform="translate(-430.572 -1325.22)" fill="#cde4f7" fill-rule="evenodd"/>
            <path id="Trazado_38610" data-name="Trazado 38610" d="M270.75,1335.7a17.116,17.116,0,0,1-2.759-.734l-5.09,43h1.526l1.656-11.069v-.5a.411.411,0,0,1,.115-.268l2.366-15.819h0a.426.426,0,0,1,.019-.125Z" transform="translate(-262.901 -1324.462)" fill="#cde4f7" fill-rule="evenodd"/>
            <path id="Trazado_38611" data-name="Trazado 38611" d="M332.838,1464.774c-.351-.93-3.854-1.661-8.124-1.661-4.315,0-7.846.746-8.134,1.691l-.019.124v0a.6.6,0,0,0,.234.432c.872-.793,4.087-1.382,7.919-1.382s7.047.589,7.919,1.382a.623.623,0,0,0,.232-.4Z" transform="translate(-310.897 -1439.086)" fill="#8eace8" fill-rule="evenodd"/>
            <path id="Trazado_38612" data-name="Trazado 38612" d="M332.633,1480.756c-.872.793-4.087,1.382-7.919,1.382s-7.047-.589-7.919-1.382a.6.6,0,0,1-.234-.432v.865c0,1,3.65,1.815,8.153,1.815s8.153-.813,8.153-1.815v-.835A.623.623,0,0,1,332.633,1480.756Z" transform="translate(-310.897 -1454.481)" fill="#b2ceff" fill-rule="evenodd"/>
            <path id="Trazado_38613" data-name="Trazado 38613" d="M314.612,1617.08c-.779-.871-5.189-1.539-10.512-1.539-5.339,0-9.759.672-10.519,1.547l-.066.444a.824.824,0,0,0,.256.257c1.138-.793,5.331-1.382,10.33-1.382s9.192.589,10.33,1.382a.84.84,0,0,0,.251-.25Z" transform="translate(-290.283 -1575.426)" fill="#8eace8" fill-rule="evenodd"/>
            <path id="Trazado_38614" data-name="Trazado 38614" d="M314.013,1634.659c-1.138.793-5.331,1.382-10.33,1.382s-9.192-.589-10.33-1.382a.826.826,0,0,1-.256-.258l-.049.328v.363c0,1,4.761,1.815,10.635,1.815s10.634-.812,10.634-1.815v-.326l-.053-.357A.846.846,0,0,1,314.013,1634.659Z" transform="translate(-289.867 -1592.295)" fill="#b2ceff" fill-rule="evenodd"/>
          </g>
          <g id="Grupo_21725" data-name="Grupo 21725" transform="translate(0 0)">
            <path id="Trazado_38615" data-name="Trazado 38615" d="M460.621,1164.37c.985-2.272,2.875-6.708,4.719-11.475,3.134-8.1,6.138-17.162,4.353-18.189-3.3-1.9-16.173,2.1-16.173,2.1l-.989,5.9.165.784s1.462.874,3.46,2.195l5.594-1.536c-.55,1.341-1.069,2.823-1.553,4.354-.885,2.8-1.647,5.768-2.243,8.32-.9,3.848-1.422,6.758-1.422,6.758a4.065,4.065,0,0,0,3.016,2.326,2.8,2.8,0,0,0,.378.046S460.186,1165.374,460.621,1164.37Z" transform="translate(-431.105 -1096.901)" fill="#ffcc5c" fill-rule="evenodd"/>
            <path id="Trazado_38616" data-name="Trazado 38616" d="M286.093,947.554c10.561,1.4,13.241-1.567,13.241-1.567.27-1.549.475-3.827.629-6.262,0-.016,0-.024,0-.024.146-2.317.246-4.773.314-6.879a9.35,9.35,0,0,0,2.9-.553,4.873,4.873,0,0,0,.531-.227s.041-5.115-.908-7.055-5.125-3.784-5.125-3.784a6,6,0,0,1-4.7-.35,19,19,0,0,0-6.838,1.329,7.257,7.257,0,0,0-1.068.557,17.629,17.629,0,0,0-4.913,5.425s.825,2.805,5.033,4.249l.174,2.891.294,4.894Z" transform="translate(-276.919 -906.078)" fill="#728fcc" fill-rule="evenodd"/>
            <path id="Trazado_38617" data-name="Trazado 38617" d="M608.255,983.845a7.379,7.379,0,0,0,1.922.215c1.344,0,2.434-.249,2.434-.556l.07-.765.424-4.643.1-1.056-.023,0a.278.278,0,0,1-.2-.268,2.594,2.594,0,0,0-.854-.3,11.412,11.412,0,0,0-3.894,0,2.561,2.561,0,0,0-.856.3.273.273,0,0,1-.216.257h-.007l.071.776.521,5.7C607.743,983.633,607.934,983.751,608.255,983.845Z" transform="translate(-569.406 -955.672)" fill="#b2ceff" fill-rule="evenodd"/>
            <path id="Trazado_38618" data-name="Trazado 38618" d="M605.885,971.617a11.416,11.416,0,0,1,3.894,0,2.6,2.6,0,0,1,.854.3.278.278,0,0,0,.2.268l.023,0a.257.257,0,0,0,.271-.228l.008-.087c0-.964-2.784-1-3.3-1s-3.3.032-3.3,1l0,.057a.26.26,0,0,0,.273.247h.007a.273.273,0,0,0,.216-.257A2.557,2.557,0,0,1,605.885,971.617Z" transform="translate(-567.06 -950.821)" fill="#ecf6ff" fill-rule="evenodd"/>
            <path id="Trazado_38619" data-name="Trazado 38619" d="M352.168,1170.67c-1.406-1.041-2.823-2.013-4.041-2.818-2-1.321-3.46-2.195-3.46-2.195l-.165-.784.989-5.9s-2.68,2.97-13.241,1.567c0,0-1.939,7.508,1.856,11.056,2.886,2.7,10.638,5.682,15.82,7.392,1.29.426,2.421.773,3.277,1.017a26.4,26.4,0,0,0-.611,6.528c-.144,9.55,1.027,25.245,1.027,25.245a6.314,6.314,0,0,0,3.823.138c.116-.033.179-.056.179-.056s2.805-29.95,1.485-34.158a7.685,7.685,0,0,0-1.795-2.644A39.978,39.978,0,0,0,352.168,1170.67Z" transform="translate(-323.076 -1119.065)" fill="#ffcc5c" fill-rule="evenodd"/>
            <path id="Trazado_38620" data-name="Trazado 38620" d="M477.549,1415.15c0,1.073,3.63,7.921,4.373,6.848s0-7.038,0-7.038a4.065,4.065,0,0,1-3.016-2.326S477.549,1414.077,477.549,1415.15Z" transform="translate(-453.482 -1345.951)" fill="#6ca1ff" fill-rule="evenodd"/>
            <path id="Trazado_38621" data-name="Trazado 38621" d="M536.679,1662.318c.825.867,6.807,2.723,7.426,2.063s-1.719-3.519-3.727-4.977a6.315,6.315,0,0,1-3.823-.138S535.854,1661.451,536.679,1662.318Z" transform="translate(-506.012 -1566.551)" fill="#6ca1ff" fill-rule="evenodd"/>
            <path id="Trazado_38622" data-name="Trazado 38622" d="M470.816,1003.606c2.993.079,10.122-3.791,12.844-7.013-.321-.094-.512-.213-.512-.341l-.521-5.7c-1.134.454-.22,4.018-.22,4.018-3.728,1.278-9.411,3.992-10.923,4.724l-.417-4.683a9.353,9.353,0,0,1-2.9.553c-.068,2.105-.168,4.562-.314,6.879,0,.008,0,.016,0,.024C467.849,1002.259,467.917,1003.529,470.816,1003.606Z" transform="translate(-444.811 -968.42)" fill="#ff837f" fill-rule="evenodd"/>
            <path id="Trazado_38623" data-name="Trazado 38623" d="M259.321,1002.161a63.879,63.879,0,0,0,8.567.507c1.96.534,6.035-.393,5.643-1.465s-3.527-.32-3.527-.32,1.227-.361.98-.939-3.178.991-3.178.991a93.071,93.071,0,0,0-8.779-3.668c-.715-.259-1.316-.467-1.763-.618l1.589-2.273c-4.208-1.444-5.033-4.249-5.033-4.249s-3.341,5.239-3.094,7.879C250.9,999.855,253.784,1001.4,259.321,1002.161Z" transform="translate(-250.589 -968.039)" fill="#ff837f" fill-rule="evenodd"/>
            <path id="Trazado_38624" data-name="Trazado 38624" d="M653.294,997.289a.736.736,0,0,0,.538.492c.411.05.888-.46.968-2.1,0,0,.142-2.3-.544-2.542a.377.377,0,0,0-.178-.016C653.191,993.246,652.985,996.525,653.294,997.289Z" transform="translate(-610.557 -970.714)" fill="#ff837f" fill-rule="evenodd"/>
            <path id="Trazado_38625" data-name="Trazado 38625" d="M407.74,827.722c2.186-.908,1.031-7.88,1.031-7.88-1.753.66-5.033-.021-5.033-.021-.33,2.31-.8,2.166-.8,2.166a1.42,1.42,0,0,0-1.015.151.751.751,0,0,0-.161.158c-.371.495.062,1.073.536,1.3l-.681,6.89a6,6,0,0,0,4.7.35l.007-3.009A2.585,2.585,0,0,0,407.74,827.722Z" transform="translate(-385.561 -815.709)" fill="#ff837f" fill-rule="evenodd"/>
            <path id="Trazado_38626" data-name="Trazado 38626" d="M404.341,784.97s3.28.681,5.033.021,2.31-3.321,1.175-3.981-3.032,1.031-4.146,1.2-3.4-.062-3.919,1.712a6.89,6.89,0,0,0,.037,3.369,1.42,1.42,0,0,1,1.015-.151S404.011,787.281,404.341,784.97Z" transform="translate(-386.165 -780.858)" fill="#372d96" fill-rule="evenodd"/>
            <g id="Grupo_21723" data-name="Grupo 21723" transform="translate(3.107 14.65)">
              <path id="Trazado_38627" data-name="Trazado 38627" d="M332.522,1127.08l-.324-5.392a.125.125,0,0,1,.249-.015l.324,5.392a.125.125,0,0,1-.249.015Z" transform="translate(-326.579 -1100.246)" fill="#222378" fill-rule="evenodd"/>
              <path id="Trazado_38628" data-name="Trazado 38628" d="M388.055,947.951a.119.119,0,0,1-.024.039,5.556,5.556,0,0,1-1.831,1.059,19.1,19.1,0,0,1-6.867.92.125.125,0,0,1,0-.25,18.869,18.869,0,0,0,6.773-.9,5.572,5.572,0,0,0,1.711-.968c.207-1.2.328-2.43.432-3.638q.11-1.277.189-2.556s0-.008,0-.013,0-.021,0-.032,0-.009,0-.014q.061-.972.11-1.946.125-2.428.206-4.871a.114.114,0,0,1-.005-.031.126.126,0,0,1,.008-.048q.089-2.7.12-5.4a.125.125,0,1,1,.25,0q-.031,2.648-.118,5.309a8.862,8.862,0,0,0,3.169-.725c.011-1.791-.149-5.4-.9-6.924-.728-1.488-3.577-3.067-5.064-3.724a.125.125,0,0,1,.1-.228c1.554.687,4.426,2.287,5.187,3.843.779,1.592.936,5.3.92,7.11a.122.122,0,0,1-.066.109,8.937,8.937,0,0,1-3.36.789q-.08,2.4-.2,4.8c-.079,1.524-.173,3.049-.3,4.569-.106,1.228-.229,2.482-.441,3.7A.121.121,0,0,1,388.055,947.951Z" transform="translate(-368.63 -922.647)" fill="#222378" fill-rule="evenodd"/>
              <path id="Trazado_38629" data-name="Trazado 38629" d="M284.379,921.594a3.544,3.544,0,0,1,2.765,1.991,4.315,4.315,0,0,1,.406,1.779.125.125,0,0,1-.25-.007,4.07,4.07,0,0,0-.382-1.665,3.377,3.377,0,0,0-2.879-1.894,16.41,16.41,0,0,0-4.814,5.31,5.294,5.294,0,0,0,.9,1.5,8.928,8.928,0,0,0,3.945,2.586l2.216-3.384a.125.125,0,0,1,.209.137l-2.269,3.466a.126.126,0,0,1-.145.05,9.226,9.226,0,0,1-4.147-2.694,5.359,5.359,0,0,1-.965-1.637.12.12,0,0,1,.011-.1,18.347,18.347,0,0,1,3.9-4.7A8.62,8.62,0,0,1,285.025,921a18.105,18.105,0,0,1,4.71-1.2,15.75,15.75,0,0,1,2.179-.139.125.125,0,0,1-.006.25,15.518,15.518,0,0,0-2.143.138,17.869,17.869,0,0,0-4.645,1.182A6.706,6.706,0,0,0,284.379,921.594Z" transform="translate(-278.966 -919.656)" fill="#222378" fill-rule="evenodd"/>
            </g>
            <g id="Grupo_21724" data-name="Grupo 21724" transform="translate(8.706 37.171)">
              <path id="Trazado_38630" data-name="Trazado 38630" d="M534.263,1195.421a24.771,24.771,0,0,1,2.484-5.14.125.125,0,0,1,.206.141,24.55,24.55,0,0,0-2.457,5.086.125.125,0,1,1-.233-.088Z" transform="translate(-512.909 -1184.19)" fill="#ff7701" fill-rule="evenodd"/>
              <path id="Trazado_38631" data-name="Trazado 38631" d="M489.518,1372.616a3.881,3.881,0,0,0,2.012,1.954,4.025,4.025,0,0,0,1.173.306l.114-.258a.125.125,0,1,1,.228.1c-.049.112-.1.226-.149.338a.123.123,0,0,1-.117.073,4.188,4.188,0,0,1-3.5-2.444.118.118,0,0,1-.01-.075c.28-1.537.6-3.073.933-4.6a.125.125,0,0,1,.244.054C490.111,1369.574,489.8,1371.094,489.518,1372.616Z" transform="translate(-472.666 -1343.121)" fill="#ff7701" fill-rule="evenodd"/>
              <path id="Trazado_38632" data-name="Trazado 38632" d="M490.058,1134.776c2.858-.749,10.663-2.669,13.18-1.222,1.193.686.267,4.414.024,5.419a90.7,90.7,0,0,1-3.233,10.048.125.125,0,0,1-.234-.087,90.419,90.419,0,0,0,3.225-10.02c.2-.847,1.1-4.564.094-5.145-2.423-1.393-10.229.522-12.992,1.247a.125.125,0,1,1-.063-.241Z" transform="translate(-473.294 -1133.028)" fill="#ff7701" fill-rule="evenodd"/>
              <path id="Trazado_38633" data-name="Trazado 38633" d="M529.262,1503.951q-.029-.729-.054-1.458a.125.125,0,1,1,.249-.009q.025.728.054,1.457a.125.125,0,0,1-.249.01Z" transform="translate(-508.395 -1463.382)" fill="#ff7701" fill-rule="evenodd"/>
              <path id="Trazado_38634" data-name="Trazado 38634" d="M531.089,1439.235a6.194,6.194,0,0,0,3.767.08c.538-5.732.988-11.5,1.349-17.245.18-2.856.335-5.718.423-8.579a.125.125,0,1,1,.249.008c-.088,2.863-.243,5.728-.423,8.587-.363,5.774-.815,11.571-1.357,17.332a.122.122,0,0,1-.082.106,6.4,6.4,0,0,1-4.088-.083.122.122,0,0,1-.08-.107c-.353-4.706-.617-9.444-.812-14.158a.125.125,0,1,1,.249-.01C530.478,1429.85,530.739,1434.558,531.089,1439.235Z" transform="translate(-509.134 -1383.781)" fill="#ff7701" fill-rule="evenodd"/>
              <path id="Trazado_38635" data-name="Trazado 38635" d="M450.351,1207.865c3.452,2.07,13.3,8.446,14.447,12.088a8.535,8.535,0,0,1,.271,1.809c.069.943.085,1.9.087,2.844a.125.125,0,1,1-.249,0c0-.94-.019-1.889-.087-2.827a8.321,8.321,0,0,0-.26-1.753c-1.118-3.564-11.053-9.983-14.384-11.977a.121.121,0,0,1-.058-.081l-.33-1.568a.125.125,0,0,1,.244-.051Z" transform="translate(-437.355 -1198.523)" fill="#ff7701" fill-rule="evenodd"/>
              <path id="Trazado_38636" data-name="Trazado 38636" d="M353.455,1246.507l.026.006.01,0q.3.085.6.165a.125.125,0,1,1-.064.241l-.51-.139a19.148,19.148,0,0,0-.508,4.3c-.1,2.371-.081,4.767-.034,7.14a.125.125,0,0,1-.25.005c-.047-2.378-.067-4.778.034-7.155a19.36,19.36,0,0,1,.517-4.359c-1.238-.352-2.475-.753-3.69-1.161-2.064-.693-4.115-1.442-6.133-2.26-1.8-.731-3.6-1.522-5.326-2.428a18.3,18.3,0,0,1-3.873-2.554,7.907,7.907,0,0,1-2.237-4.709.125.125,0,0,1,.247-.037,7.669,7.669,0,0,0,2.161,4.564,18.084,18.084,0,0,0,3.818,2.515c1.714.9,3.509,1.69,5.3,2.418,2.013.816,4.06,1.564,6.119,2.255C350.915,1245.737,352.184,1246.148,353.455,1246.507Z" transform="translate(-332.019 -1222.86)" fill="#ff7701" fill-rule="evenodd"/>
            </g>
            <path id="Trazado_38637" data-name="Trazado 38637" d="M606.81,988.615c0,.11.538.253.616.271a9.047,9.047,0,0,0,3.386,0c.078-.018.616-.161.616-.271a.125.125,0,1,1,.249,0c0,.629-2.17.681-2.558.681s-2.543-.051-2.558-.674l-.591-6.471a.125.125,0,1,1,.248-.023l.592,6.475S606.81,988.611,606.81,988.615Z" transform="translate(-568.348 -960.783)" fill="#222378" fill-rule="evenodd"/>
            <path id="Trazado_38638" data-name="Trazado 38638" d="M653.176,992.2a.257.257,0,0,0-.12-.01c-.516.072-.724,1.6-.764,1.989a5.826,5.826,0,0,0,.079,2.007.63.63,0,0,0,.438.415.125.125,0,1,1-.03.248.863.863,0,0,1-.639-.569c-.306-.754-.164-4.191.882-4.337a.5.5,0,0,1,.236.021.125.125,0,1,1-.081.236Z" transform="translate(-609.518 -969.657)" fill="#fff" fill-rule="evenodd"/>
            <path id="Trazado_38639" data-name="Trazado 38639" d="M482.295,1061.366a6.825,6.825,0,0,0,1.3.146c2.146.057,5.767-1.809,7.58-2.892a24.731,24.731,0,0,0,4.287-3.154.125.125,0,1,1,.172.181,24.971,24.971,0,0,1-4.33,3.187c-1.864,1.114-5.507,2.985-7.714,2.927a7.053,7.053,0,0,1-1.352-.152.125.125,0,1,1,.055-.243Z" transform="translate(-457.591 -1026.451)" fill="#fff" fill-rule="evenodd"/>
            <path id="Trazado_38640" data-name="Trazado 38640" d="M250.85,1024.852a9.512,9.512,0,0,0-1.058,4.045c.156,1.661,2.588,2.634,3.92,3.063a41.583,41.583,0,0,0,11.216,1.464.125.125,0,1,1-.005.25,41.8,41.8,0,0,1-11.287-1.476c-1.452-.469-3.924-1.483-4.092-3.278a9.685,9.685,0,0,1,1.078-4.17.125.125,0,0,1,.228.1Z" transform="translate(-249.53 -998.942)" fill="#fff" fill-rule="evenodd"/>
            <path id="Trazado_38641" data-name="Trazado 38641" d="M430.594,889.8a6.661,6.661,0,0,1-1.752-.594.125.125,0,1,1,.108-.225,6.418,6.418,0,0,0,1.685.572.125.125,0,1,1-.041.246Z" transform="translate(-409.853 -877.556)" fill="#fff" fill-rule="evenodd"/>
            <path id="Trazado_38642" data-name="Trazado 38642" d="M497.839,1032.213l-.341-3.835a.125.125,0,1,1,.248-.022l.333,3.741c2.159-1.048,4.358-2.054,6.562-3,1.383-.59,2.791-1.167,4.213-1.655a.125.125,0,1,1,.081.236c-1.417.486-2.819,1.061-4.2,1.649-2.251.961-4.5,1.991-6.7,3.063a.119.119,0,0,1-.023.011l-.368.18a.125.125,0,1,1-.11-.224Z" transform="translate(-471.297 -1001.413)" fill="#fff" fill-rule="evenodd"/>
            <path id="Trazado_38643" data-name="Trazado 38643" d="M314.754,1048.666c.59-.313,3.008-1.57,3.3-.9a.578.578,0,0,1-.239.7,8.08,8.08,0,0,1,1.286-.09.125.125,0,0,1,0,.25,8.878,8.878,0,0,0-2.108.252.125.125,0,0,1-.065-.241c.255-.077,1.065-.388.9-.77-.1-.231-1.364.279-1.517.344-.5.211-1.006.453-1.487.708a.124.124,0,0,1-.062.014.121.121,0,0,1-.051-.013c-2.541-1.235-5.169-2.329-7.816-3.316-.884-.329-1.781-.656-2.681-.959a.126.126,0,0,1-.057-.019q-.428-.144-.856-.279a.125.125,0,0,1,.075-.238q.4.127.8.261l.468-.669a.125.125,0,1,1,.2.143l-.426.608c.859.292,1.715.6,2.558.918C309.608,1046.351,312.223,1047.438,314.754,1048.666Z" transform="translate(-297.539 -1015.91)" fill="#fff" fill-rule="evenodd"/>
            <path id="Trazado_38644" data-name="Trazado 38644" d="M459.773,836.175c-.029.135.039.348.175.375s.281-.141.31-.274-.043-.348-.175-.375S459.8,836.042,459.773,836.175Z" transform="translate(-437.576 -830.089)" fill="#434242" fill-rule="evenodd"/>
            <path id="Trazado_38645" data-name="Trazado 38645" d="M435.092,836.684c-.029.135.043.348.174.375s.281-.141.31-.274-.039-.348-.175-.375S435.121,836.55,435.092,836.684Z" transform="translate(-415.501 -830.544)" fill="#434242" fill-rule="evenodd"/>
            <path id="Trazado_38646" data-name="Trazado 38646" d="M431.408,829.461a1.116,1.116,0,0,0-.189-.01,1.643,1.643,0,0,0-.874.275.085.085,0,0,0,.1.14,1.448,1.448,0,0,1,.78-.247,1.2,1.2,0,0,1,.122,0l.032,0h.009a.086.086,0,0,0,.1-.07A.087.087,0,0,0,431.408,829.461Z" transform="translate(-411.229 -824.322)" fill="#434242" fill-rule="evenodd"/>
            <path id="Trazado_38647" data-name="Trazado 38647" d="M456.584,828.123a.554.554,0,0,0-.156-.119.9.9,0,0,0-.462-.1,1.557,1.557,0,0,0-.49.1.084.084,0,0,0-.052.107.086.086,0,0,0,.109.051,1.387,1.387,0,0,1,.435-.087.737.737,0,0,1,.376.084.44.44,0,0,1,.087.058c.009.008.018.013.018.017l0,0,0,0,0,0h0l0,0,0,0a.083.083,0,0,0,.117.011A.086.086,0,0,0,456.584,828.123Z" transform="translate(-433.689 -822.935)" fill="#434242" fill-rule="evenodd"/>
            <path id="Trazado_38648" data-name="Trazado 38648" d="M450.556,847.415l.249.93-.55.011a.042.042,0,0,0,0,.083l.6-.012a.038.038,0,0,0,.031-.016.05.05,0,0,0,.008-.036l-.264-.981a.041.041,0,0,0-.05-.03A.043.043,0,0,0,450.556,847.415Z" transform="translate(-429.033 -840.343)" fill="#434242" fill-rule="evenodd"/>
            <path id="Trazado_38649" data-name="Trazado 38649" d="M441.627,864.784a1.384,1.384,0,0,0,.263.3,1.168,1.168,0,0,0,.795.291,1.574,1.574,0,0,0,.691-.193.044.044,0,0,0,.017-.055.039.039,0,0,0-.054-.018,1.506,1.506,0,0,1-.655.183,1.167,1.167,0,0,1-.92-.465.43.43,0,0,1-.046-.063l-.014-.017v-.005a.044.044,0,0,0-.059-.015A.041.041,0,0,0,441.627,864.784Z" transform="translate(-421.348 -855.87)" fill="#434242" fill-rule="evenodd"/>
          </g>
        </g>
        <g id="Grupo_21755" data-name="Grupo 21755" transform="translate(245.295 65.234)">
          <g id="Grupo_21730" data-name="Grupo 21730" transform="translate(25.35)">
            <path id="Trazado_38650" data-name="Trazado 38650" d="M950.464,579.776h52.872a1.884,1.884,0,0,0,1.878-1.878h0a1.884,1.884,0,0,0-1.878-1.878H950.464a1.884,1.884,0,0,0-1.878,1.878h0A1.884,1.884,0,0,0,950.464,579.776Z" transform="translate(-948.586 -537.975)" fill="#8eace8" fill-rule="evenodd"/>
            <g id="Grupo_21727" data-name="Grupo 21727" transform="translate(2.838 23.285)">
              <path id="Trazado_38651" data-name="Trazado 38651" d="M992.156,448.594c-.614-.848-2.279-1.152-3.346-1.261a2.674,2.674,0,0,1-.049.265s-1.008.132-1.074-.057a1.775,1.775,0,0,1-.166-.245c-.813.074-2.864.365-3.536,1.456Z" transform="translate(-983.087 -446.123)" fill="#ffcc5c" fill-rule="evenodd"/>
              <path id="Trazado_38652" data-name="Trazado 38652" d="M1017.524,436.484a.741.741,0,0,0-1.2.869,1.773,1.773,0,0,0,.166.245c.066.189,1.074.057,1.074.057a2.627,2.627,0,0,0,.049-.265A1.609,1.609,0,0,0,1017.524,436.484Z" transform="translate(-1011.889 -436.18)" fill="#eba71e" fill-rule="evenodd"/>
              <path id="Trazado_38653" data-name="Trazado 38653" d="M1061.233,460.627a2.064,2.064,0,0,0-1.769-.193l-.081.026a.319.319,0,1,0,.2.606,1.467,1.467,0,0,1,1.3.1,2.165,2.165,0,0,1,.689,2.116,4.826,4.826,0,0,1-1.754,2.921c-.057.048-.115.1-.173.141a.319.319,0,0,0,.394.5,5.537,5.537,0,0,0,2.165-3.475A2.76,2.76,0,0,0,1061.233,460.627Z" transform="translate(-1050.332 -457.774)" fill="#ffcc5c" fill-rule="evenodd"/>
              <path id="Trazado_38654" data-name="Trazado 38654" d="M984.547,459.6l-8.171.158-.9.017,1.056,1.409.254,6.128a30.5,30.5,0,0,0,8.26-.365l-.042-.683a.319.319,0,0,1-.216-.57q.087-.068.173-.141l-.313-5.117a.32.32,0,0,1-.121-.622l.081-.026-.006-.1C984.586,459.652,984.567,459.624,984.547,459.6Z" transform="translate(-975.478 -457.124)" fill="#ffe8ba" fill-rule="evenodd"/>
              <path id="Trazado_38655" data-name="Trazado 38655" d="M996.15,529.2a30.5,30.5,0,0,1-8.26.365l.2,4.93a29.166,29.166,0,0,0,8.346-.564Z" transform="translate(-986.58 -519.385)" fill="#f7bf4f" fill-rule="evenodd"/>
            </g>
            <g id="Grupo_21728" data-name="Grupo 21728" transform="translate(16.679 28.555)">
              <path id="Trazado_38656" data-name="Trazado 38656" d="M1117.586,517.117c.035.172-1.855.7-4.22,1.173s-4.311.723-4.346.552c0,0,.3,1.557,3.055,2.4.034.172.874.147,1.875-.054s1.784-.5,1.75-.676a7.234,7.234,0,0,0,.942-.932.212.212,0,0,0,.16.045,2.467,2.467,0,0,0,1.934-1.12c.216-.4.282-1.06-.167-1.337a.825.825,0,0,0-.965.187,1.237,1.237,0,0,0-.017-.24Zm-.635,2.055a3.808,3.808,0,0,0,.588-1.29.213.213,0,0,0,.195-.064c.113-.12.422-.4.611-.287.229.141.115.587.015.774A1.947,1.947,0,0,1,1116.951,519.172Z" transform="translate(-1108.765 -513.809)" fill="#ffe8ba" fill-rule="evenodd"/>
              <path id="Trazado_38657" data-name="Trazado 38657" d="M1114.63,486.306c.07.16-1.665,1.075-3.875,2.043s-4.059,1.622-4.129,1.462c0,0,.622,1.458,3.495,1.7.07.16.886-.042,1.821-.451s1.637-.871,1.567-1.032a7.254,7.254,0,0,0,.722-1.111.212.212,0,0,0,.166.01,2.468,2.468,0,0,0,1.652-1.5c.125-.441.051-1.1-.447-1.271a.824.824,0,0,0-.9.388,1.266,1.266,0,0,0-.068-.231Zm-.185,2.143a3.8,3.8,0,0,0,.3-1.385.214.214,0,0,0,.177-.1c.085-.141.326-.484.536-.41.254.09.237.55.179.754A1.948,1.948,0,0,1,1114.446,488.449Z" transform="translate(-1106.624 -486.113)" fill="#ffe8ba" fill-rule="evenodd"/>
              <path id="Trazado_38658" data-name="Trazado 38658" d="M1119.092,548.686c0,.175-1.956.317-4.369.317s-4.369-.142-4.369-.317c0,0-.015,1.585,2.52,2.958,0,.175.828.317,1.849.317s1.849-.142,1.849-.317a7.232,7.232,0,0,0,1.107-.728.213.213,0,0,0,.148.076,2.468,2.468,0,0,0,2.117-.716c.292-.354.486-.983.1-1.344a.825.825,0,0,0-.983-.007,1.257,1.257,0,0,0,.031-.239Zm-1.029,1.889a3.8,3.8,0,0,0,.831-1.148.213.213,0,0,0,.2-.024c.134-.1.493-.313.656-.161.2.184,0,.6-.138.762A1.947,1.947,0,0,1,1118.063,550.575Z" transform="translate(-1109.958 -542.082)" fill="#ffe8ba" fill-rule="evenodd"/>
              <path id="Trazado_38659" data-name="Trazado 38659" d="M1119.092,546c0-.175-1.956-.317-4.369-.317s-4.369.142-4.369.317,1.956.317,4.369.317S1119.092,546.176,1119.092,546Z" transform="translate(-1109.958 -539.396)" fill="#f7bf4f" fill-rule="evenodd"/>
              <path id="Trazado_38660" data-name="Trazado 38660" d="M1117.582,516.989c-.034-.172-1.98.075-4.346.552s-4.255,1-4.22,1.173,1.98-.075,4.346-.552S1117.617,517.161,1117.582,516.989Z" transform="translate(-1108.761 -513.681)" fill="#f7bf4f" fill-rule="evenodd"/>
              <path id="Trazado_38661" data-name="Trazado 38661" d="M1114.613,487.736c-.07-.16-1.919.494-4.129,1.462s-3.945,1.882-3.875,2.043,1.919-.494,4.129-1.462S1114.683,487.9,1114.613,487.736Z" transform="translate(-1106.607 -487.543)" fill="#f7bf4f" fill-rule="evenodd"/>
            </g>
            <g id="Grupo_21729" data-name="Grupo 21729" transform="translate(28.974)">
              <path id="Trazado_38662" data-name="Trazado 38662" d="M1390.611,414.021c4.894,1.272,6.938,2.57,10.642,3.671,2.606.775,4.86-.493,4.3-3.874s-5.846-5.423-9.578-4.367A9.178,9.178,0,0,0,1390.611,414.021Z" transform="translate(-1372.93 -388.738)" fill="#8eace8" fill-rule="evenodd"/>
              <path id="Trazado_38663" data-name="Trazado 38663" d="M1326.057,215.647c-2.042-.423-7.254.7-9.437,7.747a14.994,14.994,0,0,0,1.388,12.253c2.1-1.265,10.8-9.647,11.289-13.52S1328.1,216.07,1326.057,215.647Z" transform="translate(-1306.116 -215.569)" fill="#8eace8" fill-rule="evenodd"/>
              <path id="Trazado_38664" data-name="Trazado 38664" d="M1230.642,280.832c2.358-11.791-8.526-13.75-7.474-2.816.365,3.791,2.3,8,6.189,9.672C1229.358,287.688,1230.079,283.65,1230.642,280.832Z" transform="translate(-1223.097 -264.978)" fill="#8eace8" fill-rule="evenodd"/>
              <path id="Trazado_38665" data-name="Trazado 38665" d="M1255.059,488.448a32.3,32.3,0,0,1-8.947,1.969q-.945.074-1.849.1c-.946.026-1.854.014-2.715-.025a34.229,34.229,0,0,1-8.322-1.337s.289,1.645.74,3.58a.529.529,0,0,1,.352.037,7.839,7.839,0,0,0,1.174.408,21.414,21.414,0,0,0,3.7.662A50.6,50.6,0,0,0,1255,492.42a.529.529,0,0,1,.158-.012A18.893,18.893,0,0,0,1255.059,488.448Z" transform="translate(-1232.157 -459.646)" fill="#ffe8ba" fill-rule="evenodd"/>
              <path id="Trazado_38666" data-name="Trazado 38666" d="M1257.8,525.962a50.6,50.6,0,0,1-15.813,1.42,21.415,21.415,0,0,1-3.7-.662,7.841,7.841,0,0,1-1.174-.408.533.533,0,0,0-.71.251.533.533,0,0,0,.251.71c.123.059.254.114.39.165.314.12.651.221.953.306a22.458,22.458,0,0,0,3.885.7,51.382,51.382,0,0,0,15.987-1.4l.169-.039a.532.532,0,1,0-.238-1.038Z" transform="translate(-1234.955 -493.189)" fill="#ffcc5c" fill-rule="evenodd"/>
              <path id="Trazado_38667" data-name="Trazado 38667" d="M1263.739,536.274a51.387,51.387,0,0,1-15.987,1.4,22.456,22.456,0,0,1-3.885-.7c-.3-.086-.639-.187-.953-.307a20.77,20.77,0,0,0,1.372,4.061c1.268,2.395,12.748,2.324,18.875-.564A39.309,39.309,0,0,0,1263.739,536.274Z" transform="translate(-1240.822 -502.424)" fill="#ffe8ba" fill-rule="evenodd"/>
              <path id="Trazado_38668" data-name="Trazado 38668" d="M1233.226,479.981a35.981,35.981,0,0,0,21.833-.7S1242.98,476.424,1233.226,479.981Z" transform="translate(-1232.157 -450.475)" fill="#ffca63" fill-rule="evenodd"/>
              <path id="Trazado_38669" data-name="Trazado 38669" d="M1270.085,290.38a39.171,39.171,0,0,1-.307-9.92,43.225,43.225,0,0,1,4.56-15.725.106.106,0,1,1,.19.1,43.006,43.006,0,0,0-4.538,15.648,38.953,38.953,0,0,0,.305,9.865.106.106,0,0,1-.21.036Zm-7.661-18.144c.164,1.285.391,2.587.631,3.859a69.981,69.981,0,0,0,2.012,8.19,31.412,31.412,0,0,0,2.5,6,.106.106,0,1,1-.185.105,31.624,31.624,0,0,1-2.518-6.039,70.281,70.281,0,0,1-2.019-8.216c-.24-1.277-.468-2.582-.633-3.872a.107.107,0,0,1,.211-.027Zm9.512,18a.106.106,0,1,0,.2.062,11.13,11.13,0,0,1,2.456-4.3,11.268,11.268,0,0,1,7.1-3.424.106.106,0,1,0-.026-.211,11.479,11.479,0,0,0-7.234,3.491A11.342,11.342,0,0,0,1271.937,290.234Z" transform="translate(-1258.084 -259.494)" fill="#6ca1ff" fill-rule="evenodd"/>
            </g>
          </g>
          <g id="Grupo_21750" data-name="Grupo 21750" transform="translate(38.872 45.493)">
            <rect id="Rectángulo_3618" data-name="Rectángulo 3618" width="56.629" height="2.794" transform="translate(0 40.653)" fill="#e3edff"/>
            <rect id="Rectángulo_3619" data-name="Rectángulo 3619" width="14.931" height="68.859" transform="translate(56.629 43.446)" fill="#8eace8"/>
            <path id="Trazado_38670" data-name="Trazado 38670" d="M1613.219,1027.524h27.186v3.24h-27.186Z" transform="translate(-1556.59 -987.318)" fill="#ffe8ba" fill-rule="evenodd"/>
            <rect id="Rectángulo_3620" data-name="Rectángulo 3620" width="56.629" height="10.552" transform="translate(0 43.446)" fill="#8eace8"/>
            <g id="Grupo_21749" data-name="Grupo 21749" transform="translate(5.577)">
              <g id="Grupo_21731" data-name="Grupo 21731" transform="translate(0 14.98)">
                <path id="Trazado_38671" data-name="Trazado 38671" d="M1167.908,829.565V845.06h34.934V829.565Z" transform="translate(-1163.857 -825.233)" fill="#ecf6ff" fill-rule="evenodd"/>
                <path id="Trazado_38672" data-name="Trazado 38672" d="M1188.091,789.527h-36.466a1.068,1.068,0,0,0-1.065,1.065v2.1a1.068,1.068,0,0,0,1.065,1.065h36.466a1.068,1.068,0,0,0,1.065-1.065v-2.1a1.068,1.068,0,0,0-1.065-1.065Zm-29.966,1.618h.472a.24.24,0,0,1,.24.24v.51a.24.24,0,0,1-.24.24h-.472a.24.24,0,0,1-.24-.24v-.51a.24.24,0,0,1,.24-.24Zm19.264,0h.472a.24.24,0,0,1,.24.24v.51a.24.24,0,0,1-.24.24h-.472a.24.24,0,0,1-.24-.24v-.51a.24.24,0,0,1,.24-.24Zm-2.844,0h1.4a.25.25,0,0,1,.249.249v.491a.25.25,0,0,1-.249.249h-1.4a.25.25,0,0,1-.249-.249v-.491a.25.25,0,0,1,.249-.249Zm-2.853,0h1.4a.25.25,0,0,1,.249.249v.491a.25.25,0,0,1-.249.249h-1.4a.25.25,0,0,1-.249-.249v-.491a.25.25,0,0,1,.249-.249Zm-16.41,0h1.4a.25.25,0,0,1,.249.249v.491a.25.25,0,0,1-.249.249h-1.4a.25.25,0,0,1-.249-.249v-.491a.25.25,0,0,1,.249-.249Zm-2.853,0h1.4a.25.25,0,0,1,.249.249v.491a.25.25,0,0,1-.249.249h-1.4a.25.25,0,0,1-.249-.249v-.491A.25.25,0,0,1,1152.428,791.145Z" transform="translate(-1148.34 -789.421)" fill="#d4e2ff" fill-rule="evenodd"/>
                <path id="Trazado_38673" data-name="Trazado 38673" d="M1383.272,829.565h-7.606v5l.942,1.827a.592.592,0,0,1,.273-.066h5.177a.593.593,0,0,1,.273.066l.942-1.827Z" transform="translate(-1349.687 -825.233)" fill="#99beff" fill-rule="evenodd"/>
                <path id="Trazado_38674" data-name="Trazado 38674" d="M1230.233,829.565h-7.606v5l.942,1.827a.593.593,0,0,1,.273-.066h5.177a.593.593,0,0,1,.273.066l.942-1.827Z" transform="translate(-1212.801 -825.233)" fill="#99beff" fill-rule="evenodd"/>
                <path id="Trazado_38675" data-name="Trazado 38675" d="M1235.03,893.624h-5.177a.594.594,0,0,0-.273.066.605.605,0,0,0-.233.213.532.532,0,0,1,.355.9.6.6,0,0,0,.151.019h5.177a.6.6,0,0,0,.273-1.131A.592.592,0,0,0,1235.03,893.624Z" transform="translate(-1218.813 -882.53)" fill="#cde4f7" fill-rule="evenodd"/>
                <path id="Trazado_38676" data-name="Trazado 38676" d="M1182.2,896.282l-4.979,1.579a.532.532,0,1,0,.322,1.015l4.979-1.579a.532.532,0,0,0-.322-1.015Z" transform="translate(-1171.855 -884.885)" fill="#ffcc5c" fill-rule="evenodd"/>
                <path id="Trazado_38677" data-name="Trazado 38677" d="M1335.238,896.282l-4.979,1.579a.532.532,0,0,0,.322,1.015l4.979-1.579a.532.532,0,0,0-.322-1.015Z" transform="translate(-1308.74 -884.885)" fill="#ffcc5c" fill-rule="evenodd"/>
                <path id="Trazado_38678" data-name="Trazado 38678" d="M1388.069,893.624h-5.177a.592.592,0,0,0-.273.066.605.605,0,0,0-.233.213.532.532,0,0,1,.355.9.594.594,0,0,0,.151.019h5.177a.6.6,0,0,0,.273-1.131A.592.592,0,0,0,1388.069,893.624Z" transform="translate(-1355.699 -882.53)" fill="#cde4f7" fill-rule="evenodd"/>
                <path id="Trazado_38679" data-name="Trazado 38679" d="M1180.759,976.368h-35.92a1.624,1.624,0,0,0-1.62,1.62h40.145a1.624,1.624,0,0,0-1.62-1.62Z" transform="translate(-1141.774 -956.541)" fill="#ffe8ba" fill-rule="evenodd"/>
                <path id="Trazado_38680" data-name="Trazado 38680" d="M1172.025,991.714h-40.419a1.068,1.068,0,0,0-1.065,1.065v2.1a1.068,1.068,0,0,0,1.065,1.065H1172.3a1.068,1.068,0,0,0,1.065-1.065v-2.1a1.068,1.068,0,0,0-1.065-1.065Zm-4.657,2.006a.25.25,0,0,1,.249-.249h.963a.25.25,0,0,1,.249.249v.491a.25.25,0,0,1-.249.249h-.963a.25.25,0,0,1-.249-.249v-.491Zm2.888,0a.25.25,0,0,1,.249-.249h.963a.25.25,0,0,1,.249.249v.491a.25.25,0,0,1-.249.249h-.963a.25.25,0,0,1-.249-.249v-.491Zm-31.476-.249a.25.25,0,0,1,.249.249v.491a.25.25,0,0,1-.249.249h-6.809a.25.25,0,0,1-.249-.249v-.491a.25.25,0,0,1,.249-.249Z" transform="translate(-1130.434 -970.267)" fill="#d4e2ff" fill-rule="evenodd"/>
                <rect id="Rectángulo_3621" data-name="Rectángulo 3621" width="7.307" height="0.989" rx="0.495" transform="translate(1.286 23.204)" fill="#99beff"/>
                <path id="Rectángulo_3622" data-name="Rectángulo 3622" d="M.495,0H.967a.495.495,0,0,1,.495.495v0A.495.495,0,0,1,.967.989H.495A.495.495,0,0,1,0,.495v0A.495.495,0,0,1,.495,0Z" transform="translate(36.933 23.204)" fill="#99beff"/>
                <path id="Rectángulo_3623" data-name="Rectángulo 3623" d="M.495,0H.967a.495.495,0,0,1,.495.495v0A.495.495,0,0,1,.967.989H.495A.495.495,0,0,1,0,.495v0A.495.495,0,0,1,.495,0Z" transform="translate(39.821 23.204)" fill="#99beff"/>
                <path id="Rectángulo_3624" data-name="Rectángulo 3624" d="M.495,0h.913A.495.495,0,0,1,1.9.495v0a.495.495,0,0,1-.495.495H.495A.495.495,0,0,1,0,.495v0A.495.495,0,0,1,.495,0Z" transform="translate(3.839 1.725)" fill="#99beff"/>
                <path id="Rectángulo_3625" data-name="Rectángulo 3625" d="M.495,0h.913A.495.495,0,0,1,1.9.495v0a.495.495,0,0,1-.495.495H.495A.495.495,0,0,1,0,.495v0A.495.495,0,0,1,.495,0Z" transform="translate(6.692 1.725)" fill="#99beff"/>
                <rect id="Rectángulo_3626" data-name="Rectángulo 3626" width="0.951" height="0.989" rx="0.476" transform="translate(9.545 1.725)" fill="#99beff"/>
                <path id="Rectángulo_3627" data-name="Rectángulo 3627" d="M.495,0h.913A.495.495,0,0,1,1.9.495v0a.495.495,0,0,1-.495.495H.495A.495.495,0,0,1,0,.495v0A.495.495,0,0,1,.495,0Z" transform="translate(23.102 1.725)" fill="#99beff"/>
                <path id="Rectángulo_3628" data-name="Rectángulo 3628" d="M.495,0h.913A.495.495,0,0,1,1.9.495v0a.495.495,0,0,1-.495.495H.495A.495.495,0,0,1,0,.495v0A.495.495,0,0,1,.495,0Z" transform="translate(25.955 1.725)" fill="#99beff"/>
                <rect id="Rectángulo_3629" data-name="Rectángulo 3629" width="0.951" height="0.989" rx="0.476" transform="translate(28.808 1.725)" fill="#99beff"/>
                <path id="Trazado_38681" data-name="Trazado 38681" d="M1130.977,809.859h4.776a.106.106,0,1,1,0,.213H1130.7a.962.962,0,0,0-.958.958v2.1a.961.961,0,0,0,.958.958h31.614a.106.106,0,0,1,0,.213H1130.7a1.174,1.174,0,0,1-1.171-1.171v-2.1a1.174,1.174,0,0,1,1.171-1.171h.273Zm2.606-1.62h8.556a.106.106,0,0,1,0,.213H1132.6a1.519,1.519,0,0,0-1.421.994.107.107,0,0,1-.2-.073,1.732,1.732,0,0,1,1.621-1.134Zm12.794,0h15.941a.106.106,0,0,1,0,.213h-15.941a.106.106,0,0,1,0-.213Zm-7.688-15.282h-5.872a1.175,1.175,0,0,1-1.171-1.171v-2.1a1.174,1.174,0,0,1,1.171-1.171h27.611a.106.106,0,0,1,0,.213h-27.611a.961.961,0,0,0-.958.958v2.1a.961.961,0,0,0,.958.958h5.872a.106.106,0,0,1,0,.213Zm24.429,0a.106.106,0,0,0,0-.213h-22.41a.106.106,0,1,0,0,.213Zm-29.428.536v12.877a.107.107,0,0,1-.213,0V793.493a.107.107,0,0,1,.213,0Zm0,13.171v1.115a.107.107,0,0,1-.213,0v-1.115a.107.107,0,0,1,.213,0Zm34.721,1.682V792.851a.106.106,0,1,1,.213,0v15.495a.106.106,0,1,1-.213,0Zm-26.271,1.513a.106.106,0,1,0,0,.213h28.984a.106.106,0,0,0,0-.213Z" transform="translate(-1129.532 -788.519)" fill="#5c5cc9" fill-rule="evenodd"/>
              </g>
              <g id="Grupo_21732" data-name="Grupo 21732" transform="translate(3.574 9.563)">
                <path id="Trazado_38682" data-name="Trazado 38682" d="M1168.217,741.528c-1.147,0-2.078-.185-2.078-.414l-.505,4.818h.006a.213.213,0,0,1,.184.191,2.4,2.4,0,0,0,.731.225,11.164,11.164,0,0,0,3.324,0,2.44,2.44,0,0,0,.729-.223.214.214,0,0,1,.171-.2l.019,0-.5-4.81C1170.294,741.343,1169.364,741.528,1168.217,741.528Z" transform="translate(-1165.398 -740.7)" fill="#cde4f7" fill-rule="evenodd"/>
                <path id="Trazado_38683" data-name="Trazado 38683" d="M1174.573,737.608c0-.229-.93-.414-2.078-.414s-2.078.185-2.078.414.93.414,2.078.414S1174.573,737.836,1174.573,737.608Z" transform="translate(-1169.677 -737.194)" fill="#b2ceff" fill-rule="evenodd"/>
                <path id="Trazado_38684" data-name="Trazado 38684" d="M1167.877,787.1a11.163,11.163,0,0,1-3.324,0,2.4,2.4,0,0,1-.731-.225.213.213,0,0,0-.184-.191h-.006a.213.213,0,0,0-.233.184l0,.043c0,.718,2.377.741,2.819.741s2.819-.024,2.819-.741l-.006-.064a.213.213,0,0,0-.231-.17l-.019,0a.214.214,0,0,0-.171.2A2.437,2.437,0,0,1,1167.877,787.1Z" transform="translate(-1163.396 -781.454)" fill="#ecf6ff" fill-rule="evenodd"/>
              </g>
              <g id="Grupo_21733" data-name="Grupo 21733" transform="translate(3.574 8.213)">
                <path id="Trazado_38685" data-name="Trazado 38685" d="M1168.217,728.737c-1.147,0-2.078-.185-2.078-.414l-.505,4.818h.006a.213.213,0,0,1,.184.191,2.4,2.4,0,0,0,.731.225,11.153,11.153,0,0,0,3.324,0,2.434,2.434,0,0,0,.729-.223.214.214,0,0,1,.171-.2l.019,0-.5-4.81C1170.294,728.552,1169.364,728.737,1168.217,728.737Z" transform="translate(-1165.398 -727.909)" fill="#cde4f7" fill-rule="evenodd"/>
                <ellipse id="Elipse_1051" data-name="Elipse 1051" cx="2.078" cy="0.414" rx="2.078" ry="0.414" transform="translate(0.741)" fill="#b2ceff"/>
                <path id="Trazado_38686" data-name="Trazado 38686" d="M1167.877,774.312a11.157,11.157,0,0,1-3.324,0,2.4,2.4,0,0,1-.731-.225.214.214,0,0,0-.184-.192h-.006a.213.213,0,0,0-.233.184l0,.043c0,.717,2.377.741,2.819.741s2.819-.024,2.819-.741l-.006-.065a.214.214,0,0,0-.231-.17l-.019,0a.214.214,0,0,0-.171.2A2.431,2.431,0,0,1,1167.877,774.312Z" transform="translate(-1163.396 -768.663)" fill="#ecf6ff" fill-rule="evenodd"/>
              </g>
              <g id="Grupo_21734" data-name="Grupo 21734" transform="translate(3.574 6.933)">
                <path id="Trazado_38687" data-name="Trazado 38687" d="M1168.217,716.615c-1.147,0-2.078-.185-2.078-.414l-.505,4.818h.006a.213.213,0,0,1,.184.191,2.4,2.4,0,0,0,.731.225,11.169,11.169,0,0,0,3.324,0,2.441,2.441,0,0,0,.729-.223.214.214,0,0,1,.171-.2l.019,0-.5-4.81C1170.294,716.429,1169.364,716.615,1168.217,716.615Z" transform="translate(-1165.398 -715.787)" fill="#cde4f7" fill-rule="evenodd"/>
                <path id="Trazado_38688" data-name="Trazado 38688" d="M1174.573,712.695c0-.229-.93-.414-2.078-.414s-2.078.185-2.078.414.93.414,2.078.414S1174.573,712.923,1174.573,712.695Z" transform="translate(-1169.677 -712.281)" fill="#b2ceff" fill-rule="evenodd"/>
                <path id="Trazado_38689" data-name="Trazado 38689" d="M1167.877,762.191a11.174,11.174,0,0,1-3.324,0,2.4,2.4,0,0,1-.731-.225.214.214,0,0,0-.184-.191h-.006a.213.213,0,0,0-.233.184l0,.043c0,.718,2.377.741,2.819.741s2.819-.024,2.819-.741l-.006-.065a.213.213,0,0,0-.231-.17l-.019,0a.214.214,0,0,0-.171.2A2.44,2.44,0,0,1,1167.877,762.191Z" transform="translate(-1163.396 -756.541)" fill="#ecf6ff" fill-rule="evenodd"/>
              </g>
              <g id="Grupo_21735" data-name="Grupo 21735" transform="translate(3.574 5.748)">
                <path id="Trazado_38690" data-name="Trazado 38690" d="M1168.217,705.382c-1.147,0-2.078-.185-2.078-.414l-.505,4.818h.006a.213.213,0,0,1,.184.191,2.4,2.4,0,0,0,.731.225,11.164,11.164,0,0,0,3.324,0,2.443,2.443,0,0,0,.729-.223.214.214,0,0,1,.171-.2l.019,0-.5-4.81C1170.294,705.2,1169.364,705.382,1168.217,705.382Z" transform="translate(-1165.398 -704.554)" fill="#cde4f7" fill-rule="evenodd"/>
                <path id="Trazado_38691" data-name="Trazado 38691" d="M1174.573,701.462c0-.229-.93-.414-2.078-.414s-2.078.185-2.078.414.93.414,2.078.414S1174.573,701.69,1174.573,701.462Z" transform="translate(-1169.677 -701.048)" fill="#b2ceff" fill-rule="evenodd"/>
                <path id="Trazado_38692" data-name="Trazado 38692" d="M1167.877,750.957a11.157,11.157,0,0,1-3.324,0,2.4,2.4,0,0,1-.731-.225.214.214,0,0,0-.184-.192h-.006a.213.213,0,0,0-.233.184l0,.043c0,.718,2.377.741,2.819.741s2.819-.023,2.819-.741l-.006-.065a.213.213,0,0,0-.231-.17l-.019,0a.214.214,0,0,0-.171.2A2.442,2.442,0,0,1,1167.877,750.957Z" transform="translate(-1163.396 -745.308)" fill="#ecf6ff" fill-rule="evenodd"/>
              </g>
              <g id="Grupo_21736" data-name="Grupo 21736" transform="translate(3.574 4.626)">
                <path id="Trazado_38693" data-name="Trazado 38693" d="M1168.217,694.756c-1.147,0-2.078-.185-2.078-.414l-.505,4.818h.006a.213.213,0,0,1,.184.192,2.4,2.4,0,0,0,.731.225,11.153,11.153,0,0,0,3.324,0,2.436,2.436,0,0,0,.729-.223.214.214,0,0,1,.171-.2l.019,0-.5-4.81C1170.294,694.571,1169.364,694.756,1168.217,694.756Z" transform="translate(-1165.398 -693.928)" fill="#cde4f7" fill-rule="evenodd"/>
                <path id="Trazado_38694" data-name="Trazado 38694" d="M1174.573,690.837c0-.228-.93-.414-2.078-.414s-2.078.185-2.078.414.93.414,2.078.414S1174.573,691.065,1174.573,690.837Z" transform="translate(-1169.677 -690.423)" fill="#b2ceff" fill-rule="evenodd"/>
                <path id="Trazado_38695" data-name="Trazado 38695" d="M1167.877,740.332a11.141,11.141,0,0,1-3.324,0,2.4,2.4,0,0,1-.731-.225.214.214,0,0,0-.184-.191h-.006a.213.213,0,0,0-.233.184l0,.043c0,.718,2.377.741,2.819.741s2.819-.024,2.819-.741l-.006-.065a.214.214,0,0,0-.231-.17l-.019,0a.214.214,0,0,0-.171.2A2.431,2.431,0,0,1,1167.877,740.332Z" transform="translate(-1163.396 -734.682)" fill="#ecf6ff" fill-rule="evenodd"/>
              </g>
              <g id="Grupo_21742" data-name="Grupo 21742" transform="translate(9.973 0.015)">
                <g id="Grupo_21737" data-name="Grupo 21737" transform="translate(0 7.067)">
                  <path id="Trazado_38696" data-name="Trazado 38696" d="M1230.922,719.891c-1.642,0-2.974-.265-2.974-.592l-.723,6.9h.008a.306.306,0,0,1,.263.274,3.439,3.439,0,0,0,1.046.322,15.977,15.977,0,0,0,4.758,0,3.5,3.5,0,0,0,1.044-.319.305.305,0,0,1,.245-.285l.028,0-.721-6.886C1233.9,719.626,1232.564,719.891,1230.922,719.891Z" transform="translate(-1226.887 -718.707)" fill="#cde4f7" fill-rule="evenodd"/>
                  <path id="Trazado_38697" data-name="Trazado 38697" d="M1240.023,714.279c0-.327-1.332-.592-2.974-.592s-2.974.265-2.974.592,1.332.592,2.974.592S1240.023,714.607,1240.023,714.279Z" transform="translate(-1233.014 -713.687)" fill="#b2ceff" fill-rule="evenodd"/>
                  <path id="Trazado_38698" data-name="Trazado 38698" d="M1230.436,785.133a15.972,15.972,0,0,1-4.758,0,3.44,3.44,0,0,1-1.046-.322.305.305,0,0,0-.263-.274h-.008a.305.305,0,0,0-.334.263l0,.061c0,1.027,3.4,1.061,4.035,1.061s4.035-.034,4.035-1.061l-.009-.092a.305.305,0,0,0-.331-.243l-.028,0a.305.305,0,0,0-.245.285A3.5,3.5,0,0,1,1230.436,785.133Z" transform="translate(-1224.022 -777.046)" fill="#ecf6ff" fill-rule="evenodd"/>
                </g>
                <g id="Grupo_21738" data-name="Grupo 21738" transform="translate(0 5.134)">
                  <path id="Trazado_38699" data-name="Trazado 38699" d="M1230.922,701.582c-1.642,0-2.974-.265-2.974-.592l-.723,6.9h.008a.305.305,0,0,1,.263.274,3.445,3.445,0,0,0,1.046.322,15.982,15.982,0,0,0,4.758,0,3.5,3.5,0,0,0,1.044-.32.305.305,0,0,1,.245-.285l.028,0-.721-6.886C1233.9,701.317,1232.564,701.582,1230.922,701.582Z" transform="translate(-1226.887 -700.398)" fill="#cde4f7" fill-rule="evenodd"/>
                  <path id="Trazado_38700" data-name="Trazado 38700" d="M1240.023,695.97c0-.327-1.332-.592-2.974-.592s-2.974.265-2.974.592,1.332.592,2.974.592S1240.023,696.3,1240.023,695.97Z" transform="translate(-1233.014 -695.378)" fill="#b2ceff" fill-rule="evenodd"/>
                  <path id="Trazado_38701" data-name="Trazado 38701" d="M1230.436,766.823a15.978,15.978,0,0,1-4.758,0,3.444,3.444,0,0,1-1.046-.322.306.306,0,0,0-.263-.274h-.008a.305.305,0,0,0-.334.263l0,.061c0,1.027,3.4,1.061,4.035,1.061s4.035-.034,4.035-1.061l-.009-.092a.306.306,0,0,0-.331-.243l-.028,0a.305.305,0,0,0-.245.285A3.5,3.5,0,0,1,1230.436,766.823Z" transform="translate(-1224.022 -758.736)" fill="#ecf6ff" fill-rule="evenodd"/>
                </g>
                <g id="Grupo_21739" data-name="Grupo 21739" transform="translate(0 3.303)">
                  <path id="Trazado_38702" data-name="Trazado 38702" d="M1230.922,684.229c-1.642,0-2.974-.265-2.974-.592l-.723,6.9h.008a.305.305,0,0,1,.263.274,3.44,3.44,0,0,0,1.046.322,15.971,15.971,0,0,0,4.758,0,3.5,3.5,0,0,0,1.044-.319.306.306,0,0,1,.245-.285l.028,0-.721-6.886C1233.9,683.964,1232.564,684.229,1230.922,684.229Z" transform="translate(-1226.887 -683.045)" fill="#cde4f7" fill-rule="evenodd"/>
                  <path id="Trazado_38703" data-name="Trazado 38703" d="M1240.023,678.617c0-.327-1.332-.592-2.974-.592s-2.974.265-2.974.592,1.332.592,2.974.592S1240.023,678.944,1240.023,678.617Z" transform="translate(-1233.014 -678.025)" fill="#b2ceff" fill-rule="evenodd"/>
                  <path id="Trazado_38704" data-name="Trazado 38704" d="M1230.436,749.471a15.978,15.978,0,0,1-4.758,0,3.442,3.442,0,0,1-1.046-.322.305.305,0,0,0-.263-.274h-.008a.305.305,0,0,0-.334.263l0,.061c0,1.027,3.4,1.061,4.035,1.061s4.035-.034,4.035-1.061l-.009-.092a.305.305,0,0,0-.331-.243l-.028,0a.305.305,0,0,0-.245.285A3.5,3.5,0,0,1,1230.436,749.471Z" transform="translate(-1224.022 -741.384)" fill="#ecf6ff" fill-rule="evenodd"/>
                </g>
                <g id="Grupo_21740" data-name="Grupo 21740" transform="translate(0 1.605)">
                  <path id="Trazado_38705" data-name="Trazado 38705" d="M1230.922,668.149c-1.642,0-2.974-.265-2.974-.592l-.723,6.9h.008a.305.305,0,0,1,.263.274,3.446,3.446,0,0,0,1.046.322,15.971,15.971,0,0,0,4.758,0,3.493,3.493,0,0,0,1.044-.32.306.306,0,0,1,.245-.285l.028,0-.721-6.886C1233.9,667.884,1232.564,668.149,1230.922,668.149Z" transform="translate(-1226.887 -666.965)" fill="#cde4f7" fill-rule="evenodd"/>
                  <path id="Trazado_38706" data-name="Trazado 38706" d="M1240.023,662.537c0-.327-1.332-.592-2.974-.592s-2.974.265-2.974.592,1.332.592,2.974.592S1240.023,662.864,1240.023,662.537Z" transform="translate(-1233.014 -661.945)" fill="#b2ceff" fill-rule="evenodd"/>
                  <path id="Trazado_38707" data-name="Trazado 38707" d="M1230.436,733.39a15.978,15.978,0,0,1-4.758,0,3.442,3.442,0,0,1-1.046-.322.306.306,0,0,0-.263-.274h-.008a.305.305,0,0,0-.334.263l0,.061c0,1.027,3.4,1.061,4.035,1.061s4.035-.034,4.035-1.061l-.009-.092a.306.306,0,0,0-.331-.244l-.028,0a.305.305,0,0,0-.245.285A3.492,3.492,0,0,1,1230.436,733.39Z" transform="translate(-1224.022 -725.303)" fill="#ecf6ff" fill-rule="evenodd"/>
                </g>
                <g id="Grupo_21741" data-name="Grupo 21741">
                  <path id="Trazado_38708" data-name="Trazado 38708" d="M1230.922,652.938c-1.642,0-2.974-.265-2.974-.592l-.723,6.9h.008a.305.305,0,0,1,.263.274,3.439,3.439,0,0,0,1.046.322,15.966,15.966,0,0,0,4.758,0,3.5,3.5,0,0,0,1.044-.319.306.306,0,0,1,.245-.285l.028,0-.721-6.886C1233.9,652.673,1232.564,652.938,1230.922,652.938Z" transform="translate(-1226.887 -651.754)" fill="#cde4f7" fill-rule="evenodd"/>
                  <path id="Trazado_38709" data-name="Trazado 38709" d="M1240.023,647.326c0-.327-1.332-.592-2.974-.592s-2.974.265-2.974.592,1.332.592,2.974.592S1240.023,647.653,1240.023,647.326Z" transform="translate(-1233.014 -646.734)" fill="#b2ceff" fill-rule="evenodd"/>
                  <path id="Trazado_38710" data-name="Trazado 38710" d="M1230.436,718.179a15.978,15.978,0,0,1-4.758,0,3.443,3.443,0,0,1-1.046-.322.305.305,0,0,0-.263-.274h-.008a.305.305,0,0,0-.334.263l0,.061c0,1.027,3.4,1.061,4.035,1.061s4.035-.034,4.035-1.061l-.009-.092a.306.306,0,0,0-.331-.244l-.028,0a.305.305,0,0,0-.245.285A3.5,3.5,0,0,1,1230.436,718.179Z" transform="translate(-1224.022 -710.092)" fill="#ecf6ff" fill-rule="evenodd"/>
                </g>
              </g>
              <g id="Grupo_21748" data-name="Grupo 21748" transform="translate(19.547)">
                <g id="Grupo_21743" data-name="Grupo 21743" transform="translate(0 7.067)">
                  <path id="Trazado_38711" data-name="Trazado 38711" d="M1321.627,719.749c-1.643,0-2.974-.265-2.974-.592l-.723,6.9h.009a.306.306,0,0,1,.263.274,3.443,3.443,0,0,0,1.046.322,15.973,15.973,0,0,0,4.758,0,3.5,3.5,0,0,0,1.043-.319.305.305,0,0,1,.245-.285l.028,0-.721-6.886C1324.6,719.484,1323.27,719.749,1321.627,719.749Z" transform="translate(-1317.592 -718.565)" fill="#cde4f7" fill-rule="evenodd"/>
                  <path id="Trazado_38712" data-name="Trazado 38712" d="M1330.728,714.138c0-.327-1.331-.592-2.974-.592s-2.974.265-2.974.592,1.332.592,2.974.592S1330.728,714.465,1330.728,714.138Z" transform="translate(-1323.719 -713.546)" fill="#b2ceff" fill-rule="evenodd"/>
                  <path id="Trazado_38713" data-name="Trazado 38713" d="M1321.141,784.991a15.967,15.967,0,0,1-4.758,0,3.44,3.44,0,0,1-1.046-.322.306.306,0,0,0-.263-.274h-.008a.305.305,0,0,0-.334.263l0,.061c0,1.027,3.4,1.061,4.035,1.061s4.035-.034,4.035-1.061l-.009-.092a.306.306,0,0,0-.331-.243l-.028,0a.305.305,0,0,0-.245.285A3.5,3.5,0,0,1,1321.141,784.991Z" transform="translate(-1314.727 -776.904)" fill="#ecf6ff" fill-rule="evenodd"/>
                </g>
                <g id="Grupo_21744" data-name="Grupo 21744" transform="translate(0 5.134)">
                  <path id="Trazado_38714" data-name="Trazado 38714" d="M1321.627,701.439c-1.643,0-2.974-.265-2.974-.592l-.723,6.9h.009a.306.306,0,0,1,.263.274,3.44,3.44,0,0,0,1.046.322,15.978,15.978,0,0,0,4.758,0,3.5,3.5,0,0,0,1.043-.319.3.3,0,0,1,.245-.285l.028,0-.721-6.886C1324.6,701.174,1323.27,701.439,1321.627,701.439Z" transform="translate(-1317.592 -700.255)" fill="#cde4f7" fill-rule="evenodd"/>
                  <path id="Trazado_38715" data-name="Trazado 38715" d="M1330.728,695.827c0-.327-1.331-.592-2.974-.592s-2.974.265-2.974.592,1.332.592,2.974.592S1330.728,696.154,1330.728,695.827Z" transform="translate(-1323.719 -695.235)" fill="#b2ceff" fill-rule="evenodd"/>
                  <path id="Trazado_38716" data-name="Trazado 38716" d="M1321.141,766.681a15.967,15.967,0,0,1-4.758,0,3.437,3.437,0,0,1-1.046-.322.306.306,0,0,0-.263-.274h-.008a.305.305,0,0,0-.334.263l0,.061c0,1.027,3.4,1.061,4.035,1.061s4.035-.034,4.035-1.061l-.009-.092a.306.306,0,0,0-.331-.243l-.028,0a.305.305,0,0,0-.245.285A3.494,3.494,0,0,1,1321.141,766.681Z" transform="translate(-1314.727 -758.594)" fill="#ecf6ff" fill-rule="evenodd"/>
                </g>
                <g id="Grupo_21745" data-name="Grupo 21745" transform="translate(0 3.303)">
                  <path id="Trazado_38717" data-name="Trazado 38717" d="M1321.627,684.087c-1.643,0-2.974-.265-2.974-.592l-.723,6.9h.009a.306.306,0,0,1,.263.274,3.44,3.44,0,0,0,1.046.322,15.978,15.978,0,0,0,4.758,0,3.5,3.5,0,0,0,1.043-.32.305.305,0,0,1,.245-.285l.028,0-.721-6.886C1324.6,683.822,1323.27,684.087,1321.627,684.087Z" transform="translate(-1317.592 -682.903)" fill="#cde4f7" fill-rule="evenodd"/>
                  <path id="Trazado_38718" data-name="Trazado 38718" d="M1330.728,678.475c0-.327-1.331-.592-2.974-.592s-2.974.265-2.974.592,1.332.592,2.974.592S1330.728,678.8,1330.728,678.475Z" transform="translate(-1323.719 -677.883)" fill="#b2ceff" fill-rule="evenodd"/>
                  <path id="Trazado_38719" data-name="Trazado 38719" d="M1321.141,749.329a15.973,15.973,0,0,1-4.758,0,3.437,3.437,0,0,1-1.046-.322.306.306,0,0,0-.263-.274h-.008a.305.305,0,0,0-.334.263l0,.061c0,1.027,3.4,1.061,4.035,1.061s4.035-.034,4.035-1.061l-.009-.092a.305.305,0,0,0-.331-.243l-.028,0a.305.305,0,0,0-.245.285A3.5,3.5,0,0,1,1321.141,749.329Z" transform="translate(-1314.727 -741.242)" fill="#ecf6ff" fill-rule="evenodd"/>
                </g>
                <g id="Grupo_21746" data-name="Grupo 21746" transform="translate(0 1.605)">
                  <path id="Trazado_38720" data-name="Trazado 38720" d="M1321.627,668.007c-1.643,0-2.974-.265-2.974-.592l-.723,6.9h.009a.306.306,0,0,1,.263.274,3.444,3.444,0,0,0,1.046.322,15.967,15.967,0,0,0,4.758,0,3.5,3.5,0,0,0,1.043-.319.305.305,0,0,1,.245-.285l.028,0-.721-6.886C1324.6,667.742,1323.27,668.007,1321.627,668.007Z" transform="translate(-1317.592 -666.823)" fill="#cde4f7" fill-rule="evenodd"/>
                  <path id="Trazado_38721" data-name="Trazado 38721" d="M1330.728,662.4c0-.327-1.331-.592-2.974-.592s-2.974.265-2.974.592,1.332.592,2.974.592S1330.728,662.722,1330.728,662.4Z" transform="translate(-1323.719 -661.803)" fill="#b2ceff" fill-rule="evenodd"/>
                  <path id="Trazado_38722" data-name="Trazado 38722" d="M1321.141,733.248a15.978,15.978,0,0,1-4.758,0,3.444,3.444,0,0,1-1.046-.322.306.306,0,0,0-.263-.274h-.008a.305.305,0,0,0-.334.263l0,.061c0,1.027,3.4,1.061,4.035,1.061s4.035-.034,4.035-1.061l-.009-.092a.306.306,0,0,0-.331-.244l-.028,0a.305.305,0,0,0-.245.285A3.5,3.5,0,0,1,1321.141,733.248Z" transform="translate(-1314.727 -725.161)" fill="#ecf6ff" fill-rule="evenodd"/>
                </g>
                <g id="Grupo_21747" data-name="Grupo 21747">
                  <path id="Trazado_38723" data-name="Trazado 38723" d="M1321.627,652.8c-1.643,0-2.974-.265-2.974-.592l-.723,6.9h.009a.306.306,0,0,1,.263.274,3.437,3.437,0,0,0,1.046.322,15.973,15.973,0,0,0,4.758,0,3.5,3.5,0,0,0,1.043-.319.305.305,0,0,1,.245-.285l.028,0-.721-6.886C1324.6,652.531,1323.27,652.8,1321.627,652.8Z" transform="translate(-1317.592 -651.612)" fill="#cde4f7" fill-rule="evenodd"/>
                  <path id="Trazado_38724" data-name="Trazado 38724" d="M1330.728,647.184c0-.327-1.331-.592-2.974-.592s-2.974.265-2.974.592,1.332.592,2.974.592S1330.728,647.511,1330.728,647.184Z" transform="translate(-1323.719 -646.592)" fill="#b2ceff" fill-rule="evenodd"/>
                  <path id="Trazado_38725" data-name="Trazado 38725" d="M1321.141,718.037a15.967,15.967,0,0,1-4.758,0,3.437,3.437,0,0,1-1.046-.322.306.306,0,0,0-.263-.274h-.008a.305.305,0,0,0-.334.263l0,.061c0,1.027,3.4,1.061,4.035,1.061s4.035-.034,4.035-1.061l-.009-.093a.306.306,0,0,0-.331-.243l-.028,0a.306.306,0,0,0-.245.285A3.5,3.5,0,0,1,1321.141,718.037Z" transform="translate(-1314.727 -709.95)" fill="#ecf6ff" fill-rule="evenodd"/>
                </g>
              </g>
            </g>
          </g>
          <g id="Grupo_21753" data-name="Grupo 21753" transform="translate(0.338 40.584)">
            <path id="Trazado_38726" data-name="Trazado 38726" d="M719.928,768.351c1.58-5.625,4.909-11.254,6.7-12.085a46.32,46.32,0,0,1,7.665-2.15c3.456,1.3,5-.183,5-.183s4.778.855,6.8,3.648c1.536,2.125,3.467,7.87,4.474,11.67,0,0-4.057,1.441-5.21,1.385-.01,1.032-.032,2.092-.069,3.14-.032.9-.076,1.789-.135,2.646a21.632,21.632,0,0,1-1.095,6.368s-13.933,2.527-15.176,1.487-1.07-8.087-1.07-8.087l-.246-6.343a20.092,20.092,0,0,1-.994,1.928S721.388,769.747,719.928,768.351Z" transform="translate(-719.051 -737.693)" fill="#ffcc5c" fill-rule="evenodd"/>
            <path id="Trazado_38727" data-name="Trazado 38727" d="M718.722,895.293a13.859,13.859,0,0,1-4.545-2.1,26.3,26.3,0,0,1,.607-2.656c1.46,1.4,6.649,3.423,6.649,3.423a8.223,8.223,0,0,1-1.624,2.059C719.415,895.735,719.05,895.488,718.722,895.293Z" transform="translate(-713.907 -859.883)" fill="#ffe8ba" fill-rule="evenodd"/>
            <path id="Trazado_38728" data-name="Trazado 38728" d="M966.127,901.719s-3.755,1.751-5.885,1.873c.038-1.048.059-2.108.069-3.14,1.153.056,5.21-1.385,5.21-1.385C965.808,900.153,966.021,901.08,966.127,901.719Z" transform="translate(-934 -867.509)" fill="#ffe8ba" fill-rule="evenodd"/>
            <path id="Trazado_38729" data-name="Trazado 38729" d="M807.451,1048.221c0,3.126-15.556,5.412-21.642,4.344,0,0,.928-16.759,2.005-23.742,1.243,1.041,15.176-1.487,15.176-1.487S807.455,1045.1,807.451,1048.221Z" transform="translate(-777.978 -982.24)" fill="#8eace8" fill-rule="evenodd"/>
            <path id="Trazado_38730" data-name="Trazado 38730" d="M851.129,649.218l.33-6.915s-1.208-.819-.843-1.457a1.138,1.138,0,0,1,1.194-.449,3.751,3.751,0,0,0,.486-2.3s2.918.33,2.073-.564a11.647,11.647,0,0,0,3.357-.872s2.775,7.906-.892,9.348a3.393,3.393,0,0,1-1.074.234l.373,2.8S854.585,650.519,851.129,649.218Z" transform="translate(-835.883 -632.796)" fill="#ff837f" fill-rule="evenodd"/>
            <path id="Trazado_38731" data-name="Trazado 38731" d="M978.239,929.078s-16.318,3.807-19.272-.367c.059-.857.1-1.748.135-2.646,2.13-.122,5.885-1.873,5.885-1.873q.016.1.029.185c3.075.09,13.154,2.14,13.154,2.14s6.448-2.15,6.971-1.81-2.213,1.8-2.213,1.8a5.266,5.266,0,0,1-.857,2.271C981.439,929.445,978.239,929.078,978.239,929.078Z" transform="translate(-932.86 -889.981)" fill="#ff837f" fill-rule="evenodd"/>
            <path id="Trazado_38732" data-name="Trazado 38732" d="M843.057,607.678a1.137,1.137,0,0,0-1.194.449c-.389-.1-1.14-1.909-1.1-2.609a.965.965,0,0,1,.483-.886c.078-.838,1.7-3.159,2.464-3.171s.311.938.311.938,3.213-2.725,5.073-2.272.787,3.234-.121,3.81a11.641,11.641,0,0,1-3.357.872c.845.893-2.073.564-2.073.564A3.75,3.75,0,0,1,843.057,607.678Z" transform="translate(-827.131 -600.077)" fill="#372d96" fill-rule="evenodd"/>
            <path id="Trazado_38733" data-name="Trazado 38733" d="M787.814,859.188l-.641-7.7c1.03-1.055,4.856-12.943,4.856-12.943l9.646-.859.129.615a90.879,90.879,0,0,1,1.186,19.4s.269,1.07.674,2.73c.053.214.107.439.164.673.415,1.706.936,3.885,1.454,6.131,1.095,4.756,2.17,9.817,2.168,11.351,0,3.126-15.556,5.412-21.642,4.344C785.809,882.931,786.737,866.172,787.814,859.188Z" transform="translate(-777.978 -812.605)" fill="#99beff" fill-rule="evenodd"/>
            <g id="Grupo_21751" data-name="Grupo 21751" transform="translate(0.164 16.133)">
              <path id="Trazado_38734" data-name="Trazado 38734" d="M908.74,769.841a25.4,25.4,0,0,0,5.135-1.392.107.107,0,0,0,.065-.133c-.428-1.617-.92-3.227-1.456-4.811-.455-1.343-.947-2.686-1.507-3.989a15.742,15.742,0,0,0-1.526-2.9,6.728,6.728,0,0,0-1.445-1.432,14.122,14.122,0,0,0-5.42-2.259.107.107,0,0,0-.037.21,13.91,13.91,0,0,1,5.33,2.22,6.511,6.511,0,0,1,1.4,1.386,15.554,15.554,0,0,1,1.5,2.859c.559,1.3,1.048,2.635,1.5,3.973.525,1.551,1.006,3.125,1.428,4.708a25,25,0,0,1-4.969,1.347c.032-2.867-.018-5.762-.145-8.608a.106.106,0,0,0-.213.01c.128,2.867.178,5.783.144,8.67a.1.1,0,0,0-.005.028.106.106,0,0,0,0,.036q-.013,1.1-.043,2.2-.012.441-.027.884a.1.1,0,0,0,0,.033.108.108,0,0,0,0,.014c-.057,1.626-.152,3.262-.336,4.874a14.969,14.969,0,0,1-.886,4.076.106.106,0,1,0,.194.089,15.128,15.128,0,0,0,.9-4.14c.181-1.593.277-3.21.334-4.818a20.8,20.8,0,0,0,5.824-1.876.107.107,0,0,0-.09-.193,20.762,20.762,0,0,1-5.727,1.855q.013-.4.024-.79Q908.727,770.909,908.74,769.841Z" transform="translate(-882.483 -752.923)" fill="#ffcc5c" fill-rule="evenodd"/>
              <path id="Trazado_38735" data-name="Trazado 38735" d="M720.6,757.026c1.675.257,2.326,2.6,2.416,4.02a.107.107,0,0,0,.213-.014c-.092-1.445-.725-3.674-2.305-4.151a22.675,22.675,0,0,1,2.754-.921c1.5-.421,3.061-.792,4.591-1.09a.106.106,0,0,0-.041-.209c-1.536.3-3.1.671-4.608,1.094a20.934,20.934,0,0,0-3.081,1.064c-1.125.521-2.475,2.6-3.1,3.632a35.828,35.828,0,0,0-3.131,6.808,28.648,28.648,0,0,0-1.142,4.379.106.106,0,1,0,.21.036c.143-.832.333-1.661.558-2.479a14.206,14.206,0,0,0,2.821,1.687c1.208.593,2.477,1.15,3.732,1.64l.01,0a.107.107,0,0,0,.118-.042l0-.007c.246-.414.472-.839.685-1.271a31.627,31.627,0,0,0,1.981-5.185.106.106,0,1,0-.205-.058,31.435,31.435,0,0,1-1.967,5.149c-.2.4-.405.795-.631,1.179-1.222-.48-2.457-1.023-3.632-1.6A13.364,13.364,0,0,1,714,768.968q.235-.828.513-1.639a35.616,35.616,0,0,1,3.112-6.768C718.214,759.586,719.537,757.545,720.6,757.026Z" transform="translate(-713.169 -754.476)" fill="#ffcc5c" fill-rule="evenodd"/>
            </g>
            <path id="Trazado_38736" data-name="Trazado 38736" d="M881.316,722.263a4.067,4.067,0,0,1-2.037-.481.107.107,0,0,0-.1.19,4.279,4.279,0,0,0,2.144.5.107.107,0,0,0-.011-.213Z" transform="translate(-861.445 -708.927)" fill="#fff" fill-rule="evenodd"/>
            <path id="Trazado_38737" data-name="Trazado 38737" d="M1036.037,928.494q-3.463-.7-6.952-1.306c-1.43-.246-2.871-.483-4.312-.662a.106.106,0,0,0-.026.211c1.437.179,2.875.415,4.3.661q3.493.6,6.973,1.31a.105.105,0,0,0,.043,0l.012,0c.866-.29,6.459-2.094,6.878-1.822a.044.044,0,0,1,.017.017c.058.175-.872.8-1,.879-.392.254-.808.5-1.221.719a.1.1,0,0,0-.055.079,4.791,4.791,0,0,1-.83,2.213c-.507.539-3.015.352-3.74.269h-.015l-.021,0c-1.006.236-2.039.432-3.056.614a63.846,63.846,0,0,1-6.683.869c-.856.061-1.715.1-2.573.1a.106.106,0,1,0,0,.213c.863,0,1.727-.041,2.588-.1a64.164,64.164,0,0,0,6.705-.872c1.014-.182,2.045-.378,3.049-.612.842.095,3.321.279,3.9-.337a4.874,4.874,0,0,0,.877-2.276c.453-.242,2.83-1.53,2.174-1.957C1042.526,926.349,1037.07,928.149,1036.037,928.494Z" transform="translate(-990.735 -892.069)" fill="#fff" fill-rule="evenodd"/>
            <path id="Trazado_38738" data-name="Trazado 38738" d="M912.074,660.78c-.008.16.109.392.27.4s.3-.213.305-.372-.114-.391-.27-.4S912.082,660.621,912.074,660.78Z" transform="translate(-890.916 -654.04)" fill="#434242" fill-rule="evenodd"/>
            <path id="Trazado_38739" data-name="Trazado 38739" d="M883.814,665.924c-.008.16.114.391.27.4s.3-.214.305-.372-.109-.392-.27-.4S883.822,665.765,883.814,665.924Z" transform="translate(-865.638 -658.641)" fill="#434242" fill-rule="evenodd"/>
            <path id="Trazado_38740" data-name="Trazado 38740" d="M878.285,657.151a1.32,1.32,0,0,0-.22.024,1.912,1.912,0,0,0-.953.477.1.1,0,0,0,.138.143,1.685,1.685,0,0,1,.85-.428c.062-.011.109-.016.141-.019l.037,0h.011a.1.1,0,0,0,.1-.1A.1.1,0,0,0,878.285,657.151Z" transform="translate(-859.619 -651.127)" fill="#434242" fill-rule="evenodd"/>
            <path id="Trazado_38741" data-name="Trazado 38741" d="M906.693,651.56a.644.644,0,0,0-.2-.108,1.052,1.052,0,0,0-.55-.034,1.816,1.816,0,0,0-.545.2.1.1,0,0,0-.04.132.1.1,0,0,0,.135.039,1.62,1.62,0,0,1,.484-.18.857.857,0,0,1,.447.027.512.512,0,0,1,.111.051c.012.007.024.012.024.016l.006,0,0,0,0,0h0l0,0,0,0a.1.1,0,0,0,.137-.008A.1.1,0,0,0,906.693,651.56Z" transform="translate(-884.898 -645.981)" fill="#434242" fill-rule="evenodd"/>
            <path id="Trazado_38742" data-name="Trazado 38742" d="M904.621,669.776l.519,1.6-.63.115a.048.048,0,0,0,.017.1l.691-.126a.044.044,0,0,0,.033-.025.058.058,0,0,0,0-.043l-.546-1.656a.047.047,0,0,0-.063-.025A.05.05,0,0,0,904.621,669.776Z" transform="translate(-884.116 -662.359)" fill="#434242" fill-rule="evenodd"/>
            <path id="Trazado_38743" data-name="Trazado 38743" d="M890.115,691.875a5.129,5.129,0,0,0,2.049.326s-.379.6-.916.59S890.115,691.875,890.115,691.875Z" transform="translate(-871.275 -682.186)" fill="#fefefe" fill-rule="evenodd"/>
            <path id="Trazado_38744" data-name="Trazado 38744" d="M802.776,766.334l-1.709-8.768a.106.106,0,1,0-.209.041l1.723,8.835c-.709,2.2-1.448,4.4-2.217,6.575-.482,1.365-.976,2.735-1.518,4.078a10.8,10.8,0,0,1-1.087,2.222.106.106,0,0,0,.152.149,10.5,10.5,0,0,0,1.132-2.291c.544-1.345,1.039-2.718,1.522-4.087q1.147-3.251,2.206-6.539l9.482-.844.11.522a.106.106,0,0,0,.009.026c.331,1.849.569,3.769.767,5.62a82.046,82.046,0,0,1,.408,13.728.106.106,0,1,0,.213.013,82.265,82.265,0,0,0-.409-13.764c-.222-2.072-.493-4.23-.889-6.28a.119.119,0,0,0-.007-.023.108.108,0,0,0-.024-.035l-1.751-8.345a.106.106,0,0,0-.208.044l1.738,8.284Z" transform="translate(-788.639 -740.511)" fill="#7690c9" fill-rule="evenodd"/>
            <path id="Trazado_38745" data-name="Trazado 38745" d="M925.775,1061.947s-3.323,1.791-5.231-.994l.187-.706a.319.319,0,0,0,.357-.472c-.054-.091-.106-.185-.157-.28l.894-3.367a.319.319,0,0,0,.349-.484l-.041-.06a10.314,10.314,0,0,0,2.655.039,12.555,12.555,0,0,0,2.773-.435l-1.016.93Z" transform="translate(-898.492 -1007.152)" fill="#ffe8ba" fill-rule="evenodd"/>
            <path id="Trazado_38746" data-name="Trazado 38746" d="M911.108,1052.406c-.723.371-.252,2.125-.066,2.688a8.244,8.244,0,0,0,.526,1.247c.051.1.1.189.157.28a.319.319,0,0,1-.549.326c-.653-1.1-1.905-4.317-.359-5.11a1.415,1.415,0,0,1,1.843.447c.038.046.075.1.11.146l.041.06a.319.319,0,0,1-.534.351C912,1052.414,911.616,1052.145,911.108,1052.406Z" transform="translate(-889.128 -1003.999)" fill="#ffca63" fill-rule="evenodd"/>
            <path id="Trazado_38747" data-name="Trazado 38747" d="M937.509,1052.035a7.044,7.044,0,0,1,2.779.105l-.193.176a12.556,12.556,0,0,1-2.773.435,10.319,10.319,0,0,1-2.655-.039q-.053-.076-.11-.146A8.762,8.762,0,0,1,937.509,1052.035Z" transform="translate(-911.027 -1004.281)" fill="#ffca63" fill-rule="evenodd"/>
            <g id="Grupo_21752" data-name="Grupo 21752" transform="translate(0 33.314)">
              <path id="Trazado_38748" data-name="Trazado 38748" d="M721.454,928.973c-4.67-2.673-9.763-6.423-9.834-10.094a17.027,17.027,0,0,1,.268-3.175,13.859,13.859,0,0,0,4.545,2.1c.329.2.694.442,1.087.73.85.623,1.832,1.442,2.864,2.357,4.334,3.843,9.545,9.395,9.545,9.395s3.172-1.243,3.513-1.33.473.861-1.069,1.8c0,0,1.847.135,2.064,1.133s-1.573,2.378-2.417,2.629-2.919-1.768-2.919-1.768A71.969,71.969,0,0,1,721.454,928.973Z" transform="translate(-711.618 -915.704)" fill="#ff837f" fill-rule="evenodd"/>
              <path id="Trazado_38749" data-name="Trazado 38749" d="M766.063,949.7c.561.542,2.221,2.013,3.008,1.779.9-.267,2.724-1.686,2.491-2.754-.16-.732-1.127-1.072-1.861-1.182a2.823,2.823,0,0,0,.988-1.061c.094-.209.195-.65-.095-.761a.26.26,0,0,0-.158-.008c-.205.052-.448.153-.649.227-.372.138-.742.28-1.112.422-.566.218-1.134.436-1.7.658-2.237-2.385-4.578-4.74-6.945-6.992-1.156-1.1-2.335-2.188-3.551-3.221a22.962,22.962,0,0,0-2.973-2.234.106.106,0,1,0-.109.183,22.744,22.744,0,0,1,2.944,2.214c1.214,1.031,2.389,2.115,3.542,3.213,2.381,2.266,4.737,4.636,6.986,7.037a.107.107,0,0,0,.057.031.105.105,0,0,0,.06-.005q.879-.347,1.764-.684.554-.213,1.11-.421c.192-.072.43-.17.627-.221a.052.052,0,0,1,.03,0c.124.047.01.4-.024.474a2.955,2.955,0,0,1-1.157,1.13.106.106,0,0,0,.047.2c.63.048,1.811.33,1.968,1.05.2.935-1.564,2.273-2.344,2.5-.671.2-2.348-1.29-2.814-1.742a.1.1,0,0,0-.033-.021h0c-1.124-.457-2.25-.982-3.341-1.509a61.4,61.4,0,0,1-6.9-3.846c-.942-.616-1.863-1.269-2.741-1.973a.107.107,0,0,0-.133.166c.883.708,1.811,1.365,2.758,1.985a61.622,61.622,0,0,0,6.924,3.86C763.818,948.715,764.942,949.239,766.063,949.7Z" transform="translate(-748.638 -932.564)" fill="#fff" fill-rule="evenodd"/>
            </g>
          </g>
          <g id="Grupo_21754" data-name="Grupo 21754" transform="translate(0 99.492)">
            <rect id="Rectángulo_3630" data-name="Rectángulo 3630" width="93.188" height="54.394" transform="translate(2.313 3.913)" fill="#d4e2ff"/>
            <rect id="Rectángulo_3631" data-name="Rectángulo 3631" width="23.119" height="45.146" transform="translate(65.446 8.537)" fill="#fff"/>
            <rect id="Rectángulo_3632" data-name="Rectángulo 3632" width="23.119" height="45.146" transform="translate(37.347 8.537)" fill="#fff"/>
            <rect id="Rectángulo_3633" data-name="Rectángulo 3633" width="23.119" height="45.146" transform="translate(9.249 8.537)" fill="#fff"/>
            <path id="Trazado_38750" data-name="Trazado 38750" d="M804.268,1158.194h-93.9a1.956,1.956,0,1,0,0,3.913h93.9a1.956,1.956,0,1,0,0-3.913Z" transform="translate(-708.411 -1158.194)" fill="#ffe8ba" fill-rule="evenodd"/>
          </g>
        </g>
        <g id="Grupo_21760" data-name="Grupo 21760" transform="translate(315.135 122.162)">
          <g id="Grupo_21756" data-name="Grupo 21756" transform="translate(0 22.404)">
            <path id="Trazado_38751" data-name="Trazado 38751" d="M1378.967,980.953l-2.393-4.768,2.4-1.922,1.24,2.471,1.154,2.3Z" transform="translate(-1375.891 -973.516)" fill="#ecf6ff" fill-rule="evenodd"/>
            <path id="Trazado_38752" data-name="Trazado 38752" d="M1400.563,1021.49l-.71.589a.217.217,0,0,1-.046.03.179.179,0,0,1-.239-.094l-.318-.634,2.4-1.92.292.582a.311.311,0,0,1-.072.361l-1.31,1.087Zm.026-.868a.2.2,0,0,0,.105.3.308.308,0,0,0,.349-.149.2.2,0,0,0-.105-.3A.307.307,0,0,0,1400.589,1020.622Z" transform="translate(-1396.173 -1013.944)" fill="#cde4f7" fill-rule="evenodd"/>
            <path id="Trazado_38753" data-name="Trazado 38753" d="M1412.133,1029.248a.308.308,0,0,1-.348.149.2.2,0,0,1-.105-.3.307.307,0,0,1,.348-.149A.2.2,0,0,1,1412.133,1029.248Z" transform="translate(-1407.264 -1022.421)" fill="#b2ceff" fill-rule="evenodd"/>
            <path id="Trazado_38754" data-name="Trazado 38754" d="M1384.929,976.581l-.429.358a.119.119,0,0,1-.165-.016.114.114,0,0,1,.01-.162l.429-.358a.119.119,0,0,1,.165.016A.114.114,0,0,1,1384.929,976.581Z" transform="translate(-1382.808 -975.408)" fill="#99beff" fill-rule="evenodd"/>
            <path id="Trazado_38755" data-name="Trazado 38755" d="M1376.535,968.532l-2.4,1.922-.259-.515a.31.31,0,0,1,.071-.361l2.02-1.676a.175.175,0,0,1,.232,0,.212.212,0,0,1,.054.069l.284.565Zm-1.118.249-.429.358a.114.114,0,0,0-.01.162.119.119,0,0,0,.165.016l.429-.358a.114.114,0,0,0,.01-.162A.119.119,0,0,0,1375.417,968.782Z" transform="translate(-1373.45 -967.786)" fill="#cde4f7" fill-rule="evenodd"/>
            <path id="Trazado_38756" data-name="Trazado 38756" d="M1373.106,975.243l-2.971-5.917a.312.312,0,0,1,.072-.361l2.021-1.676c.245-.154.567-.1.626.016a.175.175,0,0,0-.231,0l-2.021,1.676a.31.31,0,0,0-.071.361l.258.515,2.393,4.768.318.634a.178.178,0,0,0,.239.094C1373.641,975.44,1373.246,975.522,1373.106,975.243Z" transform="translate(-1370.106 -967.194)" fill="#8eace8" fill-rule="evenodd"/>
          </g>
          <path id="Trazado_38757" data-name="Trazado 38757" d="M1510.031,951.824a63.4,63.4,0,0,1-9.088.429q-.438-.01-.889-.025a50.888,50.888,0,0,1-9.4-1.152c1.084-9.738,3.531-22.549,3.531-22.549s-.375-.663-.922-1.648c-.914-1.646-2.309-4.192-3.244-6.055a10.143,10.143,0,0,1-2.111-.1,4.671,4.671,0,0,1-.824-.194s-.213-2.3-.266-4.669a15.588,15.588,0,0,1,.351-4.644c.765-1.956,3.338-3.64,3.338-3.64a6.369,6.369,0,0,0,5.081-1.421,22.545,22.545,0,0,1,5.063.441c.258.058.514.123.764.2,1.888.557,4.948,3.48,6.473,5.029.57.579.926.967.926.967a8.614,8.614,0,0,1-.2.941,11.007,11.007,0,0,1-2.85,5.066c-.087.083-.175.165-.267.245a22.668,22.668,0,0,1-2.243-1.445l.882,9.227a16.711,16.711,0,0,1,2.61,3.576,23.689,23.689,0,0,1,1.978,4.889C1510.258,940.629,1510.369,946.737,1510.031,951.824Z" transform="translate(-1474.485 -890.188)" fill="#ffcc5c" fill-rule="evenodd"/>
          <path id="Trazado_38758" data-name="Trazado 38758" d="M1568.8,1721.549c-.34.553-5.061,1.956-6.081,1.446s-.025-2.3,2.846-3.935a3.778,3.778,0,0,0,2.977-.17S1569.141,1721,1568.8,1721.549Z" transform="translate(-1542.041 -1617.146)" fill="#6ca1ff" fill-rule="evenodd"/>
          <path id="Trazado_38759" data-name="Trazado 38759" d="M1641.41,1737.875c-.255.638-5.146,1.659-6.294,1.276s-1.03-2.518,2.633-4.148a5.58,5.58,0,0,0,3.572.128A8.9,8.9,0,0,1,1641.41,1737.875Z" transform="translate(-1606.57 -1631.559)" fill="#6ca1ff" fill-rule="evenodd"/>
          <path id="Trazado_38760" data-name="Trazado 38760" d="M1526.336,1372.819s-7.314-25.005-7.825-32.49a54.639,54.639,0,0,1,.466-8.538,50.9,50.9,0,0,0,9.4,1.152,44.681,44.681,0,0,1-2.895,9c2.286,8.13,3.827,30.7,3.827,30.7A3.779,3.779,0,0,1,1526.336,1372.819Z" transform="translate(-1502.812 -1270.905)" fill="#ff837f" fill-rule="evenodd"/>
          <path id="Trazado_38761" data-name="Trazado 38761" d="M1621.928,1349.736l-1.149-10.422a63.391,63.391,0,0,0,9.088-.429,76.407,76.407,0,0,1-1.475,10.808c2.127,5.784.681,31.129.681,31.129a5.582,5.582,0,0,1-3.572-.128Z" transform="translate(-1594.321 -1277.25)" fill="#ff837f" fill-rule="evenodd"/>
          <path id="Trazado_38762" data-name="Trazado 38762" d="M1665.629,1003.073a1.961,1.961,0,0,1-3.019.255c-.85-.936,1.3-1.406,1.3-1.406a4.748,4.748,0,0,0-.235-1.018s-.978,1.573-1.106.723,1.212-2.828,1.212-2.828c-.018-1.246,0-2.672.037-4.142.108-4.147.384-8.647.5-10.464-.29-.168-1.484-1.139-1.484-1.139a11.01,11.01,0,0,0,2.85-5.066s3.283,2.78,3.368,5.076-.622,7.891-3.258,16.482C1665.795,999.547,1666.48,1002.095,1665.629,1003.073Z" transform="translate(-1631.559 -954.445)" fill="#ff837f" fill-rule="evenodd"/>
          <path id="Trazado_38763" data-name="Trazado 38763" d="M1422.674,1009c-3.565.523-10.064-7.374-10.914-9.585l-.608-.5,1.31-1.087a.31.31,0,0,0,.072-.361l-.292-.582-1.154-2.3c.021-.214.1-.437.363-.342.466.169,1.825,3.83,1.825,3.83,2.824,1.581,5.592,3.425,7.133,4.486l-.227-3.059a10.126,10.126,0,0,0,2.112.1c.935,1.863,2.33,4.409,3.244,6.055C1425.537,1005.652,1426.239,1008.478,1422.674,1009Z" transform="translate(-1406.762 -968.962)" fill="#ff837f" fill-rule="evenodd"/>
          <path id="Trazado_38764" data-name="Trazado 38764" d="M1382.387,1010.083c-.724-.375-1.378-2.2-1.378-2.2a1.126,1.126,0,0,1-.073-.7.33.33,0,0,1,.237-.2l.042-.008c.76-.1,1.772,2.258,1.472,2.932a.274.274,0,0,1-.284.177Z" transform="translate(-1379.762 -980.375)" fill="#ff837f" fill-rule="evenodd"/>
          <path id="Trazado_38765" data-name="Trazado 38765" d="M1475.122,812.692c-3.317-.468-3.615-8.8-3.615-8.8s1.764,1.382,6.91,1.127c.706-.706,2.3-.016.893,1.658l2.594,8.016a6.37,6.37,0,0,1-5.082,1.421l-.455-3.619A2.133,2.133,0,0,1,1475.122,812.692Z" transform="translate(-1460.804 -798.721)" fill="#ff837f" fill-rule="evenodd"/>
          <path id="Trazado_38766" data-name="Trazado 38766" d="M1463.721,762.281c-5.146.255-6.91-1.127-6.91-1.127a2.921,2.921,0,0,1-.736-.634c-1-1.171-1.5-3.21-.285-4.044,1.488-1.021,4.38.425,4.38.425s3.274-.3,4.975,1.615,1.148,4.848,3.828,5.571,5.145,1.148,6.081,4.295,6.012,2.864,4.454,9.241c-1.526-1.549-4.585-4.472-6.473-5.029-.25-.074-.506-.139-.764-.2a22.547,22.547,0,0,0-5.063-.441l-2.594-8.016C1466.024,762.265,1464.427,761.575,1463.721,762.281Z" transform="translate(-1446.108 -755.986)" fill="#372d96" fill-rule="evenodd"/>
          <path id="Trazado_38767" data-name="Trazado 38767" d="M1465.393,810.737s-2.573,1.684-3.338,3.64a15.588,15.588,0,0,0-.351,4.644c-1.955-.45-2.435-2.562-1.669-4.433s.766-4.423-.6-5.869-.425-3.742,0-5.273-.1-5.565-.1-5.565a2.925,2.925,0,0,0,.736.634s.3,8.335,3.615,8.8a2.134,2.134,0,0,0,1.247-.2Z" transform="translate(-1449.375 -793.347)" fill="#372d96" fill-rule="evenodd"/>
          <g id="Grupo_21757" data-name="Grupo 21757" transform="translate(12.181 15.827)">
            <path id="Trazado_38768" data-name="Trazado 38768" d="M1573.615,905.51a3.356,3.356,0,0,0-1.54,3.305,7.74,7.74,0,0,0,.522,2.377.129.129,0,1,0,.238-.1,7.494,7.494,0,0,1-.5-2.292,3.053,3.053,0,0,1,1.677-3.208c.245.057.483.118.712.186,2.077.613,5.754,4.238,7.3,5.915a10.742,10.742,0,0,1-.592,2.123,10.08,10.08,0,0,1-2.607,3.929,19.991,19.991,0,0,1-2.121-1.362.129.129,0,0,0-.066-.049,13.218,13.218,0,0,1-1.279-1.076.129.129,0,0,0-.179.185,13.436,13.436,0,0,0,1.3,1.092l.876,9.161a.129.129,0,0,0,.256-.024l-.854-8.934a20.41,20.41,0,0,0,2.025,1.276.127.127,0,0,0,.147-.016,10.291,10.291,0,0,0,2.745-4.091,10.775,10.775,0,0,0,.615-2.24.124.124,0,0,0-.032-.1c-1.565-1.7-5.3-5.4-7.458-6.033a19.679,19.679,0,0,0-5.868-.643.129.129,0,0,0,.01.257A20.8,20.8,0,0,1,1573.615,905.51Z" transform="translate(-1560.01 -904.878)" fill="#f59105" fill-rule="evenodd"/>
            <path id="Trazado_38769" data-name="Trazado 38769" d="M1489.406,962.184a.139.139,0,0,0,.031.024.132.132,0,0,0,.035.013,61.453,61.453,0,0,0,19.423.75.129.129,0,0,0,.093-.062.138.138,0,0,0,.013-.03.124.124,0,0,0,.005-.03,65,65,0,0,0,.094-7.344.129.129,0,0,0-.257.012,64.574,64.574,0,0,1-.087,7.213,55.229,55.229,0,0,1-6.084.416,54.605,54.605,0,0,1-13.034-1.152c.219-1.954.477-3.905.754-5.852.787-5.528,1.718-11.085,2.763-16.573a.125.125,0,0,0-.014-.087q-1.388-2.456-2.725-4.945c-.488-.909-.972-1.822-1.434-2.744l-.008-.015-.068-.136a14.142,14.142,0,0,1-.857-1.915,15.762,15.762,0,0,1-.25-4.843.129.129,0,0,0-.257-.02,15.955,15.955,0,0,0,.261,4.938,13.965,13.965,0,0,0,.855,1.919,8.509,8.509,0,0,1-2.611-.264c-.185-2.025-.561-7.525.084-9.173a9.174,9.174,0,0,1,3.289-3.579.129.129,0,1,0-.141-.215,9.4,9.4,0,0,0-3.387,3.7c-.677,1.73-.281,7.357-.093,9.372a.126.126,0,0,0,.082.108,8.6,8.6,0,0,0,2.9.3c.453.9.927,1.795,1.4,2.684q1.325,2.467,2.7,4.909c-1.043,5.476-1.971,11.022-2.756,16.538-.283,1.987-.545,3.979-.767,5.974A.129.129,0,0,0,1489.406,962.184Z" transform="translate(-1485.513 -917.034)" fill="#f59105" fill-rule="evenodd"/>
          </g>
          <g id="Grupo_21758" data-name="Grupo 21758" transform="translate(29.732 46.924)">
            <path id="Trazado_38770" data-name="Trazado 38770" d="M1660.9,1208.224c-1.117-2.344-3.122-7.729.083-8.611l.021-.006a3.105,3.105,0,0,1,2.218.249c.11.053.217.112.323.175a7.107,7.107,0,0,1,1.833,1.679,16.165,16.165,0,0,1,1.92,3.168c.123.266.235.529.335.785a.257.257,0,0,1-.479.188c-.088-.226-.193-.473-.312-.734a12.133,12.133,0,0,0-3.156-4.371,4.481,4.481,0,0,0-.527-.345,3.06,3.06,0,0,0-.9-.338,2.475,2.475,0,0,0-1.135.046l-.033.009a1.749,1.749,0,0,0-1.245,1.409c-.422,1.854.8,4.941,1.515,6.459.083.176.16.332.226.461a.257.257,0,0,1-.457.235C1661.052,1208.546,1660.976,1208.393,1660.9,1208.224Z" transform="translate(-1658.457 -1199.503)" fill="#eba71e" fill-rule="evenodd"/>
            <path id="Trazado_38771" data-name="Trazado 38771" d="M1654.812,1244.488a.257.257,0,0,0,.112-.346c-.067-.13-.143-.285-.226-.461l2.99-1.564,2.494-1.3c.12.261.224.508.313.734a.257.257,0,0,0,.479-.187c-.1-.256-.213-.519-.336-.785l2.222-1.162L1670,1252c-2.977,4.083-11.907,7.144-11.907,7.144l-6.294-13.948,2.438-1.275c.081.169.157.322.226.457a.257.257,0,0,0,.346.111Zm3.6.861c-1.05.71-1.3,2.27-.751,3.855a6.094,6.094,0,0,0,.708,1.4c1.34,1.982,3.531,2.843,4.895,1.921s1.382-3.276.042-5.258S1659.774,1244.427,1658.411,1245.348Z" transform="translate(-1651.803 -1235.199)" fill="#ffe8ba" fill-rule="evenodd"/>
            <path id="Trazado_38772" data-name="Trazado 38772" d="M1651.8,1294.206l6.294,13.949-1.619-.1-1.549-.094-1.968-8.663Z" transform="translate(-1651.803 -1284.211)" fill="#ffcc5c" fill-rule="evenodd"/>
            <path id="Trazado_38773" data-name="Trazado 38773" d="M1706.08,1293.462a2.377,2.377,0,0,1,1.839.938,1,1,0,0,1,.1.453c-.012.774-.62,1.438-.5,2.324a2.284,2.284,0,0,0,2.366,2.252.276.276,0,0,0-.009-.552c-1.142.018-1.676-.743-1.811-1.772a1.136,1.136,0,0,1-.009-.194,3.036,3.036,0,0,1,.229-.889,2.274,2.274,0,0,0,.139-1.859,2.838,2.838,0,0,0-2.291-1.25.276.276,0,0,0-.046.55Zm-.442-.933c1.363-.922,3.555-.061,4.895,1.921s1.321,4.336-.042,5.258-3.555.061-4.895-1.921a6.083,6.083,0,0,1-.708-1.4C1704.335,1294.8,1704.587,1293.239,1705.638,1292.529Z" transform="translate(-1699.03 -1282.38)" fill="#ffca63" fill-rule="evenodd"/>
            <path id="Trazado_38774" data-name="Trazado 38774" d="M1717.886,1303.552c-.116-.886.492-1.551.5-2.324a1,1,0,0,0-.1-.453,2.376,2.376,0,0,0-1.839-.937.276.276,0,0,1,.046-.55,2.837,2.837,0,0,1,2.291,1.25,2.273,2.273,0,0,1-.138,1.859,3.036,3.036,0,0,0-.229.889,1.168,1.168,0,0,0,.008.194c.135,1.029.669,1.79,1.811,1.772a.276.276,0,0,1,.009.552A2.284,2.284,0,0,1,1717.886,1303.552Z" transform="translate(-1709.405 -1288.755)" fill="#eba71e" fill-rule="evenodd"/>
          </g>
          <path id="Trazado_38775" data-name="Trazado 38775" d="M1381.638,1008.881a.129.129,0,0,0-.1.235l.017.009a.129.129,0,0,0,.05.013c1.209.056-.195-3.633-1.257-3.353a.459.459,0,0,0-.323.278.129.129,0,0,0,.239.1.2.2,0,0,1,.15-.126c.426-.112.957.931,1.084,1.224C1381.571,1007.431,1382.1,1008.858,1381.638,1008.881Z" transform="translate(-1378.968 -979.293)" fill="#fff" fill-rule="evenodd"/>
          <path id="Trazado_38776" data-name="Trazado 38776" d="M1700.326,1524.859c.16-3.937.266-7.883.275-11.823.006-2.718-.028-5.452-.183-8.166a.129.129,0,1,0-.257.015c.154,2.709.188,5.437.182,8.151-.009,3.937-.115,7.879-.275,11.813a.129.129,0,0,0,.257.011Z" transform="translate(-1665.242 -1425.607)" fill="#fff" fill-rule="evenodd"/>
          <path id="Trazado_38777" data-name="Trazado 38777" d="M1622.895,1372.1l.8,7.232,3.572,30.959a.129.129,0,0,0,.255-.03l-3.572-30.958-.8-7.231a.129.129,0,0,0-.255.028Z" transform="translate(-1596.213 -1306.831)" fill="#fff" fill-rule="evenodd"/>
          <path id="Trazado_38778" data-name="Trazado 38778" d="M1587.363,1452.062c-.321-3.8-.685-7.606-1.123-11.4-.3-2.575-.628-5.152-1.036-7.713a54.414,54.414,0,0,0-1.24-6.086.129.129,0,1,0-.247.07,54.173,54.173,0,0,1,1.234,6.057c.408,2.557.738,5.13,1.035,7.7.438,3.789.8,7.589,1.123,11.39a.129.129,0,1,0,.256-.021Z" transform="translate(-1561.165 -1355.86)" fill="#fff" fill-rule="evenodd"/>
          <path id="Trazado_38779" data-name="Trazado 38779" d="M1517.328,1372.078a31.786,31.786,0,0,0-.067,4.187c.066.961.209,1.933.367,2.882.208,1.247.454,2.49.715,3.727.626,2.962,1.343,5.912,2.088,8.847,1.447,5.7,3.008,11.411,4.66,17.061a.128.128,0,0,0,.247-.072c-1.65-5.647-3.21-11.351-4.657-17.052-.744-2.931-1.46-5.878-2.085-8.837-.26-1.233-.506-2.473-.713-3.716-.156-.941-.3-1.905-.364-2.857a31.557,31.557,0,0,1,.067-4.152.129.129,0,1,0-.257-.017Z" transform="translate(-1501.69 -1306.831)" fill="#fff" fill-rule="evenodd"/>
          <path id="Trazado_38780" data-name="Trazado 38780" d="M1516.532,872.3a4.266,4.266,0,0,0,1.568-1.474.129.129,0,1,0-.212-.145,4.028,4.028,0,0,1-1.468,1.388.129.129,0,0,0,.112.232Z" transform="translate(-1500.912 -858.412)" fill="#fff" fill-rule="evenodd"/>
          <path id="Trazado_38781" data-name="Trazado 38781" d="M1455.631,760.2a5.483,5.483,0,0,0,1.571.683,17.131,17.131,0,0,0,5.419.466.129.129,0,0,0-.013-.257,16.887,16.887,0,0,1-5.335-.456,5.267,5.267,0,0,1-1.49-.644l-.018-.012a3.569,3.569,0,0,1-1.3-1.535c-.42-.891-.665-2.272.286-2.924,1.09-.748,3.179-.1,4.25.434a.129.129,0,1,0,.116-.23c-1.168-.589-3.328-1.228-4.511-.417a1.683,1.683,0,0,0-.515.56C1453.335,757.213,1454.388,759.471,1455.631,760.2Z" transform="translate(-1445.001 -754.927)" fill="#fff" fill-rule="evenodd"/>
          <path id="Trazado_38782" data-name="Trazado 38782" d="M1437.99,1034.044l-.151-2.029a.128.128,0,1,0-.256.019l.135,1.823q-.569-.389-1.142-.769c-1.881-1.254-3.807-2.464-5.78-3.569a.129.129,0,0,0-.126.225c1.967,1.1,3.887,2.308,5.763,3.558q.672.448,1.342.906a.134.134,0,0,0,.039.026q.616.424,1.222.859a.129.129,0,0,0,.15-.209Q1438.595,1034.459,1437.99,1034.044Z" transform="translate(-1424.22 -1000.523)" fill="#fff" fill-rule="evenodd"/>
          <path id="Trazado_38783" data-name="Trazado 38783" d="M1662.659,1046.277c-.707.182-2.024.742-1.252,1.591a2.094,2.094,0,0,0,3.211-.258c.7-.8.455-2.634.2-3.608.5-1.635.97-3.281,1.4-4.937a.129.129,0,0,0-.249-.064c-.427,1.664-.9,3.318-1.4,4.961a.125.125,0,0,0,0,.072c.229.862.5,2.677-.139,3.408a1.841,1.841,0,0,1-2.827.253c-.566-.623.548-1.019,1.091-1.16a4.327,4.327,0,0,1-.037,1.1.129.129,0,1,0,.253.045,4.856,4.856,0,0,0-.219-2.365.129.129,0,0,0-.229-.022c-.085.136-.65.96-.82.915-.026-.015-.046-.118-.05-.143-.1-.661.818-2.182,1.192-2.736a.131.131,0,0,0,.022-.074c-.027-1.86.017-3.728.08-5.586.111-3.275.282-6.57.515-9.839a.129.129,0,0,0-.256-.018c-.232,3.273-.4,6.571-.515,9.849-.063,1.849-.107,3.708-.081,5.559-.433.647-1.321,2.144-1.21,2.885a.392.392,0,0,0,.229.351c.3.091.722-.442.967-.8A4.4,4.4,0,0,1,1662.659,1046.277Z" transform="translate(-1630.45 -998.899)" fill="#fff" fill-rule="evenodd"/>
          <path id="Trazado_38784" data-name="Trazado 38784" d="M1495.3,853.075a11.219,11.219,0,0,1-1.725.771.909.909,0,0,0,.957.211A1.464,1.464,0,0,0,1495.3,853.075Z" transform="translate(-1480.539 -842.716)" fill="#e51a4b" fill-rule="evenodd"/>
          <path id="Trazado_38785" data-name="Trazado 38785" d="M1503.748,823.66a.332.332,0,1,1-.364.328A.348.348,0,0,1,1503.748,823.66Z" transform="translate(-1489.317 -816.405)" fill="#434242" fill-rule="evenodd"/>
          <path id="Trazado_38786" data-name="Trazado 38786" d="M1478.756,827.188a.334.334,0,1,1-.242.428A.349.349,0,0,1,1478.756,827.188Z" transform="translate(-1467.057 -819.544)" fill="#434242" fill-rule="evenodd"/>
          <path id="Trazado_38787" data-name="Trazado 38787" d="M1475.762,816.167a1.358,1.358,0,0,0-.488-.146.617.617,0,0,0-.684.447.046.046,0,0,1-.086-.031.708.708,0,0,1,.778-.507,1.446,1.446,0,0,1,.525.157.046.046,0,0,1-.044.08Z" transform="translate(-1463.483 -809.488)" fill="#434242" fill-rule="evenodd"/>
          <path id="Trazado_38788" data-name="Trazado 38788" d="M1489.975,827.005q-.034.572-.063,1.145c-.012.244-.024.488-.032.733,0,.087-.006.175-.007.262a.941.941,0,0,0,0,.133c.025.056.316.038.367.034a3.69,3.69,0,0,0,.4-.056.047.047,0,1,1,.018.093c-.152.03-.847.16-.881-.058a.964.964,0,0,1,0-.147c0-.088,0-.176.006-.264.008-.245.02-.489.032-.734q.029-.573.063-1.146a.047.047,0,0,1,.094.006Z" transform="translate(-1477.147 -819.353)" fill="#434242" fill-rule="evenodd"/>
          <path id="Trazado_38789" data-name="Trazado 38789" d="M1502.016,814.243a1.355,1.355,0,0,0-.444-.249.72.72,0,0,0-.849.271.046.046,0,1,1-.077-.049.811.811,0,0,1,.953-.309,1.446,1.446,0,0,1,.478.268.046.046,0,1,1-.061.069Z" transform="translate(-1486.861 -807.642)" fill="#434242" fill-rule="evenodd"/>
          <path id="Trazado_38790" data-name="Trazado 38790" d="M1464.882,807.166a1.914,1.914,0,0,0-1.534,2.225c.009.057.02.114.034.17a.964.964,0,0,0-.4.051c0-.037-.009-.073-.014-.109a1.845,1.845,0,0,0-1.293-1.532,1.451,1.451,0,0,0-1.141.178,1.928,1.928,0,0,0,.528,3.385,1.451,1.451,0,0,0,1.14-.178,1.8,1.8,0,0,0,.791-1.558.754.754,0,0,1,.443-.049,1.887,1.887,0,0,0,2.049,1.3,1.966,1.966,0,0,0-.6-3.878Zm-3.25.977a1.752,1.752,0,0,1,.477,3.063,1.273,1.273,0,0,1-1,.156,1.752,1.752,0,0,1-.478-3.063,1.273,1.273,0,0,1,1-.156Zm3.827,2.727a1.789,1.789,0,1,1,1.386-2.023A1.738,1.738,0,0,1,1465.459,810.87Z" transform="translate(-1450.285 -801.633)" fill="#434242" fill-rule="evenodd"/>
          <g id="Grupo_21759" data-name="Grupo 21759" transform="translate(16.322 6.133)">
            <path id="Trazado_38791" data-name="Trazado 38791" d="M1526.573,813.543l-1.289.26a.054.054,0,0,0-.025.071c.012.026.042.022.072.025l1.289-.26c.029-.006.038-.045.025-.071A.054.054,0,0,0,1526.573,813.543Z" transform="translate(-1525.2 -813.484)" fill="#434242" fill-rule="evenodd"/>
            <path id="Trazado_38792" data-name="Trazado 38792" d="M1524.881,813.5l-.023,0a.1.1,0,0,1-.1-.054.107.107,0,0,1,.05-.142l1.3-.263a.1.1,0,0,1,.074,0,.107.107,0,0,1,.061.055.116.116,0,0,1,0,.1.09.09,0,0,1-.062.049Z" transform="translate(-1524.75 -813.031)" fill="#434242"/>
          </g>
        </g>
      </g>
    </g>
  </g>
</svg>
