<svg xmlns="http://www.w3.org/2000/svg" width="122" height="122" viewBox="0 0 122 122">
  <g id="Grupo_22088" data-name="Grupo 22088" transform="translate(-625 -12285)">
    <circle id="Elipse_1062" data-name="Elipse 1062" cx="61" cy="61" r="61" transform="translate(625 12285)" fill="#fed09d"/>
    <path id="Trazado_39144" data-name="Trazado 39144" d="M18.652-23.105q0,.566-.039.986t-.107.781a4.38,4.38,0,0,1-.186.684q-.117.322-.273.693L9.727-.684a1.163,1.163,0,0,1-.3.41,1.322,1.322,0,0,1-.518.244,4.374,4.374,0,0,1-.85.117Q7.539.117,6.777.117A15.389,15.389,0,0,1,5.137.049a2.7,2.7,0,0,1-.889-.215.479.479,0,0,1-.3-.371,1.133,1.133,0,0,1,.137-.557L13.027-20.82H2.4q-.41,0-.615-.537a5.178,5.178,0,0,1-.205-1.709,7.409,7.409,0,0,1,.059-1.006,3.1,3.1,0,0,1,.166-.693.923.923,0,0,1,.254-.391.531.531,0,0,1,.342-.117h15.02a2.128,2.128,0,0,1,.586.068.626.626,0,0,1,.371.3,1.952,1.952,0,0,1,.205.664A7.507,7.507,0,0,1,18.652-23.105Z" transform="translate(677 12354)" fill="#fff"/>
  </g>
</svg>
