<svg xmlns="http://www.w3.org/2000/svg" xmlns:xlink="http://www.w3.org/1999/xlink" width="346.586" height="346.392" viewBox="0 0 346.586 346.392">
  <defs>
    <linearGradient id="linear-gradient" y1="0.5" x2="1" y2="0.5" gradientUnits="objectBoundingBox">
      <stop offset="0" stop-color="#dfefea"/>
      <stop offset="1" stop-color="#bfe3ee"/>
    </linearGradient>
    <linearGradient id="linear-gradient-2" x1="1.481" y1="0.5" x2="2.481" y2="0.5" xlink:href="#linear-gradient"/>
    <linearGradient id="linear-gradient-3" y1="0.5" x2="1" y2="0.5" gradientUnits="objectBoundingBox">
      <stop offset="0" stop-color="#f1f8f7"/>
      <stop offset="1" stop-color="#bfe3ee"/>
    </linearGradient>
    <linearGradient id="linear-gradient-5" x1="16.319" x2="17.319" xlink:href="#linear-gradient-3"/>
    <linearGradient id="linear-gradient-6" x1="13.624" x2="14.624" xlink:href="#linear-gradient-3"/>
  </defs>
  <g id="Grupo_22076" data-name="Grupo 22076" transform="translate(-1151.414 -2960.784)">
    <g id="Grupo_18500" data-name="Grupo 18500" transform="translate(720.153 2767.732)">
      <path id="Trazado_37863" data-name="Trazado 37863" d="M738.122,888.628c-1.513,5.366-10.476,7.533-16.465,22.442s-.85,38.272,17.925,37.55,31.9-8.283,35.681-21.111S762.9,901.386,762.18,889.79s-15.589-11.979-15.589-11.979Z" transform="translate(-247.46 -588.318)" fill="#222954"/>
      <path id="Trazado_37864" data-name="Trazado 37864" d="M2236.766,1235.764h-94.929a8.729,8.729,0,0,1-2.254-8.307c4.857-21.11,29.715-7.362,29.715-7.362s-.112-21.435,27.846-15,25.9,16.172,25.9,16.172,16.43-8.995,21.9,3.906C2246.632,1229.164,2242.827,1232.736,2236.766,1235.764Z" transform="translate(-1467.496 -868.471)" fill="url(#linear-gradient)"/>
      <path id="Trazado_37865" data-name="Trazado 37865" d="M564.354,646.636H434.393s-7.048-8.916,0-14.915c3.889-3.311,8.482-2.968,11.818-2a3.89,3.89,0,0,0,4.819-3.046c.79-3.665,3.226-8.462,10.221-11.3,6.883-2.788,11.236,1.47,13.755,5.844a1.954,1.954,0,0,0,3.535-.36c2.182-6.906,9.785-16.062,34.766-16.062,31.773,0,28.243,16.891,25.4,23.911a1.618,1.618,0,0,0,1.837,2.207c4.9-1.048,14-2.406,18.077.8C564.354,636.218,564.354,646.636,564.354,646.636Z" transform="translate(0 -353.762)" fill="url(#linear-gradient-2)"/>
      <g id="Grupo_18485" data-name="Grupo 18485" transform="translate(530.495 202.021)">
        <g id="Grupo_18481" data-name="Grupo 18481" transform="translate(47.658 59.518)">
          <path id="Trazado_37866" data-name="Trazado 37866" d="M1643.676,739.915s-24.249-19.137-26.257-23.585-2.935-32.094-2.935-32.094l10.425-2.317,6.024,32.666,35.446,10.194-20.465,21.469Z" transform="translate(-1594.733 -681.555)" fill="#00666b"/>
          <g id="Grupo_18480" data-name="Grupo 18480">
            <path id="Trazado_37867" data-name="Trazado 37867" d="M1675.231,2354.073,1674,2364.267l-3.861,4.788-10.5-4.556.849-1.622,2.433-32.511Z" transform="translate(-1633.521 -2097.835)" fill="#f6b690"/>
            <path id="Trazado_37868" data-name="Trazado 37868" d="M2040.953,2354.073l1.912,15.58,3.185-.6,9.272-4.556-.85-1.622-2.432-32.511Z" transform="translate(-1961.137 -2097.835)" fill="#f6b690"/>
            <path id="Trazado_37869" data-name="Trazado 37869" d="M1672.874,1435.659l-1.936,5.013-6.607,80.184-2.78,65.332h18.071l10.889-67.765,17.255-75.9-6.694-6.527Z" transform="translate(-1635.17 -1329.139)" fill="#222954"/>
            <path id="Trazado_37870" data-name="Trazado 37870" d="M1867.209,1433.707a558.046,558.046,0,0,0,4.733,66.228c3.831,28.521,10.066,60.833,16.848,84.041H1907.9s-5.608-142-6.389-145.909a9.213,9.213,0,0,0-3.435-5.669Z" transform="translate(-1811.863 -1326.337)" fill="#0a3c5f"/>
            <path id="Trazado_37871" data-name="Trazado 37871" d="M1944.114,856.653a121.389,121.389,0,0,0-.371,13.672c-3.243,2.954-10.483,2.432-13.843-.811a113.33,113.33,0,0,0,.6-18.41s10.88,3.675,11.065,3.815S1944.114,856.653,1944.114,856.653Z" transform="translate(-1865.725 -826.913)" fill="#f4a086"/>
            <path id="Trazado_37872" data-name="Trazado 37872" d="M1886,760.859s-6.09,7.739-7.659,8.657-11.873,2.042-16.831-2.156,7.369-18.91,10.465-21.65c7.107,2.993,15.909,9.6,15.909,9.6Z" transform="translate(-1805.971 -736.362)" fill="#f6b690"/>
            <path id="Trazado_37873" data-name="Trazado 37873" d="M1942.734,679.576s-2.9-1.835-7.753,4.66,6.688,15.907,12.007,15.508c-2.319,4.493.032,10.448.032,10.448s14.07-4.784,13.875-11.529c-.059-2.045-2.7-3.143-2.7-3.143s2.752-3.5-2.341-8.029-10.722-3.023-12.681-4.8S1942.734,679.576,1942.734,679.576Z" transform="translate(-1869.089 -679.337)" fill="#222954"/>
            <path id="Trazado_37874" data-name="Trazado 37874" d="M2010.065,865.964c.477-.285,2.386-.793,3.015.749s-.2,2.571-1.54,3.5c-1.361.938-4.2,1.761-4.956.572C2005.879,869.671,2007.516,867.488,2010.065,865.964Z" transform="translate(-1931.468 -839.41)" fill="#f6b690"/>
            <path id="Trazado_37875" data-name="Trazado 37875" d="M1782.262,975.737c-11.844-1.129-13.35-1.94-13.35-1.94s-18.362-.425-23.315,23.721c-2.836,13.826-3.649,41.327-3.649,41.327s20.06,4.743,48.512-.459c-.655-7.564-1.28-10.431.023-19.988C1792.34,1004.789,1805.951,981.928,1782.262,975.737Z" transform="translate(-1704.245 -932.325)" fill="#63c0c4"/>
            <path id="Trazado_37876" data-name="Trazado 37876" d="M1515.313,2541.773l1.337,12.034h-42.374s-.541-3.916,2.419-6.017,7.545-.35,11.366-2.133,8.373-7.8,12.989-7.227,2.356,6.844,6.59,7c3.573.135,3.5-2.292,5.451-3.341a3.4,3.4,0,0,1,1.97-.347Z" transform="translate(-1474.238 -2276.564)" fill="#0a3c5f"/>
            <path id="Trazado_37877" data-name="Trazado 37877" d="M1516.331,2626.594l.333,2.993H1474.29a7.805,7.805,0,0,1,.294-2.993Z" transform="translate(-1474.251 -2352.344)" fill="#222954"/>
            <path id="Trazado_37878" data-name="Trazado 37878" d="M2067.089,2565.891h-29.41l1.209-11.951h1.232s1.19,4.746,3.308,4.746,3.537-6.183,7.3-6.229,2.076,3.194,6.731,5.567S2067.089,2559.845,2067.089,2565.891Z" transform="translate(-1958.324 -2288.647)" fill="#0a3c5f"/>
            <path id="Trazado_37879" data-name="Trazado 37879" d="M2066.254,2625.634a5.242,5.242,0,0,1,.835,3.128h-29.41l.342-3.128Z" transform="translate(-1958.324 -2351.519)" fill="#222954"/>
            <path id="Trazado_37880" data-name="Trazado 37880" d="M2132.806,2603.518c3.709-.09,5.83.641,7.013,1.363,1.4.917,2.307,2.293,2.307,4.873h-17.11S2125.682,2603.692,2132.806,2603.518Z" transform="translate(-2033.361 -2332.511)" fill="#222954"/>
          </g>
        </g>
        <g id="Grupo_18483" data-name="Grupo 18483" transform="translate(0 0)">
          <path id="Trazado_37881" data-name="Trazado 37881" d="M1910.539,587.689l2.085.541a8.81,8.81,0,0,0,6.271-1.336c1.539,1.668-1.174,2.726-1.174,2.726s5.56,1.236,6.1,3.089-6.587,2.008-7.977,1.467a12.132,12.132,0,0,1-3.143-2.317l-4.865-1.544Z" transform="translate(-1799.11 -540.394)" fill="#f6b690"/>
          <g id="Grupo_18482" data-name="Grupo 18482">
            <path id="Trazado_37882" data-name="Trazado 37882" d="M1341.689,408.117l-1.911-8.688,3.649-.579,2.78,9.267Z" transform="translate(-1311.057 -378.835)" fill="#f6b690"/>
            <path id="Trazado_37883" data-name="Trazado 37883" d="M1226.386,537.483l-5.908-4.981-2.838,1.274a44.755,44.755,0,0,0,4.865,6.718C1224.764,542.812,1226.386,537.483,1226.386,537.483Z" transform="translate(-1206.121 -493.664)" fill="#f6b690"/>
            <path id="Trazado_37884" data-name="Trazado 37884" d="M1775.674,467.089l3.289,6.048a18.751,18.751,0,0,0,7.578,7.549l6.268,3.377-2.608,5.715-9.215-2.65a18.746,18.746,0,0,1-8.226-4.913l-3.1-3.171Z" transform="translate(-1680.394 -437.464)" fill="#d1eaed"/>
            <path id="Trazado_37885" data-name="Trazado 37885" d="M1778.6,370.542l-6.759,8.761,5.967,5.1,6.379-8.658Z" transform="translate(-1682.269 -354.515)" fill="#f4a086"/>
            <path id="Trazado_37886" data-name="Trazado 37886" d="M1818.507,326.717s-7.264,6.941-4.919,13.032,6.3,6.9,8.147,6.228,6.2-2.521,6.869-3.912.9-2.693,1.421-3.057,5.02-2.539,5.059-6.189-6.318-10.853-9.865-10.512S1818.507,326.717,1818.507,326.717Z" transform="translate(-1717.736 -313.062)" fill="#f6b690"/>
            <path id="Trazado_37887" data-name="Trazado 37887" d="M1865.692,276.622a12.872,12.872,0,0,0-2-12.543c-4.82-5.927-11.911-8.664-15.6-5.981.947-2.1-.629-1.436-.538-.21-1.045,1.39,1.3,10.9,11,17.557.081-1.162.5-1.5.5-1.5a6.844,6.844,0,0,0,3.62,3.585c-.934-2.165-.476-2.317-.476-2.317S1864.1,278.616,1865.692,276.622Z" transform="translate(-1747.124 -256.74)" fill="#222954"/>
            <path id="Trazado_37888" data-name="Trazado 37888" d="M1805.761,267.845s-2.63-1.858-5.214,1.118-3.609,5.5-3.015,9.1a18.358,18.358,0,0,0,1.714,5.582l6.32.74s3.039-2.751,3.838-5.57S1805.761,267.845,1805.761,267.845Z" transform="translate(-1704.201 -265.788)" fill="#222954"/>
            <ellipse id="Elipse_1032" data-name="Elipse 1032" cx="2.425" cy="2.017" rx="2.425" ry="2.017" transform="translate(94.988 18.249) rotate(-51.151)" fill="#f6b690"/>
            <path id="Trazado_37889" data-name="Trazado 37889" d="M1344.693,446.513l5.795-1.467a127.431,127.431,0,0,1,10.039,22.472c5.869-1.622,13.515-7.491,18.843-7.414,2.085,11.043-21.237,20.928-21.237,20.928l-7.89-10.558Z" transform="translate(-1315.28 -418.525)" fill="#222954"/>
            <path id="Trazado_37890" data-name="Trazado 37890" d="M1287.91,551.968l18.843,16.063s-10.966,9.808-39.693,13.592c-17.839-7.8-29.268-25.021-29.268-25.021l5.174-4.17s14.364,8.8,22.55,14.9C1274.087,562.857,1280.265,552.431,1287.91,551.968Z" transform="translate(-1223.434 -510.388)" fill="#0a3c5f"/>
            <path id="Trazado_37891" data-name="Trazado 37891" d="M1620.471,432.85c5.959,3.515,5.946,21.623-9.19,31.662-15.754-7.723-20.078-9.962-18.843-16.063C1601.087,443.942,1609.737,426.518,1620.471,432.85Z" transform="translate(-1527.963 -406.87)" fill="#b7dddf"/>
            <path id="Trazado_37892" data-name="Trazado 37892" d="M1496.944,354.46l-1.75-1.257a8.81,8.81,0,0,1-2.985-5.674c-2.266-.115-1.344,2.647-1.344,2.647s-4.507-3.483-6.277-2.712,2.671,6.347,3.976,7.069a12.135,12.135,0,0,0,3.792.933l4.3,2.751Z" transform="translate(-1435.119 -334.59)" fill="#f6b690"/>
            <path id="Trazado_37893" data-name="Trazado 37893" d="M1577.445,389.43s-15.754-.02-28.959-6.893l-3.089,5.909a43.09,43.09,0,0,0,26.411,13.783c6.138.736,8.958-3.707,8.417-8.417A5.555,5.555,0,0,0,1577.445,389.43Z" transform="translate(-1487.717 -364.82)" fill="#d1eaed"/>
            <path id="Trazado_37894" data-name="Trazado 37894" d="M1136.079,502.8l14.79-2.812.735,5.753s-2.435-2.12-3.13,1.857c0,0-2.9-2.278-11.583-2.336C1135.21,504.8,1136.079,502.8,1136.079,502.8Z" transform="translate(-1135.854 -465.729)" fill="#0a3c5f"/>
            <path id="Trazado_37895" data-name="Trazado 37895" d="M1274.2,362.34l14.623,3.58-1.476,4.756s-1.578-2.157-3.861,1.173c0,0-1.689-3.274-9.569-6.933C1272.575,363.8,1274.2,362.34,1274.2,362.34Z" transform="translate(-1254.013 -347.467)" fill="#0a3c5f"/>
          </g>
        </g>
        <g id="Grupo_18484" data-name="Grupo 18484" transform="translate(69.789 37.071)">
          <path id="Trazado_37896" data-name="Trazado 37896" d="M1646.138,538.74l-1.467-6.089,2.972-10.58s-1.5-2.2-2.895,1.777c-.962,2.751-7.336-4.4-9.576-3.861s-5.724,6-2.481,9.859a20.782,20.782,0,0,0,6.265,5.277l1.459,7.282Z" transform="translate(-1631.372 -519.957)" fill="#f6b690"/>
          <path id="Trazado_37897" data-name="Trazado 37897" d="M1672.059,638.548l9.843-3.784,8.922,36.682,33.5,13.635s12.458,2.2,11.68,15.633-17.921,7.8-23.172,5.715c-4.373-1.736-25.557-17.162-32.525-22.276a6.516,6.516,0,0,1-2.6-4.369Z" transform="translate(-1666.329 -618.595)" fill="#01888b"/>
        </g>
      </g>
      <g id="Grupo_18487" data-name="Grupo 18487" transform="translate(458.328 272.422)">
        <path id="Trazado_37898" data-name="Trazado 37898" d="M899.531,1098.83l19.515,32.606,24.132,26.848s13.712,4.951,13.458,8.983c-.355,5.648-10.576,4.31-12.9,2.4s-5.113-8.107-5.113-8.107l-29.067-23.342s-21.326-20.51-22.956-27.8S892.165,1090.916,899.531,1098.83Z" transform="translate(-849.332 -1048.422)" fill="#f39f85"/>
        <g id="Grupo_18486" data-name="Grupo 18486" transform="translate(0 0)">
          <path id="Trazado_37899" data-name="Trazado 37899" d="M1050.939,831.484s1.444,4.842-.127,7.221-5.1,2.761-5.1,2.761l-1.359-10.7Z" transform="translate(-985.074 -820.318)" fill="#161c3a"/>
          <path id="Trazado_37900" data-name="Trazado 37900" d="M917,940.329s.495,8.951-.227,14.3a57.177,57.177,0,0,1,9.811.954l-.551-12.89Z" transform="translate(-875.464 -914.454)" fill="#f4a086"/>
          <path id="Trazado_37901" data-name="Trazado 37901" d="M911.03,793.911s2.209,11.554-.425,19.667-6.032,7.773-8.113,7.519-8.41-2.94-10.407-10.348c-4.375-3.245-6.456-6.346-5.14-12.165,1.7-7.5,8.113-10.577,15.079-9.94C907.4,789.135,911.03,793.911,911.03,793.911Z" transform="translate(-849.498 -784.062)" fill="#f6b690"/>
          <path id="Trazado_37902" data-name="Trazado 37902" d="M716.566,1887.005s-1.952,23.078-50.048,25.727-38.268-29.555-38.268-29.555Z" transform="translate(-626.863 -1724.511)" fill="#fdac47"/>
          <path id="Trazado_37903" data-name="Trazado 37903" d="M872.727,766.2c2.209,3.356,13.933.765,11.341,8.793,4.163-4.885,1.487-13.848-6.032-17.076s-15.775-.112-16.659,5.169c-4.622-2.238-7.978-.411-9.21,2.714-1.329,3.37.212,11.87-1.657,19.346s8.113-.042,8.113-.042l1.784-4.56S872.259,777.84,872.727,766.2Z" transform="translate(-818.33 -756.607)" fill="#222954"/>
          <path id="Trazado_37904" data-name="Trazado 37904" d="M812.546,1039.878c-15.325,0-20.419,4.075-22.43,7.3s-1.519,9.123-.357,13.814,11.438,25.423,4.825,33.377h29.891s1.489-14.467,2.5-27.456c.887-11.371-.615-21.167-6.309-23.9A31.34,31.34,0,0,0,812.546,1039.878Z" transform="translate(-765.466 -999.982)" fill="#fdd247"/>
          <path id="Trazado_37905" data-name="Trazado 37905" d="M854.43,1426.773c2.881,25.872,15.818,83.971,15.818,83.971s-1.218,31.228,5.706,77.613c-2.379,7.263-6.343,3.349-6.343,3.349s-2.663-.671-2.861-4.411c-1.281-28.509-18.387-61.513-14.215-71.985-3.186-9.663-41.415-60.24-24.722-88.536Z" transform="translate(-795.42 -1332.387)" fill="#f6b690"/>
          <path id="Trazado_37906" data-name="Trazado 37906" d="M758.629,1426.773s-2.421,36.184-21.663,89.96c.255,23.32-14.782,55.815-13.125,69.323-5.225-.765-5.532,7.755-5.225-.765,1.019-28.29-5.862-44.135,1.019-69.982-1.911-32.855-5.912-62.788,12.909-88.536Z" transform="translate(-703.426 -1332.387)" fill="#f6b690"/>
          <path id="Trazado_37907" data-name="Trazado 37907" d="M682.453,1426.773s5.112,56.856,30.694,68.108c-9.169,32.627-60.852,1.493-76.592.772-13.522-.619-11.45,9.07-11.45,9.07a17.656,17.656,0,0,1-1.1-4.342,69.069,69.069,0,0,1,1.733-26.406c4.322-15.893,26.824-47.2,26.824-47.2Z" transform="translate(-623.443 -1332.387)" fill="#fdd247"/>
          <path id="Trazado_37908" data-name="Trazado 37908" d="M1113.372,2551.814c1.768-.423,2.9,5.737,11.988,6.789,4.9.569,5.286,5.443,5.286,5.443h-30.288l3.283-12.883s1.156-.413,1.528-.1,2.828,3.489,5.038,3.654S1113.372,2551.814,1113.372,2551.814Z" transform="translate(-1033.19 -2298.232)" fill="#018a89"/>
          <path id="Trazado_37909" data-name="Trazado 37909" d="M1130.234,2632.223a6.717,6.717,0,0,1,.413,1.655h-30.288l.422-1.655Z" transform="translate(-1033.19 -2368.062)" fill="#0a3c5f"/>
          <path id="Trazado_37910" data-name="Trazado 37910" d="M705.644,2532.472c-.353-1.182-4.4-1.787-4.872,0-1.5,5.642-4.77,6.388-5.068,14.737h16.1C711.93,2539.056,707.98,2540.288,705.644,2532.472Z" transform="translate(-685.527 -2281.394)" fill="#018a89"/>
          <path id="Trazado_37911" data-name="Trazado 37911" d="M711.752,2631.017c.042.553.061,1.155.051,1.825H695.7c.023-.655.067-1.258.124-1.825Z" transform="translate(-685.527 -2367.026)" fill="#0a3c5f"/>
          <path id="Trazado_37912" data-name="Trazado 37912" d="M798.489,1063.542c3.895,2.754,22.555,43.14,22.555,43.14l28.237,24.186s7.327,3.4,10.284,3.872,8.49,5.571,8.083,7.541-5.715,6.658-13.523,3.4-5.486-7.473-9.127-9.783-31.528-19.838-31.528-19.838-24.653-33.491-27.7-41.3S791.763,1058.786,798.489,1063.542Z" transform="translate(-762.387 -1019.101)" fill="#f6b690"/>
          <path id="Trazado_37913" data-name="Trazado 37913" d="M907.881,904.607s-.113-3.271-1.661-3.271-2.529,1.4-2.454,3.271,1.737,4.014,3.171,3.823C907.958,908.294,907.881,904.607,907.881,904.607Z" transform="translate(-864.281 -880.952)" fill="#f6b690"/>
        </g>
      </g>
      <g id="Grupo_18489" data-name="Grupo 18489" transform="translate(552.317 392.761)">
        <path id="Trazado_37914" data-name="Trazado 37914" d="M1864.512,2083.484l1.123,2.344,4.248,4.492s.522,7.813-2.473,8.349-4.851-10.156-4.851-10.156l-1.611-3.662Z" transform="translate(-1780.649 -2016.946)" fill="#f6b690"/>
        <path id="Trazado_37915" data-name="Trazado 37915" d="M1511.9,1699.921a14.885,14.885,0,0,1,0,11.242c-4.907,11.316,15.468,11.3,14.3,26.678s-12.781,18.75-27.282,18.054-17.834-15.674-14.465-24.389,9.141-7.226,8.152-17.266C1492.009,1708.2,1511.9,1699.921,1511.9,1699.921Z" transform="translate(-1456.141 -1687.405)" fill="#222954"/>
        <path id="Trazado_37916" data-name="Trazado 37916" d="M1577.365,1777.925l.747,16.9-8.056-1.648-.856-10.565Z" transform="translate(-1529.989 -1754.422)" fill="#f4a086"/>
        <path id="Trazado_37917" data-name="Trazado 37917" d="M1502.744,1691.417c.728,4.668.439,11.719-2.234,14.282s-5.676,5.273-10.363,4.724-6.116-5.9-5.823-8.9,1.135-4.028,1.025-5.639-2.16-3.552-1.062-6.042S1501.133,1681.09,1502.744,1691.417Z" transform="translate(-1456.759 -1675.165)" fill="#f6b690"/>
        <path id="Trazado_37918" data-name="Trazado 37918" d="M1458.818,1619.281c0,.11,4.907-.842,6.518,4.285s-1.977,10.656-6.775,9.558a25.385,25.385,0,0,0-3.259-1.135s-1.941,3.259-4.285.879-1.1-6.115-1.1-6.115-1.758,1.963-4.614-.245c-3.662,3.1-16.15.392-16.259-7.7s10.19-10.653,15.93-3.808C1449.37,1610.053,1459.074,1613.239,1458.818,1619.281Z" transform="translate(-1409.574 -1611.049)" fill="#222954"/>
        <path id="Trazado_37919" data-name="Trazado 37919" d="M1670.134,1892.276s-10.888-2.637-15.283-4.052-8.3-17.529-2.734-16.5,20.361,10.644,20.361,10.644l11.377,19.433-4.931,2.832Z" transform="translate(-1598.867 -1834.967)" fill="#01888b"/>
        <path id="Trazado_37920" data-name="Trazado 37920" d="M1342.941,1743.865h-3.467s-11.767-1.99-17.187-5.853c-3.564-6.94-7.324-15.152-7.324-15.152l-7.324,2.793,9.717,22.411s10.839,10.2,21.923,11.377C1344.8,1749.48,1342.941,1743.865,1342.941,1743.865Z" transform="translate(-1305.267 -1707.112)" fill="#00666b"/>
        <g id="Grupo_18488" data-name="Grupo 18488" transform="translate(30.836 69.223)">
          <path id="Trazado_37921" data-name="Trazado 37921" d="M1557.4,2102.6s12.4,31.151,21.728,38.427c14.16.342,34.765,1.026,34.765,1.026a11.282,11.282,0,0,1,5.078,5.176c1.953-.2.879-2.637.879-2.637l-4.248-8.154a21.206,21.206,0,0,1-3.027,1.27c-10.01-1.758-21.035-7.325-25.244-5.811-4.42-8.544-4.639-27.05-9.033-29.3C1560.724,2102.5,1557.4,2102.6,1557.4,2102.6Z" transform="translate(-1550.691 -2102.552)" fill="#f6b690"/>
          <path id="Trazado_37922" data-name="Trazado 37922" d="M1509.741,2102.552l6.713.043s10.069-.043,12.407-.043c1.9,17.573-3.521,33.49-3.814,39.447,2.344,2.392.879,25.048,1.611,27.49a8.3,8.3,0,0,0,1.221,2.93l-8.252,4.98-3.174-.293v-1.562l3.076-.83,2.734-4.2s-2.881-18.847-6.543-27.538C1511.669,2128.425,1510.229,2109.925,1509.741,2102.552Z" transform="translate(-1509.741 -2102.552)" fill="#f6b690"/>
          <path id="Trazado_37923" data-name="Trazado 37923" d="M1951.607,2332.913l.544,1.269s2.537.692,2.933,1.516-2.372,2.9-2.372,2.9l1.7,1.5s2.307-.84,3.1.676-1.055,2.488-1.055,2.488a9.643,9.643,0,0,0,1.763,1.565c.89.56,4.234-1.153,4.234-1.153l-4.943-12.687Z" transform="translate(-1889.375 -2298.813)" fill="#60c2c5"/>
          <path id="Trazado_37924" data-name="Trazado 37924" d="M1984.585,2330.985l4.943,12.687s-.553.283-1.269.582l-5.133-12.792Z" transform="translate(-1916.455 -2298.813)" fill="#11858a"/>
          <path id="Trazado_37925" data-name="Trazado 37925" d="M1555.293,2576.18l-1.066.213s.367,2.238-1.042,3.163-4.121-.936-4.121-.936l-.888,1.193s1.4,1.673.083,2.727-2.19-.864-2.19-.864a4.874,4.874,0,0,1-1.718.485c-2.878,0-1.883,4.773-1.883,4.773h8.03l8.077-5.78Z" transform="translate(-1537.714 -2509.475)" fill="#60c2c5"/>
          <path id="Trazado_37926" data-name="Trazado 37926" d="M1542.412,2607.848h7.872l7.5-5.892.886,1.344-8.077,5.78h-8.03A9.425,9.425,0,0,1,1542.412,2607.848Z" transform="translate(-1537.811 -2531.62)" fill="#11858a"/>
        </g>
        <path id="Trazado_37927" data-name="Trazado 37927" d="M1299.662,1633.337l-.874-2.459,2.426-5.868s-.873-1.016-1.585,0-.744,1.7-1.294,1.6.129-8.476-1.909-9.058-5.6,6.559-5.629,8.294,3.2,6.329,3.2,6.329l1.553,3.882Z" transform="translate(-1290.797 -1616.605)" fill="#f6b690"/>
        <path id="Trazado_37928" data-name="Trazado 37928" d="M1613.559,1737.931c2.182.583,2.82,4.211.769,6.079s-3.213-.1-3.516-1.465C1610.446,1740.9,1610.41,1737.088,1613.559,1737.931Z" transform="translate(-1565.597 -1719.958)" fill="#f6b690"/>
        <path id="Trazado_37929" data-name="Trazado 37929" d="M1527.66,1869.756s-11.572-.83-15.576,0-9.033,15.332-7.178,32.47h28.906a134.683,134.683,0,0,1-1.221-19.873C1531.957,1874.394,1532.25,1870.634,1527.66,1869.756Z" transform="translate(-1474.411 -1833.003)" fill="#01888b"/>
        <path id="Trazado_37930" data-name="Trazado 37930" d="M1521.879,2102.552s9.519,19.9,10.7,24.761c-7.471,11.993-25.188,16.1-38.469,14.388-7.129-26.074-1.14-39.149-1.14-39.149Z" transform="translate(-1462.477 -2033.329)" fill="#01888b"/>
      </g>
      <g id="Grupo_18496" data-name="Grupo 18496" transform="translate(705.185 251.994)">
        <g id="Grupo_18490" data-name="Grupo 18490" transform="translate(0 0)">
          <path id="Trazado_37931" data-name="Trazado 37931" d="M2396.5,633.292l2.45,4.819-5.146-1.174-17.6-5.547Z" transform="translate(-2376.202 -628.597)" fill="#afd8c7"/>
          <path id="Trazado_37932" data-name="Trazado 37932" d="M2484.4,669.154l-8.742-.543,2.142-1.089Z" transform="translate(-2461.651 -659.64)" fill="#63c0c4"/>
          <path id="Trazado_37933" data-name="Trazado 37933" d="M2396.5,616.255l1.53-4.695-21.829,2.793Z" transform="translate(-2376.202 -611.56)" fill="url(#linear-gradient-3)"/>
          <path id="Trazado_37934" data-name="Trazado 37934" d="M2376.2,631.39l17.6,5.547-2.624,6.767Z" transform="translate(-2376.202 -628.597)" fill="url(#linear-gradient-3)"/>
        </g>
        <g id="Grupo_18495" data-name="Grupo 18495" transform="translate(2.504 12.382)">
          <g id="Grupo_18491" data-name="Grupo 18491" transform="translate(16.049)">
            <path id="Trazado_37935" data-name="Trazado 37935" d="M2510.2,701.46a.415.415,0,0,0,.124-.1.411.411,0,0,0-.041-.58,11.53,11.53,0,0,0-1.73-1.247.411.411,0,1,0-.416.709,10.716,10.716,0,0,1,1.607,1.158A.411.411,0,0,0,2510.2,701.46Z" transform="translate(-2507.936 -699.479)" fill="#63c0c4"/>
          </g>
          <g id="Grupo_18493" data-name="Grupo 18493" transform="translate(0 3.026)">
            <g id="Grupo_18492" data-name="Grupo 18492">
              <path id="Trazado_37936" data-name="Trazado 37936" d="M2405.9,764.859a.412.412,0,0,1,.145-.563,11.567,11.567,0,0,0,3.016-2.614.411.411,0,0,1,.634.524,12.387,12.387,0,0,1-3.232,2.8l-.023.012A.411.411,0,0,1,2405.9,764.859Zm4.686-4.611a.41.41,0,0,1-.154-.56,14.717,14.717,0,0,0,1.491-3.743.411.411,0,1,1,.8.2,15.536,15.536,0,0,1-1.576,3.952.405.405,0,0,1-.17.163A.411.411,0,0,1,2410.586,760.248Zm2.094-6.253a.412.412,0,0,1-.381-.44l.011-.185a18.967,18.967,0,0,0-.2-3.865.411.411,0,0,1,.813-.123,19.869,19.869,0,0,1,.211,4.033l-.012.2a.412.412,0,0,1-.44.381Zm-.571-6.59a.411.411,0,0,1-.5-.292,29.989,29.989,0,0,0-1.335-3.872.415.415,0,0,1,.22-.538.411.411,0,0,1,.538.22,30.627,30.627,0,0,1,1.371,3.979.411.411,0,0,1-.211.472A.434.434,0,0,1,2412.11,747.4Zm-2.312-6.221a.411.411,0,0,1-.55-.188c-.051-.1-.1-.207-.154-.31a13.845,13.845,0,0,1-1.33.443.411.411,0,1,1-.22-.793q.6-.165,1.173-.387c-.427-.818-.9-1.668-1.429-2.583a.411.411,0,0,1,.711-.413c.551.948,1.038,1.828,1.479,2.676a12.486,12.486,0,0,0,1.712-.955.411.411,0,0,1,.457.684,13.387,13.387,0,0,1-1.8,1c.045.09.09.18.134.27a.411.411,0,0,1-.183.548Zm3.249-3.46a.411.411,0,0,1-.008-.581,10.325,10.325,0,0,0,2.182-3.319.411.411,0,0,1,.761.312,11.171,11.171,0,0,1-2.354,3.581.406.406,0,0,1-.108.08A.411.411,0,0,1,2413.047,737.724Zm-7.807,3.861a12.841,12.841,0,0,1-4.258-.333.411.411,0,1,1,.2-.8,12.021,12.021,0,0,0,3.987.31.411.411,0,1,1,.07.82Zm10.978-9.591a.411.411,0,0,1-.334-.476,12.47,12.47,0,0,0,.037-4,.411.411,0,0,1,.813-.121,13.306,13.306,0,0,1-.041,4.268.411.411,0,0,1-.476.334Zm-17.65,8.351a10.67,10.67,0,0,1-.966-.559,8.784,8.784,0,0,1-2.324-2.221.411.411,0,1,1,.668-.48,7.967,7.967,0,0,0,2.1,2.011,9.956,9.956,0,0,0,.892.517.411.411,0,1,1-.375.732Zm7.439-5.094a15.241,15.241,0,0,0-2.541-3.133.411.411,0,0,1,.551-.611,16.036,16.036,0,0,1,2.681,3.3.412.412,0,0,1-.123.569l-.036.021A.411.411,0,0,1,2406.007,735.251Zm9.864-9.827a.411.411,0,0,1-.522-.256,13.194,13.194,0,0,0-.715-1.689,12.543,12.543,0,0,0-1.156-1.856.411.411,0,0,1,.657-.494,13.383,13.383,0,0,1,1.232,1.978,14.05,14.05,0,0,1,.76,1.795.412.412,0,0,1-.2.5A.417.417,0,0,1,2415.87,725.424Zm-21.231,10.066a.411.411,0,0,1-.5-.3,4.566,4.566,0,0,1,.337-3.279,4.176,4.176,0,0,1,.7-.966.411.411,0,1,1,.59.573,3.357,3.357,0,0,0-.564.776,3.711,3.711,0,0,0-.267,2.7.411.411,0,0,1-.212.466A.4.4,0,0,1,2394.639,735.49Zm6.874-4.7a5.883,5.883,0,0,0-3.786-.357.411.411,0,1,1-.2-.8,6.638,6.638,0,0,1,4.333.408.411.411,0,1,1-.345.746Z" transform="translate(-2393.983 -720.964)" fill="#63c0c4"/>
            </g>
          </g>
          <g id="Grupo_18494" data-name="Grupo 18494" transform="translate(7.516 47.305)">
            <path id="Trazado_37937" data-name="Trazado 37937" d="M2449.971,1036.139a.411.411,0,0,0-.3-.762,8.832,8.832,0,0,1-1.933.326.411.411,0,1,0,.045.82,9.653,9.653,0,0,0,2.114-.355A.424.424,0,0,0,2449.971,1036.139Z" transform="translate(-2447.349 -1035.361)" fill="#63c0c4"/>
          </g>
        </g>
      </g>
      <g id="Grupo_18499" data-name="Grupo 18499" transform="translate(467.722 193.051)">
        <g id="Grupo_18497" data-name="Grupo 18497" transform="translate(67.271 0)">
          <path id="Trazado_37938" data-name="Trazado 37938" d="M1233.918,202.361l-14.233-7.855-7.266-1.454-5.491.807Z" transform="translate(-1201.416 -193.051)" fill="url(#linear-gradient-5)"/>
          <path id="Trazado_37939" data-name="Trazado 37939" d="M1233.918,207.286l-26.652-6.851-.338-1.65" transform="translate(-1201.416 -197.977)" fill="#afd8c7"/>
          <path id="Trazado_37940" data-name="Trazado 37940" d="M1203.926,242.97l.034.056,1.118,4.138,26.193-1.913Z" transform="translate(-1198.837 -235.939)" fill="#63c0c4"/>
          <path id="Trazado_37941" data-name="Trazado 37941" d="M1167.79,206.926l3.8-3.086,28.526,7.745-24.556-.73Z" transform="translate(-1167.79 -202.32)" fill="url(#linear-gradient-6)"/>
        </g>
        <g id="Grupo_18498" data-name="Grupo 18498" transform="translate(0 1.317)">
          <path id="Trazado_37942" data-name="Trazado 37942" d="M734.624,593.629a19.958,19.958,0,0,0,2.564-1.113.387.387,0,1,1,.357.688,20.75,20.75,0,0,1-2.664,1.156q-.492.174-.989.322a.387.387,0,0,1-.223-.741Q734.149,593.8,734.624,593.629Z" transform="translate(-727.303 -537.536)" fill="#63c0c4"/>
          <path id="Trazado_37943" data-name="Trazado 37943" d="M1109.832,205.244c1.208.155,2.466.354,3.845.609a.387.387,0,1,1-.141.762c-1.365-.252-2.609-.449-3.8-.6a.387.387,0,1,1,.1-.768Z" transform="translate(-1050.349 -204.841)" fill="#63c0c4"/>
          <path id="Trazado_37944" data-name="Trazado 37944" d="M1065.683,203.1a.387.387,0,0,1,.227-.7c1.242-.011,2.556.041,3.9.154a.387.387,0,0,1-.065.772c-1.324-.111-2.613-.162-3.833-.151A.385.385,0,0,1,1065.683,203.1Z" transform="translate(-1012.657 -202.4)" fill="#63c0c4"/>
          <path id="Trazado_37945" data-name="Trazado 37945" d="M776.154,566.854a.381.381,0,0,1,.547.007.386.386,0,0,1-.007.547,21.579,21.579,0,0,1-3.056,2.482.387.387,0,0,1-.446-.01.37.37,0,0,1-.091-.1.387.387,0,0,1,.106-.537A20.911,20.911,0,0,0,776.154,566.854Z" transform="translate(-761.362 -515.428)" fill="#63c0c4"/>
          <path id="Trazado_37946" data-name="Trazado 37946" d="M805.646,535.755a.387.387,0,0,1-.054-.545q.328-.4.637-.817a20.08,20.08,0,0,0,1.487-2.327.387.387,0,0,1,.525-.155.391.391,0,0,1,.155.526,20.815,20.815,0,0,1-1.545,2.417q-.32.432-.661.847a.387.387,0,0,1-.53.066Z" transform="translate(-789.257 -485.463)" fill="#63c0c4"/>
          <path id="Trazado_37947" data-name="Trazado 37947" d="M828.189,495.286a.394.394,0,0,1-.083-.047.387.387,0,0,1-.127-.459,26.438,26.438,0,0,0,1.178-3.624.387.387,0,1,1,.75.189,26.94,26.94,0,0,1-1.213,3.73A.387.387,0,0,1,828.189,495.286Z" transform="translate(-808.541 -450.236)" fill="#63c0c4"/>
          <path id="Trazado_37948" data-name="Trazado 37948" d="M884.563,283.762q-.484.591-.938,1.2c-.457.616-.892,1.255-1.3,1.9a.387.387,0,0,1-.534.122l-.025-.017a.387.387,0,0,1-.1-.516c.413-.66.86-1.314,1.328-1.947q.465-.628.962-1.233a.368.368,0,0,1,.545-.054A.387.387,0,0,1,884.563,283.762Z" transform="translate(-854.648 -271.752)" fill="#63c0c4"/>
          <path id="Trazado_37949" data-name="Trazado 37949" d="M864.641,320.347a28.226,28.226,0,0,0-1.535,3.494.387.387,0,0,1-.5.233.391.391,0,0,1-.1-.053.387.387,0,0,1-.134-.442,28.9,28.9,0,0,1,1.577-3.591.387.387,0,0,1,.687.359Z" transform="translate(-838.101 -303.248)" fill="#63c0c4"/>
          <path id="Trazado_37950" data-name="Trazado 37950" d="M912.08,252.833a31.487,31.487,0,0,0-2.8,2.6.387.387,0,0,1-.51.044.422.422,0,0,1-.038-.032.387.387,0,0,1-.013-.547,32.4,32.4,0,0,1,2.872-2.664.388.388,0,0,1,.492.6Z" transform="translate(-877.841 -245.14)" fill="#63c0c4"/>
          <path id="Trazado_37951" data-name="Trazado 37951" d="M980.62,213.064a.387.387,0,0,1-.313-.708A30.627,30.627,0,0,1,983.984,211a.387.387,0,1,1,.22.742A29.91,29.91,0,0,0,980.62,213.064Z" transform="translate(-939.242 -209.777)" fill="#63c0c4"/>
          <path id="Trazado_37952" data-name="Trazado 37952" d="M846.381,408.489a.387.387,0,0,1-.341-.429l.055-.487c.128-1.122.256-2.246.4-3.365a.387.387,0,0,1,.768.1c-.148,1.115-.275,2.233-.4,3.351l-.056.487A.387.387,0,0,1,846.381,408.489Z" transform="translate(-824.082 -375.496)" fill="#63c0c4"/>
          <path id="Trazado_37953" data-name="Trazado 37953" d="M942.487,230.455a.387.387,0,1,1-.446-.633,32.116,32.116,0,0,1,3.333-2.059.387.387,0,0,1,.366.683A31.236,31.236,0,0,0,942.487,230.455Z" transform="translate(-906.423 -224.153)" fill="#63c0c4"/>
          <path id="Trazado_37954" data-name="Trazado 37954" d="M840.965,447.564a.386.386,0,0,1,.335.433c-.19,1.508-.377,2.732-.587,3.852a.387.387,0,0,1-.762-.143c.207-1.1.392-2.313.581-3.805A.387.387,0,0,1,840.965,447.564Z" transform="translate(-818.848 -413.032)" fill="#63c0c4"/>
          <path id="Trazado_37955" data-name="Trazado 37955" d="M694.295,606.722a.387.387,0,0,1,.149.76,31.264,31.264,0,0,1-3.884.5.387.387,0,1,1-.055-.773A30.791,30.791,0,0,0,694.295,606.722Z" transform="translate(-690.145 -549.771)" fill="#63c0c4"/>
          <path id="Trazado_37956" data-name="Trazado 37956" d="M853.01,360.692a.388.388,0,0,1,.273.475c-.305,1.139-.567,2.365-.8,3.749a.387.387,0,1,1-.763-.128c.235-1.409.5-2.658.815-3.821A.387.387,0,0,1,853.01,360.692Z" transform="translate(-828.96 -338.386)" fill="#63c0c4"/>
          <path id="Trazado_37957" data-name="Trazado 37957" d="M1024.68,203.229q.678-.081,1.358-.132a.387.387,0,0,1,.059.773q-.663.049-1.325.128c-.818.1-1.645.233-2.456.405a.387.387,0,1,1-.16-.757C1022.99,203.469,1023.839,203.329,1024.68,203.229Z" transform="translate(-975.131 -202.998)" fill="#63c0c4"/>
        </g>
      </g>
    </g>
  </g>
</svg>
