<svg xmlns="http://www.w3.org/2000/svg" width="315.234" height="359.822" viewBox="0 0 315.234 359.822">
  <g id="Grupo_22077" data-name="Grupo 22077" transform="translate(-434.828 -3294.332)">
    <g id="Grupo_18507" data-name="Grupo 18507" transform="translate(-323.214 2920.552)">
      <path id="Trazado_37958" data-name="Trazado 37958" d="M784.648,699.492c18.638,60.185,102.875,91.206,177.159,68.2s158.726-77.545,117.048-212.129c-39.757-128.378-132.761-42.409-180.149,19.249C863.44,620.7,748.312,582.16,784.648,699.492Z" transform="translate(-16.624 -97.698)" fill="#c1dcfc"/>
      <path id="Trazado_37959" data-name="Trazado 37959" d="M758.042,1950.224c.479,1.515,1.056,2.994,1.671,4.454s1.273,2.9,1.972,4.32a94.2,94.2,0,0,0,4.6,8.284c1.652,2.69,3.443,5.29,5.335,7.809s3.885,4.961,5.988,7.3a115.957,115.957,0,0,0,13.682,12.961,122.508,122.508,0,0,0,15.539,10.658c1.349.808,2.733,1.556,4.106,2.323,1.4.725,2.778,1.478,4.2,2.158.708.343,1.405.708,2.123,1.033l2.142.993c.713.334,1.442.633,2.161.951s1.44.637,2.171.931l2.184.9c.729.3,1.468.571,2.2.858,1.465.583,2.956,1.1,4.439,1.632.74.273,1.494.5,2.241.758s1.495.5,2.248.739l2.259.707,1.131.351,1.138.328a233.631,233.631,0,0,0,37.25,7.339,176.814,176.814,0,0,1-37.773-5.44,148.793,148.793,0,0,1-18.224-5.963q-4.454-1.8-8.777-3.9c-1.449-.684-2.862-1.442-4.288-2.173-1.4-.773-2.821-1.523-4.2-2.344-1.39-.8-2.744-1.66-4.1-2.509l-2.013-1.317c-.671-.44-1.324-.906-1.986-1.357-2.629-1.837-5.2-3.757-7.671-5.809s-4.844-4.209-7.13-6.46c-1.141-1.127-2.264-2.271-3.349-3.452s-2.145-2.384-3.177-3.609c-2.06-2.455-4.033-4.984-5.842-7.626s-3.519-5.35-5.063-8.149c-.776-1.4-1.5-2.822-2.2-4.256s-1.362-2.888-1.968-4.364A57.845,57.845,0,0,1,758.042,1950.224Z" transform="translate(0 -1337.015)" fill="#c1dcfc"/>
      <path id="Trazado_37960" data-name="Trazado 37960" d="M2099.512,393.1a67.808,67.808,0,0,1,6.163-5.1c2.146-1.591,4.379-3.069,6.667-4.463a75,75,0,0,1,14.576-6.835c.643-.205,1.284-.421,1.93-.617s1.3-.387,1.952-.556q1.963-.517,3.966-.888a50.567,50.567,0,0,1,8.109-.858,42.783,42.783,0,0,1,8.171.6,40.685,40.685,0,0,1,15.208,5.966,49.718,49.718,0,0,1,6.45,5.023,62.772,62.772,0,0,1,5.543,5.952l1.245,1.6c.205.269.421.529.616.8l.584.827c.385.554.778,1.1,1.156,1.661l1.089,1.7.544.851.511.87,1.019,1.74c.341.579.641,1.18.964,1.769s.635,1.183.937,1.782l.874,1.811c.286.606.594,1.2.854,1.818l.81,1.837c.27.612.545,1.221.783,1.847a125.749,125.749,0,0,1,5.06,15.175c-1.892-4.978-3.887-9.9-6.192-14.672a102.411,102.411,0,0,0-7.81-13.746l-1.122-1.618c-.387-.529-.79-1.047-1.183-1.571l-.588-.787c-.195-.263-.41-.51-.614-.765l-1.239-1.521a60.458,60.458,0,0,0-5.45-5.6,43.665,43.665,0,0,0-13.066-8.2,40.669,40.669,0,0,0-15.127-2.782,48.277,48.277,0,0,0-7.757.647c-1.287.205-2.563.474-3.837.762-.639.139-1.27.313-1.9.467s-1.261.353-1.892.529a75.266,75.266,0,0,0-7.411,2.665q-3.647,1.514-7.154,3.374c-1.172.61-2.33,1.25-3.478,1.909s-2.276,1.353-3.4,2.054-2.231,1.435-3.325,2.188S2100.567,392.293,2099.512,393.1Z" transform="translate(-1137.728)" fill="#c1dcfc"/>
      <ellipse id="shadow" cx="90.444" cy="7.647" rx="90.444" ry="7.647" transform="translate(820.18 718.306)" fill="#dce7f5"/>
      <g id="head" transform="translate(910.623 416.985)">
        <path id="hair" d="M1811.633,763.88c-8.642-3.143-2.619-27.5-3.4-44.519-.728-15.794-5.19-18.549-14.917-24.058q-1.135-.64-2.367-1.343c-3.666-2.1-5.591-5.3-6.638-9.226s-1.482-11.5-7.241-11.2c-8.417.432-12.743-2.516-14.005-3.567a4.993,4.993,0,0,1-.4-.361c.262-6.023,5.72-10.8,13.88-11.261s15.451-.262,21.736,26.188c3.091,13,34.568,9.951,38.234,40.067C1840.57,757.956,1820.275,767.023,1811.633,763.88Z" transform="translate(-1762.662 -658.251)" fill="#28405d"/>
        <g id="head-2" data-name="head" transform="translate(0.398 11.715)">
          <path id="Trazado_37961" data-name="Trazado 37961" d="M1795.786,761.472s-3.072,4.059-7.55,4.059-6.068-2.226-6.068-2.226l-.419-1.113-.856-2.281-3.027-8.05s-.257.052-.739.141c-.636.12-1.639.3-2.946.516-.094.011-.186.026-.27.042l-.958.152c-3.064.471-6.429-11.47-7.607-16.891a3.047,3.047,0,0,1-.063-.437c1.262,1.05,5.589,4,14.005,3.567,5.759-.3,6.194,7.272,7.241,11.2s2.972,7.131,6.638,9.226q1.233.7,2.367,1.344l.079.236C1795.726,761.291,1795.786,761.472,1795.786,761.472Z" transform="translate(-1765.283 -735.384)" fill="#e79e72"/>
          <path id="Trazado_37962" data-name="Trazado 37962" d="M1847.031,825.165l-3.028-8.05s-.257.052-.739.141a13.72,13.72,0,0,0,7.049-4.934C1851.312,821.041,1849.089,823.736,1847.031,825.165Z" transform="translate(-1831.421 -800.637)" fill="#e79e72" style="mix-blend-mode: multiply;isolation: isolate"/>
        </g>
      </g>
      <g id="body" transform="translate(875.083 454.272)">
        <g id="legs" transform="translate(38.495 67.161)">
          <g id="legs-2" data-name="legs" transform="translate(1.13 88.952)">
            <g id="Grupo_18501" data-name="Grupo 18501" transform="translate(0 0.262)">
              <path id="Trazado_37963" data-name="Trazado 37963" d="M1810.319,2619.3c-1.509.432-2.093-4.713-2.093-4.713s-5.368,4.713-10.868,4.713,5.5-9.951,5.5-9.951l7.071.262a.508.508,0,0,1,.019.055C1810.2,2610.411,1812.943,2618.556,1810.319,2619.3Z" transform="translate(-1794.867 -2506.682)" fill="#28405d"/>
              <path id="Trazado_37964" data-name="Trazado 37964" d="M1811.125,1967.917c-1.011,11.622-6.508,68.365-6.508,68.365l-7.07-.262s-5.115-64.477-7.812-97.962c-.042-.529-.084-1.053-.126-1.566-.084-1.048-.037-2.1-.037-3.143h19.845c-.149,1.176-.26,2.234-.325,3.143-.039.566-.06,1.074-.063,1.517v.055C1809.03,1946.967,1812.173,1955.87,1811.125,1967.917Z" transform="translate(-1789.559 -1933.349)" fill="#e79e72"/>
              <path id="Trazado_37965" data-name="Trazado 37965" d="M1789.568,1933.353h19.845c-.149,1.176-.26,2.234-.325,3.142-.039.566-.06,1.073-.063,1.516l-19.3.05c-.042-.529-.084-1.053-.126-1.566C1789.521,1935.448,1789.568,1934.4,1789.568,1933.353Z" transform="translate(-1789.555 -1933.352)" fill="#e79e72" style="mix-blend-mode: multiply;isolation: isolate"/>
            </g>
            <g id="Grupo_18502" data-name="Grupo 18502" transform="translate(34.233)">
              <path id="Trazado_37966" data-name="Trazado 37966" d="M2151.7,2619.3c-1.508.432-2.092-4.713-2.092-4.713s-5.368,4.713-10.868,4.713c-5.138,0,4.119-8.684,5.358-9.826.089-.084.136-.125.136-.125l6.775.251.3.011S2154.448,2618.518,2151.7,2619.3Z" transform="translate(-2118.63 -2506.42)" fill="#28405d"/>
              <path id="Trazado_37967" data-name="Trazado 37967" d="M2047.625,2034.82l-7.071-.262s-6.594-52.2-21.992-92.7c-.063-.162-1.388-3.2-2.3-5.353-.463-1.1-.82-1.964-.843-2.108-.126-.722-.283-1.66-.466-2.771h19.434c-.417,2.025-.676,3.143-.676,3.143s.408.615,1.071,1.689c2.3,3.727,7.67,12.979,9.705,21.113C2047.054,1967.832,2047.614,2032.217,2047.625,2034.82Z" transform="translate(-2014.952 -1931.625)" fill="#e79e72"/>
              <path id="Trazado_37968" data-name="Trazado 37968" d="M2034.777,1936.461l-18.52.047c-.463-1.1-.82-1.964-.843-2.108-.125-.723-.283-1.66-.466-2.771h19.434c-.416,2.024-.676,3.143-.676,3.143S2034.115,1935.387,2034.777,1936.461Z" transform="translate(-2014.948 -1931.628)" fill="#e79e72" style="mix-blend-mode: multiply;isolation: isolate"/>
            </g>
          </g>
          <path id="skirt" d="M1842.519,1390.125a295.516,295.516,0,0,1-5.609,45.043h-54.8l8.438-89.041,35.818-.173S1843.443,1367.488,1842.519,1390.125Z" transform="translate(-1782.112 -1345.954)" fill="#e1b535"/>
        </g>
        <g id="body-2" data-name="body" transform="translate(0 0)">
          <path id="blouse" d="M1681.753,922.671s-18.462,42.029-30.938,43.183c-15.681,1.451-26.188-30.378-26.188-30.378s-5.534,23.642-3.29,32.473c.045.181.095.356.147.524a16.389,16.389,0,0,0,1.133,2.443l-35.818.173c-.134-.917-.3-1.872-.495-2.854-1.6-8.084-8.815-18.407-8.815-26.473,0-3.171.044-5.167.1-6.4-1.736,6.013-6.183,28.367-9.36,35.626-3.666,8.38-19.552,43.579-19.552,43.579l-6.809-1.048s10.648-42.139,13.791-49.995c0,0,8.49-43.1,22.349-52.661a40.545,40.545,0,0,1,14.259-5.869l.419,1.113s1.59,2.226,6.068,2.226,7.55-4.059,7.55-4.059l-.173-.516c10.53.38,20.222,3.794,24.252,10.247,3.776,6.042,15.718,37.3,19.939,34.2,5.892-4.321,23.532-26.869,28.246-26.869Z" transform="translate(-1539.866 -903.756)" fill="#fff"/>
          <g id="hands" transform="translate(0 10.538)">
            <path id="Trazado_37969" data-name="Trazado 37969" d="M2460.425,977.851c-3.928,1.964-15.32,3.664-15.32,3.664l-3.179-1.336a22.517,22.517,0,0,1,6.322-5.863c2.019-1.213,6.285-1.179,6.285-1.179s-3.928,3.535-.393,3.535,8.642-3.535,8.642-3.535S2464.353,975.887,2460.425,977.851Z" transform="translate(-2303.218 -973.137)" fill="#e79e72"/>
            <g id="Grupo_18503" data-name="Grupo 18503" transform="translate(0 99.223)">
              <path id="Trazado_37970" data-name="Trazado 37970" d="M1537.472,1627.482a98.991,98.991,0,0,1-3.085,12.754c-.1.3-.2.584-.307.867-1.1,3-2.388,5.266-3.766,5.127-1.744-.175-1.87-4.093-1.472-8.4.034-.4.076-.793.121-1.191.563-5.049,1.7-10.205,1.7-10.205Z" transform="translate(-1528.656 -1626.435)" fill="#e79e72"/>
              <path id="Trazado_37971" data-name="Trazado 37971" d="M1535.434,1697.224c-.1.3-.2.584-.307.867a36.169,36.169,0,0,0-5.238-3.271c.034-.4.076-.793.121-1.192A31.033,31.033,0,0,1,1535.434,1697.224Z" transform="translate(-1529.703 -1683.423)" fill="#e79e72" style="mix-blend-mode: multiply;isolation: isolate"/>
            </g>
          </g>
        </g>
      </g>
      <path id="dress" d="M1334.566,1877.529h-47.4l11.5-69.969a.1.1,0,0,1,.094-.08h16.418a.328.328,0,0,1,.317.242Z" transform="translate(-448.763 -1215.951)" fill="#67abeb"/>
      <g id="head-3" data-name="head" transform="translate(804.435 559.596)">
        <g id="head-4" data-name="head" transform="translate(45.601 7.351)">
          <path id="Trazado_37972" data-name="Trazado 37972" d="M1380.149,1747.012h-16.406c4.554-1.4,4.8-10.737,4.8-10.737l.094-.092c.052.05.107.1.162.144a8,8,0,0,0,7.272,2.071,16.072,16.072,0,0,0,.851,4.386A10.31,10.31,0,0,0,1380.149,1747.012Z" transform="translate(-1363.743 -1722.43)" fill="#e79e72"/>
          <path id="Trazado_37973" data-name="Trazado 37973" d="M1386.762,1661.435c-.167.06-.338.115-.508.16a7.994,7.994,0,0,1-7.272-2.072c-.055-.047-.11-.094-.162-.144-.071-.063-.141-.128-.209-.194a50.011,50.011,0,0,1-2.757-8.618c-.393-2.881.524-2.881.524-2.881s1.3-2.881,5.1-1.44c5.135,1.948,7.644-.312,7.956-.621a14.108,14.108,0,0,1,1.367,2.776C1392.851,1654.04,1391.044,1659.877,1386.762,1661.435Z" transform="translate(-1373.93 -1645.626)" fill="#e79e72"/>
          <path id="Trazado_37974" data-name="Trazado 37974" d="M1405.125,1743.591c-3.166-.275-6.34-2.729-8.123-6.458a7.993,7.993,0,0,0,7.272,2.071A16.063,16.063,0,0,0,1405.125,1743.591Z" transform="translate(-1391.95 -1723.235)" fill="#e79e72" style="mix-blend-mode: multiply;isolation: isolate"/>
        </g>
        <g id="hair-2" data-name="hair" transform="translate(0 0)">
          <path id="Trazado_37975" data-name="Trazado 37975" d="M1124.633,1604.542c-.343.343-2.852,2.6-7.987.655-3.8-1.44-5.1,1.44-5.1,1.44s-.917,0-.524,2.881a50.026,50.026,0,0,0,2.758,8.618c.073.183.115.285.115.285s-10.213-.524-8.642-13.356a13.012,13.012,0,0,1,.3-1.637c-.608,1.488-2.216,5.594-3.949,11.374-2.226,7.429-5.494,9.359-14.694,8.7-10.053-.718-6.529,11.52-8.422,12.143s-16.8-1.095-14.809-10.384c1.456-6.78,10.328-10.514,20.162-11.755s5.169-7.718,8.878-11.316c6.712-6.515,12.434-.154,13.036.555-.073.218-.139.44-.2.673.162-.4.251-.61.251-.61l-.052-.063c2.394-7.28,11.012-5.69,13.636-4.494C1122.638,1599.734,1124.633,1604.542,1124.633,1604.542Z" transform="translate(-1063.501 -1597.225)" fill="#28405d"/>
          <path id="Trazado_37976" data-name="Trazado 37976" d="M1328.111,1628.991c-.569,1.563-1.691,2.589-2.507,2.292s-1.015-1.8-.447-3.367,1.691-2.59,2.507-2.293S1328.68,1627.428,1328.111,1628.991Z" transform="translate(-1285.142 -1621.267)" fill="#749bed"/>
        </g>
      </g>
      <g id="hands-2" data-name="hands" transform="translate(805.297 575.424)">
        <g id="Grupo_18504" data-name="Grupo 18504" transform="translate(61.438)">
          <path id="Trazado_37977" data-name="Trazado 37977" d="M1479.535,1830.352l-5.638-20.641-.123-.453-.076-.278a58.5,58.5,0,0,1,7.411,7.351A61.819,61.819,0,0,0,1479.535,1830.352Z" transform="translate(-1473.698 -1792.647)" fill="#bc7f70"/>
          <path id="Trazado_37978" data-name="Trazado 37978" d="M1522.443,1708.272c-.393,2.75.547,38.205-5.892,38.231-2.349.01-3.63-1.7-4.2-4.347a17.754,17.754,0,0,1-.359-3.012,61.821,61.821,0,0,1,1.574-14.021c1.323-6.4,3.729-14.518,3.729-14.518a3.143,3.143,0,0,1-.759-.375,5.209,5.209,0,0,1-2.221-3.648,12.463,12.463,0,0,1,.361-5.143s5.67,2.836,7.33,5.374A2.163,2.163,0,0,1,1522.443,1708.272Z" transform="translate(-1506.152 -1701.44)" fill="#e79e72"/>
        </g>
        <path id="Trazado_37979" data-name="Trazado 37979" d="M1113.794,1807.911l-.013.081-.06.364-2.082,12.67c-2.59,3.624-11.02,14.707-17.8,15.364-8.118.786-16.161-12.9-19.313-12.832s-6.35-4.942-5.041-4.976a17.539,17.539,0,0,1,7.071,1.833s9.69,6.547,14.927,7.594,14.945-13.6,16.76-15.975A13.185,13.185,0,0,1,1113.794,1807.911Z" transform="translate(-1069.179 -1791.74)" fill="#e79e72"/>
      </g>
      <g id="legs-3" data-name="legs" transform="translate(841.727 661.579)">
        <g id="Grupo_18505" data-name="Grupo 18505" transform="translate(0)">
          <path id="Trazado_37980" data-name="Trazado 37980" d="M1316.115,2653.934v3.025h-7.081a3.486,3.486,0,0,1,3.012-3.011A10.806,10.806,0,0,1,1316.115,2653.934Z" transform="translate(-1309.034 -2595.285)" fill="#28405d"/>
          <path id="Trazado_37981" data-name="Trazado 37981" d="M1331.348,2268.7l-.592,3.928-7.8,54.734-3.415-.013s-2.182-25.572-2.431-36.238c-.141-5.961,1.223-13.23,2.456-18.483.351-1.5.691-2.834.982-3.928Z" transform="translate(-1315.874 -2268.7)" fill="#e79e72"/>
          <path id="Trazado_37982" data-name="Trazado 37982" d="M1334.321,2268.7h10.8l-.592,3.928h-11.19C1333.69,2271.13,1334.03,2269.794,1334.321,2268.7Z" transform="translate(-1329.647 -2268.7)" fill="#e79e72" style="mix-blend-mode: multiply;isolation: isolate"/>
        </g>
        <g id="Grupo_18506" data-name="Grupo 18506" transform="translate(22.699)">
          <path id="Trazado_37983" data-name="Trazado 37983" d="M1513.743,2653.934v3.025h7.081a3.486,3.486,0,0,0-3.012-3.011A10.807,10.807,0,0,0,1513.743,2653.934Z" transform="translate(-1505.351 -2595.285)" fill="#28405d"/>
          <path id="Trazado_37984" data-name="Trazado 37984" d="M1458.487,2268.7l.592,3.928,7.8,54.734,3.415-.013s2.182-25.572,2.431-36.238c.141-5.961-1.223-13.23-2.456-18.483-.351-1.5-.691-2.834-.982-3.928Z" transform="translate(-1458.487 -2268.7)" fill="#e79e72"/>
          <path id="Trazado_37985" data-name="Trazado 37985" d="M1469.287,2268.7h-10.8l.592,3.928h11.19C1469.918,2271.13,1469.578,2269.794,1469.287,2268.7Z" transform="translate(-1458.487 -2268.7)" fill="#e79e72" style="mix-blend-mode: multiply;isolation: isolate"/>
        </g>
      </g>
    </g>
  </g>
</svg>
