<svg xmlns="http://www.w3.org/2000/svg" xmlns:xlink="http://www.w3.org/1999/xlink" width="540" height="324" viewBox="0 0 540 324">
  <defs>
    <clipPath id="clip-path">
      <rect id="Rect치ngulo_3584" data-name="Rect치ngulo 3584" width="540" height="324" transform="translate(0 -0.177)" fill="none"/>
    </clipPath>
    <clipPath id="clip-path-2">
      <path id="Trazado_38240" data-name="Trazado 38240" d="M1440.47,245.5c34.1-4.234,73.159-30.818,114.495-29.718,41.882,1.115,56.872,53.324,126.824,51.891s124.561-56.108,122.923-119.884c-1.814-70.595-95.1-131.758-194.489-52.265-111.342,89.052-134.946-29.471-220.724,17.737C1323.694,149.474,1367.97,254.5,1440.47,245.5Z" transform="translate(-1357.335 -58.053)" fill="#e9f1fb"/>
    </clipPath>
  </defs>
  <g id="Grupo_22078" data-name="Grupo 22078" transform="translate(-431 -4199)">
    <g id="Grupo_21594" data-name="Grupo 21594" transform="translate(-534.159 4198.347)">
      <g id="Grupo_21593" data-name="Grupo 21593" transform="translate(965.159 0.83)" clip-path="url(#clip-path)">
        <g id="Grupo_21592" data-name="Grupo 21592" transform="translate(50.318 5.589)">
          <g id="Grupo_18699" data-name="Grupo 18699" transform="translate(57.548 218.128)">
            <g id="Grupo_18696" data-name="Grupo 18696">
              <path id="Trazado_38084" data-name="Trazado 38084" d="M1787.235,1698.937a3.545,3.545,0,1,1-2.6-4.281A3.543,3.543,0,0,1,1787.235,1698.937Z" transform="translate(-1780.245 -1694.553)" fill="#ccddf5"/>
            </g>
            <g id="Grupo_18698" data-name="Grupo 18698" transform="translate(3.354 2.909)">
              <g id="Grupo_18697" data-name="Grupo 18697">
                <path id="Trazado_38085" data-name="Trazado 38085" d="M1836.08,1781.913a7.724,7.724,0,0,1,1.372.021c-1.861-34.847-21.747-62.461-31.478-65.4l-.382,1.273c5.742,1.736,15.808,13.524,22.724,30.251A105.525,105.525,0,0,1,1836.08,1781.913Z" transform="translate(-1805.592 -1716.537)" fill="#ccddf5"/>
              </g>
            </g>
          </g>
          <g id="Grupo_18703" data-name="Grupo 18703" transform="translate(298.71 231.896)">
            <g id="Grupo_18700" data-name="Grupo 18700" transform="translate(28.122)">
              <path id="Trazado_38086" data-name="Trazado 38086" d="M3815.2,1802.969a3.545,3.545,0,1,0,2.6-4.281A3.544,3.544,0,0,0,3815.2,1802.969Z" transform="translate(-3815.097 -1798.584)" fill="#ccddf5"/>
            </g>
            <g id="Grupo_18702" data-name="Grupo 18702" transform="translate(0 2.909)">
              <g id="Grupo_18701" data-name="Grupo 18701">
                <path id="Trazado_38087" data-name="Trazado 38087" d="M3603.965,1885.945a7.742,7.742,0,0,0-1.373.021c1.861-34.847,21.748-62.461,31.479-65.4l.382,1.273c-5.743,1.736-15.809,13.524-22.725,30.251A105.555,105.555,0,0,0,3603.965,1885.945Z" transform="translate(-3602.592 -1820.569)" fill="#ccddf5"/>
              </g>
            </g>
          </g>
          <g id="Grupo_18707" data-name="Grupo 18707" transform="translate(72.781 209.854)">
            <g id="Grupo_18704" data-name="Grupo 18704">
              <path id="Trazado_38088" data-name="Trazado 38088" d="M1902.133,1637.036a3.545,3.545,0,1,1-1.762-4.688A3.545,3.545,0,0,1,1902.133,1637.036Z" transform="translate(-1895.358 -1632.029)" fill="#ccddf5"/>
            </g>
            <g id="Grupo_18706" data-name="Grupo 18706" transform="translate(3.239 2.955)">
              <g id="Grupo_18705" data-name="Grupo 18705">
                <path id="Trazado_38089" data-name="Trazado 38089" d="M1937.952,1724.175a7.74,7.74,0,0,1,1.345.275c4.611-34.591-9.829-65.4-18.849-70.088l-.611,1.18c5.323,2.768,13.038,16.214,16.743,33.93A105.554,105.554,0,0,1,1937.952,1724.175Z" transform="translate(-1919.836 -1654.361)" fill="#ccddf5"/>
              </g>
            </g>
          </g>
          <g id="Grupo_18718" data-name="Grupo 18718" transform="translate(43.973 231.844)">
            <g id="Grupo_18710" data-name="Grupo 18710">
              <g id="Grupo_18709" data-name="Grupo 18709">
                <g id="Grupo_18708" data-name="Grupo 18708">
                  <path id="Trazado_38090" data-name="Trazado 38090" d="M1711.055,1860.379c-2.726,6.26-2.5,12.474.268,17.161h34.749a17.665,17.665,0,0,0,4.414-9.52c.78-5.908-.39-12.84-4.595-17.306-4.265-4.524-9.989-4.331-15.521-5.921-6.327-1.814-4.885-9.536-5.51-14.633-.728-6.054-3.189-11.734-9.193-14.1-5.35-2.107-11.653-1.5-15.9-5.918-3.456-3.593-5.738-8.3-10.3-10.771-3.144-1.7-7.228-1.6-9.665.59a5.348,5.348,0,0,0-1.221,1.526,6.4,6.4,0,0,0-.831,2.508c-.682,4.987,2.987,9.417,6.8,12.228.193.13.384.266.578.4.248.186.322.23.272.192.03.006.039.024.064.029,2.487,1.654,5.453,1.977,7.918,3.445,1.9,1.129-.073,5.36-.473,6.8-1.341,4.824-3.511,11.677.3,15.978C1699.772,1850.43,1717.414,1845.7,1711.055,1860.379Z" transform="translate(-1677.668 -1798.194)" fill="#ccddf5"/>
                </g>
              </g>
            </g>
            <g id="Grupo_18713" data-name="Grupo 18713" transform="translate(1.49 35.369)">
              <g id="Grupo_18712" data-name="Grupo 18712">
                <g id="Grupo_18711" data-name="Grupo 18711">
                  <path id="Trazado_38091" data-name="Trazado 38091" d="M1714.313,2095.013a22.725,22.725,0,0,1,.554,6.694,19.9,19.9,0,0,0,.92,7.728h2.086c-1.155-2.356-1.125-4.883-1.081-7.694a24.287,24.287,0,0,0-.624-7.26c-1.476-5.173-6.347-6.115-10.641-6.944-2.623-.511-5.1-.988-6.874-2.271-3.986-2.889-9.145-12.371-7.509-17.73.028-.075.045-.124.048-.14.687-.019,2.827,1.331,9.52,10.058.625.819,1.083,1.409,1.277,1.62,3.445,3.744,7.514,4.315,11.453,4.864a26.252,26.252,0,0,1,7.094,1.678c5.257,2.288,8.314,7.655,11.271,12.848.732,1.288,1.451,2.549,2.186,3.736.324.521.751,1.149,1.23,1.859a54.912,54.912,0,0,1,3.327,5.377h2.145a48.487,48.487,0,0,0-3.872-6.459c-.465-.685-.88-1.294-1.19-1.8-.724-1.168-1.431-2.41-2.148-3.672-2.968-5.209-6.331-11.119-12.177-13.661a28.037,28.037,0,0,0-7.6-1.823c-3.762-.52-7.318-1.017-10.3-4.252-.179-.2-.591-.737-1.164-1.49-6.9-9-10.048-11.76-12.042-10.556a2.113,2.113,0,0,0-.9,1.248c-1.882,6.17,3.71,16.583,8.224,19.852,2.117,1.536,4.92,2.078,7.634,2.6C1709.275,2090.224,1713.161,2090.975,1714.313,2095.013Z" transform="translate(-1688.927 -2065.458)" fill="#ccddf5"/>
                </g>
              </g>
            </g>
            <g id="Grupo_18717" data-name="Grupo 18717" transform="translate(0.914 1.768)">
              <g id="Grupo_18716" data-name="Grupo 18716">
                <g id="Grupo_18715" data-name="Grupo 18715">
                  <g id="Grupo_18714" data-name="Grupo 18714">
                    <path id="Trazado_38092" data-name="Trazado 38092" d="M1739.812,1889.131h1.95c-2.407-26.857-35.061-62.742-53.48-75.879-.871-.625-1.7-1.181-2.487-1.7a5.348,5.348,0,0,0-1.221,1.526c.79.491,1.642,1.078,2.589,1.75C1705.285,1827.748,1737.391,1862.932,1739.812,1889.131Z" transform="translate(-1684.574 -1811.554)" fill="#fff"/>
                  </g>
                </g>
              </g>
            </g>
          </g>
          <g id="Grupo_18729" data-name="Grupo 18729" transform="translate(301.377 231.844)">
            <g id="Grupo_18721" data-name="Grupo 18721">
              <g id="Grupo_18720" data-name="Grupo 18720">
                <g id="Grupo_18719" data-name="Grupo 18719">
                  <path id="Trazado_38093" data-name="Trazado 38093" d="M3662.4,1860.379c2.727,6.26,2.5,12.474-.268,17.161h-34.749a17.663,17.663,0,0,1-4.413-9.52c-.78-5.908.39-12.84,4.594-17.306,4.266-4.524,9.989-4.331,15.522-5.921,6.327-1.814,4.884-9.536,5.508-14.633.728-6.054,3.189-11.734,9.193-14.1,5.35-2.107,11.654-1.5,15.9-5.918,3.457-3.593,5.738-8.3,10.3-10.771,3.144-1.7,7.228-1.6,9.664.59a5.36,5.36,0,0,1,1.221,1.526,6.425,6.425,0,0,1,.831,2.508c.683,4.987-2.987,9.417-6.8,12.228-.193.13-.384.266-.579.4-.248.186-.321.23-.271.192-.03.006-.039.024-.063.029-2.489,1.654-5.454,1.977-7.919,3.445-1.9,1.129.073,5.36.473,6.8,1.341,4.824,3.512,11.677-.3,15.978C3673.684,1850.43,3656.041,1845.7,3662.4,1860.379Z" transform="translate(-3622.745 -1798.194)" fill="#ccddf5"/>
                </g>
              </g>
            </g>
            <g id="Grupo_18724" data-name="Grupo 18724" transform="translate(19.784 35.369)">
              <g id="Grupo_18723" data-name="Grupo 18723">
                <g id="Grupo_18722" data-name="Grupo 18722">
                  <path id="Trazado_38094" data-name="Trazado 38094" d="M3798.624,2095.013a22.718,22.718,0,0,0-.554,6.694,19.9,19.9,0,0,1-.919,7.728h-2.086c1.155-2.356,1.124-4.883,1.08-7.694a24.314,24.314,0,0,1,.624-7.26c1.476-5.173,6.348-6.115,10.641-6.944,2.623-.511,5.1-.988,6.874-2.271,3.987-2.889,9.145-12.371,7.509-17.73-.026-.075-.045-.124-.048-.14-.687-.019-2.828,1.331-9.52,10.058-.625.819-1.082,1.409-1.277,1.62-3.445,3.744-7.514,4.315-11.453,4.864a26.247,26.247,0,0,0-7.094,1.678c-5.257,2.288-8.315,7.655-11.271,12.848-.731,1.288-1.452,2.549-2.186,3.736-.324.521-.751,1.149-1.23,1.859a55.216,55.216,0,0,0-3.328,5.377h-2.145a48.437,48.437,0,0,1,3.873-6.459c.466-.685.88-1.294,1.19-1.8.723-1.168,1.431-2.41,2.147-3.672,2.968-5.209,6.331-11.119,12.177-13.661a28.03,28.03,0,0,1,7.6-1.823c3.762-.52,7.318-1.017,10.3-4.252.179-.2.592-.737,1.164-1.49,6.9-9,10.047-11.76,12.041-10.556a2.11,2.11,0,0,1,.9,1.248c1.882,6.17-3.71,16.583-8.224,19.852-2.118,1.536-4.92,2.078-7.634,2.6C3803.662,2090.224,3799.774,2090.975,3798.624,2095.013Z" transform="translate(-3772.24 -2065.458)" fill="#ccddf5"/>
                </g>
              </g>
            </g>
            <g id="Grupo_18728" data-name="Grupo 18728" transform="translate(14.94 1.768)">
              <g id="Grupo_18727" data-name="Grupo 18727">
                <g id="Grupo_18726" data-name="Grupo 18726">
                  <g id="Grupo_18725" data-name="Grupo 18725">
                    <path id="Trazado_38095" data-name="Trazado 38095" d="M3737.592,1889.131h-1.95c2.407-26.857,35.061-62.742,53.48-75.879.872-.625,1.7-1.181,2.487-1.7a5.37,5.37,0,0,1,1.222,1.526c-.79.491-1.643,1.078-2.589,1.75C3772.119,1827.748,3740.014,1862.932,3737.592,1889.131Z" transform="translate(-3735.642 -1811.554)" fill="#fff"/>
                  </g>
                </g>
              </g>
            </g>
          </g>
          <g id="Grupo_21255" data-name="Grupo 21255" transform="translate(1.581 1.56)">
            <path id="Trazado_38096" data-name="Trazado 38096" d="M1440.47,245.5c34.1-4.234,73.159-30.818,114.495-29.718,41.882,1.115,56.872,53.324,126.824,51.891s124.561-56.108,122.923-119.884c-1.814-70.595-95.1-131.758-194.489-52.265-111.342,89.052-134.946-29.471-220.724,17.737C1323.694,149.474,1367.97,254.5,1440.47,245.5Z" transform="translate(-1357.335 -58.053)" fill="#e9f1fb"/>
            <g id="Grupo_21254" data-name="Grupo 21254" clip-path="url(#clip-path-2)">
              <g id="Grupo_21221" data-name="Grupo 21221" transform="translate(243.718 38.907)">
                <g id="Grupo_21145" data-name="Grupo 21145" transform="translate(18.145 7.267)">
                  <g id="Grupo_21144" data-name="Grupo 21144">
                    <path id="Trazado_38186" data-name="Trazado 38186" d="M3353.585,427.792l-17.476,21.365V406.964h17.476Z" transform="translate(-3336.11 -406.964)" fill="#fff"/>
                  </g>
                </g>
                <g id="Grupo_21148" data-name="Grupo 21148" transform="translate(121.302 72.76)">
                  <g id="Grupo_21146" data-name="Grupo 21146" transform="translate(1.339 1.339)">
                    <rect id="Rect치ngulo_3583" data-name="Rect치ngulo 3583" width="158.967" height="96.337" fill="#fff"/>
                  </g>
                  <g id="Grupo_21147" data-name="Grupo 21147">
                    <path id="Trazado_38187" data-name="Trazado 38187" d="M4275.917,1000.88H4116.95a1.338,1.338,0,0,1-1.339-1.341V903.2a1.337,1.337,0,0,1,1.339-1.339h158.967a1.344,1.344,0,0,1,1.345,1.339v96.336A1.345,1.345,0,0,1,4275.917,1000.88ZM4118.295,998.2h156.279v-93.65H4118.295Z" transform="translate(-4115.611 -901.863)" fill="#aac6ef"/>
                  </g>
                </g>
                <g id="Grupo_21150" data-name="Grupo 21150" transform="translate(67.213 1.091)">
                  <g id="Grupo_21149" data-name="Grupo 21149">
                    <path id="Trazado_38188" data-name="Trazado 38188" d="M3921.283,428.243h-157.86l-56.535-67.95h157.858Z" transform="translate(-3706.888 -360.294)" fill="#fff"/>
                  </g>
                </g>
                <g id="Grupo_21153" data-name="Grupo 21153" transform="translate(3.847 5.95)">
                  <g id="Grupo_21151" data-name="Grupo 21151" transform="translate(1.342 1.317)">
                    <path id="Trazado_38189" data-name="Trazado 38189" d="M3351.809,473.8l-.591-.7a3.977,3.977,0,0,0-1.456-1.711l-54.751-64.425-54.751,64.425a3.9,3.9,0,0,0-1.458,1.711l-.6.7h.37a3.906,3.906,0,0,0-.105.868V566.22a3.917,3.917,0,0,0,3.916,3.913h105.247a3.916,3.916,0,0,0,3.913-3.913V474.664a4.07,4.07,0,0,0-.1-.868Z" transform="translate(-3238.206 -406.964)" fill="#fff"/>
                  </g>
                  <g id="Grupo_21152" data-name="Grupo 21152">
                    <path id="Trazado_38190" data-name="Trazado 38190" d="M3338.832,562.842H3233.585a5.263,5.263,0,0,1-5.257-5.254V465.967a1.864,1.864,0,0,1-.141-.236,1.333,1.333,0,0,1,.2-1.434l.473-.56a5.284,5.284,0,0,1,1.69-1.99l54.636-64.282a1.385,1.385,0,0,1,2.043,0l54.636,64.282a5.274,5.274,0,0,1,1.691,1.99l.474.56a1.343,1.343,0,0,1,.194,1.434,1.308,1.308,0,0,1-.139.236v91.621A5.259,5.259,0,0,1,3338.832,562.842Zm-107.717-97.63a1.431,1.431,0,0,1-.031.247,2.6,2.6,0,0,0-.07.574v91.556a2.572,2.572,0,0,0,2.571,2.57h105.247a2.574,2.574,0,0,0,2.57-2.57V466.032a2.81,2.81,0,0,0-.071-.574,1.085,1.085,0,0,1-.029-.247.853.853,0,0,1-.116-.2,2.587,2.587,0,0,0-.962-1.126,1.489,1.489,0,0,1-.289-.257l-53.726-63.219-53.732,63.219a1.318,1.318,0,0,1-.291.257,2.594,2.594,0,0,0-.958,1.126A.978.978,0,0,1,3231.115,465.211Z" transform="translate(-3228.063 -397.015)" fill="#aac6ef"/>
                  </g>
                </g>
                <g id="Grupo_21160" data-name="Grupo 21160" transform="translate(48.121 30.393)">
                  <g id="Grupo_21155" data-name="Grupo 21155">
                    <g id="Grupo_21154" data-name="Grupo 21154">
                      <path id="Trazado_38191" data-name="Trazado 38191" d="M3576.494,609.463a13.873,13.873,0,1,1,13.869-13.871A13.888,13.888,0,0,1,3576.494,609.463Zm0-25.058a11.185,11.185,0,1,0,11.187,11.187A11.2,11.2,0,0,0,3576.494,584.4Z" transform="translate(-3562.621 -581.718)" fill="#aac6ef"/>
                    </g>
                  </g>
                  <g id="Grupo_21157" data-name="Grupo 21157" transform="translate(12.526)">
                    <g id="Grupo_21156" data-name="Grupo 21156">
                      <path id="Trazado_38192" data-name="Trazado 38192" d="M3658.624,609.463a1.348,1.348,0,0,1-1.346-1.345V583.061a1.342,1.342,0,1,1,2.685,0v25.056A1.343,1.343,0,0,1,3658.624,609.463Z" transform="translate(-3657.277 -581.718)" fill="#aac6ef"/>
                    </g>
                  </g>
                  <g id="Grupo_21159" data-name="Grupo 21159" transform="translate(0 12.531)">
                    <g id="Grupo_21158" data-name="Grupo 21158">
                      <path id="Trazado_38193" data-name="Trazado 38193" d="M3589.019,679.091h-25.06a1.342,1.342,0,0,1,0-2.684h25.06a1.342,1.342,0,1,1,0,2.684Z" transform="translate(-3562.621 -676.407)" fill="#aac6ef"/>
                    </g>
                  </g>
                </g>
                <g id="Grupo_21162" data-name="Grupo 21162" transform="translate(0 0.001)">
                  <g id="Grupo_21161" data-name="Grupo 21161">
                    <path id="Trazado_38194" data-name="Trazado 38194" d="M3200.334,422.447a1.325,1.325,0,0,1-.858-.313,1.347,1.347,0,0,1-.171-1.892l56.536-67.7a1.343,1.343,0,0,1,2.063,1.721l-56.539,67.7A1.337,1.337,0,0,1,3200.334,422.447Z" transform="translate(-3198.995 -352.063)" fill="#aac6ef"/>
                  </g>
                </g>
                <g id="Grupo_21164" data-name="Grupo 21164" transform="translate(64.763)">
                  <g id="Grupo_21163" data-name="Grupo 21163">
                    <path id="Trazado_38195" data-name="Trazado 38195" d="M3746.26,422.437a1.344,1.344,0,0,1-1.034-.483l-56.537-67.7a1.342,1.342,0,0,1,2.06-1.721l56.538,67.7a1.344,1.344,0,0,1-.173,1.892A1.316,1.316,0,0,1,3746.26,422.437Z" transform="translate(-3688.378 -352.051)" fill="#aac6ef"/>
                  </g>
                </g>
                <g id="Grupo_21166" data-name="Grupo 21166" transform="translate(223.73)">
                  <g id="Grupo_21165" data-name="Grupo 21165">
                    <path id="Trazado_38196" data-name="Trazado 38196" d="M4947.487,422.437a1.34,1.34,0,0,1-1.03-.483l-56.535-67.7a1.341,1.341,0,1,1,2.057-1.721l56.541,67.7a1.351,1.351,0,0,1-.17,1.892A1.337,1.337,0,0,1,4947.487,422.437Z" transform="translate(-4889.609 -352.051)" fill="#aac6ef"/>
                  </g>
                </g>
                <g id="Grupo_21168" data-name="Grupo 21168" transform="translate(236.257 67.698)">
                  <g id="Grupo_21167" data-name="Grupo 21167">
                    <path id="Trazado_38197" data-name="Trazado 38197" d="M5005.3,866.3h-19.685a1.344,1.344,0,0,1,0-2.688H5005.3a1.344,1.344,0,1,1,0,2.688Z" transform="translate(-4984.271 -863.611)" fill="#aac6ef"/>
                  </g>
                </g>
                <g id="Grupo_21170" data-name="Grupo 21170" transform="translate(266.962 67.698)">
                  <g id="Grupo_21169" data-name="Grupo 21169">
                    <path id="Trazado_38198" data-name="Trazado 38198" d="M5230.942,866.3h-13.307a1.344,1.344,0,0,1,0-2.688h13.307a1.344,1.344,0,1,1,0,2.688Z" transform="translate(-5216.296 -863.611)" fill="#aac6ef"/>
                  </g>
                </g>
                <g id="Grupo_21189" data-name="Grupo 21189" transform="translate(64.763 0.003)">
                  <g id="Grupo_21172" data-name="Grupo 21172" transform="translate(56.539 67.695)">
                    <g id="Grupo_21171" data-name="Grupo 21171" transform="translate(0 0)">
                      <path id="Trazado_38199" data-name="Trazado 38199" d="M4219.38,866.3H4116.95a1.344,1.344,0,0,1,0-2.688H4219.38a1.344,1.344,0,0,1,0,2.688Z" transform="translate(-4115.611 -863.611)" fill="#aac6ef"/>
                    </g>
                  </g>
                  <g id="Grupo_21174" data-name="Grupo 21174" transform="translate(49.473 59.235)">
                    <g id="Grupo_21173" data-name="Grupo 21173">
                      <path id="Trazado_38200" data-name="Trazado 38200" d="M4221.6,802.366H4063.558a1.342,1.342,0,0,1,0-2.683H4221.6a1.342,1.342,0,1,1,0,2.683Z" transform="translate(-4062.219 -799.683)" fill="#aac6ef"/>
                    </g>
                  </g>
                  <g id="Grupo_21176" data-name="Grupo 21176" transform="translate(42.402 50.77)">
                    <g id="Grupo_21175" data-name="Grupo 21175">
                      <path id="Trazado_38201" data-name="Trazado 38201" d="M4169.1,738.407H4010.132a1.344,1.344,0,1,1,0-2.688H4169.1a1.344,1.344,0,0,1,0,2.688Z" transform="translate(-4008.787 -735.719)" fill="#aac6ef"/>
                    </g>
                  </g>
                  <g id="Grupo_21178" data-name="Grupo 21178" transform="translate(35.334 42.311)">
                    <g id="Grupo_21177" data-name="Grupo 21177">
                      <path id="Trazado_38202" data-name="Trazado 38202" d="M4115.688,674.479H3956.721a1.342,1.342,0,0,1,0-2.683h158.967a1.342,1.342,0,1,1,0,2.683Z" transform="translate(-3955.379 -671.795)" fill="#aac6ef"/>
                    </g>
                  </g>
                  <g id="Grupo_21180" data-name="Grupo 21180" transform="translate(28.267 33.847)">
                    <g id="Grupo_21179" data-name="Grupo 21179">
                      <path id="Trazado_38203" data-name="Trazado 38203" d="M4062.289,610.519H3903.322a1.342,1.342,0,1,1,0-2.684h158.967a1.342,1.342,0,0,1,0,2.684Z" transform="translate(-3901.979 -607.835)" fill="#aac6ef"/>
                    </g>
                  </g>
                  <g id="Grupo_21182" data-name="Grupo 21182" transform="translate(21.2 25.384)">
                    <g id="Grupo_21181" data-name="Grupo 21181">
                      <path id="Trazado_38204" data-name="Trazado 38204" d="M4008.887,546.57H3849.921a1.343,1.343,0,0,1,0-2.687h158.966a1.343,1.343,0,0,1,0,2.687Z" transform="translate(-3848.578 -543.883)" fill="#aac6ef"/>
                    </g>
                  </g>
                  <g id="Grupo_21184" data-name="Grupo 21184" transform="translate(14.135 16.924)">
                    <g id="Grupo_21183" data-name="Grupo 21183">
                      <path id="Trazado_38205" data-name="Trazado 38205" d="M3955.494,482.639H3796.524a1.342,1.342,0,0,1,0-2.683h158.969a1.342,1.342,0,1,1,0,2.683Z" transform="translate(-3795.186 -479.956)" fill="#aac6ef"/>
                    </g>
                  </g>
                  <g id="Grupo_21186" data-name="Grupo 21186" transform="translate(7.067 8.459)">
                    <g id="Grupo_21185" data-name="Grupo 21185">
                      <path id="Trazado_38206" data-name="Trazado 38206" d="M3902.084,418.683H3743.121a1.343,1.343,0,0,1,0-2.687h158.963a1.343,1.343,0,1,1,0,2.687Z" transform="translate(-3741.779 -415.996)" fill="#aac6ef"/>
                    </g>
                  </g>
                  <g id="Grupo_21188" data-name="Grupo 21188">
                    <g id="Grupo_21187" data-name="Grupo 21187">
                      <path id="Trazado_38207" data-name="Trazado 38207" d="M3848.685,354.754H3689.72a1.341,1.341,0,1,1,0-2.682h158.965a1.341,1.341,0,1,1,0,2.682Z" transform="translate(-3688.377 -352.072)" fill="#aac6ef"/>
                    </g>
                  </g>
                </g>
                <g id="Grupo_21191" data-name="Grupo 21191" transform="translate(40.545 87.508)">
                  <g id="Grupo_21190" data-name="Grupo 21190">
                    <path id="Trazado_38208" data-name="Trazado 38208" d="M3546.712,1084.15h-39.785a1.344,1.344,0,0,1-1.319-1.09,14.325,14.325,0,0,1-.234-2.642V1028.07a14.779,14.779,0,0,1,14.763-14.763h13.371a14.783,14.783,0,0,1,14.763,14.763v52.348a13.884,13.884,0,0,1-.242,2.642A1.332,1.332,0,0,1,3546.712,1084.15Zm-38.611-2.686h37.44c.029-.338.045-.689.045-1.046V1028.07a12.093,12.093,0,0,0-12.078-12.08h-13.371a12.092,12.092,0,0,0-12.079,12.08v52.348C3508.058,1080.78,3508.072,1081.126,3508.1,1081.464Z" transform="translate(-3505.374 -1013.307)" fill="#aac6ef"/>
                  </g>
                </g>
                <g id="Grupo_21193" data-name="Grupo 21193" transform="translate(40.545 161.713)">
                  <g id="Grupo_21192" data-name="Grupo 21192">
                    <path id="Trazado_38209" data-name="Trazado 38209" d="M3546.925,1576.718h-40.212a1.342,1.342,0,0,1,0-2.684h40.212a1.342,1.342,0,1,1,0,2.684Z" transform="translate(-3505.374 -1574.034)" fill="#aac6ef"/>
                  </g>
                </g>
                <g id="Grupo_21195" data-name="Grupo 21195" transform="translate(40.545 100.914)">
                  <g id="Grupo_21194" data-name="Grupo 21194">
                    <path id="Trazado_38210" data-name="Trazado 38210" d="M3546.925,1117.29h-40.212a1.342,1.342,0,0,1,0-2.683h40.212a1.342,1.342,0,1,1,0,2.683Z" transform="translate(-3505.374 -1114.607)" fill="#aac6ef"/>
                  </g>
                </g>
                <g id="Grupo_21198" data-name="Grupo 21198" transform="translate(10.538 0.003)">
                  <g id="Grupo_21196" data-name="Grupo 21196" transform="translate(1.343 1.339)">
                    <path id="Trazado_38211" data-name="Trazado 38211" d="M3318.777,365.144a2.949,2.949,0,0,1-2.949,2.953h-24.1a2.953,2.953,0,0,1-2.954-2.953h0a2.953,2.953,0,0,1,2.954-2.952h24.1a2.949,2.949,0,0,1,2.949,2.952Z" transform="translate(-3288.774 -362.192)" fill="#fff"/>
                  </g>
                  <g id="Grupo_21197" data-name="Grupo 21197">
                    <path id="Trazado_38212" data-name="Trazado 38212" d="M3307.022,360.655h-24.1a4.291,4.291,0,1,1,0-8.583h24.1a4.291,4.291,0,1,1,0,8.583Zm-24.1-5.9a1.609,1.609,0,1,0,0,3.218h24.1a1.609,1.609,0,1,0,0-3.218Z" transform="translate(-3278.625 -352.072)" fill="#aac6ef"/>
                  </g>
                </g>
                <g id="Grupo_21200" data-name="Grupo 21200" transform="translate(16.804 5.928)">
                  <g id="Grupo_21199" data-name="Grupo 21199">
                    <path id="Trazado_38213" data-name="Trazado 38213" d="M3327.318,441.179a1.338,1.338,0,0,1-1.341-1.338V398.186a1.342,1.342,0,0,1,2.684,0v41.656A1.342,1.342,0,0,1,3327.318,441.179Z" transform="translate(-3325.977 -396.847)" fill="#aac6ef"/>
                  </g>
                </g>
                <g id="Grupo_21202" data-name="Grupo 21202" transform="translate(34.278 5.928)">
                  <g id="Grupo_21201" data-name="Grupo 21201">
                    <path id="Trazado_38214" data-name="Trazado 38214" d="M3459.357,420.358a1.343,1.343,0,0,1-1.343-1.345V398.186a1.343,1.343,0,0,1,2.686,0v20.828A1.343,1.343,0,0,1,3459.357,420.358Z" transform="translate(-3458.014 -396.847)" fill="#aac6ef"/>
                  </g>
                </g>
                <g id="Grupo_21204" data-name="Grupo 21204" transform="translate(3.849 72.76)">
                  <g id="Grupo_21203" data-name="Grupo 21203">
                    <path id="Trazado_38215" data-name="Trazado 38215" d="M3309.487,904.546h-80.066a1.342,1.342,0,0,1,0-2.683h80.066a1.342,1.342,0,1,1,0,2.683Z" transform="translate(-3228.081 -901.863)" fill="#aac6ef"/>
                  </g>
                </g>
                <g id="Grupo_21206" data-name="Grupo 21206" transform="translate(93.03 72.76)">
                  <g id="Grupo_21205" data-name="Grupo 21205">
                    <path id="Trazado_38216" data-name="Trazado 38216" d="M3914.339,904.546h-11.017a1.342,1.342,0,1,1,0-2.683h11.017a1.342,1.342,0,1,1,0,2.683Z" transform="translate(-3901.979 -901.863)" fill="#aac6ef"/>
                  </g>
                </g>
                <g id="Grupo_21213" data-name="Grupo 21213" transform="translate(143.243 92.876)">
                  <g id="Grupo_21208" data-name="Grupo 21208">
                    <g id="Grupo_21207" data-name="Grupo 21207">
                      <path id="Trazado_38217" data-name="Trazado 38217" d="M4314.151,1086.473h-26.458a6.289,6.289,0,0,1-6.281-6.282v-20.043a6.288,6.288,0,0,1,6.281-6.281h26.458a6.288,6.288,0,0,1,6.282,6.281v20.043A6.289,6.289,0,0,1,4314.151,1086.473Zm-26.458-29.92a3.6,3.6,0,0,0-3.6,3.594v20.043a3.6,3.6,0,0,0,3.6,3.6h26.458a3.6,3.6,0,0,0,3.6-3.6v-20.043a3.6,3.6,0,0,0-3.6-3.594Z" transform="translate(-4281.413 -1053.866)" fill="#aac6ef"/>
                    </g>
                  </g>
                  <g id="Grupo_21210" data-name="Grupo 21210" transform="translate(0 14.833)">
                    <g id="Grupo_21209" data-name="Grupo 21209">
                      <path id="Trazado_38218" data-name="Trazado 38218" d="M4319.094,1168.631h-36.342a1.342,1.342,0,0,1,0-2.683h36.342a1.342,1.342,0,0,1,0,2.683Z" transform="translate(-4281.413 -1165.948)" fill="#aac6ef"/>
                    </g>
                  </g>
                  <g id="Grupo_21212" data-name="Grupo 21212" transform="translate(18.168)">
                    <g id="Grupo_21211" data-name="Grupo 21211">
                      <path id="Trazado_38219" data-name="Trazado 38219" d="M4420.04,1086.473a1.346,1.346,0,0,1-1.341-1.345v-29.919a1.342,1.342,0,1,1,2.685,0v29.919A1.345,1.345,0,0,1,4420.04,1086.473Z" transform="translate(-4418.699 -1053.866)" fill="#aac6ef"/>
                    </g>
                  </g>
                </g>
                <g id="Grupo_21220" data-name="Grupo 21220" transform="translate(222.724 92.876)">
                  <g id="Grupo_21215" data-name="Grupo 21215">
                    <g id="Grupo_21214" data-name="Grupo 21214">
                      <path id="Trazado_38220" data-name="Trazado 38220" d="M4914.754,1086.473h-26.461a6.292,6.292,0,0,1-6.282-6.282v-20.043a6.291,6.291,0,0,1,6.282-6.281h26.461a6.29,6.29,0,0,1,6.284,6.281v20.043A6.291,6.291,0,0,1,4914.754,1086.473Zm-26.461-29.92a3.6,3.6,0,0,0-3.6,3.594v20.043a3.6,3.6,0,0,0,3.6,3.6h26.461a3.6,3.6,0,0,0,3.6-3.6v-20.043a3.6,3.6,0,0,0-3.6-3.594Z" transform="translate(-4882.011 -1053.866)" fill="#aac6ef"/>
                    </g>
                  </g>
                  <g id="Grupo_21217" data-name="Grupo 21217" transform="translate(0 14.833)">
                    <g id="Grupo_21216" data-name="Grupo 21216">
                      <path id="Trazado_38221" data-name="Trazado 38221" d="M4919.694,1168.631h-36.338a1.342,1.342,0,1,1,0-2.683h36.338a1.342,1.342,0,1,1,0,2.683Z" transform="translate(-4882.011 -1165.948)" fill="#aac6ef"/>
                    </g>
                  </g>
                  <g id="Grupo_21219" data-name="Grupo 21219" transform="translate(18.173)">
                    <g id="Grupo_21218" data-name="Grupo 21218">
                      <path id="Trazado_38222" data-name="Trazado 38222" d="M5020.677,1086.473a1.344,1.344,0,0,1-1.34-1.345v-29.919a1.342,1.342,0,1,1,2.683,0v29.919A1.345,1.345,0,0,1,5020.677,1086.473Z" transform="translate(-5019.337 -1053.866)" fill="#aac6ef"/>
                    </g>
                  </g>
                </g>
              </g>
            </g>
          </g>
          <g id="Grupo_21256" data-name="Grupo 21256" transform="translate(0 92.542)">
            <path id="Trazado_38241" data-name="Trazado 38241" d="M1421.547,844.174c-20.771,0-40.514-9.21-55.192-26.022-17.59-20.148-24.983-48.17-18.835-71.387a1.622,1.622,0,1,1,3.136.83c-5.881,22.207,1.241,49.065,18.142,68.425,16.008,18.336,38.275,27.227,61.1,24.393,14.059-1.746,28.981-7.345,44.781-13.274l3.349-1.256a1.622,1.622,0,0,1,1.136,3.039l-3.345,1.253c-15.984,6-31.081,11.663-45.521,13.456A70.973,70.973,0,0,1,1421.547,844.174Z" transform="translate(-1345.386 -745.558)" fill="#232374"/>
          </g>
          <g id="Grupo_21257" data-name="Grupo 21257" transform="translate(5.33 62.704)">
            <path id="Trazado_38242" data-name="Trazado 38242" d="M1387.28,544a1.623,1.623,0,0,1-1.478-2.288,59.7,59.7,0,0,1,16.148-21.237,1.622,1.622,0,1,1,2.09,2.48,56.479,56.479,0,0,0-15.281,20.089A1.623,1.623,0,0,1,1387.28,544Z" transform="translate(-1385.659 -520.089)" fill="#232374"/>
          </g>
          <g id="Grupo_21258" data-name="Grupo 21258" transform="translate(28.962 55.143)">
            <path id="Trazado_38243" data-name="Trazado 38243" d="M1565.859,468.041a1.622,1.622,0,0,1-.854-3c1.044-.645,2.131-1.279,3.231-1.885A1.622,1.622,0,1,1,1569.8,466c-1.053.58-2.093,1.186-3.092,1.8A1.617,1.617,0,0,1,1565.859,468.041Z" transform="translate(-1564.236 -462.953)" fill="#232374"/>
          </g>
          <g id="Grupo_21259" data-name="Grupo 21259" transform="translate(269.049 22.916)">
            <path id="Trazado_38244" data-name="Trazado 38244" d="M3380.079,225.386a1.622,1.622,0,0,1-.89-2.978q2.151-1.41,4.3-2.736a1.621,1.621,0,1,1,1.706,2.758q-2.109,1.305-4.223,2.691A1.615,1.615,0,0,1,3380.079,225.386Z" transform="translate(-3378.456 -219.429)" fill="#232374"/>
          </g>
          <g id="Grupo_21260" data-name="Grupo 21260" transform="translate(290.738)">
            <path id="Trazado_38245" data-name="Trazado 38245" d="M3543.969,62.931a1.622,1.622,0,0,1-.693-3.089c33.211-15.66,67.776-17.852,97.327-6.171a1.622,1.622,0,0,1-1.193,3.016c-28.705-11.348-62.356-9.187-94.751,6.089A1.626,1.626,0,0,1,3543.969,62.931Z" transform="translate(-3542.346 -46.263)" fill="#232374"/>
          </g>
          <g id="Grupo_21261" data-name="Grupo 21261" transform="translate(243.327 29.557)">
            <path id="Trazado_38246" data-name="Trazado 38246" d="M3263.946,452.883c-38.71,0-60.2-16.293-79.218-30.708a1.622,1.622,0,1,1,1.96-2.585c19.062,14.45,40.663,30.875,80.073,30.02,34.741-.712,66.66-14.5,89.878-38.811,21.034-22.03,32.206-50.231,31.457-79.41-.559-21.712-9.831-42.669-26.11-59.011a1.622,1.622,0,0,1,2.3-2.289c16.867,16.932,26.474,38.672,27.054,61.217.773,30.048-10.717,59.075-32.352,81.732-23.819,24.945-56.548,39.084-92.159,39.815C3265.857,452.872,3264.895,452.883,3263.946,452.883Z" transform="translate(-3184.085 -269.611)" fill="#232374"/>
          </g>
          <g id="mother" transform="translate(188.138 166.248)">
            <g id="Grupo_21309" data-name="Grupo 21309">
              <g id="Grupo_21264" data-name="Grupo 21264" transform="translate(44.351 6.497)">
                <g id="Grupo_21263" data-name="Grupo 21263">
                  <g id="Grupo_21262" data-name="Grupo 21262">
                    <path id="Trazado_38247" data-name="Trazado 38247" d="M3107.666,1352.778c-3.9,1.857-10.186,13.87,1.875,28.019,6.013,7.056-4.815,6.082-6.9,14.277a12.894,12.894,0,0,0,1.849,10.832s53.334,1.444,56.327,0c5.571-.31,13.334-29.33-2.669-31.9s-13.817-3.122-15.94-9.21-23.682-13.179-23.682-13.179Z" transform="translate(-3102.192 -1351.616)" fill="#e75e22"/>
                  </g>
                </g>
              </g>
              <g id="Grupo_21267" data-name="Grupo 21267" transform="translate(62.661 46.239)">
                <g id="Grupo_21266" data-name="Grupo 21266">
                  <g id="Grupo_21265" data-name="Grupo 21265">
                    <path id="Trazado_38248" data-name="Trazado 38248" d="M3255.832,1655.228c0,1.827-3.42,3.307-7.64,3.307s-7.64-1.48-7.64-3.307,3.42-3.308,7.64-3.308S3255.832,1653.4,3255.832,1655.228Z" transform="translate(-3240.552 -1651.92)" fill="#aac6ef"/>
                  </g>
                </g>
              </g>
              <g id="Grupo_21269" data-name="Grupo 21269" transform="translate(44.361 7.345)">
                <g id="Grupo_21268" data-name="Grupo 21268">
                  <path id="Trazado_38249" data-name="Trazado 38249" d="M3161.474,1411.321a2.748,2.748,0,0,0,.426-.214c.05-.031.1-.069.149-.1.107-.074.213-.158.32-.248.074-.063.148-.128.222-.2s.146-.149.219-.227c.149-.158.3-.329.445-.518.042-.053.083-.1.125-.159.1-.136.2-.277.305-.426-.492-3.938-1.589-8.476-4.25-11.722-5.411-6.6-17.237,3.756-21.676-3.755-1.745-2.954-7.511-19.917-15.592-21.852,0,0-4.969-9.34-11.486-13.874l-2.947.315a5.982,5.982,0,0,0-1.762,1.407,3.335,3.335,0,0,1-.04.393c-1.479,8.315,4.466,25.128,6.3,28,3.207,5.022,7.133,8.781-.3,10.682a28.572,28.572,0,0,0-9.634,4.523v.013a12.928,12.928,0,0,0,2.025,7.78l.017.026c.04.06.078.114.109.156.008.013.016.022.023.033l.06.081.029.037s53.334,1.444,56.326,0a1.851,1.851,0,0,0,.464-.1C3161.387,1411.354,3161.429,1411.339,3161.474,1411.321Z" transform="translate(-3102.27 -1358.023)" fill="#e5500e"/>
                </g>
              </g>
              <g id="Grupo_21273" data-name="Grupo 21273" transform="translate(57.714 26.742)">
                <g id="Grupo_21272" data-name="Grupo 21272">
                  <g id="Grupo_21271" data-name="Grupo 21271">
                    <g id="Grupo_21270" data-name="Grupo 21270">
                      <path id="Trazado_38250" data-name="Trazado 38250" d="M3215.3,1539.817a5.575,5.575,0,0,1-5.187-7.6c1.1-2.984-2.132-14.631-4.351-17.34a5.571,5.571,0,0,1,5.3-9.771c7.012,3.219,12.339,23.736,9.426,31.176A5.575,5.575,0,0,1,3215.3,1539.817Z" transform="translate(-3203.169 -1504.593)" fill="#ffc1a9"/>
                    </g>
                  </g>
                </g>
              </g>
              <g id="Grupo_21276" data-name="Grupo 21276" transform="translate(57.714 26.742)">
                <g id="Grupo_21275" data-name="Grupo 21275">
                  <g id="Grupo_21274" data-name="Grupo 21274">
                    <path id="Trazado_38251" data-name="Trazado 38251" d="M3211.064,1505.1a5.571,5.571,0,0,0-5.3,9.771c1.009,1.233,2.227,4.318,3.15,7.594,3.567-3.03,5.349-9.107,5.825-14A10.006,10.006,0,0,0,3211.064,1505.1Z" transform="translate(-3203.169 -1504.593)" fill="#f49e8e"/>
                  </g>
                </g>
              </g>
              <g id="Grupo_21279" data-name="Grupo 21279" transform="translate(50.858 13.104)">
                <g id="Grupo_21278" data-name="Grupo 21278">
                  <g id="Grupo_21277" data-name="Grupo 21277">
                    <path id="Trazado_38252" data-name="Trazado 38252" d="M3151.366,1405.232c.06,5.957,3.326,26.537,11.218,23.675s9.516-18.8,7.814-22.128S3151.289,1397.727,3151.366,1405.232Z" transform="translate(-3151.365 -1401.542)" fill="#ffc1a9"/>
                  </g>
                </g>
              </g>
              <g id="Grupo_21282" data-name="Grupo 21282" transform="translate(48.592)">
                <g id="Grupo_21281" data-name="Grupo 21281">
                  <g id="Grupo_21280" data-name="Grupo 21280">
                    <path id="Trazado_38253" data-name="Trazado 38253" d="M3138.275,1306.49c-11.283,8.32,2.991,20.9,19.421,22.771,17.331,1.979,11.837.981,12.25-.429C3173.277,1317.446,3156.639,1292.952,3138.275,1306.49Z" transform="translate(-3134.239 -1302.518)" fill="#e75e22"/>
                  </g>
                </g>
              </g>
              <g id="Grupo_21285" data-name="Grupo 21285" transform="translate(66.419 20.564)">
                <g id="Grupo_21284" data-name="Grupo 21284">
                  <g id="Grupo_21283" data-name="Grupo 21283">
                    <path id="Trazado_38254" data-name="Trazado 38254" d="M3273.229,1462.427c-.291,2.347-1.47,4.133-2.635,3.987s-1.87-2.162-1.58-4.508,1.471-4.133,2.635-3.989S3273.521,1460.081,3273.229,1462.427Z" transform="translate(-3268.95 -1457.909)" fill="#ffc1a9"/>
                  </g>
                </g>
              </g>
              <g id="Grupo_21288" data-name="Grupo 21288" transform="translate(0 49.955)">
                <g id="Grupo_21287" data-name="Grupo 21287">
                  <g id="Grupo_21286" data-name="Grupo 21286">
                    <path id="Trazado_38255" data-name="Trazado 38255" d="M2828.942,1680.221c-2.63,1.29-14.744.619-18.126,4.54s-15.174,39.405-34.965,38.374,0,6.19,0,6.19,24.539,12.1,34.354,7.906.61,35.778.61,35.778H2868.5s25.428-66.369.309-89.178c-6.695-6.079-21.92-3.095-23.57-3.095s-2.031,4.178-8.431,3.681S2828.942,1680.221,2828.942,1680.221Z" transform="translate(-2767.055 -1680.005)" fill="#aac6ef"/>
                  </g>
                </g>
              </g>
              <g id="Grupo_21291" data-name="Grupo 21291" transform="translate(60.851 48.138)">
                <g id="Grupo_21290" data-name="Grupo 21290">
                  <g id="Grupo_21289" data-name="Grupo 21289">
                    <path id="Trazado_38256" data-name="Trazado 38256" d="M3229.548,1666.486c-.727-1.068-3.2,2.192-2.563,3.65.9,2.047,6.485,5.475,8,4.427,1.605-1.112,1.775-4.154.5-4.194C3233.547,1670.308,3231.294,1669.05,3229.548,1666.486Z" transform="translate(-3226.88 -1666.276)" fill="#c0d5f3"/>
                  </g>
                </g>
              </g>
              <g id="Grupo_21294" data-name="Grupo 21294" transform="translate(69.82 48.138)">
                <g id="Grupo_21293" data-name="Grupo 21293">
                  <g id="Grupo_21292" data-name="Grupo 21292">
                    <path id="Trazado_38257" data-name="Trazado 38257" d="M3301.43,1666.486c.728-1.068,3.205,2.192,2.562,3.65-.9,2.047-6.484,5.475-8,4.427-1.606-1.112-1.775-4.154-.506-4.194C3297.43,1670.308,3299.684,1669.05,3301.43,1666.486Z" transform="translate(-3294.649 -1666.276)" fill="#c0d5f3"/>
                  </g>
                </g>
              </g>
              <g id="Grupo_21297" data-name="Grupo 21297" transform="translate(68.697 54.117)">
                <g id="Grupo_21296" data-name="Grupo 21296">
                  <g id="Grupo_21295" data-name="Grupo 21295">
                    <path id="Trazado_38258" data-name="Trazado 38258" d="M3289.719,1739.181a1.236,1.236,0,0,1-1.153-.79c-1.295-3.328-1.841-12.726-2.238-22.388-.062-1.481-.12-2.882-.154-3.131a1.238,1.238,0,0,1,2.45-.357c.051.344.091,1.287.177,3.387.224,5.444.75,18.19,2.072,21.594a1.236,1.236,0,0,1-.7,1.6A1.213,1.213,0,0,1,3289.719,1739.181Z" transform="translate(-3286.161 -1711.457)" fill="#c0d5f3"/>
                  </g>
                </g>
              </g>
              <g id="Grupo_21300" data-name="Grupo 21300" transform="translate(65.629 61.519)">
                <g id="Grupo_21299" data-name="Grupo 21299">
                  <g id="Grupo_21298" data-name="Grupo 21298">
                    <path id="Trazado_38259" data-name="Trazado 38259" d="M3262.979,1768.417a1.031,1.031,0,1,1,1.031,1.031A1.031,1.031,0,0,1,3262.979,1768.417Z" transform="translate(-3262.979 -1767.385)" fill="#c0d5f3"/>
                  </g>
                </g>
              </g>
              <g id="Grupo_21303" data-name="Grupo 21303" transform="translate(65.962 68.43)">
                <g id="Grupo_21302" data-name="Grupo 21302">
                  <g id="Grupo_21301" data-name="Grupo 21301">
                    <path id="Trazado_38260" data-name="Trazado 38260" d="M3265.5,1820.645a1.031,1.031,0,1,1,1.032,1.032A1.032,1.032,0,0,1,3265.5,1820.645Z" transform="translate(-3265.501 -1819.613)" fill="#c0d5f3"/>
                  </g>
                </g>
              </g>
              <g id="Grupo_21306" data-name="Grupo 21306" transform="translate(66.66 75.189)">
                <g id="Grupo_21305" data-name="Grupo 21305">
                  <g id="Grupo_21304" data-name="Grupo 21304">
                    <path id="Trazado_38261" data-name="Trazado 38261" d="M3270.774,1871.713a1.031,1.031,0,1,1,1.031,1.032A1.03,1.03,0,0,1,3270.774,1871.713Z" transform="translate(-3270.774 -1870.682)" fill="#c0d5f3"/>
                  </g>
                </g>
              </g>
              <g id="Grupo_21308" data-name="Grupo 21308" transform="translate(27.765 50.157)">
                <g id="Grupo_21307" data-name="Grupo 21307">
                  <path id="Trazado_38262" data-name="Trazado 38262" d="M3050.855,1685.154c-2.461-2.235-6.073-3.243-9.741-3.626,3.033,14.251-2.358,45.061-14.923,46.11-15.706,1.309-20.672-3.21-20.672-20.454-5.571,13.676-6.656,25.009-19.317,26.549-3.819.464-6.819.941-9.339,4.106,5.818,1.549,11.661,2.3,15.385.714,9.814-4.194.61,35.779.61,35.779h12.3l46.386-2.756C3055.985,1758.821,3072.917,1705.188,3050.855,1685.154Z" transform="translate(-2976.862 -1681.528)" fill="#9ebeed"/>
                </g>
              </g>
            </g>
          </g>
          <g id="Grupo_21354" data-name="Grupo 21354" transform="translate(90.665 128.347)">
            <g id="Grupo_21328" data-name="Grupo 21328" transform="translate(61.973)">
              <g id="Grupo_21313" data-name="Grupo 21313" transform="translate(0 35.255)">
                <g id="Grupo_21312" data-name="Grupo 21312">
                  <g id="Grupo_21311" data-name="Grupo 21311">
                    <g id="Grupo_21310" data-name="Grupo 21310">
                      <path id="Trazado_38263" data-name="Trazado 38263" d="M2506.354,1324.513a6.814,6.814,0,0,1-6.366-4.4c-4.817-12.7,5.879-30.061,15.358-36.435a6.81,6.81,0,0,1,7.6,11.3c-5.772,3.879-12.148,15.239-10.226,20.3a6.816,6.816,0,0,1-6.366,9.226Z" transform="translate(-2498.794 -1282.523)" fill="#ffc1a9"/>
                    </g>
                  </g>
                </g>
              </g>
              <g id="Grupo_21316" data-name="Grupo 21316" transform="translate(7.103 35.255)">
                <g id="Grupo_21315" data-name="Grupo 21315">
                  <g id="Grupo_21314" data-name="Grupo 21314">
                    <path id="Trazado_38264" data-name="Trazado 38264" d="M2571.367,1285.533a6.81,6.81,0,0,0-9.45-1.852,38.082,38.082,0,0,0-9.448,9.721c.9,3.9,2.869,6.888,6.578,7.455a8.858,8.858,0,0,0,6.053-1.628,21.058,21.058,0,0,1,4.417-4.246A6.811,6.811,0,0,0,2571.367,1285.533Z" transform="translate(-2552.469 -1282.523)" fill="#f49e8e"/>
                  </g>
                </g>
              </g>
              <g id="Grupo_21319" data-name="Grupo 21319" transform="translate(9.794 15.729)">
                <g id="Grupo_21318" data-name="Grupo 21318">
                  <g id="Grupo_21317" data-name="Grupo 21317">
                    <path id="Trazado_38265" data-name="Trazado 38265" d="M2576.59,1141.678c-2.667,4.7-8.218,27.754,2.776,30s24.659-24.765,24.659-24.765-22.737-16.334-25.086-10.782Z" transform="translate(-2572.804 -1134.975)" fill="#ffc1a9"/>
                  </g>
                </g>
              </g>
              <g id="Grupo_21322" data-name="Grupo 21322" transform="translate(7.575)">
                <g id="Grupo_21321" data-name="Grupo 21321">
                  <g id="Grupo_21320" data-name="Grupo 21320">
                    <path id="Trazado_38266" data-name="Trazado 38266" d="M2560.349,1047.349c.438-.827,1.856-11.966,8.665-12.9s11.692,3.679,15.026,8.792c4.573,7.015,19.119,2.76,21.8-4.563s-.413-10.005-4.333-9.078c.619-2.991.1-13.925-12.277-10.315-2.269-3.2-21.87-8.254-23,9.8-16.777.025-7.8,23.626-7.8,23.626Z" transform="translate(-2556.031 -1016.116)" fill="#232374"/>
                  </g>
                </g>
              </g>
              <g id="Grupo_21324" data-name="Grupo 21324" transform="translate(8.8 0)">
                <g id="Grupo_21323" data-name="Grupo 21323">
                  <path id="Trazado_38267" data-name="Trazado 38267" d="M2614.866,1033.55c-.146-3.411-2.516-4.608-5.32-3.944.619-2.992.1-13.925-12.276-10.315-1.985-2.8-17.226-7.016-21.776,4.048,0,.021,0,.039-.006.06h-.017a18.067,18.067,0,0,0-1.2,5.69c-4.9.008-7.592,2.032-8.964,4.886a39.671,39.671,0,0,0,2.387,13.05l1.918-5.367c.438-.826,1.857-11.966,8.665-12.894s11.693,3.678,15.027,8.792C2597.755,1044.392,2611.673,1040.527,2614.866,1033.55Z" transform="translate(-2565.292 -1016.117)" fill="#3c3c83"/>
                </g>
              </g>
              <g id="Grupo_21327" data-name="Grupo 21327" transform="translate(9.865 21.67)">
                <g id="Grupo_21326" data-name="Grupo 21326">
                  <g id="Grupo_21325" data-name="Grupo 21325">
                    <path id="Trazado_38268" data-name="Trazado 38268" d="M2577.836,1185.373c-.159,2.974-1.291,5.33-2.526,5.264s-2.11-2.529-1.951-5.5,1.291-5.33,2.527-5.265S2577.994,1182.4,2577.836,1185.373Z" transform="translate(-2573.34 -1179.869)" fill="#ffc1a9"/>
                  </g>
                </g>
              </g>
            </g>
            <g id="Grupo_21331" data-name="Grupo 21331" transform="translate(0.619 56.607)">
              <g id="Grupo_21330" data-name="Grupo 21330">
                <g id="Grupo_21329" data-name="Grupo 21329">
                  <path id="Trazado_38269" data-name="Trazado 38269" d="M2091.5,1444.281c-6.276-3.817-56.058,18.8-56.325,64.681-.254,43.637,17.125,60.349,39.407,60.349h51.992l-2.887-43.637,44.977,19.807,3.42-15.237s-20.533-18.342-25.671-29.174-12.256-48.389-30.67-50.29C2110.441,1450.233,2106.256,1453.256,2091.5,1444.281Z" transform="translate(-2035.176 -1443.867)" fill="#146ecf"/>
                </g>
              </g>
            </g>
            <g id="Grupo_21333" data-name="Grupo 21333" transform="translate(79.299 110.265)">
              <g id="Grupo_21332" data-name="Grupo 21332">
                <path id="Trazado_38270" data-name="Trazado 38270" d="M2678.377,1872.887c-9.547,1.626-31-5.84-26.623-7.681,5.116-2.155,4.569-14.36-.809-15.771l-11.617-.1s-9.8,23.59-9.606,24.062c.13.318,6.408,8.9,10.521,14.5l-.689-10.413,40.492,17.832c1.562-.339,3.34-.725,5.18-1.122l2.725-12.139S2683.585,1878.15,2678.377,1872.887Z" transform="translate(-2629.72 -1849.332)" fill="#0058cb"/>
              </g>
            </g>
            <g id="Grupo_21335" data-name="Grupo 21335" transform="translate(34.563 103.713)">
              <g id="Grupo_21334" data-name="Grupo 21334">
                <path id="Trazado_38271" data-name="Trazado 38271" d="M2299.572,1803.887c.308,7.417-1.594,46.62,9.1,44.277s18.6-26.537,27.844-19.414-4.453,46.46-7.872,48.529-40.345,4.016-24.448-.73a44.666,44.666,0,0,0,17.9-21.472l-.665-4.918-1.154-1.379-9.029,3.413s-12.811,1.477-16.692-5.386-2.732-29.325-2.732-29.325l1.551-13.595S2299.191,1794.74,2299.572,1803.887Z" transform="translate(-2291.674 -1799.822)" fill="#0058cb"/>
              </g>
            </g>
            <g id="Grupo_21337" data-name="Grupo 21337" transform="translate(0.619 106.45)">
              <g id="Grupo_21336" data-name="Grupo 21336">
                <path id="Trazado_38272" data-name="Trazado 38272" d="M2102.6,1896.108c6.747-5.967,31.7-29.164-11.956-9.074-49.73,22.886-52.849-56.271-53.152-66.448l-.295-.08a60.955,60.955,0,0,0-2.015,15.253c-.254,43.637,17.125,60.349,39.407,60.349Z" transform="translate(-2035.176 -1820.506)" fill="#0058cb"/>
              </g>
            </g>
            <g id="Grupo_21339" data-name="Grupo 21339" transform="translate(52.076 56.61)">
              <g id="Grupo_21338" data-name="Grupo 21338">
                <path id="Trazado_38273" data-name="Trazado 38273" d="M2433.6,1457.365a17.045,17.045,0,0,0,6.1,1.168,14.653,14.653,0,0,0,10.175-4.029,4.327,4.327,0,0,0,1.305-3.77c-2.852.053-5.8.6-10.771-.92a8.271,8.271,0,0,1-3.707-.539,7.761,7.761,0,0,1-3.458-2.494c-1.349-.7-2.8-1.518-4.375-2.478-.827-.5-2.416-.542-4.542-.134a4.289,4.289,0,0,0-.316,1.963C2424.4,1450.866,2428.165,1455.275,2433.6,1457.365Z" transform="translate(-2424.008 -1443.891)" fill="#0058cb"/>
              </g>
            </g>
            <g id="Grupo_21342" data-name="Grupo 21342" transform="translate(0 55.982)">
              <g id="Grupo_21341" data-name="Grupo 21341">
                <g id="Grupo_21340" data-name="Grupo 21340">
                  <path id="Trazado_38274" data-name="Trazado 38274" d="M2070.526,1565.834c-10.119,0-18.567-3.335-25.107-9.913-10.037-10.1-15.057-27.275-14.919-51.058.209-35.75,29.413-54.824,38.359-59.819,8.522-4.759,16.3-6.98,18.907-5.387,11.277,6.86,16.3,6.612,20.354,6.4a23.483,23.483,0,0,1,3.63.008.618.618,0,0,1,.552.68.612.612,0,0,1-.679.551,22.371,22.371,0,0,0-3.441,0c-4.213.211-9.458.477-21.059-6.583-1.873-1.135-8.993.572-17.661,5.41-8.8,4.913-37.519,23.667-37.724,58.746-.136,23.441,4.761,40.323,14.559,50.177,6.3,6.336,14.45,9.549,24.229,9.549a.619.619,0,0,1,0,1.237Z" transform="translate(-2030.497 -1439.146)" fill="#232374"/>
                </g>
              </g>
            </g>
            <g id="Grupo_21346" data-name="Grupo 21346" transform="translate(55.708 52.689)">
              <g id="Grupo_21345" data-name="Grupo 21345">
                <g id="Grupo_21344" data-name="Grupo 21344">
                  <g id="Grupo_21343" data-name="Grupo 21343">
                    <path id="Trazado_38275" data-name="Trazado 38275" d="M2467.16,1431.345a17.021,17.021,0,0,1-6.1-1.169c-5.441-2.089-9.2-6.5-9.584-11.234a4.333,4.333,0,0,1,8.637-.7c.094,1.157,1.636,2.912,4.053,3.84,1.3.5,4.608,1.4,7.222-1.073a4.334,4.334,0,0,1,5.951,6.3A14.653,14.653,0,0,1,2467.16,1431.345Z" transform="translate(-2451.457 -1414.261)" fill="#146ecf"/>
                  </g>
                </g>
              </g>
            </g>
            <g id="Grupo_21350" data-name="Grupo 21350" transform="translate(55.089 52.087)">
              <g id="Grupo_21349" data-name="Grupo 21349">
                <g id="Grupo_21348" data-name="Grupo 21348">
                  <g id="Grupo_21347" data-name="Grupo 21347">
                    <path id="Trazado_38276" data-name="Trazado 38276" d="M2463.1,1428.013a17.613,17.613,0,0,1-6.327-1.209c-5.661-2.175-9.578-6.791-9.979-11.762a4.95,4.95,0,0,1,4.537-5.333.619.619,0,1,1,.1,1.233,3.717,3.717,0,0,0-3.4,4c.363,4.5,3.969,8.7,9.189,10.706a16.385,16.385,0,0,0,5.883,1.127,13.947,13.947,0,0,0,9.749-3.86.619.619,0,0,1,.851.9A15.168,15.168,0,0,1,2463.1,1428.013Z" transform="translate(-2446.778 -1409.708)" fill="#232374"/>
                  </g>
                </g>
              </g>
            </g>
            <g id="Grupo_21353" data-name="Grupo 21353" transform="translate(33.688 107.778)">
              <g id="Grupo_21352" data-name="Grupo 21352">
                <g id="Grupo_21351" data-name="Grupo 21351">
                  <path id="Trazado_38277" data-name="Trazado 38277" d="M2290.691,1905.493a18.91,18.91,0,0,1-2.553-.174.619.619,0,0,1-.531-.7.607.607,0,0,1,.7-.53c16.76,2.25,26.558-20.074,27.49-22.306l-1.364-5.682c-2,1.215-7.827,4.156-16.66,3.643a10.444,10.444,0,0,1-7.686-3.846c-7.408-8.856-4.793-30.524-3.537-40.937.2-1.636.357-2.958.429-3.854a.619.619,0,0,1,1.234.1c-.073.907-.234,2.245-.434,3.9-1.139,9.439-3.807,31.549,3.258,39.993a9.244,9.244,0,0,0,6.807,3.405c10.4.6,16.557-3.858,16.617-3.9a.62.62,0,0,1,.971.355l1.615,6.731a.611.611,0,0,1-.026.37C2316.922,1882.31,2307.6,1905.492,2290.691,1905.493Z" transform="translate(-2285.058 -1830.543)" fill="#232374"/>
                </g>
              </g>
            </g>
          </g>
          <g id="pig" transform="translate(191.999 264.945)">
            <g id="Grupo_21358" data-name="Grupo 21358" transform="translate(39.69 33.347)">
              <g id="Grupo_21357" data-name="Grupo 21357">
                <g id="Grupo_21356" data-name="Grupo 21356">
                  <g id="Grupo_21355" data-name="Grupo 21355">
                    <path id="Trazado_38278" data-name="Trazado 38278" d="M3098.937,2313.259a2.8,2.8,0,0,0,2.8-2.8v-7.357a2.8,2.8,0,0,0-5.593,0v7.357A2.8,2.8,0,0,0,3098.937,2313.259Z" transform="translate(-3096.141 -2300.31)" fill="#ffbc2d"/>
                  </g>
                </g>
              </g>
            </g>
            <g id="Grupo_21362" data-name="Grupo 21362" transform="translate(43.088 6.138)">
              <g id="Grupo_21361" data-name="Grupo 21361">
                <g id="Grupo_21360" data-name="Grupo 21360">
                  <g id="Grupo_21359" data-name="Grupo 21359">
                    <path id="Trazado_38279" data-name="Trazado 38279" d="M3122.195,2097.787c.939,1.764,2.464,4.654,3.4,6.423s2.567,1.825,3.631.137,2.8-4.461,3.865-6.154.3-3.139-1.7-3.214-5.263-.2-7.26-.269S3121.264,2096.019,3122.195,2097.787Z" transform="translate(-3121.821 -2094.706)" fill="#ff9500"/>
                  </g>
                </g>
              </g>
            </g>
            <g id="Grupo_21366" data-name="Grupo 21366" transform="translate(32.169 33.347)">
              <g id="Grupo_21365" data-name="Grupo 21365">
                <g id="Grupo_21364" data-name="Grupo 21364">
                  <g id="Grupo_21363" data-name="Grupo 21363">
                    <path id="Trazado_38280" data-name="Trazado 38280" d="M3042.1,2313.259a2.8,2.8,0,0,0,2.8-2.8v-7.357a2.8,2.8,0,1,0-5.592,0v7.357A2.794,2.794,0,0,0,3042.1,2313.259Z" transform="translate(-3039.309 -2300.31)" fill="#ffbc2d"/>
                  </g>
                </g>
              </g>
            </g>
            <g id="Grupo_21370" data-name="Grupo 21370" transform="translate(13.727 33.347)">
              <g id="Grupo_21369" data-name="Grupo 21369">
                <g id="Grupo_21368" data-name="Grupo 21368">
                  <g id="Grupo_21367" data-name="Grupo 21367">
                    <path id="Trazado_38281" data-name="Trazado 38281" d="M2902.749,2313.259a2.8,2.8,0,0,0,2.8-2.8v-7.357a2.8,2.8,0,0,0-5.592,0v7.357A2.8,2.8,0,0,0,2902.749,2313.259Z" transform="translate(-2899.953 -2300.31)" fill="#ffbc2d"/>
                  </g>
                </g>
              </g>
            </g>
            <g id="Grupo_21374" data-name="Grupo 21374">
              <g id="Grupo_21373" data-name="Grupo 21373">
                <g id="Grupo_21372" data-name="Grupo 21372">
                  <g id="Grupo_21371" data-name="Grupo 21371">
                    <path id="Trazado_38282" data-name="Trazado 38282" d="M2808.175,2049.533c20.013-6.009,39.206,12.237,41.291,13.217a7.889,7.889,0,0,0,4.621.354v13.522s-1.248-1.066-5.129,2.644-10.83,10.237-29.364,10.237c-17.084,0-23.37-9.019-23.37-20.138S2800.756,2051.759,2808.175,2049.533Z" transform="translate(-2796.224 -2048.322)" fill="#ffbc2d"/>
                  </g>
                </g>
              </g>
            </g>
            <g id="Grupo_21377" data-name="Grupo 21377" transform="translate(4.187)">
              <g id="Grupo_21376" data-name="Grupo 21376">
                <g id="Grupo_21375" data-name="Grupo 21375">
                  <path id="Trazado_38283" data-name="Trazado 38283" d="M2827.864,2065.781c0-6.457,1.529-11.347,4.261-14.75a16.624,16.624,0,0,1,3.5-1.5c20.013-6.009,39.207,12.237,41.291,13.217a7.89,7.89,0,0,0,4.622.354v11.727c-.3.253-.608.534-.941.852-.508.485-1.068,1.016-1.7,1.578a15.892,15.892,0,0,0-2.491,2.009s0,0-.006.006c-4.514,3.272-11.85,6.646-25.17,6.646C2834.151,2085.921,2827.864,2076.9,2827.864,2065.781Z" transform="translate(-2827.864 -2048.322)" fill="#ffcb5c"/>
                </g>
              </g>
            </g>
            <g id="Grupo_21381" data-name="Grupo 21381" transform="translate(6.205 34.016)">
              <g id="Grupo_21380" data-name="Grupo 21380">
                <g id="Grupo_21379" data-name="Grupo 21379">
                  <g id="Grupo_21378" data-name="Grupo 21378">
                    <path id="Trazado_38284" data-name="Trazado 38284" d="M2848.7,2305.36v9.485a2.8,2.8,0,0,1-5.592,0v-9.485Z" transform="translate(-2843.11 -2305.36)" fill="#ffbc2d"/>
                  </g>
                </g>
              </g>
            </g>
            <g id="Grupo_21385" data-name="Grupo 21385" transform="translate(34.756 8.988)">
              <g id="Grupo_21384" data-name="Grupo 21384">
                <g id="Grupo_21383" data-name="Grupo 21383">
                  <g id="Grupo_21382" data-name="Grupo 21382">
                    <path id="Trazado_38285" data-name="Trazado 38285" d="M3064.6,2117.134c-1.362,1.463-3.6,3.85-4.957,5.313s-.888,3.023,1.058,3.475l7.079,1.639c1.947.45,3.065-.744,2.48-2.655s-1.536-5.039-2.12-6.949S3065.963,2115.674,3064.6,2117.134Z" transform="translate(-3058.859 -2116.241)" fill="#ffbc2d"/>
                  </g>
                </g>
              </g>
            </g>
            <g id="Grupo_21389" data-name="Grupo 21389" transform="translate(34.354 7.529)">
              <g id="Grupo_21388" data-name="Grupo 21388">
                <g id="Grupo_21387" data-name="Grupo 21387">
                  <g id="Grupo_21386" data-name="Grupo 21386">
                    <path id="Trazado_38286" data-name="Trazado 38286" d="M3061.555,2106.109c-1.363,1.463-3.6,3.852-4.958,5.314s-.889,3.022,1.057,3.474l7.078,1.64c1.949.45,3.065-.745,2.481-2.656s-1.536-5.039-2.121-6.95S3062.919,2104.651,3061.555,2106.109Z" transform="translate(-3055.817 -2105.218)" fill="#ff9500"/>
                  </g>
                </g>
              </g>
            </g>
            <g id="Grupo_21393" data-name="Grupo 21393" transform="translate(48.972 16.458)">
              <g id="Grupo_21392" data-name="Grupo 21392">
                <g id="Grupo_21391" data-name="Grupo 21391">
                  <g id="Grupo_21390" data-name="Grupo 21390">
                    <path id="Trazado_38287" data-name="Trazado 38287" d="M3167.211,2176.139a.932.932,0,0,0,.931-.932v-1.588a.932.932,0,1,0-1.864,0v1.588A.933.933,0,0,0,3167.211,2176.139Z" transform="translate(-3166.279 -2172.686)" fill="#ff9500"/>
                  </g>
                </g>
              </g>
            </g>
            <g id="Grupo_21397" data-name="Grupo 21397" transform="translate(54.018 14.782)">
              <g id="Grupo_21396" data-name="Grupo 21396">
                <g id="Grupo_21395" data-name="Grupo 21395">
                  <g id="Grupo_21394" data-name="Grupo 21394">
                    <path id="Trazado_38288" data-name="Trazado 38288" d="M3204.409,2166.787c0,3.733,1.723,6.76,3.846,6.76s3.845-3.026,3.845-6.76-1.721-6.763-3.845-6.763S3204.409,2163.051,3204.409,2166.787Z" transform="translate(-3204.409 -2160.024)" fill="#ffba27"/>
                  </g>
                </g>
              </g>
            </g>
            <g id="Grupo_21401" data-name="Grupo 21401" transform="translate(54.834 14.782)">
              <g id="Grupo_21400" data-name="Grupo 21400">
                <g id="Grupo_21399" data-name="Grupo 21399">
                  <g id="Grupo_21398" data-name="Grupo 21398">
                    <path id="Trazado_38289" data-name="Trazado 38289" d="M3210.576,2166.787c0,3.733,1.722,6.76,3.845,6.76s3.845-3.026,3.845-6.76-1.722-6.763-3.845-6.763S3210.576,2163.051,3210.576,2166.787Z" transform="translate(-3210.576 -2160.024)" fill="#ffd885"/>
                  </g>
                </g>
              </g>
            </g>
            <g id="Grupo_21405" data-name="Grupo 21405" transform="translate(60.154 20.591)">
              <g id="Grupo_21404" data-name="Grupo 21404">
                <g id="Grupo_21403" data-name="Grupo 21403">
                  <g id="Grupo_21402" data-name="Grupo 21402">
                    <path id="Trazado_38290" data-name="Trazado 38290" d="M3251.868,2204.875c0-.526-.243-.954-.543-.954s-.545.427-.545.954.242.951.545.951S3251.868,2205.4,3251.868,2204.875Z" transform="translate(-3250.781 -2203.921)" fill="#ffbc2d"/>
                  </g>
                </g>
              </g>
            </g>
            <g id="Grupo_21409" data-name="Grupo 21409" transform="translate(57.321 20.591)">
              <g id="Grupo_21408" data-name="Grupo 21408">
                <g id="Grupo_21407" data-name="Grupo 21407">
                  <g id="Grupo_21406" data-name="Grupo 21406">
                    <path id="Trazado_38291" data-name="Trazado 38291" d="M3230.46,2204.875c0-.526-.242-.954-.544-.954s-.542.427-.542.954.243.951.542.951S3230.46,2205.4,3230.46,2204.875Z" transform="translate(-3229.374 -2203.921)" fill="#ffbc2d"/>
                  </g>
                </g>
              </g>
            </g>
            <g id="Grupo_21413" data-name="Grupo 21413" transform="translate(13.274 1.929)">
              <g id="Grupo_21412" data-name="Grupo 21412">
                <g id="Grupo_21411" data-name="Grupo 21411">
                  <g id="Grupo_21410" data-name="Grupo 21410">
                    <path id="Trazado_38292" data-name="Trazado 38292" d="M2913.21,2067.732l1.385-1.248c-4.023-4.467-13.3-4.532-18.065-1.452l1.013,1.565C2901.624,2063.962,2909.818,2063.966,2913.21,2067.732Z" transform="translate(-2896.53 -2062.899)" fill="#ff9500"/>
                  </g>
                </g>
              </g>
            </g>
          </g>
          <g id="girl" transform="translate(154.994 221.893)">
            <g id="Grupo_21476" data-name="Grupo 21476">
              <g id="Grupo_21418" data-name="Grupo 21418" transform="translate(25.175 0.561)">
                <g id="Grupo_21417" data-name="Grupo 21417">
                  <g id="Grupo_21416" data-name="Grupo 21416">
                    <g id="Grupo_21415" data-name="Grupo 21415">
                      <g id="Grupo_21414" data-name="Grupo 21414">
                        <path id="Trazado_38293" data-name="Trazado 38293" d="M2709.121,1727.667c12.014-3.453,19.149,15.187,13.084,17.992S2701.126,1729.974,2709.121,1727.667Z" transform="translate(-2706.83 -1727.242)" fill="#e54f0d"/>
                      </g>
                    </g>
                  </g>
                </g>
              </g>
              <g id="Grupo_21424" data-name="Grupo 21424" transform="translate(20.294 16.82)">
                <g id="Grupo_21423" data-name="Grupo 21423">
                  <g id="Grupo_21422" data-name="Grupo 21422">
                    <g id="Grupo_21421" data-name="Grupo 21421">
                      <g id="Grupo_21420" data-name="Grupo 21420">
                        <g id="Grupo_21419" data-name="Grupo 21419">
                          <path id="Trazado_38294" data-name="Trazado 38294" d="M2673.88,1874.019a3.816,3.816,0,0,0,.5.041,4.557,4.557,0,0,0,4.69-4.43c.071-2.686.229-8.278,3.783-11.65a4.566,4.566,0,0,0-6.288-6.622c-6.282,5.969-6.529,14.719-6.618,18.017A4.56,4.56,0,0,0,2673.88,1874.019Z" transform="translate(-2669.947 -1850.103)" fill="#f7cbba"/>
                        </g>
                      </g>
                    </g>
                  </g>
                </g>
              </g>
              <g id="Grupo_21429" data-name="Grupo 21429" transform="translate(24.788 16.82)">
                <g id="Grupo_21428" data-name="Grupo 21428">
                  <g id="Grupo_21427" data-name="Grupo 21427">
                    <g id="Grupo_21426" data-name="Grupo 21426">
                      <g id="Grupo_21425" data-name="Grupo 21425">
                        <path id="Trazado_38295" data-name="Trazado 38295" d="M2705.3,1858.391a20.312,20.312,0,0,1-1.387-4.619,18.991,18.991,0,0,1,2.126-2.415,4.566,4.566,0,0,1,6.288,6.622,11.506,11.506,0,0,0-3.085,5.691A13.82,13.82,0,0,1,2705.3,1858.391Z" transform="translate(-2703.909 -1850.103)" fill="#f29b8b"/>
                      </g>
                    </g>
                  </g>
                </g>
              </g>
              <g id="Grupo_21435" data-name="Grupo 21435" transform="translate(23.159 5.593)">
                <g id="Grupo_21434" data-name="Grupo 21434">
                  <g id="Grupo_21433" data-name="Grupo 21433">
                    <g id="Grupo_21432" data-name="Grupo 21432">
                      <g id="Grupo_21431" data-name="Grupo 21431">
                        <g id="Grupo_21430" data-name="Grupo 21430">
                          <path id="Trazado_38296" data-name="Trazado 38296" d="M2707.87,1773.721c2.469,5.808.509,12.178-2.888,13.639s-9.359-1.579-11.826-7.391-2.366-11.372,2.894-13.633C2703.732,1763.021,2705.4,1767.908,2707.87,1773.721Z" transform="translate(-2691.595 -1765.261)" fill="#f7cbba"/>
                        </g>
                      </g>
                    </g>
                  </g>
                </g>
              </g>
              <g id="Grupo_21439" data-name="Grupo 21439" transform="translate(63.01 61.313)">
                <g id="Grupo_21438" data-name="Grupo 21438">
                  <g id="Grupo_21437" data-name="Grupo 21437">
                    <g id="Grupo_21436" data-name="Grupo 21436">
                      <path id="Trazado_38297" data-name="Trazado 38297" d="M2993.966,2193.741a1.238,1.238,0,0,1-.921-2.064l4.437-4.951a1.237,1.237,0,1,1,1.843,1.65l-4.435,4.953A1.237,1.237,0,0,1,2993.966,2193.741Z" transform="translate(-2992.729 -2186.314)" fill="#f7cbba"/>
                    </g>
                  </g>
                </g>
              </g>
              <g id="Grupo_21442" data-name="Grupo 21442" transform="translate(59.954 63.886)">
                <g id="Grupo_21441" data-name="Grupo 21441">
                  <g id="Grupo_21440" data-name="Grupo 21440">
                    <path id="Trazado_38298" data-name="Trazado 38298" d="M2972.3,2209.117c0-.6,11.875-5.512,12.626-2.255s-1.252,6.815-15.281,6.013C2969.641,2210.771,2972.3,2209.117,2972.3,2209.117Z" transform="translate(-2969.641 -2205.755)" fill="#f7cbba"/>
                  </g>
                </g>
              </g>
              <g id="Grupo_21445" data-name="Grupo 21445" transform="translate(0.665 34.855)">
                <g id="Grupo_21444" data-name="Grupo 21444">
                  <g id="Grupo_21443" data-name="Grupo 21443">
                    <path id="Trazado_38299" data-name="Trazado 38299" d="M2542.108,1986.379c-6.344,3.467-21.926,52-20.379,52.46,1.857,0,44.1,2.728,42.548-1.141s-6.7-43.056-6.7-43.056l-7.514-5.817Z" transform="translate(-2521.622 -1986.379)" fill="#aac6ef"/>
                  </g>
                </g>
              </g>
              <g id="Grupo_21448" data-name="Grupo 21448" transform="translate(22 38.087)">
                <g id="Grupo_21447" data-name="Grupo 21447">
                  <g id="Grupo_21446" data-name="Grupo 21446">
                    <path id="Trazado_38300" data-name="Trazado 38300" d="M2724.081,2038.175a.125.125,0,0,1-.028,0c-6.961-.63-15.063-2.357-19.862-7.857-2.627-3.011-2.7-6.755-2.7-10.546-.077-14.031-22.4-10.63-18.1,3.549,3.5,11.537,12.205,21.233,25.045,21.912a56.209,56.209,0,0,0,15.646-.87Z" transform="translate(-2682.84 -2010.807)" fill="#aac6ef"/>
                  </g>
                </g>
              </g>
              <g id="Grupo_21450" data-name="Grupo 21450" transform="translate(25.068 38.096)">
                <g id="Grupo_21449" data-name="Grupo 21449">
                  <path id="Trazado_38301" data-name="Trazado 38301" d="M2716.3,2011.5a10.61,10.61,0,0,0-10.273,1.748,13.837,13.837,0,0,0,5.069.986,8.877,8.877,0,0,0,3.827-.766A2.464,2.464,0,0,0,2716.3,2011.5Z" transform="translate(-2706.023 -2010.869)" fill="#9ebeed"/>
                </g>
              </g>
              <g id="Grupo_21452" data-name="Grupo 21452" transform="translate(29.003 63.227)">
                <g id="Grupo_21451" data-name="Grupo 21451">
                  <path id="Trazado_38302" data-name="Trazado 38302" d="M2747.346,2208.841c-5.476-1.906-10.629-7.224-11.488-8.064-1.079,6.723,6.919,14.656,12.793,16.2C2748.245,2214.618,2747.8,2211.819,2747.346,2208.841Z" transform="translate(-2735.76 -2200.777)" fill="#9ebeed"/>
                </g>
              </g>
              <g id="Grupo_21455" data-name="Grupo 21455" transform="translate(18.676 31.748)">
                <g id="Grupo_21454" data-name="Grupo 21454">
                  <g id="Grupo_21453" data-name="Grupo 21453">
                    <path id="Trazado_38303" data-name="Trazado 38303" d="M2666.782,1970.923a13.354,13.354,0,0,1-6.015-1.424,5.128,5.128,0,0,1-3.025-3.792,2.476,2.476,0,0,1,4.863-.9c.792.832,4.3,1.641,5.85.894a2.476,2.476,0,0,1,2.155,4.458A8.89,8.89,0,0,1,2666.782,1970.923Z" transform="translate(-2657.719 -1962.901)" fill="#aac6ef"/>
                  </g>
                </g>
              </g>
              <g id="Grupo_21457" data-name="Grupo 21457" transform="translate(0.665 34.855)">
                <g id="Grupo_21456" data-name="Grupo 21456">
                  <path id="Trazado_38304" data-name="Trazado 38304" d="M2521.729,2038.84c1.315,0,22.871,1.367,34.8.792l-11.408-.3c-19.522-.509-7.735-37.882-1.936-52.625l-1.076-.331C2535.764,1989.846,2520.182,2038.375,2521.729,2038.84Z" transform="translate(-2521.622 -1986.379)" fill="#9ebeed"/>
                </g>
              </g>
              <g id="Grupo_21460" data-name="Grupo 21460" transform="translate(28.608 62.538)">
                <g id="Grupo_21459" data-name="Grupo 21459">
                  <g id="Grupo_21458" data-name="Grupo 21458">
                    <path id="Trazado_38305" data-name="Trazado 38305" d="M2756.3,2206.39a45.106,45.106,0,0,1-4.6-.231,25.96,25.96,0,0,1-18.778-9.571.619.619,0,1,1,.945-.8,24.776,24.776,0,0,0,17.928,9.136,54,54,0,0,0,14.994-.774l.031-5.665a.506.506,0,0,1,.006-.086.6.6,0,0,1,1.2.086v6.186a.618.618,0,0,1-.512.608A63.981,63.981,0,0,1,2756.3,2206.39Z" transform="translate(-2732.773 -2195.57)" fill="#146ecf"/>
                  </g>
                </g>
              </g>
              <g id="Grupo_21465" data-name="Grupo 21465" transform="translate(3.1)">
                <g id="Grupo_21464" data-name="Grupo 21464">
                  <g id="Grupo_21463" data-name="Grupo 21463">
                    <g id="Grupo_21462" data-name="Grupo 21462">
                      <g id="Grupo_21461" data-name="Grupo 21461">
                        <path id="Trazado_38306" data-name="Trazado 38306" d="M2561.726,1759.9c1.8-4.516-.119-6.841-.017-16.413.047-4.3,7.141-5.1,9.584-8.673,5.966-8.748-4.038-13.779-10.885-11.094-7.812,3.06-7.45,15.879-8.121,17.221s-13.307,4.487-12.2,16.91C2541.1,1769.128,2558.34,1768.379,2561.726,1759.9Z" transform="translate(-2540.021 -1723)" fill="#e75e22"/>
                      </g>
                    </g>
                  </g>
                </g>
              </g>
              <g id="Grupo_21470" data-name="Grupo 21470" transform="translate(22.549 13.824)">
                <g id="Grupo_21469" data-name="Grupo 21469">
                  <g id="Grupo_21468" data-name="Grupo 21468">
                    <g id="Grupo_21467" data-name="Grupo 21467">
                      <g id="Grupo_21466" data-name="Grupo 21466">
                        <path id="Trazado_38307" data-name="Trazado 38307" d="M2687.133,1830.847c.415,1.578,1.592,2.632,2.632,2.362s1.553-1.774,1.138-3.346-1.591-2.633-2.635-2.356S2686.716,1829.274,2687.133,1830.847Z" transform="translate(-2686.988 -1827.463)" fill="#f7cbba"/>
                      </g>
                    </g>
                  </g>
                </g>
              </g>
              <g id="Grupo_21473" data-name="Grupo 21473" transform="translate(0 44.003)">
                <g id="Grupo_21472" data-name="Grupo 21472">
                  <g id="Grupo_21471" data-name="Grupo 21471">
                    <path id="Trazado_38308" data-name="Trazado 38308" d="M2529.587,2059.162c-1.632-9.344-7.1,1.768-7.749,5.408a12.062,12.062,0,0,1-5.241,7.442c.007.027.024.055.031.084a19.8,19.8,0,0,1,.688,3.291c.328.017.539,0,.928,0C2525.263,2075.492,2531.218,2068.506,2529.587,2059.162Z" transform="translate(-2516.597 -2055.511)" fill="#ffc1a9"/>
                  </g>
                </g>
              </g>
              <g id="Grupo_21475" data-name="Grupo 21475" transform="translate(3.1 18.418)">
                <g id="Grupo_21474" data-name="Grupo 21474">
                  <path id="Trazado_38309" data-name="Trazado 38309" d="M2552.913,1862.4s-.443-.084-1.179-.221c-2.548,1.6-12.642,5.275-11.645,16.436.692,7.761,9.08,9.824,15.345,7.591C2538.4,1881.673,2549.76,1863.356,2552.913,1862.4Z" transform="translate(-2540.02 -1862.177)" fill="#e5500e"/>
                </g>
              </g>
            </g>
          </g>
          <g id="Grupo_21478" data-name="Grupo 21478" transform="translate(380.867 309.092)">
            <g id="Grupo_21477" data-name="Grupo 21477">
              <path id="Trazado_38310" data-name="Trazado 38310" d="M4225.421,2384.654h-.647a1.366,1.366,0,0,1,0-2.732h.647a1.366,1.366,0,1,1,0,2.732Z" transform="translate(-4223.409 -2381.922)" fill="#232374"/>
            </g>
          </g>
          <g id="Grupo_21480" data-name="Grupo 21480" transform="translate(356.429 309.092)">
            <g id="Grupo_21479" data-name="Grupo 21479">
              <path id="Trazado_38311" data-name="Trazado 38311" d="M4056.188,2384.654h-16.076a1.366,1.366,0,0,1,0-2.732h16.076a1.366,1.366,0,0,1,0,2.732Z" transform="translate(-4038.746 -2381.922)" fill="#232374"/>
            </g>
          </g>
          <g id="Grupo_21586" data-name="Grupo 21586" transform="translate(210.165 220.06)">
            <g id="Grupo_21483" data-name="Grupo 21483" transform="translate(15.714 20.646)">
              <g id="Grupo_21482" data-name="Grupo 21482">
                <g id="Grupo_21481" data-name="Grupo 21481">
                  <path id="Trazado_38312" data-name="Trazado 38312" d="M3053.483,1875.216a1.553,1.553,0,0,1-.184-.013,1.24,1.24,0,0,1-1.042-1.407l1.135-7.583a1.238,1.238,0,1,1,2.448.365l-1.134,7.582A1.239,1.239,0,0,1,3053.483,1875.216Z" transform="translate(-3052.243 -1865.159)" fill="#ffc1a9"/>
                </g>
              </g>
            </g>
            <g id="Grupo_21502" data-name="Grupo 21502" transform="translate(66.19)">
              <g id="Grupo_21487" data-name="Grupo 21487" transform="translate(1.005 26.015)">
                <g id="Grupo_21486" data-name="Grupo 21486">
                  <g id="Grupo_21485" data-name="Grupo 21485">
                    <g id="Grupo_21484" data-name="Grupo 21484">
                      <path id="Trazado_38313" data-name="Trazado 38313" d="M3443.088,1933a4.333,4.333,0,0,0,4.918.054c7.157-4.819,7.976-17.75,5.4-24.536a4.326,4.326,0,0,0-8.088,3.076c1.572,4.13.712,12.364-2.144,14.284a4.33,4.33,0,0,0-.083,7.122Z" transform="translate(-3441.261 -1905.728)" fill="#ffc1a9"/>
                    </g>
                  </g>
                </g>
              </g>
              <g id="Grupo_21490" data-name="Grupo 21490" transform="translate(4.776 26.015)">
                <g id="Grupo_21489" data-name="Grupo 21489">
                  <g id="Grupo_21488" data-name="Grupo 21488">
                    <path id="Trazado_38314" data-name="Trazado 38314" d="M3472.542,1906.013a4.326,4.326,0,0,1,5.583,2.5,24.147,24.147,0,0,1,1.335,8.51c-1.893,1.694-4.015,2.521-6.146,1.455a5.62,5.62,0,0,1-2.543-3.065,13.453,13.453,0,0,0-.733-3.824A4.324,4.324,0,0,1,3472.542,1906.013Z" transform="translate(-3469.754 -1905.728)" fill="#f49e8e"/>
                  </g>
                </g>
              </g>
              <g id="Grupo_21493" data-name="Grupo 21493" transform="translate(3.06 15.289)">
                <g id="Grupo_21492" data-name="Grupo 21492">
                  <g id="Grupo_21491" data-name="Grupo 21491">
                    <path id="Trazado_38315" data-name="Trazado 38315" d="M3473.545,1832.032c-.339,3.416-5.917,17.414-12.446,14.544s-3.708-21.894-3.708-21.894,17.79-.134,16.971,3.608Z" transform="translate(-3456.787 -1824.682)" fill="#ffc1a9"/>
                  </g>
                </g>
              </g>
              <g id="Grupo_21496" data-name="Grupo 21496">
                <g id="Grupo_21495" data-name="Grupo 21495">
                  <g id="Grupo_21494" data-name="Grupo 21494">
                    <path id="Trazado_38316" data-name="Trazado 38316" d="M3451.131,1736.974c.074-.59,3.425-6.892.234-9.87s-7.179-1.463-11.023-.948c-11.436,1.532-4.783-19.667-4.473-16.728.973,9.258,23.443-2.09,21.854,12.843,8.7,6.167-7.565,18.191-7.565,18.191Z" transform="translate(-3433.665 -1709.147)" fill="#232374"/>
                  </g>
                </g>
              </g>
              <g id="Grupo_21498" data-name="Grupo 21498" transform="translate(1.177 0.003)">
                <g id="Grupo_21497" data-name="Grupo 21497">
                  <path id="Trazado_38317" data-name="Trazado 38317" d="M3468,1726.973a5.353,5.353,0,0,0-2.555-4.681c1.589-14.933-20.88-3.585-21.854-12.843-.046-.438-.234-.332-.481.146-1.1,5.354-1.193,13.688,6.13,12.708,3.844-.515,7.831-2.033,11.023.948,2.646,2.47.8,7.214.045,9.1a18.755,18.755,0,0,1-1.07,3.6l-.182.654S3465.33,1731.968,3468,1726.973Z" transform="translate(-3442.563 -1709.172)" fill="#373781"/>
                </g>
              </g>
              <g id="Grupo_21501" data-name="Grupo 21501" transform="translate(16.691 22.576)">
                <g id="Grupo_21500" data-name="Grupo 21500">
                  <g id="Grupo_21499" data-name="Grupo 21499">
                    <path id="Trazado_38318" data-name="Trazado 38318" d="M3560.773,1881.983c-1.009,1.6-1.287,3.238-.619,3.655s2.021-.537,3.03-2.138,1.284-3.236.621-3.657S3561.781,1880.383,3560.773,1881.983Z" transform="translate(-3559.791 -1879.745)" fill="#ffc1a9"/>
                  </g>
                </g>
              </g>
            </g>
            <g id="Grupo_21505" data-name="Grupo 21505" transform="translate(36.362 41.417)">
              <g id="Grupo_21504" data-name="Grupo 21504">
                <g id="Grupo_21503" data-name="Grupo 21503">
                  <path id="Trazado_38319" data-name="Trazado 38319" d="M3257.7,2070.7h-49.428s19.5-26.279,16.867-32.468-1.235-13.7,4.8-14.043,7.273-1.683,7.428-2.047,6.548,3.247,6.548,3.247l8.669,1.3s2.937-4.524,4.639-2.5,16.759,7.949,14.113,18.995S3265.346,2070.135,3257.7,2070.7Z" transform="translate(-3208.271 -2022.119)" fill="#146ecf"/>
                </g>
              </g>
            </g>
            <g id="Grupo_21508" data-name="Grupo 21508" transform="translate(10.912 24.562)">
              <g id="Grupo_21507" data-name="Grupo 21507">
                <g id="Grupo_21506" data-name="Grupo 21506">
                  <path id="Trazado_38320" data-name="Trazado 38320" d="M3055.892,1914.535a27.164,27.164,0,0,1-5.329-.634c-10.594-2.313-24.974-9.166-31.34-18.323-1.91-2.058-3.9.129-3.083,2.267a30.914,30.914,0,0,0,4.575,7.036,83.828,83.828,0,0,0,14.992,14.652c3.6,2.74,10.713,7.37,17.73,9.651A102.4,102.4,0,0,1,3055.892,1914.535Z" transform="translate(-3015.953 -1894.754)" fill="#ffc1a9"/>
                </g>
              </g>
            </g>
            <g id="Grupo_21511" data-name="Grupo 21511" transform="translate(46.206 43.49)">
              <g id="Grupo_21510" data-name="Grupo 21510">
                <g id="Grupo_21509" data-name="Grupo 21509">
                  <path id="Trazado_38321" data-name="Trazado 38321" d="M3296.022,2037.923c-2.162-.464-3.932.322-6.013.611a22.635,22.635,0,0,1-3.891.063c-1.779,4.253-2.407,9.736-3.464,13.892,6.881,2.68,14.032,3.524,18.041-1.519A8.231,8.231,0,0,0,3296.022,2037.923Z" transform="translate(-3282.654 -2037.78)" fill="#146ecf"/>
                </g>
              </g>
            </g>
            <g id="Grupo_21514" data-name="Grupo 21514" transform="translate(45.587 43.688)">
              <g id="Grupo_21513" data-name="Grupo 21513">
                <g id="Grupo_21512" data-name="Grupo 21512">
                  <path id="Trazado_38322" data-name="Trazado 38322" d="M3288.25,2056.547h0a27.931,27.931,0,0,1-9.877-2.184.619.619,0,0,1-.375-.729c.345-1.362.645-2.859.96-4.445a50.948,50.948,0,0,1,2.534-9.534.619.619,0,0,1,1.141.479,49.94,49.94,0,0,0-2.461,9.3c-.279,1.4-.544,2.73-.843,3.974a26.12,26.12,0,0,0,8.924,1.9.619.619,0,0,1,0,1.238Z" transform="translate(-3277.977 -2039.275)" fill="#232374"/>
                </g>
              </g>
            </g>
            <g id="Grupo_21518" data-name="Grupo 21518" transform="translate(64.269 38.251)">
              <g id="Grupo_21517" data-name="Grupo 21517">
                <g id="Grupo_21516" data-name="Grupo 21516">
                  <g id="Grupo_21515" data-name="Grupo 21515">
                    <path id="Trazado_38323" data-name="Trazado 38323" d="M3424.956,2009.05a13.206,13.206,0,0,0,4.631,1.345c4.5.471,8.65-1.25,10.582-4.387a3.361,3.361,0,1,0-5.723-3.525c-.472.769-2.156,1.436-4.154,1.226a5.285,5.285,0,0,1-4.615-3.286,3.361,3.361,0,0,0-6.332,2.258A11.361,11.361,0,0,0,3424.956,2009.05Z" transform="translate(-3419.148 -1998.19)" fill="#146ecf"/>
                  </g>
                </g>
              </g>
            </g>
            <g id="Grupo_21522" data-name="Grupo 21522" transform="translate(63.846 40.826)">
              <g id="Grupo_21521" data-name="Grupo 21521">
                <g id="Grupo_21520" data-name="Grupo 21520">
                  <g id="Grupo_21519" data-name="Grupo 21519">
                    <path id="Trazado_38324" data-name="Trazado 38324" d="M3428.272,2027.975a14.32,14.32,0,0,1-1.524-.081,13.783,13.783,0,0,1-4.848-1.408,12.055,12.055,0,0,1-5.913-6.712.619.619,0,0,1,1.166-.416,10.683,10.683,0,0,0,5.311,6.026,12.54,12.54,0,0,0,4.413,1.281c4.255.447,8.184-1.162,9.991-4.1a2.74,2.74,0,0,0-.9-3.774.619.619,0,0,1,.65-1.054,3.982,3.982,0,0,1,1.3,5.477C3436.091,2026.193,3432.405,2027.975,3428.272,2027.975Z" transform="translate(-3415.952 -2017.649)" fill="#232374"/>
                  </g>
                </g>
              </g>
            </g>
            <g id="Grupo_21544" data-name="Grupo 21544" transform="translate(5.64 19.681)">
              <g id="Grupo_21529" data-name="Grupo 21529">
                <g id="Grupo_21528" data-name="Grupo 21528">
                  <g id="Grupo_21527" data-name="Grupo 21527">
                    <g id="Grupo_21526" data-name="Grupo 21526">
                      <g id="Grupo_21525" data-name="Grupo 21525">
                        <g id="Grupo_21524" data-name="Grupo 21524">
                          <g id="Grupo_21523" data-name="Grupo 21523">
                            <path id="Trazado_38325" data-name="Trazado 38325" d="M2988.654,1865.481a6.333,6.333,0,1,1-4.923-7.48A6.331,6.331,0,0,1,2988.654,1865.481Z" transform="translate(-2976.117 -1857.87)" fill="#ffab00"/>
                          </g>
                        </g>
                      </g>
                    </g>
                  </g>
                </g>
              </g>
              <g id="Grupo_21536" data-name="Grupo 21536" transform="translate(0.789 0.791)">
                <g id="Grupo_21535" data-name="Grupo 21535">
                  <g id="Grupo_21534" data-name="Grupo 21534">
                    <g id="Grupo_21533" data-name="Grupo 21533">
                      <g id="Grupo_21532" data-name="Grupo 21532">
                        <g id="Grupo_21531" data-name="Grupo 21531">
                          <g id="Grupo_21530" data-name="Grupo 21530">
                            <path id="Trazado_38326" data-name="Trazado 38326" d="M2993.06,1870.507a5.546,5.546,0,1,1-4.313-6.547A5.55,5.55,0,0,1,2993.06,1870.507Z" transform="translate(-2982.082 -1863.844)" fill="#ffcb5c"/>
                          </g>
                        </g>
                      </g>
                    </g>
                  </g>
                </g>
              </g>
              <g id="Grupo_21543" data-name="Grupo 21543" transform="translate(3.795 1.378)">
                <g id="Grupo_21542" data-name="Grupo 21542">
                  <g id="Grupo_21541" data-name="Grupo 21541">
                    <g id="Grupo_21540" data-name="Grupo 21540">
                      <g id="Grupo_21539" data-name="Grupo 21539">
                        <g id="Grupo_21538" data-name="Grupo 21538">
                          <g id="Grupo_21537" data-name="Grupo 21537">
                            <path id="Trazado_38327" data-name="Trazado 38327" d="M3009.007,1875.766a2.2,2.2,0,0,1-.962,1.573,1.894,1.894,0,0,1-1.042.265l-.12.593-1.086-.222.128-.624a1.86,1.86,0,0,1-.984-1.144,3.242,3.242,0,0,1-.109-1.5l1.238.165a1.863,1.863,0,0,0,.167,1.148.658.658,0,0,0,.478.344.813.813,0,0,0,.75-.275,1.1,1.1,0,0,0,.245-.529,1.628,1.628,0,0,0-.259-1.146c-.2-.3-.508-.727-.914-1.31a4.686,4.686,0,0,1-.643-1.2,2.56,2.56,0,0,1-.07-1.326,2.4,2.4,0,0,1,.556-1.134,1.708,1.708,0,0,1,1.3-.614l.111-.55,1.086.224-.113.551a1.847,1.847,0,0,1,.755.6,2.132,2.132,0,0,1,.36,1.587l-1.27-.032a1.493,1.493,0,0,0-.131-.877.59.59,0,0,0-.454-.3.575.575,0,0,0-.595.2,1.174,1.174,0,0,0-.275.591,1.9,1.9,0,0,0,.251,1.284,4.411,4.411,0,0,0,.453.645c.246.306.406.524.485.645a4.476,4.476,0,0,1,.525,1.074A2.68,2.68,0,0,1,3009.007,1875.766Z" transform="translate(-3004.792 -1868.281)" fill="#ffab00"/>
                          </g>
                        </g>
                      </g>
                    </g>
                  </g>
                </g>
              </g>
            </g>
            <g id="Grupo_21547" data-name="Grupo 21547" transform="translate(4.706 19.194)">
              <g id="Grupo_21546" data-name="Grupo 21546">
                <g id="Grupo_21545" data-name="Grupo 21545">
                  <path id="Trazado_38328" data-name="Trazado 38328" d="M2973.63,1858.713c-.73.653-3.59,2.079-4.33,1.186s.381-3.371,1.648-4.421,3.629-1.784,4.369-.892S2974.358,1858.06,2973.63,1858.713Z" transform="translate(-2969.063 -1854.186)" fill="#ffc1a9"/>
                </g>
              </g>
            </g>
            <g id="Grupo_21549" data-name="Grupo 21549" transform="translate(37.684 63.069)">
              <g id="Grupo_21548" data-name="Grupo 21548">
                <path id="Trazado_38329" data-name="Trazado 38329" d="M3263.779,2185.731c-4.717,11.554-20.51,18.045-40.993,18.565-1.816,2.723-3.45,5.045-4.526,6.548,5.77-.418,15.186-1.118,15.814-1.275.91-.227,22.989-1.326,23.672-2.2s15.636-10.433,15.636-10.433Z" transform="translate(-3218.26 -2185.731)" fill="#0058cb"/>
              </g>
            </g>
            <g id="Grupo_21552" data-name="Grupo 21552" transform="translate(11.627 13.549)">
              <g id="Grupo_21551" data-name="Grupo 21551">
                <g id="Grupo_21550" data-name="Grupo 21550">
                  <path id="Trazado_38330" data-name="Trazado 38330" d="M3021.978,1815.282a.619.619,0,0,1-.62-.619v-2.514a.619.619,0,0,1,1.239,0v2.514A.619.619,0,0,1,3021.978,1815.282Z" transform="translate(-3021.358 -1811.53)" fill="#ffab00"/>
                </g>
              </g>
            </g>
            <g id="Grupo_21555" data-name="Grupo 21555" transform="translate(4.611 15.652)">
              <g id="Grupo_21554" data-name="Grupo 21554">
                <g id="Grupo_21553" data-name="Grupo 21553">
                  <path id="Trazado_38331" data-name="Trazado 38331" d="M2970.439,1830.688a.615.615,0,0,1-.5-.255l-1.477-2.032a.619.619,0,0,1,1-.729l1.478,2.032a.619.619,0,0,1-.5.983Z" transform="translate(-2968.343 -1827.418)" fill="#ffab00"/>
                </g>
              </g>
            </g>
            <g id="Grupo_21558" data-name="Grupo 21558" transform="translate(0.169 21.475)">
              <g id="Grupo_21557" data-name="Grupo 21557">
                <g id="Grupo_21556" data-name="Grupo 21556">
                  <path id="Trazado_38332" data-name="Trazado 38332" d="M2937.788,1873.44a.6.6,0,0,1-.191-.031l-2.39-.775a.619.619,0,0,1,.382-1.177l2.39.775a.619.619,0,0,1-.191,1.208Z" transform="translate(-2934.779 -1871.427)" fill="#ffab00"/>
                </g>
              </g>
            </g>
            <g id="Grupo_21561" data-name="Grupo 21561" transform="translate(0 28.02)">
              <g id="Grupo_21560" data-name="Grupo 21560">
                <g id="Grupo_21559" data-name="Grupo 21559">
                  <path id="Trazado_38333" data-name="Trazado 38333" d="M2934.119,1922.9a.619.619,0,0,1-.192-1.208l2.388-.777a.619.619,0,0,1,.384,1.177l-2.389.777A.613.613,0,0,1,2934.119,1922.9Z" transform="translate(-2933.499 -1920.881)" fill="#ffab00"/>
                </g>
              </g>
            </g>
            <g id="Grupo_21564" data-name="Grupo 21564" transform="translate(4.166 32.789)">
              <g id="Grupo_21563" data-name="Grupo 21563">
                <g id="Grupo_21562" data-name="Grupo 21562">
                  <path id="Trazado_38334" data-name="Trazado 38334" d="M2965.6,1960.187a.618.618,0,0,1-.5-.982l1.477-2.033a.619.619,0,1,1,1,.728l-1.478,2.033A.616.616,0,0,1,2965.6,1960.187Z" transform="translate(-2964.981 -1956.916)" fill="#ffab00"/>
                </g>
              </g>
            </g>
            <g id="Grupo_21567" data-name="Grupo 21567" transform="translate(11.079 34.735)">
              <g id="Grupo_21566" data-name="Grupo 21566">
                <g id="Grupo_21565" data-name="Grupo 21565">
                  <path id="Trazado_38335" data-name="Trazado 38335" d="M3017.836,1975.37a.618.618,0,0,1-.618-.62v-2.512a.619.619,0,1,1,1.237,0v2.512A.619.619,0,0,1,3017.836,1975.37Z" transform="translate(-3017.217 -1971.619)" fill="#ffab00"/>
                </g>
              </g>
            </g>
            <g id="Grupo_21570" data-name="Grupo 21570" transform="translate(20.147 28.544)">
              <g id="Grupo_21569" data-name="Grupo 21569">
                <g id="Grupo_21568" data-name="Grupo 21568">
                  <path id="Trazado_38336" data-name="Trazado 38336" d="M3088.747,1926.856a.617.617,0,0,1-.192-.031l-2.389-.778a.619.619,0,1,1,.384-1.177l2.39.778a.619.619,0,0,1-.192,1.208Z" transform="translate(-3085.737 -1924.839)" fill="#ffab00"/>
                </g>
              </g>
            </g>
            <g id="Grupo_21573" data-name="Grupo 21573" transform="translate(20.317 22.001)">
              <g id="Grupo_21572" data-name="Grupo 21572">
                <g id="Grupo_21571" data-name="Grupo 21571">
                  <path id="Trazado_38337" data-name="Trazado 38337" d="M3087.642,1877.408a.619.619,0,0,1-.191-1.208l2.392-.775a.619.619,0,0,1,.382,1.178l-2.392.774A.652.652,0,0,1,3087.642,1877.408Z" transform="translate(-3087.022 -1875.395)" fill="#ffab00"/>
                </g>
              </g>
            </g>
            <g id="Grupo_21576" data-name="Grupo 21576" transform="translate(17.063 15.975)">
              <g id="Grupo_21575" data-name="Grupo 21575">
                <g id="Grupo_21574" data-name="Grupo 21574">
                  <path id="Trazado_38338" data-name="Trazado 38338" d="M3063.056,1833.132a.619.619,0,0,1-.5-.983l1.479-2.031a.619.619,0,1,1,1,.727l-1.48,2.033A.618.618,0,0,1,3063.056,1833.132Z" transform="translate(-3062.438 -1829.862)" fill="#ffab00"/>
                </g>
              </g>
            </g>
            <g id="Grupo_21579" data-name="Grupo 21579" transform="translate(39.661 69.741)">
              <g id="Grupo_21578" data-name="Grupo 21578">
                <g id="Grupo_21577" data-name="Grupo 21577">
                  <path id="Trazado_38339" data-name="Trazado 38339" d="M3283.338,2237.036a2.109,2.109,0,0,1-1.529-.59c-2.035-.047-4.066-.184-6.1-.3a9.829,9.829,0,0,1-2.2,3.8c-8.951,9.608-26.395,10.341-38.627,11.38a1.882,1.882,0,0,0-.967,3.349c.837.636,2.583.565,3.511.677,3.344.394,6.7.742,10.058.9,7.873.357,15.793.246,23.468-1.744,7.061-1.83,14.35-5.784,18.122-12.291a41.734,41.734,0,0,0,2.569-5.177Z" transform="translate(-3233.195 -2236.146)" fill="#ffc1a9"/>
                </g>
              </g>
            </g>
            <g id="Grupo_21582" data-name="Grupo 21582" transform="translate(81.724 55.387)">
              <g id="Grupo_21581" data-name="Grupo 21581">
                <g id="Grupo_21580" data-name="Grupo 21580">
                  <path id="Trazado_38340" data-name="Trazado 38340" d="M3566.32,2145.384c1.837-3.69,3.414-8.23,2.333-11.954-1.96-6.753-11.387-7.85-14.86-1.742-2.195,3.862-1.015,7.754-2.748,11.538C3556.146,2143.855,3561.228,2144.673,3566.32,2145.384Z" transform="translate(-3551.044 -2127.677)" fill="#146ecf"/>
                </g>
              </g>
            </g>
            <g id="Grupo_21585" data-name="Grupo 21585" transform="translate(81.104 60.52)">
              <g id="Grupo_21584" data-name="Grupo 21584">
                <g id="Grupo_21583" data-name="Grupo 21583">
                  <path id="Trazado_38341" data-name="Trazado 38341" d="M3562.259,2179.662a.614.614,0,0,1-.086-.007c-1.841-.258-3.682-.528-5.522-.8-3.191-.47-6.492-.958-9.744-1.358a.617.617,0,0,1-.538-.689.608.608,0,0,1,.691-.538c3.265.4,6.573.889,9.772,1.361,1.69.249,3.38.5,5.069.735,2.208-4.559,2.914-8.293,2.1-11.105a.62.62,0,0,1,1.19-.345c.928,3.2.131,7.374-2.375,12.4A.618.618,0,0,1,3562.259,2179.662Z" transform="translate(-3546.364 -2166.47)" fill="#232374"/>
                </g>
              </g>
            </g>
          </g>
          <g id="Grupo_21588" data-name="Grupo 21588" transform="translate(30.988 309.092)">
            <g id="Grupo_21587" data-name="Grupo 21587">
              <path id="Trazado_38342" data-name="Trazado 38342" d="M1895.6,2384.654H1580.91a1.366,1.366,0,1,1,0-2.732H1895.6a1.366,1.366,0,0,1,0,2.732Z" transform="translate(-1579.544 -2381.922)" fill="#232374"/>
            </g>
          </g>
          <g id="Grupo_21591" data-name="Grupo 21591" transform="translate(239.723 304.8)">
            <g id="Grupo_21590" data-name="Grupo 21590">
              <g id="Grupo_21589" data-name="Grupo 21589">
                <path id="Trazado_38343" data-name="Trazado 38343" d="M3157.057,2356.788c-1.507-3.969,5.508-7.05,13.662-7.289s5.134,3.623.97,4.141-4.986,2.325-9.267,3.716C3159.459,2358.316,3157.623,2358.283,3157.057,2356.788Z" transform="translate(-3156.852 -2349.488)" fill="#ffc1a9"/>
              </g>
            </g>
          </g>
        </g>
      </g>
    </g>
  </g>
</svg>
