<svg id="Grupo_18142" data-name="Grupo 18142" xmlns="http://www.w3.org/2000/svg" width="134.288" height="134.288" viewBox="0 0 134.288 134.288">
  <circle id="Elipse_992" data-name="Elipse 992" cx="67.144" cy="67.144" r="67.144" fill="#f4c80f"/>
  <g id="Grupo_18141" data-name="Grupo 18141" transform="translate(12.504 39.146)">
    <g id="Grupo_18137" data-name="Grupo 18137" transform="translate(18.104 12.066)">
      <circle id="Elipse_993" data-name="Elipse 993" cx="7.745" cy="7.745" r="7.745" transform="translate(57.583)" fill="#441620"/>
      <circle id="Elipse_994" data-name="Elipse 994" cx="7.745" cy="7.745" r="7.745" transform="translate(0)" fill="#441620"/>
    </g>
    <path id="Trazado_37078" data-name="Trazado 37078" d="M138.744,408.705l8.205-19.464,8.207,19.464a9.066,9.066,0,1,1-16.412,0Z" transform="translate(-137.887 -356.149)" fill="#06d7f9"/>
    <g id="Grupo_18140" data-name="Grupo 18140" transform="translate(9.062)">
      <g id="Grupo_18138" data-name="Grupo 18138" transform="translate(72.552)">
        <path id="Trazado_37079" data-name="Trazado 37079" d="M98.919,381.709a2.225,2.225,0,0,0,.663-4.349c-.122-.039-9.077-2.926-12.906-9.344a2.225,2.225,0,0,0-3.822,2.28c4.718,7.909,14.969,11.177,15.4,11.311A2.2,2.2,0,0,0,98.919,381.709Z" transform="translate(-82.54 -366.93)" fill="#441620"/>
      </g>
      <g id="Grupo_18139" data-name="Grupo 18139">
        <path id="Trazado_37080" data-name="Trazado 37080" d="M133.68,381.709a2.225,2.225,0,0,1-.663-4.349c.122-.039,9.077-2.926,12.907-9.344a2.225,2.225,0,0,1,3.821,2.28c-4.718,7.909-14.969,11.177-15.4,11.311A2.2,2.2,0,0,1,133.68,381.709Z" transform="translate(-131.455 -366.93)" fill="#441620"/>
      </g>
    </g>
    <path id="Trazado_37081" data-name="Trazado 37081" d="M93.871,415.331c.35-.62,8.815-15.176,28.911-15.176s28.561,14.556,28.911,15.176a2.22,2.22,0,0,1-.837,3.024,2.2,2.2,0,0,1-1.1.294,2.235,2.235,0,0,1-1.936-1.121c-.3-.528-7.616-12.923-25.041-12.923S98.044,417,97.744,417.522a2.225,2.225,0,0,1-3.873-2.191Z" transform="translate(-68.142 -350.875)" fill="#441620"/>
  </g>
</svg>
