<svg xmlns="http://www.w3.org/2000/svg" width="502" height="488" viewBox="0 0 502 488">
  <g id="Grupo_18382" data-name="Grupo 18382" transform="translate(-717 -8116)">
    <path id="Trazado_37489" data-name="Trazado 37489" d="M165.5,0A165.5,165.5,0,1,1,0,165.5,165.5,165.5,0,0,1,165.5,0Z" transform="translate(795 8215)" fill="#aee6ea"/>
    <path id="Trazado_37492" data-name="Trazado 37492" d="M56.866,8.211a1.389,1.389,0,0,1,1.02-.422,1.4,1.4,0,0,1,1.024.422,1.438,1.438,0,0,1,0,2.043,1.411,1.411,0,0,1-1.024.417A1.433,1.433,0,0,1,56.453,9.23,1.4,1.4,0,0,1,56.866,8.211Zm2.074,3.674v.949a2.1,2.1,0,0,1-.215.984,1.969,1.969,0,0,1-.558.672,6.162,6.162,0,0,1-.94.558,1.9,1.9,0,0,0-1.09,1.846,1.7,1.7,0,0,0,1.819,1.863,1.8,1.8,0,0,0,1.327-.5,1.756,1.756,0,0,0,.5-1.305,3.452,3.452,0,0,0-.105-.773l2.268.29a5.8,5.8,0,0,1,.044.659,3.507,3.507,0,0,1-1.107,2.681,4.059,4.059,0,0,1-2.892,1.037,4.179,4.179,0,0,1-2.944-1.059A3.665,3.665,0,0,1,53.9,16.956a4.182,4.182,0,0,1,.193-1.31,2.969,2.969,0,0,1,.527-.989A3.613,3.613,0,0,1,55.324,14a3.764,3.764,0,0,1,.813-.426,1.371,1.371,0,0,0,.58-.391.955.955,0,0,0,.185-.611v-.686Zm11.039,5.291a7.089,7.089,0,0,1-2.588-.466,6.087,6.087,0,0,1-2.061-1.3,5.864,5.864,0,0,1-1.354-2.065,7.2,7.2,0,0,1-.492-2.7,6.879,6.879,0,0,1,.844-3.45,5.744,5.744,0,0,1,2.316-2.281,6.935,6.935,0,0,1,3.335-.791,6.739,6.739,0,0,1,3.727,1.028,5.629,5.629,0,0,1,2.276,2.83l-2.461.9a3.479,3.479,0,0,0-1.362-1.714,3.891,3.891,0,0,0-2.18-.615A3.73,3.73,0,0,0,67.2,7.657a4.075,4.075,0,0,0-1.09,2.988,4.081,4.081,0,0,0,1.094,2.993,3.726,3.726,0,0,0,2.773,1.112,3.876,3.876,0,0,0,2.175-.62,3.5,3.5,0,0,0,1.367-1.718l2.461.9a5.652,5.652,0,0,1-2.276,2.834A6.718,6.718,0,0,1,69.979,17.176ZM83.8,7.965h2.531V17h-2.4l-.062-1.09a3.45,3.45,0,0,1-2.874,1.266,3.522,3.522,0,0,1-2.5-.813,3.014,3.014,0,0,1-.87-2.316V7.965h2.54V13.5a1.562,1.562,0,0,0,.453,1.239,1.718,1.718,0,0,0,1.173.4,2.038,2.038,0,0,0,1.437-.514,2.209,2.209,0,0,0,.567-1.674ZM95.371,4.37l-2,2.355H91.82l2.3-3.234Zm.984,10.178a8.453,8.453,0,0,0,.22,2.206V17H94.211l-.2-.984a2.938,2.938,0,0,1-1.266.87,4.664,4.664,0,0,1-1.635.29,4.3,4.3,0,0,1-.844-.079,2.868,2.868,0,0,1-.76-.268,2.307,2.307,0,0,1-.628-.47,2.062,2.062,0,0,1-.422-.716,2.853,2.853,0,0,1-.158-.98,2.718,2.718,0,0,1,.167-.98,2.3,2.3,0,0,1,.439-.734,2.666,2.666,0,0,1,.712-.536,5.447,5.447,0,0,1,.9-.387,10.712,10.712,0,0,1,1.072-.281l1.485-.334a1.638,1.638,0,0,0,.672-.286.57.57,0,0,0,.2-.453.932.932,0,0,0-.444-.87,2.072,2.072,0,0,0-1.077-.264,1.549,1.549,0,0,0-1.767,1.38l-2.241-.4a3.034,3.034,0,0,1,1.31-2.061,5.2,5.2,0,0,1,2.839-.664q3.8,0,3.8,3.261Zm-4.456.914a2.036,2.036,0,0,0,1.564-.655,2.759,2.759,0,0,0,.606-1.938l-2.145.606a2.534,2.534,0,0,0-.9.369.758.758,0,0,0-.312.65.842.842,0,0,0,.334.716A1.382,1.382,0,0,0,91.9,15.462ZM98.816,17V3.5h2.558V17Zm18.352-4.649-.026.606h-6.7a2.339,2.339,0,0,0,.721,1.652,2.3,2.3,0,0,0,1.591.571,2.221,2.221,0,0,0,1.191-.312,1.918,1.918,0,0,0,.76-.91l2.32.343a3.945,3.945,0,0,1-1.582,2.118,4.7,4.7,0,0,1-2.672.756,4.891,4.891,0,0,1-3.52-1.244,4.538,4.538,0,0,1-1.305-3.45,4.565,4.565,0,0,1,1.31-3.45,4.746,4.746,0,0,1,3.437-1.261,4.536,4.536,0,0,1,3.243,1.151A4.517,4.517,0,0,1,117.168,12.351Zm-4.456-2.786a2,2,0,0,0-2.2,1.74h4.148a1.9,1.9,0,0,0-.624-1.292A1.978,1.978,0,0,0,112.712,9.564Zm9.563,7.611a5.049,5.049,0,0,1-2.637-.633,2.675,2.675,0,0,1-1.292-1.881l2.118-.6a1.7,1.7,0,0,0,1.811,1.345,1.87,1.87,0,0,0,.923-.207.719.719,0,0,0,.36-.7.739.739,0,0,0-.149-.466,1.183,1.183,0,0,0-.461-.334,5.749,5.749,0,0,0-.615-.237q-.3-.1-.8-.233t-.835-.259a5.593,5.593,0,0,1-.8-.338,3.393,3.393,0,0,1-.659-.466,1.878,1.878,0,0,1-.492-.708,2.552,2.552,0,0,1-.171-.967,2.308,2.308,0,0,1,.98-2.021,4.379,4.379,0,0,1,2.562-.686,4.489,4.489,0,0,1,2.364.58,2.625,2.625,0,0,1,1.213,1.811l-1.96.439a1.535,1.535,0,0,0-1.608-1.143,1.761,1.761,0,0,0-.888.2.649.649,0,0,0-.352.6.685.685,0,0,0,.053.272.539.539,0,0,0,.185.22,2.692,2.692,0,0,0,.255.167,1.923,1.923,0,0,0,.36.145q.237.075.4.114l.461.119.47.123q.483.132.848.264a4.967,4.967,0,0,1,.778.369,2.792,2.792,0,0,1,.681.532,2.372,2.372,0,0,1,.444.747,2.759,2.759,0,0,1,.176,1.006,2.718,2.718,0,0,1-.3,1.31,2.276,2.276,0,0,1-.831.883,4.043,4.043,0,0,1-1.173.475A6.087,6.087,0,0,1,122.274,17.176Zm20.918-9.387a3.452,3.452,0,0,1,2.329.734,2.626,2.626,0,0,1,.853,2.1V17h-2.531V11.349a1.509,1.509,0,0,0-.4-1.143,1.416,1.416,0,0,0-1.02-.387,1.633,1.633,0,0,0-1.23.492,2.235,2.235,0,0,0-.475,1.591V17h-2.558V11.375a1.549,1.549,0,0,0-.4-1.165,1.441,1.441,0,0,0-1.046-.391,1.581,1.581,0,0,0-1.222.519,2.476,2.476,0,0,0-.475,1.7V17h-2.522V7.965h2.522V9.028a3.072,3.072,0,0,1,2.619-1.239,3.863,3.863,0,0,1,1.7.347A2.315,2.315,0,0,1,140.4,9.143,3.2,3.2,0,0,1,143.192,7.789Zm6.935-1.178a1.421,1.421,0,0,1-1.037-.426,1.4,1.4,0,0,1-.431-1.033,1.382,1.382,0,0,1,.435-1.024,1.425,1.425,0,0,1,1.033-.426,1.463,1.463,0,0,1,1.45,1.45,1.463,1.463,0,0,1-1.45,1.459ZM148.835,17V7.965h2.549V17ZM26.25,47.167a4.827,4.827,0,0,1-3.489-1.3,4.934,4.934,0,0,1,0-6.785,4.842,4.842,0,0,1,3.494-1.292,4.814,4.814,0,0,1,2.927.87,3.885,3.885,0,0,1,1.512,2.452l-2.338.255a2,2,0,0,0-.756-1.187,2.3,2.3,0,0,0-1.371-.4,2.072,2.072,0,0,0-1.652.738,3.318,3.318,0,0,0,0,3.9,2.067,2.067,0,0,0,1.652.743,2.278,2.278,0,0,0,1.367-.4,2.05,2.05,0,0,0,.76-1.187l2.338.255a3.9,3.9,0,0,1-1.525,2.452A4.8,4.8,0,0,1,26.25,47.167Zm10.45.009a5.681,5.681,0,0,1-2.558-.554A4.138,4.138,0,0,1,32.389,45a4.846,4.846,0,0,1-.637-2.522,4.42,4.42,0,0,1,1.371-3.428A5.086,5.086,0,0,1,36.7,37.789a5.1,5.1,0,0,1,3.586,1.257,4.42,4.42,0,0,1,1.371,3.428,4.444,4.444,0,0,1-1.371,3.441A5.088,5.088,0,0,1,36.7,47.176Zm-.026-2.013a2.319,2.319,0,0,0,1.789-.738,3.135,3.135,0,0,0,0-3.9,2.319,2.319,0,0,0-1.789-.738,2.234,2.234,0,0,0-1.736.743,3.155,3.155,0,0,0,0,3.894A2.234,2.234,0,0,0,36.673,45.163Zm17.569-7.374a3.452,3.452,0,0,1,2.329.734,2.626,2.626,0,0,1,.853,2.1V47H54.893V41.349a1.509,1.509,0,0,0-.4-1.143,1.416,1.416,0,0,0-1.02-.387,1.633,1.633,0,0,0-1.23.492,2.235,2.235,0,0,0-.475,1.591V47H49.207V41.375a1.549,1.549,0,0,0-.4-1.165,1.441,1.441,0,0,0-1.046-.391,1.581,1.581,0,0,0-1.222.519,2.476,2.476,0,0,0-.475,1.7V47H43.538V37.965H46.06v1.063a3.072,3.072,0,0,1,2.619-1.239,3.863,3.863,0,0,1,1.7.347,2.315,2.315,0,0,1,1.068,1.006A3.2,3.2,0,0,1,54.243,37.789Zm10.942,0a4.394,4.394,0,0,1,1.688.325,4.223,4.223,0,0,1,1.384.914,4.135,4.135,0,0,1,.936,1.49,5.9,5.9,0,0,1,0,3.964,4.135,4.135,0,0,1-.936,1.49,4.223,4.223,0,0,1-1.384.914,4.394,4.394,0,0,1-1.687.325,3.921,3.921,0,0,1-1.635-.334,2.562,2.562,0,0,1-1.134-.949v5.467H59.885V37.965h2.4l.07,1.213a2.475,2.475,0,0,1,1.129-1.024A3.881,3.881,0,0,1,65.185,37.789Zm-.571,7.321a2.274,2.274,0,0,0,1.709-.708,3,3,0,0,0,0-3.806,2.419,2.419,0,0,0-3.432.013,2.947,2.947,0,0,0,0,3.779A2.278,2.278,0,0,0,64.614,45.11ZM73.869,39.4a2.933,2.933,0,0,1,1.187-1.085,3.62,3.62,0,0,1,1.767-.453v2.259a3.423,3.423,0,0,0-2.162.545,2.379,2.379,0,0,0-.668,1.934V47H71.443V37.965h2.426Zm8.6,7.778a5.681,5.681,0,0,1-2.558-.554A4.138,4.138,0,0,1,78.153,45a4.846,4.846,0,0,1-.637-2.522,4.42,4.42,0,0,1,1.371-3.428,5.731,5.731,0,0,1,7.163,0,4.42,4.42,0,0,1,1.371,3.428,4.444,4.444,0,0,1-1.371,3.441A5.088,5.088,0,0,1,82.464,47.176Zm-.026-2.013a2.319,2.319,0,0,0,1.789-.738,3.135,3.135,0,0,0,0-3.9,2.319,2.319,0,0,0-1.789-.738,2.234,2.234,0,0,0-1.736.743,3.155,3.155,0,0,0,0,3.894A2.234,2.234,0,0,0,82.438,45.163Zm17.569-7.374a3.452,3.452,0,0,1,2.329.734,2.626,2.626,0,0,1,.853,2.1V47h-2.531V41.349a1.509,1.509,0,0,0-.4-1.143,1.416,1.416,0,0,0-1.02-.387,1.633,1.633,0,0,0-1.23.492,2.235,2.235,0,0,0-.475,1.591V47H94.971V41.375a1.549,1.549,0,0,0-.4-1.165,1.441,1.441,0,0,0-1.046-.391,1.581,1.581,0,0,0-1.222.519,2.476,2.476,0,0,0-.475,1.7V47H89.3V37.965h2.522v1.063a3.072,3.072,0,0,1,2.619-1.239,3.863,3.863,0,0,1,1.7.347,2.315,2.315,0,0,1,1.068,1.006A3.2,3.2,0,0,1,100.007,37.789Zm6.935-1.178a1.421,1.421,0,0,1-1.037-.426,1.4,1.4,0,0,1-.431-1.033,1.382,1.382,0,0,1,.435-1.024,1.425,1.425,0,0,1,1.033-.426,1.455,1.455,0,0,1,0,2.909ZM105.65,47V37.965H108.2V47Zm8.35.176a5.049,5.049,0,0,1-2.637-.633,2.675,2.675,0,0,1-1.292-1.881l2.118-.6A1.7,1.7,0,0,0,114,45.409a1.87,1.87,0,0,0,.923-.207.719.719,0,0,0,.36-.7.739.739,0,0,0-.149-.466,1.183,1.183,0,0,0-.461-.334,5.749,5.749,0,0,0-.615-.237q-.3-.1-.8-.233t-.835-.259a5.593,5.593,0,0,1-.8-.338,3.393,3.393,0,0,1-.659-.466,1.878,1.878,0,0,1-.492-.708,2.552,2.552,0,0,1-.171-.967,2.308,2.308,0,0,1,.98-2.021,4.379,4.379,0,0,1,2.562-.686,4.489,4.489,0,0,1,2.364.58,2.625,2.625,0,0,1,1.213,1.811l-1.96.439a1.535,1.535,0,0,0-1.608-1.143,1.761,1.761,0,0,0-.888.2.649.649,0,0,0-.352.6.685.685,0,0,0,.053.272.539.539,0,0,0,.185.22,2.692,2.692,0,0,0,.255.167,1.923,1.923,0,0,0,.36.145q.237.075.4.114l.461.119.47.123q.483.132.848.264a4.967,4.967,0,0,1,.778.369,2.792,2.792,0,0,1,.681.532,2.372,2.372,0,0,1,.444.747,2.759,2.759,0,0,1,.176,1.006,2.718,2.718,0,0,1-.3,1.31,2.276,2.276,0,0,1-.831.883,4.043,4.043,0,0,1-1.173.475A6.087,6.087,0,0,1,114,47.176Zm9.747,0a5.681,5.681,0,0,1-2.558-.554A4.138,4.138,0,0,1,119.436,45a4.846,4.846,0,0,1-.637-2.522,4.42,4.42,0,0,1,1.371-3.428,5.731,5.731,0,0,1,7.163,0,4.42,4.42,0,0,1,1.371,3.428,4.444,4.444,0,0,1-1.371,3.441A5.088,5.088,0,0,1,123.747,47.176Zm-.026-2.013a2.319,2.319,0,0,0,1.789-.738,3.135,3.135,0,0,0,0-3.9,2.319,2.319,0,0,0-1.789-.738,2.234,2.234,0,0,0-1.736.743,3.155,3.155,0,0,0,0,3.894A2.234,2.234,0,0,0,123.72,45.163Zm20.039-2.812-.026.606h-6.7a2.339,2.339,0,0,0,.721,1.652,2.3,2.3,0,0,0,1.591.571,2.221,2.221,0,0,0,1.191-.312,1.918,1.918,0,0,0,.76-.91l2.32.343a3.945,3.945,0,0,1-1.582,2.118,4.7,4.7,0,0,1-2.672.756,4.891,4.891,0,0,1-3.52-1.244,4.538,4.538,0,0,1-1.305-3.45,4.565,4.565,0,0,1,1.31-3.45,4.746,4.746,0,0,1,3.437-1.261,4.136,4.136,0,0,1,4.474,4.579ZM139.3,39.564a2,2,0,0,0-2.2,1.74h4.148a1.9,1.9,0,0,0-.624-1.292A1.978,1.978,0,0,0,139.3,39.564Zm11.716-1.775a3.522,3.522,0,0,1,2.5.813,3.014,3.014,0,0,1,.87,2.316V47h-2.54V41.463a1.574,1.574,0,0,0-.453-1.248,1.705,1.705,0,0,0-1.165-.4,2.379,2.379,0,0,0-.756.114,1.942,1.942,0,0,0-.633.356,1.573,1.573,0,0,0-.453.681,3.15,3.15,0,0,0-.171,1.046V47h-2.531V37.965h2.531v1A3.481,3.481,0,0,1,151.019,37.789ZM161.513,47V33.5h2.558V47Zm9.387.176a5.681,5.681,0,0,1-2.558-.554A4.138,4.138,0,0,1,166.589,45a4.846,4.846,0,0,1-.637-2.522,4.42,4.42,0,0,1,1.371-3.428,5.731,5.731,0,0,1,7.163,0,4.42,4.42,0,0,1,1.371,3.428,4.444,4.444,0,0,1-1.371,3.441A5.088,5.088,0,0,1,170.9,47.176Zm-.026-2.013a2.319,2.319,0,0,0,1.789-.738,3.135,3.135,0,0,0,0-3.9,2.319,2.319,0,0,0-1.789-.738,2.234,2.234,0,0,0-1.736.743,3.155,3.155,0,0,0,0,3.894A2.234,2.234,0,0,0,170.874,45.163Zm10.046,2.013a5.049,5.049,0,0,1-2.637-.633,2.675,2.675,0,0,1-1.292-1.881l2.118-.6a1.7,1.7,0,0,0,1.811,1.345,1.87,1.87,0,0,0,.923-.207.719.719,0,0,0,.36-.7.739.739,0,0,0-.149-.466,1.183,1.183,0,0,0-.461-.334,5.749,5.749,0,0,0-.615-.237q-.3-.1-.8-.233t-.835-.259a5.593,5.593,0,0,1-.8-.338,3.393,3.393,0,0,1-.659-.466,1.878,1.878,0,0,1-.492-.708,2.552,2.552,0,0,1-.171-.967,2.308,2.308,0,0,1,.98-2.021,4.379,4.379,0,0,1,2.562-.686,4.489,4.489,0,0,1,2.364.58,2.625,2.625,0,0,1,1.213,1.811l-1.96.439a1.535,1.535,0,0,0-1.608-1.143,1.761,1.761,0,0,0-.888.2.649.649,0,0,0-.352.6.685.685,0,0,0,.053.272.539.539,0,0,0,.185.22,2.692,2.692,0,0,0,.255.167,1.923,1.923,0,0,0,.36.145q.237.075.4.114l.461.119.47.123q.483.132.848.264a4.967,4.967,0,0,1,.778.369,2.792,2.792,0,0,1,.681.532,2.372,2.372,0,0,1,.444.747,2.759,2.759,0,0,1,.176,1.006,2.718,2.718,0,0,1-.3,1.31,2.276,2.276,0,0,1-.831.883,4.043,4.043,0,0,1-1.173.475A6.087,6.087,0,0,1,180.919,47.176ZM25.625,63.5h2.531V77h-2.4L25.7,75.822a2.58,2.58,0,0,1-1.147,1.024,3.861,3.861,0,0,1-1.692.365,4.394,4.394,0,0,1-1.687-.325,4.064,4.064,0,0,1-2.32-2.408,5.5,5.5,0,0,1-.343-1.978,5.137,5.137,0,0,1,.6-2.518,4.1,4.1,0,0,1,1.578-1.639,4.345,4.345,0,0,1,2.175-.554,3.957,3.957,0,0,1,1.639.33,2.559,2.559,0,0,1,1.129.936ZM23.437,75.11a2.253,2.253,0,0,0,1.709-.721,2.96,2.96,0,0,0,0-3.784,2.251,2.251,0,0,0-1.705-.725,2.277,2.277,0,0,0-1.718.712,3,3,0,0,0,0,3.806A2.277,2.277,0,0,0,23.437,75.11Zm8.631-8.5a1.421,1.421,0,0,1-1.037-.426,1.4,1.4,0,0,1-.431-1.033,1.382,1.382,0,0,1,.435-1.024,1.425,1.425,0,0,1,1.033-.426,1.455,1.455,0,0,1,0,2.909ZM30.776,77V67.965h2.549V77ZM41.042,65.521h-.053q-.246,0-.374,0t-.36.031a1.459,1.459,0,0,0-.365.079,1.859,1.859,0,0,0-.3.163.809.809,0,0,0-.264.264,1.593,1.593,0,0,0-.158.391A2.042,2.042,0,0,0,39.1,67v.967h1.942v1.942H39.1V77H36.577V69.907H34.81V67.965h1.767v-.976a5.284,5.284,0,0,1,.114-1.151A3.5,3.5,0,0,1,37,64.963a2.047,2.047,0,0,1,.514-.628,3.034,3.034,0,0,1,.668-.422,3.817,3.817,0,0,1,.831-.255,7.285,7.285,0,0,1,.954-.127q.47-.031,1.077-.031Zm9.9,6.829-.026.606h-6.7a2.339,2.339,0,0,0,.721,1.652,2.3,2.3,0,0,0,1.591.571,2.221,2.221,0,0,0,1.191-.312,1.918,1.918,0,0,0,.76-.91l2.32.343a3.945,3.945,0,0,1-1.582,2.118,4.7,4.7,0,0,1-2.672.756,4.891,4.891,0,0,1-3.52-1.244,5.2,5.2,0,0,1,0-6.9,4.746,4.746,0,0,1,3.437-1.261,4.136,4.136,0,0,1,4.474,4.579Zm-4.456-2.786a2,2,0,0,0-2.2,1.74h4.148a1.9,1.9,0,0,0-.624-1.292A1.978,1.978,0,0,0,46.482,69.564Zm8.807-.167a2.933,2.933,0,0,1,1.187-1.085,3.62,3.62,0,0,1,1.767-.453v2.259a3.423,3.423,0,0,0-2.162.545,2.379,2.379,0,0,0-.668,1.934V77H52.863V67.965h2.426Zm12.885,2.953-.026.606h-6.7a2.339,2.339,0,0,0,.721,1.652,2.3,2.3,0,0,0,1.591.571,2.221,2.221,0,0,0,1.191-.312,1.918,1.918,0,0,0,.76-.91l2.32.343a3.945,3.945,0,0,1-1.582,2.118,4.7,4.7,0,0,1-2.672.756,4.891,4.891,0,0,1-3.52-1.244,5.2,5.2,0,0,1,0-6.9A4.746,4.746,0,0,1,63.7,67.771a4.136,4.136,0,0,1,4.474,4.579Zm-4.456-2.786a2,2,0,0,0-2.2,1.74h4.148a1.9,1.9,0,0,0-.624-1.292A1.978,1.978,0,0,0,63.717,69.564Zm11.716-1.775a3.522,3.522,0,0,1,2.5.813,3.014,3.014,0,0,1,.87,2.316V77h-2.54V71.463a1.574,1.574,0,0,0-.453-1.248,1.705,1.705,0,0,0-1.165-.4,2.379,2.379,0,0,0-.756.114,1.942,1.942,0,0,0-.633.356,1.573,1.573,0,0,0-.453.681,3.15,3.15,0,0,0-.171,1.046V77H70.1V67.965h2.531v1A3.481,3.481,0,0,1,75.433,67.789ZM84.618,77a2.729,2.729,0,0,1-2.039-.734,2.854,2.854,0,0,1-.721-2.087V69.907H80.083V67.965h.571a1.491,1.491,0,0,0,1.125-.378,1.946,1.946,0,0,0,.36-1.345v-1.2h2.285v2.918h1.863v1.942H84.424v4q0,1.169,1.046,1.169h.817V77Zm12.094-4.649-.026.606h-6.7a2.339,2.339,0,0,0,.721,1.652,2.3,2.3,0,0,0,1.591.571,2.221,2.221,0,0,0,1.191-.312,1.918,1.918,0,0,0,.76-.91l2.32.343a3.945,3.945,0,0,1-1.582,2.118,4.7,4.7,0,0,1-2.672.756,4.891,4.891,0,0,1-3.52-1.244,5.2,5.2,0,0,1,0-6.9,4.746,4.746,0,0,1,3.437-1.261,4.136,4.136,0,0,1,4.474,4.579Zm-4.456-2.786a2,2,0,0,0-2.2,1.74h4.148a1.9,1.9,0,0,0-.624-1.292A1.978,1.978,0,0,0,92.255,69.564Zm9.563,7.611a5.049,5.049,0,0,1-2.637-.633,2.675,2.675,0,0,1-1.292-1.881l2.118-.6a1.7,1.7,0,0,0,1.811,1.345,1.87,1.87,0,0,0,.923-.207.719.719,0,0,0,.36-.7.739.739,0,0,0-.149-.466,1.183,1.183,0,0,0-.461-.334,5.749,5.749,0,0,0-.615-.237q-.3-.1-.8-.233t-.835-.259a5.593,5.593,0,0,1-.8-.338,3.393,3.393,0,0,1-.659-.466,1.878,1.878,0,0,1-.492-.708,2.552,2.552,0,0,1-.171-.967,2.308,2.308,0,0,1,.98-2.021,4.379,4.379,0,0,1,2.562-.686,4.489,4.489,0,0,1,2.364.58,2.625,2.625,0,0,1,1.213,1.811l-1.96.439a1.535,1.535,0,0,0-1.608-1.143,1.761,1.761,0,0,0-.888.2.649.649,0,0,0-.352.6.685.685,0,0,0,.053.272.539.539,0,0,0,.185.22,2.692,2.692,0,0,0,.255.167,1.923,1.923,0,0,0,.36.145q.237.075.4.114l.461.119.47.123q.483.132.848.264a4.967,4.967,0,0,1,.778.369,2.792,2.792,0,0,1,.681.532,2.372,2.372,0,0,1,.444.747,2.759,2.759,0,0,1,.176,1.006,2.718,2.718,0,0,1-.3,1.31,2.276,2.276,0,0,1-.831.883,4.043,4.043,0,0,1-1.173.475A6.087,6.087,0,0,1,101.818,77.176Zm18.712-4.825-.026.606h-6.7a2.339,2.339,0,0,0,.721,1.652,2.3,2.3,0,0,0,1.591.571,2.221,2.221,0,0,0,1.191-.312,1.918,1.918,0,0,0,.76-.91l2.32.343a3.945,3.945,0,0,1-1.582,2.118,4.7,4.7,0,0,1-2.672.756,4.891,4.891,0,0,1-3.52-1.244,5.2,5.2,0,0,1,0-6.9,4.746,4.746,0,0,1,3.437-1.261,4.136,4.136,0,0,1,4.474,4.579Zm-4.456-2.786a2,2,0,0,0-2.2,1.74h4.148a1.9,1.9,0,0,0-.624-1.292A1.978,1.978,0,0,0,116.074,69.564Zm11.716-1.775a3.522,3.522,0,0,1,2.5.813,3.014,3.014,0,0,1,.87,2.316V77h-2.54V71.463a1.574,1.574,0,0,0-.453-1.248,1.705,1.705,0,0,0-1.165-.4,2.379,2.379,0,0,0-.756.114,1.942,1.942,0,0,0-.633.356,1.573,1.573,0,0,0-.453.681,3.15,3.15,0,0,0-.171,1.046V77h-2.531V67.965h2.531v1A3.481,3.481,0,0,1,127.79,67.789ZM136.974,77a2.729,2.729,0,0,1-2.039-.734,2.854,2.854,0,0,1-.721-2.087V69.907h-1.775V67.965h.571a1.491,1.491,0,0,0,1.125-.378,1.946,1.946,0,0,0,.36-1.345v-1.2h2.285v2.918h1.863v1.942h-1.863v4q0,1.169,1.046,1.169h.817V77Zm7.8.176a5.681,5.681,0,0,1-2.558-.554A4.138,4.138,0,0,1,140.468,75a4.846,4.846,0,0,1-.637-2.522,4.42,4.42,0,0,1,1.371-3.428,5.731,5.731,0,0,1,7.163,0,4.987,4.987,0,0,1,0,6.869A5.088,5.088,0,0,1,144.779,77.176Zm-.026-2.013a2.319,2.319,0,0,0,1.789-.738,3.135,3.135,0,0,0,0-3.9,2.319,2.319,0,0,0-1.789-.738,2.234,2.234,0,0,0-1.736.743,3.155,3.155,0,0,0,0,3.894A2.234,2.234,0,0,0,144.752,75.163Zm9.29-5.766a2.933,2.933,0,0,1,1.187-1.085A3.62,3.62,0,0,1,157,67.859v2.259a3.423,3.423,0,0,0-2.162.545,2.379,2.379,0,0,0-.668,1.934V77h-2.549V67.965h2.426Zm9.773-1.608a3.522,3.522,0,0,1,2.5.813,3.014,3.014,0,0,1,.87,2.316V77h-2.54V71.463a1.574,1.574,0,0,0-.453-1.248,1.705,1.705,0,0,0-1.165-.4,2.379,2.379,0,0,0-.756.114,1.942,1.942,0,0,0-.633.356,1.573,1.573,0,0,0-.453.681,3.15,3.15,0,0,0-.171,1.046V77h-2.531V67.965h2.531v1A3.481,3.481,0,0,1,163.816,67.789Zm10.028,9.387a5.681,5.681,0,0,1-2.558-.554A4.138,4.138,0,0,1,169.533,75a4.846,4.846,0,0,1-.637-2.522,4.42,4.42,0,0,1,1.371-3.428,5.731,5.731,0,0,1,7.163,0,4.987,4.987,0,0,1,0,6.869A5.088,5.088,0,0,1,173.844,77.176Zm-.026-2.013a2.319,2.319,0,0,0,1.789-.738,3.135,3.135,0,0,0,0-3.9,2.319,2.319,0,0,0-1.789-.738,2.234,2.234,0,0,0-1.736.743,3.155,3.155,0,0,0,0,3.894A2.234,2.234,0,0,0,173.818,75.163Zm10.046,2.013a5.049,5.049,0,0,1-2.637-.633,2.675,2.675,0,0,1-1.292-1.881l2.118-.6a1.7,1.7,0,0,0,1.811,1.345,1.87,1.87,0,0,0,.923-.207.719.719,0,0,0,.36-.7.739.739,0,0,0-.149-.466,1.183,1.183,0,0,0-.461-.334,5.749,5.749,0,0,0-.615-.237q-.3-.1-.8-.233t-.835-.259a5.593,5.593,0,0,1-.8-.338,3.393,3.393,0,0,1-.659-.466,1.878,1.878,0,0,1-.492-.708,2.552,2.552,0,0,1-.171-.967,2.308,2.308,0,0,1,.98-2.021,4.379,4.379,0,0,1,2.562-.686,4.489,4.489,0,0,1,2.364.58,2.625,2.625,0,0,1,1.213,1.811l-1.96.439a1.535,1.535,0,0,0-1.608-1.143,1.761,1.761,0,0,0-.888.2.649.649,0,0,0-.352.6.685.685,0,0,0,.053.272.539.539,0,0,0,.185.22,2.692,2.692,0,0,0,.255.167,1.923,1.923,0,0,0,.36.145q.237.075.4.114l.461.119.47.123q.483.132.848.264a4.967,4.967,0,0,1,.778.369,2.792,2.792,0,0,1,.681.532,2.372,2.372,0,0,1,.444.747,2.759,2.759,0,0,1,.176,1.006,2.718,2.718,0,0,1-.3,1.31,2.276,2.276,0,0,1-.831.883,4.043,4.043,0,0,1-1.173.475A6.087,6.087,0,0,1,183.864,77.176ZM42.7,107.167a4.827,4.827,0,0,1-3.489-1.3,4.934,4.934,0,0,1,0-6.785,5.364,5.364,0,0,1,6.42-.422,3.885,3.885,0,0,1,1.512,2.452l-2.338.255a2,2,0,0,0-.756-1.187,2.3,2.3,0,0,0-1.371-.4,2.072,2.072,0,0,0-1.652.738,3.318,3.318,0,0,0,0,3.9,2.067,2.067,0,0,0,1.652.743,2.278,2.278,0,0,0,1.367-.4,2.05,2.05,0,0,0,.76-1.187l2.338.255a3.9,3.9,0,0,1-1.525,2.452A4.8,4.8,0,0,1,42.7,107.167Zm10.45.009a5.681,5.681,0,0,1-2.558-.554A4.138,4.138,0,0,1,48.842,105a4.846,4.846,0,0,1-.637-2.522,4.42,4.42,0,0,1,1.371-3.428,5.731,5.731,0,0,1,7.163,0,4.987,4.987,0,0,1,0,6.869A5.088,5.088,0,0,1,53.153,107.176Zm-.026-2.013a2.319,2.319,0,0,0,1.789-.738,3.135,3.135,0,0,0,0-3.9,2.319,2.319,0,0,0-1.789-.738,2.234,2.234,0,0,0-1.736.743,3.155,3.155,0,0,0,0,3.894A2.234,2.234,0,0,0,53.126,105.163Zm12.2-7.374a3.522,3.522,0,0,1,2.5.813,3.014,3.014,0,0,1,.87,2.316V107h-2.54v-5.537a1.574,1.574,0,0,0-.453-1.248,1.705,1.705,0,0,0-1.165-.4,2.379,2.379,0,0,0-.756.114,1.942,1.942,0,0,0-.633.356,1.573,1.573,0,0,0-.453.681,3.15,3.15,0,0,0-.171,1.046V107H59.991V97.965h2.531v1A3.481,3.481,0,0,1,65.326,97.789ZM75.82,107V93.5h2.558V107Zm9.387.176a5.681,5.681,0,0,1-2.558-.554A4.138,4.138,0,0,1,80.9,105a4.846,4.846,0,0,1-.637-2.522,4.42,4.42,0,0,1,1.371-3.428,5.731,5.731,0,0,1,7.163,0,4.987,4.987,0,0,1,0,6.869A5.088,5.088,0,0,1,85.207,107.176Zm-.026-2.013a2.319,2.319,0,0,0,1.789-.738,3.135,3.135,0,0,0,0-3.9,2.319,2.319,0,0,0-1.789-.738,2.234,2.234,0,0,0-1.736.743,3.155,3.155,0,0,0,0,3.894A2.234,2.234,0,0,0,85.18,105.163Zm10.046,2.013a5.049,5.049,0,0,1-2.637-.633,2.675,2.675,0,0,1-1.292-1.881l2.118-.6a1.7,1.7,0,0,0,1.811,1.345,1.87,1.87,0,0,0,.923-.207.719.719,0,0,0,.36-.7.739.739,0,0,0-.149-.466,1.183,1.183,0,0,0-.461-.334,5.749,5.749,0,0,0-.615-.237q-.3-.1-.8-.233t-.835-.259a5.593,5.593,0,0,1-.8-.338,3.393,3.393,0,0,1-.659-.466,1.878,1.878,0,0,1-.492-.708,2.552,2.552,0,0,1-.171-.967,2.308,2.308,0,0,1,.98-2.021,4.379,4.379,0,0,1,2.562-.686,4.489,4.489,0,0,1,2.364.58,2.625,2.625,0,0,1,1.213,1.811l-1.96.439a1.535,1.535,0,0,0-1.608-1.143,1.761,1.761,0,0,0-.888.2.649.649,0,0,0-.352.6.685.685,0,0,0,.053.272.539.539,0,0,0,.185.22,2.692,2.692,0,0,0,.255.167,1.923,1.923,0,0,0,.36.145q.237.075.4.114l.461.119.47.123q.483.132.848.264a4.967,4.967,0,0,1,.778.369,2.792,2.792,0,0,1,.681.532,2.372,2.372,0,0,1,.444.747,2.759,2.759,0,0,1,.176,1.006,2.718,2.718,0,0,1-.3,1.31,2.276,2.276,0,0,1-.831.883,4.043,4.043,0,0,1-1.173.475A6.087,6.087,0,0,1,95.226,107.176Zm16.743-9.211h2.4v13.43h-2.531v-5.449a2.605,2.605,0,0,1-1.134.932,3.9,3.9,0,0,1-1.626.334,4.394,4.394,0,0,1-1.687-.325,4.223,4.223,0,0,1-1.384-.914,4.135,4.135,0,0,1-.936-1.49,5.9,5.9,0,0,1,0-3.964,4.135,4.135,0,0,1,.936-1.49,4.223,4.223,0,0,1,1.384-.914,4.394,4.394,0,0,1,1.688-.325,3.941,3.941,0,0,1,1.692.356,2.493,2.493,0,0,1,1.138,1.006Zm-2.32,7.146a2.264,2.264,0,0,0,1.718-.721,2.954,2.954,0,0,0,0-3.779,2.408,2.408,0,0,0-3.423-.013,3,3,0,0,0,0,3.806A2.274,2.274,0,0,0,109.649,105.11Zm13.333-7.146h2.531V107h-2.4l-.062-1.09a3.45,3.45,0,0,1-2.874,1.266,3.522,3.522,0,0,1-2.5-.813,3.014,3.014,0,0,1-.87-2.316V97.965h2.54V103.5a1.562,1.562,0,0,0,.453,1.239,1.718,1.718,0,0,0,1.173.4,2.038,2.038,0,0,0,1.437-.514,2.209,2.209,0,0,0,.567-1.674Zm13.649,4.386-.026.606h-6.7a2.339,2.339,0,0,0,.721,1.652,2.3,2.3,0,0,0,1.591.571,2.221,2.221,0,0,0,1.191-.312,1.918,1.918,0,0,0,.76-.91l2.32.343a3.945,3.945,0,0,1-1.582,2.118,4.7,4.7,0,0,1-2.672.756,4.891,4.891,0,0,1-3.52-1.244,5.2,5.2,0,0,1,0-6.9,4.746,4.746,0,0,1,3.437-1.261,4.136,4.136,0,0,1,4.474,4.579Zm-4.456-2.786a2,2,0,0,0-2.2,1.74h4.148a1.9,1.9,0,0,0-.624-1.292A1.978,1.978,0,0,0,132.175,99.564Zm21.762-1.775a3.452,3.452,0,0,1,2.329.734,2.626,2.626,0,0,1,.853,2.1V107h-2.531v-5.651a1.509,1.509,0,0,0-.4-1.143,1.416,1.416,0,0,0-1.02-.387,1.633,1.633,0,0,0-1.23.492,2.235,2.235,0,0,0-.475,1.591V107H148.9v-5.625a1.549,1.549,0,0,0-.4-1.165,1.441,1.441,0,0,0-1.046-.391,1.581,1.581,0,0,0-1.222.519,2.476,2.476,0,0,0-.475,1.7V107h-2.522V97.965h2.522v1.063a3.072,3.072,0,0,1,2.619-1.239,3.863,3.863,0,0,1,1.7.347,2.315,2.315,0,0,1,1.068,1.006A3.2,3.2,0,0,1,153.937,97.789Zm14.142,4.562-.026.606h-6.7a2.339,2.339,0,0,0,.721,1.652,2.3,2.3,0,0,0,1.591.571,2.221,2.221,0,0,0,1.191-.312,1.918,1.918,0,0,0,.76-.91l2.32.343a3.945,3.945,0,0,1-1.582,2.118,4.7,4.7,0,0,1-2.672.756,4.891,4.891,0,0,1-3.52-1.244,5.2,5.2,0,0,1,0-6.9,4.746,4.746,0,0,1,3.437-1.261,4.136,4.136,0,0,1,4.474,4.579Zm-4.456-2.786a2,2,0,0,0-2.2,1.74h4.148a1.9,1.9,0,0,0-.624-1.292A1.978,1.978,0,0,0,163.623,99.564Zm-102,29.833a2.933,2.933,0,0,1,1.187-1.085,3.62,3.62,0,0,1,1.767-.453v2.259a3.423,3.423,0,0,0-2.162.545,2.379,2.379,0,0,0-.668,1.934V137H59.2v-9.035h2.426Zm12.885,2.953-.026.606h-6.7a2.339,2.339,0,0,0,.721,1.652,2.3,2.3,0,0,0,1.591.571,2.221,2.221,0,0,0,1.191-.312,1.918,1.918,0,0,0,.76-.91l2.32.343a3.945,3.945,0,0,1-1.582,2.118,4.7,4.7,0,0,1-2.672.756,4.891,4.891,0,0,1-3.52-1.244,5.2,5.2,0,0,1,0-6.9,4.746,4.746,0,0,1,3.437-1.261,4.136,4.136,0,0,1,4.474,4.579Zm-4.456-2.786a2,2,0,0,0-2.2,1.74H72a1.9,1.9,0,0,0-.624-1.292A1.978,1.978,0,0,0,70.05,129.564ZM76.431,137V123.5h2.558V137Zm12.586-2.452a8.453,8.453,0,0,0,.22,2.206V137H86.872l-.2-.984a2.938,2.938,0,0,1-1.266.87,4.664,4.664,0,0,1-1.635.29,4.3,4.3,0,0,1-.844-.079,2.868,2.868,0,0,1-.76-.268,2.307,2.307,0,0,1-.628-.47,2.062,2.062,0,0,1-.422-.716,2.853,2.853,0,0,1-.158-.98,2.718,2.718,0,0,1,.167-.98,2.3,2.3,0,0,1,.439-.734,2.666,2.666,0,0,1,.712-.536,5.447,5.447,0,0,1,.9-.387,10.712,10.712,0,0,1,1.072-.281l1.485-.334a1.638,1.638,0,0,0,.672-.286.57.57,0,0,0,.2-.453.932.932,0,0,0-.444-.87,2.072,2.072,0,0,0-1.077-.264,1.549,1.549,0,0,0-1.767,1.38l-2.241-.4a3.034,3.034,0,0,1,1.31-2.061,5.2,5.2,0,0,1,2.839-.664q3.8,0,3.8,3.261Zm-4.456.914a2.036,2.036,0,0,0,1.564-.655,2.759,2.759,0,0,0,.606-1.938l-2.145.606a2.534,2.534,0,0,0-.9.369.758.758,0,0,0-.312.65.842.842,0,0,0,.334.716A1.382,1.382,0,0,0,84.561,135.462Zm10.8,1.705a4.827,4.827,0,0,1-3.489-1.3,4.934,4.934,0,0,1,0-6.785,5.364,5.364,0,0,1,6.42-.422,3.885,3.885,0,0,1,1.512,2.452l-2.338.255a2,2,0,0,0-.756-1.187,2.3,2.3,0,0,0-1.371-.4,2.072,2.072,0,0,0-1.652.738,3.318,3.318,0,0,0,0,3.9,2.067,2.067,0,0,0,1.652.743,2.278,2.278,0,0,0,1.367-.4,2.05,2.05,0,0,0,.76-1.187l2.338.255a3.9,3.9,0,0,1-1.525,2.452A4.8,4.8,0,0,1,95.362,137.167Zm7.532-10.556a1.421,1.421,0,0,1-1.037-.426,1.4,1.4,0,0,1-.431-1.033,1.382,1.382,0,0,1,.435-1.024,1.425,1.425,0,0,1,1.033-.426,1.455,1.455,0,0,1,0,2.909ZM101.6,137v-9.035h2.549V137Zm9.378.176a5.681,5.681,0,0,1-2.558-.554A4.138,4.138,0,0,1,106.669,135a4.846,4.846,0,0,1-.637-2.522,4.42,4.42,0,0,1,1.371-3.428,5.731,5.731,0,0,1,7.163,0,4.987,4.987,0,0,1,0,6.869A5.088,5.088,0,0,1,110.98,137.176Zm-.026-2.013a2.319,2.319,0,0,0,1.789-.738,3.135,3.135,0,0,0,0-3.9,2.319,2.319,0,0,0-1.789-.738,2.234,2.234,0,0,0-1.736.743,3.155,3.155,0,0,0,0,3.894A2.234,2.234,0,0,0,110.954,135.163Zm12.2-7.374a3.522,3.522,0,0,1,2.5.813,3.014,3.014,0,0,1,.87,2.316V137h-2.54v-5.537a1.574,1.574,0,0,0-.453-1.248,1.705,1.705,0,0,0-1.165-.4,2.379,2.379,0,0,0-.756.114,1.942,1.942,0,0,0-.633.356,1.573,1.573,0,0,0-.453.681,3.15,3.15,0,0,0-.171,1.046V137h-2.531v-9.035h2.531v1A3.481,3.481,0,0,1,123.153,127.789Zm10.028,9.387a5.681,5.681,0,0,1-2.558-.554A4.138,4.138,0,0,1,128.871,135a4.846,4.846,0,0,1-.637-2.522,4.42,4.42,0,0,1,1.371-3.428,5.731,5.731,0,0,1,7.163,0,4.987,4.987,0,0,1,0,6.869A5.088,5.088,0,0,1,133.182,137.176Zm-.026-2.013a2.319,2.319,0,0,0,1.789-.738,3.135,3.135,0,0,0,0-3.9,2.319,2.319,0,0,0-1.789-.738,2.234,2.234,0,0,0-1.736.743,3.155,3.155,0,0,0,0,3.894A2.234,2.234,0,0,0,133.155,135.163Zm9.193-2.083v-.949a2.1,2.1,0,0,1,.215-.984,1.969,1.969,0,0,1,.558-.672,6.162,6.162,0,0,1,.94-.558,1.9,1.9,0,0,0,1.09-1.846,1.7,1.7,0,0,0-1.819-1.863,1.8,1.8,0,0,0-1.327.5,1.756,1.756,0,0,0-.5,1.305,3.452,3.452,0,0,0,.105.773l-2.268-.29a5.8,5.8,0,0,1-.044-.659,3.507,3.507,0,0,1,1.107-2.681,4.059,4.059,0,0,1,2.892-1.037,4.179,4.179,0,0,1,2.944,1.059,3.665,3.665,0,0,1,1.151,2.834,4.182,4.182,0,0,1-.193,1.31,2.969,2.969,0,0,1-.527.989,3.613,3.613,0,0,1-.708.659,3.764,3.764,0,0,1-.813.426,1.371,1.371,0,0,0-.58.391.955.955,0,0,0-.185.611v.686Zm2.065,3.674a1.36,1.36,0,0,1-1.011.422,1.4,1.4,0,0,1-1.024-.422,1.438,1.438,0,0,1,0-2.043,1.411,1.411,0,0,1,1.024-.417,1.442,1.442,0,0,1,1.011,2.461Z" transform="translate(858 8324)" fill="#00223d"/>
    <g id="Grupo_18215" data-name="Grupo 18215" transform="translate(784.642 8125.723)">
      <g id="Grupo_18197" data-name="Grupo 18197" transform="translate(156.358 133.329)">
        <path id="Trazado_37245" data-name="Trazado 37245" d="M173.071,163.666a32.668,32.668,0,0,1,5.23-5.657,28.235,28.235,0,0,0,4.148-4.469,6.137,6.137,0,0,0,.928-4.47,5.545,5.545,0,0,0-2.4-3.916,9.213,9.213,0,0,0-5.433-1.463,12.39,12.39,0,0,0-6.23,1.543,12.023,12.023,0,0,0-4.441,4.469l-8.515-6.09a18.386,18.386,0,0,1,7.862-7.555,26.122,26.122,0,0,1,12.253-2.729q7.758,0,12.86,3.6a13.675,13.675,0,0,1,5.932,9.69,14.016,14.016,0,0,1-.407,6.407,12.974,12.974,0,0,1-2.532,4.509,49.2,49.2,0,0,1-4.233,4.114,35.486,35.486,0,0,0-4.343,4.39,7.734,7.734,0,0,0-1.634,4.391H171.066A12.574,12.574,0,0,1,173.071,163.666Z" transform="translate(-156.358 -133.329)" fill="#fff"/>
        <path id="Trazado_37246" data-name="Trazado 37246" d="M184.468,185.238a6.168,6.168,0,1,1-6.167-6.168A6.168,6.168,0,0,1,184.468,185.238Z" transform="translate(-158.127 -138.458)" fill="#fff"/>
      </g>
    </g>
    <path id="Trazado_37490" data-name="Trazado 37490" d="M64,0A64,64,0,1,1,0,64,64,64,0,0,1,64,0Z" transform="translate(748 8203)" fill="#fc737b"/>
    <path id="Trazado_37491" data-name="Trazado 37491" d="M-21.357-10.38h-4.834V-7.5h4.175V-5.2h-4.175V0h-2.654V-12.7h7.488Zm8.965,7.928a8.453,8.453,0,0,0,.22,2.206V0h-2.364l-.2-.984A2.938,2.938,0,0,1-16-.114a4.664,4.664,0,0,1-1.635.29A4.3,4.3,0,0,1-18.483.1a2.868,2.868,0,0,1-.76-.268,2.307,2.307,0,0,1-.628-.47,2.062,2.062,0,0,1-.422-.716,2.853,2.853,0,0,1-.158-.98,2.718,2.718,0,0,1,.167-.98,2.3,2.3,0,0,1,.439-.734,2.666,2.666,0,0,1,.712-.536,5.447,5.447,0,0,1,.9-.387,10.712,10.712,0,0,1,1.072-.281l1.485-.334a1.638,1.638,0,0,0,.672-.286.57.57,0,0,0,.2-.453.932.932,0,0,0-.444-.87,2.072,2.072,0,0,0-1.077-.264A1.549,1.549,0,0,0-18.1-6.082l-2.241-.4a3.034,3.034,0,0,1,1.31-2.061,5.2,5.2,0,0,1,2.839-.664q3.8,0,3.8,3.261Zm-4.456.914a2.036,2.036,0,0,0,1.564-.655,2.759,2.759,0,0,0,.606-1.938l-2.145.606a2.534,2.534,0,0,0-.9.369.758.758,0,0,0-.312.65.842.842,0,0,0,.334.716A1.382,1.382,0,0,0-16.849-1.538ZM.773-9.211A3.452,3.452,0,0,1,3.1-8.477a2.626,2.626,0,0,1,.853,2.1V0H1.424V-5.651a1.509,1.509,0,0,0-.4-1.143A1.416,1.416,0,0,0,0-7.181a1.633,1.633,0,0,0-1.23.492A2.235,2.235,0,0,0-1.705-5.1V0H-4.263V-5.625a1.549,1.549,0,0,0-.4-1.165,1.441,1.441,0,0,0-1.046-.391,1.581,1.581,0,0,0-1.222.519,2.476,2.476,0,0,0-.475,1.7V0H-9.932V-9.035h2.522v1.063A3.072,3.072,0,0,1-4.79-9.211a3.863,3.863,0,0,1,1.7.347A2.315,2.315,0,0,1-2.021-7.857,3.2,3.2,0,0,1,.773-9.211Zm6.935-1.178a1.421,1.421,0,0,1-1.037-.426,1.4,1.4,0,0,1-.431-1.033,1.382,1.382,0,0,1,.435-1.024A1.425,1.425,0,0,1,7.708-13.3a1.4,1.4,0,0,1,1.02.426,1.389,1.389,0,0,1,.431,1.024,1.4,1.4,0,0,1-.431,1.033A1.4,1.4,0,0,1,7.708-10.389ZM6.416,0V-9.035H8.965V0Zm5.168,0V-13.5h2.558V0Zm6.469-10.389a1.421,1.421,0,0,1-1.037-.426,1.4,1.4,0,0,1-.431-1.033,1.382,1.382,0,0,1,.435-1.024,1.425,1.425,0,0,1,1.033-.426,1.4,1.4,0,0,1,1.02.426,1.389,1.389,0,0,1,.431,1.024,1.4,1.4,0,0,1-.431,1.033A1.4,1.4,0,0,1,18.053-10.389ZM16.761,0V-9.035H19.31V0ZM29.338-2.452a8.453,8.453,0,0,0,.22,2.206V0H27.193l-.2-.984a2.938,2.938,0,0,1-1.266.87,4.664,4.664,0,0,1-1.635.29A4.3,4.3,0,0,1,23.247.1a2.868,2.868,0,0,1-.76-.268,2.307,2.307,0,0,1-.628-.47,2.062,2.062,0,0,1-.422-.716,2.853,2.853,0,0,1-.158-.98,2.718,2.718,0,0,1,.167-.98,2.3,2.3,0,0,1,.439-.734,2.666,2.666,0,0,1,.712-.536,5.447,5.447,0,0,1,.9-.387,10.712,10.712,0,0,1,1.072-.281l1.485-.334a1.638,1.638,0,0,0,.672-.286.57.57,0,0,0,.2-.453.932.932,0,0,0-.444-.87A2.072,2.072,0,0,0,25.4-7.462a1.549,1.549,0,0,0-1.767,1.38l-2.241-.4A3.034,3.034,0,0,1,22.7-8.547a5.2,5.2,0,0,1,2.839-.664q3.8,0,3.8,3.261Zm-4.456.914a2.036,2.036,0,0,0,1.564-.655,2.759,2.759,0,0,0,.606-1.938l-2.145.606a2.534,2.534,0,0,0-.9.369.758.758,0,0,0-.312.65.842.842,0,0,0,.334.716A1.382,1.382,0,0,0,24.882-1.538Z" transform="translate(812 8273)" fill="#00223d"/>
    <path id="Trazado_37497" data-name="Trazado 37497" d="M64,0A64,64,0,1,1,0,64,64,64,0,0,1,64,0Z" transform="translate(825 8476)" fill="#fed12f"/>
    <path id="Trazado_37500" data-name="Trazado 37500" d="M-29.026.176A7.089,7.089,0,0,1-31.614-.29a6.087,6.087,0,0,1-2.061-1.3,5.864,5.864,0,0,1-1.354-2.065,7.2,7.2,0,0,1-.492-2.7,6.879,6.879,0,0,1,.844-3.45,5.744,5.744,0,0,1,2.316-2.281,6.935,6.935,0,0,1,3.335-.791A6.739,6.739,0,0,1-25.3-11.848a5.629,5.629,0,0,1,2.276,2.83l-2.461.9a3.479,3.479,0,0,0-1.362-1.714,3.891,3.891,0,0,0-2.18-.615A3.73,3.73,0,0,0-31.8-9.343a4.075,4.075,0,0,0-1.09,2.988A4.081,4.081,0,0,0-31.8-3.362,3.726,3.726,0,0,0-29.026-2.25a3.876,3.876,0,0,0,2.175-.62,3.5,3.5,0,0,0,1.367-1.718l2.461.9A5.652,5.652,0,0,1-25.3-.857,6.718,6.718,0,0,1-29.026.176Zm12.041,0a5.681,5.681,0,0,1-2.558-.554A4.138,4.138,0,0,1-21.3-2a4.846,4.846,0,0,1-.637-2.522,4.42,4.42,0,0,1,1.371-3.428,5.086,5.086,0,0,1,3.577-1.257A5.1,5.1,0,0,1-13.4-7.954a4.42,4.42,0,0,1,1.371,3.428A4.444,4.444,0,0,1-13.4-1.085,5.088,5.088,0,0,1-16.985.176Zm-.026-2.013a2.319,2.319,0,0,0,1.789-.738,2.764,2.764,0,0,0,.681-1.951,2.764,2.764,0,0,0-.681-1.951,2.319,2.319,0,0,0-1.789-.738,2.234,2.234,0,0,0-1.736.743,2.789,2.789,0,0,0-.672,1.947,2.789,2.789,0,0,0,.672,1.947A2.234,2.234,0,0,0-17.011-1.837ZM-10.147,0V-13.5h2.558V0ZM3.529-4.649,3.5-4.043h-6.7a2.339,2.339,0,0,0,.721,1.652,2.3,2.3,0,0,0,1.591.571A2.221,2.221,0,0,0,.308-2.131a1.918,1.918,0,0,0,.76-.91l2.32.343A3.945,3.945,0,0,1,1.806-.58,4.7,4.7,0,0,1-.866.176a4.891,4.891,0,0,1-3.52-1.244,4.538,4.538,0,0,1-1.305-3.45,4.565,4.565,0,0,1,1.31-3.45A4.746,4.746,0,0,1-.945-9.229,4.536,4.536,0,0,1,2.3-8.077,4.517,4.517,0,0,1,3.529-4.649ZM-.927-7.436a2,2,0,0,0-2.2,1.74H1.024A1.9,1.9,0,0,0,.4-6.987,1.978,1.978,0,0,0-.927-7.436Zm12.6-1.6h2.408V-.677a6.759,6.759,0,0,1-.338,2.25,3.711,3.711,0,0,1-.98,1.542,4.085,4.085,0,0,1-1.5.866,6.336,6.336,0,0,1-1.969.281q-3.577,0-4.658-2.8l2.1-.9a3.065,3.065,0,0,0,.976,1.31A2.487,2.487,0,0,0,9.2,2.294q2.347,0,2.347-2.786V-1.547a2.846,2.846,0,0,1-1.138.892,3.784,3.784,0,0,1-1.6.338A4,4,0,0,1,7.216-.637a4.03,4.03,0,0,1-1.314-.9A4.174,4.174,0,0,1,5.01-2.953a4.981,4.981,0,0,1-.33-1.828,4.971,4.971,0,0,1,.33-1.833,4.006,4.006,0,0,1,.9-1.4,4.125,4.125,0,0,1,1.318-.879,4.069,4.069,0,0,1,1.6-.316,3.674,3.674,0,0,1,1.674.374,2.67,2.67,0,0,1,1.121,1ZM7.792-3.059a2.229,2.229,0,0,0,1.661.694,2.216,2.216,0,0,0,1.661-.7,2.379,2.379,0,0,0,.677-1.714A2.4,2.4,0,0,0,11.118-6.5a2.212,2.212,0,0,0-1.666-.7,2.214,2.214,0,0,0-1.666.69,2.4,2.4,0,0,0-.664,1.736A2.388,2.388,0,0,0,7.792-3.059ZM18-10.389a1.421,1.421,0,0,1-1.037-.426,1.4,1.4,0,0,1-.431-1.033,1.382,1.382,0,0,1,.435-1.024A1.425,1.425,0,0,1,18-13.3a1.4,1.4,0,0,1,1.02.426,1.389,1.389,0,0,1,.431,1.024,1.4,1.4,0,0,1-.431,1.033A1.4,1.4,0,0,1,18-10.389ZM16.712,0V-9.035h2.549V0ZM26.09.176a5.681,5.681,0,0,1-2.558-.554A4.138,4.138,0,0,1,21.779-2a4.846,4.846,0,0,1-.637-2.522,4.42,4.42,0,0,1,1.371-3.428A5.086,5.086,0,0,1,26.09-9.211a5.1,5.1,0,0,1,3.586,1.257,4.42,4.42,0,0,1,1.371,3.428,4.444,4.444,0,0,1-1.371,3.441A5.088,5.088,0,0,1,26.09.176Zm-.026-2.013a2.319,2.319,0,0,0,1.789-.738,2.764,2.764,0,0,0,.681-1.951,2.764,2.764,0,0,0-.681-1.951,2.319,2.319,0,0,0-1.789-.738,2.234,2.234,0,0,0-1.736.743,2.789,2.789,0,0,0-.672,1.947,2.789,2.789,0,0,0,.672,1.947A2.234,2.234,0,0,0,26.064-1.837ZM-43.994,24.219a8.412,8.412,0,0,1-2.782-3.911,16.493,16.493,0,0,1-1.015-5.977,16.5,16.5,0,0,1,1.015-5.972,8.411,8.411,0,0,1,2.782-3.916l1.441,1.714a6.236,6.236,0,0,0-2.131,3.125,14.715,14.715,0,0,0-.8,5.049,14.668,14.668,0,0,0,.8,5.049A6.234,6.234,0,0,0-42.552,22.5Zm11.426-8.868-.026.606h-6.7a2.339,2.339,0,0,0,.721,1.652,2.3,2.3,0,0,0,1.591.571,2.221,2.221,0,0,0,1.191-.312,1.918,1.918,0,0,0,.76-.91l2.32.343a3.945,3.945,0,0,1-1.582,2.118,4.7,4.7,0,0,1-2.672.756,4.891,4.891,0,0,1-3.52-1.244,4.538,4.538,0,0,1-1.305-3.45,4.565,4.565,0,0,1,1.31-3.45,4.746,4.746,0,0,1,3.437-1.261A4.536,4.536,0,0,1-33.8,11.923,4.517,4.517,0,0,1-32.568,15.351Zm-4.456-2.786a2,2,0,0,0-2.2,1.74h4.148a1.9,1.9,0,0,0-.624-1.292A1.978,1.978,0,0,0-37.024,12.564ZM-24.236,6.5H-21.7V20h-2.4l-.062-1.178a2.58,2.58,0,0,1-1.147,1.024A3.861,3.861,0,0,1-27,20.211a4.394,4.394,0,0,1-1.687-.325,4.189,4.189,0,0,1-1.384-.918,4.187,4.187,0,0,1-.936-1.49,5.5,5.5,0,0,1-.343-1.978,5.137,5.137,0,0,1,.6-2.518,4.1,4.1,0,0,1,1.578-1.639A4.345,4.345,0,0,1-27,10.789a3.957,3.957,0,0,1,1.639.33,2.559,2.559,0,0,1,1.129.936Zm-2.188,11.61a2.253,2.253,0,0,0,1.709-.721,2.638,2.638,0,0,0,.681-1.89,2.644,2.644,0,0,0-.686-1.894,2.251,2.251,0,0,0-1.705-.725,2.277,2.277,0,0,0-1.718.712,2.644,2.644,0,0,0-.681,1.907,2.631,2.631,0,0,0,.681,1.9A2.277,2.277,0,0,0-26.424,18.11ZM-13.1,10.965h2.531V20h-2.4l-.062-1.09A3.45,3.45,0,0,1-15.9,20.176a3.522,3.522,0,0,1-2.5-.813,3.014,3.014,0,0,1-.87-2.316V10.965h2.54V16.5a1.562,1.562,0,0,0,.453,1.239,1.718,1.718,0,0,0,1.173.4,2.038,2.038,0,0,0,1.437-.514,2.209,2.209,0,0,0,.567-1.674Zm9.237,9.2a4.827,4.827,0,0,1-3.489-1.3,4.493,4.493,0,0,1-1.354-3.393,4.483,4.483,0,0,1,1.349-3.393,4.842,4.842,0,0,1,3.494-1.292,4.814,4.814,0,0,1,2.927.87A3.885,3.885,0,0,1,.576,14.111l-2.338.255a2,2,0,0,0-.756-1.187,2.3,2.3,0,0,0-1.371-.4,2.072,2.072,0,0,0-1.652.738,2.894,2.894,0,0,0-.633,1.951,2.9,2.9,0,0,0,.633,1.947,2.067,2.067,0,0,0,1.652.743,2.278,2.278,0,0,0,1.367-.4,2.05,2.05,0,0,0,.76-1.187l2.338.255A3.9,3.9,0,0,1-.949,19.288,4.8,4.8,0,0,1-3.863,20.167ZM9.787,17.548a8.453,8.453,0,0,0,.22,2.206V20H7.642l-.2-.984a2.938,2.938,0,0,1-1.266.87,4.664,4.664,0,0,1-1.635.29A4.3,4.3,0,0,1,3.7,20.1a2.868,2.868,0,0,1-.76-.268,2.307,2.307,0,0,1-.628-.47,2.062,2.062,0,0,1-.422-.716,2.853,2.853,0,0,1-.158-.98,2.718,2.718,0,0,1,.167-.98,2.3,2.3,0,0,1,.439-.734,2.666,2.666,0,0,1,.712-.536,5.447,5.447,0,0,1,.9-.387,10.712,10.712,0,0,1,1.072-.281L6.5,14.41a1.638,1.638,0,0,0,.672-.286.57.57,0,0,0,.2-.453.932.932,0,0,0-.444-.87,2.072,2.072,0,0,0-1.077-.264,1.549,1.549,0,0,0-1.767,1.38l-2.241-.4a3.034,3.034,0,0,1,1.31-2.061,5.2,5.2,0,0,1,2.839-.664q3.8,0,3.8,3.261Zm-4.456.914A2.036,2.036,0,0,0,6.9,17.807,2.759,2.759,0,0,0,7.5,15.869l-2.145.606a2.534,2.534,0,0,0-.9.369.758.758,0,0,0-.312.65.842.842,0,0,0,.334.716A1.382,1.382,0,0,0,5.331,18.462ZM15.491,20a2.729,2.729,0,0,1-2.039-.734,2.854,2.854,0,0,1-.721-2.087V12.907H10.956V10.965h.571a1.491,1.491,0,0,0,1.125-.378,1.946,1.946,0,0,0,.36-1.345v-1.2H15.3v2.918h1.863v1.942H15.3v4q0,1.169,1.046,1.169h.817V20ZM20.413,9.611a1.421,1.421,0,0,1-1.037-.426,1.4,1.4,0,0,1-.431-1.033,1.382,1.382,0,0,1,.435-1.024A1.425,1.425,0,0,1,20.413,6.7a1.451,1.451,0,0,1,1.02,2.483A1.4,1.4,0,0,1,20.413,9.611ZM19.121,20V10.965h2.549V20Zm11.048-9.035h2.681L29,20H26.8L23,10.965H25.66l2.25,6.179Zm11.057,6.583a8.453,8.453,0,0,0,.22,2.206V20H39.081l-.2-.984a2.938,2.938,0,0,1-1.266.87,4.664,4.664,0,0,1-1.635.29,4.3,4.3,0,0,1-.844-.079,2.868,2.868,0,0,1-.76-.268,2.307,2.307,0,0,1-.628-.47,2.062,2.062,0,0,1-.422-.716,2.853,2.853,0,0,1-.158-.98,2.718,2.718,0,0,1,.167-.98,2.3,2.3,0,0,1,.439-.734,2.666,2.666,0,0,1,.712-.536,5.447,5.447,0,0,1,.9-.387,10.712,10.712,0,0,1,1.072-.281l1.485-.334a1.638,1.638,0,0,0,.672-.286.57.57,0,0,0,.2-.453.932.932,0,0,0-.444-.87,2.072,2.072,0,0,0-1.077-.264,1.549,1.549,0,0,0-1.767,1.38l-2.241-.4a3.034,3.034,0,0,1,1.31-2.061,5.2,5.2,0,0,1,2.839-.664q3.8,0,3.8,3.261Zm-4.456.914a2.036,2.036,0,0,0,1.564-.655,2.759,2.759,0,0,0,.606-1.938l-2.145.606a2.534,2.534,0,0,0-.9.369.758.758,0,0,0-.312.65.842.842,0,0,0,.334.716A1.382,1.382,0,0,0,36.769,18.462Zm7.225,5.757L42.552,22.5a6.234,6.234,0,0,0,2.131-3.116,14.668,14.668,0,0,0,.8-5.049,14.715,14.715,0,0,0-.8-5.049,6.236,6.236,0,0,0-2.131-3.125l1.441-1.714a8.411,8.411,0,0,1,2.782,3.916,16.5,16.5,0,0,1,1.015,5.972,16.493,16.493,0,0,1-1.015,5.977A8.412,8.412,0,0,1,43.994,24.219Z" transform="translate(894 8529)" fill="#00223d"/>
    <path id="Trazado_37494" data-name="Trazado 37494" d="M64,0A64,64,0,1,1,0,64,64,64,0,0,1,64,0Z" transform="translate(717 8355)" fill="#5193eb"/>
    <path id="Trazado_37495" data-name="Trazado 37495" d="M-27.2-2.329h3.981V0h-6.618V-12.7H-27.2Zm13.069-.123a8.453,8.453,0,0,0,.22,2.206V0h-2.364l-.2-.984a2.938,2.938,0,0,1-1.266.87,4.664,4.664,0,0,1-1.635.29A4.3,4.3,0,0,1-20.224.1a2.868,2.868,0,0,1-.76-.268,2.307,2.307,0,0,1-.628-.47,2.062,2.062,0,0,1-.422-.716,2.853,2.853,0,0,1-.158-.98,2.718,2.718,0,0,1,.167-.98,2.3,2.3,0,0,1,.439-.734,2.666,2.666,0,0,1,.712-.536,5.447,5.447,0,0,1,.9-.387,10.712,10.712,0,0,1,1.072-.281l1.485-.334a1.638,1.638,0,0,0,.672-.286.57.57,0,0,0,.2-.453.932.932,0,0,0-.444-.87,2.072,2.072,0,0,0-1.077-.264,1.549,1.549,0,0,0-1.767,1.38l-2.241-.4a3.034,3.034,0,0,1,1.31-2.061,5.2,5.2,0,0,1,2.839-.664q3.8,0,3.8,3.261Zm-4.456.914a2.036,2.036,0,0,0,1.564-.655,2.759,2.759,0,0,0,.606-1.938l-2.145.606a2.534,2.534,0,0,0-.9.369.758.758,0,0,0-.312.65.842.842,0,0,0,.334.716A1.382,1.382,0,0,0-18.589-1.538ZM-6.363-9.211a4.372,4.372,0,0,1,1.679.325A4.189,4.189,0,0,1-3.3-7.967a4.187,4.187,0,0,1,.936,1.49A5.5,5.5,0,0,1-2.021-4.5a5.5,5.5,0,0,1-.343,1.978A4.187,4.187,0,0,1-3.3-1.033a4.189,4.189,0,0,1-1.384.918A4.372,4.372,0,0,1-6.363.211,3.9,3.9,0,0,1-8.073-.154,2.527,2.527,0,0,1-9.211-1.178L-9.272,0h-2.4V-13.5h2.531v5.563a2.522,2.522,0,0,1,1.129-.94A3.973,3.973,0,0,1-6.363-9.211ZM-6.952-1.89A2.277,2.277,0,0,0-5.234-2.6a2.631,2.631,0,0,0,.681-1.9,2.644,2.644,0,0,0-.681-1.907,2.277,2.277,0,0,0-1.718-.712,2.251,2.251,0,0,0-1.705.725A2.644,2.644,0,0,0-9.343-4.5a2.638,2.638,0,0,0,.681,1.89A2.253,2.253,0,0,0-6.952-1.89ZM4.1.176A5.681,5.681,0,0,1,1.538-.378,4.138,4.138,0,0,1-.215-2,4.846,4.846,0,0,1-.853-4.526,4.42,4.42,0,0,1,.519-7.954,5.086,5.086,0,0,1,4.1-9.211,5.1,5.1,0,0,1,7.682-7.954,4.42,4.42,0,0,1,9.053-4.526,4.444,4.444,0,0,1,7.682-1.085,5.088,5.088,0,0,1,4.1.176ZM4.069-1.837a2.319,2.319,0,0,0,1.789-.738,2.764,2.764,0,0,0,.681-1.951,2.764,2.764,0,0,0-.681-1.951,2.319,2.319,0,0,0-1.789-.738,2.234,2.234,0,0,0-1.736.743,2.789,2.789,0,0,0-.672,1.947A2.789,2.789,0,0,0,2.333-2.58,2.234,2.234,0,0,0,4.069-1.837ZM13.359-7.6a2.933,2.933,0,0,1,1.187-1.085,3.62,3.62,0,0,1,1.767-.453v2.259a3.423,3.423,0,0,0-2.162.545A2.379,2.379,0,0,0,13.482-4.4V0H10.934V-9.035h2.426Zm11.795,5.15a8.453,8.453,0,0,0,.22,2.206V0H23.01l-.2-.984a2.938,2.938,0,0,1-1.266.87,4.664,4.664,0,0,1-1.635.29A4.3,4.3,0,0,1,19.063.1a2.868,2.868,0,0,1-.76-.268,2.307,2.307,0,0,1-.628-.47,2.062,2.062,0,0,1-.422-.716,2.853,2.853,0,0,1-.158-.98,2.718,2.718,0,0,1,.167-.98,2.3,2.3,0,0,1,.439-.734,2.666,2.666,0,0,1,.712-.536,5.447,5.447,0,0,1,.9-.387,10.712,10.712,0,0,1,1.072-.281l1.485-.334a1.638,1.638,0,0,0,.672-.286.57.57,0,0,0,.2-.453.932.932,0,0,0-.444-.87,2.072,2.072,0,0,0-1.077-.264,1.549,1.549,0,0,0-1.767,1.38l-2.241-.4a3.034,3.034,0,0,1,1.31-2.061,5.2,5.2,0,0,1,2.839-.664q3.8,0,3.8,3.261ZM20.7-1.538a2.036,2.036,0,0,0,1.564-.655,2.759,2.759,0,0,0,.606-1.938l-2.145.606a2.534,2.534,0,0,0-.9.369.758.758,0,0,0-.312.65.842.842,0,0,0,.334.716A1.382,1.382,0,0,0,20.7-1.538ZM27.615,0V-13.5h2.558V0Z" transform="translate(779 8422)" fill="#fff"/>
    <path id="Trazado_37493" data-name="Trazado 37493" d="M64,0A64,64,0,1,1,0,64,64,64,0,0,1,64,0Z" transform="translate(896 8116)" fill="#8e9ad5"/>
    <path id="Trazado_37496" data-name="Trazado 37496" d="M-37.015-12.7h2.8L-38.9,0h-2.9l-4.667-12.7h2.795l3.331,9.624Zm11.979,8.051-.026.606h-6.7a2.339,2.339,0,0,0,.721,1.652,2.3,2.3,0,0,0,1.591.571,2.221,2.221,0,0,0,1.191-.312,1.918,1.918,0,0,0,.76-.91l2.32.343A3.945,3.945,0,0,1-26.758-.58,4.7,4.7,0,0,1-29.43.176a4.891,4.891,0,0,1-3.52-1.244,4.538,4.538,0,0,1-1.305-3.45,4.565,4.565,0,0,1,1.31-3.45,4.746,4.746,0,0,1,3.437-1.261,4.536,4.536,0,0,1,3.243,1.151A4.517,4.517,0,0,1-25.036-4.649Zm-4.456-2.786a2,2,0,0,0-2.2,1.74h4.148a1.9,1.9,0,0,0-.624-1.292A1.978,1.978,0,0,0-29.492-7.436Zm10.468,7.6a4.827,4.827,0,0,1-3.489-1.3,4.493,4.493,0,0,1-1.354-3.393,4.483,4.483,0,0,1,1.349-3.393,4.842,4.842,0,0,1,3.494-1.292,4.814,4.814,0,0,1,2.927.87,3.885,3.885,0,0,1,1.512,2.452l-2.338.255a2,2,0,0,0-.756-1.187,2.3,2.3,0,0,0-1.371-.4,2.072,2.072,0,0,0-1.652.738,2.894,2.894,0,0,0-.633,1.951A2.9,2.9,0,0,0-20.7-2.58a2.067,2.067,0,0,0,1.652.743,2.278,2.278,0,0,0,1.367-.4,2.05,2.05,0,0,0,.76-1.187l2.338.255A3.9,3.9,0,0,1-16.11-.712,4.8,4.8,0,0,1-19.024.167Zm7.532-10.556a1.421,1.421,0,0,1-1.037-.426,1.4,1.4,0,0,1-.431-1.033,1.382,1.382,0,0,1,.435-1.024,1.425,1.425,0,0,1,1.033-.426,1.4,1.4,0,0,1,1.02.426,1.389,1.389,0,0,1,.431,1.024,1.4,1.4,0,0,1-.431,1.033A1.4,1.4,0,0,1-11.492-10.389ZM-12.784,0V-9.035h2.549V0Zm10.5-9.211a3.522,3.522,0,0,1,2.5.813,3.014,3.014,0,0,1,.87,2.316V0h-2.54V-5.537a1.574,1.574,0,0,0-.453-1.248,1.705,1.705,0,0,0-1.165-.4,2.379,2.379,0,0,0-.756.114,1.942,1.942,0,0,0-.633.356,1.573,1.573,0,0,0-.453.681,3.15,3.15,0,0,0-.171,1.046V0H-7.616V-9.035h2.531v1A3.481,3.481,0,0,1-2.281-9.211ZM9.945-13.5h2.531V0h-2.4l-.062-1.178A2.58,2.58,0,0,1,8.868-.154,3.861,3.861,0,0,1,7.176.211,4.394,4.394,0,0,1,5.489-.114,4.189,4.189,0,0,1,4.1-1.033a4.187,4.187,0,0,1-.936-1.49A5.5,5.5,0,0,1,2.826-4.5a5.137,5.137,0,0,1,.6-2.518A4.1,4.1,0,0,1,5-8.657a4.345,4.345,0,0,1,2.175-.554,3.957,3.957,0,0,1,1.639.33,2.559,2.559,0,0,1,1.129.936ZM7.756-1.89A2.253,2.253,0,0,0,9.466-2.61a2.638,2.638,0,0,0,.681-1.89,2.644,2.644,0,0,0-.686-1.894,2.251,2.251,0,0,0-1.705-.725,2.277,2.277,0,0,0-1.718.712A2.644,2.644,0,0,0,5.357-4.5a2.631,2.631,0,0,0,.681,1.9A2.277,2.277,0,0,0,7.756-1.89ZM22.5-2.452a8.453,8.453,0,0,0,.22,2.206V0H20.36l-.2-.984a2.938,2.938,0,0,1-1.266.87,4.664,4.664,0,0,1-1.635.29A4.3,4.3,0,0,1,16.414.1a2.868,2.868,0,0,1-.76-.268,2.307,2.307,0,0,1-.628-.47,2.062,2.062,0,0,1-.422-.716,2.853,2.853,0,0,1-.158-.98,2.718,2.718,0,0,1,.167-.98,2.3,2.3,0,0,1,.439-.734,2.666,2.666,0,0,1,.712-.536,5.447,5.447,0,0,1,.9-.387,10.712,10.712,0,0,1,1.072-.281l1.485-.334a1.638,1.638,0,0,0,.672-.286.57.57,0,0,0,.2-.453.932.932,0,0,0-.444-.87,2.072,2.072,0,0,0-1.077-.264A1.549,1.549,0,0,0,16.8-6.082l-2.241-.4a3.034,3.034,0,0,1,1.31-2.061,5.2,5.2,0,0,1,2.839-.664q3.8,0,3.8,3.261Zm-4.456.914a2.036,2.036,0,0,0,1.564-.655,2.759,2.759,0,0,0,.606-1.938l-2.145.606a2.534,2.534,0,0,0-.9.369.758.758,0,0,0-.312.65.842.842,0,0,0,.334.716A1.382,1.382,0,0,0,18.048-1.538ZM27.391-7.6a2.933,2.933,0,0,1,1.187-1.085,3.62,3.62,0,0,1,1.767-.453v2.259a3.423,3.423,0,0,0-2.162.545A2.379,2.379,0,0,0,27.514-4.4V0H24.965V-9.035h2.426Zm5.73-2.786a1.421,1.421,0,0,1-1.037-.426,1.4,1.4,0,0,1-.431-1.033,1.382,1.382,0,0,1,.435-1.024,1.425,1.425,0,0,1,1.033-.426,1.4,1.4,0,0,1,1.02.426,1.389,1.389,0,0,1,.431,1.024,1.4,1.4,0,0,1-.431,1.033A1.4,1.4,0,0,1,33.122-10.389ZM31.83,0V-9.035h2.549V0Zm9.378.176A5.681,5.681,0,0,1,38.65-.378,4.138,4.138,0,0,1,36.9-2a4.846,4.846,0,0,1-.637-2.522A4.42,4.42,0,0,1,37.63-7.954a5.086,5.086,0,0,1,3.577-1.257,5.1,5.1,0,0,1,3.586,1.257,4.42,4.42,0,0,1,1.371,3.428,4.444,4.444,0,0,1-1.371,3.441A5.088,5.088,0,0,1,41.208.176Zm-.026-2.013a2.319,2.319,0,0,0,1.789-.738,2.764,2.764,0,0,0,.681-1.951,2.764,2.764,0,0,0-.681-1.951,2.319,2.319,0,0,0-1.789-.738,2.234,2.234,0,0,0-1.736.743,2.789,2.789,0,0,0-.672,1.947,2.789,2.789,0,0,0,.672,1.947A2.234,2.234,0,0,0,41.181-1.837Z" transform="translate(963 8183)" fill="#fff"/>
    <path id="Trazado_37498" data-name="Trazado 37498" d="M64,0A64,64,0,1,1,0,64,64,64,0,0,1,64,0Z" transform="translate(1046 8203)" fill="#a8c983"/>
    <path id="Trazado_37501" data-name="Trazado 37501" d="M-22.68,0-23.6-2.619h-5.335L-29.861,0h-2.7l4.676-12.7h3.226L-19.982,0Zm-5.484-4.825h3.788l-1.89-5.388ZM-7.7-9.211a3.452,3.452,0,0,1,2.329.734,2.626,2.626,0,0,1,.853,2.1V0H-7.053V-5.651a1.509,1.509,0,0,0-.4-1.143,1.416,1.416,0,0,0-1.02-.387,1.633,1.633,0,0,0-1.23.492A2.235,2.235,0,0,0-10.182-5.1V0H-12.74V-5.625a1.549,1.549,0,0,0-.4-1.165,1.441,1.441,0,0,0-1.046-.391,1.581,1.581,0,0,0-1.222.519,2.476,2.476,0,0,0-.475,1.7V0h-2.522V-9.035h2.522v1.063a3.072,3.072,0,0,1,2.619-1.239,3.863,3.863,0,0,1,1.7.347A2.315,2.315,0,0,1-10.5-7.857,3.2,3.2,0,0,1-7.7-9.211Zm6.935-1.178a1.421,1.421,0,0,1-1.037-.426,1.4,1.4,0,0,1-.431-1.033A1.382,1.382,0,0,1-1.8-12.872,1.425,1.425,0,0,1-.769-13.3a1.4,1.4,0,0,1,1.02.426,1.389,1.389,0,0,1,.431,1.024A1.4,1.4,0,0,1,.25-10.815,1.4,1.4,0,0,1-.769-10.389ZM-2.061,0V-9.035H.488V0ZM9.33-9.035h2.408V-.677a6.759,6.759,0,0,1-.338,2.25,3.711,3.711,0,0,1-.98,1.542,4.085,4.085,0,0,1-1.5.866,6.336,6.336,0,0,1-1.969.281q-3.577,0-4.658-2.8l2.1-.9a3.065,3.065,0,0,0,.976,1.31,2.487,2.487,0,0,0,1.485.422Q9.2,2.294,9.2-.492V-1.547A2.846,2.846,0,0,1,8.06-.655a3.784,3.784,0,0,1-1.6.338A4,4,0,0,1,4.869-.637a4.03,4.03,0,0,1-1.314-.9,4.174,4.174,0,0,1-.892-1.419,4.981,4.981,0,0,1-.33-1.828,4.971,4.971,0,0,1,.33-1.833,4.006,4.006,0,0,1,.9-1.4,4.125,4.125,0,0,1,1.318-.879,4.069,4.069,0,0,1,1.6-.316,3.674,3.674,0,0,1,1.674.374,2.67,2.67,0,0,1,1.121,1ZM5.445-3.059a2.229,2.229,0,0,0,1.661.694,2.216,2.216,0,0,0,1.661-.7,2.379,2.379,0,0,0,.677-1.714A2.4,2.4,0,0,0,8.771-6.5a2.212,2.212,0,0,0-1.666-.7,2.214,2.214,0,0,0-1.666.69,2.4,2.4,0,0,0-.664,1.736A2.388,2.388,0,0,0,5.445-3.059ZM18.576.176a5.681,5.681,0,0,1-2.558-.554A4.138,4.138,0,0,1,14.265-2a4.846,4.846,0,0,1-.637-2.522A4.42,4.42,0,0,1,15-7.954a5.086,5.086,0,0,1,3.577-1.257,5.1,5.1,0,0,1,3.586,1.257,4.42,4.42,0,0,1,1.371,3.428,4.444,4.444,0,0,1-1.371,3.441A5.088,5.088,0,0,1,18.576.176Zm-.026-2.013a2.319,2.319,0,0,0,1.789-.738,2.764,2.764,0,0,0,.681-1.951,2.764,2.764,0,0,0-.681-1.951,2.319,2.319,0,0,0-1.789-.738,2.234,2.234,0,0,0-1.736.743,2.789,2.789,0,0,0-.672,1.947,2.789,2.789,0,0,0,.672,1.947A2.234,2.234,0,0,0,18.549-1.837ZM28.6.176a5.049,5.049,0,0,1-2.637-.633,2.675,2.675,0,0,1-1.292-1.881l2.118-.6A1.7,1.7,0,0,0,28.6-1.591a1.87,1.87,0,0,0,.923-.207.719.719,0,0,0,.36-.7.739.739,0,0,0-.149-.466,1.183,1.183,0,0,0-.461-.334,5.749,5.749,0,0,0-.615-.237q-.3-.1-.8-.233t-.835-.259a5.593,5.593,0,0,1-.8-.338,3.393,3.393,0,0,1-.659-.466,1.878,1.878,0,0,1-.492-.708A2.552,2.552,0,0,1,24.9-6.5a2.308,2.308,0,0,1,.98-2.021,4.379,4.379,0,0,1,2.562-.686,4.489,4.489,0,0,1,2.364.58A2.625,2.625,0,0,1,32.014-6.82l-1.96.439a1.535,1.535,0,0,0-1.608-1.143,1.761,1.761,0,0,0-.888.2.649.649,0,0,0-.352.6.685.685,0,0,0,.053.272.539.539,0,0,0,.185.22,2.692,2.692,0,0,0,.255.167,1.923,1.923,0,0,0,.36.145q.237.075.4.114l.461.119.47.123q.483.132.848.264a4.967,4.967,0,0,1,.778.369,2.792,2.792,0,0,1,.681.532,2.372,2.372,0,0,1,.444.747,2.759,2.759,0,0,1,.176,1.006,2.718,2.718,0,0,1-.3,1.31,2.276,2.276,0,0,1-.831.883,4.043,4.043,0,0,1-1.173.475A6.087,6.087,0,0,1,28.6.176Z" transform="translate(1113 8270)" fill="#fff"/>
    <path id="Trazado_37499" data-name="Trazado 37499" d="M64,0A64,64,0,1,1,0,64,64,64,0,0,1,64,0Z" transform="translate(982 8476)" fill="#45c3cc"/>
    <path id="Trazado_37502" data-name="Trazado 37502" d="M-19.538-12.7h2.8L-21.428,0h-2.9L-29-12.7H-26.2l3.331,9.624Zm5.669,2.312a1.421,1.421,0,0,1-1.037-.426,1.4,1.4,0,0,1-.431-1.033,1.382,1.382,0,0,1,.435-1.024,1.425,1.425,0,0,1,1.033-.426,1.4,1.4,0,0,1,1.02.426,1.389,1.389,0,0,1,.431,1.024,1.4,1.4,0,0,1-.431,1.033A1.4,1.4,0,0,1-13.869-10.389ZM-15.161,0V-9.035h2.549V0Zm7.594-7.6A2.933,2.933,0,0,1-6.381-8.688a3.62,3.62,0,0,1,1.767-.453v2.259a3.423,3.423,0,0,0-2.162.545A2.379,2.379,0,0,0-7.444-4.4V0H-9.993V-9.035h2.426ZM.756,0A2.729,2.729,0,0,1-1.283-.734,2.854,2.854,0,0,1-2-2.821V-7.093H-3.779V-9.035h.571a1.491,1.491,0,0,0,1.125-.378,1.946,1.946,0,0,0,.36-1.345v-1.2H.563v2.918H2.426v1.942H.563v4q0,1.169,1.046,1.169h.817V0Zm9.615-9.035H12.9V0H10.5l-.062-1.09A3.45,3.45,0,0,1,7.567.176a3.522,3.522,0,0,1-2.5-.813A3.014,3.014,0,0,1,4.2-2.953V-9.035h2.54V-3.5a1.562,1.562,0,0,0,.453,1.239,1.718,1.718,0,0,0,1.173.4A2.038,2.038,0,0,0,9.8-2.377a2.209,2.209,0,0,0,.567-1.674Zm12.56,6.583a8.453,8.453,0,0,0,.22,2.206V0H20.786l-.2-.984a2.938,2.938,0,0,1-1.266.87,4.664,4.664,0,0,1-1.635.29A4.3,4.3,0,0,1,16.84.1a2.868,2.868,0,0,1-.76-.268,2.307,2.307,0,0,1-.628-.47,2.062,2.062,0,0,1-.422-.716,2.853,2.853,0,0,1-.158-.98,2.718,2.718,0,0,1,.167-.98,2.3,2.3,0,0,1,.439-.734,2.666,2.666,0,0,1,.712-.536,5.447,5.447,0,0,1,.9-.387,10.712,10.712,0,0,1,1.072-.281l1.485-.334a1.638,1.638,0,0,0,.672-.286.57.57,0,0,0,.2-.453.932.932,0,0,0-.444-.87,2.072,2.072,0,0,0-1.077-.264,1.549,1.549,0,0,0-1.767,1.38l-2.241-.4a3.034,3.034,0,0,1,1.31-2.061,5.2,5.2,0,0,1,2.839-.664q3.8,0,3.8,3.261Zm-4.456.914a2.036,2.036,0,0,0,1.564-.655,2.759,2.759,0,0,0,.606-1.938L18.5-3.524a2.534,2.534,0,0,0-.9.369.758.758,0,0,0-.312.65.842.842,0,0,0,.334.716A1.382,1.382,0,0,0,18.475-1.538ZM25.392,0V-13.5h2.558V0Z" transform="translate(1046 8544)" fill="#fff"/>
    <path id="Trazado_37503" data-name="Trazado 37503" d="M64,0A64,64,0,1,1,0,64,64,64,0,0,1,64,0Z" transform="translate(1091 8357)" fill="#fdac29"/>
    <path id="Trazado_37504" data-name="Trazado 37504" d="M-27.778.176A7.089,7.089,0,0,1-30.366-.29a6.087,6.087,0,0,1-2.061-1.3,5.864,5.864,0,0,1-1.354-2.065,7.2,7.2,0,0,1-.492-2.7,6.879,6.879,0,0,1,.844-3.45,5.744,5.744,0,0,1,2.316-2.281,6.935,6.935,0,0,1,3.335-.791,6.739,6.739,0,0,1,3.727,1.028,5.629,5.629,0,0,1,2.276,2.83l-2.461.9A3.479,3.479,0,0,0-25.6-9.835a3.891,3.891,0,0,0-2.18-.615,3.73,3.73,0,0,0-2.777,1.107,4.075,4.075,0,0,0-1.09,2.988,4.081,4.081,0,0,0,1.094,2.993A3.726,3.726,0,0,0-27.778-2.25,3.876,3.876,0,0,0-25.6-2.87a3.5,3.5,0,0,0,1.367-1.718l2.461.9A5.652,5.652,0,0,1-24.051-.857,6.718,6.718,0,0,1-27.778.176Zm13.816-9.211h2.531V0h-2.4l-.062-1.09A3.45,3.45,0,0,1-16.765.176a3.522,3.522,0,0,1-2.5-.813,3.014,3.014,0,0,1-.87-2.316V-9.035h2.54V-3.5a1.562,1.562,0,0,0,.453,1.239,1.718,1.718,0,0,0,1.173.4,2.038,2.038,0,0,0,1.437-.514,2.209,2.209,0,0,0,.567-1.674ZM-8.811,0V-13.5h2.558V0ZM-.268,0A2.729,2.729,0,0,1-2.307-.734a2.854,2.854,0,0,1-.721-2.087V-7.093H-4.8V-9.035h.571a1.491,1.491,0,0,0,1.125-.378,1.946,1.946,0,0,0,.36-1.345v-1.2H-.461v2.918H1.4v1.942H-.461v4q0,1.169,1.046,1.169H1.4V0ZM9.347-9.035h2.531V0h-2.4L9.417-1.09A3.45,3.45,0,0,1,6.543.176a3.522,3.522,0,0,1-2.5-.813,3.014,3.014,0,0,1-.87-2.316V-9.035h2.54V-3.5A1.562,1.562,0,0,0,6.17-2.259a1.718,1.718,0,0,0,1.173.4A2.038,2.038,0,0,0,8.78-2.377a2.209,2.209,0,0,0,.567-1.674ZM16.923-7.6A2.933,2.933,0,0,1,18.11-8.688a3.62,3.62,0,0,1,1.767-.453v2.259a3.423,3.423,0,0,0-2.162.545A2.379,2.379,0,0,0,17.046-4.4V0H14.5V-9.035h2.426Zm11.795,5.15a8.453,8.453,0,0,0,.22,2.206V0H26.574l-.2-.984a2.938,2.938,0,0,1-1.266.87,4.664,4.664,0,0,1-1.635.29A4.3,4.3,0,0,1,22.627.1a2.868,2.868,0,0,1-.76-.268,2.307,2.307,0,0,1-.628-.47,2.062,2.062,0,0,1-.422-.716,2.853,2.853,0,0,1-.158-.98,2.718,2.718,0,0,1,.167-.98,2.3,2.3,0,0,1,.439-.734,2.666,2.666,0,0,1,.712-.536,5.447,5.447,0,0,1,.9-.387,10.712,10.712,0,0,1,1.072-.281l1.485-.334a1.638,1.638,0,0,0,.672-.286.57.57,0,0,0,.2-.453.932.932,0,0,0-.444-.87,2.072,2.072,0,0,0-1.077-.264,1.549,1.549,0,0,0-1.767,1.38l-2.241-.4a3.034,3.034,0,0,1,1.31-2.061,5.2,5.2,0,0,1,2.839-.664q3.8,0,3.8,3.261Zm-4.456.914a2.036,2.036,0,0,0,1.564-.655,2.759,2.759,0,0,0,.606-1.938l-2.145.606a2.534,2.534,0,0,0-.9.369.758.758,0,0,0-.312.65.842.842,0,0,0,.334.716A1.382,1.382,0,0,0,24.262-1.538ZM31.179,0V-13.5h2.558V0Z" transform="translate(1155 8425)" fill="#fff"/>
  </g>
</svg>
