<svg xmlns="http://www.w3.org/2000/svg" width="1076" height="335" viewBox="0 0 1076 335">
  <g id="Grupo_18199" data-name="Grupo 18199" transform="translate(-422 -14714)">
    <rect id="Rect치ngulo_3934" data-name="Rect치ngulo 3934" width="1076" height="335" transform="translate(422 14714)" fill="#6bd3b6"/>
    <g id="Grupo_18189" data-name="Grupo 18189" transform="translate(631 14535.141)">
      <path id="Trazado_37193" data-name="Trazado 37193" d="M695.776,420.766l-29.951,6.653-9.306,2.077h-.011c-.174-.174-.37-.359-.565-.566-.065-.054-.119-.12-.184-.185-13.307-12.7-73.611-59.216-82.112-68.185-4.294-4.522-17.492-15.546-22.624-20.068,3.348-3.338.359-2.827-2.065-1.957-8.447,3.033-22.091,6.328-22.091,6.328h-.022v.011s-.033.076-.1.25c-.022.065-.054.13-.087.206s-.076.163-.12.25q-.147.277-.359.652a1.772,1.772,0,0,1-.108.2c-.044.065-.087.141-.13.206-.087.141-.185.283-.283.446s-.217.315-.337.489-.25.337-.391.522-.293.381-.446.576c-.315.391-.674.815-1.087,1.25-.2.229-.413.457-.641.7-3.838,3.935-11.067,9.4-24.493,14.872-.391.163-.772.315-1.152.457l-1.142.424c-13.524,4.805-24.047,2.359-30.635-1.685-.011-.011-.011-.011-.022,0l-.011-.011c-5.066-3.1-7.805-7.132-7.805-9.491,0-.859.815-2.577,2.206-4.892a7.4,7.4,0,0,0,1.772,1.358c6.349,3.5,15.046-3.185,22.243-13.154,12.045-16.709,10.49-18.362,2.359-23.754.413-.511.8-1,1.185-1.479.467-.576.913-1.12,1.337-1.663.218-.261.435-.511.631-.772.826-1.022,1.576-1.935,2.239-2.75.5-.609.946-1.153,1.327-1.62q.179-.212.326-.391c.424-.511.761-.913,1-1.2a1.427,1.427,0,0,0,.13-.153c.13-.141.217-.239.272-.293,1.87-2.033,9.849-3.142,18.177-5.012,4.348-.978,19.623-5.142,34.321-8.849h.011c13.437-3.381,17.122-7.023,29.961-6.142,12.807.88,61.38,38.43,65.12,39.833.924.348,3.947.152,7.958-.337,9.839-1.206,25.7-4.207,31.516-5.327,1.414-.272,2.24-.435,2.24-.435l7.49,64.391.011.055Z" transform="translate(-222.521 -22.781)" fill="#ecb98c"/>
      <path id="Trazado_37194" data-name="Trazado 37194" d="M485.812,367.33c-7.2,9.967-15.9,16.658-22.239,13.158a7.262,7.262,0,0,1-1.771-1.364c4.147-6.945,13.5-19.245,21.466-29.38,1.631-2.066,3.2-4.048,4.667-5.876.084-.1.168-.2.239-.295C496.3,348.971,497.859,350.616,485.812,367.33Z" transform="translate(-224.615 -51.618)" fill="#ecb98c"/>
      <path id="Trazado_37195" data-name="Trazado 37195" d="M521.52,330.6c-.663.815-1.413,1.728-2.239,2.75C520.1,332.33,520.836,331.417,521.52,330.6Z" transform="translate(-252.573 -45.309)" fill="#ecb98c"/>
      <path id="Trazado_37196" data-name="Trazado 37196" d="M524.968,327.448c-.381.467-.826,1.011-1.327,1.62C524.13,328.459,524.576,327.915,524.968,327.448Z" transform="translate(-254.693 -43.775)" fill="#ecb98c"/>
      <path id="Trazado_37197" data-name="Trazado 37197" d="M526.859,325.554c.413-.511.75-.913,1-1.2C527.62,324.64,527.283,325.043,526.859,325.554Z" transform="translate(-256.258 -42.272)" fill="#ecb98c"/>
      <path id="Trazado_37198" data-name="Trazado 37198" d="M529.332,323.49c-.055.054-.141.152-.272.293q.18-.2.261-.293Z" transform="translate(-257.329 -41.85)" fill="#ecb98c"/>
      <path id="Trazado_37199" data-name="Trazado 37199" d="M309.354,355.007s14.35,2.609,24.058,3.033l-21.514,99.3c-15.329-.326-31.821-.065-31.821-.065Z" transform="translate(-136.226 -57.18)" fill="#f7d4ac"/>
      <path id="Trazado_37200" data-name="Trazado 37200" d="M461.761,379.116c-.011,0-.022-.011-.032-.033,5.055-8.458,17.774-24.808,26.385-35.527.011,0,.011.011.022.011a2.862,2.862,0,0,1-.239.293c-1.457,1.826-3.033,3.805-4.664,5.871C475.264,359.874,465.914,372.169,461.761,379.116Z" transform="translate(-224.58 -51.61)" fill="#f7d4ac"/>
      <path id="Trazado_37201" data-name="Trazado 37201" d="M521.52,330.6c-.663.815-1.413,1.728-2.239,2.75C520.1,332.33,520.836,331.417,521.52,330.6Z" transform="translate(-252.573 -45.309)" fill="#f7d4ac"/>
      <path id="Trazado_37202" data-name="Trazado 37202" d="M524.968,327.448c-.381.467-.826,1.011-1.327,1.62C524.13,328.459,524.576,327.915,524.968,327.448Z" transform="translate(-254.693 -43.775)" fill="#f7d4ac"/>
      <path id="Trazado_37203" data-name="Trazado 37203" d="M527.859,324.358c-.239.282-.576.685-1,1.2C527.272,325.043,527.609,324.64,527.859,324.358Z" transform="translate(-256.258 -42.272)" fill="#f7d4ac"/>
      <path id="Trazado_37204" data-name="Trazado 37204" d="M529.332,323.49c-.055.054-.141.152-.272.293q.18-.2.261-.293Z" transform="translate(-257.329 -41.85)" fill="#f7d4ac"/>
      <path id="Trazado_37205" data-name="Trazado 37205" d="M586.895,409.638c-.3.391-.674.815-1.087,1.25C586.221,410.453,586.579,410.029,586.895,409.638Z" transform="translate(-284.931 -83.752)" fill="#f7d4ac"/>
      <path id="Trazado_37206" data-name="Trazado 37206" d="M502.293,606.635l34.854,25.646c-.206-.076-.413-.163-.62-.25-.337-.13-.663-.272-.978-.391-.468-.2-.935-.37-1.37-.511s-.87-.283-1.272-.381c-.13-.022-.25-.054-.37-.076-.032-.011-.054-.011-.087-.022a3.653,3.653,0,0,0-.467-.065,4.035,4.035,0,0,0-.62-.044,2.926,2.926,0,0,0-1.837.555,2.765,2.765,0,0,0-.707.75,3.693,3.693,0,0,0-.261.457c-2.348,4.947-15.9,13.578-30.679,6.545a75.762,75.762,0,0,1-9.936-6.143c-6.947-4.892-15.34-11.567-23.059-17.97-.522-.424-1.044-.859-1.555-1.283-11.828-9.839-21.688-18.644-21.688-18.644s-.728-.772-2.011-2.109c-.391-.424-.859-.913-1.37-1.446-4.185-4.349-11.73-12.078-19.655-19.6-.489-.468-.968-.925-1.457-1.381-7.349-6.9-14.861-13.437-20.21-16.8,13.545-9.675,21.286-11.089,27.026-5.131,6.653,6.914,2.914,13.481,2.435,14.546v.022c-.761,1.674-1.381,2.794-1.457,2.935a72.9,72.9,0,0,1,7.784-5.436c.587-.369,1.207-.739,1.838-1.087,8.436-4.708,13.057-5,17.742-.435,6.273,6.11,5.023,12.176,1,18.623l-.022.033c-.956,1.533-1.978,2.946-2.935,4.185-1.685,2.163-3.185,3.794-3.946,4.588a65.347,65.347,0,0,1,13.959-10.382,30.758,30.758,0,0,1,3.935-1.739h.011c4.838-1.729,11.187,1.8,12.165,2.75,5.1,4.957,5.435,10.338,3.914,15.6a1.741,1.741,0,0,1,1.337-.609,1.777,1.777,0,0,1,1.044.338l6.273,4.609c3.522-.4,7.567.033,10.708,3.914A11.683,11.683,0,0,1,502.293,606.635Z" transform="translate(-193.066 -149.487)" fill="#f7d4ac"/>
      <path id="Trazado_37207" data-name="Trazado 37207" d="M637.392,391.743l-.065-.076c.044.044.109.1.163.153Z" transform="translate(-309.989 -75.011)" fill="#f7d4ac"/>
      <path id="Trazado_37208" data-name="Trazado 37208" d="M590.225,578.243l70.294,53.3a2.4,2.4,0,0,0-.478-.185,1.589,1.589,0,0,0-.381-.055,1.5,1.5,0,0,0-.206.022,1.028,1.028,0,0,0-.3.109.738.738,0,0,0-.12.076.757.757,0,0,0-.141.12,2.256,2.256,0,0,0-.261.337,2.452,2.452,0,0,0-.229.479c-.021.065-.054.131-.076.207a6.6,6.6,0,0,0-.25,1.054c-.033.152-.054.326-.077.5-.011.119-.032.25-.043.38-.022.25-.044.522-.065.8l-70.5-53.422a2.34,2.34,0,0,1-.446-3.283,2.342,2.342,0,0,1,3.284-.446Z" transform="translate(-285.249 -165.526)" fill="#f7d4ac"/>
      <path id="Trazado_37209" data-name="Trazado 37209" d="M736.188,587.612a2.011,2.011,0,0,0-.446.2.011.011,0,0,0-.011.011,1.108,1.108,0,0,0-.326.228,1.88,1.88,0,0,0-.4.38,8.178,8.178,0,0,0-.968,1.522c-.206.413-.435.88-.685,1.391L663.056,538.06a2.337,2.337,0,0,1-.457-3.272h.011a2.326,2.326,0,0,1,3.272-.446Z" transform="translate(-322.052 -144.173)" fill="#f7d4ac"/>
      <path id="Trazado_37210" data-name="Trazado 37210" d="M490.758,610.972c-1.218,7.067-7.143,14.927-14.231,21.732a102.925,102.925,0,0,1-10.491,8.8c-14.731,10.773-27.8,3.827-30.549,1.044-1.74-1.772-3.327-5.512-4.251-8.012v-.011c-.13-.326-.229-.619-.326-.891-.348-.968-.555-1.6-.555-1.6s-.163-.054-.457-.141c-.381-.131-.957-.315-1.685-.555-4.175-1.359-13.219-4.577-15.459-7.447-1.989-2.544-4.37-8.6-5.7-12.263-.261-.685-.467-1.282-.642-1.761-.25-.739-.391-1.174-.391-1.174s-.391-.065-1.044-.217c-.217-.065-.478-.13-.739-.206-3.305-.837-10.371-3.1-13.676-7.491-2.881-3.816-3.283-9.067-3.207-12.208.011-.446.022-.837.044-1.174a15.429,15.429,0,0,1,.152-1.555,10.1,10.1,0,0,1-1.391.011,14.287,14.287,0,0,1-2.076-.272,13.4,13.4,0,0,1-9.73-7.5c-4.316-8.686,8.36-22.58,10.708-24.276l.457-.326c13.545-9.675,21.286-11.089,27.026-5.131,6.653,6.914,2.914,13.481,2.435,14.546v.022c-.761,1.674-1.381,2.794-1.457,2.935a72.907,72.907,0,0,1,7.784-5.436c.587-.369,1.207-.739,1.838-1.087,8.436-4.708,13.057-5,17.742-.435,6.273,6.11,5.023,12.176,1,18.623l-.022.033c-.956,1.533-1.978,2.946-2.935,4.185-1.685,2.163-3.185,3.794-3.946,4.588a65.346,65.346,0,0,1,13.959-10.382,30.758,30.758,0,0,1,3.935-1.739h.011c4.838-1.729,11.187,1.8,12.165,2.75,5.1,4.957,5.435,10.338,3.914,15.6-.13.467-.283.924-.446,1.381v.011a49.29,49.29,0,0,1-3.261,7.121v.011c-.424.794-.837,1.533-1.25,2.24-1.185,2-2.261,3.609-2.957,4.609a39.414,39.414,0,0,1,4.436-4.849,25.916,25.916,0,0,1,7.643-5.055,16.685,16.685,0,0,1,4.153-1.1,3.265,3.265,0,0,1,.337-.033c3.522-.4,7.567.033,10.708,3.914a11.683,11.683,0,0,1,2.544,5.838A13.9,13.9,0,0,1,490.758,610.972Z" transform="translate(-181.651 -149.487)" fill="#ecb98c"/>
      <path id="Trazado_37211" data-name="Trazado 37211" d="M736.188,587.612a2.011,2.011,0,0,0-.446.2.011.011,0,0,0-.011.011,1.108,1.108,0,0,0-.326.228,1.88,1.88,0,0,0-.4.38,7.514,7.514,0,0,0-.968,1.522c-.206.413-.435.88-.685,1.391L663.056,538.06a2.337,2.337,0,0,1-.457-3.272h.011a2.326,2.326,0,0,1,3.272-.446Z" transform="translate(-322.052 -144.173)" fill="#ca996e"/>
      <path id="Trazado_37212" data-name="Trazado 37212" d="M518.928,658.261a1.16,1.16,0,0,1,0,.309,4.606,4.606,0,0,1-1.476,2.531l-33.105,27.721c-.351-.97-.548-1.6-.548-1.6s-.169-.056-.464-.141L517.452,658.5c-1.181,2-2.263,3.613-2.952,4.611A38.337,38.337,0,0,1,518.928,658.261Z" transform="translate(-235.088 -204.679)" fill="#ca996e"/>
      <path id="Trazado_37213" data-name="Trazado 37213" d="M478.79,605.429a4.257,4.257,0,0,1-1.1,1.294l-19.634,15.47-21.8,17.166c-.25-.739-.391-1.174-.391-1.174s-.391-.065-1.044-.217l21.862-17.22,12.089-9.523c-1.685,2.163-3.185,3.794-3.946,4.588A65.347,65.347,0,0,1,478.79,605.429Z" transform="translate(-211.495 -178.982)" fill="#ca996e"/>
      <path id="Trazado_37214" data-name="Trazado 37214" d="M433.334,575.2l-14.122,11.241-19.786,15.742a15.459,15.459,0,0,1,.152-1.555,10.1,10.1,0,0,1-1.391.011l19.569-15.579,9.251-7.359c-.761,1.674-1.381,2.794-1.457,2.935A72.9,72.9,0,0,1,433.334,575.2Z" transform="translate(-193.674 -164.281)" fill="#ca996e"/>
      <path id="Trazado_37215" data-name="Trazado 37215" d="M660.519,631.545a2.4,2.4,0,0,0-.478-.185,1.589,1.589,0,0,0-.381-.055,1.216,1.216,0,0,0-.206.022,1.028,1.028,0,0,0-.3.109.453.453,0,0,0-.12.076.757.757,0,0,0-.141.12,1.376,1.376,0,0,0-.261.337,2.452,2.452,0,0,0-.229.479,1.227,1.227,0,0,0-.076.207,6.6,6.6,0,0,0-.25,1.054c-.033.152-.054.326-.077.5-.022.119-.032.25-.043.38-.022.25-.044.522-.065.8l-70.5-53.422a2.34,2.34,0,0,1-.446-3.283,2.342,2.342,0,0,1,3.284-.446Z" transform="translate(-285.249 -165.526)" fill="#ca996e"/>
      <path id="Trazado_37216" data-name="Trazado 37216" d="M615.749,676.93l-.011.011-.62-.261c-.337-.13-.663-.272-.978-.391-.468-.2-.935-.37-1.37-.511s-.87-.283-1.272-.38c-.12-.032-.25-.054-.37-.076-.032-.011-.054-.011-.087-.021a3.624,3.624,0,0,0-.467-.065,4.128,4.128,0,0,0-.62-.044,2.926,2.926,0,0,0-1.837.555l-27.352-20.123-.783-.576-15.633-11.491-1.207-.891L559.25,639.8a1.774,1.774,0,0,1-.718-1.218v-.011a1.742,1.742,0,0,1,.37-1.3.48.48,0,0,1,.076-.076,1.741,1.741,0,0,1,1.337-.609,1.778,1.778,0,0,1,1.044.338l6.273,4.609,1.25.924,10.567,7.773,1.435,1.055,34.854,25.646Z" transform="translate(-271.658 -194.137)" fill="#ca996e"/>
      <path id="Trazado_37217" data-name="Trazado 37217" d="M485.777,367.321c-7.2,9.969-15.894,16.655-22.243,13.154a7.4,7.4,0,0,1-1.772-1.359c-.011,0-.022-.011-.032-.033,5.055-8.458,17.774-24.808,26.385-35.527.011,0,.011.011.022.011C496.267,348.959,497.822,350.611,485.777,367.321Z" transform="translate(-224.58 -51.61)" fill="#f6e2ca"/>
      <path id="Trazado_37218" data-name="Trazado 37218" d="M434.595,564.4c-3.715,3.192-8.014.574-11.862-3.905s-5.79-9.123-2.075-12.315,9.846-2.149,13.7,2.33S438.31,561.2,434.595,564.4Z" transform="translate(-203.635 -150.236)" fill="#f6e2ca"/>
      <path id="Trazado_37219" data-name="Trazado 37219" d="M491.045,585.8c-3.786,3.075-8.005.333-11.728-4.251s-5.539-9.276-1.753-12.35,9.872-1.85,13.595,2.734S494.83,582.725,491.045,585.8Z" transform="translate(-231.264 -160.535)" fill="#f6e2ca"/>
      <path id="Trazado_37220" data-name="Trazado 37220" d="M538.172,622.094c-3.865,3.224-8.382.3-12.44-4.562s-6.122-9.833-2.257-13.057,10.289-1.894,14.347,2.971S542.037,618.869,538.172,622.094Z" transform="translate(-253.613 -177.662)" fill="#f6e2ca"/>
      <path id="Trazado_37221" data-name="Trazado 37221" d="M579.442,665.667c-3.7,3.7-8.255,1.485-12.431-2.691s-6.388-8.734-2.691-12.431,10.079-3.309,14.255.867S583.139,661.97,579.442,665.667Z" transform="translate(-273.565 -199.692)" fill="#f6e2ca"/>
      <path id="Trazado_37222" data-name="Trazado 37222" d="M315.182,328.98,312.8,339.992l-21.514,99.3-2.4,11.1L257.65,443.63,237.7,439.314,264,317.9l19.938,4.316Z" transform="translate(-115.615 -39.132)" fill="#fff"/>
      <path id="Trazado_37223" data-name="Trazado 37223" d="M170.225,274.312,134.392,439.8-209,368.37V195.123Z" fill="#0f7689"/>
      <rect id="Rect치ngulo_3933" data-name="Rect치ngulo 3933" width="52.368" height="124.229" transform="translate(495.531 399.759) rotate(171.348)" fill="#fff"/>
      <path id="Trazado_37224" data-name="Trazado 37224" d="M1298.184,216.154V387.434l-386.212,59.8L886.5,279.837Z" transform="translate(-431.184 -8.699)" fill="#414042"/>
      <path id="Trazado_37225" data-name="Trazado 37225" d="M598.38,448.863c-6.556,8.436-12.372,13.676-16.818,13.676a3.386,3.386,0,0,0-1.054.142H580.5l-70.306-53.27a2.326,2.326,0,0,0-3.272.446h-.011a2.337,2.337,0,0,0,.457,3.272l70.294,53.281c-1.413,2.881-3.74,7.306-10.2,13.155-12.187,11-22.96,7.729-24.841,6.327a9.6,9.6,0,0,0-.913-.609l-.044-.011h-.011c-.011,0-.011-.011-.021-.011l-70.294-53.3a2.343,2.343,0,1,0-2.838,3.729L539,489.109c-.022.424-.054.87-.054,1.359-.065,5.783-16.014,14.622-22.091,13.7a27.566,27.566,0,0,1-6.4-2.131h-.011L475.587,476.39a11.684,11.684,0,0,0-2.544-5.838c-3.142-3.881-7.186-4.316-10.708-3.914l-6.273-4.609a1.778,1.778,0,0,0-1.044-.337,1.741,1.741,0,0,0-1.337.609c1.522-5.262,1.185-10.643-3.914-15.6-.978-.946-7.327-4.479-12.165-2.75h-.011a30.765,30.765,0,0,0-3.935,1.739A65.346,65.346,0,0,0,419.7,456.071c.761-.794,2.261-2.424,3.946-4.588.957-1.239,1.979-2.653,2.935-4.185l.022-.033c4.023-6.446,5.273-12.513-1-18.622-4.686-4.566-9.306-4.273-17.742.435-.631.348-1.251.718-1.838,1.087a72.892,72.892,0,0,0-7.784,5.436c.076-.142.7-1.261,1.457-2.935v-.022c.479-1.065,4.218-7.632-2.435-14.546-5.74-5.957-13.481-4.544-27.026,5.131a16.4,16.4,0,0,0-4.74-2.239c-4.218-.924-13.6-1.37-23.46-1.588l21.514-99.3a29.737,29.737,0,0,0,6.512-.217c7.382-1.4,58.347-42.877,78.372-42.877s37.92,7.382,37.92,7.382l4.512,2.631c-14.7,3.707-29.973,7.871-34.321,8.849-8.328,1.87-16.307,2.978-18.177,5.012h-.011q-.082.1-.261.293a1.42,1.42,0,0,1-.13.153c-.25.282-.587.685-1,1.2q-.147.18-.326.391c-.391.467-.837,1.011-1.327,1.62-.685.815-1.424,1.728-2.239,2.75-.2.261-.413.511-.631.772-.424.543-.87,1.087-1.337,1.663-.381.478-.772.968-1.185,1.479-.011,0-.011-.011-.022-.011-8.61,10.719-21.33,27.07-26.385,35.527.011.022.022.033.032.033-1.391,2.315-2.206,4.033-2.206,4.892,0,2.359,2.74,6.392,7.805,9.491l.011.011c.011-.011.011-.011.022,0,6.588,4.044,17.111,6.49,30.635,1.685l1.142-.424c.381-.142.761-.294,1.153-.457,13.426-5.468,20.655-10.937,24.493-14.872.228-.239.446-.467.641-.7.413-.435.783-.859,1.087-1.25.152-.2.3-.391.446-.576s.272-.358.391-.522.229-.337.337-.489c.163-.239.3-.457.413-.652.13-.2.228-.381.315-.544.054-.109.108-.207.152-.3s.087-.174.12-.25.065-.142.087-.206c.054-.13.087-.207.1-.25a.011.011,0,0,0,.011-.011h.011S484.35,338.029,492.8,335a6.02,6.02,0,0,0,.815.826l.087.076.065.076.1.077.174.163.826.74c5.131,4.522,18.329,15.546,22.624,20.068,8.5,8.969,68.805,55.488,82.112,68.185.065.065.119.13.184.185.2.206.391.391.566.566.424.413.783.783,1.054,1.1a3.764,3.764,0,0,1,1.153,1.989C603.011,432.447,603.7,442.025,598.38,448.863Z" transform="translate(-166.361 -19.242)" fill="#f7d4ac"/>
      <path id="Trazado_37226" data-name="Trazado 37226" d="M663.181,473.522c-13.307-12.7-73.611-59.216-82.112-68.185-4.294-4.522-17.492-15.546-22.624-20.068l-.826-.74-.174-.163-.1-.077-.065-.076-.087-.076-.815-.826c-8.447,3.033-22.091,6.328-22.091,6.328h-.022v.011s-.033.076-.1.25c-.022.065-.054.13-.087.206s-.076.163-.12.25-.1.2-.152.3-.13.229-.207.348a1.8,1.8,0,0,1-.108.2c-.044.065-.087.141-.13.206-.087.141-.185.282-.283.446s-.217.315-.337.489-.25.337-.391.522-.293.381-.446.576c-.3.391-.674.815-1.087,1.25-.2.229-.414.457-.642.7-3.838,3.935-11.067,9.4-24.493,14.872-.391.163-.772.315-1.153.457l-1.142.424c-13.524,4.805-24.047,2.359-30.635-1.685.6.087,9.863,2.436,15.723,2.436,4.99,0,10.749-1.979,16.174-4.186,13.23-5.392,20.1-10.708,23.536-14.231.076-.076.142-.152.218-.228a4.687,4.687,0,0,0,.337-.37l.065-.065c.359-.381.674-.739.924-1.065l.022-.033a14.649,14.649,0,0,0,1.816-2.74c.044-.119.076-.2.087-.217l.587-1.881h1.707c2.087-.511,13.991-3.468,21.493-6.164,3.055-1.1,10.186-4.37,10.186-4.37s-2.718,8.316-3.153,8.773c1.022.881,2.174,1.881,3.436,2.957,6.207,5.338,13.937,11.98,17.155,15.372,4.186,4.414,22.308,19.014,39.833,33.125C638.307,448.975,658.973,469.326,663.181,473.522Z" transform="translate(-229.944 -67.557)" fill="#b18b69"/>
      <path id="Trazado_37227" data-name="Trazado 37227" d="M-209,451.362,134.392,524.31l17.479-80.726L-209,367.359Z" transform="translate(0 -84.513)" fill="#0b5967"/>
      <path id="Trazado_37228" data-name="Trazado 37228" d="M912.373,451.24l12.184,80.071,386.212-57.271v-82.5Z" transform="translate(-443.768 -92.775)" fill="#313032"/>
      <g id="Grupo_18187" data-name="Grupo 18187" transform="translate(53.781 401.657)">
        <circle id="Elipse_998" data-name="Elipse 998" cx="7.532" cy="7.532" r="7.532" transform="matrix(0.231, -0.973, 0.973, 0.231, 59.24, 28.228)" fill="#939598"/>
        <circle id="Elipse_999" data-name="Elipse 999" cx="7.532" cy="7.532" r="7.532" transform="matrix(0.928, -0.374, 0.374, 0.928, 38.756, 13.942)" fill="#939598"/>
        <circle id="Elipse_1000" data-name="Elipse 1000" cx="7.532" cy="7.532" r="7.532" transform="translate(20.159 19.804) rotate(-80.74)" fill="#939598"/>
        <circle id="Elipse_1001" data-name="Elipse 1001" cx="7.532" cy="7.532" r="7.532" transform="translate(0 14.665) rotate(-76.802)" fill="#939598"/>
      </g>
      <g id="Grupo_18188" data-name="Grupo 18188" transform="translate(487.896 404.283)">
        <circle id="Elipse_1002" data-name="Elipse 1002" cx="7.532" cy="7.532" r="7.532" transform="translate(0 21.761) rotate(-65.679)" fill="#939598"/>
        <circle id="Elipse_1003" data-name="Elipse 1003" cx="7.532" cy="7.532" r="7.532" transform="translate(19.473 14.091) rotate(-38.347)" fill="#939598"/>
        <path id="Trazado_37229" data-name="Trazado 37229" d="M1033.367,582.411a7.532,7.532,0,1,1,9.692,4.417A7.532,7.532,0,0,1,1033.367,582.411Z" transform="translate(-990.282 -567.122)" fill="#939598"/>
        <circle id="Elipse_1004" data-name="Elipse 1004" cx="7.532" cy="7.532" r="7.532" transform="matrix(0.415, -0.91, 0.91, 0.415, 60.251, 13.707)" fill="#939598"/>
      </g>
    </g>
  </g>
</svg>
