<svg xmlns="http://www.w3.org/2000/svg" xmlns:xlink="http://www.w3.org/1999/xlink" width="387.969" height="367.842" viewBox="0 0 387.969 367.842">
  <defs>
    <clipPath id="clip-path">
      <rect id="Rect치ngulo_4237" data-name="Rect치ngulo 4237" width="302.637" height="358.841" transform="translate(92.396 141.159)" fill="none"/>
    </clipPath>
  </defs>
  <g id="Grupo_18397" data-name="Grupo 18397" transform="translate(-807 -16519.998)">
    <g id="Grupo_18192" data-name="Grupo 18192" transform="translate(746.604 16387.84)">
      <g id="Grupo_18191" data-name="Grupo 18191" clip-path="url(#clip-path)">
        <g id="Grupo_18190" data-name="Grupo 18190">
          <path id="Trazado_37231" data-name="Trazado 37231" d="M285.929,341.44l-90.274,1.921-79.812,46.867a27.374,27.374,0,0,0-11.432,22.842l14.463,124.6,264.188-16.643L380.056,407.2a27.378,27.378,0,0,0-12.394-22.335Z" fill="#fc737b"/>
          <path id="Trazado_37232" data-name="Trazado 37232" d="M241.542,383.576h0a45.367,45.367,0,0,1-46.321-44.391l-2.7-127.041,90.711-1.93,2.7,127.041A45.367,45.367,0,0,1,241.542,383.576Z" fill="#12c2ff"/>
          <path id="Trazado_37233" data-name="Trazado 37233" d="M188.927,292.546h0a10.973,10.973,0,0,1-11.2-10.737l-.217-10.213a10.972,10.972,0,0,1,10.736-11.2h0a10.973,10.973,0,0,1,11.2,10.736l.217,10.214A10.972,10.972,0,0,1,188.927,292.546Z" fill="#12c2ff"/>
          <rect id="Rect치ngulo_4236" data-name="Rect치ngulo 4236" width="88.262" height="108.555" transform="translate(205.995 212.27) rotate(-1.219)" fill="#12c2ff"/>
          <path id="Trazado_37234" data-name="Trazado 37234" d="M193.4,261.538l9.177,5.84,9.907-50.013c43.418,7.681,86.211,18.475,98.3-4.953s-11.749-71.436-24.45-46.679c-7.645,14.9-28.085,12.009-28.085,12.009s-67.416-9.977-74.326,14.771C183.924,192.513,152.818,196.036,193.4,261.538Z" fill="#432e51"/>
          <path id="Trazado_37235" data-name="Trazado 37235" d="M285.546,319.132l-56.159,1.652,51.654,37.67s4.582-8.5,4.976-17.252Z" fill="#00a9d6"/>
          <path id="Trazado_37236" data-name="Trazado 37236" d="M230.67,366.479l9.175-43.93L271.5,305.536l.135,6.333-14.744,12.318,11.992,15.085s2.674,15.949-7.141,24.828L258.6,379.709Z" fill="#5ce0ff"/>
          <circle id="Elipse_1005" data-name="Elipse 1005" cx="16.709" cy="16.709" r="16.709" transform="translate(225.37 246.719) rotate(-12.154)" fill="#fff" opacity="0.35"/>
          <path id="Trazado_37237" data-name="Trazado 37237" d="M309.606,258.166a16.709,16.709,0,1,1-17.061-16.35A16.71,16.71,0,0,1,309.606,258.166Z" fill="#fff" opacity="0.35"/>
          <circle id="Elipse_1006" data-name="Elipse 1006" cx="16.709" cy="16.709" r="16.709" transform="translate(225.37 246.719) rotate(-12.154)" fill="none" stroke="#432e51" stroke-miterlimit="10" stroke-width="4"/>
          <path id="Trazado_37238" data-name="Trazado 37238" d="M309.606,258.166a16.709,16.709,0,1,1-17.061-16.35A16.71,16.71,0,0,1,309.606,258.166Z" fill="none" stroke="#432e51" stroke-miterlimit="10" stroke-width="4"/>
          <path id="Trazado_37239" data-name="Trazado 37239" d="M128.241,544.133,230.67,366.479,264.1,381.22,232.559,561.241Z" fill="#ededed"/>
        </g>
      </g>
    </g>
    <g id="Grupo_18194" data-name="Grupo 18194" transform="translate(797.611 16611.039)">
      <path id="Trazado_37240" data-name="Trazado 37240" d="M54.566,123.113c1.218-.055,2.394-.174,3.574-.287l13.226,15.16L74.6,119.057c37.915-14.339,47.925-62.3,28.815-80.147C81.285,18.242,37.1,24.68,18.049,55.929,4.516,78.122.475,125.562,54.566,123.113Z" fill="#00d6ca" style="mix-blend-mode: multiply;isolation: isolate"/>
      <g id="Grupo_18193" data-name="Grupo 18193">
        <path id="Trazado_37241" data-name="Trazado 37241" d="M57.071,81.78a36.794,36.794,0,0,1,5.89-6.371,31.756,31.756,0,0,0,4.672-5.033,6.911,6.911,0,0,0,1.045-5.034,6.243,6.243,0,0,0-2.7-4.41,10.37,10.37,0,0,0-6.119-1.649,13.952,13.952,0,0,0-7.017,1.738,13.534,13.534,0,0,0-5,5.033l-9.59-6.859A20.7,20.7,0,0,1,47.1,50.686a29.415,29.415,0,0,1,13.8-3.074q8.737,0,14.484,4.054A15.4,15.4,0,0,1,82.067,62.58a15.792,15.792,0,0,1-.458,7.217,14.617,14.617,0,0,1-2.852,5.078,55.456,55.456,0,0,1-4.768,4.633,40.018,40.018,0,0,0-4.89,4.944,8.711,8.711,0,0,0-1.84,4.945H54.812A14.154,14.154,0,0,1,57.071,81.78Z" fill="#fff"/>
        <circle id="Elipse_1007" data-name="Elipse 1007" cx="6.947" cy="6.947" r="6.947" transform="translate(54.022 93.354)" fill="#fff"/>
      </g>
    </g>
    <g id="Grupo_18196" data-name="Grupo 18196" transform="translate(933.048 16631.441)">
      <path id="Trazado_37242" data-name="Trazado 37242" d="M169.484,101.319l80.619,5.494c12.124-82.819,8.142-64.235,11.818-93.253L145.286,31.723,142.952,99.51l11.686.8,4.877,17.71Z" fill="#0087eb" style="mix-blend-mode: multiply;isolation: isolate"/>
      <g id="Grupo_18195" data-name="Grupo 18195">
        <path id="Trazado_37243" data-name="Trazado 37243" d="M193.82,65.664a36.765,36.765,0,0,1,5.891-6.37,31.789,31.789,0,0,0,4.671-5.034,6.9,6.9,0,0,0,1.045-5.034,6.242,6.242,0,0,0-2.7-4.41,10.375,10.375,0,0,0-6.119-1.648,13.964,13.964,0,0,0-7.017,1.737,13.552,13.552,0,0,0-5,5.034L175,43.079a20.7,20.7,0,0,1,8.856-8.508,29.415,29.415,0,0,1,13.8-3.074q8.736,0,14.483,4.053a15.407,15.407,0,0,1,6.682,10.914,15.8,15.8,0,0,1-.459,7.217,14.606,14.606,0,0,1-2.852,5.079,55.134,55.134,0,0,1-4.767,4.632,40.159,40.159,0,0,0-4.89,4.944,8.7,8.7,0,0,0-1.84,4.945H191.562A14.168,14.168,0,0,1,193.82,65.664Z" fill="#fff"/>
        <circle id="Elipse_1008" data-name="Elipse 1008" cx="6.947" cy="6.947" r="6.947" transform="translate(190.557 90.91) rotate(-88.2)" fill="#fff"/>
      </g>
    </g>
    <g id="Grupo_18198" data-name="Grupo 18198" transform="translate(682.016 16399.563)">
      <path id="Trazado_37244" data-name="Trazado 37244" d="M144.157,194.68l-3,15.877L159.2,201.73c29.769,10.22,62.712,2.9,71.917-17.05,14.385-31.177-6.188-59.5-42.465-63.822-30.7-3.655-73.818,16.614-61.515,53.947C129.809,182.915,136.024,189.573,144.157,194.68Z" fill="#ffb412" style="mix-blend-mode: multiply;isolation: isolate"/>
      <g id="Grupo_18197" data-name="Grupo 18197">
        <path id="Trazado_37245" data-name="Trazado 37245" d="M175.182,167.5a36.793,36.793,0,0,1,5.89-6.371,31.8,31.8,0,0,0,4.672-5.033,6.912,6.912,0,0,0,1.045-5.035,6.245,6.245,0,0,0-2.7-4.41A10.377,10.377,0,0,0,177.967,145a13.954,13.954,0,0,0-7.017,1.738,13.542,13.542,0,0,0-5,5.033l-9.59-6.859a20.708,20.708,0,0,1,8.855-8.509,29.421,29.421,0,0,1,13.8-3.074q8.737,0,14.484,4.054a15.4,15.4,0,0,1,6.681,10.914,15.786,15.786,0,0,1-.458,7.216,14.612,14.612,0,0,1-2.852,5.079,55.426,55.426,0,0,1-4.767,4.633,39.966,39.966,0,0,0-4.891,4.944,8.711,8.711,0,0,0-1.84,4.945H172.923A14.162,14.162,0,0,1,175.182,167.5Z" fill="#fff"/>
        <path id="Trazado_37246" data-name="Trazado 37246" d="M186.026,186.017a6.947,6.947,0,1,1-6.946-6.947A6.946,6.946,0,0,1,186.026,186.017Z" fill="#fff"/>
      </g>
    </g>
  </g>
</svg>
