<svg xmlns="http://www.w3.org/2000/svg" width="96" height="96" viewBox="0 0 96 96">
  <g id="Grupo_17441" data-name="Grupo 17441" transform="translate(-587 -2754)">
    <g id="Elipse_940" data-name="Elipse 940" transform="translate(587 2754)" fill="#ffd571" stroke="#6278aa" stroke-width="3">
      <circle cx="48" cy="48" r="48" stroke="none"/>
      <circle cx="48" cy="48" r="46.5" fill="none"/>
    </g>
    <g id="Grupo_17434" data-name="Grupo 17434" transform="translate(-392.645 2561.039)">
      <rect id="Rect치ngulo_2208" data-name="Rect치ngulo 2208" width="38.746" height="54.1" transform="translate(1005.402 210.612)" fill="#ffd571"/>
      <rect id="Rect치ngulo_2209" data-name="Rect치ngulo 2209" width="38.746" height="54.1" transform="translate(1011.061 216.02)" fill="#fff0ce"/>
      <circle id="Elipse_624" data-name="Elipse 624" cx="6.711" cy="6.711" r="6.711" transform="translate(1031.846 252.21)" fill="#fff"/>
      <path id="Trazado_19689" data-name="Trazado 19689" d="M1340.944,541.973a2.707,2.707,0,0,0-3.608-1.185,2.4,2.4,0,0,0-1.012,2.389h0L1331.1,545.8s-2.712-2.825-3.719-2.133l-5.419,3.383c-.964.6-.384,3.27,1.3,5.961s3.822,4.383,4.786,3.782l5.419-3.383c1.228-.9-.283-4.278-.283-4.278l4.652-3.538h0a2.4,2.4,0,0,0,2.59.14A2.707,2.707,0,0,0,1340.944,541.973Z" transform="translate(-276.89 -288.918)" fill="#ffd571"/>
      <g id="Grupo_9615" data-name="Grupo 9615" transform="translate(1004.645 209.855)">
        <path id="Trazado_19690" data-name="Trazado 19690" d="M1085.111,308.351H1050.27a.757.757,0,0,1-.757-.757v-54.1a.757.757,0,0,1,.757-.757h38.746a.757.757,0,0,1,.757.757v35.534a.757.757,0,1,1-1.513,0V254.252h-37.232v52.586h34.084a.757.757,0,1,1,0,1.513Z" transform="translate(-1043.854 -247.329)" fill="#3d4c6d"/>
        <path id="Trazado_19691" data-name="Trazado 19691" d="M1008.016,265.468H1005.4a.757.757,0,0,1-.757-.757v-54.1a.757.757,0,0,1,.757-.757h38.746a.757.757,0,0,1,.757.757V213a.757.757,0,0,1-1.514,0v-1.632h-37.232v52.586h1.857a.757.757,0,0,1,0,1.513Z" transform="translate(-1004.645 -209.855)" fill="#3d4c6d"/>
        <path id="Trazado_19692" data-name="Trazado 19692" d="M1167.9,307.09h-12.134a.757.757,0,1,1,0-1.514H1167.9a.757.757,0,0,1,0,1.514Z" transform="translate(-1136.046 -293.503)" fill="#3d4c6d"/>
        <g id="Grupo_9613" data-name="Grupo 9613" transform="translate(11.388 25.863)">
          <path id="Trazado_19693" data-name="Trazado 19693" d="M1107.831,416.428H1095.7a.757.757,0,1,1,0-1.513h12.134a.757.757,0,0,1,0,1.513Z" transform="translate(-1094.94 -414.915)" fill="#3d4c6d"/>
          <path id="Trazado_19694" data-name="Trazado 19694" d="M1123.054,460.966H1095.7a.757.757,0,1,1,0-1.513h27.357a.757.757,0,1,1,0,1.513Z" transform="translate(-1094.94 -453.835)" fill="#3d4c6d"/>
          <path id="Trazado_19695" data-name="Trazado 19695" d="M1123.054,505.5H1095.7a.757.757,0,1,1,0-1.513h27.357a.757.757,0,1,1,0,1.513Z" transform="translate(-1094.94 -492.755)" fill="#3d4c6d"/>
          <path id="Trazado_19696" data-name="Trazado 19696" d="M1106.717,550.042H1095.7a.757.757,0,1,1,0-1.513h11.021a.757.757,0,0,1,0,1.513Z" transform="translate(-1094.94 -531.676)" fill="#3d4c6d"/>
          <path id="Trazado_19697" data-name="Trazado 19697" d="M1102.855,594.578H1095.7a.757.757,0,1,1,0-1.513h7.158a.757.757,0,1,1,0,1.513Z" transform="translate(-1094.94 -570.596)" fill="#3d4c6d"/>
        </g>
        <path id="Trazado_19698" data-name="Trazado 19698" d="M1182.869,340.07h-7.085a.757.757,0,0,1,0-1.514h7.085a.757.757,0,0,1,0,1.514Z" transform="translate(-1153.538 -322.324)" fill="#3d4c6d"/>
        <path id="Trazado_19699" data-name="Trazado 19699" d="M1222.729,556.563a7.3,7.3,0,1,1,4.08-13.345.757.757,0,1,1-.847,1.254,5.783,5.783,0,1,0,.54,9.177.757.757,0,1,1,.988,1.147A7.3,7.3,0,0,1,1222.729,556.563Z" transform="translate(-1188.848 -500.084)" fill="#3d4c6d"/>
        <g id="Grupo_9614" data-name="Grupo 9614" transform="translate(39.205 40.94)">
          <path id="Trazado_19700" data-name="Trazado 19700" d="M1322.339,597.158a3.575,3.575,0,0,1-2.138-.943,14.716,14.716,0,0,1-4.57-7.322c-.407-1.873.146-2.665.682-3s1.49-.484,2.995.7a14.714,14.714,0,0,1,4.57,7.322c.407,1.873-.147,2.665-.682,3h0A1.589,1.589,0,0,1,1322.339,597.158Zm.456-.881h0Zm-5.606-9.114a.168.168,0,0,0-.074.014c-.241.184-.236,2.078,1.537,4.918s3.471,3.676,3.743,3.54c.242-.186.236-2.079-1.536-4.918C1319.206,588.07,1317.617,587.164,1317.189,587.164Z" transform="translate(-1315.49 -579.198)" fill="#3d4c6d"/>
          <path id="Trazado_19701" data-name="Trazado 19701" d="M1326.031,573.6a.757.757,0,0,1-.4-1.4l5.419-3.383c.242-.184.236-2.078-1.536-4.918s-3.472-3.677-3.744-3.54l-5.419,3.383a.757.757,0,1,1-.8-1.284l5.419-3.383c.536-.335,1.49-.484,2.995.7a14.716,14.716,0,0,1,4.57,7.322c.407,1.873-.146,2.665-.682,3l-5.419,3.383A.754.754,0,0,1,1326.031,573.6Z" transform="translate(-1318.725 -555.76)" fill="#3d4c6d"/>
          <path id="Trazado_19702" data-name="Trazado 19702" d="M1394.479,560.6a.757.757,0,0,1-.459-1.359l5.1-3.879a.623.623,0,0,0-.656-1.052l-5.725,2.878a.757.757,0,1,1-.68-1.352l5.725-2.878a2.136,2.136,0,0,1,2.252,3.608l-5.1,3.879A.753.753,0,0,1,1394.479,560.6Z" transform="translate(-1382.038 -550.422)" fill="#3d4c6d"/>
          <path id="Trazado_19703" data-name="Trazado 19703" d="M1436.623,541.552a3.462,3.462,0,0,1-1.874-.577.757.757,0,0,1,.823-1.27,1.662,1.662,0,0,0,1.778.133,1.492,1.492,0,0,0,.659-1.1,2.584,2.584,0,0,0-1.67-2.676,1.493,1.493,0,0,0-1.275.11,1.663,1.663,0,0,0-.661,1.656.757.757,0,1,1-1.5.181,3.153,3.153,0,0,1,1.363-3.121,2.98,2.98,0,0,1,2.549-.264,4.095,4.095,0,0,1,2.7,4.321,2.978,2.978,0,0,1-1.356,2.174A2.872,2.872,0,0,1,1436.623,541.552Z" transform="translate(-1418.067 -534.458)" fill="#3d4c6d"/>
        </g>
        <path id="Trazado_19704" data-name="Trazado 19704" d="M1252.868,557.285a.754.754,0,0,1-.467-.162l-2.337-1.836a.757.757,0,0,1,.935-1.19l1.827,1.435,7.086-6.637a.757.757,0,1,1,1.035,1.1l-7.56,7.081A.755.755,0,0,1,1252.868,557.285Z" transform="translate(-1218.857 -505.955)" fill="#3d4c6d"/>
      </g>
    </g>
  </g>
</svg>
