<svg xmlns="http://www.w3.org/2000/svg" width="813.839" height="255.035" viewBox="0 0 813.839 255.035">
  <g id="Grupo_17597" data-name="Grupo 17597" transform="translate(-361.482 -288.883)">
    <g id="Grupo_17485" data-name="Grupo 17485" transform="translate(1017.286 288.883)">
      <g id="Grupo_17451" data-name="Grupo 17451" transform="translate(24.19 87.213)">
        <path id="Trazado_36428" data-name="Trazado 36428" d="M5271.05,934.7a8.62,8.62,0,1,1,6.4-2.837h0A8.6,8.6,0,0,1,5271.05,934.7Zm.009-12.132c-.061,0-.121,0-.182,0a3.508,3.508,0,1,0,.182,0Z" transform="translate(-5262.434 -917.458)" fill="#fdd108"/>
      </g>
      <g id="Grupo_17452" data-name="Grupo 17452" transform="translate(5.474 114.454)">
        <path id="Trazado_36429" data-name="Trazado 36429" d="M5187.1,1188.355c-3.284,0-14.511-3.328-23.853-15.9-3.327-4.478-6.038-10.024-8.66-15.386a125.2,125.2,0,0,0-7.109-13.2c-4.225-6.484-9.478-11.249-13.313-14.727-4.789-4.343-8.249-7.482-5.834-10.845,3.65-5.085,10.865-5.95,17.958-2.148,5.27,2.825,10.55,8.278,15.21,13.089,5.109,5.275,10.9,11.248,13.394,9.708a1.826,1.826,0,1,1,1.921,3.106c-4.994,3.092-10.993-3.1-17.938-10.272-4.474-4.619-9.545-9.854-14.313-12.411-5.4-2.895-10.732-2.47-13.264,1.058-.516.717,3,3.9,5.321,6.01,3.981,3.612,9.436,8.559,13.918,15.439a127.624,127.624,0,0,1,7.331,13.585c2.667,5.454,5.186,10.6,8.311,14.812,8.967,12.071,19.515,14.516,20.788,14.451a1.826,1.826,0,0,1,.727,3.579A2.856,2.856,0,0,1,5187.1,1188.355Zm-.16-3.625-.039.008Z" transform="translate(-5127.54 -1113.795)" fill="#fc737b"/>
      </g>
      <circle id="Elipse_944" data-name="Elipse 944" cx="4.659" cy="4.659" r="4.659" transform="matrix(0.999, -0.05, 0.05, 0.999, 95.436, 32.973)" fill="#fc737b"/>
      <circle id="Elipse_945" data-name="Elipse 945" cx="7.783" cy="7.783" r="7.783" transform="translate(71.737 208.305) rotate(-45)" fill="#f8d21c"/>
      <circle id="Elipse_946" data-name="Elipse 946" cx="22.765" cy="22.765" r="22.765" transform="translate(88.601 161.567)" fill="#fc737b"/>
      <g id="Grupo_17471" data-name="Grupo 17471" transform="translate(9.127 27.594)">
        <g id="Grupo_17453" data-name="Grupo 17453" transform="translate(37.331 31.959)">
          <path id="Trazado_36430" data-name="Trazado 36430" d="M5423.2,720.551a.274.274,0,0,1-.075-.537c2.348-.677,4.45-1.159,7.359-1.825l.333-.076a.274.274,0,0,1,.123.534l-.333.076c-2.9.664-5,1.144-7.33,1.817A.282.282,0,0,1,5423.2,720.551Z" transform="translate(-5422.926 -718.105)" fill="#374170"/>
        </g>
        <g id="Grupo_17454" data-name="Grupo 17454" transform="translate(100.074 29.534)">
          <path id="Trazado_36431" data-name="Trazado 36431" d="M5883.252,702.869a.266.266,0,0,1-.082-.012l-.746-.234a24.617,24.617,0,0,0-7.017-1.448.274.274,0,0,1,0-.548h.005a25.054,25.054,0,0,1,7.172,1.474l.743.234a.274.274,0,0,1-.081.535Z" transform="translate(-5875.139 -700.626)" fill="#374170"/>
        </g>
        <g id="Grupo_17455" data-name="Grupo 17455" transform="translate(126.346 56.454)">
          <path id="Trazado_36432" data-name="Trazado 36432" d="M6070.14,898.776a.242.242,0,0,1-.181-.081,13.308,13.308,0,0,0-5.3-3.577.242.242,0,1,1,.158-.457,13.811,13.811,0,0,1,5.506,3.711.242.242,0,0,1-.18.4Z" transform="translate(-6064.493 -894.647)" fill="#374170"/>
        </g>
        <g id="Grupo_17456" data-name="Grupo 17456" transform="translate(116.561 70.595)">
          <path id="Trazado_36433" data-name="Trazado 36433" d="M6001.263,1001.987a.274.274,0,0,1-.206-.094c-1.115-1.277-4.384-4.086-6.889-4.791a.274.274,0,1,1,.148-.527c2.615.735,6,3.639,7.152,4.958a.273.273,0,0,1-.026.387A.268.268,0,0,1,6001.263,1001.987Z" transform="translate(-5993.967 -996.565)" fill="#374170"/>
        </g>
        <g id="Grupo_17457" data-name="Grupo 17457" transform="translate(41.09 53.289)">
          <path id="Trazado_36434" data-name="Trazado 36434" d="M5450.29,874.5a.274.274,0,0,1-.075-.537c2.334-.674,5.158-1.331,8.608-2.121a.274.274,0,0,1,.123.534c-3.441.788-6.258,1.443-8.58,2.113A.274.274,0,0,1,5450.29,874.5Z" transform="translate(-5450.016 -871.835)" fill="#374170"/>
        </g>
        <g id="Grupo_17458" data-name="Grupo 17458" transform="translate(95.824 49.88)">
          <path id="Trazado_36435" data-name="Trazado 36435" d="M5853.169,849.86a.272.272,0,0,1-.108-.023,27.275,27.275,0,0,0-8.307-2.025.274.274,0,0,1-.25-.3.277.277,0,0,1,.3-.249,27.814,27.814,0,0,1,8.476,2.068.274.274,0,0,1-.108.525Z" transform="translate(-5844.503 -847.266)" fill="#374170"/>
        </g>
        <g id="Grupo_17459" data-name="Grupo 17459" transform="translate(68.743 24.233)">
          <path id="Trazado_36436" data-name="Trazado 36436" d="M5653.661,663.35a18.086,18.086,0,0,1-4.136-.392.274.274,0,0,1,.142-.529,22.929,22.929,0,0,0,8.151.012.274.274,0,1,1,.11.537A22.28,22.28,0,0,1,5653.661,663.35Z" transform="translate(-5649.322 -662.419)" fill="#374170"/>
        </g>
        <g id="Grupo_17460" data-name="Grupo 17460" transform="translate(68.411 48.215)">
          <path id="Trazado_36437" data-name="Trazado 36437" d="M5650.156,837.851a.256.256,0,0,1,0-.512,12.1,12.1,0,0,0,4.813-1.007,16.661,16.661,0,0,1-7.841-.086.256.256,0,0,1,.127-.5,16.1,16.1,0,0,0,9.44-.463.256.256,0,0,1,.263.428c-.091.084-2.268,2.06-6.793,2.137Z" transform="translate(-5646.931 -835.27)" fill="#374170"/>
        </g>
        <g id="Grupo_17461" data-name="Grupo 17461" transform="translate(45.77 76.793)">
          <path id="Trazado_36438" data-name="Trazado 36438" d="M5484.026,1045.441a.274.274,0,0,1-.141-.509,41.949,41.949,0,0,1,11.389-3.688.274.274,0,0,1,.089.541,41.136,41.136,0,0,0-11.2,3.617A.273.273,0,0,1,5484.026,1045.441Z" transform="translate(-5483.752 -1041.242)" fill="#374170"/>
        </g>
        <g id="Grupo_17462" data-name="Grupo 17462" transform="translate(89.905 75.916)">
          <path id="Trazado_36439" data-name="Trazado 36439" d="M5811.852,1038.476a.276.276,0,0,1-.11-.023,35.76,35.76,0,0,0-9.663-2.987.274.274,0,0,1-.225-.315.268.268,0,0,1,.315-.225,36.249,36.249,0,0,1,9.794,3.026.274.274,0,0,1-.111.525Z" transform="translate(-5801.85 -1034.921)" fill="#374170"/>
        </g>
        <g id="Grupo_17463" data-name="Grupo 17463" transform="translate(71.352 74.291)">
          <path id="Trazado_36440" data-name="Trazado 36440" d="M5675.994,1024.033l-.035,0a27.3,27.3,0,0,0-7.525-.037.271.271,0,0,1-.307-.237.275.275,0,0,1,.237-.307,27.829,27.829,0,0,1,7.665.037.274.274,0,0,1-.035.546Z" transform="translate(-5668.125 -1023.204)" fill="#374170"/>
        </g>
        <g id="Grupo_17464" data-name="Grupo 17464" transform="translate(65.102)">
          <path id="Trazado_36441" data-name="Trazado 36441" d="M5665.81,574.6a1.1,1.1,0,0,1-.325-.05c-4.091-1.27-5.468-6.451-5.4-9.625.188-8.242,6.207-38.741,8.185-48.763.21-1.064.374-1.893.479-2.433.6-3.082,1.843-9.5-.031-12.266a3,3,0,0,0-2.021-1.3c-5.076-.973-7.093,5.163-8.289,10.615-.7,3.175-1.716,7.424-2.8,11.924-2.1,8.762-4.485,18.692-5.951,26.6l-.085.466c-1.409,7.672-3.237,14.763-7.038,14.763h-.071c-3.489-.081-3.848-6.238-4.345-14.758l-.073-1.247c-.374-6.3-1.244-37.189-1.5-46.505l-.01-.376c-.271-7.211-1.313-11.684-5.673-11.684-4.561,0-4.994,7.056-5.042,13.67l-.006.729-.548,57.176a1.1,1.1,0,1,1-2.191-.021l.554-57.9c.043-5.927.114-15.846,7.233-15.846,7.346,0,7.683,8.977,7.863,13.8l.011.391c.257,9.308,1.127,40.165,1.5,46.436l.074,1.249c.276,4.735.737,12.661,2.207,12.7h.018c.944,0,2.816-1.706,4.885-12.967l.086-.47c1.476-7.962,3.866-17.922,5.975-26.709,1.077-4.489,2.095-8.728,2.787-11.882.828-3.773,3.029-13.8,10.841-12.3a5.157,5.157,0,0,1,3.424,2.227c2.384,3.523,1.072,10.281.367,13.911-.105.542-.269,1.373-.479,2.44-1.969,9.977-7.962,40.336-8.144,48.389-.059,2.591,1.1,6.626,3.855,7.482a1.1,1.1,0,0,1-.325,2.143Z" transform="translate(-5623.081 -487.765)" fill="#374170"/>
        </g>
        <g id="Grupo_17465" data-name="Grupo 17465" transform="translate(32.027 11.198)">
          <path id="Trazado_36442" data-name="Trazado 36442" d="M5396.376,664.568h-.042a1.1,1.1,0,0,1-1.053-1.137c.2-5.229-.031-12.206-.275-15.232-1.2-14.888-7.451-51.662-9.339-62.578l-.1-.574c-.8-4.509-2.678-15.069,3.949-16.427,7.033-1.441,9.251,8.043,10.314,12.6l.12.51c.547,2.315,1.349,5.886,2.277,10.02,2.593,11.546,6.144,27.359,7.69,31.627s3.14,8.164,5.63,9.122c1.354.52,3.059.22,5.208-.922a1.1,1.1,0,0,1,1.028,1.935c-2.743,1.457-5.04,1.8-7.023,1.032-3.357-1.291-5.112-5.483-6.9-10.42-1.594-4.4-5.163-20.29-7.768-31.894-.927-4.128-1.728-7.692-2.271-10l-.121-.515c-1.452-6.216-3.388-11.844-7.741-10.953-4.536.929-2.861,10.35-2.23,13.9l.1.585c1.892,10.939,8.156,47.8,9.363,62.775.285,3.534.473,10.461.28,15.493A1.1,1.1,0,0,1,5396.376,664.568Z" transform="translate(-5384.697 -568.47)" fill="#374170"/>
        </g>
        <g id="Grupo_17466" data-name="Grupo 17466" transform="translate(101.926 107.223)">
          <path id="Trazado_36443" data-name="Trazado 36443" d="M5891.1,1349.952a1.1,1.1,0,0,1-1.094-1.039l-1.461-27.871c-.531-11.581,2.4-17.468,5.506-23.7a81.45,81.45,0,0,0,3.8-8.467c2.939-7.979,3.243-13,3.662-19.947.131-2.169.279-4.626.526-7.371a1.1,1.1,0,0,1,2.183.2c-.245,2.712-.385,5.048-.522,7.306-.415,6.867-.742,12.29-3.794,20.572a83.2,83.2,0,0,1-3.894,8.686c-3.1,6.231-5.783,11.611-5.279,22.617l1.461,27.864a1.1,1.1,0,0,1-1.038,1.152Z" transform="translate(-5888.486 -1260.559)" fill="#374170"/>
        </g>
        <g id="Grupo_17467" data-name="Grupo 17467" transform="translate(105.761 42.054)">
          <path id="Trazado_36444" data-name="Trazado 36444" d="M5927.24,852.447c-.031,0-.063,0-.094,0a1.1,1.1,0,0,1-1-1.185,51.43,51.43,0,0,1,2.705-11.866c1.2-3.442,6.252-13.055,11.133-22.352,2.438-4.644,4.742-9.032,6.577-12.661,2.709-5.354,3.49-9.491,1.993-10.539a3.367,3.367,0,0,0-2.682-.732c-2.063.4-4.643,2.987-7.888,7.924l-19.845,30.194a1.1,1.1,0,0,1-1.832-1.2l19.845-30.194c3.687-5.609,6.558-8.345,9.308-8.872a5.525,5.525,0,0,1,4.351,1.089c3.5,2.449.69,9.4-1.294,13.324-1.843,3.644-4.15,8.038-6.593,12.691-4.845,9.227-9.854,18.768-11,22.058a49.145,49.145,0,0,0-2.591,11.327A1.1,1.1,0,0,1,5927.24,852.447Z" transform="translate(-5916.129 -790.862)" fill="#374170"/>
        </g>
        <g id="Grupo_17468" data-name="Grupo 17468" transform="translate(67.277 111.51)">
          <path id="Trazado_36445" data-name="Trazado 36445" d="M5650.213,1329.952h-.028a.256.256,0,0,1-.226-.283c1.743-15.691-2.1-28.753-11.128-37.776a.257.257,0,0,1,.363-.362c9.137,9.137,13.035,22.344,11.274,38.2A.256.256,0,0,1,5650.213,1329.952Z" transform="translate(-5638.757 -1291.454)" fill="#374170"/>
        </g>
        <g id="Grupo_17469" data-name="Grupo 17469" transform="translate(52.666 157.604)">
          <path id="Trazado_36446" data-name="Trazado 36446" d="M5534.546,1670.323a1.057,1.057,0,0,1-.157-.011,1.1,1.1,0,0,1-.928-1.241c.05-.352,5.023-35.289,1.18-43.857a1.1,1.1,0,1,1,2-.9c4.1,9.144-.8,43.6-1.012,45.067A1.1,1.1,0,0,1,5534.546,1670.323Z" transform="translate(-5533.449 -1623.67)" fill="#374170"/>
        </g>
        <g id="Grupo_17470" data-name="Grupo 17470" transform="translate(0 82.874)">
          <path id="Trazado_36447" data-name="Trazado 36447" d="M5212.52,1158.179c-3.432,0-14.412-3.928-23.1-15.629-3.286-4.423-5.982-9.937-8.589-15.27a125.533,125.533,0,0,0-7.155-13.274c-4.276-6.564-9.569-11.365-13.433-14.87-4.676-4.242-7.766-7.044-5.732-9.878,3.427-4.774,10.265-5.551,17.02-1.93,5.17,2.771,10.409,8.181,15.031,12.953,5.814,6,11.3,11.675,14.3,9.821a1.1,1.1,0,1,1,1.153,1.863c-4.491,2.784-10.3-3.216-17.028-10.159-4.511-4.658-9.625-9.936-14.494-12.547-5.74-3.076-11.447-2.564-14.2,1.276-.9,1.246,1.894,3.775,5.423,6.977,3.953,3.585,9.367,8.5,13.8,15.3a127.1,127.1,0,0,1,7.288,13.508c2.682,5.484,5.215,10.664,8.379,14.925,9.43,12.692,20.51,14.882,21.478,14.74a1.119,1.119,0,0,1,1.276.872,1.072,1.072,0,0,1-.812,1.268A2.771,2.771,0,0,1,5212.52,1158.179Z" transform="translate(-5153.87 -1085.063)" fill="#374170"/>
        </g>
      </g>
      <g id="Grupo_17472" data-name="Grupo 17472">
        <path id="Trazado_36448" data-name="Trazado 36448" d="M5102.811,392.764l-14.72-12.784,10.641-13.666-8.391-15.152,14.68-9.188-2.721-17.1,16.928-3.647,3.275-17.01,17.159,2.377,8.9-14.846,15.336,8.068,13.455-10.933L5189,301.732l16.385-5.648,6.549,16.044,17.331.27.678,17.322,16.187,6.2-5.977,18.57-6.258-2.014,4.069-12.645-14.422-5.528-.6-15.433-15.45-.24-5.841-14.308-14.606,5.035-10.371-11.447-11.986,9.74-13.674-7.193-7.941,13.242-15.285-2.118-2.917,15.153-15.091,3.252,2.427,15.248-13.086,8.19,7.476,13.5-9.481,12.175,10.016,8.7Z" transform="translate(-5088.09 -288.883)" fill="#fdd108"/>
      </g>
      <g id="Grupo_17474" data-name="Grupo 17474" transform="translate(135.583 145.978)">
        <g id="Grupo_17473" data-name="Grupo 17473">
          <path id="Trazado_36449" data-name="Trazado 36449" d="M6068.436,1359.551l-3.153-1.843,4.4-7.521-4.387-7.31,3.132-1.879,5.5,9.165Z" transform="translate(-6065.282 -1340.998)" fill="#45c3cc"/>
        </g>
      </g>
      <g id="Grupo_17476" data-name="Grupo 17476" transform="translate(144.178 145.978)">
        <g id="Grupo_17475" data-name="Grupo 17475">
          <path id="Trazado_36450" data-name="Trazado 36450" d="M6130.385,1359.551l-3.153-1.843,4.4-7.521-4.387-7.31,3.131-1.879,5.5,9.165Z" transform="translate(-6127.232 -1340.998)" fill="#45c3cc"/>
        </g>
      </g>
      <g id="Grupo_17478" data-name="Grupo 17478" transform="translate(18.631 192.242)">
        <g id="Grupo_17477" data-name="Grupo 17477">
          <path id="Trazado_36451" data-name="Trazado 36451" d="M5225.524,1692.994l-3.153-1.843,4.4-7.52-4.386-7.31,3.131-1.879,5.5,9.166Z" transform="translate(-5222.372 -1674.44)" fill="#45c3cc"/>
        </g>
      </g>
      <g id="Grupo_17480" data-name="Grupo 17480" transform="translate(27.227 192.242)">
        <g id="Grupo_17479" data-name="Grupo 17479">
          <path id="Trazado_36452" data-name="Trazado 36452" d="M5287.475,1692.994l-3.153-1.843,4.4-7.52-4.387-7.31,3.132-1.879,5.5,9.166Z" transform="translate(-5284.321 -1674.44)" fill="#45c3cc"/>
        </g>
      </g>
      <g id="Grupo_17482" data-name="Grupo 17482" transform="translate(35.822 192.242)">
        <g id="Grupo_17481" data-name="Grupo 17481">
          <path id="Trazado_36453" data-name="Trazado 36453" d="M5349.425,1692.994l-3.153-1.843,4.4-7.52-4.387-7.31,3.132-1.879,5.5,9.166Z" transform="translate(-5346.271 -1674.44)" fill="#45c3cc"/>
        </g>
      </g>
      <g id="Grupo_17484" data-name="Grupo 17484" transform="translate(11.415 2.431)">
        <g id="Grupo_17483" data-name="Grupo 17483">
          <path id="Trazado_36454" data-name="Trazado 36454" d="M5173.513,324.956l-3.153-1.843,4.4-7.52-4.386-7.31,3.131-1.879,5.5,9.165Z" transform="translate(-5170.36 -306.403)" fill="#45c3cc"/>
        </g>
      </g>
    </g>
    <g id="Grupo_17519" data-name="Grupo 17519" transform="translate(813.883 317.73)">
      <g id="Grupo_17486" data-name="Grupo 17486" transform="translate(9.122 40.702)">
        <path id="Trazado_36455" data-name="Trazado 36455" d="M3696.459,807.379a8.621,8.621,0,1,1,6.4-2.837A8.59,8.59,0,0,1,3696.459,807.379Zm.006-12.13a3.509,3.509,0,1,0,2.353.9A3.5,3.5,0,0,0,3696.466,795.249Z" transform="translate(-3687.843 -790.138)" fill="#fc737b"/>
      </g>
      <g id="Grupo_17487" data-name="Grupo 17487" transform="translate(16.071 92.832)">
        <path id="Trazado_36456" data-name="Trazado 36456" d="M3795.352,1173.894a7.011,7.011,0,0,1-5.438-2.769c-1.02-1.09-1.564-1.614-2.771-1.614s-1.749.524-2.769,1.613a6.719,6.719,0,0,1-10.872,0c-1.021-1.089-1.564-1.613-2.77-1.613s-1.749.524-2.769,1.613a6.716,6.716,0,0,1-10.869,0c-1.02-1.089-1.563-1.613-2.768-1.613s-1.748.524-2.767,1.613a6.717,6.717,0,0,1-10.869,0c-1.02-1.089-1.563-1.613-2.769-1.613v-3.652a7,7,0,0,1,5.435,2.77c1.02,1.09,1.563,1.613,2.769,1.613s1.748-.524,2.767-1.613a6.715,6.715,0,0,1,10.868,0c1.019,1.089,1.563,1.613,2.767,1.613s1.749-.524,2.769-1.613a6.719,6.719,0,0,1,10.871,0c1.02,1.09,1.563,1.613,2.77,1.613s1.749-.524,2.769-1.613a6.721,6.721,0,0,1,10.873,0c1.021,1.09,1.564,1.614,2.771,1.614s1.751-.524,2.771-1.614a7.011,7.011,0,0,1,5.438-2.769v3.652c-1.207,0-1.751.524-2.771,1.614A7.011,7.011,0,0,1,3795.352,1173.894Z" transform="translate(-3737.923 -1165.859)" fill="#fc737b"/>
      </g>
      <g id="Grupo_17488" data-name="Grupo 17488" transform="translate(143.168 18.568)">
        <path id="Trazado_36457" data-name="Trazado 36457" d="M4688.254,638.652c-2.6,0-3.913-1.672-4.869-2.892-.865-1.1-1.235-1.491-1.993-1.491s-1.128.386-1.993,1.491c-.955,1.221-2.265,2.892-4.87,2.892s-3.912-1.672-4.866-2.892c-.864-1.1-1.234-1.491-1.991-1.491s-1.127.386-1.992,1.491c-.955,1.221-2.264,2.892-4.868,2.892s-3.912-1.672-4.867-2.892c-.863-1.1-1.233-1.491-1.99-1.491v-3.652c2.6,0,3.912,1.672,4.866,2.892.864,1.1,1.233,1.491,1.99,1.491s1.128-.386,1.992-1.491c.955-1.221,2.263-2.892,4.868-2.892s3.912,1.672,4.866,2.892c.864,1.1,1.234,1.491,1.991,1.491s1.129-.387,1.994-1.491c.955-1.221,2.264-2.892,4.869-2.892s3.914,1.672,4.869,2.892c.865,1.1,1.235,1.491,1.992,1.491Z" transform="translate(-4653.957 -630.617)" fill="#fc737b"/>
      </g>
      <g id="Grupo_17489" data-name="Grupo 17489" transform="translate(0 102.572)">
        <path id="Trazado_36458" data-name="Trazado 36458" d="M3679.524,1244.094a7.012,7.012,0,0,1-5.438-2.769c-1.02-1.09-1.564-1.614-2.771-1.614s-1.749.524-2.769,1.613a6.719,6.719,0,0,1-10.872,0c-1.02-1.089-1.564-1.613-2.77-1.613s-1.749.524-2.768,1.613a6.716,6.716,0,0,1-10.869,0c-1.02-1.089-1.563-1.613-2.768-1.613s-1.748.524-2.767,1.613a6.716,6.716,0,0,1-10.869,0c-1.02-1.089-1.563-1.613-2.769-1.613v-3.653a7,7,0,0,1,5.435,2.77c1.02,1.089,1.563,1.613,2.768,1.613s1.748-.523,2.767-1.613a6.715,6.715,0,0,1,10.868,0c1.02,1.089,1.563,1.613,2.767,1.613s1.749-.523,2.769-1.613a6.718,6.718,0,0,1,10.871,0c1.021,1.09,1.564,1.614,2.77,1.614s1.75-.523,2.769-1.613a6.721,6.721,0,0,1,10.873,0c1.02,1.09,1.564,1.614,2.771,1.614s1.751-.523,2.771-1.614a7.012,7.012,0,0,1,5.438-2.769v3.653c-1.207,0-1.751.524-2.771,1.614A7.012,7.012,0,0,1,3679.524,1244.094Z" transform="translate(-3622.095 -1236.059)" fill="#fc737b"/>
      </g>
      <g id="Grupo_17490" data-name="Grupo 17490" transform="translate(127.422 42.783)">
        <path id="Trazado_36459" data-name="Trazado 36459" d="M4552.308,868.185q-.078,0-.157-.006a1.827,1.827,0,0,1-1.665-1.975,52.313,52.313,0,0,1,2.744-12.044c1.223-3.493,6.284-13.133,11.178-22.455,2.437-4.641,4.738-9.024,6.57-12.647,3.039-6.009,2.979-9.084,2.226-9.611a2.625,2.625,0,0,0-2.125-.613c-1.833.351-4.328,2.911-7.415,7.607l-19.845,30.194a1.826,1.826,0,1,1-3.052-2.006l19.846-30.194c3.8-5.788,6.819-8.621,9.779-9.189a6.218,6.218,0,0,1,4.907,1.208c2.97,2.079,2.6,7.007-1.062,14.252-1.845,3.648-4.152,8.043-6.6,12.7-4.833,9.205-9.83,18.724-10.964,21.963a48.338,48.338,0,0,0-2.552,11.148A1.827,1.827,0,0,1,4552.308,868.185Z" transform="translate(-4540.466 -805.138)" fill="#45c3cc"/>
      </g>
      <g id="Grupo_17492" data-name="Grupo 17492" transform="translate(44.875 159.616)">
        <g id="Grupo_17491" data-name="Grupo 17491">
          <path id="Trazado_36460" data-name="Trazado 36460" d="M3997.356,1698.986a51.894,51.894,0,0,1-51.834-51.777l12.418-.014a39.464,39.464,0,0,0,39.417,39.373h.045a39.478,39.478,0,0,0,39.373-39.372l12.418.013a51.917,51.917,0,0,1-51.777,51.777Z" transform="translate(-3945.522 -1647.195)" fill="#fdd108"/>
        </g>
      </g>
      <g id="Grupo_17494" data-name="Grupo 17494" transform="translate(76.429 128.048)">
        <g id="Grupo_17493" data-name="Grupo 17493">
          <path id="Trazado_36461" data-name="Trazado 36461" d="M4192.425,1484.486a35.223,35.223,0,0,1-19.479-5.843l6.846-10.361a22.85,22.85,0,0,0,12.633,3.786h.028a22.958,22.958,0,0,0,12.7-42.063l6.9-10.327a35.377,35.377,0,0,1-19.587,64.808Z" transform="translate(-4172.946 -1419.678)" fill="#fdd108"/>
        </g>
      </g>
      <g id="Grupo_17495" data-name="Grupo 17495" transform="translate(93.487 86.83)">
        <path id="Trazado_36462" data-name="Trazado 36462" d="M4300.252,1128.9c-2.363,0-4.145-5.211-4.343-5.816a.365.365,0,1,1,.693-.228c.7,2.118,2.355,5.427,3.725,5.311,2.1-.184,8.636-4.08,8.7-4.12a.365.365,0,0,1,.375.627c-.275.164-6.743,4.021-9.013,4.22C4300.345,1128.893,4300.3,1128.9,4300.252,1128.9Z" transform="translate(-4295.891 -1122.599)" fill="#374170"/>
      </g>
      <g id="Grupo_17496" data-name="Grupo 17496" transform="translate(53.554 79.456)">
        <path id="Trazado_36463" data-name="Trazado 36463" d="M4034.867,1147.459a1.147,1.147,0,0,1-.138-.008c-.842-.106-1.637-.193-2.392-.276-7.26-.792-11.26-1.229-16.739-13.868-3.4-7.829-6.55-20.811-7.232-24.658-.942-5.361.438-10.095,4.341-14.9.154-.194.328-.4.515-.628l.15-.184c.672-.812,1.487-1.779,2.41-2.873,2.524-2.994,5.981-7.095,9.457-11.51.814-1.04,3.288-3.479,8.618-3.625,6.489-.18,11.773-1.808,16.437-3.245,2.051-.632,3.988-1.229,5.9-1.672,1.014-.233,1.941-.406,2.837-.529a5.275,5.275,0,0,1,3.966,1.688,6.05,6.05,0,0,1,2.178,4.532c-.2,3.324-2.873,7.743-6.35,10.509a32.724,32.724,0,0,1-5.984,3.9,19.7,19.7,0,0,1-12.743,1.866,1.1,1.1,0,0,1,.428-2.149,17.558,17.558,0,0,0,11.35-1.684,30.627,30.627,0,0,0,5.587-3.644c2.983-2.374,5.36-6.21,5.526-8.923a3.969,3.969,0,0,0-1.481-2.795,3.487,3.487,0,0,0-2.181-1.123c-.827.114-1.691.275-2.64.493-1.837.425-3.738,1.011-5.751,1.631-4.8,1.478-10.233,3.153-17.021,3.342-4.525.124-6.467,2.165-6.955,2.787-3.5,4.446-6.97,8.563-9.5,11.57-.806.956-1.529,1.814-2.147,2.556v0l-.259.313c-.233.276-.445.53-.636.771-3.481,4.285-4.715,8.459-3.892,13.147.669,3.772,3.76,16.5,7.084,24.167,4.972,11.47,8.1,11.813,14.967,12.562.766.083,1.573.171,2.428.279a1.1,1.1,0,0,1-.136,2.183Z" transform="translate(-4008.081 -1069.458)" fill="#374170"/>
      </g>
      <g id="Grupo_17497" data-name="Grupo 17497" transform="translate(74.4 100.696)">
        <path id="Trazado_36464" data-name="Trazado 36464" d="M4159.419,1243.234a1.1,1.1,0,0,1-.491-2.076c4.056-2.027,10.854-13.423,11.115-17.594a1.1,1.1,0,1,1,2.187.137c-.31,4.954-7.484,17-12.322,19.417A1.1,1.1,0,0,1,4159.419,1243.234Z" transform="translate(-4158.323 -1222.536)" fill="#374170"/>
      </g>
      <g id="Grupo_17498" data-name="Grupo 17498" transform="translate(142.786 56.849)">
        <path id="Trazado_36465" data-name="Trazado 36465" d="M4656.849,910.65a.242.242,0,0,1-.181-.081,13.294,13.294,0,0,0-5.3-3.576.242.242,0,1,1,.159-.457,13.8,13.8,0,0,1,5.5,3.711.242.242,0,0,1-.18.4Z" transform="translate(-4651.203 -906.521)" fill="#374170"/>
      </g>
      <g id="Grupo_17499" data-name="Grupo 17499" transform="translate(134.569 68.403)">
        <path id="Trazado_36466" data-name="Trazado 36466" d="M4599.275,995.212a.274.274,0,0,1-.206-.094c-1.114-1.277-4.383-4.086-6.889-4.791a.274.274,0,1,1,.148-.527c2.616.736,6,3.639,7.153,4.958a.274.274,0,0,1-.026.387A.27.27,0,0,1,4599.275,995.212Z" transform="translate(-4591.98 -989.789)" fill="#374170"/>
      </g>
      <g id="Grupo_17500" data-name="Grupo 17500" transform="translate(89.359 72.099)">
        <path id="Trazado_36467" data-name="Trazado 36467" d="M4274.006,1017.257l-.035,0a27.328,27.328,0,0,0-7.525-.037.269.269,0,0,1-.307-.237.275.275,0,0,1,.237-.307,27.8,27.8,0,0,1,7.665.037.274.274,0,0,1-.035.546Z" transform="translate(-4266.136 -1016.428)" fill="#374170"/>
      </g>
      <g id="Grupo_17501" data-name="Grupo 17501" transform="translate(119.934 105.031)">
        <path id="Trazado_36468" data-name="Trazado 36468" d="M4489.115,1343.173a1.1,1.1,0,0,1-1.093-1.039l-1.461-27.872c-.531-11.581,2.4-17.468,5.506-23.7a81.262,81.262,0,0,0,3.8-8.467c2.94-7.979,3.243-13,3.663-19.947.131-2.169.28-4.626.526-7.371a1.1,1.1,0,0,1,2.183.2c-.245,2.712-.385,5.048-.522,7.307-.415,6.866-.742,12.29-3.793,20.572a83.209,83.209,0,0,1-3.894,8.686c-3.1,6.23-5.783,11.61-5.279,22.616l1.461,27.864a1.1,1.1,0,0,1-1.038,1.151Z" transform="translate(-4486.498 -1253.781)" fill="#374170"/>
      </g>
      <g id="Grupo_17502" data-name="Grupo 17502" transform="translate(123.586 107.952)">
        <path id="Trazado_36469" data-name="Trazado 36469" d="M4516.17,1365.688a1.825,1.825,0,0,1-1.822-1.731l-1.461-27.871c-.541-11.775,2.433-17.744,5.581-24.064a80.77,80.77,0,0,0,3.768-8.394c2.9-7.878,3.2-12.853,3.619-19.738.131-2.174.28-4.637.528-7.393a1.826,1.826,0,1,1,3.638.328c-.244,2.7-.385,5.031-.521,7.285-.418,6.927-.749,12.4-3.837,20.781a83.726,83.726,0,0,1-3.925,8.76c-3.058,6.139-5.7,11.44-5.2,22.257l1.46,27.859a1.825,1.825,0,0,1-1.728,1.919C4516.235,1365.687,4516.2,1365.688,4516.17,1365.688Z" transform="translate(-4512.824 -1274.833)" fill="#5ac3cd"/>
      </g>
      <g id="Grupo_17503" data-name="Grupo 17503" transform="translate(123.769 39.862)">
        <path id="Trazado_36470" data-name="Trazado 36470" d="M4525.251,845.674q-.047,0-.094,0a1.1,1.1,0,0,1-1-1.184,51.433,51.433,0,0,1,2.705-11.866c1.2-3.442,6.253-13.057,11.135-22.356,2.437-4.643,4.74-9.029,6.574-12.657,2.709-5.354,3.491-9.491,1.994-10.539a3.366,3.366,0,0,0-2.682-.732c-2.063.4-4.643,2.987-7.888,7.923l-19.845,30.194a1.1,1.1,0,1,1-1.832-1.2l19.845-30.194c3.687-5.609,6.558-8.345,9.308-8.872a5.522,5.522,0,0,1,4.351,1.089c3.5,2.449.691,9.4-1.294,13.324-1.843,3.643-4.149,8.036-6.591,12.687-4.845,9.229-9.855,18.771-11.006,22.062a49.115,49.115,0,0,0-2.591,11.327A1.1,1.1,0,0,1,4525.251,845.674Z" transform="translate(-4514.14 -784.089)" fill="#374170"/>
      </g>
      <g id="Grupo_17504" data-name="Grupo 17504" transform="translate(70.673 155.412)">
        <path id="Trazado_36471" data-name="Trazado 36471" d="M4132.557,1663.552a1.1,1.1,0,0,1-1.086-1.252c.051-.352,5.023-35.289,1.18-43.857a1.1,1.1,0,1,1,2-.9c4.1,9.144-.8,43.6-1.012,45.066A1.1,1.1,0,0,1,4132.557,1663.552Z" transform="translate(-4131.46 -1616.899)" fill="#374170"/>
      </g>
      <g id="Grupo_17505" data-name="Grupo 17505" transform="translate(89.756 114.184)">
        <path id="Trazado_36472" data-name="Trazado 36472" d="M4276.35,1353.381h-.029a.256.256,0,0,1-.226-.283c1.465-13.182-.907-24.266-7.048-32.942a.256.256,0,0,1,.418-.3c6.217,8.782,8.619,19.985,7.14,33.3A.257.257,0,0,1,4276.35,1353.381Z" transform="translate(-4269 -1319.75)" fill="#374170"/>
      </g>
      <g id="Grupo_17506" data-name="Grupo 17506" transform="translate(69.792 127.044)">
        <path id="Trazado_36473" data-name="Trazado 36473" d="M4144.773,1429.468H4125.11l9.832-17.029Zm-13.337-3.652h7.011l-3.505-6.071Z" transform="translate(-4125.11 -1412.439)" fill="#45c3cc"/>
      </g>
      <g id="Grupo_17518" data-name="Grupo 17518" transform="translate(50.021)">
        <g id="Grupo_17507" data-name="Grupo 17507" transform="translate(5.304 31.959)">
          <path id="Trazado_36474" data-name="Trazado 36474" d="M4021.114,729.573a.274.274,0,0,1-.076-.537c2.356-.68,4.468-1.163,7.39-1.831l.3-.07a.274.274,0,0,1,.123.534l-.3.069c-2.914.667-5.019,1.148-7.36,1.824A.282.282,0,0,1,4021.114,729.573Z" transform="translate(-4020.84 -727.128)" fill="#374170"/>
        </g>
        <g id="Grupo_17508" data-name="Grupo 17508" transform="translate(68.047 29.534)">
          <path id="Trazado_36475" data-name="Trazado 36475" d="M4481.166,711.89a.265.265,0,0,1-.081-.013l-.741-.232a24.6,24.6,0,0,0-7.022-1.45.274.274,0,0,1,0-.548h0a25.055,25.055,0,0,1,7.178,1.476l.738.232a.274.274,0,0,1-.082.535Z" transform="translate(-4473.053 -709.647)" fill="#374170"/>
        </g>
        <g id="Grupo_17509" data-name="Grupo 17509" transform="translate(9.063 53.288)">
          <path id="Trazado_36476" data-name="Trazado 36476" d="M4048.209,883.521a.274.274,0,0,1-.076-.537c2.513-.725,5.751-1.467,8.608-2.121a.274.274,0,0,1,.123.534c-2.85.652-6.08,1.392-8.58,2.113A.277.277,0,0,1,4048.209,883.521Z" transform="translate(-4047.935 -880.856)" fill="#374170"/>
        </g>
        <g id="Grupo_17510" data-name="Grupo 17510" transform="translate(63.796 49.879)">
          <path id="Trazado_36477" data-name="Trazado 36477" d="M4451.083,858.877a.274.274,0,0,1-.109-.023,27.264,27.264,0,0,0-8.306-2.025.274.274,0,0,1,.046-.546,27.806,27.806,0,0,1,8.477,2.068.274.274,0,0,1-.108.525Z" transform="translate(-4442.417 -856.282)" fill="#374170"/>
        </g>
        <g id="Grupo_17511" data-name="Grupo 17511" transform="translate(36.716 24.233)">
          <path id="Trazado_36478" data-name="Trazado 36478" d="M4251.579,672.372a18.073,18.073,0,0,1-4.134-.392.274.274,0,0,1,.141-.529,22.93,22.93,0,0,0,8.151.013.274.274,0,1,1,.11.536A22.267,22.267,0,0,1,4251.579,672.372Z" transform="translate(-4247.241 -671.441)" fill="#374170"/>
        </g>
        <g id="Grupo_17512" data-name="Grupo 17512" transform="translate(36.384 48.215)">
          <path id="Trazado_36479" data-name="Trazado 36479" d="M4248.07,846.874a.256.256,0,0,1,0-.512,12.109,12.109,0,0,0,4.813-1.007,16.707,16.707,0,0,1-7.842-.086.256.256,0,0,1,.127-.5,16.1,16.1,0,0,0,9.441-.463.256.256,0,0,1,.262.428c-.089.084-2.268,2.06-6.793,2.137Z" transform="translate(-4244.845 -844.294)" fill="#374170"/>
        </g>
        <g id="Grupo_17513" data-name="Grupo 17513" transform="translate(13.744 76.793)">
          <path id="Trazado_36480" data-name="Trazado 36480" d="M4081.945,1054.463a.274.274,0,0,1-.141-.509,41.959,41.959,0,0,1,11.389-3.688.271.271,0,0,1,.314.226.274.274,0,0,1-.226.315,41.126,41.126,0,0,0-11.195,3.617A.275.275,0,0,1,4081.945,1054.463Z" transform="translate(-4081.671 -1050.262)" fill="#374170"/>
        </g>
        <g id="Grupo_17514" data-name="Grupo 17514" transform="translate(57.878 75.917)">
          <path id="Trazado_36481" data-name="Trazado 36481" d="M4409.767,1047.5a.276.276,0,0,1-.11-.023,35.757,35.757,0,0,0-9.663-2.987.274.274,0,0,1-.226-.315.27.27,0,0,1,.315-.226,36.268,36.268,0,0,1,9.794,3.026.274.274,0,0,1-.111.525Z" transform="translate(-4399.764 -1043.948)" fill="#374170"/>
        </g>
        <g id="Grupo_17515" data-name="Grupo 17515" transform="translate(39.325 74.291)">
          <path id="Trazado_36482" data-name="Trazado 36482" d="M4273.912,1033.054l-.035,0a27.283,27.283,0,0,0-7.525-.037.274.274,0,1,1-.069-.544,27.826,27.826,0,0,1,7.664.037.274.274,0,0,1-.035.546Z" transform="translate(-4266.043 -1032.226)" fill="#374170"/>
        </g>
        <g id="Grupo_17516" data-name="Grupo 17516" transform="translate(33.075)">
          <path id="Trazado_36483" data-name="Trazado 36483" d="M4261.643,582.342a1.091,1.091,0,0,1-.774-.321c-2.057-2.056-2.918-5.534-2.861-8.069.188-8.241,6.207-38.738,8.185-48.76.21-1.067.374-1.9.479-2.437.6-3.082,1.843-9.5-.031-12.266a3,3,0,0,0-2.021-1.3c-5.069-.973-7.093,5.162-8.289,10.615-.694,3.17-1.713,7.411-2.791,11.9-2.1,8.769-4.49,18.707-5.955,26.619l-.087.472c-1.409,7.668-3.238,14.756-7.036,14.757h-.072c-3.488-.081-3.847-6.237-4.343-14.758l-.073-1.248c-.374-6.3-1.244-37.189-1.5-46.505l-.011-.376c-.271-7.211-1.314-11.684-5.672-11.684-4.561,0-4.995,7.055-5.042,13.667l-.006.733-.547,57.176a1.1,1.1,0,0,1-1.1,1.085h-.011a1.1,1.1,0,0,1-1.085-1.106l.553-57.9c.043-5.925.117-15.843,7.234-15.843,7.344,0,7.682,8.977,7.863,13.8l.011.391c.258,9.308,1.127,40.165,1.5,46.436l.073,1.25c.276,4.735.738,12.661,2.206,12.695h.019c.943,0,2.814-1.706,4.883-12.961l.088-.476c1.476-7.968,3.869-17.936,5.979-26.731,1.076-4.48,2.091-8.711,2.782-11.859.828-3.774,3.031-13.8,10.841-12.3a5.154,5.154,0,0,1,3.424,2.227c2.384,3.523,1.072,10.281.367,13.911-.1.542-.269,1.375-.48,2.444-1.969,9.976-7.961,40.333-8.143,48.385a9.584,9.584,0,0,0,2.219,6.47,1.1,1.1,0,0,1-.775,1.87Z" transform="translate(-4221 -496.788)" fill="#374170"/>
        </g>
        <g id="Grupo_17517" data-name="Grupo 17517" transform="translate(0 11.198)">
          <path id="Trazado_36484" data-name="Trazado 36484" d="M3994.2,670.515h-.043a1.1,1.1,0,0,1-1.053-1.137,101.133,101.133,0,0,0-.178-12.155c-1.2-14.855-7.451-51.654-9.339-62.578l-.1-.575c-.8-4.509-2.679-15.069,3.949-16.426,7.027-1.437,9.249,8.042,10.313,12.6l.12.511c.546,2.314,1.348,5.882,2.275,10.013,2.594,11.549,6.146,27.365,7.692,31.633s3.14,8.164,5.629,9.122c1.356.521,3.061.22,5.208-.922a1.1,1.1,0,0,1,1.029,1.935c-2.744,1.457-5.04,1.794-7.024,1.031-3.356-1.291-5.111-5.483-6.9-10.421-1.594-4.4-5.164-20.295-7.77-31.9-.927-4.125-1.726-7.687-2.271-9.989l-.121-.517c-1.452-6.215-3.392-11.843-7.74-10.952-4.536.929-2.861,10.35-2.23,13.9l.1.586c1.892,10.947,8.159,47.828,9.363,62.775a103.152,103.152,0,0,1,.184,12.415A1.1,1.1,0,0,1,3994.2,670.515Z" transform="translate(-3982.614 -577.496)" fill="#374170"/>
        </g>
      </g>
    </g>
    <g id="Grupo_17542" data-name="Grupo 17542" transform="translate(645.801 313.347)">
      <circle id="Elipse_947" data-name="Elipse 947" cx="20.113" cy="20.113" r="20.113" transform="translate(62.329 153.647) rotate(-45)" fill="#fc737b"/>
      <g id="Grupo_17520" data-name="Grupo 17520" transform="translate(86.821 10.325)">
        <path id="Trazado_36485" data-name="Trazado 36485" d="M3040.565,622c-3.175-3.175-4.216-8.054-4.143-11.268.175-7.725,4.8-31.955,8.267-49.508.209-1.061.372-1.886.477-2.424,1.253-6.454.923-8.42.615-9.017a1.432,1.432,0,0,0,.81.589l2.063-10.761a9.519,9.519,0,0,1,6.229,4.075c3.14,4.641,2.183,11.313,1.04,17.2-.106.545-.271,1.382-.483,2.458-5.234,26.517-7.946,42.544-8.062,47.636a5.707,5.707,0,0,0,.936,3.271Z" transform="translate(-3036.418 -539.615)" fill="#fdd108"/>
      </g>
      <g id="Grupo_17521" data-name="Grupo 17521" transform="translate(61.987 0)">
        <path id="Trazado_36486" data-name="Trazado 36486" d="M2868.926,550.726c-2.8-.065-6.4-1.615-7.67-8.63a92.347,92.347,0,0,1-.948-10.26l-.073-1.238c-.378-6.367-1.25-37.311-1.508-46.643l-.01-.368c-.2-5.285-.828-6.924-1.171-7.426-.033,0-.073,0-.121,0V465.2c11.566,0,12.058,13.09,12.243,18.018l.012.434c.53,19.148,1.2,41.366,1.493,46.3l.073,1.25c.208,3.579.524,8.987,1.141,10.333a3.8,3.8,0,0,0-3.208-1.761Zm-11.248-74.55Z" transform="translate(-2857.426 -465.199)" fill="#fdd108"/>
      </g>
      <g id="Grupo_17522" data-name="Grupo 17522" transform="translate(25.062 11.176)">
        <path id="Trazado_36487" data-name="Trazado 36487" d="M2619.581,621a10.31,10.31,0,0,1-3.73-.687c-5.495-2.114-7.781-8.416-9.45-13.017-1.562-4.311-4.513-17.238-7.925-32.43-.924-4.114-1.721-7.666-2.26-9.945l-.124-.527c-1.318-5.645-2.341-7.341-2.968-7.77a.873.873,0,0,0,.415.108l-2.239-10.728c11.211-2.3,14.411,11.4,15.462,15.9l.117.5c.552,2.338,1.356,5.918,2.287,10.064,2.423,10.788,6.083,27.09,7.536,31.1,1.323,3.647,2.346,5.819,3.044,6.464a5.8,5.8,0,0,0,1.615-.64l5.142,9.676A14.827,14.827,0,0,1,2619.581,621Z" transform="translate(-2591.301 -545.748)" fill="#fdd108"/>
      </g>
      <g id="Grupo_17523" data-name="Grupo 17523" transform="translate(90.567 114.191)">
        <path id="Trazado_36488" data-name="Trazado 36488" d="M3063.782,1298.355a.361.361,0,0,1-.178-.047.365.365,0,0,1-.14-.5l3.241-5.77c0-.016.557-1.858-2.969-3.115a.366.366,0,0,1-.221-.467.362.362,0,0,1,.467-.221c4.245,1.513,3.424,4,3.387,4.1l-3.267,5.828A.366.366,0,0,1,3063.782,1298.355Z" transform="translate(-3063.417 -1288.215)" fill="#374170"/>
      </g>
      <g id="Grupo_17524" data-name="Grupo 17524" transform="translate(82.818 86.22)">
        <path id="Trazado_36489" data-name="Trazado 36489" d="M3017.55,1198.929a1.1,1.1,0,0,1-1.093-1.039L3015,1170.019c-.523-11.406,2-16.267,4.919-21.9a68.346,68.346,0,0,0,3.82-8.332,168.626,168.626,0,0,0,10.044-41.314c.671-4.162-2.874-7.928-6.685-9.2-1.243-.413-5.437-1.464-7.432,2.27-.386,1-5.506,14.251-8.136,22.611-1.639,5.212-2.111,8.152-1.529,9.536a4.028,4.028,0,0,0,5.417,2.471c1.179-.426,4.067-4.478,6.575-9.224,1.73-3.276,4.248-8.831,6.678-14.24a2.294,2.294,0,0,1,2.355-1.559,1.1,1.1,0,0,1-.188,2.181,1.1,1.1,0,0,0-.168.276c-2.445,5.441-4.979,11.033-6.74,14.365-.812,1.538-5.007,9.264-7.767,10.262a6.225,6.225,0,0,1-8.183-3.684c-.829-1.972-.42-5.068,1.46-11.042,2.741-8.716,8.152-22.666,8.206-22.806l.05-.111c1.852-3.543,5.718-4.841,10.093-3.387,4.617,1.535,9.047,6.111,8.165,11.571a169.626,169.626,0,0,1-10.158,41.775,71.184,71.184,0,0,1-3.931,8.584c-2.889,5.568-5.171,9.967-4.675,20.779l1.461,27.865a1.1,1.1,0,0,1-1.037,1.151Z" transform="translate(-3007.568 -1086.616)" fill="#374170"/>
      </g>
      <g id="Grupo_17525" data-name="Grupo 17525" transform="translate(64.576 93.404)">
        <path id="Trazado_36490" data-name="Trazado 36490" d="M2880.454,1144.689c-2.362,0-4.145-5.211-4.343-5.816a.365.365,0,0,1,.694-.229c.7,2.118,2.332,5.431,3.726,5.311,2.1-.184,8.636-4.08,8.7-4.119a.365.365,0,1,1,.375.627c-.274.164-6.742,4.021-9.013,4.22C2880.547,1144.687,2880.5,1144.689,2880.454,1144.689Z" transform="translate(-2876.092 -1138.393)" fill="#374170"/>
      </g>
      <g id="Grupo_17526" data-name="Grupo 17526" transform="translate(24.644 86.03)">
        <path id="Trazado_36491" data-name="Trazado 36491" d="M2615.071,1163.251a1.1,1.1,0,0,1-.138-.009c-.842-.106-1.637-.193-2.392-.275-7.26-.792-11.26-1.229-16.74-13.868-3.4-7.827-6.549-20.811-7.232-24.658-.941-5.361.438-10.095,4.342-14.9.153-.194.327-.4.515-.628l.149-.184c.675-.815,1.493-1.786,2.42-2.885,2.522-2.992,5.976-7.089,9.448-11.5.814-1.04,3.288-3.479,8.618-3.625,6.489-.18,11.773-1.808,16.436-3.245,2.052-.632,3.99-1.229,5.9-1.673,1.013-.233,1.941-.406,2.837-.529a5.275,5.275,0,0,1,3.965,1.687,6.054,6.054,0,0,1,2.179,4.532c-.2,3.325-2.874,7.743-6.35,10.509a32.762,32.762,0,0,1-5.985,3.9,19.693,19.693,0,0,1-12.743,1.866,1.1,1.1,0,1,1,.429-2.149,17.557,17.557,0,0,0,11.35-1.684,30.7,30.7,0,0,0,5.587-3.644c2.983-2.373,5.36-6.21,5.525-8.923a3.97,3.97,0,0,0-1.482-2.795,3.5,3.5,0,0,0-2.18-1.122c-.827.114-1.692.275-2.639.493-1.838.425-3.739,1.011-5.752,1.631-4.8,1.478-10.233,3.153-17.021,3.341-4.525.124-6.467,2.164-6.955,2.787-3.5,4.441-6.964,8.555-9.5,11.559-.81.96-1.537,1.822-2.156,2.567v.005l-.259.313c-.233.276-.445.53-.635.771-3.481,4.286-4.716,8.46-3.892,13.147.669,3.773,3.761,16.505,7.085,24.167,4.973,11.47,8.1,11.813,14.967,12.562.766.083,1.573.171,2.427.279a1.1,1.1,0,0,1-.135,2.183Z" transform="translate(-2588.284 -1085.25)" fill="#374170"/>
      </g>
      <g id="Grupo_17527" data-name="Grupo 17527" transform="translate(45.49 107.27)">
        <path id="Trazado_36492" data-name="Trazado 36492" d="M2739.626,1259.03a1.1,1.1,0,0,1-.491-2.076c4.055-2.027,10.854-13.424,11.115-17.594a1.1,1.1,0,0,1,2.187.137c-.31,4.954-7.484,17-12.322,19.417A1.094,1.094,0,0,1,2739.626,1259.03Z" transform="translate(-2738.53 -1238.333)" fill="#374170"/>
      </g>
      <g id="Grupo_17539" data-name="Grupo 17539" transform="translate(21.124 4.383)">
        <g id="Grupo_17528" data-name="Grupo 17528" transform="translate(5.304 31.959)">
          <path id="Trazado_36493" data-name="Trazado 36493" d="M2601.416,729.573a.274.274,0,0,1-.076-.537c2.352-.679,4.46-1.161,7.378-1.829l.315-.072a.274.274,0,0,1,.122.534l-.315.072c-2.909.666-5.01,1.147-7.348,1.821A.287.287,0,0,1,2601.416,729.573Z" transform="translate(-2601.142 -727.128)" fill="#374170"/>
        </g>
        <g id="Grupo_17529" data-name="Grupo 17529" transform="translate(68.047 29.534)">
          <path id="Trazado_36494" data-name="Trazado 36494" d="M3061.464,711.889a.269.269,0,0,1-.081-.013l-.74-.232a24.6,24.6,0,0,0-7.023-1.45.274.274,0,0,1-.269-.279.255.255,0,0,1,.279-.269,25.052,25.052,0,0,1,7.177,1.476l.738.232a.274.274,0,0,1-.082.535Z" transform="translate(-3053.351 -709.646)" fill="#374170"/>
        </g>
        <g id="Grupo_17530" data-name="Grupo 17530" transform="translate(9.063 53.289)">
          <path id="Trazado_36495" data-name="Trazado 36495" d="M2628.507,883.523a.274.274,0,0,1-.076-.537c2.511-.724,5.751-1.466,8.609-2.121a.274.274,0,0,1,.122.534c-2.851.653-6.083,1.393-8.58,2.113A.283.283,0,0,1,2628.507,883.523Z" transform="translate(-2628.233 -880.858)" fill="#374170"/>
        </g>
        <g id="Grupo_17531" data-name="Grupo 17531" transform="translate(63.797 49.88)">
          <path id="Trazado_36496" data-name="Trazado 36496" d="M3031.386,858.884a.268.268,0,0,1-.108-.022,27.271,27.271,0,0,0-8.307-2.025.274.274,0,0,1,.047-.546,27.813,27.813,0,0,1,8.476,2.068.274.274,0,0,1-.109.525Z" transform="translate(-3022.722 -856.29)" fill="#374170"/>
        </g>
        <g id="Grupo_17532" data-name="Grupo 17532" transform="translate(36.716 24.233)">
          <path id="Trazado_36497" data-name="Trazado 36497" d="M2831.877,672.375a18.078,18.078,0,0,1-4.135-.392.274.274,0,0,1,.141-.529,22.937,22.937,0,0,0,8.152.012.274.274,0,0,1,.11.536A22.271,22.271,0,0,1,2831.877,672.375Z" transform="translate(-2827.538 -671.444)" fill="#374170"/>
        </g>
        <g id="Grupo_17533" data-name="Grupo 17533" transform="translate(36.384 48.215)">
          <path id="Trazado_36498" data-name="Trazado 36498" d="M2828.371,846.874a.256.256,0,0,1,0-.512,12.107,12.107,0,0,0,4.813-1.007,16.686,16.686,0,0,1-7.841-.086.256.256,0,0,1,.127-.5,16.1,16.1,0,0,0,9.44-.463.256.256,0,0,1,.262.428c-.09.084-2.269,2.06-6.793,2.137Z" transform="translate(-2825.146 -844.294)" fill="#374170"/>
        </g>
        <g id="Grupo_17534" data-name="Grupo 17534" transform="translate(13.743 76.793)">
          <path id="Trazado_36499" data-name="Trazado 36499" d="M2662.239,1054.465a.274.274,0,0,1-.141-.509,41.955,41.955,0,0,1,11.389-3.688.274.274,0,1,1,.089.541,41.127,41.127,0,0,0-11.2,3.617A.275.275,0,0,1,2662.239,1054.465Z" transform="translate(-2661.965 -1050.265)" fill="#374170"/>
        </g>
        <g id="Grupo_17535" data-name="Grupo 17535" transform="translate(57.878 75.917)">
          <path id="Trazado_36500" data-name="Trazado 36500" d="M2990.066,1047.5a.273.273,0,0,1-.11-.023,35.758,35.758,0,0,0-9.664-2.987.274.274,0,0,1,.09-.541,36.242,36.242,0,0,1,9.794,3.026.274.274,0,0,1-.11.525Z" transform="translate(-2980.063 -1043.949)" fill="#374170"/>
        </g>
        <g id="Grupo_17536" data-name="Grupo 17536" transform="translate(39.325 74.29)">
          <path id="Trazado_36501" data-name="Trazado 36501" d="M2854.211,1033.053l-.036,0a27.281,27.281,0,0,0-7.524-.037.278.278,0,0,1-.307-.237.274.274,0,0,1,.237-.307,27.806,27.806,0,0,1,7.665.037.274.274,0,0,1-.035.546Z" transform="translate(-2846.343 -1032.224)" fill="#374170"/>
        </g>
        <g id="Grupo_17537" data-name="Grupo 17537" transform="translate(33.075)">
          <path id="Trazado_36502" data-name="Trazado 36502" d="M2841.941,582.342a1.093,1.093,0,0,1-.775-.321c-2.056-2.055-2.918-5.534-2.86-8.069.187-8.241,6.207-38.738,8.184-48.759.211-1.066.375-1.9.479-2.437.6-3.082,1.844-9.5-.031-12.266a3,3,0,0,0-2.021-1.3c-5.071-.969-7.093,5.162-8.289,10.615-.7,3.172-1.714,7.417-2.793,11.911-2.1,8.765-4.488,18.7-5.954,26.609l-.087.472c-1.409,7.668-3.238,14.756-7.037,14.757h-.072c-3.488-.081-3.847-6.239-4.343-14.763l-.073-1.243c-.374-6.3-1.244-37.189-1.5-46.505l-.01-.376c-.271-7.211-1.315-11.684-5.673-11.684-4.56,0-4.994,7.054-5.042,13.667l-.006.733-.548,57.176a1.1,1.1,0,0,1-1.1,1.085h-.011a1.1,1.1,0,0,1-1.085-1.106l.554-57.9c.043-5.925.116-15.842,7.234-15.842,7.344,0,7.682,8.977,7.863,13.8l.01.391c.258,9.308,1.127,40.165,1.5,46.436l.073,1.245c.276,4.737.738,12.665,2.206,12.7h.018c.943,0,2.815-1.706,4.884-12.961l.087-.476c1.476-7.965,3.867-17.929,5.978-26.721,1.076-4.484,2.092-8.719,2.783-11.869.828-3.774,3.022-13.8,10.842-12.3a5.155,5.155,0,0,1,3.424,2.227c2.384,3.523,1.072,10.281.367,13.911-.105.542-.27,1.375-.481,2.444-1.969,9.976-7.961,40.333-8.144,48.385-.045,2,.63,4.88,2.219,6.47a1.1,1.1,0,0,1-.775,1.87Z" transform="translate(-2801.299 -496.788)" fill="#374170"/>
        </g>
        <g id="Grupo_17538" data-name="Grupo 17538" transform="translate(0 11.198)">
          <path id="Trazado_36503" data-name="Trazado 36503" d="M2574.5,670.514h-.042a1.1,1.1,0,0,1-1.053-1.137,100.951,100.951,0,0,0-.179-12.155c-1.2-14.876-7.45-51.659-9.338-62.578l-.1-.575c-.8-4.509-2.679-15.069,3.949-16.427,7.035-1.438,9.25,8.044,10.314,12.6l.119.51c.547,2.315,1.349,5.884,2.277,10.016,2.593,11.547,6.144,27.361,7.691,31.629s3.139,8.165,5.629,9.123c1.355.52,3.059.22,5.208-.922a1.1,1.1,0,1,1,1.028,1.935c-2.742,1.457-5.039,1.794-7.023,1.031-3.356-1.291-5.112-5.483-6.9-10.421-1.595-4.4-5.164-20.292-7.77-31.9-.926-4.126-1.727-7.69-2.271-9.993l-.121-.515c-1.451-6.215-3.392-11.839-7.74-10.954-4.536.93-2.861,10.35-2.231,13.9l.1.585c1.891,10.942,8.157,47.808,9.363,62.775a103.183,103.183,0,0,1,.184,12.415A1.1,1.1,0,0,1,2574.5,670.514Z" transform="translate(-2562.914 -577.495)" fill="#374170"/>
        </g>
      </g>
      <g id="Grupo_17540" data-name="Grupo 17540" transform="translate(60.481 120.758)">
        <path id="Trazado_36504" data-name="Trazado 36504" d="M2853.924,1369.175h-.029a.256.256,0,0,1-.226-.283c1.464-13.182-.907-24.266-7.048-32.942a.256.256,0,0,1,.418-.3c6.216,8.782,8.618,19.984,7.139,33.3A.256.256,0,0,1,2853.924,1369.175Z" transform="translate(-2846.573 -1335.543)" fill="#374170"/>
      </g>
      <g id="Grupo_17541" data-name="Grupo 17541" transform="translate(41.762 161.987)">
        <path id="Trazado_36505" data-name="Trazado 36505" d="M2712.76,1679.346a1.067,1.067,0,0,1-.158-.011,1.1,1.1,0,0,1-.928-1.241c.051-.352,5.023-35.289,1.18-43.857a1.1,1.1,0,1,1,2-.9c4.1,9.144-.8,43.6-1.011,45.067A1.1,1.1,0,0,1,2712.76,1679.346Z" transform="translate(-2711.663 -1632.693)" fill="#374170"/>
      </g>
      <path id="Trazado_36506" data-name="Trazado 36506" d="M3438.414,878.9v5.022a5.017,5.017,0,0,1,0,10.034v5.02a10.038,10.038,0,0,0,0-20.075Z" transform="translate(-3295.817 -821.5)" fill="#45c3cc"/>
      <path id="Trazado_36507" data-name="Trazado 36507" d="M3356.6,878.9v5.022a5.017,5.017,0,0,1,0,10.034v5.02a10.038,10.038,0,0,0,0-20.075Z" transform="translate(-3225.352 -821.5)" fill="#45c3cc"/>
      <path id="Trazado_36508" data-name="Trazado 36508" d="M3274.99,878.9v5.022a5.017,5.017,0,0,1,0,10.034v5.02a10.038,10.038,0,0,0,0-20.075Z" transform="translate(-3155.067 -821.5)" fill="#45c3cc"/>
      <path id="Trazado_36509" data-name="Trazado 36509" d="M3193.384,878.9v5.022a5.017,5.017,0,0,1,0,10.034v5.02a10.038,10.038,0,0,0,0-20.075Z" transform="translate(-3084.784 -821.5)" fill="#45c3cc"/>
      <path id="Trazado_36510" data-name="Trazado 36510" d="M2487.886,878.9v5.022a5.017,5.017,0,0,1,0,10.034v5.02a10.038,10.038,0,0,0,0-20.075Z" transform="translate(-2477.172 -821.5)" fill="#45c3cc"/>
      <path id="Trazado_36511" data-name="Trazado 36511" d="M2410.667,878.9v5.022a5.017,5.017,0,0,1,0,10.034v5.02a10.038,10.038,0,0,0,0-20.075Z" transform="translate(-2410.667 -821.5)" fill="#45c3cc"/>
      <path id="Trazado_36512" data-name="Trazado 36512" d="M2870.181,1736.028a5.646,5.646,0,1,1,9.445-2.531A5.645,5.645,0,0,1,2870.181,1736.028Zm6.718-3.261a2.823,2.823,0,1,0-4.722,1.265A2.822,2.822,0,0,0,2876.9,1732.766Z" transform="translate(-2804.997 -1551.398)" fill="#45c3cc"/>
      <path id="Trazado_36513" data-name="Trazado 36513" d="M3191.34,1383.279a5.646,5.646,0,1,1,9.446-2.531A5.646,5.646,0,0,1,3191.34,1383.279Zm6.719-3.261a2.823,2.823,0,1,0-4.723,1.265A2.823,2.823,0,0,0,3198.059,1380.017Z" transform="translate(-3081.597 -1247.592)" fill="#fc737b"/>
    </g>
    <g id="Grupo_17568" data-name="Grupo 17568" transform="translate(498.34 317.791)">
      <circle id="Elipse_948" data-name="Elipse 948" cx="6.574" cy="6.574" r="6.574" transform="translate(72.336 24.718) rotate(-45)" fill="#fdd108"/>
      <circle id="Elipse_949" data-name="Elipse 949" cx="12.311" cy="12.311" r="12.311" transform="translate(62.076 47.435) rotate(-45)" fill="#fc737b"/>
      <g id="Grupo_17547" data-name="Grupo 17547" transform="translate(0 176.347)">
        <g id="Grupo_17543" data-name="Grupo 17543" transform="translate(56.978)">
          <path id="Trazado_36514" data-name="Trazado 36514" d="M1787.961,1789.447H1775.3l-16.769-21.225h12.662Z" transform="translate(-1758.53 -1768.221)" fill="#fc737b"/>
        </g>
        <g id="Grupo_17544" data-name="Grupo 17544" transform="translate(37.986)">
          <path id="Trazado_36515" data-name="Trazado 36515" d="M1651.073,1789.447h-12.662l-16.769-21.225H1634.3Z" transform="translate(-1621.642 -1768.221)" fill="#fc737b"/>
        </g>
        <g id="Grupo_17545" data-name="Grupo 17545" transform="translate(18.993)">
          <path id="Trazado_36516" data-name="Trazado 36516" d="M1514.185,1789.447h-12.662l-16.769-21.225h12.662Z" transform="translate(-1484.754 -1768.221)" fill="#fc737b"/>
        </g>
        <g id="Grupo_17546" data-name="Grupo 17546">
          <path id="Trazado_36517" data-name="Trazado 36517" d="M1377.3,1789.447h-12.662l-16.769-21.225h12.662Z" transform="translate(-1347.866 -1768.221)" fill="#fc737b"/>
        </g>
      </g>
      <g id="Grupo_17548" data-name="Grupo 17548" transform="translate(1.555 60.265)">
        <path id="Trazado_36518" data-name="Trazado 36518" d="M1365.743,931.579l-6.668,11.55h13.337Z" transform="translate(-1359.075 -931.579)" fill="#45c3cc"/>
        <path id="Trazado_36519" data-name="Trazado 36519" d="M1365.743,1026.347l-6.668,11.55h13.337Z" transform="translate(-1359.075 -1013.199)" fill="#45c3cc"/>
        <path id="Trazado_36520" data-name="Trazado 36520" d="M1365.743,1121.116l-6.668,11.55h13.337Z" transform="translate(-1359.075 -1094.818)" fill="#45c3cc"/>
        <path id="Trazado_36521" data-name="Trazado 36521" d="M1365.743,1215.884l-6.668,11.55h13.337Z" transform="translate(-1359.075 -1176.438)" fill="#45c3cc"/>
        <path id="Trazado_36522" data-name="Trazado 36522" d="M1365.743,1310.653l-6.668,11.55h13.337Z" transform="translate(-1359.075 -1258.057)" fill="#45c3cc"/>
      </g>
      <g id="Grupo_17549" data-name="Grupo 17549" transform="translate(78.093 111.8)">
        <path id="Trazado_36523" data-name="Trazado 36523" d="M1911.854,1314.64a.365.365,0,0,1-.331-.519l3.222-6.98c0-.032.5-2.268-3.763-3.416a.365.365,0,1,1,.189-.7c5,1.347,4.291,4.245,4.258,4.369l-3.243,7.039A.366.366,0,0,1,1911.854,1314.64Z" transform="translate(-1910.711 -1303.008)" fill="#374170"/>
      </g>
      <g id="Grupo_17550" data-name="Grupo 17550" transform="translate(84.701 82.066)">
        <path id="Trazado_36524" data-name="Trazado 36524" d="M1968.214,1200.733a1.1,1.1,0,0,1-1.093-1.039l-1.461-27.872c-.523-11.406,2-16.267,4.919-21.9a68.357,68.357,0,0,0,3.819-8.332,168.638,168.638,0,0,0,10.045-41.314c.691-4.283-2.641-7.8-6.123-8.953-1.166-.387-5.1-1.352-7.115,2.382-.451,1.4-5.812,18.033-9.1,25.929-1.63,3.912-1.664,5.25-1.539,5.7a3.872,3.872,0,0,0,1.887,2.57,4.62,4.62,0,0,0,3.618.069c1.063-.392,3.2-3.175,6.347-8.272.23-.372.413-.669.538-.862a144.077,144.077,0,0,0,6.353-14.282,2.275,2.275,0,0,1,2.377-1.611,1.1,1.1,0,0,1-.2,2.181.775.775,0,0,0-.135.225,143.289,143.289,0,0,1-6.553,14.675c-.119.185-.295.469-.515.825-2.671,4.323-5.423,8.428-7.454,9.175a6.837,6.837,0,0,1-5.374-.174,6.045,6.045,0,0,1-3-3.934c-.373-1.337.129-3.536,1.627-7.13,3.383-8.121,9.01-25.671,9.066-25.847l.072-.173c1.862-3.563,5.614-4.915,9.792-3.526,4.339,1.443,8.479,5.9,7.6,11.33a169.631,169.631,0,0,1-10.159,41.775,71.142,71.142,0,0,1-3.931,8.583c-2.889,5.569-5.171,9.967-4.675,20.78l1.461,27.865a1.1,1.1,0,0,1-1.037,1.151Z" transform="translate(-1958.337 -1088.711)" fill="#374170"/>
      </g>
      <path id="Trazado_36525" data-name="Trazado 36525" d="M1977.937,1170.553l-1.461-27.871c-.583-12.711,2.346-18.355,5.446-24.331a64.482,64.482,0,0,0,3.579-7.787,164.162,164.162,0,0,0,9.782-40.2l.038-.281c.266-1.647-1.536-3.17-2.94-3.637-1.167-.388-1.346-.049-1.452.155l-10.358-5.414c2.925-5.6,9.153-7.941,15.5-5.832,6.157,2.047,12.01,8.491,10.816,16.436a174.329,174.329,0,0,1-10.416,42.817,75.167,75.167,0,0,1-4.172,9.13c-2.761,5.32-4.584,8.835-4.147,18.374l1.459,27.833Z" transform="translate(-1889.193 -977.254)" fill="#fdd108"/>
      <g id="Grupo_17551" data-name="Grupo 17551" transform="translate(91.955 82.066)">
        <path id="Trazado_36526" data-name="Trazado 36526" d="M2013.243,1200.733a1.1,1.1,0,0,1-1.093-1.039l-1.461-27.872c-.523-11.406,2-16.267,4.919-21.9a68.322,68.322,0,0,0,3.819-8.332,168.626,168.626,0,0,0,10.045-41.314c.691-4.283-2.641-7.8-6.123-8.953-1.173-.39-5.158-1.366-7.158,2.462a1.1,1.1,0,1,1-1.942-1.015c1.862-3.563,5.614-4.915,9.792-3.526,4.34,1.443,8.478,5.9,7.6,11.33a169.631,169.631,0,0,1-10.159,41.775,71.142,71.142,0,0,1-3.931,8.583c-2.889,5.569-5.171,9.967-4.675,20.78l1.461,27.865a1.1,1.1,0,0,1-1.037,1.151Z" transform="translate(-2010.619 -1088.711)" fill="#374170"/>
      </g>
      <g id="Grupo_17552" data-name="Grupo 17552" transform="translate(77.402 76.853)">
        <path id="Trazado_36527" data-name="Trazado 36527" d="M1906.826,1058.1a1.079,1.079,0,0,1-.218-.022,1.1,1.1,0,0,1-.858-1.291c.682-3.387,1.174-4.345,2.215-5.346a1.1,1.1,0,0,1,1.519,1.58c-.512.492-.917.881-1.585,4.2A1.1,1.1,0,0,1,1906.826,1058.1Z" transform="translate(-1905.729 -1051.137)" fill="#374170"/>
      </g>
      <g id="Grupo_17553" data-name="Grupo 17553" transform="translate(62.075 116.314)">
        <path id="Trazado_36528" data-name="Trazado 36528" d="M1802.613,1369.174h-.028a.256.256,0,0,1-.226-.283c1.465-13.182-.907-24.265-7.048-32.943a.256.256,0,1,1,.418-.3c6.216,8.782,8.618,19.984,7.139,33.3A.256.256,0,0,1,1802.613,1369.174Z" transform="translate(-1795.262 -1335.542)" fill="#374170"/>
      </g>
      <g id="Grupo_17554" data-name="Grupo 17554" transform="translate(92.527 109.747)">
        <path id="Trazado_36529" data-name="Trazado 36529" d="M2015.1,1298.355a.359.359,0,0,1-.178-.047.365.365,0,0,1-.14-.5l3.24-5.77c0-.016.557-1.858-2.969-3.115a.366.366,0,0,1-.221-.467.362.362,0,0,1,.467-.221c4.245,1.513,3.424,4,3.387,4.1l-3.267,5.828A.366.366,0,0,1,2015.1,1298.355Z" transform="translate(-2014.739 -1288.215)" fill="#374170"/>
      </g>
      <g id="Grupo_17555" data-name="Grupo 17555" transform="translate(66.536 88.96)">
        <path id="Trazado_36530" data-name="Trazado 36530" d="M1831.775,1144.689c-2.363,0-4.144-5.211-4.343-5.816a.365.365,0,0,1,.694-.229c.7,2.118,2.321,5.431,3.725,5.311,2.1-.184,8.636-4.08,8.7-4.119a.365.365,0,0,1,.375.627c-.274.164-6.742,4.021-9.014,4.22C1831.868,1144.687,1831.821,1144.689,1831.775,1144.689Z" transform="translate(-1827.413 -1138.393)" fill="#374170"/>
      </g>
      <g id="Grupo_17556" data-name="Grupo 17556" transform="translate(26.603 81.586)">
        <path id="Trazado_36531" data-name="Trazado 36531" d="M1566.392,1163.251a1.1,1.1,0,0,1-.138-.009c-.842-.106-1.637-.193-2.392-.275-7.261-.792-11.26-1.229-16.74-13.868-3.4-7.827-6.549-20.811-7.232-24.658-.942-5.361.438-10.095,4.342-14.9.154-.194.327-.4.517-.629l.148-.183c.675-.815,1.493-1.786,2.42-2.885,2.522-2.992,5.976-7.089,9.448-11.5.814-1.04,3.287-3.479,8.618-3.625,6.489-.18,11.774-1.808,16.436-3.245,2.051-.632,3.989-1.229,5.9-1.673,1.013-.233,1.94-.406,2.838-.529a5.279,5.279,0,0,1,3.965,1.687,6.054,6.054,0,0,1,2.179,4.532c-.2,3.325-2.874,7.743-6.351,10.509a32.76,32.76,0,0,1-5.984,3.9,19.69,19.69,0,0,1-12.743,1.866,1.1,1.1,0,1,1,.429-2.149,17.558,17.558,0,0,0,11.35-1.684,30.694,30.694,0,0,0,5.587-3.644c2.984-2.374,5.36-6.211,5.526-8.923a3.97,3.97,0,0,0-1.482-2.795,3.5,3.5,0,0,0-2.18-1.122c-.828.114-1.692.275-2.639.493-1.838.425-3.739,1.011-5.752,1.631-4.8,1.478-10.233,3.153-17.021,3.342-4.525.124-6.467,2.164-6.954,2.787-3.5,4.441-6.964,8.555-9.5,11.559-.81.96-1.536,1.822-2.156,2.567v.005l-.259.313c-.233.276-.445.529-.635.77-3.483,4.287-4.717,8.461-3.893,13.148.67,3.773,3.761,16.505,7.085,24.167,4.972,11.47,8.1,11.813,14.967,12.562.766.083,1.573.171,2.427.279a1.1,1.1,0,0,1-.135,2.183Z" transform="translate(-1539.606 -1085.25)" fill="#374170"/>
      </g>
      <g id="Grupo_17557" data-name="Grupo 17557" transform="translate(47.45 102.826)">
        <path id="Trazado_36532" data-name="Trazado 36532" d="M1690.948,1259.03a1.1,1.1,0,0,1-.491-2.076c4.055-2.027,10.854-13.424,11.115-17.594a1.1,1.1,0,0,1,2.187.137c-.31,4.954-7.484,17-12.322,19.417A1.093,1.093,0,0,1,1690.948,1259.03Z" transform="translate(-1689.851 -1238.333)" fill="#374170"/>
      </g>
      <g id="Grupo_17558" data-name="Grupo 17558" transform="translate(30.633 31.332)">
        <path id="Trazado_36533" data-name="Trazado 36533" d="M1568.92,725.167a.274.274,0,0,1-.064-.54c2.369-.575,4.484-.965,7.41-1.5l.357-.066a.274.274,0,0,1,.1.538l-.358.066c-2.918.538-5.026.927-7.38,1.5A.263.263,0,0,1,1568.92,725.167Z" transform="translate(-1568.647 -723.052)" fill="#374170"/>
      </g>
      <g id="Grupo_17559" data-name="Grupo 17559" transform="translate(33.668 53.358)">
        <path id="Trazado_36534" data-name="Trazado 36534" d="M1590.8,884.2a.274.274,0,0,1-.067-.539c2.535-.649,5.794-1.292,8.669-1.859a.274.274,0,1,1,.106.537c-2.868.566-6.119,1.208-8.64,1.853A.274.274,0,0,1,1590.8,884.2Z" transform="translate(-1590.526 -881.798)" fill="#374170"/>
      </g>
      <g id="Grupo_17560" data-name="Grupo 17560" transform="translate(69.557 24.304)">
        <path id="Trazado_36535" data-name="Trazado 36535" d="M1856.388,673.991a22.9,22.9,0,0,1-7.03-1.069.274.274,0,1,1,.2-.509,23,23,0,0,0,8.093.982.271.271,0,0,1,.3.25.274.274,0,0,1-.25.3C1857.285,673.975,1856.844,673.991,1856.388,673.991Z" transform="translate(-1849.186 -672.393)" fill="#374170"/>
      </g>
      <g id="Grupo_17561" data-name="Grupo 17561" transform="translate(66.057 47.545)">
        <path id="Trazado_36536" data-name="Trazado 36536" d="M1829.334,842.8a14.235,14.235,0,0,1-2.563-.241.256.256,0,0,1,.092-.5,12.118,12.118,0,0,0,4.917-.04,16.668,16.668,0,0,1-7.671-1.628.256.256,0,1,1,.223-.462,16.094,16.094,0,0,0,9.347,1.4.256.256,0,0,1,.173.472A9.108,9.108,0,0,1,1829.334,842.8Z" transform="translate(-1823.964 -839.899)" fill="#374170"/>
      </g>
      <g id="Grupo_17562" data-name="Grupo 17562" transform="translate(36.826 76.732)">
        <path id="Trazado_36537" data-name="Trazado 36537" d="M1613.561,1054.465a.274.274,0,0,1-.141-.509,41.954,41.954,0,0,1,11.389-3.688.274.274,0,0,1,.089.541,41.127,41.127,0,0,0-11.2,3.617A.275.275,0,0,1,1613.561,1054.465Z" transform="translate(-1613.287 -1050.265)" fill="#374170"/>
      </g>
      <g id="Grupo_17563" data-name="Grupo 17563" transform="translate(66.252 74.589)">
        <path id="Trazado_36538" data-name="Trazado 36538" d="M1833.22,1035.954a.278.278,0,0,1-.053-.005,27.292,27.292,0,0,0-7.507-.515.274.274,0,0,1-.035-.547,27.81,27.81,0,0,1,7.647.524.274.274,0,0,1-.052.543Z" transform="translate(-1825.369 -1034.818)" fill="#374170"/>
      </g>
      <g id="Grupo_17564" data-name="Grupo 17564" transform="translate(58.529 0)">
        <path id="Trazado_36539" data-name="Trazado 36539" d="M1791.13,573.322a1.091,1.091,0,0,1-.76-.307c-3.708-3.575-3.2-8.737-1.527-25.841.83-8.472,1.966-20.074,3.02-35.925.5-7.583-.763-11.326-3.99-11.778-5.2-.73-6.573,8.417-7.394,13.88l-.1.669-8.5,55.875a1.1,1.1,0,1,1-2.167-.33l8.6-56.54c.942-6.267,2.521-16.76,9.866-15.725,6.747.946,6.111,10.5,5.872,14.094-1.057,15.885-2.2,27.507-3.026,35.993-1.554,15.866-2.077,21.211.867,24.051a1.1,1.1,0,0,1-.76,1.884Z" transform="translate(-1769.702 -497.229)" fill="#374170"/>
      </g>
      <g id="Grupo_17565" data-name="Grupo 17565" transform="translate(25.914 10.895)">
        <path id="Trazado_36540" data-name="Trazado 36540" d="M1543.39,669.012h-.042a1.1,1.1,0,0,1-1.053-1.137,100.951,100.951,0,0,0-.179-12.155c-.719-8.929-2.653-25.464-4.359-40.052-1.161-9.926-2.164-18.5-2.585-22.975-.03-.312-.071-.685-.118-1.105-.525-4.732-1.617-14.578,4.763-15.726,6.724-1.216,8.828,7.933,9.835,12.329l.191.825c.843,3.569,2.228,10.152,3.694,17.121,2.1,9.982,4.481,21.295,5.513,24.827,2.1,7.176,4.813,8.2,12.465,7.8a1.1,1.1,0,0,1,.115,2.189c-8.3.435-12.171-.77-14.684-9.37-1.056-3.613-3.343-14.481-5.554-24.991-1.464-6.956-2.846-13.526-3.683-17.068l-.194-.839c-.921-4.02-2.637-11.495-7.311-10.662-4.365.785-3.39,9.575-2.973,13.328.048.434.091.819.121,1.141.419,4.453,1.421,13.014,2.58,22.926,1.708,14.607,3.645,31.163,4.367,40.131a103.106,103.106,0,0,1,.184,12.415A1.1,1.1,0,0,1,1543.39,669.012Z" transform="translate(-1534.637 -575.751)" fill="#374170"/>
      </g>
      <g id="Grupo_17566" data-name="Grupo 17566" transform="translate(43.721 157.543)">
        <path id="Trazado_36541" data-name="Trazado 36541" d="M1664.079,1679.346a1.064,1.064,0,0,1-.158-.011,1.1,1.1,0,0,1-.928-1.241c.051-.352,5.023-35.289,1.181-43.857a1.1,1.1,0,1,1,2-.9c4.1,9.144-.8,43.6-1.011,45.067A1.1,1.1,0,0,1,1664.079,1679.346Z" transform="translate(-1662.982 -1632.693)" fill="#374170"/>
      </g>
      <g id="Grupo_17567" data-name="Grupo 17567" transform="translate(69.31 66.718)">
        <path id="Trazado_36542" data-name="Trazado 36542" d="M1855.386,1038.254a4.692,4.692,0,0,1-1.784-.363c-5.264-2.162-7.542-4.691-5.39-12.512.039-.136,4.191-14.926,4.277-15.244a1.1,1.1,0,0,1,2.126.529c-.027.117-4.252,15.162-4.293,15.305-1.836,6.674-.158,8.141,4.11,9.894,2.25.921,4.623-1.9,6.218-4.428a52.659,52.659,0,0,0,4.052-8.231c1.155-3.2,2.5-7.134,3.808-10.935,2.2-6.4,4.47-13.027,5.921-16.483,1.5-3.559,2.209-6.655,1.995-8.718-.133-1.253-1.33-2.712-3.286-4-3.2-2.108-7.592-3.269-9.787-2.59-1.785.553-2.935,1.145-4.049,6.132a1.1,1.1,0,1,1-2.139-.477c1.223-5.478,2.825-6.907,5.539-7.748,3.228-1,8.408.723,11.641,2.853,1.8,1.185,4,3.118,4.259,5.6.323,3.109-.994,7.043-2.154,9.8-1.422,3.387-3.682,9.974-5.868,16.344-1.307,3.809-2.659,7.748-3.819,10.966a54.439,54.439,0,0,1-4.261,8.658C1860.132,1036.362,1857.745,1038.253,1855.386,1038.254Z" transform="translate(-1847.405 -978.091)" fill="#374170"/>
      </g>
    </g>
    <g id="Grupo_17596" data-name="Grupo 17596" transform="translate(361.482 308.094)">
      <path id="Trazado_36543" data-name="Trazado 36543" d="M841.014,824.156a5.646,5.646,0,1,1,9.445-2.531A5.646,5.646,0,0,1,841.014,824.156Zm6.719-3.261a2.823,2.823,0,1,0-4.723,1.265A2.823,2.823,0,0,0,847.733,820.895Z" transform="translate(-773.054 -760.794)" fill="#45c3cc"/>
      <g id="Grupo_17570" data-name="Grupo 17570" transform="translate(2.035 134.905)">
        <g id="Grupo_17569" data-name="Grupo 17569">
          <path id="Trazado_36544" data-name="Trazado 36544" d="M399.946,1423.446a23.821,23.821,0,0,1-23.795-23.794h11.688a12.107,12.107,0,1,0,24.213,0H423.74A23.821,23.821,0,0,1,399.946,1423.446Z" transform="translate(-376.151 -1399.652)" fill="#45c3cc"/>
        </g>
      </g>
      <g id="Grupo_17571" data-name="Grupo 17571" transform="translate(40.719 164.298)">
        <path id="Trazado_36545" data-name="Trazado 36545" d="M662.021,1683.02l-4.482-4.81,7.646-7.124-10.227-9.526,10.228-9.531-10.227-9.531,10.228-9.53-10.226-9.536,12.805-11.94,4.484,4.808-7.648,7.132,10.228,9.537L664.6,1642.5l10.227,9.532-10.226,9.529,10.227,9.526Z" transform="translate(-654.958 -1611.493)" fill="#fdd108"/>
      </g>
      <g id="Grupo_17572" data-name="Grupo 17572" transform="translate(58.642 121.167)">
        <path id="Trazado_36546" data-name="Trazado 36546" d="M786.887,1312.029a.364.364,0,0,1-.351-.467l2.15-7.381c0-.032.156-2.318-4.229-2.82a.366.366,0,0,1,.083-.726c5.144.59,4.873,3.563,4.859,3.689l-2.162,7.442A.365.365,0,0,1,786.887,1312.029Z" transform="translate(-784.134 -1300.633)" fill="#374170"/>
      </g>
      <g id="Grupo_17573" data-name="Grupo 17573" transform="translate(65.336 91.763)">
        <path id="Trazado_36547" data-name="Trazado 36547" d="M841.081,1200.733a1.1,1.1,0,0,1-1.093-1.039l-1.461-27.872c-.523-11.406,2-16.267,4.919-21.9a68.384,68.384,0,0,0,3.819-8.332,168.641,168.641,0,0,0,10.045-41.314c.691-4.283-2.641-7.8-6.123-8.953-1.165-.387-5.1-1.351-7.116,2.382-.451,1.4-5.866,18.194-8.238,26.149l-.176.586c-.488,1.618-1.306,4.326-1.036,5.295a4.077,4.077,0,0,0,2.1,2.66,5.355,5.355,0,0,0,4.042.253c.261-.114,2.826-1.761,11.234-23.636l.176-.456a2.276,2.276,0,0,1,2.377-1.611,1.1,1.1,0,0,1-.2,2.181.779.779,0,0,0-.135.225l-.172.447c-9.086,23.641-11.672,24.593-12.522,24.906a7.564,7.564,0,0,1-5.8-.359,6.264,6.264,0,0,1-3.215-4.023c-.409-1.465.2-3.72,1.049-6.516l.174-.579c2.471-8.286,8.225-26.109,8.283-26.288l.071-.171c1.862-3.563,5.614-4.915,9.791-3.526,4.339,1.443,8.478,5.9,7.6,11.33a169.64,169.64,0,0,1-10.159,41.775,71.189,71.189,0,0,1-3.931,8.583c-2.889,5.569-5.171,9.967-4.675,20.78l1.461,27.865a1.1,1.1,0,0,1-1.037,1.151Z" transform="translate(-832.38 -1088.711)" fill="#374170"/>
      </g>
      <g id="Grupo_17574" data-name="Grupo 17574" transform="translate(71.413 91.763)">
        <path id="Trazado_36548" data-name="Trazado 36548" d="M878.8,1200.733a1.1,1.1,0,0,1-1.093-1.039l-1.461-27.872c-.523-11.406,2-16.267,4.919-21.9a68.394,68.394,0,0,0,3.819-8.332,168.633,168.633,0,0,0,10.045-41.314c.691-4.283-2.641-7.8-6.122-8.953-1.174-.39-5.158-1.366-7.158,2.462a1.1,1.1,0,0,1-1.942-1.015c1.863-3.563,5.614-4.915,9.791-3.526,4.34,1.443,8.478,5.9,7.6,11.33a169.64,169.64,0,0,1-10.159,41.775,71.189,71.189,0,0,1-3.931,8.583c-2.889,5.569-5.171,9.967-4.675,20.78l1.461,27.865a1.1,1.1,0,0,1-1.037,1.151Z" transform="translate(-876.179 -1088.711)" fill="#374170"/>
      </g>
      <g id="Grupo_17575" data-name="Grupo 17575" transform="translate(41.533 126.01)">
        <path id="Trazado_36549" data-name="Trazado 36549" d="M668.173,1369.174h-.028a.256.256,0,0,1-.227-.283c1.465-13.182-.906-24.265-7.048-32.943a.256.256,0,1,1,.418-.3c6.216,8.782,8.618,19.984,7.139,33.3A.256.256,0,0,1,668.173,1369.174Z" transform="translate(-660.823 -1335.542)" fill="#374170"/>
      </g>
      <g id="Grupo_17576" data-name="Grupo 17576" transform="translate(72.594 119.868)">
        <path id="Trazado_36550" data-name="Trazado 36550" d="M886.088,1301.353a.375.375,0,0,1-.14-.028.365.365,0,0,1-.2-.477l2.539-6.111c0-.016.334-1.912-3.315-2.745a.365.365,0,1,1,.163-.712c4.394,1,3.87,3.568,3.846,3.677l-2.558,6.171A.365.365,0,0,1,886.088,1301.353Z" transform="translate(-884.691 -1291.271)" fill="#374170"/>
      </g>
      <g id="Grupo_17577" data-name="Grupo 17577" transform="translate(45.994 98.656)">
        <path id="Trazado_36551" data-name="Trazado 36551" d="M697.335,1144.689c-2.363,0-4.144-5.211-4.344-5.816a.365.365,0,0,1,.694-.229c.7,2.118,2.314,5.431,3.725,5.311,2.1-.184,8.636-4.08,8.7-4.119a.365.365,0,1,1,.375.627c-.274.164-6.742,4.021-9.014,4.22C697.428,1144.687,697.381,1144.689,697.335,1144.689Z" transform="translate(-692.973 -1138.393)" fill="#374170"/>
      </g>
      <g id="Grupo_17578" data-name="Grupo 17578" transform="translate(17.815 40.54)">
        <path id="Trazado_36552" data-name="Trazado 36552" d="M490.158,720.673a.274.274,0,0,1-.031-.546c2.43-.279,4.587-.4,7.571-.579l.331-.019a.274.274,0,1,1,.032.547l-.331.019c-2.976.174-5.125.3-7.541.576Z" transform="translate(-489.884 -719.528)" fill="#374170"/>
      </g>
      <g id="Grupo_17579" data-name="Grupo 17579" transform="translate(17.737 61.537)">
        <path id="Trazado_36553" data-name="Trazado 36553" d="M489.589,872.284a.274.274,0,0,1-.037-.545c2.587-.359,5.9-.633,8.823-.875a.274.274,0,1,1,.045.546c-2.915.241-6.221.514-8.792.872Z" transform="translate(-489.315 -870.863)" fill="#374170"/>
      </g>
      <g id="Grupo_17580" data-name="Grupo 17580" transform="translate(18.833 87.184)">
        <path id="Trazado_36554" data-name="Trazado 36554" d="M497.489,1058.4a.274.274,0,0,1-.109-.526,41.962,41.962,0,0,1,11.774-2.163.262.262,0,0,1,.282.266.275.275,0,0,1-.266.282,41.144,41.144,0,0,0-11.573,2.118A.275.275,0,0,1,497.489,1058.4Z" transform="translate(-497.215 -1055.709)" fill="#374170"/>
      </g>
      <g id="Grupo_17581" data-name="Grupo 17581" transform="translate(13.028 20.114)">
        <path id="Trazado_36555" data-name="Trazado 36555" d="M456.475,666.049a1.1,1.1,0,0,1-1.1-1.092c-.009-2.775.359-8.379.683-13.323.276-4.215.538-8.2.518-9.667-.11-8.385-.429-36.787.087-50.211l.035-1.029c.192-5.913.591-18.216,7.516-18.414,6.958-.189,7.4,9.735,7.642,15.071.02.43.037.827.057,1.181.556,9.855,2.777,36.18,3.939,42.255,1.289,6.738,2.77,8.514,7.2,8.637a1.1,1.1,0,1,1-.061,2.191c-6.206-.173-8-3.643-9.295-10.416-1.176-6.151-3.416-32.641-3.975-42.543-.02-.362-.039-.767-.059-1.206-.208-4.583-.6-13.132-5.391-12.979-4.865.139-5.232,11.46-5.389,16.294l-.036,1.042c-.514,13.372-.2,41.727-.086,50.1.02,1.557-.231,5.395-.523,9.839-.322,4.909-.687,10.472-.679,13.172a1.1,1.1,0,0,1-1.092,1.1Z" transform="translate(-455.379 -572.311)" fill="#374170"/>
      </g>
      <g id="Grupo_17582" data-name="Grupo 17582" transform="translate(23.179 167.239)">
        <path id="Trazado_36556" data-name="Trazado 36556" d="M529.639,1679.346a1.064,1.064,0,0,1-.158-.011,1.1,1.1,0,0,1-.928-1.241c.051-.352,5.023-35.289,1.181-43.857a1.1,1.1,0,1,1,2-.9c4.1,9.144-.8,43.6-1.011,45.067A1.1,1.1,0,0,1,529.639,1679.346Z" transform="translate(-528.542 -1632.693)" fill="#374170"/>
      </g>
      <g id="Grupo_17583" data-name="Grupo 17583" transform="translate(51.503 76.341)">
        <path id="Trazado_36557" data-name="Trazado 36557" d="M758.269,995.381c-1.214,3.466-3.069,10.176-4.862,16.664-1.074,3.885-2.185,7.9-3.148,11.184-3.319,11.357-6,15.615-10.291,15.615a8.151,8.151,0,0,1-1.848-.229c-4.4-1.023-6.1-5.071-5.2-12.378l.007-.057c.083-.642,1.117-9.045,1.8-14.566.424-.272.83-.547,1.215-.819s.771-.555,1.129-.828a1.093,1.093,0,0,1,.02.376c-1.664,13.542-1.941,15.759-2,16.161h0c-.984,7.979,1.539,9.514,3.523,9.974,2.914.677,5.464.083,9.54-13.866.959-3.269,2.067-7.276,3.138-11.152,1.8-6.523,3.669-13.268,4.906-16.805,1.282-3.643,1.8-6.776,1.461-8.823-.208-1.243-1.492-2.627-3.521-3.793-3.324-1.911-7.78-2.8-9.927-1.991-2.926,1.1-3.259,2.786-4.622,12.611a3.371,3.371,0,0,0-1.394-.135l-.236.035c-.191.028-.383.057-.579.089l0-.032c1.418-10.255,1.8-13.01,6.051-14.617,3.163-1.2,8.437.211,11.795,2.141,1.866,1.073,4.178,2.868,4.591,5.332C760.335,988.554,759.26,992.561,758.269,995.381Z" transform="translate(-732.685 -977.557)" fill="#374170"/>
      </g>
      <g id="Grupo_17584" data-name="Grupo 17584" transform="translate(44.272 111.973)">
        <path id="Trazado_36558" data-name="Trazado 36558" d="M686.232,1244.819a.365.365,0,0,1-.365-.365l-.022-7.687c-.013-.029-.5-2.266-4.853-1.511a.359.359,0,0,1-.422-.3.365.365,0,0,1,.3-.422c5.1-.887,5.68,2.041,5.7,2.166l.027,7.75a.366.366,0,0,1-.364.366Z" transform="translate(-680.564 -1234.369)" fill="#374170"/>
      </g>
      <g id="Grupo_17585" data-name="Grupo 17585" transform="translate(41.35 111.669)">
        <path id="Trazado_36559" data-name="Trazado 36559" d="M659.871,1239.641h0a.365.365,0,0,1-.363-.367l.022-4.7c.028-.187.606-3.113,5.708-2.229a.365.365,0,0,1-.125.72c-4.349-.754-4.84,1.482-4.859,1.577l-.016,4.632A.366.366,0,0,1,659.871,1239.641Z" transform="translate(-659.506 -1232.182)" fill="#374170"/>
      </g>
      <g id="Grupo_17586" data-name="Grupo 17586" transform="translate(36.217 66.809)">
        <path id="Trazado_36560" data-name="Trazado 36560" d="M645.516,1197.55c.878-.577,1.668-1.164,2.382-1.72-.111,1.039-.211,2.012-.3,2.954-.176,1.855-.315,3.594-.429,5.486-.781,13.008-6.292,14.412-8.626,14.412-3.574,0-7.735-3.319-8.425-10.607a1.1,1.1,0,0,1,2.181-.208c.56,5.926,3.63,8.625,6.244,8.625,3.567,0,5.973-4.619,6.438-12.351.081-1.332.172-2.586.279-3.856C645.339,1199.39,645.422,1198.49,645.516,1197.55Z" transform="translate(-629.059 -1156.013)" fill="#374170"/>
        <path id="Trazado_36561" data-name="Trazado 36561" d="M644.12,923.677l-.079.738c-.358,3.4-.68,6.353-.97,8.974q-.129,1.172-.251,2.257c-.59.1-1.2.222-1.858.372-.133.031-.266.062-.4.1q.125-1.109.259-2.31c.308-2.778.652-5.941,1.041-9.618l.08-.744c.443-4.1.945-8.744-1.861-10.96-2.411-1.9-10.531-2.066-13.357.259-2.549,2.1-2.119,6.548-1.7,10.847.105,1.085.215,2.208.275,3.283a1.1,1.1,0,0,1-2.188.122c-.058-1.031-.164-2.13-.268-3.194-.472-4.87-.96-9.908,2.49-12.75,3.391-2.792,12.724-2.958,16.109-.287C645.2,913.729,644.6,919.246,644.12,923.677Z" transform="translate(-622.508 -908.856)" fill="#374170"/>
      </g>
      <circle id="Elipse_950" data-name="Elipse 950" cx="6.177" cy="6.177" r="6.177" transform="translate(85.578 176.613) rotate(-45)" fill="#fc737b"/>
      <circle id="Elipse_951" data-name="Elipse 951" cx="3.558" cy="3.558" r="3.558" transform="matrix(0.908, -0.418, 0.418, 0.908, 82.289, 79.54)" fill="#fdd108"/>
      <g id="Grupo_17593" data-name="Grupo 17593" transform="translate(0)">
        <g id="Grupo_17587" data-name="Grupo 17587" transform="translate(5.676 5.537)">
          <path id="Trazado_36562" data-name="Trazado 36562" d="M405.129,499.788a2.735,2.735,0,0,1-1.934-4.668l6.284-6.284a2.735,2.735,0,0,1,3.868,3.867l-6.284,6.284A2.725,2.725,0,0,1,405.129,499.788ZM425.916,479a2.735,2.735,0,0,1-1.934-4.668l6.284-6.284a2.735,2.735,0,0,1,3.868,3.867l-6.284,6.284A2.726,2.726,0,0,1,425.916,479Z" transform="translate(-402.394 -467.248)" fill="#fc737b"/>
        </g>
        <g id="Grupo_17588" data-name="Grupo 17588" transform="translate(6.014 5.537)">
          <path id="Trazado_36563" data-name="Trazado 36563" d="M434.634,499.788a2.726,2.726,0,0,1-1.934-.8l-6.284-6.284a2.735,2.735,0,0,1,3.868-3.867l6.284,6.284a2.735,2.735,0,0,1-1.934,4.668ZM413.847,479a2.726,2.726,0,0,1-1.934-.8l-6.284-6.284a2.735,2.735,0,0,1,3.868-3.867l6.284,6.284A2.735,2.735,0,0,1,413.847,479Z" transform="translate(-404.828 -467.248)" fill="#fc737b"/>
        </g>
        <g id="Grupo_17589" data-name="Grupo 17589" transform="translate(6.014 5.537)">
          <path id="Trazado_36564" data-name="Trazado 36564" d="M434.634,499.788a2.726,2.726,0,0,1-1.934-.8l-6.284-6.284a2.735,2.735,0,0,1,3.868-3.867l6.284,6.284a2.735,2.735,0,0,1-1.934,4.668ZM413.847,479a2.726,2.726,0,0,1-1.934-.8l-6.284-6.284a2.735,2.735,0,0,1,3.868-3.867l6.284,6.284A2.735,2.735,0,0,1,413.847,479Z" transform="translate(-404.828 -467.248)" fill="#fc737b"/>
        </g>
        <g id="Grupo_17590" data-name="Grupo 17590" transform="translate(0 18.903)">
          <path id="Trazado_36565" data-name="Trazado 36565" d="M402.5,569.055h-8.887a2.735,2.735,0,0,1,0-5.469H402.5a2.735,2.735,0,1,1,0,5.469Zm-29.4,0h-8.887a2.735,2.735,0,0,1,0-5.469H373.1a2.735,2.735,0,1,1,0,5.469Z" transform="translate(-361.482 -563.586)" fill="#fc737b"/>
        </g>
        <g id="Grupo_17591" data-name="Grupo 17591" transform="translate(19.381)">
          <path id="Trazado_36566" data-name="Trazado 36566" d="M503.9,471.1a2.735,2.735,0,0,1-2.735-2.735v-8.887a2.735,2.735,0,0,1,5.469,0v8.887A2.735,2.735,0,0,1,503.9,471.1Zm0-29.4a2.735,2.735,0,0,1-2.735-2.735v-8.887a2.735,2.735,0,1,1,5.469,0v8.887A2.735,2.735,0,0,1,503.9,441.7Z" transform="translate(-501.167 -427.343)" fill="#fc737b"/>
        </g>
        <g id="Grupo_17592" data-name="Grupo 17592" transform="translate(19.381)">
          <path id="Trazado_36567" data-name="Trazado 36567" d="M503.9,471.1a2.735,2.735,0,0,1-2.735-2.735v-8.887a2.735,2.735,0,0,1,5.469,0v8.887A2.735,2.735,0,0,1,503.9,471.1Zm0-29.4a2.735,2.735,0,0,1-2.735-2.735v-8.887a2.735,2.735,0,1,1,5.469,0v8.887A2.735,2.735,0,0,1,503.9,441.7Z" transform="translate(-501.167 -427.343)" fill="#fc737b"/>
        </g>
      </g>
      <g id="Grupo_17594" data-name="Grupo 17594" transform="translate(6.061 91.284)">
        <path id="Trazado_36568" data-name="Trazado 36568" d="M462.265,1091.5c-.2,3.324-2.875,7.743-6.352,10.509-.294.233-.6.473-.923.716-.358.273-.734.551-1.129.828s-.791.547-1.215.819q-.539.343-1.122.681c-.505.293-1.035.577-1.594.852a19.686,19.686,0,0,1-12.743,1.865,1.1,1.1,0,1,1,.429-2.148,17.559,17.559,0,0,0,11.35-1.684,25.376,25.376,0,0,0,2.814-1.618c.878-.577,1.668-1.164,2.382-1.721.133-.1.262-.205.39-.306,2.984-2.374,5.361-6.21,5.526-8.923a3.97,3.97,0,0,0-1.482-2.8,4.906,4.906,0,0,0-1.578-1.017,1.344,1.344,0,0,0-.6-.1c-.257.035-.516.075-.781.121l-.172.029c-.537.093-1.1.207-1.686.343-.133.031-.266.063-.4.1-1.712.415-3.483.96-5.35,1.536-4.8,1.478-10.234,3.152-17.021,3.341-4.525.124-6.467,2.164-6.954,2.787-3.5,4.441-6.965,8.555-9.5,11.559-.809.96-1.536,1.822-2.156,2.567v0l-.258.313c-.233.276-.445.53-.635.77-3.483,4.286-4.716,8.461-3.893,13.148.67,3.774,3.761,16.505,7.086,24.167,4.973,11.47,8.1,11.813,14.967,12.562.766.083,1.572.171,2.427.279a1.1,1.1,0,0,1-.135,2.183,1.142,1.142,0,0,1-.139-.008c-.842-.107-1.637-.193-2.392-.275-7.261-.794-11.259-1.229-16.738-13.869-3.4-7.827-6.55-20.809-7.233-24.657-.942-5.361.437-10.1,4.341-14.9.154-.194.327-.405.516-.63l.148-.182c.674-.816,1.493-1.786,2.42-2.885,2.521-2.993,5.976-7.09,9.447-11.5.814-1.041,3.287-3.48,8.618-3.625,6.489-.179,11.774-1.808,16.437-3.245,2.051-.631,3.989-1.228,5.9-1.672.118-.028.236-.054.351-.079.581-.129,1.135-.236,1.672-.326.2-.032.387-.061.579-.089l.236-.035a3.375,3.375,0,0,1,1.394.135,6.682,6.682,0,0,1,2.571,1.553A6.056,6.056,0,0,1,462.265,1091.5Z" transform="translate(-405.165 -1085.257)" fill="#374170"/>
      </g>
      <g id="Grupo_17595" data-name="Grupo 17595" transform="translate(26.907 112.523)">
        <path id="Trazado_36569" data-name="Trazado 36569" d="M556.508,1259.03a1.1,1.1,0,0,1-.491-2.076c4.055-2.027,10.854-13.424,11.115-17.594a1.1,1.1,0,0,1,2.187.137c-.31,4.954-7.484,17-12.322,19.417A1.094,1.094,0,0,1,556.508,1259.03Z" transform="translate(-555.411 -1238.333)" fill="#374170"/>
      </g>
    </g>
  </g>
</svg>
