<svg xmlns="http://www.w3.org/2000/svg" width="284.313" height="399.878" viewBox="0 0 284.313 399.878">
  <g id="Grupo_18072" data-name="Grupo 18072" transform="translate(-2847.265 -205.098)">
    <g id="Grupo_18009" data-name="Grupo 18009" transform="translate(3043.616 444.974)">
      <path id="Trazado_36896" data-name="Trazado 36896" d="M3868.954,1528.016a10.466,10.466,0,0,1-3.421-.389,1.506,1.506,0,0,1,1.147-2.786c.75.228,5.7.487,12.547-1.249a49.084,49.084,0,0,0,22.164-12.309c5.58-5.512,8.159-10.17,10.89-15.1a84.946,84.946,0,0,1,6.755-10.776c7.508-9.952,16.322-15.985,22.757-20.39,4.459-3.052,8.31-5.688,7.694-7.227a10.937,10.937,0,0,0-6.109-5.851,14.281,14.281,0,0,0-11.2.389c-5.854,2.532-11.822,6.344-17.088,9.707-9.956,6.358-18.554,11.849-23.713,7.208a1.506,1.506,0,1,1,2.015-2.24c3.455,3.108,11.529-2.048,20.077-7.507,5.361-3.424,11.437-7.3,17.5-9.929a17.255,17.255,0,0,1,13.536-.419,13.961,13.961,0,0,1,7.771,7.518c1.1,2.75-1.2,4.979-1.955,5.712a55.685,55.685,0,0,1-6.831,5.126c-6.264,4.288-14.842,10.16-22.053,19.718a82.546,82.546,0,0,0-6.524,10.421c-2.839,5.127-5.521,9.97-11.415,15.793a52.11,52.11,0,0,1-23.86,13.16A46.628,46.628,0,0,1,3868.954,1528.016Zm-2.261-3.17.013.005Z" transform="translate(-3864.613 -1447.96)" fill="#45c2cb"/>
    </g>
    <g id="Grupo_18010" data-name="Grupo 18010" transform="translate(3060.418 345.922)">
      <path id="Trazado_36897" data-name="Trazado 36897" d="M3968.957,1054.84c-.049,0-.1,0-.146-.007a1.506,1.506,0,0,1-1.355-1.644c.694-7.218,4.194-24.86,8.319-37.2,4.8-14.343,12.112-39.677,16.416-55.882,2.64-9.94,4.008-17.2,2.107-20.323a4.46,4.46,0,0,0-3.1-1.95c-3.679-.813-8.556,5.711-12.731,17.025-2.254,6.109-4.837,12.915-7.57,20.119-2.753,7.255-5.6,14.758-8.324,22.112-.651,1.757-2.352,6.258-4.077,10.091-2.587,5.746-3.688,6.7-5.043,6.57-.437-.041-1.484-.312-1.76-1.945a1.507,1.507,0,0,1,1.948-1.686c1.179-1.906,3.439-6.873,6.109-14.077,2.729-7.365,5.577-14.873,8.332-22.134,2.731-7.2,5.31-14,7.561-20.094A61.806,61.806,0,0,1,3982,940.841c3.23-4.676,6.544-6.677,9.851-5.946a7.359,7.359,0,0,1,5.022,3.326c2.475,4.065,1.226,11.388-1.768,22.663-4.315,16.251-11.656,41.665-16.47,56.064-4.057,12.135-7.5,29.455-8.177,36.53A1.506,1.506,0,0,1,3968.957,1054.84ZM3954.68,1011.4Z" transform="translate(-3951.668 -934.748)" fill="#45c2cb"/>
    </g>
    <g id="Grupo_18011" data-name="Grupo 18011" transform="translate(3074.259 517.878)">
      <path id="Trazado_36898" data-name="Trazado 36898" d="M4040.539,1882.428a1.507,1.507,0,0,1-1.387-.917c-.714-1.678-17.468-41.253-15.63-54.514a1.506,1.506,0,0,1,2.984.413c-1.724,12.442,15.246,52.518,15.417,52.921a1.507,1.507,0,0,1-1.385,2.1Z" transform="translate(-4023.381 -1825.697)" fill="#45c2cb"/>
    </g>
    <g id="Grupo_18012" data-name="Grupo 18012" transform="translate(2918.9 372.436)">
      <path id="Trazado_36899" data-name="Trazado 36899" d="M3219.93,1299.823a1.507,1.507,0,0,1-1.282-2.3c1.577-2.566,38.746-62.942,48.19-70.773,14.585-12.095,13.611-32.826,11.18-54.805-1.774-16.043-4.38-27.337-7.968-34.527-2.057-4.123-1.439-21.225-.562-37.41.086-1.595.155-2.854.175-3.47.241-7.163-.875-16.735-4.811-20.136a5.2,5.2,0,0,0-4.416-1.19c-.358.5-1.244,2.612-1.958,11.348-.519,6.337-.8,14.119-1.074,21.645-.223,6.148-.434,11.955-.755,16.255a51.9,51.9,0,0,1-.6,5.287c-.2,1.059-.564,3.029-2.157,3.193a1.507,1.507,0,0,1-1.052-2.708c.177-.491.55-2.093.888-7.217.27-4.1.461-9.354.663-14.918.293-8.063.6-16.4,1.186-23,.918-10.261,2.2-12.467,4.091-12.811a8.205,8.205,0,0,1,7.151,1.837c5.959,5.15,5.986,18.536,5.852,22.517-.022.647-.087,1.857-.178,3.532-.258,4.763-.69,12.736-.794,20.159-.162,11.553.584,14.823,1.044,15.743,3.749,7.513,6.453,19.139,8.267,35.541,1.194,10.794,2.162,21.3.915,31.207-1.451,11.52-5.758,20.106-13.166,26.249-9.065,7.517-47.163,69.407-47.546,70.032A1.506,1.506,0,0,1,3219.93,1299.823Z" transform="translate(-3218.425 -1072.122)" fill="#fb737b"/>
    </g>
    <circle id="Elipse_960" data-name="Elipse 960" cx="5.641" cy="5.641" r="5.641" transform="translate(2972.974 323.682) rotate(-47.622)" fill="#fb737b"/>
    <path id="Trazado_36900" data-name="Trazado 36900" d="M3755.407,564.307a1.99,1.99,0,1,1-.142-2.811A1.99,1.99,0,0,1,3755.407,564.307Z" transform="translate(-730.07 -287.197)" fill="#fb737b"/>
    <path id="Trazado_36901" data-name="Trazado 36901" d="M3342.622,739.48a1.99,1.99,0,1,1-.142-2.811A1.99,1.99,0,0,1,3342.622,739.48Z" transform="translate(-396.953 -428.561)" fill="#fb737b"/>
    <path id="Trazado_36902" data-name="Trazado 36902" d="M3552.741,317.288a1.99,1.99,0,1,1-.142-2.811A1.99,1.99,0,0,1,3552.741,317.288Z" transform="translate(-566.519 -87.853)" fill="#45c2cb"/>
    <path id="Trazado_36903" data-name="Trazado 36903" d="M3058.44,639.884a1.99,1.99,0,1,1-.142-2.811A1.991,1.991,0,0,1,3058.44,639.884Z" transform="translate(-167.619 -348.188)" fill="#45c2cb"/>
    <path id="Trazado_36904" data-name="Trazado 36904" d="M3847.33,874.763a1.991,1.991,0,1,1-.142-2.811A1.991,1.991,0,0,1,3847.33,874.763Z" transform="translate(-804.251 -537.734)" fill="#fb737b"/>
    <path id="Trazado_36905" data-name="Trazado 36905" d="M3204.3,2259.675a1.99,1.99,0,1,1-.142-2.811A1.99,1.99,0,0,1,3204.3,2259.675Z" transform="translate(-285.331 -1655.355)" fill="#fb737b"/>
    <path id="Trazado_36906" data-name="Trazado 36906" d="M4116.161,2130.9a1.991,1.991,0,1,1-.142-2.812A1.991,1.991,0,0,1,4116.161,2130.9Z" transform="translate(-1021.197 -1551.43)" fill="#45c2cb"/>
    <circle id="Elipse_961" data-name="Elipse 961" cx="1.99" cy="1.99" r="1.99" transform="matrix(0.024, -1, 1, 0.024, 2936.655, 274.026)" fill="#45c2cb"/>
    <g id="Grupo_18013" data-name="Grupo 18013" transform="translate(2878.732 302.448)">
      <path id="Trazado_36907" data-name="Trazado 36907" d="M3017.44,723.789a7.148,7.148,0,1,1,5.311-2.355h0a7.1,7.1,0,0,1-4.942,2.346Q3017.625,723.789,3017.44,723.789Zm.01-11.281a4.134,4.134,0,1,0,3.065,6.905h0a4.133,4.133,0,0,0-3.065-6.905Z" transform="translate(-3010.305 -709.497)" fill="#fb737b"/>
    </g>
    <g id="Grupo_18014" data-name="Grupo 18014" transform="translate(3046.244 293.582)">
      <path id="Trazado_36908" data-name="Trazado 36908" d="M3896.394,698.159a1.545,1.545,0,0,1-1.093-2.638l3.551-3.551a1.545,1.545,0,0,1,2.186,2.185l-3.551,3.551A1.541,1.541,0,0,1,3896.394,698.159Zm11.747-11.746a1.545,1.545,0,0,1-1.093-2.638l3.551-3.551a1.545,1.545,0,1,1,2.186,2.185l-3.551,3.551A1.54,1.54,0,0,1,3908.14,686.413Z" transform="translate(-3891.64 -676.642)" fill="#45c2cb"/>
      <path id="Trazado_36909" data-name="Trazado 36909" d="M3912.681,698.159a1.541,1.541,0,0,1-1.093-.453l-3.552-3.551a1.545,1.545,0,0,1,2.186-2.185l3.551,3.551a1.545,1.545,0,0,1-1.093,2.638Zm-11.747-11.746a1.54,1.54,0,0,1-1.093-.453l-3.551-3.551a1.545,1.545,0,0,1,2.185-2.185l3.552,3.551a1.545,1.545,0,0,1-1.093,2.638Z" transform="translate(-3892.439 -676.642)" fill="#45c2cb"/>
      <path id="Trazado_36910" data-name="Trazado 36910" d="M3902.953,720.452a1.545,1.545,0,0,1-1.545,1.545h-5.022a1.545,1.545,0,1,1,0-3.091h5.022A1.545,1.545,0,0,1,3902.953,720.452ZM3884.8,722h-5.022a1.545,1.545,0,0,1,0-3.091h5.022a1.545,1.545,0,0,1,0,3.091Z" transform="translate(-3878.228 -708.225)" fill="#45c2cb"/>
      <path id="Trazado_36911" data-name="Trazado 36911" d="M3936.52,688.285a1.545,1.545,0,0,1-1.545-1.545v-5.022a1.545,1.545,0,1,1,3.09,0v5.022A1.545,1.545,0,0,1,3936.52,688.285Zm0-16.612a1.545,1.545,0,0,1-1.545-1.545v-5.022a1.545,1.545,0,1,1,3.09,0v5.022A1.545,1.545,0,0,1,3936.52,671.673Z" transform="translate(-3924.022 -663.56)" fill="#45c2cb"/>
    </g>
    <g id="Grupo_18015" data-name="Grupo 18015" transform="translate(2884.009 233.512)">
      <path id="Trazado_36912" data-name="Trazado 36912" d="M3055.809,386.917a1.545,1.545,0,0,1-1.093-2.638l3.551-3.551a1.545,1.545,0,0,1,2.186,2.185l-3.551,3.551A1.541,1.541,0,0,1,3055.809,386.917Zm11.747-11.747a1.545,1.545,0,0,1-1.092-2.638l3.551-3.551a1.545,1.545,0,1,1,2.186,2.185l-3.551,3.551A1.542,1.542,0,0,1,3067.555,375.171Z" transform="translate(-3051.056 -365.4)" fill="#fb737b"/>
      <path id="Trazado_36913" data-name="Trazado 36913" d="M3072.1,386.917a1.539,1.539,0,0,1-1.093-.453l-3.551-3.551a1.545,1.545,0,0,1,2.185-2.185l3.552,3.551a1.545,1.545,0,0,1-1.093,2.638Zm-11.747-11.747a1.541,1.541,0,0,1-1.093-.453l-3.551-3.551a1.545,1.545,0,0,1,2.186-2.185l3.551,3.551a1.545,1.545,0,0,1-1.093,2.638Z" transform="translate(-3051.854 -365.4)" fill="#fb737b"/>
      <path id="Trazado_36914" data-name="Trazado 36914" d="M3062.368,409.21a1.545,1.545,0,0,1-1.545,1.545H3055.8a1.545,1.545,0,0,1,0-3.091h5.022A1.546,1.546,0,0,1,3062.368,409.21Zm-16.612,0a1.545,1.545,0,0,1-1.545,1.545h-5.022a1.545,1.545,0,1,1,0-3.091h5.022A1.545,1.545,0,0,1,3045.756,409.21Z" transform="translate(-3037.643 -396.983)" fill="#fb737b"/>
      <path id="Trazado_36915" data-name="Trazado 36915" d="M3095.934,377.043a1.545,1.545,0,0,1-1.545-1.545v-5.022a1.545,1.545,0,1,1,3.09,0V375.5A1.545,1.545,0,0,1,3095.934,377.043Zm0-16.612a1.545,1.545,0,0,1-1.545-1.545v-5.022a1.545,1.545,0,1,1,3.09,0v5.022A1.545,1.545,0,0,1,3095.934,360.431Z" transform="translate(-3083.437 -352.318)" fill="#fb737b"/>
    </g>
    <g id="Grupo_18016" data-name="Grupo 18016" transform="translate(2992.542 429.054)">
      <path id="Trazado_36916" data-name="Trazado 36916" d="M3600.361,1371.892a.377.377,0,0,1-.231-.674,56.975,56.975,0,0,1,10.1-5.719.377.377,0,0,1,.272.7,55.878,55.878,0,0,0-9.915,5.611A.374.374,0,0,1,3600.361,1371.892Z" transform="translate(-3599.985 -1365.474)" fill="#374170"/>
    </g>
    <g id="Grupo_18017" data-name="Grupo 18017" transform="translate(3073.826 393.414)">
      <path id="Trazado_36917" data-name="Trazado 36917" d="M4032.21,1185.311a.373.373,0,0,1-.224-.075,22.968,22.968,0,0,0-10.508-3.669.377.377,0,0,1,.069-.75,23.8,23.8,0,0,1,10.889,3.815.377.377,0,0,1-.225.679Z" transform="translate(-4021.136 -1180.816)" fill="#374170"/>
    </g>
    <g id="Grupo_18018" data-name="Grupo 18018" transform="translate(3015.677 390.376)">
      <path id="Trazado_36918" data-name="Trazado 36918" d="M3720.231,1167.838a.377.377,0,0,1-.152-.722,23.789,23.789,0,0,1,11.375-1.926.377.377,0,1,1-.1.746,22.963,22.963,0,0,0-10.972,1.869A.376.376,0,0,1,3720.231,1167.838Z" transform="translate(-3719.854 -1165.076)" fill="#374170"/>
    </g>
    <g id="Grupo_18019" data-name="Grupo 18019" transform="translate(2992.407 408.5)">
      <path id="Trazado_36919" data-name="Trazado 36919" d="M3599.661,1263.2a.376.376,0,0,1-.231-.674,20.567,20.567,0,0,1,8.95-3.548.377.377,0,1,1,.048.752,19.982,19.982,0,0,0-8.536,3.391A.376.376,0,0,1,3599.661,1263.2Z" transform="translate(-3599.284 -1258.978)" fill="#374170"/>
    </g>
    <g id="Grupo_18020" data-name="Grupo 18020" transform="translate(2992.71 392.631)">
      <path id="Trazado_36920" data-name="Trazado 36920" d="M3601.232,1179.852a.377.377,0,0,1-.18-.708c2.04-1.108,4.944-2.317,6.973-2.385a.377.377,0,0,1,.025.753,17.4,17.4,0,0,0-6.639,2.294A.373.373,0,0,1,3601.232,1179.852Z" transform="translate(-3600.855 -1176.76)" fill="#374170"/>
    </g>
    <g id="Grupo_18021" data-name="Grupo 18021" transform="translate(3082.704 370.503)">
      <path id="Trazado_36921" data-name="Trazado 36921" d="M4076.718,1065.788a.375.375,0,0,1-.2-.057,21.782,21.782,0,0,0-9.029-2.873.377.377,0,0,1,.045-.752,22.633,22.633,0,0,1,9.382,2.985.376.376,0,0,1-.2.7Z" transform="translate(-4067.136 -1062.106)" fill="#374170"/>
    </g>
    <g id="Grupo_18022" data-name="Grupo 18022" transform="translate(3017.25 366.687)">
      <path id="Trazado_36922" data-name="Trazado 36922" d="M3728.38,1044.532a.377.377,0,0,1-.143-.725,22.635,22.635,0,0,1,9.746-1.394.377.377,0,1,1-.08.749,21.8,21.8,0,0,0-9.38,1.342A.37.37,0,0,1,3728.38,1044.532Z" transform="translate(-3728.003 -1042.334)" fill="#374170"/>
    </g>
    <g id="Grupo_18023" data-name="Grupo 18023" transform="translate(3051.43 358.715)">
      <path id="Trazado_36923" data-name="Trazado 36923" d="M3915.711,1003.658a.377.377,0,0,1-.189-.051c-2-1.164-6.964-2.045-10.015-1.777a.377.377,0,0,1-.066-.75c3.229-.283,8.313.629,10.459,1.877a.377.377,0,0,1-.19.7Z" transform="translate(-3905.097 -1001.028)" fill="#374170"/>
    </g>
    <g id="Grupo_18024" data-name="Grupo 18024" transform="translate(3045.906 384.835)">
      <path id="Trazado_36924" data-name="Trazado 36924" d="M3887.626,1140.043a.348.348,0,0,1-.117-.02,24.926,24.926,0,0,0-10.646-1.237.352.352,0,0,1-.267-.613c.105-.095,2.649-2.32,7.913-1.7a.352.352,0,0,1-.083.7,11.3,11.3,0,0,0-6.187.815,25.186,25.186,0,0,1,9.5,1.369.352.352,0,0,1-.117.684Z" transform="translate(-3876.479 -1136.365)" fill="#374170"/>
    </g>
    <g id="Grupo_18025" data-name="Grupo 18025" transform="translate(3061.259 423.328)">
      <path id="Trazado_36925" data-name="Trazado 36925" d="M3967.387,1342.693a.376.376,0,0,1-.329-.193c-1.04-1.858-5.855-4.8-10.741-5.948a.377.377,0,1,1,.173-.733c4.72,1.113,9.966,4.063,11.226,6.313a.377.377,0,0,1-.328.561Z" transform="translate(-3956.026 -1335.808)" fill="#374170"/>
    </g>
    <g id="Grupo_18026" data-name="Grupo 18026" transform="translate(3014.918 421.949)">
      <path id="Trazado_36926" data-name="Trazado 36926" d="M3716.3,1331.485a.377.377,0,0,1-.11-.737,35.787,35.787,0,0,1,11.7-2.087.377.377,0,0,1,.035.753,34.854,34.854,0,0,0-11.519,2.055A.375.375,0,0,1,3716.3,1331.485Z" transform="translate(-3715.921 -1328.66)" fill="#374170"/>
    </g>
    <g id="Grupo_18027" data-name="Grupo 18027" transform="translate(3010.638 451.117)">
      <path id="Trazado_36927" data-name="Trazado 36927" d="M3694.1,1500.074a.352.352,0,0,1-.058-.7c24.87-4.173,48.245-19.376,48.478-19.529a.352.352,0,1,1,.387.589c-.234.154-23.729,15.437-48.748,19.635A.356.356,0,0,1,3694.1,1500.074Z" transform="translate(-3693.744 -1479.788)" fill="#374170"/>
    </g>
    <g id="Grupo_18028" data-name="Grupo 18028" transform="translate(3039.599 441.961)">
      <path id="Trazado_36928" data-name="Trazado 36928" d="M3848.141,1512.406a10.454,10.454,0,0,1-3.421-.389,1.506,1.506,0,0,1,1.148-2.785c.75.228,5.7.488,12.547-1.249a49.083,49.083,0,0,0,22.164-12.309c5.58-5.511,8.16-10.17,10.891-15.1a84.92,84.92,0,0,1,6.755-10.775c7.508-9.952,16.321-15.985,22.756-20.39,4.459-3.052,8.31-5.688,7.694-7.227a10.937,10.937,0,0,0-6.109-5.851,14.282,14.282,0,0,0-11.2.389c-5.854,2.532-11.823,6.344-17.088,9.707-9.956,6.358-18.554,11.849-23.713,7.208a1.506,1.506,0,1,1,2.015-2.24c3.454,3.108,11.528-2.048,20.076-7.507,5.361-3.424,11.437-7.3,17.5-9.929a17.256,17.256,0,0,1,13.536-.419,13.962,13.962,0,0,1,7.771,7.518c1.1,2.75-1.2,4.979-1.956,5.712a55.7,55.7,0,0,1-6.831,5.126c-6.263,4.287-14.842,10.159-22.053,19.718a82.534,82.534,0,0,0-6.525,10.421c-2.839,5.127-5.52,9.969-11.415,15.793a52.114,52.114,0,0,1-23.86,13.16A46.634,46.634,0,0,1,3848.141,1512.406Zm-2.261-3.17.014.006Z" transform="translate(-3843.8 -1432.351)" fill="#374170"/>
    </g>
    <g id="Grupo_18029" data-name="Grupo 18029" transform="translate(3039.254 420.481)">
      <path id="Trazado_36929" data-name="Trazado 36929" d="M3853.452,1322.836a.386.386,0,0,1-.077-.008,44.832,44.832,0,0,0-10.965-.971.372.372,0,0,1-.4-.354.376.376,0,0,1,.354-.4,45.6,45.6,0,0,1,11.162.985.377.377,0,0,1-.076.746Z" transform="translate(-3842.011 -1321.054)" fill="#374170"/>
    </g>
    <g id="Grupo_18030" data-name="Grupo 18030" transform="translate(3005.707 340.726)">
      <path id="Trazado_36930" data-name="Trazado 36930" d="M3671.088,994.993a4.84,4.84,0,0,1-2.012-.484,1.506,1.506,0,1,1,1.252-2.74c.429.2.785.263.927.175.917-.567,1.054-4.451,1.113-6.11.025-.711.049-1.383.1-1.957.363-4.387.618-10.5.914-17.586.6-14.412,1.35-32.349,3.46-42.723,1.114-5.476,2.622-9.406,4.61-12.013,2.111-2.768,4.747-4.007,7.838-3.679,1.916.2,4.47,1.41,5.762,6.012a29.105,29.105,0,0,1,.715,9.222c-.528,7.655-1.917,51.639-.2,62.3a1.506,1.506,0,1,1-2.974.478c-1.746-10.87-.36-55.275.172-62.99.4-5.747-.621-11.7-3.788-12.031-2.027-.214-3.656.583-5.126,2.51-1.682,2.206-3.046,5.835-4.053,10.787-2.062,10.139-2.805,27.943-3.4,42.248-.3,7.115-.553,13.26-.921,17.709-.042.5-.064,1.14-.088,1.815-.118,3.353-.252,7.153-2.54,8.567A3.283,3.283,0,0,1,3671.088,994.993Z" transform="translate(-3668.195 -907.825)" fill="#374170"/>
    </g>
    <g id="Grupo_18031" data-name="Grupo 18031" transform="translate(3030.704 327.001)">
      <path id="Trazado_36931" data-name="Trazado 36931" d="M3800.378,932.231a3.462,3.462,0,0,1-2.049-.743,1.506,1.506,0,1,1,1.771-2.437,1.388,1.388,0,0,0,.237.144c.17-.153.66-.76,1.279-3,.548-1.984,1.042-4.669,1.565-7.512.338-1.839.688-3.74,1.093-5.692.832-4.021,2.192-10.95,3.767-18.973,3.007-15.325,6.416-32.695,7.726-37.852,1.581-6.224,3.5-11.026,5.7-14.273,3.34-4.93,6.874-5.48,9.25-5.074,5.787.99,7.884,8.292,5.905,20.561-.442,2.737-1.047,6.259-1.749,10.337-2.954,17.171-7.418,43.12-8.366,60.771a1.506,1.506,0,0,1-3.009-.162c.959-17.826,5.44-43.88,8.406-61.12.7-4.07,1.3-7.585,1.744-10.306.608-3.772,2.158-16.154-3.439-17.112-5.977-1.025-9.785,10.286-11.521,17.119-1.29,5.077-4.838,23.16-7.689,37.69-1.576,8.031-2.937,14.967-3.773,19-.4,1.919-.744,3.8-1.08,5.626-1.425,7.739-2.282,11.823-4.737,12.8A2.769,2.769,0,0,1,3800.378,932.231Z" transform="translate(-3797.708 -836.711)" fill="#374170"/>
    </g>
    <g id="Grupo_18032" data-name="Grupo 18032" transform="translate(3056.401 342.91)">
      <path id="Trazado_36932" data-name="Trazado 36932" d="M3948.144,1039.231q-.073,0-.146-.007a1.507,1.507,0,0,1-1.355-1.644c.694-7.219,4.195-24.861,8.319-37.2,4.8-14.343,12.113-39.677,16.416-55.882,2.639-9.94,4.008-17.2,2.107-20.323a4.461,4.461,0,0,0-3.1-1.951c-3.682-.813-8.556,5.711-12.731,17.025-2.254,6.107-4.835,12.91-7.568,20.112-2.754,7.257-5.6,14.762-8.327,22.119-.651,1.758-2.352,6.259-4.078,10.091-2.587,5.746-3.688,6.7-5.043,6.57-.437-.041-1.484-.312-1.76-1.945a1.507,1.507,0,0,1,1.948-1.686c1.179-1.906,3.439-6.873,6.109-14.077,2.73-7.368,5.579-14.878,8.335-22.141,2.73-7.2,5.309-13.992,7.558-20.086a61.827,61.827,0,0,1,6.357-12.977c3.23-4.676,6.544-6.677,9.851-5.946a7.359,7.359,0,0,1,5.022,3.325c2.475,4.065,1.226,11.388-1.768,22.663-4.315,16.251-11.656,41.665-16.47,56.064-4.057,12.134-7.5,29.454-8.177,36.53A1.506,1.506,0,0,1,3948.144,1039.231Z" transform="translate(-3930.855 -919.139)" fill="#374170"/>
    </g>
    <g id="Grupo_18033" data-name="Grupo 18033" transform="translate(3000.435 516.121)">
      <path id="Trazado_36933" data-name="Trazado 36933" d="M3651.35,1875.463a1.507,1.507,0,0,1-1.485-1.268l-8.966-55.856a1.506,1.506,0,1,1,2.974-.477l8.966,55.856a1.508,1.508,0,0,1-1.489,1.745Z" transform="translate(-3640.879 -1816.594)" fill="#374170"/>
    </g>
    <g id="Grupo_18034" data-name="Grupo 18034" transform="translate(2982.053 370.821)">
      <path id="Trazado_36934" data-name="Trazado 36934" d="M3576.064,1213.376h-.039a30.537,30.537,0,0,1-15.965-4.583,23.321,23.321,0,0,1-8.883-10.2c-4.155-9.479-5.849-20.86-5.493-36.9a89.019,89.019,0,0,1,3.159-21.744c1.051-4.185,1.881-7.491,1.756-11.392-.18-5.624-.329-30.039,1.217-44.44l.03-.28c.749-6.993,2-18.7,8.427-19.955a5.151,5.151,0,0,1,4.3.918c2.757,2.113,4.125,7.135,4.878,17.913.174,2.492.339,5.176.513,8.018.5,8.078,1.057,17.234,2.126,26.882a1.506,1.506,0,1,1-2.994.332c-1.077-9.721-1.641-18.916-2.139-27.029-.174-2.835-.338-5.513-.511-7.992-.409-5.848-1.238-13.841-3.706-15.732a2.181,2.181,0,0,0-1.887-.352c-4.244.831-5.481,12.385-6.01,17.319l-.03.28c-1.529,14.243-1.379,38.444-1.2,44.022.138,4.322-.781,7.984-1.845,12.223a86.388,86.388,0,0,0-3.069,21.077c-.346,15.58,1.27,26.566,5.24,35.624,3.448,7.865,11.734,12.718,22.167,12.984a1.506,1.506,0,0,1-.038,3.012Z" transform="translate(-3545.636 -1063.755)" fill="#374170"/>
    </g>
    <g id="Grupo_18035" data-name="Grupo 18035" transform="translate(3023.663 470.111)">
      <path id="Trazado_36935" data-name="Trazado 36935" d="M3761.583,1618.266a.352.352,0,0,1-.343-.432c2.348-10.077,6.02-18.547,10.913-25.174a41.232,41.232,0,0,1,18.675-14.433.352.352,0,1,1,.25.659c-14.382,5.462-24.463,18.985-29.151,39.108A.353.353,0,0,1,3761.583,1618.266Z" transform="translate(-3761.231 -1578.204)" fill="#374170"/>
    </g>
    <g id="Grupo_18036" data-name="Grupo 18036" transform="translate(3068.234 514.865)">
      <path id="Trazado_36936" data-name="Trazado 36936" d="M4009.32,1866.818a1.507,1.507,0,0,1-1.387-.917c-.714-1.678-17.468-41.253-15.63-54.514a1.506,1.506,0,0,1,2.984.413c-1.725,12.444,15.246,52.518,15.417,52.921a1.508,1.508,0,0,1-1.385,2.1Z" transform="translate(-3992.162 -1810.087)" fill="#374170"/>
    </g>
    <g id="Grupo_18037" data-name="Grupo 18037" transform="translate(2853.845 419.371)">
      <path id="Trazado_36937" data-name="Trazado 36937" d="M2888.141,1326.369a.352.352,0,0,1-.182-.655,2.162,2.162,0,0,0,.813-1.677c.146-1.711-2.727-4.176-5.5-6.56-.592-.508-1.2-1.032-1.8-1.557a.352.352,0,1,1,.467-.527c.588.521,1.2,1.043,1.787,1.549,3.179,2.728,5.924,5.083,5.748,7.154a2.831,2.831,0,0,1-1.154,2.221A.348.348,0,0,1,2888.141,1326.369Z" transform="translate(-2881.354 -1315.305)" fill="#374170"/>
    </g>
    <g id="Grupo_18038" data-name="Grupo 18038" transform="translate(2922.941 341.342)">
      <path id="Trazado_36938" data-name="Trazado 36938" d="M3266.7,999.176a1.506,1.506,0,0,1-1.5-1.359c-.517-5.235-.953-11.134-1.414-17.38-.948-12.839-2.024-27.39-4.107-39.481-2.343-13.593-5.54-21.852-9.774-25.248a7.072,7.072,0,0,0-5.709-1.592,1.606,1.606,0,0,0-1.171.665c-1.3,1.811-.38,6.761.227,10.036q.084.456.164.891c1.037,5.7,7.941,51.873,5,66.3a1.506,1.506,0,1,1-2.952-.6c2.852-13.978-3.985-59.525-5.01-65.159-.052-.286-.107-.581-.162-.881-.782-4.226-1.757-9.485.286-12.339a4.634,4.634,0,0,1,3.186-1.892,10.069,10.069,0,0,1,8.029,2.223c10.694,8.578,12.982,39.54,15,66.857.46,6.227.9,12.108,1.408,17.306a1.506,1.506,0,0,1-1.351,1.647C3266.8,999.174,3266.75,999.176,3266.7,999.176Z" transform="translate(-3239.361 -911.017)" fill="#374170"/>
    </g>
    <g id="Grupo_18039" data-name="Grupo 18039" transform="translate(2886.756 325.955)">
      <path id="Trazado_36939" data-name="Trazado 36939" d="M3095.519,928.585a1.913,1.913,0,0,1-1.056-.326c-1.115-.736-2.542-2.971-5.371-20.277l-.031-.185a253.2,253.2,0,0,0-7.444-33.2c-6.586-22.225-11.244-30.955-13.991-34.365-3.922-4.867-9.063-6.81-11.406-5.571-1.449.767-1.731,3.009-.775,6.151.419,1.38,1.162,3.475,1.88,5.5.754,2.129,1.466,4.139,1.852,5.437a349.115,349.115,0,0,1,9.322,39.633c.573,3.47,2.021,12.419,3.079,20.558.544,4.187.9,7.533,1.063,9.944.268,4.023.043,5.362-1,5.97a1.507,1.507,0,0,1-1.972-2.194c.125-.665.247-3.4-1.227-14.471-1.041-7.818-2.385-16.113-2.914-19.316a345.958,345.958,0,0,0-9.237-39.266c-.364-1.223-1.1-3.29-1.8-5.289-.729-2.057-1.482-4.185-1.922-5.63-2.01-6.608.9-8.978,2.248-9.69,1.957-1.036,4.613-.931,7.479.295a20.669,20.669,0,0,1,7.682,6.048c4.244,5.267,9.134,17.177,14.534,35.4a256.094,256.094,0,0,1,7.529,33.572l.031.185c.331,2.027,1.021,6.245,1.847,10.234,1.172,5.667,1.91,7.41,2.2,7.926a1.506,1.506,0,0,1-.16,2.876A1.812,1.812,0,0,1,3095.519,928.585Zm-25.394-3.336,0,0Z" transform="translate(-3051.876 -831.289)" fill="#374170"/>
    </g>
    <g id="Grupo_18040" data-name="Grupo 18040" transform="translate(2861.577 343.451)">
      <path id="Trazado_36940" data-name="Trazado 36940" d="M2949.969,1036.4a1.506,1.506,0,0,1-1.5-1.435c-.078-1.643-4.26-26.781-7.053-43.291a236.855,236.855,0,0,0-13.181-46.01c-.193-.492-.354-.907-.482-1.239-1.441-3.756-2.737-6.8-3.778-9.239-1.665-3.906-2.583-6.057-2.555-7.5a5.376,5.376,0,0,1,3.526-5.324c3.74-1.385,9.7.759,13.287,4.781,6.561,7.355,8.737,12.668,11.493,19.394.377.922.769,1.877,1.186,2.875,3.148,7.526,6.458,18.473,9.378,28.132,2.076,6.866,4.4,14.551,5.56,16.888a1.508,1.508,0,0,1,1.247,2.043,1.808,1.808,0,0,1-1.757,1.258c-1.9-.073-2.717-2.059-7.935-19.317-2.9-9.59-6.186-20.459-9.274-27.841-.421-1.005-.815-1.967-1.2-2.9-2.75-6.712-4.736-11.561-10.953-18.531-3.027-3.394-7.7-4.812-9.992-3.961-.654.242-1.527.771-1.56,2.556-.015.8,1.064,3.332,2.314,6.264,1.051,2.465,2.359,5.533,3.819,9.341.125.327.285.735.475,1.221a239.8,239.8,0,0,1,13.341,46.577h0c0,.008,0,.015,0,.023l0,.025.006.034c.778,4.6,6.972,41.257,7.083,43.6a1.506,1.506,0,0,1-1.433,1.576Z" transform="translate(-2921.416 -921.944)" fill="#374170"/>
    </g>
    <g id="Grupo_18041" data-name="Grupo 18041" transform="translate(2847.265 414.755)">
      <path id="Trazado_36941" data-name="Trazado 36941" d="M2848.772,1448.384a1.506,1.506,0,0,1-1.011-2.624c.442-.4,44.251-40.026,49.069-45.7.707-.833,1.409-1.588,2.089-2.318,3.788-4.07,6.077-6.529,1.778-14.276-1.186-1.861-20.381-32.365-26.272-46.065-4.28-9.952-7.809-16.98-10.489-20.887a102.117,102.117,0,0,0-7.2-8.82,86.23,86.23,0,0,1-6.127-7.478c-.832-1.228-3.043-4.49-.9-6.527s6.722-2.8,11.7-1.97c4.349.724,15.151,3.813,22.086,16.838.716.5,2.57,1.79,4.087,2.861a1.506,1.506,0,1,1-1.737,2.461c-1.906-1.345-4.348-3.042-4.372-3.059l-.3-.212-.171-.329c-6.3-12.1-16.144-14.933-20.083-15.589-4.366-.727-7.862.023-9.095,1.146-.01.175.054,1.018,1.75,3.353,1.374,1.892,3.344,4.139,5.431,6.518a104.171,104.171,0,0,1,7.418,9.1c2.83,4.126,6.353,11.127,10.771,21.4,5.906,13.734,25.555,44.866,26.059,45.658l.061.1c5.388,9.687,1.708,13.641-2.187,17.826-.656.705-1.335,1.434-2,2.215-4.945,5.825-47.535,44.348-49.345,45.985A1.5,1.5,0,0,1,2848.772,1448.384Z" transform="translate(-2847.266 -1291.389)" fill="#374170"/>
    </g>
    <g id="Grupo_18042" data-name="Grupo 18042" transform="translate(2914.883 370.427)">
      <path id="Trazado_36942" data-name="Trazado 36942" d="M3199.116,1289.416a1.507,1.507,0,0,1-1.282-2.3c1.578-2.567,38.746-62.942,48.19-70.773,14.585-12.095,13.611-32.826,11.18-54.8-1.774-16.043-4.381-27.337-7.968-34.527-2.057-4.123-1.439-21.225-.562-37.41.086-1.594.155-2.854.175-3.47.241-7.163-.875-16.734-4.811-20.136a5.2,5.2,0,0,0-4.416-1.19c-.358.5-1.244,2.612-1.958,11.348-.519,6.337-.8,14.119-1.074,21.645-.223,6.148-.434,11.955-.755,16.255a51.9,51.9,0,0,1-.6,5.286c-.2,1.059-.564,3.029-2.157,3.193a1.507,1.507,0,0,1-1.052-2.708c.177-.491.55-2.093.888-7.218.27-4.1.461-9.354.663-14.918.293-8.063.6-16.4,1.186-23,.919-10.261,2.2-12.468,4.091-12.811a8.2,8.2,0,0,1,7.151,1.837c5.96,5.15,5.986,18.536,5.852,22.517-.022.646-.087,1.857-.178,3.532-.258,4.763-.69,12.736-.794,20.159-.162,11.553.584,14.823,1.044,15.744,3.749,7.513,6.453,19.139,8.267,35.541,1.194,10.794,2.162,21.3.914,31.207-1.451,11.52-5.758,20.106-13.166,26.249-9.065,7.517-47.163,69.407-47.546,70.031A1.506,1.506,0,0,1,3199.116,1289.416Z" transform="translate(-3197.611 -1061.715)" fill="#374170"/>
    </g>
    <g id="Grupo_18043" data-name="Grupo 18043" transform="translate(2868.483 348.225)">
      <path id="Trazado_36943" data-name="Trazado 36943" d="M2958.267,959.412a.352.352,0,0,1-.121-.683c.024-.009,2.436-.923,2.549-2.766.041-.673-.921-2.81-1.769-4.7a43.676,43.676,0,0,1-1.709-4.131.352.352,0,1,1,.672-.211,43.261,43.261,0,0,0,1.679,4.053c1.171,2.6,1.878,4.24,1.83,5.028-.141,2.3-2.892,3.342-3.009,3.385A.353.353,0,0,1,2958.267,959.412Z" transform="translate(-2957.199 -946.677)" fill="#374170"/>
    </g>
    <g id="Grupo_18044" data-name="Grupo 18044" transform="translate(2893.776 331.759)">
      <path id="Trazado_36944" data-name="Trazado 36944" d="M3088.6,874.117a.352.352,0,0,1-.093-.692c.025-.007,2.506-.712,2.776-2.538.1-.667-.677-2.879-1.361-4.831a43.768,43.768,0,0,1-1.349-4.262.352.352,0,0,1,.688-.152,43.5,43.5,0,0,0,1.326,4.182c.944,2.693,1.508,4.385,1.393,5.167-.338,2.284-3.167,3.082-3.288,3.115A.35.35,0,0,1,3088.6,874.117Z" transform="translate(-3088.252 -861.366)" fill="#374170"/>
    </g>
    <g id="Grupo_18045" data-name="Grupo 18045" transform="translate(2928.401 347.579)">
      <path id="Trazado_36945" data-name="Trazado 36945" d="M3268,955.856a.352.352,0,0,1-.034-.7c.025,0,2.591-.277,3.167-2.031.209-.64-.18-2.951-.523-4.991a43.992,43.992,0,0,1-.608-4.43.352.352,0,0,1,.7-.034,43.218,43.218,0,0,0,.6,4.346c.474,2.814.744,4.576.5,5.327-.719,2.194-3.644,2.5-3.768,2.513Z" transform="translate(-3267.65 -943.332)" fill="#374170"/>
    </g>
    <g id="Grupo_18046" data-name="Grupo 18046" transform="translate(2954.855 376.444)">
      <path id="Trazado_36946" data-name="Trazado 36946" d="M3405.588,1104.673a5.155,5.155,0,0,1-.558-.027.352.352,0,1,1,.082-.7c.024,0,2.591.276,3.523-1.318.34-.582.447-2.923.542-4.99a43.633,43.633,0,0,1,.34-4.458.352.352,0,0,1,.7.115,43.258,43.258,0,0,0-.332,4.374c-.13,2.851-.238,4.631-.637,5.313C3408.372,1104.473,3406.521,1104.673,3405.588,1104.673Z" transform="translate(-3404.718 -1092.888)" fill="#374170"/>
    </g>
    <g id="Grupo_18047" data-name="Grupo 18047" transform="translate(2878.086 385.672)">
      <path id="Trazado_36947" data-name="Trazado 36947" d="M3007.308,1143.751a.352.352,0,0,1-.152-.67c3.965-1.888,5.87-2.463,6.33-2.37l-.138.691a.119.119,0,0,0,.032,0c-.042,0-1.036-.015-5.921,2.311A.353.353,0,0,1,3007.308,1143.751Z" transform="translate(-3006.955 -1140.7)" fill="#374170"/>
    </g>
    <g id="Grupo_18048" data-name="Grupo 18048" transform="translate(2879.875 389.94)">
      <path id="Trazado_36948" data-name="Trazado 36948" d="M3016.339,1165.865a.59.59,0,0,1-.112-.009l.138-.691a.112.112,0,0,0-.032,0c.04,0,1.041.013,5.921-2.311a.352.352,0,1,1,.3.636C3018.857,1165.246,3016.951,1165.865,3016.339,1165.865Z" transform="translate(-3016.227 -1162.814)" fill="#374170"/>
    </g>
    <g id="Grupo_18049" data-name="Grupo 18049" transform="translate(2867.614 437.397)">
      <path id="Trazado_36949" data-name="Trazado 36949" d="M2953.05,1413.395a.352.352,0,0,1-.236-.614c3.261-2.941,4.922-4.036,5.389-4.079l.065.7a.086.086,0,0,0,.032,0c-.039.01-1,.283-5.014,3.905A.351.351,0,0,1,2953.05,1413.395Z" transform="translate(-2952.697 -1408.702)" fill="#374170"/>
    </g>
    <g id="Grupo_18050" data-name="Grupo 18050" transform="translate(2869.747 439.987)">
      <path id="Trazado_36950" data-name="Trazado 36950" d="M2963.846,1426.813l-.065-.7a.1.1,0,0,0-.032,0c.039-.01,1-.282,5.015-3.905a.352.352,0,1,1,.472.523C2965.975,1425.676,2964.313,1426.77,2963.846,1426.813Z" transform="translate(-2963.749 -1422.12)" fill="#374170"/>
    </g>
    <g id="Grupo_18051" data-name="Grupo 18051" transform="translate(2901.362 378.03)">
      <path id="Trazado_36951" data-name="Trazado 36951" d="M3127.908,1103.132a.352.352,0,0,1-.1-.691c4.224-1.2,6.2-1.453,6.636-1.286l-.251.658a.113.113,0,0,0,.031.01c-.039-.008-1.021-.186-6.223,1.3A.358.358,0,0,1,3127.908,1103.132Z" transform="translate(-3127.556 -1101.108)" fill="#374170"/>
    </g>
    <g id="Grupo_18052" data-name="Grupo 18052" transform="translate(2902.537 382.582)">
      <path id="Trazado_36952" data-name="Trazado 36952" d="M3134.034,1126.715a1.18,1.18,0,0,1-.389-.047l.251-.658a.114.114,0,0,0-.031-.01c.04.009,1.021.186,6.223-1.3a.352.352,0,1,1,.193.677A29.307,29.307,0,0,1,3134.034,1126.715Z" transform="translate(-3133.645 -1124.692)" fill="#374170"/>
    </g>
    <g id="Grupo_18053" data-name="Grupo 18053" transform="translate(2930.193 382.649)">
      <path id="Trazado_36953" data-name="Trazado 36953" d="M3277.287,1126.151a.352.352,0,0,1-.042-.7c4.359-.533,6.348-.474,6.755-.241l-.35.611a.112.112,0,0,0,.029.015c-.037-.014-.979-.342-6.348.314Z" transform="translate(-3276.935 -1125.037)" fill="#374170"/>
    </g>
    <g id="Grupo_18054" data-name="Grupo 18054" transform="translate(2930.733 387.242)">
      <path id="Trazado_36954" data-name="Trazado 36954" d="M3281.25,1149.951a3.953,3.953,0,0,1-1.516-.171l.35-.611a.118.118,0,0,0-.029-.015c.038.014.979.343,6.348-.314a.352.352,0,0,1,.085.7A46.167,46.167,0,0,1,3281.25,1149.951Z" transform="translate(-3279.734 -1148.838)" fill="#374170"/>
    </g>
    <g id="Grupo_18055" data-name="Grupo 18055" transform="translate(2954.25 401.278)">
      <path id="Trazado_36955" data-name="Trazado 36955" d="M3406.675,1222.623a.35.35,0,0,1-.218-.075c-.074-.04-.832-.393-4.511-.253a.347.347,0,0,1-.365-.339.352.352,0,0,1,.339-.365c3.99-.151,4.831.253,5.008.434a.352.352,0,0,1-.252.6Zm-.251-.105Zm0,0h0Z" transform="translate(-3401.581 -1221.558)" fill="#374170"/>
    </g>
    <g id="Grupo_18056" data-name="Grupo 18056" transform="translate(2953.936 405.776)">
      <path id="Trazado_36956" data-name="Trazado 36956" d="M3403.449,1245.932c-2.617,0-3.245-.314-3.395-.467a.352.352,0,0,1,.47-.523c.074.041.832.392,4.511.253a.352.352,0,1,1,.027.7C3404.455,1245.922,3403.92,1245.932,3403.449,1245.932Zm-2.891-.96h0Zm0,0h0Zm0,0Zm-.038-.033h0Z" transform="translate(-3399.955 -1244.866)" fill="#374170"/>
    </g>
    <g id="Grupo_18057" data-name="Grupo 18057" transform="translate(2905.733 511.214)">
      <path id="Trazado_36957" data-name="Trazado 36957" d="M3150.554,1794.832a.352.352,0,0,1-.158-.667,35.487,35.487,0,0,1,10.266-2.718c3.5-.436,8.314-.577,11.408,1.222a.352.352,0,0,1-.354.609c-5.4-3.138-17.321-.325-21.005,1.517A.353.353,0,0,1,3150.554,1794.832Z" transform="translate(-3150.202 -1791.167)" fill="#374170"/>
    </g>
    <g id="Grupo_18058" data-name="Grupo 18058" transform="translate(2906.697 429.147)">
      <path id="Trazado_36958" data-name="Trazado 36958" d="M3156.543,1372.522a.352.352,0,0,1-.312-.187,10.884,10.884,0,0,1-.942-6.074.352.352,0,1,1,.7.094,10.309,10.309,0,0,0,.867,5.651.353.353,0,0,1-.311.517Z" transform="translate(-3155.195 -1365.955)" fill="#374170"/>
    </g>
    <g id="Grupo_18059" data-name="Grupo 18059" transform="translate(2930.333 430.242)">
      <path id="Trazado_36959" data-name="Trazado 36959" d="M3278.427,1378.266a.352.352,0,0,1-.333-.237,10.877,10.877,0,0,1,.011-6.146.352.352,0,1,1,.675.2,10.362,10.362,0,0,0-.02,5.717.352.352,0,0,1-.333.467Z" transform="translate(-3277.66 -1371.63)" fill="#374170"/>
    </g>
    <g id="Grupo_18060" data-name="Grupo 18060" transform="translate(2949.873 436.351)">
      <path id="Trazado_36960" data-name="Trazado 36960" d="M3379.713,1409.918a.352.352,0,0,1-.331-.233,10.884,10.884,0,0,1-.082-6.146.352.352,0,0,1,.678.19,10.366,10.366,0,0,0,.066,5.717.352.352,0,0,1-.332.471Z" transform="translate(-3378.902 -1403.282)" fill="#374170"/>
    </g>
    <g id="Grupo_18061" data-name="Grupo 18061" transform="translate(3042.807 230.583)">
      <path id="Trazado_36961" data-name="Trazado 36961" d="M3866.489,349.3a6.087,6.087,0,1,1,.314-.008Q3866.646,349.3,3866.489,349.3Zm.009-9.148a3.066,3.066,0,1,0,2.056.791A3.062,3.062,0,0,0,3866.5,340.153Z" transform="translate(-3860.418 -337.141)" fill="#fb737b"/>
    </g>
    <g id="Grupo_18062" data-name="Grupo 18062" transform="translate(2850.517 263.035)">
      <path id="Trazado_36962" data-name="Trazado 36962" d="M2870.153,521.956l-6.04-16.673,17.459,3.106Zm-1.43-12.793,2.486,6.861,4.7-5.583Z" transform="translate(-2864.113 -505.283)" fill="#45c2cb"/>
    </g>
    <g id="Grupo_18063" data-name="Grupo 18063" transform="translate(2960.916 347.024)">
      <path id="Trazado_36963" data-name="Trazado 36963" d="M3452.812,957.905l-16.691-5.991,13.534-11.46Zm-10.762-7.064,6.868,2.465-1.3-7.181Z" transform="translate(-3436.121 -940.455)" fill="#45c2cb"/>
    </g>
    <g id="Grupo_18064" data-name="Grupo 18064" transform="translate(3012.106 208.52)">
      <path id="Trazado_36964" data-name="Trazado 36964" d="M3701.349,239.569l5.85-16.741,11.573,13.437Zm6.973-10.821-2.407,6.889,7.17-1.36Z" transform="translate(-3701.349 -222.828)" fill="#45c2cb"/>
    </g>
    <g id="Grupo_18065" data-name="Grupo 18065" transform="translate(2962.744 249.658)">
      <path id="Trazado_36965" data-name="Trazado 36965" d="M3459.594,450.553l-14-4.894,11.241-9.682Zm-8.085-6.017,4.153,1.451-.82-4.322Z" transform="translate(-3445.589 -435.977)" fill="#45c2cb"/>
    </g>
    <g id="Grupo_18066" data-name="Grupo 18066" transform="translate(2924.831 266.959)">
      <path id="Trazado_36966" data-name="Trazado 36966" d="M3358.519,591.87l-5.905-1.2a49.255,49.255,0,0,0-48.171-59.031h-.058a49.207,49.207,0,0,0-49.206,49.151,49.637,49.637,0,0,0,.948,9.718l-5.909,1.176a55.613,55.613,0,0,1-1.063-10.9,55.232,55.232,0,0,1,55.23-55.17h.064a55.232,55.232,0,0,1,55.17,55.295A55.669,55.669,0,0,1,3358.519,591.87Z" transform="translate(-3249.154 -525.617)" fill="#fcd008"/>
    </g>
    <g id="Grupo_18067" data-name="Grupo 18067" transform="translate(2951.778 293.877)">
      <path id="Trazado_36967" data-name="Trazado 36967" d="M3436.2,714.2l-2.04-2.217a25.273,25.273,0,0,0-17.076-43.878h-.03a25.273,25.273,0,0,0-25.272,25.245l-3.013,0a28.285,28.285,0,0,1,28.285-28.254h.033A28.286,28.286,0,0,1,3436.2,714.2Z" transform="translate(-3388.772 -665.087)" fill="#fcd008"/>
    </g>
    <g id="Grupo_18068" data-name="Grupo 18068" transform="translate(2895.625 237.701)">
      <path id="Trazado_36968" data-name="Trazado 36968" d="M3106.859,455.14l-9.029-.4a84.524,84.524,0,0,1,84.436-80.719h.1a84.539,84.539,0,0,1,74.221,44.228l-7.941,4.315a75.508,75.508,0,0,0-66.29-39.5h-.088A75.293,75.293,0,0,0,3106.859,455.14Z" transform="translate(-3097.83 -374.021)" fill="#fcd008"/>
    </g>
    <g id="Grupo_18069" data-name="Grupo 18069" transform="translate(3062.503 248.39)">
      <path id="Trazado_36969" data-name="Trazado 36969" d="M3998.523,511.649l-12.031-.7c.119-2.038.18-4.11.182-6.161a106.665,106.665,0,0,0-24.2-67.727l9.307-7.655a118.087,118.087,0,0,1,26.948,75.4C3998.723,507.081,3998.655,509.385,3998.523,511.649Z" transform="translate(-3962.47 -429.407)" fill="#fcd008"/>
    </g>
    <g id="Grupo_18070" data-name="Grupo 18070" transform="translate(2919.066 205.098)">
      <path id="Trazado_36970" data-name="Trazado 36970" d="M3225.505,232.379l-6.223-10.319A118.371,118.371,0,0,1,3280.42,205.1h.135a119.644,119.644,0,0,1,20.374,1.768l-2.071,11.871a107.571,107.571,0,0,0-18.316-1.589h-.122A106.315,106.315,0,0,0,3225.505,232.379Z" transform="translate(-3219.282 -205.098)" fill="#fcd008"/>
    </g>
    <g id="Grupo_18071" data-name="Grupo 18071" transform="translate(2861.652 267.724)">
      <path id="Trazado_36971" data-name="Trazado 36971" d="M2922.249,595.846c-.3-3.459-.448-6.982-.445-10.471a118.062,118.062,0,0,1,14-55.793l10.622,5.693a106.684,106.684,0,0,0-12.566,50.114c0,3.14.131,6.309.4,9.42Z" transform="translate(-2921.804 -529.582)" fill="#fcd008"/>
    </g>
  </g>
</svg>
