<svg xmlns="http://www.w3.org/2000/svg" width="366.584" height="306.08" viewBox="0 0 366.584 306.08">
  <g id="Grupo_18128" data-name="Grupo 18128" transform="translate(-4585.859 -549.571)">
    <g id="Grupo_18075" data-name="Grupo 18075" transform="translate(4668.045 719.454)">
      <path id="Trazado_36972" data-name="Trazado 36972" d="M4985.978,1368.064a3.864,3.864,0,0,1-1.414-.266c-3.253-1.267-6.954-4.281-11.313-9.215h0c-1.007-1.139-.841-3.534-.156-5.311a6.549,6.549,0,0,1,5.458-4.37c4.051-.451,8.2,2.3,10.726,5.026,1.168,1.259,3.824,4.516,3.251,7.569a9.245,9.245,0,0,1-4.2,5.905A4.85,4.85,0,0,1,4985.978,1368.064Zm-10.1-11.522c3.887,4.375,7.215,7.122,9.894,8.165a1.3,1.3,0,0,0,.952-.2,5.914,5.914,0,0,0,2.551-3.616c.157-.837-.534-2.666-2.423-4.7-2.038-2.2-5.278-4.281-7.926-3.986a3.013,3.013,0,0,0-2.318,1.448A4.758,4.758,0,0,0,4975.874,1356.542Z" transform="translate(-4972.539 -1348.855)" fill="#fb737b"/>
    </g>
    <g id="Grupo_18076" data-name="Grupo 18076" transform="translate(4683.375 716.166)">
      <path id="Trazado_36973" data-name="Trazado 36973" d="M5059.9,1372.776q-.16,0-.32-.006c-3.777-.153-7.848-3.029-12.445-8.794a11.236,11.236,0,0,1-2.445-6.682l-.026-1.059a10.014,10.014,0,0,1,2.3-6.647c3.534-4.259,11.156-11.865,15.694-14.478a12.415,12.415,0,0,1,15.072,1.9c4.019,3.853,5.161,9.434,2.841,13.885-1.156,2.219-12.995,17.11-14.341,18.8l-.088.1A8.445,8.445,0,0,1,5059.9,1372.776Zm-11.894-15.566a7.9,7.9,0,0,0,1.723,4.7c3.906,4.9,7.266,7.438,9.984,7.548a5.107,5.107,0,0,0,3.966-1.881c5.012-6.3,13.193-16.76,13.95-18.213,1.885-3.617.255-7.608-2.2-9.957a9.076,9.076,0,0,0-11.12-1.42c-3.738,2.152-10.9,9.02-14.8,13.721a6.7,6.7,0,0,0-1.538,4.446Z" transform="translate(-5044.664 -1333.385)" fill="#fb737b"/>
    </g>
    <g id="Grupo_18077" data-name="Grupo 18077" transform="translate(4701.533 729.363)">
      <path id="Trazado_36974" data-name="Trazado 36974" d="M5146.056,1437.225c-3.693,0-7.881-2.533-12.791-7.732a11.233,11.233,0,0,1-2.995-6.455l-.115-1.053a10.016,10.016,0,0,1,1.738-6.817c3.524-5.051,11.565-14.569,15.655-17.4a12.415,12.415,0,0,1,15.178.635c4.326,3.5,5.931,8.969,3.991,13.6-.948,2.263-11.786,18.395-13.949,21.605l-.076.1a8.372,8.372,0,0,1-6.292,3.51Q5146.229,1437.225,5146.056,1437.225Zm8.6-38.445a9.056,9.056,0,0,0-5.218,1.711c-3.6,2.5-11.476,11.777-14.824,16.575a6.7,6.7,0,0,0-1.161,4.559l.115,1.053a7.9,7.9,0,0,0,2.109,4.536c4.3,4.555,7.866,6.807,10.58,6.688a5.118,5.118,0,0,0,3.8-2.208c4.941-7.335,12.971-19.469,13.6-20.978,1.576-3.762-.381-7.6-3.02-9.739A9.642,9.642,0,0,0,5154.657,1398.78Z" transform="translate(-5130.097 -1395.478)" fill="#fb737b"/>
    </g>
    <g id="Grupo_18078" data-name="Grupo 18078" transform="translate(4721.902 745.018)">
      <path id="Trazado_36975" data-name="Trazado 36975" d="M5245.111,1504.281a30.3,30.3,0,0,1-15.612-5.141,8.372,8.372,0,0,1-2.791-10.4c3.325-7.238,10.586-16.461,13.977-18.655,2.44-1.579,6.282-1.16,9.341,1.02,3.1,2.21,4.473,5.47,3.672,8.722a84.08,84.08,0,0,1-3.313,9.8,36.349,36.349,0,0,0-1.292,3.609c.089,1.422,1.271,4.169,2.678,4.214l2.159.07-.624,2.067a6.207,6.207,0,0,1-4.146,4.088A12.359,12.359,0,0,1,5245.111,1504.281Zm-.929-31.843a3.115,3.115,0,0,0-1.7.431c-2.655,1.718-9.574,10.312-12.765,17.255a5.059,5.059,0,0,0,1.667,6.29h0c5.085,3.525,12.878,5.455,16.677,4.129a4.054,4.054,0,0,0,1.133-.586c-2.248-1.515-3.354-4.787-3.426-6.66-.033-.837.414-2.025,1.517-4.87a81.468,81.468,0,0,0,3.186-9.4c.687-2.788-1.645-4.7-2.376-5.225A7.056,7.056,0,0,0,5244.183,1472.438Z" transform="translate(-5225.928 -1469.132)" fill="#fb737b"/>
    </g>
    <g id="Grupo_18079" data-name="Grupo 18079" transform="translate(4609.18 600.314)">
      <path id="Trazado_36976" data-name="Trazado 36976" d="M4777.656,832.259c-7.292,0-14.092-3.138-33.2-13.6l-.021-.012-48.009-27.23a1.659,1.659,0,1,1,1.637-2.886l48,27.223c19.364,10.606,25.592,13.439,32.5,13.172,3.509-.136,12.228-3.009,20.659-5.787,8.495-2.8,16.518-5.442,20.748-5.89,8.578-.907,19.609,2.143,20.074,2.273a1.659,1.659,0,0,1-.894,3.195c-.108-.03-10.892-3.008-18.832-2.169-3.877.41-12.1,3.121-20.058,5.742-9.047,2.981-17.593,5.8-21.568,5.951C4778.343,832.252,4778,832.259,4777.656,832.259Z" transform="translate(-4695.584 -788.311)" fill="#45c2cb"/>
    </g>
    <g id="Grupo_18080" data-name="Grupo 18080" transform="translate(4755.431 667.859)">
      <path id="Trazado_36977" data-name="Trazado 36977" d="M5456.491,1185.042a1.659,1.659,0,0,1-1.294-2.7c1.4-1.748-.575-8.4-2.393-10.634l-10.426-12.792a25.886,25.886,0,0,0-3.081-3.172l-.05-.046c-.635-.6-15.614-14.717-20.125-20.375-5.858-7.35-13.514-11.568-20.268-15.291-6.353-3.5-11.838-6.523-14.917-11.388a1.659,1.659,0,1,1,2.8-1.774c2.624,4.144,7.764,6.976,13.715,10.256,7.026,3.872,14.99,8.261,21.261,16.128,4.284,5.374,19.087,19.351,19.781,20a29.3,29.3,0,0,1,3.451,3.557l10.427,12.793a19.672,19.672,0,0,1,3.058,6.8c.636,2.49,1.04,5.9-.646,8.008A1.656,1.656,0,0,1,5456.491,1185.042Z" transform="translate(-5383.68 -1106.104)" fill="#45c2cb"/>
    </g>
    <rect id="Rect치ngulo_3892" data-name="Rect치ngulo 3892" width="13.245" height="13.245" transform="translate(4839.157 618.217) rotate(-45)" fill="#fb737b"/>
    <g id="Grupo_18081" data-name="Grupo 18081" transform="translate(4660.905 560.507)">
      <path id="Trazado_36978" data-name="Trazado 36978" d="M4949.529,622.174a10.641,10.641,0,0,1-9.235-5.4l-.02-.034-.018-.032a10.576,10.576,0,0,1,8.579-15.659,10.575,10.575,0,0,1,1.366,21.1C4949.977,622.167,4949.752,622.174,4949.529,622.174Zm-4.422-8.124.008.015a5.078,5.078,0,0,0,4.73,2.569,5.039,5.039,0,1,0-4.748-2.6Z" transform="translate(-4938.944 -601.025)" fill="#fb737b"/>
    </g>
    <g id="Grupo_18082" data-name="Grupo 18082" transform="translate(4842.567 804.887)">
      <path id="Trazado_36979" data-name="Trazado 36979" d="M5804.235,1771.96a10.64,10.64,0,0,1-9.235-5.4l-.019-.034-.018-.033a10.576,10.576,0,1,1,9.945,5.447Q5804.571,1771.961,5804.235,1771.96Zm-4.422-8.123.009.015a5.046,5.046,0,0,0,9.438-2.792,5.045,5.045,0,1,0-9.456,2.76Z" transform="translate(-5793.65 -1750.811)" fill="#45c2cb"/>
    </g>
    <circle id="Elipse_962" data-name="Elipse 962" cx="3.63" cy="3.63" r="3.63" transform="translate(4942.353 681.791) rotate(-34.391)" fill="#fb737b"/>
    <circle id="Elipse_963" data-name="Elipse 963" cx="3.629" cy="3.629" r="3.629" transform="translate(4598.718 593.316) rotate(-0.143)" fill="#45c2cb"/>
    <g id="Grupo_18083" data-name="Grupo 18083" transform="translate(4706.573 621.321)">
      <path id="Trazado_36980" data-name="Trazado 36980" d="M5162.333,966.326a19.269,19.269,0,0,1-4.071-.438,5.563,5.563,0,0,1-3.9-2.385c-1.29-2.3-.23-5.334,2.093-11.979,1.262-3.607,2.831-8.1,4.575-14,.133-.45.282-1.069.454-1.786.581-2.414,1.375-5.72,2.8-7.631a23.87,23.87,0,0,1,6.979-6.093l30.6-19.934c4.635-3.019,11.053-3.044,15.74-3.063,19.784-.076,30.94,1.66,49.409,4.54,2.472.385,5.071.791,7.834,1.213,3.321.509,12.044-.471,34.732-8.027,13.721-4.569,26.112-9.432,26.236-9.481a1.659,1.659,0,0,1,1.214,3.087c-1.94.763-45.536,17.837-60.606,17.838a13.833,13.833,0,0,1-2.078-.138c-2.766-.423-5.368-.829-7.843-1.215-18.307-2.854-29.351-4.578-48.885-4.5-4.273.017-10.127.04-13.941,2.525l-30.6,19.934a20.666,20.666,0,0,0-6.133,5.3c-1.02,1.364-1.75,4.406-2.235,6.419-.183.762-.341,1.419-.5,1.951-1.768,5.98-3.352,10.512-4.625,14.154-1.614,4.618-2.89,8.265-2.331,9.261.165.3.755.56,1.705.765,14.96,3.228,24.418-15.412,25.447-17.548.1-.2.193-.422.3-.662a9,9,0,0,1,3.277-4.428l.135-.081,10.446-3.856a1.659,1.659,0,0,1,1.149,3.112l-10.13,3.739a6.835,6.835,0,0,0-1.839,2.847c-.119.271-.231.527-.348.768a45.806,45.806,0,0,1-9.822,13.279C5172.812,964.117,5167.609,966.326,5162.333,966.326Z" transform="translate(-5153.807 -887.148)" fill="#374170"/>
    </g>
    <g id="Grupo_18084" data-name="Grupo 18084" transform="translate(4825.849 683.625)">
      <path id="Trazado_36981" data-name="Trazado 36981" d="M5716.65,1241.035a1.659,1.659,0,0,1-.6-3.2c15.515-6.046,22.629-11.421,30.867-17.644,10.542-7.964,22.488-16.99,55.479-29.12l26.151-10.661a1.659,1.659,0,0,1,1.252,3.072l-26.232,10.693c-32.547,11.964-44.29,20.836-54.651,28.663-8.084,6.107-15.72,11.875-31.663,18.088A1.655,1.655,0,0,1,5716.65,1241.035Z" transform="translate(-5714.99 -1180.281)" fill="#fb737b"/>
    </g>
    <g id="Grupo_18085" data-name="Grupo 18085" transform="translate(4821.425 679.201)">
      <path id="Trazado_36982" data-name="Trazado 36982" d="M5695.837,1220.222a1.659,1.659,0,0,1-.6-3.2c15.515-6.046,22.629-11.421,30.867-17.644,10.542-7.964,22.489-16.99,55.479-29.12l26.151-10.661a1.659,1.659,0,1,1,1.253,3.072l-26.232,10.693c-32.546,11.964-44.29,20.836-54.651,28.663-8.083,6.107-15.72,11.875-31.663,18.088A1.66,1.66,0,0,1,5695.837,1220.222Z" transform="translate(-5694.178 -1159.468)" fill="#374170"/>
    </g>
    <g id="Grupo_18086" data-name="Grupo 18086" transform="translate(4608.075 605.843)">
      <path id="Trazado_36983" data-name="Trazado 36983" d="M4772.453,858.275c-7.292,0-14.092-3.138-33.2-13.6l-.022-.012-48.009-27.229a1.659,1.659,0,1,1,1.637-2.886l48,27.223c19.365,10.606,25.59,13.44,32.5,13.172,3.509-.136,12.227-3.009,20.659-5.787,8.494-2.8,16.518-5.442,20.747-5.89,8.574-.907,19.609,2.143,20.075,2.273a1.659,1.659,0,0,1-.894,3.2c-.109-.03-10.894-3.008-18.833-2.169-3.877.41-12.1,3.12-20.058,5.742-9.047,2.981-17.593,5.8-21.568,5.951Q4772.966,858.275,4772.453,858.275Z" transform="translate(-4690.381 -814.327)" fill="#374170"/>
    </g>
    <g id="Grupo_18087" data-name="Grupo 18087" transform="translate(4663.622 719.454)">
      <path id="Trazado_36984" data-name="Trazado 36984" d="M4965.165,1368.064a3.864,3.864,0,0,1-1.414-.266c-3.253-1.267-6.954-4.281-11.313-9.215h0c-1.007-1.139-.84-3.534-.155-5.311a6.547,6.547,0,0,1,5.458-4.37c4.051-.451,8.2,2.3,10.726,5.026,1.168,1.259,3.824,4.516,3.251,7.569a9.245,9.245,0,0,1-4.2,5.905A4.851,4.851,0,0,1,4965.165,1368.064Zm-10.1-11.522c3.887,4.375,7.215,7.122,9.894,8.165a1.3,1.3,0,0,0,.952-.2,5.914,5.914,0,0,0,2.552-3.617c.157-.837-.534-2.666-2.423-4.7-2.038-2.2-5.28-4.281-7.926-3.986a3.012,3.012,0,0,0-2.318,1.448A4.758,4.758,0,0,0,4955.061,1356.542Zm-.137-.155Z" transform="translate(-4951.726 -1348.855)" fill="#374170"/>
    </g>
    <g id="Grupo_18088" data-name="Grupo 18088" transform="translate(4678.951 716.166)">
      <path id="Trazado_36985" data-name="Trazado 36985" d="M5039.09,1372.776q-.16,0-.32-.006c-3.777-.153-7.848-3.029-12.445-8.794a11.235,11.235,0,0,1-2.445-6.682l-.026-1.059a10.014,10.014,0,0,1,2.3-6.647c3.534-4.259,11.156-11.865,15.694-14.478a12.415,12.415,0,0,1,15.072,1.9c4.02,3.853,5.161,9.433,2.842,13.885-1.157,2.219-13,17.11-14.341,18.8l-.088.1A8.444,8.444,0,0,1,5039.09,1372.776Zm-11.894-15.566a7.9,7.9,0,0,0,1.723,4.7c3.906,4.9,7.265,7.438,9.984,7.548a5.108,5.108,0,0,0,3.966-1.881c5.011-6.3,13.193-16.76,13.95-18.213,1.885-3.617.255-7.608-2.2-9.957a9.076,9.076,0,0,0-11.12-1.42c-3.738,2.153-10.895,9.02-14.8,13.722a6.694,6.694,0,0,0-1.538,4.446Z" transform="translate(-5023.851 -1333.386)" fill="#374170"/>
    </g>
    <g id="Grupo_18089" data-name="Grupo 18089" transform="translate(4697.109 729.363)">
      <path id="Trazado_36986" data-name="Trazado 36986" d="M5125.244,1437.225c-3.693,0-7.881-2.533-12.791-7.732a11.233,11.233,0,0,1-2.995-6.455h0l-.115-1.053a10.01,10.01,0,0,1,1.738-6.816c3.523-5.051,11.565-14.57,15.655-17.4a12.415,12.415,0,0,1,15.178.635c4.327,3.5,5.931,8.969,3.991,13.6-.948,2.263-11.786,18.395-13.949,21.605l-.076.1a8.373,8.373,0,0,1-6.292,3.51C5125.474,1437.222,5125.359,1437.225,5125.244,1437.225Zm-12.487-14.546a7.9,7.9,0,0,0,2.109,4.536c4.3,4.556,7.865,6.808,10.58,6.688a5.118,5.118,0,0,0,3.8-2.208c4.941-7.335,12.971-19.469,13.6-20.978,1.576-3.762-.381-7.6-3.019-9.739a9.076,9.076,0,0,0-11.2-.486c-3.6,2.5-11.476,11.777-14.824,16.575a6.7,6.7,0,0,0-1.16,4.559Z" transform="translate(-5109.284 -1395.478)" fill="#374170"/>
    </g>
    <g id="Grupo_18090" data-name="Grupo 18090" transform="translate(4717.478 745.018)">
      <path id="Trazado_36987" data-name="Trazado 36987" d="M5224.3,1504.281a30.3,30.3,0,0,1-15.612-5.141,8.371,8.371,0,0,1-2.791-10.4c3.325-7.238,10.585-16.462,13.977-18.655,2.441-1.579,6.282-1.16,9.34,1.02,3.1,2.21,4.473,5.47,3.671,8.721a83.9,83.9,0,0,1-3.313,9.8,36.476,36.476,0,0,0-1.292,3.609c.089,1.422,1.271,4.169,2.679,4.215l2.158.07-.624,2.067a6.206,6.206,0,0,1-4.145,4.088A12.36,12.36,0,0,1,5224.3,1504.281Zm-.929-31.843a3.113,3.113,0,0,0-1.695.431c-2.655,1.718-9.574,10.312-12.764,17.255a5.06,5.06,0,0,0,1.666,6.29h0c5.085,3.525,12.878,5.455,16.677,4.129a4.071,4.071,0,0,0,1.134-.586c-2.249-1.515-3.354-4.787-3.427-6.66-.032-.837.414-2.025,1.517-4.87a81.284,81.284,0,0,0,3.185-9.4c.688-2.788-1.644-4.7-2.375-5.225A7.06,7.06,0,0,0,5223.369,1472.438Z" transform="translate(-5205.115 -1469.132)" fill="#374170"/>
    </g>
    <g id="Grupo_18091" data-name="Grupo 18091" transform="translate(4585.859 672.674)">
      <path id="Trazado_36988" data-name="Trazado 36988" d="M4665.575,1181.037a1.651,1.651,0,0,1-.958-.306c-5.453-3.87-10.141-8.727-14.674-13.424-4.325-4.482-8.41-8.714-12.311-11.041-21.56-12.863-50.428-24.188-50.717-24.3a1.659,1.659,0,1,1,1.207-3.09c.292.114,29.41,11.536,51.21,24.543,4.28,2.554,8.515,6.941,13,11.586,4.428,4.588,9.006,9.332,14.206,13.022a1.659,1.659,0,0,1-.961,3.012Z" transform="translate(-4585.859 -1128.759)" fill="#374170"/>
    </g>
    <g id="Grupo_18092" data-name="Grupo 18092" transform="translate(4751.007 671.176)">
      <path id="Trazado_36989" data-name="Trazado 36989" d="M5427.257,1206.316c-4.139,0-8.976-2.92-10.649-4.353-.585-.407-2.189-2.166-13.043-14.063l-22.127-17.877a1.659,1.659,0,1,1,2.085-2.581l22.323,18.035.085.093c8.492,9.308,11.881,13,12.5,13.619a2.434,2.434,0,0,1,.3.226c2.212,1.932,7.875,4.561,10.12,3.226a19.4,19.4,0,0,0,5.53-4.685c1.4-1.748-.575-8.4-2.393-10.635l-10.426-12.791a26,26,0,0,0-3.081-3.172l-.05-.045c-.635-.6-15.614-14.717-20.124-20.375-5.859-7.35-13.515-11.569-20.269-15.291-6.352-3.5-11.838-6.523-14.917-11.387a1.659,1.659,0,1,1,2.8-1.775c2.624,4.144,7.764,6.977,13.715,10.256,7.026,3.872,14.99,8.261,21.262,16.129,4.284,5.374,19.088,19.353,19.78,20a29.212,29.212,0,0,1,3.45,3.557l10.427,12.793a19.673,19.673,0,0,1,3.058,6.8c.636,2.49,1.04,5.9-.646,8.008a22.822,22.822,0,0,1-6.424,5.465A6.361,6.361,0,0,1,5427.257,1206.316Z" transform="translate(-5362.868 -1121.714)" fill="#374170"/>
    </g>
    <g id="Grupo_18093" data-name="Grupo 18093" transform="translate(4760.576 737.843)">
      <path id="Trazado_36990" data-name="Trazado 36990" d="M5445.034,1464.239a21.027,21.027,0,0,1-7.959-1.48c-6.771-4.232-19.938-15.124-28.746-24.593a1.659,1.659,0,0,1,2.429-2.26c8.489,9.126,21.581,19.972,28.046,24.021,1.219.589,7.853,1.778,9.79.269a39.8,39.8,0,0,0,5.6-5.245c.312-.527.135-2.309-.632-4.109a1.659,1.659,0,1,1,3.052-1.3c.455,1.068,1.831,4.737.432,7.1-.646,1.092-3.824,4.147-6.417,6.167A9.308,9.308,0,0,1,5445.034,1464.239Zm-6.205-4.3,0,0Z" transform="translate(-5407.885 -1435.376)" fill="#374170"/>
    </g>
    <g id="Grupo_18094" data-name="Grupo 18094" transform="translate(4747.037 753.968)">
      <path id="Trazado_36991" data-name="Trazado 36991" d="M5377.2,1534.993l-.159,0c-.57-.014-5.654-.192-8.724-1.977-9-5.232-21.683-16.992-23.641-18.939a1.659,1.659,0,1,1,2.338-2.354c2.712,2.7,14.854,13.708,22.969,18.424,1.918,1.115,5.51,1.487,7.141,1.528,3.231.09,7.457-4.508,8.344-6.837a6.744,6.744,0,0,0-.454-3.883,1.659,1.659,0,0,1,3.11-1.156c.326.877,1.321,3.917.444,6.22C5387.35,1529.219,5382.136,1534.993,5377.2,1534.993Z" transform="translate(-5344.187 -1511.24)" fill="#374170"/>
    </g>
    <g id="Grupo_18095" data-name="Grupo 18095" transform="translate(4739.188 769.533)">
      <path id="Trazado_36992" data-name="Trazado 36992" d="M5335.221,1597.594a85.445,85.445,0,0,1-12.116-1.271,13.558,13.558,0,0,1-5.442-2.187l-9.683-6.637a1.659,1.659,0,0,1,1.875-2.737l9.8,6.715.056.046a10.918,10.918,0,0,0,4.105,1.558c1.65.361,10.623,1.538,12.876,1.109,2.958-.561,5.332-2.842,5.843-4.2a1.659,1.659,0,1,1,3.106,1.165c-.936,2.5-4.308,5.534-8.331,6.3A11.926,11.926,0,0,1,5335.221,1597.594Z" transform="translate(-5307.259 -1584.472)" fill="#374170"/>
    </g>
    <g id="Grupo_18096" data-name="Grupo 18096" transform="translate(4796.968 684.167)">
      <path id="Trazado_36993" data-name="Trazado 36993" d="M5579.667,1205.967l-.559-.954a23.342,23.342,0,0,1,2.194-1.026c5.251-2.275,16.179-7.01,22.02-21.152l1.022.422c-6.013,14.555-17.218,19.411-22.6,21.744C5580.827,1205.4,5580.1,1205.712,5579.667,1205.967Z" transform="translate(-5579.109 -1182.835)" fill="#374170"/>
    </g>
    <g id="Grupo_18097" data-name="Grupo 18097" transform="translate(4753.731 651.385)">
      <path id="Trazado_36994" data-name="Trazado 36994" d="M5376.061,1051.515l-.379-1.039c13.463-4.9,19.3-10.706,27.283-21.878l.9.643C5395.741,1040.606,5389.8,1046.519,5376.061,1051.515Z" transform="translate(-5375.682 -1028.598)" fill="#374170"/>
    </g>
    <g id="Grupo_18098" data-name="Grupo 18098" transform="translate(4752.576 657.013)">
      <path id="Trazado_36995" data-name="Trazado 36995" d="M5371.223,1070.108l-.974-.524c2.622-4.867,3.427-9.667,2.4-14.266l1.08-.242C5374.815,1059.942,5373.974,1065,5371.223,1070.108Z" transform="translate(-5370.249 -1055.076)" fill="#374170"/>
    </g>
    <g id="Grupo_18099" data-name="Grupo 18099" transform="translate(4735.642 668.547)">
      <path id="Trazado_36996" data-name="Trazado 36996" d="M5294.159,1116.861c-.008-.051-.853-5.128-3.584-6.536l.507-.983c3.229,1.665,4.132,7.113,4.169,7.344Z" transform="translate(-5290.575 -1109.342)" fill="#374170"/>
    </g>
    <g id="Grupo_18100" data-name="Grupo 18100" transform="translate(4713.664 678.417)">
      <path id="Trazado_36997" data-name="Trazado 36997" d="M5190.5,1173.04a.553.553,0,0,1-.5-.784c2.116-4.605,5.351-12.483,5.021-14.016-.36-1.681-4.708-1.375-6.8-1.228l-.458.032a.553.553,0,1,1-.074-1.1l.455-.031c2.766-.195,7.4-.521,7.958,2.1.514,2.4-4.522,13.457-5.1,14.71A.553.553,0,0,1,5190.5,1173.04Z" transform="translate(-5187.169 -1155.781)" fill="#374170"/>
    </g>
    <g id="Grupo_18101" data-name="Grupo 18101" transform="translate(4711.478 742.894)">
      <path id="Trazado_36998" data-name="Trazado 36998" d="M5185.532,1467.726a1.142,1.142,0,0,1-.285-.034c-3.289-.847-7.744-4.52-8.362-6.895l1.07-.279c.479,1.839,4.474,5.306,7.567,6.1.793.205,4.651-2.556,7.518-7.484l.956.556C5191.279,1464.364,5187.319,1467.726,5185.532,1467.726Z" transform="translate(-5176.885 -1459.137)" fill="#374170"/>
    </g>
    <g id="Grupo_18102" data-name="Grupo 18102" transform="translate(4692.979 729.537)">
      <path id="Trazado_36999" data-name="Trazado 36999" d="M5098.228,1404.517a1.208,1.208,0,0,1-.355-.049c-3.245-1-7.518-4.885-8.022-7.287l1.082-.227c.391,1.859,4.215,5.513,7.267,6.457.785.242,4.768-2.332,7.867-7.117l.929.6C5104.1,1401.372,5100.049,1404.517,5098.228,1404.517Z" transform="translate(-5089.85 -1396.295)" fill="#374170"/>
    </g>
    <g id="Grupo_18103" data-name="Grupo 18103" transform="translate(4727.398 750.864)">
      <path id="Trazado_37000" data-name="Trazado 37000" d="M5255.652,1507.836a3.191,3.191,0,0,1-1.088-.191,7.811,7.811,0,0,1-2.772-1.519l.7-.856a6.694,6.694,0,0,0,2.446,1.334,2.452,2.452,0,0,0,1.925-.179c1.871-.891,3.684-3.551,4.284-5.141-.088-.489-.616-2.485-3.462-3.62l.409-1.027c3.855,1.537,4.16,4.532,4.171,4.659l.011.119-.04.112c-.522,1.492-2.5,4.755-4.9,5.9A3.919,3.919,0,0,1,5255.652,1507.836Z" transform="translate(-5251.792 -1496.637)" fill="#374170"/>
    </g>
    <g id="Grupo_18106" data-name="Grupo 18106" transform="translate(4711.657 559.849)">
      <g id="Grupo_18104" data-name="Grupo 18104" transform="translate(0 14.575)">
        <path id="Trazado_37001" data-name="Trazado 37001" d="M5212.937,669.528a3.029,3.029,0,0,1-3.029,3.029h-6.429a3.029,3.029,0,0,1,0-6.059h6.429A3.029,3.029,0,0,1,5212.937,669.528Zm-21.576,0a3.03,3.03,0,0,1-3.029,3.029h-7.574a3.029,3.029,0,0,1,0-6.059h7.574A3.03,3.03,0,0,1,5191.361,669.528Z" transform="translate(-5177.729 -666.499)" fill="#45c2cb"/>
      </g>
      <g id="Grupo_18105" data-name="Grupo 18105" transform="translate(14.575 0)">
        <path id="Trazado_37002" data-name="Trazado 37002" d="M5249.332,633.134a3.03,3.03,0,0,1-3.03-3.029v-7.573a3.029,3.029,0,1,1,6.059,0V630.1A3.029,3.029,0,0,1,5249.332,633.134Zm0-22.72a3.03,3.03,0,0,1-3.03-3.029v-6.429a3.029,3.029,0,1,1,6.059,0v6.429A3.029,3.029,0,0,1,5249.332,610.414Z" transform="translate(-5246.302 -597.926)" fill="#45c2cb"/>
      </g>
    </g>
    <g id="Grupo_18109" data-name="Grupo 18109" transform="translate(4771.25 801.206)">
      <g id="Grupo_18107" data-name="Grupo 18107" transform="translate(0 14.575)">
        <path id="Trazado_37003" data-name="Trazado 37003" d="M5493.317,1805.093a3.03,3.03,0,0,1-3.03,3.029h-6.429a3.029,3.029,0,0,1,0-6.059h6.429A3.03,3.03,0,0,1,5493.317,1805.093Zm-21.576,0a3.029,3.029,0,0,1-3.029,3.029h-7.574a3.029,3.029,0,0,1,0-6.059h7.574A3.029,3.029,0,0,1,5471.741,1805.093Z" transform="translate(-5458.109 -1802.064)" fill="#fb737b"/>
      </g>
      <g id="Grupo_18108" data-name="Grupo 18108" transform="translate(14.575 0)">
        <path id="Trazado_37004" data-name="Trazado 37004" d="M5529.711,1768.7a3.029,3.029,0,0,1-3.029-3.029V1758.1a3.03,3.03,0,0,1,6.059,0v7.573A3.03,3.03,0,0,1,5529.711,1768.7Zm0-22.72a3.029,3.029,0,0,1-3.029-3.029v-6.429a3.03,3.03,0,0,1,6.059,0v6.429A3.03,3.03,0,0,1,5529.711,1745.979Z" transform="translate(-5526.682 -1733.491)" fill="#fb737b"/>
      </g>
    </g>
    <g id="Grupo_18112" data-name="Grupo 18112" transform="translate(4653.656 749.966)">
      <g id="Grupo_18110" data-name="Grupo 18110" transform="translate(0 14.575)">
        <path id="Trazado_37005" data-name="Trazado 37005" d="M4940.046,1564.013a3.029,3.029,0,0,1-3.029,3.029h-6.43a3.029,3.029,0,0,1,0-6.059h6.43A3.029,3.029,0,0,1,4940.046,1564.013Zm-21.576,0a3.03,3.03,0,0,1-3.029,3.029h-7.574a3.029,3.029,0,0,1,0-6.059h7.574A3.029,3.029,0,0,1,4918.47,1564.013Z" transform="translate(-4904.838 -1560.984)" fill="#fb737b"/>
      </g>
      <g id="Grupo_18111" data-name="Grupo 18111" transform="translate(14.575)">
        <path id="Trazado_37006" data-name="Trazado 37006" d="M4976.44,1527.619a3.029,3.029,0,0,1-3.029-3.029v-7.573a3.029,3.029,0,0,1,6.059,0v7.573A3.029,3.029,0,0,1,4976.44,1527.619Zm0-22.72a3.029,3.029,0,0,1-3.029-3.029v-6.429a3.029,3.029,0,1,1,6.059,0v6.429A3.029,3.029,0,0,1,4976.44,1504.9Z" transform="translate(-4973.411 -1492.411)" fill="#fb737b"/>
      </g>
    </g>
    <g id="Grupo_18113" data-name="Grupo 18113" transform="translate(4624.973 723.144)">
      <path id="Trazado_37007" data-name="Trazado 37007" d="M4892.925,1473.382a127.455,127.455,0,0,1-16.8-1.479l.68-4.371a123.021,123.021,0,0,0,16.215,1.428Zm-33.267-5.179a127.831,127.831,0,0,1-15.827-5.847l1.8-4.039a123.365,123.365,0,0,0,15.277,5.644Zm-30.741-13.726a128.888,128.888,0,0,1-13.75-9.766l2.792-3.431a124.443,124.443,0,0,0,13.276,9.429Zm-26.1-21.247a128.273,128.273,0,0,1-10.733-13l3.59-2.585a123.789,123.789,0,0,0,10.361,12.552Zm-19.652-27.3a127.267,127.267,0,0,1-6.949-15.369l4.143-1.551a122.881,122.881,0,0,0,6.707,14.833Zm-11.8-31.52c-.563-2.453-1.062-4.961-1.481-7.454l4.363-.734c.4,2.407.886,4.829,1.43,7.2Z" transform="translate(-4769.885 -1366.218)" fill="#fcd008"/>
    </g>
    <g id="Grupo_18114" data-name="Grupo 18114" transform="translate(4822.177 727.436)">
      <path id="Trazado_37008" data-name="Trazado 37008" d="M5700.276,1465.825l-2.56-3.608a123.05,123.05,0,0,0,49.529-75.807l4.333.891a128.114,128.114,0,0,1-51.3,78.524Z" transform="translate(-5697.716 -1386.411)" fill="#fcd008"/>
    </g>
    <g id="Grupo_18115" data-name="Grupo 18115" transform="translate(4752.604 549.571)">
      <path id="Trazado_37009" data-name="Trazado 37009" d="M5460.4,594.239a142.1,142.1,0,0,0-90.017-33.61l.118-11.058a152.748,152.748,0,0,1,97.041,36.224Z" transform="translate(-5370.381 -549.571)" fill="#fcd008"/>
    </g>
    <g id="Grupo_18116" data-name="Grupo 18116" transform="translate(4597.861 694.236)">
      <path id="Trazado_37010" data-name="Trazado 37010" d="M4643.711,1258.986a154.273,154.273,0,0,1-1.165-28.78l11.043.593a143.183,143.183,0,0,0,1.082,26.712Z" transform="translate(-4642.328 -1230.206)" fill="#fcd008"/>
    </g>
    <g id="Grupo_18117" data-name="Grupo 18117" transform="translate(4633.987 585.354)">
      <path id="Trazado_37011" data-name="Trazado 37011" d="M4820.747,743.581l-8.452-7.133a154.062,154.062,0,0,1,18.558-18.522l7.115,8.466A142.9,142.9,0,0,0,4820.747,743.581Z" transform="translate(-4812.295 -717.926)" fill="#fcd008"/>
    </g>
    <g id="Grupo_18118" data-name="Grupo 18118" transform="translate(4635.464 795.819)">
      <path id="Trazado_37012" data-name="Trazado 37012" d="M4934.5,1767.977a151.964,151.964,0,0,1-54.937-10.26,154.185,154.185,0,0,1-60.314-42.3l8.335-7.268a141.737,141.737,0,0,0,126.039,47.49l1.475,10.96A154.521,154.521,0,0,1,4934.5,1767.977Z" transform="translate(-4819.248 -1708.144)" fill="#fcd008"/>
    </g>
    <g id="Grupo_18119" data-name="Grupo 18119" transform="translate(4875.382 717.867)">
      <path id="Trazado_37013" data-name="Trazado 37013" d="M5957.73,1399.748l-9.691-5.327a140.671,140.671,0,0,0,16.7-53.03l11,1.179A151.678,151.678,0,0,1,5957.73,1399.748Z" transform="translate(-5948.039 -1341.39)" fill="#fcd008"/>
    </g>
    <g id="Grupo_18120" data-name="Grupo 18120" transform="translate(4770.602 576.499)">
      <path id="Trazado_37014" data-name="Trazado 37014" d="M5517.216,710.172c-1.132-1-2.3-2-3.468-2.963l2.812-3.415c1.211,1,2.419,2.03,3.591,3.069ZM5500.524,697.7a124.047,124.047,0,0,0-14.357-7.687l1.827-4.029a128.536,128.536,0,0,1,14.87,7.962Zm-29.6-13.415a122.845,122.845,0,0,0-15.866-3.659l.705-4.367a127.328,127.328,0,0,1,16.439,3.791Z" transform="translate(-5455.057 -676.264)" fill="#fcd008"/>
    </g>
    <g id="Grupo_18121" data-name="Grupo 18121" transform="translate(4658.192 587.985)">
      <path id="Trazado_37015" data-name="Trazado 37015" d="M4929.392,760.125l-3.213-3.041a127.063,127.063,0,0,1,36.309-26.779l1.953,3.969A122.648,122.648,0,0,0,4929.392,760.125Z" transform="translate(-4926.179 -730.305)" fill="#fcd008"/>
    </g>
    <g id="Grupo_18122" data-name="Grupo 18122" transform="translate(4748.056 592.045)">
      <path id="Trazado_37016" data-name="Trazado 37016" d="M5431.207,789.512a105.878,105.878,0,0,0-82.105-35.64l-.12-4.422a109.224,109.224,0,0,1,47.376,9.319,111.814,111.814,0,0,1,38.155,27.8Z" transform="translate(-5348.981 -749.408)" fill="#fcd008"/>
    </g>
    <g id="Grupo_18123" data-name="Grupo 18123" transform="translate(4799.404 771.392)">
      <path id="Trazado_37017" data-name="Trazado 37017" d="M5592.592,1622.8l-2.021-3.935a105.54,105.54,0,0,0,32.32-25.645l3.37,2.866A109.939,109.939,0,0,1,5592.592,1622.8Z" transform="translate(-5590.571 -1593.217)" fill="#fcd008"/>
    </g>
    <g id="Grupo_18124" data-name="Grupo 18124" transform="translate(4838.943 744.781)">
      <path id="Trazado_37018" data-name="Trazado 37018" d="M5780.266,1487.581l-3.669-2.472a106.728,106.728,0,0,0,9.366-17.091l4.058,1.761A111.144,111.144,0,0,1,5780.266,1487.581Z" transform="translate(-5776.597 -1468.019)" fill="#fcd008"/>
    </g>
    <g id="Grupo_18125" data-name="Grupo 18125" transform="translate(4644.014 729.728)">
      <path id="Trazado_37019" data-name="Trazado 37019" d="M4866.862,1418.316a110.226,110.226,0,0,1-7.391-20l4.278-1.125a105.78,105.78,0,0,0,7.094,19.191Z" transform="translate(-4859.471 -1397.196)" fill="#fcd008"/>
    </g>
    <g id="Grupo_18126" data-name="Grupo 18126" transform="translate(4683.842 786.976)">
      <path id="Trazado_37020" data-name="Trazado 37020" d="M5113.745,1692.739a110.242,110.242,0,0,1-66.882-22.683l2.684-3.517a105.428,105.428,0,0,0,78.533,20.81c2.911-.392,5.834-.908,8.688-1.533l.947,4.321c-2.971.651-6.015,1.188-9.046,1.6A111.892,111.892,0,0,1,5113.745,1692.739Z" transform="translate(-5046.863 -1666.539)" fill="#fcd008"/>
    </g>
    <g id="Grupo_18127" data-name="Grupo 18127" transform="translate(4677.167 598.501)">
      <path id="Trazado_37021" data-name="Trazado 37021" d="M5018.406,804.8l-2.953-3.294a109.511,109.511,0,0,1,36.485-21.729l1.485,4.166A105.116,105.116,0,0,0,5018.406,804.8Z" transform="translate(-5015.453 -779.782)" fill="#fcd008"/>
    </g>
    <rect id="Rect치ngulo_3893" data-name="Rect치ngulo 3893" width="13.245" height="13.245" transform="translate(4697.601 821.334) rotate(-45)" fill="#45c2cb"/>
  </g>
</svg>
