<svg xmlns="http://www.w3.org/2000/svg" width="477.375" height="399.307" viewBox="0 0 477.375 399.307">
  <g id="Grupo_18288" data-name="Grupo 18288" transform="translate(-4501.727 -263.296)">
    <g id="Grupo_18216" data-name="Grupo 18216" transform="translate(4689.881 444.756)">
      <path id="Trazado_37310" data-name="Trazado 37310" d="M5299.333,944.025a15.54,15.54,0,0,0-.859,2.112c-.112.326-.24.7-.386,1.1-.412,1.142-.979,2.6-1.657,4.284v.009c-4.121,10.286-12.191,29-13.54,36.163q-.3,1.571-.567,3.039c-.3,1.614-.575,3.134-.841,4.568-.284,1.554-.558,3.013-.824,4.362-5.478,4.611-11.617,9.668-18.227,15.455-.722-.635-1.443-1.254-2.147-1.872-.721-.618-1.442-1.236-2.146-1.846-7.53-6.439-14.33-11.969-20.134-17.043-3.039-10.707-12.483-32.411-14.433-38.516a17.658,17.658,0,0,0-3.039-5.641,21.709,21.709,0,0,1,15.334-11.075,25.761,25.761,0,0,1,4.044-.352,29.016,29.016,0,0,1,18.228,6.422c.833.67,1.554,1.314,2.146,1.9a20,20,0,0,1,2.147,2.37,29.108,29.108,0,0,1,17.97-10.337c.729-.12,1.485-.206,2.258-.258.738-.069,1.5-.095,2.283-.095A21.627,21.627,0,0,1,5299.333,944.025Z" transform="translate(-5215.586 -938.77)" fill="#45c2cb"/>
      <path id="Trazado_37311" data-name="Trazado 37311" d="M5282.967,951.52v.009c-4.121,10.286-12.192,29-13.54,36.163q-.3,1.571-.567,3.039c-6.586,6.062-14.827,12.656-24.186,20.666-.7.61-1.425,1.228-2.147,1.846-.7.618-1.425,1.236-2.146,1.872-5-4.37-9.728-8.328-14.1-11.986-.231-1.339-.471-2.747-.737-4.233-.078-.447-.155-.9-.241-1.365-.163-.893-.42-1.958-.764-3.177-3.039-10.707-12.483-32.411-14.433-38.516a17.656,17.656,0,0,0-3.039-5.641,26.569,26.569,0,0,0-2.507-2.756c-.73-.7-1.537-1.417-2.438-2.146a21.588,21.588,0,0,1,15.737-6.525c.782,0,1.546.026,2.284.095.773.052,1.528.137,2.259.258a29.146,29.146,0,0,1,17.978,10.337,19.943,19.943,0,0,1,2.146-2.37,27.235,27.235,0,0,1,2.147-1.9,28.939,28.939,0,0,1,18.219-6.422,25.774,25.774,0,0,1,4.044.352A21.826,21.826,0,0,1,5282.967,951.52Z" transform="translate(-5202.123 -938.77)" fill="#fcd008"/>
      <path id="Trazado_37312" data-name="Trazado 37312" d="M5291.262,947.236c-.412,1.142-.979,2.6-1.657,4.284v.009c-4.12,10.286-12.191,29-13.539,36.163q-.3,1.571-.567,3.039c-.3,1.614-.575,3.134-.841,4.568-6.113,5.3-13.291,11.11-21.2,17.945-.7.618-1.426,1.236-2.147,1.872-.721-.635-1.442-1.254-2.146-1.872-6.156-5.323-11.874-10.028-16.983-14.347-.078-.447-.154-.9-.241-1.365-.163-.893-.421-1.958-.764-3.177-3.039-10.707-12.483-32.411-14.432-38.516a17.653,17.653,0,0,0-3.04-5.641,26.3,26.3,0,0,0-2.507-2.756,21.511,21.511,0,0,1,15.584-8.577,19.457,19.457,0,0,1,2.008-.095c.781,0,1.546.026,2.284.095a29.22,29.22,0,0,1,18.091,8.225,2.157,2.157,0,1,0,4.293,0,29.184,29.184,0,0,1,18.082-8.225c.738-.069,1.5-.095,2.283-.095a19.505,19.505,0,0,1,2.01.095A21.5,21.5,0,0,1,5291.262,947.236Z" transform="translate(-5208.76 -938.77)" fill="#fb737b"/>
    </g>
    <g id="Grupo_18224" data-name="Grupo 18224" transform="translate(4501.727 263.296)">
      <g id="Grupo_18217" data-name="Grupo 18217" transform="translate(217.243 64.941)">
        <path id="Trazado_37313" data-name="Trazado 37313" d="M5334.551,515.136q-.487,0-.991-.016c-6.758-.214-11.4-3.375-15.124-5.915-2.776-1.892-5.174-3.526-7.712-3.526a.322.322,0,1,1,0-.644c2.737,0,5.21,1.686,8.074,3.637,3.849,2.623,8.211,5.6,14.782,5.8,8.524.268,13.477-3.073,17.453-5.76,2.813-1.9,5.244-3.543,8.222-3.543a.322.322,0,0,1,0,.644c-2.781,0-5.135,1.591-7.862,3.433C5347.5,511.883,5342.682,515.136,5334.551,515.136Z" transform="translate(-5310.402 -505.035)" fill="#374170"/>
      </g>
      <g id="Grupo_18218" data-name="Grupo 18218" transform="translate(157.777 53.406)">
        <path id="Trazado_37314" data-name="Trazado 37314" d="M5407.355,588.968a1.289,1.289,0,0,1-1.207-.835c-12.371-32.906-20.277-52.5-23.5-58.24-25.71-45.756-90.762-59.2-118.78-64.941a123.436,123.436,0,0,1-23.923,22.9,125.233,125.233,0,0,1-29.433,16.268,113.423,113.423,0,0,1-40.015,7.6,96.413,96.413,0,0,1-35.375-6.351,100.816,100.816,0,0,1-25.391-14.34c-13.426-10.346-20.193-20.6-20.475-21.027a1.288,1.288,0,0,1,2.157-1.408,98.161,98.161,0,0,0,79.064,40.55c30.3-.22,53.625-12.794,67.861-23.3,15.468-11.419,23.859-22.945,23.941-23.06l.489-.676,1.4.286c14.136,2.9,37.8,7.748,61.068,17.676,28.25,12.051,48.321,28.393,59.66,48.572,3.289,5.853,11.251,25.567,23.667,58.595a1.289,1.289,0,0,1-1.2,1.742Z" transform="translate(-5089.045 -462.098)" fill="#374170"/>
      </g>
      <g id="Grupo_18219" data-name="Grupo 18219" transform="translate(0 53.546)">
        <path id="Trazado_37315" data-name="Trazado 37315" d="M4503.015,602.037a1.289,1.289,0,0,1-1.207-1.738c15.17-40.744,24.731-64.728,28.416-71.285,11.338-20.18,31.412-36.521,59.66-48.572,23.273-9.928,46.933-14.778,61.068-17.676l.581-.119a1.288,1.288,0,0,1,.518,2.523l-.581.119c-27.9,5.719-93.222,19.11-119,64.987-3.62,6.441-13.123,30.3-28.247,70.922A1.29,1.29,0,0,1,4503.015,602.037Z" transform="translate(-4501.727 -462.62)" fill="#374170"/>
      </g>
      <g id="Grupo_18220" data-name="Grupo 18220" transform="translate(289.6 0)">
        <path id="Trazado_37316" data-name="Trazado 37316" d="M5605.134,315.436a1.293,1.293,0,0,1-.409-.067c-10.9-3.634-18.354-11.7-22.148-23.979-2.328-7.532-3.226-16.575-2.669-26.875a1.288,1.288,0,0,1,2.572.139c-.984,18.187,2.218,41.325,23.06,48.272a1.288,1.288,0,0,1-.406,2.51Z" transform="translate(-5579.749 -263.296)" fill="#374170"/>
      </g>
      <g id="Grupo_18221" data-name="Grupo 18221" transform="translate(233.451 77.654)">
        <path id="Trazado_37317" data-name="Trazado 37317" d="M5373.873,586.725c-.621,0-1.24,0-1.863-.012a1.288,1.288,0,0,1,.016-2.575h.017c21.254.262,40.648-4.1,57.627-12.977,13.736-7.181,21.776-15.243,24.6-18.375a1.288,1.288,0,0,1,1.916,1.723c-2.914,3.236-11.21,11.559-25.317,18.935C5414,582.26,5394.833,586.725,5373.873,586.725Z" transform="translate(-5370.737 -552.359)" fill="#374170"/>
      </g>
      <g id="Grupo_18222" data-name="Grupo 18222" transform="translate(173.267 87.432)">
        <path id="Trazado_37318" data-name="Trazado 37318" d="M5195.282,611.563a1.27,1.27,0,0,1-.2-.015c-6.9-1.066-30.729-5.7-47.931-20.527a1.288,1.288,0,1,1,1.681-1.951c16.684,14.383,39.92,18.893,46.644,19.933a1.288,1.288,0,0,1-.2,2.561Z" transform="translate(-5146.706 -588.758)" fill="#374170"/>
      </g>
      <g id="Grupo_18223" data-name="Grupo 18223" transform="translate(154.762 68.289)">
        <path id="Trazado_37319" data-name="Trazado 37319" d="M5087.921,529.862a1.282,1.282,0,0,1-.882-.35,127.6,127.6,0,0,1-8.923-9.906,1.288,1.288,0,1,1,1.988-1.637,121.449,121.449,0,0,0,8.7,9.667,1.288,1.288,0,0,1-.882,2.226Z" transform="translate(-5077.822 -517.5)" fill="#374170"/>
      </g>
    </g>
    <g id="Grupo_18241" data-name="Grupo 18241" transform="translate(4590.857 415.232)">
      <g id="Grupo_18237" data-name="Grupo 18237" transform="translate(0)">
        <g id="Grupo_18225" data-name="Grupo 18225" transform="translate(0 79.018)">
          <path id="Trazado_37320" data-name="Trazado 37320" d="M4920.493,1222.159a2.684,2.684,0,0,1-2.071-.973c-2.519-3.042-4.976-6.028-7.5-9.123-6.511-6.015-10.557-8.078-19.935-11.445-10.664-2.113-35.931-19.262-42.208-24.235a20.685,20.685,0,0,1-5.849-7.5,112.873,112.873,0,0,1-9.318-28.985,7.94,7.94,0,0,1,1.322-5.645l5.71-9.9a2.686,2.686,0,0,1,4.654,2.684l-5.841,10.117a2.718,2.718,0,0,0-.548,1.84,107.418,107.418,0,0,0,8.882,27.6,15.34,15.34,0,0,0,4.326,5.577c7.524,5.962,31.657,21.681,40.059,23.2l.218.04.208.075c10.207,3.656,14.833,6.012,22.109,12.759l.136.126.118.144c2.564,3.137,5.05,6.16,7.6,9.24a2.687,2.687,0,0,1-2.067,4.4Z" transform="translate(-4833.512 -1123.009)" fill="#45c2cb"/>
        </g>
        <g id="Grupo_18226" data-name="Grupo 18226" transform="translate(185.104 173.981)">
          <path id="Trazado_37321" data-name="Trazado 37321" d="M5576.225,1517.494a1.284,1.284,0,0,1-.746-.239l-32.061-22.805c-7.267-5.344-14.12-10.608-20.385-15.654a1.288,1.288,0,1,1,1.615-2.006c6.236,5.024,13.06,10.263,20.279,15.573l32.045,22.793a1.288,1.288,0,0,1-.747,2.338Z" transform="translate(-5522.552 -1476.505)" fill="#374170"/>
        </g>
        <g id="Grupo_18227" data-name="Grupo 18227" transform="translate(33.453)">
          <path id="Trazado_37322" data-name="Trazado 37322" d="M5064.549,959.783a1.286,1.286,0,0,1-1.032-.517,1.459,1.459,0,0,1-.1-.139c-3.014-3.969-5.311-7.334-7.338-10.3-.739-1.082-1.437-2.1-2.106-3.062-.209-.3-.423-.6-.636-.9a35.678,35.678,0,0,1-2.125-3.21c-2.112-3.761-3.145-9.7-4.707-18.683l-.137-.792q-.283-1.646-.6-3.434l-.046-.262c-.062-.36-.125-.725-.194-1.1-.152-.839-.4-1.868-.738-3.063-1.846-6.506-6.134-17.244-9.58-25.872-2.186-5.474-4.073-10.2-4.84-12.6a16.5,16.5,0,0,0-2.825-5.238,25.286,25.286,0,0,0-2.388-2.624c-.71-.686-1.5-1.383-2.354-2.072a67.363,67.363,0,0,0-8.083-5.527,103.664,103.664,0,0,1-15.23-11.448c-4.656-4.021-8.335-7.2-12.422-8.254-6.323-1.634-15.639-5.691-22.065-8.987a2.148,2.148,0,0,0-2.542.372,6.822,6.822,0,0,0-1.805,5.594c.433,5.109,4.687,10.718,6.081,11.732a1.288,1.288,0,0,1-1.516,2.082c-1.756-1.278-6.606-7.394-7.131-13.6a9.292,9.292,0,0,1,2.528-7.609,4.711,4.711,0,0,1,5.565-.864c6.093,3.125,15.432,7.208,21.531,8.784,4.671,1.207,8.551,4.557,13.461,8.8a101.5,101.5,0,0,0,14.866,11.185,69.825,69.825,0,0,1,8.387,5.739c.908.735,1.756,1.482,2.52,2.219a27.764,27.764,0,0,1,2.629,2.892,19.015,19.015,0,0,1,3.25,6.042c.738,2.312,2.611,7,4.777,12.428,3.468,8.683,7.783,19.489,9.667,26.126.359,1.274.625,2.383.792,3.3.07.378.135.753.2,1.124l.043.253c.213,1.192.412,2.34.6,3.443l.137.79c1.517,8.723,2.518,14.486,4.413,17.859a33.141,33.141,0,0,0,1.976,2.975c.217.3.436.61.652.917.679.971,1.38,2,2.124,3.087,2.019,2.958,4.307,6.311,7.3,10.25l.081.11a1.288,1.288,0,0,1-1.037,2.051Z" transform="translate(-4958.04 -828.869)" fill="#374170"/>
        </g>
        <g id="Grupo_18228" data-name="Grupo 18228" transform="translate(17.615 37.012)">
          <path id="Trazado_37323" data-name="Trazado 37323" d="M4908.248,1009.281a1.248,1.248,0,0,1-.159-.01,1.288,1.288,0,0,1-1.121-1.436l.084-.684a9.4,9.4,0,0,0-.637-4.726l-5.985-14.537a16.661,16.661,0,0,1-1.25-5.732l-.093-2.439a7.351,7.351,0,0,1,2.13-5.451l5.522-5.543a7.035,7.035,0,0,1,4.855-2.078,8.419,8.419,0,0,1,7.572,4.354l7.165,12.838a1.288,1.288,0,0,1-2.25,1.255l-7.167-12.842a5.849,5.849,0,0,0-5.266-3.03,4.47,4.47,0,0,0-3.085,1.321l-5.522,5.543a4.762,4.762,0,0,0-1.381,3.535l.093,2.439a14.108,14.108,0,0,0,1.056,4.85l5.987,14.537a11.986,11.986,0,0,1,.811,6.023l-.084.684A1.288,1.288,0,0,1,4908.248,1009.281Z" transform="translate(-4899.082 -966.643)" fill="#374170"/>
        </g>
        <g id="Grupo_18229" data-name="Grupo 18229" transform="translate(7.047 56.593)">
          <path id="Trazado_37324" data-name="Trazado 37324" d="M4869.858,1081.656a1.288,1.288,0,0,1-1.2-.827l-7.273-18.975a24.578,24.578,0,0,1-1.6-10.3l.062-1.037a7.377,7.377,0,0,1,2.324-4.968l4.485-4.213a6.7,6.7,0,0,1,4.825-1.8l1.177.047a1.288,1.288,0,0,1-.1,2.574l-1.177-.047a4.1,4.1,0,0,0-2.959,1.1l-4.485,4.213a4.82,4.82,0,0,0-1.517,3.241l-.061,1.037a22.028,22.028,0,0,0,1.431,9.224l7.273,18.975a1.29,1.29,0,0,1-1.2,1.749Z" transform="translate(-4859.742 -1039.534)" fill="#374170"/>
        </g>
        <g id="Grupo_18230" data-name="Grupo 18230" transform="translate(65.615 43.445)">
          <path id="Trazado_37325" data-name="Trazado 37325" d="M5088.512,994.639c-5.45,0-7.536-1.4-9.919-3-.225-.151-.454-.3-.688-.459a.322.322,0,0,1,.353-.538q.354.233.693.462c2.509,1.683,4.676,3.136,11.125,2.853a.318.318,0,0,1,.335.308.321.321,0,0,1-.307.336C5089.542,994.628,5089.013,994.639,5088.512,994.639Z" transform="translate(-5077.759 -990.592)" fill="#374170"/>
        </g>
        <g id="Grupo_18231" data-name="Grupo 18231" transform="translate(32.294 18.752)">
          <path id="Trazado_37326" data-name="Trazado 37326" d="M4967.658,942.107a1.288,1.288,0,0,1-1.286-1.234,11.865,11.865,0,0,0-1.344-3.728l-8.8-15.9a19.783,19.783,0,0,1-2.434-8.482l-.06-1.1a6.016,6.016,0,0,1,1.794-4.613l6.295-6.174a7.749,7.749,0,0,1,5.679-2.2l.072,0a11.863,11.863,0,0,1,9.186,4.947c3.281,3.882,5.982,7.128,8.155,9.738,9.149,10.993,10.089,12.023,13.368,12.442a1.288,1.288,0,1,1-.328,2.555c-4.376-.56-5.794-2.264-15.019-13.349-2.177-2.616-4.888-5.872-8.178-9.765l-.07-.09a9.272,9.272,0,0,0-7.206-3.9l-.073,0a5.151,5.151,0,0,0-3.783,1.467l-6.294,6.175a3.442,3.442,0,0,0-1.025,2.637l.059,1.1a17.235,17.235,0,0,0,2.117,7.372l8.809,15.911a14.427,14.427,0,0,1,1.656,4.854,1.288,1.288,0,0,1-1.233,1.34Z" transform="translate(-4953.726 -898.671)" fill="#374170"/>
        </g>
        <g id="Grupo_18232" data-name="Grupo 18232" transform="translate(5.504 82.772)">
          <path id="Trazado_37327" data-name="Trazado 37327" d="M4939.581,1227.96a1.284,1.284,0,0,1-.993-.466c-2.523-3.045-5-6.052-7.562-9.191-6.757-6.255-10.9-8.362-20.585-11.837-9.882-1.878-34.829-18.528-41.711-23.979a19.314,19.314,0,0,1-5.453-7,111.514,111.514,0,0,1-9.2-28.624,6.587,6.587,0,0,1,1.159-4.712l2.112-3.171a4.874,4.874,0,0,1,2.574-1.937,1.288,1.288,0,0,1,.795,2.45l-.013,0a2.289,2.289,0,0,0-1.212.91l-2.112,3.171a4.038,4.038,0,0,0-.763,2.85,108.873,108.873,0,0,0,8.994,27.96,16.756,16.756,0,0,0,4.724,6.077c7.826,6.2,31.918,21.9,40.678,23.484l.1.019.1.036c10.006,3.583,14.533,5.887,21.629,12.468l.122.13c2.582,3.159,5.069,6.184,7.606,9.247a1.288,1.288,0,0,1-.99,2.109Z" transform="translate(-4853.999 -1136.985)" fill="#374170"/>
        </g>
        <g id="Grupo_18233" data-name="Grupo 18233" transform="translate(49.452 61.492)">
          <path id="Trazado_37328" data-name="Trazado 37328" d="M5024.351,1065.562a.317.317,0,0,1-.132-.029,10.8,10.8,0,0,1-6.608-7.339.322.322,0,0,1,.611-.2,10.118,10.118,0,0,0,6.262,6.956.322.322,0,0,1-.132.616Z" transform="translate(-5017.593 -1057.77)" fill="#374170"/>
        </g>
        <g id="Grupo_18234" data-name="Grupo 18234" transform="translate(29.987 81.918)">
          <path id="Trazado_37329" data-name="Trazado 37329" d="M4952.479,1141.911a.314.314,0,0,1-.126-.026c-3.172-1.359-5.389-3.711-7.187-7.626a.322.322,0,1,1,.585-.269c1.728,3.759,3.842,6.012,6.855,7.3a.322.322,0,0,1-.127.618Z" transform="translate(-4945.136 -1133.802)" fill="#374170"/>
        </g>
        <g id="Grupo_18235" data-name="Grupo 18235" transform="translate(18.932 100.826)">
          <path id="Trazado_37330" data-name="Trazado 37330" d="M4908.918,1209.854a.324.324,0,0,1-.128-.026c-2.492-1.078-3.7-2.39-4.784-5.2a.322.322,0,1,1,.6-.232c1.025,2.655,2.1,3.832,4.439,4.841a.322.322,0,0,1-.127.618Z" transform="translate(-4903.984 -1204.189)" fill="#374170"/>
        </g>
        <g id="Grupo_18236" data-name="Grupo 18236" transform="translate(69.308 42.277)">
          <path id="Trazado_37331" data-name="Trazado 37331" d="M5097.623,989.2l-.031,0a9.847,9.847,0,0,1-5.974-2.391.322.322,0,0,1,.425-.484,9.131,9.131,0,0,0,5.612,2.233.322.322,0,0,1-.032.643Z" transform="translate(-5091.509 -986.242)" fill="#374170"/>
        </g>
      </g>
      <g id="Grupo_18238" data-name="Grupo 18238" transform="translate(38.648 3.994)">
        <path id="Trazado_37332" data-name="Trazado 37332" d="M4989.2,849.993a2.244,2.244,0,0,1-.9-.191,107.182,107.182,0,0,1-10.791-5.489.322.322,0,0,1,.392-.511,107.835,107.835,0,0,0,10.657,5.411,1.6,1.6,0,0,0,2.118-.831,6.049,6.049,0,0,0,.227-.579,4.268,4.268,0,0,1,.459-.918.322.322,0,1,1,.558.322,3.69,3.69,0,0,0-.405.8,6.715,6.715,0,0,1-.247.632,2.253,2.253,0,0,1-2.063,1.355Z" transform="translate(-4977.376 -843.735)" fill="#374170"/>
      </g>
      <g id="Grupo_18239" data-name="Grupo 18239" transform="translate(62.614 11.514)">
        <path id="Trazado_37333" data-name="Trazado 37333" d="M5066.912,876.578a.316.316,0,0,1-.055,0,.321.321,0,0,1-.263-.372,13.931,13.931,0,0,1,1.559-4.318.322.322,0,0,1,.548.339,13.528,13.528,0,0,0-1.473,4.089A.321.321,0,0,1,5066.912,876.578Z" transform="translate(-5066.589 -871.73)" fill="#374170"/>
      </g>
      <g id="Grupo_18240" data-name="Grupo 18240" transform="translate(65.064 12.175)">
        <path id="Trazado_37334" data-name="Trazado 37334" d="M5076.031,877.112a.322.322,0,0,1-.321-.315,10.658,10.658,0,0,1,.811-2.413.322.322,0,0,1,.591.255,11.26,11.26,0,0,0-.758,2.144.321.321,0,0,1-.314.329Z" transform="translate(-5075.71 -874.189)" fill="#374170"/>
      </g>
    </g>
    <g id="Grupo_18260" data-name="Grupo 18260" transform="translate(4643.844 406.166)">
      <g id="Grupo_18242" data-name="Grupo 18242" transform="translate(2.894 1.828)">
        <path id="Trazado_37335" data-name="Trazado 37335" d="M5044.214,1014.756a2.686,2.686,0,0,1-1.623-4.829l10.182-7.7,16.448-12.426c25.687-18.525,44.858-34.985,58.608-50.322a187.623,187.623,0,0,0,15.479-19.835c.794-1.142,1.545-2.22,2.271-3.236.206-.286.41-.565.612-.843a33.1,33.1,0,0,0,1.977-2.912c1.336-2.322,2.257-6.084,3.229-11.016.252-1.275.518-2.689.817-4.325.125-.675.251-1.36.379-2.065q.223-1.217.463-2.512.271-1.466.568-3.045c1.13-6.007,6.522-19.153,10.856-29.716.956-2.332,1.863-4.544,2.637-6.469v0l.2-.492c.69-1.713,1.235-3.123,1.621-4.192.138-.383.261-.733.367-1.043a18.238,18.238,0,0,1,.995-2.444c2.526-5.19,7.637-9.83,16.572-15.042a100.429,100.429,0,0,0,14.77-10.906c4.888-4.142,9.108-7.718,14.1-8.965,6.231-1.549,15.22-5.34,20.939-8.207a2.686,2.686,0,0,1,2.408,4.8c-6.174,3.1-15.386,6.961-22.048,8.618-3.777.942-7.375,3.991-11.928,7.85a104.787,104.787,0,0,1-15.536,11.447c-7.859,4.585-12.451,8.64-14.452,12.762l-.015.028a12.976,12.976,0,0,0-.708,1.751l-.011.028c-.116.34-.249.724-.4,1.144-.376,1.042-.89,2.378-1.53,3.973l-.16.406c-.823,2.053-1.807,4.451-2.848,6.99-4.016,9.792-9.517,23.2-10.545,28.672q-.3,1.566-.565,3.029c-.161.863-.314,1.7-.462,2.5q-.194,1.063-.38,2.068c-.3,1.654-.574,3.093-.83,4.392-1.1,5.61-2.133,9.685-3.844,12.659a37.3,37.3,0,0,1-2.293,3.4q-.293.4-.585.8c-.7.984-1.444,2.048-2.229,3.176a192.458,192.458,0,0,1-15.887,20.351c-14.007,15.623-33.45,32.329-59.441,51.075l-16.375,12.372-10.183,7.7A2.673,2.673,0,0,1,5044.214,1014.756Z" transform="translate(-5041.525 -801.926)" fill="#45c2cb"/>
      </g>
      <g id="Grupo_18259" data-name="Grupo 18259">
        <g id="Grupo_18257" data-name="Grupo 18257">
          <g id="Grupo_18253" data-name="Grupo 18253">
            <g id="Grupo_18243" data-name="Grupo 18243">
              <path id="Trazado_37336" data-name="Trazado 37336" d="M5032.04,1005.805a1.288,1.288,0,0,1-.778-2.315l10.183-7.7,16.422-12.407c25.77-18.585,45.013-35.111,58.832-50.523a188.692,188.692,0,0,0,15.581-19.966c.793-1.139,1.543-2.215,2.265-3.225.2-.28.4-.555.6-.83a33.928,33.928,0,0,0,2.059-3.039c1.434-2.491,2.393-6.377,3.39-11.445.256-1.3.524-2.718.821-4.344.12-.647.241-1.308.366-1.987q.229-1.251.476-2.586.27-1.467.567-3.042c1.1-5.867,6.466-18.939,10.774-29.443,1-2.437,1.946-4.744,2.743-6.731h0l.093-.24c.7-1.73,1.25-3.157,1.641-4.24.143-.4.27-.759.378-1.079a16.915,16.915,0,0,1,.926-2.271c2.387-4.917,7.329-9.376,16.018-14.445a101.48,101.48,0,0,0,14.968-11.047c4.951-4.195,8.86-7.507,13.539-8.675,6.139-1.527,15.51-5.519,21.62-8.582a4.713,4.713,0,0,1,5.549.92,9.3,9.3,0,0,1,2.456,7.659c-.566,5.914-5.35,12.149-7.267,13.508a1.288,1.288,0,0,1-1.489-2.1c1.4-.993,5.7-6.541,6.192-11.652a6.832,6.832,0,0,0-1.751-5.631,2.178,2.178,0,0,0-2.534-.4c-6.234,3.126-15.825,7.206-22.153,8.78-4.095,1.021-7.8,4.163-12.5,8.14a103.748,103.748,0,0,1-15.337,11.306c-8.22,4.8-12.848,8.916-15,13.359a14.39,14.39,0,0,0-.794,1.952c-.119.347-.25.723-.4,1.134-.386,1.068-.92,2.454-1.59,4.121l-.082.213c-.821,2.048-1.8,4.444-2.843,6.98-4.04,9.847-9.571,23.333-10.627,28.943q-.3,1.569-.564,3.034-.249,1.335-.477,2.581-.187,1.021-.365,1.989c-.3,1.635-.569,3.067-.828,4.376-1.077,5.471-2.068,9.425-3.685,12.233a36.367,36.367,0,0,1-2.211,3.273q-.3.4-.59.812c-.711.994-1.456,2.064-2.245,3.2a191,191,0,0,1-15.778,20.214c-13.94,15.549-33.313,32.192-59.23,50.884L5043,997.844l-10.183,7.7A1.277,1.277,0,0,1,5032.04,1005.805Z" transform="translate(-5030.751 -795.121)" fill="#374170"/>
            </g>
            <g id="Grupo_18244" data-name="Grupo 18244" transform="translate(190.823 37.097)">
              <path id="Trazado_37337" data-name="Trazado 37337" d="M5759.106,975.881a1.289,1.289,0,0,1-1.279-1.142l-.078-.684a11.993,11.993,0,0,1,.868-6.015l6.123-14.481a14.1,14.1,0,0,0,1.1-4.84l.117-2.438a4.769,4.769,0,0,0-1.349-3.548l-5.47-5.594a4.471,4.471,0,0,0-3.073-1.35,5.839,5.839,0,0,0-5.292,2.976l-7.29,12.778a1.288,1.288,0,1,1-2.237-1.276l7.287-12.774a8.423,8.423,0,0,1,7.611-4.279,7.034,7.034,0,0,1,4.834,2.123l5.47,5.594a7.348,7.348,0,0,1,2.081,5.471l-.116,2.438a16.7,16.7,0,0,1-1.3,5.72l-6.124,14.481a9.415,9.415,0,0,0-.68,4.72l.078.685a1.288,1.288,0,0,1-1.281,1.433Z" transform="translate(-5741.079 -933.211)" fill="#374170"/>
            </g>
            <g id="Grupo_18245" data-name="Grupo 18245" transform="translate(214.624 56.788)">
              <path id="Trazado_37338" data-name="Trazado 37338" d="M5833.342,1048.645a1.274,1.274,0,0,1-.471-.09,1.288,1.288,0,0,1-.727-1.67l7.451-18.906a22.017,22.017,0,0,0,1.517-9.21l-.051-1.037a4.817,4.817,0,0,0-1.485-3.255l-4.446-4.255a4.11,4.11,0,0,0-2.949-1.131l-1.176.036a1.288,1.288,0,1,1-.079-2.575l1.177-.036a6.7,6.7,0,0,1,4.808,1.846l4.445,4.255a7.372,7.372,0,0,1,2.277,4.99l.052,1.037a24.579,24.579,0,0,1-1.694,10.281l-7.451,18.906A1.287,1.287,0,0,1,5833.342,1048.645Z" transform="translate(-5829.676 -1006.511)" fill="#374170"/>
            </g>
            <g id="Grupo_18246" data-name="Grupo 18246" transform="translate(157.658 43.196)">
              <path id="Trazado_37339" data-name="Trazado 37339" d="M5619.813,959.867c-.587,0-1.213-.017-1.884-.053a.322.322,0,0,1,.034-.643c6.451.343,8.627-1.089,11.151-2.748.229-.15.46-.3.7-.456a.322.322,0,1,1,.349.542c-.236.152-.466.3-.693.452C5627.113,958.509,5625.047,959.867,5619.813,959.867Z" transform="translate(-5617.625 -955.916)" fill="#374170"/>
            </g>
            <g id="Grupo_18247" data-name="Grupo 18247" transform="translate(157.951 18.692)">
              <path id="Trazado_37340" data-name="Trazado 37340" d="M5650.331,908.132l-.067,0a1.287,1.287,0,0,1-1.22-1.352,14.4,14.4,0,0,1,1.694-4.823l8.965-15.842a17.216,17.216,0,0,0,2.186-7.352l.069-1.1a3.434,3.434,0,0,0-1-2.646l-6.236-6.233a5.146,5.146,0,0,0-3.769-1.5l-.072,0a9.268,9.268,0,0,0-7.242,3.836l-.07.089c-3.329,3.863-6.069,7.094-8.272,9.69-9.327,11-10.761,12.687-15.142,13.206a1.288,1.288,0,1,1-.3-2.558c3.281-.389,4.231-1.409,13.481-12.314,2.2-2.59,4.93-5.812,8.248-9.664a11.859,11.859,0,0,1,9.231-4.86l.071,0a7.755,7.755,0,0,1,5.66,2.256l6.236,6.233a6.011,6.011,0,0,1,1.749,4.63l-.069,1.1a19.791,19.791,0,0,1-2.514,8.459l-8.956,15.828a11.894,11.894,0,0,0-1.372,3.7A1.288,1.288,0,0,1,5650.331,908.132Z" transform="translate(-5618.713 -864.702)" fill="#374170"/>
            </g>
            <g id="Grupo_18248" data-name="Grupo 18248" transform="translate(95.628 83.093)">
              <path id="Trazado_37341" data-name="Trazado 37341" d="M5388.009,1248.88a1.288,1.288,0,0,1-.978-2.126c8.183-9.537,15.177-17.6,21.346-24.715,11.18-12.892,20.836-24.026,33.092-38.739l.122-.128c7.158-6.514,11.708-8.776,21.746-12.265l.1-.035.105-.018c8.772-1.505,33.011-16.974,40.9-23.1a16.759,16.759,0,0,0,4.78-6.032,108.844,108.844,0,0,0,9.256-27.874,4.032,4.032,0,0,0-.737-2.857l-2.081-3.19a2.289,2.289,0,0,0-1.2-.921l.388-1.228.411-1.221.012,0a4.869,4.869,0,0,1,2.546,1.957l2.082,3.191a6.579,6.579,0,0,1,1.114,4.723,111.385,111.385,0,0,1-9.472,28.536,19.308,19.308,0,0,1-5.518,6.947c-6.932,5.387-32.034,21.8-41.934,23.587-9.722,3.383-13.879,5.452-20.695,11.643-12.244,14.7-21.894,25.826-33.066,38.709-6.168,7.112-13.159,15.173-21.338,24.7A1.283,1.283,0,0,1,5388.009,1248.88Z" transform="translate(-5386.721 -1104.429)" fill="#374170"/>
            </g>
            <g id="Grupo_18249" data-name="Grupo 18249" transform="translate(179.189 61.393)">
              <path id="Trazado_37342" data-name="Trazado 37342" d="M5698.095,1031.386a.322.322,0,0,1-.131-.617,10.116,10.116,0,0,0,6.327-6.9.322.322,0,0,1,.609.21,10.8,10.8,0,0,1-6.677,7.277A.317.317,0,0,1,5698.095,1031.386Z" transform="translate(-5697.772 -1023.654)" fill="#374170"/>
            </g>
            <g id="Grupo_18250" data-name="Grupo 18250" transform="translate(197.873 82.001)">
              <path id="Trazado_37343" data-name="Trazado 37343" d="M5767.646,1108.407a.322.322,0,0,1-.125-.619c3.026-1.263,5.162-3.5,6.924-7.238a.321.321,0,1,1,.582.274c-1.834,3.9-4.072,6.229-7.257,7.558A.318.318,0,0,1,5767.646,1108.407Z" transform="translate(-5767.323 -1100.365)" fill="#374170"/>
            </g>
            <g id="Grupo_18251" data-name="Grupo 18251" transform="translate(211.183 101.012)">
              <path id="Trazado_37344" data-name="Trazado 37344" d="M5817.19,1176.756a.322.322,0,0,1-.125-.619c2.345-.988,3.434-2.154,4.483-4.8a.322.322,0,0,1,.6.237c-1.112,2.8-2.331,4.1-4.834,5.156A.31.31,0,0,1,5817.19,1176.756Z" transform="translate(-5816.867 -1171.134)" fill="#374170"/>
            </g>
            <g id="Grupo_18252" data-name="Grupo 18252" transform="translate(160.201 41.993)">
              <path id="Trazado_37345" data-name="Trazado 37345" d="M5627.414,954.339a.322.322,0,0,1-.029-.642,9.133,9.133,0,0,0,5.633-2.181.322.322,0,1,1,.421.488,9.847,9.847,0,0,1-6,2.335Z" transform="translate(-5627.092 -951.438)" fill="#374170"/>
            </g>
          </g>
          <g id="Grupo_18254" data-name="Grupo 18254" transform="translate(183.072 3.999)">
            <path id="Trazado_37346" data-name="Trazado 37346" d="M5714.977,816.157a2.252,2.252,0,0,1-2.071-1.374c-.15-.355-.2-.516-.241-.634a3.7,3.7,0,0,0-.4-.8.322.322,0,0,1,.561-.317,4.252,4.252,0,0,1,.45.923,6.171,6.171,0,0,0,.221.581,1.6,1.6,0,0,0,2.109.851,107.659,107.659,0,0,0,10.707-5.31.322.322,0,1,1,.387.515,107.185,107.185,0,0,1-10.841,5.388A2.251,2.251,0,0,1,5714.977,816.157Z" transform="translate(-5712.226 -810.008)" fill="#374170"/>
          </g>
          <g id="Grupo_18255" data-name="Grupo 18255" transform="translate(171.483 11.28)">
            <path id="Trazado_37347" data-name="Trazado 37347" d="M5670.884,841.974a.322.322,0,0,1-.317-.27,13.535,13.535,0,0,0-1.434-4.1.322.322,0,1,1,.551-.333,13.911,13.911,0,0,1,1.518,4.333.322.322,0,0,1-.317.374Z" transform="translate(-5669.085 -837.112)" fill="#374170"/>
          </g>
          <g id="Grupo_18256" data-name="Grupo 18256" transform="translate(169.758 11.925)">
            <path id="Trazado_37348" data-name="Trazado 37348" d="M5663.751,842.44h-.01a.322.322,0,0,1-.312-.332,11.225,11.225,0,0,0-.737-2.15.322.322,0,0,1,.593-.25,10.693,10.693,0,0,1,.788,2.42A.322.322,0,0,1,5663.751,842.44Z" transform="translate(-5662.667 -839.51)" fill="#374170"/>
          </g>
        </g>
        <g id="Grupo_18258" data-name="Grupo 18258" transform="translate(75.617 233.342)">
          <path id="Trazado_37349" data-name="Trazado 37349" d="M5313.518,1680.691a1.288,1.288,0,0,1-.969-2.136l12.6-14.39a1.288,1.288,0,0,1,1.938,1.7l-12.6,14.39A1.282,1.282,0,0,1,5313.518,1680.691Z" transform="translate(-5312.231 -1663.726)" fill="#374170"/>
        </g>
      </g>
    </g>
    <g id="Grupo_18287" data-name="Grupo 18287" transform="translate(4555.318 331.847)">
      <g id="Grupo_18266" data-name="Grupo 18266" transform="translate(0 0)">
        <g id="Grupo_18261" data-name="Grupo 18261" transform="translate(304.222 172.555)">
          <path id="Trazado_37350" data-name="Trazado 37350" d="M5841.4,1261.984a7.727,7.727,0,0,1-5.666-12.979,167.123,167.123,0,0,0,32.462-51.256,169.3,169.3,0,0,0,9.128-30.707,7.727,7.727,0,1,1,15.166,2.972,184.672,184.672,0,0,1-9.963,33.519,182.491,182.491,0,0,1-35.457,55.977A7.706,7.706,0,0,1,5841.4,1261.984Z" transform="translate(-5833.67 -1160.799)" fill="#fcd008"/>
        </g>
        <g id="Grupo_18262" data-name="Grupo 18262" transform="translate(288.508 4.716)">
          <path id="Trazado_37351" data-name="Trazado 37351" d="M5831.1,616.532a7.729,7.729,0,0,1-7.1-4.681,168.539,168.539,0,0,0-46.068-62.184,7.727,7.727,0,0,1,9.953-11.823,184.085,184.085,0,0,1,50.316,67.911,7.732,7.732,0,0,1-7.1,10.777Z" transform="translate(-5775.175 -536.028)" fill="#fcd008"/>
        </g>
        <g id="Grupo_18263" data-name="Grupo 18263" transform="translate(0 59.289)">
          <path id="Trazado_37352" data-name="Trazado 37352" d="M4712.322,869.087a7.728,7.728,0,0,1-7.571-6.226,183.3,183.3,0,0,1,16.665-119.492,7.727,7.727,0,0,1,13.745,7.065,168.551,168.551,0,0,0-15.25,109.421,7.734,7.734,0,0,1-7.588,9.232Z" transform="translate(-4701.22 -739.173)" fill="#fcd008"/>
        </g>
        <g id="Grupo_18264" data-name="Grupo 18264" transform="translate(42.966)">
          <path id="Trazado_37353" data-name="Trazado 37353" d="M4868.883,558.275a7.728,7.728,0,0,1-5.84-12.784,183.688,183.688,0,0,1,26.925-25.419,7.727,7.727,0,0,1,9.417,12.254A168.233,168.233,0,0,0,4874.73,555.6,7.711,7.711,0,0,1,4868.883,558.275Z" transform="translate(-4861.159 -518.472)" fill="#fcd008"/>
        </g>
        <g id="Grupo_18265" data-name="Grupo 18265" transform="translate(52.134 264.442)">
          <path id="Trazado_37354" data-name="Trazado 37354" d="M5026.474,1569.159a183.049,183.049,0,0,1-112-38.327,186.021,186.021,0,0,1-16.891-14.761,7.727,7.727,0,0,1,10.858-11,170.376,170.376,0,0,0,15.482,13.53,168.65,168.65,0,0,0,130.083,32.836,7.727,7.727,0,1,1,2.509,15.249A184.855,184.855,0,0,1,5026.474,1569.159Z" transform="translate(-4895.286 -1502.845)" fill="#fcd008"/>
        </g>
      </g>
      <g id="Grupo_18267" data-name="Grupo 18267" transform="translate(25.383 29.632)">
        <path id="Trazado_37355" data-name="Trazado 37355" d="M4800.487,762.859a4.292,4.292,0,0,1-4.274-3.951,160.033,160.033,0,0,1-.437-17.407,157.328,157.328,0,0,1,51.005-111.6,4.293,4.293,0,0,1,5.807,6.324,148.044,148.044,0,0,0-48.23,105.523,151.711,151.711,0,0,0,.414,16.47,4.293,4.293,0,0,1-3.936,4.622C4800.718,762.855,4800.6,762.859,4800.487,762.859Z" transform="translate(-4795.708 -628.776)" fill="#fcd008"/>
      </g>
      <g id="Grupo_18268" data-name="Grupo 18268" transform="translate(224.814 251.386)">
        <path id="Trazado_37356" data-name="Trazado 37356" d="M5542.37,1500.694a4.294,4.294,0,0,1-1.283-8.39,148.111,148.111,0,0,0,49.906-27.055c3.74-3.073,7.362-6.354,10.769-9.752a4.293,4.293,0,1,1,6.063,6.078c-3.6,3.592-7.43,7.06-11.381,10.307a156.644,156.644,0,0,1-52.788,28.614A4.294,4.294,0,0,1,5542.37,1500.694Z" transform="translate(-5538.077 -1454.244)" fill="#fcd008"/>
      </g>
      <g id="Grupo_18269" data-name="Grupo 18269" transform="translate(55.681 234.085)">
        <path id="Trazado_37357" data-name="Trazado 37357" d="M4973.523,1447.286a4.277,4.277,0,0,1-1.743-.372,157.284,157.284,0,0,1-14.166-7.186,4.293,4.293,0,0,1,4.269-7.45,148.4,148.4,0,0,0,13.388,6.792,4.294,4.294,0,0,1-1.749,8.216Zm-28.165-16.349a4.274,4.274,0,0,1-2.536-.832,157.362,157.362,0,0,1-12.31-10.035,4.292,4.292,0,1,1,5.753-6.372,149.03,149.03,0,0,0,11.638,9.485,4.293,4.293,0,0,1-2.544,7.754Zm-24.042-21.959a4.279,4.279,0,0,1-3.216-1.449c-3.069-3.469-6.021-7.118-8.772-10.845a4.293,4.293,0,1,1,6.906-5.1c2.6,3.526,5.394,6.976,8.3,10.257a4.293,4.293,0,0,1-3.214,7.137Z" transform="translate(-4908.488 -1389.841)" fill="#fcd008"/>
      </g>
      <g id="Grupo_18270" data-name="Grupo 18270" transform="translate(299.972 216.539)">
        <path id="Trazado_37358" data-name="Trazado 37358" d="M5819.325,1352.9a3.866,3.866,0,0,1-.65-5.424h0a3.866,3.866,0,0,1,5.426-.653h0a3.866,3.866,0,0,1,.65,5.426h0a3.857,3.857,0,0,1-3.041,1.475h0A3.851,3.851,0,0,1,5819.325,1352.9Zm7.791-10.257a3.863,3.863,0,0,1-1.1-5.354h0a3.866,3.866,0,0,1,5.354-1.1h0a3.866,3.866,0,0,1,1.094,5.354h0a3.855,3.855,0,0,1-3.226,1.735h0A3.846,3.846,0,0,1,5827.116,1342.641Zm6.917-10.864a3.861,3.861,0,0,1-1.531-5.244h0a3.86,3.86,0,0,1,5.244-1.531h0a3.86,3.86,0,0,1,1.531,5.244h0a3.868,3.868,0,0,1-3.393,2.007h0A3.856,3.856,0,0,1,5834.033,1331.777Z" transform="translate(-5817.851 -1324.526)" fill="#fcd008"/>
      </g>
      <g id="Grupo_18271" data-name="Grupo 18271" transform="translate(322.748 89.326)">
        <path id="Trazado_37359" data-name="Trazado 37359" d="M5914.375,939a4.3,4.3,0,0,1-4.237-5.02,148.922,148.922,0,0,0,1.789-14.906,4.293,4.293,0,0,1,8.565.59,157.338,157.338,0,0,1-1.892,15.769A4.294,4.294,0,0,1,5914.375,939Zm2.048-32.5a4.292,4.292,0,0,1-4.286-4.106,149.812,149.812,0,0,0-1.408-14.949,4.293,4.293,0,0,1,8.5-1.234,158.293,158.293,0,0,1,1.489,15.81,4.293,4.293,0,0,1-4.1,4.475C5916.548,906.5,5916.485,906.5,5916.423,906.5Zm-4.856-32.2a4.293,4.293,0,0,1-4.149-3.209c-1.261-4.825-2.781-9.645-4.518-14.323a4.293,4.293,0,0,1,8.049-2.988c1.837,4.946,3.443,10.041,4.775,15.142a4.3,4.3,0,0,1-4.157,5.379Z" transform="translate(-5902.63 -850.984)" fill="#fcd008"/>
      </g>
      <path id="Trazado_37360" data-name="Trazado 37360" d="M5885.642,786.777a4.343,4.343,0,1,1-.019-.026Z" transform="translate(-5561.698 -713.382)" fill="#fcd008"/>
      <g id="Grupo_18272" data-name="Grupo 18272" transform="translate(287.395 63.173)">
        <path id="Trazado_37361" data-name="Trazado 37361" d="M5795.227,800.693a2.147,2.147,0,0,1-2.053-1.524,131.193,131.193,0,0,0-21.7-42.082,2.147,2.147,0,0,1,3.4-2.618,135.484,135.484,0,0,1,22.4,43.454,2.148,2.148,0,0,1-2.056,2.77Z" transform="translate(-5771.032 -753.631)" fill="#fcd008"/>
      </g>
      <g id="Grupo_18273" data-name="Grupo 18273" transform="translate(110.505 48.718)">
        <path id="Trazado_37362" data-name="Trazado 37362" d="M5114.715,735.25a2.146,2.146,0,0,1-1.579-3.6,99.161,99.161,0,0,1,12.491-11.436,98.271,98.271,0,0,1,113.414-4.572,2.146,2.146,0,0,1-2.337,3.6A94.093,94.093,0,0,0,5116.3,734.556,2.14,2.14,0,0,1,5114.715,735.25Z" transform="translate(-5112.569 -699.821)" fill="#fcd008"/>
      </g>
      <g id="Grupo_18274" data-name="Grupo 18274" transform="translate(146.959 68.947)">
        <path id="Trazado_37363" data-name="Trazado 37363" d="M5327.221,792.377a2.136,2.136,0,0,1-1.2-.367,73.46,73.46,0,0,0-13.214-7.069,2.146,2.146,0,1,1,1.628-3.972,77.788,77.788,0,0,1,13.988,7.482,2.147,2.147,0,0,1-1.2,3.926Zm-76.806-4.739a2.147,2.147,0,0,1-.976-4.06,77.606,77.606,0,0,1,14.8-5.719,2.146,2.146,0,0,1,1.129,4.142,73.357,73.357,0,0,0-13.98,5.4A2.138,2.138,0,0,1,5250.415,787.638Zm46.725-7.206a2.18,2.18,0,0,1-.351-.029,74.336,74.336,0,0,0-14.964-.93,2.147,2.147,0,0,1-.169-4.29,78.692,78.692,0,0,1,15.832.984,2.147,2.147,0,0,1-.347,4.265Z" transform="translate(-5248.267 -775.123)" fill="#fcd008"/>
      </g>
      <g id="Grupo_18275" data-name="Grupo 18275" transform="translate(245.522 229.39)">
        <path id="Trazado_37364" data-name="Trazado 37364" d="M5617.313,1409.678a2.146,2.146,0,0,1-1.036-4.027,131.979,131.979,0,0,0,36.087-29.164c.951-1.094,1.894-2.215,2.8-3.33a2.147,2.147,0,0,1,3.33,2.71c-.937,1.152-1.911,2.308-2.893,3.437a136.232,136.232,0,0,1-37.258,30.109A2.134,2.134,0,0,1,5617.313,1409.678Z" transform="translate(-5615.164 -1372.365)" fill="#fcd008"/>
      </g>
      <g id="Grupo_18276" data-name="Grupo 18276" transform="translate(50.904 66.27)">
        <path id="Trazado_37365" data-name="Trazado 37365" d="M4892.856,815.6a2.148,2.148,0,0,1-2.084-2.664,134.9,134.9,0,0,1,21.769-46.888,2.147,2.147,0,0,1,3.476,2.52,130.63,130.63,0,0,0-21.079,45.4A2.147,2.147,0,0,1,4892.856,815.6Z" transform="translate(-4890.708 -765.159)" fill="#fcd008"/>
      </g>
      <g id="Grupo_18277" data-name="Grupo 18277" transform="translate(82.039 33.883)">
        <path id="Trazado_37366" data-name="Trazado 37366" d="M5007.812,668.18a3.863,3.863,0,0,1-.15-5.461h0a3.861,3.861,0,0,1,5.462-.148h0a3.863,3.863,0,0,1,.15,5.461h0a3.864,3.864,0,0,1-2.808,1.206h0A3.838,3.838,0,0,1,5007.812,668.18ZM5016.84,659a3.863,3.863,0,0,1,.371-5.453h0a3.865,3.865,0,0,1,5.451.371h0a3.865,3.865,0,0,1-.371,5.451h0a3.854,3.854,0,0,1-2.538.954h0A3.859,3.859,0,0,1,5016.84,659Zm9.863-8.282a3.864,3.864,0,0,1,.894-5.392h0a3.863,3.863,0,0,1,5.39.892h0a3.865,3.865,0,0,1-.892,5.392h0a3.853,3.853,0,0,1-2.246.723h0A3.861,3.861,0,0,1,5026.7,650.715Z" transform="translate(-5006.604 -644.601)" fill="#fcd008"/>
      </g>
      <g id="Grupo_18280" data-name="Grupo 18280" transform="translate(10.024 194.824)">
        <g id="Grupo_18278" data-name="Grupo 18278" transform="translate(11.834)">
          <path id="Trazado_37367" data-name="Trazado 37367" d="M4785.911,1243.7a2.538,2.538,0,0,0-2.61,2.459l-.186,6.34a2.536,2.536,0,0,0,5.069.144l.192-6.333A2.539,2.539,0,0,0,4785.911,1243.7Zm-3.166,21.473-.158,5.377a2.536,2.536,0,0,0,5.069.149l.158-5.378a2.536,2.536,0,1,0-5.069-.149Z" transform="translate(-4782.585 -1243.696)" fill="#45c2cb"/>
        </g>
        <g id="Grupo_18279" data-name="Grupo 18279" transform="translate(0 11.834)">
          <path id="Trazado_37368" data-name="Trazado 37368" d="M4765.534,1288.465l-5.378-.158a2.539,2.539,0,0,0-.151,5.076l5.378.151a2.536,2.536,0,0,0,.151-5.069Zm-18.052-.529-6.339-.186a2.536,2.536,0,0,0-.148,5.07l6.339.185a2.536,2.536,0,0,0,.148-5.069Z" transform="translate(-4738.533 -1287.749)" fill="#45c2cb"/>
        </g>
      </g>
      <g id="Grupo_18283" data-name="Grupo 18283" transform="translate(257.175 32.466)">
        <g id="Grupo_18281" data-name="Grupo 18281" transform="translate(11.834)">
          <path id="Trazado_37369" data-name="Trazado 37369" d="M5705.917,639.328a2.532,2.532,0,0,0-2.606,2.456l-.189,6.338a2.541,2.541,0,0,0,2.464,2.615h0a2.536,2.536,0,0,0,2.61-2.459l.189-6.335a2.541,2.541,0,0,0-2.464-2.615Zm-3.165,21.473-.158,5.378a2.536,2.536,0,0,0,5.07.149l.157-5.378a2.536,2.536,0,1,0-5.069-.149Z" transform="translate(-5702.592 -639.327)" fill="#45c2cb"/>
        </g>
        <g id="Grupo_18282" data-name="Grupo 18282" transform="translate(0 11.835)">
          <path id="Trazado_37370" data-name="Trazado 37370" d="M5685.54,684.1l-5.378-.158a2.536,2.536,0,1,0-.148,5.069l5.378.158a2.536,2.536,0,0,0,.149-5.069Zm-18.057-.529-6.333-.193a2.539,2.539,0,0,0-.152,5.076l6.341.186a2.536,2.536,0,1,0,.144-5.069Z" transform="translate(-5658.54 -683.381)" fill="#45c2cb"/>
        </g>
      </g>
      <g id="Grupo_18286" data-name="Grupo 18286" transform="translate(279.781 268.465)">
        <g id="Grupo_18284" data-name="Grupo 18284" transform="translate(11.835)">
          <path id="Trazado_37371" data-name="Trazado 37371" d="M5790.07,1517.82a2.542,2.542,0,0,0-2.61,2.459l-.186,6.34a2.536,2.536,0,0,0,5.069.151l.192-6.34A2.54,2.54,0,0,0,5790.07,1517.82Zm-3.166,21.472-.158,5.378a2.536,2.536,0,0,0,5.069.149l.158-5.378a2.536,2.536,0,1,0-5.069-.149Z" transform="translate(-5786.745 -1517.819)" fill="#45c2cb"/>
        </g>
        <g id="Grupo_18285" data-name="Grupo 18285" transform="translate(0 11.841)">
          <path id="Trazado_37372" data-name="Trazado 37372" d="M5769.69,1562.614l-5.378-.158a2.536,2.536,0,1,0-.149,5.069l5.378.158a2.536,2.536,0,1,0,.149-5.069Zm-18.052-.529-6.339-.186a2.536,2.536,0,0,0-.148,5.069l6.34.186a2.536,2.536,0,1,0,.147-5.069Z" transform="translate(-5742.69 -1561.898)" fill="#45c2cb"/>
        </g>
      </g>
      <path id="Trazado_37373" data-name="Trazado 37373" d="M4823.354,664.7l12.388,10.487-15.276,5.484Z" transform="translate(-4788.431 -625.418)" fill="#fb737b"/>
      <path id="Trazado_37374" data-name="Trazado 37374" d="M6012.664,1076.736l7.656,14.311-16.222-.524Z" transform="translate(-5654.092 -926.764)" fill="#fb737b"/>
      <path id="Trazado_37375" data-name="Trazado 37375" d="M6015.852,1015.854l8.228,13.99-16.229.131Z" transform="translate(-5656.837 -882.237)" fill="#fb737b"/>
      <path id="Trazado_37376" data-name="Trazado 37376" d="M6015.973,955.145l8.184,14.016-16.23.079Z" transform="translate(-5656.892 -837.837)" fill="#fb737b"/>
      <path id="Trazado_37377" data-name="Trazado 37377" d="M5475.4,1605.639l-11.681,11.268-3.918-15.75Z" transform="translate(-5256.014 -1310.304)" fill="#fb737b"/>
      <path id="Trazado_37378" data-name="Trazado 37378" d="M5410.044,1621.362l-12.026,10.9-3.427-15.864Z" transform="translate(-5208.324 -1321.45)" fill="#fb737b"/>
    </g>
  </g>
</svg>
