<svg xmlns="http://www.w3.org/2000/svg" xmlns:xlink="http://www.w3.org/1999/xlink" width="91.927" height="91.927" viewBox="0 0 91.927 91.927">
  <defs>
    <radialGradient id="radial-gradient" cx="0.076" cy="0.019" r="1.465" gradientTransform="translate(0.001)" gradientUnits="objectBoundingBox">
      <stop offset="0" stop-color="#f6f6f7"/>
      <stop offset="0.477" stop-color="#f9f9fa"/>
      <stop offset="0.715" stop-color="#fff"/>
    </radialGradient>
  </defs>
  <g id="Grupo_29506" data-name="Grupo 29506" transform="translate(1246 4601)">
    <g id="Grupo_29498" data-name="Grupo 29498" transform="translate(-1321 -4574)">
      <g id="Grupo_18423" data-name="Grupo 18423" transform="translate(75 -27)">
        <g id="Grupo_18421" data-name="Grupo 18421">
          <g id="Grupo_18420" data-name="Grupo 18420">
            <g id="Grupo_18419" data-name="Grupo 18419">
              <path id="Trazado_40936" data-name="Trazado 40936" d="M286.55,2191.684a45.964,45.964,0,1,1-45.963-45.962A45.963,45.963,0,0,1,286.55,2191.684Z" transform="translate(-194.623 -2145.721)" fill="#fff"/>
            </g>
          </g>
        </g>
        <path id="Trazado_40937" data-name="Trazado 40937" d="M286.23,2191.334a45.963,45.963,0,1,0-45.963,45.965A45.782,45.782,0,0,0,286.23,2191.334Z" transform="translate(-194.303 -2145.372)" fill="url(#radial-gradient)"/>
        <path id="Trazado_40938" data-name="Trazado 40938" d="M272.56,2188.562a35.084,35.084,0,1,0-35.084,35.084A34.953,34.953,0,0,0,272.56,2188.562Z" transform="translate(-191.373 -2142.446)" fill="none" stroke="#3487ad" stroke-miterlimit="10" stroke-width="4"/>
        <g id="Grupo_18422" data-name="Grupo 18422" transform="translate(8.143 25.805)">
          <path id="Trazado_40939" data-name="Trazado 40939" d="M279.682,2164.488a45.969,45.969,0,0,1-79.137,45.773,45.823,45.823,0,0,0,79.137-45.773Z" transform="translate(-200.545 -2164.488)" fill="#eceef0"/>
        </g>
      </g>
    </g>
    <g id="Grupo_29500" data-name="Grupo 29500" transform="translate(-1220 -4572.42)">
      <g id="Grupo_26538" data-name="Grupo 26538" transform="translate(0 0)">
        <g id="Grupo_26537" data-name="Grupo 26537">
          <g id="Grupo_26525" data-name="Grupo 26525">
            <g id="Grupo_26524" data-name="Grupo 26524">
              <rect id="Rectángulo_25692" data-name="Rectángulo 25692" width="24.528" height="31.568" transform="translate(0.381 0.381)" fill="#fff"/>
              <path id="Trazado_67369" data-name="Trazado 67369" d="M2150.958,1910.248h-24.528a.381.381,0,0,1-.381-.381V1878.3a.381.381,0,0,1,.381-.381h24.528a.381.381,0,0,1,.381.381v31.568A.381.381,0,0,1,2150.958,1910.248Zm-24.147-.761h23.766v-30.807h-23.766Z" transform="translate(-2126.05 -1877.918)" fill="#325a6a"/>
            </g>
          </g>
          <g id="Grupo_26534" data-name="Grupo 26534" transform="translate(3.695 4.555)">
            <g id="Grupo_26526" data-name="Grupo 26526" transform="translate(10.389)">
              <path id="Trazado_67370" data-name="Trazado 67370" d="M2210.6,1903.825h-6.421a.381.381,0,1,1,0-.761h6.421a.381.381,0,1,1,0,.761Z" transform="translate(-2203.794 -1903.063)" fill="#325a6a"/>
            </g>
            <g id="Grupo_26527" data-name="Grupo 26527" transform="translate(10.389 3.105)">
              <path id="Trazado_67371" data-name="Trazado 67371" d="M2210.6,1920.966h-6.421a.381.381,0,1,1,0-.761h6.421a.381.381,0,1,1,0,.761Z" transform="translate(-2203.794 -1920.204)" fill="#325a6a"/>
            </g>
            <g id="Grupo_26528" data-name="Grupo 26528" transform="translate(10.389 6.21)">
              <path id="Trazado_67372" data-name="Trazado 67372" d="M2210.6,1938.106h-6.421a.381.381,0,0,1,0-.762h6.421a.381.381,0,0,1,0,.762Z" transform="translate(-2203.794 -1937.344)" fill="#325a6a"/>
            </g>
            <g id="Grupo_26529" data-name="Grupo 26529" transform="translate(0 9.281)">
              <path id="Trazado_67373" data-name="Trazado 67373" d="M2163.358,1955.058h-16.53a.381.381,0,1,1,0-.761h16.53a.381.381,0,1,1,0,.761Z" transform="translate(-2146.447 -1954.296)" fill="#325a6a"/>
            </g>
            <g id="Grupo_26530" data-name="Grupo 26530" transform="translate(0.052 12.718)">
              <path id="Trazado_67374" data-name="Trazado 67374" d="M2163.871,1974.033h-16.758a.381.381,0,1,1,0-.761h16.758a.381.381,0,0,1,0,.761Z" transform="translate(-2146.733 -1973.271)" fill="#325a6a"/>
            </g>
            <g id="Grupo_26531" data-name="Grupo 26531" transform="translate(0.052 15.823)">
              <path id="Trazado_67375" data-name="Trazado 67375" d="M2163.871,1991.173h-16.758a.381.381,0,1,1,0-.762h16.758a.381.381,0,0,1,0,.762Z" transform="translate(-2146.733 -1990.411)" fill="#325a6a"/>
            </g>
            <g id="Grupo_26532" data-name="Grupo 26532" transform="translate(0.052 18.929)">
              <path id="Trazado_67376" data-name="Trazado 67376" d="M2163.871,2008.314h-16.758a.381.381,0,1,1,0-.761h16.758a.381.381,0,0,1,0,.761Z" transform="translate(-2146.733 -2007.552)" fill="#325a6a"/>
            </g>
            <g id="Grupo_26533" data-name="Grupo 26533" transform="translate(0.052 22.033)">
              <path id="Trazado_67377" data-name="Trazado 67377" d="M2158.1,2025.454h-10.986a.381.381,0,0,1,0-.762H2158.1a.381.381,0,0,1,0,.762Z" transform="translate(-2146.733 -2024.692)" fill="#325a6a"/>
            </g>
          </g>
          <g id="Grupo_26536" data-name="Grupo 26536" transform="translate(3.508 2.717)">
            <g id="Grupo_26535" data-name="Grupo 26535">
              <path id="Trazado_67378" data-name="Trazado 67378" d="M2150.511,1901.781l-.7,2.335h-2.3l2.993-9.1h2.906l3.036,9.1h-2.383l-.756-2.335Zm2.484-1.539-.61-1.93c-.174-.54-.349-1.215-.494-1.755h-.029c-.146.54-.291,1.228-.45,1.755l-.581,1.93Z" transform="translate(-2147.137 -1894.638)" fill="#5d9af0"/>
              <path id="Trazado_67379" data-name="Trazado 67379" d="M2154.732,1902.776h-2.383a.381.381,0,0,1-.363-.264l-.67-2.071h-2.243l-.616,2.063a.381.381,0,0,1-.365.272h-2.3a.381.381,0,0,1-.362-.5l2.993-9.1a.381.381,0,0,1,.362-.262h2.906a.381.381,0,0,1,.361.26l3.036,9.1a.381.381,0,0,1-.361.5Zm-2.106-.761h1.577l-2.782-8.336h-2.356l-2.742,8.336h1.486l.616-2.063a.381.381,0,0,1,.365-.272h2.8a.381.381,0,0,1,.362.264Zm-1.352-3.112h-2.165a.381.381,0,0,1-.365-.491l.581-1.93c.093-.305.182-.675.269-1.032.06-.248.119-.492.179-.712a.38.38,0,0,1,.368-.282h.029a.38.38,0,0,1,.368.282l.072.267c.128.48.274,1.024.417,1.469l.611,1.932a.381.381,0,0,1-.363.5Zm-1.652-.762h1.132l-.453-1.434c-.043-.134-.086-.276-.129-.422-.038.145-.077.286-.117.417Z" transform="translate(-2145.416 -1892.917)" fill="#325a6a"/>
            </g>
          </g>
        </g>
      </g>
      <g id="Grupo_26552" data-name="Grupo 26552" transform="translate(8.604 15.729)">
        <g id="Grupo_26546" data-name="Grupo 26546" transform="translate(13.939 11.631)">
          <path id="Trazado_67380" data-name="Trazado 67380" d="M2286.316,2048.864a7.514,7.514,0,0,0,5.165,3.055l3.693-6.227a24.244,24.244,0,0,0-5.043-3.792,4.45,4.45,0,0,0-1.339-.482,20.853,20.853,0,0,0-7.94.113Z" transform="translate(-2275.352 -2038.892)" fill="#fff"/>
          <g id="Grupo_26539" data-name="Grupo 26539" transform="translate(2.423 4.623)">
            <path id="Trazado_67381" data-name="Trazado 67381" d="M2274.851,2062.718l-.355.891a1.2,1.2,0,0,1-1.553.672,1.18,1.18,0,0,1-.674-1.537l.691-1.738-.069-.042-.465,1.167a1.2,1.2,0,0,1-1.553.673,1.181,1.181,0,0,1-.674-1.539l.524-1.319-.062-.059-.305.766a1.2,1.2,0,0,1-1.553.673,1.181,1.181,0,0,1-.675-1.538l.409-1.028-.057-.075-.194.491a1.2,1.2,0,0,1-1.554.673,1.181,1.181,0,0,1-.674-1.538l.691-1.737Z" transform="translate(-2265.592 -2056.192)" fill="#fff"/>
            <path id="Trazado_67382" data-name="Trazado 67382" d="M2271.654,2063.022a1.578,1.578,0,0,1-.572-.108,1.567,1.567,0,0,1-1-1.45,1.582,1.582,0,0,1-1.069-.027,1.564,1.564,0,0,1-1-1.45,1.582,1.582,0,0,1-1.069-.028,1.566,1.566,0,0,1-1-1.45,1.581,1.581,0,0,1-1.069-.027,1.561,1.561,0,0,1-.89-2.034l.691-1.737a.381.381,0,0,1,.708.282l-.691,1.737a.793.793,0,0,0,.01.613.8.8,0,0,0,.449.43.824.824,0,0,0,1.062-.459l.195-.49a.381.381,0,0,1,.657-.09l.057.075a.381.381,0,0,1,.051.371l-.408,1.028a.79.79,0,0,0,.009.613.8.8,0,0,0,.449.43.822.822,0,0,0,1.061-.459l.306-.767a.381.381,0,0,1,.617-.134l.062.059a.381.381,0,0,1,.09.416l-.524,1.319a.792.792,0,0,0,.009.613.8.8,0,0,0,.449.43.824.824,0,0,0,1.062-.459l.464-1.167a.381.381,0,0,1,.552-.184l.069.042a.381.381,0,0,1,.155.466l-.691,1.738a.789.789,0,0,0,.009.612.8.8,0,0,0,.449.43.824.824,0,0,0,1.062-.458l.354-.891a.381.381,0,1,1,.708.282l-.355.891A1.586,1.586,0,0,1,2271.654,2063.022Z" transform="translate(-2263.869 -2054.47)" fill="#325a6a"/>
          </g>
          <g id="Grupo_26540" data-name="Grupo 26540" transform="translate(1.562 1.069)">
            <path id="Trazado_67383" data-name="Trazado 67383" d="M2264.175,2041.211l-2.384-1.7a1.354,1.354,0,0,1-.309-1.9l.067-.093a1.385,1.385,0,0,1,1.921-.312l5.573,3.978Z" transform="translate(-2260.841 -2036.566)" fill="#fff"/>
            <path id="Trazado_67384" data-name="Trazado 67384" d="M2262.452,2039.876a.379.379,0,0,1-.221-.071l-2.384-1.7a1.734,1.734,0,0,1-.4-2.436l.065-.091a1.769,1.769,0,0,1,2.451-.4l5.573,3.978a.381.381,0,1,1-.442.62l-5.573-3.978a1,1,0,0,0-1.391.226l-.065.091a.973.973,0,0,0,.221,1.37l2.384,1.7a.381.381,0,0,1-.221.691Z" transform="translate(-2259.118 -2034.85)" fill="#325a6a"/>
          </g>
          <g id="Grupo_26541" data-name="Grupo 26541" transform="translate(4.481 4.039)">
            <path id="Trazado_67385" data-name="Trazado 67385" d="M2283.447,2058.977l-5.247-2.679a1.55,1.55,0,0,1-.7-2.09,1.582,1.582,0,0,1,2.11-.7l7.307,3.126Z" transform="translate(-2276.951 -2052.964)" fill="#fff"/>
            <path id="Trazado_67386" data-name="Trazado 67386" d="M2281.722,2057.64a.382.382,0,0,1-.173-.042l-5.248-2.679a1.93,1.93,0,0,1-.867-2.6,1.966,1.966,0,0,1,2.619-.87l7.287,3.117a.381.381,0,1,1-.3.7l-7.307-3.126a1.208,1.208,0,0,0-1.62.522,1.169,1.169,0,0,0,.529,1.577l5.252,2.681a.381.381,0,0,1-.174.72Z" transform="translate(-2275.227 -2051.246)" fill="#325a6a"/>
          </g>
          <g id="Grupo_26542" data-name="Grupo 26542" transform="translate(5.119 1.816)">
            <path id="Trazado_67387" data-name="Trazado 67387" d="M2293.452,2044.34a.379.379,0,0,1-.267-.109,23.835,23.835,0,0,0-4.962-3.731,4.063,4.063,0,0,0-1.224-.44,20.612,20.612,0,0,0-7.779.108.381.381,0,0,1-.182-.74,21.035,21.035,0,0,1,8.1-.117,4.831,4.831,0,0,1,1.454.523,24.61,24.61,0,0,1,5.125,3.854.381.381,0,0,1-.267.653Z" transform="translate(-2278.749 -2038.975)" fill="#325a6a"/>
          </g>
          <g id="Grupo_26543" data-name="Grupo 26543" transform="translate(10.583 9.592)">
            <path id="Trazado_67388" data-name="Trazado 67388" d="M2314.458,2085.714h-.031a7.832,7.832,0,0,1-5.45-3.221.381.381,0,1,1,.632-.426,7.186,7.186,0,0,0,4.879,2.888.381.381,0,0,1-.03.76Z" transform="translate(-2308.912 -2081.898)" fill="#325a6a"/>
          </g>
          <g id="Grupo_26544" data-name="Grupo 26544" transform="translate(0 1.488)">
            <path id="Trazado_67389" data-name="Trazado 67389" d="M2252.188,2038.864a.379.379,0,0,1-.221-.071l-1.315-.938a.381.381,0,0,1,.442-.62l1.315.938a.381.381,0,0,1-.222.691Z" transform="translate(-2250.493 -2037.164)" fill="#325a6a"/>
          </g>
          <g id="Grupo_26545" data-name="Grupo 26545" transform="translate(1.083)">
            <path id="Trazado_67390" data-name="Trazado 67390" d="M2258.165,2030.65a.38.38,0,0,1-.221-.071l-1.315-.938a.381.381,0,1,1,.442-.62l1.315.938a.381.381,0,0,1-.221.691Z" transform="translate(-2256.469 -2028.95)" fill="#325a6a"/>
          </g>
        </g>
        <g id="Grupo_26547" data-name="Grupo 26547">
          <path id="Trazado_67391" data-name="Trazado 67391" d="M2189.326,1969.151a7.889,7.889,0,0,1,0,11.229,8.065,8.065,0,0,1-11.332,0,7.89,7.89,0,0,1,0-11.229A8.065,8.065,0,0,1,2189.326,1969.151Z" transform="translate(-2175.267 -1966.448)" fill="#fff"/>
          <path id="Trazado_67392" data-name="Trazado 67392" d="M2181.938,1981.379a8.4,8.4,0,0,1-5.934-2.431,8.27,8.27,0,0,1,0-11.771,8.456,8.456,0,0,1,11.868,0,8.271,8.271,0,0,1,0,11.771A8.408,8.408,0,0,1,2181.938,1981.379Zm0-15.873a7.644,7.644,0,0,0-5.4,2.212,7.508,7.508,0,0,0,0,10.688,7.692,7.692,0,0,0,10.8,0,7.509,7.509,0,0,0,0-10.688A7.648,7.648,0,0,0,2181.938,1965.506Z" transform="translate(-2173.545 -1964.745)" fill="#325a6a"/>
        </g>
        <g id="Grupo_26548" data-name="Grupo 26548" transform="translate(1.995 1.976)">
          <path id="Trazado_67393" data-name="Trazado 67393" d="M2196.933,1979.484a5.926,5.926,0,0,1,0,8.434,6.057,6.057,0,0,1-8.51,0,5.925,5.925,0,0,1,0-8.434A6.056,6.056,0,0,1,2196.933,1979.484Z" transform="translate(-2186.279 -1977.359)" fill="#ffce3b"/>
          <path id="Trazado_67394" data-name="Trazado 67394" d="M2190.956,1988.334a6.4,6.4,0,0,1-4.523-1.854,6.306,6.306,0,0,1,0-8.975,6.445,6.445,0,0,1,9.046,0,6.306,6.306,0,0,1,0,8.975A6.409,6.409,0,0,1,2190.956,1988.334Zm0-11.922a5.646,5.646,0,0,0-3.987,1.634,5.545,5.545,0,0,0,0,7.893,5.681,5.681,0,0,0,7.974,0,5.544,5.544,0,0,0,0-7.893A5.647,5.647,0,0,0,2190.956,1976.413Z" transform="translate(-2184.558 -1975.652)" fill="#325a6a"/>
        </g>
        <g id="Grupo_26549" data-name="Grupo 26549" transform="translate(1.959 7.843)">
          <path id="Trazado_67395" data-name="Trazado 67395" d="M2193.374,2008.8h-8.633a.381.381,0,0,1,0-.762h8.633a.381.381,0,0,1,0,.762Z" transform="translate(-2184.361 -2008.041)" fill="#325a6a"/>
        </g>
        <g id="Grupo_26550" data-name="Grupo 26550" transform="translate(2.856 5.04)">
          <path id="Trazado_67396" data-name="Trazado 67396" d="M2196.054,1993.328h-6.36a.381.381,0,0,1,0-.762h6.36a.381.381,0,0,1,0,.762Z" transform="translate(-2189.313 -1992.566)" fill="#325a6a"/>
        </g>
        <g id="Grupo_26551" data-name="Grupo 26551" transform="translate(2.718 10.647)">
          <path id="Trazado_67397" data-name="Trazado 67397" d="M2196.46,2024.279h-7.53a.381.381,0,1,1,0-.761h7.53a.381.381,0,1,1,0,.761Z" transform="translate(-2188.55 -2023.517)" fill="#325a6a"/>
        </g>
      </g>
    </g>
  </g>
</svg>
