<svg xmlns="http://www.w3.org/2000/svg" xmlns:xlink="http://www.w3.org/1999/xlink" width="251.419" height="242.313" viewBox="0 0 251.419 242.313">
  <defs>
    <radialGradient id="radial-gradient" cx="0.353" cy="0.228" r="0.857" gradientTransform="translate(0.045) scale(0.91 1)" gradientUnits="objectBoundingBox">
      <stop offset="0" stop-color="#828282"/>
      <stop offset="0.301" stop-color="#838384" stop-opacity="0.98"/>
      <stop offset="0.469" stop-color="#8a8a8a" stop-opacity="0.918"/>
      <stop offset="0.604" stop-color="#959696" stop-opacity="0.812"/>
      <stop offset="0.721" stop-color="#a5a6a7" stop-opacity="0.663"/>
      <stop offset="0.828" stop-color="#babbbc" stop-opacity="0.467"/>
      <stop offset="0.924" stop-color="#d3d5d6" stop-opacity="0.231"/>
      <stop offset="1" stop-color="#eceef0" stop-opacity="0"/>
    </radialGradient>
    <linearGradient id="linear-gradient" y1="0.5" x2="1" y2="0.5" gradientUnits="objectBoundingBox">
      <stop offset="0" stop-color="#325a6a"/>
      <stop offset="0.293" stop-color="#536e68"/>
      <stop offset="0.937" stop-color="#a9a264"/>
      <stop offset="1" stop-color="#b2a864"/>
    </linearGradient>
    <radialGradient id="radial-gradient-2" cx="0.076" cy="0.019" r="1.465" gradientTransform="translate(0.001)" gradientUnits="objectBoundingBox">
      <stop offset="0" stop-color="#f6f6f7"/>
      <stop offset="0.477" stop-color="#f9f9fa"/>
      <stop offset="0.715" stop-color="#fff"/>
    </radialGradient>
  </defs>
  <g id="Grupo_29505" data-name="Grupo 29505" transform="translate(1879.004 5270.565)">
    <path id="Trazado_69224" data-name="Trazado 69224" d="M688.342,1409.688l60.092,60.093c2.6.215,2.8.442,5.43.016,43.983-7.123,91.391-42.849,96.169-98.885.128-1.495-.252.441-.324-1.043l-46.963-46.963Z" transform="translate(-2481.313 -6517.336)" fill="url(#radial-gradient)"/>
    <path id="Trazado_69225" data-name="Trazado 69225" d="M853.728,1359.9A113.253,113.253,0,0,0,740.6,1246.771a112.081,112.081,0,0,0-68.778,23.3l3.652,4.762a106.125,106.125,0,0,1,65.126-22.063,107.125,107.125,0,0,1,0,214.25c-29.563,0-58.9-13.172-79.092-34.785H611.3v-17.862c34.955-32.157,60.2-55.406,60.2-76,0-13.782-7.721-22.01-20.652-22.01-9.95,0-17.655,6.595-23.529,12.344l-16.625-16.624c14.361-14.567,26.969-20.045,45.585-20.045,27.715,0,46.336,17.711,46.336,44.072,0,22.138-21.555,47.033-40.334,66.248l-6,6.137,8.515-1.063a227.743,227.743,0,0,1,23.617-1.786H709.4v29.588h6v-35.588H688.414c-4.367,0-10.45.409-16.114.94,17.976-19.09,36.314-42.518,36.314-64.476,0-14.737-5.1-27.329-14.749-36.413-9.49-8.936-22.488-13.659-37.587-13.659-21.1,0-35.669,6.736-51.971,24.025l-2,2.12,25,25,2.121-2.122c6.948-6.948,13.356-12.7,21.415-12.7,9.585,0,14.652,5.536,14.652,16.01,0,17.986-25.769,41.692-58.393,71.706l-1.8,1.66v26.495h53.707a113.507,113.507,0,0,0,46.327,29.1l36.7,21.748,36.821-22.419s-.693.149-1.965.387A113.326,113.326,0,0,0,853.728,1359.9Z" transform="translate(-2481.313 -6517.336)" fill="url(#linear-gradient)"/>
    <g id="Grupo_29500" data-name="Grupo 29500" transform="translate(-2481.313 -6517.336)">
      <g id="Grupo_16261" data-name="Grupo 16261">
        <g id="Grupo_16259" data-name="Grupo 16259">
          <g id="Grupo_16258" data-name="Grupo 16258">
            <g id="Grupo_16257" data-name="Grupo 16257">
              <path id="Trazado_38222" data-name="Trazado 38222" d="M812.865,1359.793a72.258,72.258,0,1,1-72.257-72.259A72.256,72.256,0,0,1,812.865,1359.793Z" fill="#fff"/>
            </g>
          </g>
        </g>
        <path id="Trazado_38223" data-name="Trazado 38223" d="M812.865,1359.793a72.257,72.257,0,1,0-72.257,72.259A71.977,71.977,0,0,0,812.865,1359.793Z" fill="url(#radial-gradient-2)"/>
        <g id="Grupo_16260" data-name="Grupo 16260">
          <path id="Trazado_38224" data-name="Trazado 38224" d="M805.559,1328.1a72.267,72.267,0,0,1-124.409,71.959A72.037,72.037,0,0,0,805.559,1328.1Z" fill="#eceef0"/>
        </g>
      </g>
    </g>
    <g id="Grupo_29501" data-name="Grupo 29501" transform="translate(-1775.733 -5186)">
      <path id="Trazado_67329" data-name="Trazado 67329" d="M273.438,210.616h-4.057a.864.864,0,0,1-.865-.865v-19.54a.865.865,0,0,1,1.73,0v18.674h2.326V193.44a.865.865,0,0,1,1.73,0v16.311A.865.865,0,0,1,273.438,210.616Z" transform="translate(-261.651 -152.22)" fill="#b2a864"/>
      <path id="Trazado_67330" data-name="Trazado 67330" d="M268.289,197.864a2.566,2.566,0,0,1-2.563-2.562v-8.487a5.508,5.508,0,0,1,5.5-5.5.865.865,0,0,1,0,1.73,3.776,3.776,0,0,0-3.771,3.771V195.3a.832.832,0,0,0,1.664,0v-6.583a.865.865,0,0,1,1.73,0V195.3A2.565,2.565,0,0,1,268.289,197.864Z" transform="translate(-262.254 -153.956)" fill="#b2a864"/>
      <path id="Trazado_67331" data-name="Trazado 67331" d="M277.972,197.864a2.565,2.565,0,0,1-2.562-2.562v-6.583a.865.865,0,0,1,1.73,0V195.3a.832.832,0,0,0,1.664,0v-8.487a3.776,3.776,0,0,0-3.771-3.771.865.865,0,1,1,0-1.73,5.507,5.507,0,0,1,5.5,5.5V195.3A2.565,2.565,0,0,1,277.972,197.864Z" transform="translate(-260.43 -153.956)" fill="#b2a864"/>
      <path id="Trazado_67332" data-name="Trazado 67332" d="M276.774,210.616h-4.057a.864.864,0,0,1-.865-.865V193.44a.865.865,0,0,1,1.73,0v15.445h2.326V190.212a.865.865,0,0,1,1.73,0v19.54A.865.865,0,0,1,276.774,210.616Z" transform="translate(-260.93 -152.22)" fill="#b2a864"/>
      <path id="Trazado_67333" data-name="Trazado 67333" d="M273.314,182.462a4.219,4.219,0,1,1,4.219-4.217A4.223,4.223,0,0,1,273.314,182.462Zm0-6.707a2.488,2.488,0,1,0,2.488,2.489A2.49,2.49,0,0,0,273.314,175.755Z" transform="translate(-261.526 -155.531)" fill="#b2a864"/>
      <path id="Trazado_67334" data-name="Trazado 67334" d="M285.144,207.144h-21.1a.865.865,0,1,1,0-1.73h21.1a.865.865,0,0,1,0,1.73Z" transform="translate(-262.805 -148.749)" fill="#b2a864"/>
      <path id="Trazado_67335" data-name="Trazado 67335" d="M320.228,210.347H263.736a.865.865,0,0,1,0-1.73h56.492a.865.865,0,1,1,0,1.73Z" transform="translate(-262.871 -148.057)" fill="#b2a864"/>
      <path id="Trazado_67336" data-name="Trazado 67336" d="M311.66,210.616H307.6a.864.864,0,0,1-.865-.865v-19.54a.865.865,0,0,1,1.73,0v18.674h2.326V193.44a.865.865,0,0,1,1.73,0v16.311A.864.864,0,0,1,311.66,210.616Z" transform="translate(-253.393 -152.22)" fill="#b2a864"/>
      <path id="Trazado_67337" data-name="Trazado 67337" d="M306.508,197.864a2.565,2.565,0,0,1-2.562-2.562v-8.487a5.507,5.507,0,0,1,5.5-5.5.865.865,0,0,1,0,1.73,3.776,3.776,0,0,0-3.771,3.771V195.3a.832.832,0,0,0,1.664,0v-6.583a.865.865,0,0,1,1.73,0V195.3A2.565,2.565,0,0,1,306.508,197.864Z" transform="translate(-253.996 -153.956)" fill="#b2a864"/>
      <path id="Trazado_67338" data-name="Trazado 67338" d="M316.192,197.864a2.565,2.565,0,0,1-2.562-2.562v-6.583a.865.865,0,0,1,1.73,0V195.3a.832.832,0,0,0,1.664,0v-8.487a3.776,3.776,0,0,0-3.771-3.771.865.865,0,0,1,0-1.73,5.508,5.508,0,0,1,5.5,5.5V195.3A2.566,2.566,0,0,1,316.192,197.864Z" transform="translate(-252.172 -153.956)" fill="#b2a864"/>
      <path id="Trazado_67339" data-name="Trazado 67339" d="M315,210.616h-4.057a.865.865,0,0,1-.866-.865V193.44a.865.865,0,0,1,1.73,0v15.445h2.326V190.212a.865.865,0,0,1,1.73,0v19.54A.864.864,0,0,1,315,210.616Z" transform="translate(-252.672 -152.22)" fill="#b2a864"/>
      <path id="Trazado_67340" data-name="Trazado 67340" d="M311.535,182.462a4.219,4.219,0,1,1,4.219-4.217A4.223,4.223,0,0,1,311.535,182.462Zm0-6.707a2.488,2.488,0,1,0,2.487,2.489A2.491,2.491,0,0,0,311.535,175.755Z" transform="translate(-253.268 -155.531)" fill="#b2a864"/>
      <path id="Trazado_67341" data-name="Trazado 67341" d="M323.364,207.144h-21.1a.865.865,0,0,1,0-1.73h21.1a.865.865,0,1,1,0,1.73Z" transform="translate(-254.547 -148.749)" fill="#b2a864"/>
      <path id="Trazado_67342" data-name="Trazado 67342" d="M322.934,210.347H305.976a.865.865,0,1,1,0-1.73h16.958a.865.865,0,0,1,0,1.73Z" transform="translate(-253.745 -148.057)" fill="#b2a864"/>
      <path id="Trazado_67343" data-name="Trazado 67343" d="M296.654,187.289h-7.962A1.289,1.289,0,0,1,287.406,186v-1.645a8.53,8.53,0,0,0-.315-2.539.866.866,0,0,1,1.655-.511,10.229,10.229,0,0,1,.392,3.05v1.2h7.071v-1.2a10.014,10.014,0,0,1,.424-3.146.866.866,0,1,1,1.647.535,8.346,8.346,0,0,0-.339,2.611V186A1.289,1.289,0,0,1,296.654,187.289Z" transform="translate(-257.646 -154.107)" fill="#b2a864"/>
      <path id="Trazado_67344" data-name="Trazado 67344" d="M296.765,191.358h-8.019a2.084,2.084,0,0,1,0-4.167h8.019a2.084,2.084,0,0,1,0,4.167Zm-8.019-2.436a.352.352,0,0,0,0,.7h8.019a.352.352,0,0,0,0-.7Z" transform="translate(-257.73 -152.686)" fill="#b2a864"/>
      <path id="Trazado_67345" data-name="Trazado 67345" d="M291.829,164.052a.865.865,0,0,1-.866-.866v-3.5a.865.865,0,0,1,1.73,0v3.5A.864.864,0,0,1,291.829,164.052Z" transform="translate(-256.801 -158.817)" fill="#b2a864"/>
      <path id="Trazado_67346" data-name="Trazado 67346" d="M296.939,165.339a.865.865,0,0,1-.748-1.3L297.943,161a.866.866,0,1,1,1.5.866l-1.752,3.035A.866.866,0,0,1,296.939,165.339Z" transform="translate(-255.697 -158.438)" fill="#b2a864"/>
      <path id="Trazado_67347" data-name="Trazado 67347" d="M300.683,168.853a.866.866,0,0,1-.434-1.615l3.037-1.754a.866.866,0,0,1,.866,1.5l-3.037,1.754A.871.871,0,0,1,300.683,168.853Z" transform="translate(-254.888 -157.401)" fill="#b2a864"/>
      <path id="Trazado_67348" data-name="Trazado 67348" d="M305.558,173.653h-3.506a.865.865,0,1,1,0-1.73h3.506a.865.865,0,0,1,0,1.73Z" transform="translate(-254.592 -155.985)" fill="#b2a864"/>
      <path id="Trazado_67349" data-name="Trazado 67349" d="M303.717,180.518a.858.858,0,0,1-.432-.116l-3.037-1.754a.865.865,0,0,1,.866-1.5l3.037,1.752a.866.866,0,0,1-.434,1.615Z" transform="translate(-254.888 -154.881)" fill="#b2a864"/>
      <path id="Trazado_67350" data-name="Trazado 67350" d="M280.479,180.518a.865.865,0,0,1-.434-1.615l3.037-1.752a.865.865,0,1,1,.866,1.5l-3.037,1.754A.858.858,0,0,1,280.479,180.518Z" transform="translate(-259.254 -154.881)" fill="#b2a864"/>
      <path id="Trazado_67351" data-name="Trazado 67351" d="M282.228,173.653h-3.506a.865.865,0,0,1,0-1.73h3.506a.865.865,0,1,1,0,1.73Z" transform="translate(-259.633 -155.985)" fill="#b2a864"/>
      <path id="Trazado_67352" data-name="Trazado 67352" d="M283.513,168.853a.868.868,0,0,1-.432-.116l-3.037-1.754a.866.866,0,1,1,.866-1.5l3.037,1.754a.866.866,0,0,1-.434,1.615Z" transform="translate(-259.254 -157.401)" fill="#b2a864"/>
      <path id="Trazado_67353" data-name="Trazado 67353" d="M287.028,165.339a.864.864,0,0,1-.75-.433l-1.752-3.035a.866.866,0,1,1,1.5-.866l1.752,3.035a.865.865,0,0,1-.749,1.3Z" transform="translate(-258.217 -158.438)" fill="#b2a864"/>
      <path id="Trazado_67354" data-name="Trazado 67354" d="M292.339,177.044a3.744,3.744,0,1,1,3.745-3.744A3.749,3.749,0,0,1,292.339,177.044Zm0-5.757a2.013,2.013,0,1,0,2.014,2.013A2.015,2.015,0,0,0,292.339,171.287Z" transform="translate(-257.313 -156.497)" fill="#b2a864"/>
      <path id="Trazado_67355" data-name="Trazado 67355" d="M295.23,184.638h-3.49a.864.864,0,0,1-.865-.866v-1.121a8.435,8.435,0,0,1-1.345-.558l-.794.793a.866.866,0,0,1-1.225,0l-2.467-2.466a.866.866,0,0,1,0-1.225l.794-.794a8.6,8.6,0,0,1-.559-1.345h-1.121a.864.864,0,0,1-.865-.866V172.7a.865.865,0,0,1,.865-.866h1.121a8.6,8.6,0,0,1,.559-1.345l-.794-.794a.865.865,0,0,1,0-1.223L287.512,166a.866.866,0,0,1,1.225,0l.794.794a8.552,8.552,0,0,1,1.345-.559v-1.121a.865.865,0,0,1,.865-.866h3.49a.865.865,0,0,1,.866.866v1.121a8.551,8.551,0,0,1,1.345.559l.794-.794a.866.866,0,0,1,1.225,0l2.467,2.467a.865.865,0,0,1,0,1.223l-.794.794a8.6,8.6,0,0,1,.559,1.345h1.121a.865.865,0,0,1,.865.866v3.49a.864.864,0,0,1-.865.866h-1.121a8.6,8.6,0,0,1-.559,1.345l.794.794a.866.866,0,0,1,0,1.225l-2.467,2.466a.866.866,0,0,1-1.225,0l-.794-.793a8.481,8.481,0,0,1-1.345.558v1.121A.865.865,0,0,1,295.23,184.638Zm-2.624-1.73h1.76v-.916a.866.866,0,0,1,.671-.844,6.811,6.811,0,0,0,2.09-.867.865.865,0,0,1,1.071.122l.648.648,1.244-1.244-.648-.648a.865.865,0,0,1-.122-1.071,6.836,6.836,0,0,0,.867-2.092.866.866,0,0,1,.844-.67h.916v-1.76h-.916a.867.867,0,0,1-.844-.671,6.835,6.835,0,0,0-.867-2.092.863.863,0,0,1,.122-1.07l.648-.649-1.244-1.243-.648.648a.865.865,0,0,1-1.071.122,6.844,6.844,0,0,0-2.092-.868.865.865,0,0,1-.67-.844v-.914h-1.76v.914a.867.867,0,0,1-.67.844,6.831,6.831,0,0,0-2.092.868.865.865,0,0,1-1.071-.122l-.649-.648-1.243,1.243.648.649a.863.863,0,0,1,.122,1.07,6.839,6.839,0,0,0-.868,2.092.865.865,0,0,1-.843.671h-.916v1.76h.916a.864.864,0,0,1,.843.67,6.839,6.839,0,0,0,.868,2.092.865.865,0,0,1-.122,1.071l-.648.648,1.243,1.244.649-.648a.865.865,0,0,1,1.071-.122,6.811,6.811,0,0,0,2.09.867.866.866,0,0,1,.671.844Z" transform="translate(-258.459 -157.642)" fill="#b2a864"/>
      <path id="Trazado_67356" data-name="Trazado 67356" d="M294.363,184.024h-4.3a.865.865,0,1,1,0-1.73h4.3a.865.865,0,1,1,0,1.73Z" transform="translate(-257.184 -153.744)" fill="#b2a864"/>
    </g>
  </g>
</svg>
