<svg xmlns="http://www.w3.org/2000/svg" xmlns:xlink="http://www.w3.org/1999/xlink" width="91.927" height="91.927" viewBox="0 0 91.927 91.927">
  <defs>
    <radialGradient id="radial-gradient" cx="0.076" cy="0.019" r="1.465" gradientTransform="translate(0.001)" gradientUnits="objectBoundingBox">
      <stop offset="0" stop-color="#f6f6f7"/>
      <stop offset="0.477" stop-color="#f9f9fa"/>
      <stop offset="0.715" stop-color="#fff"/>
    </radialGradient>
  </defs>
  <g id="Grupo_29508" data-name="Grupo 29508" transform="translate(1246 4362)">
    <g id="Grupo_29501" data-name="Grupo 29501" transform="translate(-1321 -4335)">
      <g id="Grupo_18423" data-name="Grupo 18423" transform="translate(75 -27)">
        <g id="Grupo_18421" data-name="Grupo 18421">
          <g id="Grupo_18420" data-name="Grupo 18420">
            <g id="Grupo_18419" data-name="Grupo 18419">
              <path id="Trazado_40936" data-name="Trazado 40936" d="M286.55,2191.684a45.964,45.964,0,1,1-45.963-45.962A45.963,45.963,0,0,1,286.55,2191.684Z" transform="translate(-194.623 -2145.721)" fill="#fff"/>
            </g>
          </g>
        </g>
        <path id="Trazado_40937" data-name="Trazado 40937" d="M286.23,2191.334a45.963,45.963,0,1,0-45.963,45.965A45.782,45.782,0,0,0,286.23,2191.334Z" transform="translate(-194.303 -2145.372)" fill="url(#radial-gradient)"/>
        <path id="Trazado_40938" data-name="Trazado 40938" d="M272.56,2188.562a35.084,35.084,0,1,0-35.084,35.084A34.953,34.953,0,0,0,272.56,2188.562Z" transform="translate(-191.373 -2142.446)" fill="none" stroke="#3487ad" stroke-miterlimit="10" stroke-width="4"/>
        <g id="Grupo_18422" data-name="Grupo 18422" transform="translate(8.143 25.805)">
          <path id="Trazado_40939" data-name="Trazado 40939" d="M279.682,2164.488a45.969,45.969,0,0,1-79.137,45.773,45.823,45.823,0,0,0,79.137-45.773Z" transform="translate(-200.545 -2164.488)" fill="#eceef0"/>
        </g>
      </g>
    </g>
    <g id="Grupo_29503" data-name="Grupo 29503" transform="translate(-1216 -4332.51)">
      <g id="Grupo_26570" data-name="Grupo 26570" transform="translate(0 0)">
        <g id="Grupo_26568" data-name="Grupo 26568">
          <g id="Grupo_26567" data-name="Grupo 26567">
            <g id="Grupo_26566" data-name="Grupo 26566">
              <g id="Grupo_26564" data-name="Grupo 26564">
                <path id="Trazado_67407" data-name="Trazado 67407" d="M2763.88,1884.911a1.1,1.1,0,0,1-.68-.219,35.44,35.44,0,0,1-3.357-3.1,41.788,41.788,0,0,1-4.632-5.753,36.456,36.456,0,0,1-4.112-8.175,32.362,32.362,0,0,1-1.3-4.922,31.321,31.321,0,0,1-.5-5.439.581.581,0,0,1,.2-.428,1.025,1.025,0,0,1,.521-.238,45.288,45.288,0,0,0,6.02-1.518,25.711,25.711,0,0,0,7.39-3.527.78.78,0,0,1,.879,0,25.724,25.724,0,0,0,7.39,3.527,45.272,45.272,0,0,0,6.02,1.518,1.023,1.023,0,0,1,.52.238.58.58,0,0,1,.2.428,31.32,31.32,0,0,1-.5,5.439,32.39,32.39,0,0,1-1.3,4.922,36.467,36.467,0,0,1-4.112,8.175,41.753,41.753,0,0,1-4.632,5.753,35.478,35.478,0,0,1-3.356,3.1A1.1,1.1,0,0,1,2763.88,1884.911Z" transform="translate(-2748.924 -1851.086)" fill="#ffce3b"/>
                <path id="Trazado_67408" data-name="Trazado 67408" d="M2762.157,1883.6a1.489,1.489,0,0,1-.917-.3,35.885,35.885,0,0,1-3.394-3.131,42.1,42.1,0,0,1-4.674-5.805,36.826,36.826,0,0,1-4.155-8.26,32.8,32.8,0,0,1-1.315-4.98,31.769,31.769,0,0,1-.5-5.506.955.955,0,0,1,.329-.71,1.407,1.407,0,0,1,.715-.332,44.9,44.9,0,0,0,5.964-1.5,25.369,25.369,0,0,0,7.279-3.47,1.191,1.191,0,0,1,1.336,0,25.369,25.369,0,0,0,7.279,3.47,44.891,44.891,0,0,0,5.964,1.5,1.405,1.405,0,0,1,.715.332.955.955,0,0,1,.329.71,31.7,31.7,0,0,1-.5,5.506,32.759,32.759,0,0,1-1.315,4.98,36.845,36.845,0,0,1-4.155,8.26,42.144,42.144,0,0,1-4.674,5.805,35.937,35.937,0,0,1-3.394,3.131A1.491,1.491,0,0,1,2762.157,1883.6Zm0-33.451a.358.358,0,0,0-.211.06,26.091,26.091,0,0,1-7.5,3.585,45.7,45.7,0,0,1-6.075,1.532.655.655,0,0,0-.326.144.214.214,0,0,0-.081.145,30.962,30.962,0,0,0,.49,5.373,31.958,31.958,0,0,0,1.284,4.864,36.088,36.088,0,0,0,4.069,8.089,41.356,41.356,0,0,0,4.59,5.7,35.1,35.1,0,0,0,3.32,3.063.83.83,0,0,0,.884,0,35.074,35.074,0,0,0,3.32-3.063,41.363,41.363,0,0,0,4.59-5.7,36.093,36.093,0,0,0,4.069-8.089,32.015,32.015,0,0,0,1.284-4.864,30.91,30.91,0,0,0,.49-5.373.212.212,0,0,0-.081-.145.653.653,0,0,0-.326-.144,45.69,45.69,0,0,1-6.076-1.532,26.1,26.1,0,0,1-7.5-3.584A.356.356,0,0,0,2762.157,1850.15Z" transform="translate(-2747.202 -1849.396)" fill="#325a6a"/>
              </g>
              <g id="Grupo_26565" data-name="Grupo 26565" transform="translate(2.242 2.515)">
                <path id="Trazado_67409" data-name="Trazado 67409" d="M2774.013,1893.785c-.62-.532-1.47-1.309-2.444-2.322a39.488,39.488,0,0,1-4.386-5.448,34.234,34.234,0,0,1-3.865-7.678,30.178,30.178,0,0,1-1.21-4.585,29.119,29.119,0,0,1-.427-3.753,50.615,50.615,0,0,0,5.186-1.379,30.27,30.27,0,0,0,7.147-3.241,30.28,30.28,0,0,0,7.147,3.241,50.582,50.582,0,0,0,5.186,1.379,29.128,29.128,0,0,1-.427,3.753,30.078,30.078,0,0,1-1.211,4.585,34.231,34.231,0,0,1-3.864,7.678,39.478,39.478,0,0,1-4.386,5.447C2775.482,1892.477,2774.632,1893.253,2774.013,1893.785Z" transform="translate(-2761.299 -1864.999)" fill="#fff"/>
                <path id="Trazado_67410" data-name="Trazado 67410" d="M2772.291,1892.445a.379.379,0,0,1-.248-.092c-.817-.7-1.648-1.492-2.471-2.347a39.93,39.93,0,0,1-4.429-5.5,34.632,34.632,0,0,1-3.907-7.763,30.6,30.6,0,0,1-1.226-4.643,29.581,29.581,0,0,1-.432-3.8.381.381,0,0,1,.3-.391,49.958,49.958,0,0,0,5.146-1.368,29.918,29.918,0,0,0,7.056-3.2.382.382,0,0,1,.417,0,29.918,29.918,0,0,0,7.056,3.2,49.939,49.939,0,0,0,5.146,1.368.381.381,0,0,1,.3.391,29.565,29.565,0,0,1-.433,3.8,30.6,30.6,0,0,1-1.226,4.643,34.633,34.633,0,0,1-3.907,7.763,39.913,39.913,0,0,1-4.428,5.5c-.824.856-1.655,1.646-2.471,2.347A.38.38,0,0,1,2772.291,1892.445Zm-11.935-23.861a28.768,28.768,0,0,0,.4,3.38,29.784,29.784,0,0,0,1.2,4.527,33.863,33.863,0,0,0,3.822,7.592,39.147,39.147,0,0,0,4.344,5.4c.723.751,1.451,1.45,2.17,2.082.718-.631,1.447-1.33,2.17-2.082a39.156,39.156,0,0,0,4.344-5.395,33.861,33.861,0,0,0,3.821-7.592,29.814,29.814,0,0,0,1.2-4.527,28.8,28.8,0,0,0,.4-3.38c-1.056-.228-2.868-.659-4.906-1.322a31.216,31.216,0,0,1-7.029-3.15,31.208,31.208,0,0,1-7.029,3.15C2763.223,1867.925,2761.412,1868.356,2760.356,1868.583Z" transform="translate(-2759.578 -1863.277)" fill="#325a6a"/>
              </g>
            </g>
          </g>
        </g>
        <g id="Grupo_26569" data-name="Grupo 26569" transform="translate(8.461 10.987)">
          <path id="Trazado_67411" data-name="Trazado 67411" d="M2800.8,1921.672a1.533,1.533,0,0,1-1.087-.45l-3.256-3.256a1.537,1.537,0,0,1,2.174-2.174l2.169,2.169,4.862-5.375a1.537,1.537,0,0,1,2.174,2.174l-5.948,6.462A1.532,1.532,0,0,1,2800.8,1921.672Z" transform="translate(-2795.63 -1911.757)" fill="#5d9af0"/>
          <path id="Trazado_67412" data-name="Trazado 67412" d="M2799.082,1920.343a1.905,1.905,0,0,1-1.356-.562l-3.256-3.256a1.918,1.918,0,1,1,2.712-2.712l1.886,1.886,4.593-5.078a1.924,1.924,0,0,1,2.726-.014,1.919,1.919,0,0,1,0,2.712l-5.938,6.45A1.913,1.913,0,0,1,2799.082,1920.343Zm-3.256-6.331a1.156,1.156,0,0,0-.817,1.974l3.256,3.256a1.156,1.156,0,0,0,1.635,0l5.938-6.45a1.161,1.161,0,0,0,.35-.829,1.156,1.156,0,0,0-1.974-.817l-4.849,5.361a.381.381,0,0,1-.552.014l-2.169-2.169A1.148,1.148,0,0,0,2795.826,1914.012Z" transform="translate(-2793.908 -1910.047)" fill="#325a6a"/>
        </g>
      </g>
      <g id="Grupo_26575" data-name="Grupo 26575" transform="translate(19.462 2.059)">
        <g id="Grupo_26571" data-name="Grupo 26571" transform="translate(1.205 5.75)">
          <path id="Trazado_67413" data-name="Trazado 67413" d="M2864.163,1906.3s.036.655.07.857l-.842,16.045a1.687,1.687,0,0,0,1.591,1.778l.095,0a1.687,1.687,0,0,0,1.683-1.593l.668-13.122a3.383,3.383,0,0,0,1.042-.011l.66,12.964a1.687,1.687,0,0,0,1.683,1.593l.1,0a1.688,1.688,0,0,0,1.59-1.778c-.039-.636-.709-11.116-.934-15.679l.048-.747.029-10.29h-2.592c-.863-2.647-1.395-1.883-1.9,0h-2.591l-.229,8.909-.17,1.074Z" transform="translate(-2863.007 -1894.226)" fill="#fff"/>
          <path id="Trazado_67414" data-name="Trazado 67414" d="M2863.355,1923.643l-.115,0a2.071,2.071,0,0,1-1.951-2.18l.84-16.005c-.034-.246-.064-.789-.068-.854a.388.388,0,0,1,0-.081l.167-1.049.229-8.884a.38.38,0,0,1,.38-.371h2.3c.3-1.052.614-1.7,1.161-1.711.49-.014.873.486,1.3,1.711h2.318a.381.381,0,0,1,.381.382l-.029,10.29-.048.749c.093,1.889.325,6.058.9,15.2l.028.449a2.036,2.036,0,0,1-.517,1.488,2.057,2.057,0,0,1-1.432.694c-.041,0-.078,0-.117,0a2.068,2.068,0,0,1-2.063-1.952l-.64-12.564c-.11.006-.213.007-.322,0l-.648,12.728A2.068,2.068,0,0,1,2863.355,1923.643Zm-.531-19.044c.014.25.042.65.063.775a.375.375,0,0,1,0,.083l-.842,16.045a1.308,1.308,0,0,0,1.231,1.378l.074,0a1.306,1.306,0,0,0,1.3-1.234l.668-13.12a.383.383,0,0,1,.137-.273.378.378,0,0,1,.293-.085,2.952,2.952,0,0,0,.937-.01.381.381,0,0,1,.436.357l.66,12.964a1.305,1.305,0,0,0,2.281.79,1.281,1.281,0,0,0,.327-.935l-.028-.448c-.581-9.185-.813-13.355-.906-15.236a.369.369,0,0,1,0-.043l.048-.747.027-9.885h-2.21a.381.381,0,0,1-.362-.263,4.1,4.1,0,0,0-.639-1.415,4.181,4.181,0,0,0-.526,1.394.381.381,0,0,1-.368.283h-2.219l-.22,8.538a.381.381,0,0,1,0,.05Z" transform="translate(-2861.286 -1892.505)" fill="#325a6a"/>
        </g>
        <g id="Grupo_26572" data-name="Grupo 26572" transform="translate(2.39 0)">
          <circle id="Elipse_2822" data-name="Elipse 2822" cx="2.764" cy="2.764" r="2.764" transform="translate(0 3.909) rotate(-45)" fill="#fff"/>
          <path id="Trazado_67415" data-name="Trazado 67415" d="M2875.189,1871.269a3.145,3.145,0,1,1,3.145-3.145A3.148,3.148,0,0,1,2875.189,1871.269Zm0-5.528a2.383,2.383,0,1,0,2.383,2.383A2.386,2.386,0,0,0,2875.189,1865.741Z" transform="translate(-2871.28 -1864.216)" fill="#325a6a"/>
        </g>
        <g id="Grupo_26573" data-name="Grupo 26573" transform="translate(2.248 7.382)">
          <path id="Trazado_67416" data-name="Trazado 67416" d="M2872.9,1903.619s2.188,0,2.227,0c1.618.076,3.577,0,3.574,3.013,0,.108-.011,4.888-.013,5.948a1.414,1.414,0,0,1-.973,1.421,2.239,2.239,0,0,1-1.25.073l-6.188-1.525-.015,0a1.567,1.567,0,0,1-1.108-1.664,2.849,2.849,0,0,1,.13-.707,1.888,1.888,0,0,1,1.192-1.146,1.548,1.548,0,0,1,.969.105l3.992,1.732c.43.1.361-.273.424-.622a2.63,2.63,0,0,0,.031-.638l-.2-2.506Z" transform="translate(-2868.764 -1903.237)" fill="#fff"/>
          <path id="Trazado_67417" data-name="Trazado 67417" d="M2875.257,1912.788a2.869,2.869,0,0,1-.595-.063l-6.184-1.523a1.949,1.949,0,0,1-1.428-2.073,3.1,3.1,0,0,1,.153-.808,2.254,2.254,0,0,1,1.46-1.382,1.912,1.912,0,0,1,1.209.126l3.854,1.672c0-.017,0-.033,0-.048.008-.076.017-.155.031-.233a2.258,2.258,0,0,0,.025-.546l-.2-2.5a.381.381,0,0,1,.759-.061l.2,2.506a3.008,3.008,0,0,1-.036.736c-.011.059-.017.119-.023.177a.847.847,0,0,1-.291.669.682.682,0,0,1-.576.078.373.373,0,0,1-.061-.02l-3.992-1.732a1.176,1.176,0,0,0-.729-.084,1.5,1.5,0,0,0-.922.905,2.553,2.553,0,0,0-.109.611c-.044.51.307,1.188.781,1.254l.054.009,6.189,1.525a1.844,1.844,0,0,0,1.024-.06,1.025,1.025,0,0,0,.727-1.044l.008-3.849c0-1.132,0-2.072,0-2.119,0-2.5-1.372-2.554-2.963-2.621l-.248-.01h-2.208a.381.381,0,1,1,0-.761c2.2,0,2.233,0,2.245,0l.244.011c1.56.065,3.7.155,3.693,3.383,0,.047,0,.988,0,2.12l-.008,3.828a1.793,1.793,0,0,1-1.22,1.776A2.461,2.461,0,0,1,2875.257,1912.788Z" transform="translate(-2867.043 -1901.516)" fill="#325a6a"/>
        </g>
        <g id="Grupo_26574" data-name="Grupo 26574" transform="translate(0 7.383)">
          <path id="Trazado_67418" data-name="Trazado 67418" d="M2859.7,1907.1l-.337,3.216c-.013.343-.014.689.6.632l4.441-.788c.762-.057,1.686,0,1.856.956a4.825,4.825,0,0,1,.037.729c0,.759-.726,1.175-1.523,1.271l-6.462.623c-.43,0-.841.046-1.138-.265a1.514,1.514,0,0,1-.439-1.16s.059-5.807.069-5.926c.212-2.289,1.665-2.77,3.324-2.77l.116,0,2.491,0Z" transform="translate(-2856.356 -1903.241)" fill="#fff"/>
          <path id="Trazado_67419" data-name="Trazado 67419" d="M2856.323,1912.4a1.46,1.46,0,0,1-1.143-.384,1.886,1.886,0,0,1-.545-1.424c.018-1.754.06-5.838.071-5.96.259-2.792,2.238-3.116,3.7-3.116l.127,0,2.48,0a.381.381,0,0,1,0,.762l-2.487,0h-.019l-.1,0c-1.932,0-2.786.7-2.945,2.424-.008.16-.045,3.614-.068,5.895a1.135,1.135,0,0,0,.334.893c.137.144.342.15.691.147h.155l6.441-.621c.19-.023,1.179-.179,1.179-.892a5,5,0,0,0-.031-.662c-.069-.383-.291-.725-1.434-.644l-4.421.784-.031,0a.953.953,0,0,1-.784-.2,1.007,1.007,0,0,1-.236-.82c0-.009,0-.017,0-.025l.337-3.216a.381.381,0,1,1,.758.079l-.336,3.2a1.213,1.213,0,0,0,.005.222.58.58,0,0,0,.167,0l4.425-.785.038,0c1.331-.1,2.091.328,2.259,1.268a5.088,5.088,0,0,1,.043.8c0,.865-.729,1.513-1.858,1.649l-6.471.623-.04,0h-.267Z" transform="translate(-2854.635 -1901.52)" fill="#325a6a"/>
        </g>
      </g>
    </g>
  </g>
</svg>
