<svg xmlns="http://www.w3.org/2000/svg" xmlns:xlink="http://www.w3.org/1999/xlink" width="91.927" height="91.927" viewBox="0 0 91.927 91.927">
  <defs>
    <radialGradient id="radial-gradient" cx="0.076" cy="0.019" r="1.465" gradientTransform="translate(0.001)" gradientUnits="objectBoundingBox">
      <stop offset="0" stop-color="#f6f6f7"/>
      <stop offset="0.477" stop-color="#f9f9fa"/>
      <stop offset="0.715" stop-color="#fff"/>
    </radialGradient>
  </defs>
  <g id="Grupo_29509" data-name="Grupo 29509" transform="translate(1246 4244)">
    <g id="Grupo_29504" data-name="Grupo 29504" transform="translate(-1321 -4217)">
      <g id="Grupo_18423" data-name="Grupo 18423" transform="translate(75 -27)">
        <g id="Grupo_18421" data-name="Grupo 18421">
          <g id="Grupo_18420" data-name="Grupo 18420">
            <g id="Grupo_18419" data-name="Grupo 18419">
              <path id="Trazado_40936" data-name="Trazado 40936" d="M286.55,2191.684a45.964,45.964,0,1,1-45.963-45.962A45.963,45.963,0,0,1,286.55,2191.684Z" transform="translate(-194.623 -2145.721)" fill="#fff"/>
            </g>
          </g>
        </g>
        <path id="Trazado_40937" data-name="Trazado 40937" d="M286.23,2191.334a45.963,45.963,0,1,0-45.963,45.965A45.782,45.782,0,0,0,286.23,2191.334Z" transform="translate(-194.303 -2145.372)" fill="url(#radial-gradient)"/>
        <path id="Trazado_40938" data-name="Trazado 40938" d="M272.56,2188.562a35.084,35.084,0,1,0-35.084,35.084A34.953,34.953,0,0,0,272.56,2188.562Z" transform="translate(-191.373 -2142.446)" fill="none" stroke="#3487ad" stroke-miterlimit="10" stroke-width="4"/>
        <g id="Grupo_18422" data-name="Grupo 18422" transform="translate(8.143 25.805)">
          <path id="Trazado_40939" data-name="Trazado 40939" d="M279.682,2164.488a45.969,45.969,0,0,1-79.137,45.773,45.823,45.823,0,0,0,79.137-45.773Z" transform="translate(-200.545 -2164.488)" fill="#eceef0"/>
        </g>
      </g>
    </g>
    <g id="Grupo_29505" data-name="Grupo 29505" transform="translate(-1215 -4215.682)">
      <g id="Grupo_26578" data-name="Grupo 26578">
        <g id="Grupo_26577" data-name="Grupo 26577">
          <path id="Trazado_67420" data-name="Trazado 67420" d="M3160.106,1889.989l.159-5.316s4.808,1.319,6.965.715a2.223,2.223,0,0,0,1.583-2.857.874.874,0,0,1,.256-1.008l.564-.457a.3.3,0,0,0,.115-.263c-.036-.371-.524-.764-.77-1.006,0,0,.833-.369,1.037-.9a.436.436,0,0,0-.072-.431l-.478-.584a8.152,8.152,0,0,1-.2-.995.29.29,0,0,1,.244-.339c.584-.082,1.364-.272,1.878-.365a1.35,1.35,0,0,0,.816-1.813l-2.832-3.557a1.1,1.1,0,0,1-.219-.635,1.909,1.909,0,0,1,.233-.942,4.832,4.832,0,0,0,.456-3.75c-3.456-17.7-29.606-15.732-26.272,5,.449,2.79,2.816,4.271,2.782,8.087-.044,4.8-.847,11.414-.847,11.414Z" transform="translate(-3142.898 -1853.079)" fill="#fff"/>
          <path id="Trazado_67421" data-name="Trazado 67421" d="M3143.8,1888.661l-.047,0a.381.381,0,0,1-.332-.424c.008-.066.8-6.649.844-11.371a8.985,8.985,0,0,0-1.485-4.827,9.645,9.645,0,0,1-1.292-3.2c-1.666-10.356,3.981-16.13,10.317-17.258,6.717-1.2,14.854,2.646,16.7,12.122l.033.165a5.085,5.085,0,0,1-.527,3.838,1.524,1.524,0,0,0-.188.748.717.717,0,0,0,.143.42l2.825,3.548a.4.4,0,0,1,.043.069,1.61,1.61,0,0,1-.017,1.439,1.641,1.641,0,0,1-1.062.915c-.208.037-.441.087-.687.139-.364.077-.773.163-1.127.217.033.2.107.628.147.776l.44.537a.818.818,0,0,1,.133.809,1.951,1.951,0,0,1-.759.844,1.581,1.581,0,0,1,.515.889.683.683,0,0,1-.255.6l-.564.457a.493.493,0,0,0-.142.57,2.6,2.6,0,0,1-1.834,3.365c-1.85.518-5.418-.275-6.7-.594l-.144,4.84a.381.381,0,0,1-.762-.023l.159-5.316a.381.381,0,0,1,.481-.356c.047.013,4.731,1.284,6.762.715a1.841,1.841,0,0,0,1.332-2.348,1.251,1.251,0,0,1,.37-1.446l.531-.43a2.244,2.244,0,0,0-.51-.6c-.05-.047-.1-.091-.138-.131a.381.381,0,0,1,.113-.62,1.787,1.787,0,0,0,.836-.689.057.057,0,0,0-.011-.053l-.479-.584a3.984,3.984,0,0,1-.265-1.1.378.378,0,0,1-.019-.067.678.678,0,0,1,.119-.513.664.664,0,0,1,.448-.269c.346-.048.763-.136,1.166-.221.255-.054.5-.1.7-.141a.927.927,0,0,0,.523-.5.882.882,0,0,0,.035-.737l-2.8-3.522a1.474,1.474,0,0,1-.3-.864,2.292,2.292,0,0,1,.278-1.13,4.359,4.359,0,0,0,.452-3.326l-.035-.171c-1.757-9-9.464-12.651-15.824-11.518-5.531.985-11.391,5.867-9.7,16.387a8.936,8.936,0,0,0,1.206,2.947,9.75,9.75,0,0,1,1.581,5.2c-.043,4.765-.842,11.39-.85,11.456A.381.381,0,0,1,3143.8,1888.661Z" transform="translate(-3141.189 -1851.371)" fill="#325a6a"/>
        </g>
      </g>
      <g id="Grupo_26583" data-name="Grupo 26583" transform="translate(4.13 3.347)">
        <g id="Grupo_26580" data-name="Grupo 26580" transform="translate(7.356)">
          <g id="Grupo_26579" data-name="Grupo 26579">
            <path id="Trazado_67422" data-name="Trazado 67422" d="M3206.974,1875.618l-.258,1.032a.63.63,0,0,0,.459.764l.569.142a.212.212,0,0,1,.159.2,4.35,4.35,0,0,0,.108.726.212.212,0,0,1-.1.233l-.5.3a.63.63,0,0,0-.216.865l.548.912a.63.63,0,0,0,.865.216l.5-.3a.212.212,0,0,1,.25.025,4.324,4.324,0,0,0,.59.437.213.213,0,0,1,.1.232l-.142.569a.631.631,0,0,0,.459.764l1.032.258a.63.63,0,0,0,.764-.459l.142-.569a.212.212,0,0,1,.195-.159,4.3,4.3,0,0,0,.726-.108.212.212,0,0,1,.233.1l.3.5a.63.63,0,0,0,.865.216l.912-.548a.63.63,0,0,0,.216-.865l-.3-.5a.213.213,0,0,1,.025-.251,4.294,4.294,0,0,0,.437-.589.212.212,0,0,1,.232-.1l.569.142a.631.631,0,0,0,.765-.459l.257-1.032a.63.63,0,0,0-.458-.764l-.569-.142a.213.213,0,0,1-.159-.2,4.329,4.329,0,0,0-.108-.725.212.212,0,0,1,.1-.233l.5-.3a.63.63,0,0,0,.216-.865l-.547-.912a.631.631,0,0,0-.865-.216l-.5.3a.212.212,0,0,1-.25-.025,4.294,4.294,0,0,0-.59-.437.213.213,0,0,1-.1-.232l.142-.569a.63.63,0,0,0-.458-.764l-1.032-.258a.63.63,0,0,0-.764.459l-.142.569a.213.213,0,0,1-.2.159,4.336,4.336,0,0,0-.726.108.212.212,0,0,1-.233-.1l-.3-.5a.63.63,0,0,0-.865-.216l-.912.548a.63.63,0,0,0-.216.865l.3.5a.212.212,0,0,1-.025.25,4.275,4.275,0,0,0-.437.589.213.213,0,0,1-.233.1l-.569-.142A.63.63,0,0,0,3206.974,1875.618Zm5.414-.3a2.167,2.167,0,1,1-2.145,1.287A2.168,2.168,0,0,1,3212.388,1875.317Z" transform="translate(-3206.317 -1871.568)" fill="#5d9af0"/>
            <path id="Trazado_67423" data-name="Trazado 67423" d="M3209.829,1881.667a1,1,0,0,1-.245-.031l-1.032-.258a1.011,1.011,0,0,1-.736-1.226l.112-.45a4.663,4.663,0,0,1-.447-.331l-.4.239a1.013,1.013,0,0,1-1.388-.346l-.547-.912a1.011,1.011,0,0,1,.347-1.387l.4-.239a4.648,4.648,0,0,1-.082-.551l-.45-.113a1.01,1.01,0,0,1-.736-1.226l.257-1.032a1.012,1.012,0,0,1,1.226-.736l.45.113a4.593,4.593,0,0,1,.331-.448l-.239-.4a1.012,1.012,0,0,1,.347-1.387l.912-.547a1.011,1.011,0,0,1,1.387.346l.239.4a4.7,4.7,0,0,1,.551-.082l.112-.45a1.013,1.013,0,0,1,1.226-.736l1.032.258a1.01,1.01,0,0,1,.736,1.226l-.112.45a4.756,4.756,0,0,1,.448.332l.4-.239a1.012,1.012,0,0,1,1.387.346l.547.912a1.012,1.012,0,0,1-.346,1.387l-.4.239a4.666,4.666,0,0,1,.082.551l.45.113a1.012,1.012,0,0,1,.736,1.226l-.257,1.032a1.013,1.013,0,0,1-1.226.736l-.45-.112a4.619,4.619,0,0,1-.331.447l.239.4a1.01,1.01,0,0,1-.347,1.387l-.912.548a1.013,1.013,0,0,1-1.388-.346l-.238-.4a4.772,4.772,0,0,1-.551.082l-.113.45A1.013,1.013,0,0,1,3209.829,1881.667Zm-2.331-3.1a.6.6,0,0,1,.4.15,3.9,3.9,0,0,0,.538.4.591.591,0,0,1,.267.649l-.142.569a.251.251,0,0,0,.028.189.248.248,0,0,0,.153.114l1.032.258a.25.25,0,0,0,.3-.182l.142-.569a.592.592,0,0,1,.541-.447,3.927,3.927,0,0,0,.662-.1.592.592,0,0,1,.647.27l.3.5a.25.25,0,0,0,.342.085l.912-.548a.249.249,0,0,0,.085-.342l-.3-.5a.592.592,0,0,1,.066-.7,4,4,0,0,0,.4-.537.591.591,0,0,1,.648-.267l.569.142a.249.249,0,0,0,.3-.182l.258-1.032a.25.25,0,0,0-.182-.3l-.569-.142a.592.592,0,0,1-.447-.541,3.978,3.978,0,0,0-.1-.661.592.592,0,0,1,.27-.648l.5-.3a.249.249,0,0,0,.085-.343l-.547-.912a.25.25,0,0,0-.342-.086l-.5.3a.592.592,0,0,1-.7-.066,3.96,3.96,0,0,0-.537-.4.591.591,0,0,1-.267-.649l.142-.569a.25.25,0,0,0-.182-.3l-1.032-.258a.25.25,0,0,0-.3.181l-.142.569a.592.592,0,0,1-.541.447,3.935,3.935,0,0,0-.662.1.592.592,0,0,1-.647-.27l-.3-.5a.249.249,0,0,0-.342-.085l-.912.547a.25.25,0,0,0-.086.342l.3.5a.592.592,0,0,1-.066.7,3.918,3.918,0,0,0-.4.537.592.592,0,0,1-.649.267l-.569-.142a.25.25,0,0,0-.3.182l-.258,1.032a.25.25,0,0,0,.182.3l.569.142a.592.592,0,0,1,.447.541,3.93,3.93,0,0,0,.1.661.593.593,0,0,1-.271.648l-.5.3a.25.25,0,0,0-.085.343l.547.912a.25.25,0,0,0,.342.085l.5-.3A.588.588,0,0,1,3207.5,1878.571Zm3.013-.265c-.066,0-.132,0-.2-.008a2.546,2.546,0,1,1,2.525-1.516A2.56,2.56,0,0,1,3210.51,1878.306Zm-.015-4.336a1.8,1.8,0,1,0,.139.006C3210.588,1873.972,3210.542,1873.97,3210.5,1873.97Z" transform="translate(-3204.594 -1869.847)" fill="#325a6a"/>
          </g>
        </g>
        <g id="Grupo_26582" data-name="Grupo 26582" transform="translate(0 8.942)">
          <g id="Grupo_26581" data-name="Grupo 26581">
            <path id="Trazado_67424" data-name="Trazado 67424" d="M3166.384,1925.732a.475.475,0,0,0,.207.64l.875.447a.254.254,0,0,1,.133.271,5.176,5.176,0,0,0-.07.876.254.254,0,0,1-.174.246l-.934.3a.476.476,0,0,0-.306.6l.564,1.744a.476.476,0,0,0,.6.306l.934-.3a.255.255,0,0,1,.286.1,5.117,5.117,0,0,0,.57.669.255.255,0,0,1,.05.3l-.447.875a.476.476,0,0,0,.207.64l1.632.834a.476.476,0,0,0,.64-.207l.447-.875a.255.255,0,0,1,.271-.133,5.12,5.12,0,0,0,.875.07.255.255,0,0,1,.246.175l.3.934a.476.476,0,0,0,.6.306l1.743-.564a.476.476,0,0,0,.306-.6l-.3-.934a.253.253,0,0,1,.1-.285,5.167,5.167,0,0,0,.668-.57.255.255,0,0,1,.3-.051l.875.447a.476.476,0,0,0,.64-.207l.833-1.632a.475.475,0,0,0-.207-.64l-.875-.447a.254.254,0,0,1-.133-.271,5.179,5.179,0,0,0,.07-.876.254.254,0,0,1,.174-.246l.934-.3a.476.476,0,0,0,.306-.6l-.564-1.743a.476.476,0,0,0-.6-.306l-.935.3a.254.254,0,0,1-.285-.1,5.142,5.142,0,0,0-.571-.669.255.255,0,0,1-.05-.3l.447-.875a.475.475,0,0,0-.207-.64l-1.632-.834a.476.476,0,0,0-.64.207l-.447.875a.254.254,0,0,1-.271.133,5.151,5.151,0,0,0-.876-.07.254.254,0,0,1-.246-.174l-.3-.934a.475.475,0,0,0-.6-.306l-1.744.564a.475.475,0,0,0-.306.6l.3.934a.255.255,0,0,1-.1.286,5.153,5.153,0,0,0-.669.57.255.255,0,0,1-.3.051l-.875-.447a.475.475,0,0,0-.64.207Zm5.375-.587a3.109,3.109,0,1,1-2,3.916A3.108,3.108,0,0,1,3171.76,1925.145Z" transform="translate(-3165.71 -1920.932)" fill="#ffce3b"/>
            <path id="Trazado_67425" data-name="Trazado 67425" d="M3172.023,1933.225a.858.858,0,0,1-.814-.593l-.273-.845a5.532,5.532,0,0,1-.763-.061l-.4.792a.856.856,0,0,1-1.152.373l-1.632-.834a.856.856,0,0,1-.373-1.152l.4-.791a5.6,5.6,0,0,1-.5-.582l-.845.273a.857.857,0,0,1-1.079-.551l-.564-1.744a.858.858,0,0,1,.551-1.079l.845-.273a5.538,5.538,0,0,1,.061-.762l-.792-.4a.857.857,0,0,1-.373-1.152l.834-1.632a.856.856,0,0,1,1.152-.373l.792.4a5.514,5.514,0,0,1,.582-.5l-.273-.845a.857.857,0,0,1,.551-1.079l1.743-.564a.857.857,0,0,1,1.079.551l.274.845a5.564,5.564,0,0,1,.762.061l.4-.792a.858.858,0,0,1,1.152-.373l1.632.834a.855.855,0,0,1,.373,1.152l-.4.792a5.473,5.473,0,0,1,.5.582l.845-.274a.857.857,0,0,1,1.079.551l.564,1.744a.857.857,0,0,1-.551,1.079l-.845.274a5.612,5.612,0,0,1-.061.762l.792.4a.856.856,0,0,1,.373,1.152l-.834,1.632a.857.857,0,0,1-1.152.373l-.792-.4a5.6,5.6,0,0,1-.582.5l.273.845a.857.857,0,0,1-.551,1.079l-1.743.564A.869.869,0,0,1,3172.023,1933.225Zm-1-2.2a.633.633,0,0,1,.606.438l.3.934a.1.1,0,0,0,.12.061l1.744-.564a.1.1,0,0,0,.061-.119l-.3-.934a.634.634,0,0,1,.238-.713,4.817,4.817,0,0,0,.619-.528.634.634,0,0,1,.742-.122l.875.447a.1.1,0,0,0,.127-.041l.834-1.632a.1.1,0,0,0-.041-.128l-.875-.447a.633.633,0,0,1-.335-.672,4.806,4.806,0,0,0,.065-.811.634.634,0,0,1,.438-.61l.934-.3a.095.095,0,0,0,.061-.119l-.564-1.744a.093.093,0,0,0-.047-.055.1.1,0,0,0-.073-.006l-.934.3a.635.635,0,0,1-.713-.238,4.727,4.727,0,0,0-.528-.619.635.635,0,0,1-.122-.742l.447-.875a.09.09,0,0,0,.006-.073.093.093,0,0,0-.046-.055l-1.632-.834a.1.1,0,0,0-.128.041l-.447.875a.633.633,0,0,1-.672.335,4.784,4.784,0,0,0-.812-.065.634.634,0,0,1-.61-.438l-.3-.935a.1.1,0,0,0-.12-.061l-1.744.564a.1.1,0,0,0-.061.119l.3.935a.635.635,0,0,1-.238.712,4.761,4.761,0,0,0-.619.528.634.634,0,0,1-.742.122l-.875-.447a.093.093,0,0,0-.072-.006.092.092,0,0,0-.055.047l-.834,1.632a.1.1,0,0,0,.041.128l.875.447a.633.633,0,0,1,.336.672,4.809,4.809,0,0,0-.065.812.633.633,0,0,1-.438.61l-.934.3a.1.1,0,0,0-.061.119l.564,1.743a.1.1,0,0,0,.12.061l.934-.3a.634.634,0,0,1,.712.238,4.749,4.749,0,0,0,.528.619.633.633,0,0,1,.122.741l-.447.875a.095.095,0,0,0,.042.128l1.632.834a.095.095,0,0,0,.127-.041l.447-.875a.635.635,0,0,1,.673-.335,4.749,4.749,0,0,0,.811.065Zm-.026-1.153a3.49,3.49,0,1,1,1.073-.17A3.5,3.5,0,0,1,3171,1929.872Zm-.842-6.086a2.728,2.728,0,1,0,3.436,1.755,2.731,2.731,0,0,0-3.436-1.755Z" transform="translate(-3163.99 -1919.211)" fill="#325a6a"/>
          </g>
        </g>
      </g>
    </g>
  </g>
</svg>
