<svg xmlns="http://www.w3.org/2000/svg" xmlns:xlink="http://www.w3.org/1999/xlink" width="247.691" height="242.313" viewBox="0 0 247.691 242.313">
  <defs>
    <radialGradient id="radial-gradient" cx="0.353" cy="0.228" r="0.857" gradientTransform="translate(0.045) scale(0.91 1)" gradientUnits="objectBoundingBox">
      <stop offset="0" stop-color="#828282"/>
      <stop offset="0.301" stop-color="#838384" stop-opacity="0.98"/>
      <stop offset="0.469" stop-color="#8a8a8a" stop-opacity="0.918"/>
      <stop offset="0.604" stop-color="#959696" stop-opacity="0.812"/>
      <stop offset="0.721" stop-color="#a5a6a7" stop-opacity="0.663"/>
      <stop offset="0.828" stop-color="#babbbc" stop-opacity="0.467"/>
      <stop offset="0.924" stop-color="#d3d5d6" stop-opacity="0.231"/>
      <stop offset="1" stop-color="#eceef0" stop-opacity="0"/>
    </radialGradient>
    <linearGradient id="linear-gradient" y1="0.5" x2="1" y2="0.5" gradientUnits="objectBoundingBox">
      <stop offset="0" stop-color="#48b1e2"/>
      <stop offset="0.258" stop-color="#4498c0"/>
      <stop offset="0.824" stop-color="#3a5b6a"/>
      <stop offset="1" stop-color="#37474f"/>
    </linearGradient>
    <radialGradient id="radial-gradient-2" cx="0.076" cy="0.019" r="1.465" gradientTransform="translate(0.001)" gradientUnits="objectBoundingBox">
      <stop offset="0" stop-color="#f6f6f7"/>
      <stop offset="0.477" stop-color="#f9f9fa"/>
      <stop offset="0.715" stop-color="#fff"/>
    </radialGradient>
  </defs>
  <g id="Grupo_29504" data-name="Grupo 29504" transform="translate(1544.676 5270.565)">
    <path id="Trazado_69227" data-name="Trazado 69227" d="M1018.942,1409.688l60.092,60.093c2.6.215,2.8.442,5.43.016,43.983-7.123,91.391-42.849,96.169-98.885.128-1.495-.252.441-.324-1.043l-46.963-46.963Z" transform="translate(-2481.313 -6517.336)" fill="url(#radial-gradient)"/>
    <path id="Trazado_69226" data-name="Trazado 69226" d="M1184.328,1359.9A113.253,113.253,0,0,0,1071.2,1246.771a112.073,112.073,0,0,0-68.794,23.315l3.652,4.76a106.124,106.124,0,0,1,65.142-22.075,107.125,107.125,0,0,1,0,214.25c-28.348,0-56.137-12.16-76.312-32.07H991.6c-20.14,0-36.433-6.066-47.3-17.573l14.3-19.8c9.365,7.855,19.533,12.144,28.922,12.144,14.915,0,23.82-6.2,23.82-16.578,0-14.193-9.756-19.792-35.756-20.179v-21.21c14.215-.3,31.23-3.124,31.23-19.263,0-10.248-6.538-16.126-17.936-16.126-9.646,0-16.7,3.831-24.953,10.537l-15.621-18.89c13.729-10.884,27.265-15.972,42.384-15.972,30.715,0,49.052,14.022,49.052,37.509,0,12.694-6.966,21.938-21.295,28.26l-1.789.789v5.081l2.123.649c16.435,5.022,25.486,16.219,25.486,31.529h6c0-16.292-8.488-28.617-24.058-35.214,12.968-7.27,19.533-17.707,19.533-31.094,0-13.583-5.3-24.788-15.33-32.4-9.569-7.266-23.3-11.106-39.722-11.106-17.216,0-33.1,6.3-48.548,19.258l-2.283,1.915,23.3,28.176,2.317-1.97c8.434-7.169,14.661-11.054,23.4-11.054,5.123,0,11.936,1.05,11.936,10.126,0,6.574-3.355,13.294-28.23,13.294h-3v33.157h3c32.756,0,32.756,7.874,32.756,14.2,0,9.2-11.165,10.578-17.82,10.578-8.728,0-18.454-4.54-27.385-12.783l-2.486-2.294-21.017,29.1,1.539,1.794c12.007,14.01,30.481,21.415,53.423,21.415h.7a112.69,112.69,0,0,0,42.612,26.134l37.121,22,36.821-22.419s-.224.048-.642.132A113.319,113.319,0,0,0,1184.328,1359.9Z" transform="translate(-2481.313 -6517.336)" fill="url(#linear-gradient)"/>
    <g id="Grupo_29502" data-name="Grupo 29502" transform="translate(-2481.313 -6517.336)">
      <g id="Grupo_16267" data-name="Grupo 16267">
        <g id="Grupo_16266" data-name="Grupo 16266">
          <g id="Grupo_16265" data-name="Grupo 16265">
            <path id="Trazado_38227" data-name="Trazado 38227" d="M1143.465,1359.793a72.258,72.258,0,1,1-72.257-72.259A72.256,72.256,0,0,1,1143.465,1359.793Z" fill="#fff"/>
          </g>
        </g>
      </g>
      <path id="Trazado_38228" data-name="Trazado 38228" d="M1143.465,1359.793a72.257,72.257,0,1,0-72.257,72.259A71.977,71.977,0,0,0,1143.465,1359.793Z" fill="url(#radial-gradient-2)"/>
      <g id="Grupo_16268" data-name="Grupo 16268">
        <path id="Trazado_38229" data-name="Trazado 38229" d="M1136.159,1328.1a72.267,72.267,0,0,1-124.409,71.959,72.037,72.037,0,0,0,124.409-71.959Z" fill="#eceef0"/>
      </g>
    </g>
    <g id="Grupo_29503" data-name="Grupo 29503" transform="translate(-1441.415 -5185)">
      <path id="Trazado_67310" data-name="Trazado 67310" d="M625.134,422.444a1.008,1.008,0,0,1-1.008-1.008v-4.684a1.007,1.007,0,0,1,1.008-1.007h2.7V404.838a1.347,1.347,0,0,0-1.346-1.346h-2.977a1.008,1.008,0,0,1,0-2.015h2.977a3.365,3.365,0,0,1,3.361,3.361v11.914a1.007,1.007,0,0,1-1.007,1.007h-2.7v3.677A1.008,1.008,0,0,1,625.134,422.444Z" transform="translate(-609.127 -363.335)" fill="#48b1e2"/>
      <path id="Trazado_67311" data-name="Trazado 67311" d="M616.222,422.444a1.007,1.007,0,0,1-1.007-1.008v-3.677h-2.7a1.007,1.007,0,0,1-1.007-1.007V404.838a3.365,3.365,0,0,1,3.361-3.361h2.977a1.008,1.008,0,0,1,0,2.015h-2.977a1.348,1.348,0,0,0-1.347,1.346v10.907h2.7a1.007,1.007,0,0,1,1.007,1.007v4.684A1.008,1.008,0,0,1,616.222,422.444Z" transform="translate(-611.504 -363.335)" fill="#48b1e2"/>
      <path id="Trazado_67312" data-name="Trazado 67312" d="M615.563,416.775a1.007,1.007,0,0,1-1.007-1.007V407.04a1.007,1.007,0,1,1,2.014,0v8.728A1.007,1.007,0,0,1,615.563,416.775Z" transform="translate(-610.845 -362.35)" fill="#48b1e2"/>
      <path id="Trazado_67313" data-name="Trazado 67313" d="M624.846,416.775a1.008,1.008,0,0,1-1.008-1.007V407.04a1.008,1.008,0,0,1,2.015,0v8.728A1.007,1.007,0,0,1,624.846,416.775Z" transform="translate(-608.839 -362.35)" fill="#48b1e2"/>
      <path id="Trazado_67314" data-name="Trazado 67314" d="M620.961,402.679a5.266,5.266,0,1,1,5.267-5.266A5.272,5.272,0,0,1,620.961,402.679Zm0-8.517a3.252,3.252,0,1,0,3.252,3.252A3.255,3.255,0,0,0,620.961,394.162Z" transform="translate(-610.599 -365.351)" fill="#48b1e2"/>
      <path id="Trazado_67315" data-name="Trazado 67315" d="M657.412,416.438a1.007,1.007,0,0,1-1.007-1.007v-4.686a1.007,1.007,0,0,1,1.007-1.007h2.7V398.833a1.349,1.349,0,0,0-1.346-1.347h-2.978a1.007,1.007,0,0,1,0-2.014h2.978a3.364,3.364,0,0,1,3.36,3.361v11.913a1.007,1.007,0,0,1-1.007,1.008h-2.7v3.677A1.007,1.007,0,0,1,657.412,416.438Z" transform="translate(-602.153 -364.632)" fill="#48b1e2"/>
      <path id="Trazado_67316" data-name="Trazado 67316" d="M648.5,416.438a1.007,1.007,0,0,1-1.007-1.007v-3.677h-2.7a1.008,1.008,0,0,1-1.007-1.008V398.833a3.365,3.365,0,0,1,3.361-3.361h2.977a1.007,1.007,0,0,1,0,2.014h-2.977a1.349,1.349,0,0,0-1.347,1.347v10.906h2.7a1.007,1.007,0,0,1,1.007,1.007v4.686A1.006,1.006,0,0,1,648.5,416.438Z" transform="translate(-604.53 -364.632)" fill="#48b1e2"/>
      <path id="Trazado_67317" data-name="Trazado 67317" d="M647.841,410.77a1.008,1.008,0,0,1-1.007-1.008v-8.728a1.007,1.007,0,1,1,2.014,0v8.728A1.007,1.007,0,0,1,647.841,410.77Z" transform="translate(-603.87 -363.648)" fill="#48b1e2"/>
      <path id="Trazado_67318" data-name="Trazado 67318" d="M657.124,410.77a1.008,1.008,0,0,1-1.007-1.008v-8.728a1.007,1.007,0,0,1,2.014,0v8.728A1.008,1.008,0,0,1,657.124,410.77Z" transform="translate(-601.865 -363.648)" fill="#48b1e2"/>
      <path id="Trazado_67319" data-name="Trazado 67319" d="M653.239,396.674a5.266,5.266,0,1,1,5.267-5.266A5.272,5.272,0,0,1,653.239,396.674Zm0-8.519a3.252,3.252,0,1,0,3.253,3.253A3.256,3.256,0,0,0,653.239,388.156Z" transform="translate(-603.624 -366.648)" fill="#48b1e2"/>
      <path id="Trazado_67320" data-name="Trazado 67320" d="M628.527,398.838a.991.991,0,0,1-.328-.055,1.007,1.007,0,0,1-.679-.952v-4.416h-4.572a1.007,1.007,0,0,1-1.007-1.007v-11.34a1.007,1.007,0,0,1,.789-.984l17.742-3.933a1,1,0,0,1,.851.2,1.011,1.011,0,0,1,.375.79l-.092,12.907a1.006,1.006,0,0,1-.732.962l-7.367,2.093-4.187,5.346A1,1,0,0,1,628.527,398.838Zm-4.571-7.436h4.571a1.007,1.007,0,0,1,1.007,1.007v2.5l2.59-3.307a1,1,0,0,1,.518-.348l6.955-1.975.078-10.89-15.719,3.485Z" transform="translate(-609.249 -368.812)" fill="#48b1e2"/>
      <path id="Trazado_67321" data-name="Trazado 67321" d="M646.543,392.822a1.008,1.008,0,0,1-.793-.387l-4.188-5.347-1.351-.383a1.007,1.007,0,0,1,.55-1.938l1.667.473a1.009,1.009,0,0,1,.518.349l2.59,3.307v-2.5a1.007,1.007,0,0,1,1.007-1.008h4.571V375.86L635.4,372.376l.023,3.309a1.007,1.007,0,0,1-2.014.015l-.032-4.574a1.006,1.006,0,0,1,1.225-.99l17.742,3.933a1.006,1.006,0,0,1,.789.983v11.341a1.008,1.008,0,0,1-1.008,1.007H647.55v4.414a1.01,1.01,0,0,1-1.007,1.008Z" transform="translate(-606.779 -370.112)" fill="#48b1e2"/>
      <path id="Trazado_67322" data-name="Trazado 67322" d="M628.489,384.794a1.568,1.568,0,1,1-1.568-1.569A1.567,1.567,0,0,1,628.489,384.794Z" transform="translate(-608.512 -367.278)" fill="#48b1e2"/>
      <path id="Trazado_67323" data-name="Trazado 67323" d="M632.136,384.079a1.568,1.568,0,1,1-1.568-1.568A1.568,1.568,0,0,1,632.136,384.079Z" transform="translate(-607.724 -367.433)" fill="#48b1e2"/>
      <path id="Trazado_67324" data-name="Trazado 67324" d="M635.784,383.365a1.568,1.568,0,1,1-1.569-1.569A1.568,1.568,0,0,1,635.784,383.365Z" transform="translate(-606.936 -367.587)" fill="#48b1e2"/>
      <path id="Trazado_67325" data-name="Trazado 67325" d="M643.327,378.842a1.568,1.568,0,1,0,1.568-1.569A1.567,1.567,0,0,0,643.327,378.842Z" transform="translate(-604.628 -368.564)" fill="#48b1e2"/>
      <path id="Trazado_67326" data-name="Trazado 67326" d="M639.68,378.127a1.568,1.568,0,1,0,1.568-1.568A1.568,1.568,0,0,0,639.68,378.127Z" transform="translate(-605.416 -368.719)" fill="#48b1e2"/>
      <path id="Trazado_67327" data-name="Trazado 67327" d="M639.352,419.077H613.7a1.008,1.008,0,0,1,0-2.015h25.649a1.008,1.008,0,0,1,0,2.015Z" transform="translate(-611.247 -359.967)" fill="#48b1e2"/>
      <path id="Trazado_67328" data-name="Trazado 67328" d="M663.25,413.071H639.212a1.007,1.007,0,0,1,0-2.014H663.25a1.007,1.007,0,1,1,0,2.014Z" transform="translate(-605.735 -361.265)" fill="#48b1e2"/>
    </g>
  </g>
</svg>
