<svg id="Grupo_28523" data-name="Grupo 28523" xmlns="http://www.w3.org/2000/svg" width="90.738" height="62.585" viewBox="0 0 90.738 62.585">
  <path id="Trazado_67929" data-name="Trazado 67929" d="M392.926,267.733a1.176,1.176,0,0,1-.584-.156c-.191-.109-19.263-10.867-38.272-6.9a1.174,1.174,0,0,1-1.414-1.15V215.215a1.174,1.174,0,0,1,.935-1.15,44.455,44.455,0,0,1,6.117-.827,1.174,1.174,0,1,1,.156,2.343,42.473,42.473,0,0,0-4.859.6v41.925c17.717-3.076,34.549,5.3,37.922,7.112,3.373-1.813,20.2-10.19,37.922-7.112V216.182c-18.718-3.434-37.151,6.978-37.338,7.085a1.174,1.174,0,1,1-1.169-2.036c.807-.464,20.017-11.312,39.919-7.165a1.174,1.174,0,0,1,.935,1.15v44.311a1.174,1.174,0,0,1-1.414,1.15c-19.033-3.968-38.082,6.794-38.271,6.9A1.178,1.178,0,0,1,392.926,267.733Z" transform="translate(-347.558 -208.255)" fill="#325a6a"/>
  <path id="Trazado_67930" data-name="Trazado 67930" d="M435.622,224.591a1.174,1.174,0,0,1-.223-2.327,53.5,53.5,0,0,1,16.713-.751,1.174,1.174,0,1,1-.286,2.331,51.042,51.042,0,0,0-15.977.725A1.226,1.226,0,0,1,435.622,224.591Z" transform="translate(-370.952 -210.556)" fill="#325a6a"/>
  <path id="Trazado_67931" data-name="Trazado 67931" d="M454.566,231.882a1.268,1.268,0,0,1-.146-.009,47.344,47.344,0,0,0-9.626-.159,1.174,1.174,0,1,1-.191-2.34,49.726,49.726,0,0,1,10.1.17,1.174,1.174,0,0,1-.142,2.339Z" transform="translate(-373.548 -212.852)" fill="#325a6a"/>
  <path id="Trazado_67932" data-name="Trazado 67932" d="M392.895,271.7a1.173,1.173,0,0,1-.443-.087,67.97,67.97,0,0,0-17.219-4.567,1.174,1.174,0,1,1,.278-2.331,70.289,70.289,0,0,1,17.829,4.724,1.174,1.174,0,0,1-.444,2.261Z" transform="translate(-353.719 -223.007)" fill="#325a6a"/>
  <path id="Trazado_67933" data-name="Trazado 67933" d="M392.566,260.534a1.173,1.173,0,0,1-.438-.085,67.877,67.877,0,0,0-16.895-4.436,1.174,1.174,0,1,1,.278-2.331A70.215,70.215,0,0,1,393,258.271a1.174,1.174,0,0,1-.438,2.263Z" transform="translate(-353.719 -219.853)" fill="#325a6a"/>
  <path id="Trazado_67934" data-name="Trazado 67934" d="M408.588,284.64a1.174,1.174,0,0,1-1.174-1.174V273.407a1.174,1.174,0,1,1,2.348,0v10.059A1.174,1.174,0,0,1,408.588,284.64Z" transform="translate(-363.219 -225.161)" fill="#325a6a"/>
  <path id="Trazado_67935" data-name="Trazado 67935" d="M435.079,271.959h-88.39a1.174,1.174,0,0,1-1.174-1.174V218.21a1.174,1.174,0,0,1,1.174-1.174h5.1a1.174,1.174,0,1,1,0,2.348h-3.925v50.227h86.043V219.384H429.98a1.174,1.174,0,1,1,0-2.348h5.1a1.174,1.174,0,0,1,1.174,1.174v52.575A1.174,1.174,0,0,1,435.079,271.959Z" transform="translate(-345.515 -209.374)" fill="#325a6a"/>
  <path id="Trazado_67936" data-name="Trazado 67936" d="M419.536,260.057c-.039,0-.077,0-.116,0l-5.489-.544a1.176,1.176,0,0,1-1.052-1.285l.314-3.164a13.463,13.463,0,0,1-2.328-1.247l-2.459,2.016a1.173,1.173,0,0,1-1.652-.163l-3.5-4.266a1.174,1.174,0,0,1,.164-1.652l2.459-2.016a13.4,13.4,0,0,1-.765-2.527l-3.164-.313a1.173,1.173,0,0,1-1.052-1.284l.543-5.488a1.176,1.176,0,0,1,1.284-1.053l3.164.314a13.41,13.41,0,0,1,1.246-2.328l-2.016-2.459a1.175,1.175,0,0,1,.163-1.653l4.265-3.5a1.174,1.174,0,0,1,1.653.163l2.016,2.46a13.446,13.446,0,0,1,2.527-.765l.313-3.164a1.181,1.181,0,0,1,1.284-1.053l5.488.543a1.173,1.173,0,0,1,1.052,1.284l-.313,3.165a13.341,13.341,0,0,1,2.328,1.247l2.46-2.016a1.175,1.175,0,0,1,1.652.163l3.5,4.265a1.176,1.176,0,0,1-.164,1.653l-2.46,2.016a13.409,13.409,0,0,1,.765,2.527l3.164.313a1.174,1.174,0,0,1,1.052,1.284l-.543,5.488a1.178,1.178,0,0,1-1.284,1.053l-3.164-.313a13.379,13.379,0,0,1-1.246,2.328l2.016,2.46a1.174,1.174,0,0,1-.164,1.652l-4.265,3.5a1.175,1.175,0,0,1-1.652-.164l-2.016-2.46a13.467,13.467,0,0,1-2.527.765L420.7,259a1.173,1.173,0,0,1-1.168,1.058Zm-4.2-2.77,3.152.313.286-2.9a1.174,1.174,0,0,1,1.022-1.049,11.09,11.09,0,0,0,3.566-1.08,1.174,1.174,0,0,1,1.432.306l1.844,2.25,2.45-2.007-1.845-2.25a1.174,1.174,0,0,1-.019-1.464,11.075,11.075,0,0,0,1.758-3.283,1.174,1.174,0,0,1,1.229-.8l2.894.287.313-3.152-2.9-.286a1.176,1.176,0,0,1-1.049-1.022,11.09,11.09,0,0,0-1.079-3.565,1.173,1.173,0,0,1,.306-1.432l2.25-1.844-2.008-2.449-2.25,1.843a1.172,1.172,0,0,1-1.464.02,11.1,11.1,0,0,0-3.285-1.759,1.174,1.174,0,0,1-.8-1.229l.286-2.894-3.152-.312-.286,2.894a1.174,1.174,0,0,1-1.022,1.05,11.09,11.09,0,0,0-3.566,1.08,1.173,1.173,0,0,1-1.432-.306L410.131,230l-2.45,2.008,1.844,2.25a1.174,1.174,0,0,1,.02,1.464,11.09,11.09,0,0,0-1.759,3.285,1.179,1.179,0,0,1-1.229.8l-2.894-.287-.312,3.152,2.894.286a1.175,1.175,0,0,1,1.049,1.022,11.067,11.067,0,0,0,1.08,3.564,1.175,1.175,0,0,1-.307,1.433l-2.25,1.843,2.008,2.45,2.25-1.844a1.172,1.172,0,0,1,1.464-.019,11.075,11.075,0,0,0,3.284,1.758,1.175,1.175,0,0,1,.8,1.23Z" transform="translate(-361.354 -211.674)" fill="#325a6a"/>
  <path id="Trazado_67937" data-name="Trazado 67937" d="M421.473,255.44c-.322,0-.645-.015-.972-.047a9.793,9.793,0,1,1,.972.047Zm-.011-17.226a7.444,7.444,0,1,0,.738.036A7.351,7.351,0,0,0,421.462,238.213Z" transform="translate(-364.439 -214.759)" fill="#325a6a"/>
  <path id="Trazado_67938" data-name="Trazado 67938" d="M380.646,235.847a1.175,1.175,0,0,1-1.145-.918l-.545-2.442a11.464,11.464,0,0,1-1.916-.335l-1.341,2.111a1.175,1.175,0,0,1-1.62.362l-3.875-2.461a1.174,1.174,0,0,1-.361-1.621l1.341-2.113a11.339,11.339,0,0,1-1.117-1.591l-2.442.544a1.174,1.174,0,0,1-1.4-.89l-1-4.481a1.174,1.174,0,0,1,.89-1.4l2.442-.545a11.313,11.313,0,0,1,.335-1.916l-2.112-1.342a1.174,1.174,0,0,1-.361-1.621l2.462-3.875a1.172,1.172,0,0,1,1.62-.361l2.112,1.341a11.347,11.347,0,0,1,1.591-1.117l-.544-2.442a1.174,1.174,0,0,1,.89-1.4l4.481-1a1.173,1.173,0,0,1,1.4.89l.545,2.442a11.371,11.371,0,0,1,1.916.335l1.342-2.111a1.174,1.174,0,0,1,1.621-.362l3.875,2.462a1.173,1.173,0,0,1,.361,1.62l-1.342,2.112a11.407,11.407,0,0,1,1.118,1.591l2.442-.544a1.173,1.173,0,0,1,1.4.89l1,4.48a1.174,1.174,0,0,1-.89,1.4l-2.442.545a11.374,11.374,0,0,1-.335,1.916l2.111,1.342a1.173,1.173,0,0,1,.362,1.62l-2.462,3.876a1.175,1.175,0,0,1-1.621.361l-2.112-1.342a11.246,11.246,0,0,1-1.591,1.117l.545,2.443a1.174,1.174,0,0,1-.89,1.4l-4.48,1A1.171,1.171,0,0,1,380.646,235.847Zm-4.116-6.256a1.162,1.162,0,0,1,.393.069,9.008,9.008,0,0,0,2.989.523,1.173,1.173,0,0,1,1.14.918l.485,2.171,2.188-.488-.484-2.171a1.174,1.174,0,0,1,.642-1.316,9.013,9.013,0,0,0,2.484-1.744,1.173,1.173,0,0,1,1.455-.156l1.878,1.192,1.2-1.893-1.877-1.193a1.174,1.174,0,0,1-.477-1.384,9.025,9.025,0,0,0,.523-2.988,1.174,1.174,0,0,1,.918-1.141l2.171-.484-.488-2.188-2.17.483a1.174,1.174,0,0,1-1.316-.641,9.04,9.04,0,0,0-1.744-2.484,1.174,1.174,0,0,1-.157-1.456l1.192-1.877-1.893-1.2-1.192,1.877a1.171,1.171,0,0,1-1.384.477,9.033,9.033,0,0,0-2.989-.523,1.174,1.174,0,0,1-1.141-.918l-.484-2.171-2.189.488.484,2.171a1.176,1.176,0,0,1-.641,1.317,9.018,9.018,0,0,0-2.484,1.744,1.173,1.173,0,0,1-1.456.156l-1.877-1.192-1.2,1.893,1.877,1.192a1.173,1.173,0,0,1,.477,1.384,9.018,9.018,0,0,0-.523,2.989,1.175,1.175,0,0,1-.919,1.14l-2.171.485.488,2.188,2.171-.484a1.176,1.176,0,0,1,1.317.642,9.017,9.017,0,0,0,1.743,2.483,1.174,1.174,0,0,1,.157,1.456l-1.192,1.878,1.893,1.2,1.192-1.877A1.174,1.174,0,0,1,376.53,229.591Z" transform="translate(-351.144 -206.304)" fill="#325a6a"/>
  <path id="Trazado_67939" data-name="Trazado 67939" d="M382.528,231.991a8.341,8.341,0,1,1,7.056-3.868A8.292,8.292,0,0,1,382.528,231.991Zm.025-14.337a6.04,6.04,0,0,0-1.317.146,5.966,5.966,0,1,0,1.317-.146Z" transform="translate(-353.72 -208.879)" fill="#325a6a"/>
</svg>
