<svg xmlns="http://www.w3.org/2000/svg" width="58.675" height="70.379" viewBox="0 0 58.675 70.379">
  <g id="Grupo_29501" data-name="Grupo 29501" transform="translate(1285 -249.609)">
    <g id="Grupo_29500" data-name="Grupo 29500" transform="translate(-1285 249.609)">
      <path id="Trazado_67883" data-name="Trazado 67883" d="M230.578,217.7a7.074,7.074,0,1,1,7.074-7.074A7.082,7.082,0,0,1,230.578,217.7Zm0-12.26a5.185,5.185,0,1,0,5.185,5.185A5.191,5.191,0,0,0,230.578,205.445Z" transform="translate(-209.846 -195.114)" fill="#325a6a"/>
      <path id="Trazado_67884" data-name="Trazado 67884" d="M230.578,251.963a7.074,7.074,0,1,1,7.074-7.074A7.082,7.082,0,0,1,230.578,251.963Zm0-12.26a5.185,5.185,0,1,0,5.185,5.185A5.191,5.191,0,0,0,230.578,239.7Z" transform="translate(-209.846 -209.7)" fill="#325a6a"/>
      <path id="Trazado_67885" data-name="Trazado 67885" d="M230.578,286.221a7.074,7.074,0,1,1,7.074-7.074A7.082,7.082,0,0,1,230.578,286.221Zm0-12.259a5.185,5.185,0,1,0,5.185,5.185A5.19,5.19,0,0,0,230.578,273.962Z" transform="translate(-209.846 -224.285)" fill="#325a6a"/>
      <path id="Trazado_67886" data-name="Trazado 67886" d="M208.493,200.911h-6.2a2.576,2.576,0,1,1,0-5.153h6.2a2.576,2.576,0,1,1,0,5.153Zm-6.2-3.264a.688.688,0,1,0,0,1.375h6.2a.688.688,0,1,0,0-1.375Z" transform="translate(-199.72 -191.794)" fill="#325a6a"/>
      <path id="Trazado_67887" data-name="Trazado 67887" d="M208.493,220.866h-6.2a2.577,2.577,0,0,1,0-5.153h6.2a2.577,2.577,0,0,1,0,5.153Zm-6.2-3.265a.688.688,0,1,0,0,1.376h6.2a.688.688,0,1,0,0-1.376Z" transform="translate(-199.72 -200.29)" fill="#325a6a"/>
      <path id="Trazado_67888" data-name="Trazado 67888" d="M208.493,240.821h-6.2a2.577,2.577,0,1,1,0-5.153h6.2a2.577,2.577,0,1,1,0,5.153Zm-6.2-3.265a.688.688,0,0,0,0,1.376h6.2a.688.688,0,0,0,0-1.376Z" transform="translate(-199.72 -208.786)" fill="#325a6a"/>
      <path id="Trazado_67889" data-name="Trazado 67889" d="M208.493,260.777h-6.2a2.577,2.577,0,0,1,0-5.153h6.2a2.577,2.577,0,0,1,0,5.153Zm-6.2-3.265a.688.688,0,0,0,0,1.376h6.2a.688.688,0,0,0,0-1.376Z" transform="translate(-199.72 -217.282)" fill="#325a6a"/>
      <path id="Trazado_67890" data-name="Trazado 67890" d="M208.493,280.733h-6.2a2.577,2.577,0,1,1,0-5.153h6.2a2.577,2.577,0,1,1,0,5.153Zm-6.2-3.265a.688.688,0,1,0,0,1.376h6.2a.688.688,0,1,0,0-1.376Z" transform="translate(-199.72 -225.778)" fill="#325a6a"/>
      <path id="Trazado_67891" data-name="Trazado 67891" d="M208.493,300.689h-6.2a2.576,2.576,0,1,1,0-5.153h6.2a2.576,2.576,0,1,1,0,5.153Zm-6.2-3.265a.688.688,0,1,0,0,1.376h6.2a.688.688,0,1,0,0-1.376Z" transform="translate(-199.72 -234.274)" fill="#325a6a"/>
      <path id="Trazado_67892" data-name="Trazado 67892" d="M260.094,259.234H211.089a2.206,2.206,0,0,1-2.2-2.2v-2.706a.944.944,0,0,1,.944-.944H212.4a.687.687,0,0,0,.687-.726.759.759,0,0,0-.779-.65H209.83a.944.944,0,0,1-.944-.944v-8.195a.945.945,0,0,1,.944-.945H212.4a.687.687,0,0,0,.687-.726.759.759,0,0,0-.779-.65H209.83a.945.945,0,0,1-.944-.945v-8.195a.944.944,0,0,1,.944-.944H212.4a.687.687,0,0,0,.687-.726.759.759,0,0,0-.779-.65H209.83a.945.945,0,0,1-.944-.945v-8.195a.944.944,0,0,1,.944-.944H212.4a.687.687,0,0,0,.687-.726.759.759,0,0,0-.779-.651H209.83a.944.944,0,0,1-.944-.944v-8.2a.944.944,0,0,1,.944-.944H212.4a.687.687,0,0,0,.687-.726.759.759,0,0,0-.779-.649H209.83a.944.944,0,0,1-.944-.945v-8.195a.944.944,0,0,1,.944-.945H212.4a.687.687,0,0,0,.687-.726.759.759,0,0,0-.779-.649H209.83a.944.944,0,0,1-.944-.945v-2.705a2.205,2.205,0,0,1,2.2-2.2h49.005a2.206,2.206,0,0,1,2.2,2.2v65.973A2.206,2.206,0,0,1,260.094,259.234Zm-49.32-3.965v1.761a.315.315,0,0,0,.315.315h49.005a.315.315,0,0,0,.315-.315V191.058a.315.315,0,0,0-.315-.315H211.089a.315.315,0,0,0-.315.315v1.761H212.3a2.625,2.625,0,0,1,2.666,2.44,2.555,2.555,0,0,1-.7,1.91,2.587,2.587,0,0,1-1.869.8h-1.621v6.306H212.3a2.625,2.625,0,0,1,2.666,2.439,2.555,2.555,0,0,1-.7,1.911,2.587,2.587,0,0,1-1.869.8h-1.621v6.306H212.3a2.625,2.625,0,0,1,2.666,2.44,2.554,2.554,0,0,1-.7,1.91,2.585,2.585,0,0,1-1.869.8h-1.621V227.2H212.3a2.625,2.625,0,0,1,2.666,2.44,2.554,2.554,0,0,1-.7,1.91,2.585,2.585,0,0,1-1.869.8h-1.621v6.306H212.3a2.625,2.625,0,0,1,2.666,2.44,2.554,2.554,0,0,1-.7,1.91,2.585,2.585,0,0,1-1.869.8h-1.621v6.306H212.3a2.624,2.624,0,0,1,2.666,2.439,2.555,2.555,0,0,1-.7,1.911,2.586,2.586,0,0,1-1.869.8Z" transform="translate(-203.622 -188.855)" fill="#325a6a"/>
      <path id="Trazado_67893" data-name="Trazado 67893" d="M235.122,234.207a.944.944,0,0,1-.944-.944V225.85a.944.944,0,1,1,1.889,0v7.413A.944.944,0,0,1,235.122,234.207Z" transform="translate(-214.39 -204.203)" fill="#325a6a"/>
      <path id="Trazado_67894" data-name="Trazado 67894" d="M235.122,268.465a.944.944,0,0,1-.944-.944v-7.414a.944.944,0,1,1,1.889,0v7.414A.944.944,0,0,1,235.122,268.465Z" transform="translate(-214.39 -218.789)" fill="#325a6a"/>
      <path id="Trazado_67895" data-name="Trazado 67895" d="M256.287,208.82h-2.833a.944.944,0,0,1,0-1.889h2.833a.944.944,0,0,1,0,1.889Z" transform="translate(-222.195 -196.551)" fill="#325a6a"/>
      <path id="Trazado_67896" data-name="Trazado 67896" d="M273.423,208.82h-5.485a.944.944,0,0,1,0-1.889h5.485a.944.944,0,0,1,0,1.889Z" transform="translate(-228.362 -196.551)" fill="#325a6a"/>
      <path id="Trazado_67897" data-name="Trazado 67897" d="M289.873,208.82H287.04a.944.944,0,0,1,0-1.889h2.833a.944.944,0,0,1,0,1.889Z" transform="translate(-236.494 -196.551)" fill="#325a6a"/>
      <path id="Trazado_67898" data-name="Trazado 67898" d="M275.574,223.419h-22.12a.944.944,0,0,1,0-1.888h22.12a.944.944,0,0,1,0,1.888Z" transform="translate(-222.195 -202.767)" fill="#325a6a"/>
      <path id="Trazado_67899" data-name="Trazado 67899" d="M275.574,243.078h-22.12a.944.944,0,0,1,0-1.889h22.12a.944.944,0,0,1,0,1.889Z" transform="translate(-222.195 -211.136)" fill="#325a6a"/>
      <path id="Trazado_67900" data-name="Trazado 67900" d="M275.574,257.678h-22.12a.944.944,0,0,1,0-1.889h22.12a.944.944,0,0,1,0,1.889Z" transform="translate(-222.195 -217.352)" fill="#325a6a"/>
      <path id="Trazado_67901" data-name="Trazado 67901" d="M275.574,277.337h-22.12a.944.944,0,0,1,0-1.889h22.12a.944.944,0,0,1,0,1.889Z" transform="translate(-222.195 -225.722)" fill="#325a6a"/>
      <path id="Trazado_67902" data-name="Trazado 67902" d="M275.574,291.936h-22.12a.944.944,0,0,1,0-1.889h22.12a.944.944,0,0,1,0,1.889Z" transform="translate(-222.195 -231.937)" fill="#325a6a"/>
    </g>
  </g>
</svg>
