<svg id="Grupo_28524" data-name="Grupo 28524" xmlns="http://www.w3.org/2000/svg" width="65.914" height="76.007" viewBox="0 0 65.914 76.007">
  <path id="Trazado_67940" data-name="Trazado 67940" d="M156.137,229.672H114.4a4.988,4.988,0,0,1-4.982-4.983V219.55a1.243,1.243,0,0,1,1.244-1.244H113.8a.9.9,0,1,0,0-1.791h-3.133a1.244,1.244,0,0,1-1.244-1.245v-4.547a1.243,1.243,0,0,1,1.244-1.244H113.8a.9.9,0,1,0,0-1.791h-3.133a1.243,1.243,0,0,1-1.244-1.244V201.9a1.244,1.244,0,0,1,1.244-1.245H113.8a.9.9,0,1,0,0-1.791h-3.133a1.243,1.243,0,0,1-1.244-1.244v-4.547a1.244,1.244,0,0,1,1.244-1.245H113.8a.895.895,0,1,0,0-1.79h-3.133a1.243,1.243,0,0,1-1.244-1.244v-4.548A1.243,1.243,0,0,1,110.663,183H113.8a.9.9,0,1,0,0-1.791h-3.133a1.244,1.244,0,0,1-1.244-1.245v-4.547a1.243,1.243,0,0,1,1.244-1.244H113.8a.9.9,0,1,0,0-1.791h-3.133a1.244,1.244,0,0,1-1.244-1.245V166a4.987,4.987,0,0,1,4.982-4.982h41.736A4.989,4.989,0,0,1,161.121,166v58.69A4.989,4.989,0,0,1,156.137,229.672Zm-44.231-8.877v3.894a2.5,2.5,0,0,0,2.495,2.495h41.736a2.5,2.5,0,0,0,2.495-2.495V166a2.5,2.5,0,0,0-2.495-2.493H114.4A2.5,2.5,0,0,0,111.906,166v3.9H113.8a3.384,3.384,0,1,1,0,6.769h-1.889v2.058H113.8a3.384,3.384,0,1,1,0,6.769h-1.889v2.058H113.8a3.384,3.384,0,1,1,0,6.767h-1.889v2.058H113.8a3.384,3.384,0,1,1,0,6.769h-1.889V205.2H113.8a3.383,3.383,0,1,1,0,6.766h-1.889v2.059H113.8a3.384,3.384,0,1,1,0,6.769Z" transform="translate(-104.146 -161.017)" fill="#325a6a"/>
  <path id="Trazado_67941" data-name="Trazado 67941" d="M157.795,234.717c-.136,0-.275,0-.415-.016l-41.6-3.4a1.245,1.245,0,0,1,.2-2.481l41.6,3.4a2.5,2.5,0,0,0,2.689-2.283l4.781-58.494a2.5,2.5,0,0,0-2.283-2.69l-5.5-.45a1.244,1.244,0,0,1,.2-2.48l5.5.45a4.98,4.98,0,0,1,4.56,5.373l-4.781,58.494a4.979,4.979,0,0,1-4.958,4.576Z" transform="translate(-101.637 -158.71)" fill="#325a6a"/>
  <path id="Trazado_67942" data-name="Trazado 67942" d="M115.507,173.781h-6.265a3.384,3.384,0,1,1,0-6.767h6.265a3.384,3.384,0,1,1,0,6.767Zm-6.265-4.28a.9.9,0,0,0,0,1.791h6.265a.9.9,0,1,0,0-1.791Z" transform="translate(-105.857 -158.135)" fill="#325a6a"/>
  <path id="Trazado_67943" data-name="Trazado 67943" d="M115.507,179.744h-6.265a3.384,3.384,0,1,1,0-6.769h6.265a3.384,3.384,0,1,1,0,6.769Zm-6.265-4.28a.9.9,0,1,0,0,1.791h6.265a.9.9,0,1,0,0-1.791Z" transform="translate(-105.857 -155.271)" fill="#325a6a"/>
  <path id="Trazado_67944" data-name="Trazado 67944" d="M115.507,185.7h-6.265a3.384,3.384,0,1,1,0-6.767h6.265a3.384,3.384,0,1,1,0,6.767Zm-6.265-4.279a.895.895,0,1,0,0,1.79h6.265a.895.895,0,1,0,0-1.79Z" transform="translate(-105.857 -152.407)" fill="#325a6a"/>
  <path id="Trazado_67945" data-name="Trazado 67945" d="M115.507,191.667h-6.265a3.384,3.384,0,0,1,0-6.769h6.265a3.384,3.384,0,1,1,0,6.769Zm-6.265-4.28a.9.9,0,1,0,0,1.791h6.265a.9.9,0,1,0,0-1.791Z" transform="translate(-105.857 -149.542)" fill="#325a6a"/>
  <path id="Trazado_67946" data-name="Trazado 67946" d="M115.507,197.627h-6.265a3.383,3.383,0,1,1,0-6.766h6.265a3.383,3.383,0,1,1,0,6.766Zm-6.265-4.279a.9.9,0,0,0,0,1.791h6.265a.9.9,0,1,0,0-1.791Z" transform="translate(-105.857 -146.677)" fill="#325a6a"/>
  <path id="Trazado_67947" data-name="Trazado 67947" d="M115.507,203.591h-6.265a3.384,3.384,0,0,1,0-6.769h6.265a3.384,3.384,0,1,1,0,6.769Zm-6.265-4.28a.9.9,0,0,0,0,1.791h6.265a.9.9,0,1,0,0-1.791Z" transform="translate(-105.857 -143.813)" fill="#325a6a"/>
  <path id="Trazado_67948" data-name="Trazado 67948" d="M131.7,179.194h-13.3a1.244,1.244,0,0,1-1.245-1.245v-9.693a1.244,1.244,0,0,1,1.245-1.244h13.3a1.243,1.243,0,0,1,1.244,1.244v9.693A1.244,1.244,0,0,1,131.7,179.194Zm-12.053-2.489h10.809v-7.2H119.65Z" transform="translate(-100.426 -158.136)" fill="#325a6a"/>
  <path id="Trazado_67949" data-name="Trazado 67949" d="M142.169,179.194H131.929a1.244,1.244,0,0,1-1.244-1.245v-9.693a1.243,1.243,0,0,1,1.244-1.244h10.241a1.243,1.243,0,0,1,1.244,1.244v9.693A1.244,1.244,0,0,1,142.169,179.194Zm-9-2.489h7.752v-7.2h-7.752Z" transform="translate(-93.927 -158.136)" fill="#325a6a"/>
  <path id="Trazado_67950" data-name="Trazado 67950" d="M131.7,189.289h-13.3a1.244,1.244,0,0,1-1.245-1.244v-9.693a1.244,1.244,0,0,1,1.245-1.244h13.3a1.243,1.243,0,0,1,1.244,1.244v9.693A1.243,1.243,0,0,1,131.7,189.289ZM119.65,186.8h10.809V179.6H119.65Z" transform="translate(-100.426 -153.285)" fill="#325a6a"/>
  <path id="Trazado_67951" data-name="Trazado 67951" d="M142.169,189.289H131.929a1.243,1.243,0,0,1-1.244-1.244v-9.693a1.243,1.243,0,0,1,1.244-1.244h10.241a1.243,1.243,0,0,1,1.244,1.244v9.693A1.243,1.243,0,0,1,142.169,189.289Zm-9-2.487h7.752V179.6h-7.752Z" transform="translate(-93.927 -153.285)" fill="#325a6a"/>
  <path id="Trazado_67952" data-name="Trazado 67952" d="M143.548,191.9H118.406a1.244,1.244,0,1,1,0-2.489h25.142a1.244,1.244,0,0,1,0,2.489Z" transform="translate(-100.426 -147.372)" fill="#325a6a"/>
  <path id="Trazado_67953" data-name="Trazado 67953" d="M143.548,196.033H118.406a1.244,1.244,0,1,1,0-2.489h25.142a1.244,1.244,0,0,1,0,2.489Z" transform="translate(-100.426 -145.388)" fill="#325a6a"/>
  <path id="Trazado_67954" data-name="Trazado 67954" d="M143.548,200.161H118.406a1.244,1.244,0,1,1,0-2.487h25.142a1.244,1.244,0,1,1,0,2.487Z" transform="translate(-100.426 -143.404)" fill="#325a6a"/>
</svg>
