<svg xmlns="http://www.w3.org/2000/svg" xmlns:xlink="http://www.w3.org/1999/xlink" width="91.927" height="91.927" viewBox="0 0 91.927 91.927">
  <defs>
    <radialGradient id="radial-gradient" cx="0.076" cy="0.019" r="1.465" gradientTransform="translate(0.001)" gradientUnits="objectBoundingBox">
      <stop offset="0" stop-color="#f6f6f7"/>
      <stop offset="0.477" stop-color="#f9f9fa"/>
      <stop offset="0.715" stop-color="#fff"/>
    </radialGradient>
  </defs>
  <g id="Grupo_29507" data-name="Grupo 29507" transform="translate(1246 4479)">
    <g id="Grupo_29499" data-name="Grupo 29499" transform="translate(-1321 -4452)">
      <g id="Grupo_18423" data-name="Grupo 18423" transform="translate(75 -27)">
        <g id="Grupo_18421" data-name="Grupo 18421">
          <g id="Grupo_18420" data-name="Grupo 18420">
            <g id="Grupo_18419" data-name="Grupo 18419">
              <path id="Trazado_40936" data-name="Trazado 40936" d="M286.55,2191.684a45.964,45.964,0,1,1-45.963-45.962A45.963,45.963,0,0,1,286.55,2191.684Z" transform="translate(-194.623 -2145.721)" fill="#fff"/>
            </g>
          </g>
        </g>
        <path id="Trazado_40937" data-name="Trazado 40937" d="M286.23,2191.334a45.963,45.963,0,1,0-45.963,45.965A45.782,45.782,0,0,0,286.23,2191.334Z" transform="translate(-194.303 -2145.372)" fill="url(#radial-gradient)"/>
        <path id="Trazado_40938" data-name="Trazado 40938" d="M272.56,2188.562a35.084,35.084,0,1,0-35.084,35.084A34.953,34.953,0,0,0,272.56,2188.562Z" transform="translate(-191.373 -2142.446)" fill="none" stroke="#3487ad" stroke-miterlimit="10" stroke-width="4"/>
        <g id="Grupo_18422" data-name="Grupo 18422" transform="translate(8.143 25.805)">
          <path id="Trazado_40939" data-name="Trazado 40939" d="M279.682,2164.488a45.969,45.969,0,0,1-79.137,45.773,45.823,45.823,0,0,0,79.137-45.773Z" transform="translate(-200.545 -2164.488)" fill="#eceef0"/>
        </g>
      </g>
    </g>
    <g id="Grupo_29502" data-name="Grupo 29502" transform="translate(-1211 -4452.31)">
      <rect id="Rectángulo_25693" data-name="Rectángulo 25693" width="20.177" height="27.911" transform="translate(0.381 8.255)" fill="#fff"/>
      <g id="Grupo_26554" data-name="Grupo 26554" transform="translate(0 7.874)">
        <path id="Trazado_67398" data-name="Trazado 67398" d="M2472.065,1927.577h-20.177a.381.381,0,0,1-.381-.381v-27.911a.381.381,0,0,1,.381-.381h13.367a.381.381,0,0,1,0,.761h-12.986v27.15h19.415v-23.885a.381.381,0,1,1,.761,0V1927.2A.381.381,0,0,1,2472.065,1927.577Z" transform="translate(-2451.507 -1898.904)" fill="#325a6a"/>
      </g>
      <g id="Grupo_26555" data-name="Grupo 26555" transform="translate(3.45 11.52)">
        <path id="Trazado_67399" data-name="Trazado 67399" d="M2476.136,1919.792h-5.206a.381.381,0,1,1,0-.761h5.206a.381.381,0,1,1,0,.761Z" transform="translate(-2470.55 -1919.03)" fill="#325a6a"/>
      </g>
      <g id="Grupo_26556" data-name="Grupo 26556" transform="translate(3.45 15.611)">
        <path id="Trazado_67400" data-name="Trazado 67400" d="M2476.136,1942.375h-5.206a.381.381,0,1,1,0-.762h5.206a.381.381,0,1,1,0,.762Z" transform="translate(-2470.55 -1941.613)" fill="#325a6a"/>
      </g>
      <g id="Grupo_26557" data-name="Grupo 26557" transform="translate(3.45 19.702)">
        <path id="Trazado_67401" data-name="Trazado 67401" d="M2476.136,1964.958h-5.206a.381.381,0,0,1,0-.762h5.206a.381.381,0,0,1,0,.762Z" transform="translate(-2470.55 -1964.196)" fill="#325a6a"/>
      </g>
      <g id="Grupo_26558" data-name="Grupo 26558" transform="translate(3.45 23.793)">
        <path id="Trazado_67402" data-name="Trazado 67402" d="M2484.455,1987.542h-13.524a.381.381,0,1,1,0-.761h13.524a.381.381,0,1,1,0,.761Z" transform="translate(-2470.55 -1986.78)" fill="#325a6a"/>
      </g>
      <g id="Grupo_26559" data-name="Grupo 26559" transform="translate(3.45 27.884)">
        <path id="Trazado_67403" data-name="Trazado 67403" d="M2484.455,2010.125h-13.524a.381.381,0,1,1,0-.761h13.524a.381.381,0,1,1,0,.761Z" transform="translate(-2470.55 -2009.363)" fill="#325a6a"/>
      </g>
      <g id="Grupo_26560" data-name="Grupo 26560" transform="translate(3.45 31.975)">
        <path id="Trazado_67404" data-name="Trazado 67404" d="M2484.455,2032.708h-13.524a.381.381,0,0,1,0-.762h13.524a.381.381,0,0,1,0,.762Z" transform="translate(-2470.55 -2031.946)" fill="#325a6a"/>
      </g>
      <g id="Grupo_26562" data-name="Grupo 26562" transform="translate(12.213 0)">
        <g id="Grupo_26561" data-name="Grupo 26561">
          <path id="Trazado_67405" data-name="Trazado 67405" d="M2527.754,1860.038l.984-2.118a.627.627,0,0,1,.853-.311l1.449.732a.68.68,0,0,1,.295.891l-.984,2.118-5.895,12.688-2.663,2.912a.445.445,0,0,1-.754-.422l.82-3.8,5.895-12.688,2.6,1.312-5.895,12.688Z" transform="translate(-2520.646 -1857.161)" fill="#5d9af0"/>
          <path id="Trazado_67406" data-name="Trazado 67406" d="M2519.752,1875.754a.813.813,0,0,1-.373-.092.84.84,0,0,1-.434-.937l.821-3.8a.39.39,0,0,1,.027-.08l5.894-12.688.984-2.119a1.023,1.023,0,0,1,.595-.542.985.985,0,0,1,.775.052l1.449.732a1.064,1.064,0,0,1,.469,1.391l-.983,2.117-5.895,12.689a.374.374,0,0,1-.07.1l-2.658,2.906A.814.814,0,0,1,2519.752,1875.754Zm.75-4.628-.812,3.761a.081.081,0,0,0,.039.1c.028.014.043.007.063-.015l2.624-2.868,5.714-12.3-1.917-.968Zm6.032-12.984,1.917.968.818-1.761a.3.3,0,0,0-.121-.391l-1.449-.732a.229.229,0,0,0-.182-.012.269.269,0,0,0-.154.144Z" transform="translate(-2518.925 -1855.438)" fill="#325a6a"/>
        </g>
      </g>
    </g>
  </g>
</svg>
