<svg xmlns="http://www.w3.org/2000/svg" xmlns:xlink="http://www.w3.org/1999/xlink" width="91.927" height="91.928" viewBox="0 0 91.927 91.928">
  <defs>
    <radialGradient id="radial-gradient" cx="0.076" cy="0.019" r="1.465" gradientTransform="translate(0.001)" gradientUnits="objectBoundingBox">
      <stop offset="0" stop-color="#f6f6f7"/>
      <stop offset="0.477" stop-color="#f9f9fa"/>
      <stop offset="0.715" stop-color="#fff"/>
    </radialGradient>
  </defs>
  <g id="Grupo_29524" data-name="Grupo 29524" transform="translate(1209 -8585.536)">
    <g id="Grupo_29523" data-name="Grupo 29523" transform="translate(-1284 8612.536)">
      <g id="Grupo_18423" data-name="Grupo 18423" transform="translate(75 -27)">
        <g id="Grupo_18421" data-name="Grupo 18421">
          <g id="Grupo_18420" data-name="Grupo 18420">
            <g id="Grupo_18419" data-name="Grupo 18419">
              <path id="Trazado_40936" data-name="Trazado 40936" d="M286.55,2191.684a45.964,45.964,0,1,1-45.963-45.962A45.963,45.963,0,0,1,286.55,2191.684Z" transform="translate(-194.623 -2145.721)" fill="#fff"/>
            </g>
          </g>
        </g>
        <path id="Trazado_40937" data-name="Trazado 40937" d="M286.23,2191.334a45.963,45.963,0,1,0-45.963,45.965A45.782,45.782,0,0,0,286.23,2191.334Z" transform="translate(-194.303 -2145.372)" fill="url(#radial-gradient)"/>
        <path id="Trazado_40938" data-name="Trazado 40938" d="M272.56,2188.562a35.084,35.084,0,1,0-35.084,35.084A34.953,34.953,0,0,0,272.56,2188.562Z" transform="translate(-191.373 -2142.446)" fill="none" stroke="#3487ad" stroke-miterlimit="10" stroke-width="4"/>
        <g id="Grupo_18422" data-name="Grupo 18422" transform="translate(8.143 25.805)">
          <path id="Trazado_40939" data-name="Trazado 40939" d="M279.682,2164.488a45.969,45.969,0,0,1-79.137,45.773,45.823,45.823,0,0,0,79.137-45.773Z" transform="translate(-200.545 -2164.488)" fill="#eceef0"/>
        </g>
      </g>
      <path id="Trazado_68595" data-name="Trazado 68595" d="M-1930.953,917.3c.811.244,1.615.509,2.433.727a32.769,32.769,0,0,0,11.631.963c.727-.07,1.45-.181,2.177-.253.225-.022.289-.169.367-.329q2.914-5.961,5.828-11.921,4.172-8.527,8.346-17.053a.948.948,0,0,1,.973-.625.861.861,0,0,1,.785.734,1.43,1.43,0,0,1-.146.731c-.948,1.965-1.914,3.922-2.873,5.882q-5.76,11.773-11.513,23.55a1.31,1.31,0,0,1-1.073.8,35.385,35.385,0,0,1-10.04.222.651.651,0,0,0-.336.032c.381.119.759.243,1.142.354a47.919,47.919,0,0,0,9.355,1.769c1.181.1,2.367.125,3.551.193a.365.365,0,0,0,.408-.239q5.263-10.78,10.538-21.554c.3-.612.6-1.225.9-1.835a.916.916,0,0,1,1.256-.486.918.918,0,0,1,.378,1.293q-3.52,7.2-7.042,14.394c-1.558,3.184-3.122,6.364-4.667,9.555a1.156,1.156,0,0,1-1.181.735,50.1,50.1,0,0,1-16.53-2.863,44.064,44.064,0,0,1-10.736-5.466c-.436-.307-.856-.637-1.271-.972a.9.9,0,0,1-.244-1.193q3.209-6.411,6.417-12.823,3.564-7.128,7.122-14.259a1.126,1.126,0,0,1,1.123-.7,68.221,68.221,0,0,0,8.135-.421,39.982,39.982,0,0,0,9.889-2.193,23.64,23.64,0,0,0,2.168-1.017.962.962,0,0,1,1.153.062.915.915,0,0,1,.175,1.163q-1.815,3.712-3.633,7.422-5.741,11.733-11.477,23.469a1.471,1.471,0,0,1-.784.716,19,19,0,0,1-6.155,1.512,32.139,32.139,0,0,1-6.536-.146Z" transform="translate(2037.821 -885.934)" fill="#656565"/>
    </g>
  </g>
</svg>
