<svg id="Grupo_28522" data-name="Grupo 28522" xmlns="http://www.w3.org/2000/svg" width="74.036" height="62.594" viewBox="0 0 74.036 62.594">
  <path id="Trazado_67918" data-name="Trazado 67918" d="M128.522,154.863a1.246,1.246,0,0,1-1.245-1.245V100.483a8.224,8.224,0,0,1,8.215-8.214h28.8a1.245,1.245,0,0,1,1.245,1.244v53.135a1.245,1.245,0,0,1-1.245,1.244h-28.8a5.733,5.733,0,0,0-5.727,5.727A1.245,1.245,0,0,1,128.522,154.863Zm6.97-60.106a5.734,5.734,0,0,0-5.727,5.727v47.251a8.185,8.185,0,0,1,5.727-2.332h27.559V94.756Z" transform="translate(-91.504 -92.269)" fill="#325a6a"/>
  <path id="Trazado_67919" data-name="Trazado 67919" d="M162.191,137.618H128.522a1.244,1.244,0,1,1,0-2.489h32.424V129.4a1.244,1.244,0,1,1,2.489,0v6.97A1.245,1.245,0,0,1,162.191,137.618Z" transform="translate(-91.504 -75.025)" fill="#325a6a"/>
  <path id="Trazado_67920" data-name="Trazado 67920" d="M140.132,154.863a1.246,1.246,0,0,1-1.245-1.245,5.733,5.733,0,0,0-5.727-5.727h-28.8a1.243,1.243,0,0,1-1.244-1.244V93.513a1.243,1.243,0,0,1,1.244-1.244h28.8a8.224,8.224,0,0,1,8.215,8.214v53.135A1.245,1.245,0,0,1,140.132,154.863ZM105.6,145.4h27.559a8.185,8.185,0,0,1,5.727,2.332V100.483a5.734,5.734,0,0,0-5.727-5.727H105.6Z" transform="translate(-103.114 -92.269)" fill="#325a6a"/>
  <path id="Trazado_67921" data-name="Trazado 67921" d="M139.449,137.618H105.78a1.245,1.245,0,0,1-1.245-1.245V129.4a1.244,1.244,0,1,1,2.489,0v5.727h32.426a1.244,1.244,0,0,1,0,2.489Z" transform="translate(-102.431 -75.025)" fill="#325a6a"/>
  <path id="Trazado_67922" data-name="Trazado 67922" d="M156.3,137.406H133.941a1.244,1.244,0,0,1-1.245-1.244V99.731a1.244,1.244,0,0,1,2.489,0v35.188H156.3a1.244,1.244,0,0,1,0,2.487Z" transform="translate(-88.9 -89.281)" fill="#325a6a"/>
  <path id="Trazado_67923" data-name="Trazado 67923" d="M138.294,135.315a1.245,1.245,0,0,1-1.245-1.244v-7.365a1.242,1.242,0,0,1,.591-1.057l4.934-3.056V117.1a1.243,1.243,0,0,1,.34-.856l4.394-4.637v-7.528a1.243,1.243,0,0,1,1.244-1.244h5.655a1.244,1.244,0,0,1,0,2.489H149.8v6.778a1.243,1.243,0,0,1-.341.856l-4.394,4.638v5.687a1.241,1.241,0,0,1-.589,1.057l-4.934,3.054v6.673A1.243,1.243,0,0,1,138.294,135.315Z" transform="translate(-86.809 -87.19)" fill="#325a6a"/>
  <path id="Trazado_67924" data-name="Trazado 67924" d="M126.264,101.134a3.412,3.412,0,0,1-2.412-1.023c-.811-.765-1.478-.558-3.035.176-1.426.671-3.376,1.592-5.251-.176-.81-.765-1.478-.558-3.035.176-1.424.671-3.376,1.592-5.25-.176a.995.995,0,0,1,1.365-1.448c.811.764,1.478.558,3.036-.176,1.424-.672,3.374-1.592,5.25.176.811.764,1.476.558,3.035-.176,1.426-.672,3.376-1.592,5.251.176.811.764,1.478.558,3.035-.176,1.424-.672,3.374-1.592,5.25.176a.995.995,0,1,1-1.365,1.448c-.811-.765-1.478-.558-3.036.176A6.843,6.843,0,0,1,126.264,101.134Z" transform="translate(-101.262 -89.688)" fill="#325a6a"/>
  <path id="Trazado_67925" data-name="Trazado 67925" d="M126.264,107.086a3.412,3.412,0,0,1-2.412-1.023c-.81-.762-1.476-.558-3.035.176-1.426.671-3.376,1.59-5.251-.176-.81-.762-1.476-.558-3.035.176-1.424.671-3.376,1.59-5.25-.176a.995.995,0,1,1,1.365-1.448c.811.764,1.478.558,3.036-.176,1.424-.672,3.374-1.59,5.25.175.811.767,1.476.56,3.036-.175,1.424-.672,3.374-1.59,5.25.175.811.767,1.476.56,3.035-.175,1.424-.672,3.374-1.59,5.25.175a1,1,0,0,1-1.365,1.449c-.81-.764-1.476-.558-3.036.176A6.843,6.843,0,0,1,126.264,107.086Z" transform="translate(-101.262 -86.828)" fill="#325a6a"/>
  <path id="Trazado_67926" data-name="Trazado 67926" d="M126.264,113.038a3.412,3.412,0,0,1-2.412-1.023c-.811-.765-1.478-.558-3.035.176-1.426.671-3.376,1.592-5.251-.176-.81-.765-1.478-.558-3.035.176-1.424.671-3.376,1.592-5.25-.176a.995.995,0,1,1,1.365-1.448c.811.764,1.478.558,3.036-.176,1.424-.671,3.374-1.592,5.25.176.811.764,1.476.558,3.035-.176,1.426-.671,3.376-1.592,5.251.176.811.764,1.478.558,3.035-.176,1.424-.671,3.374-1.592,5.25.176a.995.995,0,1,1-1.365,1.448c-.811-.765-1.478-.558-3.036.176A6.821,6.821,0,0,1,126.264,113.038Z" transform="translate(-101.262 -83.968)" fill="#325a6a"/>
  <path id="Trazado_67927" data-name="Trazado 67927" d="M126.264,118.99a3.412,3.412,0,0,1-2.412-1.023c-.81-.762-1.476-.56-3.035.176-1.426.672-3.376,1.592-5.251-.176-.81-.762-1.476-.56-3.035.176-1.424.672-3.376,1.592-5.25-.176a.995.995,0,1,1,1.365-1.448c.811.765,1.478.557,3.036-.176,1.424-.672,3.374-1.59,5.25.175.811.767,1.476.558,3.036-.175,1.424-.672,3.374-1.59,5.25.175.811.767,1.476.558,3.035-.175,1.424-.672,3.374-1.59,5.25.175a1,1,0,0,1-1.365,1.449c-.81-.764-1.476-.56-3.036.176A6.843,6.843,0,0,1,126.264,118.99Z" transform="translate(-101.262 -81.109)" fill="#325a6a"/>
  <path id="Trazado_67928" data-name="Trazado 67928" d="M126.264,124.942a3.412,3.412,0,0,1-2.412-1.023c-.811-.764-1.478-.558-3.035.176-1.426.671-3.376,1.592-5.251-.176-.81-.764-1.478-.558-3.035.176-1.424.671-3.376,1.592-5.25-.176a.995.995,0,1,1,1.365-1.448c.811.764,1.478.558,3.036-.176,1.424-.671,3.374-1.592,5.25.176.811.764,1.476.558,3.035-.176,1.426-.671,3.376-1.592,5.251.176.811.764,1.478.558,3.035-.176,1.424-.671,3.374-1.592,5.25.176a.995.995,0,1,1-1.365,1.448c-.811-.764-1.478-.558-3.036.176A6.821,6.821,0,0,1,126.264,124.942Z" transform="translate(-101.262 -78.249)" fill="#325a6a"/>
</svg>
