<svg id="Grupo_28521" data-name="Grupo 28521" xmlns="http://www.w3.org/2000/svg" width="79.84" height="57.631" viewBox="0 0 79.84 57.631">
  <path id="Trazado_67903" data-name="Trazado 67903" d="M291.015,292.443a1.245,1.245,0,0,1-1.244-1.245V248.826a8.363,8.363,0,0,1,8.353-8.354h31.567a1.243,1.243,0,0,1,1.244,1.244v42.373a1.243,1.243,0,0,1-1.244,1.244H298.124a5.871,5.871,0,0,0-5.864,5.866A1.246,1.246,0,0,1,291.015,292.443Zm7.109-49.484a5.873,5.873,0,0,0-5.864,5.867v36.427a8.332,8.332,0,0,1,5.864-2.41h30.323V242.959Z" transform="translate(-251.095 -240.472)" fill="#325a6a"/>
  <path id="Trazado_67904" data-name="Trazado 67904" d="M303.567,292.443a1.245,1.245,0,0,1-1.244-1.245,5.872,5.872,0,0,0-5.866-5.866H264.891a1.243,1.243,0,0,1-1.244-1.244V241.716a1.244,1.244,0,0,1,1.244-1.244h31.567a8.363,8.363,0,0,1,8.354,8.354V291.2A1.246,1.246,0,0,1,303.567,292.443Zm-37.431-9.6h30.322a8.336,8.336,0,0,1,5.866,2.41V248.826a5.873,5.873,0,0,0-5.866-5.867H266.136Z" transform="translate(-263.647 -240.472)" fill="#325a6a"/>
  <path id="Trazado_67905" data-name="Trazado 67905" d="M303.208,284.351c-.1,0-.194,0-.287-.007a7.811,7.811,0,0,1-7.968-5.653H266.236a1.245,1.245,0,0,1-1.244-1.245v-7.109a1.244,1.244,0,1,1,2.487,0V276.2h28.474a1.244,1.244,0,0,1,1.229,1.047c.773,4.813,5.475,4.621,5.673,4.607.044,0,.087,0,.132,0a5.359,5.359,0,0,0,5.672-4.607,1.244,1.244,0,0,1,1.229-1.047h28.474v-5.866a1.244,1.244,0,1,1,2.489,0v7.109a1.245,1.245,0,0,1-1.245,1.245H310.89A7.8,7.8,0,0,1,303.208,284.351Z" transform="translate(-263.001 -226.72)" fill="#325a6a"/>
  <path id="Trazado_67906" data-name="Trazado 67906" d="M315.809,253.516h-8.852a1.245,1.245,0,0,1-1.244-1.245v-6.185a1.243,1.243,0,0,1,1.244-1.244h8.852a1.245,1.245,0,0,1,1.245,1.244v6.185A1.246,1.246,0,0,1,315.809,253.516Zm-7.608-2.489h6.365v-3.7H308.2Z" transform="translate(-243.434 -238.372)" fill="#325a6a"/>
  <path id="Trazado_67907" data-name="Trazado 67907" d="M315.809,261.3h-8.852a1.244,1.244,0,0,1-1.244-1.245v-6.186a1.243,1.243,0,0,1,1.244-1.244h8.852a1.245,1.245,0,0,1,1.245,1.244v6.186A1.245,1.245,0,0,1,315.809,261.3Zm-7.608-2.489h6.365v-3.7H308.2Z" transform="translate(-243.434 -234.635)" fill="#325a6a"/>
  <path id="Trazado_67908" data-name="Trazado 67908" d="M315.809,269.074h-8.852a1.243,1.243,0,0,1-1.244-1.244v-6.185a1.243,1.243,0,0,1,1.244-1.244h8.852a1.245,1.245,0,0,1,1.245,1.244v6.185A1.245,1.245,0,0,1,315.809,269.074Zm-7.608-2.489h6.365v-3.7H308.2Z" transform="translate(-243.434 -230.896)" fill="#325a6a"/>
  <path id="Trazado_67909" data-name="Trazado 67909" d="M307.332,249.418H295.6a1.244,1.244,0,0,1,0-2.487h11.731a1.244,1.244,0,0,1,0,2.487Z" transform="translate(-248.891 -237.369)" fill="#325a6a"/>
  <path id="Trazado_67910" data-name="Trazado 67910" d="M307.332,257.487H295.6a1.244,1.244,0,0,1,0-2.489h11.731a1.244,1.244,0,0,1,0,2.489Z" transform="translate(-248.891 -233.492)" fill="#325a6a"/>
  <path id="Trazado_67911" data-name="Trazado 67911" d="M307.332,264.978H295.6a1.244,1.244,0,0,1,0-2.489h11.731a1.244,1.244,0,0,1,0,2.489Z" transform="translate(-248.891 -229.893)" fill="#325a6a"/>
  <path id="Trazado_67912" data-name="Trazado 67912" d="M277.944,253.516h-8.852a1.245,1.245,0,0,1-1.244-1.245v-6.185a1.243,1.243,0,0,1,1.244-1.244h8.852a1.243,1.243,0,0,1,1.244,1.244v6.185A1.245,1.245,0,0,1,277.944,253.516Zm-7.607-2.489H276.7v-3.7h-6.362Z" transform="translate(-261.628 -238.372)" fill="#325a6a"/>
  <path id="Trazado_67913" data-name="Trazado 67913" d="M277.944,261.3h-8.852a1.244,1.244,0,0,1-1.244-1.245v-6.186a1.243,1.243,0,0,1,1.244-1.244h8.852a1.243,1.243,0,0,1,1.244,1.244v6.186A1.244,1.244,0,0,1,277.944,261.3Zm-7.607-2.489H276.7v-3.7h-6.362Z" transform="translate(-261.628 -234.635)" fill="#325a6a"/>
  <path id="Trazado_67914" data-name="Trazado 67914" d="M277.944,269.074h-8.852a1.243,1.243,0,0,1-1.244-1.244v-6.185a1.243,1.243,0,0,1,1.244-1.244h8.852a1.243,1.243,0,0,1,1.244,1.244v6.185A1.243,1.243,0,0,1,277.944,269.074Zm-7.607-2.489H276.7v-3.7h-6.362Z" transform="translate(-261.628 -230.896)" fill="#325a6a"/>
  <path id="Trazado_67915" data-name="Trazado 67915" d="M290.236,249.418H278.5a1.244,1.244,0,1,1,0-2.487h11.731a1.244,1.244,0,1,1,0,2.487Z" transform="translate(-257.106 -237.369)" fill="#325a6a"/>
  <path id="Trazado_67916" data-name="Trazado 67916" d="M290.236,257.487H278.5a1.244,1.244,0,0,1,0-2.489h11.731a1.244,1.244,0,1,1,0,2.489Z" transform="translate(-257.106 -233.492)" fill="#325a6a"/>
  <path id="Trazado_67917" data-name="Trazado 67917" d="M290.236,264.978H278.5a1.244,1.244,0,0,1,0-2.489h11.731a1.244,1.244,0,1,1,0,2.489Z" transform="translate(-257.106 -229.893)" fill="#325a6a"/>
</svg>
