<svg xmlns="http://www.w3.org/2000/svg" width="264.07" height="163.697" viewBox="0 0 264.07 163.697">
  <g id="Grupo_27116" data-name="Grupo 27116" transform="translate(-1575.5 -8793.435)">
    <g id="Grupo_26890" data-name="Grupo 26890" transform="translate(1575.5 8793.435)" opacity="0.1" style="isolation: isolate">
      <path id="Trazado_67729" data-name="Trazado 67729" d="M1832.813,8957.083H1591.737s-29.069-19.43-9.416-55.819c17.9-33.151,30.849-12.5,25.434-72-2.165-23.807,13.391-35.806,34.941-35.824,21.317-.02,43.585,9.1,64.089,4.9,6.566-1.343,13.251-2.359,17.213-2.781,18.053-2.1,33.262-1.133,45.87,1.945,46.563,11.361,57.641,51.472,45.372,71.913C1798.237,8897.742,1859.292,8909.969,1832.813,8957.083Z" transform="translate(-1575.5 -8793.435)" fill="#8bd0e4"/>
    </g>
    <g id="Grupo_26893" data-name="Grupo 26893" transform="translate(1724.228 8865.814)">
      <g id="Grupo_26891" data-name="Grupo 26891" transform="translate(0.457 4.38)">
        <path id="Trazado_67730" data-name="Trazado 67730" d="M1690.665,8875.635s4.875-20.661,21.32-22.933a4.054,4.054,0,0,1,4.264,3.131c1.065,3.521-5.3,3.549-9.229,4.965S1693.922,8868.223,1690.665,8875.635Z" transform="translate(-1690.665 -8852.689)" fill="#d2efff"/>
      </g>
      <g id="Grupo_26892" data-name="Grupo 26892">
        <path id="Trazado_67731" data-name="Trazado 67731" d="M1690.4,8872.766s-1.71-17.113,10.291-23.187a3.284,3.284,0,0,1,4.092,1.275c1.745,2.418-3.122,4.113-5.762,6.236S1690.938,8866.229,1690.4,8872.766Z" transform="translate(-1690.312 -8849.308)" fill="#d2efff"/>
      </g>
    </g>
    <g id="Grupo_26898" data-name="Grupo 26898" transform="translate(1681.247 8825.044)" opacity="0.8">
      <g id="Grupo_26894" data-name="Grupo 26894">
        <path id="Trazado_67732" data-name="Trazado 67732" d="M1682.535,8849.789s10.258-1.29,8.936-9.226c0,0-1.539-5.166-4.476-7.525,0,0-2.06,10.2-3.933,9.7s3.114-11.2,3.114-11.2-7.086-7.808-10.677-8.875c0,0,1.707,11.466.015,10.52s-4.025-12.8-4.025-12.8-8.349-5.334-11.968-.571-2.364,8.386-1.163,9.263,9.83,4.248,9.155,5.271-7.195.455-10.02-1.857c0,0-.005,10.249,4.856,11.7s7.486-.855,10.475.1,4.789,2.592,3.023,2.784-6.456-2.321-9.6-1.281-5.541,1.5-1.556,4.152,12.014,5.265,14.931,2.552Z" transform="translate(-1657.132 -8817.836)" fill="#aedfff"/>
      </g>
      <g id="Grupo_26897" data-name="Grupo 26897" transform="translate(5.834 5.323)">
        <g id="Grupo_26895" data-name="Grupo 26895">
          <path id="Trazado_67733" data-name="Trazado 67733" d="M1661.636,8821.945s20.33,17.074,19.568,26.63a19.185,19.185,0,0,0-1.071,9.042l-.679,1.671s-.145-6.68-1.166-8C1678.288,8851.285,1686.51,8846.055,1661.636,8821.945Z" transform="translate(-1661.636 -8821.945)" fill="#aedfff"/>
        </g>
        <g id="Grupo_26896" data-name="Grupo 26896" transform="translate(14.29 34.197)">
          <path id="Trazado_67734" data-name="Trazado 67734" d="M1676.875,8849.818a16.658,16.658,0,0,1-3.38,12.78l-.828-.625s3.884-6.984,3.5-11.444S1676.875,8849.818,1676.875,8849.818Z" transform="translate(-1672.667 -8848.343)" fill="#aedfff"/>
        </g>
      </g>
    </g>
    <g id="Grupo_26902" data-name="Grupo 26902" transform="translate(1621.767 8818.757)" opacity="0.5">
      <g id="Grupo_26899" data-name="Grupo 26899">
        <path id="Trazado_67735" data-name="Trazado 67735" d="M1657.652,8846.37s12.818-6.977,6.993-16.725c0,0-4.683-6-9.757-7.587,0,0,2.543,14.462-.177,14.769s-1.671-16.319-1.671-16.319-13.335-6.609-18.6-6.164c0,0,8.149,14.189,5.438,13.817S1628,8813.417,1628,8813.417s-13.719-2.712-16.024,5.411,1.213,12.239,3.242,12.772,15.1.521,14.746,2.214-9.221,4.3-14.125,2.718c0,0,5.272,13.477,12.41,12.882s9.4-4.981,13.815-5.268,7.629.939,5.408,2.1-9.682.273-13.283,3.26-6.509,4.822.095,6.26,18.5.731,20.936-4.334Z" transform="translate(-1611.216 -8812.982)" fill="#d2efff"/>
      </g>
      <g id="Grupo_26901" data-name="Grupo 26901" transform="translate(7.006 8.467)">
        <g id="Grupo_26900" data-name="Grupo 26900">
          <path id="Trazado_67736" data-name="Trazado 67736" d="M1616.624,8819.519s35.512,11.971,39.431,24.921c0,0-.414,6.276-2.437,5.064C1653.618,8849.5,1661.73,8838.4,1616.624,8819.519Z" transform="translate(-1616.624 -8819.519)" fill="#d2efff"/>
        </g>
      </g>
    </g>
    <g id="Grupo_26907" data-name="Grupo 26907" transform="translate(1730.967 8921.316)">
      <g id="Grupo_26903" data-name="Grupo 26903" transform="translate(14.495)">
        <path id="Trazado_67737" data-name="Trazado 67737" d="M1710.042,8899.257s1.361-8.278,7.755-6.961c0,0,4.143,1.405,5.966,3.859,0,0-8.332,1.357-7.984,2.892s9.175-2.181,9.175-2.181,6.113,5.986,6.868,8.93c0,0-9.245-1.736-8.53-.335s10.252,3.657,10.252,3.657,4.069,6.934.1,9.724-6.874,1.658-7.548.656-3.141-8.1-3.992-7.584-.591,5.82,1.2,8.181c0,0-8.312-.31-9.343-4.3s.925-6.045.245-8.5-1.955-3.963-2.166-2.538,1.685,5.309.745,7.828-1.385,4.446-3.416,1.132-3.9-9.9-1.61-12.184Z" transform="translate(-1706.704 -8892.154)" fill="#bbe7ff"/>
      </g>
      <g id="Grupo_26906" data-name="Grupo 26906" transform="translate(0 7.098)">
        <g id="Grupo_26904" data-name="Grupo 26904" transform="translate(9.094)">
          <path id="Trazado_67738" data-name="Trazado 67738" d="M1732.268,8914.324s-13.221-17.01-20.993-16.687a15.56,15.56,0,0,1-7.365.591l-1.376.5s5.411.323,6.452,1.192C1708.986,8899.92,1713.48,8893.413,1732.268,8914.324Z" transform="translate(-1702.534 -8897.633)" fill="#bbe7ff"/>
        </g>
        <g id="Grupo_26905" data-name="Grupo 26905" transform="translate(0 0.359)">
          <path id="Trazado_67739" data-name="Trazado 67739" d="M1705.983,8898.146a13.52,13.52,0,0,0-10.469,2.35l.482.689s5.783-2.934,9.389-2.482S1705.983,8898.146,1705.983,8898.146Z" transform="translate(-1695.514 -8897.91)" fill="#bbe7ff"/>
        </g>
      </g>
    </g>
    <g id="Grupo_26912" data-name="Grupo 26912" transform="translate(1737.745 8875.259)">
      <g id="Grupo_26908" data-name="Grupo 26908">
        <path id="Trazado_67740" data-name="Trazado 67740" d="M1710.878,8893.115s-15.411-7.9-8.219-18.614c0,0,5.753-6.579,11.918-8.272,0,0-3.288,15.981,0,16.357s2.26-18.05,2.26-18.05,16.231-7.144,22.6-6.579c0,0-10.068,15.605-6.78,15.229s14.587-16.17,14.587-16.17,16.644-2.819,19.315,6.2-1.644,13.537-4.109,14.1-18.287.377-17.877,2.257,11.1,4.89,17.054,3.2c0,0-6.574,14.853-15.2,14.1s-11.3-5.641-16.644-6.017-9.245.939-6.574,2.256,11.712.431,16.026,3.787,7.809,5.426-.2,6.929-22.4.564-25.273-5.077Z" transform="translate(-1700.747 -8856.6)" fill="#d2efff"/>
      </g>
      <g id="Grupo_26911" data-name="Grupo 26911" transform="translate(1.992 9.441)">
        <g id="Grupo_26909" data-name="Grupo 26909" transform="translate(4.029)">
          <path id="Trazado_67741" data-name="Trazado 67741" d="M1757.584,8863.887s-43.149,12.786-48.079,27.075a27.948,27.948,0,0,1-4.11,13.724v2.82s4.521-9.588,6.986-10.905C1712.381,8896.6,1702.724,8884.193,1757.584,8863.887Z" transform="translate(-1705.395 -8863.887)" fill="#d2efff"/>
        </g>
        <g id="Grupo_26910" data-name="Grupo 26910" transform="translate(0 39.044)">
          <path id="Trazado_67742" data-name="Trazado 67742" d="M1706.314,8895.782s-6.653,9.248-2.86,20.5l1.711-.421s-1.661-12.4,1.82-18.632S1706.314,8895.782,1706.314,8895.782Z" transform="translate(-1702.285 -8894.028)" fill="#d2efff"/>
        </g>
      </g>
    </g>
    <g id="Grupo_26917" data-name="Grupo 26917" transform="translate(1758.748 8816.825)">
      <g id="Grupo_26914" data-name="Grupo 26914" transform="translate(2.838)">
        <g id="Grupo_26913" data-name="Grupo 26913">
          <path id="Trazado_67743" data-name="Trazado 67743" d="M1719.812,8816.29l-.35-.3a.893.893,0,0,1-.1-1.255l2.505-2.936a.89.89,0,0,1,1.254-.1l.5.428a.174.174,0,0,1-.226.265l-.5-.428a.543.543,0,0,0-.764.061l-2.5,2.935a.541.541,0,0,0,.061.764l.35.3a.543.543,0,0,0,.763-.062l1.663-1.947a.173.173,0,1,1,.264.225l-1.662,1.948A.89.89,0,0,1,1719.812,8816.29Z" transform="translate(-1719.15 -8811.49)" fill="#aedfff"/>
        </g>
      </g>
      <g id="Grupo_26916" data-name="Grupo 26916" transform="translate(0 0.597)">
        <g id="Grupo_26915" data-name="Grupo 26915">
          <path id="Trazado_67744" data-name="Trazado 67744" d="M1718.051,8819.283l-.627-.535a1.444,1.444,0,0,1-.091-2.033l3.766-4.412a.174.174,0,1,1,.264.227l-3.764,4.412a1.093,1.093,0,0,0,.052,1.541l.627.535a1.094,1.094,0,0,0,1.53-.191l4.289-5.025a1.1,1.1,0,0,0-.052-1.541.174.174,0,0,1-.019-.246.171.171,0,0,1,.245-.02,1.44,1.44,0,0,1,.091,2.031l-4.288,5.025A1.443,1.443,0,0,1,1718.051,8819.283Z" transform="translate(-1716.96 -8811.951)" fill="#aedfff"/>
        </g>
      </g>
    </g>
    <g id="Grupo_26922" data-name="Grupo 26922" transform="translate(1733.81 8848.459)">
      <g id="Grupo_26919" data-name="Grupo 26919" transform="translate(4.849 2.158)">
        <g id="Grupo_26918" data-name="Grupo 26918">
          <path id="Trazado_67745" data-name="Trazado 67745" d="M1701.508,8838.906l.181-.553a1.128,1.128,0,0,1,1.421-.722l4.645,1.518a1.127,1.127,0,0,1,.721,1.42l-.259.794a.221.221,0,1,1-.42-.137l.259-.792a.687.687,0,0,0-.439-.865l-4.644-1.517a.684.684,0,0,0-.865.438l-.181.553a.687.687,0,0,0,.439.865l3.083,1.007a.22.22,0,1,1-.137.419l-3.083-1.006A1.13,1.13,0,0,1,1701.508,8838.906Z" transform="translate(-1701.452 -8837.576)" fill="#ffce3b"/>
        </g>
      </g>
      <g id="Grupo_26921" data-name="Grupo 26921">
        <g id="Grupo_26920" data-name="Grupo 26920">
          <path id="Trazado_67746" data-name="Trazado 67746" d="M1697.791,8838.088l.324-.992a1.825,1.825,0,0,1,2.336-1.085l6.982,2.279a.221.221,0,0,1-.137.42l-6.982-2.28a1.384,1.384,0,0,0-1.779.8l-.325.993a1.386,1.386,0,0,0,.962,1.7l7.953,2.6a1.384,1.384,0,0,0,1.78-.8.221.221,0,0,1,.42.137,1.826,1.826,0,0,1-2.336,1.086l-7.954-2.6A1.825,1.825,0,0,1,1697.791,8838.088Z" transform="translate(-1697.708 -8835.911)" fill="#ffce3b"/>
        </g>
      </g>
    </g>
    <g id="Grupo_27050" data-name="Grupo 27050" transform="translate(1594.079 8846.822)">
      <g id="Grupo_26923" data-name="Grupo 26923" transform="translate(0 84.529)">
        <path id="Trazado_67747" data-name="Trazado 67747" d="M1589.842,8904.311s1.627,19.385,22.629,20.654h60.9l2.1-25.064Z" transform="translate(-1589.842 -8899.9)" fill="#c0dfff"/>
      </g>
      <g id="Grupo_26924" data-name="Grupo 26924" transform="translate(26.328 77.795)" opacity="0.5">
        <path id="Trazado_67748" data-name="Trazado 67748" d="M1671.625,8894.7l-.571,10.806-.556-.019L1668.3,8926.5h-58.139c5.733-.342,18.094-3.095,12.648-20.993a21.73,21.73,0,0,0-1.988-4.5c-.025-.041-.049-.079-.074-.118l-.043-.065c-2.8-4.3-5.974-5.8-9.227-6.117Z" transform="translate(-1610.166 -8894.701)" fill="#b6daff"/>
      </g>
      <g id="Grupo_26925" data-name="Grupo 26925" transform="translate(26.342 77.795)">
        <path id="Trazado_67749" data-name="Trazado 67749" d="M1671.636,8894.7l-1.127,10.787-2.194,21.012h-58.138c5.732-.342,18.093-3.095,12.648-20.993a21.746,21.746,0,0,0-1.989-4.5c-.025-.041-.051-.079-.074-.118-.014-.021-.03-.043-.042-.065Z" transform="translate(-1610.177 -8894.701)" fill="#8dbcff"/>
      </g>
      <g id="Grupo_26926" data-name="Grupo 26926" transform="translate(19.447 54.947)">
        <path id="Trazado_67750" data-name="Trazado 67750" d="M1604.854,8877.064H1637.4l-5.252,5.25-17.629,5.787Z" transform="translate(-1604.854 -8877.064)" fill="#c0dfff"/>
      </g>
      <g id="Grupo_26927" data-name="Grupo 26927" transform="translate(5.564 51.785)">
        <path id="Trazado_67751" data-name="Trazado 67751" d="M1677.4,8880.98l-1.039,19.652-.571,10.806-.556-.019-48.062-1.534a26.512,26.512,0,0,0-1.61-2.952c-.025-.041-.049-.079-.074-.118l-.043-.065c-2.8-4.3-5.974-5.8-9.227-6.117h-.008c-7.684-.741-15.787,5.1-20.272-3.889-7.372-14.781,9.636-23.935,19.675-16.244,4.427,3.391,7.874,4.508,10.547,4.339,3.553-.227,5.74-2.73,7.042-5.2a18.5,18.5,0,0,0,1.736-5.013Z" transform="translate(-1594.137 -8874.623)" fill="#8dbcff"/>
      </g>
      <g id="Grupo_26928" data-name="Grupo 26928" transform="translate(27.636)">
        <path id="Trazado_67752" data-name="Trazado 67752" d="M1664.262,8883.834l-33,6.039s17.479-5.187-6.656-20.249c-18.852-11.767-18.969-36.3,6.765-34.922,29.434,1.58,40.432,47.357,40.432,47.357Z" transform="translate(-1611.176 -8834.646)" fill="#8dbcff"/>
      </g>
      <g id="Grupo_26929" data-name="Grupo 26929" transform="translate(47.454 0.037)">
        <path id="Trazado_67753" data-name="Trazado 67753" d="M1657.027,8883.826s4.736-11.629-2.781-27.212c-10.248-21.248-27.771-21.938-27.771-21.938l57.538.077a18.084,18.084,0,0,1,9.854,2.8c8.087,5.308,22.693,19.473,20,46.272Z" transform="translate(-1626.475 -8834.676)" fill="#f3f8ff"/>
      </g>
      <g id="Grupo_27049" data-name="Grupo 27049" transform="translate(37.567 49.187)">
        <g id="Grupo_26930" data-name="Grupo 26930" transform="translate(33.779)">
          <path id="Trazado_67754" data-name="Trazado 67754" d="M1808.167,8927.277v3.857a2.281,2.281,0,0,1-2.28,2.281H1648.909l-3.991-60.8h86.9a15.015,15.015,0,0,1,15.015,15.014v.537a9.284,9.284,0,0,0,5.432,8.449l31.058,14.168,2.652,1.209,1.357.619.912.416,15.227,6.945A8.026,8.026,0,0,1,1808.167,8927.277Z" transform="translate(-1644.918 -8872.617)" fill="#8cb9f4"/>
        </g>
        <g id="Grupo_26933" data-name="Grupo 26933" transform="translate(7.651)">
          <g id="Grupo_26931" data-name="Grupo 26931">
            <path id="Trazado_67755" data-name="Trazado 67755" d="M1643.121,8872.617h-13.3a5.064,5.064,0,0,0-3.61,8.615l7.458,7.584a5.065,5.065,0,0,0,8.674-3.553v-7.582C1642.344,8874.885,1645.917,8872.617,1643.121,8872.617Z" transform="translate(-1624.748 -8872.617)" fill="#0a1233"/>
          </g>
          <g id="Grupo_26932" data-name="Grupo 26932" transform="translate(1.904 0.851)">
            <path id="Trazado_67756" data-name="Trazado 67756" d="M1629.834,8890.145h6.123v-16.869h-9.739Z" transform="translate(-1626.218 -8873.275)" fill="#0a1233"/>
          </g>
        </g>
        <g id="Grupo_26934" data-name="Grupo 26934">
          <path id="Trazado_67757" data-name="Trazado 67757" d="M1631.374,8872.617h-7.458a5.064,5.064,0,0,0-3.61,8.615l7.456,7.584a5.065,5.065,0,0,0,8.674-3.553v-7.582A5.064,5.064,0,0,0,1631.374,8872.617Z" transform="translate(-1618.842 -8872.617)" fill="#69a4e2"/>
        </g>
        <g id="Grupo_26935" data-name="Grupo 26935" transform="translate(22.983)">
          <path id="Trazado_67758" data-name="Trazado 67758" d="M1741.759,8927.277v3.857a2.281,2.281,0,0,1-2.28,2.281h-102.9v-60.8h28.825a15.016,15.016,0,0,1,15.015,15.016v.533a9.284,9.284,0,0,0,5.432,8.449l51.209,23.357A8.032,8.032,0,0,1,1741.759,8927.277Z" transform="translate(-1636.584 -8872.617)" fill="#508bc9"/>
        </g>
        <g id="Grupo_26936" data-name="Grupo 26936" transform="translate(86.468 25.79)">
          <path id="Trazado_67759" data-name="Trazado 67759" d="M1686.025,8894.113l44.266,19.747a7.334,7.334,0,0,0,2.986.637h48.632a1.146,1.146,0,0,0,.474-2.189l-42.544-19.369a4.592,4.592,0,0,0-1.918-.411l-51.6.19A.729.729,0,0,0,1686.025,8894.113Z" transform="translate(-1685.592 -8892.527)" fill="#69a4e2"/>
        </g>
        <g id="Grupo_27048" data-name="Grupo 27048" transform="translate(95.01 25.026)">
          <g id="Grupo_27022" data-name="Grupo 27022">
            <g id="Grupo_26939" data-name="Grupo 26939" transform="translate(57.347 9.721)">
              <g id="Grupo_26937" data-name="Grupo 26937" transform="translate(0 1.825)">
                <path id="Trazado_67760" data-name="Trazado 67760" d="M1741.585,8902.314l-1.372.162a5.191,5.191,0,0,1-2.355-.317l-1.056-.489c-.563-.262-.425-.547.308-.633l1.372-.162a5.2,5.2,0,0,1,2.355.317l1.056.49C1742.455,8901.944,1742.318,8902.228,1741.585,8902.314Z" transform="translate(-1736.455 -8900.85)" fill="#234e62"/>
              </g>
              <g id="Grupo_26938" data-name="Grupo 26938" transform="translate(0.005)">
                <path id="Trazado_67761" data-name="Trazado 67761" d="M1736.459,8899.441v2.391l5.776.609v-2.289Z" transform="translate(-1736.459 -8899.441)" fill="#234e62"/>
              </g>
            </g>
            <g id="Grupo_26942" data-name="Grupo 26942" transform="translate(50.88 9.721)">
              <g id="Grupo_26940" data-name="Grupo 26940" transform="translate(0 1.825)">
                <path id="Trazado_67762" data-name="Trazado 67762" d="M1736.593,8902.314l-1.372.164a5.212,5.212,0,0,1-2.355-.319l-1.056-.488c-.563-.262-.425-.548.307-.633l1.373-.163a5.19,5.19,0,0,1,2.355.319l1.054.489C1737.463,8901.944,1737.325,8902.229,1736.593,8902.314Z" transform="translate(-1731.463 -8900.85)" fill="#234e62"/>
              </g>
              <g id="Grupo_26941" data-name="Grupo 26941" transform="translate(0.005)">
                <path id="Trazado_67763" data-name="Trazado 67763" d="M1731.467,8899.441v2.391l5.776.611v-2.291Z" transform="translate(-1731.467 -8899.441)" fill="#234e62"/>
              </g>
            </g>
            <g id="Grupo_26945" data-name="Grupo 26945" transform="translate(44.414 9.722)">
              <g id="Grupo_26943" data-name="Grupo 26943" transform="translate(0 1.825)">
                <path id="Trazado_67764" data-name="Trazado 67764" d="M1731.6,8902.316l-1.373.162a5.178,5.178,0,0,1-2.355-.318l-1.054-.489c-.563-.262-.425-.545.307-.633l1.372-.161a5.158,5.158,0,0,1,2.355.317l1.056.489C1732.471,8901.945,1732.333,8902.229,1731.6,8902.316Z" transform="translate(-1726.471 -8900.852)" fill="#234e62"/>
              </g>
              <g id="Grupo_26944" data-name="Grupo 26944" transform="translate(0.004)">
                <path id="Trazado_67765" data-name="Trazado 67765" d="M1726.475,8899.441v2.392l5.776.609v-2.29Z" transform="translate(-1726.475 -8899.441)" fill="#234e62"/>
              </g>
            </g>
            <g id="Grupo_26948" data-name="Grupo 26948" transform="translate(37.947 9.722)">
              <g id="Grupo_26946" data-name="Grupo 26946" transform="translate(0 1.825)">
                <path id="Trazado_67766" data-name="Trazado 67766" d="M1726.609,8902.316l-1.373.163a5.19,5.19,0,0,1-2.355-.319l-1.056-.489c-.562-.261-.424-.545.308-.633l1.372-.161a5.19,5.19,0,0,1,2.355.317l1.056.489C1727.479,8901.945,1727.341,8902.23,1726.609,8902.316Z" transform="translate(-1721.479 -8900.852)" fill="#234e62"/>
              </g>
              <g id="Grupo_26947" data-name="Grupo 26947" transform="translate(0.004)">
                <path id="Trazado_67767" data-name="Trazado 67767" d="M1721.482,8899.441v2.392l5.776.61v-2.289Z" transform="translate(-1721.482 -8899.441)" fill="#234e62"/>
              </g>
            </g>
            <g id="Grupo_26951" data-name="Grupo 26951" transform="translate(31.479 9.722)">
              <g id="Grupo_26949" data-name="Grupo 26949" transform="translate(0 1.827)">
                <path id="Trazado_67768" data-name="Trazado 67768" d="M1721.616,8902.317l-1.372.162a5.2,5.2,0,0,1-2.355-.317l-1.056-.49c-.563-.262-.425-.545.307-.632l1.373-.162a5.163,5.163,0,0,1,2.355.317l1.056.489C1722.486,8901.945,1722.348,8902.23,1721.616,8902.317Z" transform="translate(-1716.486 -8900.853)" fill="#234e62"/>
              </g>
              <g id="Grupo_26950" data-name="Grupo 26950" transform="translate(0.005)">
                <path id="Trazado_67769" data-name="Trazado 67769" d="M1716.49,8899.441v2.393l5.776.609v-2.289Z" transform="translate(-1716.49 -8899.441)" fill="#234e62"/>
              </g>
            </g>
            <g id="Grupo_26954" data-name="Grupo 26954" transform="translate(25.012 9.723)">
              <g id="Grupo_26952" data-name="Grupo 26952" transform="translate(0 1.825)">
                <path id="Trazado_67770" data-name="Trazado 67770" d="M1716.624,8902.317l-1.372.162a5.185,5.185,0,0,1-2.355-.317l-1.056-.49c-.563-.261-.425-.545.307-.632l1.373-.162a5.177,5.177,0,0,1,2.355.317l1.054.489C1717.494,8901.946,1717.355,8902.23,1716.624,8902.317Z" transform="translate(-1711.494 -8900.853)" fill="#234e62"/>
              </g>
              <g id="Grupo_26953" data-name="Grupo 26953" transform="translate(0.005)">
                <path id="Trazado_67771" data-name="Trazado 67771" d="M1711.5,8899.443v2.391l5.776.611v-2.291Z" transform="translate(-1711.498 -8899.443)" fill="#234e62"/>
              </g>
            </g>
            <g id="Grupo_26957" data-name="Grupo 26957" transform="translate(43.635 4.989)">
              <g id="Grupo_26955" data-name="Grupo 26955" transform="translate(0 1.825)">
                <path id="Trazado_67772" data-name="Trazado 67772" d="M1731,8898.663l-1.373.161a5.176,5.176,0,0,1-2.355-.317l-1.055-.489c-.563-.262-.425-.545.307-.633l1.372-.162a5.174,5.174,0,0,1,2.355.318l1.056.489C1731.87,8898.292,1731.731,8898.575,1731,8898.663Z" transform="translate(-1725.87 -8897.197)" fill="#234e62"/>
              </g>
              <g id="Grupo_26956" data-name="Grupo 26956" transform="translate(0.004)">
                <path id="Trazado_67773" data-name="Trazado 67773" d="M1725.874,8895.788v2.392l5.776.609v-2.29Z" transform="translate(-1725.874 -8895.788)" fill="#234e62"/>
              </g>
            </g>
            <g id="Grupo_26960" data-name="Grupo 26960" transform="translate(50.033 4.988)">
              <g id="Grupo_26958" data-name="Grupo 26958" transform="translate(0 1.827)">
                <path id="Trazado_67774" data-name="Trazado 67774" d="M1735.939,8898.661l-1.372.163a5.2,5.2,0,0,1-2.355-.318l-1.056-.488c-.564-.262-.425-.547.307-.633l1.373-.163a5.19,5.19,0,0,1,2.355.319l1.054.488C1736.809,8898.291,1736.67,8898.575,1735.939,8898.661Z" transform="translate(-1730.809 -8897.197)" fill="#234e62"/>
              </g>
              <g id="Grupo_26959" data-name="Grupo 26959" transform="translate(0.005)">
                <path id="Trazado_67775" data-name="Trazado 67775" d="M1730.813,8895.787v2.393l5.776.609V8896.5Z" transform="translate(-1730.813 -8895.787)" fill="#234e62"/>
              </g>
            </g>
            <g id="Grupo_26963" data-name="Grupo 26963" transform="translate(37.168 4.989)">
              <g id="Grupo_26961" data-name="Grupo 26961" transform="translate(0 1.825)">
                <path id="Trazado_67776" data-name="Trazado 67776" d="M1726.007,8898.663l-1.372.161a5.164,5.164,0,0,1-2.355-.317l-1.056-.489c-.562-.261-.425-.545.308-.633l1.372-.162a5.19,5.19,0,0,1,2.355.319l1.056.488C1726.877,8898.292,1726.74,8898.576,1726.007,8898.663Z" transform="translate(-1720.878 -8897.197)" fill="#234e62"/>
              </g>
              <g id="Grupo_26962" data-name="Grupo 26962" transform="translate(0.005)">
                <path id="Trazado_67777" data-name="Trazado 67777" d="M1720.881,8895.788v2.393l5.776.609V8896.5Z" transform="translate(-1720.881 -8895.788)" fill="#234e62"/>
              </g>
            </g>
            <g id="Grupo_26966" data-name="Grupo 26966" transform="translate(30.701 4.991)">
              <g id="Grupo_26964" data-name="Grupo 26964" transform="translate(0 1.825)">
                <path id="Trazado_67778" data-name="Trazado 67778" d="M1721.015,8898.664l-1.372.162a5.2,5.2,0,0,1-2.355-.317l-1.056-.49c-.563-.262-.425-.545.307-.632l1.373-.162a5.19,5.19,0,0,1,2.355.317l1.055.489C1721.885,8898.292,1721.747,8898.576,1721.015,8898.664Z" transform="translate(-1715.885 -8897.199)" fill="#234e62"/>
              </g>
              <g id="Grupo_26965" data-name="Grupo 26965" transform="translate(0.005)">
                <path id="Trazado_67779" data-name="Trazado 67779" d="M1715.889,8895.79v2.391l5.776.609V8896.5Z" transform="translate(-1715.889 -8895.79)" fill="#234e62"/>
              </g>
            </g>
            <g id="Grupo_26969" data-name="Grupo 26969" transform="translate(24.234 4.991)">
              <g id="Grupo_26967" data-name="Grupo 26967" transform="translate(0 1.825)">
                <path id="Trazado_67780" data-name="Trazado 67780" d="M1716.023,8898.664l-1.372.162a5.179,5.179,0,0,1-2.356-.317l-1.054-.49c-.564-.261-.425-.545.307-.632l1.372-.162a5.206,5.206,0,0,1,2.356.317l1.054.489C1716.893,8898.293,1716.754,8898.576,1716.023,8898.664Z" transform="translate(-1710.893 -8897.199)" fill="#234e62"/>
              </g>
              <g id="Grupo_26968" data-name="Grupo 26968" transform="translate(0.005)">
                <path id="Trazado_67781" data-name="Trazado 67781" d="M1710.9,8895.79v2.392l5.776.61v-2.29Z" transform="translate(-1710.897 -8895.79)" fill="#234e62"/>
              </g>
            </g>
            <g id="Grupo_26972" data-name="Grupo 26972" transform="translate(17.767 4.992)">
              <g id="Grupo_26970" data-name="Grupo 26970" transform="translate(0 1.825)">
                <path id="Trazado_67782" data-name="Trazado 67782" d="M1711.031,8898.664l-1.373.162a5.189,5.189,0,0,1-2.355-.316l-1.056-.49c-.562-.262-.424-.545.308-.633l1.372-.162a5.187,5.187,0,0,1,2.355.318l1.056.488C1711.9,8898.293,1711.763,8898.578,1711.031,8898.664Z" transform="translate(-1705.901 -8897.199)" fill="#234e62"/>
              </g>
              <g id="Grupo_26971" data-name="Grupo 26971" transform="translate(0.005)">
                <path id="Trazado_67783" data-name="Trazado 67783" d="M1705.9,8895.791v2.391l5.776.61v-2.29Z" transform="translate(-1705.905 -8895.791)" fill="#234e62"/>
              </g>
            </g>
            <g id="Grupo_26975" data-name="Grupo 26975" transform="translate(11.299 4.992)">
              <g id="Grupo_26973" data-name="Grupo 26973" transform="translate(0 1.825)">
                <path id="Trazado_67784" data-name="Trazado 67784" d="M1706.038,8898.664l-1.372.162a5.164,5.164,0,0,1-2.355-.316l-1.056-.49c-.564-.26-.425-.545.308-.633l1.372-.162a5.191,5.191,0,0,1,2.355.318l1.056.488C1706.908,8898.295,1706.771,8898.578,1706.038,8898.664Z" transform="translate(-1700.908 -8897.199)" fill="#234e62"/>
              </g>
              <g id="Grupo_26974" data-name="Grupo 26974" transform="translate(0.005)">
                <path id="Trazado_67785" data-name="Trazado 67785" d="M1700.912,8895.791v2.391l5.776.611v-2.29Z" transform="translate(-1700.912 -8895.791)" fill="#234e62"/>
              </g>
            </g>
            <g id="Grupo_26978" data-name="Grupo 26978" transform="translate(65.163 14.562)">
              <g id="Grupo_26976" data-name="Grupo 26976" transform="translate(0 1.96)">
                <path id="Trazado_67786" data-name="Trazado 67786" d="M1747.995,8906.264l-1.473.174a5.566,5.566,0,0,1-2.527-.34l-1.134-.525c-.6-.281-.456-.586.33-.68l1.473-.174a5.567,5.567,0,0,1,2.527.34l1.134.527C1748.93,8905.865,1748.781,8906.172,1747.995,8906.264Z" transform="translate(-1742.489 -8904.691)" fill="#234e62"/>
              </g>
              <g id="Grupo_26977" data-name="Grupo 26977" transform="translate(0.005)">
                <path id="Trazado_67787" data-name="Trazado 67787" d="M1742.493,8903.179v2.566l6.2.655v-2.458Z" transform="translate(-1742.493 -8903.179)" fill="#234e62"/>
              </g>
            </g>
            <g id="Grupo_26981" data-name="Grupo 26981" transform="translate(72.031 14.562)">
              <g id="Grupo_26979" data-name="Grupo 26979" transform="translate(0 1.96)">
                <path id="Trazado_67788" data-name="Trazado 67788" d="M1753.3,8906.264l-1.473.174a5.544,5.544,0,0,1-2.528-.342l-1.133-.525c-.6-.279-.456-.586.33-.678l1.473-.176a5.6,5.6,0,0,1,2.529.342l1.132.525C1754.232,8905.865,1754.083,8906.17,1753.3,8906.264Z" transform="translate(-1747.791 -8904.69)" fill="#234e62"/>
              </g>
              <g id="Grupo_26980" data-name="Grupo 26980" transform="translate(0.005)">
                <path id="Trazado_67789" data-name="Trazado 67789" d="M1747.795,8903.179v2.566l6.2.655v-2.458Z" transform="translate(-1747.795 -8903.179)" fill="#234e62"/>
              </g>
            </g>
            <g id="Grupo_26984" data-name="Grupo 26984" transform="translate(58.221 14.563)">
              <g id="Grupo_26982" data-name="Grupo 26982" transform="translate(0 1.96)">
                <path id="Trazado_67790" data-name="Trazado 67790" d="M1742.635,8906.265l-1.473.173a5.556,5.556,0,0,1-2.527-.34l-1.133-.526c-.6-.28-.456-.586.33-.679l1.473-.174a5.575,5.575,0,0,1,2.529.341l1.132.525C1743.571,8905.866,1743.422,8906.171,1742.635,8906.265Z" transform="translate(-1737.13 -8904.691)" fill="#234e62"/>
              </g>
              <g id="Grupo_26983" data-name="Grupo 26983" transform="translate(0.005)">
                <path id="Trazado_67791" data-name="Trazado 67791" d="M1737.134,8903.18v2.566l6.2.655v-2.458Z" transform="translate(-1737.134 -8903.18)" fill="#234e62"/>
              </g>
            </g>
            <g id="Grupo_26987" data-name="Grupo 26987" transform="translate(51.279 14.563)">
              <g id="Grupo_26985" data-name="Grupo 26985" transform="translate(0 1.96)">
                <path id="Trazado_67792" data-name="Trazado 67792" d="M1737.278,8906.265l-1.473.174a5.587,5.587,0,0,1-2.529-.34l-1.133-.526c-.6-.281-.456-.586.33-.68l1.473-.173a5.574,5.574,0,0,1,2.529.34l1.132.526C1738.212,8905.866,1738.063,8906.172,1737.278,8906.265Z" transform="translate(-1731.771 -8904.692)" fill="#234e62"/>
              </g>
              <g id="Grupo_26986" data-name="Grupo 26986" transform="translate(0.005)">
                <path id="Trazado_67793" data-name="Trazado 67793" d="M1731.775,8903.18v2.566l6.2.655v-2.458Z" transform="translate(-1731.775 -8903.18)" fill="#234e62"/>
              </g>
            </g>
            <g id="Grupo_26990" data-name="Grupo 26990" transform="translate(44.338 14.564)">
              <g id="Grupo_26988" data-name="Grupo 26988" transform="translate(0 1.96)">
                <path id="Trazado_67794" data-name="Trazado 67794" d="M1731.918,8906.266l-1.473.173a5.548,5.548,0,0,1-2.529-.34l-1.132-.526c-.6-.279-.456-.586.329-.678l1.473-.175a5.587,5.587,0,0,1,2.529.34l1.134.526C1732.853,8905.867,1732.7,8906.172,1731.918,8906.266Z" transform="translate(-1726.413 -8904.692)" fill="#234e62"/>
              </g>
              <g id="Grupo_26989" data-name="Grupo 26989" transform="translate(0.005)">
                <path id="Trazado_67795" data-name="Trazado 67795" d="M1726.416,8903.18v2.568l6.2.654v-2.457Z" transform="translate(-1726.416 -8903.18)" fill="#234e62"/>
              </g>
            </g>
            <g id="Grupo_26993" data-name="Grupo 26993" transform="translate(37.396 14.564)">
              <g id="Grupo_26991" data-name="Grupo 26991" transform="translate(0 1.96)">
                <path id="Trazado_67796" data-name="Trazado 67796" d="M1726.559,8906.266l-1.473.175a5.588,5.588,0,0,1-2.529-.341l-1.132-.526c-.6-.28-.456-.585.329-.679l1.474-.174a5.542,5.542,0,0,1,2.527.341l1.134.526C1727.493,8905.867,1727.346,8906.173,1726.559,8906.266Z" transform="translate(-1721.054 -8904.693)" fill="#234e62"/>
              </g>
              <g id="Grupo_26992" data-name="Grupo 26992" transform="translate(0.005)">
                <path id="Trazado_67797" data-name="Trazado 67797" d="M1721.057,8903.18v2.568l6.2.654v-2.457Z" transform="translate(-1721.057 -8903.18)" fill="#234e62"/>
              </g>
            </g>
            <g id="Grupo_26996" data-name="Grupo 26996" transform="translate(30.454 14.566)">
              <g id="Grupo_26994" data-name="Grupo 26994" transform="translate(0 1.96)">
                <path id="Trazado_67798" data-name="Trazado 67798" d="M1721.2,8906.266l-1.473.174a5.576,5.576,0,0,1-2.529-.34l-1.132-.527c-.6-.279-.456-.584.33-.678l1.473-.174a5.6,5.6,0,0,1,2.527.34l1.133.527C1722.134,8905.867,1721.987,8906.172,1721.2,8906.266Z" transform="translate(-1715.695 -8904.694)" fill="#234e62"/>
              </g>
              <g id="Grupo_26995" data-name="Grupo 26995" transform="translate(0.005)">
                <path id="Trazado_67799" data-name="Trazado 67799" d="M1715.7,8903.181v2.567l6.2.655v-2.458Z" transform="translate(-1715.699 -8903.181)" fill="#234e62"/>
              </g>
            </g>
            <g id="Grupo_26999" data-name="Grupo 26999" transform="translate(19.815 0.466)">
              <g id="Grupo_26997" data-name="Grupo 26997" transform="translate(0 1.825)">
                <path id="Trazado_67800" data-name="Trazado 67800" d="M1712.721,8895.17l-1.4.162a5.4,5.4,0,0,1-2.4-.316l-1.079-.49c-.575-.262-.433-.545.315-.633l1.4-.162a5.4,5.4,0,0,1,2.406.318l1.078.49C1713.61,8894.8,1713.469,8895.084,1712.721,8895.17Z" transform="translate(-1707.482 -8893.705)" fill="#234e62"/>
              </g>
              <g id="Grupo_26998" data-name="Grupo 26998" transform="translate(0.005)">
                <path id="Trazado_67801" data-name="Trazado 67801" d="M1707.486,8892.3v2.391l5.9.611v-2.291Z" transform="translate(-1707.486 -8892.297)" fill="#234e62"/>
              </g>
            </g>
            <g id="Grupo_27002" data-name="Grupo 27002" transform="translate(13.211 0.466)">
              <g id="Grupo_27000" data-name="Grupo 27000" transform="translate(0 1.825)">
                <path id="Trazado_67802" data-name="Trazado 67802" d="M1707.623,8895.17l-1.4.162a5.375,5.375,0,0,1-2.406-.316l-1.078-.49c-.575-.26-.434-.545.313-.633l1.4-.162a5.405,5.405,0,0,1,2.406.318l1.078.49C1708.511,8894.8,1708.37,8895.084,1707.623,8895.17Z" transform="translate(-1702.384 -8893.705)" fill="#234e62"/>
              </g>
              <g id="Grupo_27001" data-name="Grupo 27001" transform="translate(0.004)">
                <path id="Trazado_67803" data-name="Trazado 67803" d="M1702.387,8892.3v2.392l5.9.61v-2.29Z" transform="translate(-1702.387 -8892.297)" fill="#234e62"/>
              </g>
            </g>
            <g id="Grupo_27005" data-name="Grupo 27005" transform="translate(6.605 0.467)">
              <g id="Grupo_27003" data-name="Grupo 27003" transform="translate(0 1.825)">
                <path id="Trazado_67804" data-name="Trazado 67804" d="M1702.523,8895.172l-1.4.161a5.389,5.389,0,0,1-2.406-.317l-1.078-.489c-.575-.262-.434-.547.313-.633l1.4-.162a5.406,5.406,0,0,1,2.406.317l1.078.49C1703.412,8894.8,1703.271,8895.085,1702.523,8895.172Z" transform="translate(-1697.285 -8893.706)" fill="#234e62"/>
              </g>
              <g id="Grupo_27004" data-name="Grupo 27004" transform="translate(0.004)">
                <path id="Trazado_67805" data-name="Trazado 67805" d="M1697.288,8892.3v2.391l5.9.611v-2.291Z" transform="translate(-1697.288 -8892.297)" fill="#234e62"/>
              </g>
            </g>
            <g id="Grupo_27008" data-name="Grupo 27008" transform="translate(0 0.467)">
              <g id="Grupo_27006" data-name="Grupo 27006" transform="translate(0 1.825)">
                <path id="Trazado_67806" data-name="Trazado 67806" d="M1697.425,8895.172l-1.4.161a5.378,5.378,0,0,1-2.406-.317l-1.078-.489c-.575-.261-.434-.545.314-.633l1.4-.162a5.446,5.446,0,0,1,2.406.317l1.078.49C1698.313,8894.8,1698.172,8895.085,1697.425,8895.172Z" transform="translate(-1692.186 -8893.707)" fill="#234e62"/>
              </g>
              <g id="Grupo_27007" data-name="Grupo 27007" transform="translate(0.005)">
                <path id="Trazado_67807" data-name="Trazado 67807" d="M1692.189,8892.3v2.393l5.9.609v-2.289Z" transform="translate(-1692.189 -8892.297)" fill="#234e62"/>
              </g>
            </g>
            <g id="Grupo_27013" data-name="Grupo 27013" transform="translate(33.025)">
              <g id="Grupo_27011" data-name="Grupo 27011" transform="translate(0 0.464)">
                <g id="Grupo_27009" data-name="Grupo 27009" transform="translate(0 1.825)">
                  <path id="Trazado_67808" data-name="Trazado 67808" d="M1722.919,8895.17l-1.4.162a5.418,5.418,0,0,1-2.406-.317l-1.078-.49c-.575-.262-.434-.545.315-.632l1.4-.162a5.4,5.4,0,0,1,2.4.317l1.079.489C1723.808,8894.8,1723.666,8895.083,1722.919,8895.17Z" transform="translate(-1717.68 -8893.705)" fill="#234e62"/>
                </g>
                <g id="Grupo_27010" data-name="Grupo 27010" transform="translate(0.005)">
                  <path id="Trazado_67809" data-name="Trazado 67809" d="M1717.684,8892.3v2.391l5.9.611v-2.291Z" transform="translate(-1717.684 -8892.296)" fill="#234e62"/>
                </g>
              </g>
              <g id="Grupo_27012" data-name="Grupo 27012">
                <path id="Trazado_67810" data-name="Trazado 67810" d="M1722.919,8893.4l-1.4.162a5.4,5.4,0,0,1-2.406-.318l-1.078-.488c-.575-.262-.434-.547.313-.633l1.4-.162a5.4,5.4,0,0,1,2.406.316l1.078.49C1723.807,8893.031,1723.666,8893.314,1722.919,8893.4Z" transform="translate(-1717.68 -8891.938)" fill="#f9d5bf"/>
              </g>
            </g>
            <g id="Grupo_27018" data-name="Grupo 27018" transform="translate(40.229)">
              <g id="Grupo_27016" data-name="Grupo 27016" transform="translate(0 0.464)">
                <g id="Grupo_27014" data-name="Grupo 27014" transform="translate(0 1.825)">
                  <path id="Trazado_67811" data-name="Trazado 67811" d="M1728.48,8895.17l-1.4.162a5.419,5.419,0,0,1-2.406-.317l-1.078-.49c-.575-.262-.434-.545.313-.632l1.4-.162a5.4,5.4,0,0,1,2.406.317l1.078.489C1729.368,8894.8,1729.227,8895.083,1728.48,8895.17Z" transform="translate(-1723.241 -8893.705)" fill="#234e62"/>
                </g>
                <g id="Grupo_27015" data-name="Grupo 27015" transform="translate(0.005)">
                  <path id="Trazado_67812" data-name="Trazado 67812" d="M1723.245,8892.3v2.391l5.9.611v-2.291Z" transform="translate(-1723.245 -8892.296)" fill="#234e62"/>
                </g>
              </g>
              <g id="Grupo_27017" data-name="Grupo 27017">
                <path id="Trazado_67813" data-name="Trazado 67813" d="M1728.48,8893.4l-1.4.162a5.405,5.405,0,0,1-2.406-.318l-1.078-.488c-.575-.262-.434-.547.313-.633l1.4-.162a5.4,5.4,0,0,1,2.406.316l1.078.49C1729.368,8893.031,1729.227,8893.314,1728.48,8893.4Z" transform="translate(-1723.241 -8891.938)" fill="#f9d5bf"/>
              </g>
            </g>
            <g id="Grupo_27021" data-name="Grupo 27021" transform="translate(26.42 0.464)">
              <g id="Grupo_27019" data-name="Grupo 27019" transform="translate(0 1.825)">
                <path id="Trazado_67814" data-name="Trazado 67814" d="M1717.82,8895.17l-1.4.162a5.39,5.39,0,0,1-2.405-.317l-1.078-.49c-.575-.261-.434-.545.315-.632l1.4-.162a5.42,5.42,0,0,1,2.406.317l1.078.489C1718.709,8894.8,1718.568,8895.084,1717.82,8895.17Z" transform="translate(-1712.581 -8893.705)" fill="#234e62"/>
              </g>
              <g id="Grupo_27020" data-name="Grupo 27020" transform="translate(0.005)">
                <path id="Trazado_67815" data-name="Trazado 67815" d="M1712.585,8892.3v2.392l5.9.61v-2.29Z" transform="translate(-1712.585 -8892.296)" fill="#234e62"/>
              </g>
            </g>
          </g>
          <g id="Grupo_27023" data-name="Grupo 27023" transform="translate(57.347 9.255)">
            <path id="Trazado_67816" data-name="Trazado 67816" d="M1741.585,8900.546l-1.372.162a5.162,5.162,0,0,1-2.355-.317l-1.056-.489c-.563-.261-.425-.546.307-.633l1.373-.162a5.23,5.23,0,0,1,2.355.317l1.056.49C1742.455,8900.176,1742.317,8900.462,1741.585,8900.546Z" transform="translate(-1736.455 -8899.082)" fill="#f9d5bf"/>
          </g>
          <g id="Grupo_27024" data-name="Grupo 27024" transform="translate(50.88 9.256)">
            <path id="Trazado_67817" data-name="Trazado 67817" d="M1736.593,8900.548l-1.372.162a5.193,5.193,0,0,1-2.356-.318l-1.054-.489c-.563-.262-.425-.545.307-.633l1.372-.161a5.193,5.193,0,0,1,2.356.317l1.054.489C1737.463,8900.176,1737.325,8900.462,1736.593,8900.548Z" transform="translate(-1731.463 -8899.083)" fill="#f9d5bf"/>
          </g>
          <g id="Grupo_27025" data-name="Grupo 27025" transform="translate(44.414 9.256)">
            <path id="Trazado_67818" data-name="Trazado 67818" d="M1731.6,8900.548l-1.373.162a5.165,5.165,0,0,1-2.355-.318l-1.054-.489c-.563-.261-.425-.545.307-.633l1.372-.161a5.2,5.2,0,0,1,2.355.317l1.056.489C1732.471,8900.177,1732.333,8900.462,1731.6,8900.548Z" transform="translate(-1726.471 -8899.083)" fill="#f9d5bf"/>
          </g>
          <g id="Grupo_27026" data-name="Grupo 27026" transform="translate(37.946 9.258)">
            <path id="Trazado_67819" data-name="Trazado 67819" d="M1726.607,8900.549l-1.372.162a5.19,5.19,0,0,1-2.355-.318l-1.056-.49c-.562-.262-.425-.545.308-.631l1.372-.162a5.217,5.217,0,0,1,2.355.316l1.056.49C1727.478,8900.176,1727.341,8900.463,1726.607,8900.549Z" transform="translate(-1721.479 -8899.084)" fill="#f9d5bf"/>
          </g>
          <g id="Grupo_27027" data-name="Grupo 27027" transform="translate(31.479 9.258)">
            <path id="Trazado_67820" data-name="Trazado 67820" d="M1721.616,8900.549l-1.372.162a5.189,5.189,0,0,1-2.355-.318l-1.056-.49c-.563-.26-.425-.545.307-.631l1.373-.162a5.217,5.217,0,0,1,2.355.316l1.054.49C1722.486,8900.178,1722.348,8900.463,1721.616,8900.549Z" transform="translate(-1716.486 -8899.084)" fill="#f9d5bf"/>
          </g>
          <g id="Grupo_27028" data-name="Grupo 27028" transform="translate(25.012 9.26)">
            <path id="Trazado_67821" data-name="Trazado 67821" d="M1716.624,8900.549l-1.373.162a5.19,5.19,0,0,1-2.355-.318l-1.054-.488c-.563-.262-.425-.547.307-.632l1.372-.162a5.184,5.184,0,0,1,2.355.316l1.056.49C1717.494,8900.177,1717.355,8900.463,1716.624,8900.549Z" transform="translate(-1711.494 -8899.085)" fill="#f9d5bf"/>
          </g>
          <g id="Grupo_27029" data-name="Grupo 27029" transform="translate(43.635 4.525)">
            <path id="Trazado_67822" data-name="Trazado 67822" d="M1731,8896.895l-1.373.161a5.189,5.189,0,0,1-2.355-.315l-1.056-.49c-.562-.261-.424-.546.308-.632l1.372-.162a5.176,5.176,0,0,1,2.355.317l1.056.489C1731.87,8896.524,1731.732,8896.81,1731,8896.895Z" transform="translate(-1725.87 -8895.431)" fill="#f9d5bf"/>
          </g>
          <g id="Grupo_27030" data-name="Grupo 27030" transform="translate(50.033 4.525)">
            <path id="Trazado_67823" data-name="Trazado 67823" d="M1735.939,8896.895l-1.372.161a5.2,5.2,0,0,1-2.355-.315l-1.056-.49c-.564-.262-.425-.546.307-.632l1.373-.162a5.164,5.164,0,0,1,2.355.317l1.054.489C1736.809,8896.523,1736.67,8896.809,1735.939,8896.895Z" transform="translate(-1730.809 -8895.431)" fill="#f9d5bf"/>
          </g>
          <g id="Grupo_27031" data-name="Grupo 27031" transform="translate(37.167 4.526)">
            <path id="Trazado_67824" data-name="Trazado 67824" d="M1726.007,8896.895l-1.372.162a5.19,5.19,0,0,1-2.355-.316l-1.056-.488c-.564-.264-.425-.549.308-.633l1.372-.162a5.164,5.164,0,0,1,2.355.316l1.056.49C1726.877,8896.523,1726.74,8896.809,1726.007,8896.895Z" transform="translate(-1720.877 -8895.431)" fill="#f9d5bf"/>
          </g>
          <g id="Grupo_27032" data-name="Grupo 27032" transform="translate(30.701 4.526)">
            <path id="Trazado_67825" data-name="Trazado 67825" d="M1721.015,8896.895l-1.372.162a5.158,5.158,0,0,1-2.355-.316l-1.056-.488c-.563-.262-.425-.547.307-.633l1.373-.162a5.19,5.19,0,0,1,2.355.316l1.055.49C1721.885,8896.525,1721.747,8896.809,1721.015,8896.895Z" transform="translate(-1715.885 -8895.432)" fill="#f9d5bf"/>
          </g>
          <g id="Grupo_27033" data-name="Grupo 27033" transform="translate(24.234 4.528)">
            <path id="Trazado_67826" data-name="Trazado 67826" d="M1716.023,8896.9l-1.373.162a5.23,5.23,0,0,1-2.355-.317l-1.054-.489c-.564-.262-.425-.548.307-.633l1.372-.162a5.172,5.172,0,0,1,2.355.317l1.056.49C1716.893,8896.525,1716.754,8896.81,1716.023,8896.9Z" transform="translate(-1710.893 -8895.432)" fill="#f9d5bf"/>
          </g>
          <g id="Grupo_27034" data-name="Grupo 27034" transform="translate(17.767 4.528)">
            <path id="Trazado_67827" data-name="Trazado 67827" d="M1711.03,8896.9l-1.372.162a5.2,5.2,0,0,1-2.355-.317l-1.056-.489c-.562-.262-.425-.547.308-.633l1.372-.162a5.176,5.176,0,0,1,2.355.317l1.056.49C1711.9,8896.526,1711.763,8896.81,1711.03,8896.9Z" transform="translate(-1705.901 -8895.432)" fill="#f9d5bf"/>
          </g>
          <g id="Grupo_27035" data-name="Grupo 27035" transform="translate(11.299 4.528)">
            <path id="Trazado_67828" data-name="Trazado 67828" d="M1706.038,8896.9l-1.372.164a5.228,5.228,0,0,1-2.355-.319l-1.056-.488c-.564-.262-.425-.548.307-.633l1.373-.163a5.19,5.19,0,0,1,2.355.319l1.056.488C1706.908,8896.526,1706.769,8896.811,1706.038,8896.9Z" transform="translate(-1700.908 -8895.432)" fill="#f9d5bf"/>
          </g>
          <g id="Grupo_27036" data-name="Grupo 27036" transform="translate(65.163 14.065)">
            <path id="Trazado_67829" data-name="Trazado 67829" d="M1747.995,8904.365l-1.473.174a5.547,5.547,0,0,1-2.529-.341l-1.132-.524c-.6-.281-.456-.586.33-.679l1.473-.174a5.567,5.567,0,0,1,2.527.341l1.134.525C1748.93,8903.969,1748.781,8904.272,1747.995,8904.365Z" transform="translate(-1742.489 -8902.794)" fill="#f9d5bf"/>
          </g>
          <g id="Grupo_27037" data-name="Grupo 27037" transform="translate(72.031 14.063)">
            <path id="Trazado_67830" data-name="Trazado 67830" d="M1753.3,8904.365l-1.473.174a5.568,5.568,0,0,1-2.528-.34l-1.133-.527c-.6-.279-.456-.584.33-.678l1.473-.172a5.576,5.576,0,0,1,2.529.34l1.132.525C1754.232,8903.967,1754.083,8904.273,1753.3,8904.365Z" transform="translate(-1747.791 -8902.795)" fill="#f9d5bf"/>
          </g>
          <g id="Grupo_27038" data-name="Grupo 27038" transform="translate(58.22 14.065)">
            <path id="Trazado_67831" data-name="Trazado 67831" d="M1742.635,8904.365l-1.473.175a5.567,5.567,0,0,1-2.527-.34l-1.133-.526c-.605-.28-.456-.585.33-.679l1.473-.173a5.576,5.576,0,0,1,2.529.34l1.132.526C1743.571,8903.969,1743.422,8904.273,1742.635,8904.365Z" transform="translate(-1737.13 -8902.795)" fill="#f9d5bf"/>
          </g>
          <g id="Grupo_27039" data-name="Grupo 27039" transform="translate(51.279 14.066)">
            <path id="Trazado_67832" data-name="Trazado 67832" d="M1737.278,8904.367l-1.474.173a5.557,5.557,0,0,1-2.528-.34l-1.133-.526c-.6-.28-.456-.585.33-.677l1.473-.175a5.561,5.561,0,0,1,2.529.342l1.132.524C1738.212,8903.97,1738.063,8904.273,1737.278,8904.367Z" transform="translate(-1731.771 -8902.795)" fill="#f9d5bf"/>
          </g>
          <g id="Grupo_27040" data-name="Grupo 27040" transform="translate(44.337 14.066)">
            <path id="Trazado_67833" data-name="Trazado 67833" d="M1731.919,8904.367l-1.473.174a5.588,5.588,0,0,1-2.529-.34l-1.134-.526c-.6-.281-.456-.584.33-.678l1.473-.174a5.561,5.561,0,0,1,2.529.341l1.132.526C1732.853,8903.97,1732.7,8904.275,1731.919,8904.367Z" transform="translate(-1726.412 -8902.796)" fill="#f9d5bf"/>
          </g>
          <g id="Grupo_27041" data-name="Grupo 27041" transform="translate(37.396 14.067)">
            <path id="Trazado_67834" data-name="Trazado 67834" d="M1726.559,8904.367l-1.473.174a5.548,5.548,0,0,1-2.529-.34l-1.132-.527c-.6-.279-.456-.584.329-.676l1.473-.176a5.573,5.573,0,0,1,2.528.342l1.134.525C1727.493,8903.971,1727.344,8904.275,1726.559,8904.367Z" transform="translate(-1721.054 -8902.796)" fill="#f9d5bf"/>
          </g>
          <g id="Grupo_27042" data-name="Grupo 27042" transform="translate(30.454 14.067)">
            <path id="Trazado_67835" data-name="Trazado 67835" d="M1721.2,8904.367l-1.473.176a5.575,5.575,0,0,1-2.529-.342l-1.132-.525c-.6-.281-.456-.584.329-.678l1.474-.174a5.543,5.543,0,0,1,2.527.34l1.133.527C1722.134,8903.971,1721.987,8904.277,1721.2,8904.367Z" transform="translate(-1715.695 -8902.797)" fill="#f9d5bf"/>
          </g>
          <g id="Grupo_27043" data-name="Grupo 27043" transform="translate(19.815 0.001)">
            <path id="Trazado_67836" data-name="Trazado 67836" d="M1712.721,8893.4l-1.4.161a5.406,5.406,0,0,1-2.406-.317l-1.078-.489c-.575-.261-.434-.545.315-.633l1.4-.162a5.4,5.4,0,0,1,2.406.318l1.078.489C1713.611,8893.032,1713.469,8893.315,1712.721,8893.4Z" transform="translate(-1707.482 -8891.938)" fill="#f9d5bf"/>
          </g>
          <g id="Grupo_27044" data-name="Grupo 27044" transform="translate(13.21 0.001)">
            <path id="Trazado_67837" data-name="Trazado 67837" d="M1707.621,8893.4l-1.4.162a5.427,5.427,0,0,1-2.4-.319l-1.079-.488c-.575-.262-.433-.546.315-.633l1.4-.163a5.405,5.405,0,0,1,2.406.319l1.078.489C1708.511,8893.032,1708.37,8893.316,1707.621,8893.4Z" transform="translate(-1702.383 -8891.938)" fill="#f9d5bf"/>
          </g>
          <g id="Grupo_27045" data-name="Grupo 27045" transform="translate(6.605 0.003)">
            <path id="Trazado_67838" data-name="Trazado 67838" d="M1702.523,8893.4l-1.4.162a5.389,5.389,0,0,1-2.406-.318l-1.078-.489c-.575-.262-.434-.545.313-.633l1.4-.161a5.378,5.378,0,0,1,2.406.317l1.078.489C1703.412,8893.033,1703.271,8893.316,1702.523,8893.4Z" transform="translate(-1697.285 -8891.939)" fill="#f9d5bf"/>
          </g>
          <g id="Grupo_27046" data-name="Grupo 27046" transform="translate(0 0.003)">
            <path id="Trazado_67839" data-name="Trazado 67839" d="M1697.425,8893.4l-1.4.163a5.4,5.4,0,0,1-2.406-.319l-1.078-.489c-.575-.261-.434-.545.314-.633l1.4-.161a5.406,5.406,0,0,1,2.406.318l1.078.488C1698.313,8893.033,1698.172,8893.318,1697.425,8893.4Z" transform="translate(-1692.186 -8891.939)" fill="#f9d5bf"/>
          </g>
          <g id="Grupo_27047" data-name="Grupo 27047" transform="translate(26.42 0.001)">
            <path id="Trazado_67840" data-name="Trazado 67840" d="M1717.82,8893.4l-1.4.161a5.418,5.418,0,0,1-2.405-.317l-1.078-.489c-.575-.262-.434-.547.315-.633l1.4-.162a5.372,5.372,0,0,1,2.4.318l1.079.489C1718.709,8893.031,1718.567,8893.315,1717.82,8893.4Z" transform="translate(-1712.581 -8891.938)" fill="#f9d5bf"/>
          </g>
        </g>
      </g>
    </g>
    <g id="Grupo_27070" data-name="Grupo 27070" transform="translate(1687.067 8848.225)">
      <g id="Grupo_27051" data-name="Grupo 27051" transform="translate(29.299 65.366)">
        <path id="Trazado_67841" data-name="Trazado 67841" d="M1684.476,8890.665c-.616-.5.181-3.516.181-3.516s3.477-2.085,3.648-.105,2.6,3.188,4.023,3.619a1.575,1.575,0,0,1,1.267,1.236Z" transform="translate(-1684.242 -8886.19)" fill="#183c49"/>
      </g>
      <g id="Grupo_27052" data-name="Grupo 27052" transform="translate(20.743 66.119)">
        <path id="Trazado_67842" data-name="Trazado 67842" d="M1677.872,8891.245c-.618-.5.18-3.516.18-3.516s3.477-2.084,3.649-.1,2.6,3.188,4.023,3.619a1.573,1.573,0,0,1,1.266,1.236Z" transform="translate(-1677.638 -8886.771)" fill="#234e62"/>
      </g>
      <g id="Grupo_27053" data-name="Grupo 27053" transform="translate(8.511 37.145)">
        <path id="Trazado_67843" data-name="Trazado 67843" d="M1679.02,8864.569s14.31,3.528,15.367,8.127-1.031,21.386-1.031,21.386a7.035,7.035,0,0,1-4.178-.332,98.606,98.606,0,0,1-1-10.564c-.1-3.346,1.136-6.94.416-7.011-1.824-.18-19.229-1.659-20.326-7.357S1679.02,8864.569,1679.02,8864.569Z" transform="translate(-1668.195 -8864.404)" fill="#234e62"/>
      </g>
      <g id="Grupo_27054" data-name="Grupo 27054" transform="translate(3.452 36.187)">
        <path id="Trazado_67844" data-name="Trazado 67844" d="M1670.6,8865.024s15.895,3.266,16.952,7.864-.937,21.678-.937,21.678.4.913-5.064.022a86.514,86.514,0,0,1-1.545-11.957c-.1-3.346,1.215-6.062.495-6.12-11.669-.929-16.636,2.027-16.18-9.715C1664.544,8861,1670.6,8865.024,1670.6,8865.024Z" transform="translate(-1664.29 -8863.665)" fill="#2b688b"/>
      </g>
      <g id="Grupo_27055" data-name="Grupo 27055" transform="translate(2.549 12.915)">
        <path id="Trazado_67845" data-name="Trazado 67845" d="M1664.207,8871.25c-.027.382,4.122,1.147,5.974,1.076,9.288-.36,10.7-2.134,10.7-2.139.168-.212-.935-6.6-1-8.987-.057-2.178-.095-4.766-.1-7.836-.005-3.692-5.72-7.664-5.825-7.664h0a2.219,2.219,0,0,1-2.128,1.6c-1.532.1-3.412-.663-3.412-1.545,0-.009-3.294,10.909-4.825,7.643Z" transform="translate(-1663.593 -8845.7)" fill="#ffce3b"/>
      </g>
      <g id="Grupo_27056" data-name="Grupo 27056" transform="translate(12.916 12.915)">
        <path id="Trazado_67846" data-name="Trazado 67846" d="M1671.6,8845.7s5.314-.045,6.594,1.748,4.083,11.444,2.621,14.656-4.2-1.329-5.723-3.295S1671.6,8845.7,1671.6,8845.7Z" transform="translate(-1671.596 -8845.7)" fill="#ffce3b"/>
      </g>
      <g id="Grupo_27057" data-name="Grupo 27057" transform="translate(7.338 8.934)">
        <path id="Trazado_67847" data-name="Trazado 67847" d="M1672.921,8845.8l0,.549s.15,1.719-1.967,1.969-3.718-.67-3.661-2a15.579,15.579,0,0,0,.414-2.58,6.013,6.013,0,0,0-.075-1.029l4.1-.082,1.208.2Z" transform="translate(-1667.29 -8842.627)" fill="#ffb27d"/>
      </g>
      <g id="Grupo_27058" data-name="Grupo 27058" transform="translate(7.679 8.934)">
        <path id="Trazado_67848" data-name="Trazado 67848" d="M1672.86,8842.824l-.017,2.973a3.452,3.452,0,0,1-1.477.326,4.579,4.579,0,0,1-3.739-2.385,6.013,6.013,0,0,0-.075-1.029l4.1-.082Z" transform="translate(-1667.553 -8842.627)" fill="#ed985f"/>
      </g>
      <g id="Grupo_27059" data-name="Grupo 27059" transform="translate(6.694 1.909)">
        <path id="Trazado_67849" data-name="Trazado 67849" d="M1667.463,8843.65c.475,2.562,3.779,2.477,5.206,2.316.4-.046.656-.1.656-.1.452-.121.7-.835.823-1.769a14.527,14.527,0,0,0-.374-5.26c-.47-1.045-1.355-2.175-4.682-1.358S1666.852,8840.371,1667.463,8843.65Z" transform="translate(-1666.793 -8837.204)" fill="#ffb27d"/>
      </g>
      <g id="Grupo_27060" data-name="Grupo 27060" transform="translate(18.351 20.107)">
        <path id="Trazado_67850" data-name="Trazado 67850" d="M1675.791,8851.252s2.056,4.539,2,5.9a4.934,4.934,0,0,0-1.553.254Z" transform="translate(-1675.791 -8851.252)" fill="#f0c239"/>
      </g>
      <g id="Grupo_27061" data-name="Grupo 27061" transform="translate(5.245)">
        <path id="Trazado_67851" data-name="Trazado 67851" d="M1675.124,8836.841a10.978,10.978,0,0,1-3.191-.864,4.871,4.871,0,0,0-3.745.365.857.857,0,0,1,.141-.346.778.778,0,0,0-.3.438c-.026.02-.038.033-.031.037a1,1,0,0,0-.48.031s.132-.018.179.066a.1.1,0,0,0,.021.023c-2.187,1.056-2.389,4.512-1.684,5.311a17.594,17.594,0,0,1,1.862,3.129,1.855,1.855,0,0,0,.216-1.357c-.154-.848.577-.848,1.5-1.232s.154-1.462.963-2.116,3.771-.27,3.732-.771C1675.409,8839.156,1675.124,8836.954,1675.124,8836.841Z" transform="translate(-1665.674 -8835.729)" fill="#234e62"/>
      </g>
      <g id="Grupo_27062" data-name="Grupo 27062" transform="translate(6.694 27.908)">
        <path id="Trazado_67852" data-name="Trazado 67852" d="M1666.793,8857.978c.868,3.484,10.832,6.468,12.966,6.835-.091-1.512-.254-5.119-.316-7.538Z" transform="translate(-1666.793 -8857.274)" fill="#f0c239"/>
      </g>
      <g id="Grupo_27063" data-name="Grupo 27063" transform="translate(5.03 26.07)">
        <path id="Trazado_67853" data-name="Trazado 67853" d="M1669.232,8859.528a16.58,16.58,0,0,1-2.445-.477c-.357-.18-1.992-2.5-.921-3.1s3.946,1.789,3.946,1.789Z" transform="translate(-1665.508 -8855.855)" fill="#ffa17d"/>
      </g>
      <g id="Grupo_27064" data-name="Grupo 27064" transform="translate(7.991 26.262)">
        <path id="Trazado_67854" data-name="Trazado 67854" d="M1680.7,8860.174s-7.723.42-12.906-.689a2.226,2.226,0,0,1,1.5-2.161s8.078-1.713,10.019-1.236S1680.7,8860.174,1680.7,8860.174Z" transform="translate(-1667.794 -8856.003)" fill="#ffce3b"/>
      </g>
      <g id="Grupo_27065" data-name="Grupo 27065" transform="translate(0 12.969)">
        <path id="Trazado_67855" data-name="Trazado 67855" d="M1664.788,8857.146a10.372,10.372,0,0,0,6.008,3.88h0a4.322,4.322,0,0,0,.571-2.579,5.177,5.177,0,0,0-.841-2.367,5.285,5.285,0,0,1-.455-.916c-1.262-3.217-1.074-9.421-1.074-9.421s-5.355.561-7.025,2.945C1660.953,8850.146,1662.256,8854.09,1664.788,8857.146Z" transform="translate(-1661.625 -8845.741)" fill="#ffce3b"/>
      </g>
      <g id="Grupo_27066" data-name="Grupo 27066" transform="translate(12.567 8.807)">
        <path id="Trazado_67856" data-name="Trazado 67856" d="M1671.33,8844.394c.4-.046.656-.1.656-.1.452-.121.7-.835.823-1.769a2.234,2.234,0,0,0-1.4,1.146A1.643,1.643,0,0,0,1671.33,8844.394Z" transform="translate(-1671.327 -8842.528)" fill="#e27f5a"/>
      </g>
      <g id="Grupo_27067" data-name="Grupo 27067" transform="translate(12.836 8.921)">
        <path id="Trazado_67857" data-name="Trazado 67857" d="M1673.427,8845.814s1.85-3.051.412-3.186a2.18,2.18,0,0,0-2.224,1.2,5.875,5.875,0,0,0,.053,1.971Z" transform="translate(-1671.534 -8842.617)" fill="#ffb27d"/>
      </g>
      <g id="Grupo_27068" data-name="Grupo 27068" transform="translate(7.671 11.576)">
        <path id="Trazado_67858" data-name="Trazado 67858" d="M1667.555,8858.66a3.941,3.941,0,0,0,.315,1.061,5.079,5.079,0,0,0,1.177,1.623v0c4.8-2.168,5.776-9.613,5.938-13.707.066-1.643,0-2.746,0-2.746-2.167-.717-2.776.529-2.776.529s-2.558,6.086-3.886,10.063A10.934,10.934,0,0,0,1667.555,8858.66Z" transform="translate(-1667.547 -8844.666)" fill="#ffce3b"/>
      </g>
      <g id="Grupo_27069" data-name="Grupo 27069" transform="translate(3.163 14.545)">
        <path id="Trazado_67859" data-name="Trazado 67859" d="M1664.067,8856.786a10.372,10.372,0,0,0,6.008,3.88h0c4.8-2.168,5.776-9.614,5.938-13.707,0,0-2.273,8.246-5.367,11.128a3.371,3.371,0,0,1-1.75.957s-3.9-1.1-4.72-2.142C1664.119,8856.828,1664.083,8856.79,1664.067,8856.786Z" transform="translate(-1664.067 -8846.958)" fill="#f0c239"/>
      </g>
    </g>
    <g id="Grupo_27078" data-name="Grupo 27078" transform="translate(1755.662 8829.164)">
      <g id="Grupo_27071" data-name="Grupo 27071">
        <path id="Trazado_67860" data-name="Trazado 67860" d="M1735.465,8821.016s-4.564,17.49-20.887,21.627l14.7,18.74s17.169-8.244,19.555-22.445Z" transform="translate(-1714.578 -8821.016)" fill="#fff"/>
      </g>
      <g id="Grupo_27072" data-name="Grupo 27072" transform="translate(18.973 9.856)">
        <rect id="Rectngulo_26364" data-name="Rectngulo 26364" width="0.384" height="14.728" transform="translate(0 0.242) rotate(-39.126)" fill="#d2efff"/>
      </g>
      <g id="Grupo_27073" data-name="Grupo 27073" transform="translate(18.117 12.162)">
        <rect id="Rectngulo_26365" data-name="Rectngulo 26365" width="0.384" height="14.65" transform="translate(0 0.234) rotate(-37.67)" fill="#d2efff"/>
      </g>
      <g id="Grupo_27074" data-name="Grupo 27074" transform="translate(16.666 14.155)">
        <rect id="Rectngulo_26366" data-name="Rectngulo 26366" width="0.384" height="15.887" transform="translate(0 0.229) rotate(-36.565)" fill="#d2efff"/>
      </g>
      <g id="Grupo_27075" data-name="Grupo 27075" transform="translate(14.789 16.599)">
        <rect id="Rectngulo_26367" data-name="Rectngulo 26367" width="0.384" height="15.98" transform="translate(0 0.228) rotate(-36.319)" fill="#d2efff"/>
      </g>
      <g id="Grupo_27076" data-name="Grupo 27076" transform="translate(12.825 18.514)">
        <rect id="Rectngulo_26368" data-name="Rectngulo 26368" width="0.384" height="15.98" transform="matrix(0.806, -0.592, 0.592, 0.806, 0, 0.228)" fill="#d2efff"/>
      </g>
      <g id="Grupo_27077" data-name="Grupo 27077" transform="translate(10.057 20.071)">
        <rect id="Rectngulo_26369" data-name="Rectngulo 26369" width="0.384" height="15.98" transform="matrix(0.806, -0.592, 0.592, 0.806, 0, 0.228)" fill="#d2efff"/>
      </g>
    </g>
    <g id="Grupo_27086" data-name="Grupo 27086" transform="translate(1591.597 8888.801)">
      <g id="Grupo_27079" data-name="Grupo 27079">
        <path id="Trazado_67861" data-name="Trazado 67861" d="M1618.7,8890.994s-12.723-9.352-10.808-23.941l-19.965,5.881s1.15,16.6,11.906,23.125Z" transform="translate(-1587.926 -8867.053)" fill="#f3fcff"/>
      </g>
      <g id="Grupo_27080" data-name="Grupo 27080" transform="translate(10.918 19.125)">
        <rect id="Rectngulo_26370" data-name="Rectngulo 26370" width="12.868" height="0.335" transform="translate(0 3.857) rotate(-17.444)" fill="#d2efff"/>
      </g>
      <g id="Grupo_27081" data-name="Grupo 27081" transform="translate(9.299 17.69)">
        <rect id="Rectngulo_26371" data-name="Rectngulo 26371" width="12.8" height="0.335" transform="translate(0 3.519) rotate(-15.96)" fill="#d2efff"/>
      </g>
      <g id="Grupo_27082" data-name="Grupo 27082" transform="translate(7.045 15.869)">
        <rect id="Rectngulo_26372" data-name="Rectngulo 26372" width="13.881" height="0.335" transform="matrix(0.967, -0.257, 0.257, 0.967, 0, 3.561)" fill="#d2efff"/>
      </g>
      <g id="Grupo_27083" data-name="Grupo 27083" transform="translate(5.575 13.556)">
        <rect id="Rectngulo_26373" data-name="Rectngulo 26373" width="13.962" height="0.335" transform="matrix(0.968, -0.252, 0.252, 0.968, 0, 3.526)" fill="#d2efff"/>
      </g>
      <g id="Grupo_27084" data-name="Grupo 27084" transform="translate(4.653 11.342)">
        <rect id="Rectngulo_26374" data-name="Rectngulo 26374" width="13.961" height="0.335" transform="matrix(0.968, -0.252, 0.252, 0.968, 0, 3.524)" fill="#d2efff"/>
      </g>
      <g id="Grupo_27085" data-name="Grupo 27085" transform="translate(4.285 8.591)">
        <rect id="Rectngulo_26375" data-name="Rectngulo 26375" width="13.962" height="0.335" transform="translate(0 3.527) rotate(-14.634)" fill="#d2efff"/>
      </g>
    </g>
    <g id="Grupo_27094" data-name="Grupo 27094" transform="translate(1661.024 8913.869)">
      <g id="Grupo_27087" data-name="Grupo 27087">
        <path id="Trazado_67862" data-name="Trazado 67862" d="M1684.752,8918.069s-18.024-11.7-16.579-31.664l-26.653,9.569s2.877,22.46,18,30.471Z" transform="translate(-1641.521 -8886.405)" fill="#ebf8fa"/>
      </g>
      <g id="Grupo_27088" data-name="Grupo 27088" transform="translate(16.185 25.721)">
        <rect id="Rectngulo_26376" data-name="Rectngulo 26376" width="17.51" height="0.456" transform="matrix(0.935, -0.355, 0.355, 0.935, 0, 6.213)" fill="#d2efff"/>
      </g>
      <g id="Grupo_27089" data-name="Grupo 27089" transform="translate(13.847 23.897)">
        <rect id="Rectngulo_26377" data-name="Rectngulo 26377" width="17.417" height="0.456" transform="translate(0 5.761) rotate(-19.316)" fill="#d2efff"/>
      </g>
      <g id="Grupo_27090" data-name="Grupo 27090" transform="translate(10.642 21.517)">
        <rect id="Rectngulo_26378" data-name="Rectngulo 26378" width="18.888" height="0.456" transform="translate(0 5.899) rotate(-18.2)" fill="#d2efff"/>
      </g>
      <g id="Grupo_27091" data-name="Grupo 27091" transform="translate(8.459 18.484)">
        <rect id="Rectngulo_26379" data-name="Rectngulo 26379" width="18.997" height="0.456" transform="matrix(0.951, -0.308, 0.308, 0.951, 0, 5.857)" fill="#d2efff"/>
      </g>
      <g id="Grupo_27092" data-name="Grupo 27092" transform="translate(7.033 15.551)">
        <rect id="Rectngulo_26380" data-name="Rectngulo 26380" width="18.997" height="0.456" transform="matrix(0.951, -0.308, 0.308, 0.951, 0, 5.857)" fill="#d2efff"/>
      </g>
      <g id="Grupo_27093" data-name="Grupo 27093" transform="translate(6.314 11.842)">
        <rect id="Rectngulo_26381" data-name="Rectngulo 26381" width="18.997" height="0.456" transform="translate(0 5.862) rotate(-17.972)" fill="#d2efff"/>
      </g>
    </g>
    <g id="Grupo_27102" data-name="Grupo 27102" transform="translate(1714.838 8814.064)">
      <g id="Grupo_27095" data-name="Grupo 27095">
        <path id="Trazado_67863" data-name="Trazado 67863" d="M1683.063,8812.092s10.115,9.109,7.225,21.459l17.626-3.336s.434-14.34-8.235-20.855Z" transform="translate(-1683.063 -8809.359)" fill="#fff"/>
      </g>
      <g id="Grupo_27096" data-name="Grupo 27096" transform="translate(5.123 2.321)">
        <rect id="Rectngulo_26382" data-name="Rectngulo 26382" width="11.35" height="0.289" transform="matrix(0.987, -0.158, 0.158, 0.987, 0, 1.798)" fill="#d2efff"/>
      </g>
      <g id="Grupo_27097" data-name="Grupo 27097" transform="translate(6.44 3.605)">
        <rect id="Rectngulo_26383" data-name="Rectngulo 26383" width="11.044" height="0.289" transform="translate(0 1.669) rotate(-8.687)" fill="#d2efff"/>
      </g>
      <g id="Grupo_27098" data-name="Grupo 27098" transform="translate(7.595 4.953)">
        <rect id="Rectngulo_26384" data-name="Rectngulo 26384" width="10.473" height="0.289" transform="matrix(0.987, -0.16, 0.16, 0.987, 0, 1.671)" fill="#d2efff"/>
      </g>
      <g id="Grupo_27099" data-name="Grupo 27099" transform="translate(8.304 6.621)">
        <rect id="Rectngulo_26385" data-name="Rectngulo 26385" width="10.644" height="0.289" transform="translate(0 1.546) rotate(-8.348)" fill="#d2efff"/>
      </g>
      <g id="Grupo_27100" data-name="Grupo 27100" transform="translate(8.945 7.907)">
        <rect id="Rectngulo_26386" data-name="Rectngulo 26386" width="10.517" height="0.289" transform="translate(0 1.543) rotate(-8.436)" fill="#d2efff"/>
      </g>
      <g id="Grupo_27101" data-name="Grupo 27101" transform="translate(8.942 9.45)">
        <rect id="Rectngulo_26387" data-name="Rectngulo 26387" width="11.466" height="0.289" transform="translate(0 1.925) rotate(-9.668)" fill="#d2efff"/>
      </g>
    </g>
    <g id="Grupo_27114" data-name="Grupo 27114" transform="translate(1642.674 8948.656)">
      <g id="Grupo_27103" data-name="Grupo 27103" transform="translate(0 1.519)">
        <path id="Trazado_67864" data-name="Trazado 67864" d="M1627.356,8917.547a3.148,3.148,0,0,0,.377,1.49,3.182,3.182,0,0,0,.535.714,3.111,3.111,0,0,0,2.2.91h43.8a3.114,3.114,0,1,0,0-6.229h-43.8A3.114,3.114,0,0,0,1627.356,8917.547Z" transform="translate(-1627.356 -8914.433)" fill="#2b688b"/>
      </g>
      <g id="Grupo_27104" data-name="Grupo 27104" transform="translate(2.863)">
        <path id="Trazado_67865" data-name="Trazado 67865" d="M1630.044,8914.215h15.016a.479.479,0,0,0,.478-.477h0a.479.479,0,0,0-.478-.479h-15.016a.479.479,0,0,0-.478.479h0A.479.479,0,0,0,1630.044,8914.215Z" transform="translate(-1629.566 -8913.26)" fill="#2b688b"/>
      </g>
      <g id="Grupo_27105" data-name="Grupo 27105" transform="translate(4.17 0.955)">
        <rect id="Rectngulo_26388" data-name="Rectngulo 26388" width="1.628" height="0.564" transform="translate(1.628 0.564) rotate(180)" fill="#234e62"/>
      </g>
      <g id="Grupo_27106" data-name="Grupo 27106" transform="translate(0.377 6.124)">
        <path id="Trazado_67866" data-name="Trazado 67866" d="M1627.647,8917.986a3.21,3.21,0,0,0,.535.715,3.115,3.115,0,0,0,2.2.91h9.278v-1.625Z" transform="translate(-1627.647 -8917.986)" fill="#234e62"/>
      </g>
      <g id="Grupo_27107" data-name="Grupo 27107" transform="translate(5.798 1.519)">
        <path id="Trazado_67867" data-name="Trazado 67867" d="M1681.858,8916.635v1.824a2.229,2.229,0,0,1-.076.578,2.2,2.2,0,0,1-2.125,1.624h-45.624a2.2,2.2,0,0,1-2.125-1.624,2.239,2.239,0,0,1-.076-.578v-1.824a2.2,2.2,0,0,1,2.2-2.2h45.624A2.2,2.2,0,0,1,1681.858,8916.635Z" transform="translate(-1631.832 -8914.433)" fill="#ffce3b"/>
      </g>
      <g id="Grupo_27108" data-name="Grupo 27108" transform="translate(5.875 6.124)">
        <path id="Trazado_67868" data-name="Trazado 67868" d="M1681.764,8917.986a2.2,2.2,0,0,1-2.125,1.625h-45.624a2.2,2.2,0,0,1-2.125-1.625Z" transform="translate(-1631.891 -8917.986)" fill="#dd992a"/>
      </g>
      <g id="Grupo_27113" data-name="Grupo 27113" transform="translate(51.293 1.519)">
        <g id="Grupo_27109" data-name="Grupo 27109">
          <path id="Trazado_67869" data-name="Trazado 67869" d="M1666.952,8917.559a3.459,3.459,0,0,0,.907,2.4l.036.039a2.213,2.213,0,0,0,1.563.681c.924,0,3.212-1.393,4.631-2.318.707-.461,1.2-.806,1.2-.806s-.491-.345-1.2-.808c-1.419-.926-3.708-2.318-4.631-2.318a2.074,2.074,0,0,0-.767.147,2.518,2.518,0,0,0-1.056.835,3.425,3.425,0,0,0-.635,1.523l0,.021A3.935,3.935,0,0,0,1666.952,8917.559Z" transform="translate(-1666.952 -8914.433)" fill="#8cb9f4"/>
        </g>
        <g id="Grupo_27110" data-name="Grupo 27110" transform="translate(0 2.526)">
          <path id="Trazado_67870" data-name="Trazado 67870" d="M1666.952,8916.982a3.459,3.459,0,0,0,.907,2.4l7.021-2.416-7.881-.588A3.935,3.935,0,0,0,1666.952,8916.982Z" transform="translate(-1666.952 -8916.383)" fill="#69a4e2"/>
        </g>
        <g id="Grupo_27111" data-name="Grupo 27111" transform="translate(0.684 0.148)">
          <path id="Trazado_67871" data-name="Trazado 67871" d="M1667.48,8915.381l7,1.912-5.948-2.747A2.518,2.518,0,0,0,1667.48,8915.381Z" transform="translate(-1667.48 -8914.546)" fill="#9fcdff"/>
        </g>
        <g id="Grupo_27112" data-name="Grupo 27112" transform="translate(6.68 2.319)">
          <path id="Trazado_67872" data-name="Trazado 67872" d="M1672.109,8917.029a.862.862,0,0,0,.457.806c.707-.461,1.2-.806,1.2-.806s-.491-.345-1.2-.808A.866.866,0,0,0,1672.109,8917.029Z" transform="translate(-1672.109 -8916.222)" fill="#183f4c"/>
        </g>
      </g>
    </g>
    <g id="Grupo_27115" data-name="Grupo 27115" transform="translate(1581.723 8956.438)">
      <rect id="Rectngulo_26389" data-name="Rectngulo 26389" width="255.389" height="0.694" rx="0.226" fill="#2e4052"/>
    </g>
  </g>
</svg>
