<svg xmlns="http://www.w3.org/2000/svg" width="242.218" height="151.505" viewBox="0 0 242.218 151.505">
  <g id="Grupo_26912" data-name="Grupo 26912" transform="translate(-1290.76 -8765.115)">
    <g id="Grupo_26911" data-name="Grupo 26911">
      <path id="Trazado_67729" data-name="Trazado 67729" d="M1499.754,8916.1s17.4,4.124,25.958-14.565c11.11-24.247-4.483-47.282-31.381-48.94-38.794-2.393-17.294-64.331-78.513-47.524-17.212,4.725-54.653-19.669-76.694,21.664-3.747,7.028-14.95,6.684-29.876,18.674-26.331,21.149-16.851,70.918,5.333,71.144S1499.754,8916.1,1499.754,8916.1Z" fill="#8bd0e4" opacity="0.1" style="isolation: isolate"/>
      <path id="Trazado_67730" data-name="Trazado 67730" d="M1318.461,8916.458s.809-5.3,11.128-6.724,19.913-12.855,36.928-11.2,31.136,12.068,50.5,8.879,31.5.875,35.843,4.081,22.325-.751,23.654,5.122Z" fill="#d2efff" opacity="0.5"/>
      <path id="Trazado_67731" data-name="Trazado 67731" d="M1360.877,8790.2s-11.646-.57-5.468,34.923c0,0,4.156,12.049-1.09,19.813h77.232V8790.2Z" fill="#cbcbcb"/>
      <g id="Grupo_26895" data-name="Grupo 26895">
        <g id="Grupo_26890" data-name="Grupo 26890">
          <path id="Trazado_67732" data-name="Trazado 67732" d="M1368.808,8882.479s-5.4-6.295-.333-10.293c0,0,3.7-2.238,6.714-2.057,0,0-4.273,7.165-2.891,7.877s4.185-8.328,4.185-8.328,8.416-.813,11.123.487c0,0-7.194,5.887-5.679,6.239s9.285-5.43,9.285-5.43,7.833,1.333,7.415,6.112-3.116,6.253-4.3,6.126-8.125-2.776-8.276-1.8,4.025,4.147,6.951,4.3c0,0-5.522,6.09-9.193,4.333s-3.984-4.544-6.272-5.589-4.24-1.042-3.3.023,5.084,2.1,6.392,4.417,2.483,3.874-1.314,3.3-9.97-3.352-10.24-6.531Z" fill="#599dad"/>
          <g id="Grupo_26889" data-name="Grupo 26889">
            <path id="Trazado_67733" data-name="Trazado 67733" d="M1394.782,8877.212s-21.274-.82-25.972,5.265a15.406,15.406,0,0,1-4.236,5.946l-.5,1.358s3.686-3.888,5.005-4.122C1369.082,8885.658,1367.016,8878.121,1394.782,8877.212Z" fill="#599dad"/>
            <path id="Trazado_67734" data-name="Trazado 67734" d="M1364.572,8888.423a13.359,13.359,0,0,0-4.883,9.41l.829.074s1.458-6.239,4.1-8.68S1364.572,8888.423,1364.572,8888.423Z" fill="#599dad"/>
          </g>
        </g>
        <g id="Grupo_26892" data-name="Grupo 26892">
          <path id="Trazado_67735" data-name="Trazado 67735" d="M1349.944,8874.561s8.583-4.807,4.578-11.329c0,0-3.2-4.007-6.637-5.036,0,0,1.83,9.728,0,9.956s-1.259-10.986-1.259-10.986-9.041-4.349-12.588-4.006c0,0,5.607,9.5,3.776,9.271s-8.125-9.843-8.125-9.843-9.27-1.715-10.758,3.778.915,8.238,2.289,8.582,10.185.229,9.957,1.374-6.18,2.975-9.5,1.944c0,0,3.662,9.042,8.469,8.584s6.293-3.434,9.269-3.663,5.15.573,3.662,1.374-6.523.263-8.927,2.3-4.348,3.3.115,4.218,12.475.343,14.077-3.091Z" fill="#aedfff"/>
          <g id="Grupo_26891" data-name="Grupo 26891">
            <path id="Trazado_67736" data-name="Trazado 67736" d="M1323.164,8858.082s24.033,7.781,26.78,16.479a18.233,18.233,0,0,0,2.289,8.354v1.716s-2.519-5.836-3.891-6.638C1348.342,8877.994,1353.72,8870.441,1323.164,8858.082Z" fill="#aedfff"/>
            <path id="Trazado_67737" data-name="Trazado 67737" d="M1352.233,8882.915a15.855,15.855,0,0,1,1.593,12.478l-.954-.256s.926-7.545-1.014-11.341S1352.233,8882.915,1352.233,8882.915Z" fill="#aedfff"/>
          </g>
        </g>
        <g id="Grupo_26894" data-name="Grupo 26894">
          <path id="Trazado_67738" data-name="Trazado 67738" d="M1363.6,8867.931s-11.314-6.336-6.034-14.935c0,0,4.223-5.279,8.748-6.637,0,0-2.413,12.821,0,13.124s1.659-14.482,1.659-14.482,11.918-5.732,16.594-5.28c0,0-7.392,12.521-4.978,12.22s10.712-12.974,10.712-12.974,12.218-2.263,14.179,4.979-1.207,10.861-3.017,11.313-13.426.3-13.125,1.812,8.147,3.923,12.521,2.564c0,0-4.826,11.917-11.163,11.314s-8.3-4.525-12.219-4.828-6.789.754-4.828,1.811,8.6.346,11.768,3.039,5.732,4.354-.151,5.56-16.443.453-18.555-4.073Z" fill="#aedfff"/>
          <g id="Grupo_26893" data-name="Grupo 26893">
            <path id="Trazado_67739" data-name="Trazado 67739" d="M1398.9,8846.208s-31.68,10.259-35.3,21.724a24.058,24.058,0,0,1-3.018,11.012v2.263s3.319-7.694,5.13-8.75C1365.711,8872.457,1358.62,8862.5,1398.9,8846.208Z" fill="#aedfff"/>
            <path id="Trazado_67740" data-name="Trazado 67740" d="M1360.582,8878.943a20.894,20.894,0,0,0-2.1,16.449l1.257-.338s-1.22-9.946,1.336-14.948S1360.582,8878.943,1360.582,8878.943Z" fill="#aedfff"/>
          </g>
        </g>
        <path id="Trazado_67741" data-name="Trazado 67741" d="M1363.218,8914.976a22.161,22.161,0,0,0,22.161-22.16h-44.324A22.161,22.161,0,0,0,1363.218,8914.976Z" fill="#508bc9"/>
        <path id="Trazado_67742" data-name="Trazado 67742" d="M1368.67,8914.807a22.174,22.174,0,0,1-24.914-21.992h5.505A22.164,22.164,0,0,0,1368.67,8914.807Z" fill="#8dbcff"/>
        <path id="Trazado_67743" data-name="Trazado 67743" d="M1385.686,8916.108h-44.937a2.734,2.734,0,0,1,2.734-2.734h39.468a2.734,2.734,0,0,1,2.735,2.733Z" fill="#508bc9"/>
        <rect id="Rectángulo_26349" data-name="Rectángulo 26349" width="45.557" height="0.68" transform="translate(1340.326 8892.814)" fill="#8dbcff"/>
      </g>
      <g id="Grupo_26897" data-name="Grupo 26897">
        <path id="Trazado_67744" data-name="Trazado 67744" d="M1443.413,8808.549s-3.882-7.326,1.935-10.115c0,0,4.1-1.373,7-.533,0,0-5.741,6.053-4.549,7.051s5.91-7.205,5.91-7.205,8.39,1.05,10.746,2.915c0,0-8.312,4.165-6.909,4.839s10.25-3.258,10.25-3.258,7.35,3.02,5.894,7.591-4.413,5.416-5.543,5.032-7.317-4.491-7.678-3.576,3.017,4.93,5.838,5.718c0,0-6.724,4.729-9.919,2.21s-2.889-5.308-4.891-6.829-3.91-1.947-3.221-.7,4.5,3.165,5.269,5.711,1.57,4.324-2.008,2.935-8.991-5.457-8.557-8.62Z" fill="#d2efff"/>
        <g id="Grupo_26896" data-name="Grupo 26896">
          <path id="Trazado_67745" data-name="Trazado 67745" d="M1469.908,8809.112s-20.576-5.47-26.5-.564a15.378,15.378,0,0,1-5.437,4.869l-.785,1.217s4.45-2.982,5.788-2.923C1442.979,8811.711,1442.621,8803.9,1469.908,8809.112Z" fill="#d2efff"/>
          <path id="Trazado_67746" data-name="Trazado 67746" d="M1437.975,8813.418a13.362,13.362,0,0,0-6.83,8.11l.792.254s2.792-5.768,5.9-7.569S1437.975,8813.418,1437.975,8813.418Z" fill="#599dad"/>
        </g>
      </g>
      <g id="Grupo_26899" data-name="Grupo 26899">
        <path id="Trazado_67747" data-name="Trazado 67747" d="M1417.849,8795.335s-11.5-6-6.475-14.749c0,0,4.063-5.4,8.548-6.9,0,0-2.031,12.889.389,13.119s1.229-14.525,1.229-14.525,11.74-6.083,16.428-5.771c0,0-7.016,12.736-4.613,12.363s10.321-13.287,10.321-13.287,12.146-2.625,14.322,4.555-.884,10.893-2.679,11.4-13.411.7-13.064,2.2,8.259,3.677,12.592,2.189c0,0-4.47,12.057-10.821,11.642s-8.429-4.277-12.357-4.461-6.764.955-4.772,1.952,8.606.09,11.853,2.688,5.859,4.18.014,5.562-16.422.942-18.668-3.519Z" fill="#aedfff"/>
        <g id="Grupo_26898" data-name="Grupo 26898">
          <path id="Trazado_67748" data-name="Trazado 67748" d="M1452.488,8772.571s-31.36,11.2-34.639,22.764a24.065,24.065,0,0,1-2.687,11.1l.067,2.262s3.087-7.788,4.866-8.9C1420.1,8799.795,1412.713,8790.055,1452.488,8772.571Z" fill="#aedfff"/>
          <path id="Trazado_67749" data-name="Trazado 67749" d="M1415.162,8806.432a20.884,20.884,0,0,0-1.61,16.5l1.247-.375s-1.515-9.905.889-14.981S1415.162,8806.432,1415.162,8806.432Z" fill="#6bb7bf"/>
        </g>
      </g>
      <rect id="Rectángulo_26350" data-name="Rectángulo 26350" width="80.633" height="105.156" transform="translate(1365.773 8811.207)" fill="#dcdcdc"/>
      <path id="Trazado_67782" data-name="Trazado 67782" d="M1368.409,8811.207h79.277v105.156h-79.277Z" fill="#fff"/>
      <path id="Trazado_67750" data-name="Trazado 67750" d="M1503.586,8916.1h-15.975c-.855-.726.593-2.374,2.1-2.484a9.286,9.286,0,0,1,2.439.288c.22-2.92,1.476-16.046,6.207-15.518,5.321.589,0,5.78-1.5,8.853a72.884,72.884,0,0,0-2.826,7.081c.431.094.878.185,1.335.27.705-2.166,3.33-9.448,6.666-9.022,3.918.5,2.343,3.417-.434,5.148-2.038,1.276-4.539,3.087-5.728,3.962a16.925,16.925,0,0,0,3.124.25C1501.732,8914.865,1503.069,8915.671,1503.586,8916.1Z" fill="#d2efff" opacity="0.5"/>
      <path id="Trazado_67751" data-name="Trazado 67751" d="M1447.688,8811.205h-79.279a34.265,34.265,0,0,0-1.281-13.479c-2.033-6.02-5.537-7.53-5.537-7.53h74.766c6.382,0,11.329,3.845,12.676,8.947.05.192.1.384.137.574A19.5,19.5,0,0,1,1447.688,8811.205Z" fill="#fff"/>
      <path id="Trazado_67752" data-name="Trazado 67752" d="M1447.688,8811.2h-79.279a34.265,34.265,0,0,0-1.281-13.479,255.939,255.939,0,0,0,49.645,4.112c13.9-.345,24.876-1.274,32.4-2.121A19.49,19.49,0,0,1,1447.688,8811.2Z" fill="#f6f8fb"/>
      <g id="Grupo_26907" data-name="Grupo 26907">
        <path id="Trazado_67756" data-name="Trazado 67756" d="M1405.68,8846.088a97.088,97.088,0,0,1-22.941-2.633c-6.173-1.565-9.5-4.123-9.5-6.391,0-2.057,2.71-3.947,7.836-5.471h0c-4.912,1.459-7.539,3.6-7.539,5.471,0,2.073,3.406,4.128,9.343,5.632a109.788,109.788,0,0,0,45.6,0c5.937-1.5,9.342-3.559,9.342-5.632,0-2.2-3.586-4.928-9.359-7.125-6.563-2.5-14.655-3.427-22.784-3.427-15.26,0-21.542,1.781-26.993,4.014h0c5.475-2.242,11.679-4.783,26.993-4.783a65.992,65.992,0,0,1,22.883,3.895c5.9,2.244,9.556,5.091,9.556,7.428,0,2.268-3.4,4.379-9.572,5.944A94.634,94.634,0,0,1,1405.68,8846.088Z" fill="#ffce3b"/>
      </g>
      <g id="Grupo_26910" data-name="Grupo 26910">
        <path id="Trazado_67757" data-name="Trazado 67757" d="M1458.122,8866.334a17.2,17.2,0,0,1-.6,3.287,11.719,11.719,0,0,1-2.206,2.521c-.566.328.345-2.2.23-2.693s-.467.9-.717.931-.184-1.219-.194-1.674,1.214-1.58,1.645-2.55S1458.122,8866.334,1458.122,8866.334Z" fill="#ffb27d"/>
        <path id="Trazado_67758" data-name="Trazado 67758" d="M1424.158,8840.835l-.635-1.2s.315-2.136-2.362-3.486a1.306,1.306,0,0,0-1.531.4c-.509.736.969.6.889,1.86a2.31,2.31,0,0,0,1.348,2.4l.688.8Z" fill="#ffb27d"/>
        <path id="Trazado_67759" data-name="Trazado 67759" d="M1449.459,8837.969a21.207,21.207,0,0,1-14.949,14.97c-3.949,1.15-12.92-11.851-12.92-11.851s.314-1.2,2.291-.923c0,0,8.735,5.782,9.834,6.411.976.558,7.393-7.166,10.319-8.411A7.471,7.471,0,0,1,1449.459,8837.969Z" fill="#f0c239"/>
        <g id="Grupo_26908" data-name="Grupo 26908">
          <rect id="Rectángulo_26360" data-name="Rectángulo 26360" width="2.363" height="11.885" transform="translate(1415.435 8838.085) rotate(-81.268)" fill="#508bc9"/>
          <path id="Trazado_67760" data-name="Trazado 67760" d="M1412.883,8836.5l2.552,1.587.358-2.335Z" fill="#aedfff"/>
          <path id="Trazado_67761" data-name="Trazado 67761" d="M1428.788,8838.537l-.113.738a.83.83,0,0,1-.942.7h-.006l-.544-.083.359-2.335.592.091A.784.784,0,0,1,1428.788,8838.537Z" fill="#aedfff"/>
        </g>
        <g id="Grupo_26909" data-name="Grupo 26909">
          <path id="Trazado_67762" data-name="Trazado 67762" d="M1464.559,8908.895s1.569,1.434,1.263,2.45-1.723,1.7-1.915,2.94-.957,1.922-1.646,1.922h-3.285s-.506-.875.719-1.139,1.686-1.727,1.609-3.082a23.747,23.747,0,0,1,.115-3.165l2.6-.6Z" fill="#183c49"/>
          <path id="Trazado_67763" data-name="Trazado 67763" d="M1445.305,8912.6s.282,3.261-.407,3.6l-8.817-.019s0-1.018,1.417-1.245,3.9-1.054,4.324-2.9S1445.305,8912.6,1445.305,8912.6Z" fill="#183c49"/>
          <path id="Trazado_67764" data-name="Trazado 67764" d="M1437.861,8866.559s.465,5.714,1.011,12.581c.744,9.329,1.636,20.789,1.726,22.959.153,3.77.765,9.8.765,9.8a4.865,4.865,0,0,0,4.365.828,97.386,97.386,0,0,0,3.333-17.715c.011-.149.023-.3.034-.449.689-9.272,1.76-28.8,1.76-28.8Z" fill="#2b688b"/>
          <path id="Trazado_67765" data-name="Trazado 67765" d="M1437.861,8866.559s.465,5.714,1.011,12.581l10.188,15.873c.011-.149.023-.3.034-.449.689-9.272,1.76-28.8,1.76-28.8Z" fill="#234e62"/>
          <path id="Trazado_67766" data-name="Trazado 67766" d="M1439.986,8867.237s8.382,20.69,13.894,30.414,7.234,12.438,7.234,12.438,3.158-1.245,3.446-2.093c0,0-2.108-18.772-5.8-23.349-2.085-2.586-4.535-10.346-4.651-13.06s-.746-8.083-.746-8.083Z" fill="#2b688b"/>
        </g>
        <path id="Trazado_67767" data-name="Trazado 67767" d="M1451.015,8835.35s-5.673,2.736-8.942,1.721a7.68,7.68,0,0,1,2.213-1.771c-.114-.656-.2-1.226-.252-1.709a15.953,15.953,0,0,1-.138-1.746l2.188-1.721,2.075-1.647A8.359,8.359,0,0,0,1451.015,8835.35Z" fill="#ffb27d"/>
        <path id="Trazado_67768" data-name="Trazado 67768" d="M1454,8864.565c.012.346-.73.742-1.057.892a23.163,23.163,0,0,1-7.256,2.056c-3.031.31-6.616-.372-7.848-.348a.5.5,0,0,1-.339-.135c-.088-.062-.151-3.715-.088-8.31,0-.185,0-.372.012-.557v-.062c.026-1.795.088-3.678.175-5.559a61.62,61.62,0,0,1,1.057-10.329,11.2,11.2,0,0,1,3.546-5.572l1.132-.99a5.443,5.443,0,0,0,3.521-.42c1.308-.633,2.716-1.313,2.943-1.141,1.711,1.251,2.867,4.063,3.483,7.653a39.851,39.851,0,0,1,.516,6.811c0,.892-.026,1.808-.076,2.712a85.314,85.314,0,0,0,.176,11.628C1453.952,8863.612,1453.99,8864.169,1454,8864.565Z" fill="#ffce3b"/>
        <path id="Trazado_67769" data-name="Trazado 67769" d="M1453.905,8864.339c-19.862-.039-3.663-21.551-3.663-21.551l3.218-1.045a62.715,62.715,0,0,1,.373,7.275c0,.953-.018,1.932-.055,2.9C1453.557,8857.156,1453.776,8861.707,1453.905,8864.339Z" fill="#f0c239"/>
        <path id="Trazado_67770" data-name="Trazado 67770" d="M1448.2,8830.247a7.51,7.51,0,0,1-4.163,3.343,15.456,15.456,0,0,1-.138-1.746l2.188-1.721Z" fill="#ed985f"/>
        <path id="Trazado_67771" data-name="Trazado 67771" d="M1442.9,8831.771s5.411.884,5.919-2.442,1.548-5.453-1.885-6.158-4.3.464-4.743,1.534S1441.5,8831.454,1442.9,8831.771Z" fill="#ffb27d"/>
        <path id="Trazado_67772" data-name="Trazado 67772" d="M1450.783,8822.771c.049-.057.163-.1.415-.115a1.047,1.047,0,0,0-.47-.134,1.271,1.271,0,0,0-.843-1.121.75.75,0,0,1,.366.545c-.7-.72-2.2-1.241-6.342-.912-5.465.431-3.665,3.93-2.957,4.347s2.488-.727,3.807-.623,1.568,2.01,2.016,2.271.271-.2.876-.476.662.73.488,1.381.657,1.513.657,1.513l.841-.9c.84-.905,1.631-4.738,1.249-5.554Z" fill="#2c3a64"/>
        <path id="Trazado_67773" data-name="Trazado 67773" d="M1449.8,8834.063a14.3,14.3,0,0,1,5.065,4.112c2.546,3.867,5.5,17.955,5.551,19.26s-2.153,10.516-2.153,10.516-2.24-.147-2.82-1.278c0,0,.448-9.464.166-10.071s-9.34-12.7-8.321-15.272S1449.8,8834.063,1449.8,8834.063Z" fill="#ffce3b"/>
        <path id="Trazado_67774" data-name="Trazado 67774" d="M1423.512,8839.579s.187-.736-.324-1.066-.979-1.229-1.195-1.107c-.446.253.243,1.037.117,2.016C1422.067,8839.762,1422.865,8840.66,1423.512,8839.579Z" fill="#ffb27d"/>
      </g>
      <path id="Trazado_67775" data-name="Trazado 67775" d="M1340.327,8909.218s-8.042-20.591-13.682-17.311S1340.327,8909.218,1340.327,8909.218Z" fill="#d2efff" opacity="0.5"/>
      <path id="Trazado_67776" data-name="Trazado 67776" d="M1336.353,8909.218s-10.624-9.18-15.477-7.476S1336.353,8909.218,1336.353,8909.218Z" fill="#d2efff" opacity="0.5"/>
      <path id="Trazado_67777" data-name="Trazado 67777" d="M1448.835,8912.184s2.448-8.512,5.32-7.508S1448.835,8912.184,1448.835,8912.184Z" fill="#d2efff" opacity="0.5"/>
      <path id="Trazado_67778" data-name="Trazado 67778" d="M1451.069,8911.719s6.25-4.1,7.622-2.833S1451.069,8911.719,1451.069,8911.719Z" fill="#d2efff" opacity="0.5"/>
      <g id="Grupo_26889-2" data-name="Grupo 26889" opacity="0.5">
        <g id="Grupo_26901" data-name="Grupo 26901">
          <rect id="Rectángulo_26352" data-name="Rectángulo 26352" width="43.612" height="1.972" rx="0.643" transform="translate(1383.918 8833.483)" fill="#36717f"/>
          <rect id="Rectángulo_26353" data-name="Rectángulo 26353" width="27.174" height="1.972" rx="0.508" transform="translate(1383.918 8836.8)" fill="#36717f"/>
          <g id="Grupo_26900" data-name="Grupo 26900">
            <path id="Trazado_67753" data-name="Trazado 67753" d="M1379.869,8838.453v-4.028h-.532q-.483,0-.483-.4c0-.194.126-.331.38-.411a2.8,2.8,0,0,1,.616-.1q.423-.032.68-.032t.315.1a1.216,1.216,0,0,1,.063.511v4.359h.549c.354,0,.532.151.532.458,0,.323-.178.484-.532.484h-2.208a.6.6,0,0,1-.393-.126.425.425,0,0,1-.156-.351c0-.31.181-.466.54-.467Z" fill="#36717f"/>
          </g>
        </g>
        <g id="Grupo_26903" data-name="Grupo 26903">
          <rect id="Rectángulo_26354" data-name="Rectángulo 26354" width="43.612" height="1.972" rx="0.643" transform="translate(1383.918 8854.251)" fill="#36717f"/>
          <rect id="Rectángulo_26355" data-name="Rectángulo 26355" width="27.174" height="1.972" rx="0.508" transform="translate(1383.918 8857.568)" fill="#36717f"/>
          <g id="Grupo_26902" data-name="Grupo 26902">
            <path id="Trazado_67754" data-name="Trazado 67754" d="M1382.071,8859.141c0,.268-.188.4-.562.4h-2.336c-.336,0-.506-.136-.506-.406a.515.515,0,0,1,.135-.3q.2-.227.584-.683.584-.734.975-1.269c.09-.119.218-.3.384-.541a1.314,1.314,0,0,0,.207-.612.626.626,0,0,0-.178-.458.611.611,0,0,0-.456-.183.7.7,0,0,0-.469.171.81.81,0,0,0-.213.428,4.544,4.544,0,0,1-.128.47.362.362,0,0,1-.349.228.4.4,0,0,1-.334-.155.541.541,0,0,1-.114-.356,1.712,1.712,0,0,1,.078-.507,1.507,1.507,0,0,1,.605-.839,1.742,1.742,0,0,1,1-.278,1.558,1.558,0,0,1,1.082.393,1.376,1.376,0,0,1,.449,1.056,1.829,1.829,0,0,1-.321.982q-.179.28-.733.984-.283.365-.9,1.055h1.539Q1382.071,8858.723,1382.071,8859.141Z" fill="#36717f"/>
          </g>
        </g>
        <g id="Grupo_26905" data-name="Grupo 26905">
          <rect id="Rectángulo_26356" data-name="Rectángulo 26356" width="43.612" height="1.972" rx="0.643" transform="translate(1383.918 8871.575)" fill="#36717f"/>
          <rect id="Rectángulo_26357" data-name="Rectángulo 26357" width="27.174" height="1.972" rx="0.508" transform="translate(1383.918 8874.894)" fill="#36717f"/>
          <g id="Grupo_26904" data-name="Grupo 26904">
            <path id="Trazado_67755" data-name="Trazado 67755" d="M1382.071,8875.213a1.527,1.527,0,0,1-.532,1.215,1.87,1.87,0,0,1-1.272.438,1.779,1.779,0,0,1-1.02-.284,1.3,1.3,0,0,1-.669-1.084.457.457,0,0,1,.116-.312.383.383,0,0,1,.3-.132c.125,0,.244.086.356.255a5.522,5.522,0,0,0,.313.467.818.818,0,0,0,.618.255.776.776,0,0,0,.729-.378,1.026,1.026,0,0,0,.1-.481q0-.713-.837-.793c-.315-.029-.472-.162-.472-.4a.378.378,0,0,1,.274-.37c.342-.128.517-.193.52-.2a.7.7,0,0,0,.276-.632.547.547,0,0,0-.588-.584.778.778,0,0,0-.522.16,1.049,1.049,0,0,0-.268.473.33.33,0,0,1-.333.255.343.343,0,0,1-.287-.153.555.555,0,0,1-.112-.335.937.937,0,0,1,.123-.45,1.389,1.389,0,0,1,.626-.589,1.825,1.825,0,0,1,.844-.2,1.475,1.475,0,0,1,1.03.376,1.27,1.27,0,0,1,.411.986,1.353,1.353,0,0,1-.611,1.164A1.321,1.321,0,0,1,1382.071,8875.213Z" fill="#36717f"/>
          </g>
        </g>
        <g id="Grupo_26906" data-name="Grupo 26906">
          <rect id="Rectángulo_26358" data-name="Rectángulo 26358" width="27.82" height="2.291" rx="0.668" transform="translate(1394.842 8815.9)" fill="#36717f"/>
          <path id="Rectángulo_26359" data-name="Rectángulo 26359" d="M1388.647,8819.432h40.21a.82.82,0,0,1,.819.819h0v.652a.819.819,0,0,1-.82.819h-40.209a.818.818,0,0,1-.819-.818v-.653a.819.819,0,0,1,.819-.819Z" fill="#36717f"/>
        </g>
        <path id="Trazado_67779" data-name="Trazado 67779" d="M1429.711,8893.494h-48.75a.6.6,0,0,1-.593-.594h0a.6.6,0,0,1,.593-.594h48.75a.6.6,0,0,1,.593.594h0A.6.6,0,0,1,1429.711,8893.494Z" fill="#36717f"/>
        <path id="Trazado_67780" data-name="Trazado 67780" d="M1429.711,8895.869h-48.75a.6.6,0,0,1-.593-.593h0a.6.6,0,0,1,.593-.595h48.75a.6.6,0,0,1,.593.595h0A.6.6,0,0,1,1429.711,8895.869Z" fill="#36717f"/>
        <path id="Trazado_67781" data-name="Trazado 67781" d="M1429.711,8898.5h-48.75a.6.6,0,0,1-.593-.593h0a.6.6,0,0,1,.593-.593h48.75a.6.6,0,0,1,.593.593h0A.6.6,0,0,1,1429.711,8898.5Z" fill="#36717f"/>
        <rect id="Rectángulo_26361" data-name="Rectángulo 26361" width="43.496" height="1.187" rx="0.454" transform="translate(1380.369 8899.945)" fill="#36717f"/>
      </g>
      <rect id="Rectángulo_26362" data-name="Rectángulo 26362" width="242.218" height="0.515" rx="0.193" transform="translate(1290.76 8916.105)" fill="#1c468a"/>
    </g>
  </g>
</svg>
