<svg xmlns="http://www.w3.org/2000/svg" xmlns:xlink="http://www.w3.org/1999/xlink" width="425.108" height="426.899" viewBox="0 0 425.108 426.899">
  <defs>
    <linearGradient id="linear-gradient" y1="0.5" x2="1" y2="0.5" gradientUnits="objectBoundingBox">
      <stop offset="0" stop-color="#dae3fe"/>
      <stop offset="1" stop-color="#e9effd"/>
    </linearGradient>
    <linearGradient id="linear-gradient-2" x1="-30.681" y1="-2.445" x2="159.693" y2="15.534" gradientUnits="objectBoundingBox">
      <stop offset="0" stop-color="#a737d5"/>
      <stop offset="1" stop-color="#ef497a"/>
    </linearGradient>
    <linearGradient id="linear-gradient-3" x1="1.134" y1="-0.115" x2="-0.449" y2="1.396" gradientUnits="objectBoundingBox">
      <stop offset="0" stop-color="#3487ad"/>
      <stop offset="1" stop-color="#4042e2"/>
    </linearGradient>
    <linearGradient id="linear-gradient-23" x1="0.727" y1="-2.869" x2="0.282" y2="3.71" xlink:href="#linear-gradient-3"/>
    <linearGradient id="linear-gradient-24" x1="-31.909" y1="0.302" x2="-31.237" y2="1.263" gradientUnits="objectBoundingBox">
      <stop offset="0" stop-color="#febbba"/>
      <stop offset="1" stop-color="#ff928e"/>
    </linearGradient>
    <linearGradient id="linear-gradient-25" x1="-91.102" y1="0.5" x2="-90.102" y2="0.5" gradientUnits="objectBoundingBox">
      <stop offset="0" stop-color="#09005d"/>
      <stop offset="1" stop-color="#1a0f91"/>
    </linearGradient>
    <linearGradient id="linear-gradient-26" x1="-71.467" y1="1.602" x2="-70.432" y2="-1.187" xlink:href="#linear-gradient-24"/>
    <linearGradient id="linear-gradient-27" x1="-61.663" y1="0.5" x2="-60.663" y2="0.5" xlink:href="#linear-gradient-25"/>
    <linearGradient id="linear-gradient-28" x1="-29.825" y1="1.698" x2="-29.362" y2="-1.193" xlink:href="#linear-gradient-24"/>
    <linearGradient id="linear-gradient-29" x1="30.333" y1="-64.23" x2="28.392" y2="-62.214" gradientUnits="objectBoundingBox">
      <stop offset="0" stop-color="#ff928e"/>
      <stop offset="1" stop-color="#fe7062"/>
    </linearGradient>
    <linearGradient id="linear-gradient-30" x1="26.882" y1="-47.822" x2="25.236" y2="-46.332" xlink:href="#linear-gradient-29"/>
    <linearGradient id="linear-gradient-31" x1="-94.169" y1="1.857" x2="-93.914" y2="0.807" xlink:href="#linear-gradient-24"/>
    <linearGradient id="linear-gradient-32" x1="-62.392" y1="1.328" x2="-60.931" y2="-1.033" xlink:href="#linear-gradient-24"/>
    <linearGradient id="linear-gradient-33" x1="-225.703" y1="3.259" x2="-220.387" y2="-4.349" xlink:href="#linear-gradient-24"/>
    <linearGradient id="linear-gradient-34" x1="-114.581" y1="1.592" x2="-112.969" y2="4.225" xlink:href="#linear-gradient-24"/>
    <linearGradient id="linear-gradient-35" x1="0.245" y1="0.738" x2="1.049" y2="-0.129" xlink:href="#linear-gradient-24"/>
    <linearGradient id="linear-gradient-36" x1="0.5" x2="0.5" y2="1" gradientUnits="objectBoundingBox">
      <stop offset="0" stop-color="#f4efe2"/>
      <stop offset="0.697" stop-color="#fff"/>
      <stop offset="1" stop-color="#f4efe2"/>
    </linearGradient>
    <radialGradient id="radial-gradient" cx="0.5" cy="0.5" r="0.5" gradientUnits="objectBoundingBox">
      <stop offset="0" stop-color="#f2f2f0"/>
      <stop offset="1" stop-color="#eae699"/>
    </radialGradient>
    <linearGradient id="linear-gradient-37" x1="43.807" y1="-0.846" x2="40.97" y2="5.542" xlink:href="#linear-gradient-25"/>
    <linearGradient id="linear-gradient-38" x1="168.484" y1="-0.207" x2="169.492" y2="-0.207" xlink:href="#linear-gradient-24"/>
    <linearGradient id="linear-gradient-39" x1="3.692" y1="-0.38" x2="1.446" y2="0.201" gradientUnits="objectBoundingBox">
      <stop offset="0" stop-color="#4f52ff"/>
      <stop offset="1" stop-color="#4042e2"/>
    </linearGradient>
    <linearGradient id="linear-gradient-40" x1="102.993" y1="-2.628" x2="95.973" y2="4.936" xlink:href="#linear-gradient-25"/>
    <linearGradient id="linear-gradient-41" x1="187.787" y1="-0.014" x2="188.801" y2="-0.014" xlink:href="#linear-gradient-24"/>
    <linearGradient id="linear-gradient-42" x1="2.53" y1="-0.311" x2="1.028" y2="0.261" xlink:href="#linear-gradient-39"/>
    <linearGradient id="linear-gradient-43" x1="-0.606" y1="1.518" x2="0.565" y2="0.474" xlink:href="#linear-gradient-29"/>
    <linearGradient id="linear-gradient-44" x1="1.116" y1="0.941" x2="-0.257" y2="0.054" xlink:href="#linear-gradient-24"/>
    <linearGradient id="linear-gradient-45" x1="1.434" y1="1.247" x2="-0.053" y2="0.185" xlink:href="#linear-gradient-24"/>
    <linearGradient id="linear-gradient-46" x1="259.481" y1="0.059" x2="261.483" y2="-1.721" xlink:href="#linear-gradient-24"/>
    <linearGradient id="linear-gradient-47" x1="-3.285" y1="3.966" x2="-0.343" y2="1.308" xlink:href="#linear-gradient-29"/>
    <linearGradient id="linear-gradient-48" x1="24.605" y1="0.303" x2="25.607" y2="0.303" xlink:href="#linear-gradient-24"/>
    <linearGradient id="linear-gradient-49" x1="63.919" y1="0.247" x2="64.91" y2="0.247" xlink:href="#linear-gradient-24"/>
    <linearGradient id="linear-gradient-50" x1="78.957" y1="0.5" x2="79.957" y2="0.5" xlink:href="#linear-gradient-24"/>
    <linearGradient id="linear-gradient-51" x1="-2.291" y1="7.018" x2="-3.428" y2="8.299" xlink:href="#linear-gradient-24"/>
    <linearGradient id="linear-gradient-52" x1="-13.283" y1="24.541" x2="-10.677" y2="21.894" xlink:href="#linear-gradient-24"/>
  </defs>
  <g id="Grupo_29519" data-name="Grupo 29519" transform="translate(-460.873 -455)">
    <path id="Trazado_68411" data-name="Trazado 68411" d="M863.6,749.818c-40.782,96.026-149.417,149.82-243.625,135.309-15.33-2.361-57.356-9.4-94.564-42.577-71.629-63.879-86.947-190.366-29.166-279.5,42.054-64.878,117.441-101.654,189.073-99.815,15.43.4,74.562,2.838,126.529,45.689A194.889,194.889,0,0,1,851.485,553.9C887.113,609.613,890.175,687.237,863.6,749.818Z" transform="translate(0 -6.92)" fill="#e6eef3"/>
    <g id="Grupo_28695" data-name="Grupo 28695" transform="translate(465.523 459.446)">
      <g id="Grupo_28689" data-name="Grupo 28689" transform="translate(0 65.207)">
        <g id="Grupo_28685" data-name="Grupo 28685" opacity="0.3">
          <path id="Trazado_68412" data-name="Trazado 68412" d="M544.237,913.211a1.229,1.229,0,0,1-1.291,1.164c-1.317-.068-2.657-.08-3.982-.036a1.229,1.229,0,0,1-1.269-1.163v-.024a1.229,1.229,0,0,1,1.188-1.27c1.395-.047,2.805-.034,4.192.038a1.229,1.229,0,0,1,1.164,1.161A1.176,1.176,0,0,1,544.237,913.211ZM532.529,915c-1.306.224-2.615.507-3.891.84a1.229,1.229,0,1,1-.62-2.379c1.343-.351,2.721-.648,4.095-.885a1.229,1.229,0,0,1,1.42,1,1.261,1.261,0,0,1,.016.145A1.229,1.229,0,0,1,532.529,915Zm-10.019,2.9c-1.22.508-2.432,1.076-3.6,1.687a1.229,1.229,0,0,1-1.137-2.18c1.234-.644,2.512-1.242,3.8-1.777a1.229,1.229,0,1,1,.945,2.269Zm-9.117,5.072c-1.077.769-2.133,1.594-3.139,2.451a1.229,1.229,0,0,1-1.595-1.871c1.059-.9,2.171-1.771,3.3-2.581a1.229,1.229,0,0,1,1.429,2Zm-7.76,6.977c-.877.987-1.724,2.025-2.518,3.086a1.229,1.229,0,1,1-1.969-1.473c.835-1.116,1.726-2.209,2.649-3.247a1.229,1.229,0,1,1,1.837,1.633Zm-6.023,8.52c-.638,1.158-1.234,2.357-1.772,3.566a1.229,1.229,0,0,1-2.246-1c.566-1.271,1.194-2.534,1.865-3.753a1.229,1.229,0,1,1,2.153,1.187Zm-1.065,45.634a1.229,1.229,0,0,1-1.658-.524c-.641-1.234-1.237-2.513-1.77-3.8a1.229,1.229,0,0,1,2.271-.941c.507,1.223,1.073,2.437,1.681,3.609a1.228,1.228,0,0,1-.524,1.657Zm-2.917-36c-.364,1.27-.678,2.571-.932,3.868a1.229,1.229,0,1,1-2.413-.473c.268-1.365.6-2.736.982-4.073a1.229,1.229,0,1,1,2.363.678Zm-1.175,26.1a1.23,1.23,0,0,1-1.5-.882c-.348-1.346-.643-2.725-.877-4.1a1.229,1.229,0,0,1,2.424-.412c.222,1.305.5,2.616.833,3.9a1.216,1.216,0,0,1,.037.244A1.229,1.229,0,0,1,494.453,974.2Zm-.553-15.812c-.071,1.319-.086,2.658-.044,3.981a1.229,1.229,0,0,1-2.456.1c0-.009,0-.017,0-.026-.044-1.393-.029-2.8.046-4.19a1.229,1.229,0,0,1,2.455,0C493.9,958.3,493.9,958.348,493.9,958.392Z" transform="translate(-491.373 -911.854)" fill="#91b3fa"/>
          <path id="Trazado_68413" data-name="Trazado 68413" d="M553.1,1410.6a1.221,1.221,0,0,0-.256-.688c-.389-.5-.773-1.018-1.144-1.537a1.229,1.229,0,1,0-2,1.428c.389.546.794,1.09,1.2,1.617a1.229,1.229,0,0,0,2.2-.82Z" transform="translate(-540.611 -1332.24)" fill="#91b3fa"/>
        </g>
        <g id="Grupo_28686" data-name="Grupo 28686" transform="translate(40.8 16.823)" opacity="0.3">
          <path id="Trazado_68414" data-name="Trazado 68414" d="M763.383,1537.85a1.229,1.229,0,0,0-1.1-1.156c-.63-.067-1.27-.149-1.9-.242a1.229,1.229,0,1,0-.361,2.432c.664.1,1.337.184,2,.255a1.23,1.23,0,0,0,1.358-1.289Z" transform="translate(-758.975 -1458.034)" fill="#91b3fa"/>
          <path id="Trazado_68415" data-name="Trazado 68415" d="M863.508,1092.991a1.229,1.229,0,1,1-2.458.009c0-1.292-.065-2.6-.178-3.916a1.229,1.229,0,0,1,2.45-.212q.074.852.118,1.7C863.483,1091.378,863.506,1092.192,863.508,1092.991Zm-2.143-9.269a1.229,1.229,0,0,1-1.469-.929c-.287-1.271-.631-2.544-1.022-3.784a1.229,1.229,0,1,1,2.344-.74c.412,1.3.774,2.645,1.076,3.983a1.228,1.228,0,0,1-.929,1.47Zm1.709,15.953c-.182,1.355-.424,2.722-.721,4.061a1.229,1.229,0,1,1-2.4-.532c.282-1.272.513-2.569.685-3.856a1.229,1.229,0,0,1,2.437.327Zm-4.89-26a1.229,1.229,0,0,1-1.638-.583c-.558-1.176-1.173-2.341-1.828-3.464a1.229,1.229,0,0,1,2.124-1.238c.69,1.183,1.338,2.411,1.925,3.648a1.227,1.227,0,0,1-.583,1.638Zm2.274,36.485c-.476,1.281-1.012,2.56-1.6,3.8a1.229,1.229,0,1,1-2.225-1.046c.554-1.179,1.065-2.394,1.516-3.611a1.229,1.229,0,1,1,2.3.855Zm-4.851,9.653c-.746,1.149-1.549,2.28-2.387,3.362a1.229,1.229,0,1,1-1.943-1.505c.8-1.028,1.559-2.1,2.268-3.195a1.229,1.229,0,1,1,2.062,1.338Zm-6.839,8.367c-.979.96-2.009,1.889-3.062,2.762a1.229,1.229,0,0,1-1.569-1.893c1-.829,1.979-1.712,2.91-2.625a1.229,1.229,0,0,1,1.721,1.755Zm-8.5,6.676c-1.165.723-2.374,1.4-3.595,2.025a1.229,1.229,0,1,1-1.114-2.191c1.159-.59,2.307-1.236,3.414-1.923a1.229,1.229,0,1,1,1.3,2.089ZM830.5,1139.5c-1.292.447-2.621.845-3.95,1.182a1.229,1.229,0,0,1-.605-2.383c1.262-.32,2.524-.7,3.752-1.123a1.229,1.229,0,1,1,.8,2.323Zm-10.537,2.386c-1,.114-2.019.2-3.023.252q-.546.029-1.089.045a1.215,1.215,0,0,1-1.266-1.191,1.229,1.229,0,0,1,1.191-1.267q.516-.016,1.035-.043c.955-.05,1.922-.131,2.874-.239a1.229,1.229,0,0,1,1.36,1.082c0,.025.005.051.006.076A1.229,1.229,0,0,1,819.964,1141.885Z" transform="translate(-806.107 -1060.826)" fill="#91b3fa"/>
          <path id="Trazado_68416" data-name="Trazado 68416" d="M1048.057,1024.881a1.226,1.226,0,0,0-.26-.693c-.411-.523-.84-1.048-1.277-1.56a1.229,1.229,0,1,0-1.87,1.6c.415.486.823.984,1.213,1.481a1.229,1.229,0,0,0,2.195-.824Z" transform="translate(-1000.845 -1022.197)" fill="#91b3fa"/>
        </g>
        <g id="Grupo_28688" data-name="Grupo 28688" transform="translate(11.684 12.112)">
          <path id="Trazado_68417" data-name="Trazado 68417" d="M623.415,996.142a.575.575,0,0,0-.667-.008L617,1000.122a30.465,30.465,0,0,0-9.587-2.341l-3.261-6.18a.574.574,0,0,0-.6-.3l-8.289,1.283a.574.574,0,0,0-.478.466l-1.241,6.877a30.46,30.46,0,0,0-8.431,5.129l-6.68-2.065a.575.575,0,0,0-.633.21l-4.954,6.768a.575.575,0,0,0-.008.667l3.988,5.744a30.457,30.457,0,0,0-2.341,9.587l-6.18,3.261a.575.575,0,0,0-.3.6l1.283,8.289a.574.574,0,0,0,.466.477l6.877,1.241a30.455,30.455,0,0,0,5.129,8.431l-2.065,6.681a.574.574,0,0,0,.21.633l6.768,4.954a.575.575,0,0,0,.667.008l5.744-3.988a30.455,30.455,0,0,0,9.587,2.341l3.262,6.18a.574.574,0,0,0,.6.3l8.289-1.283a.574.574,0,0,0,.477-.466l1.241-6.877a30.459,30.459,0,0,0,8.431-5.129l6.68,2.065a.575.575,0,0,0,.633-.21l4.954-6.768a.575.575,0,0,0,.008-.667l-3.988-5.744a30.458,30.458,0,0,0,2.341-9.587l6.18-3.262a.575.575,0,0,0,.3-.6l-1.283-8.289a.575.575,0,0,0-.466-.478l-6.877-1.241a30.464,30.464,0,0,0-5.129-8.431l2.065-6.68a.574.574,0,0,0-.209-.633Z" transform="translate(-568.006 -991.294)" fill="#d4e0f8"/>
          <g id="Grupo_28687" data-name="Grupo 28687" transform="translate(28.61 28.61)">
            <path id="Trazado_68418" data-name="Trazado 68418" d="M772.48,1188.167a8.425,8.425,0,1,1,.026-1.238A8.44,8.44,0,0,1,772.48,1188.167Zm-13.372,3.334a6.464,6.464,0,1,0-1.457-4.728,6.57,6.57,0,0,0-.02.959A6.417,6.417,0,0,0,759.108,1191.5Z" transform="translate(-755.655 -1178.947)" fill="#bdd0fb"/>
          </g>
          <path id="Trazado_68419" data-name="Trazado 68419" d="M715.649,1118.836a21.159,21.159,0,0,0-.219-2.119h0q-.051-.334-.114-.666a20.863,20.863,0,0,0-.87-3.2l-.015-.042-.044-.12c-.029-.078-.058-.156-.088-.233a.492.492,0,1,0-.918.352,19.771,19.771,0,0,1-5.428,21.933,19.628,19.628,0,0,1-9.989,4.666,20,20,0,0,1-2.021.209,19.748,19.748,0,1,1,6.43-38.023.486.486,0,0,0,.211.036.492.492,0,0,0,.159-.947,20.732,20.732,0,1,0-6.75,39.917,21.169,21.169,0,0,0,2.122-.22,20.734,20.734,0,0,0,17.536-21.538Z" transform="translate(-658.019 -1082.711)" fill="#bdd0fb"/>
        </g>
      </g>
      <g id="Grupo_28694" data-name="Grupo 28694" transform="translate(22.437 0)">
        <g id="Grupo_28690" data-name="Grupo 28690" opacity="0.3">
          <path id="Trazado_68420" data-name="Trazado 68420" d="M888.3,488.389a.759.759,0,0,0-.583-.7c-.627-.149-1.267-.281-1.9-.392a.759.759,0,1,0-.261,1.5c.605.106,1.216.231,1.814.373a.76.76,0,0,0,.914-.563A.772.772,0,0,0,888.3,488.389Z" transform="translate(-847.358 -486.811)" fill="#91b3fa"/>
          <path id="Trazado_68421" data-name="Trazado 68421" d="M673.7,485a.759.759,0,0,1-.8.721,31.643,31.643,0,0,0-3.186.006q-.334.018-.67.043a.76.76,0,0,1-.813-.7.786.786,0,0,1,.7-.813q.352-.026.7-.044a32.951,32.951,0,0,1,3.34-.006.759.759,0,0,1,.721.718C673.7,484.946,673.7,484.972,673.7,485Zm-8.473,1.286a31.483,31.483,0,0,0-3.728.979.759.759,0,0,1-.475-1.442,32.91,32.91,0,0,1,3.908-1.027.76.76,0,0,1,.893.6.785.785,0,0,1,.013.108A.759.759,0,0,1,665.225,486.285Zm-7.308,2.413a31.162,31.162,0,0,0-3.374,1.866.759.759,0,0,1-.816-1.281,32.8,32.8,0,0,1,3.539-1.957.759.759,0,0,1,.651,1.372Zm-6.492,4.134a31.354,31.354,0,0,0-2.814,2.634.759.759,0,0,1-1.1-1.042,32.931,32.931,0,0,1,2.951-2.763.759.759,0,1,1,.967,1.17Zm-5.286,5.594a31.632,31.632,0,0,0-2.09,3.239.759.759,0,0,1-1.324-.744,33.221,33.221,0,0,1,2.19-3.395.759.759,0,0,1,1.223.9Zm-3.767,6.708a31.1,31.1,0,0,0-1.236,3.647.759.759,0,1,1-1.466-.4,32.681,32.681,0,0,1,1.3-3.826.759.759,0,0,1,1.405.576Zm-2.012,7.422a31.2,31.2,0,0,0-.3,3.843.76.76,0,0,1-1.519-.026,32.913,32.913,0,0,1,.318-4.029.759.759,0,1,1,1.5.212Zm-.057,12.408a.759.759,0,0,1-.911-.568,33.048,33.048,0,0,1-.61-3.458c-.023-.177-.042-.353-.061-.529a.752.752,0,0,1,.676-.834.759.759,0,0,1,.834.676c.017.165.036.331.057.5a31.5,31.5,0,0,0,.582,3.3.751.751,0,0,1,.019.133A.759.759,0,0,1,640.3,524.964Z" transform="translate(-638.539 -484.164)" fill="#91b3fa"/>
        </g>
        <g id="Grupo_28691" data-name="Grupo 28691" transform="translate(47.887 11.257)" opacity="0.3">
          <path id="Trazado_68422" data-name="Trazado 68422" d="M970.3,604.644a33.1,33.1,0,0,1-.083,3.973.759.759,0,0,1-1.514-.124,31.381,31.381,0,0,0,.079-3.79.759.759,0,0,1,1.517-.07Zm-1.025-3.087a.759.759,0,0,1-.87-.629,31.779,31.779,0,0,0-.827-3.7.759.759,0,0,1,1.46-.419,33.2,33.2,0,0,1,.866,3.88.778.778,0,0,1,.009.082A.759.759,0,0,1,969.271,601.557Zm.377,11a32.978,32.978,0,0,1-1.041,3.837.759.759,0,0,1-1.439-.486,31.494,31.494,0,0,0,.994-3.66.759.759,0,1,1,1.486.309Zm-2.346-18.5a.76.76,0,0,1-1-.4,31.234,31.234,0,0,0-1.7-3.393.759.759,0,1,1,1.314-.76,32.546,32.546,0,0,1,1.779,3.558.76.76,0,0,1-.4,1Zm-.194,26.017a33.012,33.012,0,0,1-1.933,3.473.759.759,0,0,1-1.28-.818,31.258,31.258,0,0,0,1.844-3.313.759.759,0,0,1,1.37.657Zm-4.27,6.689a33.169,33.169,0,0,1-2.708,2.911.759.759,0,0,1-1.047-1.1,31.712,31.712,0,0,0,2.583-2.777.759.759,0,0,1,1.172.966Zm-5.749,5.474a32.825,32.825,0,0,1-3.329,2.177.759.759,0,0,1-.753-1.319,31.037,31.037,0,0,0,3.174-2.076.759.759,0,0,1,1.062.156.751.751,0,0,1,.149.413A.759.759,0,0,1,957.09,632.234Z" transform="translate(-952.626 -584.376)" fill="#91b3fa"/>
          <path id="Trazado_68423" data-name="Trazado 68423" d="M1011.268,560.2a.759.759,0,0,0-.153-.418c-.392-.518-.8-1.027-1.215-1.513a.759.759,0,1,0-1.155.986c.4.463.786.949,1.16,1.444a.759.759,0,0,0,1.364-.5Z" transform="translate(-1000.035 -558)" fill="#91b3fa"/>
        </g>
        <g id="Grupo_28693" data-name="Grupo 28693" transform="translate(7.753 8.041)">
          <path id="Trazado_68424" data-name="Trazado 68424" d="M726.466,540.15a.385.385,0,0,0-.446-.006l-3.844,2.668a20.385,20.385,0,0,0-6.415-1.566l-2.182-4.136a.385.385,0,0,0-.4-.2l-5.546.858a.384.384,0,0,0-.32.312l-.83,4.6a20.379,20.379,0,0,0-5.641,3.432l-4.47-1.382a.384.384,0,0,0-.424.14l-3.315,4.529a.384.384,0,0,0-.006.446l2.669,3.843a20.378,20.378,0,0,0-1.567,6.415l-4.135,2.182a.385.385,0,0,0-.2.4l.858,5.547a.384.384,0,0,0,.312.319l4.6.831a20.375,20.375,0,0,0,3.432,5.641l-1.382,4.47a.384.384,0,0,0,.14.424l4.529,3.315a.384.384,0,0,0,.446.005l3.844-2.668a20.378,20.378,0,0,0,6.415,1.566l2.183,4.135a.384.384,0,0,0,.4.2l5.546-.858a.384.384,0,0,0,.32-.312l.83-4.6a20.382,20.382,0,0,0,5.642-3.432l4.47,1.382a.385.385,0,0,0,.424-.14l3.315-4.529a.385.385,0,0,0,.006-.446l-2.669-3.844a20.382,20.382,0,0,0,1.566-6.415l4.135-2.183a.384.384,0,0,0,.2-.4l-.858-5.546a.385.385,0,0,0-.312-.32l-4.6-.83a20.381,20.381,0,0,0-3.432-5.641l1.382-4.47a.384.384,0,0,0-.14-.424Z" transform="translate(-689.389 -536.906)" fill="#d4e0f8"/>
          <g id="Grupo_28692" data-name="Grupo 28692" transform="translate(19.044 19.044)">
            <path id="Trazado_68425" data-name="Trazado 68425" d="M825.757,668.091a5.724,5.724,0,1,1,.018-.851A5.867,5.867,0,0,1,825.757,668.091Zm-6.113,3.669a4.224,4.224,0,0,0,4.6-3.811h0a4.225,4.225,0,0,0-8.412-.791,4.224,4.224,0,0,0,3.81,4.6Z" transform="translate(-814.297 -661.812)" fill="#bdd0fb"/>
          </g>
          <path id="Trazado_68426" data-name="Trazado 68426" d="M786.206,619.822q-.038-.72-.15-1.447a14.388,14.388,0,0,0-.734-2.82l-.047-.122a.759.759,0,1,0-1.418.543,12.828,12.828,0,0,1,.7,2.631h0c.008.049.015.1.022.148a12.657,12.657,0,0,1-.653,6.226,12.848,12.848,0,0,1-1.618,3.038l-.017.023-.051.07a12.7,12.7,0,0,1-8.36,5.083,12.952,12.952,0,0,1-1.309.136,12.784,12.784,0,1,1,4.162-24.616.751.751,0,0,0,.326.055.759.759,0,0,0,.246-1.462,14.3,14.3,0,1,0-4.657,27.539,14.628,14.628,0,0,0,1.464-.151A14.323,14.323,0,0,0,786.206,619.822Z" transform="translate(-747.215 -595.686)" fill="#bdd0fb"/>
        </g>
      </g>
    </g>
    <g id="Grupo_28696" data-name="Grupo 28696" transform="translate(739.925 485.666)">
      <path id="Trazado_68427" data-name="Trazado 68427" d="M2403.6,658.969a2.176,2.176,0,0,0-3.379-2.393c-17.162,12.8-59.377,52.172-58.755,129.434.781,96.938-23.1,129.562-50.313,148.025,0,0,35.185-6.138,60.631-39.1C2414.263,813.99,2392.05,694.631,2403.6,658.969Z" transform="translate(-2291.158 -656.135)" fill="#d4e0f8"/>
      <path id="Trazado_68428" data-name="Trazado 68428" d="M2455.35,857.75c-3.15,10.424-6.093,20.9-8.648,31.477q-3.915,15.836-6.854,31.877c-1.913,10.694-3.625,21.423-4.88,32.209-1.3,10.779-2.14,21.6-2.944,32.472-.864,10.859-1.672,21.8-3.6,32.7a110.473,110.473,0,0,1-10.289,31.6c-1.281,2.468-2.612,4.923-4.073,7.275-1.419,2.38-2.944,4.7-4.51,6.987a114.537,114.537,0,0,1-36.218,33.854,2.1,2.1,0,0,1-2.222-3.575l.007,0c2.263-1.449,4.506-2.923,6.677-4.491,1.1-.767,2.159-1.581,3.236-2.375,1.045-.834,2.123-1.627,3.141-2.492a110.966,110.966,0,0,0,11.613-11.012A121.642,121.642,0,0,0,2414,1047.98a105.971,105.971,0,0,0,6.118-14.748,120.148,120.148,0,0,0,3.911-15.551c1.956-10.565,2.846-21.391,3.787-32.243s1.991-21.753,3.473-32.593q1.089-8.132,2.47-16.219c.444-2.7.941-5.386,1.433-8.075q.776-4.026,1.6-8.042,3.354-16.052,7.691-31.861c2.944-10.518,6.167-20.955,9.786-31.249a.565.565,0,0,1,1.073.351Z" transform="translate(-2358.098 -826.394)" fill="#bdd0fb"/>
    </g>
    <g id="Grupo_28698" data-name="Grupo 28698" transform="translate(775.5 604.989)">
      <g id="Grupo_28697" data-name="Grupo 28697" transform="translate(0 0)">
        <path id="Trazado_68429" data-name="Trazado 68429" d="M2528.462,1671.387a5.47,5.47,0,0,0,8.319,3.643c18.115-11.459,66.4-48.488,75.146-121.967,7.382-62.05,17.282-94.994,22.812-109.638a3.43,3.43,0,0,0-5.074-4.089C2598.995,1459.161,2504.045,1532.755,2528.462,1671.387Z" transform="translate(-2524.492 -1438.771)" fill="#bdd0fb"/>
        <path id="Trazado_68430" data-name="Trazado 68430" d="M2581.857,2031.24a1.487,1.487,0,0,0,.231.18,1.516,1.516,0,0,0,2.094-.467c.509-.8,51.093-81.125,65.255-166.937a1.517,1.517,0,0,0-2.993-.494c-14.059,85.188-64.316,165.008-64.822,165.8A1.516,1.516,0,0,0,2581.857,2031.24Z" transform="translate(-2572.71 -1797.687)" fill="url(#linear-gradient)"/>
      </g>
    </g>
    <g id="Grupo_28702" data-name="Grupo 28702" transform="translate(521.138 455)">
      <path id="Trazado_68431" data-name="Trazado 68431" d="M856.149,799.978a26.041,26.041,0,0,1,26.041-26.041h221.454a22.943,22.943,0,0,1,22.913,21.776L1142.9,1116.78a16.918,16.918,0,0,1-16.589,17.776L872.5,1139.169a16.059,16.059,0,0,1-16.351-16.057Z" transform="translate(-856.149 -725.311)" fill="#00223d"/>
      <path id="Trazado_68432" data-name="Trazado 68432" d="M953.045,2792.912h-.008l-28.4-.367a17.515,17.515,0,0,1-17.222-17.446v-42.879a.606.606,0,0,1,1.213,0V2775.1a16.3,16.3,0,0,0,16.025,16.234l28.4.367a.606.606,0,0,1-.007,1.213Z" transform="translate(-899.598 -2384.512)" fill="#91b3fa"/>
      <path id="Trazado_68433" data-name="Trazado 68433" d="M908.02,2607.106a.606.606,0,0,1-.606-.606v-6.944a.606.606,0,1,1,1.213,0v6.944A.606.606,0,0,1,908.02,2607.106Z" transform="translate(-899.598 -2272.074)" fill="url(#linear-gradient-2)"/>
      <g id="Grupo_28700" data-name="Grupo 28700" transform="translate(18.143 45.954)">
        <path id="Trazado_68434" data-name="Trazado 68434" d="M975.145,764.023a7.564,7.564,0,0,1,8.579-7.544c30.242,4.1,134.234,16.785,220.214,10.185a6.994,6.994,0,0,1,7.532,6.6l17.14,322.5a8.049,8.049,0,0,1-7.562,8.465c-36.162,2.14-185.087,10.413-238.206,4.849a6.377,6.377,0,0,1-5.706-6.311Z" transform="translate(-975.145 -756.408)" fill="url(#linear-gradient-3)"/>
        <path id="Trazado_68435" data-name="Trazado 68435" d="M998.509,818.623a7.279,7.279,0,0,1,8.256-7.26c29.1,3.947,129.18,16.153,211.922,9.8a6.731,6.731,0,0,1,7.249,6.348l16.495,310.354a7.746,7.746,0,0,1-7.277,8.146c-34.8,2.059-178.117,10.021-229.236,4.666a6.137,6.137,0,0,1-5.491-6.073Z" transform="translate(-994.947 -802.927)" fill="#bdd0fb"/>
        <path id="Trazado_68436" data-name="Trazado 68436" d="M1175.188,990.137l3.091,66.537a4.229,4.229,0,0,0,4.1,4.035c12.323.348,50.721,1.284,72.4.154a4.724,4.724,0,0,0,4.474-4.566c.413-12.478,1.318-48.8-1.525-63.979a5.331,5.331,0,0,0-5.061-4.337l-72.836-2.547A4.5,4.5,0,0,0,1175.188,990.137Z" transform="translate(-1144.684 -950.513)" fill="url(#linear-gradient)"/>
        <path id="Trazado_68437" data-name="Trazado 68437" d="M1915.159,1021.276a2.221,2.221,0,0,0,2.286-2.232,2.436,2.436,0,0,0-2.416-2.274l-80.358-1.432a1.527,1.527,0,0,0-1.569,2.175l.544,1.545a3.565,3.565,0,0,0,3.132,2.217Z" transform="translate(-1702.188 -975.86)" fill="url(#linear-gradient)"/>
        <path id="Trazado_68438" data-name="Trazado 68438" d="M1834.671,1096.695a1.527,1.527,0,0,0-1.569,2.175l.544,1.546a3.565,3.565,0,0,0,3.132,2.217h78.381a2.221,2.221,0,0,0,2.286-2.232,2.436,2.436,0,0,0-2.416-2.274Z" transform="translate(-1702.188 -1044.813)" fill="url(#linear-gradient)"/>
        <path id="Trazado_68439" data-name="Trazado 68439" d="M1834.671,1179.235a1.527,1.527,0,0,0-1.569,2.175l.544,1.545a3.565,3.565,0,0,0,3.132,2.217h78.381a2.221,2.221,0,0,0,2.286-2.232,2.436,2.436,0,0,0-2.416-2.274Z" transform="translate(-1702.188 -1114.769)" fill="url(#linear-gradient)"/>
        <path id="Trazado_68440" data-name="Trazado 68440" d="M1834.671,1273.177a1.528,1.528,0,0,0-1.569,2.175l.544,1.546a3.565,3.565,0,0,0,3.132,2.217h78.381a2.221,2.221,0,0,0,2.286-2.232,2.436,2.436,0,0,0-2.416-2.274Z" transform="translate(-1702.188 -1194.388)" fill="url(#linear-gradient)"/>
        <path id="Trazado_68441" data-name="Trazado 68441" d="M1834.671,1365.859a1.527,1.527,0,0,0-1.569,2.175l.544,1.545a3.565,3.565,0,0,0,3.132,2.217h78.381a2.221,2.221,0,0,0,2.286-2.232,2.436,2.436,0,0,0-2.416-2.274Z" transform="translate(-1702.188 -1272.939)" fill="url(#linear-gradient)"/>
        <path id="Trazado_68442" data-name="Trazado 68442" d="M1371.146,1583.095a2.126,2.126,0,0,0,2.2-2.232,2.518,2.518,0,0,0-2.5-2.251l-187.6-1.479c-1.293-.01-1.692.809-.886,1.82l1.833,2.3a5.535,5.535,0,0,0,3.815,1.839Z" transform="translate(-1150.417 -1452.002)" fill="url(#linear-gradient)"/>
        <path id="Trazado_68443" data-name="Trazado 68443" d="M1183.249,1658.491c-1.293-.01-1.692.809-.886,1.82l1.833,2.3a5.535,5.535,0,0,0,3.815,1.839h183.135a2.126,2.126,0,0,0,2.2-2.232,2.518,2.518,0,0,0-2.5-2.251Z" transform="translate(-1150.417 -1520.956)" fill="url(#linear-gradient)"/>
        <path id="Trazado_68444" data-name="Trazado 68444" d="M1171.208,1791.173c4.5-.345,12.924-.5,17.562-.569a4.2,4.2,0,0,1,4.149,3.214,68.5,68.5,0,0,1,1.974,16.98,3.732,3.732,0,0,1-3.766,3.655l-17.114-.184a4.11,4.11,0,0,1-4.048-3.727l-1.5-16.1A2.994,2.994,0,0,1,1171.208,1791.173Z" transform="translate(-1138.976 -1632.926)" fill="#fff" opacity="0.6"/>
        <path id="Trazado_68445" data-name="Trazado 68445" d="M1381.276,1837.624a1.871,1.871,0,0,0-2,2.227l.487,3.242a2.824,2.824,0,0,0,2.7,2.325h42.052a2.322,2.322,0,0,0,2.322-2.351l-.015-1.19a2.518,2.518,0,0,0-2.378-2.449Z" transform="translate(-1317.639 -1672.776)" fill="url(#linear-gradient)"/>
        <path id="Trazado_68446" data-name="Trazado 68446" d="M1782.732,1791.173c4.5-.345,12.924-.5,17.562-.569a4.2,4.2,0,0,1,4.149,3.214,68.489,68.489,0,0,1,1.974,16.98,3.732,3.732,0,0,1-3.766,3.655l-17.114-.184a4.11,4.11,0,0,1-4.048-3.727l-1.5-16.1A2.994,2.994,0,0,1,1782.732,1791.173Z" transform="translate(-1657.265 -1632.926)" fill="url(#linear-gradient)"/>
        <path id="Trazado_68447" data-name="Trazado 68447" d="M1992.8,1837.624a1.871,1.871,0,0,0-2,2.227l.487,3.242a2.824,2.824,0,0,0,2.7,2.325h42.052a2.322,2.322,0,0,0,2.322-2.351l-.015-1.19a2.518,2.518,0,0,0-2.378-2.449Z" transform="translate(-1835.927 -1672.776)" fill="url(#linear-gradient)"/>
        <g id="Grupo_28699" data-name="Grupo 28699" transform="translate(34.808 195.132)">
          <path id="Trazado_68448" data-name="Trazado 68448" d="M1225.018,2093.1h-.043l-15.792-.151a4.245,4.245,0,0,1-4.332-3.611l-1.388-13.25a2.88,2.88,0,0,1,.68-2.165,3.469,3.469,0,0,1,2.416-1.192h0c1.33-.091,3.2-.251,5.188-.419,4.177-.356,9.375-.8,12.3-.835a4.414,4.414,0,0,1,4.422,3.093c.823,3.042.75,8.8.594,14.933A3.9,3.9,0,0,1,1225.018,2093.1Zm-18.376-19.16a2.245,2.245,0,0,0-1.571.762,1.675,1.675,0,0,0-.4,1.258l1.388,13.25a3.038,3.038,0,0,0,3.138,2.525l15.792.151h.031a2.69,2.69,0,0,0,2.832-2.416c.154-6.04.228-11.7-.553-14.586a3.259,3.259,0,0,0-3.236-2.2c-2.881.036-8.055.477-12.212.831-1.989.169-3.868.329-5.208.421Z" transform="translate(-1203.447 -2066.109)" fill="#fff"/>
          <path id="Trazado_68449" data-name="Trazado 68449" d="M1224.228,2091.041c3.318-.227,10.528-.959,13.948-1a3.057,3.057,0,0,1,3.06,2.114c.66,2.44.573,7.3.458,11.794a2.627,2.627,0,0,1-2.777,2.4l-12.62-.121a2.916,2.916,0,0,1-2.985-2.451l-1.109-10.588A2.05,2.05,0,0,1,1224.228,2091.041Z" transform="translate(-1219.335 -2081.841)" fill="url(#linear-gradient)"/>
          <path id="Trazado_68450" data-name="Trazado 68450" d="M1435.176,2128.246a3.921,3.921,0,0,0,3.825,2.921l146.116-1.246a2.965,2.965,0,0,0-.012-5.93l-146.12-.667A3.921,3.921,0,0,0,1435.176,2128.246Z" transform="translate(-1399.734 -2110.052)" fill="url(#linear-gradient)"/>
          <path id="Trazado_68451" data-name="Trazado 68451" d="M1233,2047.547h0a2.424,2.424,0,0,1,3.343.91l3.115,5.583a.778.778,0,0,0,1.39-.06l7.726-17.2a.863.863,0,0,1,1.649.373,33.956,33.956,0,0,1-9.881,23.632s-4.633-1.8-8.363-9.993A2.542,2.542,0,0,1,1233,2047.547Z" transform="translate(-1227.434 -2036.269)" fill="#00223d"/>
          <path id="Trazado_68452" data-name="Trazado 68452" d="M1225.018,2315.095h-.043l-15.792-.152a4.245,4.245,0,0,1-4.332-3.61l-1.388-13.25a2.88,2.88,0,0,1,.68-2.165,3.468,3.468,0,0,1,2.416-1.192h0c1.33-.091,3.2-.251,5.188-.419,4.177-.356,9.375-.8,12.3-.835h.063a4.4,4.4,0,0,1,4.359,3.094c.823,3.042.75,8.8.594,14.933A3.9,3.9,0,0,1,1225.018,2315.095Zm-18.376-19.16a2.245,2.245,0,0,0-1.571.763,1.674,1.674,0,0,0-.4,1.258l1.388,13.25a3.038,3.038,0,0,0,3.138,2.525l15.792.152h.031a2.691,2.691,0,0,0,2.832-2.417c.154-6.041.228-11.7-.553-14.586a3.241,3.241,0,0,0-3.236-2.2c-2.881.036-8.055.477-12.212.831-1.989.169-3.868.329-5.208.421Z" transform="translate(-1203.447 -2254.256)" fill="#fff"/>
          <path id="Trazado_68453" data-name="Trazado 68453" d="M1224.228,2313.039c3.318-.226,10.528-.958,13.948-1a3.056,3.056,0,0,1,3.06,2.114c.66,2.44.573,7.3.458,11.794a2.627,2.627,0,0,1-2.777,2.4l-12.62-.121a2.916,2.916,0,0,1-2.985-2.451l-1.109-10.589A2.05,2.05,0,0,1,1224.228,2313.039Z" transform="translate(-1219.335 -2269.993)" fill="url(#linear-gradient)"/>
          <path id="Trazado_68454" data-name="Trazado 68454" d="M1435.176,2350.243a3.92,3.92,0,0,0,3.825,2.921l146.116-1.246a2.965,2.965,0,0,0-.012-5.929l-146.12-.667A3.921,3.921,0,0,0,1435.176,2350.243Z" transform="translate(-1399.734 -2298.203)" fill="url(#linear-gradient)"/>
          <path id="Trazado_68455" data-name="Trazado 68455" d="M1233,2269.545h0a2.424,2.424,0,0,1,3.343.909l3.115,5.584a.778.778,0,0,0,1.39-.06l7.726-17.2a.863.863,0,0,1,1.649.373,33.957,33.957,0,0,1-9.881,23.633s-4.633-1.8-8.363-9.993A2.542,2.542,0,0,1,1233,2269.545Z" transform="translate(-1227.434 -2224.42)" fill="#00223d"/>
          <path id="Trazado_68456" data-name="Trazado 68456" d="M1225.018,2537.092h-.043l-15.792-.152a4.244,4.244,0,0,1-4.332-3.61l-1.388-13.25a2.881,2.881,0,0,1,.68-2.166,3.467,3.467,0,0,1,2.416-1.192h0c1.33-.091,3.2-.25,5.188-.419,4.177-.355,9.375-.8,12.3-.835h.063a4.4,4.4,0,0,1,4.359,3.094c.823,3.042.75,8.8.594,14.933A3.9,3.9,0,0,1,1225.018,2537.092Zm-18.376-19.16a2.246,2.246,0,0,0-1.571.763,1.675,1.675,0,0,0-.4,1.259l1.388,13.25a3.037,3.037,0,0,0,3.138,2.524l15.792.152h.031a2.69,2.69,0,0,0,2.832-2.417c.154-6.041.228-11.7-.553-14.586a3.235,3.235,0,0,0-3.236-2.2c-2.881.036-8.055.477-12.212.831-1.989.169-3.868.329-5.208.421Z" transform="translate(-1203.447 -2442.407)" fill="#fff"/>
          <path id="Trazado_68457" data-name="Trazado 68457" d="M1224.228,2535.036c3.318-.227,10.528-.959,13.948-1a3.058,3.058,0,0,1,3.06,2.114c.66,2.441.573,7.3.458,11.794a2.627,2.627,0,0,1-2.777,2.4l-12.62-.121a2.916,2.916,0,0,1-2.985-2.451l-1.109-10.589A2.05,2.05,0,0,1,1224.228,2535.036Z" transform="translate(-1219.335 -2458.143)" fill="url(#linear-gradient)"/>
          <path id="Trazado_68458" data-name="Trazado 68458" d="M1435.176,2572.241a3.921,3.921,0,0,0,3.825,2.921l146.116-1.246a2.965,2.965,0,0,0-.012-5.93l-146.12-.666A3.921,3.921,0,0,0,1435.176,2572.241Z" transform="translate(-1399.734 -2486.354)" fill="url(#linear-gradient)"/>
          <path id="Trazado_68459" data-name="Trazado 68459" d="M1233,2491.542h0a2.424,2.424,0,0,1,3.343.91l3.115,5.584a.778.778,0,0,0,1.39-.06l7.726-17.2a.863.863,0,0,1,1.649.372,33.958,33.958,0,0,1-9.881,23.633s-4.633-1.8-8.363-9.993A2.543,2.543,0,0,1,1233,2491.542Z" transform="translate(-1227.434 -2412.571)" fill="#00223d"/>
          <path id="Trazado_68460" data-name="Trazado 68460" d="M1225.018,2759.09h-.043l-15.792-.151a4.243,4.243,0,0,1-4.332-3.61l-1.388-13.25a2.881,2.881,0,0,1,.68-2.166,3.469,3.469,0,0,1,2.416-1.193h0c1.33-.09,3.2-.25,5.188-.419,4.177-.356,9.375-.8,12.3-.835h.063a4.4,4.4,0,0,1,4.359,3.094c.823,3.041.75,8.8.594,14.933A3.9,3.9,0,0,1,1225.018,2759.09Zm-18.376-19.16a2.246,2.246,0,0,0-1.571.762,1.676,1.676,0,0,0-.4,1.259l1.388,13.25a3.037,3.037,0,0,0,3.138,2.524l15.792.151h.031a2.69,2.69,0,0,0,2.832-2.416c.154-6.041.228-11.7-.553-14.586a3.231,3.231,0,0,0-3.236-2.2c-2.881.036-8.055.477-12.212.831-1.989.169-3.868.329-5.208.421Z" transform="translate(-1203.447 -2630.558)" fill="#fff"/>
          <path id="Trazado_68461" data-name="Trazado 68461" d="M1224.228,2757.034c3.318-.227,10.528-.959,13.948-1a3.057,3.057,0,0,1,3.06,2.114c.66,2.44.573,7.3.458,11.794a2.627,2.627,0,0,1-2.777,2.4l-12.62-.121a2.916,2.916,0,0,1-2.985-2.451l-1.109-10.589A2.05,2.05,0,0,1,1224.228,2757.034Z" transform="translate(-1219.335 -2646.294)" fill="url(#linear-gradient)"/>
          <path id="Trazado_68462" data-name="Trazado 68462" d="M1435.176,2794.238h0a3.921,3.921,0,0,0,3.825,2.921l146.116-1.246a2.965,2.965,0,0,0-.012-5.93l-146.12-.667A3.922,3.922,0,0,0,1435.176,2794.238Z" transform="translate(-1399.734 -2674.504)" fill="url(#linear-gradient)"/>
          <path id="Trazado_68463" data-name="Trazado 68463" d="M1233,2713.54h0a2.423,2.423,0,0,1,3.343.909l3.115,5.583a.779.779,0,0,0,1.39-.06l7.726-17.2a.863.863,0,0,1,1.649.372,33.957,33.957,0,0,1-9.881,23.632s-4.633-1.8-8.363-9.992A2.542,2.542,0,0,1,1233,2713.54Z" transform="translate(-1227.434 -2600.722)" fill="#00223d"/>
        </g>
      </g>
      <path id="Trazado_68464" data-name="Trazado 68464" d="M1694.148,459.85c-8-5.565-14.955-5.455-19.851-4.01a9.766,9.766,0,0,0-6.937,10.268l2.112,23.047,25.126,2.23S1709.836,470.764,1694.148,459.85Zm-11.05,18.594a6.265,6.265,0,1,1,6.265-6.265A6.265,6.265,0,0,1,1683.1,478.444Z" transform="translate(-1543.645 -455)" fill="#00223d"/>
      <g id="Grupo_28701" data-name="Grupo 28701" transform="translate(126.78 3.375)">
        <path id="Trazado_68465" data-name="Trazado 68465" d="M1689.248,498.221a.606.606,0,0,1-.6-.551l-.336-3.67a.606.606,0,1,1,1.207-.11l.336,3.67a.606.606,0,0,1-.548.659Zm-.659-7.193a.606.606,0,0,1-.6-.551l-.255-2.786a9.322,9.322,0,0,1,6.609-9.781,18.777,18.777,0,0,1,9.183-.377.606.606,0,0,1-.243,1.188,17.6,17.6,0,0,0-8.6.352,8.107,8.107,0,0,0-5.745,8.508l.255,2.786a.606.606,0,0,1-.549.659Z" transform="translate(-1687.692 -477.135)" fill="#bdd0fb"/>
      </g>
      <path id="Trazado_68466" data-name="Trazado 68466" d="M1456.511,673V661.408a7.071,7.071,0,0,1,7.313-7.067l79.892,2.737a6.877,6.877,0,0,1,6.629,6.461l.668,11.134Z" transform="translate(-1364.978 -623.945)" fill="#00223d"/>
      <path id="Trazado_68467" data-name="Trazado 68467" d="M1629.429,676.262h-3.436a.606.606,0,1,1,0-1.213h3.436a.606.606,0,1,1,0,1.213Z" transform="translate(-1508.106 -641.499)" fill="#bdd0fb"/>
      <path id="Trazado_68468" data-name="Trazado 68468" d="M1481.5,686.911a.606.606,0,0,1-.606-.606v-4.688a6.576,6.576,0,0,1,6.569-6.568H1500.1a.606.606,0,1,1,0,1.213h-12.631a5.362,5.362,0,0,0-5.356,5.356V686.3A.606.606,0,0,1,1481.5,686.911Z" transform="translate(-1385.646 -641.499)" fill="#bdd0fb"/>
      <path id="Trazado_68469" data-name="Trazado 68469" d="M1241.25,756.048a7.528,7.528,0,0,1,7.52-7.167l139.705,0a10.326,10.326,0,0,1,10.175,8.565l.118.683a8.868,8.868,0,0,1-8.738,10.38H1246.7a5.765,5.765,0,0,1-5.759-6.042Z" transform="translate(-1182.27 -704.071)" fill="url(#linear-gradient-23)"/>
    </g>
    <g id="Grupo_28708" data-name="Grupo 28708" transform="translate(461.095 552.81)">
      <g id="Grupo_28705" data-name="Grupo 28705" transform="translate(0 79.08)">
        <path id="Trazado_68470" data-name="Trazado 68470" d="M659.127,1789.063s-4.98,2.422-5.9,5.2c-.735,2.233-6.241,2.52-6.785,6.911a5.038,5.038,0,0,1-4.216,4.428c-5.623.862-14.29,3.782-15.677,13.546-1.058,7.453,2.741,10.279,6.728,11.257a5.648,5.648,0,0,1,4.282,6.524c-.568,2.836.279,6.114,5.192,8.706,11.01,5.809,22-13.763,22-13.763l2.253-34.174Z" transform="translate(-601.364 -1762.557)" fill="#396ac3"/>
        <path id="Trazado_68471" data-name="Trazado 68471" d="M968.174,1670.858s-14.166,38.619-38.3,50.688c0,0,8.034,13.109,12.227,13.9,0,0,25.786-33,28.415-60.041Z" transform="translate(-858.586 -1662.374)" fill="url(#linear-gradient-24)"/>
        <path id="Trazado_68472" data-name="Trazado 68472" d="M474.841,3182.044l-.712,5.857a2.419,2.419,0,0,1-2.122,2.117,37.435,37.435,0,0,1-7.838.123,2.072,2.072,0,0,1-1.74-2.687c.719-2.261,2.033-5.655,3.929-7.653h6.5A2,2,0,0,1,474.841,3182.044Z" transform="translate(-462.33 -2941.258)" fill="url(#linear-gradient-25)"/>
        <path id="Trazado_68473" data-name="Trazado 68473" d="M808.453,2744.522l1.1,6.45s-3.672,37.2-4.325,52.075a11.656,11.656,0,0,0,1.725,6.626l6.385,10.37-16.228-9.576-.323-1.981,2.657-3.652-3.48-41.67a12.783,12.783,0,0,1,1.455-7.071l3.357-6.306Z" transform="translate(-745.056 -2572.344)" fill="url(#linear-gradient-26)"/>
        <path id="Trazado_68474" data-name="Trazado 68474" d="M812.125,3164.122h-5.179a3.119,3.119,0,0,1-2.475-1.213c-1.615-2.1-4.96-6.191-6.559-6.3-2.153-.144-1.878,7.511-1.878,7.511h-1.207l-1.529-9.512a5.63,5.63,0,0,1,2.954-5.885s.492,3.64,3.161,5.25,10.86,7.376,10.86,7.376a7.4,7.4,0,0,1,2.1.056A1.37,1.37,0,0,1,812.125,3164.122Z" transform="translate(-742.778 -2914.92)" fill="url(#linear-gradient-27)"/>
        <path id="Trazado_68475" data-name="Trazado 68475" d="M516.147,2749.714s-21.513,40.808-24.933,50.125a89.5,89.5,0,0,0-4.664,17.825c-.072,1.15-1.5,2.253-5.445,2.253a3.782,3.782,0,0,1-3.519-1.606,2.3,2.3,0,0,1-.087-2.226c1.244-2.518,5.194-10.567,6.656-14.217,1.746-4.359,5.5-24.11,7.563-30.977s4.389-14.317,13.36-21.178C505.078,2749.714,511.236,2743.682,516.147,2749.714Z" transform="translate(-474.978 -2574.471)" fill="url(#linear-gradient-28)"/>
        <path id="Trazado_68476" data-name="Trazado 68476" d="M774.192,2052.524c5.549-23.515-8.509-36.815-8.509-36.815,8.87-8.515,25.032-12.389,25.032-12.389s15.422,11.275,13.592,20.1c-1.072,5.172-10.84,30.981-10.84,30.981A21.462,21.462,0,0,1,774.192,2052.524Z" transform="translate(-719.433 -1944.148)" fill="url(#linear-gradient-29)"/>
        <path id="Trazado_68477" data-name="Trazado 68477" d="M668.309,2337.687c2.258-6.8,12.3-11.642,12.3-11.642a21.462,21.462,0,0,0,19.276,1.878s2.025,7.742.628,14.938-10.169,53.438-10.169,53.438c-13.821,2.8-35.077-2.817-35.077-2.817C664.073,2377.851,666.051,2344.49,668.309,2337.687Z" transform="translate(-625.854 -2217.669)" fill="url(#linear-gradient-30)"/>
        <path id="Trazado_68478" data-name="Trazado 68478" d="M838.27,1890.656l-4.512,20.266c-.432,1.785,1.2,1.493,3,1.153,2.956-.557,6.765-1.7,8.038-4a2.184,2.184,0,0,0,.231-.764l1.938-14.053a2.525,2.525,0,0,0-1.478-2.653l-3.74-1.658A2.525,2.525,0,0,0,838.27,1890.656Z" transform="translate(-777.069 -1847.023)" fill="url(#linear-gradient-31)"/>
        <g id="Grupo_28703" data-name="Grupo 28703" transform="translate(51.097 17.135)">
          <path id="Trazado_68479" data-name="Trazado 68479" d="M845.568,1773.063s5.344,2.256,8.977,9.978.92,11.287-2.488,11.776-8.5.415-13.9-4.573S838.622,1770.388,845.568,1773.063Z" transform="translate(-830.171 -1765.861)" fill="url(#linear-gradient-32)"/>
          <path id="Trazado_68480" data-name="Trazado 68480" d="M809.086,1747.861s-4.031-11.3,5.984-11.43l2.357,1.647s3.675-6.263-2.357-9.253-13.091-.52-15.658,7.606-3.005,13.566,1.265,17.454,6.03-.521,6.03-.521-2.325-3.636-1.379-5.582,3.13.4,3.13.4Z" transform="translate(-797.472 -1727.601)" fill="#396ac3"/>
          <path id="Trazado_68481" data-name="Trazado 68481" d="M835.388,1846.242s-2.038-5.819-4.757-3.5,2.21,5.375,4.14,6.366Z" transform="translate(-824.897 -1824.723)" fill="url(#linear-gradient-33)"/>
        </g>
        <g id="Grupo_28704" data-name="Grupo 28704" transform="translate(106.769)">
          <path id="Trazado_68482" data-name="Trazado 68482" d="M1166.8,1630.726c.216.687-2.287,1.733-3.76-1.077-.052-1.347-.871-7.117-.066-8.214,4.286-5.844,8.813-6.222,8.813-6.222a19.522,19.522,0,0,1,2.354,4.653,5.648,5.648,0,0,1-.563,4.158c-.708,1.275-1.673,2.932-2.586,4.229A5.579,5.579,0,0,1,1166.8,1630.726Z" transform="translate(-1162.619 -1615.213)" fill="url(#linear-gradient-34)"/>
        </g>
        <path id="Trazado_68483" data-name="Trazado 68483" d="M747.392,2021.969s41.27,50.394,72.1-6.986a7.092,7.092,0,0,0,.222-3.584c-.187-1.069.52-4.862.909-6.8a1.069,1.069,0,0,0-.95-1.273,1.46,1.46,0,0,0-1.289.552l-5.632,7.172a3.007,3.007,0,0,0,1.594,3.569,1.484,1.484,0,0,1,.55,2.24c-23.449,30.738-62.669-2.992-63.387-2.6C748.966,2015.67,746.024,2017.223,747.392,2021.969Z" transform="translate(-703.636 -1944.148)" fill="url(#linear-gradient-35)"/>
      </g>
      <g id="Grupo_28707" data-name="Grupo 28707" transform="translate(70.607)">
        <path id="Trazado_68484" data-name="Trazado 68484" d="M1126.423,1867.9c.065-.808.891-1.508,2.289-2.069-1.52-.838-2.36-1.736-2.289-2.617.215-2.665,8.656-4.159,18.853-3.337s18.289,3.649,18.074,6.315c-.065.808-.891,1.508-2.289,2.069,1.52.838,2.36,1.736,2.289,2.617-.065.808-.891,1.508-2.289,2.069,1.52.838,2.36,1.736,2.289,2.617-.065.809-.891,1.508-2.289,2.069,1.52.838,2.36,1.736,2.289,2.617-.095,1.179-1.8,2.128-4.554,2.749a23.636,23.636,0,0,1-.07,2.88c-.4,4.911-5.923,8.762-13.23,8.762s-13.631-5.25-13.7-10.177a24.834,24.834,0,0,1,.143-3.215c-3.5-1.167-5.625-2.593-5.514-3.977.065-.808.891-1.508,2.289-2.069-1.52-.838-2.36-1.736-2.289-2.617.065-.809.891-1.508,2.289-2.069C1127.193,1869.681,1126.352,1868.783,1126.423,1867.9Z" transform="translate(-1095.776 -1743.305)" fill="url(#linear-gradient-36)"/>
        <g id="Grupo_28706" data-name="Grupo 28706" transform="translate(33.591 122.774)">
          <path id="Trazado_68485" data-name="Trazado 68485" d="M1186.043,2004.872a44.056,44.056,0,0,0,8.089-.661.245.245,0,0,0-.092-.481,52.74,52.74,0,0,1-13.474.425,57.917,57.917,0,0,1-11.3-1.949.245.245,0,0,0-.137.47,58.413,58.413,0,0,0,11.4,1.967C1182.423,2004.8,1184.277,2004.872,1186.043,2004.872Z" transform="translate(-1165.417 -1986.889)" fill="#91b3fa"/>
          <path id="Trazado_68486" data-name="Trazado 68486" d="M1166.335,1966.993a38.479,38.479,0,0,0,9.931-1.077.245.245,0,0,0-.134-.471c-3.534,1.007-9.225,1.319-15.223.835-5.933-.478-11.466-1.682-14.8-3.221a.245.245,0,1,0-.205.445c3.385,1.561,8.98,2.781,14.968,3.264C1162.738,1966.919,1164.578,1966.993,1166.335,1966.993Z" transform="translate(-1145.76 -1953.7)" fill="#91b3fa"/>
          <path id="Trazado_68487" data-name="Trazado 68487" d="M1166.385,1936.262a35.765,35.765,0,0,0,10.469-1.26.245.245,0,0,0-.153-.465c-3.482,1.148-9.385,1.525-15.792,1.009-5.933-.478-11.466-1.682-14.8-3.221a.245.245,0,0,0-.205.445c3.385,1.561,8.981,2.781,14.968,3.264C1162.767,1936.187,1164.622,1936.262,1166.385,1936.262Z" transform="translate(-1145.76 -1927.651)" fill="#91b3fa"/>
          <path id="Trazado_68488" data-name="Trazado 68488" d="M1166.78,1905.719a42.218,42.218,0,0,0,8.818-.8.245.245,0,0,0-.106-.478,51.066,51.066,0,0,1-14.156.566c-5.88-.474-11.385-1.665-14.726-3.186a.245.245,0,0,0-.2.446c3.39,1.543,8.956,2.75,14.89,3.228C1163.171,1905.644,1165.017,1905.719,1166.78,1905.719Z" transform="translate(-1146.186 -1901.797)" fill="#91b3fa"/>
        </g>
        <path id="Trazado_68489" data-name="Trazado 68489" d="M999.855,1197.474a34.487,34.487,0,0,1,6.175-12.057,79.811,79.811,0,0,0,17.193-44.445c1.773-30.888-25.621-46.352-50.619-44.253s-49.664,20.712-46.964,49.447c1.662,17.681,11.558,31.092,18.926,38.794a40.917,40.917,0,0,1,9.823,17.4c2.211,7.984,7.474,17.933,19.981,18.54C990.555,1221.689,997.278,1206.6,999.855,1197.474Z" transform="translate(-925.437 -1096.531)" fill="url(#radial-gradient)"/>
        <path id="Trazado_68490" data-name="Trazado 68490" d="M1159.624,1545.67l-8.747-56.889c-.18-1.175-.759-1.964-1.292-1.763s-.818,1.318-.637,2.493c0,.031.011.07.017.1l9.963,56.36c.075.424.29.691.481.6S1159.687,1546.081,1159.624,1545.67Z" transform="translate(-1114.824 -1427.456)" fill="#00223d"/>
        <path id="Trazado_68491" data-name="Trazado 68491" d="M1278.714,1548.633l8.747-56.889c.181-1.175.759-1.965,1.292-1.763s.818,1.318.638,2.493c0,.031-.011.07-.017.1l-9.963,56.36c-.075.424-.29.692-.481.6S1278.652,1549.044,1278.714,1548.633Z" transform="translate(-1224.836 -1429.968)" fill="#00223d"/>
        <path id="Trazado_68492" data-name="Trazado 68492" d="M1161.75,1428.468a.917.917,0,0,1,1.148-.3l4.87,2.275,1.691-4.817a1.034,1.034,0,0,1,.592-.6,1.2,1.2,0,0,1,1.5.461l.009.016,4.005,7.3,3.717-10.4.006-.017a1.187,1.187,0,0,1,.563-.634,1.459,1.459,0,0,1,1.839.362l5.6,7.708a.675.675,0,0,1-.2.973.938.938,0,0,1-1.191-.129l-4.93-5.5-4.439,9.89,0,.008a.785.785,0,0,1-.391.383.927.927,0,0,1-1.161-.3l-4.284-6.874-1.612,3.477-.014.031a.658.658,0,0,1-.04.074.917.917,0,0,1-1.147.3l-5.781-2.7A.688.688,0,0,1,1161.75,1428.468Z" transform="translate(-1125.635 -1372.027)" fill="#00223d" opacity="0.79"/>
        <path id="Trazado_68493" data-name="Trazado 68493" d="M1017.995,1579.156a1.567,1.567,0,0,0,1.257-2.5,64.163,64.163,0,0,1-4.029-6.12,1.567,1.567,0,0,0-2.714,1.567,67.233,67.233,0,0,0,4.226,6.42A1.565,1.565,0,0,0,1017.995,1579.156Z" transform="translate(-999.056 -1497.603)" fill="#fff" opacity="0.79"/>
        <path id="Trazado_68494" data-name="Trazado 68494" d="M968.16,1309.354a1.568,1.568,0,0,0,1.437-2.192c-9.162-21.1-1.274-38.781-1.193-38.957a1.567,1.567,0,0,0-2.85-1.306c-.353.771-8.546,19.141,1.168,41.511A1.568,1.568,0,0,0,968.16,1309.354Z" transform="translate(-956.416 -1240.149)" fill="#fff" opacity="0.79"/>
      </g>
    </g>
    <g id="Grupo_28714" data-name="Grupo 28714" transform="translate(687.066 645.66)">
      <path id="Trazado_68495" data-name="Trazado 68495" d="M2284.844,3165.665s.867,4.652,1.315,9.26a3.178,3.178,0,0,1-3.007,3.472c-6.14.314-19.273.937-23.99.772a1.034,1.034,0,0,1-.924-1.408,2.315,2.315,0,0,1,1.172-1.259l21.607-10.181Z" transform="translate(-2210.339 -2943.047)" fill="url(#linear-gradient-37)"/>
      <path id="Trazado_68496" data-name="Trazado 68496" d="M2398.425,3143.174l-.608,5.579s-3.785,1.806-6.4-.162l1.515-6.226Z" transform="translate(-2323.272 -2923.3)" fill="url(#linear-gradient-38)"/>
      <path id="Trazado_68497" data-name="Trazado 68497" d="M2399.186,2459.625c.3,1.453,2.226,72.613-5.078,104.581a1.083,1.083,0,0,0,.647,1.253,18.86,18.86,0,0,0,6.208,1.2,1.865,1.865,0,0,0,1.837-1.356c2.1-7.421,12.17-44.6,13.192-80.028,1.141-39.591-.013-1.347-.013-1.347l-1.124-24.455Z" transform="translate(-2325.529 -2344.523)" fill="url(#linear-gradient-39)"/>
      <path id="Trazado_68498" data-name="Trazado 68498" d="M2549.123,3180.046s1.333,2.34,2.661,8.578a1.939,1.939,0,0,1-1.684,2.338c-2.026.219-5.146.505-7.647.512a1.933,1.933,0,0,1-1.934-2.138,16.3,16.3,0,0,1,3.721-8.978Z" transform="translate(-2449.631 -2955.235)" fill="url(#linear-gradient-40)"/>
      <path id="Trazado_68499" data-name="Trazado 68499" d="M2570.7,3131.421l-1.465,8.443s-1.517,1.151-4.547.356l.651-9.075Z" transform="translate(-2470.13 -2913.79)" fill="url(#linear-gradient-41)"/>
      <path id="Trazado_68500" data-name="Trazado 68500" d="M2454.108,2452.647c6.581,37.492-.464,92.823-2.915,103.664a1.687,1.687,0,0,1-1.35,1.294,11.324,11.324,0,0,1-4.868-.148,1.544,1.544,0,0,1-1.125-1.413c-.427-8.741-.322-62.427-6.322-83.586a4.82,4.82,0,0,0-1.884-2.641l-11.329-7.892-.986-12.923Z" transform="translate(-2350.319 -2335.648)" fill="url(#linear-gradient-42)"/>
      <g id="Grupo_28709" data-name="Grupo 28709" transform="translate(8.122 17.844)">
        <path id="Trazado_68501" data-name="Trazado 68501" d="M2211.788,1992.776c18.644-.486,39.268,4.522,39.268,4.522,5.868,32.379,1.638,69.83,1.638,69.83-14.4,3.923-30.742-2.021-30.742-2.021-2.529-13.533-14.087-51.577-14.087-51.577a61.429,61.429,0,0,1-22.865-7.017c4.662-5.51,6.818-12.484,7.745-16.6A62.561,62.561,0,0,0,2211.788,1992.776Z" transform="translate(-2156.447 -1964.396)" fill="url(#linear-gradient-43)"/>
        <path id="Trazado_68502" data-name="Trazado 68502" d="M1997.729,1824.008a3.568,3.568,0,0,1,4.139-1.205c2.854,11.565,17.332,20.826,32.158,25.278-.926,4.12-3.083,11.095-7.745,16.6C2001.618,1851.127,1997.729,1824.008,1997.729,1824.008Z" transform="translate(-1997.729 -1822.568)" fill="url(#linear-gradient-44)"/>
      </g>
      <g id="Grupo_28710" data-name="Grupo 28710" transform="translate(0 0)">
        <path id="Trazado_68503" data-name="Trazado 68503" d="M1953.031,1725.372c-.186.611,2.043,1.518,3.326-.987.034-1.195.712-6.318-.011-7.285-3.851-5.146-11.282-11.572-11.282-11.572a1.754,1.754,0,0,0-.2,2.438l3.61,3.69a17.3,17.3,0,0,0-2.048,4.146,5.01,5.01,0,0,0,.535,3.682c.638,1.125,1.509,2.586,2.329,3.728A4.947,4.947,0,0,0,1953.031,1725.372Z" transform="translate(-1944.46 -1705.529)" fill="url(#linear-gradient-45)"/>
        <path id="Trazado_68504" data-name="Trazado 68504" d="M1977.271,1761.476l3.284,2.731,1.049,2.74-2.874,3.25s-1.029-5.446-1.766-6.62S1976.6,1761.828,1977.271,1761.476Z" transform="translate(-1971.666 -1752.946)" fill="url(#linear-gradient-46)"/>
      </g>
      <path id="Trazado_68505" data-name="Trazado 68505" d="M2572.48,2056.495l6.98-18.124s17.53,11.668,20.537,26.645a41.224,41.224,0,0,0-15.1,4.2C2583.54,2062.146,2572.48,2056.495,2572.48,2056.495Z" transform="translate(-2476.73 -1987.625)" fill="url(#linear-gradient-47)"/>
      <path id="Trazado_68506" data-name="Trazado 68506" d="M2459.582,2221.747s19.66,10.865,26.168,1.365a7.417,7.417,0,0,0,1.3-5.776,41.206,41.206,0,0,1,15.1-4.2,20.709,20.709,0,0,1-2.115,14.218c-11.356,21.252-43-.758-43-.758Z" transform="translate(-2378.89 -2135.742)" fill="url(#linear-gradient-48)"/>
      <path id="Trazado_68507" data-name="Trazado 68507" d="M2416.508,1908.24l6.1,17.1a.618.618,0,0,1-.275.747c-1.609.909-7.411,3.55-14.475-.835a2.911,2.911,0,0,1-1.36-2.066l-2.063-14.832Z" transform="translate(-2334.303 -1877.334)" fill="url(#linear-gradient-49)"/>
      <g id="Grupo_28712" data-name="Grupo 28712" transform="translate(35.687 62.667)">
        <g id="Grupo_28711" data-name="Grupo 28711">
          <path id="Trazado_68508" data-name="Trazado 68508" d="M2227.549,2157.065l-10.709-37.4a1.091,1.091,0,0,0-.923-.785c-1.94-.226-7.563-.862-14.055-1.411-7.82-.662-16.9-1.2-22.327-.742a1.1,1.1,0,0,0-.895,1.575c3.086,6.243,15.779,31.638,22.135,39.957a1.1,1.1,0,0,0,.883.434l24.848-.231A1.094,1.094,0,0,0,2227.549,2157.065Z" transform="translate(-2178.526 -2116.557)" fill="#386dc0"/>
          <path id="Trazado_68509" data-name="Trazado 68509" d="M2409.521,2252.1s1.492-6.135.89-8.311-1.768-4.975-5.655-4.353a56.847,56.847,0,0,0-8.471,2.259,2.225,2.225,0,0,0,3.186,1.92l-1.832,1.417s.262,2.27,2.757,1.057l-1.7,1.879a1.986,1.986,0,0,0,2.907.669C2403.436,2247.438,2404.315,2252.834,2409.521,2252.1Z" transform="translate(-2363.085 -2220.623)" fill="url(#linear-gradient-50)"/>
        </g>
        <path id="Trazado_68510" data-name="Trazado 68510" d="M2301.316,2178.287a3.144,3.144,0,1,1-3.144-3.144A3.144,3.144,0,0,1,2301.316,2178.287Z" transform="translate(-2277.266 -2166.211)" fill="#91b3fa"/>
        <path id="Trazado_68511" data-name="Trazado 68511" d="M2256.135,2144.073l-2.181-7.4a2.536,2.536,0,0,0-1.906-1.78c-6.834-1.426-25.541-1.728-25.728-1.731l.012-.835c.771.012,18.975.307,25.886,1.749a3.372,3.372,0,0,1,2.537,2.362l2.181,7.4Z" transform="translate(-2219.033 -2129.924)" fill="#91b3fa"/>
      </g>
      <g id="Grupo_28713" data-name="Grupo 28713" transform="translate(60.936 5.232)">
        <path id="Trazado_68512" data-name="Trazado 68512" d="M2371.21,1790.089c-.213.213-8.976,18.47-8.976,18.47l9.933,5.087,10.729-16S2374.771,1786.533,2371.21,1790.089Z" transform="translate(-2359.474 -1781.833)" fill="url(#linear-gradient-51)"/>
        <path id="Trazado_68513" data-name="Trazado 68513" d="M2363.162,1756.1a1.774,1.774,0,0,1-.119,1.476l-4.954,8.761a1.644,1.644,0,0,1-.272.359c-.59.582-2.608,2.276-4.167-.03-1.33-1.966-2.577-3.753-3.913-4.489a1.542,1.542,0,0,0-2.138.746,64.888,64.888,0,0,0-3.39,8.532,1.7,1.7,0,0,0,.918,2.052,42.078,42.078,0,0,0,9.514,2.944,1.546,1.546,0,0,0,1.5-.676c1.518-2.206,5.8-8.37,7.255-9.913,1.356-1.433,3.859-.893,4.988-.549a1.514,1.514,0,0,0,1.265-.176,3.8,3.8,0,0,0,1.314-5.635,1.745,1.745,0,0,1,.49-2.285,3.83,3.83,0,0,0,1.343-5.276,4.85,4.85,0,0,0-5.352-2.779,1.63,1.63,0,0,1-1.726-1.018,1.062,1.062,0,0,0-.817-.683,1.628,1.628,0,0,1-1.245-1.916,4.4,4.4,0,0,0-2.266-4.933c-4.286-2.5-8.04,1.573-8.994,5.012s3.837,5.868,6.851,6.274C2361.46,1752.2,2362.674,1754.763,2363.162,1756.1Z" transform="translate(-2344.135 -1739.842)" fill="#00223d"/>
        <path id="Trazado_68514" data-name="Trazado 68514" d="M2458.242,1899.923s1.905-5.916,4.345-5.7,4.36,2.8,1.336,5.694C2460.163,1903.523,2458.242,1899.923,2458.242,1899.923Z" transform="translate(-2440.845 -1870.682)" fill="url(#linear-gradient-52)"/>
      </g>
    </g>
  </g>
</svg>
