<svg xmlns="http://www.w3.org/2000/svg" width="269.151" height="124.433" viewBox="0 0 269.151 124.433">
  <g id="Grupo_29498" data-name="Grupo 29498" transform="translate(-269.3 -3505.568)">
    <g id="Grupo_26864" data-name="Grupo 26864" transform="translate(493.078 -2121.749)">
      <g id="Grupo_26863" data-name="Grupo 26863" transform="translate(-223.778 5627.317)">
        <g id="Grupo_26791" data-name="Grupo 26791" transform="translate(83.916 22.461)">
          <g id="Grupo_26774" data-name="Grupo 26774" transform="translate(1.229 1.229)">
            <g id="Grupo_26773" data-name="Grupo 26773">
              <path id="Trazado_67605" data-name="Trazado 67605" d="M700.467,5894.039H641.482a15.092,15.092,0,1,1,0-30.184h58.985" transform="translate(-626.39 -5863.855)" fill="#5d9af0"/>
            </g>
          </g>
          <g id="Grupo_26776" data-name="Grupo 26776" transform="translate(1.231 13.454)" opacity="0.3">
            <g id="Grupo_26775" data-name="Grupo 26775">
              <path id="Trazado_67606" data-name="Trazado 67606" d="M700.486,5998.145v5.736H641.5a15.1,15.1,0,0,1-14.818-17.96,15.113,15.113,0,0,0,14.818,12.225Z" transform="translate(-626.41 -5985.92)" fill="#325a6a"/>
            </g>
          </g>
          <g id="Grupo_26778" data-name="Grupo 26778" transform="translate(1.231 1.229)" opacity="0.55">
            <g id="Grupo_26777" data-name="Grupo 26777">
              <path id="Trazado_67607" data-name="Trazado 67607" d="M700.486,5863.859v3H641.5a15.113,15.113,0,0,0-15.018,13.593c-.049-.5-.074-1-.074-1.5a15.108,15.108,0,0,1,15.092-15.092Z" transform="translate(-626.41 -5863.859)" fill="#fff"/>
            </g>
          </g>
          <g id="Grupo_26780" data-name="Grupo 26780" transform="translate(58.173 1.229)">
            <g id="Grupo_26779" data-name="Grupo 26779">
              <path id="Trazado_67608" data-name="Trazado 67608" d="M1257.167,5894.039h-47.1a15.092,15.092,0,1,1,0-30.184h47.1a3.687,3.687,0,1,1,0,7.373h-47.1a7.718,7.718,0,1,0,0,15.437h47.1a3.687,3.687,0,1,1,0,7.374Z" transform="translate(-1194.97 -5863.855)" fill="#4a83ff"/>
            </g>
          </g>
          <g id="Grupo_26783" data-name="Grupo 26783" transform="translate(58.215 0.665)" opacity="0.55">
            <g id="Grupo_26781" data-name="Grupo 26781" transform="translate(6.821 15.289)">
              <path id="Trazado_67609" data-name="Trazado 67609" d="M1322.522,6022.1a3.646,3.646,0,0,1-.627,2.052,3.688,3.688,0,0,0-3.572-2.769h-47.1a7.717,7.717,0,0,1-7.2-10.492,7.723,7.723,0,0,0,7.714,7.521h47.1A3.687,3.687,0,0,1,1322.522,6022.1Z" transform="translate(-1263.501 -6010.888)" fill="#fff"/>
            </g>
            <g id="Grupo_26782" data-name="Grupo 26782">
              <path id="Trazado_67610" data-name="Trazado 67610" d="M1209.933,5861.2a15.116,15.116,0,0,0-14.539,11.045,15.106,15.106,0,0,1,15.051-14.015h47.1a3.688,3.688,0,0,1,3.687,3.688,3.648,3.648,0,0,1-.627,2.052,3.688,3.688,0,0,0-3.572-2.77Z" transform="translate(-1195.394 -5858.229)" fill="#fff"/>
            </g>
          </g>
          <g id="Grupo_26785" data-name="Grupo 26785" transform="translate(56.944)">
            <g id="Grupo_26784" data-name="Grupo 26784">
              <path id="Trazado_67611" data-name="Trazado 67611" d="M1246.125,5884.228h-47.1a16.321,16.321,0,1,1,0-32.642h47.1a4.916,4.916,0,1,1,0,9.832h-47.1a6.49,6.49,0,0,0,0,12.979h47.1a4.916,4.916,0,1,1,0,9.831Zm-47.1-30.184a13.863,13.863,0,1,0,0,27.726h47.1a2.458,2.458,0,0,0,0-4.916h-47.1a8.947,8.947,0,1,1,0-17.894h47.1a2.458,2.458,0,0,0,0-4.916Z" transform="translate(-1182.699 -5851.586)" fill="#325a6a"/>
            </g>
          </g>
          <g id="Grupo_26787" data-name="Grupo 26787">
            <g id="Grupo_26786" data-name="Grupo 26786">
              <path id="Trazado_67612" data-name="Trazado 67612" d="M689.424,5884.228H630.439a16.321,16.321,0,1,1,0-32.642h58.985a1.229,1.229,0,1,1,0,2.458H630.439a13.863,13.863,0,1,0,0,27.726h58.985a1.229,1.229,0,1,1,0,2.458Z" transform="translate(-614.118 -5851.586)" fill="#325a6a"/>
            </g>
          </g>
          <g id="Grupo_26788" data-name="Grupo 26788" transform="translate(65.343 8.398)">
            <path id="Trazado_67613" data-name="Trazado 67613" d="M1322.825,5952.919h-46.493a7.718,7.718,0,1,1,0-15.436h46.493C1317.225,5937.483,1317.225,5952.919,1322.825,5952.919Z" transform="translate(-1268.409 -5937.278)" fill="#fff"/>
            <path id="Trazado_67614" data-name="Trazado 67614" d="M1320.984,5951.282h-46.493a7.923,7.923,0,0,1,0-15.847h46.493v.409c-2.745,0-4,3.9-4,7.514s1.25,7.514,4,7.514Zm-46.493-15.437a7.514,7.514,0,0,0,0,15.027h44.953c-1.958-1.131-2.865-4.418-2.865-7.514a12.724,12.724,0,0,1,1.07-5.4,4.732,4.732,0,0,1,1.8-2.118Z" transform="translate(-1266.568 -5935.436)" fill="#325a6a"/>
          </g>
          <g id="Grupo_26789" data-name="Grupo 26789" transform="translate(65.548 8.603)" opacity="0.3">
            <path id="Trazado_67615" data-name="Trazado 67615" d="M1322.825,5937.483c-2.175,0-3.507,2.327-3.99,5.178h-44.043a7.708,7.708,0,0,0-6.157,3.068c-.016-.176-.021-.352-.021-.528a7.726,7.726,0,0,1,7.718-7.718Z" transform="translate(-1268.614 -5937.483)" fill="#325a6a"/>
          </g>
          <g id="Grupo_26790" data-name="Grupo 26790" transform="translate(64.319 7.374)">
            <path id="Trazado_67616" data-name="Trazado 67616" d="M1311.781,5943.106h-46.493a8.947,8.947,0,1,1,0-17.895h46.493a1.229,1.229,0,1,1,0,2.458c-1.86,0-2.971,3.3-2.971,6.489s1.111,6.49,2.971,6.49a1.229,1.229,0,1,1,0,2.458Zm-46.493-15.437a6.49,6.49,0,0,0,0,12.979h42.6a14.442,14.442,0,0,1,0-12.979Z" transform="translate(-1256.341 -5925.212)" fill="#325a6a"/>
          </g>
        </g>
        <g id="Grupo_26810" data-name="Grupo 26810" transform="translate(72.042 52.889)">
          <g id="Grupo_26793" data-name="Grupo 26793" transform="translate(1.024 1.024)">
            <g id="Grupo_26792" data-name="Grupo 26792">
              <path id="Trazado_67617" data-name="Trazado 67617" d="M581.91,6197.863H522.925a15.092,15.092,0,1,1,0-30.184H581.91" transform="translate(-507.628 -6167.475)" fill="#5d9af0"/>
              <path id="Trazado_67618" data-name="Trazado 67618" d="M580.069,6196.225H521.084a15.3,15.3,0,1,1,0-30.594h58.985v.41H521.084a14.887,14.887,0,1,0,0,29.775h58.985Z" transform="translate(-505.787 -6165.631)" fill="#325a6a"/>
            </g>
          </g>
          <g id="Grupo_26795" data-name="Grupo 26795" transform="translate(1.231 13.454)" opacity="0.3">
            <g id="Grupo_26794" data-name="Grupo 26794">
              <path id="Trazado_67619" data-name="Trazado 67619" d="M581.928,6301.969v5.735H522.944a15.094,15.094,0,0,1-14.818-17.96,15.114,15.114,0,0,0,14.818,12.225Z" transform="translate(-507.852 -6289.744)" fill="#325a6a"/>
            </g>
          </g>
          <g id="Grupo_26797" data-name="Grupo 26797" transform="translate(1.231 1.229)" opacity="0.55">
            <g id="Grupo_26796" data-name="Grupo 26796">
              <path id="Trazado_67620" data-name="Trazado 67620" d="M581.928,6167.684v3H522.944a15.113,15.113,0,0,0-15.018,13.592c-.049-.5-.074-1-.074-1.5a15.108,15.108,0,0,1,15.092-15.092Z" transform="translate(-507.852 -6167.684)" fill="#fff"/>
            </g>
          </g>
          <g id="Grupo_26799" data-name="Grupo 26799" transform="translate(57.968 1.024)">
            <g id="Grupo_26798" data-name="Grupo 26798">
              <path id="Trazado_67621" data-name="Trazado 67621" d="M1138.61,6197.863h-47.1a15.092,15.092,0,1,1,0-30.184h47.1a3.687,3.687,0,0,1,0,7.374h-47.1a7.718,7.718,0,1,0,0,15.436h47.1a3.687,3.687,0,1,1,0,7.374Z" transform="translate(-1076.208 -6167.475)" fill="#5d9af0"/>
              <path id="Trazado_67622" data-name="Trazado 67622" d="M1136.77,6196.225h-47.1a15.3,15.3,0,1,1,0-30.594h47.1a3.892,3.892,0,0,1,0,7.784h-47.1a7.513,7.513,0,1,0,0,15.026h47.1a3.892,3.892,0,0,1,0,7.784Zm-47.1-30.185a14.887,14.887,0,1,0,0,29.775h47.1a3.482,3.482,0,0,0,0-6.964h-47.1a7.923,7.923,0,1,1,0-15.846h47.1a3.482,3.482,0,0,0,0-6.964Z" transform="translate(-1074.368 -6165.631)" fill="#325a6a"/>
            </g>
          </g>
          <g id="Grupo_26802" data-name="Grupo 26802" transform="translate(58.215 0.666)" opacity="0.55">
            <g id="Grupo_26800" data-name="Grupo 26800" transform="translate(6.821 15.289)">
              <path id="Trazado_67623" data-name="Trazado 67623" d="M1203.964,6325.919a3.646,3.646,0,0,1-.627,2.052,3.689,3.689,0,0,0-3.572-2.77h-47.1a7.716,7.716,0,0,1-7.2-10.491,7.723,7.723,0,0,0,7.714,7.522h47.1A3.687,3.687,0,0,1,1203.964,6325.919Z" transform="translate(-1144.943 -6314.711)" fill="#fff"/>
            </g>
            <g id="Grupo_26801" data-name="Grupo 26801">
              <path id="Trazado_67624" data-name="Trazado 67624" d="M1091.375,6165.023a15.116,15.116,0,0,0-14.539,11.044,15.106,15.106,0,0,1,15.051-14.014h47.1a3.687,3.687,0,0,1,3.687,3.687,3.646,3.646,0,0,1-.627,2.052,3.688,3.688,0,0,0-3.572-2.769Z" transform="translate(-1076.836 -6162.053)" fill="#fff"/>
            </g>
          </g>
          <g id="Grupo_26804" data-name="Grupo 26804" transform="translate(56.944)">
            <g id="Grupo_26803" data-name="Grupo 26803">
              <path id="Trazado_67625" data-name="Trazado 67625" d="M1127.567,6188.05h-47.1a16.321,16.321,0,1,1,0-32.642h47.1a4.916,4.916,0,1,1,0,9.832h-47.1a6.489,6.489,0,1,0,0,12.979h47.1a4.916,4.916,0,0,1,0,9.832Zm-47.1-30.184a13.863,13.863,0,1,0,0,27.727h47.1a2.458,2.458,0,0,0,0-4.917h-47.1a8.947,8.947,0,1,1,0-17.894h47.1a2.458,2.458,0,0,0,0-4.916Z" transform="translate(-1064.141 -6155.408)" fill="#325a6a"/>
            </g>
          </g>
          <g id="Grupo_26806" data-name="Grupo 26806" transform="translate(0)">
            <g id="Grupo_26805" data-name="Grupo 26805">
              <path id="Trazado_67626" data-name="Trazado 67626" d="M570.866,6188.05H511.881a16.321,16.321,0,1,1,0-32.642h58.985a1.229,1.229,0,0,1,0,2.458H511.881a13.863,13.863,0,1,0,0,27.727h58.985a1.229,1.229,0,1,1,0,2.458Z" transform="translate(-495.56 -6155.408)" fill="#325a6a"/>
            </g>
          </g>
          <g id="Grupo_26807" data-name="Grupo 26807" transform="translate(65.343 8.398)">
            <path id="Trazado_67627" data-name="Trazado 67627" d="M1204.267,6256.743h-46.493a7.718,7.718,0,1,1,0-15.436h46.493C1198.667,6241.307,1198.667,6256.743,1204.267,6256.743Z" transform="translate(-1149.851 -6241.103)" fill="#fff"/>
            <path id="Trazado_67628" data-name="Trazado 67628" d="M1202.427,6255.107h-46.493a7.923,7.923,0,1,1,0-15.846h46.493v.411c-2.745,0-4,3.894-4,7.513s1.25,7.512,4,7.512Zm-46.493-15.436a7.513,7.513,0,1,0,0,15.025h44.953c-1.958-1.131-2.865-4.417-2.865-7.512a12.727,12.727,0,0,1,1.07-5.4,4.725,4.725,0,0,1,1.8-2.117Z" transform="translate(-1148.011 -6239.261)" fill="#325a6a"/>
          </g>
          <g id="Grupo_26808" data-name="Grupo 26808" transform="translate(65.548 8.603)" opacity="0.3">
            <path id="Trazado_67629" data-name="Trazado 67629" d="M1204.267,6241.307c-2.175,0-3.507,2.327-3.99,5.178h-44.044a7.707,7.707,0,0,0-6.157,3.069c-.016-.176-.021-.353-.021-.529a7.726,7.726,0,0,1,7.718-7.718Z" transform="translate(-1150.056 -6241.307)" fill="#325a6a"/>
          </g>
          <g id="Grupo_26809" data-name="Grupo 26809" transform="translate(64.319 7.374)">
            <path id="Trazado_67630" data-name="Trazado 67630" d="M1193.225,6246.932h-46.493a8.947,8.947,0,1,1,0-17.894h46.493a1.229,1.229,0,1,1,0,2.458c-1.86,0-2.971,3.3-2.971,6.489s1.111,6.489,2.971,6.489a1.229,1.229,0,0,1,0,2.458Zm-46.493-15.436a6.489,6.489,0,1,0,0,12.978h42.6a14.441,14.441,0,0,1,0-12.978Z" transform="translate(-1137.785 -6229.039)" fill="#325a6a"/>
          </g>
        </g>
        <g id="Grupo_26829" data-name="Grupo 26829" transform="translate(83.95 83.461)">
          <g id="Grupo_26812" data-name="Grupo 26812" transform="translate(1.229 1.229)">
            <g id="Grupo_26811" data-name="Grupo 26811">
              <path id="Trazado_67631" data-name="Trazado 67631" d="M700.808,6503.128H641.823a15.092,15.092,0,0,1,0-30.185h58.985" transform="translate(-626.731 -6472.943)" fill="#ffce3b"/>
            </g>
          </g>
          <g id="Grupo_26814" data-name="Grupo 26814" transform="translate(1.026 12.374)" opacity="0.3">
            <g id="Grupo_26813" data-name="Grupo 26813">
              <path id="Trazado_67632" data-name="Trazado 67632" d="M700.827,6607.234v5.735H641.843a15.094,15.094,0,0,1-14.818-17.959,15.113,15.113,0,0,0,14.818,12.225Z" transform="translate(-626.546 -6593.93)" fill="#282e6b"/>
              <path id="Trazado_67633" data-name="Trazado 67633" d="M699.191,6603.477H640a15.3,15.3,0,0,1-15.019-18.2l.2-1.041.2,1.041A14.9,14.9,0,0,0,640,6597.331h59.189Zm-73.969-17.084A14.89,14.89,0,0,0,640,6603.066h58.779v-5.326H640A15.316,15.316,0,0,1,625.222,6586.392Z" transform="translate(-624.705 -6584.232)" fill="#325a6a"/>
            </g>
          </g>
          <g id="Grupo_26816" data-name="Grupo 26816" transform="translate(1.231 1.229)" opacity="0.55">
            <g id="Grupo_26815" data-name="Grupo 26815">
              <path id="Trazado_67634" data-name="Trazado 67634" d="M700.827,6472.948v3H641.843a15.113,15.113,0,0,0-15.018,13.593c-.049-.5-.074-1-.074-1.5a15.109,15.109,0,0,1,15.092-15.092Z" transform="translate(-626.751 -6472.948)" fill="#fff"/>
            </g>
          </g>
          <g id="Grupo_26818" data-name="Grupo 26818" transform="translate(58.173 1.229)">
            <g id="Grupo_26817" data-name="Grupo 26817">
              <path id="Trazado_67635" data-name="Trazado 67635" d="M1257.508,6503.128h-47.1a15.092,15.092,0,0,1,0-30.185h47.1a3.687,3.687,0,0,1,0,7.375h-47.1a7.718,7.718,0,1,0,0,15.436h47.1a3.687,3.687,0,0,1,0,7.375Z" transform="translate(-1195.311 -6472.943)" fill="#ffce3b"/>
            </g>
          </g>
          <g id="Grupo_26821" data-name="Grupo 26821" transform="translate(58.215 0.665)" opacity="0.55">
            <g id="Grupo_26819" data-name="Grupo 26819" transform="translate(6.821 15.289)">
              <path id="Trazado_67636" data-name="Trazado 67636" d="M1322.862,6631.185a3.65,3.65,0,0,1-.627,2.053,3.688,3.688,0,0,0-3.572-2.77h-47.1a7.717,7.717,0,0,1-7.2-10.492,7.723,7.723,0,0,0,7.714,7.521h47.1A3.687,3.687,0,0,1,1322.862,6631.185Z" transform="translate(-1263.841 -6619.977)" fill="#fff"/>
            </g>
            <g id="Grupo_26820" data-name="Grupo 26820">
              <path id="Trazado_67637" data-name="Trazado 67637" d="M1210.274,6470.288a15.116,15.116,0,0,0-14.539,11.044,15.106,15.106,0,0,1,15.051-14.014h47.1a3.687,3.687,0,0,1,3.687,3.687,3.647,3.647,0,0,1-.627,2.053,3.688,3.688,0,0,0-3.572-2.77Z" transform="translate(-1195.735 -6467.318)" fill="#fff"/>
            </g>
          </g>
          <g id="Grupo_26823" data-name="Grupo 26823" transform="translate(56.944)">
            <g id="Grupo_26822" data-name="Grupo 26822">
              <path id="Trazado_67638" data-name="Trazado 67638" d="M1246.466,6493.318h-47.1a16.321,16.321,0,1,1,0-32.642h47.1a4.916,4.916,0,1,1,0,9.831h-47.1a6.489,6.489,0,0,0,0,12.979h47.1a4.916,4.916,0,0,1,0,9.832Zm-47.1-30.184a13.863,13.863,0,1,0,0,27.726h47.1a2.458,2.458,0,0,0,0-4.917h-47.1a8.947,8.947,0,1,1,0-17.894h47.1a2.458,2.458,0,1,0,0-4.916Z" transform="translate(-1183.04 -6460.676)" fill="#325a6a"/>
            </g>
          </g>
          <g id="Grupo_26825" data-name="Grupo 26825">
            <g id="Grupo_26824" data-name="Grupo 26824">
              <path id="Trazado_67639" data-name="Trazado 67639" d="M689.765,6493.318H630.78a16.321,16.321,0,1,1,0-32.642h58.985a1.229,1.229,0,1,1,0,2.458H630.78a13.863,13.863,0,1,0,0,27.726h58.985a1.229,1.229,0,0,1,0,2.458Z" transform="translate(-614.459 -6460.676)" fill="#325a6a"/>
            </g>
          </g>
          <g id="Grupo_26826" data-name="Grupo 26826" transform="translate(65.343 8.398)">
            <path id="Trazado_67640" data-name="Trazado 67640" d="M1323.166,6562.008h-46.493a7.718,7.718,0,1,1,0-15.436h46.493C1317.566,6546.572,1317.566,6562.008,1323.166,6562.008Z" transform="translate(-1268.75 -6546.367)" fill="#fff"/>
            <path id="Trazado_67641" data-name="Trazado 67641" d="M1321.326,6560.371h-46.493a7.923,7.923,0,0,1,0-15.846h46.493v.41c-2.745,0-4,3.9-4,7.514s1.25,7.513,4,7.513Zm-46.493-15.437a7.513,7.513,0,0,0,0,15.027h44.953c-1.958-1.131-2.865-4.418-2.865-7.513a12.725,12.725,0,0,1,1.07-5.4,4.734,4.734,0,0,1,1.8-2.118Z" transform="translate(-1266.91 -6544.525)" fill="#325a6a"/>
          </g>
          <g id="Grupo_26827" data-name="Grupo 26827" transform="translate(65.343 8.398)" opacity="0.3">
            <path id="Trazado_67642" data-name="Trazado 67642" d="M1323.166,6546.572c-2.175,0-3.507,2.327-3.99,5.178h-44.043a7.708,7.708,0,0,0-6.157,3.068c-.016-.176-.02-.352-.02-.528a7.726,7.726,0,0,1,7.718-7.718Z" transform="translate(-1268.75 -6546.367)" fill="#282e6b"/>
            <path id="Trazado_67643" data-name="Trazado 67643" d="M1266.98,6553.521l-.049-.525c-.017-.183-.021-.365-.021-.547a7.932,7.932,0,0,1,7.923-7.923h46.493v.41c-1.84,0-3.257,1.872-3.788,5.008l-.029.171h-44.216a7.455,7.455,0,0,0-5.994,2.987Zm7.852-8.586a7.522,7.522,0,0,0-7.513,7.489,7.852,7.852,0,0,1,5.973-2.721h43.871c.432-2.371,1.374-4.04,2.639-4.769Z" transform="translate(-1266.91 -6544.525)" fill="#325a6a"/>
          </g>
          <g id="Grupo_26828" data-name="Grupo 26828" transform="translate(64.319 7.374)">
            <path id="Trazado_67644" data-name="Trazado 67644" d="M1312.124,6552.2h-46.493a8.947,8.947,0,0,1,0-17.894h46.493a1.229,1.229,0,0,1,0,2.458c-1.86,0-2.971,3.3-2.971,6.489s1.111,6.489,2.971,6.489a1.229,1.229,0,0,1,0,2.458Zm-46.493-15.436a6.489,6.489,0,0,0,0,12.978h42.6a14.441,14.441,0,0,1,0-12.978Z" transform="translate(-1256.684 -6534.302)" fill="#325a6a"/>
          </g>
        </g>
        <g id="Grupo_26830" data-name="Grupo 26830" transform="translate(33.043 1.23)">
          <path id="Trazado_67645" data-name="Trazado 67645" d="M183.738,5663.181l-6.829,36.808-15.645,3.548,14.83.86-1.057,5.694a114.039,114.039,0,0,0-1.61,11.676H132.091a9.89,9.89,0,0,0-1.483,0h1.483c3.613.274,6.395,2.568,8.124,5.813,3.843,7.19,2.528,19.038-6.276,23.847a14.678,14.678,0,0,1-1.77.819,15.2,15.2,0,0,1-4.99.987,16.463,16.463,0,0,1-5.723-.86c-14.977-5.043-16.276-21.512-12.425-42.282l3.511-18.935,14.637-3.011-13.879-1.065,2.769-14.932,1.663-8.967a30.778,30.778,0,0,0,.516-7.51c-.631-10.323-6.354-16.014-12.089-16.075H172.07c4.711,0,9.431,3.8,11.344,10.852l-10.885,2.291,11.659,2.15c.025.258.045.52.061.782A30.785,30.785,0,0,1,183.738,5663.181Z" transform="translate(-106.159 -5639.596)" fill="#fffef7"/>
        </g>
        <g id="Grupo_26831" data-name="Grupo 26831" transform="translate(88.148 1.23)" opacity="0.6">
          <path id="Trazado_67646" data-name="Trazado 67646" d="M678.847,5663.181l-6.829,36.808-15.645,3.548,14.83.86-1.057,5.694a114.039,114.039,0,0,0-1.61,11.676h-3.277a114.038,114.038,0,0,1,1.61-11.676l1.057-5.694-7.134-.414a1.09,1.09,0,0,1-.178-2.151l8.127-1.843,6.829-36.808a30.785,30.785,0,0,0,.512-7.51c-.016-.262-.037-.524-.061-.782l-5.213-.962a1.294,1.294,0,0,1-.032-2.538l4.471-.941c-1.913-7.05-6.633-10.852-11.344-10.852h3.277c4.711,0,9.431,3.8,11.344,10.852l-10.885,2.291,11.659,2.15c.025.258.045.52.062.782A30.788,30.788,0,0,1,678.847,5663.181Z" transform="translate(-656.373 -5639.596)" fill="#fff"/>
        </g>
        <g id="Grupo_26832" data-name="Grupo 26832" transform="translate(54.063 83.373)">
          <path id="Trazado_67647" data-name="Trazado 67647" d="M397.05,6475.964c-.442,5.354-3.036,10.668-8.247,13.515a15.016,15.016,0,0,1-6.837,1.807H316.042a15.01,15.01,0,0,0,6.76-1.807c5.633-3.08,8.2-9.041,8.312-14.817.139-7.321-3.662-14.351-10.16-14.842h64.518c6.53-.479,10.721,5.317,11.516,12.089-5.289.951-14.293,2.675-14.293,2.675l.811.078h.012Z" transform="translate(-316.042 -6459.792)" fill="#fffef7"/>
        </g>
        <g id="Grupo_26833" data-name="Grupo 26833" transform="translate(58.975 83.373)" opacity="0.6">
          <path id="Trazado_67648" data-name="Trazado 67648" d="M429.607,6462.961H371.344a9.329,9.329,0,0,0-6.256-3.142h64.518c6.53-.479,10.721,5.317,11.516,12.089-.2.037-.4.069-.6.107C438.984,6466.645,435.133,6462.556,429.607,6462.961Z" transform="translate(-365.088 -6459.792)" fill="#fff"/>
        </g>
        <g id="Grupo_26834" data-name="Grupo 26834" transform="translate(55.849 89.214)" opacity="0.3">
          <path id="Trazado_67649" data-name="Trazado 67649" d="M338.843,6541.961a14.827,14.827,0,0,1-1.77.819,18.582,18.582,0,0,0,2.913-9.824c.1-5.461-1.986-10.761-5.752-13.305a.844.844,0,0,1,.486-1.537h10.4C348.962,6525.3,347.647,6537.151,338.843,6541.961Z" transform="translate(-333.869 -6518.114)" fill="#325a6a"/>
        </g>
        <g id="Grupo_26835" data-name="Grupo 26835" transform="translate(20.893 1.229)">
          <path id="Trazado_67650" data-name="Trazado 67650" d="M9.058,5659.289a33.6,33.6,0,0,1-.5,3.888l-1.663,8.968H-5.563a5.782,5.782,0,0,1-.7,0H-6.28c-4.441-.238-8.886-5.28-8.886-15.109a34.137,34.137,0,0,1,.8-5.608c1.909-8.124,6.632-11.885,11.352-11.835,5.735.062,11.458,5.751,12.089,16.076A28.851,28.851,0,0,1,9.058,5659.289Z" transform="translate(15.166 -5639.591)" fill="#fffef7"/>
        </g>
        <g id="Grupo_26836" data-name="Grupo 26836" transform="translate(52.834 82.145)">
          <path id="Trazado_67651" data-name="Trazado 67651" d="M305,6481.479a1.229,1.229,0,0,1-.036-2.457,13.9,13.9,0,0,0,6.208-1.657c6.857-3.748,8.57-12,7.26-18.079-.913-4.238-3.655-8.9-8.612-9.277a1.229,1.229,0,0,1,.093-2.454h64.475c6.559-.458,11.815,4.955,12.78,13.175a1.229,1.229,0,0,1-1,1.353c-1.685.3-3.761.687-5.8,1.069l5.764.554a1.229,1.229,0,0,1,1.107,1.324c-.53,6.416-3.768,11.7-8.882,14.493a16.367,16.367,0,0,1-7.4,1.957Zm8.2-2.458h57.72a13.862,13.862,0,0,0,6.25-1.657,15.023,15.023,0,0,0,7.472-11.332l-13.11-1.261a1.229,1.229,0,0,1-.114-2.43c.084-.016,7.836-1.5,13.134-2.466-.972-5.378-4.327-10.285-10.035-9.866-.03,0-.06,0-.09,0H315.953a15.488,15.488,0,0,1,4.881,8.756C322.276,6465.458,320.458,6474.478,313.2,6479.022Z" transform="translate(-303.772 -6447.528)" fill="#325a6a"/>
        </g>
        <g id="Grupo_26837" data-name="Grupo 26837" transform="translate(54.063 98.243)" opacity="0.3">
          <path id="Trazado_67652" data-name="Trazado 67652" d="M397.05,6609.571c-.442,5.354-3.036,10.667-8.247,13.515a15.022,15.022,0,0,1-6.837,1.807H316.042a15.023,15.023,0,0,0,6.76-1.807c5.633-3.081,8.2-9.042,8.312-14.818h52.4Z" transform="translate(-316.042 -6608.269)" fill="#325a6a"/>
        </g>
        <g id="Grupo_26838" data-name="Grupo 26838" transform="translate(31.814 0.001)">
          <path id="Trazado_67653" data-name="Trazado 67653" d="M115.657,5743.427a17.687,17.687,0,0,1-5.635-.931c-18-6.062-16.18-27.827-13.243-43.671l3.511-18.935a1.228,1.228,0,0,1,.961-.979l6.08-1.25-5.168-.4a1.228,1.228,0,0,1-1.114-1.449l4.433-23.9a29.655,29.655,0,0,0,.5-7.21c-.594-9.725-5.921-14.868-10.876-14.921a1.229,1.229,0,0,1,.013-2.458h65.911c5.673,0,10.591,4.616,12.53,11.759a1.229,1.229,0,0,1-.933,1.524l-4.792,1.008,5.537,1.021a1.229,1.229,0,0,1,1,1.092c.026.271.047.547.065.823a32.11,32.11,0,0,1-.531,7.809h0l-6.829,36.809a1.228,1.228,0,0,1-.936.975l-7.169,1.626,6.153.356a1.229,1.229,0,0,1,1.137,1.451l-1.057,5.695a111.85,111.85,0,0,0-1.593,11.549,1.228,1.228,0,0,1-1.225,1.131H127.089a15.49,15.49,0,0,1,4.881,8.755c1.5,6.945-.52,16.4-8.485,20.755a16.368,16.368,0,0,1-7.312,1.957C116,5743.425,115.829,5743.427,115.657,5743.427Zm-13.1-62.275-3.36,18.122c-2.1,11.334-2.383,20.015-.859,26.534,1.733,7.42,5.812,12.117,12.469,14.359a15.188,15.188,0,0,0,5.294.8,13.892,13.892,0,0,0,6.208-1.657c6.857-3.748,8.57-12,7.259-18.079-.911-4.226-3.639-8.873-8.567-9.273h-1.435a1.229,1.229,0,0,1-.089-2.455,11.322,11.322,0,0,1,1.617,0h40.162c.3-3.279.806-6.783,1.529-10.671l.8-4.324-13.439-.779a1.229,1.229,0,0,1-.2-2.425l14.856-3.369,6.682-36.014a29.8,29.8,0,0,0,.5-7.03l-10.727-1.979a1.229,1.229,0,0,1-.03-2.411l9.57-2.014c-1.823-5.325-5.565-8.7-9.775-8.7H101.755c3.5,2.73,6.245,7.7,6.677,14.771a32.112,32.112,0,0,1-.535,7.811l-4.183,22.553,12.516.961a1.229,1.229,0,0,1,.154,2.429Zm70.138-29.014h0Z" transform="translate(-93.888 -5627.325)" fill="#325a6a"/>
        </g>
        <g id="Grupo_26839" data-name="Grupo 26839" transform="translate(19.664)">
          <path id="Trazado_67654" data-name="Trazado 67654" d="M-17,5662.338l-.193,0c-4.934-.137-10.243-5.311-10.243-16.346,0-.026,0-.051,0-.077.807-12.861,7.241-18.6,13.293-18.6h.1a1.229,1.229,0,0,1,1.217,1.241,1.237,1.237,0,0,1-1.241,1.217h-.072c-4.894,0-10.121,5.014-10.838,16.253.011,8.95,3.956,13.742,7.854,13.85,3.086.087,6.569-2.93,7.31-9.71l-10.151-.356a1.229,1.229,0,0,1-1.174-1.055c-.783-5.506.363-9.894,3.145-12.041a5.753,5.753,0,0,1,5.8-.786c2.54,1.067,4.307,3.818,4.727,7.358a32.782,32.782,0,0,1,.208,5.765.023.023,0,0,0,0,0C-7.77,5658.219-12.628,5662.338-17,5662.338Zm-1.828-14.946,9.157.321a31.883,31.883,0,0,0-.236-4.134c-.314-2.65-1.525-4.663-3.239-5.383a3.28,3.28,0,0,0-3.348.466C-18.37,5640.11-19.22,5643.332-18.829,5647.393Z" transform="translate(27.437 -5627.317)" fill="#325a6a"/>
        </g>
        <g id="Grupo_26840" data-name="Grupo 26840" transform="translate(26.944 9.384)" opacity="0.3">
          <path id="Trazado_67655" data-name="Trazado 67655" d="M56.926,5733.3l-11.438-.4c-2.048-14.4,10.045-15.2,11.237-5.149A31.418,31.418,0,0,1,56.926,5733.3Z" transform="translate(-45.255 -5721.017)" fill="#325a6a"/>
        </g>
        <g id="Grupo_26841" data-name="Grupo 26841" transform="translate(28.548 32.554)">
          <path id="Trazado_67656" data-name="Trazado 67656" d="M75.672,5954.827H62.5a1.229,1.229,0,1,1,0-2.458H75.672a1.229,1.229,0,1,1,0,2.458Z" transform="translate(-61.268 -5952.37)" fill="#325a6a"/>
        </g>
        <g id="Grupo_26842" data-name="Grupo 26842" transform="translate(31.808 8.173)">
          <path id="Trazado_67657" data-name="Trazado 67657" d="M104.969,5711.381H95.055a1.229,1.229,0,1,1,0-2.458h9.914a1.229,1.229,0,1,1,0,2.458Z" transform="translate(-93.826 -5708.924)" fill="#325a6a"/>
        </g>
        <g id="Grupo_26843" data-name="Grupo 26843" transform="translate(21.692 1.229)" opacity="0.3">
          <path id="Trazado_67658" data-name="Trazado 67658" d="M16.236,5659.289H10.414l-1.938-8.349c-2.986-4.715-6.264-3.867-9.726.492H-7.185l0,0c1.909-8.124,6.632-11.885,11.352-11.835,5.735.062,11.458,5.751,12.089,16.076A28.851,28.851,0,0,1,16.236,5659.289Z" transform="translate(7.189 -5639.591)" fill="#325a6a"/>
        </g>
        <g id="Grupo_26849" data-name="Grupo 26849" transform="translate(49.84 26.047)" opacity="0.35">
          <g id="Grupo_26844" data-name="Grupo 26844" transform="translate(5.876)">
            <path id="Trazado_67659" data-name="Trazado 67659" d="M359.578,5889.858H333.769a1.229,1.229,0,1,1,0-2.458h25.809a1.229,1.229,0,1,1,0,2.458Z" transform="translate(-332.54 -5887.4)" fill="#325a6a"/>
          </g>
          <g id="Grupo_26845" data-name="Grupo 26845" transform="translate(3.486 14.748)">
            <path id="Trazado_67660" data-name="Trazado 67660" d="M340.088,6037.115H309.909a1.229,1.229,0,1,1,0-2.458h30.179a1.229,1.229,0,0,1,0,2.458Z" transform="translate(-308.68 -6034.657)" fill="#325a6a"/>
          </g>
          <g id="Grupo_26846" data-name="Grupo 26846" transform="translate(0.618 40.705)">
            <path id="Trazado_67661" data-name="Trazado 67661" d="M298.726,6296.3H281.275a1.229,1.229,0,1,1,0-2.458h17.451a1.229,1.229,0,1,1,0,2.458Z" transform="translate(-280.046 -6293.842)" fill="#325a6a"/>
          </g>
          <g id="Grupo_26847" data-name="Grupo 26847" transform="translate(0 47.214)">
            <path id="Trazado_67662" data-name="Trazado 67662" d="M287.394,6361.287H275.1a1.229,1.229,0,1,1,0-2.458h12.294a1.229,1.229,0,0,1,0,2.458Z" transform="translate(-273.871 -6358.829)" fill="#325a6a"/>
          </g>
          <g id="Grupo_26848" data-name="Grupo 26848" transform="translate(4.713 7.374)">
            <path id="Trazado_67663" data-name="Trazado 67663" d="M359.3,5964.035h-.018l-37.143-.546a1.229,1.229,0,0,1,.018-2.457h.018l37.143.545a1.229,1.229,0,0,1-.018,2.458Z" transform="translate(-320.93 -5961.031)" fill="#325a6a"/>
          </g>
        </g>
        <g id="Grupo_26860" data-name="Grupo 26860" transform="translate(196.948 14.887)">
          <g id="Grupo_26850" data-name="Grupo 26850" transform="translate(11.36 1.224)">
            <path id="Trazado_67664" data-name="Trazado 67664" d="M1857.8,5855.248h7.87q3.5-9.71,7.845-19.156l-2.946-5.56s3.7-.84,6.313-1.487q3.914-7.89,8.406-15.6l-5.561-4.715,8.2.274q6.256-10.318,13.5-20.328c-19.586-2.257-33.085,3.273-39.963,17.264l3.4,7.418s-3.146.177-6.28.271C1855.672,5824.117,1855.368,5837.935,1857.8,5855.248Z" transform="translate(-1856.167 -5788.188)" fill="#ffbe06"/>
          </g>
          <g id="Grupo_26851" data-name="Grupo 26851" transform="translate(12.808 1.364)" opacity="0.55">
            <path id="Trazado_67665" data-name="Trazado 67665" d="M1870.624,5855.144q.086.676.184,1.364h7.87q3.5-9.71,7.845-19.156l-2.946-5.56s3.7-.839,6.313-1.487q3.914-7.89,8.406-15.6l-5.563-4.715,8.2.274q6.255-10.318,13.5-20.328-1.979-.228-3.871-.348-6.827,9.525-12.773,19.312l-2.69-.09a1.918,1.918,0,0,0-1.305,3.38l1.356,1.15q-4.486,7.712-8.406,15.6c-.977.242-2.1.51-3.133.751a2.517,2.517,0,0,0-1.648,3.629l1.413,2.666q-4.345,9.451-7.845,19.156Z" transform="translate(-1870.624 -5789.589)" fill="#fff"/>
          </g>
          <g id="Grupo_26852" data-name="Grupo 26852" transform="translate(11.361 1.287)" opacity="0.3">
            <path id="Trazado_67666" data-name="Trazado 67666" d="M1857.812,5855.872h2.831c-2.392-17.2-2.081-30.934.819-41.372,1.683-.051,3.369-.125,4.57-.183a1.16,1.16,0,0,0,1-1.643l-2.688-5.865c6.444-13.1,18.7-18.787,36.321-17.6-19.164-2.023-32.4,3.543-39.185,17.349l3.4,7.419s-3.146.176-6.28.271C1855.686,5824.741,1855.383,5838.559,1857.812,5855.872Z" transform="translate(-1856.181 -5788.812)" fill="#325a6a"/>
          </g>
          <g id="Grupo_26853" data-name="Grupo 26853" transform="translate(10.142)">
            <path id="Trazado_67667" data-name="Trazado 67667" d="M1854.72,5845.479h-7.87a1.229,1.229,0,0,1-1.217-1.059c-2.423-17.266-2.147-31.437.82-42.118a1.229,1.229,0,0,1,1.147-.9c1.619-.049,3.254-.12,4.445-.177l-2.645-5.772a1.229,1.229,0,0,1,.014-1.054c7.006-14.25,20.87-20.286,41.207-17.942a1.229,1.229,0,0,1,.855,1.94c-4.833,6.688-9.357,13.5-13.448,20.245a1.241,1.241,0,0,1-1.092.591l-4.67-.156,2.867,2.431a1.229,1.229,0,0,1,.267,1.555c-3,5.15-5.811,10.375-8.368,15.528a1.231,1.231,0,0,1-.806.647c-1.534.378-3.451.827-4.772,1.133l2.2,4.144a1.229,1.229,0,0,1,.031,1.089c-2.886,6.278-5.512,12.691-7.805,19.059A1.229,1.229,0,0,1,1854.72,5845.479Zm-6.8-2.458h5.936c2.178-5.979,4.644-11.991,7.337-17.888l-2.661-5.023a1.229,1.229,0,0,1,.813-1.774c.034-.008,3.221-.733,5.739-1.346,2.364-4.739,4.942-9.533,7.674-14.27l-4.777-4.051a1.229,1.229,0,0,1,.836-2.166l7.481.25c3.672-6.021,7.682-12.088,11.944-18.068-18.034-1.6-29.95,3.735-36.365,16.28l3.155,6.883a1.229,1.229,0,0,1-1.049,1.739c-.028,0-2.608.146-5.4.242C1845.99,5813.864,1845.766,5827.039,1847.922,5843.021Z" transform="translate(-1844.001 -5775.966)" fill="#325a6a"/>
          </g>
          <g id="Grupo_26854" data-name="Grupo 26854" transform="translate(15.858 1.713)">
            <path id="Trazado_67668" data-name="Trazado 67668" d="M1941.846,5793.067a54.3,54.3,0,0,0-18.347,9.76,47,47,0,0,0-7.21,7.468,50.991,50.991,0,0,0-5.426,8.827,70.756,70.756,0,0,0-5.979,19.794,121.221,121.221,0,0,0-1.342,20.723h-2.458a123.349,123.349,0,0,1,1.984-21.041,72.275,72.275,0,0,1,6.7-20.03,52.081,52.081,0,0,1,5.8-8.846,47.805,47.805,0,0,1,7.546-7.373A54.592,54.592,0,0,1,1941.846,5793.067Z" transform="translate(-1901.084 -5793.067)" fill="#325a6a"/>
          </g>
          <g id="Grupo_26855" data-name="Grupo 26855" transform="translate(1.228 65.212)">
            <path id="Trazado_67669" data-name="Trazado 67669" d="M1785.687,6446.291l-1.54,8.653-.557,3.117a4.632,4.632,0,0,1-4.564,3.819h-17.213a4.632,4.632,0,0,1-4.563-3.819l-.557-3.117-1.54-8.653a9.849,9.849,0,0,1,1.113-6.566,9.236,9.236,0,0,1,.843-1.265l3.976-5.058a1,1,0,0,0-.786-1.613h-.546a2.341,2.341,0,1,1,0-4.683h21.335a2.341,2.341,0,0,1,0,4.683h-.546a1,1,0,0,0-.786,1.613l3.976,5.058a9.2,9.2,0,0,1,.843,1.265A9.848,9.848,0,0,1,1785.687,6446.291Z" transform="translate(-1754.999 -6427.106)" fill="#4a83ff"/>
          </g>
          <g id="Grupo_26856" data-name="Grupo 26856" transform="translate(21.613 65.212)" opacity="0.55">
            <path id="Trazado_67670" data-name="Trazado 67670" d="M1968.848,6446.291l-1.54,8.653-.557,3.117a4.632,4.632,0,0,1-4.564,3.819h-3.642a4.632,4.632,0,0,0,4.563-3.819l.557-3.117,1.54-8.653a9.85,9.85,0,0,0-1.114-6.566,9.236,9.236,0,0,0-.843-1.265l-3.976-5.058a1,1,0,0,1,.786-1.613h.546a2.341,2.341,0,1,0,0-4.683h3.643a2.341,2.341,0,0,1,0,4.683h-.546a1,1,0,0,0-.786,1.613l3.976,5.058a9.224,9.224,0,0,1,.843,1.265A9.848,9.848,0,0,1,1968.848,6446.291Z" transform="translate(-1958.545 -6427.106)" fill="#fff"/>
          </g>
          <g id="Grupo_26857" data-name="Grupo 26857" transform="translate(0 63.983)">
            <path id="Trazado_67671" data-name="Trazado 67671" d="M1767.994,6452.07H1750.78a5.86,5.86,0,0,1-5.774-4.832l-2.1-11.771a11.108,11.108,0,0,1,2.2-8.807l3.681-4.683h-.071a3.574,3.574,0,0,1-3.571-3.57,3.575,3.575,0,0,1,3.571-3.571h21.335a3.575,3.575,0,0,1,3.571,3.571,3.575,3.575,0,0,1-3.571,3.57h-.071l3.681,4.683a11.11,11.11,0,0,1,2.2,8.807l-2.1,11.77A5.859,5.859,0,0,1,1767.994,6452.07Zm-19.274-34.776a1.114,1.114,0,0,0-1.113,1.113,1.117,1.117,0,0,0,1.113,1.113h.546a2.226,2.226,0,0,1,1.749,3.6l-3.973,5.055a8.648,8.648,0,0,0-1.713,6.856l2.1,11.771a3.4,3.4,0,0,0,3.354,2.807h17.213a3.4,3.4,0,0,0,3.354-2.807l2.1-11.77h0a8.65,8.65,0,0,0-1.713-6.856l-3.975-5.058a2.226,2.226,0,0,1,1.752-3.6h.546a1.118,1.118,0,0,0,1.113-1.113,1.114,1.114,0,0,0-1.113-1.113Zm.366,4.309h0Zm20.6,0h0Z" transform="translate(-1742.738 -6414.837)" fill="#325a6a"/>
          </g>
          <g id="Grupo_26858" data-name="Grupo 26858" transform="translate(1.228 65.212)" opacity="0.3">
            <path id="Trazado_67672" data-name="Trazado 67672" d="M1767.448,6461.881h-5.635a4.632,4.632,0,0,1-4.563-3.819l-.557-3.117-1.54-8.653a9.849,9.849,0,0,1,1.113-6.566,9.236,9.236,0,0,1,.843-1.265l3.976-5.058a1,1,0,0,0-.786-1.613h-.546a2.341,2.341,0,1,1,0-4.683h5.635a2.341,2.341,0,0,0,0,4.683h.546a1,1,0,0,1,.786,1.613l-3.975,5.058a9.225,9.225,0,0,0-.843,1.265,9.849,9.849,0,0,0-1.114,6.566l1.54,8.653.557,3.117A4.632,4.632,0,0,0,1767.448,6461.881Z" transform="translate(-1754.999 -6427.106)" fill="#325a6a"/>
          </g>
          <g id="Grupo_26859" data-name="Grupo 26859" transform="translate(22.111 78.7)" opacity="0.2">
            <path id="Trazado_67673" data-name="Trazado 67673" d="M1967.211,6565.842c-.137,2.152-1.364,3.825-2.74,3.738s-.9-1.809-.765-3.961-.116-3.919,1.26-3.832S1967.347,6563.689,1967.211,6565.842Z" transform="translate(-1963.516 -6561.784)" fill="#fff"/>
          </g>
        </g>
        <g id="Grupo_26861" data-name="Grupo 26861" transform="translate(20.846 113.592)">
          <path id="Trazado_67674" data-name="Trazado 67674" d="M-15.28,6762.417A126.338,126.338,0,0,1-1,6761.575c2.379-.042,4.759-.05,7.138-.04s4.759.026,7.138.046q7.138.055,14.277.04H184.594l7.138,0,3.569-.028,3.569-.049c2.379-.024,4.759.009,7.138.119a52.7,52.7,0,0,1,7.138.757.4.4,0,0,1,0,.8,52.78,52.78,0,0,1-7.138.757c-2.379.109-4.759.142-7.138.119l-3.569-.049-3.569-.029-7.138,0H27.55q-7.138-.009-14.277.04c-2.379.021-4.759.048-7.138.045s-4.759,0-7.138-.04a126.223,126.223,0,0,1-14.277-.841.4.4,0,0,1-.346-.45A.4.4,0,0,1-15.28,6762.417Z" transform="translate(15.63 -6761.532)" fill="#325a6a"/>
        </g>
        <g id="Grupo_26862" data-name="Grupo 26862" transform="translate(0 114.875)" opacity="0.1">
          <path id="Trazado_67675" data-name="Trazado 67675" d="M45.373,6778.164c0,3.164-60.251,5.732-134.576,5.732s-134.576-2.568-134.576-5.732c0-1.471,12.99-2.81,34.345-3.826H11.028C32.384,6775.354,45.373,6776.692,45.373,6778.164Z" transform="translate(223.778 -6774.338)" fill="#7a7a7a"/>
        </g>
      </g>
    </g>
  </g>
</svg>
