<svg xmlns="http://www.w3.org/2000/svg" width="437.802" height="588.871" viewBox="0 0 437.802 588.871">
  <g id="Grupo_29520" data-name="Grupo 29520" transform="translate(-870 -5291)">
    <path id="Trazado_69257" data-name="Trazado 69257" d="M0,0H433.8V584.871H0Z" transform="translate(872 5293)" fill="none" stroke="#2b4e6a" stroke-width="4"/>
    <path id="Trazado_69258" data-name="Trazado 69258" d="M0,0H368.807V522.222H0Z" transform="translate(904.498 5324.324)" fill="none" stroke="#2b4e6a" stroke-width="4"/>
    <path id="Trazado_69259" data-name="Trazado 69259" d="M5.277-7.232a2.027,2.027,0,0,0-.14-.786,1.557,1.557,0,0,0-.383-.557,1.568,1.568,0,0,0-.571-.332,2.235,2.235,0,0,0-.711-.109,2.352,2.352,0,0,0-.643.089,3.124,3.124,0,0,0-.612.246,3.764,3.764,0,0,0-.574.376,4.148,4.148,0,0,0-.516.485v-1.2a3.352,3.352,0,0,1,1.056-.7,3.719,3.719,0,0,1,1.425-.243,3.441,3.441,0,0,1,1.114.174,2.555,2.555,0,0,1,.889.509,2.354,2.354,0,0,1,.591.827,2.79,2.79,0,0,1,.215,1.128,3.868,3.868,0,0,1-.133,1.053,3.256,3.256,0,0,1-.4.889,4.288,4.288,0,0,1-.68.8,9.635,9.635,0,0,1-.964.779q-.69.492-1.138.841a5.031,5.031,0,0,0-.711.653,1.894,1.894,0,0,0-.369.608,2.127,2.127,0,0,0-.106.7H6.795V0H.745V-.485A4.045,4.045,0,0,1,.882-1.593,2.876,2.876,0,0,1,1.333-2.5a5.046,5.046,0,0,1,.824-.861q.509-.431,1.248-.971A7.887,7.887,0,0,0,4.3-5.065a3.8,3.8,0,0,0,.578-.7,2.5,2.5,0,0,0,.311-.708A3.051,3.051,0,0,0,5.277-7.232ZM9.071.15a.726.726,0,0,1-.537-.226.742.742,0,0,1-.222-.54.754.754,0,0,1,.222-.543.72.72,0,0,1,.537-.229.739.739,0,0,1,.547.229.748.748,0,0,1,.226.543.737.737,0,0,1-.226.54A.745.745,0,0,1,9.071.15Zm8.135-3.145a3.3,3.3,0,0,1-.246,1.3,2.84,2.84,0,0,1-.7,1,3.137,3.137,0,0,1-1.1.643,4.291,4.291,0,0,1-1.429.226,3.947,3.947,0,0,1-2.03-.41V-1.429a3.733,3.733,0,0,0,2.044.643,2.766,2.766,0,0,0,.96-.157,2.134,2.134,0,0,0,.728-.437,1.873,1.873,0,0,0,.461-.677,2.291,2.291,0,0,0,.161-.868,1.86,1.86,0,0,0-.643-1.5,2.818,2.818,0,0,0-1.866-.543q-.2,0-.417.007t-.437.017q-.219.01-.427.024t-.379.034L12.223-9.8h4.532v1.012H13.193L13-5.913q.219-.014.465-.024t.438-.01a4.4,4.4,0,0,1,1.395.205,2.955,2.955,0,0,1,1.042.584,2.451,2.451,0,0,1,.649.93A3.27,3.27,0,0,1,17.206-2.994ZM23.939-9.8v6.474H25.2V-2.3H23.939V0H22.832V-2.3H18.225v-.971q.643-.725,1.3-1.548t1.254-1.671q.6-.848,1.107-1.692A15.463,15.463,0,0,0,22.743-9.8Zm-4.45,6.474h3.343v-4.8q-.513.9-.971,1.6T20.99-5.25q-.414.574-.79,1.039T19.489-3.329ZM35.417-.321A3.643,3.643,0,0,1,33.5.164,3.169,3.169,0,0,1,31.086-.81a3.53,3.53,0,0,1-.919-2.526,3.881,3.881,0,0,1,.991-2.779A3.467,3.467,0,0,1,33.8-7.164a3.682,3.682,0,0,1,1.627.342v1.148a2.85,2.85,0,0,0-1.668-.547A2.254,2.254,0,0,0,32-5.452a2.918,2.918,0,0,0-.687,2.02,2.779,2.779,0,0,0,.646,1.941,2.227,2.227,0,0,0,1.733.711,2.81,2.81,0,0,0,1.723-.608ZM47.052,0H45.931V-4.02A3.032,3.032,0,0,0,45.572-5.7a1.361,1.361,0,0,0-1.207-.52,1.494,1.494,0,0,0-1.22.656,2.511,2.511,0,0,0-.5,1.572V0H41.521V-4.156q0-2.064-1.593-2.064a1.475,1.475,0,0,0-1.217.619,2.557,2.557,0,0,0-.479,1.61V0H37.112V-7h1.121v1.107h.027a2.378,2.378,0,0,1,2.174-1.271,2.027,2.027,0,0,1,1.251.4,2.012,2.012,0,0,1,.731,1.049,2.5,2.5,0,0,1,2.324-1.449q2.311,0,2.311,2.851Z" transform="translate(1060.948 5313.506)" fill="#2b4e6a"/>
    <path id="Trazado_69260" data-name="Trazado 69260" d="M5.277-7.232a2.027,2.027,0,0,0-.14-.786,1.557,1.557,0,0,0-.383-.557,1.568,1.568,0,0,0-.571-.332,2.235,2.235,0,0,0-.711-.109,2.352,2.352,0,0,0-.643.089,3.124,3.124,0,0,0-.612.246,3.764,3.764,0,0,0-.574.376,4.148,4.148,0,0,0-.516.485v-1.2a3.352,3.352,0,0,1,1.056-.7,3.719,3.719,0,0,1,1.425-.243,3.441,3.441,0,0,1,1.114.174,2.555,2.555,0,0,1,.889.509,2.354,2.354,0,0,1,.591.827,2.79,2.79,0,0,1,.215,1.128,3.868,3.868,0,0,1-.133,1.053,3.256,3.256,0,0,1-.4.889,4.288,4.288,0,0,1-.68.8,9.635,9.635,0,0,1-.964.779q-.69.492-1.138.841a5.031,5.031,0,0,0-.711.653,1.894,1.894,0,0,0-.369.608,2.127,2.127,0,0,0-.106.7H6.795V0H.745V-.485A4.045,4.045,0,0,1,.882-1.593,2.876,2.876,0,0,1,1.333-2.5a5.046,5.046,0,0,1,.824-.861q.509-.431,1.248-.971A7.887,7.887,0,0,0,4.3-5.065a3.8,3.8,0,0,0,.578-.7,2.5,2.5,0,0,0,.311-.708A3.051,3.051,0,0,0,5.277-7.232ZM9.071.15a.726.726,0,0,1-.537-.226.742.742,0,0,1-.222-.54.754.754,0,0,1,.222-.543.72.72,0,0,1,.537-.229.739.739,0,0,1,.547.229.748.748,0,0,1,.226.543.737.737,0,0,1-.226.54A.745.745,0,0,1,9.071.15Zm8.135-3.145a3.3,3.3,0,0,1-.246,1.3,2.84,2.84,0,0,1-.7,1,3.137,3.137,0,0,1-1.1.643,4.291,4.291,0,0,1-1.429.226,3.947,3.947,0,0,1-2.03-.41V-1.429a3.733,3.733,0,0,0,2.044.643,2.766,2.766,0,0,0,.96-.157,2.134,2.134,0,0,0,.728-.437,1.873,1.873,0,0,0,.461-.677,2.291,2.291,0,0,0,.161-.868,1.86,1.86,0,0,0-.643-1.5,2.818,2.818,0,0,0-1.866-.543q-.2,0-.417.007t-.437.017q-.219.01-.427.024t-.379.034L12.223-9.8h4.532v1.012H13.193L13-5.913q.219-.014.465-.024t.438-.01a4.4,4.4,0,0,1,1.395.205,2.955,2.955,0,0,1,1.042.584,2.451,2.451,0,0,1,.649.93A3.27,3.27,0,0,1,17.206-2.994ZM23.939-9.8v6.474H25.2V-2.3H23.939V0H22.832V-2.3H18.225v-.971q.643-.725,1.3-1.548t1.254-1.671q.6-.848,1.107-1.692A15.463,15.463,0,0,0,22.743-9.8Zm-4.45,6.474h3.343v-4.8q-.513.9-.971,1.6T20.99-5.25q-.414.574-.79,1.039T19.489-3.329ZM35.417-.321A3.643,3.643,0,0,1,33.5.164,3.169,3.169,0,0,1,31.086-.81a3.53,3.53,0,0,1-.919-2.526,3.881,3.881,0,0,1,.991-2.779A3.467,3.467,0,0,1,33.8-7.164a3.682,3.682,0,0,1,1.627.342v1.148a2.85,2.85,0,0,0-1.668-.547A2.254,2.254,0,0,0,32-5.452a2.918,2.918,0,0,0-.687,2.02,2.779,2.779,0,0,0,.646,1.941,2.227,2.227,0,0,0,1.733.711,2.81,2.81,0,0,0,1.723-.608ZM47.052,0H45.931V-4.02A3.032,3.032,0,0,0,45.572-5.7a1.361,1.361,0,0,0-1.207-.52,1.494,1.494,0,0,0-1.22.656,2.511,2.511,0,0,0-.5,1.572V0H41.521V-4.156q0-2.064-1.593-2.064a1.475,1.475,0,0,0-1.217.619,2.557,2.557,0,0,0-.479,1.61V0H37.112V-7h1.121v1.107h.027a2.378,2.378,0,0,1,2.174-1.271,2.027,2.027,0,0,1,1.251.4,2.012,2.012,0,0,1,.731,1.049,2.5,2.5,0,0,1,2.324-1.449q2.311,0,2.311,2.851Z" transform="translate(1060.948 5864.884)" fill="#2b4e6a"/>
    <path id="Trazado_69261" data-name="Trazado 69261" d="M5.277-7.232a2.027,2.027,0,0,0-.14-.786,1.557,1.557,0,0,0-.383-.557,1.568,1.568,0,0,0-.571-.332,2.235,2.235,0,0,0-.711-.109,2.352,2.352,0,0,0-.643.089,3.124,3.124,0,0,0-.612.246,3.764,3.764,0,0,0-.574.376,4.148,4.148,0,0,0-.516.485v-1.2a3.352,3.352,0,0,1,1.056-.7,3.719,3.719,0,0,1,1.425-.243,3.441,3.441,0,0,1,1.114.174,2.555,2.555,0,0,1,.889.509,2.354,2.354,0,0,1,.591.827,2.79,2.79,0,0,1,.215,1.128,3.868,3.868,0,0,1-.133,1.053,3.256,3.256,0,0,1-.4.889,4.288,4.288,0,0,1-.68.8,9.635,9.635,0,0,1-.964.779q-.69.492-1.138.841a5.031,5.031,0,0,0-.711.653,1.894,1.894,0,0,0-.369.608,2.127,2.127,0,0,0-.106.7H6.795V0H.745V-.485A4.045,4.045,0,0,1,.882-1.593,2.876,2.876,0,0,1,1.333-2.5a5.046,5.046,0,0,1,.824-.861q.509-.431,1.248-.971A7.887,7.887,0,0,0,4.3-5.065a3.8,3.8,0,0,0,.578-.7,2.5,2.5,0,0,0,.311-.708A3.051,3.051,0,0,0,5.277-7.232ZM9.071.15a.726.726,0,0,1-.537-.226.742.742,0,0,1-.222-.54.754.754,0,0,1,.222-.543.72.72,0,0,1,.537-.229.739.739,0,0,1,.547.229.748.748,0,0,1,.226.543.737.737,0,0,1-.226.54A.745.745,0,0,1,9.071.15Zm8.135-3.145a3.3,3.3,0,0,1-.246,1.3,2.84,2.84,0,0,1-.7,1,3.137,3.137,0,0,1-1.1.643,4.291,4.291,0,0,1-1.429.226,3.947,3.947,0,0,1-2.03-.41V-1.429a3.733,3.733,0,0,0,2.044.643,2.766,2.766,0,0,0,.96-.157,2.134,2.134,0,0,0,.728-.437,1.873,1.873,0,0,0,.461-.677,2.291,2.291,0,0,0,.161-.868,1.86,1.86,0,0,0-.643-1.5,2.818,2.818,0,0,0-1.866-.543q-.2,0-.417.007t-.437.017q-.219.01-.427.024t-.379.034L12.223-9.8h4.532v1.012H13.193L13-5.913q.219-.014.465-.024t.438-.01a4.4,4.4,0,0,1,1.395.205,2.955,2.955,0,0,1,1.042.584,2.451,2.451,0,0,1,.649.93A3.27,3.27,0,0,1,17.206-2.994ZM23.939-9.8v6.474H25.2V-2.3H23.939V0H22.832V-2.3H18.225v-.971q.643-.725,1.3-1.548t1.254-1.671q.6-.848,1.107-1.692A15.463,15.463,0,0,0,22.743-9.8Zm-4.45,6.474h3.343v-4.8q-.513.9-.971,1.6T20.99-5.25q-.414.574-.79,1.039T19.489-3.329ZM35.417-.321A3.643,3.643,0,0,1,33.5.164,3.169,3.169,0,0,1,31.086-.81a3.53,3.53,0,0,1-.919-2.526,3.881,3.881,0,0,1,.991-2.779A3.467,3.467,0,0,1,33.8-7.164a3.682,3.682,0,0,1,1.627.342v1.148a2.85,2.85,0,0,0-1.668-.547A2.254,2.254,0,0,0,32-5.452a2.918,2.918,0,0,0-.687,2.02,2.779,2.779,0,0,0,.646,1.941,2.227,2.227,0,0,0,1.733.711,2.81,2.81,0,0,0,1.723-.608ZM47.052,0H45.931V-4.02A3.032,3.032,0,0,0,45.572-5.7a1.361,1.361,0,0,0-1.207-.52,1.494,1.494,0,0,0-1.22.656,2.511,2.511,0,0,0-.5,1.572V0H41.521V-4.156q0-2.064-1.593-2.064a1.475,1.475,0,0,0-1.217.619,2.557,2.557,0,0,0-.479,1.61V0H37.112V-7h1.121v1.107h.027a2.378,2.378,0,0,1,2.174-1.271,2.027,2.027,0,0,1,1.251.4,2.012,2.012,0,0,1,.731,1.049,2.5,2.5,0,0,1,2.324-1.449q2.311,0,2.311,2.851Z" transform="translate(891.36 5602.956) rotate(-90)" fill="#2b4e6a"/>
    <path id="Trazado_69262" data-name="Trazado 69262" d="M5.277-7.232a2.027,2.027,0,0,0-.14-.786,1.557,1.557,0,0,0-.383-.557,1.568,1.568,0,0,0-.571-.332,2.235,2.235,0,0,0-.711-.109,2.352,2.352,0,0,0-.643.089,3.124,3.124,0,0,0-.612.246,3.764,3.764,0,0,0-.574.376,4.148,4.148,0,0,0-.516.485v-1.2a3.352,3.352,0,0,1,1.056-.7,3.719,3.719,0,0,1,1.425-.243,3.441,3.441,0,0,1,1.114.174,2.555,2.555,0,0,1,.889.509,2.354,2.354,0,0,1,.591.827,2.79,2.79,0,0,1,.215,1.128,3.868,3.868,0,0,1-.133,1.053,3.256,3.256,0,0,1-.4.889,4.288,4.288,0,0,1-.68.8,9.635,9.635,0,0,1-.964.779q-.69.492-1.138.841a5.031,5.031,0,0,0-.711.653,1.894,1.894,0,0,0-.369.608,2.127,2.127,0,0,0-.106.7H6.795V0H.745V-.485A4.045,4.045,0,0,1,.882-1.593,2.876,2.876,0,0,1,1.333-2.5a5.046,5.046,0,0,1,.824-.861q.509-.431,1.248-.971A7.887,7.887,0,0,0,4.3-5.065a3.8,3.8,0,0,0,.578-.7,2.5,2.5,0,0,0,.311-.708A3.051,3.051,0,0,0,5.277-7.232ZM9.071.15a.726.726,0,0,1-.537-.226.742.742,0,0,1-.222-.54.754.754,0,0,1,.222-.543.72.72,0,0,1,.537-.229.739.739,0,0,1,.547.229.748.748,0,0,1,.226.543.737.737,0,0,1-.226.54A.745.745,0,0,1,9.071.15Zm8.135-3.145a3.3,3.3,0,0,1-.246,1.3,2.84,2.84,0,0,1-.7,1,3.137,3.137,0,0,1-1.1.643,4.291,4.291,0,0,1-1.429.226,3.947,3.947,0,0,1-2.03-.41V-1.429a3.733,3.733,0,0,0,2.044.643,2.766,2.766,0,0,0,.96-.157,2.134,2.134,0,0,0,.728-.437,1.873,1.873,0,0,0,.461-.677,2.291,2.291,0,0,0,.161-.868,1.86,1.86,0,0,0-.643-1.5,2.818,2.818,0,0,0-1.866-.543q-.2,0-.417.007t-.437.017q-.219.01-.427.024t-.379.034L12.223-9.8h4.532v1.012H13.193L13-5.913q.219-.014.465-.024t.438-.01a4.4,4.4,0,0,1,1.395.205,2.955,2.955,0,0,1,1.042.584,2.451,2.451,0,0,1,.649.93A3.27,3.27,0,0,1,17.206-2.994ZM23.939-9.8v6.474H25.2V-2.3H23.939V0H22.832V-2.3H18.225v-.971q.643-.725,1.3-1.548t1.254-1.671q.6-.848,1.107-1.692A15.463,15.463,0,0,0,22.743-9.8Zm-4.45,6.474h3.343v-4.8q-.513.9-.971,1.6T20.99-5.25q-.414.574-.79,1.039T19.489-3.329ZM35.417-.321A3.643,3.643,0,0,1,33.5.164,3.169,3.169,0,0,1,31.086-.81a3.53,3.53,0,0,1-.919-2.526,3.881,3.881,0,0,1,.991-2.779A3.467,3.467,0,0,1,33.8-7.164a3.682,3.682,0,0,1,1.627.342v1.148a2.85,2.85,0,0,0-1.668-.547A2.254,2.254,0,0,0,32-5.452a2.918,2.918,0,0,0-.687,2.02,2.779,2.779,0,0,0,.646,1.941,2.227,2.227,0,0,0,1.733.711,2.81,2.81,0,0,0,1.723-.608ZM47.052,0H45.931V-4.02A3.032,3.032,0,0,0,45.572-5.7a1.361,1.361,0,0,0-1.207-.52,1.494,1.494,0,0,0-1.22.656,2.511,2.511,0,0,0-.5,1.572V0H41.521V-4.156q0-2.064-1.593-2.064a1.475,1.475,0,0,0-1.217.619,2.557,2.557,0,0,0-.479,1.61V0H37.112V-7h1.121v1.107h.027a2.378,2.378,0,0,1,2.174-1.271,2.027,2.027,0,0,1,1.251.4,2.012,2.012,0,0,1,.731,1.049,2.5,2.5,0,0,1,2.324-1.449q2.311,0,2.311,2.851Z" transform="translate(1292.824 5602.956) rotate(-90)" fill="#2b4e6a"/>
  </g>
</svg>
