<svg xmlns="http://www.w3.org/2000/svg" width="374.522" height="376.861" viewBox="0 0 374.522 376.861">
  <g id="Grupo_29522" data-name="Grupo 29522" transform="translate(-379.609 -122.701)">
    <path id="Trazado_68596" data-name="Trazado 68596" d="M1171.323,467.779H1028.794c-36.557,2.433-36.4,42.7-36.4,42.7h0V702.922h142.707V510.483S1135.781,470.076,1171.323,467.779Z" transform="translate(-480.871 -270.791)" fill="#ded4ce"/>
    <g id="Grupo_28775" data-name="Grupo 28775" transform="translate(501.544 242.125)">
      <rect id="Rectángulo_26427" data-name="Rectángulo 26427" width="1.722" height="148.113" transform="translate(0 0)" fill="#3487ad"/>
    </g>
    <g id="Grupo_28776" data-name="Grupo 28776" transform="translate(579.024 126.146)">
      <path id="Trazado_68597" data-name="Trazado 68597" d="M1393.065,187h-87.131V138.7h87.131Zm-85.409-1.722h83.686V140.423h-83.686Z" transform="translate(-1305.934 -138.701)" fill="#3487ad"/>
    </g>
    <g id="Grupo_28777" data-name="Grupo 28777" transform="translate(416.136 164.009)">
      <path id="Trazado_68598" data-name="Trazado 68598" d="M636.416,375.316h-87.13V314.583h87.13Zm-85.408-1.722h83.686V316.305H551.008Z" transform="translate(-549.286 -314.583)" fill="#3487ad"/>
    </g>
    <g id="Grupo_28778" data-name="Grupo 28778" transform="translate(662.811 272.976)">
      <path id="Trazado_68599" data-name="Trazado 68599" d="M1782.271,869.24h-87.13V820.76h87.13Zm-85.408-1.722h83.686V822.482h-83.686Z" transform="translate(-1695.141 -820.76)" fill="#3487ad"/>
    </g>
    <path id="Trazado_68600" data-name="Trazado 68600" d="M1144.852,455.642c-35.542,2.3-36.217,42.7-36.217,42.7V690.785H965.927V498.346s-.162-40.272,36.4-42.7Z" transform="translate(-460.098 -261.267)" fill="#fff9f5"/>
    <rect id="Rectángulo_26428" data-name="Rectángulo 26428" width="98.021" height="8.649" transform="translate(524.568 244.647)" fill="#e3e2e0"/>
    <rect id="Rectángulo_26429" data-name="Rectángulo 26429" width="83.696" height="6.126" transform="translate(524.568 264.648)" fill="#e3e2e0"/>
    <rect id="Rectángulo_26430" data-name="Rectángulo 26430" width="42.073" height="9.099" transform="translate(524.568 280.82)" fill="#e3e2e0"/>
    <rect id="Rectángulo_26431" data-name="Rectángulo 26431" width="43.515" height="9.099" transform="translate(579.074 280.82)" fill="#e3e2e0"/>
    <rect id="Rectángulo_26432" data-name="Rectángulo 26432" width="67.029" height="6.487" transform="translate(524.568 298.343)" fill="#e3e2e0"/>
    <rect id="Rectángulo_26433" data-name="Rectángulo 26433" width="75.52" height="3.604" transform="translate(524.568 314.559)" fill="#e3e2e0"/>
    <rect id="Rectángulo_26434" data-name="Rectángulo 26434" width="90.814" height="3.604" transform="translate(524.568 330.776)" fill="#e3e2e0"/>
    <g id="Grupo_28779" data-name="Grupo 28779" transform="translate(524.245 346.67)">
      <path id="Trazado_68601" data-name="Trazado 68601" d="M1094.2,1183.548h-42.719v-20.466H1094.2Zm-42.073-.646h41.427v-19.175h-41.427Z" transform="translate(-1051.476 -1163.082)" fill="#e3e2e0"/>
    </g>
    <rect id="Rectángulo_26435" data-name="Rectángulo 26435" width="38.2" height="4.685" transform="translate(577.182 346.993)" fill="#e3e2e0"/>
    <rect id="Rectángulo_26436" data-name="Rectángulo 26436" width="27.075" height="4.685" transform="translate(577.182 356.903)" fill="#e3e2e0"/>
    <rect id="Rectángulo_26437" data-name="Rectángulo 26437" width="81.669" height="3.604" transform="translate(524.568 379.426)" fill="#e3e2e0"/>
    <rect id="Rectángulo_26438" data-name="Rectángulo 26438" width="43.019" height="3.604" transform="translate(524.568 395.643)" fill="#e3e2e0"/>
    <g id="Grupo_28786" data-name="Grupo 28786" transform="translate(672.982 283.207)">
      <g id="Grupo_28784" data-name="Grupo 28784" transform="translate(7.925 10.934)">
        <g id="Grupo_28783" data-name="Grupo 28783">
          <g id="Grupo_28782" data-name="Grupo 28782">
            <g id="Grupo_28781" data-name="Grupo 28781">
              <g id="Grupo_28780" data-name="Grupo 28780">
                <path id="Trazado_68602" data-name="Trazado 68602" d="M1783.589,927.79l-4.209-6.891a1.2,1.2,0,1,1,2.046-1.25l2.976,4.873,7.912-4.683a1.2,1.2,0,0,1,1.221,2.063Z" transform="translate(-1779.205 -919.076)" fill="#3487ad"/>
              </g>
            </g>
          </g>
        </g>
      </g>
      <g id="Grupo_28785" data-name="Grupo 28785">
        <path id="Trazado_68603" data-name="Trazado 68603" d="M1757.526,898.555a15.136,15.136,0,1,1,15.135-15.136A15.153,15.153,0,0,1,1757.526,898.555Zm0-28.109A12.973,12.973,0,1,0,1770.5,883.42,12.988,12.988,0,0,0,1757.526,870.446Z" transform="translate(-1742.39 -868.284)" fill="#3487ad"/>
      </g>
    </g>
    <rect id="Rectángulo_26439" data-name="Rectángulo 26439" width="69.011" height="4.865" transform="translate(425.872 181.314)" fill="#ded4ce"/>
    <rect id="Rectángulo_26440" data-name="Rectángulo 26440" width="69.011" height="4.865" transform="translate(425.872 211.283)" fill="#ded4ce"/>
    <rect id="Rectángulo_26441" data-name="Rectángulo 26441" width="54.241" height="4.865" transform="translate(425.872 191.943)" fill="#ded4ce"/>
    <rect id="Rectángulo_26442" data-name="Rectángulo 26442" width="54.241" height="4.865" transform="translate(425.872 170.291)" fill="#ded4ce"/>
    <rect id="Rectángulo_26443" data-name="Rectángulo 26443" width="60.862" height="4.865" transform="translate(425.872 202.571)" fill="#ded4ce"/>
    <rect id="Rectángulo_26444" data-name="Rectángulo 26444" width="24.43" height="4.865" transform="translate(709.529 289.47)" fill="#ded4ce"/>
    <rect id="Rectángulo_26445" data-name="Rectángulo 26445" width="27.412" height="4.865" transform="translate(709.529 300.098)" fill="#ded4ce"/>
    <rect id="Rectángulo_26446" data-name="Rectángulo 26446" width="70.092" height="4.865" transform="translate(586.732 137.235)" fill="#ded4ce"/>
    <rect id="Rectángulo_26447" data-name="Rectángulo 26447" width="55.091" height="4.865" transform="translate(586.732 147.863)" fill="#ded4ce"/>
    <rect id="Rectángulo_26448" data-name="Rectángulo 26448" width="61.816" height="4.865" transform="translate(586.732 158.492)" fill="#ded4ce"/>
    <g id="Grupo_28787" data-name="Grupo 28787" transform="translate(659.167 322.488)">
      <path id="Trazado_68604" data-name="Trazado 68604" d="M1704.663,1081.882h-26.447v-1.722h24.725v-29.41h1.722Z" transform="translate(-1678.216 -1050.75)" fill="#3487ad"/>
    </g>
    <g id="Grupo_28788" data-name="Grupo 28788" transform="translate(557.222 176.897)">
      <path id="Trazado_68605" data-name="Trazado 68605" d="M1206.38,389.046h-1.722v-8.6h57.3v-5.988h1.722v7.711h-57.3Z" transform="translate(-1204.658 -374.453)" fill="#3487ad"/>
    </g>
    <g id="Grupo_28789" data-name="Grupo 28789" transform="translate(464.786 227.71)">
      <path id="Trazado_68606" data-name="Trazado 68606" d="M805.372,675.362h-30.1V610.487H777V673.64h28.374Z" transform="translate(-775.276 -610.487)" fill="#3487ad"/>
    </g>
    <g id="Grupo_28790" data-name="Grupo 28790" transform="translate(657.465 203.212)">
      <path id="Trazado_68607" data-name="Trazado 68607" d="M1672.066,559.7h-1.722v-19.6c-.023-.323-2.114-37.943,29.635-43.417l.292,1.7c-30.239,5.214-28.231,41.3-28.207,41.664Z" transform="translate(-1670.308 -496.689)" fill="#3487ad"/>
    </g>
    <g id="Grupo_28791" data-name="Grupo 28791" transform="translate(716.782 268.966)">
      <path id="Trazado_68608" data-name="Trazado 68608" d="M1983.194,837.047h-1.722V803.853h-35.626v-1.722h37.349Z" transform="translate(-1945.846 -802.131)" fill="#3487ad"/>
    </g>
    <g id="Grupo_28792" data-name="Grupo 28792" transform="translate(411.496 197.744)">
      <path id="Trazado_68609" data-name="Trazado 68609" d="M561.634,503.235h-33.9V471.292h1.722v30.221h32.179Z" transform="translate(-527.733 -471.292)" fill="#3487ad"/>
    </g>
    <g id="Grupo_28793" data-name="Grupo 28793" transform="translate(575.091 122.701)">
      <path id="Trazado_68610" data-name="Trazado 68610" d="M1289.386,147.863h-1.722V122.7h42.062v1.722h-40.34Z" transform="translate(-1287.664 -122.701)" fill="#3487ad"/>
    </g>
    <g id="Grupo_28794" data-name="Grupo 28794" transform="translate(629.166 389.403)">
      <path id="Trazado_68611" data-name="Trazado 68611" d="M1569.716,1410.016h-30.863v-1.722h29.14v-46.708h1.722Z" transform="translate(-1538.854 -1361.586)" fill="#3487ad"/>
    </g>
    <g id="Grupo_28812" data-name="Grupo 28812" transform="translate(619.704 344.346)">
      <g id="Grupo_28795" data-name="Grupo 28795" transform="translate(54.161 117.488)">
        <path id="Trazado_68612" data-name="Trazado 68612" d="M1754.1,1698.421a9.959,9.959,0,0,1-4.093,2.58c-2.062.447-3.5,1.017-3.52,2.241s5.934,2.03,8.294.8c3.522-1.842,3.88-1.286,4.27-2.207s-.469-3.382-.444-3.675C1758.643,1697.794,1754.1,1698.421,1754.1,1698.421Z" transform="translate(-1746.491 -1698.043)" fill="#202338"/>
      </g>
      <g id="Grupo_28796" data-name="Grupo 28796" transform="translate(61.77 116.244)">
        <path id="Trazado_68613" data-name="Trazado 68613" d="M1782.069,1692.864a8.393,8.393,0,0,0-.229,1.021c.04.021,4.647.537,4.507-.265-.113-.65-.274-1.357-.274-1.357Z" transform="translate(-1781.836 -1692.263)" fill="#2f6b8c"/>
      </g>
      <g id="Grupo_28797" data-name="Grupo 28797" transform="translate(77.88 118.272)">
        <path id="Trazado_68614" data-name="Trazado 68614" d="M1863.507,1701.834a7.2,7.2,0,0,1-3.493,2.557c-1.97.472-3.248,1.372-3.344,2.561s4.646,2.747,7.978.658c2.189-1.373,3.006-1.295,3.447-2.167s-.231-3.317-.187-3.6C1867.964,1701.492,1863.507,1701.834,1863.507,1701.834Z" transform="translate(-1856.669 -1701.684)" fill="#202338"/>
      </g>
      <g id="Grupo_28798" data-name="Grupo 28798" transform="translate(84.709 117.019)">
        <path id="Trazado_68615" data-name="Trazado 68615" d="M1888.464,1696.239a9.132,9.132,0,0,0-.061,1.027c.037.023,4.428.8,4.4.008a6.116,6.116,0,0,0-.278-1.411Z" transform="translate(-1888.395 -1695.863)" fill="#2f6b8c"/>
      </g>
      <g id="Grupo_28799" data-name="Grupo 28799" transform="translate(61.578 52.403)">
        <path id="Trazado_68616" data-name="Trazado 68616" d="M1786.017,1400.146s-2.133,15.5-3,20.735c-1.018,6.125-1.364,11.186-1.648,14.356-.357,3.988-.159,24.394-.409,25.56s5.045.56,5.045.56,3.883-26.6,4.947-30.849c.991-3.954,3.717-20.256,4.621-19.176s3.833,19.649,4.5,22.768,3.374,27.668,3.374,27.668,4.5.977,5.728,0c0,0-.274-21.891-.7-27.738-.163-2.228,1.41-26.675-2.358-36.534C1804.122,1392.286,1786.017,1400.146,1786.017,1400.146Z" transform="translate(-1780.946 -1395.712)" fill="#323657"/>
      </g>
      <path id="Trazado_68617" data-name="Trazado 68617" d="M1802.764,1419.744l-.241,2.327s6.5,2.633,22.323,2.635v-2.662Z" transform="translate(-1736.3 -1362.167)" fill="#faa146"/>
      <g id="Grupo_28802" data-name="Grupo 28802" transform="translate(40.451 28.295)">
        <g id="Grupo_28801" data-name="Grupo 28801">
          <g id="Grupo_28800" data-name="Grupo 28800">
            <path id="Trazado_68618" data-name="Trazado 68618" d="M1690.593,1283.724s-.947,2.09-1.508,2.22-1.229.828-1.71,1.043-2,.332-2.4.729a15.234,15.234,0,0,1-1.174,1.849c-.372.293-1.2.8-.942,1.109s1.115.066,1.115.066a.614.614,0,0,0-.184.634c.271.674.724.7.724.7s-.144.507.039.758a1.216,1.216,0,0,0,.844.569,1.159,1.159,0,0,0,.39.7,1.034,1.034,0,0,0,1.006.166s.451.621.866.5a3.725,3.725,0,0,0,.953-.615,14.17,14.17,0,0,0,3.128-4.8,17.1,17.1,0,0,1,2.087-4.047Z" transform="translate(-1682.808 -1283.724)" fill="#eea886"/>
          </g>
        </g>
      </g>
      <g id="Grupo_28803" data-name="Grupo 28803" transform="translate(48.666 20.994)">
        <path id="Trazado_68619" data-name="Trazado 68619" d="M1720.966,1267.677s7.355,3.346,9.968,2.7c1.208-.3,2.8-1.965,4.312-3.925.5-.646.988-1.324,1.453-1.994a0,0,0,0,0,0,0c1.855-2.678,3.309-5.246,3.309-5.246s5.484-6.426,1.083-9.291a2.926,2.926,0,0,0-3.063.974,28.155,28.155,0,0,0-3.574,5.7c-.385.837-5.771,8.607-6.05,8.782s-2.633-.444-4.52-.6c-3.077-.257-2.466-.387-2.466-.387Z" transform="translate(-1720.966 -1249.807)" fill="#f08d29"/>
      </g>
      <path id="Trazado_68620" data-name="Trazado 68620" d="M1802.932,1242.981s-5.645,1.167-6.315,1.76c-.727.631-2.01,6.814-2.086,8.537a66.476,66.476,0,0,0,1.408,11.6c.727,2.679-.958,14.083.391,15.963,0,0,11.635,3.732,22.811,2.278,0,0-2.4-10.763-1.952-14.434.573-4.7,1.952-15.539,1.952-15.539s-1.493-7.3-2.488-8.138-7.913-2.212-7.913-2.212Z" transform="translate(-1730.024 -1223.309)" fill="#f08d29"/>
      <path id="Trazado_68621" data-name="Trazado 68621" d="M1891.969,1312.064s1.066,6.938.991,7.383S1897.787,1318.053,1891.969,1312.064Z" transform="translate(-1806.49 -1277.668)" fill="#b86c1f"/>
      <g id="Grupo_28804" data-name="Grupo 28804" transform="translate(0 0.731)">
        <path id="Trazado_68622" data-name="Trazado 68622" d="M1941.764,1416.792l4.9-8.139a2.915,2.915,0,0,0-.993-4l-12.288-7.4a2.915,2.915,0,0,0-4,.993l-4.9,8.139a2.915,2.915,0,0,0,.993,4l12.288,7.4A2.915,2.915,0,0,0,1941.764,1416.792Z" transform="translate(-1831.675 -1344.916)" fill="#c4b4af"/>
        <rect id="Rectángulo_26449" data-name="Rectángulo 26449" width="16.432" height="97.95" transform="translate(107.832 55.378) rotate(121.07)" fill="#7acff7"/>
        <rect id="Rectángulo_26450" data-name="Rectángulo 26450" width="5.477" height="97.95" transform="translate(21.107 9.52) rotate(-58.931)" fill="#a3e0fc"/>
        <rect id="Rectángulo_26451" data-name="Rectángulo 26451" width="5.477" height="97.95" transform="translate(105.006 60.069) rotate(121.069)" fill="#6fb9db"/>
        <rect id="Rectángulo_26452" data-name="Rectángulo 26452" width="5.477" height="97.95" transform="matrix(-0.516, 0.857, -0.857, -0.516, 102.178, 64.761)" fill="#3487ad"/>
        <path id="Trazado_68623" data-name="Trazado 68623" d="M1510.356,1174.586l8.48-14.074-19.038-3.84-4.9-.988,3.161,3.867Z" transform="translate(-1494.902 -1155.684)" fill="#eddad3"/>
        <path id="Trazado_68624" data-name="Trazado 68624" d="M1592.948,1182.8a2.74,2.74,0,0,0,2.827-4.692Z" transform="translate(-1571.841 -1173.282)" fill="#deccc6"/>
        <path id="Trazado_68625" data-name="Trazado 68625" d="M1579.817,1204.594a2.74,2.74,0,0,0,2.827-4.692Z" transform="translate(-1561.537 -1190.383)" fill="#e3d1ca"/>
        <path id="Trazado_68626" data-name="Trazado 68626" d="M1566.687,1226.388a2.74,2.74,0,0,0,2.827-4.692Z" transform="translate(-1551.234 -1207.485)" fill="#eddad3"/>
        <rect id="Rectángulo_26453" data-name="Rectángulo 26453" width="5.478" height="6.019" transform="matrix(0.516, -0.857, 0.857, 0.516, 102.735, 58.701)" fill="#b39696"/>
        <rect id="Rectángulo_26454" data-name="Rectángulo 26454" width="5.477" height="6.019" transform="translate(107.891 61.807) rotate(121.07)" fill="#dbb8b8"/>
        <rect id="Rectángulo_26455" data-name="Rectángulo 26455" width="5.477" height="6.019" transform="translate(105.064 66.499) rotate(121.067)" fill="#f2cbcb"/>
        <path id="Trazado_68627" data-name="Trazado 68627" d="M1516.01,1165.2l-21.107-9.519,23.934,4.828Z" transform="translate(-1494.902 -1155.684)" fill="#deccc6"/>
        <path id="Trazado_68628" data-name="Trazado 68628" d="M1513.183,1169.895l-18.28-14.211,21.107,9.519Z" transform="translate(-1494.902 -1155.684)" fill="#e3d1ca"/>
        <path id="Trazado_68629" data-name="Trazado 68629" d="M1513.183,1169.895l-18.28-14.211,15.453,18.9Z" transform="translate(-1494.902 -1155.684)" fill="#eddad3"/>
        <path id="Trazado_68630" data-name="Trazado 68630" d="M1498.064,1159.55l1.734-2.879-4.9-.988Z" transform="translate(-1494.902 -1155.684)" fill="#3487ad"/>
      </g>
      <g id="Grupo_28809" data-name="Grupo 28809" transform="translate(71.418 51.206)">
        <g id="Grupo_28808" data-name="Grupo 28808">
          <g id="Grupo_28807" data-name="Grupo 28807">
            <g id="Grupo_28806" data-name="Grupo 28806">
              <g id="Grupo_28805" data-name="Grupo 28805">
                <path id="Trazado_68631" data-name="Trazado 68631" d="M1829.15,1396.659a2.381,2.381,0,0,0,.74-.175s.38-.268.661-.442a2.248,2.248,0,0,1,.223-.125,4.347,4.347,0,0,0,1.23-.655,29.165,29.165,0,0,0,2.085-2.635l-.963-1.213-.739-1.265a29.4,29.4,0,0,0-4.233.9,1.524,1.524,0,0,0-.133.1,5.542,5.542,0,0,0-.725.887c-.067.069-.687.794-.638,1.075a.933.933,0,0,0,.521.742,2.226,2.226,0,0,0,.576,1.082,1.385,1.385,0,0,0,.755.962S1828.722,1396.593,1829.15,1396.659Z" transform="translate(-1826.654 -1390.149)" fill="#eea886"/>
              </g>
            </g>
          </g>
        </g>
      </g>
      <path id="Trazado_68632" data-name="Trazado 68632" d="M1858.326,1251.316c-.74.287-1.525,2.078-.942,5.59a15.143,15.143,0,0,0,2.37,6.259c.5.881,3.251,6.311,2.757,7.025s-5.164,5.322-5.435,5.7-5.484,5.095-5.484,5.095l2.655,3.71s11.259-8.795,12.137-9.672,3.5-2.723,2.533-5.79c-.987-3.117-2.761-10.415-3.076-10.986S1863.22,1249.421,1858.326,1251.316Z" transform="translate(-1774.805 -1229.776)" fill="#f08d29"/>
      <g id="Grupo_28811" data-name="Grupo 28811" transform="translate(41.339 33.059)">
        <g id="Grupo_28810" data-name="Grupo 28810">
          <path id="Trazado_68633" data-name="Trazado 68633" d="M1687.322,1307.827s1.805-2.011,2.705-1.974.288.8.288.8.593-.763,1.234-.36-.122,1.257-.122,1.257a.744.744,0,0,1,1.076.175c.475.634-.314,1.2-.314,1.2s1.192-.177.938.8a4.2,4.2,0,0,1-2.2,2.429s-.507.2-.922-.444a1.054,1.054,0,0,1-1.43-.871s-1.345-.311-.933-1.353A.935.935,0,0,1,1687.322,1307.827Z" transform="translate(-1686.931 -1305.853)" fill="#eea886"/>
        </g>
      </g>
      <path id="Trazado_68634" data-name="Trazado 68634" d="M1821.688,1239.143s-.339-1.544,4.5-1.9,8.1.728,8.2,2.115-12.246,4.85-12.246,4.85Z" transform="translate(-1751.335 -1218.898)" fill="#faa146"/>
      <path id="Trazado_68635" data-name="Trazado 68635" d="M1821.141,1161.411s-6.79-2.513-6.366,6.511,2.016,9.941,6.483,8.681,4.841-6.956,5.423-9.7S1823.362,1161.805,1821.141,1161.411Z" transform="translate(-1745.899 -1159.195)" fill="#eea886"/>
      <path id="Trazado_68636" data-name="Trazado 68636" d="M1828.383,1215.719s1.627.717,6.926-1.617a23.987,23.987,0,0,1,.89-7.026c1.039-3.393-7.111,4.524-7.111,4.524.085.06.1.4.053.872a9.62,9.62,0,0,1-.261,1.4C1828.582,1215.009,1828.651,1214.807,1828.383,1215.719Z" transform="translate(-1756.593 -1194.618)" fill="#eea886"/>
      <path id="Trazado_68637" data-name="Trazado 68637" d="M1825.066,1164.476s.019-2.411-.983-2.632-1.519,1.172-1.519,1.172l-.807-.043s.721-2.443-.234-3-6.673-.068-7.391-.891.323-5.707,1.883-6.187,5.821-1.452,8.527.958c0,0,2.324,1,2.418,2.92A20.558,20.558,0,0,1,1825.066,1164.476Z" transform="translate(-1745.228 -1152.288)" fill="#163342"/>
      <path id="Trazado_68638" data-name="Trazado 68638" d="M1830.691,1227.432c5.263-.885,6.05-3.878,6.062-3.925-2.046,2.638-5.8,2.523-5.8,2.523A9.672,9.672,0,0,1,1830.691,1227.432Z" transform="translate(-1758.404 -1208.175)" fill="#b07c63"/>
      <path id="Trazado_68639" data-name="Trazado 68639" d="M1853.831,1190.07c.3-.8,1.994-.7,1.82.566s-1.573,3.2-2.135,2.838S1853.418,1191.167,1853.831,1190.07Z" transform="translate(-1776.111 -1181.538)" fill="#eea886"/>
    </g>
    <g id="Grupo_28813" data-name="Grupo 28813" transform="translate(609.496 378.244)">
      <path id="Trazado_68640" data-name="Trazado 68640" d="M1474.435,1336.7h-26.954V1309.75h26.954Zm-24.371-2.583h21.787v-21.787h-21.787Z" transform="translate(-1447.481 -1309.75)" fill="#e3e2e0"/>
    </g>
    <g id="Grupo_28814" data-name="Grupo 28814" transform="translate(613.905 379.565)">
      <path id="Trazado_68641" data-name="Trazado 68641" d="M1477.452,1333.74l-9.487-8.944,2.953-3.133,6.73,6.344,14.752-12.121,2.733,3.327Z" transform="translate(-1467.965 -1315.886)" fill="#e3e2e0"/>
    </g>
    <path id="Trazado_68642" data-name="Trazado 68642" d="M1074.92,944.005a72.663,72.663,0,0,0-108.993-19.563V941.1a60.711,60.711,0,0,1,106.858,37.071c.027.752.043,1.5.043,2.249a60.7,60.7,0,0,1-106.9,39.417v16.671a71.8,71.8,0,0,0,14.179,9.136h64.051c1.5-.735,2.973-1.53,4.438-2.378A72.611,72.611,0,0,0,1074.92,944.005Z" transform="translate(-460.098 -616.123)" fill="#3f444f" opacity="0.24" style="mix-blend-mode: hard-light;isolation: isolate"/>
    <g id="Grupo_28815" data-name="Grupo 28815" transform="translate(379.609 291.724)">
      <rect id="Rectángulo_26456" data-name="Rectángulo 26456" width="117.35" height="19.951" transform="matrix(-0.768, 0.64, -0.64, -0.768, 102.921, 132.71)" fill="#3487ad"/>
      <rect id="Rectángulo_26457" data-name="Rectángulo 26457" width="6.268" height="15.143" transform="matrix(-0.768, 0.64, -0.64, -0.768, 106.197, 126.85)" fill="#ffd354"/>
      <path id="Trazado_68643" data-name="Trazado 68643" d="M765.74,1016.935a72.612,72.612,0,1,0,26.328-99.257A72.612,72.612,0,0,0,765.74,1016.935Zm10.311-5.988a60.688,60.688,0,1,1,113.138-32.78h0a60.7,60.7,0,0,1-113.137,32.779Z" transform="translate(-674.9 -907.846)" fill="#494f5c"/>
      <path id="Trazado_68644" data-name="Trazado 68644" d="M824.485,1005.632S887.69,957.64,943,1021.639h0a60.7,60.7,0,0,0-118.518-16Z" transform="translate(-728.714 -951.317)" fill="#c2c2c2" opacity="0.3"/>
    </g>
    <g id="Grupo_28848" data-name="Grupo 28848" transform="translate(520.371 239.226)">
      <g id="Grupo_28816" data-name="Grupo 28816" transform="translate(33.977 14.409)">
        <path id="Trazado_68645" data-name="Trazado 68645" d="M1193.149,741.969a27.821,27.821,0,0,0,1.013-4.339c-.147-.415-2.878-3.065-2.854-3.385s3.654-2.56,4.026-3.2,1.044,1.23,1.175,2.847.392,4.189.387,4.536-.85,4.757-.85,4.757Z" transform="translate(-1191.308 -730.918)" fill="#de9d7d"/>
      </g>
      <g id="Grupo_28817" data-name="Grupo 28817" transform="translate(25.303 25.025)">
        <path id="Trazado_68646" data-name="Trazado 68646" d="M1151.018,786.736s.068.408.17,1.018h0c.063.379.14.836.222,1.322.255,1.514.561,3.315.677,3.936a15.763,15.763,0,0,0,1.833,5.034,2.9,2.9,0,0,0,1.849.807c.573.052,2.083.636,3.851-2.157s4.577-12.617,4.726-13.151.578-2.032.578-2.032l-3.636-1.286s-2.612,7.092-2.981,8.07c-.281.742-1.917,3.72-2,3.811s-.288-8.131-.288-8.131Z" transform="translate(-1151.018 -780.23)" fill="#e55353"/>
      </g>
      <g id="Grupo_28819" data-name="Grupo 28819" transform="translate(36.88 82.694)">
        <g id="Grupo_28818" data-name="Grupo 28818">
          <path id="Trazado_68647" data-name="Trazado 68647" d="M1209.238,1050.35s2.683,4.547,3.815,5.29c1.538,1.008.574,2.028-.156,2.029s-4.459.268-5.281-.665-1.229-3.727-1.994-4.458-1.553-3.636.372-4.342C1207.7,1047.58,1209.238,1050.35,1209.238,1050.35Z" transform="translate(-1204.795 -1048.112)" fill="#323657"/>
        </g>
      </g>
      <g id="Grupo_28821" data-name="Grupo 28821" transform="translate(37.951 82.785)">
        <g id="Grupo_28820" data-name="Grupo 28820">
          <path id="Trazado_68648" data-name="Trazado 68648" d="M1211.982,1048.684s3.072,5.326,3.6,6.113-1,.786-1.943.412-3.325-4.194-3.667-4.889a2.565,2.565,0,0,1-.073-1.781Z" transform="translate(-1209.771 -1048.538)" fill="#eea886"/>
        </g>
      </g>
      <g id="Grupo_28823" data-name="Grupo 28823" transform="translate(37.049 85.797)">
        <g id="Grupo_28822" data-name="Grupo 28822">
          <path id="Trazado_68649" data-name="Trazado 68649" d="M1205.581,1062.526l.709,5.46.376.016-.117-3.927Z" transform="translate(-1205.581 -1062.526)" fill="#323657"/>
        </g>
      </g>
      <g id="Grupo_28825" data-name="Grupo 28825" transform="translate(10.266 82.711)">
        <g id="Grupo_28824" data-name="Grupo 28824">
          <path id="Trazado_68650" data-name="Trazado 68650" d="M1085.622,1050.412s2.683,4.547,3.815,5.29c1.537,1.008.574,2.028-.156,2.029s-4.459.268-5.281-.665-1.229-3.727-1.994-4.458-1.58-3.711.372-4.342C1084.091,1047.712,1085.622,1050.412,1085.622,1050.412Z" transform="translate(-1081.168 -1048.191)" fill="#323657"/>
        </g>
      </g>
      <g id="Grupo_28827" data-name="Grupo 28827" transform="translate(11.348 82.785)">
        <g id="Grupo_28826" data-name="Grupo 28826">
          <path id="Trazado_68651" data-name="Trazado 68651" d="M1088.565,1048.695s2.911,5.315,3.441,6.1-1,.786-1.943.412-3.325-4.194-3.667-4.889a2.566,2.566,0,0,1-.073-1.781Z" transform="translate(-1086.193 -1048.538)" fill="#eea886"/>
        </g>
      </g>
      <g id="Grupo_28829" data-name="Grupo 28829" transform="translate(10.446 85.797)">
        <g id="Grupo_28828" data-name="Grupo 28828">
          <path id="Trazado_68652" data-name="Trazado 68652" d="M1082,1062.526l.709,5.46.376.016-.117-3.927Z" transform="translate(-1082.003 -1062.526)" fill="#323657"/>
        </g>
      </g>
      <g id="Grupo_28831" data-name="Grupo 28831" transform="translate(2.817 39.756)">
        <g id="Grupo_28830" data-name="Grupo 28830">
          <path id="Trazado_68653" data-name="Trazado 68653" d="M1046.567,852.443l24.277,11.062a4.634,4.634,0,0,1,1.231.686h0a4.765,4.765,0,0,1,.745.706,4.482,4.482,0,0,1,1.039,2.5c.948,9.391,7.973,24.291,7.973,24.291,2.254,1.1,2.082.145,2.082.145-1.421-4.56-3.15-23.353-3.767-30.908-.13-1.6-.211-2.7-.229-3.047-.012-.239-.272-.55-.722-.915-3.331-2.7-17.039-8.294-17.039-8.294C1051.863,848.407,1046.567,852.443,1046.567,852.443Z" transform="translate(-1046.567 -848.656)" fill="#eea886"/>
        </g>
      </g>
      <g id="Grupo_28833" data-name="Grupo 28833" transform="translate(0.914 38.087)">
        <g id="Grupo_28832" data-name="Grupo 28832">
          <path id="Trazado_68654" data-name="Trazado 68654" d="M1037.843,850.16c.752,6.562,7.327,6.763,7.327,6.763h11.353a70.823,70.823,0,0,0-4.133,12.232c-1.222,5.94-4.1,16.449-4.1,16.449s.188.357,2.242.157c0,0,8.911-17.762,12.323-22.227a30.151,30.151,0,0,0,3.2-9.287c.122-1.047.047-1.856-.344-2.184a28.351,28.351,0,0,0-2.506-1.713c-3.556-2.242-9.731-5.694-13.172-6.468a94.276,94.276,0,0,1-9.906-2.977S1037.092,843.6,1037.843,850.16Z" transform="translate(-1037.723 -840.906)" fill="#eea886"/>
        </g>
      </g>
      <g id="Grupo_28834" data-name="Grupo 28834" transform="translate(0 38.481)">
        <path id="Trazado_68655" data-name="Trazado 68655" d="M1052.008,858.36H1041.84s-7.4.193-8.26-6.355a12.29,12.29,0,0,1,2.717-9.267s3.453.924,7.774,1.967a33.466,33.466,0,0,1,7.814-.681s12.9,2.6,17.677,8.963C1069.562,852.986,1061.986,849.164,1052.008,858.36Z" transform="translate(-1033.479 -842.737)" fill="#323657"/>
      </g>
      <g id="Grupo_28835" data-name="Grupo 28835" transform="translate(29.453 3.497)">
        <path id="Trazado_68656" data-name="Trazado 68656" d="M1170.357,687.8c-.038.737-.052,1.476-.062,2.19,0,.221.005.443.024.663a6.843,6.843,0,0,0,1.316,3.533h0a4.256,4.256,0,0,0,4.487,1.743c3.393-.806,5.651-11.817,5.651-11.817-.927-4.309-6.673-4.56-8.977-3.018C1170.978,682.309,1170.5,685.035,1170.357,687.8Z" transform="translate(-1170.295 -680.228)" fill="#eea886"/>
      </g>
      <g id="Grupo_28836" data-name="Grupo 28836" transform="translate(2.268 13.093)">
        <path id="Trazado_68657" data-name="Trazado 68657" d="M1044.014,750.51s.1,1.26,9.72,2.78c.262.041.513.082.755.122.887.146,1.64.282,2.285.4,4.561.838,3.64.816,5.536-2.365.26-.436,2.011-4.551,2.67-4.939a10.193,10.193,0,0,0,2.406-2.49c.512-.8,2.449-.286,4.258-1.869s1.059-3.863,1.169-5.705a21.786,21.786,0,0,0-1.032-6.92c-5.067-9.492-12.449-1.962-13.8-.6s-5.921,12.6-7.172,14.021C1046.37,748,1044.014,750.51,1044.014,750.51Z" transform="translate(-1044.014 -724.804)" fill="#e55353"/>
      </g>
      <g id="Grupo_28837" data-name="Grupo 28837" transform="translate(24.877 13.225)">
        <path id="Trazado_68658" data-name="Trazado 68658" d="M1149.04,725.783s.751,9.242,2.957,10.285c2.269,1.073,1.474-8.015,1.474-8.015S1151.606,724.237,1149.04,725.783Z" transform="translate(-1149.04 -725.414)" fill="#eea886"/>
      </g>
      <g id="Grupo_28838" data-name="Grupo 28838" transform="translate(37.816 1.817)">
        <path id="Trazado_68659" data-name="Trazado 68659" d="M1209.613,678.659s1.169,3.811.959,5.313a11.012,11.012,0,0,0,1.831-3.934c.3-1.869,1.2-4.892-1.608-7.2S1209.613,678.659,1209.613,678.659Z" transform="translate(-1209.144 -672.422)" fill="#163342"/>
      </g>
      <g id="Grupo_28839" data-name="Grupo 28839" transform="translate(26.828 9.758)">
        <path id="Trazado_68660" data-name="Trazado 68660" d="M1158.1,715.87c.009,2.28,2.435,3.564,2.619,2.48a2.473,2.473,0,0,1,.514-.635h0c.084-.086.157-.16.2-.2a3.035,3.035,0,0,1,.635-.507,10.949,10.949,0,0,1,2.237-.978l-2.453-6.716s-.462.526-1.062,1.308C1159.677,712.065,1158.094,714.388,1158.1,715.87Z" transform="translate(-1158.1 -709.309)" fill="#eea886"/>
      </g>
      <g id="Grupo_28840" data-name="Grupo 28840" transform="translate(29.337 13.918)">
        <path id="Trazado_68661" data-name="Trazado 68661" d="M1170.38,732.879c.084-.086.157-.16.2-.2a3.033,3.033,0,0,1,.635-.507,7.6,7.6,0,0,1-1.316-3.534S1169.362,730.067,1170.38,732.879Z" transform="translate(-1169.756 -728.634)" fill="#a77860"/>
      </g>
      <g id="Grupo_28845" data-name="Grupo 28845" transform="translate(20.454 53.384)">
        <g id="Grupo_28844" data-name="Grupo 28844">
          <g id="Grupo_28843" data-name="Grupo 28843">
            <g id="Grupo_28842" data-name="Grupo 28842">
              <g id="Grupo_28841" data-name="Grupo 28841">
                <path id="Trazado_68662" data-name="Trazado 68662" d="M1129.343,917.734a1.992,1.992,0,0,1-.332-.545s-.064-.385-.125-.656a1.914,1.914,0,0,0-.057-.207,3.665,3.665,0,0,1-.334-1.121,24.544,24.544,0,0,1,.346-2.8l1.293-.14,1.192-.3a24.694,24.694,0,0,1,1.959,3.059,1.245,1.245,0,0,1,.02.137,4.675,4.675,0,0,1-.1.956c0,.081-.07.879-.266,1.016a.784.784,0,0,1-.751.126,1.871,1.871,0,0,1-.986.294,1.163,1.163,0,0,1-1.02.116S1129.635,917.952,1129.343,917.734Z" transform="translate(-1128.491 -911.962)" fill="#ffb48f"/>
              </g>
            </g>
          </g>
        </g>
      </g>
      <g id="Grupo_28846" data-name="Grupo 28846" transform="translate(14.17 16.041)">
        <path id="Trazado_68663" data-name="Trazado 68663" d="M1106.11,743.2s1.27-4.772-2.043-4.7-3.541,4.207-3.636,5.026-1.229,10.478-1.1,12.306-.235,4.319.154,6.741c.292,1.815,6.189,14.456,6.285,14.506s3.009-1.141,3.009-1.141S1105,763.6,1104.5,762.452a8.348,8.348,0,0,1-.511-3.948C1103.95,757.629,1105.964,743.937,1106.11,743.2Z" transform="translate(-1099.3 -738.494)" fill="#e55353"/>
      </g>
      <g id="Grupo_28847" data-name="Grupo 28847" transform="translate(14.908 0)">
        <path id="Trazado_68664" data-name="Trazado 68664" d="M1126.568,672.437s-1.6,2.819-4.088,2.152-4.318-.015-4.619,1.034-2.434,6.673-4.691,6.491-3.9-3.609-5.17-2.939-2.656,4.464-4.31,3.443-1.331-4.517,2.2-6.031,6.049-1.514,7.08-3.484,3.6-7.344,6.047-8.408c1.818-.789,3.978-1.38,7.385.83a5.345,5.345,0,0,1,2.347,5.837Z" transform="translate(-1102.73 -663.983)" fill="#163342"/>
      </g>
      <path id="Trazado_68665" data-name="Trazado 68665" d="M1165.054,904.969h0a4.758,4.758,0,0,1,.745.706,15.933,15.933,0,0,0,.214-5.056A17.045,17.045,0,0,1,1165.054,904.969Z" transform="translate(-1136.729 -849.678)" fill="#b07c63"/>
      <path id="Trazado_68666" data-name="Trazado 68666" d="M1091.993,796.888c.887.146,1.64.282,2.285.4h0a9.792,9.792,0,0,1-.7-2.157,89.282,89.282,0,0,1,.112-10.778c.448-4.456.414-4.141.414-4.141S1091.032,789.389,1091.993,796.888Z" transform="translate(-1079.25 -755.187)" fill="#a63d3d"/>
      <path id="Trazado_68667" data-name="Trazado 68667" d="M1151.809,809.336h0c.064.379.06.366.143.852,2.833-1.033,3.609-2.389,3.645-2.458a7.661,7.661,0,0,1-2.994.954A.984.984,0,0,0,1151.809,809.336Z" transform="translate(-1126.335 -776.786)" fill="#a63d3d"/>
    </g>
    <g id="Grupo_28907" data-name="Grupo 28907" transform="translate(529.558 335.925)">
      <g id="Grupo_28853" data-name="Grupo 28853" transform="translate(23.525 9.302)">
        <g id="Grupo_28852" data-name="Grupo 28852">
          <g id="Grupo_28851" data-name="Grupo 28851">
            <g id="Grupo_28850" data-name="Grupo 28850">
              <g id="Grupo_28849" data-name="Grupo 28849">
                <path id="Trazado_68668" data-name="Trazado 68668" d="M1195.87,1157.269s4.059,1.985,3.056,7.387-1.448,6.13-.325,8.24,2.447,11.114,1.437,12.82-12.506-7.5-14.1-15.223,1.01-11.159,1.931-12.439S1192.286,1155.45,1195.87,1157.269Z" transform="translate(-1185.432 -1156.378)" fill="#0e2d3d"/>
              </g>
            </g>
          </g>
        </g>
      </g>
      <g id="Grupo_28855" data-name="Grupo 28855">
        <g id="Grupo_28854" data-name="Grupo 28854">
          <path id="Trazado_68669" data-name="Trazado 68669" d="M1076.153,1113.17h17.094v15l-2.61-2.61h-14.484Z" transform="translate(-1076.153 -1113.17)" fill="#78c2ff"/>
        </g>
      </g>
      <g id="Grupo_28856" data-name="Grupo 28856" transform="translate(31.48 124.323)">
        <path id="Trazado_68670" data-name="Trazado 68670" d="M1226.608,1691.477a10.146,10.146,0,0,0,1.185,1.982c.568.741,2.335,3.786,3.114,4s3.184.637,3.4,1.981.318,2.3-2.052,2.406-3.928.248-5.06-1.415a12.328,12.328,0,0,0-2.937-2.866v4.339h-.92a39.325,39.325,0,0,0-.672-4.834c-.248-.318-.885-3.786,1.309-5.59S1226.608,1691.477,1226.608,1691.477Z" transform="translate(-1222.383 -1690.675)" fill="#163342"/>
      </g>
      <g id="Grupo_28857" data-name="Grupo 28857" transform="translate(32.57 124.648)">
        <path id="Trazado_68671" data-name="Trazado 68671" d="M1234.88,1698.642s-2.123.531-2.937,0-3.58-5.207-4.5-5.487c0,0,.888-1.8,3.135-.493C1230.581,1692.662,1234.279,1697.863,1234.88,1698.642Z" transform="translate(-1227.446 -1692.185)" fill="#eea886"/>
      </g>
      <g id="Grupo_28861" data-name="Grupo 28861" transform="translate(60.607 48.622)">
        <g id="Grupo_28860" data-name="Grupo 28860">
          <g id="Grupo_28859" data-name="Grupo 28859">
            <g id="Grupo_28858" data-name="Grupo 28858">
              <path id="Trazado_68672" data-name="Trazado 68672" d="M1357.8,1341.472s1.473.283,1.976-.41a4.8,4.8,0,0,1,1.707-1.18c.4-.187,1.424-1.22,1.664-.715s-1.6,1.785-1.935,2.13,1.807.5,2.176.834-.085,3.866-1.541,3.592-2.831-1.53-3.1-1.528a9.113,9.113,0,0,1-1.068-.158Z" transform="translate(-1357.686 -1339.029)" fill="#eea886"/>
            </g>
          </g>
        </g>
      </g>
      <g id="Grupo_28865" data-name="Grupo 28865" transform="translate(64.842 51.58)">
        <g id="Grupo_28864" data-name="Grupo 28864">
          <g id="Grupo_28863" data-name="Grupo 28863">
            <g id="Grupo_28862" data-name="Grupo 28862">
              <path id="Trazado_68673" data-name="Trazado 68673" d="M1378.5,1352.769s4.4,1.137,4.634,1.459.154.556-.262.467-4.286-.976-4.286-.976,4.985,2.222,5.232,2.444c.144.13.024.594-.2.567s-5.295-1.947-5.295-1.947,4.651,2.083,4.8,2.33a.351.351,0,0,1-.44.483c-.356-.131-4.782-1.82-4.782-1.82s3.29,1.729,3.294,2.013c0,.173-.083.579-.917.106s-2.922-1.381-2.922-1.381Z" transform="translate(-1377.356 -1352.769)" fill="#eea886"/>
            </g>
          </g>
        </g>
      </g>
      <g id="Grupo_28866" data-name="Grupo 28866" transform="translate(20.252 127.853)">
        <path id="Trazado_68674" data-name="Trazado 68674" d="M1173.815,1707.156a39.726,39.726,0,0,0,3.326,4.37s2.123.778,2.335,2.264.177,2.478-2.335,2.549-4.159-.381-4.619-1.9a6.931,6.931,0,0,0-1.467-2.557v3.184h-.566s-.142-3.078-.177-3.644-.407-2.743.787-3.706A3.314,3.314,0,0,1,1173.815,1707.156Z" transform="translate(-1170.23 -1707.071)" fill="#163342"/>
      </g>
      <g id="Grupo_28867" data-name="Grupo 28867" transform="translate(17.094 58.73)">
        <path id="Trazado_68675" data-name="Trazado 68675" d="M1160.709,1387.237a22.215,22.215,0,0,0-3.805,8.509c-.812,4.617.48,20.115.444,22.4s-2.158,7.961-1.734,12.26,2.1,25.7,2.1,25.7l4.587-.91s-.265-21.813,0-23.617.8-8.382.9-9.125,6.739-20.254,6.739-23.583S1167.927,1381.806,1160.709,1387.237Z" transform="translate(-1155.557 -1385.98)" fill="#1d3b54"/>
      </g>
      <g id="Grupo_28868" data-name="Grupo 28868" transform="translate(26.99 60.533)">
        <path id="Trazado_68676" data-name="Trazado 68676" d="M1211.819,1395.333s4.918,18.77,5.5,21.371,1.429,4.745,1.429,5.849a38.664,38.664,0,0,1-.952,6.676l-6.245,29.869h-5.948s3.314-17.92,3.4-21.424,2.793-8.5,2.262-9.985-8.545-18.629-8.545-18.629S1196.658,1389.884,1211.819,1395.333Z" transform="translate(-1201.527 -1394.358)" fill="#1d3b54"/>
      </g>
      <g id="Grupo_28869" data-name="Grupo 28869" transform="translate(21.122 127.938)">
        <path id="Trazado_68677" data-name="Trazado 68677" d="M1180.31,1711.837s-2.427,1.357-3.991-.385a12.315,12.315,0,0,1-2.051-3.427l2.715-.557Z" transform="translate(-1174.269 -1707.467)" fill="#eea886"/>
      </g>
      <g id="Grupo_28871" data-name="Grupo 28871" transform="translate(33.466 29.61)">
        <g id="Grupo_28870" data-name="Grupo 28870">
          <path id="Trazado_68678" data-name="Trazado 68678" d="M1233.393,1250.714a6.136,6.136,0,0,1,3.56,1.833,23.513,23.513,0,0,1,3.371,5.135c.4.875,6.026,8.989,6.318,9.172s3.119,1.127,4.993,1.758c2.891.973,8.686,3.079,8.686,3.079l-1.151,3.644s-10.9-3.566-13.627-4.238c-3.337-.822-11.02-10.678-11.02-10.678S1228.8,1253.705,1233.393,1250.714Z" transform="translate(-1231.607 -1250.714)" fill="#285173"/>
        </g>
      </g>
      <g id="Grupo_28873" data-name="Grupo 28873" transform="translate(17.635 28.05)">
        <g id="Grupo_28872" data-name="Grupo 28872">
          <path id="Trazado_68679" data-name="Trazado 68679" d="M1172.149,1243.6a27.512,27.512,0,0,0,3.539,1.423c.912.182,4.45,4.779,5.071,6.457s0,4.195-1.277,7.15-.073,3.94-.656,6.895-.4,14.009-.287,15.65-17.075,4.13-20.467,1.138c0,0,2.3-9.962,5.016-12.805.588-.615.526-4.713.125-5.734s-4.925-8.646-4.925-8.646-.332-7.733,1.642-9.266c1.714-1.331,6.387-1.806,7.226-2.1A14.334,14.334,0,0,1,1172.149,1243.6Z" transform="translate(-1158.071 -1243.467)" fill="#ff7e55"/>
        </g>
      </g>
      <g id="Grupo_28875" data-name="Grupo 28875" transform="translate(26.719 21.562)">
        <g id="Grupo_28874" data-name="Grupo 28874">
          <path id="Trazado_68680" data-name="Trazado 68680" d="M1206.517,1216.923s-.078.723-.169,1.7c-.035.387-.073.813-.108,1.251a29.491,29.491,0,0,0-.138,3.436s-2.73,2.736-5.833-3.192a8.144,8.144,0,0,0,.322-5.772C1199.609,1211.017,1206.517,1216.923,1206.517,1216.923Z" transform="translate(-1200.269 -1213.329)" fill="#eea886"/>
        </g>
      </g>
      <g id="Grupo_28876" data-name="Grupo 28876" transform="translate(39.312 37.279)">
        <path id="Trazado_68681" data-name="Trazado 68681" d="M1260.058,1293.367s.657-4.37-.042-7.027a16.968,16.968,0,0,1-1.253,5.53Z" transform="translate(-1258.764 -1286.34)" fill="#183c59"/>
      </g>
      <g id="Grupo_28877" data-name="Grupo 28877" transform="translate(24.622 28.284)">
        <path id="Trazado_68682" data-name="Trazado 68682" d="M1190.526,1245.041s1.877,5.545,7.032,5.137S1200,1245.5,1200,1245.5a11.383,11.383,0,0,0-1.646-.806c-.362-.069-5.7-.137-5.7-.137Z" transform="translate(-1190.526 -1244.553)" fill="#eea886"/>
      </g>
      <g id="Grupo_28878" data-name="Grupo 28878" transform="translate(34.097 29.227)">
        <path id="Trazado_68683" data-name="Trazado 68683" d="M1234.542,1248.934a50.8,50.8,0,0,1,2.7,15.079c0,7.612.218,20.01,1.16,23.926s3.625,16.024,3.625,16.024l2.1-1.088s-5.056-19.325-5.438-20.719.29-16.115.653-17.348,1.9-6.719,1.665-8.242c-.3-1.919-2.1-4.759-5-7.2Z" transform="translate(-1234.542 -1248.934)" fill="#285173"/>
      </g>
      <g id="Grupo_28879" data-name="Grupo 28879" transform="translate(14.247 28.538)">
        <path id="Trazado_68684" data-name="Trazado 68684" d="M1153.728,1245.736a77.632,77.632,0,0,1,2.528,12.254c.85,6.882-2.61,38.823-4.93,46.074l-8.991-1.45s1.935-22.578,4.563-26.687,3.463-7.744.627-16.32,1.243-12.823,1.243-12.823S1152.94,1245.825,1153.728,1245.736Z" transform="translate(-1142.335 -1245.736)" fill="#285173"/>
      </g>
      <g id="Grupo_28880" data-name="Grupo 28880" transform="translate(12.32 44.053)">
        <path id="Trazado_68685" data-name="Trazado 68685" d="M1156.4,1325.077l-10.9,18.882-12.119-7,10.428-19.155Z" transform="translate(-1133.381 -1317.807)" fill="#616161"/>
      </g>
      <g id="Grupo_28881" data-name="Grupo 28881" transform="translate(13.581 45.516)">
        <path id="Trazado_68686" data-name="Trazado 68686" d="M1159.684,1331.058l-9.682,16.77-10.763-6.214,9.261-17.013Z" transform="translate(-1139.239 -1324.601)" fill="#e0cec7"/>
      </g>
      <g id="Grupo_28882" data-name="Grupo 28882" transform="translate(25.933 46.777)">
        <path id="Trazado_68687" data-name="Trazado 68687" d="M1201.138,1334.149l.679-1.177-4.351-2.512-.85,1.079Z" transform="translate(-1196.616 -1330.46)" fill="#616161"/>
      </g>
      <g id="Grupo_28888" data-name="Grupo 28888" transform="translate(24.936 57.994)">
        <g id="Grupo_28887" data-name="Grupo 28887">
          <g id="Grupo_28886" data-name="Grupo 28886">
            <g id="Grupo_28885" data-name="Grupo 28885">
              <g id="Grupo_28884" data-name="Grupo 28884">
                <g id="Grupo_28883" data-name="Grupo 28883">
                  <path id="Trazado_68688" data-name="Trazado 68688" d="M1196.985,1388.434a2.25,2.25,0,0,1-.713-.1s-.381-.221-.661-.361a2.144,2.144,0,0,0-.221-.1,4.129,4.129,0,0,1-1.215-.514,27.645,27.645,0,0,1-2.189-2.31l.806-1.226.591-1.255a27.849,27.849,0,0,1,4.069.491,1.309,1.309,0,0,1,.134.082,5.259,5.259,0,0,1,.759.776c.069.059.715.692.693.961a.883.883,0,0,1-.429.744,2.114,2.114,0,0,1-.452,1.069,1.313,1.313,0,0,1-.632.971S1197.383,1388.336,1196.985,1388.434Z" transform="translate(-1191.986 -1382.565)" fill="#eea886"/>
                </g>
              </g>
            </g>
          </g>
        </g>
      </g>
      <g id="Grupo_28890" data-name="Grupo 28890" transform="translate(12.041 29.499)">
        <g id="Grupo_28889" data-name="Grupo 28889">
          <path id="Trazado_68689" data-name="Trazado 68689" d="M1142.593,1250.31a4.573,4.573,0,0,0-5.208,2.7,16.648,16.648,0,0,0-2.141,6.985c-.239,1.682-1.32,6.274-1.43,6.749s-2.557,6.129-1.435,8.106,12.587,7.835,12.514,8.272,1.984-4.421,1.984-4.421a49.087,49.087,0,0,1-5.4-3.38c-1.234-1.292-3.835-2.685-3.3-4.288.628-1.883,2.514-8.238,2.952-9.168S1145.384,1251.5,1142.593,1250.31Z" transform="translate(-1132.087 -1250.199)" fill="#285173"/>
        </g>
      </g>
      <g id="Grupo_28895" data-name="Grupo 28895" transform="translate(25.601 10.62)">
        <g id="Grupo_28894" data-name="Grupo 28894">
          <g id="Grupo_28893" data-name="Grupo 28893">
            <g id="Grupo_28892" data-name="Grupo 28892">
              <g id="Grupo_28891" data-name="Grupo 28891">
                <path id="Trazado_68690" data-name="Trazado 68690" d="M1202.848,1162.672s5.894,1.852,2.694,12.023-11.249-1.179-10.407-7.375S1202.848,1162.672,1202.848,1162.672Z" transform="translate(-1195.074 -1162.5)" fill="#eea987"/>
              </g>
            </g>
          </g>
        </g>
      </g>
      <g id="Grupo_28900" data-name="Grupo 28900" transform="translate(25.136 9.803)">
        <g id="Grupo_28899" data-name="Grupo 28899">
          <g id="Grupo_28898" data-name="Grupo 28898">
            <g id="Grupo_28897" data-name="Grupo 28897">
              <g id="Grupo_28896" data-name="Grupo 28896">
                <path id="Trazado_68691" data-name="Trazado 68691" d="M1204.451,1165.629a13.3,13.3,0,0,1-7.83,3.233s-1.884,2.208-2.028,3.075c0,0-4.373-7.453,1-11.922S1206.426,1163.788,1204.451,1165.629Z" transform="translate(-1192.916 -1158.706)" fill="#0e2d3d"/>
              </g>
            </g>
          </g>
        </g>
      </g>
      <g id="Grupo_28905" data-name="Grupo 28905" transform="translate(26.855 18.127)">
        <g id="Grupo_28904" data-name="Grupo 28904">
          <g id="Grupo_28903" data-name="Grupo 28903">
            <g id="Grupo_28902" data-name="Grupo 28902">
              <g id="Grupo_28901" data-name="Grupo 28901">
                <path id="Trazado_68692" data-name="Trazado 68692" d="M1202.947,1199.407c-.038-.74-.494-2.425-1.594-1.953s.067,3.9.8,3.691C1202.15,1201.145,1203.037,1201.159,1202.947,1199.407Z" transform="translate(-1200.902 -1197.372)" fill="#eea987"/>
              </g>
            </g>
          </g>
        </g>
      </g>
      <g id="Grupo_28906" data-name="Grupo 28906" transform="translate(28.35 24.083)">
        <path id="Trazado_68693" data-name="Trazado 68693" d="M1212.292,1227.815c-.035.387-.073.814-.108,1.251,0,0-2.6-.155-4.34-4.025C1207.957,1225.21,1209.863,1228.01,1212.292,1227.815Z" transform="translate(-1207.844 -1225.041)" fill="#a77860"/>
      </g>
    </g>
  </g>
</svg>
