<svg xmlns="http://www.w3.org/2000/svg" xmlns:xlink="http://www.w3.org/1999/xlink" width="673.684" height="300.682" viewBox="0 0 673.684 300.682">
  <defs>
    <filter id="Trazado_67306" x="26.587" y="90.659" width="36.025" height="59.157" filterUnits="userSpaceOnUse">
      <feOffset dy="3" input="SourceAlpha"/>
      <feGaussianBlur stdDeviation="3" result="blur"/>
      <feFlood flood-opacity="0.161"/>
      <feComposite operator="in" in2="blur"/>
      <feComposite in="SourceGraphic"/>
    </filter>
    <filter id="Trazado_67307" x="0" y="90.659" width="36.025" height="59.157" filterUnits="userSpaceOnUse">
      <feOffset dy="3" input="SourceAlpha"/>
      <feGaussianBlur stdDeviation="3" result="blur-2"/>
      <feFlood flood-opacity="0.161"/>
      <feComposite operator="in" in2="blur-2"/>
      <feComposite in="SourceGraphic"/>
    </filter>
    <filter id="Trazado_67304" x="4.763" y="176.138" width="589.94" height="124.544" filterUnits="userSpaceOnUse">
      <feOffset dx="5" dy="5" input="SourceAlpha"/>
      <feGaussianBlur stdDeviation="3" result="blur-3"/>
      <feFlood flood-opacity="0.161"/>
      <feComposite operator="in" in2="blur-3"/>
      <feComposite in="SourceGraphic"/>
    </filter>
    <filter id="Trazado_67305" x="634.23" y="176.138" width="39.453" height="77.105" filterUnits="userSpaceOnUse">
      <feOffset dx="5" dy="5" input="SourceAlpha"/>
      <feGaussianBlur stdDeviation="3" result="blur-4"/>
      <feFlood flood-opacity="0.161"/>
      <feComposite operator="in" in2="blur-4"/>
      <feComposite in="SourceGraphic"/>
    </filter>
    <filter id="Trazado_67308" x="609.171" y="217.18" width="36.026" height="59.157" filterUnits="userSpaceOnUse">
      <feOffset dx="5" dy="5" input="SourceAlpha"/>
      <feGaussianBlur stdDeviation="3" result="blur-5"/>
      <feFlood flood-opacity="0.161"/>
      <feComposite operator="in" in2="blur-5"/>
      <feComposite in="SourceGraphic"/>
    </filter>
    <filter id="Trazado_67309" x="582.584" y="217.18" width="36.025" height="59.157" filterUnits="userSpaceOnUse">
      <feOffset dx="5" dy="5" input="SourceAlpha"/>
      <feGaussianBlur stdDeviation="3" result="blur-6"/>
      <feFlood flood-opacity="0.161"/>
      <feComposite operator="in" in2="blur-6"/>
      <feComposite in="SourceGraphic"/>
    </filter>
    <linearGradient id="linear-gradient" x1="0.5" y1="1" x2="0.5" gradientUnits="objectBoundingBox">
      <stop offset="0" stop-color="#325a6a"/>
      <stop offset="0.529" stop-color="#33708b"/>
      <stop offset="1" stop-color="#3487ad"/>
    </linearGradient>
    <filter id="Rectángulo_3802" x="216.913" y="0" width="258.933" height="81.602" filterUnits="userSpaceOnUse">
      <feOffset dx="3" dy="2" input="SourceAlpha"/>
      <feGaussianBlur stdDeviation="1" result="blur-7"/>
      <feFlood flood-color="#325a6a" flood-opacity="0.549"/>
      <feComposite operator="in" in2="blur-7"/>
      <feComposite in="SourceGraphic"/>
    </filter>
  </defs>
  <g id="Grupo_29525" data-name="Grupo 29525" transform="translate(-707.237 -7705.738)">
    <path id="Trazado_69276" data-name="Trazado 69276" d="M8.5,17,5.247,11.41H3.894V17h-2.1V4.467H6.144A5.038,5.038,0,0,1,7.9,4.748a3.09,3.09,0,0,1,1.226.787,3.367,3.367,0,0,1,.7,1.151,4.158,4.158,0,0,1,.233,1.419,3.2,3.2,0,0,1-.721,2.149,3.262,3.262,0,0,1-1.978,1.077L10.969,17ZM3.894,6.242V9.854H5.836a2.443,2.443,0,0,0,1.657-.479,1.665,1.665,0,0,0,.541-1.314,1.7,1.7,0,0,0-.545-1.327,2.4,2.4,0,0,0-1.652-.492ZM20.408,12.43l-.026.51H13.658a2.667,2.667,0,0,0,.773,1.934,2.525,2.525,0,0,0,1.784.668,2.424,2.424,0,0,0,1.314-.36,2.272,2.272,0,0,0,.875-1.028l1.846.316a3.886,3.886,0,0,1-1.529,1.986,4.392,4.392,0,0,1-2.487.712,4.533,4.533,0,0,1-3.313-1.222,4.494,4.494,0,0,1-1.248-3.366A4.512,4.512,0,0,1,12.92,9.213a4.433,4.433,0,0,1,3.252-1.23,4.21,4.21,0,0,1,3.067,1.129A4.453,4.453,0,0,1,20.408,12.43ZM16.181,9.485a2.58,2.58,0,0,0-1.6.479,2.332,2.332,0,0,0-.839,1.463h4.632a2.131,2.131,0,0,0-.7-1.45A2.251,2.251,0,0,0,16.181,9.485ZM27.088,5.144h-.316q-.088,0-.3.013a1.687,1.687,0,0,0-.308.04q-.1.026-.272.083a.685.685,0,0,0-.259.136q-.083.079-.2.2a.731.731,0,0,0-.171.286,3.374,3.374,0,0,0-.1.387,2.588,2.588,0,0,0-.044.5V8.158h1.969V9.74H25.119V17H23.1V9.74H21.384V8.158H23.1V6.77a5.234,5.234,0,0,1,.1-1.077,3.175,3.175,0,0,1,.281-.822,2.028,2.028,0,0,1,.461-.589,2.579,2.579,0,0,1,.6-.4,3.3,3.3,0,0,1,.747-.237,6.7,6.7,0,0,1,.848-.119q.417-.031.954-.031Zm9.554,7.286-.026.51H29.892a2.667,2.667,0,0,0,.773,1.934,2.525,2.525,0,0,0,1.784.668,2.424,2.424,0,0,0,1.314-.36,2.272,2.272,0,0,0,.875-1.028l1.846.316a3.886,3.886,0,0,1-1.529,1.986,4.392,4.392,0,0,1-2.487.712,4.533,4.533,0,0,1-3.313-1.222,4.494,4.494,0,0,1-1.248-3.366,4.512,4.512,0,0,1,1.248-3.366,4.433,4.433,0,0,1,3.252-1.23,4.21,4.21,0,0,1,3.067,1.129A4.453,4.453,0,0,1,36.642,12.43ZM32.414,9.485a2.58,2.58,0,0,0-1.6.479,2.332,2.332,0,0,0-.839,1.463h4.632a2.131,2.131,0,0,0-.7-1.45A2.251,2.251,0,0,0,32.414,9.485Zm8.332.158a2.67,2.67,0,0,1,1.121-1.125,3.5,3.5,0,0,1,1.727-.457V9.907a3.115,3.115,0,0,0-2.087.593,2.523,2.523,0,0,0-.681,1.991V17h-2.03V8.158h1.951Zm5.52-3.173a1.207,1.207,0,0,1-.879-.365,1.226,1.226,0,0,1,0-1.749,1.236,1.236,0,0,1,1.753,0,1.22,1.22,0,0,1,0,1.749A1.2,1.2,0,0,1,46.266,6.471ZM45.229,17V8.158h2.03V17Zm6.847-7.356A2.67,2.67,0,0,1,53.2,8.519a3.5,3.5,0,0,1,1.727-.457V9.907a3.115,3.115,0,0,0-2.087.593,2.523,2.523,0,0,0-.681,1.991V17h-2.03V8.158h1.951Zm4.518,10.564H55.134l1.09-5.6h2.092Zm11.083-3.041a3.669,3.669,0,0,1-1.349-.233,2.144,2.144,0,0,1-.984-.791,2.353,2.353,0,0,1-.391-1.384,2.564,2.564,0,0,1,.18-.989,2.165,2.165,0,0,1,.475-.725,2.789,2.789,0,0,1,.747-.51,5.358,5.358,0,0,1,.914-.347q.461-.127,1.068-.242l1.336-.246q.817-.158.817-.8A1.256,1.256,0,0,0,70,9.8a2.1,2.1,0,0,0-1.239-.347,2.075,2.075,0,0,0-1.274.374,1.636,1.636,0,0,0-.6,1.182l-1.819-.334Q65.514,8,68.88,8a6.23,6.23,0,0,1,1.05.083,3.751,3.751,0,0,1,.958.3,2.756,2.756,0,0,1,.8.558,2.435,2.435,0,0,1,.536.9,3.743,3.743,0,0,1,.2,1.279v3.428a1.4,1.4,0,0,0,.185.844.8.8,0,0,0,.65.229h.141V17h-.958q-1.5,0-1.793-1.169h-.1a2.874,2.874,0,0,1-1.252,1.011A4.143,4.143,0,0,1,67.676,17.167Zm.475-1.591a2.351,2.351,0,0,0,1.767-.729,2.645,2.645,0,0,0,.7-1.916l-2.259.5a2.708,2.708,0,0,0-1.09.409.883.883,0,0,0-.36.751.849.849,0,0,0,.343.738A1.5,1.5,0,0,0,68.15,15.576ZM80.068,7.991a3.273,3.273,0,0,1,2.338.8,2.96,2.96,0,0,1,.844,2.263V17H81.211V11.489a1.814,1.814,0,0,0-.488-1.393,1.768,1.768,0,0,0-1.252-.453,2.066,2.066,0,0,0-1.494.558,2.311,2.311,0,0,0-.589,1.718V17H75.366V8.158h2.021V9.2a2.987,2.987,0,0,1,1.138-.9A3.658,3.658,0,0,1,80.068,7.991Zm9.791,9.176a4.647,4.647,0,0,1-3.349-1.244,4.421,4.421,0,0,1-1.3-3.353,4.4,4.4,0,0,1,1.3-3.335,5.149,5.149,0,0,1,6.706,0,4.4,4.4,0,0,1,1.3,3.34,4.421,4.421,0,0,1-1.3,3.353A4.658,4.658,0,0,1,89.859,17.167Zm-.018-1.635a2.479,2.479,0,0,0,1.916-.817A3.055,3.055,0,0,0,92.5,12.57a3.039,3.039,0,0,0-.747-2.14,2.485,2.485,0,0,0-1.916-.813,2.428,2.428,0,0,0-1.881.813,3.061,3.061,0,0,0-.738,2.14,3.088,3.088,0,0,0,.734,2.145A2.419,2.419,0,0,0,89.842,15.532ZM99.712,17a2.5,2.5,0,0,1-1.863-.677,2.6,2.6,0,0,1-.668-1.907V9.74H95.414V8.158h.606a1.382,1.382,0,0,0,1.042-.338,1.709,1.709,0,0,0,.321-1.182V5.267h1.846V8.158h1.925V9.74H99.229v4.465a1.267,1.267,0,0,0,.3.918,1.093,1.093,0,0,0,.822.312h.8V17Zm5.537.167a3.669,3.669,0,0,1-1.349-.233,2.144,2.144,0,0,1-.984-.791,2.353,2.353,0,0,1-.391-1.384,2.564,2.564,0,0,1,.18-.989,2.165,2.165,0,0,1,.475-.725,2.789,2.789,0,0,1,.747-.51,5.358,5.358,0,0,1,.914-.347q.461-.127,1.068-.242l1.336-.246q.817-.158.817-.8a1.256,1.256,0,0,0-.492-1.1,2.1,2.1,0,0,0-1.239-.347,2.075,2.075,0,0,0-1.274.374,1.636,1.636,0,0,0-.6,1.182l-1.819-.334Q103.087,8,106.453,8a6.23,6.23,0,0,1,1.05.083,3.751,3.751,0,0,1,.958.3,2.756,2.756,0,0,1,.8.558,2.435,2.435,0,0,1,.536.9,3.743,3.743,0,0,1,.2,1.279v3.428a1.4,1.4,0,0,0,.185.844.8.8,0,0,0,.65.229h.141V17h-.958q-1.5,0-1.793-1.169h-.1a2.874,2.874,0,0,1-1.252,1.011A4.143,4.143,0,0,1,105.249,17.167Zm.475-1.591a2.351,2.351,0,0,0,1.767-.729,2.645,2.645,0,0,0,.7-1.916l-2.259.5a2.708,2.708,0,0,0-1.09.409.883.883,0,0,0-.36.751.849.849,0,0,0,.343.738A1.5,1.5,0,0,0,105.724,15.576Zm9.167-5.933a2.67,2.67,0,0,1,1.121-1.125,3.5,3.5,0,0,1,1.727-.457V9.907a3.115,3.115,0,0,0-2.087.593,2.523,2.523,0,0,0-.681,1.991V17h-2.03V8.158h1.951Zm13.078,7.523a4.647,4.647,0,0,1-3.349-1.244,4.421,4.421,0,0,1-1.3-3.353,4.4,4.4,0,0,1,1.3-3.335,5.149,5.149,0,0,1,6.706,0,4.4,4.4,0,0,1,1.3,3.34,4.421,4.421,0,0,1-1.3,3.353A4.658,4.658,0,0,1,127.969,17.167Zm-.018-1.635a2.479,2.479,0,0,0,1.916-.817,3.055,3.055,0,0,0,.747-2.145,3.039,3.039,0,0,0-.747-2.14,2.485,2.485,0,0,0-1.916-.813,2.428,2.428,0,0,0-1.881.813,3.061,3.061,0,0,0-.738,2.14,3.088,3.088,0,0,0,.734,2.145A2.419,2.419,0,0,0,127.951,15.532ZM149.2,7.991a3.107,3.107,0,0,1,2.171.734,2.664,2.664,0,0,1,.809,2.079V17h-2.03V11.366a1.736,1.736,0,0,0-.439-1.288,1.509,1.509,0,0,0-1.107-.435,1.657,1.657,0,0,0-1.27.523,2.3,2.3,0,0,0-.488,1.613V17h-2.057V11.41a1.8,1.8,0,0,0-.444-1.318,1.522,1.522,0,0,0-1.129-.448,1.644,1.644,0,0,0-1.274.541,2.442,2.442,0,0,0-.492,1.683V17h-2.013V8.158h2.013v1.09a2.852,2.852,0,0,1,2.5-1.257,3.351,3.351,0,0,1,1.582.356,2.342,2.342,0,0,1,1.02,1.024A2.935,2.935,0,0,1,149.2,7.991Zm13.711,4.438-.026.51h-6.724a2.667,2.667,0,0,0,.773,1.934,2.525,2.525,0,0,0,1.784.668,2.424,2.424,0,0,0,1.314-.36,2.272,2.272,0,0,0,.875-1.028l1.846.316a3.886,3.886,0,0,1-1.529,1.986,4.392,4.392,0,0,1-2.487.712,4.533,4.533,0,0,1-3.313-1.222,4.494,4.494,0,0,1-1.248-3.366,4.512,4.512,0,0,1,1.248-3.366,4.433,4.433,0,0,1,3.252-1.23,4.21,4.21,0,0,1,3.067,1.129A4.453,4.453,0,0,1,162.914,12.43Zm-4.228-2.944a2.58,2.58,0,0,0-1.6.479,2.332,2.332,0,0,0-.839,1.463h4.632a2.131,2.131,0,0,0-.7-1.45A2.251,2.251,0,0,0,158.687,9.485ZM169.77,7.991a3.273,3.273,0,0,1,2.338.8,2.96,2.96,0,0,1,.844,2.263V17h-2.039V11.489a1.814,1.814,0,0,0-.488-1.393,1.768,1.768,0,0,0-1.252-.453,2.066,2.066,0,0,0-1.494.558,2.311,2.311,0,0,0-.589,1.718V17h-2.021V8.158h2.021V9.2a2.987,2.987,0,0,1,1.138-.9A3.658,3.658,0,0,1,169.77,7.991Zm9.7,9.167a4.376,4.376,0,0,1-4.579-4.588,4.439,4.439,0,0,1,1.288-3.313,4.92,4.92,0,0,1,6-.453,3.838,3.838,0,0,1,1.481,2.272l-1.881.246a2.356,2.356,0,0,0-.866-1.266,2.439,2.439,0,0,0-1.463-.439,2.32,2.32,0,0,0-1.828.813,3.131,3.131,0,0,0-.712,2.14,3.131,3.131,0,0,0,.712,2.14,2.32,2.32,0,0,0,1.828.813,2.456,2.456,0,0,0,1.463-.435,2.334,2.334,0,0,0,.866-1.261l1.881.237a3.843,3.843,0,0,1-1.49,2.276A4.485,4.485,0,0,1,179.473,17.158Zm7.26-10.687a1.207,1.207,0,0,1-.879-.365,1.226,1.226,0,0,1,0-1.749,1.236,1.236,0,0,1,1.753,0,1.22,1.22,0,0,1,0,1.749A1.2,1.2,0,0,1,186.732,6.471ZM185.7,17V8.158h2.03V17Zm8.815.167a4.647,4.647,0,0,1-3.349-1.244,4.421,4.421,0,0,1-1.3-3.353,4.4,4.4,0,0,1,1.3-3.335,5.149,5.149,0,0,1,6.706,0,4.4,4.4,0,0,1,1.3,3.34,4.421,4.421,0,0,1-1.3,3.353A4.658,4.658,0,0,1,194.511,17.167Zm-.018-1.635a2.479,2.479,0,0,0,1.916-.817,3.055,3.055,0,0,0,.747-2.145,3.039,3.039,0,0,0-.747-2.14,2.485,2.485,0,0,0-1.916-.813,2.428,2.428,0,0,0-1.881.813,3.061,3.061,0,0,0-.738,2.14,3.088,3.088,0,0,0,.734,2.145A2.419,2.419,0,0,0,194.493,15.532Zm11.514-7.541a3.273,3.273,0,0,1,2.338.8,2.96,2.96,0,0,1,.844,2.263V17h-2.039V11.489a1.814,1.814,0,0,0-.488-1.393,1.768,1.768,0,0,0-1.252-.453,2.066,2.066,0,0,0-1.494.558,2.311,2.311,0,0,0-.589,1.718V17H201.3V8.158h2.021V9.2a2.987,2.987,0,0,1,1.138-.9A3.658,3.658,0,0,1,206.007,7.991Zm7.954,9.176a3.669,3.669,0,0,1-1.349-.233,2.144,2.144,0,0,1-.984-.791,2.353,2.353,0,0,1-.391-1.384,2.564,2.564,0,0,1,.18-.989,2.165,2.165,0,0,1,.475-.725,2.789,2.789,0,0,1,.747-.51,5.358,5.358,0,0,1,.914-.347q.461-.127,1.068-.242l1.336-.246q.817-.158.817-.8a1.256,1.256,0,0,0-.492-1.1,2.1,2.1,0,0,0-1.239-.347,2.075,2.075,0,0,0-1.274.374,1.636,1.636,0,0,0-.6,1.182l-1.819-.334Q211.8,8,215.165,8a6.23,6.23,0,0,1,1.05.083,3.751,3.751,0,0,1,.958.3,2.756,2.756,0,0,1,.8.558,2.435,2.435,0,0,1,.536.9,3.743,3.743,0,0,1,.2,1.279v3.428a1.4,1.4,0,0,0,.185.844.8.8,0,0,0,.65.229h.141V17h-.958q-1.5,0-1.793-1.169h-.1a2.874,2.874,0,0,1-1.252,1.011A4.143,4.143,0,0,1,213.961,17.167Zm.475-1.591a2.351,2.351,0,0,0,1.767-.729,2.645,2.645,0,0,0,.7-1.916l-2.259.5a2.708,2.708,0,0,0-1.09.409.883.883,0,0,0-.36.751.849.849,0,0,0,.343.738A1.5,1.5,0,0,0,214.436,15.576ZM223.6,9.644a2.67,2.67,0,0,1,1.121-1.125,3.5,3.5,0,0,1,1.727-.457V9.907a3.115,3.115,0,0,0-2.087.593,2.523,2.523,0,0,0-.681,1.991V17h-2.03V8.158H223.6Zm14.836-1.485h2.021V17h-1.925l-.053-1.107a3.163,3.163,0,0,1-2.725,1.274,3.273,3.273,0,0,1-2.338-.8,2.96,2.96,0,0,1-.844-2.263V8.158h2.039v5.511a1.814,1.814,0,0,0,.488,1.393,1.781,1.781,0,0,0,1.261.453,2.051,2.051,0,0,0,1.49-.558,2.322,2.322,0,0,0,.584-1.718Zm9.589-.167a3.273,3.273,0,0,1,2.338.8,2.96,2.96,0,0,1,.844,2.263V17H249.17V11.489a1.814,1.814,0,0,0-.488-1.393,1.768,1.768,0,0,0-1.252-.453,2.066,2.066,0,0,0-1.494.558,2.311,2.311,0,0,0-.589,1.718V17h-2.021V8.158h2.021V9.2a2.987,2.987,0,0,1,1.138-.9A3.658,3.658,0,0,1,248.027,7.991Zm12.63,9.176a3.669,3.669,0,0,1-1.349-.233,2.144,2.144,0,0,1-.984-.791,2.353,2.353,0,0,1-.391-1.384,2.564,2.564,0,0,1,.18-.989,2.165,2.165,0,0,1,.475-.725,2.789,2.789,0,0,1,.747-.51,5.358,5.358,0,0,1,.914-.347q.461-.127,1.068-.242l1.336-.246q.817-.158.817-.8a1.256,1.256,0,0,0-.492-1.1,2.1,2.1,0,0,0-1.239-.347,2.075,2.075,0,0,0-1.274.374,1.636,1.636,0,0,0-.6,1.182l-1.819-.334Q258.5,8,261.861,8a6.23,6.23,0,0,1,1.05.083,3.751,3.751,0,0,1,.958.3,2.756,2.756,0,0,1,.8.558,2.435,2.435,0,0,1,.536.9,3.743,3.743,0,0,1,.2,1.279v3.428a1.4,1.4,0,0,0,.185.844.8.8,0,0,0,.65.229h.141V17h-.958q-1.5,0-1.793-1.169h-.1a2.874,2.874,0,0,1-1.252,1.011A4.143,4.143,0,0,1,260.657,17.167Zm.475-1.591a2.351,2.351,0,0,0,1.767-.729,2.645,2.645,0,0,0,.7-1.916l-2.259.5a2.708,2.708,0,0,0-1.09.409.883.883,0,0,0-.36.751.849.849,0,0,0,.343.738A1.5,1.5,0,0,0,261.132,15.576Zm12.894-7.418h2.021V17h-1.925l-.053-1.107a3.163,3.163,0,0,1-2.725,1.274,3.273,3.273,0,0,1-2.338-.8,2.96,2.96,0,0,1-.844-2.263V8.158H270.2v5.511a1.814,1.814,0,0,0,.488,1.393,1.781,1.781,0,0,0,1.261.453,2.051,2.051,0,0,0,1.49-.558,2.322,2.322,0,0,0,.584-1.718ZM281.971,17a2.5,2.5,0,0,1-1.863-.677,2.6,2.6,0,0,1-.668-1.907V9.74h-1.767V8.158h.606a1.382,1.382,0,0,0,1.042-.338,1.709,1.709,0,0,0,.321-1.182V5.267h1.846V8.158h1.925V9.74h-1.925v4.465a1.267,1.267,0,0,0,.3.918,1.093,1.093,0,0,0,.822.312h.8V17Zm7.374.167A4.647,4.647,0,0,1,286,15.923a4.421,4.421,0,0,1-1.3-3.353A4.4,4.4,0,0,1,286,9.235a5.149,5.149,0,0,1,6.706,0,4.4,4.4,0,0,1,1.3,3.34,4.421,4.421,0,0,1-1.3,3.353A4.658,4.658,0,0,1,289.345,17.167Zm-.018-1.635a2.479,2.479,0,0,0,1.916-.817,3.055,3.055,0,0,0,.747-2.145,3.039,3.039,0,0,0-.747-2.14,2.485,2.485,0,0,0-1.916-.813,2.428,2.428,0,0,0-1.881.813,3.061,3.061,0,0,0-.738,2.14,3.088,3.088,0,0,0,.734,2.145A2.419,2.419,0,0,0,289.327,15.532Zm8.763-5.889a2.67,2.67,0,0,1,1.121-1.125,3.5,3.5,0,0,1,1.727-.457V9.907a3.115,3.115,0,0,0-2.087.593,2.523,2.523,0,0,0-.681,1.991V17h-2.03V8.158h1.951Zm4.518,10.564h-1.459l1.09-5.6h2.092Zm14.678-12.05h2.021V17h-1.925l-.053-1.107a3.163,3.163,0,0,1-2.725,1.274,3.273,3.273,0,0,1-2.338-.8,2.96,2.96,0,0,1-.844-2.263V8.158h2.039v5.511a1.814,1.814,0,0,0,.488,1.393,1.781,1.781,0,0,0,1.261.453,2.051,2.051,0,0,0,1.49-.558,2.322,2.322,0,0,0,.584-1.718Zm9.589-.167a3.273,3.273,0,0,1,2.338.8,2.96,2.96,0,0,1,.844,2.263V17h-2.039V11.489a1.814,1.814,0,0,0-.488-1.393,1.768,1.768,0,0,0-1.252-.453,2.066,2.066,0,0,0-1.494.558,2.311,2.311,0,0,0-.589,1.718V17h-2.021V8.158h2.021V9.2a2.987,2.987,0,0,1,1.138-.9A3.658,3.658,0,0,1,326.874,7.991ZM340.479,17a2.5,2.5,0,0,1-1.863-.677,2.6,2.6,0,0,1-.668-1.907V9.74h-1.767V8.158h.606a1.382,1.382,0,0,0,1.042-.338,1.709,1.709,0,0,0,.321-1.182V5.267H340V8.158h1.925V9.74H340v4.465a1.267,1.267,0,0,0,.3.918,1.093,1.093,0,0,0,.822.312h.8V17Zm11.479-4.57-.026.51h-6.724a2.667,2.667,0,0,0,.773,1.934,2.525,2.525,0,0,0,1.784.668,2.424,2.424,0,0,0,1.314-.36,2.272,2.272,0,0,0,.875-1.028l1.846.316a3.886,3.886,0,0,1-1.529,1.986,4.392,4.392,0,0,1-2.487.712,4.533,4.533,0,0,1-3.313-1.222,4.494,4.494,0,0,1-1.248-3.366,4.512,4.512,0,0,1,1.248-3.366,4.433,4.433,0,0,1,3.252-1.23,4.21,4.21,0,0,1,3.067,1.129A4.453,4.453,0,0,1,351.958,12.43ZM347.73,9.485a2.58,2.58,0,0,0-1.6.479,2.332,2.332,0,0,0-.839,1.463h4.632a2.131,2.131,0,0,0-.7-1.45A2.251,2.251,0,0,0,347.73,9.485ZM352.538,17l3.516-4.43-3.516-4.412h2.514l2.232,3.085,2.241-3.085h2.5l-3.533,4.421L362.021,17h-2.5l-2.224-3.059L355.052,17Zm14.168,0a2.5,2.5,0,0,1-1.863-.677,2.6,2.6,0,0,1-.668-1.907V9.74h-1.767V8.158h.606a1.382,1.382,0,0,0,1.042-.338,1.709,1.709,0,0,0,.321-1.182V5.267h1.846V8.158h1.925V9.74h-1.925v4.465a1.267,1.267,0,0,0,.3.918,1.093,1.093,0,0,0,.822.312h.8V17Zm7.374.167a4.647,4.647,0,0,1-3.349-1.244,4.421,4.421,0,0,1-1.3-3.353,4.4,4.4,0,0,1,1.3-3.335,5.149,5.149,0,0,1,6.706,0,4.4,4.4,0,0,1,1.3,3.34,4.421,4.421,0,0,1-1.3,3.353A4.658,4.658,0,0,1,374.08,17.167Zm-.018-1.635a2.479,2.479,0,0,0,1.916-.817,3.055,3.055,0,0,0,.747-2.145,3.039,3.039,0,0,0-.747-2.14,2.485,2.485,0,0,0-1.916-.813,2.428,2.428,0,0,0-1.881.813,3.061,3.061,0,0,0-.738,2.14,3.088,3.088,0,0,0,.734,2.145A2.419,2.419,0,0,0,374.063,15.532Zm7.392,4.676H380l1.09-5.6h2.092Zm14.678-12.05h2.021V17h-1.925l-.053-1.107a3.163,3.163,0,0,1-2.725,1.274,3.273,3.273,0,0,1-2.338-.8,2.96,2.96,0,0,1-.844-2.263V8.158h2.039v5.511a1.814,1.814,0,0,0,.488,1.393,1.781,1.781,0,0,0,1.261.453,2.051,2.051,0,0,0,1.49-.558,2.322,2.322,0,0,0,.584-1.718Zm9.589-.167a3.273,3.273,0,0,1,2.338.8,2.96,2.96,0,0,1,.844,2.263V17h-2.039V11.489a1.814,1.814,0,0,0-.488-1.393,1.768,1.768,0,0,0-1.252-.453,2.066,2.066,0,0,0-1.494.558,2.311,2.311,0,0,0-.589,1.718V17h-2.021V8.158h2.021V9.2a2.987,2.987,0,0,1,1.138-.9A3.658,3.658,0,0,1,405.721,7.991ZM416.268,17V3.5h2.039V17ZM426.85,8.158h2.021V17h-1.925l-.053-1.107a3.163,3.163,0,0,1-2.725,1.274,3.273,3.273,0,0,1-2.338-.8,2.96,2.96,0,0,1-.844-2.263V8.158h2.039v5.511a1.814,1.814,0,0,0,.488,1.393,1.781,1.781,0,0,0,1.261.453,2.051,2.051,0,0,0,1.49-.558,2.322,2.322,0,0,0,.584-1.718Zm11.118,0h1.951v8.288a4.813,4.813,0,0,1-1.191,3.546,4.473,4.473,0,0,1-3.309,1.191q-3.349,0-4.43-2.725l1.679-.756a3.11,3.11,0,0,0,1.037,1.4,2.756,2.756,0,0,0,1.635.461,2.319,2.319,0,0,0,1.9-.778,3.387,3.387,0,0,0,.642-2.21v-1.31a2.923,2.923,0,0,1-1.182,1.05,3.664,3.664,0,0,1-1.7.4,3.8,3.8,0,0,1-2.861-1.23,4.374,4.374,0,0,1-1.173-3.146,4.794,4.794,0,0,1,.325-1.78,4.076,4.076,0,0,1,.875-1.38,4,4,0,0,1,1.288-.875,3.93,3.93,0,0,1,1.564-.316,3.552,3.552,0,0,1,1.736.426,2.85,2.85,0,0,1,1.165,1.129Zm-2.479,6.891a2.418,2.418,0,0,0,1.828-.791,2.842,2.842,0,0,0,0-3.836,2.528,2.528,0,0,0-3.661-.022,2.7,2.7,0,0,0-.738,1.942,2.677,2.677,0,0,0,.747,1.929A2.427,2.427,0,0,0,435.489,15.049Zm9.369,2.118a3.669,3.669,0,0,1-1.349-.233,2.144,2.144,0,0,1-.984-.791,2.353,2.353,0,0,1-.391-1.384,2.564,2.564,0,0,1,.18-.989,2.165,2.165,0,0,1,.475-.725,2.789,2.789,0,0,1,.747-.51,5.358,5.358,0,0,1,.914-.347q.461-.127,1.068-.242l1.336-.246q.817-.158.817-.8a1.256,1.256,0,0,0-.492-1.1,2.1,2.1,0,0,0-1.239-.347,2.075,2.075,0,0,0-1.274.374,1.636,1.636,0,0,0-.6,1.182l-1.819-.334Q442.7,8,446.063,8a6.23,6.23,0,0,1,1.05.083,3.751,3.751,0,0,1,.958.3,2.756,2.756,0,0,1,.8.558,2.435,2.435,0,0,1,.536.9,3.743,3.743,0,0,1,.2,1.279v3.428a1.4,1.4,0,0,0,.185.844.8.8,0,0,0,.65.229h.141V17h-.958q-1.5,0-1.793-1.169h-.1a2.874,2.874,0,0,1-1.252,1.011A4.143,4.143,0,0,1,444.858,17.167Zm.475-1.591a2.351,2.351,0,0,0,1.767-.729,2.645,2.645,0,0,0,.7-1.916l-2.259.5a2.708,2.708,0,0,0-1.09.409.883.883,0,0,0-.36.751.849.849,0,0,0,.343.738A1.5,1.5,0,0,0,445.333,15.576ZM454.5,9.644a2.67,2.67,0,0,1,1.121-1.125,3.5,3.5,0,0,1,1.727-.457V9.907a3.115,3.115,0,0,0-2.087.593,2.523,2.523,0,0,0-.681,1.991V17h-2.03V8.158H454.5Zm4.518,10.564h-1.459l1.09-5.6h2.092Zm17.024-7.778-.026.51h-6.724a2.667,2.667,0,0,0,.773,1.934,2.525,2.525,0,0,0,1.784.668,2.424,2.424,0,0,0,1.314-.36,2.272,2.272,0,0,0,.875-1.028l1.846.316a3.886,3.886,0,0,1-1.529,1.986,4.392,4.392,0,0,1-2.487.712,4.533,4.533,0,0,1-3.313-1.222,4.494,4.494,0,0,1-1.248-3.366,4.512,4.512,0,0,1,1.248-3.366,4.433,4.433,0,0,1,3.252-1.23,4.21,4.21,0,0,1,3.067,1.129A4.453,4.453,0,0,1,476.042,12.43Zm-4.228-2.944a2.58,2.58,0,0,0-1.6.479,2.332,2.332,0,0,0-.839,1.463h4.632a2.131,2.131,0,0,0-.7-1.45A2.251,2.251,0,0,0,471.814,9.485ZM481.254,17a2.5,2.5,0,0,1-1.863-.677,2.6,2.6,0,0,1-.668-1.907V9.74h-1.767V8.158h.606A1.382,1.382,0,0,0,478.6,7.82a1.709,1.709,0,0,0,.321-1.182V5.267h1.846V8.158H482.7V9.74h-1.925v4.465a1.267,1.267,0,0,0,.3.918,1.093,1.093,0,0,0,.822.312h.8V17Zm7.286.158a4.376,4.376,0,0,1-4.579-4.588,4.439,4.439,0,0,1,1.288-3.313,4.92,4.92,0,0,1,6-.453,3.838,3.838,0,0,1,1.481,2.272l-1.881.246a2.356,2.356,0,0,0-.866-1.266,2.439,2.439,0,0,0-1.463-.439,2.32,2.32,0,0,0-1.828.813,3.131,3.131,0,0,0-.712,2.14,3.131,3.131,0,0,0,.712,2.14,2.32,2.32,0,0,0,1.828.813,2.456,2.456,0,0,0,1.463-.435,2.334,2.334,0,0,0,.866-1.261l1.881.237a3.843,3.843,0,0,1-1.49,2.276A4.485,4.485,0,0,1,488.54,17.158Zm7.409.018a1.2,1.2,0,0,1-.87-.365,1.21,1.21,0,0,1,0-1.74,1.237,1.237,0,0,1,2.109.875,1.178,1.178,0,0,1-.365.87A1.2,1.2,0,0,1,495.949,17.176Zm5.81,3.032H500.3l1.09-5.6h2.092ZM7.9,30.158H9.835V43.377H7.813v-5.7A2.812,2.812,0,0,1,6.631,38.8a3.669,3.669,0,0,1-1.718.4,3.968,3.968,0,0,1-2.984-1.261A4.644,4.644,0,0,1,.721,34.588a5.341,5.341,0,0,1,.334-1.92,4.15,4.15,0,0,1,.905-1.455,4.07,4.07,0,0,1,1.332-.9,4.128,4.128,0,0,1,1.622-.321,3.65,3.65,0,0,1,1.753.422,2.806,2.806,0,0,1,1.182,1.16Zm-2.558,7.33a2.443,2.443,0,0,0,1.876-.817,2.958,2.958,0,0,0,.751-2.083,2.92,2.92,0,0,0-.756-2.07,2.453,2.453,0,0,0-1.872-.813,2.461,2.461,0,0,0-1.854.782,2.915,2.915,0,0,0-.747,2.1A2.946,2.946,0,0,0,3.489,36.7,2.447,2.447,0,0,0,5.344,37.488Zm13.034-7.33H20.4V39H18.475l-.053-1.107A3.163,3.163,0,0,1,15.7,39.167a3.273,3.273,0,0,1-2.338-.8,2.96,2.96,0,0,1-.844-2.263v-5.95h2.039v5.511a1.814,1.814,0,0,0,.488,1.393,1.781,1.781,0,0,0,1.261.453,2.051,2.051,0,0,0,1.49-.558,2.322,2.322,0,0,0,.584-1.718ZM31.289,34.43l-.026.51H24.539a2.667,2.667,0,0,0,.773,1.934,2.525,2.525,0,0,0,1.784.668,2.424,2.424,0,0,0,1.314-.36,2.272,2.272,0,0,0,.875-1.028l1.846.316A3.886,3.886,0,0,1,29.6,38.455a4.392,4.392,0,0,1-2.487.712A4.747,4.747,0,0,1,23.8,31.213a4.433,4.433,0,0,1,3.252-1.23,4.21,4.21,0,0,1,3.067,1.129A4.453,4.453,0,0,1,31.289,34.43Zm-4.228-2.944a2.58,2.58,0,0,0-1.6.479,2.332,2.332,0,0,0-.839,1.463h4.632a2.131,2.131,0,0,0-.7-1.45A2.251,2.251,0,0,0,27.062,31.485Zm14.01,7.682a4.552,4.552,0,0,1-2.479-.628,2.623,2.623,0,0,1-1.213-1.824l1.714-.483a1.832,1.832,0,0,0,.694,1.112,2.138,2.138,0,0,0,1.283.374,2.049,2.049,0,0,0,1.072-.264.9.9,0,0,0,.431-.853.824.824,0,0,0-.114-.435,1.2,1.2,0,0,0-.272-.316,1.9,1.9,0,0,0-.453-.25,5.107,5.107,0,0,0-.536-.193l-.655-.193q-.413-.123-.686-.211a6.249,6.249,0,0,1-.844-.325,4,4,0,0,1-.694-.439,1.72,1.72,0,0,1-.532-.69,2.434,2.434,0,0,1-.18-.971,2.324,2.324,0,0,1,.448-1.45,2.549,2.549,0,0,1,1.178-.857A4.824,4.824,0,0,1,40.9,30a4.127,4.127,0,0,1,2.237.571,2.5,2.5,0,0,1,1.129,1.749l-1.6.378a1.594,1.594,0,0,0-.637-.984,2.178,2.178,0,0,0-2.145-.066.828.828,0,0,0-.417.76,1.032,1.032,0,0,0,.031.259.506.506,0,0,0,.119.215l.158.171a.825.825,0,0,0,.229.154q.158.079.255.123a2.767,2.767,0,0,0,.316.11l.325.1q.105.031.365.1l.365.092q.492.132.839.246a4.843,4.843,0,0,1,.765.338,2.665,2.665,0,0,1,.677.5,2.219,2.219,0,0,1,.435.708,2.571,2.571,0,0,1,.176.971,2.623,2.623,0,0,1-.281,1.244,2.139,2.139,0,0,1-.769.835,3.768,3.768,0,0,1-1.09.453A5.449,5.449,0,0,1,41.071,39.167ZM54.659,34.43l-.026.51H47.909a2.667,2.667,0,0,0,.773,1.934,2.525,2.525,0,0,0,1.784.668,2.424,2.424,0,0,0,1.314-.36,2.272,2.272,0,0,0,.875-1.028l1.846.316a3.886,3.886,0,0,1-1.529,1.986,4.392,4.392,0,0,1-2.487.712,4.747,4.747,0,0,1-3.313-7.954,4.433,4.433,0,0,1,3.252-1.23,4.21,4.21,0,0,1,3.067,1.129A4.453,4.453,0,0,1,54.659,34.43Zm-4.228-2.944a2.58,2.58,0,0,0-1.6.479A2.332,2.332,0,0,0,48,33.428h4.632a2.131,2.131,0,0,0-.7-1.45A2.251,2.251,0,0,0,50.432,31.485Zm13.14,7.682a3.669,3.669,0,0,1-1.349-.233,2.144,2.144,0,0,1-.984-.791,2.353,2.353,0,0,1-.391-1.384,2.564,2.564,0,0,1,.18-.989,2.165,2.165,0,0,1,.475-.725,2.789,2.789,0,0,1,.747-.51,5.358,5.358,0,0,1,.914-.347q.461-.127,1.068-.242l1.336-.246q.817-.158.817-.8a1.256,1.256,0,0,0-.492-1.1,2.1,2.1,0,0,0-1.239-.347,2.075,2.075,0,0,0-1.274.374,1.636,1.636,0,0,0-.6,1.182l-1.819-.334Q61.409,30,64.775,30a6.23,6.23,0,0,1,1.05.083,3.751,3.751,0,0,1,.958.3,2.756,2.756,0,0,1,.8.558,2.435,2.435,0,0,1,.536.9,3.743,3.743,0,0,1,.2,1.279v3.428a1.4,1.4,0,0,0,.185.844.8.8,0,0,0,.65.229H69.3V39h-.958q-1.5,0-1.793-1.169h-.1A2.874,2.874,0,0,1,65.2,38.842,4.143,4.143,0,0,1,63.571,39.167Zm.475-1.591a2.351,2.351,0,0,0,1.767-.729,2.645,2.645,0,0,0,.7-1.916l-2.259.5a2.708,2.708,0,0,0-1.09.409.883.883,0,0,0-.36.751.849.849,0,0,0,.343.738A1.5,1.5,0,0,0,64.046,37.576ZM71.262,39V25.5H73.3V39ZM84.19,34.43l-.026.51H77.44a2.667,2.667,0,0,0,.773,1.934A2.525,2.525,0,0,0,80,37.541a2.424,2.424,0,0,0,1.314-.36,2.272,2.272,0,0,0,.875-1.028l1.846.316A3.886,3.886,0,0,1,82.5,38.455a4.392,4.392,0,0,1-2.487.712A4.747,4.747,0,0,1,76.7,31.213a4.433,4.433,0,0,1,3.252-1.23,4.21,4.21,0,0,1,3.067,1.129A4.453,4.453,0,0,1,84.19,34.43Zm-4.228-2.944a2.58,2.58,0,0,0-1.6.479,2.332,2.332,0,0,0-.839,1.463H82.16a2.131,2.131,0,0,0-.7-1.45A2.251,2.251,0,0,0,79.963,31.485Zm12.612-1.327h1.951v8.288a4.813,4.813,0,0,1-1.191,3.546,4.473,4.473,0,0,1-3.309,1.191q-3.349,0-4.43-2.725l1.679-.756a3.11,3.11,0,0,0,1.037,1.4,2.756,2.756,0,0,0,1.635.461,2.319,2.319,0,0,0,1.9-.778,3.387,3.387,0,0,0,.642-2.21v-1.31a2.923,2.923,0,0,1-1.182,1.05,3.664,3.664,0,0,1-1.7.4,3.8,3.8,0,0,1-2.861-1.23,4.374,4.374,0,0,1-1.173-3.146,4.794,4.794,0,0,1,.325-1.78,4.076,4.076,0,0,1,.875-1.38,4,4,0,0,1,1.288-.875,3.93,3.93,0,0,1,1.564-.316,3.552,3.552,0,0,1,1.736.426,2.85,2.85,0,0,1,1.165,1.129ZM90.1,37.049a2.418,2.418,0,0,0,1.828-.791,2.842,2.842,0,0,0,0-3.836,2.528,2.528,0,0,0-3.661-.022,2.894,2.894,0,0,0,.009,3.872A2.427,2.427,0,0,0,90.1,37.049Zm9.369,2.118a3.669,3.669,0,0,1-1.349-.233,2.144,2.144,0,0,1-.984-.791,2.353,2.353,0,0,1-.391-1.384,2.564,2.564,0,0,1,.18-.989,2.165,2.165,0,0,1,.475-.725,2.789,2.789,0,0,1,.747-.51,5.358,5.358,0,0,1,.914-.347q.461-.127,1.068-.242l1.336-.246q.817-.158.817-.8a1.256,1.256,0,0,0-.492-1.1,2.1,2.1,0,0,0-1.239-.347,2.075,2.075,0,0,0-1.274.374,1.636,1.636,0,0,0-.6,1.182l-1.819-.334Q97.3,30,100.67,30a6.23,6.23,0,0,1,1.05.083,3.751,3.751,0,0,1,.958.3,2.756,2.756,0,0,1,.8.558,2.435,2.435,0,0,1,.536.9,3.743,3.743,0,0,1,.2,1.279v3.428a1.4,1.4,0,0,0,.185.844.8.8,0,0,0,.65.229h.141V39h-.958q-1.5,0-1.793-1.169h-.1a2.874,2.874,0,0,1-1.252,1.011A4.143,4.143,0,0,1,99.466,39.167Zm.475-1.591a2.351,2.351,0,0,0,1.767-.729,2.645,2.645,0,0,0,.7-1.916l-2.259.5a2.708,2.708,0,0,0-1.09.409.883.883,0,0,0-.36.751.849.849,0,0,0,.343.738A1.5,1.5,0,0,0,99.94,37.576Zm19.916-3.146-.026.51h-6.724a2.667,2.667,0,0,0,.773,1.934,2.525,2.525,0,0,0,1.784.668,2.424,2.424,0,0,0,1.314-.36,2.272,2.272,0,0,0,.875-1.028l1.846.316a3.886,3.886,0,0,1-1.529,1.986,4.392,4.392,0,0,1-2.487.712,4.747,4.747,0,0,1-3.313-7.954,4.433,4.433,0,0,1,3.252-1.23,4.21,4.21,0,0,1,3.067,1.129A4.453,4.453,0,0,1,119.856,34.43Zm-4.228-2.944a2.58,2.58,0,0,0-1.6.479,2.332,2.332,0,0,0-.839,1.463h4.632a2.131,2.131,0,0,0-.7-1.45A2.251,2.251,0,0,0,115.629,31.485Zm11.083-1.494a3.273,3.273,0,0,1,2.338.8,2.96,2.96,0,0,1,.844,2.263V39h-2.039V33.489a1.814,1.814,0,0,0-.488-1.393,1.768,1.768,0,0,0-1.252-.453,2.066,2.066,0,0,0-1.494.558,2.311,2.311,0,0,0-.589,1.718V39H122.01V30.158h2.021V31.2a2.987,2.987,0,0,1,1.138-.9A3.658,3.658,0,0,1,126.712,29.991ZM137.259,39V25.5H139.3V39Zm8.824.167a4.647,4.647,0,0,1-3.349-1.244,4.421,4.421,0,0,1-1.3-3.353,4.4,4.4,0,0,1,1.3-3.335,5.149,5.149,0,0,1,6.706,0,4.4,4.4,0,0,1,1.3,3.34,4.421,4.421,0,0,1-1.3,3.353A4.658,4.658,0,0,1,146.083,39.167Zm-.018-1.635a2.479,2.479,0,0,0,1.916-.817,3.445,3.445,0,0,0,0-4.285,2.485,2.485,0,0,0-1.916-.813,2.428,2.428,0,0,0-1.881.813,3.486,3.486,0,0,0,0,4.285A2.419,2.419,0,0,0,146.065,37.532Zm17.956-7.374h1.934V43.377h-2.021v-5.7a2.812,2.812,0,0,1-1.182,1.116,3.669,3.669,0,0,1-1.718.4,3.968,3.968,0,0,1-2.984-1.261,4.644,4.644,0,0,1-1.208-3.353,5.341,5.341,0,0,1,.334-1.92,4.15,4.15,0,0,1,.905-1.455,4.07,4.07,0,0,1,1.332-.9,4.128,4.128,0,0,1,1.622-.321,3.65,3.65,0,0,1,1.753.422,2.806,2.806,0,0,1,1.182,1.16Zm-2.558,7.33a2.443,2.443,0,0,0,1.876-.817,2.958,2.958,0,0,0,.751-2.083,2.92,2.92,0,0,0-.756-2.07,2.575,2.575,0,0,0-3.727-.031,2.915,2.915,0,0,0-.747,2.1,2.946,2.946,0,0,0,.747,2.109A2.447,2.447,0,0,0,161.464,37.488Zm13.034-7.33h2.021V39h-1.925l-.053-1.107a3.163,3.163,0,0,1-2.725,1.274,3.273,3.273,0,0,1-2.338-.8,2.96,2.96,0,0,1-.844-2.263v-5.95h2.039v5.511a1.814,1.814,0,0,0,.488,1.393,1.781,1.781,0,0,0,1.261.453,2.051,2.051,0,0,0,1.49-.558,2.322,2.322,0,0,0,.584-1.718Zm12.911,4.271-.026.51h-6.724a2.667,2.667,0,0,0,.773,1.934,2.525,2.525,0,0,0,1.784.668,2.424,2.424,0,0,0,1.314-.36,2.272,2.272,0,0,0,.875-1.028l1.846.316a3.886,3.886,0,0,1-1.529,1.986,4.392,4.392,0,0,1-2.487.712,4.747,4.747,0,0,1-3.313-7.954,4.433,4.433,0,0,1,3.252-1.23,4.21,4.21,0,0,1,3.067,1.129A4.453,4.453,0,0,1,187.409,34.43Zm-4.228-2.944a2.58,2.58,0,0,0-1.6.479,2.332,2.332,0,0,0-.839,1.463h4.632a2.131,2.131,0,0,0-.7-1.45A2.251,2.251,0,0,0,183.182,31.485Zm14.01,7.682a4.552,4.552,0,0,1-2.479-.628,2.623,2.623,0,0,1-1.213-1.824l1.714-.483a1.832,1.832,0,0,0,.694,1.112,2.138,2.138,0,0,0,1.283.374,2.049,2.049,0,0,0,1.072-.264.9.9,0,0,0,.431-.853.824.824,0,0,0-.114-.435,1.2,1.2,0,0,0-.272-.316,1.9,1.9,0,0,0-.453-.25,5.107,5.107,0,0,0-.536-.193l-.655-.193q-.413-.123-.686-.211a6.249,6.249,0,0,1-.844-.325,4,4,0,0,1-.694-.439,1.72,1.72,0,0,1-.532-.69,2.434,2.434,0,0,1-.18-.971,2.324,2.324,0,0,1,.448-1.45,2.549,2.549,0,0,1,1.178-.857,4.824,4.824,0,0,1,1.67-.268,4.127,4.127,0,0,1,2.237.571,2.5,2.5,0,0,1,1.129,1.749l-1.6.378a1.594,1.594,0,0,0-.637-.984,2.178,2.178,0,0,0-2.145-.066.828.828,0,0,0-.417.76,1.032,1.032,0,0,0,.031.259.506.506,0,0,0,.119.215l.158.171a.825.825,0,0,0,.229.154q.158.079.255.123a2.767,2.767,0,0,0,.316.11l.325.1q.105.031.365.1l.365.092q.492.132.839.246a4.843,4.843,0,0,1,.765.338,2.665,2.665,0,0,1,.677.5,2.219,2.219,0,0,1,.435.708,2.571,2.571,0,0,1,.176.971,2.623,2.623,0,0,1-.281,1.244,2.139,2.139,0,0,1-.769.835,3.768,3.768,0,0,1-1.09.453A5.449,5.449,0,0,1,197.191,39.167Zm13.588-4.737-.026.51h-6.724a2.667,2.667,0,0,0,.773,1.934,2.525,2.525,0,0,0,1.784.668,2.424,2.424,0,0,0,1.314-.36,2.272,2.272,0,0,0,.875-1.028l1.846.316a3.886,3.886,0,0,1-1.529,1.986,4.392,4.392,0,0,1-2.487.712,4.747,4.747,0,0,1-3.313-7.954,4.433,4.433,0,0,1,3.252-1.23,4.21,4.21,0,0,1,3.067,1.129A4.453,4.453,0,0,1,210.779,34.43Zm-4.228-2.944a2.58,2.58,0,0,0-1.6.479,2.332,2.332,0,0,0-.839,1.463h4.632a2.131,2.131,0,0,0-.7-1.45A2.251,2.251,0,0,0,206.552,31.485ZM224,25.5h2.021V39h-1.934l-.053-1.406a2.845,2.845,0,0,1-1.182,1.178,3.608,3.608,0,0,1-1.762.431,4.1,4.1,0,0,1-2.953-1.235,4.2,4.2,0,0,1-.905-1.459,5.341,5.341,0,0,1-.334-1.92,5.28,5.28,0,0,1,.334-1.907,4.2,4.2,0,0,1,.905-1.455,4.116,4.116,0,0,1,2.953-1.235,3.656,3.656,0,0,1,1.727.409A2.84,2.84,0,0,1,224,31.521Zm-4.329,11.188a2.458,2.458,0,0,0,1.868.8,2.42,2.42,0,0,0,1.863-.817,3.258,3.258,0,0,0,0-4.157,2.424,2.424,0,0,0-1.859-.817,2.465,2.465,0,0,0-1.868.8,3.305,3.305,0,0,0,0,4.2Zm10.252-8.218a1.207,1.207,0,0,1-.879-.365,1.226,1.226,0,0,1,0-1.749,1.236,1.236,0,0,1,1.753,0,1.239,1.239,0,0,1-.87,2.114ZM228.885,39V30.158h2.03V39Zm8.728.158a4.376,4.376,0,0,1-4.579-4.588,4.439,4.439,0,0,1,1.288-3.313,4.92,4.92,0,0,1,6-.453,3.838,3.838,0,0,1,1.481,2.272l-1.881.246a2.356,2.356,0,0,0-.866-1.266,2.439,2.439,0,0,0-1.463-.439,2.32,2.32,0,0,0-1.828.813,3.573,3.573,0,0,0,0,4.28,2.32,2.32,0,0,0,1.828.813,2.456,2.456,0,0,0,1.463-.435,2.334,2.334,0,0,0,.866-1.261l1.881.237a3.843,3.843,0,0,1-1.49,2.276A4.485,4.485,0,0,1,237.612,39.158Zm14.247-4.729-.026.51h-6.724a2.667,2.667,0,0,0,.773,1.934,2.525,2.525,0,0,0,1.784.668,2.424,2.424,0,0,0,1.314-.36,2.272,2.272,0,0,0,.875-1.028l1.846.316a3.886,3.886,0,0,1-1.529,1.986,4.392,4.392,0,0,1-2.487.712,4.747,4.747,0,0,1-3.313-7.954,4.433,4.433,0,0,1,3.252-1.23,4.21,4.21,0,0,1,3.067,1.129A4.453,4.453,0,0,1,251.859,34.43Zm-4.228-2.944a2.58,2.58,0,0,0-1.6.479,2.332,2.332,0,0,0-.839,1.463h4.632a2.131,2.131,0,0,0-.7-1.45A2.251,2.251,0,0,0,247.632,31.485Zm14.977,7.682a4.647,4.647,0,0,1-3.349-1.244,4.421,4.421,0,0,1-1.3-3.353,4.4,4.4,0,0,1,1.3-3.335,5.149,5.149,0,0,1,6.706,0,4.4,4.4,0,0,1,1.3,3.34,4.421,4.421,0,0,1-1.3,3.353A4.658,4.658,0,0,1,262.608,39.167Zm-.018-1.635a2.479,2.479,0,0,0,1.916-.817,3.445,3.445,0,0,0,0-4.285,2.485,2.485,0,0,0-1.916-.813,2.428,2.428,0,0,0-1.881.813,3.486,3.486,0,0,0,0,4.285A2.419,2.419,0,0,0,262.591,37.532Zm19.512-3.1-.026.51h-6.724a2.667,2.667,0,0,0,.773,1.934,2.525,2.525,0,0,0,1.784.668,2.424,2.424,0,0,0,1.314-.36,2.272,2.272,0,0,0,.875-1.028l1.846.316a3.886,3.886,0,0,1-1.529,1.986,4.392,4.392,0,0,1-2.487.712,4.747,4.747,0,0,1-3.313-7.954,4.433,4.433,0,0,1,3.252-1.23,4.21,4.21,0,0,1,3.067,1.129A4.453,4.453,0,0,1,282.1,34.43Zm-4.228-2.944a2.58,2.58,0,0,0-1.6.479,2.332,2.332,0,0,0-.839,1.463h4.632a2.131,2.131,0,0,0-.7-1.45A2.251,2.251,0,0,0,277.875,31.485Zm9.334,7.682a4.552,4.552,0,0,1-2.479-.628,2.623,2.623,0,0,1-1.213-1.824l1.714-.483a1.832,1.832,0,0,0,.694,1.112,2.138,2.138,0,0,0,1.283.374,2.049,2.049,0,0,0,1.072-.264.9.9,0,0,0,.431-.853.824.824,0,0,0-.114-.435,1.2,1.2,0,0,0-.272-.316,1.9,1.9,0,0,0-.453-.25,5.107,5.107,0,0,0-.536-.193l-.655-.193q-.413-.123-.686-.211a6.249,6.249,0,0,1-.844-.325,4,4,0,0,1-.694-.439,1.72,1.72,0,0,1-.532-.69,2.434,2.434,0,0,1-.18-.971,2.324,2.324,0,0,1,.448-1.45,2.549,2.549,0,0,1,1.178-.857,4.824,4.824,0,0,1,1.67-.268,4.127,4.127,0,0,1,2.237.571,2.5,2.5,0,0,1,1.129,1.749l-1.6.378a1.594,1.594,0,0,0-.637-.984,2.178,2.178,0,0,0-2.145-.066.828.828,0,0,0-.417.76,1.032,1.032,0,0,0,.031.259.506.506,0,0,0,.119.215l.158.171a.825.825,0,0,0,.229.154q.158.079.255.123a2.767,2.767,0,0,0,.316.11l.325.1q.105.031.365.1l.365.092q.492.132.839.246a4.843,4.843,0,0,1,.765.338,2.665,2.665,0,0,1,.677.5,2.219,2.219,0,0,1,.435.708,2.571,2.571,0,0,1,.176.971,2.623,2.623,0,0,1-.281,1.244,2.139,2.139,0,0,1-.769.835,3.768,3.768,0,0,1-1.09.453A5.449,5.449,0,0,1,287.209,39.167Zm9.4-.009a4.376,4.376,0,0,1-4.579-4.588,4.439,4.439,0,0,1,1.288-3.313,4.92,4.92,0,0,1,6-.453,3.838,3.838,0,0,1,1.481,2.272l-1.881.246a2.356,2.356,0,0,0-.866-1.266,2.439,2.439,0,0,0-1.463-.439,2.32,2.32,0,0,0-1.828.813,3.573,3.573,0,0,0,0,4.28,2.32,2.32,0,0,0,1.828.813,2.456,2.456,0,0,0,1.463-.435,2.334,2.334,0,0,0,.866-1.261l1.881.237a3.843,3.843,0,0,1-1.49,2.276A4.485,4.485,0,0,1,296.6,39.158Zm8.174-7.515a2.67,2.67,0,0,1,1.121-1.125,3.5,3.5,0,0,1,1.727-.457v1.846a3.115,3.115,0,0,0-2.087.593,2.523,2.523,0,0,0-.681,1.991V39h-2.03V30.158h1.951Zm5.52-3.173a1.207,1.207,0,0,1-.879-.365,1.226,1.226,0,0,1,0-1.749,1.236,1.236,0,0,1,1.753,0,1.239,1.239,0,0,1-.87,2.114ZM309.261,39V30.158h2.03V39Zm9.835-9.009a4.089,4.089,0,0,1,1.617.325,4.034,4.034,0,0,1,1.332.91,4.24,4.24,0,0,1,.9,1.455,5.28,5.28,0,0,1,.334,1.907,5.4,5.4,0,0,1-.33,1.92,4.146,4.146,0,0,1-.9,1.459A4.1,4.1,0,0,1,319.1,39.2a3.622,3.622,0,0,1-1.775-.435,2.81,2.81,0,0,1-1.178-1.182L316.09,39h-1.934V25.5h2.013l.009,6.038a2.813,2.813,0,0,1,1.178-1.138A3.667,3.667,0,0,1,319.1,29.991Zm-2.32,6.68a2.42,2.42,0,0,0,1.863.817,2.458,2.458,0,0,0,1.868-.8,3.305,3.305,0,0,0,0-4.2,2.465,2.465,0,0,0-1.868-.8,2.424,2.424,0,0,0-1.859.817,3.258,3.258,0,0,0,0,4.157Zm16.682-2.241-.026.51h-6.724a2.667,2.667,0,0,0,.773,1.934,2.525,2.525,0,0,0,1.784.668,2.424,2.424,0,0,0,1.314-.36,2.272,2.272,0,0,0,.875-1.028l1.846.316a3.886,3.886,0,0,1-1.529,1.986,4.392,4.392,0,0,1-2.487.712,4.747,4.747,0,0,1-3.313-7.954,4.433,4.433,0,0,1,3.252-1.23,4.21,4.21,0,0,1,3.067,1.129A4.453,4.453,0,0,1,333.457,34.43Zm-4.228-2.944a2.58,2.58,0,0,0-1.6.479,2.332,2.332,0,0,0-.839,1.463h4.632a2.131,2.131,0,0,0-.7-1.45A2.251,2.251,0,0,0,329.229,31.485Zm7.567.58h-1.459l1.09-5.6h2.092Zm3.691,0h-1.459l1.09-5.6h2.092Zm10.178,7.11a1.2,1.2,0,0,1-.87-.365,1.21,1.21,0,0,1,0-1.74,1.237,1.237,0,0,1,2.109.875,1.178,1.178,0,0,1-.365.87A1.2,1.2,0,0,1,350.666,39.176Zm5.7,0a1.2,1.2,0,0,1-.87-.365,1.21,1.21,0,0,1,0-1.74,1.237,1.237,0,0,1,2.109.875,1.178,1.178,0,0,1-.365.87A1.2,1.2,0,0,1,356.361,39.176Zm5.625,0a1.2,1.2,0,0,1-.87-.365,1.21,1.21,0,0,1,0-1.74,1.237,1.237,0,0,1,2.109.875,1.178,1.178,0,0,1-.365.87A1.2,1.2,0,0,1,361.986,39.176Zm10.2-12.718h1.459l-1.09,5.6h-2.092Zm3.691,0h1.459l-1.09,5.6H374.15Zm8.859,3.533a3.04,3.04,0,0,1,2.263.831,3.289,3.289,0,0,1,.822,2.413V39h-2.039V33.586a1.962,1.962,0,0,0-.488-1.477,1.763,1.763,0,0,0-1.27-.466,2.069,2.069,0,0,0-1.468.549,2.285,2.285,0,0,0-.6,1.727V39h-2.021V25.5h2.021v5.766a3.071,3.071,0,0,1,1.169-.94A3.743,3.743,0,0,1,384.732,29.991Zm7.849,9.176a3.669,3.669,0,0,1-1.349-.233,2.144,2.144,0,0,1-.984-.791,2.353,2.353,0,0,1-.391-1.384,2.564,2.564,0,0,1,.18-.989,2.165,2.165,0,0,1,.475-.725,2.789,2.789,0,0,1,.747-.51,5.358,5.358,0,0,1,.914-.347q.461-.127,1.068-.242l1.336-.246q.817-.158.817-.8a1.256,1.256,0,0,0-.492-1.1,2.1,2.1,0,0,0-1.239-.347,2.075,2.075,0,0,0-1.274.374,1.636,1.636,0,0,0-.6,1.182l-1.819-.334Q390.419,30,393.785,30a6.23,6.23,0,0,1,1.05.083,3.751,3.751,0,0,1,.958.3,2.756,2.756,0,0,1,.8.558,2.435,2.435,0,0,1,.536.9,3.743,3.743,0,0,1,.2,1.279v3.428a1.4,1.4,0,0,0,.185.844.8.8,0,0,0,.65.229h.141V39h-.958q-1.5,0-1.793-1.169h-.1a2.874,2.874,0,0,1-1.252,1.011A4.143,4.143,0,0,1,392.581,39.167Zm.475-1.591a2.351,2.351,0,0,0,1.767-.729,2.645,2.645,0,0,0,.7-1.916l-2.259.5a2.708,2.708,0,0,0-1.09.409.883.883,0,0,0-.36.751.849.849,0,0,0,.343.738A1.5,1.5,0,0,0,393.056,37.576ZM403.9,39.158a4.376,4.376,0,0,1-4.579-4.588,4.439,4.439,0,0,1,1.288-3.313,4.92,4.92,0,0,1,6-.453,3.838,3.838,0,0,1,1.481,2.272l-1.881.246a2.356,2.356,0,0,0-.866-1.266,2.439,2.439,0,0,0-1.463-.439,2.32,2.32,0,0,0-1.828.813,3.573,3.573,0,0,0,0,4.28,2.32,2.32,0,0,0,1.828.813,2.456,2.456,0,0,0,1.463-.435,2.334,2.334,0,0,0,.866-1.261l1.881.237a3.843,3.843,0,0,1-1.49,2.276A4.485,4.485,0,0,1,403.9,39.158Zm14.247-4.729-.026.51H411.4a2.667,2.667,0,0,0,.773,1.934,2.525,2.525,0,0,0,1.784.668,2.424,2.424,0,0,0,1.314-.36,2.272,2.272,0,0,0,.875-1.028l1.846.316a3.886,3.886,0,0,1-1.529,1.986,4.392,4.392,0,0,1-2.487.712,4.747,4.747,0,0,1-3.313-7.954,4.433,4.433,0,0,1,3.252-1.23,4.21,4.21,0,0,1,3.067,1.129A4.453,4.453,0,0,1,418.148,34.43Zm-4.228-2.944a2.58,2.58,0,0,0-1.6.479,2.332,2.332,0,0,0-.839,1.463h4.632a2.131,2.131,0,0,0-.7-1.45A2.251,2.251,0,0,0,413.921,31.485Zm8.332.158a2.67,2.67,0,0,1,1.121-1.125,3.5,3.5,0,0,1,1.727-.457v1.846a3.115,3.115,0,0,0-2.087.593,2.523,2.523,0,0,0-.681,1.991V39H420.3V30.158h1.951Zm18.923-1.652a3.107,3.107,0,0,1,2.171.734,2.664,2.664,0,0,1,.809,2.079V39h-2.03V33.366a1.736,1.736,0,0,0-.439-1.288,1.509,1.509,0,0,0-1.107-.435,1.657,1.657,0,0,0-1.27.523,2.3,2.3,0,0,0-.488,1.613V39h-2.057V33.41a1.8,1.8,0,0,0-.444-1.318,1.522,1.522,0,0,0-1.129-.448,1.644,1.644,0,0,0-1.274.541,2.442,2.442,0,0,0-.492,1.683V39h-2.013V30.158h2.013v1.09a2.852,2.852,0,0,1,2.5-1.257,3.351,3.351,0,0,1,1.582.356,2.342,2.342,0,0,1,1.02,1.024A2.935,2.935,0,0,1,441.176,29.991Zm13.711,4.438-.026.51h-6.724a2.667,2.667,0,0,0,.773,1.934,2.525,2.525,0,0,0,1.784.668,2.424,2.424,0,0,0,1.314-.36,2.272,2.272,0,0,0,.875-1.028l1.846.316a3.886,3.886,0,0,1-1.529,1.986,4.392,4.392,0,0,1-2.487.712,4.747,4.747,0,0,1-3.313-7.954,4.433,4.433,0,0,1,3.252-1.23,4.21,4.21,0,0,1,3.067,1.129A4.453,4.453,0,0,1,454.887,34.43Zm-4.228-2.944a2.58,2.58,0,0,0-1.6.479,2.332,2.332,0,0,0-.839,1.463h4.632a2.131,2.131,0,0,0-.7-1.45A2.251,2.251,0,0,0,450.659,31.485Zm11.083-1.494a3.273,3.273,0,0,1,2.338.8,2.96,2.96,0,0,1,.844,2.263V39h-2.039V33.489A1.814,1.814,0,0,0,462.4,32.1a1.768,1.768,0,0,0-1.252-.453,2.066,2.066,0,0,0-1.494.558,2.311,2.311,0,0,0-.589,1.718V39H457.04V30.158h2.021V31.2a2.987,2.987,0,0,1,1.138-.9A3.658,3.658,0,0,1,461.742,29.991Zm9.7,9.167a4.376,4.376,0,0,1-4.579-4.588,4.439,4.439,0,0,1,1.288-3.313,4.92,4.92,0,0,1,6-.453,3.838,3.838,0,0,1,1.481,2.272l-1.881.246a2.356,2.356,0,0,0-.866-1.266,2.439,2.439,0,0,0-1.463-.439,2.32,2.32,0,0,0-1.828.813,3.573,3.573,0,0,0,0,4.28,2.32,2.32,0,0,0,1.828.813,2.456,2.456,0,0,0,1.463-.435,2.334,2.334,0,0,0,.866-1.261l1.881.237a3.843,3.843,0,0,1-1.49,2.276A4.485,4.485,0,0,1,471.445,39.158Zm7.26-10.687a1.207,1.207,0,0,1-.879-.365,1.226,1.226,0,0,1,0-1.749,1.236,1.236,0,0,1,1.753,0,1.239,1.239,0,0,1-.87,2.114ZM477.668,39V30.158h2.03V39Zm8.13-10.2,2.259-3.059,1.028.738-1.978,2.32Zm.686,10.362a4.647,4.647,0,0,1-3.349-1.244,4.421,4.421,0,0,1-1.3-3.353,4.4,4.4,0,0,1,1.3-3.335,5.149,5.149,0,0,1,6.706,0,4.4,4.4,0,0,1,1.3,3.34,4.421,4.421,0,0,1-1.3,3.353A4.658,4.658,0,0,1,486.483,39.167Zm-.018-1.635a2.479,2.479,0,0,0,1.916-.817,3.445,3.445,0,0,0,0-4.285,2.485,2.485,0,0,0-1.916-.813,2.428,2.428,0,0,0-1.881.813,3.486,3.486,0,0,0,0,4.285A2.419,2.419,0,0,0,486.466,37.532Zm11.514-7.541a3.273,3.273,0,0,1,2.338.8,2.96,2.96,0,0,1,.844,2.263V39h-2.039V33.489a1.814,1.814,0,0,0-.488-1.393,1.768,1.768,0,0,0-1.252-.453,2.066,2.066,0,0,0-1.494.558,2.311,2.311,0,0,0-.589,1.718V39h-2.021V30.158H495.3V31.2a2.987,2.987,0,0,1,1.138-.9A3.658,3.658,0,0,1,497.979,29.991ZM514.916,25.5h2.021V39H515l-.053-1.406a2.845,2.845,0,0,1-1.182,1.178,3.608,3.608,0,0,1-1.762.431,4.1,4.1,0,0,1-2.953-1.235,4.2,4.2,0,0,1-.905-1.459,5.341,5.341,0,0,1-.334-1.92,5.28,5.28,0,0,1,.334-1.907,4.2,4.2,0,0,1,.905-1.455,4.116,4.116,0,0,1,2.953-1.235,3.656,3.656,0,0,1,1.727.409,2.84,2.84,0,0,1,1.182,1.121Zm-4.329,11.188a2.458,2.458,0,0,0,1.868.8,2.42,2.42,0,0,0,1.863-.817,3.258,3.258,0,0,0,0-4.157,2.424,2.424,0,0,0-1.859-.817,2.465,2.465,0,0,0-1.868.8,3.305,3.305,0,0,0,0,4.2Zm17.24-2.259-.026.51h-6.724a2.667,2.667,0,0,0,.773,1.934,2.525,2.525,0,0,0,1.784.668,2.424,2.424,0,0,0,1.314-.36,2.272,2.272,0,0,0,.875-1.028l1.846.316a3.886,3.886,0,0,1-1.529,1.986,4.392,4.392,0,0,1-2.487.712,4.747,4.747,0,0,1-3.313-7.954,4.433,4.433,0,0,1,3.252-1.23,4.21,4.21,0,0,1,3.067,1.129A4.453,4.453,0,0,1,527.827,34.43ZM523.6,31.485a2.58,2.58,0,0,0-1.6.479,2.332,2.332,0,0,0-.839,1.463H525.8a2.131,2.131,0,0,0-.7-1.45A2.251,2.251,0,0,0,523.6,31.485ZM3.516,61.167a3.669,3.669,0,0,1-1.349-.233,2.144,2.144,0,0,1-.984-.791,2.353,2.353,0,0,1-.391-1.384,2.564,2.564,0,0,1,.18-.989,2.165,2.165,0,0,1,.475-.725,2.789,2.789,0,0,1,.747-.51,5.358,5.358,0,0,1,.914-.347q.461-.127,1.068-.242L5.511,55.7q.817-.158.817-.8a1.256,1.256,0,0,0-.492-1.1A2.1,2.1,0,0,0,4.6,53.45a2.075,2.075,0,0,0-1.274.374,1.636,1.636,0,0,0-.6,1.182L.905,54.672Q1.354,52,4.72,52a6.23,6.23,0,0,1,1.05.083,3.751,3.751,0,0,1,.958.3,2.756,2.756,0,0,1,.8.558,2.435,2.435,0,0,1,.536.9,3.743,3.743,0,0,1,.2,1.279v3.428a1.4,1.4,0,0,0,.185.844.8.8,0,0,0,.65.229h.141V61H8.288q-1.5,0-1.793-1.169H6.4a2.874,2.874,0,0,1-1.252,1.011A4.143,4.143,0,0,1,3.516,61.167Zm.475-1.591a2.351,2.351,0,0,0,1.767-.729,2.645,2.645,0,0,0,.7-1.916l-2.259.5a2.708,2.708,0,0,0-1.09.409.883.883,0,0,0-.36.751.849.849,0,0,0,.343.738A1.5,1.5,0,0,0,3.99,59.576ZM11.206,61V47.5h2.039V61Zm11.136-8.842h1.951v8.288A4.813,4.813,0,0,1,23.1,63.993a4.473,4.473,0,0,1-3.309,1.191q-3.349,0-4.43-2.725l1.679-.756a3.11,3.11,0,0,0,1.037,1.4,2.756,2.756,0,0,0,1.635.461,2.319,2.319,0,0,0,1.9-.778,3.387,3.387,0,0,0,.642-2.21v-1.31a2.923,2.923,0,0,1-1.182,1.05,3.664,3.664,0,0,1-1.7.4,3.8,3.8,0,0,1-2.861-1.23,4.374,4.374,0,0,1-1.173-3.146,4.794,4.794,0,0,1,.325-1.78,4.076,4.076,0,0,1,.875-1.38,4,4,0,0,1,1.288-.875,3.93,3.93,0,0,1,1.564-.316,3.552,3.552,0,0,1,1.736.426,2.85,2.85,0,0,1,1.165,1.129Zm-2.479,6.891a2.418,2.418,0,0,0,1.828-.791,2.842,2.842,0,0,0,0-3.836,2.528,2.528,0,0,0-3.661-.022,2.894,2.894,0,0,0,.009,3.872A2.427,2.427,0,0,0,19.863,59.049Zm12.964-6.891h2.021V61H32.924l-.053-1.107a3.163,3.163,0,0,1-2.725,1.274,3.273,3.273,0,0,1-2.338-.8,2.96,2.96,0,0,1-.844-2.263v-5.95H29v5.511a1.814,1.814,0,0,0,.488,1.393,1.781,1.781,0,0,0,1.261.453,2.051,2.051,0,0,0,1.49-.558,2.322,2.322,0,0,0,.584-1.718Zm5.924-1.687a1.207,1.207,0,0,1-.879-.365,1.226,1.226,0,0,1,0-1.749,1.236,1.236,0,0,1,1.753,0,1.239,1.239,0,0,1-.87,2.114ZM37.714,61V52.158h2.03V61Zm12.92-4.57-.026.51H43.884a2.667,2.667,0,0,0,.773,1.934,2.525,2.525,0,0,0,1.784.668,2.424,2.424,0,0,0,1.314-.36,2.272,2.272,0,0,0,.875-1.028l1.846.316a3.886,3.886,0,0,1-1.529,1.986,4.392,4.392,0,0,1-2.487.712,4.747,4.747,0,0,1-3.313-7.954,4.433,4.433,0,0,1,3.252-1.23,4.21,4.21,0,0,1,3.067,1.129A4.453,4.453,0,0,1,50.634,56.43Zm-4.228-2.944a2.58,2.58,0,0,0-1.6.479,2.332,2.332,0,0,0-.839,1.463H48.6a2.131,2.131,0,0,0-.7-1.45A2.251,2.251,0,0,0,46.406,53.485Zm11.083-1.494a3.273,3.273,0,0,1,2.338.8,2.96,2.96,0,0,1,.844,2.263V61H58.632V55.489a1.814,1.814,0,0,0-.488-1.393,1.768,1.768,0,0,0-1.252-.453A2.066,2.066,0,0,0,55.4,54.2a2.311,2.311,0,0,0-.589,1.718V61H52.787V52.158h2.021V53.2a2.987,2.987,0,0,1,1.138-.9A3.658,3.658,0,0,1,57.489,51.991Zm14.467,9.176a4.647,4.647,0,0,1-3.349-1.244,4.949,4.949,0,0,1,0-6.688,5.149,5.149,0,0,1,6.706,0,4.955,4.955,0,0,1,0,6.693A4.658,4.658,0,0,1,71.956,61.167Zm-.018-1.635a2.479,2.479,0,0,0,1.916-.817,3.445,3.445,0,0,0,0-4.285,2.485,2.485,0,0,0-1.916-.813,2.428,2.428,0,0,0-1.881.813,3.486,3.486,0,0,0,0,4.285A2.419,2.419,0,0,0,71.938,59.532ZM89.815,47.5h2.021V61H89.9l-.053-1.406a2.845,2.845,0,0,1-1.182,1.178,3.608,3.608,0,0,1-1.762.431,4.1,4.1,0,0,1-2.953-1.235,4.2,4.2,0,0,1-.905-1.459,5.341,5.341,0,0,1-.334-1.92,5.28,5.28,0,0,1,.334-1.907,4.2,4.2,0,0,1,.905-1.455,4.116,4.116,0,0,1,2.953-1.235,3.656,3.656,0,0,1,1.727.409,2.84,2.84,0,0,1,1.182,1.121ZM85.487,58.688a2.458,2.458,0,0,0,1.868.8,2.42,2.42,0,0,0,1.863-.817,3.258,3.258,0,0,0,0-4.157,2.424,2.424,0,0,0-1.859-.817,2.465,2.465,0,0,0-1.868.8,3.305,3.305,0,0,0,0,4.2Zm17.24-2.259-.026.51H95.977a2.667,2.667,0,0,0,.773,1.934,2.525,2.525,0,0,0,1.784.668,2.424,2.424,0,0,0,1.314-.36,2.272,2.272,0,0,0,.875-1.028l1.846.316a3.886,3.886,0,0,1-1.529,1.986,4.392,4.392,0,0,1-2.487.712,4.747,4.747,0,0,1-3.313-7.954,4.433,4.433,0,0,1,3.252-1.23,4.21,4.21,0,0,1,3.067,1.129A4.453,4.453,0,0,1,102.727,56.43ZM98.5,53.485a2.58,2.58,0,0,0-1.6.479,2.332,2.332,0,0,0-.839,1.463H100.7a2.131,2.131,0,0,0-.7-1.45A2.251,2.251,0,0,0,98.5,53.485Zm13.14,7.682a3.669,3.669,0,0,1-1.349-.233,2.144,2.144,0,0,1-.984-.791,2.353,2.353,0,0,1-.391-1.384,2.564,2.564,0,0,1,.18-.989,2.165,2.165,0,0,1,.475-.725,2.789,2.789,0,0,1,.747-.51,5.358,5.358,0,0,1,.914-.347q.461-.127,1.068-.242l1.336-.246q.817-.158.817-.8a1.256,1.256,0,0,0-.492-1.1,2.1,2.1,0,0,0-1.239-.347,2.075,2.075,0,0,0-1.274.374,1.636,1.636,0,0,0-.6,1.182l-1.819-.334Q109.477,52,112.843,52a6.23,6.23,0,0,1,1.05.083,3.751,3.751,0,0,1,.958.3,2.756,2.756,0,0,1,.8.558,2.435,2.435,0,0,1,.536.9,3.743,3.743,0,0,1,.2,1.279v3.428a1.4,1.4,0,0,0,.185.844.8.8,0,0,0,.65.229h.141V61h-.958q-1.5,0-1.793-1.169h-.1a2.874,2.874,0,0,1-1.252,1.011A4.143,4.143,0,0,1,111.639,61.167Zm.475-1.591a2.351,2.351,0,0,0,1.767-.729,2.645,2.645,0,0,0,.7-1.916l-2.259.5a2.708,2.708,0,0,0-1.09.409.883.883,0,0,0-.36.751.849.849,0,0,0,.343.738A1.5,1.5,0,0,0,112.113,59.576ZM119.329,61V47.5h2.039V61Zm11.136-8.842h1.951v8.288a4.813,4.813,0,0,1-1.191,3.546,4.473,4.473,0,0,1-3.309,1.191q-3.349,0-4.43-2.725l1.679-.756a3.11,3.11,0,0,0,1.037,1.4,2.756,2.756,0,0,0,1.635.461,2.319,2.319,0,0,0,1.9-.778,3.387,3.387,0,0,0,.642-2.21v-1.31a2.923,2.923,0,0,1-1.182,1.05,3.664,3.664,0,0,1-1.7.4,3.8,3.8,0,0,1-2.861-1.23,4.374,4.374,0,0,1-1.173-3.146,4.794,4.794,0,0,1,.325-1.78,4.076,4.076,0,0,1,.875-1.38,4,4,0,0,1,1.288-.875,3.93,3.93,0,0,1,1.564-.316,3.552,3.552,0,0,1,1.736.426,2.85,2.85,0,0,1,1.165,1.129Zm-2.479,6.891a2.418,2.418,0,0,0,1.828-.791,2.842,2.842,0,0,0,0-3.836,2.528,2.528,0,0,0-3.661-.022,2.894,2.894,0,0,0,.009,3.872A2.427,2.427,0,0,0,127.986,59.049Zm11.206,2.118a4.647,4.647,0,0,1-3.349-1.244,4.949,4.949,0,0,1,0-6.688,5.149,5.149,0,0,1,6.706,0,4.955,4.955,0,0,1,0,6.693A4.658,4.658,0,0,1,139.192,61.167Zm-.018-1.635a2.479,2.479,0,0,0,1.916-.817,3.445,3.445,0,0,0,0-4.285,2.485,2.485,0,0,0-1.916-.813,2.428,2.428,0,0,0-1.881.813,3.486,3.486,0,0,0,0,4.285A2.419,2.419,0,0,0,139.175,59.532Zm8,1.644a1.2,1.2,0,0,1-.87-.365,1.21,1.21,0,0,1,0-1.74,1.237,1.237,0,0,1,2.109.875,1.178,1.178,0,0,1-.365.87A1.2,1.2,0,0,1,147.173,61.176ZM166.764,61H163.5l-1.96-3.243q-.22-.369-.422-.659a3.662,3.662,0,0,0-.409-.5,1.625,1.625,0,0,0-.431-.316,1.093,1.093,0,0,0-.488-.11h-.765V61H156.19V48.4h4.5q4.588,0,4.588,3.428a3.55,3.55,0,0,1-.2,1.217,3.382,3.382,0,0,1-.571,1.006,3.621,3.621,0,0,1-.892.773,4.6,4.6,0,0,1-1.165.51v.035a1.806,1.806,0,0,1,.545.286,3.9,3.9,0,0,1,.51.461,6.438,6.438,0,0,1,.47.567q.224.3.409.593Zm-7.734-10.477V54.03h1.23a2.04,2.04,0,0,0,1.468-.527,1.76,1.76,0,0,0,.563-1.327q0-1.652-1.978-1.652Zm20,10.477h-3.094l-.9-2.8h-4.482l-.888,2.8h-3.076l4.588-12.6h3.366Zm-4.641-4.983L173.03,51.78a5.521,5.521,0,0,1-.211-1.134h-.07a4.807,4.807,0,0,1-.22,1.1l-1.371,4.271ZM188.156,61H180.6V48.4h7.269v2.312h-4.43v2.8h4.122v2.3h-4.122V58.7h4.72Zm3.472.176a1.2,1.2,0,0,1-.87-.365,1.21,1.21,0,0,1,0-1.74,1.237,1.237,0,0,1,2.109.875,1.178,1.178,0,0,1-.365.87A1.2,1.2,0,0,1,191.628,61.176Z" transform="translate(777 7838.976)" fill="#32687f"/>
    <g id="Grupo_29522" data-name="Grupo 29522" transform="translate(350 -23.603)">
      <g transform="matrix(1, 0, 0, 1, 357.24, 7729.34)" filter="url(#Trazado_67306)">
        <path id="Trazado_67306-2" data-name="Trazado 67306" d="M3087.693,3589.234h-8.048q.261-7.407,2.519-11.284a13.92,13.92,0,0,1,7.031-5.835l-3.755-6.013a23.211,23.211,0,0,0-11.5,10.385q-2.767,5.15-2.767,16.652v14.12h16.523Z" transform="translate(-3035.58 -3469.44)" fill="#3487ad"/>
      </g>
      <g transform="matrix(1, 0, 0, 1, 357.24, 7729.34)" filter="url(#Trazado_67307)">
        <path id="Trazado_67307-2" data-name="Trazado 67307" d="M3040.248,3589.234H3032.2q.26-7.407,2.518-11.284a13.925,13.925,0,0,1,7.031-5.835L3038,3566.1a23.205,23.205,0,0,0-11.5,10.385q-2.767,5.15-2.767,16.652v14.12h16.523Z" transform="translate(-3014.73 -3469.44)" fill="#3487ad"/>
      </g>
      <g id="Grupo_26522" data-name="Grupo 26522" transform="translate(0 -88)">
        <g transform="matrix(1, 0, 0, 1, 357.24, 7817.34)" filter="url(#Trazado_67304)">
          <path id="Trazado_67304-2" data-name="Trazado 67304" d="M3110.6,3965.6v-39.791h-73.881a8.023,8.023,0,0,1-8.014-8.013v-45.685H3023.3V3917.8a13.436,13.436,0,0,0,13.421,13.421H3105.2v47.438l47.438-47.438h442.607v-5.407H3150.4Z" transform="translate(-3014.54 -3691.97)" fill="#3487ad"/>
        </g>
        <g transform="matrix(1, 0, 0, 1, 357.24, 7817.34)" filter="url(#Trazado_67305)">
          <path id="Trazado_67305-2" data-name="Trazado 67305" d="M4162.655,3872.111V3917.8a8.022,8.022,0,0,1-8.014,8.013h-8.031v5.407h8.031a13.437,13.437,0,0,0,13.422-13.421v-45.685Z" transform="translate(-3508.38 -3691.97)" fill="#3487ad"/>
        </g>
        <g transform="matrix(1, 0, 0, 1, 357.24, 7817.34)" filter="url(#Trazado_67308)">
          <path id="Trazado_67308-2" data-name="Trazado 67308" d="M4103.393,3963.377h8.048q-.261,7.407-2.518,11.284a13.927,13.927,0,0,1-7.032,5.835l3.755,6.013a23.213,23.213,0,0,0,11.5-10.386q2.767-5.15,2.768-16.652v-14.12h-16.523Z" transform="translate(-3488.72 -3724.17)" fill="#3487ad"/>
        </g>
        <g transform="matrix(1, 0, 0, 1, 357.24, 7817.34)" filter="url(#Trazado_67309)">
          <path id="Trazado_67309-2" data-name="Trazado 67309" d="M4055.948,3963.377h8.047q-.26,7.407-2.518,11.284a13.923,13.923,0,0,1-7.031,5.835l3.755,6.013a23.207,23.207,0,0,0,11.5-10.386q2.767-5.15,2.767-16.652v-14.12h-16.522Z" transform="translate(-3467.86 -3724.17)" fill="#3487ad"/>
        </g>
      </g>
    </g>
    <g id="Grupo_29523" data-name="Grupo 29523" transform="translate(657.206 6714.466)">
      <g transform="matrix(1, 0, 0, 1, 50.03, 991.27)" filter="url(#Rectángulo_3802)">
        <rect id="Rectángulo_3802-2" data-name="Rectángulo 3802" width="252.933" height="75.602" rx="10.632" transform="translate(216.91 1)" fill="url(#linear-gradient)"/>
      </g>
    </g>
    <path id="Trazado_69277" data-name="Trazado 69277" d="M8.884,21.215a8.664,8.664,0,0,1-3.164-.569A7.439,7.439,0,0,1,3.2,19.056a7.167,7.167,0,0,1-1.654-2.524,8.8,8.8,0,0,1-.6-3.3A8.408,8.408,0,0,1,1.977,9.017,7.021,7.021,0,0,1,4.807,6.229a8.476,8.476,0,0,1,4.077-.967A8.237,8.237,0,0,1,13.438,6.52a6.88,6.88,0,0,1,2.782,3.459l-3.008,1.1a4.252,4.252,0,0,0-1.665-2.095,4.756,4.756,0,0,0-2.664-.752A4.559,4.559,0,0,0,5.489,9.581a4.98,4.98,0,0,0-1.332,3.652,4.988,4.988,0,0,0,1.337,3.658A4.554,4.554,0,0,0,8.884,18.25a4.738,4.738,0,0,0,2.659-.757,4.271,4.271,0,0,0,1.67-2.1l3.008,1.1a6.908,6.908,0,0,1-2.782,3.464A8.211,8.211,0,0,1,8.884,21.215ZM20.034,8.3a1.737,1.737,0,0,1-1.268-.521A1.71,1.71,0,0,1,18.24,6.52a1.69,1.69,0,0,1,.532-1.251,1.742,1.742,0,0,1,1.262-.521A1.788,1.788,0,0,1,21.807,6.52,1.788,1.788,0,0,1,20.034,8.3ZM18.455,21V9.957H21.57V21Zm10.431,0a3.335,3.335,0,0,1-2.492-.9,3.489,3.489,0,0,1-.881-2.551V12.331h-2.17V9.957h.7A1.822,1.822,0,0,0,25.416,9.5a2.378,2.378,0,0,0,.44-1.644V6.391h2.793V9.957h2.277v2.374H28.649v4.888q0,1.429,1.278,1.429h1V21Zm13.449-3a10.331,10.331,0,0,0,.269,2.7V21h-2.89l-.247-1.2A3.591,3.591,0,0,1,37.92,20.86a5.7,5.7,0,0,1-2,.354,5.254,5.254,0,0,1-1.031-.1,3.506,3.506,0,0,1-.929-.328,2.82,2.82,0,0,1-.768-.575,2.52,2.52,0,0,1-.516-.875,3.488,3.488,0,0,1-.193-1.2,3.322,3.322,0,0,1,.2-1.2,2.807,2.807,0,0,1,.537-.9,3.258,3.258,0,0,1,.87-.655,6.658,6.658,0,0,1,1.1-.473,13.092,13.092,0,0,1,1.311-.344l1.815-.408a2,2,0,0,0,.822-.349.7.7,0,0,0,.242-.553,1.14,1.14,0,0,0-.542-1.063,2.533,2.533,0,0,0-1.316-.322,1.894,1.894,0,0,0-2.159,1.687l-2.739-.494a3.708,3.708,0,0,1,1.6-2.519,6.362,6.362,0,0,1,3.47-.811q4.641,0,4.641,3.985ZM36.889,19.12a2.488,2.488,0,0,0,1.912-.8,3.372,3.372,0,0,0,.741-2.369l-2.621.741a3.1,3.1,0,0,0-1.1.451.927.927,0,0,0-.381.795,1.029,1.029,0,0,0,.408.875A1.689,1.689,0,0,0,36.889,19.12Zm11.419-7.412a3.585,3.585,0,0,1,1.45-1.327,4.425,4.425,0,0,1,2.159-.553v2.761a4.183,4.183,0,0,0-2.643.666,2.908,2.908,0,0,0-.816,2.363V21H45.343V9.957h2.965Zm15.028,9.507a6.171,6.171,0,0,1-3.223-.773,3.269,3.269,0,0,1-1.579-2.3l2.589-.73a2.08,2.08,0,0,0,2.213,1.644,2.285,2.285,0,0,0,1.128-.252.879.879,0,0,0,.44-.854.9.9,0,0,0-.183-.569,1.446,1.446,0,0,0-.564-.408,7.026,7.026,0,0,0-.752-.29q-.371-.118-.983-.285T61.4,16.08a6.836,6.836,0,0,1-.972-.414,4.147,4.147,0,0,1-.806-.569,2.3,2.3,0,0,1-.6-.865,3.12,3.12,0,0,1-.209-1.182,2.821,2.821,0,0,1,1.2-2.471,5.352,5.352,0,0,1,3.131-.838,5.487,5.487,0,0,1,2.89.709,3.209,3.209,0,0,1,1.482,2.213l-2.4.537a1.876,1.876,0,0,0-1.966-1.4,2.153,2.153,0,0,0-1.085.247.794.794,0,0,0-.43.73.837.837,0,0,0,.064.333.659.659,0,0,0,.226.269,3.29,3.29,0,0,0,.312.2,2.35,2.35,0,0,0,.44.177q.29.091.483.14l.564.145.575.15q.591.161,1.037.322a6.071,6.071,0,0,1,.951.451,3.412,3.412,0,0,1,.833.65,2.9,2.9,0,0,1,.542.913,3.372,3.372,0,0,1,.215,1.23,3.322,3.322,0,0,1-.371,1.6,2.782,2.782,0,0,1-1.015,1.08,4.941,4.941,0,0,1-1.434.58A7.439,7.439,0,0,1,63.336,21.215ZM71.683,8.3a1.737,1.737,0,0,1-1.268-.521,1.71,1.71,0,0,1-.526-1.262,1.69,1.69,0,0,1,.532-1.251,1.742,1.742,0,0,1,1.262-.521A1.788,1.788,0,0,1,73.455,6.52,1.788,1.788,0,0,1,71.683,8.3ZM70.1,21V9.957h3.115V21ZM84.025,9.957h2.943V20.173a8.261,8.261,0,0,1-.414,2.75,4.535,4.535,0,0,1-1.2,1.885,4.993,4.993,0,0,1-1.837,1.058,7.744,7.744,0,0,1-2.406.344q-4.372,0-5.693-3.427l2.567-1.1a3.746,3.746,0,0,0,1.192,1.6A3.04,3.04,0,0,0,81,23.8q2.868,0,2.868-3.405V19.109a3.479,3.479,0,0,1-1.391,1.09,4.625,4.625,0,0,1-1.96.414,4.945,4.945,0,0,1-3.545-1.488,5.1,5.1,0,0,1-1.09-1.735,6.413,6.413,0,0,1,0-4.474,4.9,4.9,0,0,1,1.1-1.713,5.042,5.042,0,0,1,1.611-1.074,4.973,4.973,0,0,1,1.95-.387,4.491,4.491,0,0,1,2.046.457,3.264,3.264,0,0,1,1.37,1.219Zm-4.743,7.3a2.834,2.834,0,0,0,4.055-.011,3.087,3.087,0,0,0,.005-4.2,2.859,2.859,0,0,0-4.071-.016,2.938,2.938,0,0,0-.811,2.122A2.908,2.908,0,0,0,79.283,17.262ZM96.7,9.742a4.3,4.3,0,0,1,3.051.994,3.684,3.684,0,0,1,1.063,2.831V21h-3.1V14.232a1.924,1.924,0,0,0-.553-1.525,2.084,2.084,0,0,0-1.423-.483,2.908,2.908,0,0,0-.924.14,2.373,2.373,0,0,0-.773.435,1.923,1.923,0,0,0-.553.833,3.85,3.85,0,0,0-.209,1.278V21H90.181V9.957h3.094v1.225A4.255,4.255,0,0,1,96.7,9.742Zm8.69-1.439a1.737,1.737,0,0,1-1.268-.521A1.71,1.71,0,0,1,103.6,6.52a1.69,1.69,0,0,1,.532-1.251,1.742,1.742,0,0,1,1.262-.521,1.788,1.788,0,0,1,1.772,1.772A1.788,1.788,0,0,1,105.392,8.3ZM103.813,21V9.957h3.115V21ZM110.9,8.765a6.458,6.458,0,0,1,.14-1.407,4.282,4.282,0,0,1,.376-1.069,2.5,2.5,0,0,1,.628-.768A3.708,3.708,0,0,1,112.863,5a4.665,4.665,0,0,1,1.015-.312,8.9,8.9,0,0,1,1.166-.156q.575-.038,1.316-.038V6.971h-.064q-.3,0-.457.005t-.44.038a1.783,1.783,0,0,0-.446.1,2.272,2.272,0,0,0-.371.2.989.989,0,0,0-.322.322,1.947,1.947,0,0,0-.193.478,2.5,2.5,0,0,0-.081.666V9.957h2.374v2.374h-2.374V21H110.9V12.331h-2.159V9.957H110.9Zm8.787-.462a1.737,1.737,0,0,1-1.268-.521A1.71,1.71,0,0,1,117.9,6.52a1.69,1.69,0,0,1,.532-1.251,1.742,1.742,0,0,1,1.262-.521,1.788,1.788,0,0,1,1.772,1.772A1.788,1.788,0,0,1,119.689,8.3ZM118.11,21V9.957h3.115V21Zm11.312.2a5.9,5.9,0,0,1-4.265-1.59,5.491,5.491,0,0,1-1.654-4.146,5.479,5.479,0,0,1,1.649-4.146A6.556,6.556,0,0,1,133,10.806a4.748,4.748,0,0,1,1.848,3l-2.857.312a2.448,2.448,0,0,0-.924-1.45,2.809,2.809,0,0,0-1.676-.483,2.533,2.533,0,0,0-2.02.9,3.538,3.538,0,0,0-.773,2.385,3.542,3.542,0,0,0,.773,2.379,2.526,2.526,0,0,0,2.02.908,2.785,2.785,0,0,0,1.67-.483,2.505,2.505,0,0,0,.929-1.45l2.857.312a4.761,4.761,0,0,1-1.864,3A5.86,5.86,0,0,1,129.422,21.2ZM146.1,18a10.331,10.331,0,0,0,.269,2.7V21h-2.89l-.247-1.2a3.591,3.591,0,0,1-1.547,1.063,5.7,5.7,0,0,1-2,.354,5.254,5.254,0,0,1-1.031-.1,3.506,3.506,0,0,1-.929-.328,2.82,2.82,0,0,1-.768-.575,2.52,2.52,0,0,1-.516-.875,3.488,3.488,0,0,1-.193-1.2,3.322,3.322,0,0,1,.2-1.2,2.807,2.807,0,0,1,.537-.9,3.258,3.258,0,0,1,.87-.655,6.658,6.658,0,0,1,1.1-.473,13.092,13.092,0,0,1,1.311-.344l1.815-.408a2,2,0,0,0,.822-.349.7.7,0,0,0,.242-.553,1.14,1.14,0,0,0-.542-1.063,2.533,2.533,0,0,0-1.316-.322,1.894,1.894,0,0,0-2.159,1.687l-2.739-.494a3.708,3.708,0,0,1,1.6-2.519,6.362,6.362,0,0,1,3.47-.811q4.641,0,4.641,3.985Zm-5.446,1.117a2.488,2.488,0,0,0,1.912-.8,3.372,3.372,0,0,0,.741-2.369l-2.621.741a3.1,3.1,0,0,0-1.1.451.927.927,0,0,0-.381.795,1.029,1.029,0,0,0,.408.875A1.689,1.689,0,0,0,140.658,19.12Zm10.259-4.941a1.686,1.686,0,0,1-1.241-.526,1.724,1.724,0,0,1-.521-1.257,1.779,1.779,0,0,1,1.762-1.762,1.724,1.724,0,0,1,1.257.521A1.686,1.686,0,0,1,152.7,12.4a1.8,1.8,0,0,1-1.783,1.783Zm0,7.036a1.779,1.779,0,0,1-1.762-1.762,1.724,1.724,0,0,1,.521-1.257,1.686,1.686,0,0,1,1.241-.526,1.8,1.8,0,0,1,1.783,1.783,1.686,1.686,0,0,1-.526,1.241A1.724,1.724,0,0,1,150.917,21.215Z" transform="translate(993 7733.66)" fill="#fff"/>
    <g id="Grupo_29524" data-name="Grupo 29524" transform="translate(-388.536 8117.169)">
      <g id="Grupo_26524" data-name="Grupo 26524" transform="translate(1269.154 -402.966)">
        <path id="Trazado_67310" data-name="Trazado 67310" d="M1355.564-375.6h2.721a1.012,1.012,0,0,1,1.014,1.012v56.957a1.012,1.012,0,0,1-1.014,1.012l-36.069,0a1.459,1.459,0,0,0-1.352.882,4,4,0,0,1-3.695,2.467,4.01,4.01,0,0,1-3.7-2.469,1.454,1.454,0,0,0-1.35-.882h-36.069a1.013,1.013,0,0,1-1.013-1.012v-56.957a1.013,1.013,0,0,1,1.013-1.012h2.5l38.481,6.9Z" transform="translate(-1273.639 377)" fill="#ffd354"/>
        <path id="Trazado_67311" data-name="Trazado 67311" d="M1312.685-316.349a5.4,5.4,0,0,1-4.991-3.331l-36.125-.02a2.417,2.417,0,0,1-2.415-2.415v-56.956a2.417,2.417,0,0,1,2.415-2.415h2.5a1.393,1.393,0,0,1,.247.022l38.234,6.856,38.284-6.857a1.412,1.412,0,0,1,.247-.022h2.722a2.418,2.418,0,0,1,2.416,2.415v56.956a2.418,2.418,0,0,1-2.416,2.415l-36.069,0A5.521,5.521,0,0,1,1312.685-316.349Zm-40.727-6.156h35.679a2.845,2.845,0,0,1,2.646,1.748,2.6,2.6,0,0,0,2.4,1.6,2.6,2.6,0,0,0,2.4-1.6,2.853,2.853,0,0,1,2.646-1.744l35.681,0v-56.177H1351.2L1312.8-371.8a1.4,1.4,0,0,1-.495,0l-38.359-6.879h-1.984Z" transform="translate(-1269.154 381.486)" fill="#325a6a"/>
      </g>
      <g id="Grupo_26525" data-name="Grupo 26525" transform="translate(1276.176 -409.482)">
        <path id="Trazado_67312" data-name="Trazado 67312" d="M1339.619-336.572c-15.413-18.763-35.1-14.393-35.1-14.393v-51.6s19.7-4.816,35.108,13.948Z" transform="translate(-1303.12 404.483)" fill="#fff"/>
        <path id="Trazado_67313" data-name="Trazado 67313" d="M1335.135-339.531a1.4,1.4,0,0,1-1.084-.512c-14.651-17.835-32.94-14.083-33.711-13.914a1.405,1.405,0,0,1-1.18-.277,1.4,1.4,0,0,1-.524-1.092v-51.6a1.4,1.4,0,0,1,1.069-1.362c.205-.05,20.735-4.8,36.525,14.42a1.405,1.405,0,0,1,.318.89l-.011,52.045a1.4,1.4,0,0,1-.93,1.32A1.4,1.4,0,0,1,1335.135-339.531Zm-30.065-17.6a39.345,39.345,0,0,1,28.663,12.513l.01-47.851c-12.744-15.184-28.119-13.969-32.3-13.3v48.823A33.764,33.764,0,0,1,1305.069-357.135Z" transform="translate(-1298.635 408.844)" fill="#325a6a"/>
      </g>
      <g id="Grupo_26526" data-name="Grupo 26526" transform="translate(1311.284 -409.681)">
        <path id="Trazado_67314" data-name="Trazado 67314" d="M1451.925-337.265c15.528-18.9,35.108-14.177,35.108-14.177v-51.987s-19.58-4.726-35.108,14.178Z" transform="translate(-1450.523 405.318)" fill="#fff"/>
        <path id="Trazado_67315" data-name="Trazado 67315" d="M1447.441-340.226a1.4,1.4,0,0,1-.472-.082,1.4,1.4,0,0,1-.929-1.32v-51.986a1.4,1.4,0,0,1,.318-.89c15.9-19.36,36.315-14.7,36.52-14.651a1.4,1.4,0,0,1,1.073,1.363v51.987a1.4,1.4,0,0,1-.535,1.1,1.4,1.4,0,0,1-1.2.262c-.764-.182-18.943-4.256-33.694,13.7A1.4,1.4,0,0,1,1447.441-340.226Zm1.4-52.882v47.79c12.695-13.211,27.355-12.749,32.3-12.134v-49.178C1476.972-407.281,1461.675-408.406,1448.843-393.108Z" transform="translate(-1446.039 409.681)" fill="#325a6a"/>
      </g>
      <g id="Grupo_26527" data-name="Grupo 26527" transform="translate(1333.945 -396.27)">
        <path id="Trazado_67316" data-name="Trazado 67316" d="M1542.587-350.087a1.4,1.4,0,0,1-1.378-1.153,1.4,1.4,0,0,1,1.131-1.629,31.5,31.5,0,0,1,7.142-.467,1.4,1.4,0,0,1,1.331,1.47,1.4,1.4,0,0,1-1.47,1.331,28.623,28.623,0,0,0-6.505.426A1.394,1.394,0,0,1,1542.587-350.087Z" transform="translate(-1541.187 353.374)" fill="#325a6a"/>
      </g>
      <g id="Grupo_26528" data-name="Grupo 26528" transform="translate(1317.984 -394.776)">
        <path id="Trazado_67317" data-name="Trazado 67317" d="M1475.576-337.712a1.4,1.4,0,0,1-1.028-.448,1.4,1.4,0,0,1,.074-1.982,35.522,35.522,0,0,1,12.427-6.892,1.4,1.4,0,0,1,1.762.91,1.4,1.4,0,0,1-.91,1.762,33.082,33.082,0,0,0-11.37,6.275A1.4,1.4,0,0,1,1475.576-337.712Z" transform="translate(-1474.173 347.1)" fill="#325a6a"/>
      </g>
      <g id="Grupo_26529" data-name="Grupo 26529" transform="translate(1317.984 -389.57)">
        <path id="Trazado_67318" data-name="Trazado 67318" d="M1475.575-314.359a1.4,1.4,0,0,1-1.028-.448,1.4,1.4,0,0,1,.074-1.982c.4-.372,9.966-9.109,23.808-8.414a1.4,1.4,0,0,1,1.331,1.47,1.4,1.4,0,0,1-1.47,1.331c-12.671-.637-21.671,7.585-21.761,7.668A1.4,1.4,0,0,1,1475.575-314.359Z" transform="translate(-1474.172 325.242)" fill="#325a6a"/>
      </g>
      <g id="Grupo_26530" data-name="Grupo 26530" transform="translate(1317.984 -382.868)">
        <path id="Trazado_67319" data-name="Trazado 67319" d="M1475.577-286.222a1.4,1.4,0,0,1-1.029-.449,1.4,1.4,0,0,1,.074-1.98c.4-.372,9.983-9.1,23.809-8.414a1.4,1.4,0,0,1,1.331,1.471,1.4,1.4,0,0,1-1.47,1.331c-12.626-.635-21.672,7.586-21.762,7.669A1.4,1.4,0,0,1,1475.577-286.222Z" transform="translate(-1474.174 297.103)" fill="#325a6a"/>
      </g>
      <g id="Grupo_26531" data-name="Grupo 26531" transform="translate(1317.984 -376.837)">
        <path id="Trazado_67320" data-name="Trazado 67320" d="M1475.577-260.9a1.4,1.4,0,0,1-1.029-.449,1.4,1.4,0,0,1,.074-1.98c.4-.372,9.983-9.1,23.809-8.414a1.4,1.4,0,0,1,1.331,1.47,1.4,1.4,0,0,1-1.47,1.33c-12.626-.633-21.672,7.586-21.762,7.67A1.4,1.4,0,0,1,1475.577-260.9Z" transform="translate(-1474.174 271.78)" fill="#325a6a"/>
      </g>
      <g id="Grupo_26532" data-name="Grupo 26532" transform="translate(1324.351 -370.805)">
        <path id="Trazado_67321" data-name="Trazado 67321" d="M1502.309-239.844a1.4,1.4,0,0,1-1.245-.755,1.4,1.4,0,0,1,.6-1.891,33.819,33.819,0,0,1,17.133-3.925,1.4,1.4,0,0,1,1.33,1.471,1.41,1.41,0,0,1-1.47,1.33,31.017,31.017,0,0,0-15.7,3.612A1.4,1.4,0,0,1,1502.309-239.844Z" transform="translate(-1500.905 246.453)" fill="#325a6a"/>
      </g>
      <g id="Grupo_26533" data-name="Grupo 26533" transform="translate(1317.984 -365.448)">
        <path id="Trazado_67322" data-name="Trazado 67322" d="M1475.577-218.438a1.4,1.4,0,0,1-1.029-.449,1.4,1.4,0,0,1,.074-1.98,29.047,29.047,0,0,1,3.876-2.876,1.4,1.4,0,0,1,1.936.432,1.4,1.4,0,0,1-.432,1.936,26.868,26.868,0,0,0-3.473,2.566A1.4,1.4,0,0,1,1475.577-218.438Z" transform="translate(-1474.174 223.962)" fill="#325a6a"/>
      </g>
      <g id="Grupo_26534" data-name="Grupo 26534" transform="translate(1282.466 -396.271)">
        <path id="Trazado_67323" data-name="Trazado 67323" d="M1349.232-342.495a1.4,1.4,0,0,1-.952-.372c-.09-.083-9.146-8.3-21.764-7.669a1.411,1.411,0,0,1-1.47-1.331,1.4,1.4,0,0,1,1.331-1.47c13.824-.692,23.409,8.042,23.81,8.414a1.4,1.4,0,0,1,.074,1.98A1.4,1.4,0,0,1,1349.232-342.495Z" transform="translate(-1325.044 353.377)" fill="#325a6a"/>
      </g>
      <g id="Grupo_26535" data-name="Grupo 26535" transform="translate(1282.466 -389.57)">
        <path id="Trazado_67324" data-name="Trazado 67324" d="M1349.232-314.359a1.4,1.4,0,0,1-.952-.373c-.09-.083-9.146-8.3-21.764-7.669a1.411,1.411,0,0,1-1.47-1.331,1.4,1.4,0,0,1,1.331-1.471c13.824-.692,23.409,8.042,23.81,8.414a1.4,1.4,0,0,1,.074,1.98A1.4,1.4,0,0,1,1349.232-314.359Z" transform="translate(-1325.044 325.241)" fill="#325a6a"/>
      </g>
      <g id="Grupo_26536" data-name="Grupo 26536" transform="translate(1282.467 -382.868)">
        <path id="Trazado_67325" data-name="Trazado 67325" d="M1332.5-293.945a1.443,1.443,0,0,1-.216-.016,28.483,28.483,0,0,0-5.759-.3,1.4,1.4,0,0,1-1.471-1.33,1.4,1.4,0,0,1,1.33-1.471,31.363,31.363,0,0,1,6.327.33,1.4,1.4,0,0,1,1.172,1.6A1.4,1.4,0,0,1,1332.5-293.945Z" transform="translate(-1325.05 297.102)" fill="#325a6a"/>
      </g>
      <g id="Grupo_26537" data-name="Grupo 26537" transform="translate(1292.477 -381.639)">
        <path id="Trazado_67326" data-name="Trazado 67326" d="M1381.254-282.29a1.4,1.4,0,0,1-.952-.372,33.44,33.44,0,0,0-12.211-6.53,1.4,1.4,0,0,1-.959-1.736,1.4,1.4,0,0,1,1.736-.958,35.648,35.648,0,0,1,13.34,7.168,1.4,1.4,0,0,1,.074,1.98A1.4,1.4,0,0,1,1381.254-282.29Z" transform="translate(-1367.077 291.943)" fill="#325a6a"/>
      </g>
      <g id="Grupo_26538" data-name="Grupo 26538" transform="translate(1282.466 -376.837)">
        <path id="Trazado_67327" data-name="Trazado 67327" d="M1349.232-260.9a1.4,1.4,0,0,1-.952-.372c-.09-.083-9.146-8.3-21.764-7.67a1.409,1.409,0,0,1-1.47-1.33,1.4,1.4,0,0,1,1.331-1.471c13.824-.691,23.409,8.042,23.81,8.414a1.4,1.4,0,0,1,.074,1.98A1.4,1.4,0,0,1,1349.232-260.9Z" transform="translate(-1325.044 271.782)" fill="#325a6a"/>
      </g>
      <g id="Grupo_26539" data-name="Grupo 26539" transform="translate(1282.466 -370.806)">
        <path id="Trazado_67328" data-name="Trazado 67328" d="M1349.232-235.577a1.4,1.4,0,0,1-.952-.372c-.09-.083-9.146-8.3-21.764-7.669a1.412,1.412,0,0,1-1.47-1.331,1.4,1.4,0,0,1,1.331-1.471c13.824-.69,23.409,8.042,23.81,8.414a1.4,1.4,0,0,1,.074,1.98A1.4,1.4,0,0,1,1349.232-235.577Z" transform="translate(-1325.044 246.459)" fill="#325a6a"/>
      </g>
    </g>
  </g>
</svg>
