<svg xmlns="http://www.w3.org/2000/svg" xmlns:xlink="http://www.w3.org/1999/xlink" width="673.684" height="300.682" viewBox="0 0 673.684 300.682">
  <defs>
    <filter id="Trazado_67306" x="26.587" y="90.659" width="36.025" height="59.157" filterUnits="userSpaceOnUse">
      <feOffset dy="3" input="SourceAlpha"/>
      <feGaussianBlur stdDeviation="3" result="blur"/>
      <feFlood flood-opacity="0.161"/>
      <feComposite operator="in" in2="blur"/>
      <feComposite in="SourceGraphic"/>
    </filter>
    <filter id="Trazado_67307" x="0" y="90.659" width="36.025" height="59.157" filterUnits="userSpaceOnUse">
      <feOffset dy="3" input="SourceAlpha"/>
      <feGaussianBlur stdDeviation="3" result="blur-2"/>
      <feFlood flood-opacity="0.161"/>
      <feComposite operator="in" in2="blur-2"/>
      <feComposite in="SourceGraphic"/>
    </filter>
    <filter id="Trazado_67304" x="4.763" y="176.138" width="589.94" height="124.544" filterUnits="userSpaceOnUse">
      <feOffset dx="5" dy="5" input="SourceAlpha"/>
      <feGaussianBlur stdDeviation="3" result="blur-3"/>
      <feFlood flood-opacity="0.161"/>
      <feComposite operator="in" in2="blur-3"/>
      <feComposite in="SourceGraphic"/>
    </filter>
    <filter id="Trazado_67305" x="634.23" y="176.138" width="39.453" height="77.105" filterUnits="userSpaceOnUse">
      <feOffset dx="5" dy="5" input="SourceAlpha"/>
      <feGaussianBlur stdDeviation="3" result="blur-4"/>
      <feFlood flood-opacity="0.161"/>
      <feComposite operator="in" in2="blur-4"/>
      <feComposite in="SourceGraphic"/>
    </filter>
    <filter id="Trazado_67308" x="609.171" y="217.18" width="36.026" height="59.157" filterUnits="userSpaceOnUse">
      <feOffset dx="5" dy="5" input="SourceAlpha"/>
      <feGaussianBlur stdDeviation="3" result="blur-5"/>
      <feFlood flood-opacity="0.161"/>
      <feComposite operator="in" in2="blur-5"/>
      <feComposite in="SourceGraphic"/>
    </filter>
    <filter id="Trazado_67309" x="582.584" y="217.18" width="36.025" height="59.157" filterUnits="userSpaceOnUse">
      <feOffset dx="5" dy="5" input="SourceAlpha"/>
      <feGaussianBlur stdDeviation="3" result="blur-6"/>
      <feFlood flood-opacity="0.161"/>
      <feComposite operator="in" in2="blur-6"/>
      <feComposite in="SourceGraphic"/>
    </filter>
    <filter id="Rectángulo_3802" x="147.913" y="0" width="415.439" height="81.602" filterUnits="userSpaceOnUse">
      <feOffset dx="3" dy="2" input="SourceAlpha"/>
      <feGaussianBlur stdDeviation="1" result="blur-7"/>
      <feFlood flood-color="#325a6a" flood-opacity="0.549"/>
      <feComposite operator="in" in2="blur-7"/>
      <feComposite in="SourceGraphic"/>
    </filter>
  </defs>
  <g id="Grupo_29525" data-name="Grupo 29525" transform="translate(-793.237 -7744.318)">
    <path id="Trazado_69276" data-name="Trazado 69276" d="M8.71,4.467V6.339H5.616V17H3.524V6.339H.422V4.467Zm4.333,12.7a4.647,4.647,0,0,1-3.349-1.244,4.421,4.421,0,0,1-1.3-3.353,4.4,4.4,0,0,1,1.3-3.335,4.647,4.647,0,0,1,3.349-1.244A4.668,4.668,0,0,1,16.4,9.23a4.4,4.4,0,0,1,1.3,3.34,4.421,4.421,0,0,1-1.3,3.353A4.658,4.658,0,0,1,13.043,17.167Zm-.018-1.635a2.479,2.479,0,0,0,1.916-.817,3.055,3.055,0,0,0,.747-2.145,3.039,3.039,0,0,0-.747-2.14,2.485,2.485,0,0,0-1.916-.813,2.428,2.428,0,0,0-1.881.813,3.061,3.061,0,0,0-.738,2.14,3.088,3.088,0,0,0,.734,2.145A2.419,2.419,0,0,0,13.025,15.532ZM26.227,3.5h2.021V17H26.314l-.053-1.406a2.845,2.845,0,0,1-1.182,1.178,3.608,3.608,0,0,1-1.762.431,4.1,4.1,0,0,1-2.953-1.235,4.2,4.2,0,0,1-.905-1.459,5.341,5.341,0,0,1-.334-1.92,5.28,5.28,0,0,1,.334-1.907,4.2,4.2,0,0,1,.905-1.455,4.116,4.116,0,0,1,2.953-1.235,3.656,3.656,0,0,1,1.727.409,2.84,2.84,0,0,1,1.182,1.121ZM21.9,14.688a2.458,2.458,0,0,0,1.868.8,2.42,2.42,0,0,0,1.863-.817,2.968,2.968,0,0,0,.747-2.083,2.946,2.946,0,0,0-.751-2.074A2.424,2.424,0,0,0,23.766,9.7a2.465,2.465,0,0,0-1.868.8,2.927,2.927,0,0,0-.751,2.1A2.943,2.943,0,0,0,21.9,14.688Zm13.135,2.479a4.647,4.647,0,0,1-3.349-1.244,4.421,4.421,0,0,1-1.3-3.353,4.4,4.4,0,0,1,1.3-3.335,4.647,4.647,0,0,1,3.349-1.244A4.668,4.668,0,0,1,38.391,9.23a4.4,4.4,0,0,1,1.3,3.34,4.421,4.421,0,0,1-1.3,3.353A4.658,4.658,0,0,1,35.033,17.167Zm-.018-1.635a2.479,2.479,0,0,0,1.916-.817,3.055,3.055,0,0,0,.747-2.145,3.039,3.039,0,0,0-.747-2.14,2.485,2.485,0,0,0-1.916-.813,2.428,2.428,0,0,0-1.881.813,3.061,3.061,0,0,0-.738,2.14,3.088,3.088,0,0,0,.734,2.145A2.419,2.419,0,0,0,35.016,15.532Zm9.765,1.635a4.552,4.552,0,0,1-2.479-.628,2.623,2.623,0,0,1-1.213-1.824l1.714-.483a1.832,1.832,0,0,0,.694,1.112,2.138,2.138,0,0,0,1.283.374,2.049,2.049,0,0,0,1.072-.264.9.9,0,0,0,.431-.853.824.824,0,0,0-.114-.435,1.2,1.2,0,0,0-.272-.316,1.9,1.9,0,0,0-.453-.25,5.107,5.107,0,0,0-.536-.193l-.655-.193q-.413-.123-.686-.211a6.249,6.249,0,0,1-.844-.325,4,4,0,0,1-.694-.439,1.72,1.72,0,0,1-.532-.69,2.434,2.434,0,0,1-.18-.971,2.324,2.324,0,0,1,.448-1.45,2.549,2.549,0,0,1,1.178-.857A4.824,4.824,0,0,1,44.613,8a4.127,4.127,0,0,1,2.237.571,2.5,2.5,0,0,1,1.129,1.749l-1.6.378a1.594,1.594,0,0,0-.637-.984A2.178,2.178,0,0,0,43.6,9.648a.828.828,0,0,0-.417.76,1.032,1.032,0,0,0,.031.259.506.506,0,0,0,.119.215l.158.171a.825.825,0,0,0,.229.154q.158.079.255.123a2.767,2.767,0,0,0,.316.11l.325.1q.105.031.365.1l.365.092q.492.132.839.246a4.843,4.843,0,0,1,.765.338,2.665,2.665,0,0,1,.677.5,2.219,2.219,0,0,1,.435.708,2.571,2.571,0,0,1,.176.971,2.623,2.623,0,0,1-.281,1.244,2.139,2.139,0,0,1-.769.835,3.768,3.768,0,0,1-1.09.453A5.449,5.449,0,0,1,44.78,17.167ZM58.078,17a2.5,2.5,0,0,1-1.863-.677,2.6,2.6,0,0,1-.668-1.907V9.74H53.78V8.158h.606a1.382,1.382,0,0,0,1.042-.338,1.709,1.709,0,0,0,.321-1.182V5.267h1.846V8.158H59.52V9.74H57.595v4.465a1.267,1.267,0,0,0,.3.918,1.093,1.093,0,0,0,.822.312h.8V17Zm11.479-4.57-.026.51H62.807a2.667,2.667,0,0,0,.773,1.934,2.525,2.525,0,0,0,1.784.668,2.424,2.424,0,0,0,1.314-.36,2.272,2.272,0,0,0,.875-1.028l1.846.316a3.886,3.886,0,0,1-1.529,1.986,4.392,4.392,0,0,1-2.487.712,4.533,4.533,0,0,1-3.313-1.222,4.494,4.494,0,0,1-1.248-3.366,4.512,4.512,0,0,1,1.248-3.366,4.433,4.433,0,0,1,3.252-1.23,4.21,4.21,0,0,1,3.067,1.129A4.453,4.453,0,0,1,69.557,12.43ZM65.329,9.485a2.58,2.58,0,0,0-1.6.479,2.332,2.332,0,0,0-.839,1.463h4.632a2.131,2.131,0,0,0-.7-1.45A2.251,2.251,0,0,0,65.329,9.485ZM76.412,7.991a3.273,3.273,0,0,1,2.338.8,2.96,2.96,0,0,1,.844,2.263V17H77.555V11.489a1.814,1.814,0,0,0-.488-1.393,1.768,1.768,0,0,0-1.252-.453,2.066,2.066,0,0,0-1.494.558,2.311,2.311,0,0,0-.589,1.718V17H71.71V8.158h2.021V9.2a2.987,2.987,0,0,1,1.138-.9A3.658,3.658,0,0,1,76.412,7.991Zm13.9,4.438-.026.51H83.558a2.667,2.667,0,0,0,.773,1.934,2.525,2.525,0,0,0,1.784.668,2.424,2.424,0,0,0,1.314-.36,2.272,2.272,0,0,0,.875-1.028l1.846.316a3.886,3.886,0,0,1-1.529,1.986,4.392,4.392,0,0,1-2.487.712,4.533,4.533,0,0,1-3.313-1.222,4.494,4.494,0,0,1-1.248-3.366,4.512,4.512,0,0,1,1.248-3.366,4.433,4.433,0,0,1,3.252-1.23,4.21,4.21,0,0,1,3.067,1.129A4.453,4.453,0,0,1,90.308,12.43ZM86.08,9.485a2.58,2.58,0,0,0-1.6.479,2.332,2.332,0,0,0-.839,1.463h4.632a2.131,2.131,0,0,0-.7-1.45A2.251,2.251,0,0,0,86.08,9.485Zm16.146-1.494a3.107,3.107,0,0,1,2.171.734,2.664,2.664,0,0,1,.809,2.079V17h-2.03V11.366a1.736,1.736,0,0,0-.439-1.288,1.509,1.509,0,0,0-1.107-.435,1.657,1.657,0,0,0-1.27.523,2.3,2.3,0,0,0-.488,1.613V17H97.813V11.41a1.8,1.8,0,0,0-.444-1.318,1.522,1.522,0,0,0-1.129-.448,1.644,1.644,0,0,0-1.274.541,2.442,2.442,0,0,0-.492,1.683V17H92.461V8.158h2.013v1.09a2.852,2.852,0,0,1,2.5-1.257,3.351,3.351,0,0,1,1.582.356,2.342,2.342,0,0,1,1.02,1.024A2.935,2.935,0,0,1,102.226,7.991Zm9.606,9.176a4.647,4.647,0,0,1-3.349-1.244,4.421,4.421,0,0,1-1.3-3.353,4.4,4.4,0,0,1,1.3-3.335,5.149,5.149,0,0,1,6.706,0,4.4,4.4,0,0,1,1.3,3.34,4.421,4.421,0,0,1-1.3,3.353A4.658,4.658,0,0,1,111.832,17.167Zm-.018-1.635a2.479,2.479,0,0,0,1.916-.817,3.055,3.055,0,0,0,.747-2.145,3.039,3.039,0,0,0-.747-2.14,2.485,2.485,0,0,0-1.916-.813,2.428,2.428,0,0,0-1.881.813,3.061,3.061,0,0,0-.738,2.14,3.088,3.088,0,0,0,.734,2.145A2.419,2.419,0,0,0,111.814,15.532Zm9.765,1.635a4.552,4.552,0,0,1-2.479-.628,2.623,2.623,0,0,1-1.213-1.824l1.714-.483a1.832,1.832,0,0,0,.694,1.112,2.138,2.138,0,0,0,1.283.374,2.049,2.049,0,0,0,1.072-.264.9.9,0,0,0,.431-.853.824.824,0,0,0-.114-.435,1.2,1.2,0,0,0-.272-.316,1.9,1.9,0,0,0-.453-.25,5.107,5.107,0,0,0-.536-.193l-.655-.193q-.413-.123-.686-.211a6.249,6.249,0,0,1-.844-.325,4,4,0,0,1-.694-.439,1.72,1.72,0,0,1-.532-.69,2.434,2.434,0,0,1-.18-.971,2.324,2.324,0,0,1,.448-1.45,2.549,2.549,0,0,1,1.178-.857A4.824,4.824,0,0,1,121.412,8a4.127,4.127,0,0,1,2.237.571,2.5,2.5,0,0,1,1.129,1.749l-1.6.378a1.594,1.594,0,0,0-.637-.984,2.178,2.178,0,0,0-2.145-.066.828.828,0,0,0-.417.76,1.032,1.032,0,0,0,.031.259.506.506,0,0,0,.119.215l.158.171a.825.825,0,0,0,.229.154q.158.079.255.123a2.767,2.767,0,0,0,.316.11l.325.1q.105.031.365.1l.365.092q.492.132.839.246a4.843,4.843,0,0,1,.765.338,2.665,2.665,0,0,1,.677.5,2.219,2.219,0,0,1,.435.708,2.571,2.571,0,0,1,.176.971,2.623,2.623,0,0,1-.281,1.244,2.139,2.139,0,0,1-.769.835,3.768,3.768,0,0,1-1.09.453A5.449,5.449,0,0,1,121.579,17.167ZM138.208,3.5h2.021V17H138.3l-.053-1.406a2.845,2.845,0,0,1-1.182,1.178,3.608,3.608,0,0,1-1.762.431,4.1,4.1,0,0,1-2.953-1.235,4.2,4.2,0,0,1-.905-1.459,5.341,5.341,0,0,1-.334-1.92,5.28,5.28,0,0,1,.334-1.907,4.2,4.2,0,0,1,.905-1.455A4.116,4.116,0,0,1,135.3,7.991a3.656,3.656,0,0,1,1.727.409,2.84,2.84,0,0,1,1.182,1.121Zm-4.329,11.188a2.458,2.458,0,0,0,1.868.8,2.42,2.42,0,0,0,1.863-.817,2.968,2.968,0,0,0,.747-2.083,2.946,2.946,0,0,0-.751-2.074,2.424,2.424,0,0,0-1.859-.817,2.465,2.465,0,0,0-1.868.8,2.927,2.927,0,0,0-.751,2.1A2.943,2.943,0,0,0,133.879,14.688Zm17.24-2.259-.026.51h-6.724a2.667,2.667,0,0,0,.773,1.934,2.525,2.525,0,0,0,1.784.668,2.424,2.424,0,0,0,1.314-.36,2.272,2.272,0,0,0,.875-1.028l1.846.316a3.886,3.886,0,0,1-1.529,1.986,4.392,4.392,0,0,1-2.487.712,4.533,4.533,0,0,1-3.313-1.222,4.494,4.494,0,0,1-1.248-3.366,4.512,4.512,0,0,1,1.248-3.366,4.433,4.433,0,0,1,3.252-1.23,4.21,4.21,0,0,1,3.067,1.129A4.453,4.453,0,0,1,151.119,12.43Zm-4.228-2.944a2.58,2.58,0,0,0-1.6.479,2.332,2.332,0,0,0-.839,1.463h4.632a2.131,2.131,0,0,0-.7-1.45A2.251,2.251,0,0,0,146.892,9.485Zm8.332.158a2.67,2.67,0,0,1,1.121-1.125,3.5,3.5,0,0,1,1.727-.457V9.907a3.115,3.115,0,0,0-2.087.593,2.523,2.523,0,0,0-.681,1.991V17h-2.03V8.158h1.951Zm12.419,2.786-.026.51h-6.724a2.667,2.667,0,0,0,.773,1.934,2.525,2.525,0,0,0,1.784.668,2.424,2.424,0,0,0,1.314-.36,2.272,2.272,0,0,0,.875-1.028l1.846.316a3.886,3.886,0,0,1-1.529,1.986,4.392,4.392,0,0,1-2.487.712,4.533,4.533,0,0,1-3.313-1.222,4.494,4.494,0,0,1-1.248-3.366,4.512,4.512,0,0,1,1.248-3.366,4.433,4.433,0,0,1,3.252-1.23,4.21,4.21,0,0,1,3.067,1.129A4.453,4.453,0,0,1,167.643,12.43Zm-4.228-2.944a2.58,2.58,0,0,0-1.6.479,2.332,2.332,0,0,0-.839,1.463h4.632a2.131,2.131,0,0,0-.7-1.45A2.251,2.251,0,0,0,163.415,9.485Zm10.213,7.673a4.376,4.376,0,0,1-4.579-4.588,4.439,4.439,0,0,1,1.288-3.313,4.92,4.92,0,0,1,6-.453,3.838,3.838,0,0,1,1.481,2.272l-1.881.246a2.356,2.356,0,0,0-.866-1.266,2.439,2.439,0,0,0-1.463-.439,2.32,2.32,0,0,0-1.828.813,3.131,3.131,0,0,0-.712,2.14,3.131,3.131,0,0,0,.712,2.14,2.32,2.32,0,0,0,1.828.813,2.456,2.456,0,0,0,1.463-.435,2.334,2.334,0,0,0,.866-1.261l1.881.237a3.843,3.843,0,0,1-1.49,2.276A4.485,4.485,0,0,1,173.628,17.158Zm11.021-9.167a3.04,3.04,0,0,1,2.263.831,3.289,3.289,0,0,1,.822,2.413V17H185.7V11.586a1.962,1.962,0,0,0-.488-1.477,1.763,1.763,0,0,0-1.27-.466,2.069,2.069,0,0,0-1.468.549,2.285,2.285,0,0,0-.6,1.727V17h-2.021V3.5h2.021V9.266a3.071,3.071,0,0,1,1.169-.94A3.743,3.743,0,0,1,184.649,7.991Zm9.686,9.176a4.647,4.647,0,0,1-3.349-1.244,4.421,4.421,0,0,1-1.3-3.353,4.4,4.4,0,0,1,1.3-3.335,5.149,5.149,0,0,1,6.706,0,4.4,4.4,0,0,1,1.3,3.34,4.421,4.421,0,0,1-1.3,3.353A4.658,4.658,0,0,1,194.335,17.167Zm-.018-1.635a2.479,2.479,0,0,0,1.916-.817,3.055,3.055,0,0,0,.747-2.145,3.039,3.039,0,0,0-.747-2.14,2.485,2.485,0,0,0-1.916-.813,2.428,2.428,0,0,0-1.881.813,3.061,3.061,0,0,0-.738,2.14,3.088,3.088,0,0,0,.734,2.145A2.419,2.419,0,0,0,194.317,15.532Zm13.57,1.635a3.669,3.669,0,0,1-1.349-.233,2.144,2.144,0,0,1-.984-.791,2.353,2.353,0,0,1-.391-1.384,2.564,2.564,0,0,1,.18-.989,2.165,2.165,0,0,1,.475-.725,2.789,2.789,0,0,1,.747-.51,5.358,5.358,0,0,1,.914-.347q.461-.127,1.068-.242l1.336-.246q.817-.158.817-.8a1.256,1.256,0,0,0-.492-1.1,2.1,2.1,0,0,0-1.239-.347,2.075,2.075,0,0,0-1.274.374,1.636,1.636,0,0,0-.6,1.182l-1.819-.334Q205.726,8,209.092,8a6.23,6.23,0,0,1,1.05.083,3.751,3.751,0,0,1,.958.3,2.756,2.756,0,0,1,.8.558,2.435,2.435,0,0,1,.536.9,3.743,3.743,0,0,1,.2,1.279v3.428a1.4,1.4,0,0,0,.185.844.8.8,0,0,0,.65.229h.141V17h-.958q-1.5,0-1.793-1.169h-.1a2.874,2.874,0,0,1-1.252,1.011A4.143,4.143,0,0,1,207.888,17.167Zm.475-1.591a2.351,2.351,0,0,0,1.767-.729,2.645,2.645,0,0,0,.7-1.916l-2.259.5a2.708,2.708,0,0,0-1.09.409.883.883,0,0,0-.36.751.849.849,0,0,0,.343.738A1.5,1.5,0,0,0,208.362,15.576Zm19.916-3.146-.026.51h-6.724a2.667,2.667,0,0,0,.773,1.934,2.525,2.525,0,0,0,1.784.668,2.424,2.424,0,0,0,1.314-.36,2.272,2.272,0,0,0,.875-1.028l1.846.316a3.886,3.886,0,0,1-1.529,1.986,4.392,4.392,0,0,1-2.487.712,4.533,4.533,0,0,1-3.313-1.222,4.494,4.494,0,0,1-1.248-3.366,4.512,4.512,0,0,1,1.248-3.366,4.433,4.433,0,0,1,3.252-1.23,4.21,4.21,0,0,1,3.067,1.129A4.453,4.453,0,0,1,228.278,12.43Zm-4.228-2.944a2.58,2.58,0,0,0-1.6.479,2.332,2.332,0,0,0-.839,1.463h4.632a2.131,2.131,0,0,0-.7-1.45A2.251,2.251,0,0,0,224.051,9.485Zm9.334,7.682a4.552,4.552,0,0,1-2.479-.628,2.623,2.623,0,0,1-1.213-1.824l1.714-.483a1.832,1.832,0,0,0,.694,1.112,2.138,2.138,0,0,0,1.283.374,2.049,2.049,0,0,0,1.072-.264.9.9,0,0,0,.431-.853.824.824,0,0,0-.114-.435,1.2,1.2,0,0,0-.272-.316,1.9,1.9,0,0,0-.453-.25,5.107,5.107,0,0,0-.536-.193l-.655-.193q-.413-.123-.686-.211a6.249,6.249,0,0,1-.844-.325,4,4,0,0,1-.694-.439,1.72,1.72,0,0,1-.532-.69,2.434,2.434,0,0,1-.18-.971,2.324,2.324,0,0,1,.448-1.45,2.549,2.549,0,0,1,1.178-.857A4.824,4.824,0,0,1,233.218,8a4.127,4.127,0,0,1,2.237.571,2.5,2.5,0,0,1,1.129,1.749l-1.6.378a1.594,1.594,0,0,0-.637-.984,2.178,2.178,0,0,0-2.145-.066.828.828,0,0,0-.417.76,1.032,1.032,0,0,0,.031.259.506.506,0,0,0,.119.215l.158.171a.825.825,0,0,0,.229.154q.158.079.255.123a2.767,2.767,0,0,0,.316.11l.325.1q.105.031.365.1l.365.092q.492.132.839.246a4.843,4.843,0,0,1,.765.338,2.665,2.665,0,0,1,.677.5,2.219,2.219,0,0,1,.435.708,2.571,2.571,0,0,1,.176.971,2.623,2.623,0,0,1-.281,1.244,2.139,2.139,0,0,1-.769.835,3.768,3.768,0,0,1-1.09.453A5.449,5.449,0,0,1,233.385,17.167Zm9.4-.009A4.376,4.376,0,0,1,238.2,12.57a4.439,4.439,0,0,1,1.288-3.313,4.92,4.92,0,0,1,6-.453,3.838,3.838,0,0,1,1.481,2.272l-1.881.246a2.356,2.356,0,0,0-.866-1.266,2.439,2.439,0,0,0-1.463-.439,2.32,2.32,0,0,0-1.828.813,3.131,3.131,0,0,0-.712,2.14,3.131,3.131,0,0,0,.712,2.14,2.32,2.32,0,0,0,1.828.813,2.456,2.456,0,0,0,1.463-.435,2.334,2.334,0,0,0,.866-1.261l1.881.237a3.843,3.843,0,0,1-1.49,2.276A4.485,4.485,0,0,1,242.78,17.158Zm8.174-7.515a2.67,2.67,0,0,1,1.121-1.125,3.5,3.5,0,0,1,1.727-.457V9.907a3.115,3.115,0,0,0-2.087.593,2.523,2.523,0,0,0-.681,1.991V17H249V8.158h1.951Zm5.52-3.173a1.207,1.207,0,0,1-.879-.365,1.226,1.226,0,0,1,0-1.749,1.236,1.236,0,0,1,1.753,0,1.22,1.22,0,0,1,0,1.749A1.2,1.2,0,0,1,256.474,6.471ZM255.437,17V8.158h2.03V17Zm9.835-9.009a4.089,4.089,0,0,1,1.617.325,4.034,4.034,0,0,1,1.332.91,4.24,4.24,0,0,1,.9,1.455,5.28,5.28,0,0,1,.334,1.907,5.4,5.4,0,0,1-.33,1.92,4.146,4.146,0,0,1-.9,1.459,4.1,4.1,0,0,1-2.953,1.235,3.622,3.622,0,0,1-1.775-.435,2.81,2.81,0,0,1-1.178-1.182L262.266,17h-1.934V3.5h2.013l.009,6.038A2.813,2.813,0,0,1,263.531,8.4,3.667,3.667,0,0,1,265.271,7.991Zm-2.32,6.68a2.42,2.42,0,0,0,1.863.817,2.458,2.458,0,0,0,1.868-.8,2.943,2.943,0,0,0,.751-2.1,2.927,2.927,0,0,0-.751-2.1,2.465,2.465,0,0,0-1.868-.8,2.424,2.424,0,0,0-1.859.817,2.946,2.946,0,0,0-.751,2.074A2.968,2.968,0,0,0,262.951,14.671Zm9.694-8.2a1.207,1.207,0,0,1-.879-.365,1.226,1.226,0,0,1,0-1.749,1.236,1.236,0,0,1,1.753,0,1.22,1.22,0,0,1,0,1.749A1.2,1.2,0,0,1,272.646,6.471ZM271.608,17V8.158h2.03V17Zm6.847-7.356a2.67,2.67,0,0,1,1.121-1.125,3.5,3.5,0,0,1,1.727-.457V9.907a3.115,3.115,0,0,0-2.087.593,2.523,2.523,0,0,0-.681,1.991V17H276.5V8.158h1.951Zm13.86-1.652a3.273,3.273,0,0,1,2.338.8,2.96,2.96,0,0,1,.844,2.263V17h-2.039V11.489a1.814,1.814,0,0,0-.488-1.393,1.768,1.768,0,0,0-1.252-.453,2.066,2.066,0,0,0-1.494.558,2.311,2.311,0,0,0-.589,1.718V17h-2.021V8.158h2.021V9.2a2.987,2.987,0,0,1,1.138-.9A3.658,3.658,0,0,1,292.315,7.991Zm11.549.167h2.021V17h-1.925l-.053-1.107a3.163,3.163,0,0,1-2.725,1.274,3.273,3.273,0,0,1-2.338-.8A2.96,2.96,0,0,1,298,14.108V8.158h2.039v5.511a1.814,1.814,0,0,0,.488,1.393,1.781,1.781,0,0,0,1.261.453,2.051,2.051,0,0,0,1.49-.558,2.322,2.322,0,0,0,.584-1.718Zm12.911,4.271-.026.51h-6.724a2.667,2.667,0,0,0,.773,1.934,2.525,2.525,0,0,0,1.784.668,2.424,2.424,0,0,0,1.314-.36,2.272,2.272,0,0,0,.875-1.028l1.846.316a3.886,3.886,0,0,1-1.529,1.986,4.392,4.392,0,0,1-2.487.712,4.533,4.533,0,0,1-3.313-1.222,4.494,4.494,0,0,1-1.248-3.366,4.512,4.512,0,0,1,1.248-3.366,4.433,4.433,0,0,1,3.252-1.23,4.21,4.21,0,0,1,3.067,1.129A4.453,4.453,0,0,1,316.775,12.43Zm-4.228-2.944a2.58,2.58,0,0,0-1.6.479,2.332,2.332,0,0,0-.839,1.463h4.632a2.131,2.131,0,0,0-.7-1.45A2.251,2.251,0,0,0,312.548,9.485Zm9.334,7.682a4.552,4.552,0,0,1-2.479-.628,2.623,2.623,0,0,1-1.213-1.824l1.714-.483a1.832,1.832,0,0,0,.694,1.112,2.138,2.138,0,0,0,1.283.374,2.049,2.049,0,0,0,1.072-.264.9.9,0,0,0,.431-.853.824.824,0,0,0-.114-.435,1.2,1.2,0,0,0-.272-.316,1.9,1.9,0,0,0-.453-.25,5.107,5.107,0,0,0-.536-.193l-.655-.193q-.413-.123-.686-.211a6.249,6.249,0,0,1-.844-.325,4,4,0,0,1-.694-.439,1.72,1.72,0,0,1-.532-.69,2.434,2.434,0,0,1-.18-.971,2.324,2.324,0,0,1,.448-1.45,2.549,2.549,0,0,1,1.178-.857A4.824,4.824,0,0,1,321.715,8a4.127,4.127,0,0,1,2.237.571,2.5,2.5,0,0,1,1.129,1.749l-1.6.378a1.594,1.594,0,0,0-.637-.984,2.178,2.178,0,0,0-2.145-.066.828.828,0,0,0-.417.76,1.032,1.032,0,0,0,.031.259.506.506,0,0,0,.119.215l.158.171a.825.825,0,0,0,.229.154q.158.079.255.123a2.767,2.767,0,0,0,.316.11l.325.1q.105.031.365.1l.365.092q.492.132.839.246a4.843,4.843,0,0,1,.765.338,2.665,2.665,0,0,1,.677.5,2.219,2.219,0,0,1,.435.708,2.571,2.571,0,0,1,.176.971,2.623,2.623,0,0,1-.281,1.244,2.139,2.139,0,0,1-.769.835,3.768,3.768,0,0,1-1.09.453A5.449,5.449,0,0,1,321.882,17.167ZM330.5,17a2.5,2.5,0,0,1-1.863-.677,2.6,2.6,0,0,1-.668-1.907V9.74h-1.767V8.158h.606a1.382,1.382,0,0,0,1.042-.338,1.709,1.709,0,0,0,.321-1.182V5.267h1.846V8.158h1.925V9.74h-1.925v4.465a1.267,1.267,0,0,0,.3.918,1.093,1.093,0,0,0,.822.312h.8V17Zm5.476-7.356A2.67,2.67,0,0,1,337.1,8.519a3.5,3.5,0,0,1,1.727-.457V9.907a3.115,3.115,0,0,0-2.087.593,2.523,2.523,0,0,0-.681,1.991V17h-2.03V8.158h1.951Zm6.478,7.523a3.669,3.669,0,0,1-1.349-.233,2.144,2.144,0,0,1-.984-.791,2.353,2.353,0,0,1-.391-1.384,2.564,2.564,0,0,1,.18-.989,2.165,2.165,0,0,1,.475-.725,2.789,2.789,0,0,1,.747-.51,5.358,5.358,0,0,1,.914-.347q.461-.127,1.068-.242l1.336-.246q.817-.158.817-.8a1.256,1.256,0,0,0-.492-1.1,2.1,2.1,0,0,0-1.239-.347,2.075,2.075,0,0,0-1.274.374,1.636,1.636,0,0,0-.6,1.182l-1.819-.334Q340.295,8,343.661,8a6.23,6.23,0,0,1,1.05.083,3.751,3.751,0,0,1,.958.3,2.756,2.756,0,0,1,.8.558,2.435,2.435,0,0,1,.536.9,3.743,3.743,0,0,1,.2,1.279v3.428a1.4,1.4,0,0,0,.185.844.8.8,0,0,0,.65.229h.141V17h-.958q-1.5,0-1.793-1.169h-.1a2.874,2.874,0,0,1-1.252,1.011A4.143,4.143,0,0,1,342.457,17.167Zm.475-1.591a2.351,2.351,0,0,0,1.767-.729,2.645,2.645,0,0,0,.7-1.916l-2.259.5a2.708,2.708,0,0,0-1.09.409.883.883,0,0,0-.36.751.849.849,0,0,0,.343.738A1.5,1.5,0,0,0,342.932,15.576Zm16.69-7.585a3.04,3.04,0,0,1,2.263.831,3.289,3.289,0,0,1,.822,2.413V17h-2.039V11.586a1.962,1.962,0,0,0-.488-1.477,1.763,1.763,0,0,0-1.27-.466,2.069,2.069,0,0,0-1.468.549,2.285,2.285,0,0,0-.6,1.727V17h-2.021V3.5h2.021V9.266a3.071,3.071,0,0,1,1.169-.94A3.743,3.743,0,0,1,359.622,7.991Zm6.8-1.521a1.207,1.207,0,0,1-.879-.365,1.226,1.226,0,0,1,0-1.749,1.236,1.236,0,0,1,1.753,0,1.22,1.22,0,0,1,0,1.749A1.2,1.2,0,0,1,366.425,6.471ZM365.388,17V8.158h2.03V17Zm7.849.167a4.552,4.552,0,0,1-2.479-.628,2.623,2.623,0,0,1-1.213-1.824l1.714-.483a1.832,1.832,0,0,0,.694,1.112,2.138,2.138,0,0,0,1.283.374,2.049,2.049,0,0,0,1.072-.264.9.9,0,0,0,.431-.853.824.824,0,0,0-.114-.435,1.2,1.2,0,0,0-.272-.316,1.9,1.9,0,0,0-.453-.25,5.107,5.107,0,0,0-.536-.193l-.655-.193q-.413-.123-.686-.211a6.249,6.249,0,0,1-.844-.325,4,4,0,0,1-.694-.439,1.72,1.72,0,0,1-.532-.69,2.434,2.434,0,0,1-.18-.971,2.324,2.324,0,0,1,.448-1.45,2.549,2.549,0,0,1,1.178-.857A4.824,4.824,0,0,1,373.069,8a4.127,4.127,0,0,1,2.237.571,2.5,2.5,0,0,1,1.129,1.749l-1.6.378a1.594,1.594,0,0,0-.637-.984,2.178,2.178,0,0,0-2.145-.066.828.828,0,0,0-.417.76,1.032,1.032,0,0,0,.031.259.506.506,0,0,0,.119.215l.158.171a.825.825,0,0,0,.229.154q.158.079.255.123a2.767,2.767,0,0,0,.316.11l.325.1q.105.031.365.1l.365.092q.492.132.839.246a4.843,4.843,0,0,1,.765.338,2.665,2.665,0,0,1,.677.5,2.219,2.219,0,0,1,.435.708,2.571,2.571,0,0,1,.176.971,2.623,2.623,0,0,1-.281,1.244,2.139,2.139,0,0,1-.769.835,3.768,3.768,0,0,1-1.09.453A5.449,5.449,0,0,1,373.236,17.167ZM381.858,17A2.5,2.5,0,0,1,380,16.323a2.6,2.6,0,0,1-.668-1.907V9.74h-1.767V8.158h.606a1.382,1.382,0,0,0,1.042-.338,1.709,1.709,0,0,0,.321-1.182V5.267h1.846V8.158H383.3V9.74h-1.925v4.465a1.267,1.267,0,0,0,.3.918,1.093,1.093,0,0,0,.822.312h.8V17Zm7.374.167a4.647,4.647,0,0,1-3.349-1.244,4.421,4.421,0,0,1-1.3-3.353,4.4,4.4,0,0,1,1.3-3.335,5.149,5.149,0,0,1,6.706,0,4.4,4.4,0,0,1,1.3,3.34,4.421,4.421,0,0,1-1.3,3.353A4.658,4.658,0,0,1,389.232,17.167Zm-.018-1.635a2.479,2.479,0,0,0,1.916-.817,3.055,3.055,0,0,0,.747-2.145,3.039,3.039,0,0,0-.747-2.14,2.485,2.485,0,0,0-1.916-.813,2.428,2.428,0,0,0-1.881.813,3.061,3.061,0,0,0-.738,2.14,3.088,3.088,0,0,0,.734,2.145A2.419,2.419,0,0,0,389.215,15.532Zm8.763-5.889A2.67,2.67,0,0,1,399.1,8.519a3.5,3.5,0,0,1,1.727-.457V9.907a3.115,3.115,0,0,0-2.087.593,2.523,2.523,0,0,0-.681,1.991V17h-2.03V8.158h1.951Zm5.52-3.173a1.207,1.207,0,0,1-.879-.365,1.226,1.226,0,0,1,0-1.749,1.236,1.236,0,0,1,1.753,0,1.22,1.22,0,0,1,0,1.749A1.2,1.2,0,0,1,403.5,6.471ZM402.46,17V8.158h2.03V17Zm6.979.167a3.669,3.669,0,0,1-1.349-.233,2.144,2.144,0,0,1-.984-.791,2.353,2.353,0,0,1-.391-1.384,2.564,2.564,0,0,1,.18-.989,2.165,2.165,0,0,1,.475-.725,2.789,2.789,0,0,1,.747-.51,5.358,5.358,0,0,1,.914-.347q.461-.127,1.068-.242l1.336-.246q.817-.158.817-.8a1.256,1.256,0,0,0-.492-1.1,2.1,2.1,0,0,0-1.239-.347,2.075,2.075,0,0,0-1.274.374,1.636,1.636,0,0,0-.6,1.182l-1.819-.334Q407.276,8,410.643,8a6.23,6.23,0,0,1,1.05.083,3.751,3.751,0,0,1,.958.3,2.756,2.756,0,0,1,.8.558,2.435,2.435,0,0,1,.536.9,3.743,3.743,0,0,1,.2,1.279v3.428a1.4,1.4,0,0,0,.185.844.8.8,0,0,0,.65.229h.141V17h-.958q-1.5,0-1.793-1.169h-.1a2.874,2.874,0,0,1-1.252,1.011A4.143,4.143,0,0,1,409.438,17.167Zm.475-1.591a2.351,2.351,0,0,0,1.767-.729,2.645,2.645,0,0,0,.7-1.916l-2.259.5a2.708,2.708,0,0,0-1.09.409.883.883,0,0,0-.36.751.849.849,0,0,0,.343.738A1.5,1.5,0,0,0,409.913,15.576Zm8.692,4.632h-1.459l1.09-5.6h2.092ZM435.63,12.43l-.026.51H428.88a2.667,2.667,0,0,0,.773,1.934,2.525,2.525,0,0,0,1.784.668,2.424,2.424,0,0,0,1.314-.36,2.272,2.272,0,0,0,.875-1.028l1.846.316a3.886,3.886,0,0,1-1.529,1.986,4.392,4.392,0,0,1-2.487.712,4.533,4.533,0,0,1-3.313-1.222,4.494,4.494,0,0,1-1.248-3.366,4.512,4.512,0,0,1,1.248-3.366,4.433,4.433,0,0,1,3.252-1.23,4.21,4.21,0,0,1,3.067,1.129A4.453,4.453,0,0,1,435.63,12.43ZM431.4,9.485a2.58,2.58,0,0,0-1.6.479,2.332,2.332,0,0,0-.839,1.463H433.6a2.131,2.131,0,0,0-.7-1.45A2.251,2.251,0,0,0,431.4,9.485Zm9.334,7.682a4.552,4.552,0,0,1-2.479-.628,2.623,2.623,0,0,1-1.213-1.824l1.714-.483a1.832,1.832,0,0,0,.694,1.112,2.138,2.138,0,0,0,1.283.374,2.049,2.049,0,0,0,1.072-.264.9.9,0,0,0,.431-.853.824.824,0,0,0-.114-.435,1.2,1.2,0,0,0-.272-.316,1.9,1.9,0,0,0-.453-.25,5.107,5.107,0,0,0-.536-.193l-.655-.193q-.413-.123-.686-.211a6.249,6.249,0,0,1-.844-.325,4,4,0,0,1-.694-.439,1.72,1.72,0,0,1-.532-.69,2.434,2.434,0,0,1-.18-.971,2.324,2.324,0,0,1,.448-1.45,2.549,2.549,0,0,1,1.178-.857A4.824,4.824,0,0,1,440.569,8a4.127,4.127,0,0,1,2.237.571,2.5,2.5,0,0,1,1.129,1.749l-1.6.378a1.594,1.594,0,0,0-.637-.984,2.178,2.178,0,0,0-2.145-.066.828.828,0,0,0-.417.76,1.032,1.032,0,0,0,.031.259.506.506,0,0,0,.119.215l.158.171a.825.825,0,0,0,.229.154q.158.079.255.123a2.767,2.767,0,0,0,.316.11l.325.1q.105.031.365.1l.365.092q.492.132.839.246a4.843,4.843,0,0,1,.765.338,2.665,2.665,0,0,1,.677.5,2.219,2.219,0,0,1,.435.708,2.571,2.571,0,0,1,.176.971,2.623,2.623,0,0,1-.281,1.244,2.139,2.139,0,0,1-.769.835,3.768,3.768,0,0,1-1.09.453A5.449,5.449,0,0,1,440.736,17.167Zm9.4-.009a4.376,4.376,0,0,1-4.579-4.588,4.439,4.439,0,0,1,1.288-3.313,4.92,4.92,0,0,1,6-.453,3.838,3.838,0,0,1,1.481,2.272l-1.881.246a2.356,2.356,0,0,0-.866-1.266,2.439,2.439,0,0,0-1.463-.439,2.32,2.32,0,0,0-1.828.813,3.131,3.131,0,0,0-.712,2.14,3.131,3.131,0,0,0,.712,2.14,2.32,2.32,0,0,0,1.828.813,2.456,2.456,0,0,0,1.463-.435,2.334,2.334,0,0,0,.866-1.261l1.881.237a3.843,3.843,0,0,1-1.49,2.276A4.485,4.485,0,0,1,450.132,17.158Zm8.174-7.515a2.67,2.67,0,0,1,1.121-1.125,3.5,3.5,0,0,1,1.727-.457V9.907a3.115,3.115,0,0,0-2.087.593,2.523,2.523,0,0,0-.681,1.991V17h-2.03V8.158h1.951Zm5.52-3.173a1.207,1.207,0,0,1-.879-.365,1.226,1.226,0,0,1,0-1.749,1.236,1.236,0,0,1,1.753,0,1.22,1.22,0,0,1,0,1.749A1.2,1.2,0,0,1,463.825,6.471ZM462.788,17V8.158h2.03V17Zm9.835-9.009a4.089,4.089,0,0,1,1.617.325,4.034,4.034,0,0,1,1.332.91,4.24,4.24,0,0,1,.9,1.455,5.28,5.28,0,0,1,.334,1.907,5.4,5.4,0,0,1-.33,1.92,4.146,4.146,0,0,1-.9,1.459,4.1,4.1,0,0,1-2.953,1.235,3.622,3.622,0,0,1-1.775-.435,2.81,2.81,0,0,1-1.178-1.182L469.617,17h-1.934V3.5H469.7l.009,6.038A2.813,2.813,0,0,1,470.883,8.4,3.667,3.667,0,0,1,472.623,7.991Zm-2.32,6.68a2.42,2.42,0,0,0,1.863.817,2.458,2.458,0,0,0,1.868-.8,2.943,2.943,0,0,0,.751-2.1,2.927,2.927,0,0,0-.751-2.1,2.465,2.465,0,0,0-1.868-.8,2.424,2.424,0,0,0-1.859.817,2.946,2.946,0,0,0-.751,2.074A2.968,2.968,0,0,0,470.3,14.671ZM480,6.471a1.207,1.207,0,0,1-.879-.365,1.226,1.226,0,0,1,0-1.749,1.236,1.236,0,0,1,1.753,0,1.22,1.22,0,0,1,0,1.749A1.2,1.2,0,0,1,480,6.471ZM478.96,17V8.158h2.03V17Zm6.847-7.356a2.67,2.67,0,0,1,1.121-1.125,3.5,3.5,0,0,1,1.727-.457V9.907a3.115,3.115,0,0,0-2.087.593,2.523,2.523,0,0,0-.681,1.991V17h-2.03V8.158h1.951Zm13.86-1.652a3.273,3.273,0,0,1,2.338.8,2.96,2.96,0,0,1,.844,2.263V17H500.81V11.489a1.814,1.814,0,0,0-.488-1.393,1.768,1.768,0,0,0-1.252-.453,2.066,2.066,0,0,0-1.494.558,2.311,2.311,0,0,0-.589,1.718V17h-2.021V8.158h2.021V9.2a2.987,2.987,0,0,1,1.138-.9A3.658,3.658,0,0,1,499.667,7.991Zm9.791,9.176a4.647,4.647,0,0,1-3.349-1.244,4.421,4.421,0,0,1-1.3-3.353,4.4,4.4,0,0,1,1.3-3.335,5.149,5.149,0,0,1,6.706,0,4.4,4.4,0,0,1,1.3,3.34,4.421,4.421,0,0,1-1.3,3.353A4.658,4.658,0,0,1,509.458,17.167Zm-.018-1.635a2.479,2.479,0,0,0,1.916-.817,3.055,3.055,0,0,0,.747-2.145,3.039,3.039,0,0,0-.747-2.14,2.485,2.485,0,0,0-1.916-.813,2.428,2.428,0,0,0-1.881.813,3.061,3.061,0,0,0-.738,2.14,3.088,3.088,0,0,0,.734,2.145A2.419,2.419,0,0,0,509.44,15.532ZM9.457,34.43l-.026.51H2.707a2.667,2.667,0,0,0,.773,1.934,2.525,2.525,0,0,0,1.784.668,2.424,2.424,0,0,0,1.314-.36,2.272,2.272,0,0,0,.875-1.028l1.846.316A3.886,3.886,0,0,1,7.77,38.455a4.392,4.392,0,0,1-2.487.712,4.533,4.533,0,0,1-3.313-1.222A4.494,4.494,0,0,1,.721,34.579a4.512,4.512,0,0,1,1.248-3.366,4.433,4.433,0,0,1,3.252-1.23,4.21,4.21,0,0,1,3.067,1.129A4.453,4.453,0,0,1,9.457,34.43ZM5.229,31.485a2.58,2.58,0,0,0-1.6.479,2.332,2.332,0,0,0-.839,1.463H7.427a2.131,2.131,0,0,0-.7-1.45A2.251,2.251,0,0,0,5.229,31.485Zm9.334,7.682a4.552,4.552,0,0,1-2.479-.628,2.623,2.623,0,0,1-1.213-1.824l1.714-.483a1.832,1.832,0,0,0,.694,1.112,2.138,2.138,0,0,0,1.283.374,2.049,2.049,0,0,0,1.072-.264.9.9,0,0,0,.431-.853.824.824,0,0,0-.114-.435,1.2,1.2,0,0,0-.272-.316,1.9,1.9,0,0,0-.453-.25,5.107,5.107,0,0,0-.536-.193l-.655-.193q-.413-.123-.686-.211a6.249,6.249,0,0,1-.844-.325,4,4,0,0,1-.694-.439,1.72,1.72,0,0,1-.532-.69,2.434,2.434,0,0,1-.18-.971,2.324,2.324,0,0,1,.448-1.45,2.549,2.549,0,0,1,1.178-.857A4.824,4.824,0,0,1,14.4,30a4.127,4.127,0,0,1,2.237.571,2.5,2.5,0,0,1,1.129,1.749l-1.6.378a1.594,1.594,0,0,0-.637-.984,2.178,2.178,0,0,0-2.145-.066.828.828,0,0,0-.417.76,1.032,1.032,0,0,0,.031.259.506.506,0,0,0,.119.215l.158.171a.825.825,0,0,0,.229.154q.158.079.255.123a2.767,2.767,0,0,0,.316.11l.325.1q.105.031.365.1l.365.092q.492.132.839.246a4.843,4.843,0,0,1,.765.338,2.665,2.665,0,0,1,.677.5,2.219,2.219,0,0,1,.435.708,2.571,2.571,0,0,1,.176.971,2.623,2.623,0,0,1-.281,1.244,2.139,2.139,0,0,1-.769.835,3.768,3.768,0,0,1-1.09.453A5.449,5.449,0,0,1,14.563,39.167ZM30.48,30.158H32.5V39H30.577l-.053-1.107A3.163,3.163,0,0,1,27.8,39.167a3.273,3.273,0,0,1-2.338-.8,2.96,2.96,0,0,1-.844-2.263v-5.95h2.039v5.511a1.814,1.814,0,0,0,.488,1.393,1.781,1.781,0,0,0,1.261.453,2.051,2.051,0,0,0,1.49-.558,2.322,2.322,0,0,0,.584-1.718Zm9.589-.167a3.273,3.273,0,0,1,2.338.8,2.96,2.96,0,0,1,.844,2.263V39H41.212V33.489a1.814,1.814,0,0,0-.488-1.393,1.768,1.768,0,0,0-1.252-.453,2.066,2.066,0,0,0-1.494.558,2.311,2.311,0,0,0-.589,1.718V39H35.367V30.158h2.021V31.2a2.987,2.987,0,0,1,1.138-.9A3.658,3.658,0,0,1,40.069,29.991Zm15.478,0a4.12,4.12,0,0,1,2.1.545,3.975,3.975,0,0,1,1.516,1.6,5.076,5.076,0,0,1,.571,2.448,5.431,5.431,0,0,1-.33,1.929,4.146,4.146,0,0,1-.9,1.459,4.038,4.038,0,0,1-1.332.905,4.128,4.128,0,0,1-1.622.321,3.624,3.624,0,0,1-1.727-.413,2.851,2.851,0,0,1-1.182-1.134v5.722H50.616V30.158H52.55L52.6,31.6a2.805,2.805,0,0,1,1.182-1.182A3.638,3.638,0,0,1,55.547,29.991Zm-.439,7.5a2.447,2.447,0,0,0,1.854-.791,2.946,2.946,0,0,0,.747-2.109,2.915,2.915,0,0,0-.747-2.1,2.575,2.575,0,0,0-3.727.031,3.23,3.23,0,0,0,0,4.153A2.447,2.447,0,0,0,55.107,37.488Zm8.736-5.845a2.67,2.67,0,0,1,1.121-1.125,3.5,3.5,0,0,1,1.727-.457v1.846A3.115,3.115,0,0,0,64.6,32.5a2.523,2.523,0,0,0-.681,1.991V39h-2.03V30.158h1.951Zm5.52-3.173a1.207,1.207,0,0,1-.879-.365,1.226,1.226,0,0,1,0-1.749,1.236,1.236,0,0,1,1.753,0,1.239,1.239,0,0,1-.87,2.114ZM68.326,39V30.158h2.03V39Zm10.529-8.842h2.153L77.326,39H75.577l-3.656-8.842h2.145l2.382,6.521Zm4.755-1.687a1.207,1.207,0,0,1-.879-.365,1.226,1.226,0,0,1,0-1.749,1.236,1.236,0,0,1,1.753,0,1.239,1.239,0,0,1-.87,2.114ZM82.573,39V30.158H84.6V39Zm4.9,0V25.5h2.039V39ZM100.4,34.43l-.026.51H93.647a2.667,2.667,0,0,0,.773,1.934,2.525,2.525,0,0,0,1.784.668,2.424,2.424,0,0,0,1.314-.36,2.272,2.272,0,0,0,.875-1.028l1.846.316a3.886,3.886,0,0,1-1.529,1.986,4.392,4.392,0,0,1-2.487.712,4.747,4.747,0,0,1-3.313-7.954,4.433,4.433,0,0,1,3.252-1.23,4.21,4.21,0,0,1,3.067,1.129A4.453,4.453,0,0,1,100.4,34.43ZM96.17,31.485a2.58,2.58,0,0,0-1.6.479,2.332,2.332,0,0,0-.839,1.463h4.632a2.131,2.131,0,0,0-.7-1.45A2.251,2.251,0,0,0,96.17,31.485Zm12.612-1.327h1.951v8.288a4.813,4.813,0,0,1-1.191,3.546,4.473,4.473,0,0,1-3.309,1.191q-3.349,0-4.43-2.725l1.679-.756a3.11,3.11,0,0,0,1.037,1.4,2.756,2.756,0,0,0,1.635.461,2.319,2.319,0,0,0,1.9-.778,3.387,3.387,0,0,0,.642-2.21v-1.31a2.923,2.923,0,0,1-1.182,1.05,3.664,3.664,0,0,1-1.7.4,3.8,3.8,0,0,1-2.861-1.23,4.374,4.374,0,0,1-1.173-3.146,4.794,4.794,0,0,1,.325-1.78,4.076,4.076,0,0,1,.875-1.38,4,4,0,0,1,1.288-.875,3.93,3.93,0,0,1,1.564-.316,3.552,3.552,0,0,1,1.736.426,2.85,2.85,0,0,1,1.165,1.129ZM106.3,37.049a2.418,2.418,0,0,0,1.828-.791,2.842,2.842,0,0,0,0-3.836,2.528,2.528,0,0,0-3.661-.022,2.894,2.894,0,0,0,.009,3.872A2.427,2.427,0,0,0,106.3,37.049Zm8.323-8.578a1.207,1.207,0,0,1-.879-.365,1.226,1.226,0,0,1,0-1.749,1.236,1.236,0,0,1,1.753,0,1.239,1.239,0,0,1-.87,2.114ZM113.59,39V30.158h2.03V39Zm8.815.167a4.647,4.647,0,0,1-3.349-1.244,4.421,4.421,0,0,1-1.3-3.353,4.4,4.4,0,0,1,1.3-3.335,5.149,5.149,0,0,1,6.706,0,4.4,4.4,0,0,1,1.3,3.34,4.421,4.421,0,0,1-1.3,3.353A4.658,4.658,0,0,1,122.405,39.167Zm-.018-1.635a2.479,2.479,0,0,0,1.916-.817,3.445,3.445,0,0,0,0-4.285,2.485,2.485,0,0,0-1.916-.813,2.428,2.428,0,0,0-1.881.813,3.486,3.486,0,0,0,0,4.285A2.419,2.419,0,0,0,122.388,37.532ZM140.265,25.5h2.021V39h-1.934l-.053-1.406a2.845,2.845,0,0,1-1.182,1.178,3.608,3.608,0,0,1-1.762.431,4.1,4.1,0,0,1-2.953-1.235,4.2,4.2,0,0,1-.905-1.459,5.341,5.341,0,0,1-.334-1.92,5.28,5.28,0,0,1,.334-1.907,4.2,4.2,0,0,1,.905-1.455,4.116,4.116,0,0,1,2.953-1.235,3.656,3.656,0,0,1,1.727.409,2.84,2.84,0,0,1,1.182,1.121Zm-4.329,11.188a2.458,2.458,0,0,0,1.868.8,2.42,2.42,0,0,0,1.863-.817,3.258,3.258,0,0,0,0-4.157A2.424,2.424,0,0,0,137.8,31.7a2.465,2.465,0,0,0-1.868.8,3.305,3.305,0,0,0,0,4.2Zm17.24-2.259-.026.51h-6.724a2.667,2.667,0,0,0,.773,1.934,2.525,2.525,0,0,0,1.784.668,2.424,2.424,0,0,0,1.314-.36,2.272,2.272,0,0,0,.875-1.028l1.846.316a3.886,3.886,0,0,1-1.529,1.986,4.392,4.392,0,0,1-2.487.712,4.747,4.747,0,0,1-3.313-7.954,4.433,4.433,0,0,1,3.252-1.23,4.21,4.21,0,0,1,3.067,1.129A4.453,4.453,0,0,1,153.176,34.43Zm-4.228-2.944a2.58,2.58,0,0,0-1.6.479,2.332,2.332,0,0,0-.839,1.463h4.632a2.131,2.131,0,0,0-.7-1.45A2.251,2.251,0,0,0,148.948,31.485ZM160,39V25.5h2.039V39Zm8.824.167a4.647,4.647,0,0,1-3.349-1.244,4.421,4.421,0,0,1-1.3-3.353,4.4,4.4,0,0,1,1.3-3.335,5.149,5.149,0,0,1,6.706,0,4.4,4.4,0,0,1,1.3,3.34,4.421,4.421,0,0,1-1.3,3.353A4.658,4.658,0,0,1,168.829,39.167Zm-.018-1.635a2.479,2.479,0,0,0,1.916-.817,3.445,3.445,0,0,0,0-4.285,2.485,2.485,0,0,0-1.916-.813,2.428,2.428,0,0,0-1.881.813,3.486,3.486,0,0,0,0,4.285A2.419,2.419,0,0,0,168.812,37.532Zm9.765,1.635a4.552,4.552,0,0,1-2.479-.628,2.623,2.623,0,0,1-1.213-1.824l1.714-.483a1.832,1.832,0,0,0,.694,1.112,2.138,2.138,0,0,0,1.283.374,2.049,2.049,0,0,0,1.072-.264.9.9,0,0,0,.431-.853.824.824,0,0,0-.114-.435,1.2,1.2,0,0,0-.272-.316,1.9,1.9,0,0,0-.453-.25,5.107,5.107,0,0,0-.536-.193l-.655-.193q-.413-.123-.686-.211a6.249,6.249,0,0,1-.844-.325,4,4,0,0,1-.694-.439,1.72,1.72,0,0,1-.532-.69,2.434,2.434,0,0,1-.18-.971,2.324,2.324,0,0,1,.448-1.45,2.549,2.549,0,0,1,1.178-.857,4.824,4.824,0,0,1,1.67-.268,4.127,4.127,0,0,1,2.237.571,2.5,2.5,0,0,1,1.129,1.749l-1.6.378a1.594,1.594,0,0,0-.637-.984,2.178,2.178,0,0,0-2.145-.066.828.828,0,0,0-.417.76,1.032,1.032,0,0,0,.031.259.506.506,0,0,0,.119.215l.158.171a.825.825,0,0,0,.229.154q.158.079.255.123a2.767,2.767,0,0,0,.316.11l.325.1q.105.031.365.1l.365.092q.492.132.839.246a4.843,4.843,0,0,1,.765.338,2.665,2.665,0,0,1,.677.5,2.219,2.219,0,0,1,.435.708,2.571,2.571,0,0,1,.176.971,2.623,2.623,0,0,1-.281,1.244,2.139,2.139,0,0,1-.769.835,3.768,3.768,0,0,1-1.09.453A5.449,5.449,0,0,1,178.576,39.167Zm11.276-10.7a1.207,1.207,0,0,1-.879-.365,1.226,1.226,0,0,1,0-1.749,1.236,1.236,0,0,1,1.753,0,1.239,1.239,0,0,1-.87,2.114ZM188.815,39V30.158h2.03V39Zm9.6-9.009a3.273,3.273,0,0,1,2.338.8,2.96,2.96,0,0,1,.844,2.263V39h-2.039V33.489a1.814,1.814,0,0,0-.488-1.393,1.768,1.768,0,0,0-1.252-.453,2.066,2.066,0,0,0-1.494.558,2.311,2.311,0,0,0-.589,1.718V39h-2.021V30.158h2.021V31.2a2.987,2.987,0,0,1,1.138-.9A3.658,3.658,0,0,1,198.413,29.991ZM207.343,39a2.5,2.5,0,0,1-1.863-.677,2.6,2.6,0,0,1-.668-1.907V31.74h-1.767V30.158h.606a1.382,1.382,0,0,0,1.042-.338,1.709,1.709,0,0,0,.321-1.182V27.267h1.846v2.892h1.925V31.74h-1.925v4.465a1.267,1.267,0,0,0,.3.918,1.093,1.093,0,0,0,.822.312h.8V39Zm11.479-4.57-.026.51h-6.724a2.667,2.667,0,0,0,.773,1.934,2.525,2.525,0,0,0,1.784.668,2.424,2.424,0,0,0,1.314-.36,2.272,2.272,0,0,0,.875-1.028l1.846.316a3.886,3.886,0,0,1-1.529,1.986,4.392,4.392,0,0,1-2.487.712,4.747,4.747,0,0,1-3.313-7.954,4.433,4.433,0,0,1,3.252-1.23,4.21,4.21,0,0,1,3.067,1.129A4.453,4.453,0,0,1,218.821,34.43Zm-4.228-2.944a2.58,2.58,0,0,0-1.6.479,2.332,2.332,0,0,0-.839,1.463h4.632a2.131,2.131,0,0,0-.7-1.45A2.251,2.251,0,0,0,214.594,31.485ZM220.975,39V25.5h2.039V39ZM233.9,34.43l-.026.51h-6.724a2.667,2.667,0,0,0,.773,1.934,2.525,2.525,0,0,0,1.784.668,2.424,2.424,0,0,0,1.314-.36,2.272,2.272,0,0,0,.875-1.028l1.846.316a3.886,3.886,0,0,1-1.529,1.986,4.392,4.392,0,0,1-2.487.712,4.747,4.747,0,0,1-3.313-7.954,4.433,4.433,0,0,1,3.252-1.23,4.21,4.21,0,0,1,3.067,1.129A4.453,4.453,0,0,1,233.9,34.43Zm-4.228-2.944a2.58,2.58,0,0,0-1.6.479,2.332,2.332,0,0,0-.839,1.463h4.632a2.131,2.131,0,0,0-.7-1.45A2.251,2.251,0,0,0,229.676,31.485Zm10.213,7.673a4.376,4.376,0,0,1-4.579-4.588,4.439,4.439,0,0,1,1.288-3.313,4.92,4.92,0,0,1,6-.453,3.838,3.838,0,0,1,1.481,2.272l-1.881.246a2.356,2.356,0,0,0-.866-1.266,2.439,2.439,0,0,0-1.463-.439,2.32,2.32,0,0,0-1.828.813,3.573,3.573,0,0,0,0,4.28,2.32,2.32,0,0,0,1.828.813,2.456,2.456,0,0,0,1.463-.435,2.334,2.334,0,0,0,.866-1.261l1.881.237a3.843,3.843,0,0,1-1.49,2.276A4.485,4.485,0,0,1,239.889,39.158ZM249.17,39a2.5,2.5,0,0,1-1.863-.677,2.6,2.6,0,0,1-.668-1.907V31.74h-1.767V30.158h.606a1.382,1.382,0,0,0,1.042-.338,1.709,1.709,0,0,0,.321-1.182V27.267h1.846v2.892h1.925V31.74h-1.925v4.465a1.267,1.267,0,0,0,.3.918,1.093,1.093,0,0,0,.822.312h.8V39Zm9.2-8.842h2.021V39h-1.925l-.053-1.107a3.163,3.163,0,0,1-2.725,1.274,3.273,3.273,0,0,1-2.338-.8,2.96,2.96,0,0,1-.844-2.263v-5.95h2.039v5.511a1.814,1.814,0,0,0,.488,1.393,1.781,1.781,0,0,0,1.261.453,2.051,2.051,0,0,0,1.49-.558,2.322,2.322,0,0,0,.584-1.718Zm6.97,9.009a3.669,3.669,0,0,1-1.349-.233,2.144,2.144,0,0,1-.984-.791,2.353,2.353,0,0,1-.391-1.384,2.564,2.564,0,0,1,.18-.989,2.165,2.165,0,0,1,.475-.725,2.789,2.789,0,0,1,.747-.51,5.358,5.358,0,0,1,.914-.347q.461-.127,1.068-.242l1.336-.246q.817-.158.817-.8a1.256,1.256,0,0,0-.492-1.1,2.1,2.1,0,0,0-1.239-.347,2.075,2.075,0,0,0-1.274.374,1.636,1.636,0,0,0-.6,1.182l-1.819-.334Q263.18,30,266.546,30a6.23,6.23,0,0,1,1.05.083,3.751,3.751,0,0,1,.958.3,2.756,2.756,0,0,1,.8.558,2.435,2.435,0,0,1,.536.9,3.743,3.743,0,0,1,.2,1.279v3.428a1.4,1.4,0,0,0,.185.844.8.8,0,0,0,.65.229h.141V39h-.958q-1.5,0-1.793-1.169h-.1a2.874,2.874,0,0,1-1.252,1.011A4.143,4.143,0,0,1,265.342,39.167Zm.475-1.591a2.351,2.351,0,0,0,1.767-.729,2.645,2.645,0,0,0,.7-1.916l-2.259.5a2.708,2.708,0,0,0-1.09.409.883.883,0,0,0-.36.751.849.849,0,0,0,.343.738A1.5,1.5,0,0,0,265.816,37.576ZM273.032,39V25.5h2.039V39Zm12.929-4.57-.026.51h-6.724a2.667,2.667,0,0,0,.773,1.934,2.525,2.525,0,0,0,1.784.668,2.424,2.424,0,0,0,1.314-.36,2.272,2.272,0,0,0,.875-1.028l1.846.316a3.886,3.886,0,0,1-1.529,1.986,4.392,4.392,0,0,1-2.487.712,4.747,4.747,0,0,1-3.313-7.954,4.433,4.433,0,0,1,3.252-1.23,4.21,4.21,0,0,1,3.067,1.129A4.453,4.453,0,0,1,285.961,34.43Zm-4.228-2.944a2.58,2.58,0,0,0-1.6.479,2.332,2.332,0,0,0-.839,1.463h4.632a2.131,2.131,0,0,0-.7-1.45A2.251,2.251,0,0,0,281.733,31.485Zm9.334,7.682a4.552,4.552,0,0,1-2.479-.628,2.623,2.623,0,0,1-1.213-1.824l1.714-.483a1.832,1.832,0,0,0,.694,1.112,2.138,2.138,0,0,0,1.283.374,2.049,2.049,0,0,0,1.072-.264.9.9,0,0,0,.431-.853.824.824,0,0,0-.114-.435,1.2,1.2,0,0,0-.272-.316,1.9,1.9,0,0,0-.453-.25,5.107,5.107,0,0,0-.536-.193l-.655-.193q-.413-.123-.686-.211a6.249,6.249,0,0,1-.844-.325,4,4,0,0,1-.694-.439,1.72,1.72,0,0,1-.532-.69,2.434,2.434,0,0,1-.18-.971,2.324,2.324,0,0,1,.448-1.45,2.549,2.549,0,0,1,1.178-.857A4.824,4.824,0,0,1,290.9,30a4.127,4.127,0,0,1,2.237.571,2.5,2.5,0,0,1,1.129,1.749l-1.6.378a1.594,1.594,0,0,0-.637-.984,2.178,2.178,0,0,0-2.145-.066.828.828,0,0,0-.417.76,1.032,1.032,0,0,0,.031.259.506.506,0,0,0,.119.215l.158.171a.825.825,0,0,0,.229.154q.158.079.255.123a2.767,2.767,0,0,0,.316.11l.325.1q.105.031.365.1l.365.092q.492.132.839.246a4.843,4.843,0,0,1,.765.338,2.665,2.665,0,0,1,.677.5,2.219,2.219,0,0,1,.435.708,2.571,2.571,0,0,1,.176.971,2.623,2.623,0,0,1-.281,1.244,2.139,2.139,0,0,1-.769.835,3.768,3.768,0,0,1-1.09.453A5.449,5.449,0,0,1,291.067,39.167Zm8.134-6.293a1.2,1.2,0,0,1-.875.369,1.239,1.239,0,0,1,0-2.479,1.2,1.2,0,0,1,.875.369,1.174,1.174,0,0,1,.374.861A1.193,1.193,0,0,1,299.2,32.874Zm-2.852,9.334,1.09-5.6h2.1l-1.731,5.6Zm18.765-7.778-.026.51h-6.724a2.667,2.667,0,0,0,.773,1.934,2.525,2.525,0,0,0,1.784.668,2.424,2.424,0,0,0,1.314-.36,2.272,2.272,0,0,0,.875-1.028l1.846.316a3.886,3.886,0,0,1-1.529,1.986,4.392,4.392,0,0,1-2.487.712,4.747,4.747,0,0,1-3.313-7.954,4.433,4.433,0,0,1,3.252-1.23,4.21,4.21,0,0,1,3.067,1.129A4.453,4.453,0,0,1,315.114,34.43Zm-4.228-2.944a2.58,2.58,0,0,0-1.6.479,2.332,2.332,0,0,0-.839,1.463h4.632a2.131,2.131,0,0,0-.7-1.45A2.251,2.251,0,0,0,310.887,31.485Zm9.334,7.682a4.552,4.552,0,0,1-2.479-.628,2.623,2.623,0,0,1-1.213-1.824l1.714-.483a1.832,1.832,0,0,0,.694,1.112,2.138,2.138,0,0,0,1.283.374,2.049,2.049,0,0,0,1.072-.264.9.9,0,0,0,.431-.853.824.824,0,0,0-.114-.435,1.2,1.2,0,0,0-.272-.316,1.9,1.9,0,0,0-.453-.25,5.107,5.107,0,0,0-.536-.193l-.655-.193q-.413-.123-.686-.211a6.249,6.249,0,0,1-.844-.325,4,4,0,0,1-.694-.439,1.72,1.72,0,0,1-.532-.69,2.434,2.434,0,0,1-.18-.971,2.324,2.324,0,0,1,.448-1.45,2.549,2.549,0,0,1,1.178-.857,4.824,4.824,0,0,1,1.67-.268,4.127,4.127,0,0,1,2.237.571,2.5,2.5,0,0,1,1.129,1.749l-1.6.378a1.594,1.594,0,0,0-.637-.984,2.178,2.178,0,0,0-2.145-.066.828.828,0,0,0-.417.76,1.032,1.032,0,0,0,.031.259.506.506,0,0,0,.119.215l.158.171a.825.825,0,0,0,.229.154q.158.079.255.123a2.767,2.767,0,0,0,.316.11l.325.1q.105.031.365.1l.365.092q.492.132.839.246a4.843,4.843,0,0,1,.765.338,2.665,2.665,0,0,1,.677.5,2.219,2.219,0,0,1,.435.708,2.571,2.571,0,0,1,.176.971,2.623,2.623,0,0,1-.281,1.244,2.139,2.139,0,0,1-.769.835,3.768,3.768,0,0,1-1.09.453A5.449,5.449,0,0,1,320.221,39.167Zm9.4-.009a4.376,4.376,0,0,1-4.579-4.588,4.439,4.439,0,0,1,1.288-3.313,4.92,4.92,0,0,1,6-.453,3.838,3.838,0,0,1,1.481,2.272l-1.881.246a2.356,2.356,0,0,0-.866-1.266,2.439,2.439,0,0,0-1.463-.439,2.32,2.32,0,0,0-1.828.813,3.573,3.573,0,0,0,0,4.28,2.32,2.32,0,0,0,1.828.813,2.456,2.456,0,0,0,1.463-.435,2.334,2.334,0,0,0,.866-1.261l1.881.237a3.843,3.843,0,0,1-1.49,2.276A4.485,4.485,0,0,1,329.616,39.158Zm8.174-7.515a2.67,2.67,0,0,1,1.121-1.125,3.5,3.5,0,0,1,1.727-.457v1.846a3.115,3.115,0,0,0-2.087.593,2.523,2.523,0,0,0-.681,1.991V39h-2.03V30.158h1.951Zm5.52-3.173a1.207,1.207,0,0,1-.879-.365,1.226,1.226,0,0,1,0-1.749,1.236,1.236,0,0,1,1.753,0,1.239,1.239,0,0,1-.87,2.114ZM342.272,39V30.158h2.03V39Zm9.835-9.009a4.089,4.089,0,0,1,1.617.325,4.034,4.034,0,0,1,1.332.91,4.24,4.24,0,0,1,.9,1.455,5.28,5.28,0,0,1,.334,1.907,5.4,5.4,0,0,1-.33,1.92,4.146,4.146,0,0,1-.9,1.459,4.1,4.1,0,0,1-2.953,1.235,3.622,3.622,0,0,1-1.775-.435,2.81,2.81,0,0,1-1.178-1.182L349.1,39h-1.934V25.5h2.013l.009,6.038a2.813,2.813,0,0,1,1.178-1.138A3.667,3.667,0,0,1,352.107,29.991Zm-2.32,6.68a2.42,2.42,0,0,0,1.863.817,2.458,2.458,0,0,0,1.868-.8,3.305,3.305,0,0,0,0-4.2,2.465,2.465,0,0,0-1.868-.8,2.424,2.424,0,0,0-1.859.817,3.258,3.258,0,0,0,0,4.157Zm9.694-8.2a1.207,1.207,0,0,1-.879-.365,1.226,1.226,0,0,1,0-1.749,1.236,1.236,0,0,1,1.753,0,1.239,1.239,0,0,1-.87,2.114ZM358.444,39V30.158h2.03V39Zm6.847-7.356a2.67,2.67,0,0,1,1.121-1.125,3.5,3.5,0,0,1,1.727-.457v1.846a3.115,3.115,0,0,0-2.087.593,2.523,2.523,0,0,0-.681,1.991V39h-2.03V30.158h1.951Zm17.183,2.786-.026.51h-6.724a2.667,2.667,0,0,0,.773,1.934,2.525,2.525,0,0,0,1.784.668,2.424,2.424,0,0,0,1.314-.36,2.272,2.272,0,0,0,.875-1.028l1.846.316a3.886,3.886,0,0,1-1.529,1.986,4.392,4.392,0,0,1-2.487.712,4.747,4.747,0,0,1-3.313-7.954,4.433,4.433,0,0,1,3.252-1.23,4.21,4.21,0,0,1,3.067,1.129A4.453,4.453,0,0,1,382.474,34.43Zm-4.228-2.944a2.58,2.58,0,0,0-1.6.479,2.332,2.332,0,0,0-.839,1.463h4.632a2.131,2.131,0,0,0-.7-1.45A2.251,2.251,0,0,0,378.246,31.485Zm9.334,7.682a4.552,4.552,0,0,1-2.479-.628,2.623,2.623,0,0,1-1.213-1.824l1.714-.483a1.832,1.832,0,0,0,.694,1.112,2.138,2.138,0,0,0,1.283.374,2.049,2.049,0,0,0,1.072-.264.9.9,0,0,0,.431-.853.824.824,0,0,0-.114-.435,1.2,1.2,0,0,0-.272-.316,1.9,1.9,0,0,0-.453-.25,5.107,5.107,0,0,0-.536-.193l-.655-.193q-.413-.123-.686-.211a6.249,6.249,0,0,1-.844-.325,4,4,0,0,1-.694-.439,1.72,1.72,0,0,1-.532-.69,2.434,2.434,0,0,1-.18-.971,2.324,2.324,0,0,1,.448-1.45,2.549,2.549,0,0,1,1.178-.857,4.824,4.824,0,0,1,1.67-.268,4.127,4.127,0,0,1,2.237.571,2.5,2.5,0,0,1,1.129,1.749l-1.6.378a1.594,1.594,0,0,0-.637-.984,2.178,2.178,0,0,0-2.145-.066.828.828,0,0,0-.417.76,1.032,1.032,0,0,0,.031.259.506.506,0,0,0,.119.215l.158.171a.825.825,0,0,0,.229.154q.158.079.255.123a2.767,2.767,0,0,0,.316.11l.325.1q.105.031.365.1l.365.092q.492.132.839.246a4.843,4.843,0,0,1,.765.338,2.665,2.665,0,0,1,.677.5,2.219,2.219,0,0,1,.435.708,2.571,2.571,0,0,1,.176.971,2.623,2.623,0,0,1-.281,1.244,2.139,2.139,0,0,1-.769.835,3.768,3.768,0,0,1-1.09.453A5.449,5.449,0,0,1,387.58,39.167ZM403.5,30.158h2.021V39h-1.925l-.053-1.107a3.163,3.163,0,0,1-2.725,1.274,3.273,3.273,0,0,1-2.338-.8,2.96,2.96,0,0,1-.844-2.263v-5.95h2.039v5.511a1.814,1.814,0,0,0,.488,1.393,1.781,1.781,0,0,0,1.261.453,2.051,2.051,0,0,0,1.49-.558,2.322,2.322,0,0,0,.584-1.718Zm9.589-.167a3.273,3.273,0,0,1,2.338.8,2.96,2.96,0,0,1,.844,2.263V39h-2.039V33.489a1.814,1.814,0,0,0-.488-1.393,1.768,1.768,0,0,0-1.252-.453,2.066,2.066,0,0,0-1.494.558,2.311,2.311,0,0,0-.589,1.718V39h-2.021V30.158h2.021V31.2a2.987,2.987,0,0,1,1.138-.9A3.658,3.658,0,0,1,413.086,29.991Zm7.954,9.176a3.669,3.669,0,0,1-1.349-.233,2.144,2.144,0,0,1-.984-.791,2.353,2.353,0,0,1-.391-1.384,2.564,2.564,0,0,1,.18-.989,2.165,2.165,0,0,1,.475-.725,2.789,2.789,0,0,1,.747-.51,5.358,5.358,0,0,1,.914-.347q.461-.127,1.068-.242l1.336-.246q.817-.158.817-.8a1.256,1.256,0,0,0-.492-1.1,2.1,2.1,0,0,0-1.239-.347,2.075,2.075,0,0,0-1.274.374,1.636,1.636,0,0,0-.6,1.182l-1.819-.334Q418.878,30,422.244,30a6.23,6.23,0,0,1,1.05.083,3.751,3.751,0,0,1,.958.3,2.756,2.756,0,0,1,.8.558,2.435,2.435,0,0,1,.536.9,3.743,3.743,0,0,1,.2,1.279v3.428a1.4,1.4,0,0,0,.185.844.8.8,0,0,0,.65.229h.141V39h-.958q-1.5,0-1.793-1.169h-.1a2.874,2.874,0,0,1-1.252,1.011A4.143,4.143,0,0,1,421.04,39.167Zm.475-1.591a2.351,2.351,0,0,0,1.767-.729,2.645,2.645,0,0,0,.7-1.916l-2.259.5a2.708,2.708,0,0,0-1.09.409.883.883,0,0,0-.36.751.849.849,0,0,0,.343.738A1.5,1.5,0,0,0,421.515,37.576Zm13.975,1.591a3.669,3.669,0,0,1-1.349-.233,2.144,2.144,0,0,1-.984-.791,2.353,2.353,0,0,1-.391-1.384,2.564,2.564,0,0,1,.18-.989,2.165,2.165,0,0,1,.475-.725,2.789,2.789,0,0,1,.747-.51,5.358,5.358,0,0,1,.914-.347q.461-.127,1.068-.242l1.336-.246q.817-.158.817-.8a1.256,1.256,0,0,0-.492-1.1,2.1,2.1,0,0,0-1.239-.347,2.075,2.075,0,0,0-1.274.374,1.636,1.636,0,0,0-.6,1.182l-1.819-.334Q433.327,30,436.693,30a6.23,6.23,0,0,1,1.05.083,3.751,3.751,0,0,1,.958.3,2.756,2.756,0,0,1,.8.558,2.435,2.435,0,0,1,.536.9,3.743,3.743,0,0,1,.2,1.279v3.428a1.4,1.4,0,0,0,.185.844.8.8,0,0,0,.65.229h.141V39h-.958q-1.5,0-1.793-1.169h-.1a2.874,2.874,0,0,1-1.252,1.011A4.143,4.143,0,0,1,435.489,39.167Zm.475-1.591a2.351,2.351,0,0,0,1.767-.729,2.645,2.645,0,0,0,.7-1.916l-2.259.5a2.708,2.708,0,0,0-1.09.409.883.883,0,0,0-.36.751.849.849,0,0,0,.343.738A1.5,1.5,0,0,0,435.964,37.576Zm10.846,1.582a4.376,4.376,0,0,1-4.579-4.588,4.439,4.439,0,0,1,1.288-3.313,4.92,4.92,0,0,1,6-.453A3.838,3.838,0,0,1,451,33.076l-1.881.246a2.356,2.356,0,0,0-.866-1.266,2.439,2.439,0,0,0-1.463-.439,2.32,2.32,0,0,0-1.828.813,3.573,3.573,0,0,0,0,4.28,2.32,2.32,0,0,0,1.828.813,2.456,2.456,0,0,0,1.463-.435,2.334,2.334,0,0,0,.866-1.261l1.881.237a3.843,3.843,0,0,1-1.49,2.276A4.485,4.485,0,0,1,446.81,39.158ZM456.091,39a2.5,2.5,0,0,1-1.863-.677,2.6,2.6,0,0,1-.668-1.907V31.74h-1.767V30.158h.606a1.382,1.382,0,0,0,1.042-.338,1.709,1.709,0,0,0,.321-1.182V27.267h1.846v2.892h1.925V31.74h-1.925v4.465a1.267,1.267,0,0,0,.3.918,1.093,1.093,0,0,0,.822.312h.8V39Zm4.562-10.529a1.207,1.207,0,0,1-.879-.365,1.226,1.226,0,0,1,0-1.749,1.236,1.236,0,0,1,1.753,0,1.239,1.239,0,0,1-.87,2.114ZM459.615,39V30.158h2.03V39Zm10.529-8.842H472.3L468.615,39h-1.749l-3.656-8.842h2.145l2.382,6.521Zm4.755-1.687a1.207,1.207,0,0,1-.879-.365,1.226,1.226,0,0,1,0-1.749,1.236,1.236,0,0,1,1.753,0,1.239,1.239,0,0,1-.87,2.114ZM473.862,39V30.158h2.03V39Zm11.285-13.5h2.021V39h-1.934l-.053-1.406A2.845,2.845,0,0,1,484,38.771a3.608,3.608,0,0,1-1.762.431,4.1,4.1,0,0,1-2.953-1.235,4.2,4.2,0,0,1-.905-1.459,5.341,5.341,0,0,1-.334-1.92,5.28,5.28,0,0,1,.334-1.907,4.2,4.2,0,0,1,.905-1.455,4.116,4.116,0,0,1,2.953-1.235,3.656,3.656,0,0,1,1.727.409,2.84,2.84,0,0,1,1.182,1.121Zm-4.329,11.188a2.458,2.458,0,0,0,1.868.8,2.42,2.42,0,0,0,1.863-.817,3.258,3.258,0,0,0,0-4.157,2.424,2.424,0,0,0-1.859-.817,2.465,2.465,0,0,0-1.868.8,3.305,3.305,0,0,0,0,4.2Zm11.3,2.479a3.669,3.669,0,0,1-1.349-.233,2.144,2.144,0,0,1-.984-.791,2.353,2.353,0,0,1-.391-1.384,2.564,2.564,0,0,1,.18-.989,2.165,2.165,0,0,1,.475-.725,2.789,2.789,0,0,1,.747-.51,5.358,5.358,0,0,1,.914-.347q.461-.127,1.068-.242l1.336-.246q.817-.158.817-.8a1.256,1.256,0,0,0-.492-1.1,2.1,2.1,0,0,0-1.239-.347,2.075,2.075,0,0,0-1.274.374,1.636,1.636,0,0,0-.6,1.182l-1.819-.334Q489.955,30,493.321,30a6.23,6.23,0,0,1,1.05.083,3.751,3.751,0,0,1,.958.3,2.756,2.756,0,0,1,.8.558,2.435,2.435,0,0,1,.536.9,3.743,3.743,0,0,1,.2,1.279v3.428a1.4,1.4,0,0,0,.185.844.8.8,0,0,0,.65.229h.141V39h-.958q-1.5,0-1.793-1.169H495a2.874,2.874,0,0,1-1.252,1.011A4.143,4.143,0,0,1,492.117,39.167Zm.475-1.591a2.351,2.351,0,0,0,1.767-.729,2.645,2.645,0,0,0,.7-1.916l-2.259.5a2.708,2.708,0,0,0-1.09.409.883.883,0,0,0-.36.751.849.849,0,0,0,.343.738A1.5,1.5,0,0,0,492.592,37.576ZM506,25.5h2.021V39h-1.934l-.053-1.406a2.845,2.845,0,0,1-1.182,1.178,3.608,3.608,0,0,1-1.762.431,4.1,4.1,0,0,1-2.953-1.235,4.2,4.2,0,0,1-.905-1.459,5.341,5.341,0,0,1-.334-1.92,5.28,5.28,0,0,1,.334-1.907,4.2,4.2,0,0,1,.905-1.455,4.116,4.116,0,0,1,2.953-1.235,3.656,3.656,0,0,1,1.727.409A2.84,2.84,0,0,1,506,31.521Zm-4.329,11.188a2.458,2.458,0,0,0,1.868.8,2.42,2.42,0,0,0,1.863-.817,3.258,3.258,0,0,0,0-4.157,2.424,2.424,0,0,0-1.859-.817,2.465,2.465,0,0,0-1.868.8,3.305,3.305,0,0,0,0,4.2ZM6.231,51.991a3.04,3.04,0,0,1,2.263.831,3.289,3.289,0,0,1,.822,2.413V61H7.277V55.586a1.962,1.962,0,0,0-.488-1.477,1.763,1.763,0,0,0-1.27-.466,2.069,2.069,0,0,0-1.468.549,2.285,2.285,0,0,0-.6,1.727V61H1.433V47.5H3.454v5.766a3.071,3.071,0,0,1,1.169-.94A3.743,3.743,0,0,1,6.231,51.991Zm11.443.167H19.7V61H17.771l-.053-1.107a3.163,3.163,0,0,1-2.725,1.274,3.273,3.273,0,0,1-2.338-.8,2.96,2.96,0,0,1-.844-2.263v-5.95h2.039v5.511a1.814,1.814,0,0,0,.488,1.393,1.781,1.781,0,0,0,1.261.453,2.051,2.051,0,0,0,1.49-.558,2.322,2.322,0,0,0,.584-1.718Zm14.651-.167a3.107,3.107,0,0,1,2.171.734,2.664,2.664,0,0,1,.809,2.079V61h-2.03V55.366a1.736,1.736,0,0,0-.439-1.288,1.509,1.509,0,0,0-1.107-.435,1.657,1.657,0,0,0-1.27.523,2.3,2.3,0,0,0-.488,1.613V61H27.914V55.41a1.8,1.8,0,0,0-.444-1.318,1.522,1.522,0,0,0-1.129-.448,1.644,1.644,0,0,0-1.274.541,2.442,2.442,0,0,0-.492,1.683V61H22.562V52.158h2.013v1.09a2.852,2.852,0,0,1,2.5-1.257,3.351,3.351,0,0,1,1.582.356,2.342,2.342,0,0,1,1.02,1.024A2.935,2.935,0,0,1,32.326,51.991Zm7.77,9.176a3.669,3.669,0,0,1-1.349-.233,2.144,2.144,0,0,1-.984-.791,2.353,2.353,0,0,1-.391-1.384,2.564,2.564,0,0,1,.18-.989,2.165,2.165,0,0,1,.475-.725,2.789,2.789,0,0,1,.747-.51,5.358,5.358,0,0,1,.914-.347q.461-.127,1.068-.242l1.336-.246q.817-.158.817-.8a1.256,1.256,0,0,0-.492-1.1,2.1,2.1,0,0,0-1.239-.347,2.075,2.075,0,0,0-1.274.374,1.636,1.636,0,0,0-.6,1.182l-1.819-.334Q37.934,52,41.3,52a6.23,6.23,0,0,1,1.05.083,3.751,3.751,0,0,1,.958.3,2.756,2.756,0,0,1,.8.558,2.435,2.435,0,0,1,.536.9,3.743,3.743,0,0,1,.2,1.279v3.428a1.4,1.4,0,0,0,.185.844.8.8,0,0,0,.65.229h.141V61h-.958q-1.5,0-1.793-1.169h-.1a2.874,2.874,0,0,1-1.252,1.011A4.143,4.143,0,0,1,40.1,61.167Zm.475-1.591a2.351,2.351,0,0,0,1.767-.729,2.645,2.645,0,0,0,.7-1.916l-2.259.5a2.708,2.708,0,0,0-1.09.409.883.883,0,0,0-.36.751.849.849,0,0,0,.343.738A1.5,1.5,0,0,0,40.57,59.576Zm11.918-7.585a3.273,3.273,0,0,1,2.338.8,2.96,2.96,0,0,1,.844,2.263V61H53.631V55.489a1.814,1.814,0,0,0-.488-1.393,1.768,1.768,0,0,0-1.252-.453A2.066,2.066,0,0,0,50.4,54.2a2.311,2.311,0,0,0-.589,1.718V61H47.786V52.158h2.021V53.2a2.987,2.987,0,0,1,1.138-.9A3.658,3.658,0,0,1,52.488,51.991Zm7.954,9.176a3.669,3.669,0,0,1-1.349-.233,2.144,2.144,0,0,1-.984-.791,2.353,2.353,0,0,1-.391-1.384,2.564,2.564,0,0,1,.18-.989,2.165,2.165,0,0,1,.475-.725,2.789,2.789,0,0,1,.747-.51,5.358,5.358,0,0,1,.914-.347q.461-.127,1.068-.242l1.336-.246q.817-.158.817-.8a1.256,1.256,0,0,0-.492-1.1,2.1,2.1,0,0,0-1.239-.347,2.075,2.075,0,0,0-1.274.374,1.636,1.636,0,0,0-.6,1.182l-1.819-.334Q58.28,52,61.646,52a6.23,6.23,0,0,1,1.05.083,3.751,3.751,0,0,1,.958.3,2.756,2.756,0,0,1,.8.558,2.435,2.435,0,0,1,.536.9,3.743,3.743,0,0,1,.2,1.279v3.428a1.4,1.4,0,0,0,.185.844.8.8,0,0,0,.65.229h.141V61h-.958q-1.5,0-1.793-1.169h-.1a2.874,2.874,0,0,1-1.252,1.011A4.143,4.143,0,0,1,60.442,61.167Zm.475-1.591a2.351,2.351,0,0,0,1.767-.729,2.645,2.645,0,0,0,.7-1.916l-2.259.5a2.708,2.708,0,0,0-1.09.409.883.883,0,0,0-.36.751.849.849,0,0,0,.343.738A1.5,1.5,0,0,0,60.917,59.576Zm12.929-9.105a1.207,1.207,0,0,1-.879-.365,1.226,1.226,0,0,1,0-1.749,1.236,1.236,0,0,1,1.753,0,1.239,1.239,0,0,1-.87,2.114ZM72.809,61V52.158h2.03V61Zm9.6-9.009a3.273,3.273,0,0,1,2.338.8,2.96,2.96,0,0,1,.844,2.263V61H83.549V55.489a1.814,1.814,0,0,0-.488-1.393,1.768,1.768,0,0,0-1.252-.453,2.066,2.066,0,0,0-1.494.558,2.311,2.311,0,0,0-.589,1.718V61H77.7V52.158h2.021V53.2a2.987,2.987,0,0,1,1.138-.9A3.658,3.658,0,0,1,82.406,51.991ZM94.667,47.5h2.021V61H94.755L94.7,59.594a2.845,2.845,0,0,1-1.182,1.178,3.608,3.608,0,0,1-1.762.431A4.1,4.1,0,0,1,88.8,59.967a4.2,4.2,0,0,1-.905-1.459,5.341,5.341,0,0,1-.334-1.92,5.28,5.28,0,0,1,.334-1.907,4.2,4.2,0,0,1,.905-1.455,4.116,4.116,0,0,1,2.953-1.235,3.656,3.656,0,0,1,1.727.409,2.84,2.84,0,0,1,1.182,1.121ZM90.338,58.688a2.458,2.458,0,0,0,1.868.8,2.42,2.42,0,0,0,1.863-.817,3.258,3.258,0,0,0,0-4.157,2.424,2.424,0,0,0-1.859-.817,2.465,2.465,0,0,0-1.868.8,3.305,3.305,0,0,0,0,4.2Zm10.252-8.218a1.207,1.207,0,0,1-.879-.365,1.226,1.226,0,0,1,0-1.749,1.236,1.236,0,0,1,1.753,0,1.239,1.239,0,0,1-.87,2.114ZM99.554,61V52.158h2.03V61Zm7.849.167a4.552,4.552,0,0,1-2.479-.628,2.623,2.623,0,0,1-1.213-1.824l1.714-.483a1.832,1.832,0,0,0,.694,1.112,2.138,2.138,0,0,0,1.283.374,2.049,2.049,0,0,0,1.072-.264.9.9,0,0,0,.431-.853.824.824,0,0,0-.114-.435,1.2,1.2,0,0,0-.272-.316,1.9,1.9,0,0,0-.453-.25,5.107,5.107,0,0,0-.536-.193l-.655-.193q-.413-.123-.686-.211a6.249,6.249,0,0,1-.844-.325,4,4,0,0,1-.694-.439,1.72,1.72,0,0,1-.532-.69,2.434,2.434,0,0,1-.18-.971,2.324,2.324,0,0,1,.448-1.45,2.549,2.549,0,0,1,1.178-.857,4.824,4.824,0,0,1,1.67-.268,4.127,4.127,0,0,1,2.237.571A2.5,2.5,0,0,1,110.6,54.32L109,54.7a1.594,1.594,0,0,0-.637-.984,2.178,2.178,0,0,0-2.145-.066.828.828,0,0,0-.417.76,1.032,1.032,0,0,0,.031.259.506.506,0,0,0,.119.215l.158.171a.825.825,0,0,0,.229.154q.158.079.255.123a2.767,2.767,0,0,0,.316.11l.325.1q.105.031.365.1l.365.092q.492.132.839.246a4.843,4.843,0,0,1,.765.338,2.665,2.665,0,0,1,.677.5,2.219,2.219,0,0,1,.435.708,2.571,2.571,0,0,1,.176.971,2.623,2.623,0,0,1-.281,1.244,2.139,2.139,0,0,1-.769.835,3.768,3.768,0,0,1-1.09.453A5.449,5.449,0,0,1,107.4,61.167ZM117.9,51.991a4.12,4.12,0,0,1,2.1.545,3.975,3.975,0,0,1,1.516,1.6,5.076,5.076,0,0,1,.571,2.448,5.431,5.431,0,0,1-.33,1.929,4.146,4.146,0,0,1-.9,1.459,4.038,4.038,0,0,1-1.332.905,4.128,4.128,0,0,1-1.622.321,3.624,3.624,0,0,1-1.727-.413,2.851,2.851,0,0,1-1.182-1.134v5.722h-2.021V52.158H114.9l.053,1.441a2.805,2.805,0,0,1,1.182-1.182A3.638,3.638,0,0,1,117.9,51.991Zm-.439,7.5a2.447,2.447,0,0,0,1.854-.791,2.946,2.946,0,0,0,.747-2.109,2.915,2.915,0,0,0-.747-2.1,2.575,2.575,0,0,0-3.727.031,3.23,3.23,0,0,0,0,4.153A2.447,2.447,0,0,0,117.457,59.488Zm14.81-3.059-.026.51h-6.724a2.667,2.667,0,0,0,.773,1.934,2.525,2.525,0,0,0,1.784.668,2.424,2.424,0,0,0,1.314-.36,2.272,2.272,0,0,0,.875-1.028l1.846.316a3.886,3.886,0,0,1-1.529,1.986,4.392,4.392,0,0,1-2.487.712,4.747,4.747,0,0,1-3.313-7.954,4.433,4.433,0,0,1,3.252-1.23,4.21,4.21,0,0,1,3.067,1.129A4.453,4.453,0,0,1,132.267,56.43Zm-4.228-2.944a2.58,2.58,0,0,0-1.6.479,2.332,2.332,0,0,0-.839,1.463h4.632a2.131,2.131,0,0,0-.7-1.45A2.251,2.251,0,0,0,128.039,53.485Zm11.083-1.494a3.273,3.273,0,0,1,2.338.8,2.96,2.96,0,0,1,.844,2.263V61h-2.039V55.489a1.814,1.814,0,0,0-.488-1.393,1.768,1.768,0,0,0-1.252-.453,2.066,2.066,0,0,0-1.494.558,2.311,2.311,0,0,0-.589,1.718V61H134.42V52.158h2.021V53.2a2.987,2.987,0,0,1,1.138-.9A3.658,3.658,0,0,1,139.122,51.991Zm8.824,9.176a4.552,4.552,0,0,1-2.479-.628,2.623,2.623,0,0,1-1.213-1.824l1.714-.483a1.832,1.832,0,0,0,.694,1.112,2.138,2.138,0,0,0,1.283.374,2.049,2.049,0,0,0,1.072-.264.9.9,0,0,0,.431-.853.824.824,0,0,0-.114-.435,1.2,1.2,0,0,0-.272-.316,1.9,1.9,0,0,0-.453-.25,5.107,5.107,0,0,0-.536-.193l-.655-.193q-.413-.123-.686-.211a6.249,6.249,0,0,1-.844-.325,4,4,0,0,1-.694-.439,1.72,1.72,0,0,1-.532-.69,2.434,2.434,0,0,1-.18-.971,2.324,2.324,0,0,1,.448-1.45,2.549,2.549,0,0,1,1.178-.857,4.824,4.824,0,0,1,1.67-.268,4.127,4.127,0,0,1,2.237.571,2.5,2.5,0,0,1,1.129,1.749l-1.6.378a1.594,1.594,0,0,0-.637-.984,2.178,2.178,0,0,0-2.145-.066.828.828,0,0,0-.417.76,1.032,1.032,0,0,0,.031.259.506.506,0,0,0,.119.215l.158.171a.825.825,0,0,0,.229.154q.158.079.255.123a2.767,2.767,0,0,0,.316.11l.325.1q.105.031.365.1l.365.092q.492.132.839.246a4.843,4.843,0,0,1,.765.338,2.665,2.665,0,0,1,.677.5,2.219,2.219,0,0,1,.435.708,2.571,2.571,0,0,1,.176.971,2.623,2.623,0,0,1-.281,1.244,2.139,2.139,0,0,1-.769.835,3.768,3.768,0,0,1-1.09.453A5.449,5.449,0,0,1,147.946,61.167Zm7.646,0a3.669,3.669,0,0,1-1.349-.233,2.144,2.144,0,0,1-.984-.791,2.353,2.353,0,0,1-.391-1.384,2.564,2.564,0,0,1,.18-.989,2.165,2.165,0,0,1,.475-.725,2.789,2.789,0,0,1,.747-.51,5.358,5.358,0,0,1,.914-.347q.461-.127,1.068-.242l1.336-.246q.817-.158.817-.8a1.256,1.256,0,0,0-.492-1.1,2.1,2.1,0,0,0-1.239-.347,2.075,2.075,0,0,0-1.274.374,1.636,1.636,0,0,0-.6,1.182l-1.819-.334Q153.431,52,156.8,52a6.23,6.23,0,0,1,1.05.083,3.751,3.751,0,0,1,.958.3,2.756,2.756,0,0,1,.8.558,2.435,2.435,0,0,1,.536.9,3.743,3.743,0,0,1,.2,1.279v3.428a1.4,1.4,0,0,0,.185.844.8.8,0,0,0,.65.229h.141V61h-.958q-1.5,0-1.793-1.169h-.1a2.874,2.874,0,0,1-1.252,1.011A4.143,4.143,0,0,1,155.593,61.167Zm.475-1.591a2.351,2.351,0,0,0,1.767-.729,2.645,2.645,0,0,0,.7-1.916l-2.259.5a2.708,2.708,0,0,0-1.09.409.883.883,0,0,0-.36.751.849.849,0,0,0,.343.738A1.5,1.5,0,0,0,156.067,59.576Zm12.155-7.585a4.089,4.089,0,0,1,1.617.325,4.034,4.034,0,0,1,1.332.91,4.24,4.24,0,0,1,.9,1.455,5.28,5.28,0,0,1,.334,1.907,5.4,5.4,0,0,1-.33,1.92,4.146,4.146,0,0,1-.9,1.459,4.1,4.1,0,0,1-2.953,1.235,3.622,3.622,0,0,1-1.775-.435,2.81,2.81,0,0,1-1.178-1.182L165.217,61h-1.934V47.5H165.3l.009,6.038a2.813,2.813,0,0,1,1.178-1.138A3.667,3.667,0,0,1,168.223,51.991Zm-2.32,6.68a2.42,2.42,0,0,0,1.863.817,2.458,2.458,0,0,0,1.868-.8,3.305,3.305,0,0,0,0-4.2,2.465,2.465,0,0,0-1.868-.8,2.424,2.424,0,0,0-1.859.817,3.258,3.258,0,0,0,0,4.157ZM174.56,61V47.5H176.6V61Zm12.929-4.57-.026.51h-6.724a2.667,2.667,0,0,0,.773,1.934,2.525,2.525,0,0,0,1.784.668,2.424,2.424,0,0,0,1.314-.36,2.272,2.272,0,0,0,.875-1.028l1.846.316a3.886,3.886,0,0,1-1.529,1.986,4.392,4.392,0,0,1-2.487.712A4.747,4.747,0,0,1,180,53.213a4.433,4.433,0,0,1,3.252-1.23,4.21,4.21,0,0,1,3.067,1.129A4.453,4.453,0,0,1,187.488,56.43Zm-4.228-2.944a2.58,2.58,0,0,0-1.6.479,2.332,2.332,0,0,0-.839,1.463h4.632a2.131,2.131,0,0,0-.7-1.45A2.251,2.251,0,0,0,183.261,53.485Zm15.987-1.494a4.12,4.12,0,0,1,2.1.545,3.975,3.975,0,0,1,1.516,1.6,5.076,5.076,0,0,1,.571,2.448,5.431,5.431,0,0,1-.33,1.929,4.146,4.146,0,0,1-.9,1.459,4.038,4.038,0,0,1-1.332.905,4.128,4.128,0,0,1-1.622.321,3.624,3.624,0,0,1-1.727-.413,2.851,2.851,0,0,1-1.182-1.134v5.722h-2.021V52.158h1.934L196.3,53.6a2.805,2.805,0,0,1,1.182-1.182A3.638,3.638,0,0,1,199.248,51.991Zm-.439,7.5a2.447,2.447,0,0,0,1.854-.791,2.946,2.946,0,0,0,.747-2.109,2.915,2.915,0,0,0-.747-2.1,2.575,2.575,0,0,0-3.727.031,3.23,3.23,0,0,0,0,4.153A2.447,2.447,0,0,0,198.809,59.488Zm8.868,1.679a3.669,3.669,0,0,1-1.349-.233,2.144,2.144,0,0,1-.984-.791,2.353,2.353,0,0,1-.391-1.384,2.564,2.564,0,0,1,.18-.989,2.165,2.165,0,0,1,.475-.725,2.789,2.789,0,0,1,.747-.51,5.358,5.358,0,0,1,.914-.347q.461-.127,1.068-.242l1.336-.246q.817-.158.817-.8A1.256,1.256,0,0,0,210,53.8a2.1,2.1,0,0,0-1.239-.347,2.075,2.075,0,0,0-1.274.374,1.636,1.636,0,0,0-.6,1.182l-1.819-.334Q205.515,52,208.881,52a6.23,6.23,0,0,1,1.05.083,3.751,3.751,0,0,1,.958.3,2.756,2.756,0,0,1,.8.558,2.435,2.435,0,0,1,.536.9,3.743,3.743,0,0,1,.2,1.279v3.428a1.4,1.4,0,0,0,.185.844.8.8,0,0,0,.65.229h.141V61h-.958q-1.5,0-1.793-1.169h-.1a2.874,2.874,0,0,1-1.252,1.011A4.143,4.143,0,0,1,207.677,61.167Zm.475-1.591a2.351,2.351,0,0,0,1.767-.729,2.645,2.645,0,0,0,.7-1.916l-2.259.5a2.708,2.708,0,0,0-1.09.409.883.883,0,0,0-.36.751.849.849,0,0,0,.343.738A1.5,1.5,0,0,0,208.151,59.576Zm9.167-5.933a2.67,2.67,0,0,1,1.121-1.125,3.5,3.5,0,0,1,1.727-.457v1.846a3.115,3.115,0,0,0-2.087.593,2.523,2.523,0,0,0-.681,1.991V61h-2.03V52.158h1.951Zm6.478,7.523a3.669,3.669,0,0,1-1.349-.233,2.144,2.144,0,0,1-.984-.791,2.353,2.353,0,0,1-.391-1.384,2.564,2.564,0,0,1,.18-.989,2.165,2.165,0,0,1,.475-.725,2.789,2.789,0,0,1,.747-.51,5.358,5.358,0,0,1,.914-.347q.461-.127,1.068-.242l1.336-.246q.817-.158.817-.8a1.256,1.256,0,0,0-.492-1.1,2.1,2.1,0,0,0-1.239-.347,2.075,2.075,0,0,0-1.274.374,1.636,1.636,0,0,0-.6,1.182l-1.819-.334Q221.634,52,225,52a6.23,6.23,0,0,1,1.05.083,3.751,3.751,0,0,1,.958.3,2.756,2.756,0,0,1,.8.558,2.435,2.435,0,0,1,.536.9,3.743,3.743,0,0,1,.2,1.279v3.428a1.4,1.4,0,0,0,.185.844.8.8,0,0,0,.65.229h.141V61h-.958q-1.5,0-1.793-1.169h-.1a2.874,2.874,0,0,1-1.252,1.011A4.143,4.143,0,0,1,223.8,61.167Zm.475-1.591a2.351,2.351,0,0,0,1.767-.729,2.645,2.645,0,0,0,.7-1.916l-2.259.5a2.708,2.708,0,0,0-1.09.409.883.883,0,0,0-.36.751.849.849,0,0,0,.343.738A1.5,1.5,0,0,0,224.271,59.576ZM236.162,61V47.5H238.2V61Zm6.987.167a3.669,3.669,0,0,1-1.349-.233,2.144,2.144,0,0,1-.984-.791,2.353,2.353,0,0,1-.391-1.384,2.564,2.564,0,0,1,.18-.989,2.165,2.165,0,0,1,.475-.725,2.789,2.789,0,0,1,.747-.51,5.358,5.358,0,0,1,.914-.347q.461-.127,1.068-.242l1.336-.246q.817-.158.817-.8a1.256,1.256,0,0,0-.492-1.1,2.1,2.1,0,0,0-1.239-.347,2.075,2.075,0,0,0-1.274.374,1.636,1.636,0,0,0-.6,1.182l-1.819-.334Q240.987,52,244.354,52a6.23,6.23,0,0,1,1.05.083,3.751,3.751,0,0,1,.958.3,2.756,2.756,0,0,1,.8.558,2.435,2.435,0,0,1,.536.9,3.743,3.743,0,0,1,.2,1.279v3.428a1.4,1.4,0,0,0,.185.844.8.8,0,0,0,.65.229h.141V61h-.958q-1.5,0-1.793-1.169h-.1a2.874,2.874,0,0,1-1.252,1.011A4.143,4.143,0,0,1,243.149,61.167Zm.475-1.591a2.351,2.351,0,0,0,1.767-.729,2.645,2.645,0,0,0,.7-1.916l-2.259.5a2.708,2.708,0,0,0-1.09.409.883.883,0,0,0-.36.751.849.849,0,0,0,.343.738A1.5,1.5,0,0,0,243.624,59.576Zm21.656-7.585a3.107,3.107,0,0,1,2.171.734,2.664,2.664,0,0,1,.809,2.079V61h-2.03V55.366a1.736,1.736,0,0,0-.439-1.288,1.509,1.509,0,0,0-1.107-.435,1.657,1.657,0,0,0-1.27.523,2.3,2.3,0,0,0-.488,1.613V61h-2.057V55.41a1.8,1.8,0,0,0-.444-1.318,1.522,1.522,0,0,0-1.129-.448,1.644,1.644,0,0,0-1.274.541,2.442,2.442,0,0,0-.492,1.683V61h-2.013V52.158h2.013v1.09a2.852,2.852,0,0,1,2.5-1.257,3.351,3.351,0,0,1,1.582.356,2.342,2.342,0,0,1,1.02,1.024A2.935,2.935,0,0,1,265.28,51.991Zm13.711,4.438-.026.51h-6.724a2.667,2.667,0,0,0,.773,1.934,2.525,2.525,0,0,0,1.784.668,2.424,2.424,0,0,0,1.314-.36,2.272,2.272,0,0,0,.875-1.028l1.846.316a3.886,3.886,0,0,1-1.529,1.986,4.392,4.392,0,0,1-2.487.712,4.747,4.747,0,0,1-3.313-7.954,4.433,4.433,0,0,1,3.252-1.23,4.21,4.21,0,0,1,3.067,1.129A4.453,4.453,0,0,1,278.991,56.43Zm-4.228-2.944a2.58,2.58,0,0,0-1.6.479,2.332,2.332,0,0,0-.839,1.463h4.632a2.131,2.131,0,0,0-.7-1.45A2.251,2.251,0,0,0,274.764,53.485Zm11.083-1.494a3.273,3.273,0,0,1,2.338.8,2.96,2.96,0,0,1,.844,2.263V61h-2.039V55.489A1.814,1.814,0,0,0,286.5,54.1a1.768,1.768,0,0,0-1.252-.453,2.066,2.066,0,0,0-1.494.558,2.311,2.311,0,0,0-.589,1.718V61h-2.021V52.158h2.021V53.2a2.987,2.987,0,0,1,1.138-.9A3.658,3.658,0,0,1,285.847,51.991ZM294.776,61a2.5,2.5,0,0,1-1.863-.677,2.6,2.6,0,0,1-.668-1.907V53.74h-1.767V52.158h.606a1.382,1.382,0,0,0,1.042-.338,1.709,1.709,0,0,0,.321-1.182V49.267h1.846v2.892h1.925V53.74h-1.925v4.465a1.267,1.267,0,0,0,.3.918,1.093,1.093,0,0,0,.822.312h.8V61Zm11.479-4.57-.026.51H299.5a2.667,2.667,0,0,0,.773,1.934,2.525,2.525,0,0,0,1.784.668,2.424,2.424,0,0,0,1.314-.36,2.272,2.272,0,0,0,.875-1.028l1.846.316a3.886,3.886,0,0,1-1.529,1.986,4.392,4.392,0,0,1-2.487.712,4.747,4.747,0,0,1-3.313-7.954,4.433,4.433,0,0,1,3.252-1.23,4.21,4.21,0,0,1,3.067,1.129A4.453,4.453,0,0,1,306.255,56.43Zm-4.228-2.944a2.58,2.58,0,0,0-1.6.479,2.332,2.332,0,0,0-.839,1.463h4.632a2.131,2.131,0,0,0-.7-1.45A2.251,2.251,0,0,0,302.027,53.485Zm6.961,10.723h-1.459l1.09-5.6h2.092Zm10.037-13.737a1.207,1.207,0,0,1-.879-.365,1.226,1.226,0,0,1,0-1.749,1.236,1.236,0,0,1,1.753,0,1.239,1.239,0,0,1-.87,2.114ZM317.988,61V52.158h2.03V61Zm9.6-9.009a3.273,3.273,0,0,1,2.338.8,2.96,2.96,0,0,1,.844,2.263V61h-2.039V55.489a1.814,1.814,0,0,0-.488-1.393,1.768,1.768,0,0,0-1.252-.453,2.066,2.066,0,0,0-1.494.558,2.311,2.311,0,0,0-.589,1.718V61h-2.021V52.158h2.021V53.2a2.987,2.987,0,0,1,1.138-.9A3.658,3.658,0,0,1,327.586,51.991ZM339.847,47.5h2.021V61h-1.934l-.053-1.406a2.845,2.845,0,0,1-1.182,1.178,3.608,3.608,0,0,1-1.762.431,4.1,4.1,0,0,1-2.953-1.235,4.2,4.2,0,0,1-.905-1.459,5.341,5.341,0,0,1-.334-1.92,5.28,5.28,0,0,1,.334-1.907,4.2,4.2,0,0,1,.905-1.455,4.116,4.116,0,0,1,2.953-1.235,3.656,3.656,0,0,1,1.727.409,2.84,2.84,0,0,1,1.182,1.121Zm-4.329,11.188a2.458,2.458,0,0,0,1.868.8,2.42,2.42,0,0,0,1.863-.817,3.258,3.258,0,0,0,0-4.157,2.424,2.424,0,0,0-1.859-.817,2.465,2.465,0,0,0-1.868.8,3.305,3.305,0,0,0,0,4.2Zm10.252-8.218a1.207,1.207,0,0,1-.879-.365,1.226,1.226,0,0,1,0-1.749,1.236,1.236,0,0,1,1.753,0,1.239,1.239,0,0,1-.87,2.114ZM344.733,61V52.158h2.03V61Zm7.849.167a4.552,4.552,0,0,1-2.479-.628,2.623,2.623,0,0,1-1.213-1.824l1.714-.483a1.832,1.832,0,0,0,.694,1.112,2.138,2.138,0,0,0,1.283.374,2.049,2.049,0,0,0,1.072-.264.9.9,0,0,0,.431-.853.824.824,0,0,0-.114-.435,1.2,1.2,0,0,0-.272-.316,1.9,1.9,0,0,0-.453-.25,5.107,5.107,0,0,0-.536-.193l-.655-.193q-.413-.123-.686-.211a6.249,6.249,0,0,1-.844-.325,4,4,0,0,1-.694-.439,1.72,1.72,0,0,1-.532-.69,2.434,2.434,0,0,1-.18-.971,2.324,2.324,0,0,1,.448-1.45,2.549,2.549,0,0,1,1.178-.857,4.824,4.824,0,0,1,1.67-.268,4.127,4.127,0,0,1,2.237.571,2.5,2.5,0,0,1,1.129,1.749l-1.6.378a1.594,1.594,0,0,0-.637-.984,2.178,2.178,0,0,0-2.145-.066.828.828,0,0,0-.417.76,1.032,1.032,0,0,0,.031.259.506.506,0,0,0,.119.215l.158.171a.825.825,0,0,0,.229.154q.158.079.255.123a2.767,2.767,0,0,0,.316.11l.325.1q.105.031.365.1l.365.092q.492.132.839.246a4.843,4.843,0,0,1,.765.338,2.665,2.665,0,0,1,.677.5,2.219,2.219,0,0,1,.435.708,2.571,2.571,0,0,1,.176.971,2.623,2.623,0,0,1-.281,1.244,2.139,2.139,0,0,1-.769.835,3.768,3.768,0,0,1-1.09.453A5.449,5.449,0,0,1,352.582,61.167Zm10.494-9.176a4.12,4.12,0,0,1,2.1.545,3.975,3.975,0,0,1,1.516,1.6,5.076,5.076,0,0,1,.571,2.448,5.431,5.431,0,0,1-.33,1.929,4.146,4.146,0,0,1-.9,1.459,4.038,4.038,0,0,1-1.332.905,4.128,4.128,0,0,1-1.622.321,3.624,3.624,0,0,1-1.727-.413,2.851,2.851,0,0,1-1.182-1.134v5.722h-2.021V52.158h1.934l.053,1.441a2.805,2.805,0,0,1,1.182-1.182A3.638,3.638,0,0,1,363.076,51.991Zm-.439,7.5a2.447,2.447,0,0,0,1.854-.791,2.946,2.946,0,0,0,.747-2.109,2.915,2.915,0,0,0-.747-2.1,2.575,2.575,0,0,0-3.727.031,3.23,3.23,0,0,0,0,4.153A2.447,2.447,0,0,0,362.637,59.488Zm14.81-3.059-.026.51H370.7a2.667,2.667,0,0,0,.773,1.934,2.525,2.525,0,0,0,1.784.668,2.424,2.424,0,0,0,1.314-.36,2.272,2.272,0,0,0,.875-1.028l1.846.316a3.886,3.886,0,0,1-1.529,1.986,4.392,4.392,0,0,1-2.487.712,4.747,4.747,0,0,1-3.313-7.954,4.433,4.433,0,0,1,3.252-1.23,4.21,4.21,0,0,1,3.067,1.129A4.453,4.453,0,0,1,377.446,56.43Zm-4.228-2.944a2.58,2.58,0,0,0-1.6.479,2.332,2.332,0,0,0-.839,1.463h4.632a2.131,2.131,0,0,0-.7-1.45A2.251,2.251,0,0,0,373.219,53.485ZM384.3,51.991a3.273,3.273,0,0,1,2.338.8,2.96,2.96,0,0,1,.844,2.263V61h-2.039V55.489a1.814,1.814,0,0,0-.488-1.393,1.768,1.768,0,0,0-1.252-.453,2.066,2.066,0,0,0-1.494.558,2.311,2.311,0,0,0-.589,1.718V61H379.6V52.158h2.021V53.2a2.987,2.987,0,0,1,1.138-.9A3.658,3.658,0,0,1,384.3,51.991Zm8.824,9.176a4.552,4.552,0,0,1-2.479-.628,2.623,2.623,0,0,1-1.213-1.824l1.714-.483a1.832,1.832,0,0,0,.694,1.112,2.138,2.138,0,0,0,1.283.374,2.049,2.049,0,0,0,1.072-.264.9.9,0,0,0,.431-.853.824.824,0,0,0-.114-.435,1.2,1.2,0,0,0-.272-.316,1.9,1.9,0,0,0-.453-.25,5.107,5.107,0,0,0-.536-.193l-.655-.193q-.413-.123-.686-.211a6.249,6.249,0,0,1-.844-.325,4,4,0,0,1-.694-.439,1.72,1.72,0,0,1-.532-.69,2.434,2.434,0,0,1-.18-.971,2.324,2.324,0,0,1,.448-1.45,2.549,2.549,0,0,1,1.178-.857,4.824,4.824,0,0,1,1.67-.268,4.127,4.127,0,0,1,2.237.571,2.5,2.5,0,0,1,1.129,1.749l-1.6.378a1.594,1.594,0,0,0-.637-.984,2.178,2.178,0,0,0-2.145-.066.828.828,0,0,0-.417.76,1.032,1.032,0,0,0,.031.259.506.506,0,0,0,.119.215l.158.171a.825.825,0,0,0,.229.154q.158.079.255.123a2.767,2.767,0,0,0,.316.11l.325.1q.105.031.365.1l.365.092q.492.132.839.246a4.843,4.843,0,0,1,.765.338,2.665,2.665,0,0,1,.677.5,2.219,2.219,0,0,1,.435.708,2.571,2.571,0,0,1,.176.971,2.623,2.623,0,0,1-.281,1.244,2.139,2.139,0,0,1-.769.835,3.768,3.768,0,0,1-1.09.453A5.449,5.449,0,0,1,393.126,61.167Zm7.646,0a3.669,3.669,0,0,1-1.349-.233,2.144,2.144,0,0,1-.984-.791,2.353,2.353,0,0,1-.391-1.384,2.564,2.564,0,0,1,.18-.989,2.165,2.165,0,0,1,.475-.725,2.789,2.789,0,0,1,.747-.51,5.358,5.358,0,0,1,.914-.347q.461-.127,1.068-.242l1.336-.246q.817-.158.817-.8a1.256,1.256,0,0,0-.492-1.1,2.1,2.1,0,0,0-1.239-.347,2.075,2.075,0,0,0-1.274.374,1.636,1.636,0,0,0-.6,1.182l-1.819-.334Q398.61,52,401.977,52a6.23,6.23,0,0,1,1.05.083,3.751,3.751,0,0,1,.958.3,2.756,2.756,0,0,1,.8.558,2.435,2.435,0,0,1,.536.9,3.743,3.743,0,0,1,.2,1.279v3.428a1.4,1.4,0,0,0,.185.844.8.8,0,0,0,.65.229h.141V61h-.958q-1.5,0-1.793-1.169h-.1a2.874,2.874,0,0,1-1.252,1.011A4.143,4.143,0,0,1,400.772,61.167Zm.475-1.591a2.351,2.351,0,0,0,1.767-.729,2.645,2.645,0,0,0,.7-1.916l-2.259.5a2.708,2.708,0,0,0-1.09.409.883.883,0,0,0-.36.751.849.849,0,0,0,.343.738A1.5,1.5,0,0,0,401.247,59.576ZM413.4,51.991a4.089,4.089,0,0,1,1.617.325,4.034,4.034,0,0,1,1.332.91,4.24,4.24,0,0,1,.9,1.455,5.28,5.28,0,0,1,.334,1.907,5.4,5.4,0,0,1-.33,1.92,4.146,4.146,0,0,1-.9,1.459A4.1,4.1,0,0,1,413.4,61.2a3.622,3.622,0,0,1-1.775-.435,2.81,2.81,0,0,1-1.178-1.182L410.4,61h-1.934V47.5h2.013l.009,6.038a2.813,2.813,0,0,1,1.178-1.138A3.667,3.667,0,0,1,413.4,51.991Zm-2.32,6.68a2.42,2.42,0,0,0,1.863.817,2.458,2.458,0,0,0,1.868-.8,3.305,3.305,0,0,0,0-4.2,2.465,2.465,0,0,0-1.868-.8,2.424,2.424,0,0,0-1.859.817,3.258,3.258,0,0,0,0,4.157ZM419.739,61V47.5h2.039V61Zm12.929-4.57-.026.51h-6.724a2.667,2.667,0,0,0,.773,1.934,2.525,2.525,0,0,0,1.784.668,2.424,2.424,0,0,0,1.314-.36,2.272,2.272,0,0,0,.875-1.028l1.846.316a3.886,3.886,0,0,1-1.529,1.986,4.392,4.392,0,0,1-2.487.712,4.747,4.747,0,0,1-3.313-7.954,4.433,4.433,0,0,1,3.252-1.23,4.21,4.21,0,0,1,3.067,1.129A4.453,4.453,0,0,1,432.668,56.43Zm-4.228-2.944a2.58,2.58,0,0,0-1.6.479,2.332,2.332,0,0,0-.839,1.463h4.632a2.131,2.131,0,0,0-.7-1.45A2.251,2.251,0,0,0,428.44,53.485Zm15.987-1.494a4.12,4.12,0,0,1,2.1.545,3.975,3.975,0,0,1,1.516,1.6,5.076,5.076,0,0,1,.571,2.448,5.431,5.431,0,0,1-.33,1.929,4.146,4.146,0,0,1-.9,1.459,4.038,4.038,0,0,1-1.332.905,4.128,4.128,0,0,1-1.622.321,3.624,3.624,0,0,1-1.727-.413,2.851,2.851,0,0,1-1.182-1.134v5.722H439.5V52.158h1.934l.053,1.441a2.805,2.805,0,0,1,1.182-1.182A3.638,3.638,0,0,1,444.428,51.991Zm-.439,7.5a2.447,2.447,0,0,0,1.854-.791,2.946,2.946,0,0,0,.747-2.109,2.915,2.915,0,0,0-.747-2.1,2.575,2.575,0,0,0-3.727.031,3.23,3.23,0,0,0,0,4.153A2.447,2.447,0,0,0,443.988,59.488Zm8.868,1.679a3.669,3.669,0,0,1-1.349-.233,2.144,2.144,0,0,1-.984-.791,2.353,2.353,0,0,1-.391-1.384,2.564,2.564,0,0,1,.18-.989,2.165,2.165,0,0,1,.475-.725,2.789,2.789,0,0,1,.747-.51,5.358,5.358,0,0,1,.914-.347q.461-.127,1.068-.242l1.336-.246q.817-.158.817-.8a1.256,1.256,0,0,0-.492-1.1,2.1,2.1,0,0,0-1.239-.347,2.075,2.075,0,0,0-1.274.374,1.636,1.636,0,0,0-.6,1.182l-1.819-.334Q450.694,52,454.061,52a6.23,6.23,0,0,1,1.05.083,3.751,3.751,0,0,1,.958.3,2.756,2.756,0,0,1,.8.558,2.435,2.435,0,0,1,.536.9,3.743,3.743,0,0,1,.2,1.279v3.428a1.4,1.4,0,0,0,.185.844.8.8,0,0,0,.65.229h.141V61h-.958q-1.5,0-1.793-1.169h-.1a2.874,2.874,0,0,1-1.252,1.011A4.143,4.143,0,0,1,452.856,61.167Zm.475-1.591a2.351,2.351,0,0,0,1.767-.729,2.645,2.645,0,0,0,.7-1.916l-2.259.5a2.708,2.708,0,0,0-1.09.409.883.883,0,0,0-.36.751.849.849,0,0,0,.343.738A1.5,1.5,0,0,0,453.331,59.576Zm9.167-5.933a2.67,2.67,0,0,1,1.121-1.125,3.5,3.5,0,0,1,1.727-.457v1.846a3.115,3.115,0,0,0-2.087.593,2.523,2.523,0,0,0-.681,1.991V61h-2.03V52.158H462.5Zm6.478,7.523a3.669,3.669,0,0,1-1.349-.233,2.144,2.144,0,0,1-.984-.791,2.353,2.353,0,0,1-.391-1.384,2.564,2.564,0,0,1,.18-.989,2.165,2.165,0,0,1,.475-.725,2.789,2.789,0,0,1,.747-.51,5.358,5.358,0,0,1,.914-.347q.461-.127,1.068-.242l1.336-.246q.817-.158.817-.8a1.256,1.256,0,0,0-.492-1.1,2.1,2.1,0,0,0-1.239-.347,2.075,2.075,0,0,0-1.274.374,1.636,1.636,0,0,0-.6,1.182l-1.819-.334Q466.813,52,470.18,52a6.23,6.23,0,0,1,1.05.083,3.751,3.751,0,0,1,.958.3,2.756,2.756,0,0,1,.8.558,2.435,2.435,0,0,1,.536.9,3.743,3.743,0,0,1,.2,1.279v3.428a1.4,1.4,0,0,0,.185.844.8.8,0,0,0,.65.229h.141V61h-.958q-1.5,0-1.793-1.169h-.1a2.874,2.874,0,0,1-1.252,1.011A4.143,4.143,0,0,1,468.976,61.167Zm.475-1.591a2.351,2.351,0,0,0,1.767-.729,2.645,2.645,0,0,0,.7-1.916l-2.259.5a2.708,2.708,0,0,0-1.09.409.883.883,0,0,0-.36.751.849.849,0,0,0,.343.738A1.5,1.5,0,0,0,469.45,59.576Zm19.916-3.146-.026.51h-6.724a2.667,2.667,0,0,0,.773,1.934,2.525,2.525,0,0,0,1.784.668,2.424,2.424,0,0,0,1.314-.36,2.272,2.272,0,0,0,.875-1.028l1.846.316a3.886,3.886,0,0,1-1.529,1.986,4.392,4.392,0,0,1-2.487.712,4.747,4.747,0,0,1-3.313-7.954,4.433,4.433,0,0,1,3.252-1.23,4.21,4.21,0,0,1,3.067,1.129A4.453,4.453,0,0,1,489.366,56.43Zm-4.228-2.944a2.58,2.58,0,0,0-1.6.479,2.332,2.332,0,0,0-.839,1.463h4.632a2.131,2.131,0,0,0-.7-1.45A2.251,2.251,0,0,0,485.139,53.485ZM491.52,61V47.5h2.039V61Z" transform="translate(863 7877.556)" fill="#32687f"/>
    <g id="Grupo_29524" data-name="Grupo 29524" transform="translate(436 14.978)">
      <g transform="matrix(1, 0, 0, 1, 357.24, 7729.34)" filter="url(#Trazado_67306)">
        <path id="Trazado_67306-2" data-name="Trazado 67306" d="M3087.693,3589.234h-8.048q.261-7.407,2.519-11.284a13.92,13.92,0,0,1,7.031-5.835l-3.755-6.013a23.211,23.211,0,0,0-11.5,10.385q-2.767,5.15-2.767,16.652v14.12h16.523Z" transform="translate(-3035.58 -3469.44)" fill="#3487ad"/>
      </g>
      <g transform="matrix(1, 0, 0, 1, 357.24, 7729.34)" filter="url(#Trazado_67307)">
        <path id="Trazado_67307-2" data-name="Trazado 67307" d="M3040.248,3589.234H3032.2q.26-7.407,2.518-11.284a13.925,13.925,0,0,1,7.031-5.835L3038,3566.1a23.205,23.205,0,0,0-11.5,10.385q-2.767,5.15-2.767,16.652v14.12h16.523Z" transform="translate(-3014.73 -3469.44)" fill="#3487ad"/>
      </g>
      <g id="Grupo_26522" data-name="Grupo 26522" transform="translate(0 -88)">
        <g transform="matrix(1, 0, 0, 1, 357.24, 7817.34)" filter="url(#Trazado_67304)">
          <path id="Trazado_67304-2" data-name="Trazado 67304" d="M3110.6,3965.6v-39.791h-73.881a8.023,8.023,0,0,1-8.014-8.013v-45.685H3023.3V3917.8a13.436,13.436,0,0,0,13.421,13.421H3105.2v47.438l47.438-47.438h442.607v-5.407H3150.4Z" transform="translate(-3014.54 -3691.97)" fill="#3487ad"/>
        </g>
        <g transform="matrix(1, 0, 0, 1, 357.24, 7817.34)" filter="url(#Trazado_67305)">
          <path id="Trazado_67305-2" data-name="Trazado 67305" d="M4162.655,3872.111V3917.8a8.022,8.022,0,0,1-8.014,8.013h-8.031v5.407h8.031a13.437,13.437,0,0,0,13.422-13.421v-45.685Z" transform="translate(-3508.38 -3691.97)" fill="#3487ad"/>
        </g>
        <g transform="matrix(1, 0, 0, 1, 357.24, 7817.34)" filter="url(#Trazado_67308)">
          <path id="Trazado_67308-2" data-name="Trazado 67308" d="M4103.393,3963.377h8.048q-.261,7.407-2.518,11.284a13.927,13.927,0,0,1-7.032,5.835l3.755,6.013a23.213,23.213,0,0,0,11.5-10.386q2.767-5.15,2.768-16.652v-14.12h-16.523Z" transform="translate(-3488.72 -3724.17)" fill="#3487ad"/>
        </g>
        <g transform="matrix(1, 0, 0, 1, 357.24, 7817.34)" filter="url(#Trazado_67309)">
          <path id="Trazado_67309-2" data-name="Trazado 67309" d="M4055.948,3963.377h8.047q-.26,7.407-2.518,11.284a13.923,13.923,0,0,1-7.031,5.835l3.755,6.013a23.207,23.207,0,0,0,11.5-10.386q2.767-5.15,2.767-16.652v-14.12h-16.522Z" transform="translate(-3467.86 -3724.17)" fill="#3487ad"/>
        </g>
      </g>
    </g>
    <g id="Grupo_29523" data-name="Grupo 29523" transform="translate(674.206 6753.046)">
      <g transform="matrix(1, 0, 0, 1, 119.03, 991.27)" filter="url(#Rectángulo_3802)">
        <rect id="Rectángulo_3802-2" data-name="Rectángulo 3802" width="409.439" height="75.602" rx="10.632" transform="translate(147.91 1)" fill="#3487ad"/>
      </g>
    </g>
    <path id="Trazado_69277" data-name="Trazado 69277" d="M12.611,5.478h3.212V21H12.1L5.221,9.9V21H2.009V5.478H5.693L12.611,16.51ZM28.424,18a10.331,10.331,0,0,0,.269,2.7V21H25.8l-.247-1.2a3.591,3.591,0,0,1-1.547,1.063,5.7,5.7,0,0,1-2,.354,5.254,5.254,0,0,1-1.031-.1,3.506,3.506,0,0,1-.929-.328,2.82,2.82,0,0,1-.768-.575,2.52,2.52,0,0,1-.516-.875,3.488,3.488,0,0,1-.193-1.2,3.321,3.321,0,0,1,.2-1.2,2.807,2.807,0,0,1,.537-.9,3.258,3.258,0,0,1,.87-.655,6.658,6.658,0,0,1,1.1-.473,13.092,13.092,0,0,1,1.311-.344l1.815-.408a2,2,0,0,0,.822-.349.7.7,0,0,0,.242-.553,1.14,1.14,0,0,0-.542-1.063,2.533,2.533,0,0,0-1.316-.322,1.894,1.894,0,0,0-2.159,1.687l-2.739-.494a3.708,3.708,0,0,1,1.6-2.519,6.362,6.362,0,0,1,3.47-.811q4.641,0,4.641,3.985ZM22.978,19.12a2.488,2.488,0,0,0,1.912-.8,3.372,3.372,0,0,0,.741-2.369l-2.621.741a3.1,3.1,0,0,0-1.1.451.927.927,0,0,0-.381.795,1.029,1.029,0,0,0,.408.875A1.689,1.689,0,0,0,22.978,19.12ZM38.4,9.957H41.68L36.975,21H34.289L29.638,9.957h3.255l2.75,7.552ZM51.917,18a10.331,10.331,0,0,0,.269,2.7V21H49.3l-.247-1.2A3.591,3.591,0,0,1,47.5,20.86a5.7,5.7,0,0,1-2,.354,5.254,5.254,0,0,1-1.031-.1,3.506,3.506,0,0,1-.929-.328,2.82,2.82,0,0,1-.768-.575,2.52,2.52,0,0,1-.516-.875,3.488,3.488,0,0,1-.193-1.2,3.322,3.322,0,0,1,.2-1.2,2.807,2.807,0,0,1,.537-.9,3.258,3.258,0,0,1,.87-.655,6.658,6.658,0,0,1,1.1-.473,13.092,13.092,0,0,1,1.311-.344l1.815-.408a2,2,0,0,0,.822-.349.7.7,0,0,0,.242-.553A1.14,1.14,0,0,0,48.42,12.2,2.533,2.533,0,0,0,47.1,11.88a1.894,1.894,0,0,0-2.159,1.687l-2.739-.494a3.708,3.708,0,0,1,1.6-2.519,6.362,6.362,0,0,1,3.47-.811q4.641,0,4.641,3.985ZM46.471,19.12a2.488,2.488,0,0,0,1.912-.8,3.372,3.372,0,0,0,.741-2.369l-2.621.741a3.1,3.1,0,0,0-1.1.451.927.927,0,0,0-.381.795,1.029,1.029,0,0,0,.408.875A1.689,1.689,0,0,0,46.471,19.12Zm12.343,2.095a6.171,6.171,0,0,1-3.223-.773,3.269,3.269,0,0,1-1.579-2.3l2.589-.73a2.08,2.08,0,0,0,2.213,1.644,2.285,2.285,0,0,0,1.128-.252.879.879,0,0,0,.44-.854.9.9,0,0,0-.183-.569,1.446,1.446,0,0,0-.564-.408,7.026,7.026,0,0,0-.752-.29q-.371-.118-.983-.285T56.88,16.08a6.836,6.836,0,0,1-.972-.414A4.147,4.147,0,0,1,55.1,15.1a2.3,2.3,0,0,1-.6-.865,3.12,3.12,0,0,1-.209-1.182,2.821,2.821,0,0,1,1.2-2.471,5.352,5.352,0,0,1,3.131-.838,5.487,5.487,0,0,1,2.89.709,3.209,3.209,0,0,1,1.482,2.213l-2.4.537a1.876,1.876,0,0,0-1.966-1.4,2.153,2.153,0,0,0-1.085.247.794.794,0,0,0-.43.73.837.837,0,0,0,.064.333.659.659,0,0,0,.226.269,3.29,3.29,0,0,0,.312.2,2.35,2.35,0,0,0,.44.177q.29.091.483.14l.564.145.575.15q.591.161,1.037.322a6.071,6.071,0,0,1,.951.451,3.412,3.412,0,0,1,.833.65,2.9,2.9,0,0,1,.542.913,3.372,3.372,0,0,1,.215,1.23,3.322,3.322,0,0,1-.371,1.6,2.782,2.782,0,0,1-1.015,1.08,4.941,4.941,0,0,1-1.434.58A7.439,7.439,0,0,1,58.813,21.215ZM80.266,5.478V8.313H76.581V21h-3.19V8.313H69.685V5.478ZM89.59,18a10.331,10.331,0,0,0,.269,2.7V21h-2.89l-.247-1.2a3.591,3.591,0,0,1-1.547,1.063,5.7,5.7,0,0,1-2,.354,5.254,5.254,0,0,1-1.031-.1,3.506,3.506,0,0,1-.929-.328,2.82,2.82,0,0,1-.768-.575,2.52,2.52,0,0,1-.516-.875,3.488,3.488,0,0,1-.193-1.2,3.321,3.321,0,0,1,.2-1.2,2.807,2.807,0,0,1,.537-.9,3.258,3.258,0,0,1,.87-.655,6.658,6.658,0,0,1,1.1-.473,13.092,13.092,0,0,1,1.311-.344l1.815-.408a2,2,0,0,0,.822-.349.7.7,0,0,0,.242-.553,1.14,1.14,0,0,0-.542-1.063,2.533,2.533,0,0,0-1.316-.322,1.894,1.894,0,0,0-2.159,1.687l-2.739-.494a3.708,3.708,0,0,1,1.6-2.519,6.362,6.362,0,0,1,3.47-.811q4.641,0,4.641,3.985ZM84.144,19.12a2.488,2.488,0,0,0,1.912-.8,3.372,3.372,0,0,0,.741-2.369l-2.621.741a3.1,3.1,0,0,0-1.1.451.927.927,0,0,0-.381.795,1.029,1.029,0,0,0,.408.875A1.689,1.689,0,0,0,84.144,19.12ZM92.6,21V4.5h3.126V21Zm16.715-5.683-.032.741h-8.186a2.859,2.859,0,0,0,.881,2.02,2.817,2.817,0,0,0,1.944.7,2.715,2.715,0,0,0,1.456-.381,2.344,2.344,0,0,0,.929-1.112l2.836.419a4.821,4.821,0,0,1-1.934,2.589,5.749,5.749,0,0,1-3.266.924,5.978,5.978,0,0,1-4.3-1.52,5.546,5.546,0,0,1-1.6-4.216,5.579,5.579,0,0,1,1.6-4.216,5.8,5.8,0,0,1,4.2-1.542,5.544,5.544,0,0,1,3.964,1.407A5.52,5.52,0,0,1,109.313,15.317Zm-5.446-3.405a2.445,2.445,0,0,0-2.686,2.127h5.07a2.326,2.326,0,0,0-.763-1.579A2.417,2.417,0,0,0,103.866,11.912Zm10.764-.2a3.585,3.585,0,0,1,1.45-1.327,4.425,4.425,0,0,1,2.159-.553v2.761a4.183,4.183,0,0,0-2.643.666,2.908,2.908,0,0,0-.816,2.363V21h-3.115V9.957h2.965Zm10.506,9.507a6.944,6.944,0,0,1-3.126-.677,5.058,5.058,0,0,1-2.143-1.987,5.922,5.922,0,0,1-.779-3.083,5.4,5.4,0,0,1,1.676-4.189,7.005,7.005,0,0,1,8.755,0,5.4,5.4,0,0,1,1.676,4.189,5.432,5.432,0,0,1-1.676,4.206A6.219,6.219,0,0,1,125.136,21.215Zm-.032-2.46a2.835,2.835,0,0,0,2.186-.9,3.378,3.378,0,0,0,.833-2.385,3.378,3.378,0,0,0-.833-2.385,2.835,2.835,0,0,0-2.186-.9,2.731,2.731,0,0,0-2.122.908,3.409,3.409,0,0,0-.822,2.379,3.409,3.409,0,0,0,.822,2.379A2.731,2.731,0,0,0,125.1,18.755Zm9.464,6.2h-2.213l1.343-7.025h3.18ZM163.528,21h-3.212L159.3,9.3,155.364,21H153.28L149.349,9.3,148.317,21h-3.223l1.3-15.522h4.6l3.309,9.743,3.352-9.743h4.6Zm12.622,5.156a10.281,10.281,0,0,1-3.4-4.78,20.158,20.158,0,0,1-1.241-7.3,20.169,20.169,0,0,1,1.241-7.3,10.28,10.28,0,0,1,3.4-4.786l1.762,2.095a7.622,7.622,0,0,0-2.6,3.819,17.985,17.985,0,0,0-.983,6.171,17.927,17.927,0,0,0,.983,6.171,7.619,7.619,0,0,0,2.6,3.808Zm7.38-7.917h6.617V21H179.2V18.669l6.177-6.306a3.887,3.887,0,0,0,1.343-2.675,1.892,1.892,0,0,0-.553-1.439,2.178,2.178,0,0,0-1.563-.526q-2.2,0-2.2,2.5v1.149l-3.083-.312V10.29a4.841,4.841,0,0,1,1.418-3.733,5.431,5.431,0,0,1,3.846-1.316,5.689,5.689,0,0,1,3.744,1.192,4.019,4.019,0,0,1,1.445,3.276,4.646,4.646,0,0,1-.489,2.127,8.89,8.89,0,0,1-1.552,2.073Zm14.319,2.976a4.841,4.841,0,0,1-4.173-2.009,10.148,10.148,0,0,1-1.456-5.973q0-3.975,1.45-5.973a5.357,5.357,0,0,1,8.347,0q1.45,2,1.45,5.973a10.148,10.148,0,0,1-1.456,5.973A4.83,4.83,0,0,1,197.85,21.215Zm0-2.793a2.041,2.041,0,0,0,1.864-1.273,8.863,8.863,0,0,0,.661-3.916,8.8,8.8,0,0,0-.666-3.916,2.045,2.045,0,0,0-1.858-1.273q-2.535,0-2.535,5.188T197.85,18.422Zm12.7-12.944h2.943V21h-3.083V8.657l-3.566,3.319V8.8ZM229.818,15.79a5.06,5.06,0,0,1-.457,2.181,5.146,5.146,0,0,1-1.257,1.724,5.918,5.918,0,0,1-1.842,1.106,6.246,6.246,0,0,1-4.442-.011,5.516,5.516,0,0,1-1.815-1.133,5.336,5.336,0,0,1-1.638-3.856,6.451,6.451,0,0,1,1.375-3.792l4.834-6.531h3.513l-4.028,5.253a5.234,5.234,0,0,1,.709-.043,5.06,5.06,0,0,1,1.907.365,5.163,5.163,0,0,1,1.606,1.015,4.7,4.7,0,0,1,1.112,1.617A5.43,5.43,0,0,1,229.818,15.79Zm-3.029-.075a2.652,2.652,0,0,0-.752-2,2.735,2.735,0,0,0-2.03-.779,2.622,2.622,0,0,0-1.966.784,2.77,2.77,0,0,0-.784,1.955,2.547,2.547,0,0,0,2.718,2.75,2.8,2.8,0,0,0,2.02-.752A2.621,2.621,0,0,0,226.789,15.715Zm5.865,10.441-1.762-2.105a7.619,7.619,0,0,0,2.6-3.808,17.927,17.927,0,0,0,.983-6.171A17.985,17.985,0,0,0,233.5,7.9a7.622,7.622,0,0,0-2.6-3.819l1.762-2.095a10.28,10.28,0,0,1,3.4,4.786,20.169,20.169,0,0,1,1.241,7.3,20.158,20.158,0,0,1-1.241,7.3A10.281,10.281,0,0,1,232.654,26.156ZM249.4,21.215a6.171,6.171,0,0,1-3.223-.773,3.269,3.269,0,0,1-1.579-2.3l2.589-.73a2.08,2.08,0,0,0,2.213,1.644,2.285,2.285,0,0,0,1.128-.252.879.879,0,0,0,.44-.854.9.9,0,0,0-.183-.569,1.446,1.446,0,0,0-.564-.408,7.026,7.026,0,0,0-.752-.29q-.371-.118-.983-.285t-1.021-.317a6.836,6.836,0,0,1-.972-.414,4.147,4.147,0,0,1-.806-.569,2.3,2.3,0,0,1-.6-.865,3.12,3.12,0,0,1-.209-1.182,2.821,2.821,0,0,1,1.2-2.471,5.352,5.352,0,0,1,3.131-.838,5.487,5.487,0,0,1,2.89.709,3.209,3.209,0,0,1,1.482,2.213l-2.4.537a1.876,1.876,0,0,0-1.966-1.4,2.153,2.153,0,0,0-1.085.247.794.794,0,0,0-.43.73.837.837,0,0,0,.064.333.659.659,0,0,0,.226.269,3.289,3.289,0,0,0,.312.2,2.35,2.35,0,0,0,.44.177q.29.091.483.14l.564.145.575.15q.591.161,1.037.322a6.072,6.072,0,0,1,.951.451,3.412,3.412,0,0,1,.833.65,2.9,2.9,0,0,1,.542.913,3.372,3.372,0,0,1,.215,1.23,3.322,3.322,0,0,1-.371,1.6,2.782,2.782,0,0,1-1.015,1.08,4.941,4.941,0,0,1-1.434.58A7.439,7.439,0,0,1,249.4,21.215Zm17.155-5.9-.032.741h-8.186a2.859,2.859,0,0,0,.881,2.02,2.817,2.817,0,0,0,1.944.7,2.715,2.715,0,0,0,1.456-.381,2.344,2.344,0,0,0,.929-1.112l2.836.419a4.821,4.821,0,0,1-1.934,2.589,5.749,5.749,0,0,1-3.266.924,5.978,5.978,0,0,1-4.3-1.52,5.546,5.546,0,0,1-1.6-4.216,5.579,5.579,0,0,1,1.6-4.216,5.8,5.8,0,0,1,4.2-1.542,5.544,5.544,0,0,1,3.964,1.407A5.52,5.52,0,0,1,266.557,15.317Zm-5.446-3.405a2.445,2.445,0,0,0-2.686,2.127h5.07a2.326,2.326,0,0,0-.763-1.579A2.417,2.417,0,0,0,261.11,11.912ZM273.013,7a.606.606,0,0,0-.559.376,2.194,2.194,0,0,0-.193,1h-1.472a3.306,3.306,0,0,1,.585-2.03,1.874,1.874,0,0,1,1.584-.784,2.1,2.1,0,0,1,1.88,1.106.752.752,0,0,0,.645.408q.72,0,.72-1.375h1.482a3.355,3.355,0,0,1-.575,2.025,1.863,1.863,0,0,1-1.6.79,2.145,2.145,0,0,1-1.891-1.1A.749.749,0,0,0,273.013,7Zm2.417,2.739a4.3,4.3,0,0,1,3.051.994,3.684,3.684,0,0,1,1.063,2.831V21h-3.1V14.232a1.924,1.924,0,0,0-.553-1.525,2.084,2.084,0,0,0-1.423-.483,2.908,2.908,0,0,0-.924.14,2.373,2.373,0,0,0-.773.435,1.923,1.923,0,0,0-.553.833A3.851,3.851,0,0,0,272,14.909V21h-3.094V9.957H272v1.225A4.255,4.255,0,0,1,275.43,9.742ZM291.6,18a10.33,10.33,0,0,0,.269,2.7V21h-2.89l-.247-1.2a3.591,3.591,0,0,1-1.547,1.063,5.7,5.7,0,0,1-2,.354,5.254,5.254,0,0,1-1.031-.1,3.506,3.506,0,0,1-.929-.328,2.82,2.82,0,0,1-.768-.575,2.52,2.52,0,0,1-.516-.875,3.488,3.488,0,0,1-.193-1.2,3.321,3.321,0,0,1,.2-1.2,2.807,2.807,0,0,1,.537-.9,3.258,3.258,0,0,1,.87-.655,6.657,6.657,0,0,1,1.1-.473,13.092,13.092,0,0,1,1.311-.344l1.815-.408a2,2,0,0,0,.822-.349.7.7,0,0,0,.242-.553A1.14,1.14,0,0,0,288.1,12.2a2.533,2.533,0,0,0-1.316-.322,1.894,1.894,0,0,0-2.159,1.687l-2.739-.494a3.708,3.708,0,0,1,1.6-2.519,6.362,6.362,0,0,1,3.47-.811q4.641,0,4.641,3.985ZM286.15,19.12a2.488,2.488,0,0,0,1.912-.8,3.372,3.372,0,0,0,.741-2.369l-2.621.741a3.1,3.1,0,0,0-1.1.451.927.927,0,0,0-.381.795,1.029,1.029,0,0,0,.408.875A1.689,1.689,0,0,0,286.15,19.12ZM294.6,21V4.5h3.126V21Zm15.383-3a10.33,10.33,0,0,0,.269,2.7V21h-2.89l-.247-1.2a3.591,3.591,0,0,1-1.547,1.063,5.7,5.7,0,0,1-2,.354,5.254,5.254,0,0,1-1.031-.1,3.506,3.506,0,0,1-.929-.328,2.82,2.82,0,0,1-.768-.575,2.52,2.52,0,0,1-.516-.875,3.488,3.488,0,0,1-.193-1.2,3.321,3.321,0,0,1,.2-1.2,2.807,2.807,0,0,1,.537-.9,3.258,3.258,0,0,1,.87-.655,6.657,6.657,0,0,1,1.1-.473,13.092,13.092,0,0,1,1.311-.344l1.815-.408a2,2,0,0,0,.822-.349.7.7,0,0,0,.242-.553,1.14,1.14,0,0,0-.542-1.063,2.533,2.533,0,0,0-1.316-.322,1.894,1.894,0,0,0-2.159,1.687l-2.739-.494a3.708,3.708,0,0,1,1.6-2.519,6.362,6.362,0,0,1,3.47-.811q4.641,0,4.641,3.985Zm-5.446,1.117a2.488,2.488,0,0,0,1.912-.8,3.372,3.372,0,0,0,.741-2.369l-2.621.741a3.1,3.1,0,0,0-1.1.451.927.927,0,0,0-.381.795,1.029,1.029,0,0,0,.408.875A1.689,1.689,0,0,0,304.541,19.12ZM314.8,14.179a1.686,1.686,0,0,1-1.241-.526,1.724,1.724,0,0,1-.521-1.257,1.779,1.779,0,0,1,1.762-1.762,1.724,1.724,0,0,1,1.257.521,1.686,1.686,0,0,1,.526,1.241,1.8,1.8,0,0,1-1.783,1.783Zm0,7.036a1.779,1.779,0,0,1-1.762-1.762,1.724,1.724,0,0,1,.521-1.257,1.686,1.686,0,0,1,1.241-.526,1.8,1.8,0,0,1,1.783,1.783,1.686,1.686,0,0,1-.526,1.241A1.724,1.724,0,0,1,314.8,21.215Z" transform="translate(1010 7772.24)" fill="#fff"/>
    <g id="Grupo_29522" data-name="Grupo 29522" transform="translate(-371.536 8155.749)">
      <g id="Grupo_26524" data-name="Grupo 26524" transform="translate(1269.154 -402.966)">
        <path id="Trazado_67310" data-name="Trazado 67310" d="M1355.564-375.6h2.721a1.012,1.012,0,0,1,1.014,1.012v56.957a1.012,1.012,0,0,1-1.014,1.012l-36.069,0a1.459,1.459,0,0,0-1.352.882,4,4,0,0,1-3.695,2.467,4.01,4.01,0,0,1-3.7-2.469,1.454,1.454,0,0,0-1.35-.882h-36.069a1.013,1.013,0,0,1-1.013-1.012v-56.957a1.013,1.013,0,0,1,1.013-1.012h2.5l38.481,6.9Z" transform="translate(-1273.639 377)" fill="#ffd354"/>
        <path id="Trazado_67311" data-name="Trazado 67311" d="M1312.685-316.349a5.4,5.4,0,0,1-4.991-3.331l-36.125-.02a2.417,2.417,0,0,1-2.415-2.415v-56.956a2.417,2.417,0,0,1,2.415-2.415h2.5a1.393,1.393,0,0,1,.247.022l38.234,6.856,38.284-6.857a1.412,1.412,0,0,1,.247-.022h2.722a2.418,2.418,0,0,1,2.416,2.415v56.956a2.418,2.418,0,0,1-2.416,2.415l-36.069,0A5.521,5.521,0,0,1,1312.685-316.349Zm-40.727-6.156h35.679a2.845,2.845,0,0,1,2.646,1.748,2.6,2.6,0,0,0,2.4,1.6,2.6,2.6,0,0,0,2.4-1.6,2.853,2.853,0,0,1,2.646-1.744l35.681,0v-56.177H1351.2L1312.8-371.8a1.4,1.4,0,0,1-.495,0l-38.359-6.879h-1.984Z" transform="translate(-1269.154 381.486)" fill="#325a6a"/>
      </g>
      <g id="Grupo_26525" data-name="Grupo 26525" transform="translate(1276.176 -409.482)">
        <path id="Trazado_67312" data-name="Trazado 67312" d="M1339.619-336.572c-15.413-18.763-35.1-14.393-35.1-14.393v-51.6s19.7-4.816,35.108,13.948Z" transform="translate(-1303.12 404.483)" fill="#fff"/>
        <path id="Trazado_67313" data-name="Trazado 67313" d="M1335.135-339.531a1.4,1.4,0,0,1-1.084-.512c-14.651-17.835-32.94-14.083-33.711-13.914a1.405,1.405,0,0,1-1.18-.277,1.4,1.4,0,0,1-.524-1.092v-51.6a1.4,1.4,0,0,1,1.069-1.362c.205-.05,20.735-4.8,36.525,14.42a1.405,1.405,0,0,1,.318.89l-.011,52.045a1.4,1.4,0,0,1-.93,1.32A1.4,1.4,0,0,1,1335.135-339.531Zm-30.065-17.6a39.345,39.345,0,0,1,28.663,12.513l.01-47.851c-12.744-15.184-28.119-13.969-32.3-13.3v48.823A33.764,33.764,0,0,1,1305.069-357.135Z" transform="translate(-1298.635 408.844)" fill="#325a6a"/>
      </g>
      <g id="Grupo_26526" data-name="Grupo 26526" transform="translate(1311.284 -409.681)">
        <path id="Trazado_67314" data-name="Trazado 67314" d="M1451.925-337.265c15.528-18.9,35.108-14.177,35.108-14.177v-51.987s-19.58-4.726-35.108,14.178Z" transform="translate(-1450.523 405.318)" fill="#fff"/>
        <path id="Trazado_67315" data-name="Trazado 67315" d="M1447.441-340.226a1.4,1.4,0,0,1-.472-.082,1.4,1.4,0,0,1-.929-1.32v-51.986a1.4,1.4,0,0,1,.318-.89c15.9-19.36,36.315-14.7,36.52-14.651a1.4,1.4,0,0,1,1.073,1.363v51.987a1.4,1.4,0,0,1-.535,1.1,1.4,1.4,0,0,1-1.2.262c-.764-.182-18.943-4.256-33.694,13.7A1.4,1.4,0,0,1,1447.441-340.226Zm1.4-52.882v47.79c12.695-13.211,27.355-12.749,32.3-12.134v-49.178C1476.972-407.281,1461.675-408.406,1448.843-393.108Z" transform="translate(-1446.039 409.681)" fill="#325a6a"/>
      </g>
      <g id="Grupo_26527" data-name="Grupo 26527" transform="translate(1333.945 -396.27)">
        <path id="Trazado_67316" data-name="Trazado 67316" d="M1542.587-350.087a1.4,1.4,0,0,1-1.378-1.153,1.4,1.4,0,0,1,1.131-1.629,31.5,31.5,0,0,1,7.142-.467,1.4,1.4,0,0,1,1.331,1.47,1.4,1.4,0,0,1-1.47,1.331,28.623,28.623,0,0,0-6.505.426A1.394,1.394,0,0,1,1542.587-350.087Z" transform="translate(-1541.187 353.374)" fill="#325a6a"/>
      </g>
      <g id="Grupo_26528" data-name="Grupo 26528" transform="translate(1317.984 -394.776)">
        <path id="Trazado_67317" data-name="Trazado 67317" d="M1475.576-337.712a1.4,1.4,0,0,1-1.028-.448,1.4,1.4,0,0,1,.074-1.982,35.522,35.522,0,0,1,12.427-6.892,1.4,1.4,0,0,1,1.762.91,1.4,1.4,0,0,1-.91,1.762,33.082,33.082,0,0,0-11.37,6.275A1.4,1.4,0,0,1,1475.576-337.712Z" transform="translate(-1474.173 347.1)" fill="#325a6a"/>
      </g>
      <g id="Grupo_26529" data-name="Grupo 26529" transform="translate(1317.984 -389.57)">
        <path id="Trazado_67318" data-name="Trazado 67318" d="M1475.575-314.359a1.4,1.4,0,0,1-1.028-.448,1.4,1.4,0,0,1,.074-1.982c.4-.372,9.966-9.109,23.808-8.414a1.4,1.4,0,0,1,1.331,1.47,1.4,1.4,0,0,1-1.47,1.331c-12.671-.637-21.671,7.585-21.761,7.668A1.4,1.4,0,0,1,1475.575-314.359Z" transform="translate(-1474.172 325.242)" fill="#325a6a"/>
      </g>
      <g id="Grupo_26530" data-name="Grupo 26530" transform="translate(1317.984 -382.868)">
        <path id="Trazado_67319" data-name="Trazado 67319" d="M1475.577-286.222a1.4,1.4,0,0,1-1.029-.449,1.4,1.4,0,0,1,.074-1.98c.4-.372,9.983-9.1,23.809-8.414a1.4,1.4,0,0,1,1.331,1.471,1.4,1.4,0,0,1-1.47,1.331c-12.626-.635-21.672,7.586-21.762,7.669A1.4,1.4,0,0,1,1475.577-286.222Z" transform="translate(-1474.174 297.103)" fill="#325a6a"/>
      </g>
      <g id="Grupo_26531" data-name="Grupo 26531" transform="translate(1317.984 -376.837)">
        <path id="Trazado_67320" data-name="Trazado 67320" d="M1475.577-260.9a1.4,1.4,0,0,1-1.029-.449,1.4,1.4,0,0,1,.074-1.98c.4-.372,9.983-9.1,23.809-8.414a1.4,1.4,0,0,1,1.331,1.47,1.4,1.4,0,0,1-1.47,1.33c-12.626-.633-21.672,7.586-21.762,7.67A1.4,1.4,0,0,1,1475.577-260.9Z" transform="translate(-1474.174 271.78)" fill="#325a6a"/>
      </g>
      <g id="Grupo_26532" data-name="Grupo 26532" transform="translate(1324.351 -370.805)">
        <path id="Trazado_67321" data-name="Trazado 67321" d="M1502.309-239.844a1.4,1.4,0,0,1-1.245-.755,1.4,1.4,0,0,1,.6-1.891,33.819,33.819,0,0,1,17.133-3.925,1.4,1.4,0,0,1,1.33,1.471,1.41,1.41,0,0,1-1.47,1.33,31.017,31.017,0,0,0-15.7,3.612A1.4,1.4,0,0,1,1502.309-239.844Z" transform="translate(-1500.905 246.453)" fill="#325a6a"/>
      </g>
      <g id="Grupo_26533" data-name="Grupo 26533" transform="translate(1317.984 -365.448)">
        <path id="Trazado_67322" data-name="Trazado 67322" d="M1475.577-218.438a1.4,1.4,0,0,1-1.029-.449,1.4,1.4,0,0,1,.074-1.98,29.047,29.047,0,0,1,3.876-2.876,1.4,1.4,0,0,1,1.936.432,1.4,1.4,0,0,1-.432,1.936,26.868,26.868,0,0,0-3.473,2.566A1.4,1.4,0,0,1,1475.577-218.438Z" transform="translate(-1474.174 223.962)" fill="#325a6a"/>
      </g>
      <g id="Grupo_26534" data-name="Grupo 26534" transform="translate(1282.466 -396.271)">
        <path id="Trazado_67323" data-name="Trazado 67323" d="M1349.232-342.495a1.4,1.4,0,0,1-.952-.372c-.09-.083-9.146-8.3-21.764-7.669a1.411,1.411,0,0,1-1.47-1.331,1.4,1.4,0,0,1,1.331-1.47c13.824-.692,23.409,8.042,23.81,8.414a1.4,1.4,0,0,1,.074,1.98A1.4,1.4,0,0,1,1349.232-342.495Z" transform="translate(-1325.044 353.377)" fill="#325a6a"/>
      </g>
      <g id="Grupo_26535" data-name="Grupo 26535" transform="translate(1282.466 -389.57)">
        <path id="Trazado_67324" data-name="Trazado 67324" d="M1349.232-314.359a1.4,1.4,0,0,1-.952-.373c-.09-.083-9.146-8.3-21.764-7.669a1.411,1.411,0,0,1-1.47-1.331,1.4,1.4,0,0,1,1.331-1.471c13.824-.692,23.409,8.042,23.81,8.414a1.4,1.4,0,0,1,.074,1.98A1.4,1.4,0,0,1,1349.232-314.359Z" transform="translate(-1325.044 325.241)" fill="#325a6a"/>
      </g>
      <g id="Grupo_26536" data-name="Grupo 26536" transform="translate(1282.467 -382.868)">
        <path id="Trazado_67325" data-name="Trazado 67325" d="M1332.5-293.945a1.443,1.443,0,0,1-.216-.016,28.483,28.483,0,0,0-5.759-.3,1.4,1.4,0,0,1-1.471-1.33,1.4,1.4,0,0,1,1.33-1.471,31.363,31.363,0,0,1,6.327.33,1.4,1.4,0,0,1,1.172,1.6A1.4,1.4,0,0,1,1332.5-293.945Z" transform="translate(-1325.05 297.102)" fill="#325a6a"/>
      </g>
      <g id="Grupo_26537" data-name="Grupo 26537" transform="translate(1292.477 -381.639)">
        <path id="Trazado_67326" data-name="Trazado 67326" d="M1381.254-282.29a1.4,1.4,0,0,1-.952-.372,33.44,33.44,0,0,0-12.211-6.53,1.4,1.4,0,0,1-.959-1.736,1.4,1.4,0,0,1,1.736-.958,35.648,35.648,0,0,1,13.34,7.168,1.4,1.4,0,0,1,.074,1.98A1.4,1.4,0,0,1,1381.254-282.29Z" transform="translate(-1367.077 291.943)" fill="#325a6a"/>
      </g>
      <g id="Grupo_26538" data-name="Grupo 26538" transform="translate(1282.466 -376.837)">
        <path id="Trazado_67327" data-name="Trazado 67327" d="M1349.232-260.9a1.4,1.4,0,0,1-.952-.372c-.09-.083-9.146-8.3-21.764-7.67a1.409,1.409,0,0,1-1.47-1.33,1.4,1.4,0,0,1,1.331-1.471c13.824-.691,23.409,8.042,23.81,8.414a1.4,1.4,0,0,1,.074,1.98A1.4,1.4,0,0,1,1349.232-260.9Z" transform="translate(-1325.044 271.782)" fill="#325a6a"/>
      </g>
      <g id="Grupo_26539" data-name="Grupo 26539" transform="translate(1282.466 -370.806)">
        <path id="Trazado_67328" data-name="Trazado 67328" d="M1349.232-235.577a1.4,1.4,0,0,1-.952-.372c-.09-.083-9.146-8.3-21.764-7.669a1.412,1.412,0,0,1-1.47-1.331,1.4,1.4,0,0,1,1.331-1.471c13.824-.69,23.409,8.042,23.81,8.414a1.4,1.4,0,0,1,.074,1.98A1.4,1.4,0,0,1,1349.232-235.577Z" transform="translate(-1325.044 246.459)" fill="#325a6a"/>
      </g>
    </g>
  </g>
</svg>
