<svg xmlns="http://www.w3.org/2000/svg" width="460.566" height="436.37" viewBox="0 0 460.566 436.37">
  <g id="Grupo_29513" data-name="Grupo 29513" transform="translate(-2218.427 2373.283)">
    <g id="Grupo_29512" data-name="Grupo 29512" transform="translate(2193.536 -2418.675)">
      <g id="Background_Complete" data-name="Background Complete" transform="translate(53.302 75.193)">
        <g id="Grupo_29120" data-name="Grupo 29120" transform="translate(123.024 321.321)">
          <g id="Grupo_29114" data-name="Grupo 29114" transform="translate(15.074 39.065)">
            <g id="Grupo_29113" data-name="Grupo 29113">
              <g id="Grupo_29112" data-name="Grupo 29112">
                <g id="Grupo_29111" data-name="Grupo 29111">
                  <path id="Trazado_68988" data-name="Trazado 68988" d="M191.422,458.889c-1.42-1.217-4.586-5.073-2.144-9.559.9-1.645,2.8-2.459,4.517-3.183a18.359,18.359,0,0,0,4.953-2.565c2.686-2.285,3.427-6.081,5.209-9.128,2.046-3.5,5.866-6.12,9.9-5.937,4.622.21,8.476,3.984,10.223,8.288s1.808,9.082,1.843,13.729c.02,2.571-.094,5.467-1.981,7.2-1.74,1.6-4.358,1.619-6.716,1.547l-25.255-.776" transform="translate(-188.381 -428.507)" fill="#f5f5f5"/>
                </g>
              </g>
            </g>
          </g>
          <g id="Grupo_29119" data-name="Grupo 29119">
            <g id="Grupo_29118" data-name="Grupo 29118">
              <g id="Grupo_29117" data-name="Grupo 29117">
                <g id="Grupo_29116" data-name="Grupo 29116">
                  <g id="Grupo_29115" data-name="Grupo 29115">
                    <path id="Trazado_68989" data-name="Trazado 68989" d="M240,390.15H173.581l11.965,71.338a7.963,7.963,0,0,0,5.67,6.351c.076.024.156.042.233.064.2.05.388.117.591.153a8.3,8.3,0,0,0,1.351.155l.01.068.324-.051h29.6a8.3,8.3,0,0,0,1.626-.162,8,8,0,0,0,6.72-6.972l5.768-49.154.26-1.953h-.031l2.283-19.467Zm-12.529,45.5h-6.816l.687-20.7h7.9Zm2.43-20.7h6.525L234,435.655H228.13Zm-19.472,43.655-.415-17.987h9.815l-.6,17.987ZM199.815,440.62h9.537l.415,17.987h-8.554Zm.737,17.987h-8c-.76-4.856-1.748-11.167-2.818-17.987h9.417Zm-1.123-22.952-1.609-20.7h10.941l.477,20.7Zm10.469,0-.478-20.7h11.26l-.688,20.7Zm-.592-25.668-.441-19.175h12.617l-.637,19.175Zm-.659,0H197.434l-1.49-19.175h12.261Zm-11.873,0H184.91c-.42-2.648-.818-5.155-1.178-7.41-1.237-7.753-1.7-10.667-1.961-11.764h13.512Zm.385,4.965,1.609,20.7h-9.811c-.33-2.1-.664-4.226-1-6.352-.769-4.888-1.539-9.773-2.262-14.351Zm-8.869,20.7h-6.409l-3.473-20.7h6.62C186.041,421.349,187.162,428.471,188.291,435.655Zm.78,4.965c.977,6.225,1.938,12.361,2.818,17.987h-6.158l-3.017-17.987Zm30.82,17.987.6-17.987h6.556l-1.537,17.987Zm1.615-48.62.637-19.175H231.3l-1.639,19.175Zm-40.363-19.175c.264,1.386,1.476,8.931,3.1,19.175h-6.666l-3.216-19.175ZM231.3,458.607h-5.133l1.537-17.987h5.706Zm5.7-48.62h-6.683l1.638-19.175h7.3Z" transform="translate(-173.581 -390.15)" fill="#e0e0e0"/>
                  </g>
                </g>
              </g>
            </g>
          </g>
        </g>
        <g id="Grupo_29129" data-name="Grupo 29129" transform="translate(259.469)">
          <g id="Grupo_29124" data-name="Grupo 29124">
            <g id="Grupo_29121" data-name="Grupo 29121" transform="translate(0.001 0.001)">
              <rect id="Rectángulo_26578" data-name="Rectángulo 26578" width="103.134" height="69.516" transform="translate(0 17.229) rotate(-9.617)" fill="#ebebeb"/>
            </g>
            <g id="Grupo_29123" data-name="Grupo 29123">
              <g id="Grupo_29122" data-name="Grupo 29122">
                <path id="Trazado_68990" data-name="Trazado 68990" d="M409.238,74.654a7.038,7.038,0,0,1-.792,1.072l-2.411,2.961-9.006,10.786-30.053,35.44-.247.291-.335-.186-.812-.449-41.128-22.943-12.411-7.047-3.352-1.957a7.346,7.346,0,0,1-1.138-.738,7.4,7.4,0,0,1,1.229.573l3.436,1.8,12.556,6.786,41.261,22.7.812.449-.583.106,30.265-35.259,9.231-10.593,2.543-2.848A7.25,7.25,0,0,1,409.238,74.654Z" transform="translate(-307.553 -74.653)" fill="#fafafa"/>
              </g>
            </g>
          </g>
          <g id="Grupo_29126" data-name="Grupo 29126" transform="translate(11.608 38.49)">
            <g id="Grupo_29125" data-name="Grupo 29125">
              <path id="Trazado_68991" data-name="Trazado 68991" d="M318.956,159.725c-.223-.131,5.832-10.822,13.522-23.876s14.107-23.534,14.33-23.4-5.831,10.82-13.523,23.878S319.179,159.856,318.956,159.725Z" transform="translate(-318.95 -112.446)" fill="#fafafa"/>
            </g>
          </g>
          <g id="Grupo_29128" data-name="Grupo 29128" transform="translate(73.118 31.904)">
            <g id="Grupo_29127" data-name="Grupo 29127">
              <path id="Trazado_68992" data-name="Trazado 68992" d="M379.348,105.982c.174-.19,9.311,7.855,20.4,17.97s19.949,18.472,19.774,18.663-9.309-7.853-20.406-17.972S379.174,106.174,379.348,105.982Z" transform="translate(-379.346 -105.979)" fill="#fafafa"/>
            </g>
          </g>
        </g>
        <g id="Grupo_29138" data-name="Grupo 29138" transform="translate(0 183.51)">
          <g id="Grupo_29133" data-name="Grupo 29133">
            <g id="Grupo_29130" data-name="Grupo 29130" transform="translate(0 0.001)">
              <rect id="Rectángulo_26579" data-name="Rectángulo 26579" width="51.806" height="34.919" transform="translate(0 4.584) rotate(-5.076)" fill="#f5f5f5"/>
            </g>
            <g id="Grupo_29132" data-name="Grupo 29132">
              <g id="Grupo_29131" data-name="Grupo 29131">
                <path id="Trazado_68993" data-name="Trazado 68993" d="M104.389,254.837a3.517,3.517,0,0,1-.439.506l-1.325,1.386-4.939,5.042L81.229,278.324l-.135.135-.161-.106-.388-.258L60.862,264.972l-5.935-4.022-1.6-1.113a3.659,3.659,0,0,1-.54-.416,3.748,3.748,0,0,1,.593.336l1.649,1.04,6.017,3.9L80.8,277.7l.388.258-.3.03,16.556-16.452L102.5,256.6q.863-.825,1.387-1.324A3.617,3.617,0,0,1,104.389,254.837Z" transform="translate(-52.787 -254.836)" fill="#e0e0e0"/>
              </g>
            </g>
          </g>
          <g id="Grupo_29135" data-name="Grupo 29135" transform="translate(3.088 16.8)">
            <g id="Grupo_29134" data-name="Grupo 29134">
              <path id="Trazado_68994" data-name="Trazado 68994" d="M55.821,293.9c-.107-.074,3.35-5.187,7.72-11.418s8-11.223,8.106-11.148-3.35,5.185-7.721,11.418S55.927,293.973,55.821,293.9Z" transform="translate(-55.819 -271.332)" fill="#e0e0e0"/>
            </g>
          </g>
          <g id="Grupo_29137" data-name="Grupo 29137" transform="translate(36.029 14.84)">
            <g id="Grupo_29136" data-name="Grupo 29136">
              <path id="Trazado_68995" data-name="Trazado 68995" d="M88.164,269.409c.095-.089,4.35,4.3,9.5,9.81s9.255,10.043,9.16,10.132-4.349-4.3-9.5-9.811S88.069,269.5,88.164,269.409Z" transform="translate(-88.162 -269.408)" fill="#e0e0e0"/>
            </g>
          </g>
        </g>
        <g id="Grupo_29151" data-name="Grupo 29151" transform="translate(356.638 92.6)">
          <g id="Grupo_29141" data-name="Grupo 29141">
            <g id="Grupo_29140" data-name="Grupo 29140">
              <g id="Grupo_29139" data-name="Grupo 29139">
                <path id="Trazado_68996" data-name="Trazado 68996" d="M464.535,218.976s.035-.275.118-.783q.133-.79.378-2.241c.342-1.973.838-4.839,1.472-8.5,1.288-7.332,3.136-17.838,5.383-30.622l.166.239-61.308-10.945h-.005l.3-.207c-2.7,15.031-5.274,29.311-7.574,42.1l-.189-.271,44.122,8.031L460,218.106l3.36.631.87.17a2.755,2.755,0,0,1,.3.068,2.1,2.1,0,0,1-.28-.037l-.848-.139-3.324-.567-12.58-2.193-44.312-7.83-.23-.041.041-.231c2.289-12.795,4.843-27.078,7.531-42.111l.045-.253.253.046h.005l61.29,11.043.2.037-.038.2c-2.344,12.819-4.272,23.356-5.617,30.71l-1.566,8.435q-.27,1.421-.417,2.194C464.593,218.736,464.535,218.976,464.535,218.976Z" transform="translate(-402.96 -165.575)" fill="#e0e0e0"/>
              </g>
            </g>
          </g>
          <g id="Grupo_29144" data-name="Grupo 29144" transform="translate(7.822 0.297)">
            <g id="Grupo_29143" data-name="Grupo 29143">
              <g id="Grupo_29142" data-name="Grupo 29142">
                <path id="Trazado_68997" data-name="Trazado 68997" d="M471.946,176.862a5.451,5.451,0,0,1-.7.506l-2.055,1.367-7.612,4.947-25.216,16.157c-.686-.121-.2-.042-.352-.072l-.01-.013-.02-.027-.042-.055-.082-.109-.165-.218-.33-.435-.656-.867-1.3-1.715-2.538-3.355-4.791-6.346-8.089-10.763-5.418-7.284-1.452-2a5.632,5.632,0,0,1-.479-.717,5.348,5.348,0,0,1,.561.655q.567.717,1.529,1.937l5.548,7.185,8.176,10.7,4.814,6.328,2.544,3.35q.645.851,1.3,1.714l.656.867.33.435.165.218.082.109.042.055.02.027.011.014c-.149-.024.346.072-.331-.051l25.3-16.031,7.7-4.809,2.107-1.286A5.408,5.408,0,0,1,471.946,176.862Z" transform="translate(-410.64 -165.867)" fill="#e0e0e0"/>
              </g>
            </g>
          </g>
          <g id="Grupo_29147" data-name="Grupo 29147" transform="translate(0.147 22.777)">
            <g id="Grupo_29146" data-name="Grupo 29146">
              <g id="Grupo_29145" data-name="Grupo 29145">
                <path id="Trazado_68998" data-name="Trazado 68998" d="M427.819,187.941c.089.111-5.372,4.629-12.2,10.091s-12.429,9.8-12.518,9.692,5.372-4.628,12.2-10.091S427.73,187.831,427.819,187.941Z" transform="translate(-403.104 -187.939)" fill="#e0e0e0"/>
              </g>
            </g>
          </g>
          <g id="Grupo_29150" data-name="Grupo 29150" transform="translate(46.462 25.733)">
            <g id="Grupo_29149" data-name="Grupo 29149">
              <g id="Grupo_29148" data-name="Grupo 29148">
                <path id="Trazado_68999" data-name="Trazado 68999" d="M464,219.071c-.124.068-3.676-6.2-7.933-13.991s-7.608-14.17-7.484-14.238,3.675,6.2,7.933,13.993S464.124,219,464,219.071Z" transform="translate(-448.58 -190.841)" fill="#e0e0e0"/>
              </g>
            </g>
          </g>
        </g>
        <g id="Grupo_29160" data-name="Grupo 29160" transform="translate(89.311 225.347)">
          <g id="Grupo_29155" data-name="Grupo 29155">
            <g id="Grupo_29154" data-name="Grupo 29154">
              <g id="Grupo_29153" data-name="Grupo 29153">
                <g id="Grupo_29152" data-name="Grupo 29152">
                  <path id="Trazado_69000" data-name="Trazado 69000" d="M197.292,295.916v11.837H146.4a5.919,5.919,0,0,1-5.918-5.918h0a5.919,5.919,0,0,1,5.918-5.918" transform="translate(-140.479 -295.916)" fill="#e0e0e0"/>
                </g>
              </g>
            </g>
          </g>
          <g id="Grupo_29159" data-name="Grupo 29159" transform="translate(36.617 2.481)">
            <g id="Grupo_29158" data-name="Grupo 29158">
              <g id="Grupo_29157" data-name="Grupo 29157">
                <g id="Grupo_29156" data-name="Grupo 29156">
                  <path id="Rectángulo_26580" data-name="Rectángulo 26580" d="M3.275,0H20.2a0,0,0,0,1,0,0V6.874a0,0,0,0,1,0,0H3.275A3.275,3.275,0,0,1,0,3.6V3.275A3.275,3.275,0,0,1,3.275,0Z" fill="#fafafa"/>
                </g>
              </g>
            </g>
          </g>
        </g>
        <g id="Grupo_29169" data-name="Grupo 29169" transform="translate(89.311 213.512)">
          <g id="Grupo_29164" data-name="Grupo 29164">
            <g id="Grupo_29163" data-name="Grupo 29163">
              <g id="Grupo_29162" data-name="Grupo 29162">
                <g id="Grupo_29161" data-name="Grupo 29161">
                  <path id="Trazado_69001" data-name="Trazado 69001" d="M197.292,284.3v11.836H146.4a5.919,5.919,0,0,1-5.918-5.918h0A5.918,5.918,0,0,1,146.4,284.3Z" transform="translate(-140.479 -284.295)" fill="#f5f5f5"/>
                </g>
              </g>
            </g>
          </g>
          <g id="Grupo_29168" data-name="Grupo 29168" transform="translate(36.617 2.481)">
            <g id="Grupo_29167" data-name="Grupo 29167">
              <g id="Grupo_29166" data-name="Grupo 29166">
                <g id="Grupo_29165" data-name="Grupo 29165">
                  <path id="Rectángulo_26581" data-name="Rectángulo 26581" d="M3.275,0H20.2a0,0,0,0,1,0,0V6.874a0,0,0,0,1,0,0H3.275A3.275,3.275,0,0,1,0,3.6V3.275A3.275,3.275,0,0,1,3.275,0Z" fill="#e0e0e0"/>
                </g>
              </g>
            </g>
          </g>
        </g>
        <g id="Grupo_29176" data-name="Grupo 29176" transform="translate(101.285 177.346)">
          <g id="Grupo_29170" data-name="Grupo 29170" transform="translate(0 17.181)">
            <path id="Trazado_69002" data-name="Trazado 69002" d="M160.319,265.654l-8.083,18.985h5.2l3.591-10.14Z" transform="translate(-152.236 -265.654)" fill="#e0e0e0"/>
          </g>
          <g id="Grupo_29175" data-name="Grupo 29175" transform="translate(6.705)">
            <g id="Grupo_29173" data-name="Grupo 29173">
              <g id="Grupo_29171" data-name="Grupo 29171">
                <path id="Trazado_69003" data-name="Trazado 69003" d="M185.017,248.784l3.122,36.166H161.721l-2.9-36.166Z" transform="translate(-158.819 -248.784)" fill="#ebebeb"/>
              </g>
              <g id="Grupo_29172" data-name="Grupo 29172" transform="translate(3.843 2.693)">
                <path id="Trazado_69004" data-name="Trazado 69004" d="M182.367,251.6,185.1,281.9l-19.83.261-2.679-30.729Z" transform="translate(-162.593 -251.429)" fill="#fafafa"/>
              </g>
            </g>
            <g id="Grupo_29174" data-name="Grupo 29174" transform="translate(8.521 7.062)">
              <path id="Trazado_69005" data-name="Trazado 69005" d="M178.074,255.719l1.556,20.845H169.052l-1.866-20.845Z" transform="translate(-167.186 -255.719)" fill="#e0e0e0"/>
            </g>
          </g>
        </g>
      </g>
      <g id="Floor" transform="translate(24.891 474.379)">
        <g id="Grupo_29178" data-name="Grupo 29178">
          <g id="Grupo_29177" data-name="Grupo 29177">
            <path id="Trazado_69006" data-name="Trazado 69006" d="M485.457,466.868c0,.147-103.11.266-230.272.266-127.207,0-230.294-.119-230.294-.266s103.088-.265,230.294-.265C382.347,466.6,485.457,466.722,485.457,466.868Z" transform="translate(-24.891 -466.603)" fill="#263238"/>
          </g>
        </g>
      </g>
      <g id="Screen" transform="translate(47.396 45.392)">
        <g id="New_Email" data-name="New Email">
          <g id="Grupo_29229" data-name="Grupo 29229">
            <g id="Grupo_29179" data-name="Grupo 29179" transform="translate(0 0.243)">
              <rect id="Rectángulo_26582" data-name="Rectángulo 26582" width="274.748" height="186.378" fill="#fafafa"/>
            </g>
            <g id="Grupo_29180" data-name="Grupo 29180" transform="translate(0.841 0.104)">
              <path id="Trazado_69007" data-name="Trazado 69007" d="M322.98,232.152H47.814V45.494H322.98Zm-.21-186.519H48.022V232.012H322.77" transform="translate(-47.814 -45.494)" fill="#fafafa"/>
            </g>
            <g id="Grupo_29181" data-name="Grupo 29181" transform="translate(0.841 0.104)">
              <path id="Trazado_69008" data-name="Trazado 69008" d="M322.98,232.152H47.814V45.494H322.98Zm-.21-186.519H48.022V232.012H322.77" transform="translate(-47.814 -45.494)" fill="#fafafa"/>
            </g>
            <g id="Grupo_29226" data-name="Grupo 29226" transform="translate(0.945 0.208)">
              <g id="Grupo_29182" data-name="Grupo 29182" transform="translate(0)">
                <rect id="Rectángulo_26583" data-name="Rectángulo 26583" width="274.957" height="18.477" fill="#5b9dbb"/>
              </g>
              <g id="Grupo_29183" data-name="Grupo 29183" transform="translate(0 157.895)" style="mix-blend-mode: multiply;isolation: isolate">
                <rect id="Rectángulo_26584" data-name="Rectángulo 26584" width="274.957" height="28.658" fill="#ebebeb"/>
              </g>
              <g id="Grupo_29199" data-name="Grupo 29199" transform="translate(16.534 165.364)">
                <g id="Grupo_29191" data-name="Grupo 29191" transform="translate(0 2.649)">
                  <g id="Grupo_29184" data-name="Grupo 29184" transform="translate(11.423 0.783)">
                    <path id="Trazado_69009" data-name="Trazado 69009" d="M80.764,213.3l-1.863-.272-.836-1.691-.832,1.691-1.867.272,1.351,1.316-.017.09-.3,1.767,1.668-.879,1.668.879-.317-1.857.064-.064Z" transform="translate(-75.366 -211.333)" fill="none"/>
                  </g>
                  <g id="Grupo_29185" data-name="Grupo 29185" transform="translate(0.952 1.221)">
                    <path id="Trazado_69010" data-name="Trazado 69010" d="M66.2,211.763a1.117,1.117,0,1,0,1.116,1.117A1.117,1.117,0,0,0,66.2,211.763Z" transform="translate(-65.085 -211.763)" fill="none"/>
                  </g>
                  <g id="Grupo_29186" data-name="Grupo 29186" transform="translate(34.451 0.495)">
                    <path id="Trazado_69011" data-name="Trazado 69011" d="M99.179,214.307h2.269l.716,1.486h.488l-2.272-4.743h-.125l-2.277,4.743h.493Zm1.138-2.366.918,1.924h-1.84Z" transform="translate(-97.977 -211.05)" fill="#263238"/>
                  </g>
                  <g id="Grupo_29187" data-name="Grupo 29187" transform="translate(34.088 6.248)">
                    <rect id="Rectángulo_26585" data-name="Rectángulo 26585" width="5.375" height="0.379" fill="#263238"/>
                  </g>
                  <g id="Grupo_29188" data-name="Grupo 29188" transform="translate(0 0.229)">
                    <path id="Trazado_69012" data-name="Trazado 69012" d="M66.4,210.789h-.364a2,2,0,0,0-1.887,2.038,8.47,8.47,0,0,0,1.887,4.042s.143.248.364,0a8.462,8.462,0,0,0,1.888-4.042A2,2,0,0,0,66.4,210.789Zm-.181,3.227a1.117,1.117,0,1,1,1.116-1.117A1.117,1.117,0,0,1,66.22,214.015Z" transform="translate(-64.15 -210.789)" fill="#263238"/>
                  </g>
                  <g id="Grupo_29189" data-name="Grupo 29189" transform="translate(24.844 0.229)">
                    <path id="Trazado_69013" data-name="Trazado 69013" d="M91.122,215.529a1.15,1.15,0,1,1-2.3,0v-3.717a.744.744,0,1,1,1.489,0v3.152h0a.423.423,0,0,1-.826-.006v-2.427H89.21v2.433h.011a.687.687,0,0,0,1.362,0h.006V214.9c0-.017.005-.034.005-.052h-.005v-3.073h0a1.022,1.022,0,0,0-2.042,0h0v3.882h.006a1.428,1.428,0,0,0,2.844,0H91.4v-3.129h-.278Z" transform="translate(-88.544 -210.789)" fill="#263238"/>
                  </g>
                  <g id="Grupo_29190" data-name="Grupo 29190" transform="translate(10.677)">
                    <path id="Trazado_69014" data-name="Trazado 69014" d="M79.143,212.719l-1.064-2.155-1.065,2.155-2.38.346,1.722,1.679-.406,2.371L78.078,216l2.129,1.118-.406-2.371,1.722-1.679Zm.6,3.763-1.668-.879-1.668.879.3-1.767.017-.09L75.38,213.31l1.867-.272.832-1.691.836,1.691,1.863.272-1.284,1.252-.063.064Z" transform="translate(-74.633 -210.564)" fill="#263238"/>
                  </g>
                </g>
                <g id="Grupo_29198" data-name="Grupo 29198" transform="translate(45.937)">
                  <g id="Grupo_29192" data-name="Grupo 29192" transform="translate(10.811)">
                    <path id="Trazado_69015" data-name="Trazado 69015" d="M120.217,207.963h-.347v11.046h.347Zm-.174,11.046v0Z" transform="translate(-119.87 -207.963)" fill="#263238"/>
                  </g>
                  <g id="Grupo_29193" data-name="Grupo 29193" transform="translate(0 3.909)">
                    <rect id="Rectángulo_26586" data-name="Rectángulo 26586" width="4.397" height="4.687" fill="#263238"/>
                  </g>
                  <g id="Grupo_29194" data-name="Grupo 29194" transform="translate(0 2.811)">
                    <path id="Trazado_69016" data-name="Trazado 69016" d="M110.643,210.723v.361h1.62v-.361h1.389v.721h-4.4v-.721Z" transform="translate(-109.255 -210.723)" fill="#263238"/>
                  </g>
                  <g id="Grupo_29195" data-name="Grupo 29195" transform="translate(1.389 2.45)">
                    <rect id="Rectángulo_26587" data-name="Rectángulo 26587" width="1.62" height="0.361" fill="#263238"/>
                  </g>
                  <g id="Grupo_29196" data-name="Grupo 29196" transform="translate(1.389 2.811)">
                    <rect id="Rectángulo_26588" data-name="Rectángulo 26588" width="1.62" height="0.361" fill="#263238"/>
                  </g>
                  <g id="Grupo_29197" data-name="Grupo 29197" transform="translate(19.6 5.069)">
                    <path id="Trazado_69017" data-name="Trazado 69017" d="M130.014,214.29l1.35-1.351.164.164-1.514,1.514L128.5,213.1l.164-.164Z" transform="translate(-128.499 -212.94)" fill="#263238"/>
                  </g>
                </g>
              </g>
              <g id="Grupo_29204" data-name="Grupo 29204" transform="translate(249.313 7.13)">
                <g id="Grupo_29200" data-name="Grupo 29200" transform="translate(7.636 0.404)">
                  <rect id="Rectángulo_26589" data-name="Rectángulo 26589" width="3.408" height="3.409" fill="none"/>
                </g>
                <g id="Grupo_29201" data-name="Grupo 29201" transform="translate(0 1.906)">
                  <path id="Trazado_69018" data-name="Trazado 69018" d="M292.71,54.873h3.812v-.2h0v-.2H292.71Z" transform="translate(-292.71 -54.469)" fill="#263238"/>
                </g>
                <g id="Grupo_29202" data-name="Grupo 29202" transform="translate(14.915 0.059)">
                  <path id="Trazado_69019" data-name="Trazado 69019" d="M311.453,52.941l-.286-.286L309.4,54.418l-1.763-1.763-.286.286,1.763,1.763-1.763,1.764.286.286L309.4,54.99l1.763,1.763.286-.286L309.69,54.7Z" transform="translate(-307.355 -52.655)" fill="#263238"/>
                </g>
                <g id="Grupo_29203" data-name="Grupo 29203" transform="translate(7.231)">
                  <path id="Trazado_69020" data-name="Trazado 69020" d="M299.81,56.814h4.217V52.6H299.81ZM300.215,53h3.408V56.41h-3.408Z" transform="translate(-299.81 -52.597)" fill="#263238"/>
                </g>
              </g>
              <g id="Grupo_29205" data-name="Grupo 29205" transform="translate(259.716 59.134)">
                <path id="Trazado_69021" data-name="Trazado 69021" d="M311.95,105.155a1.5,1.5,0,0,0-1.446-1.494v0h-5.681v.01a2.089,2.089,0,0,0,0,4.16v.009H309.4v-.406h-4.388a1.683,1.683,0,1,1,0-3.366h5.44a1.089,1.089,0,0,1,0,2.178H305.84v.005a.619.619,0,0,1,.009-1.209H309.4v-.407H305.84v.017a1.005,1.005,0,0,0,0,1.992v.009h.092c.025,0,.05.007.075.007v-.007h4.5v0A1.5,1.5,0,0,0,311.95,105.155Z" transform="translate(-302.924 -103.658)" fill="#263238"/>
              </g>
              <g id="Grupo_29206" data-name="Grupo 29206" transform="translate(8.154 5.689)">
                <path id="Trazado_69022" data-name="Trazado 69022" d="M60.272,51.586v5.059h-.593l-3.035-3.772v3.772h-.722V51.586h.593l3.034,3.772V51.586Z" transform="translate(-55.922 -51.175)" fill="#fff"/>
                <path id="Trazado_69023" data-name="Trazado 69023" d="M65.031,54.94H61.924a1.3,1.3,0,0,0,1.388,1.12,1.433,1.433,0,0,0,1.105-.462l.383.448a2.088,2.088,0,0,1-3.57-1.337,1.876,1.876,0,0,1,1.923-1.951,1.847,1.847,0,0,1,1.893,1.973C65.046,54.788,65.038,54.874,65.031,54.94Zm-3.107-.5h2.458a1.237,1.237,0,0,0-2.458,0Z" transform="translate(-55.824 -51.153)" fill="#fff"/>
                <path id="Trazado_69024" data-name="Trazado 69024" d="M71.651,52.792l-1.431,3.83h-.665L68.45,53.717l-1.12,2.906h-.665l-1.424-3.83H65.9l1.113,3.05,1.156-3.05h.586l1.135,3.065,1.142-3.065Z" transform="translate(-55.75 -51.152)" fill="#fff"/>
                <path id="Trazado_69025" data-name="Trazado 69025" d="M77.894,56.016v.628H74.222V51.586h3.57v.628H74.945v1.554h2.536v.614H74.945v1.634Z" transform="translate(-55.584 -51.175)" fill="#fff"/>
                <path id="Trazado_69026" data-name="Trazado 69026" d="M85.231,54.419v2.2h-.694V54.5c0-.752-.362-1.12-.991-1.12A1.111,1.111,0,0,0,82.4,54.65v1.973H81.7V54.5c0-.752-.362-1.12-.99-1.12a1.112,1.112,0,0,0-1.149,1.272v1.973h-.694v-3.83h.665v.571a1.551,1.551,0,0,1,1.322-.607,1.418,1.418,0,0,1,1.33.709,1.725,1.725,0,0,1,1.474-.709A1.469,1.469,0,0,1,85.231,54.419Z" transform="translate(-55.498 -51.153)" fill="#fff"/>
                <path id="Trazado_69027" data-name="Trazado 69027" d="M89.4,54.311v2.312h-.657v-.505a1.424,1.424,0,0,1-1.258.549c-.867,0-1.416-.463-1.416-1.127,0-.614.4-1.12,1.539-1.12h1.1v-.137c0-.585-.339-.925-1.026-.925a1.939,1.939,0,0,0-1.214.411l-.289-.519a2.552,2.552,0,0,1,1.583-.492C88.812,52.757,89.4,53.263,89.4,54.311Zm-.694,1.142v-.535H87.64c-.686,0-.881.267-.881.592,0,.383.318.622.845.622A1.112,1.112,0,0,0,88.71,55.453Z" transform="translate(-55.365 -51.153)" fill="#fff"/>
                <path id="Trazado_69028" data-name="Trazado 69028" d="M90.481,51.637a.457.457,0,0,1,.47-.455.449.449,0,0,1,.47.441.47.47,0,0,1-.939.014Zm.123,1.184H91.3v3.83H90.6Z" transform="translate(-55.284 -51.182)" fill="#fff"/>
                <path id="Trazado_69029" data-name="Trazado 69029" d="M92.579,51.288h.694V56.65h-.694Z" transform="translate(-55.245 -51.18)" fill="#fff"/>
              </g>
              <g id="Grupo_29207" data-name="Grupo 29207" transform="translate(6.712 24.146)">
                <path id="Trazado_69030" data-name="Trazado 69030" d="M56.24,69.933H54.506v-.628H58.69v.628H56.955v4.43H56.24Z" transform="translate(-54.506 -69.305)" fill="#263238"/>
                <path id="Trazado_69031" data-name="Trazado 69031" d="M58.546,72.426a1.991,1.991,0,1,1,1.994,1.959A1.905,1.905,0,0,1,58.546,72.426Zm3.28,0a1.291,1.291,0,1,0-2.58,0,1.291,1.291,0,1,0,2.58,0Z" transform="translate(-54.431 -69.283)" fill="#263238"/>
                <path id="Trazado_69032" data-name="Trazado 69032" d="M64.982,70.967a.483.483,0,0,1,.491-.491.476.476,0,0,1,.478.491.482.482,0,0,1-.478.5A.489.489,0,0,1,64.982,70.967Zm0,2.92a.483.483,0,0,1,.491-.492.476.476,0,0,1,.478.492.481.481,0,0,1-.478.5A.488.488,0,0,1,64.982,73.887Z" transform="translate(-54.313 -69.283)" fill="#263238"/>
              </g>
              <g id="Grupo_29208" data-name="Grupo 29208" transform="translate(7.741 41.104)">
                <path id="Trazado_69033" data-name="Trazado 69033" d="M55.517,88.542A2.559,2.559,0,0,1,58.2,85.955a2.5,2.5,0,0,1,1.922.788l-.47.455a1.872,1.872,0,0,0-1.424-.6,1.944,1.944,0,1,0,0,3.887,1.878,1.878,0,0,0,1.424-.607l.47.455a2.509,2.509,0,0,1-1.929.794A2.557,2.557,0,0,1,55.517,88.542Z" transform="translate(-55.517 -85.955)" fill="#263238"/>
                <path id="Trazado_69034" data-name="Trazado 69034" d="M60.443,89.134a1.914,1.914,0,0,1,2.024-1.951A1.706,1.706,0,0,1,64.028,88l-.528.339a1.193,1.193,0,0,0-1.041-.549,1.348,1.348,0,0,0,0,2.7,1.194,1.194,0,0,0,1.041-.55l.528.333a1.713,1.713,0,0,1-1.561.823A1.919,1.919,0,0,1,60.443,89.134Z" transform="translate(-55.426 -85.932)" fill="#263238"/>
                <path id="Trazado_69035" data-name="Trazado 69035" d="M66.425,87.674a.484.484,0,0,1,.492-.491.476.476,0,0,1,.478.491.482.482,0,0,1-.478.5A.49.49,0,0,1,66.425,87.674Zm0,2.92a.484.484,0,0,1,.492-.492.476.476,0,0,1,.478.492.481.481,0,0,1-.478.5A.489.489,0,0,1,66.425,90.594Z" transform="translate(-55.316 -85.932)" fill="#263238"/>
              </g>
              <g id="Grupo_29209" data-name="Grupo 29209" transform="translate(6.98 57.988)">
                <path id="Trazado_69036" data-name="Trazado 69036" d="M54.769,107.418l.267-.563a2.6,2.6,0,0,0,1.669.585c.874,0,1.251-.339,1.251-.78,0-1.235-3.065-.455-3.065-2.334,0-.78.607-1.445,1.937-1.445a2.971,2.971,0,0,1,1.625.448l-.238.578a2.61,2.61,0,0,0-1.387-.412c-.861,0-1.228.362-1.228.8,0,1.235,3.064.462,3.064,2.32,0,.772-.621,1.437-1.958,1.437A3,3,0,0,1,54.769,107.418Z" transform="translate(-54.769 -102.527)" fill="#263238"/>
                <path id="Trazado_69037" data-name="Trazado 69037" d="M63.1,104.143v3.83h-.658v-.578a1.558,1.558,0,0,1-1.3.621,1.505,1.505,0,0,1-1.648-1.669v-2.2h.694v2.125c0,.752.376,1.127,1.034,1.127a1.127,1.127,0,0,0,1.185-1.272v-1.98Z" transform="translate(-54.682 -102.503)" fill="#263238"/>
                <path id="Trazado_69038" data-name="Trazado 69038" d="M68.29,106.085a1.864,1.864,0,0,1-1.936,1.958,1.617,1.617,0,0,1-1.366-.651V108h-.665v-5.362h.694v2.11a1.631,1.631,0,0,1,1.337-.614A1.858,1.858,0,0,1,68.29,106.085Zm-.7,0a1.291,1.291,0,1,0-1.293,1.351A1.263,1.263,0,0,0,67.589,106.085Z" transform="translate(-54.593 -102.531)" fill="#263238"/>
                <path id="Trazado_69039" data-name="Trazado 69039" d="M67.858,109.217l.225-.535a.878.878,0,0,0,.563.18c.369,0,.57-.231.57-.672v-4.018h.695v4a1.143,1.143,0,0,1-1.222,1.272A1.364,1.364,0,0,1,67.858,109.217Zm1.236-6.23a.456.456,0,0,1,.47-.454.452.452,0,1,1-.47.454Z" transform="translate(-54.527 -102.533)" fill="#263238"/>
                <path id="Trazado_69040" data-name="Trazado 69040" d="M74.623,106.29H71.516a1.3,1.3,0,0,0,1.387,1.12,1.432,1.432,0,0,0,1.106-.462l.383.448a2.088,2.088,0,0,1-3.57-1.337,1.876,1.876,0,0,1,1.923-1.95,1.846,1.846,0,0,1,1.892,1.973C74.637,106.138,74.63,106.224,74.623,106.29Zm-3.107-.5h2.458a1.236,1.236,0,0,0-2.458,0Z" transform="translate(-54.473 -102.504)" fill="#263238"/>
                <path id="Trazado_69041" data-name="Trazado 69041" d="M75.16,106.058a1.913,1.913,0,0,1,2.024-1.95,1.705,1.705,0,0,1,1.56.817l-.528.339a1.194,1.194,0,0,0-1.04-.55,1.348,1.348,0,0,0,0,2.7,1.193,1.193,0,0,0,1.04-.549l.528.333a1.714,1.714,0,0,1-1.56.823A1.919,1.919,0,0,1,75.16,106.058Z" transform="translate(-54.393 -102.504)" fill="#263238"/>
                <path id="Trazado_69042" data-name="Trazado 69042" d="M81.768,107.765a1.311,1.311,0,0,1-.838.267,1.092,1.092,0,0,1-1.214-1.2v-2.1h-.651v-.57h.651v-.838h.694v.838h1.1v.57h-1.1V106.8a.564.564,0,0,0,.6.643.878.878,0,0,0,.542-.18Z" transform="translate(-54.32 -102.518)" fill="#263238"/>
                <path id="Trazado_69043" data-name="Trazado 69043" d="M84.126,104.6a.483.483,0,0,1,.491-.491.476.476,0,0,1,.478.491.482.482,0,0,1-.478.5A.489.489,0,0,1,84.126,104.6Zm0,2.92a.483.483,0,0,1,.491-.492.476.476,0,0,1,.478.492.482.482,0,0,1-.478.5A.489.489,0,0,1,84.126,107.519Z" transform="translate(-54.227 -102.504)" fill="#263238"/>
              </g>
              <g id="Grupo_29211" data-name="Grupo 29211" transform="translate(27.853 28.032)">
                <g id="Grupo_29210" data-name="Grupo 29210">
                  <path id="Trazado_69044" data-name="Trazado 69044" d="M147.705,73.385c0,.147-16.218.266-36.218.266s-36.223-.119-36.223-.266,16.215-.265,36.223-.265S147.705,73.238,147.705,73.385Z" transform="translate(-75.264 -73.12)" fill="#263238"/>
                </g>
              </g>
              <g id="Grupo_29213" data-name="Grupo 29213" transform="translate(27.853 44.559)">
                <g id="Grupo_29212" data-name="Grupo 29212">
                  <path id="Trazado_69045" data-name="Trazado 69045" d="M180.049,89.613c0,.147-23.458.266-52.39.266s-52.4-.119-52.4-.266,23.454-.265,52.4-.265S180.049,89.466,180.049,89.613Z" transform="translate(-75.264 -89.348)" fill="#263238"/>
                </g>
              </g>
              <g id="Grupo_29215" data-name="Grupo 29215" transform="translate(46.59 60.959)">
                <g id="Grupo_29214" data-name="Grupo 29214">
                  <path id="Trazado_69046" data-name="Trazado 69046" d="M140.964,105.715a1.663,1.663,0,0,1-.481.054l-1.378.05-5.069.084c-4.28.048-10.193.078-16.722.078s-12.446-.031-16.725-.078l-5.069-.084-1.378-.05a1.663,1.663,0,0,1-.481-.054,1.692,1.692,0,0,1,.481-.053l1.378-.05,5.069-.085c4.28-.048,10.193-.077,16.725-.077s12.443.03,16.722.077l5.069.085,1.378.05A1.692,1.692,0,0,1,140.964,105.715Z" transform="translate(-93.662 -105.45)" fill="#263238"/>
                </g>
              </g>
              <g id="Grupo_29217" data-name="Grupo 29217" transform="translate(0.104 69.88)">
                <g id="Grupo_29216" data-name="Grupo 29216" transform="translate(0 0)">
                  <path id="Trazado_69047" data-name="Trazado 69047" d="M319.9,114.476c0,.146-60.869.265-135.937.265-75.093,0-135.949-.119-135.949-.265s60.856-.266,135.949-.266C259.035,114.21,319.9,114.329,319.9,114.476Z" transform="translate(-48.018 -114.21)" fill="#e0e0e0"/>
                </g>
              </g>
              <g id="Grupo_29219" data-name="Grupo 29219" transform="translate(0 51.992)">
                <g id="Grupo_29218" data-name="Grupo 29218">
                  <path id="Trazado_69048" data-name="Trazado 69048" d="M319.906,96.911c0,.147-60.893.265-135.989.265-75.123,0-136-.118-136-.265s60.878-.265,136-.265C259.013,96.646,319.906,96.764,319.906,96.911Z" transform="translate(-47.916 -96.646)" fill="#e0e0e0"/>
                </g>
              </g>
              <g id="Grupo_29221" data-name="Grupo 29221" transform="translate(0.104 36.296)">
                <g id="Grupo_29220" data-name="Grupo 29220">
                  <path id="Trazado_69049" data-name="Trazado 69049" d="M319.9,81.5c0,.147-60.869.266-135.937.266-75.093,0-135.949-.119-135.949-.266s60.856-.265,135.949-.265C259.035,81.234,319.9,81.352,319.9,81.5Z" transform="translate(-48.018 -81.234)" fill="#e0e0e0"/>
                </g>
              </g>
              <g id="Grupo_29223" data-name="Grupo 29223" transform="translate(16.534 91.701)">
                <g id="Grupo_29222" data-name="Grupo 29222">
                  <path id="Trazado_69050" data-name="Trazado 69050" d="M81.414,135.9a70.342,70.342,0,0,1-8.631.266,70.339,70.339,0,0,1-8.632-.266,70.477,70.477,0,0,1,8.632-.265A70.48,70.48,0,0,1,81.414,135.9Z" transform="translate(-64.15 -135.635)" fill="#263238"/>
                </g>
              </g>
              <g id="Grupo_29225" data-name="Grupo 29225" transform="translate(16.534 104.629)">
                <g id="Grupo_29224" data-name="Grupo 29224">
                  <path id="Trazado_69051" data-name="Trazado 69051" d="M138.2,148.595c0,.147-16.577.265-37.021.265s-37.024-.118-37.024-.265,16.573-.266,37.024-.266S138.2,148.448,138.2,148.595Z" transform="translate(-64.15 -148.329)" fill="#263238"/>
                </g>
              </g>
            </g>
            <g id="Grupo_29228" data-name="Grupo 29228" transform="translate(0.836)">
              <g id="Grupo_29227" data-name="Grupo 29227">
                <path id="Trazado_69052" data-name="Trazado 69052" d="M48.022,45.635l274.748-.242h.242v.243c.007,56.724.014,119.9.022,186.356v.287h-.265l-274.748-.052h-.213v-.212c.129-113.478.21-184.639.212-186.378,0,1.739.084,72.9.213,186.378l-.213-.213,274.748-.053-.266.266v-.022c.008-66.457.016-129.632.023-186.356l.242.242Z" transform="translate(-47.809 -45.392)" fill="#263238"/>
              </g>
            </g>
          </g>
        </g>
      </g>
      <g id="Desk" transform="translate(117.757 194.537)">
        <g id="Grupo_29324" data-name="Grupo 29324" transform="translate(82.19)">
          <g id="Grupo_29230" data-name="Grupo 29230" transform="translate(0.264 0.266)">
            <path id="Rectángulo_26590" data-name="Rectángulo 26590" d="M4.282,0h133.98a4.282,4.282,0,0,1,4.282,4.282v83.53a9.441,9.441,0,0,1-9.441,9.441H9.441A9.441,9.441,0,0,1,0,87.811V4.282A4.282,4.282,0,0,1,4.282,0Z" fill="#5b9dbb"/>
          </g>
          <g id="Grupo_29232" data-name="Grupo 29232">
            <g id="Grupo_29231" data-name="Grupo 29231">
              <path id="Trazado_69053" data-name="Trazado 69053" d="M329.966,289.353s.1-.014.3-.028.5-.012.9-.082a9.552,9.552,0,0,0,7.266-5.126,9.428,9.428,0,0,0,1.013-3.476c.087-1.291.016-2.7.034-4.177-.02-11.842-.049-28.957-.085-50.1q-.009-7.933-.017-16.6,0-4.331-.008-8.832,0-2.249-.007-4.538a4.167,4.167,0,0,0-2.184-3.576,4.319,4.319,0,0,0-2.152-.49l-2.362,0-4.782,0-9.791.006-20.435.011-90.992.021h-4.53a7.847,7.847,0,0,0-1.454.067,4.106,4.106,0,0,0-3.373,3.953q0,5.975-.005,11.87,0,11.791,0,23.217c-.005,15.221-.01,29.9-.015,43.89.017,1.739-.043,3.508.039,5.19a9.389,9.389,0,0,0,5.506,7.742,10.5,10.5,0,0,0,4.789.825l19.277.014,34.6.032,50.1.085,13.622.05,3.542.026c.8.009,1.207.026,1.207.026s-.409.018-1.207.028l-3.542.026-13.622.05-50.1.084-34.6.032-19.277.013a10.992,10.992,0,0,1-4.982-.86,9.865,9.865,0,0,1-5.794-8.132c-.087-1.766-.025-3.475-.046-5.232-.005-13.987-.01-28.669-.015-43.89q0-11.416,0-23.217,0-5.9,0-11.88a4.618,4.618,0,0,1,3.81-4.465,8.387,8.387,0,0,1,1.547-.075h4.53l90.992.021,20.435.011,9.791.006,4.782,0,2.362,0a4.756,4.756,0,0,1,2.361.546,4.6,4.6,0,0,1,2.407,3.956q0,2.293,0,4.545,0,4.5-.008,8.832-.009,8.659-.017,16.6c-.036,21.147-.064,38.262-.085,50.1-.024,1.482.039,2.868-.058,4.194a9.558,9.558,0,0,1-1.054,3.531,9.823,9.823,0,0,1-4.02,4.062,9.519,9.519,0,0,1-3.379,1.046A9.325,9.325,0,0,1,329.966,289.353Z" transform="translate(-196.774 -191.834)" fill="#263238"/>
            </g>
          </g>
          <g id="Grupo_29235" data-name="Grupo 29235" transform="translate(55.737 97.518)">
            <g id="Grupo_29233" data-name="Grupo 29233">
              <path id="Trazado_69054" data-name="Trazado 69054" d="M279.644,287.585H254.886s-7.618,12.7,0,20.321h25.606S267.871,299.64,279.644,287.585Z" transform="translate(-251.501 -287.585)" fill="#263238"/>
            </g>
            <g id="Grupo_29234" data-name="Grupo 29234" transform="translate(2.13)" opacity="0.3">
              <path id="Trazado_69055" data-name="Trazado 69055" d="M254.848,287.585l-1.256,2.519,22.691,1.778a53.316,53.316,0,0,1,3.322-4.3Z" transform="translate(-253.592 -287.585)"/>
            </g>
          </g>
          <g id="Grupo_29236" data-name="Grupo 29236" transform="translate(71.756 85.273)">
            <circle id="Elipse_3368" data-name="Elipse 3368" cx="2.806" cy="2.806" r="2.806" fill="#fafafa"/>
          </g>
          <g id="Grupo_29323" data-name="Grupo 29323" transform="translate(6.833 5.359)">
            <g id="Grupo_29240" data-name="Grupo 29240">
              <g id="Grupo_29237" data-name="Grupo 29237" transform="translate(0.265 0.265)">
                <rect id="Rectángulo_26591" data-name="Rectángulo 26591" width="128.875" height="74.171" fill="#fafafa"/>
              </g>
              <g id="Grupo_29239" data-name="Grupo 29239">
                <g id="Grupo_29238" data-name="Grupo 29238">
                  <path id="Trazado_69056" data-name="Trazado 69056" d="M332.624,271.531s-.015-.461-.022-1.34-.012-2.187-.022-3.884c-.012-3.413-.03-8.418-.052-14.844-.025-12.847-.062-31.364-.108-54.1l.2.2-128.865.06h-.01l.266-.265c-.007,26.247-.013,51.329-.018,74.17l-.247-.246,92.687.12,26.622.066,7.1.031,1.835.015c.414.005.632.014.632.014s-.2.01-.6.015l-1.808.014-7.049.031-26.565.067-92.851.12H203.5v-.247c-.006-22.841-.012-47.924-.018-74.17V197.1h.275l128.865.06h.2v.2c-.046,22.791-.083,41.351-.108,54.227-.022,6.407-.04,11.4-.052,14.8-.01,1.68-.017,2.967-.022,3.847C332.638,271.1,332.624,271.531,332.624,271.531Z" transform="translate(-203.483 -197.096)" fill="#263238"/>
                </g>
              </g>
            </g>
            <g id="Grupo_29322" data-name="Grupo 29322" transform="translate(1.55 1.921)">
              <g id="Grupo_29266" data-name="Grupo 29266" transform="translate(0.16 4.624)">
                <g id="Grupo_29241" data-name="Grupo 29241">
                  <rect id="Rectángulo_26592" data-name="Rectángulo 26592" width="30.331" height="66.076" fill="#5b9dbb"/>
                </g>
                <g id="Grupo_29242" data-name="Grupo 29242" transform="translate(0 25.008)" opacity="0.4">
                  <rect id="Rectángulo_26593" data-name="Rectángulo 26593" width="30.318" height="5.915"/>
                </g>
                <g id="Grupo_29243" data-name="Grupo 29243" transform="translate(0 37.085)" opacity="0.4">
                  <rect id="Rectángulo_26594" data-name="Rectángulo 26594" width="30.318" height="5.915"/>
                </g>
                <g id="Grupo_29244" data-name="Grupo 29244" transform="translate(0 51.509)" opacity="0.4">
                  <rect id="Rectángulo_26595" data-name="Rectángulo 26595" width="30.318" height="6.541"/>
                </g>
                <g id="Grupo_29246" data-name="Grupo 29246" transform="translate(5.552 33.76)">
                  <g id="Grupo_29245" data-name="Grupo 29245">
                    <path id="Trazado_69057" data-name="Trazado 69057" d="M230.118,236.936a90.225,90.225,0,0,1-9.752.265,90.205,90.205,0,0,1-9.753-.265,89.7,89.7,0,0,1,9.753-.266A89.718,89.718,0,0,1,230.118,236.936Z" transform="translate(-210.613 -236.67)" fill="#263238"/>
                  </g>
                </g>
                <g id="Grupo_29248" data-name="Grupo 29248" transform="translate(5.552 27.588)">
                  <g id="Grupo_29247" data-name="Grupo 29247">
                    <path id="Trazado_69058" data-name="Trazado 69058" d="M230.118,230.875a89.9,89.9,0,0,1-9.752.265,89.882,89.882,0,0,1-9.753-.265,89.882,89.882,0,0,1,9.753-.265A89.9,89.9,0,0,1,230.118,230.875Z" transform="translate(-210.613 -230.61)" fill="#263238"/>
                  </g>
                </g>
                <g id="Grupo_29250" data-name="Grupo 29250" transform="translate(0.277 57.786)">
                  <g id="Grupo_29249" data-name="Grupo 29249">
                    <path id="Trazado_69059" data-name="Trazado 69059" d="M235.487,260.525c0,.147-6.728.266-15.025.266s-15.027-.119-15.027-.266,6.727-.265,15.027-.265S235.487,260.378,235.487,260.525Z" transform="translate(-205.434 -260.26)" fill="#263238"/>
                  </g>
                </g>
                <g id="Grupo_29252" data-name="Grupo 29252" transform="translate(5.552 39.993)">
                  <g id="Grupo_29251" data-name="Grupo 29251">
                    <path id="Trazado_69060" data-name="Trazado 69060" d="M225.5,243.055a52.357,52.357,0,0,1-7.443.266,52.345,52.345,0,0,1-7.443-.266,52.631,52.631,0,0,1,7.443-.265A52.643,52.643,0,0,1,225.5,243.055Z" transform="translate(-210.613 -242.79)" fill="#263238"/>
                  </g>
                </g>
                <g id="Grupo_29254" data-name="Grupo 29254" transform="translate(7.65 53.805)">
                  <g id="Grupo_29253" data-name="Grupo 29253">
                    <path id="Trazado_69061" data-name="Trazado 69061" d="M227.56,256.617a52.469,52.469,0,0,1-7.443.265,52.467,52.467,0,0,1-7.444-.265,52.464,52.464,0,0,1,7.444-.265A52.466,52.466,0,0,1,227.56,256.617Z" transform="translate(-212.673 -256.352)" fill="#263238"/>
                  </g>
                </g>
                <g id="Grupo_29256" data-name="Grupo 29256" transform="translate(5.552 46.824)">
                  <g id="Grupo_29255" data-name="Grupo 29255">
                    <path id="Trazado_69062" data-name="Trazado 69062" d="M230.118,249.762a89.732,89.732,0,0,1-9.752.266,89.713,89.713,0,0,1-9.753-.266,89.876,89.876,0,0,1,9.753-.265A89.9,89.9,0,0,1,230.118,249.762Z" transform="translate(-210.613 -249.497)" fill="#263238"/>
                  </g>
                </g>
                <g id="Grupo_29258" data-name="Grupo 29258" transform="translate(5.552 61.658)">
                  <g id="Grupo_29257" data-name="Grupo 29257">
                    <path id="Trazado_69063" data-name="Trazado 69063" d="M230.118,264.327a89.886,89.886,0,0,1-9.752.265,89.867,89.867,0,0,1-9.753-.265,89.9,89.9,0,0,1,9.753-.265A89.915,89.915,0,0,1,230.118,264.327Z" transform="translate(-210.613 -264.062)" fill="#263238"/>
                  </g>
                </g>
                <g id="Grupo_29265" data-name="Grupo 29265" transform="translate(7.312 4.235)">
                  <g id="Grupo_29262" data-name="Grupo 29262" transform="translate(0.219 0.222)">
                    <g id="Grupo_29259" data-name="Grupo 29259">
                      <path id="Trazado_69064" data-name="Trazado 69064" d="M219.78,207.9a7.22,7.22,0,0,0-3.26,13.664v-2.209a3.4,3.4,0,1,1,6.8,0v2.058A7.221,7.221,0,0,0,219.78,207.9Zm.143,7.534a2.546,2.546,0,1,1,2.546-2.545A2.546,2.546,0,0,1,219.923,215.432Z" transform="translate(-212.556 -207.898)" fill="#fafafa"/>
                    </g>
                    <g id="Grupo_29260" data-name="Grupo 29260" transform="translate(3.964 8.052)">
                      <path id="Trazado_69065" data-name="Trazado 69065" d="M219.851,215.8a3.4,3.4,0,0,0-3.4,3.4v2.209a7.185,7.185,0,0,0,6.8-.151v-2.058A3.4,3.4,0,0,0,219.851,215.8Z" transform="translate(-216.448 -215.804)" fill="#263238"/>
                    </g>
                    <g id="Grupo_29261" data-name="Grupo 29261" transform="translate(4.82 2.442)">
                      <path id="Trazado_69066" data-name="Trazado 69066" d="M219.835,210.3a2.546,2.546,0,1,0,2.546,2.546A2.546,2.546,0,0,0,219.835,210.3Z" transform="translate(-217.289 -210.296)" fill="#263238"/>
                    </g>
                  </g>
                  <g id="Grupo_29264" data-name="Grupo 29264">
                    <g id="Grupo_29263" data-name="Grupo 29263">
                      <path id="Trazado_69067" data-name="Trazado 69067" d="M227.053,215.125c-.059,0-.031-.644-.326-1.739a7.207,7.207,0,0,0-2.641-3.854,7.019,7.019,0,0,0-6.633-.961,6.9,6.9,0,0,0-3.231,2.438,6.949,6.949,0,0,0,0,8.231,6.914,6.914,0,0,0,3.232,2.439,7.016,7.016,0,0,0,6.634-.962,7.192,7.192,0,0,0,2.64-3.854c.3-1.095.267-1.742.326-1.739a1.523,1.523,0,0,1,.031.464,5.656,5.656,0,0,1-.156,1.325,7.184,7.184,0,0,1-2.613,4.1,7.317,7.317,0,0,1-3.11,1.422,7.446,7.446,0,0,1-3.918-.3,7.364,7.364,0,0,1-3.483-2.592,7.422,7.422,0,0,1,0-8.846,7.354,7.354,0,0,1,3.482-2.591,7.442,7.442,0,0,1,3.917-.3,7.32,7.32,0,0,1,3.111,1.421,7.2,7.2,0,0,1,2.613,4.1,5.651,5.651,0,0,1,.156,1.325A1.512,1.512,0,0,1,227.053,215.125Z" transform="translate(-212.341 -207.68)" fill="#fafafa"/>
                    </g>
                  </g>
                </g>
              </g>
              <g id="Grupo_29267" data-name="Grupo 29267" transform="translate(30.491 26.731)">
                <rect id="Rectángulo_26596" data-name="Rectángulo 26596" width="94.973" height="8.886" fill="#ebebeb"/>
              </g>
              <g id="Grupo_29268" data-name="Grupo 29268" transform="translate(30.491 4.624)">
                <rect id="Rectángulo_26597" data-name="Rectángulo 26597" width="94.973" height="4.457" fill="#f5f5f5"/>
              </g>
              <g id="Grupo_29269" data-name="Grupo 29269" transform="translate(33.117 5.958)">
                <rect id="Rectángulo_26598" data-name="Rectángulo 26598" width="65.599" height="1.745" rx="0.72" fill="#e0e0e0"/>
              </g>
              <g id="Grupo_29275" data-name="Grupo 29275" transform="translate(102.143 5.833)">
                <g id="Grupo_29270" data-name="Grupo 29270" transform="translate(0 0.125)">
                  <rect id="Rectángulo_26599" data-name="Rectángulo 26599" width="5.732" height="1.745" rx="0.72" fill="#e0e0e0"/>
                </g>
                <g id="Grupo_29271" data-name="Grupo 29271" transform="translate(8.776)">
                  <rect id="Rectángulo_26600" data-name="Rectángulo 26600" width="0.718" height="0.718" fill="#e0e0e0"/>
                </g>
                <g id="Grupo_29272" data-name="Grupo 29272" transform="translate(8.776 0.952)">
                  <rect id="Rectángulo_26601" data-name="Rectángulo 26601" width="0.718" height="0.718" fill="#e0e0e0"/>
                </g>
                <g id="Grupo_29273" data-name="Grupo 29273" transform="translate(9.893)">
                  <rect id="Rectángulo_26602" data-name="Rectángulo 26602" width="0.718" height="0.718" fill="#e0e0e0"/>
                </g>
                <g id="Grupo_29274" data-name="Grupo 29274" transform="translate(9.893 0.952)">
                  <rect id="Rectángulo_26603" data-name="Rectángulo 26603" width="0.718" height="0.718" fill="#e0e0e0"/>
                </g>
              </g>
              <g id="Grupo_29276" data-name="Grupo 29276" transform="translate(30.491 9.08)">
                <rect id="Rectángulo_26604" data-name="Rectángulo 26604" width="94.973" height="8.886" fill="#e0e0e0"/>
              </g>
              <g id="Grupo_29277" data-name="Grupo 29277" transform="translate(33.117 11.981)">
                <rect id="Rectángulo_26605" data-name="Rectángulo 26605" width="2.689" height="2.689" fill="#263238"/>
              </g>
              <g id="Grupo_29279" data-name="Grupo 29279" transform="translate(38.409 13.053)">
                <g id="Grupo_29278" data-name="Grupo 29278">
                  <path id="Trazado_69068" data-name="Trazado 69068" d="M281.655,212.063c0,.147-8.717.265-19.468.265s-19.469-.118-19.469-.265,8.715-.265,19.469-.265S281.655,211.916,281.655,212.063Z" transform="translate(-242.718 -211.798)" fill="#263238"/>
                </g>
              </g>
              <g id="Grupo_29281" data-name="Grupo 29281" transform="translate(109.65 12.979)">
                <g id="Grupo_29280" data-name="Grupo 29280">
                  <path id="Trazado_69069" data-name="Trazado 69069" d="M317.055,211.991a9.185,9.185,0,0,1-4.388,0,9.22,9.22,0,0,1,4.388,0Z" transform="translate(-312.668 -211.726)" fill="#263238"/>
                </g>
              </g>
              <g id="Grupo_29282" data-name="Grupo 29282" transform="translate(30.491 35.546)">
                <rect id="Rectángulo_26606" data-name="Rectángulo 26606" width="94.973" height="8.886" fill="#fafafa"/>
              </g>
              <g id="Grupo_29283" data-name="Grupo 29283" transform="translate(32.756 38.447)">
                <rect id="Rectángulo_26607" data-name="Rectángulo 26607" width="2.714" height="2.689" fill="#263238"/>
              </g>
              <g id="Grupo_29285" data-name="Grupo 29285" transform="translate(38.099 39.518)">
                <g id="Grupo_29284" data-name="Grupo 29284">
                  <path id="Trazado_69070" data-name="Trazado 69070" d="M281.723,238.049c0,.147-8.8.266-19.654.266s-19.655-.119-19.655-.266,8.8-.265,19.655-.265S281.723,237.9,281.723,238.049Z" transform="translate(-242.413 -237.784)" fill="#263238"/>
                </g>
              </g>
              <g id="Grupo_29287" data-name="Grupo 29287" transform="translate(110.022 39.445)">
                <g id="Grupo_29286" data-name="Grupo 29286">
                  <path id="Trazado_69071" data-name="Trazado 69071" d="M317.462,237.977a9.36,9.36,0,0,1-4.429,0,9.392,9.392,0,0,1,4.429,0Z" transform="translate(-313.033 -237.712)" fill="#263238"/>
                </g>
              </g>
              <g id="Grupo_29288" data-name="Grupo 29288" transform="translate(30.491 44.302)">
                <rect id="Rectángulo_26608" data-name="Rectángulo 26608" width="94.973" height="8.886" fill="#e0e0e0"/>
              </g>
              <g id="Grupo_29289" data-name="Grupo 29289" transform="translate(32.756 47.203)">
                <rect id="Rectángulo_26609" data-name="Rectángulo 26609" width="2.714" height="2.689" fill="#263238"/>
              </g>
              <g id="Grupo_29291" data-name="Grupo 29291" transform="translate(38.099 48.274)">
                <g id="Grupo_29290" data-name="Grupo 29290">
                  <path id="Trazado_69072" data-name="Trazado 69072" d="M281.723,246.646c0,.147-8.8.266-19.654.266s-19.655-.119-19.655-.266,8.8-.265,19.655-.265S281.723,246.5,281.723,246.646Z" transform="translate(-242.413 -246.381)" fill="#263238"/>
                </g>
              </g>
              <g id="Grupo_29293" data-name="Grupo 29293" transform="translate(110.022 48.201)">
                <g id="Grupo_29292" data-name="Grupo 29292">
                  <path id="Trazado_69073" data-name="Trazado 69073" d="M317.462,246.574a9.359,9.359,0,0,1-4.429,0,9.393,9.393,0,0,1,4.429,0Z" transform="translate(-313.033 -246.309)" fill="#263238"/>
                </g>
              </g>
              <g id="Grupo_29294" data-name="Grupo 29294" transform="translate(30.491 53.058)">
                <rect id="Rectángulo_26610" data-name="Rectángulo 26610" width="94.973" height="8.886" fill="#fafafa"/>
              </g>
              <g id="Grupo_29295" data-name="Grupo 29295" transform="translate(32.756 55.959)">
                <rect id="Rectángulo_26611" data-name="Rectángulo 26611" width="2.714" height="2.689" fill="#263238"/>
              </g>
              <g id="Grupo_29297" data-name="Grupo 29297" transform="translate(38.099 57.03)">
                <g id="Grupo_29296" data-name="Grupo 29296">
                  <path id="Trazado_69074" data-name="Trazado 69074" d="M281.723,255.243c0,.147-8.8.266-19.654.266s-19.655-.119-19.655-.266,8.8-.265,19.655-.265S281.723,255.1,281.723,255.243Z" transform="translate(-242.413 -254.978)" fill="#263238"/>
                </g>
              </g>
              <g id="Grupo_29299" data-name="Grupo 29299" transform="translate(110.022 56.956)">
                <g id="Grupo_29298" data-name="Grupo 29298">
                  <path id="Trazado_69075" data-name="Trazado 69075" d="M317.462,255.172a9.4,9.4,0,0,1-4.429,0,9.357,9.357,0,0,1,4.429,0Z" transform="translate(-313.033 -254.906)" fill="#263238"/>
                </g>
              </g>
              <g id="Grupo_29300" data-name="Grupo 29300" transform="translate(30.491 61.814)">
                <rect id="Rectángulo_26612" data-name="Rectángulo 26612" width="94.973" height="8.886" fill="#ebebeb"/>
              </g>
              <g id="Grupo_29301" data-name="Grupo 29301" transform="translate(32.756 64.714)">
                <rect id="Rectángulo_26613" data-name="Rectángulo 26613" width="2.714" height="2.689" fill="#263238"/>
              </g>
              <g id="Grupo_29303" data-name="Grupo 29303" transform="translate(38.099 65.785)">
                <g id="Grupo_29302" data-name="Grupo 29302">
                  <path id="Trazado_69076" data-name="Trazado 69076" d="M281.723,263.84c0,.147-8.8.266-19.654.266s-19.655-.119-19.655-.266,8.8-.265,19.655-.265S281.723,263.694,281.723,263.84Z" transform="translate(-242.413 -263.575)" fill="#263238"/>
                </g>
              </g>
              <g id="Grupo_29305" data-name="Grupo 29305" transform="translate(110.022 65.712)">
                <g id="Grupo_29304" data-name="Grupo 29304">
                  <path id="Trazado_69077" data-name="Trazado 69077" d="M317.462,263.769a9.4,9.4,0,0,1-4.429,0,9.358,9.358,0,0,1,4.429,0Z" transform="translate(-313.033 -263.503)" fill="#263238"/>
                </g>
              </g>
              <g id="Grupo_29306" data-name="Grupo 29306" transform="translate(30.478 17.855)">
                <rect id="Rectángulo_26614" data-name="Rectángulo 26614" width="94.986" height="8.886" fill="#fafafa"/>
              </g>
              <g id="Grupo_29307" data-name="Grupo 29307" transform="translate(33.117 20.755)">
                <rect id="Rectángulo_26615" data-name="Rectángulo 26615" width="2.689" height="2.689" fill="#263238"/>
              </g>
              <g id="Grupo_29309" data-name="Grupo 29309" transform="translate(38.409 21.827)">
                <g id="Grupo_29308" data-name="Grupo 29308">
                  <path id="Trazado_69078" data-name="Trazado 69078" d="M265,220.678c0,.147-4.988.266-11.141.266s-11.142-.119-11.142-.266,4.987-.265,11.142-.265S265,220.531,265,220.678Z" transform="translate(-242.718 -220.413)" fill="#263238"/>
                </g>
              </g>
              <g id="Grupo_29311" data-name="Grupo 29311" transform="translate(109.65 22.083)">
                <g id="Grupo_29310" data-name="Grupo 29310">
                  <path id="Trazado_69079" data-name="Trazado 69079" d="M317.055,220.931a9.22,9.22,0,0,1-4.388,0,9.186,9.186,0,0,1,4.388,0Z" transform="translate(-312.668 -220.665)" fill="#263238"/>
                </g>
              </g>
              <g id="Grupo_29313" data-name="Grupo 29313" transform="translate(109.65 30.711)">
                <g id="Grupo_29312" data-name="Grupo 29312">
                  <path id="Trazado_69080" data-name="Trazado 69080" d="M317.055,229.4a9.22,9.22,0,0,1-4.388,0,9.186,9.186,0,0,1,4.388,0Z" transform="translate(-312.668 -229.136)" fill="#263238"/>
                </g>
              </g>
              <g id="Grupo_29314" data-name="Grupo 29314" transform="translate(33.117 29.632)">
                <rect id="Rectángulo_26616" data-name="Rectángulo 26616" width="2.689" height="2.689" fill="#263238"/>
              </g>
              <g id="Grupo_29316" data-name="Grupo 29316" transform="translate(38.409 30.703)">
                <g id="Grupo_29315" data-name="Grupo 29315">
                  <path id="Trazado_69081" data-name="Trazado 69081" d="M296.4,229.394c0,.146-12.019.265-26.842.265s-26.845-.119-26.845-.265,12.017-.266,26.845-.266S296.4,229.247,296.4,229.394Z" transform="translate(-242.718 -229.128)" fill="#263238"/>
                </g>
              </g>
              <g id="Grupo_29317" data-name="Grupo 29317" transform="translate(2.769 1.629)">
                <path id="Trazado_69082" data-name="Trazado 69082" d="M209.344,201.391a.81.81,0,1,1-.811-.81A.81.81,0,0,1,209.344,201.391Z" transform="translate(-207.724 -200.581)" fill="#263238"/>
              </g>
              <g id="Grupo_29318" data-name="Grupo 29318" transform="translate(5.927 1.629)">
                <path id="Trazado_69083" data-name="Trazado 69083" d="M212.445,201.391a.81.81,0,1,1-.811-.81A.811.811,0,0,1,212.445,201.391Z" transform="translate(-210.825 -200.581)" fill="#263238"/>
              </g>
              <g id="Grupo_29319" data-name="Grupo 29319" transform="translate(9.086 1.629)">
                <path id="Trazado_69084" data-name="Trazado 69084" d="M215.545,201.391a.81.81,0,1,1-.81-.81A.81.81,0,0,1,215.545,201.391Z" transform="translate(-213.926 -200.581)" fill="#263238"/>
              </g>
              <g id="Grupo_29321" data-name="Grupo 29321">
                <g id="Grupo_29320" data-name="Grupo 29320">
                  <path id="Trazado_69085" data-name="Trazado 69085" d="M330.469,269.681c0-1.626-.048-27.338-.122-70.541l.122.122-125.3.037h-.009l.159-.159c0,24.948-.007,48.806-.011,70.541l-.148-.148,125.3.148-125.3.149h-.149v-.149c0-21.735-.007-45.592-.011-70.541v-.159h.169l125.3.037h.122v.122C330.516,242.344,330.471,268.057,330.469,269.681Z" transform="translate(-205.005 -198.982)" fill="#263238"/>
                </g>
              </g>
            </g>
          </g>
        </g>
        <g id="Grupo_29332" data-name="Grupo 29332" transform="translate(0 115.19)">
          <g id="Grupo_29325" data-name="Grupo 29325" transform="translate(252.55 11.509)">
            <path id="Trazado_69086" data-name="Trazado 69086" d="M388.79,469.644h-7.659L364.046,316.237H374.1Z" transform="translate(-364.046 -316.237)" fill="#455a64"/>
          </g>
          <g id="Grupo_29326" data-name="Grupo 29326" transform="translate(203.992 11.509)">
            <path id="Trazado_69087" data-name="Trazado 69087" d="M341.241,469.644h-7.659L316.368,316.237h10.05Z" transform="translate(-316.368 -316.237)" fill="#455a64"/>
          </g>
          <g id="Grupo_29327" data-name="Grupo 29327" transform="translate(9.668 2.649)">
            <path id="Trazado_69088" data-name="Trazado 69088" d="M395.543,316.4H125.567v-8.86H395.543Z" transform="translate(-125.567 -307.537)" fill="#455a64"/>
          </g>
          <g id="Grupo_29328" data-name="Grupo 29328" transform="translate(65.703 11.509)">
            <path id="Trazado_69089" data-name="Trazado 69089" d="M180.586,469.644h7.659l16.433-153.407h-10.05Z" transform="translate(-180.586 -316.237)" fill="#263238"/>
          </g>
          <g id="Grupo_29329" data-name="Grupo 29329" transform="translate(0 11.509)">
            <path id="Trazado_69090" data-name="Trazado 69090" d="M116.074,469.644h7.659l17.2-153.407H130.88Z" transform="translate(-116.074 -316.237)" fill="#263238"/>
          </g>
          <g id="Grupo_29330" data-name="Grupo 29330" transform="translate(9.668 2.649)">
            <rect id="Rectángulo_26617" data-name="Rectángulo 26617" width="83.181" height="8.86" fill="#263238"/>
          </g>
          <g id="Grupo_29331" data-name="Grupo 29331" transform="translate(130.942)">
            <rect id="Rectángulo_26618" data-name="Rectángulo 26618" width="57.438" height="2.649" fill="#263238"/>
          </g>
        </g>
      </g>
      <g id="Character" transform="translate(283.373 194.804)">
        <g id="Grupo_29450" data-name="Grupo 29450">
          <g id="Grupo_29359" data-name="Grupo 29359" transform="translate(56.241 244.934)">
            <g id="Grupo_29358" data-name="Grupo 29358">
              <g id="Grupo_29334" data-name="Grupo 29334" transform="translate(0.06)">
                <g id="Grupo_29333" data-name="Grupo 29333">
                  <path id="Trazado_69091" data-name="Trazado 69091" d="M365.643,432.59l5.432,29.847-37.1,6.95c-.447-3.585,17.413-14.3,17.413-14.3l-4.265-18.981Z" transform="translate(-333.969 -432.59)" fill="#e8505b"/>
                </g>
              </g>
              <g id="Grupo_29337" data-name="Grupo 29337" transform="translate(27.061 18.723)" opacity="0.6">
                <g id="Grupo_29336" data-name="Grupo 29336">
                  <g id="Grupo_29335" data-name="Grupo 29335">
                    <path id="Trazado_69092" data-name="Trazado 69092" d="M362.071,451a1.541,1.541,0,0,1,1.372,1.533,1.482,1.482,0,0,1-1.507,1.373,1.626,1.626,0,0,1-1.444-1.63,1.536,1.536,0,0,1,1.726-1.254" transform="translate(-360.48 -450.974)" fill="#fff"/>
                  </g>
                </g>
              </g>
              <g id="Grupo_29339" data-name="Grupo 29339" transform="translate(0 26.86)" opacity="0.6">
                <g id="Grupo_29338" data-name="Grupo 29338">
                  <path id="Trazado_69093" data-name="Trazado 69093" d="M371.077,461.95l-.665-2.987-35.321,7.78s-1.517,1.029-1.112,2.157Z" transform="translate(-333.91 -458.963)" fill="#fff"/>
                </g>
              </g>
              <g id="Grupo_29342" data-name="Grupo 29342" transform="translate(16.841 22.106)">
                <g id="Grupo_29341" data-name="Grupo 29341">
                  <g id="Grupo_29340" data-name="Grupo 29340">
                    <path id="Trazado_69094" data-name="Trazado 69094" d="M350.449,454.615c.04.18.961.093,1.961.508,1.011.389,1.618,1.088,1.771.985.161-.066-.313-1.1-1.533-1.581S350.379,454.456,350.449,454.615Z" transform="translate(-350.446 -454.295)" fill="#263238"/>
                  </g>
                </g>
              </g>
              <g id="Grupo_29345" data-name="Grupo 29345" transform="translate(13.255 24.635)">
                <g id="Grupo_29344" data-name="Grupo 29344">
                  <g id="Grupo_29343" data-name="Grupo 29343">
                    <path id="Trazado_69095" data-name="Trazado 69095" d="M346.925,456.907c-.009.183.833.344,1.592.995.778.628,1.089,1.428,1.267,1.386.176,0,.1-1.088-.857-1.879S346.9,456.734,346.925,456.907Z" transform="translate(-346.924 -456.779)" fill="#263238"/>
                  </g>
                </g>
              </g>
              <g id="Grupo_29348" data-name="Grupo 29348" transform="translate(9.895 26.96)">
                <g id="Grupo_29347" data-name="Grupo 29347">
                  <g id="Grupo_29346" data-name="Grupo 29346">
                    <path id="Trazado_69096" data-name="Trazado 69096" d="M345.648,461.936c.172.008.255-.944-.4-1.849s-1.572-1.141-1.62-.976c-.075.168.574.6,1.1,1.348C345.27,461.2,345.464,461.952,345.648,461.936Z" transform="translate(-343.625 -459.062)" fill="#263238"/>
                  </g>
                </g>
              </g>
              <g id="Grupo_29351" data-name="Grupo 29351" transform="translate(16.341 16.948)">
                <g id="Grupo_29350" data-name="Grupo 29350">
                  <g id="Grupo_29349" data-name="Grupo 29349">
                    <path id="Trazado_69097" data-name="Trazado 69097" d="M349.966,450.275c.107.151.891-.255,1.928-.377,1.035-.144,1.9.051,1.961-.122.08-.151-.823-.675-2.042-.514S349.85,450.15,349.966,450.275Z" transform="translate(-349.954 -449.231)" fill="#263238"/>
                  </g>
                </g>
              </g>
              <g id="Grupo_29354" data-name="Grupo 29354" transform="translate(16.411 9.54)">
                <g id="Grupo_29353" data-name="Grupo 29353">
                  <g id="Grupo_29352" data-name="Grupo 29352">
                    <path id="Trazado_69098" data-name="Trazado 69098" d="M350.024,445.841a3.527,3.527,0,0,0,1.856-.357,8.423,8.423,0,0,0,1.832-.961,8.844,8.844,0,0,0,.961-.766,2.317,2.317,0,0,0,.479-.542.8.8,0,0,0-.1-.98,1.011,1.011,0,0,0-.871-.265,2.461,2.461,0,0,0-.679.226,6.875,6.875,0,0,0-1.081.613,6.65,6.65,0,0,0-1.5,1.445c-.712.958-.879,1.691-.81,1.714.093.044.405-.6,1.158-1.424a7.581,7.581,0,0,1,1.482-1.243,7.032,7.032,0,0,1,1.005-.529c.374-.177.708-.242.841-.087.049.06.059.086,0,.216a1.887,1.887,0,0,1-.352.4,9.919,9.919,0,0,1-.877.745,10.376,10.376,0,0,1-1.667,1.026A13.124,13.124,0,0,0,350.024,445.841Z" transform="translate(-350.024 -441.957)" fill="#263238"/>
                  </g>
                </g>
              </g>
              <g id="Grupo_29357" data-name="Grupo 29357" transform="translate(13.428 8.007)">
                <g id="Grupo_29356" data-name="Grupo 29356">
                  <g id="Grupo_29355" data-name="Grupo 29355">
                    <path id="Trazado_69099" data-name="Trazado 69099" d="M350.362,446.085a3.008,3.008,0,0,0,.154-1.886,6.121,6.121,0,0,0-1.319-3.027,1.563,1.563,0,0,0-1.361-.716.884.884,0,0,0-.679.664,2.6,2.6,0,0,0-.063.717,4.215,4.215,0,0,0,.233,1.252,4.344,4.344,0,0,0,1.153,1.77c.905.826,1.7.9,1.706.836.044-.1-.654-.333-1.381-1.153a4.347,4.347,0,0,1-.916-1.636,3.894,3.894,0,0,1-.167-1.081c-.015-.405.072-.751.228-.738.183-.038.553.2.764.487a6.369,6.369,0,0,1,.649.921,6.77,6.77,0,0,1,.707,1.787C350.326,445.361,350.258,446.076,350.362,446.085Z" transform="translate(-347.094 -440.452)" fill="#263238"/>
                  </g>
                </g>
              </g>
            </g>
          </g>
          <g id="Grupo_29386" data-name="Grupo 29386" transform="translate(13.487 249.745)">
            <g id="Grupo_29385" data-name="Grupo 29385">
              <g id="Grupo_29361" data-name="Grupo 29361" transform="translate(0.064)">
                <g id="Grupo_29360" data-name="Grupo 29360">
                  <path id="Trazado_69100" data-name="Trazado 69100" d="M323.177,437.314l5.829,29.772-37,7.441C291.508,470.949,309.224,460,309.224,460l-4.517-18.922Z" transform="translate(-291.993 -437.314)" fill="#e8505b"/>
                </g>
              </g>
              <g id="Grupo_29364" data-name="Grupo 29364" transform="translate(26.843 18.763)" opacity="0.6">
                <g id="Grupo_29363" data-name="Grupo 29363">
                  <g id="Grupo_29362" data-name="Grupo 29362">
                    <path id="Trazado_69101" data-name="Trazado 69101" d="M319.859,455.757a1.542,1.542,0,0,1,1.391,1.514,1.481,1.481,0,0,1-1.489,1.392,1.626,1.626,0,0,1-1.466-1.611,1.539,1.539,0,0,1,1.71-1.277" transform="translate(-318.287 -455.737)" fill="#fff"/>
                  </g>
                </g>
              </g>
              <g id="Grupo_29366" data-name="Grupo 29366" transform="translate(0 26.794)" opacity="0.6">
                <g id="Grupo_29365" data-name="Grupo 29365">
                  <path id="Trazado_69102" data-name="Trazado 69102" d="M329.007,466.6l-.7-2.978-35.214,8.249s-1.5,1.048-1.084,2.17Z" transform="translate(-291.93 -463.622)" fill="#fff"/>
                </g>
              </g>
              <g id="Grupo_29369" data-name="Grupo 29369" transform="translate(16.654 22.287)">
                <g id="Grupo_29368" data-name="Grupo 29368">
                  <g id="Grupo_29367" data-name="Grupo 29367">
                    <path id="Trazado_69103" data-name="Trazado 69103" d="M308.286,459.53c.043.18.962.08,1.969.483,1.016.376,1.632,1.066,1.783.96.16-.068-.327-1.094-1.553-1.559S308.214,459.372,308.286,459.53Z" transform="translate(-308.283 -459.197)" fill="#263238"/>
                  </g>
                </g>
              </g>
              <g id="Grupo_29372" data-name="Grupo 29372" transform="translate(13.098 24.872)">
                <g id="Grupo_29371" data-name="Grupo 29371">
                  <g id="Grupo_29370" data-name="Grupo 29370">
                    <path id="Trazado_69104" data-name="Trazado 69104" d="M304.792,461.869c-.006.183.839.333,1.606.974.786.618,1.107,1.414,1.285,1.37.176-.006.088-1.09-.881-1.868S304.761,461.7,304.792,461.869Z" transform="translate(-304.791 -461.735)" fill="#263238"/>
                  </g>
                </g>
              </g>
              <g id="Grupo_29375" data-name="Grupo 29375" transform="translate(9.769 27.245)">
                <g id="Grupo_29374" data-name="Grupo 29374">
                  <g id="Grupo_29373" data-name="Grupo 29373">
                    <path id="Trazado_69105" data-name="Trazado 69105" d="M303.582,466.915c.172.006.242-.948-.421-1.844s-1.588-1.12-1.634-.954c-.072.169.584.59,1.116,1.334C303.194,466.181,303.4,466.933,303.582,466.915Z" transform="translate(-301.523 -464.065)" fill="#263238"/>
                  </g>
                </g>
              </g>
              <g id="Grupo_29378" data-name="Grupo 29378" transform="translate(16.094 17.119)">
                <g id="Grupo_29377" data-name="Grupo 29377">
                  <g id="Grupo_29376" data-name="Grupo 29376">
                    <path id="Trazado_69106" data-name="Trazado 69106" d="M307.745,455.2c.109.15.888-.267,1.923-.4,1.033-.157,1.9.025,1.96-.148.078-.152-.832-.665-2.049-.488S307.628,455.073,307.745,455.2Z" transform="translate(-307.733 -454.123)" fill="#263238"/>
                  </g>
                </g>
              </g>
              <g id="Grupo_29381" data-name="Grupo 29381" transform="translate(16.105 9.684)">
                <g id="Grupo_29380" data-name="Grupo 29380">
                  <g id="Grupo_29379" data-name="Grupo 29379">
                    <path id="Trazado_69107" data-name="Trazado 69107" d="M307.744,450.764a3.532,3.532,0,0,0,1.851-.382,8.452,8.452,0,0,0,1.819-.986,8.837,8.837,0,0,0,.951-.778,2.33,2.33,0,0,0,.471-.549.8.8,0,0,0-.11-.978,1.011,1.011,0,0,0-.875-.254,2.455,2.455,0,0,0-.676.235,6.839,6.839,0,0,0-1.072.627,6.66,6.66,0,0,0-1.483,1.465c-.7.969-.857,1.7-.787,1.725.094.043.4-.607,1.14-1.439a7.53,7.53,0,0,1,1.466-1.264,7.086,7.086,0,0,1,1-.542c.371-.181.7-.252.839-.1.05.06.06.085,0,.216a1.852,1.852,0,0,1-.347.4,9.869,9.869,0,0,1-.867.756,10.413,10.413,0,0,1-1.653,1.048A12.935,12.935,0,0,0,307.744,450.764Z" transform="translate(-307.743 -446.823)" fill="#263238"/>
                  </g>
                </g>
              </g>
              <g id="Grupo_29384" data-name="Grupo 29384" transform="translate(13.066 8.238)">
                <g id="Grupo_29383" data-name="Grupo 29383">
                  <g id="Grupo_29382" data-name="Grupo 29382">
                    <path id="Trazado_69108" data-name="Trazado 69108" d="M308.086,451a3.017,3.017,0,0,0,.128-1.888,6.133,6.133,0,0,0-1.359-3.008,1.564,1.564,0,0,0-1.371-.7.884.884,0,0,0-.67.672,2.573,2.573,0,0,0-.053.718,4.19,4.19,0,0,0,.25,1.249,4.349,4.349,0,0,0,1.176,1.755c.916.814,1.713.878,1.716.814.043-.1-.658-.325-1.4-1.136a4.346,4.346,0,0,1-.936-1.623,3.858,3.858,0,0,1-.181-1.078c-.021-.405.062-.752.217-.741.183-.04.556.193.771.477a6.3,6.3,0,0,1,.661.913,6.757,6.757,0,0,1,.73,1.777C308.039,450.279,307.982,450.994,308.086,451Z" transform="translate(-304.76 -445.402)" fill="#263238"/>
                  </g>
                </g>
              </g>
            </g>
          </g>
          <g id="Grupo_29391" data-name="Grupo 29391" transform="translate(7.563 148.629)">
            <g id="Grupo_29387" data-name="Grupo 29387" transform="translate(44.015)">
              <path id="Trazado_69109" data-name="Trazado 69109" d="M344.081,445.1l-14.389-80.111a22.911,22.911,0,0,1,.992-11.8h0a22.906,22.906,0,0,1,21.553-15.151h50.756l33.166,14.7h0a20.561,20.561,0,0,1-22.169,20.5l-54.163-4.25,7.8,72.564Z" transform="translate(-329.332 -338.031)" fill="#263238"/>
            </g>
            <g id="Grupo_29388" data-name="Grupo 29388">
              <path id="Trazado_69110" data-name="Trazado 69110" d="M302.9,449.339l-16.42-84.353a22.888,22.888,0,0,1,.992-11.8h0a22.9,22.9,0,0,1,21.552-15.151h50.756l33.166,14.7v22.236l-76.331-5.989,10,74.96Z" transform="translate(-286.114 -338.031)" fill="#263238"/>
            </g>
            <g id="Grupo_29390" data-name="Grupo 29390" transform="translate(18.942 22.622)">
              <g id="Grupo_29389" data-name="Grupo 29389">
                <path id="Trazado_69111" data-name="Trazado 69111" d="M326.266,443.528a5.865,5.865,0,0,1-.174-.9q-.145-.956-.4-2.589c-.327-2.3-.789-5.546-1.357-9.534-1.1-8.1-2.61-19.209-4.278-31.481-1.544-11.786-2.947-22.5-3.986-30.433l.085.134c-3.636-2.5-6.4-4.739-8.385-6.2l-2.276-1.686a7.079,7.079,0,0,1-.786-.6.826.826,0,0,1,.224.117l.625.392c.545.353,1.336.891,2.339,1.6,2.021,1.408,4.833,3.605,8.473,6.05l.072.049.012.087,4.129,30.414c1.607,12.281,3.063,23.4,4.124,31.5.5,4,.9,7.25,1.19,9.556q.186,1.641.3,2.6A5.9,5.9,0,0,1,326.266,443.528Z" transform="translate(-304.713 -360.243)" fill="#455a64"/>
              </g>
            </g>
          </g>
          <g id="Grupo_29392" data-name="Grupo 29392" transform="translate(0 103.284)">
            <path id="Trazado_69112" data-name="Trazado 69112" d="M278.688,305.335l3.6-6.748a2.165,2.165,0,0,1,1.9-.954l1.609.076,2.741-2.557h3.2l2.463-1.645,9.5,1.827,7.816,2.1-4.45,8.835-4.462-.941-7.49-.128a8.42,8.42,0,0,1-5.777-2.432h0a7.114,7.114,0,0,0-5-2.055h0S281.981,305.972,278.688,305.335Z" transform="translate(-278.688 -293.507)" fill="#ffbe9d"/>
          </g>
          <g id="Grupo_29396" data-name="Grupo 29396" transform="translate(69.877)">
            <g id="Grupo_29395" data-name="Grupo 29395">
              <g id="Grupo_29393" data-name="Grupo 29393" transform="translate(6.666 7.53)">
                <path id="Trazado_69113" data-name="Trazado 69113" d="M385.523,205.492l.15,48.769-20.923,1-.6-11.862s-7.431,1.475-9.348-5.426c-1.225-4.409-.919-38.482-.919-38.482Z" transform="translate(-353.844 -199.489)" fill="#ffbe9d"/>
              </g>
              <g id="Grupo_29394" data-name="Grupo 29394">
                <path id="Trazado_69114" data-name="Trazado 69114" d="M386.012,243.823c2.227-2.315,3.255-5.535,3.775-8.7s.607-6.407,1.3-9.543c.73-3.294,2.12-6.414,2.829-9.712s.643-6.991-1.311-9.741c0,0-1.289-3.778-6.816-4.086,0,0-4.692-7.6-11.625-6.933-9.425.9-9.681-1.871-16.174-2.894-6.069-.957-7.2,4.456-7.2,4.456s-3.336,2.477-3.49,6.045l0,.1a8.226,8.226,0,0,0,5.623,8.04q.629.212,1.26.414a7.969,7.969,0,0,1,3.308,1.663c1.313,1.308,1.527,3.344,1.459,5.2s-.332,3.767.294,5.511c.214.595.724,1.247,1.334,1.084.728-.193.7-1.206.766-1.955.208-2.184,3.013-3.842,4.986-2.244a3.338,3.338,0,0,1,1,4.063c-.731,1.536-2.331,2.737-2.642,4.439-.522,2.867,2.843,5.375,4.125,6.934a11.605,11.605,0,0,0,1.468,1.541c2.775,2.337,5.5,5.57,9.151,6.834,2.449.847,5.428.631,7.29-1.17" transform="translate(-347.298 -192.096)" fill="#263238"/>
              </g>
            </g>
          </g>
          <g id="Grupo_29436" data-name="Grupo 29436" transform="translate(25.235 54.121)">
            <g id="Grupo_29397" data-name="Grupo 29397" transform="translate(55.434 4.997)">
              <path id="Trazado_69115" data-name="Trazado 69115" d="M361.008,251.966c-4.614,3.294-2.716,12.134-2.779,16.771-.139,10.352.844,20.063,1.386,21.688.791,2.374,3.659,22.6,3.659,22.6l-4.824,26.627s6.232,15.9,33.166,15.742l13.423-3.206a13.937,13.937,0,0,0,10.649-14.742l-3.054-35.758-4.068-29.021c-1.064-15.227-10.6-23.329-22.79-22.463Z" transform="translate(-357.895 -250.142)" fill="#e8505b"/>
            </g>
            <g id="Grupo_29399" data-name="Grupo 29399" transform="translate(68.571 35.872)" opacity="0.5">
              <g id="Grupo_29398" data-name="Grupo 29398">
                <path id="Trazado_69116" data-name="Trazado 69116" d="M371.826,351.36c-2.947-1.533,1.012-31.3,4.455-46.55,1.341-5.944,3.125-12.09,7.348-16.483a24.82,24.82,0,0,1,12.584-6.559,63.805,63.805,0,0,1,13.286-1.311l4.225,67.768S384.508,357.955,371.826,351.36Z" transform="translate(-370.794 -280.458)"/>
              </g>
            </g>
            <g id="Grupo_29400" data-name="Grupo 29400" transform="translate(0 6.821)">
              <path id="Trazado_69117" data-name="Trazado 69117" d="M362.013,251.933a18.269,18.269,0,0,0-13.094,10.126c-3.395,7.04-18.233,36.345-18.233,36.345L308,296.891l-4.535,10.349,31.128,8.346h0c6.411,1.228,12.015-2.684,15.176-8.467l13.035-23.85Z" transform="translate(-303.466 -251.933)" fill="#e8505b"/>
            </g>
            <g id="Grupo_29401" data-name="Grupo 29401" transform="translate(60.605)">
              <path id="Trazado_69118" data-name="Trazado 69118" d="M363.181,252.057s-.57-5.182.177-6.071,23.252-.74,23.252-.74l1.184,5.941-2.505,4.444-21.407,1.862Z" transform="translate(-362.973 -245.236)" fill="#e8505b"/>
            </g>
            <g id="Grupo_29403" data-name="Grupo 29403" transform="translate(27.513 53.641)">
              <g id="Grupo_29402" data-name="Grupo 29402">
                <path id="Trazado_69119" data-name="Trazado 69119" d="M332.885,302.667a7.016,7.016,0,0,1-2.361-4.762,457.107,457.107,0,0,1,2.361,4.762Z" transform="translate(-330.48 -297.904)" fill="#263238"/>
              </g>
            </g>
            <g id="Grupo_29405" data-name="Grupo 29405" transform="translate(55.214 30.056)">
              <g id="Grupo_29404" data-name="Grupo 29404">
                <path id="Trazado_69120" data-name="Trazado 69120" d="M364.879,274.748a71.645,71.645,0,0,1-3.355,8.04,71.549,71.549,0,0,1-3.838,7.821,71.617,71.617,0,0,1,3.355-8.04A71.8,71.8,0,0,1,364.879,274.748Z" transform="translate(-357.679 -274.747)" fill="#263238"/>
              </g>
            </g>
            <g id="Grupo_29407" data-name="Grupo 29407" transform="translate(60.812 5.003)">
              <g id="Grupo_29406" data-name="Grupo 29406">
                <path id="Trazado_69121" data-name="Trazado 69121" d="M387.6,250.148a1.31,1.31,0,0,1,.133.712,1.717,1.717,0,0,1-1.193,1.624l-.01,0-.027,0c-2.358.148-6.15.324-10.418.476-3.63.128-6.89.215-9.3.253a6.454,6.454,0,0,1-2.788-.606,2.039,2.039,0,0,1-.825-.646c.03-.038.313.207.911.458a6.957,6.957,0,0,0,2.705.418c2.342-.13,5.647-.278,9.269-.406,4.275-.153,8.075-.246,10.436-.267l-.037.006a1.544,1.544,0,0,0,1.1-1.328C387.614,250.4,387.561,250.153,387.6,250.148Z" transform="translate(-363.176 -250.148)" fill="#263238"/>
              </g>
            </g>
            <g id="Grupo_29409" data-name="Grupo 29409" transform="translate(27.387 13.342)">
              <g id="Grupo_29408" data-name="Grupo 29408">
                <path id="Trazado_69122" data-name="Trazado 69122" d="M350.747,258.336c.13.067-4.328,8.94-9.957,19.814s-10.3,19.64-10.43,19.573,4.327-8.938,9.958-19.816S350.617,258.269,350.747,258.336Z" transform="translate(-330.356 -258.336)" fill="#263238"/>
              </g>
            </g>
            <g id="Grupo_29411" data-name="Grupo 29411" transform="translate(51.344 19.838)">
              <g id="Grupo_29410" data-name="Grupo 29410">
                <path id="Trazado_69123" data-name="Trazado 69123" d="M358.845,264.738c0-.03.2-.057.526.081a1.8,1.8,0,0,1,.972,1.1,1.889,1.889,0,0,1-.725,2.055,2.141,2.141,0,0,1-1.3.366c-.453,0-.888-.087-1.312-.117a2.493,2.493,0,0,0-2.072.758,2.394,2.394,0,0,0-.671,1.7,4.144,4.144,0,0,0,.533,1.718c-.007.057-.762-.42-.906-1.7a2.688,2.688,0,0,1,.686-2.055,2.917,2.917,0,0,1,2.469-.954c.918.093,1.738.276,2.29-.12a1.514,1.514,0,0,0,.644-1.555,1.724,1.724,0,0,0-.71-1.014C359.015,264.825,358.836,264.78,358.845,264.738Z" transform="translate(-353.879 -264.714)" fill="#fafafa"/>
              </g>
            </g>
            <g id="Grupo_29413" data-name="Grupo 29413" transform="translate(81.416 20.17)">
              <g id="Grupo_29412" data-name="Grupo 29412">
                <path id="Trazado_69124" data-name="Trazado 69124" d="M388.372,265.064c0-.03.2-.057.525.081a1.8,1.8,0,0,1,.972,1.1,1.888,1.888,0,0,1-.725,2.055,2.141,2.141,0,0,1-1.3.366c-.452,0-.888-.087-1.312-.117a2.49,2.49,0,0,0-2.071.758,2.391,2.391,0,0,0-.672,1.7,4.147,4.147,0,0,0,.533,1.718c-.007.057-.762-.42-.906-1.7a2.684,2.684,0,0,1,.687-2.055,2.913,2.913,0,0,1,2.468-.954c.918.093,1.737.276,2.289-.12a1.515,1.515,0,0,0,.644-1.555,1.724,1.724,0,0,0-.71-1.014C388.543,265.151,388.363,265.106,388.372,265.064Z" transform="translate(-383.406 -265.04)" fill="#fafafa"/>
              </g>
            </g>
            <g id="Grupo_29415" data-name="Grupo 29415" transform="translate(79.545 35.674)">
              <g id="Grupo_29414" data-name="Grupo 29414">
                <path id="Trazado_69125" data-name="Trazado 69125" d="M388.041,286.529c.027.009.007.21-.2.49a1.793,1.793,0,0,1-1.3.681,1.887,1.887,0,0,1-1.822-1.2,2.14,2.14,0,0,1-.045-1.345c.111-.439.3-.842.428-1.246a2.492,2.492,0,0,0-.24-2.193,2.383,2.383,0,0,0-1.493-1.059,4.167,4.167,0,0,0-1.8.1,2.014,2.014,0,0,1,1.866-.474,2.693,2.693,0,0,1,1.831,1.159,2.919,2.919,0,0,1,.336,2.626c-.311.869-.684,1.621-.432,2.252a1.515,1.515,0,0,0,1.357,1,1.729,1.729,0,0,0,1.155-.446C387.916,286.673,388,286.509,388.041,286.529Z" transform="translate(-381.569 -280.264)" fill="#fafafa"/>
              </g>
            </g>
            <g id="Grupo_29417" data-name="Grupo 29417" transform="translate(66.36 66.518)">
              <g id="Grupo_29416" data-name="Grupo 29416">
                <path id="Trazado_69126" data-name="Trazado 69126" d="M375.1,316.814c.027.009.006.21-.206.491a1.8,1.8,0,0,1-1.3.681,1.892,1.892,0,0,1-1.822-1.2,2.143,2.143,0,0,1-.045-1.346c.112-.439.3-.841.428-1.246a2.489,2.489,0,0,0-.239-2.193,2.393,2.393,0,0,0-1.494-1.059,4.135,4.135,0,0,0-1.795.106,2.01,2.01,0,0,1,1.866-.475,2.692,2.692,0,0,1,1.831,1.16,2.916,2.916,0,0,1,.336,2.624c-.311.869-.684,1.621-.432,2.252a1.518,1.518,0,0,0,1.356,1,1.73,1.73,0,0,0,1.155-.447C374.97,316.958,375.057,316.8,375.1,316.814Z" transform="translate(-368.623 -310.549)" fill="#fafafa"/>
              </g>
            </g>
            <g id="Grupo_29419" data-name="Grupo 29419" transform="translate(94.89 27.643)">
              <g id="Grupo_29418" data-name="Grupo 29418">
                <path id="Trazado_69127" data-name="Trazado 69127" d="M401.6,272.4c0-.029.2-.056.526.081a1.8,1.8,0,0,1,.972,1.1,1.89,1.89,0,0,1-.725,2.056,2.15,2.15,0,0,1-1.3.366c-.453,0-.888-.087-1.312-.117a2.49,2.49,0,0,0-2.072.758,2.392,2.392,0,0,0-.671,1.7,4.155,4.155,0,0,0,.533,1.718c-.007.056-.762-.421-.906-1.7a2.687,2.687,0,0,1,.686-2.055,2.921,2.921,0,0,1,2.469-.955c.918.094,1.738.276,2.289-.12a1.514,1.514,0,0,0,.644-1.555,1.727,1.727,0,0,0-.71-1.014C401.772,272.489,401.593,272.444,401.6,272.4Z" transform="translate(-396.636 -272.378)" fill="#fafafa"/>
              </g>
            </g>
            <g id="Grupo_29421" data-name="Grupo 29421" transform="translate(68.235 52.499)">
              <g id="Grupo_29420" data-name="Grupo 29420">
                <path id="Trazado_69128" data-name="Trazado 69128" d="M370.681,299.272c-.026.013-.154-.143-.2-.491a1.794,1.794,0,0,1,.432-1.4,1.888,1.888,0,0,1,2.134-.446,2.14,2.14,0,0,1,.986.918c.232.389.386.8.581,1.182a2.487,2.487,0,0,0,1.722,1.377,2.387,2.387,0,0,0,1.8-.31,4.167,4.167,0,0,0,1.193-1.346c.052-.023.036.869-.982,1.656a2.692,2.692,0,0,1-2.113.48,2.919,2.919,0,0,1-2.1-1.615c-.4-.833-.666-1.628-1.291-1.894a1.513,1.513,0,0,0-1.663.256,1.727,1.727,0,0,0-.5,1.134C370.667,299.082,370.721,299.258,370.681,299.272Z" transform="translate(-370.464 -296.783)" fill="#fafafa"/>
              </g>
            </g>
            <g id="Grupo_29423" data-name="Grupo 29423" transform="translate(64.964 34.522)">
              <g id="Grupo_29422" data-name="Grupo 29422">
                <path id="Trazado_69129" data-name="Trazado 69129" d="M372.219,279.156c0-.03.2-.057.526.081a1.8,1.8,0,0,1,.972,1.1,1.89,1.89,0,0,1-.725,2.055,2.151,2.151,0,0,1-1.3.367c-.453,0-.888-.088-1.312-.118a2.491,2.491,0,0,0-2.072.759,2.391,2.391,0,0,0-.671,1.7,4.147,4.147,0,0,0,.533,1.718c-.007.057-.762-.42-.907-1.7a2.694,2.694,0,0,1,.687-2.055,2.92,2.92,0,0,1,2.469-.954c.918.094,1.737.276,2.289-.12a1.516,1.516,0,0,0,.644-1.555,1.728,1.728,0,0,0-.71-1.014C372.389,279.244,372.21,279.2,372.219,279.156Z" transform="translate(-367.253 -279.132)" fill="#fafafa"/>
              </g>
            </g>
            <g id="Grupo_29425" data-name="Grupo 29425" transform="translate(64.352 82.896)">
              <g id="Grupo_29424" data-name="Grupo 29424">
                <path id="Trazado_69130" data-name="Trazado 69130" d="M371.618,326.653c0-.03.2-.057.525.081a1.794,1.794,0,0,1,.973,1.1,1.891,1.891,0,0,1-.725,2.055,2.143,2.143,0,0,1-1.3.366c-.453,0-.888-.087-1.312-.117a2.49,2.49,0,0,0-2.072.758,2.392,2.392,0,0,0-.671,1.7,4.146,4.146,0,0,0,.533,1.718c-.007.057-.762-.42-.907-1.7a2.692,2.692,0,0,1,.687-2.055,2.92,2.92,0,0,1,2.469-.955c.918.094,1.737.277,2.289-.12a1.516,1.516,0,0,0,.644-1.555,1.73,1.73,0,0,0-.71-1.014C371.788,326.74,371.609,326.7,371.618,326.653Z" transform="translate(-366.652 -326.629)" fill="#fafafa"/>
              </g>
            </g>
            <g id="Grupo_29427" data-name="Grupo 29427" transform="translate(35.546 57.117)">
              <g id="Grupo_29426" data-name="Grupo 29426">
                <path id="Trazado_69131" data-name="Trazado 69131" d="M343.334,301.341c0-.03.2-.057.526.081a1.79,1.79,0,0,1,.972,1.1,1.891,1.891,0,0,1-.725,2.055,2.15,2.15,0,0,1-1.3.366c-.453,0-.888-.087-1.312-.117a2.49,2.49,0,0,0-2.072.758,2.392,2.392,0,0,0-.671,1.7,4.146,4.146,0,0,0,.533,1.718c-.007.056-.762-.421-.907-1.7a2.692,2.692,0,0,1,.687-2.055,2.92,2.92,0,0,1,2.469-.955c.918.094,1.737.276,2.289-.12a1.515,1.515,0,0,0,.644-1.555,1.731,1.731,0,0,0-.71-1.014C343.5,301.428,343.325,301.382,343.334,301.341Z" transform="translate(-338.368 -301.317)" fill="#fafafa"/>
              </g>
            </g>
            <g id="Grupo_29429" data-name="Grupo 29429" transform="translate(40.929 37.58)">
              <g id="Grupo_29428" data-name="Grupo 29428">
                <path id="Trazado_69132" data-name="Trazado 69132" d="M350.92,287.608c.029.005.038.207-.129.515a1.8,1.8,0,0,1-1.179.87,1.89,1.89,0,0,1-1.981-.909,2.144,2.144,0,0,1-.247-1.324c.045-.451.167-.877.236-1.3a2.488,2.488,0,0,0-.567-2.132,2.386,2.386,0,0,0-1.636-.823,4.13,4.13,0,0,0-1.759.375c-.056-.012.487-.721,1.773-.75a2.693,2.693,0,0,1,1.985.871,2.918,2.918,0,0,1,.727,2.545c-.176.905-.433,1.7-.089,2.29a1.516,1.516,0,0,0,1.491.782,1.728,1.728,0,0,0,1.075-.615C350.817,287.77,350.878,287.6,350.92,287.608Z" transform="translate(-343.653 -282.135)" fill="#fafafa"/>
              </g>
            </g>
            <g id="Grupo_29431" data-name="Grupo 29431" transform="translate(62.943 11.841)">
              <g id="Grupo_29430" data-name="Grupo 29430">
                <path id="Trazado_69133" data-name="Trazado 69133" d="M372.535,262.335c.029.005.038.207-.129.515a1.794,1.794,0,0,1-1.179.869,1.89,1.89,0,0,1-1.981-.909,2.136,2.136,0,0,1-.246-1.324c.044-.451.166-.877.235-1.3a2.487,2.487,0,0,0-.567-2.131,2.386,2.386,0,0,0-1.636-.823,4.134,4.134,0,0,0-1.759.375c-.056-.013.487-.721,1.774-.75a2.686,2.686,0,0,1,1.984.871,2.917,2.917,0,0,1,.727,2.544c-.176.905-.433,1.706-.088,2.292a1.514,1.514,0,0,0,1.49.782,1.724,1.724,0,0,0,1.074-.615C372.433,262.5,372.494,262.323,372.535,262.335Z" transform="translate(-365.268 -256.862)" fill="#fafafa"/>
              </g>
            </g>
            <g id="Grupo_29433" data-name="Grupo 29433" transform="translate(92.454 10.093)">
              <g id="Grupo_29432" data-name="Grupo 29432">
                <path id="Trazado_69134" data-name="Trazado 69134" d="M401.511,260.619c.029.005.038.207-.129.516A1.8,1.8,0,0,1,400.2,262a1.889,1.889,0,0,1-1.981-.91,2.137,2.137,0,0,1-.246-1.324c.044-.45.166-.877.235-1.3a2.489,2.489,0,0,0-.567-2.132,2.39,2.39,0,0,0-1.636-.823,4.132,4.132,0,0,0-1.759.375c-.056-.012.487-.721,1.774-.75a2.691,2.691,0,0,1,1.984.871,2.918,2.918,0,0,1,.727,2.545c-.176.905-.433,1.7-.088,2.291a1.514,1.514,0,0,0,1.49.782,1.727,1.727,0,0,0,1.075-.615C401.409,260.781,401.47,260.607,401.511,260.619Z" transform="translate(-394.244 -255.146)" fill="#fafafa"/>
              </g>
            </g>
            <g id="Grupo_29435" data-name="Grupo 29435" transform="translate(14.809 55.343)">
              <g id="Grupo_29434" data-name="Grupo 29434">
                <path id="Trazado_69135" data-name="Trazado 69135" d="M325.273,305.049c.028.006.038.207-.129.516a1.8,1.8,0,0,1-1.179.869,1.889,1.889,0,0,1-1.981-.909,2.134,2.134,0,0,1-.246-1.323c.044-.451.166-.878.235-1.3a2.489,2.489,0,0,0-.567-2.132,2.39,2.39,0,0,0-1.636-.823,4.132,4.132,0,0,0-1.759.375c-.056-.012.487-.721,1.774-.75a2.693,2.693,0,0,1,1.984.871,2.918,2.918,0,0,1,.727,2.545c-.176.905-.433,1.7-.088,2.291a1.514,1.514,0,0,0,1.49.782,1.727,1.727,0,0,0,1.074-.614C325.17,305.211,325.232,305.037,325.273,305.049Z" transform="translate(-318.006 -299.576)" fill="#fafafa"/>
              </g>
            </g>
          </g>
          <g id="Grupo_29442" data-name="Grupo 29442" transform="translate(40.33 93.848)">
            <g id="Grupo_29437" data-name="Grupo 29437" transform="translate(53.476 86.207)">
              <path id="Trazado_69136" data-name="Trazado 69136" d="M371.6,379.1l-.8,89.568h5.1l.381-87.785s.255-4.012,3.315-4.28,48.89,2.043,48.89,2.043l13.5,90.022h5.866L434.66,378.66s-38.491-13.018-57.619-9.006c0,0-4.591-.847-4.846,2.674S371.6,379.1,371.6,379.1Z" transform="translate(-370.794 -368.886)" fill="#e0e0e0"/>
            </g>
            <g id="Grupo_29438" data-name="Grupo 29438" transform="translate(0.149)">
              <path id="Trazado_69137" data-name="Trazado 69137" d="M373.46,370.316s7.96-62.1,10.826-72.651a19.04,19.04,0,0,1,8.826-11.277,14.954,14.954,0,0,1,8.082-2.142l42.277.928a6.388,6.388,0,0,1,6.167,7.394l-14.012,87.655c-15.559-.039-51.96,0-51.96,0s-49.8-5.437-57.442-5.77c-4.781-.21-5.141,1.629-5.54,3.632h0c-4.481-3.631-1.807-11.093,3.951-10.742Z" transform="translate(-318.433 -284.242)" fill="#455a64"/>
            </g>
            <g id="Grupo_29440" data-name="Grupo 29440" transform="translate(64.487 4.95)">
              <g id="Grupo_29439" data-name="Grupo 29439">
                <path id="Trazado_69138" data-name="Trazado 69138" d="M448.182,289.344a1.851,1.851,0,0,1-.364.027l-1.065.027-4.1.05-15.066.084-10.4.033-5.8.013-3.031.006c-1.024.006-2.07-.019-3.088.064a11.39,11.39,0,0,0-9.59,7.576,19.169,19.169,0,0,0-.718,3.336q-.281,1.722-.566,3.471l-1.161,7.093c-3.166,19.143-6.033,36.47-8.114,49.048-1.059,6.247-1.918,11.314-2.519,14.853l-.711,4.034c-.084.438-.149.784-.2,1.047a1.742,1.742,0,0,1-.086.353,1.927,1.927,0,0,1,.033-.362c.037-.265.084-.614.146-1.056.146-.957.35-2.316.613-4.049.561-3.546,1.363-8.621,2.353-14.881,2.041-12.585,4.854-29.92,7.96-49.074q.59-3.592,1.163-7.093.289-1.749.571-3.471a19.589,19.589,0,0,1,.742-3.421,11.882,11.882,0,0,1,10.034-7.892c1.08-.085,2.111-.053,3.136-.056l3.031.005,5.8.013,10.4.033,15.066.085,4.1.05,1.065.026A1.934,1.934,0,0,1,448.182,289.344Z" transform="translate(-381.605 -289.103)" fill="#263238"/>
              </g>
            </g>
            <g id="Grupo_29441" data-name="Grupo 29441" transform="translate(0 88.778)">
              <path id="Trazado_69139" data-name="Trazado 69139" d="M320.608,379.057l-2.321,89.569h5.1l1.322-87.646s.062-5.218,4.037-4.783c3.054.334,49.332,5.713,49.332,5.713l15.58,86.716h5.866l-15.857-90.012-56.72-7.147a6.059,6.059,0,0,0-3.462.523,5.042,5.042,0,0,0-2.8,4.485C320.437,380,320.608,379.057,320.608,379.057Z" transform="translate(-318.287 -371.411)" fill="#ebebeb"/>
            </g>
          </g>
          <g id="Grupo_29449" data-name="Grupo 29449" transform="translate(95.506 94.524)">
            <g id="Grupo_29443" data-name="Grupo 29443">
              <path id="Trazado_69140" data-name="Trazado 69140" d="M435.363,285.006s-28.559,92.849-62.9,85.3l.567-4.377s26.544,4.41,57.778-81.021Z" transform="translate(-372.463 -284.906)" fill="#e8505b"/>
            </g>
            <g id="Grupo_29444" data-name="Grupo 29444" transform="translate(2.453 61.36)">
              <path id="Trazado_69141" data-name="Trazado 69141" d="M374.872,368.151a79.9,79.9,0,0,0,5.586,28.221c1.032,2.606,2.387,5.357,4.911,6.575,2.5,1.207,5.464.582,8.141-.156a123.785,123.785,0,0,0,19.417-7.148c2.3-1.07,4.7-2.348,5.88-4.592,1.4-2.676.663-5.924-.138-8.837q-3.857-14.033-8.652-27.785c-.666-1.91-3.722-9.276-3.722-9.276" transform="translate(-374.872 -345.154)" fill="#e8505b"/>
            </g>
            <g id="Grupo_29446" data-name="Grupo 29446" transform="translate(3.966 72.353)">
              <g id="Grupo_29445" data-name="Grupo 29445">
                <path id="Trazado_69142" data-name="Trazado 69142" d="M409.7,355.948a1.725,1.725,0,0,1,.014.5c0,.326-.035.8-.09,1.419a29.5,29.5,0,0,1-.972,5.143,26.855,26.855,0,0,1-3.166,7.094,22.673,22.673,0,0,1-6.673,6.769,19.26,19.26,0,0,1-8.966,3.138,17.559,17.559,0,0,1-7.681-1.14,15.424,15.424,0,0,1-4.487-2.7,10.936,10.936,0,0,1-1.01-1.005,1.713,1.713,0,0,1-.309-.39c.042-.039.5.473,1.451,1.236a16.433,16.433,0,0,0,4.488,2.513,17.622,17.622,0,0,0,7.508,1,19.1,19.1,0,0,0,8.716-3.1,22.664,22.664,0,0,0,6.553-6.59,27.608,27.608,0,0,0,3.216-6.935,34.643,34.643,0,0,0,1.126-5.061C409.594,356.624,409.652,355.945,409.7,355.948Z" transform="translate(-376.357 -355.948)" fill="#263238"/>
              </g>
            </g>
            <g id="Grupo_29448" data-name="Grupo 29448" transform="translate(23.681 89.322)">
              <g id="Grupo_29447" data-name="Grupo 29447">
                <path id="Trazado_69143" data-name="Trazado 69143" d="M395.815,381.461a37.2,37.2,0,0,1,.6-8.852,37.212,37.212,0,0,1-.6,8.852Z" transform="translate(-395.715 -372.609)" fill="#263238"/>
              </g>
            </g>
          </g>
        </g>
      </g>
    </g>
  </g>
</svg>
