<svg xmlns="http://www.w3.org/2000/svg" width="543.385" height="533.806" viewBox="0 0 543.385 533.806">
  <g id="Grupo_29513" data-name="Grupo 29513" transform="translate(-2147 3397.219)">
    <g id="Grupo_29512" data-name="Grupo 29512" transform="translate(1962 -6742)">
      <g id="Grupo_29479" data-name="Grupo 29479" transform="translate(110.702 3266.898)">
        <g id="Darker_line" data-name="Darker line" transform="translate(74.298 104.597)">
          <g id="Group">
            <path id="Trazado_69146" data-name="Trazado 69146" d="M451.59,504.023a1.177,1.177,0,0,1-.389-2.288c1.737-.609,173.627-61.641,163.706-125.444-4.671-30.038-115.914-26.576-233.688-22.91-136.41,4.239-277.47,8.631-301.885-33.8-6.771-11.77-6.714-24.883.169-38.975,22.955-47,112.8-91.614,164.312-114.027,79.177-34.452,171.348-61.91,240.545-71.659a1.177,1.177,0,0,1,.328,2.331c-69,9.723-160.937,37.115-239.934,71.487-87.15,37.92-146.61,79.072-163.135,112.9-6.52,13.347-6.6,25.717-.245,36.768,23.712,41.213,170.372,36.652,299.77,32.625,124-3.855,231.1-7.19,236.087,24.9,4.31,27.708-22.274,57.7-79.012,89.146-41.995,23.274-85.8,38.727-86.24,38.881A1.176,1.176,0,0,1,451.59,504.023Z" transform="translate(-74.298 -94.904)" fill="#fff"/>
            <g id="Grupo_29461" data-name="Grupo 29461">
              <path id="Trazado_69147" data-name="Trazado 69147" d="M451.59,504.023a1.177,1.177,0,0,1-.389-2.288c1.737-.609,173.627-61.641,163.706-125.444-4.671-30.038-115.914-26.576-233.688-22.91-136.41,4.239-277.47,8.631-301.885-33.8-6.771-11.77-6.714-24.883.169-38.975,22.955-47,112.8-91.614,164.312-114.027,79.177-34.452,171.348-61.91,240.545-71.659a1.177,1.177,0,0,1,.328,2.331c-69,9.723-160.937,37.115-239.934,71.487-87.15,37.92-146.61,79.072-163.135,112.9-6.52,13.347-6.6,25.717-.245,36.768,23.712,41.213,170.372,36.652,299.77,32.625,124-3.855,231.1-7.19,236.087,24.9,4.31,27.708-22.274,57.7-79.012,89.146-41.995,23.274-85.8,38.727-86.24,38.881A1.176,1.176,0,0,1,451.59,504.023Z" transform="translate(-74.298 -94.904)" fill="#407bff"/>
            </g>
            <g id="Grupo_29464" data-name="Grupo 29464">
              <g id="Grupo_29462" data-name="Grupo 29462">
                <path id="Trazado_69148" data-name="Trazado 69148" d="M80.356,320.166a1.177,1.177,0,0,1-1.022-.59c-6.771-11.77-6.714-24.883.169-38.975,22.955-47,112.8-91.614,164.312-114.027,79.177-34.452,171.348-61.91,240.545-71.659a1.177,1.177,0,0,1,.328,2.331c-69,9.723-160.937,37.115-239.934,71.487-87.15,37.92-146.61,79.072-163.135,112.9-6.52,13.347-6.6,25.717-.245,36.768a1.177,1.177,0,0,1-1.019,1.764Z" transform="translate(-74.298 -94.904)" fill="#407bff"/>
              </g>
              <g id="Grupo_29463" data-name="Grupo 29463" transform="translate(376.114 280.031)">
                <path id="Trazado_69149" data-name="Trazado 69149" d="M315.118,402.415a1.177,1.177,0,0,1-.389-2.288c1.737-.609,173.627-61.641,163.706-125.444a1.177,1.177,0,1,1,2.326-.361c4.31,27.708-22.274,57.7-79.012,89.146-41.995,23.274-85.8,38.727-86.24,38.881A1.176,1.176,0,0,1,315.118,402.415Z" transform="translate(-313.941 -273.327)" fill="#407bff"/>
              </g>
            </g>
          </g>
        </g>
        <g id="Character" transform="translate(410.34 159.109)">
          <g id="Group-2" data-name="Group">
            <g id="Grupo_29469" data-name="Grupo 29469">
              <path id="Trazado_69150" data-name="Trazado 69150" d="M300.6,197.141l.487-12.131s3.25-3.224,3.25-5.308-3.737-14.028-5.363-14.6-10.4,3.6-10.561,6.254,4.55,12.512,5.361,13.27l-1.3,12.89Z" transform="translate(-288.408 -109.467)" fill="#e4897b"/>
              <path id="Trazado_69151" data-name="Trazado 69151" d="M383.755,185.423l-4.17-12.007a34.5,34.5,0,0,1-4.928-4.3c-1.138-1.518,5.245-12.892,6.192-12.892s7.646,3.666,8.594,4.8-4.045,10.363-4.045,10.363l6.193,10.362Z" transform="translate(-239.369 -114.492)" fill="#e4897b"/>
              <path id="Trazado_69152" data-name="Trazado 69152" d="M365.53,175.81c5.762.57,33.438,30.14,33.438,30.14l-11.942-33.173,9.478-3.222s23.316,37.153,18.2,50.8-50.8-17.63-50.8-17.63Z" transform="translate(-245.418 -106.903)" fill="#407bff"/>
              <path id="Trazado_69153" data-name="Trazado 69153" d="M310.856,408.848l-6.444-8.436,10.921-10.535,9.938-9.575,9.337,8.726-12.559,10.489Z" transform="translate(-279.294 13.112)" fill="#e4897b"/>
              <path id="Trazado_69154" data-name="Trazado 69154" d="M309.28,391.484c.946-.689,8.944,11.3,8.944,11.3s-1.78,12.491,1.828,20.549-3.4,7.37-9.233-.264-10.279-13.457-14.42-18.881S299.466,398.622,309.28,391.484Z" transform="translate(-284.537 19.464)" fill="#2e353a"/>
              <path id="Trazado_69155" data-name="Trazado 69155" d="M309.789,400.34s5.358-1.728,5.975,1.16c.709,3.326-5.975-1.16-5.975-1.16s5.408,4.018,3.975,5.829C311.6,408.908,309.789,400.34,309.789,400.34Z" transform="translate(-276.233 24.232)" fill="none" stroke="#577afa" stroke-linecap="round" stroke-linejoin="round" stroke-width="0.483"/>
              <path id="Trazado_69156" data-name="Trazado 69156" d="M318.086,399.517l-6.715-9.641,9.938-9.575,9.337,8.726Z" transform="translate(-275.332 13.112)" opacity="0.2" style="isolation: isolate"/>
              <path id="Trazado_69157" data-name="Trazado 69157" d="M354.7,418.029H344.088l-1.744-14.783-1.577-13.563,12.6-2.05.713,16.093Z" transform="translate(-258.591 17.287)" fill="#e4897b"/>
              <path id="Trazado_69158" data-name="Trazado 69158" d="M342.006,406.782c.027-1.169,14.406-.253,14.406-.253s8.846,9,17.44,11.019,3.79,7.179-5.813,7.179H344.28C337.456,424.727,341.722,418.914,342.006,406.782Z" transform="translate(-258.783 27.854)" fill="#2e353a"/>
              <path id="Trazado_69159" data-name="Trazado 69159" d="M351.74,408.909s1.88-5.308,4.55-4.043c3.073,1.455-4.55,4.043-4.55,4.043s6.477-1.858,7.045.38C359.647,412.675,351.74,408.909,351.74,408.909Z" transform="translate(-252.342 26.99)" fill="none" stroke="#577afa" stroke-linecap="round" stroke-linejoin="round" stroke-width="0.483"/>
              <path id="Trazado_69160" data-name="Trazado 69160" d="M354.082,404.027l-11.738-.516L340.767,389.8l12.6-2.123Z" transform="translate(-258.591 17.314)" opacity="0.2" style="isolation: isolate"/>
              <path id="Trazado_69161" data-name="Trazado 69161" d="M396.143,244.261s31.369,74.148,36.3,106.688S325.933,470.726,325.933,470.726L314.54,458.6s82.9-85.223,82.9-99.882-32.333-81.613-32.333-81.613S361.99,250.109,396.143,244.261Z" transform="translate(-273.527 -64.36)" fill="#407bff"/>
              <path id="Trazado_69162" data-name="Trazado 69162" d="M373.428,430.152c-11.388,10.479-22.4,19.942-30.952,27.1-9.933,8.295-16.544,13.466-16.544,13.466L314.543,458.6s11.39-11.693,25.7-27.176c11.267-12.178,24.369-26.691,35.183-39.687,12.526-15.059,22-28.07,22-33.014,0-7.734-8.993-30-17.486-49.332-7.628-17.318-14.846-32.286-14.846-32.286a27.624,27.624,0,0,1,.895-9.159c2.183-8.4,9.068-20.063,30.148-23.688,0,0,31.361,74.158,36.29,106.685C435.135,368.734,403.062,402.87,373.428,430.152Z" transform="translate(-273.525 -64.361)" fill="#2b4e6a" opacity="0.6" style="isolation: isolate"/>
              <path id="Trazado_69163" data-name="Trazado 69163" d="M366.164,338.227l-2,38.413c-11.388,10.479-22.4,19.942-30.952,27.1a91.116,91.116,0,0,1-2.229-25.826C342.248,365.737,355.35,351.224,366.164,338.227Z" transform="translate(-264.259 -10.848)" opacity="0.2" style="isolation: isolate"/>
              <path id="Trazado_69164" data-name="Trazado 69164" d="M361.631,301.343c-7.628-17.318-14.846-32.286-14.846-32.286a27.623,27.623,0,0,1,.895-9.159,11,11,0,0,1,3.563-1.5S360.524,272.97,361.631,301.343Z" transform="translate(-255.206 -56.31)" opacity="0.2" style="isolation: isolate"/>
              <path id="Trazado_69165" data-name="Trazado 69165" d="M335.654,139.3s9.52-11.875,25.179-9.221,12.815,31.532,12.815,31.532a20.83,20.83,0,0,1,6.634,20.614c-3.034,13.063-38.582,20.631-52.18,11.539s-3.071-37.911,3.462-41.988S335.654,139.3,335.654,139.3Z" transform="translate(-269.573 -129.604)" fill="#2e353a"/>
              <path id="Trazado_69166" data-name="Trazado 69166" d="M363.934,276.583l1.9,104.41V487.839H348.04C305.58,285.377,334.7,234.626,334.7,234.626l.105.028c.03-.077.061-.176.091-.237,6.824-15.164,51.561-3.985,51.561-3.985,3.216,12.572,5.2,38.088,5.2,38.088Z" transform="translate(-267.594 -74.496)" fill="#407bff"/>
              <path id="Trazado_69167" data-name="Trazado 69167" d="M363.934,276.583l1.9,104.41V487.839H348.04C305.58,285.377,334.7,234.626,334.7,234.626l.105.028c.03-.077.061-.176.091-.237,6.824-15.164,51.561-3.985,51.561-3.985,3.216,12.572,5.2,38.088,5.2,38.088Z" transform="translate(-267.594 -74.496)" fill="#2b4e6a" opacity="0.6" style="isolation: isolate"/>
              <path id="Trazado_69168" data-name="Trazado 69168" d="M331,228.628v7.582l51.793-3.971v-8.967Z" transform="translate(-264.153 -76.313)" fill="#2e353a"/>
              <rect id="Rectángulo_26619" data-name="Rectángulo 26619" width="2.572" height="13.103" transform="translate(81.664 149.257) rotate(-2.924)" fill="#407bff"/>
              <rect id="Rectángulo_26620" data-name="Rectángulo 26620" width="11.37" height="8.623" transform="translate(95.34 149.821) rotate(-5.117)" fill="#fff"/>
              <rect id="Rectángulo_26621" data-name="Rectángulo 26621" width="2.572" height="13.103" transform="translate(113.307 145.783) rotate(-2.921)" fill="#407bff"/>
              <rect id="Rectángulo_26622" data-name="Rectángulo 26622" width="2.572" height="13.103" transform="translate(81.664 149.257) rotate(-2.924)" fill="#fff" opacity="0.6" style="isolation: isolate"/>
              <rect id="Rectángulo_26623" data-name="Rectángulo 26623" width="2.572" height="13.103" transform="translate(113.307 145.783) rotate(-2.921)" fill="#fff" opacity="0.6" style="isolation: isolate"/>
              <path id="Trazado_69169" data-name="Trazado 69169" d="M389.138,252.41l-51.8,4.482c-1.229-19.261-2.458-31.68-13.862-66q-1.478-4.5-3.23-9.553a153.961,153.961,0,0,1,21.489-5.187A166.392,166.392,0,0,1,365,173.7c10.084-.075,21.656,1.061,21.656,1.061s1.653.394,2.684,11.071C390.291,195.868,391.216,215.923,389.138,252.41Z" transform="translate(-270.279 -104.547)" fill="#407bff"/>
              <path id="Trazado_69170" data-name="Trazado 69170" d="M389.138,252.41l-51.8,4.482c-1.229-19.261-2.458-31.68-13.862-66q-1.478-4.5-3.23-9.553a153.961,153.961,0,0,1,21.489-5.187A166.392,166.392,0,0,1,365,173.7c10.084-.075,21.656,1.061,21.656,1.061s1.653.394,2.684,11.071C390.291,195.868,391.216,215.923,389.138,252.41Z" transform="translate(-270.279 -104.547)" fill="#fff" opacity="0.3" style="isolation: isolate"/>
              <path id="Trazado_69171" data-name="Trazado 69171" d="M352.06,191.139c-12.768-1.634-16.6-7.088-16.6-7.088,8.1-7.643,1.37-20.887,1.37-20.887l15.368,2.869a45.124,45.124,0,0,0-.6,6.469c-.116,9.327,4.1,9.418,4.1,9.418C358.393,186.976,352.06,191.139,352.06,191.139Z" transform="translate(-261.615 -110.543)" fill="#e4897b"/>
              <path id="Trazado_69172" data-name="Trazado 69172" d="M351.7,166.034a45.12,45.12,0,0,0-.6,6.469c-7.408-1.717-14.767-9.338-14.767-9.338Z" transform="translate(-261.118 -110.543)" opacity="0.2" style="isolation: isolate"/>
              <g id="Grupo_29467" data-name="Grupo 29467" transform="translate(59.673 7.629)">
                <path id="Trazado_69173" data-name="Trazado 69173" d="M341.918,138.183c13.017-3.086,18.859,2.891,22.993,16.081,5.165,16.483,4.271,29.275-12.856,29.552C328.8,184.191,320.3,143.306,341.918,138.183Z" transform="translate(-324.71 -132.852)" fill="#e4897b"/>
                <path id="Trazado_69174" data-name="Trazado 69174" d="M346.571,148.947a28.3,28.3,0,0,0,5.068,4.5,3.678,3.678,0,0,1-3.082,2.287Z" transform="translate(-314.959 -126.269)" fill="#de5753"/>
                <g id="Grupo_29465" data-name="Grupo 29465" transform="translate(20.729 20.53)">
                  <path id="Trazado_69175" data-name="Trazado 69175" d="M342.3,150.06c.279,1.064-.071,2.076-.778,2.262s-1.51-.526-1.788-1.59.069-2.075.778-2.262S342.021,149,342.3,150.06Z" transform="translate(-339.637 -147.087)" fill="#2e353a"/>
                  <path id="Trazado_69176" data-name="Trazado 69176" d="M340.014,149.091l2.076-1.513S341.449,149.825,340.014,149.091Z" transform="translate(-339.422 -147.578)" fill="#2e353a"/>
                </g>
                <g id="Grupo_29466" data-name="Grupo 29466" transform="translate(33.891 16.846)">
                  <path id="Trazado_69177" data-name="Trazado 69177" d="M350.687,147.714c.278,1.063-.071,2.075-.78,2.262s-1.51-.527-1.788-1.59.071-2.076.78-2.262S350.407,146.649,350.687,147.714Z" transform="translate(-348.023 -144.739)" fill="#2e353a"/>
                  <path id="Trazado_69178" data-name="Trazado 69178" d="M348.4,146.744l2.075-1.513S349.834,147.478,348.4,146.744Z" transform="translate(-347.807 -145.231)" fill="#2e353a"/>
                </g>
                <path id="Trazado_69179" data-name="Trazado 69179" d="M341.771,143.764s-3.77.391-5.179,3.307" transform="translate(-320.641 -129.22)" fill="none" stroke="#2e353a" stroke-linecap="round" stroke-linejoin="round" stroke-width="0.725"/>
                <path id="Trazado_69180" data-name="Trazado 69180" d="M345.838,142.229a6.244,6.244,0,0,1,5.443-.16" transform="translate(-315.376 -130.477)" fill="none" stroke="#2e353a" stroke-linecap="round" stroke-linejoin="round" stroke-width="0.725"/>
                <path id="Trazado_69181" data-name="Trazado 69181" d="M350.725,156.971a33.955,33.955,0,0,0-.447,4.881c-.284.044-.57.089-.855.119-3.881.516-5.851-.527-6.857-1.839a5.052,5.052,0,0,1-.92-2.207,4.858,4.858,0,0,1-.066-1.365c2.219.956,5.873.755,7.821.565C350.216,157.054,350.725,156.971,350.725,156.971Z" transform="translate(-317.813 -121.933)" fill="#2e353a"/>
                <path id="Trazado_69182" data-name="Trazado 69182" d="M349.4,157.125l-.17,1.436c-3.655.477-6.294.322-7.585-.636a4.858,4.858,0,0,1-.066-1.365C343.8,157.516,347.452,157.315,349.4,157.125Z" transform="translate(-317.813 -121.933)" fill="#fff"/>
                <path id="Trazado_69183" data-name="Trazado 69183" d="M349.057,160.7c-3.881.516-5.851-.527-6.857-1.839a12.557,12.557,0,0,1,4.421.283A4.726,4.726,0,0,1,349.057,160.7Z" transform="translate(-317.448 -120.664)" fill="#de5753"/>
                <path id="Trazado_69184" data-name="Trazado 69184" d="M334.609,165.141s3.552-12.138.672-20.177c0,0,23.3-16.652,30.779,9.23,0,0-2.99-23.848-25.491-19.061-22.465,4.778-14.646,37.5-.777,44.517C339.791,179.649,332.429,172.723,334.609,165.141Z" transform="translate(-326.429 -134.497)" fill="#2e353a"/>
                <path id="Trazado_69185" data-name="Trazado 69185" d="M336.962,156.938c-.584-2.075-3.586-5.11-7.384-3.76-3.93,1.4-3.889,10.133,6.617,9.746C337.7,162.867,338.179,161.268,336.962,156.938Z" transform="translate(-326.005 -124.05)" fill="#e4897b"/>
              </g>
              <path id="Trazado_69186" data-name="Trazado 69186" d="M389.336,185.829c-19.457,9.629-49.271,7.384-65.862,5.065q-1.478-4.5-3.23-9.553a153.961,153.961,0,0,1,21.489-5.187A166.392,166.392,0,0,1,365,173.7c10.084-.075,21.656,1.061,21.656,1.061S388.3,175.152,389.336,185.829Z" transform="translate(-270.279 -104.547)" fill="#e4897b"/>
              <path id="Trazado_69187" data-name="Trazado 69187" d="M332.122,175.232s13.942,17.82,14.37,37.154-12.463,108.429-12.463,108.429l-15.544-4.4s11.754-68.586,0-134.837Z" transform="translate(-271.28 -103.671)" fill="#407bff"/>
              <path id="Trazado_69188" data-name="Trazado 69188" d="M354.72,174s5.686,18.477,4.928,31.746,13.614,78.647,13.614,78.647l4.176,10.054L373.3,253.9s2.5-59.5-2.539-79.9Z" transform="translate(-250.645 -104.372)" fill="#407bff"/>
              <path id="Trazado_69189" data-name="Trazado 69189" d="M348.354,140.022s4.818,16.393-9.858,23.82c-17.732,8.974-16.048,28.368,1.248,30.832,0,0-17.464-1.745-20.857-13.165-3.447-11.6,6.237-28.968,6.237-28.968s-5.308-9.649,9.025-17.231C342.232,131.034,348.354,140.022,348.354,140.022Z" transform="translate(-271.474 -127.062)" fill="#2e353a"/>
              <path id="Trazado_69190" data-name="Trazado 69190" d="M313.413,368.078" transform="translate(-274.169 6.151)"/>
              <path id="Trazado_69191" data-name="Trazado 69191" d="M338.213,392.546l22.222-3.253-1.861,8.879-18.339,2.472Z" transform="translate(-260.046 18.232)" fill="#407bff"/>
              <path id="Trazado_69192" data-name="Trazado 69192" d="M316.012,378.223l14.907,16.206-7.454,4.266-11.5-12.206Z" transform="translate(-274.994 11.929)" fill="#407bff"/>
              <g id="Grupo_29468" data-name="Grupo 29468" transform="translate(114.215)">
                <path id="Trazado_69193" data-name="Trazado 69193" d="M376.308,153.421c-2.682-4.8-7.893-6.989-11.639-4.894s-4.61,7.681-1.927,12.479,7.894,6.989,11.641,4.894S378.991,158.217,376.308,153.421Z" transform="translate(-361.181 -119.331)" fill="#407bff"/>
                <path id="Trazado_69194" data-name="Trazado 69194" d="M399.275,146.8l-9.224-16.966s-6.444,13.822-15.709,19l4.7,8.406.739,1.325,4.707,8.419c9.266-5.181,24.413-3.437,24.413-3.437Z" transform="translate(-353.686 -129.524)" fill="#407bff"/>
                <path id="Trazado_69195" data-name="Trazado 69195" d="M376.308,153.421c-2.682-4.8-7.893-6.989-11.639-4.894s-4.61,7.681-1.927,12.479,7.894,6.989,11.641,4.894S378.991,158.217,376.308,153.421Z" transform="translate(-361.181 -119.331)" fill="#fff" opacity="0.8" style="isolation: isolate"/>
                <path id="Trazado_69196" data-name="Trazado 69196" d="M399.275,146.8l-9.224-16.966s-6.444,13.822-15.709,19l4.7,8.406.739,1.325,4.707,8.419c9.266-5.181,24.413-3.437,24.413-3.437Z" transform="translate(-353.686 -129.524)" fill="#fff" opacity="0.8" style="isolation: isolate"/>
                <path id="Trazado_69197" data-name="Trazado 69197" d="M370.419,159.62s6.67,9.662,12.9,13.188a1.038,1.038,0,0,0,1.309-.273l5.309-6.59a1.04,1.04,0,0,0-.386-1.61c-2.629-1.155-8.744-4.143-12.275-8.314C372.69,150.605,370.419,159.62,370.419,159.62Z" transform="translate(-355.92 -115.597)" fill="#407bff"/>
                <path id="Trazado_69198" data-name="Trazado 69198" d="M370.419,159.62s6.67,9.662,12.9,13.188a1.038,1.038,0,0,0,1.309-.273l5.309-6.59a1.04,1.04,0,0,0-.386-1.61c-2.629-1.155-8.744-4.143-12.275-8.314C372.69,150.605,370.419,159.62,370.419,159.62Z" transform="translate(-355.92 -115.597)" opacity="0.3" style="isolation: isolate"/>
                <path id="Trazado_69199" data-name="Trazado 69199" d="M403.548,164.149c-2.124,1.188-8.149-5.545-13.457-15.039s-7.888-18.151-5.765-19.338,8.147,5.545,13.457,15.039S405.672,162.962,403.548,164.149Z" transform="translate(-348.423 -129.636)" fill="#fff"/>
                <path id="Trazado_69200" data-name="Trazado 69200" d="M402.062,160.814c-1.588.888-6.286-4.407-10.718-12.024-.259-.43-.51-.879-.761-1.329-.3-.543-.6-1.072-.876-1.6-4.068-7.681-6.072-14.309-4.5-15.189,1.7-.948,6.846,5.033,11.5,13.358S403.757,159.867,402.062,160.814Z" transform="translate(-347.803 -129.101)" opacity="0.4" style="isolation: isolate"/>
                <path id="Trazado_69201" data-name="Trazado 69201" d="M372.95,171.611s-2.282-1.62-6.414-9.01c-4.471-8-4.349-10.238-4.349-10.238L382.869,140.8s.248,2.9,4.442,10.4c4.162,7.446,6.32,8.844,6.32,8.844Z" transform="translate(-360.609 -123.28)" fill="#407bff"/>
                <path id="Trazado_69202" data-name="Trazado 69202" d="M389.517,143.5c-.259-.43-.51-.879-.761-1.329-.3-.543-.6-1.072-.876-1.6l2.142-.676a1,1,0,0,1,1.172.545l.169.3a.994.994,0,0,1-.151,1.284Z" transform="translate(-345.976 -123.815)" fill="#fff"/>
                <path id="Trazado_69203" data-name="Trazado 69203" d="M389.517,143.5c-.259-.43-.51-.879-.761-1.329-.3-.543-.6-1.072-.876-1.6l2.142-.676a1,1,0,0,1,1.172.545l.169.3a.994.994,0,0,1-.151,1.284Z" transform="translate(-345.976 -123.815)" opacity="0.2" style="isolation: isolate"/>
              </g>
              <path id="Trazado_69204" data-name="Trazado 69204" d="M335.453,179.277c-7.2,3.13-32.983,49.129-32.983,49.129l-.505-43.471-11.627-1.518s-7.077,61.671,8.088,65.21,42.968-40.441,42.968-40.441Z" transform="translate(-288.249 -101.367)" fill="#407bff"/>
              <path id="Trazado_69205" data-name="Trazado 69205" d="M336.33,136.648s6.675,4.814,1.706,17.4" transform="translate(-261.118 -125.643)" fill="none" stroke="#2e353a" stroke-linecap="round" stroke-linejoin="round" stroke-width="0.5"/>
              <path id="Trazado_69206" data-name="Trazado 69206" d="M353.807,149.347s18.352,11.881,6.451,27.183" transform="translate(-251.165 -118.412)" fill="none" stroke="#2e353a" stroke-linecap="round" stroke-linejoin="round" stroke-width="0.5"/>
            </g>
          </g>
        </g>
        <g id="Phone" transform="translate(123.375 77.883)">
          <g id="Group-3" data-name="Group">
            <g id="Grupo_29475" data-name="Grupo 29475">
              <path id="Rectángulo_26624" data-name="Rectángulo 26624" d="M10.4,0H285.819a10.4,10.4,0,0,1,10.4,10.4v511.99a10.4,10.4,0,0,1-10.4,10.4H10.4A10.4,10.4,0,0,1,0,522.392V10.4A10.4,10.4,0,0,1,10.4,0Z" fill="#00223d"/>
              <path id="Trazado_69207" data-name="Trazado 69207" d="M388.228,91.686V587.83a7.249,7.249,0,0,1-7.361,7.251H118.576A6.5,6.5,0,0,1,112,588.426V91.09A5.857,5.857,0,0,1,117.634,85h65.573a4.617,4.617,0,0,1,4.222,2.951l2.715,6.686a4.611,4.611,0,0,0,4.222,2.919H306a4.567,4.567,0,0,0,4.222-2.872l2.715-6.717A4.632,4.632,0,0,1,317.162,85h64.631A6.621,6.621,0,0,1,388.228,91.686Z" transform="translate(-101.904 -73.831)" fill="#5b9dbb"/>
              <rect id="Rectángulo_26625" data-name="Rectángulo 26625" width="276.228" height="61.994" transform="translate(10.096 43.344)" fill="#fff" opacity="0.2" style="isolation: isolate"/>
              <g id="Grupo_29470" data-name="Grupo 29470" transform="translate(24.565 22.056)">
                <rect id="Rectángulo_26626" data-name="Rectángulo 26626" width="3.412" height="4.549" transform="translate(20.094 9.101) rotate(180)" fill="#fff" opacity="0.6" style="isolation: isolate"/>
                <rect id="Rectángulo_26627" data-name="Rectángulo 26627" width="3.412" height="6.066" transform="translate(14.533 9.101) rotate(180)" fill="#fff" opacity="0.6" style="isolation: isolate"/>
                <rect id="Rectángulo_26628" data-name="Rectángulo 26628" width="3.412" height="7.583" transform="translate(8.973 9.101) rotate(180)" fill="#fff" opacity="0.6" style="isolation: isolate"/>
                <rect id="Rectángulo_26629" data-name="Rectángulo 26629" width="3.412" height="9.101" transform="translate(3.412 9.101) rotate(180)" fill="#fff" opacity="0.6" style="isolation: isolate"/>
              </g>
              <g id="Grupo_29471" data-name="Grupo 29471" transform="translate(253.75 23.288)">
                <rect id="Rectángulo_26630" data-name="Rectángulo 26630" width="2.022" height="4.549" transform="translate(0 1.66)" fill="#fff" opacity="0.6" style="isolation: isolate"/>
                <rect id="Rectángulo_26631" data-name="Rectángulo 26631" width="16.113" height="7.869" transform="translate(19.525 7.869) rotate(180)" fill="#fff" opacity="0.6" style="isolation: isolate"/>
              </g>
              <circle id="Elipse_3369" data-name="Elipse 3369" cx="3.791" cy="3.791" r="3.791" transform="translate(138.158 8.025)" fill="#fff" opacity="0.6" style="isolation: isolate"/>
              <path id="Trazado_69208" data-name="Trazado 69208" d="M205.079,86.294a2.429,2.429,0,1,1-2.43-2.43A2.429,2.429,0,0,1,205.079,86.294Z" transform="translate(-51.664 -74.478)" fill="#fff" opacity="0.6" style="isolation: isolate"/>
              <path id="Trazado_69209" data-name="Trazado 69209" d="M388.228,350v86.918a7.249,7.249,0,0,1-7.361,7.251H118.576A6.5,6.5,0,0,1,112,437.514V350Z" transform="translate(-101.904 77.081)" fill="#fff" opacity="0.2" style="isolation: isolate"/>
              <g id="Grupo_29473" data-name="Grupo 29473" transform="translate(39.916 140.747)">
                <path id="Trazado_69210" data-name="Trazado 69210" d="M131.334,277.044,239,186.559l107.671,90.484L262.258,390.275l-75.825-1.516Z" transform="translate(-130.81 -156.742)" fill="#407bff"/>
                <path id="Trazado_69211" data-name="Trazado 69211" d="M131.334,277.044,239,186.559l107.671,90.484L262.258,390.275l-75.825-1.516Z" transform="translate(-130.81 -156.742)" fill="#fbf9f4" opacity="0.3" style="isolation: isolate"/>
                <g id="Grupo_29472" data-name="Grupo 29472" transform="translate(31.612)">
                  <path id="Rectángulo_26632" data-name="Rectángulo 26632" d="M2.255,0H150.911a2.254,2.254,0,0,1,2.254,2.254V221.681a2.255,2.255,0,0,1-2.255,2.255H2.254A2.254,2.254,0,0,1,0,221.681V2.255A2.255,2.255,0,0,1,2.255,0Z" fill="#fff"/>
                  <rect id="Rectángulo_26633" data-name="Rectángulo 26633" width="120.561" height="4.549" rx="0.725" transform="translate(16.302 20.22)" opacity="0.2" style="isolation: isolate"/>
                  <rect id="Rectángulo_26634" data-name="Rectángulo 26634" width="120.561" height="4.549" rx="0.725" transform="translate(16.302 35.394)" opacity="0.2" style="isolation: isolate"/>
                  <rect id="Rectángulo_26635" data-name="Rectángulo 26635" width="120.561" height="4.549" rx="0.725" transform="translate(16.302 50.569)" opacity="0.2" style="isolation: isolate"/>
                  <rect id="Rectángulo_26636" data-name="Rectángulo 26636" width="120.561" height="4.549" rx="0.725" transform="translate(16.302 65.743)" opacity="0.2" style="isolation: isolate"/>
                  <rect id="Rectángulo_26637" data-name="Rectángulo 26637" width="120.561" height="4.549" rx="0.725" transform="translate(16.302 80.918)" opacity="0.2" style="isolation: isolate"/>
                  <rect id="Rectángulo_26638" data-name="Rectángulo 26638" width="120.561" height="4.549" rx="0.725" transform="translate(16.302 96.092)" opacity="0.2" style="isolation: isolate"/>
                  <rect id="Rectángulo_26639" data-name="Rectángulo 26639" width="120.561" height="4.55" rx="0.725" transform="translate(16.302 111.267)" opacity="0.2" style="isolation: isolate"/>
                  <rect id="Rectángulo_26640" data-name="Rectángulo 26640" width="120.561" height="4.55" rx="0.725" transform="translate(16.302 126.441)" opacity="0.2" style="isolation: isolate"/>
                  <rect id="Rectángulo_26641" data-name="Rectángulo 26641" width="120.561" height="4.549" rx="0.725" transform="translate(16.302 141.616)" opacity="0.2" style="isolation: isolate"/>
                </g>
                <path id="Trazado_69212" data-name="Trazado 69212" d="M244.955,323.122l-.592-.328a7.128,7.128,0,0,0-6.984.03l-2.905,1.65L131,244.212V376.648a6.957,6.957,0,0,0,7.091,6.915H340.3c3.9,0,5.719-3,5.719-6.915V244.212Z" transform="translate(-131 -123.91)" fill="#407bff"/>
                <path id="Trazado_69213" data-name="Trazado 69213" d="M244.955,323.122l-.592-.328a7.128,7.128,0,0,0-6.984.03l-2.905,1.65L131,244.212V376.648a6.957,6.957,0,0,0,7.091,6.915H340.3c3.9,0,5.719-3,5.719-6.915V244.212Z" transform="translate(-131 -123.91)" fill="#cbd9e4" opacity="0.6" style="isolation: isolate"/>
                <path id="Trazado_69214" data-name="Trazado 69214" d="M218.785,293.04l4.677,3.626L150.34,338.178Z" transform="translate(-119.986 -96.103)" opacity="0.2" style="isolation: isolate"/>
                <path id="Trazado_69215" data-name="Trazado 69215" d="M283.521,339.941,203.54,295.588l3.688-2.888Z" transform="translate(-89.69 -96.297)" opacity="0.2" style="isolation: isolate"/>
              </g>
              <rect id="Rectángulo_26642" data-name="Rectángulo 26642" width="89.983" height="8.371" rx="0.833" transform="translate(105.834 53.022)" fill="#407bff"/>
              <path id="Trazado_69216" data-name="Trazado 69216" d="M292.182,143.464H251.9a5.232,5.232,0,0,1-5.231-5.233h0A5.231,5.231,0,0,1,251.9,133h40.284a5.231,5.231,0,0,1,5.231,5.231h0A5.232,5.232,0,0,1,292.182,143.464Z" transform="translate(-25.214 -46.496)" fill="#fbf9f4"/>
              <rect id="Rectángulo_26643" data-name="Rectángulo 26643" width="40.283" height="38.191" transform="translate(29.979 440.16)" fill="#fbf9f4"/>
              <rect id="Rectángulo_26644" data-name="Rectángulo 26644" width="40.283" height="38.191" transform="translate(78.987 440.16)" fill="#fbf9f4"/>
              <rect id="Rectángulo_26645" data-name="Rectángulo 26645" width="40.283" height="38.191" transform="translate(127.996 440.16)" fill="#fbf9f4"/>
              <rect id="Rectángulo_26646" data-name="Rectángulo 26646" width="40.283" height="38.191" transform="translate(177.005 440.16)" fill="#fbf9f4"/>
              <rect id="Rectángulo_26647" data-name="Rectángulo 26647" width="40.283" height="38.191" transform="translate(226.013 440.16)" fill="#fbf9f4"/>
              <path id="Trazado_69217" data-name="Trazado 69217" d="M292.182,403.626H251.9a5.231,5.231,0,0,1-5.231-5.231h0a5.231,5.231,0,0,1,5.231-5.231h40.284a5.231,5.231,0,0,1,5.231,5.231h0A5.231,5.231,0,0,1,292.182,403.626Z" transform="translate(-25.214 101.662)" fill="#fbf9f4"/>
              <g id="Grupo_29474" data-name="Grupo 29474" transform="translate(0.679 0.183)">
                <path id="Trazado_69218" data-name="Trazado 69218" d="M364.007,78,106,445.132V282.487L249.576,78Z" transform="translate(-106 -78)" fill="#fff" opacity="0.1" style="isolation: isolate"/>
                <path id="Trazado_69219" data-name="Trazado 69219" d="M214.074,78,106,232.343V94.15C106,85.125,112.623,78,121.648,78Z" transform="translate(-106 -78)" fill="#fff" opacity="0.1" style="isolation: isolate"/>
              </g>
            </g>
          </g>
        </g>
        <g id="Bright_line" data-name="Bright line" transform="translate(74.298 104.597)">
          <g id="Group-4" data-name="Group">
            <g id="Grupo_29478" data-name="Grupo 29478" opacity="0.8" style="isolation: isolate">
              <g id="Grupo_29476" data-name="Grupo 29476">
                <path id="Trazado_69220" data-name="Trazado 69220" d="M80.356,320.166a1.177,1.177,0,0,1-1.022-.59c-6.771-11.77-6.714-24.883.169-38.975,22.955-47,112.8-91.614,164.312-114.027,79.177-34.452,171.348-61.91,240.545-71.659a1.177,1.177,0,0,1,.328,2.331c-69,9.723-160.937,37.115-239.934,71.487-87.15,37.92-146.61,79.072-163.135,112.9-6.52,13.347-6.6,25.717-.245,36.768a1.177,1.177,0,0,1-1.019,1.764Z" transform="translate(-74.298 -94.904)" fill="#fff"/>
              </g>
              <g id="Grupo_29477" data-name="Grupo 29477" transform="translate(376.114 280.031)">
                <path id="Trazado_69221" data-name="Trazado 69221" d="M315.118,402.415a1.177,1.177,0,0,1-.389-2.288c1.737-.609,173.627-61.641,163.706-125.444a1.177,1.177,0,1,1,2.326-.361c4.31,27.708-22.274,57.7-79.012,89.146-41.995,23.274-85.8,38.727-86.24,38.881A1.176,1.176,0,0,1,315.118,402.415Z" transform="translate(-313.941 -273.327)" fill="#fff"/>
              </g>
            </g>
          </g>
        </g>
      </g>
      <g id="Grupo_29480" data-name="Grupo 29480" transform="translate(593.142 3344.781)">
        <path id="Trazado_68804" data-name="Trazado 68804" d="M1610.5,537.922l-3.349,25.236,17.925-13.09,54.863-28.028-42.435,3.885s-21.618,5.252-22.788,6.31A52.627,52.627,0,0,0,1610.5,537.922Z" transform="translate(-1591.712 -522.039)" fill="#00223d"/>
        <path id="Trazado_68805" data-name="Trazado 68805" d="M1566.561,522.683l88.229-.644-69.438,15.882Z" transform="translate(-1566.561 -522.039)" fill="#2b4e6a"/>
        <path id="Trazado_68806" data-name="Trazado 68806" d="M1652.861,563.309l-23.119-18.57,64.194-22.7Z" transform="translate(-1605.707 -522.039)" fill="#2b4e6a"/>
      </g>
    </g>
  </g>
</svg>
