<svg xmlns="http://www.w3.org/2000/svg" width="448.046" height="396.875" viewBox="0 0 448.046 396.875">
  <g id="Grupo_29006" data-name="Grupo 29006" transform="translate(-268.208 -396.124)">
    <path id="Trazado_68798" data-name="Trazado 68798" d="M423.176,1102.71H529.862l8.85-23.826a33.7,33.7,0,0,1,17.753-18.937,84.847,84.847,0,0,0,28.206-21.158A195.967,195.967,0,0,0,614.7,993.15l-66.117-.324s5.951-36.984-26.91-86.1a27.8,27.8,0,0,1-4.569-17.869l3.115-35.824s22.33-24.955,8.63-55.914c0,0-13.1-18.14-18.3-11.5,0,0-39.574,94.237-43.177,108.249s-8.407,22.819-3.6,66.857a266.824,266.824,0,0,1,1.713,29.375,104.245,104.245,0,0,1-10.021,44.368Z" transform="translate(-114.366 -309.712)" fill="#f7c29e"/>
    <path id="Trazado_68799" data-name="Trazado 68799" d="M522.68,1610.5c-9.9-10.994-23.658-9.259-38.125-14.273s-19.106-41.171-19.106-41.171v-.005c.023,1.365.034,2.689.031,3.966a104.246,104.246,0,0,1-10.021,44.368l-32.283,68.246H529.862l8.85-23.827a33.7,33.7,0,0,1,17.753-18.938,83.026,83.026,0,0,0,23.69-16.427C550.771,1624.785,532.583,1621.49,522.68,1610.5Z" transform="translate(-114.366 -878.627)" fill="#f7c29e" opacity="0.2" style="mix-blend-mode: multiply;isolation: isolate"/>
    <g id="Grupo_28988" data-name="Grupo 28988" transform="translate(608.382 405.767)">
      <path id="Trazado_68804" data-name="Trazado 68804" d="M1609.461,532.978l-2.307,17.381,12.345-9.016,37.786-19.3-29.227,2.676s-14.889,3.617-15.7,4.346A36.223,36.223,0,0,0,1609.461,532.978Z" transform="translate(-1596.518 -522.039)" fill="#00223d"/>
      <path id="Trazado_68805" data-name="Trazado 68805" d="M1566.56,522.483l60.767-.444L1579.5,532.978Z" transform="translate(-1566.56 -522.039)" fill="#5b9dbb"/>
      <path id="Trazado_68806" data-name="Trazado 68806" d="M1645.665,550.463l-15.922-12.79,44.213-15.635Z" transform="translate(-1613.189 -522.039)" fill="#5b9dbb"/>
    </g>
    <g id="Grupo_28992" data-name="Grupo 28992" transform="translate(565.251 423.615)">
      <g id="Grupo_28989" data-name="Grupo 28989" transform="translate(49.426)">
        <path id="Trazado_68807" data-name="Trazado 68807" d="M1590.971,592.307a18.4,18.4,0,0,1,4.056-1.065l-.114-1.079a19.239,19.239,0,0,0-4.324,1.129Z" transform="translate(-1590.589 -590.163)" fill="#292929"/>
      </g>
      <g id="Grupo_28990" data-name="Grupo 28990" transform="translate(11.515 5.523)">
        <path id="Trazado_68808" data-name="Trazado 68808" d="M1445.893,704.661a68.436,68.436,0,0,0,7.035-4.083l.6.9a69.574,69.574,0,0,1-7.147,4.147Zm13.438-9.065a44.135,44.135,0,0,0,5.461-5.971l.866.653a45.2,45.2,0,0,1-5.6,6.119Zm9.654-12.877c.532-1.117,1.022-2.281,1.455-3.459.491-1.335.925-2.73,1.291-4.147l1.05.271c-.375,1.452-.82,2.882-1.323,4.25-.445,1.21-.948,2.4-1.494,3.551Zm4.383-23.731,1.085-.024a70.159,70.159,0,0,1-.267,8.26l-1.08-.1A69.058,69.058,0,0,0,1473.368,658.988Zm-1.544-16.266,1.074-.153c.454,3.175.779,5.77,1.021,8.165l-1.08.109C1472.6,648.463,1472.276,645.883,1471.824,642.723Zm-1.214-8.171a39.955,39.955,0,0,1-.41-8.237l1.083.068a38.859,38.859,0,0,0,.4,8.009l.009.063-1.075.148Zm1.364-16.39a19.7,19.7,0,0,1,4.71-6.921l.745.789a18.626,18.626,0,0,0-4.451,6.543Z" transform="translate(-1445.893 -611.241)" fill="#292929"/>
      </g>
      <g id="Grupo_28991" data-name="Grupo 28991" transform="translate(0 102.275)">
        <path id="Trazado_68809" data-name="Trazado 68809" d="M1402.3,983.044c1.4-.485,2.773-.995,4.091-1.513l-.4-1.01c-1.3.514-2.667,1.018-4.05,1.5Z" transform="translate(-1401.944 -980.521)" fill="#292929"/>
      </g>
    </g>
    <g id="Grupo_28993" data-name="Grupo 28993" transform="translate(558.379 404.514)">
      <path id="Trazado_68810" data-name="Trazado 68810" d="M1377.315,525.816s22.6-15.124,27.757-5.16-29.359,45.223-29.359,45.223Z" transform="translate(-1375.714 -517.259)" fill="#f19c61"/>
      <path id="Trazado_68811" data-name="Trazado 68811" d="M1377.315,777.328s22.6-15.124,27.757-5.16-29.359,45.223-29.359,45.223Z" transform="translate(-1375.714 -702.874)" fill="#f19c61"/>
      <path id="Trazado_68812" data-name="Trazado 68812" d="M1377.315,948.689s22.6-15.124,27.757-5.16-29.359,45.223-29.359,45.223Z" transform="translate(-1375.714 -829.337)" fill="#f19c61"/>
    </g>
    <path id="Trazado_68813" data-name="Trazado 68813" d="M925.711,485.235H801.656a16.728,16.728,0,0,0-16.728,16.728V755.5a16.731,16.731,0,0,0,16.728,16.728H925.711A16.728,16.728,0,0,0,942.439,755.5V501.963A16.732,16.732,0,0,0,925.711,485.235Z" transform="translate(-381.337 -89.111)" fill="#292929"/>
    <path id="Trazado_68814" data-name="Trazado 68814" d="M770.573,1202.56s-22.438,54.927-20.262,65.313,15.793,24.274,49.2,19.644a513.109,513.109,0,0,0,56.5-10.819s1.4-74.129,0-77.888-61.464-30.442-63.827-30.442S770.573,1202.56,770.573,1202.56Z" transform="translate(-355.68 -593.261)" fill="#f7c29e" opacity="0.2" style="mix-blend-mode: multiply;isolation: isolate"/>
    <rect id="Rectángulo_26477" data-name="Rectángulo 26477" width="141.292" height="241.392" transform="translate(411.7 418.923)" fill="#fff"/>
    <path id="Trazado_68815" data-name="Trazado 68815" d="M856.828,1109.63H734.12a7.675,7.675,0,0,0-7.675,7.675v50.639a7.675,7.675,0,0,0,7.675,7.675h96.608c3.91,5.456,11,15.226,11.625,15.226.586,0-.542-9.228-1.337-15.226h15.813a7.675,7.675,0,0,0,7.675-7.675V1117.3A7.675,7.675,0,0,0,856.828,1109.63Z" transform="translate(-338.177 -549.912)" fill="#3e82d7" opacity="0.3" style="mix-blend-mode: multiply;isolation: isolate"/>
    <path id="Trazado_68816" data-name="Trazado 68816" d="M1002.159,671.738H871.528a7.675,7.675,0,0,0-7.675,7.675v54.426a7.674,7.674,0,0,0,7.675,7.674h13.565c-.787,5.992-1.818,14.586-1.253,14.586.6,0,7.185-9.042,11.165-14.586h107.154a7.674,7.674,0,0,0,7.674-7.674V679.413A7.675,7.675,0,0,0,1002.159,671.738Z" transform="translate(-439.584 -226.75)" fill="#3e82d7" opacity="0.3" style="mix-blend-mode: multiply;isolation: isolate"/>
    <path id="Rectángulo_26478" data-name="Rectángulo 26478" d="M1.512,0H58.948A1.512,1.512,0,0,1,60.46,1.512v0a1.512,1.512,0,0,1-1.512,1.512H1.512A1.512,1.512,0,0,1,0,1.512v0A1.512,1.512,0,0,1,1.512,0Z" transform="translate(452.231 408.312)" fill="#fff"/>
    <path id="Trazado_68817" data-name="Trazado 68817" d="M672.607,874.648a10.55,10.55,0,0,0,2.78,4.728l2.291-26.347s16.427-18.358,12.458-43.116a36.993,36.993,0,0,0-12.022-21.944c-3.68-3.235-7.723-5.4-10.1-2.353,0,0-18.61,44.316-31.468,76.686Z" transform="translate(-271.829 -309.712)" fill="#f7c29e"/>
    <path id="Trazado_68818" data-name="Trazado 68818" d="M837.491,1059.495H714.783a7.675,7.675,0,0,0-7.675,7.675v50.639a7.674,7.674,0,0,0,7.675,7.674h96.608c3.91,5.456,11,15.226,11.625,15.226.586,0-.542-9.228-1.337-15.226h15.813a7.674,7.674,0,0,0,7.674-7.674V1067.17A7.674,7.674,0,0,0,837.491,1059.495Z" transform="translate(-323.906 -512.913)" fill="#ffe3a1"/>
    <g id="Grupo_28995" data-name="Grupo 28995" transform="translate(475.325 665.005)">
      <path id="Trazado_68819" data-name="Trazado 68819" d="M1072.6,1518.423a6.939,6.939,0,1,1-6.939-6.94A6.939,6.939,0,0,1,1072.6,1518.423Z" transform="translate(-1058.72 -1511.484)" fill="#3e82d7" opacity="0.3"/>
      <g id="Grupo_28994" data-name="Grupo 28994" transform="translate(4.048 4.048)">
        <path id="Trazado_68820" data-name="Trazado 68820" d="M1079.132,1532.718h-4.138a.823.823,0,0,1-.822-.822v-4.138a.823.823,0,0,1,.822-.822h4.138a.823.823,0,0,1,.822.822v4.138A.823.823,0,0,1,1079.132,1532.718Zm-4.138-5.559a.6.6,0,0,0-.6.6v4.138a.6.6,0,0,0,.6.6h4.138a.6.6,0,0,0,.6-.6v-4.138a.6.6,0,0,0-.6-.6Z" transform="translate(-1074.172 -1526.936)" fill="#3e82d7"/>
      </g>
    </g>
    <rect id="Rectángulo_26479" data-name="Rectángulo 26479" width="141.292" height="14.278" transform="translate(411.7 646.036)" fill="#cbd9e4"/>
    <rect id="Rectángulo_26480" data-name="Rectángulo 26480" width="141.292" height="12.81" transform="translate(411.7 418.923)" fill="#cbd9e4"/>
    <path id="Trazado_68821" data-name="Trazado 68821" d="M732.455,811.644c5.142-2.366,7.827-15.745,8.788-21.759-4.126-4.151-9.3-7.887-12.134-4.27,0,0-4.1,9.759-9.776,23.461C723.216,811.238,728.611,813.413,732.455,811.644Z" transform="translate(-332.928 -309.712)" fill="#f19c61"/>
    <path id="Trazado_68822" data-name="Trazado 68822" d="M1207.957,1179.049s-19.083,1.6-19.75,6.672.8,14.012,18.816,15.747h18.661s-5.583-15.48-5.316-16.014S1207.957,1179.049,1207.957,1179.049Z" transform="translate(-678.864 -601.143)" fill="#f3aa78"/>
    <path id="Trazado_68823" data-name="Trazado 68823" d="M1139.411,1094.125a5.177,5.177,0,0,0-2.017,7.17c8.782,15.145,43.7,75.334,46.847,80.231,3.6,5.6,12.411,18.817,41.636,25.622s41.235,26.423,41.235,26.423h90.077s-21.218-33.629-38.833-120.9c0,0-13.612-72.462-39.234-70.06,0,0-15.613-16.414-30.826-13.212,0,0-28.825-17.215-45.239-17.215l-39.427-46.6a11.408,11.408,0,0,0-15.578-1.844,7.469,7.469,0,0,0-3.046,4.8c-1.2,7.607,8.808,26.823,24.821,50.043s55.648,96.883,38.433,129.311a174.147,174.147,0,0,1-32.828-34.429C1162.693,1095.7,1147.708,1089.722,1139.411,1094.125Z" transform="translate(-640.936 -440.572)" fill="#f7c29e"/>
    <path id="Trazado_68824" data-name="Trazado 68824" d="M1390.323,1155.079a164.261,164.261,0,0,1,14.766,14.44,170.46,170.46,0,0,1,18.787,24.689c5.847,9.636,9.7,18.085,11.53,28.7l-.118.024c-2.1-9.967-7.588-20.7-12.368-28.119a208.155,208.155,0,0,0-18.545-24.667c-4.193-4.836-9.511-10.549-14.134-14.974Z" transform="translate(-828.056 -583.453)" fill="#f19c61"/>
    <path id="Trazado_68825" data-name="Trazado 68825" d="M1561.512,1220.239a44.5,44.5,0,0,1,11.407,8.651,55.212,55.212,0,0,1,8.644,11.531,56.35,56.35,0,0,1,5.411,13.355,54.456,54.456,0,0,1,1.811,14.2l-.12.01a69.894,69.894,0,0,0-2.6-13.94,63.242,63.242,0,0,0-5.552-13.033,61.781,61.781,0,0,0-8.3-11.482,53.268,53.268,0,0,0-10.77-9.186Z" transform="translate(-954.409 -631.541)" fill="#f19c61"/>
    <path id="Trazado_68826" data-name="Trazado 68826" d="M1678.9,1269.855a39.68,39.68,0,0,1,9.424,11.292,50.869,50.869,0,0,1,5.381,13.725,42.752,42.752,0,0,1,1.256,9.715l-.119.016a72.43,72.43,0,0,0-2.044-9.474,66.278,66.278,0,0,0-5.467-13.442,53.758,53.758,0,0,0-8.483-11.745Z" transform="translate(-1041.048 -668.158)" fill="#f19c61"/>
    <path id="Trazado_68827" data-name="Trazado 68827" d="M1157.6,1486.138c.8-4.053-3.924-10.481-8.211-15.33a9.966,9.966,0,0,0-10.616-2.893,5.185,5.185,0,0,0-1.372,6.756c2.36,4.07,6.607,11.393,11.618,20.021C1152.767,1492.781,1156.857,1489.889,1157.6,1486.138Z" transform="translate(-640.94 -813.948)" fill="#f19c61"/>
    <path id="Trazado_68828" data-name="Trazado 68828" d="M1196.851,985.266c2.278-.456,12.61-3.892,11.978-5.775h0l-10.192-12.045a11.608,11.608,0,0,0-7.768-4.059h0l-.048,0c-.083-.007-.27-.021-.531-.021-1.367,0-4.732.391-5.472,4.091-.731,3.654,5.318,12.535,7.985,16.229A4.019,4.019,0,0,0,1196.851,985.266Z" transform="translate(-676.409 -441.966)" fill="#f19c61"/>
    <path id="Trazado_68829" data-name="Trazado 68829" d="M507.6,1758.05c11.289,6.936,47.631,27.674,85.21,32.095,2.2.259,3.75,2.277,3.1,4.02l-6.565,17.584a2.919,2.919,0,0,1-3.211,1.664c-11.075-1.345-56.769-8.223-88.92-33.094a2.879,2.879,0,0,1-1.147-3.226l6.7-17.945C503.392,1757.458,505.758,1756.922,507.6,1758.05Z" transform="translate(-168.046 -1028.004)" fill="#292929"/>
    <path id="Trazado_68830" data-name="Trazado 68830" d="M525.227,1801.575l-.124-.046a1.274,1.274,0,0,1-.748-1.639l2.021-5.414a1.274,1.274,0,0,1,1.639-.748l.124.046a1.274,1.274,0,0,1,.748,1.639l-2.021,5.413A1.274,1.274,0,0,1,525.227,1801.575Z" transform="translate(-188.975 -1054.715)" fill="#141414"/>
    <path id="Trazado_68831" data-name="Trazado 68831" d="M551.026,1817.475l-.124-.046a1.274,1.274,0,0,1-.748-1.639l2.021-5.413a1.274,1.274,0,0,1,1.639-.748l.124.046a1.274,1.274,0,0,1,.748,1.639l-2.021,5.413A1.274,1.274,0,0,1,551.026,1817.475Z" transform="translate(-208.015 -1066.449)" fill="#141414"/>
    <path id="Rectángulo_26481" data-name="Rectángulo 26481" d="M1.34,0h0A1.34,1.34,0,0,1,2.68,1.34V6.986a1.34,1.34,0,0,1-1.34,1.34h0A1.34,1.34,0,0,1,0,6.986V1.34A1.34,1.34,0,0,1,1.34,0Z" transform="translate(351.374 746.872) rotate(20.451)" fill="#141414"/>
    <path id="Trazado_68832" data-name="Trazado 68832" d="M603.459,1846.111l-.124-.047a1.274,1.274,0,0,1-.748-1.639l2.021-5.414a1.274,1.274,0,0,1,1.639-.748l.124.046a1.274,1.274,0,0,1,.748,1.639l-2.021,5.414A1.274,1.274,0,0,1,603.459,1846.111Z" transform="translate(-246.71 -1087.582)" fill="#141414"/>
    <path id="Trazado_68833" data-name="Trazado 68833" d="M629.621,1861.04l-.124-.046a1.274,1.274,0,0,1-.748-1.639l2.021-5.413a1.274,1.274,0,0,1,1.639-.748l.124.046a1.275,1.275,0,0,1,.748,1.639l-2.021,5.414A1.274,1.274,0,0,1,629.621,1861.04Z" transform="translate(-266.018 -1098.599)" fill="#141414"/>
    <path id="Trazado_68834" data-name="Trazado 68834" d="M656.937,1872.878l-.124-.047a1.274,1.274,0,0,1-.748-1.639l2.021-5.413a1.274,1.274,0,0,1,1.639-.748l.124.047a1.274,1.274,0,0,1,.748,1.639l-2.021,5.413A1.274,1.274,0,0,1,656.937,1872.878Z" transform="translate(-286.177 -1107.335)" fill="#141414"/>
    <path id="Trazado_68835" data-name="Trazado 68835" d="M684.791,1883.276l-.124-.046a1.274,1.274,0,0,1-.748-1.639l2.021-5.413a1.274,1.274,0,0,1,1.639-.748l.124.046a1.274,1.274,0,0,1,.748,1.639l-2.021,5.413A1.273,1.273,0,0,1,684.791,1883.276Z" transform="translate(-306.733 -1115.01)" fill="#141414"/>
    <path id="Rectángulo_26482" data-name="Rectángulo 26482" d="M1.34,0h0A1.34,1.34,0,0,1,2.68,1.34V6.986a1.34,1.34,0,0,1-1.34,1.34h0A1.34,1.34,0,0,1,0,6.986V1.34A1.34,1.34,0,0,1,1.34,0Z" transform="translate(387.088 762.322) rotate(20.441)" fill="#141414"/>
    <path id="Trazado_68836" data-name="Trazado 68836" d="M742.726,1898.105l-.124-.046a1.274,1.274,0,0,1-.748-1.639l2.021-5.413a1.274,1.274,0,0,1,1.639-.748l.124.046a1.274,1.274,0,0,1,.748,1.639l-2.021,5.413A1.274,1.274,0,0,1,742.726,1898.105Z" transform="translate(-349.489 -1125.953)" fill="#141414"/>
    <path id="Trazado_68837" data-name="Trazado 68837" d="M771.492,1906.059l-.124-.046a1.274,1.274,0,0,1-.748-1.639l2.021-5.413a1.274,1.274,0,0,1,1.639-.748l.124.046a1.274,1.274,0,0,1,.748,1.639l-2.021,5.413A1.275,1.275,0,0,1,771.492,1906.059Z" transform="translate(-370.718 -1131.823)" fill="#141414"/>
    <path id="Trazado_68838" data-name="Trazado 68838" d="M801.359,1911.065l-.124-.047a1.274,1.274,0,0,1-.748-1.639l2.021-5.413a1.274,1.274,0,0,1,1.639-.748l.124.047a1.274,1.274,0,0,1,.748,1.639L803,1910.317A1.275,1.275,0,0,1,801.359,1911.065Z" transform="translate(-392.76 -1135.518)" fill="#141414"/>
    <path id="Trazado_68839" data-name="Trazado 68839" d="M831.267,1915.963l-.124-.047a1.274,1.274,0,0,1-.748-1.639l2.021-5.413a1.274,1.274,0,0,1,1.639-.748l.124.046a1.274,1.274,0,0,1,.748,1.639l-2.021,5.414A1.274,1.274,0,0,1,831.267,1915.963Z" transform="translate(-414.832 -1139.132)" fill="#141414"/>
    <path id="Trazado_68840" data-name="Trazado 68840" d="M590.746,1828.577l.031-.083a1.588,1.588,0,0,1-.355-.086l-8.893-3.32a1.774,1.774,0,0,1-.95-2.315l8.019-21.479a1.774,1.774,0,0,1,2.235-1.126l8.893,3.32a1.658,1.658,0,0,1,1.015,1.167q1.047.457,2.113.913a3.847,3.847,0,0,0-2.344-4.178l-8.893-3.32a3.938,3.938,0,0,0-4.96,2.5l-8.019,21.479a3.937,3.937,0,0,0,2.109,5.138l8.893,3.32a3.743,3.743,0,0,0,3.839-.828Q592.114,1829.14,590.746,1828.577Z" transform="translate(-228.891 -1057.814)" fill="#ffe3a1"/>
    <path id="Trazado_68841" data-name="Trazado 68841" d="M602.05,1845.786l-3.869-1.444a1.452,1.452,0,0,0-1.013,2.713l3.869,1.444Z" transform="translate(-242.146 -1092.068)" fill="#fff"/>
    <path id="Trazado_68842" data-name="Trazado 68842" d="M1402.524,1783.751H1492.6s-13.911-22.05-28.557-76.773c-6.427,40.294-41.886,37.97-55.958,40.206-16.2,2.574-79.1-10.54-87.911-14.671,3.92,5.981,13.21,18.317,41.113,24.815C1390.514,1764.134,1402.524,1783.751,1402.524,1783.751Z" transform="translate(-776.348 -990.753)" fill="#f7c29e" opacity="0.2" style="mix-blend-mode: multiply;isolation: isolate"/>
    <path id="Trazado_68843" data-name="Trazado 68843" d="M1281.349,1207.342c17.661,28.378,49.348,93.565,33.67,122.006l10.406,10.271s26.29-29.125-15.546-93.355A428.2,428.2,0,0,0,1281.349,1207.342Z" transform="translate(-747.694 -622.023)" fill="#f7c29e" opacity="0.2" style="mix-blend-mode: multiply;isolation: isolate"/>
    <path id="Trazado_68844" data-name="Trazado 68844" d="M772.673,1131.232a19.24,19.24,0,1,1-19.24-19.24A19.24,19.24,0,0,1,772.673,1131.232Z" transform="translate(-343.896 -551.655)" fill="#fff"/>
    <path id="Trazado_68845" data-name="Trazado 68845" d="M768.284,1149.087s-1.908-7.828,2.637-10.761,9.4-3.6,12.714-1.913c4.6,2.342,6.486,8.669,5.015,12.169l-12.2-3.065Z" transform="translate(-368.76 -569.005)"/>
    <g id="Grupo_28996" data-name="Grupo 28996" transform="translate(396.443 569.195)">
      <rect id="Rectángulo_26483" data-name="Rectángulo 26483" width="5.649" height="5.64" transform="translate(10.49 20.076)" fill="#f7c29e"/>
      <path id="Trazado_68846" data-name="Trazado 68846" d="M803.334,1225.808v-3.381h-5.649v2.877A8.28,8.28,0,0,0,803.334,1225.808Z" transform="translate(-787.194 -1202.351)" fill="#f19a5e"/>
      <path id="Trazado_68847" data-name="Trazado 68847" d="M782.693,1155.782a2.1,2.1,0,0,0-1.893.075,10.059,10.059,0,0,0-20.118,0,2.1,2.1,0,0,0-1.893-.075,2.921,2.921,0,0,0,2.525,5.111,1.841,1.841,0,0,0,.424-.291,9.068,9.068,0,0,0,18.007,0,1.841,1.841,0,0,0,.423.291,2.921,2.921,0,0,0,2.525-5.111Z" transform="translate(-757.645 -1145.802)" fill="#f7c29e"/>
      <path id="Trazado_68848" data-name="Trazado 68848" d="M803.986,1208.986a3.527,3.527,0,0,1-6.3.193Z" transform="translate(-787.194 -1192.432)" fill="#fff"/>
    </g>
    <path id="Trazado_68849" data-name="Trazado 68849" d="M768.239,1151.266s7.394-2.24,10.63-5.98c0,0-.916,4.506-1.6,5.225.216.144,7.385-3.342,8.359-6.558s-7.33-4.372-7.33-4.372-2.845,1.211-2.99,1.283-2.812.383-3.119,1.064c-.4.886-2.282.964-2.282.964l-1.19,2.475-.832,2.6Z" transform="translate(-368.76 -572.016)"/>
    <path id="Trazado_68850" data-name="Trazado 68850" d="M746.117,1123.02a8.1,8.1,0,0,0,5.475.36c4.314-1.326,6.023-.812,6.6-.486a1.4,1.4,0,0,0,1.132.147c.425-.142.82-.527.7-1.5a7.84,7.84,0,0,0-3.343-6.435A19.282,19.282,0,0,0,746.117,1123.02Z" transform="translate(-352.695 -553.954)"/>
    <g id="Grupo_28998" data-name="Grupo 28998" transform="translate(402.63 566.614)">
      <g id="Grupo_28997" data-name="Grupo 28997" transform="translate(0)">
        <path id="Trazado_68851" data-name="Trazado 68851" d="M781.336,1138.133v0a.365.365,0,0,1,.089-.525,10.134,10.134,0,0,1,4.8-1.654.367.367,0,0,1,.384.366h0a.365.365,0,0,1-.348.364,9.538,9.538,0,0,0-4.436,1.537A.365.365,0,0,1,781.336,1138.133Z" transform="translate(-781.261 -1135.951)" fill="#7fbf43"/>
      </g>
    </g>
    <g id="Grupo_29000" data-name="Grupo 29000" transform="translate(429.86 430.521)">
      <path id="Trazado_68852" data-name="Trazado 68852" d="M1025.994,616.521H895.363a7.674,7.674,0,0,0-7.675,7.675v54.426a7.675,7.675,0,0,0,7.675,7.675h13.565c-.787,5.992-1.818,14.586-1.252,14.586.6,0,7.185-9.041,11.165-14.586h107.153a7.675,7.675,0,0,0,7.675-7.675V624.2A7.674,7.674,0,0,0,1025.994,616.521Z" transform="translate(-887.034 -616.521)" fill="#5b9dbb"/>
      <circle id="Elipse_3362" data-name="Elipse 3362" cx="19.24" cy="19.24" r="19.24" transform="translate(0 43.276) rotate(-62.53)" fill="#fff"/>
      <g id="Grupo_28999" data-name="Grupo 28999" transform="translate(12.85 19.746)">
        <rect id="Rectángulo_26484" data-name="Rectángulo 26484" width="5.649" height="5.64" transform="translate(10.491 25.03)" fill="#f7c29e"/>
        <path id="Trazado_68853" data-name="Trazado 68853" d="M979.925,790.8v-3.382h-5.649v2.877A8.28,8.28,0,0,0,979.925,790.8Z" transform="translate(-963.786 -762.386)" fill="#f19a5e"/>
        <path id="Trazado_68854" data-name="Trazado 68854" d="M959.284,720.771a2.1,2.1,0,0,0-1.893.075,10.059,10.059,0,0,0-20.118,0,2.1,2.1,0,0,0-1.893-.075,2.921,2.921,0,0,0,2.525,5.111,1.849,1.849,0,0,0,.423-.291,9.068,9.068,0,0,0,18.006,0,1.851,1.851,0,0,0,.424.291,2.921,2.921,0,0,0,2.525-5.111Z" transform="translate(-934.237 -705.837)" fill="#f7c29e"/>
        <path id="Trazado_68855" data-name="Trazado 68855" d="M944.4,694.639s2.835-2.4,9.279-2.012,7.671,3.751,8.036,8.552l-.377,5.714s-1.673-1.72-3.852-6.49c0,0-3.608,4.049-5.179,3.569s.594-3.395.594-3.395-7.351,6.325-11.681,6.316c0,0-2.291-7.4.925-10.118,0,0-2.423.116-2.551-.36s1.156-1.19,3.484-.92c0,0-1.66-3.245-.733-3.583S944.4,694.639,944.4,694.639Z" transform="translate(-938.185 -691.885)" fill="#050505"/>
        <path id="Trazado_68856" data-name="Trazado 68856" d="M980.578,773.976a3.527,3.527,0,0,1-6.3.192Z" transform="translate(-963.786 -752.468)" fill="#fff"/>
      </g>
      <path id="Rectángulo_26485" data-name="Rectángulo 26485" d="M1.671,0H74.9a1.672,1.672,0,0,1,1.672,1.672v0A1.672,1.672,0,0,1,74.9,3.343H1.672A1.672,1.672,0,0,1,0,1.672v0A1.671,1.671,0,0,1,1.671,0Z" transform="translate(51.806 15.684)" fill="#fff"/>
      <rect id="Rectángulo_26486" data-name="Rectángulo 26486" width="18.084" height="3.343" rx="1.672" transform="translate(51.806 24.506)" fill="#fff"/>
      <rect id="Rectángulo_26487" data-name="Rectángulo 26487" width="51.665" height="3.343" rx="1.672" transform="translate(76.715 24.506)" fill="#fff"/>
      <rect id="Rectángulo_26488" data-name="Rectángulo 26488" width="39.558" height="3.343" rx="1.672" transform="translate(51.806 33.328)" fill="#fff"/>
      <path id="Rectángulo_26489" data-name="Rectángulo 26489" d="M1.672,0H29.558A1.672,1.672,0,0,1,31.23,1.672v0a1.672,1.672,0,0,1-1.672,1.672H1.671A1.671,1.671,0,0,1,0,1.672v0A1.672,1.672,0,0,1,1.672,0Z" transform="translate(97.151 33.328)" fill="#fff"/>
      <path id="Rectángulo_26490" data-name="Rectángulo 26490" d="M1.671,0H74.9a1.672,1.672,0,0,1,1.672,1.672v0A1.672,1.672,0,0,1,74.9,3.343H1.671A1.671,1.671,0,0,1,0,1.672v0A1.671,1.671,0,0,1,1.671,0Z" transform="translate(51.806 42.15)" fill="#fff"/>
    </g>
    <path id="Rectángulo_26491" data-name="Rectángulo 26491" d="M1.672,0H24.1a1.672,1.672,0,0,1,1.672,1.672v0A1.671,1.671,0,0,1,24.1,3.343H1.672A1.672,1.672,0,0,1,0,1.672v0A1.672,1.672,0,0,1,1.672,0Z" transform="translate(432.529 563.001)" fill="#fff"/>
    <path id="Rectángulo_26492" data-name="Rectángulo 26492" d="M1.671,0H15.739A1.671,1.671,0,0,1,17.41,1.671v0a1.671,1.671,0,0,1-1.671,1.671H1.672A1.672,1.672,0,0,1,0,1.671v0A1.671,1.671,0,0,1,1.671,0Z" transform="translate(432.529 571.823)" fill="#fff"/>
    <path id="Rectángulo_26493" data-name="Rectángulo 26493" d="M1.671,0H19.754a1.671,1.671,0,0,1,1.671,1.671v0a1.671,1.671,0,0,1-1.671,1.671H1.672A1.672,1.672,0,0,1,0,1.671v0A1.671,1.671,0,0,1,1.671,0Z" transform="translate(452.942 571.823)" fill="#fff"/>
    <path id="Rectángulo_26494" data-name="Rectángulo 26494" d="M1.672,0H27.21a1.672,1.672,0,0,1,1.672,1.672v0A1.672,1.672,0,0,1,27.21,3.343H1.672A1.672,1.672,0,0,1,0,1.672v0A1.672,1.672,0,0,1,1.672,0Z" transform="translate(477.369 571.823)" fill="#fff"/>
    <path id="Rectángulo_26495" data-name="Rectángulo 26495" d="M1.672,0H42a1.672,1.672,0,0,1,1.672,1.672v0A1.671,1.671,0,0,1,42,3.343H1.671A1.671,1.671,0,0,1,0,1.672v0A1.672,1.672,0,0,1,1.672,0Z" transform="translate(462.575 563.001)" fill="#fff"/>
    <path id="Rectángulo_26496" data-name="Rectángulo 26496" d="M1.671,0H72.049a1.672,1.672,0,0,1,1.672,1.672v0a1.672,1.672,0,0,1-1.672,1.672H1.671A1.671,1.671,0,0,1,0,1.672v0A1.671,1.671,0,0,1,1.671,0Z" transform="translate(432.529 589.115)" fill="#fff"/>
    <path id="Rectángulo_26497" data-name="Rectángulo 26497" d="M1.671,0H36.413a1.672,1.672,0,0,1,1.672,1.672v0a1.672,1.672,0,0,1-1.672,1.672H1.671A1.671,1.671,0,0,1,0,1.672v0A1.671,1.671,0,0,1,1.671,0Z" transform="translate(432.529 580.645)" fill="#fff"/>
    <rect id="Rectángulo_26498" data-name="Rectángulo 26498" width="30.066" height="3.343" rx="1.672" transform="translate(476.184 580.645)" fill="#fff"/>
    <g id="Grupo_29004" data-name="Grupo 29004" transform="translate(306.927 566.453)">
      <g id="Grupo_29001" data-name="Grupo 29001" transform="translate(9.398 0)">
        <path id="Trazado_68857" data-name="Trazado 68857" d="M455.3,1138.712a18.382,18.382,0,0,0-3.439-2.4l.48-.973a19.227,19.227,0,0,1,3.668,2.552Z" transform="translate(-451.86 -1135.338)" fill="#292929"/>
      </g>
      <g id="Grupo_29002" data-name="Grupo 29002" transform="translate(0 9.134)">
        <path id="Trazado_68858" data-name="Trazado 68858" d="M430.548,1269.246a69.492,69.492,0,0,1-5.275-6.36l.876-.639a68.475,68.475,0,0,0,5.193,6.26ZM420.9,1255.86a45.143,45.143,0,0,1-3.138-7.674l1.038-.314a44.1,44.1,0,0,0,3.063,7.489Zm-4.732-15.818c-.117-1.264-.176-2.56-.176-3.849,0-1.458.076-2.953.226-4.445l1.079.108c-.146,1.456-.22,2.916-.22,4.337,0,1.256.058,2.518.171,3.75Zm2.6-16.161-1.049-.277a70.147,70.147,0,0,1,2.6-7.844l1.01.4A68.942,68.942,0,0,0,418.764,1223.881Zm5.87-15.186-.975-.475c1.054-2.164,2.254-4.487,3.777-7.31l.955.515C426.876,1204.234,425.682,1206.545,424.635,1208.695Zm7.693-14.475-.958-.51.031-.056a38.871,38.871,0,0,0,3.141-7.377l1.04.31a39.956,39.956,0,0,1-3.23,7.589Zm3.319-15.859a18.631,18.631,0,0,0-1.918-7.677l.972-.483a19.7,19.7,0,0,1,2.031,8.122Z" transform="translate(-415.989 -1170.201)" fill="#292929"/>
      </g>
      <g id="Grupo_29003" data-name="Grupo 29003" transform="translate(20.487 113.146)">
        <path id="Trazado_68859" data-name="Trazado 68859" d="M497.5,1570.828c-1.143-.937-2.259-1.891-3.317-2.833l.722-.81c1.047.933,2.152,1.876,3.283,2.8Z" transform="translate(-494.181 -1567.185)" fill="#292929"/>
      </g>
    </g>
    <g id="Grupo_29005" data-name="Grupo 29005" transform="translate(268.208 530.629)">
      <path id="Trazado_68860" data-name="Trazado 68860" d="M312.621,1019.446l-1.436,17.474-10.15-11.431L268.208,998.6l27.993,8.819s13.782,6.7,14.414,7.579A36.2,36.2,0,0,1,312.621,1019.446Z" transform="translate(-268.208 -998.604)" fill="#00223d"/>
      <path id="Trazado_68861" data-name="Trazado 68861" d="M327.5,1011.937,268.208,998.6l44.412,20.842Z" transform="translate(-268.208 -998.604)" fill="#5b9dbb"/>
      <path id="Trazado_68862" data-name="Trazado 68862" d="M289.82,1032.385l18.274-9.118L268.208,998.6Z" transform="translate(-268.208 -998.604)" fill="#5b9dbb"/>
    </g>
  </g>
</svg>
