<svg xmlns="http://www.w3.org/2000/svg" width="152.443" height="190.36" viewBox="0 0 152.443 190.36">
  <g id="Grupo_3490" data-name="Grupo 3490" transform="translate(-615.88 -4288.268)">
    <path id="Trazado_7796" data-name="Trazado 7796" d="M721.1,4260.082q3.746,0,7.471.367t7.4,1.1q3.673.731,7.256,1.817t7.043,2.521q3.459,1.433,6.762,3.2t6.416,3.845q3.113,2.081,6.008,4.456t5.542,5.023q2.648,2.648,5.023,5.543t4.456,6.008q2.081,3.113,3.846,6.416t3.2,6.761q1.433,3.461,2.52,7.043t1.817,7.256q.73,3.672,1.1,7.4t.367,7.471q0,3.743-.367,7.471t-1.1,7.4q-.73,3.674-1.817,7.256t-2.52,7.043q-1.434,3.458-3.2,6.762t-3.846,6.415q-2.08,3.114-4.456,6.009T775,4390.2q-2.648,2.647-5.542,5.023t-6.008,4.456q-3.114,2.08-6.416,3.846t-6.762,3.2q-3.459,1.434-7.043,2.521t-7.256,1.817q-3.672.73-7.4,1.1t-7.471.368q-3.744,0-7.471-.368t-7.4-1.1q-3.672-.73-7.256-1.817t-7.043-2.521q-3.459-1.433-6.761-3.2t-6.416-3.846q-3.114-2.081-6.008-4.456T667.2,4390.2q-2.647-2.648-5.023-5.542t-4.456-6.009q-2.08-3.112-3.845-6.415t-3.2-6.762q-1.434-3.459-2.52-7.043t-1.818-7.256q-.73-3.672-1.1-7.4t-.367-7.471q0-3.744.367-7.471t1.1-7.4q.73-3.672,1.818-7.256t2.52-7.043q1.433-3.458,3.2-6.761t3.845-6.416q2.081-3.114,4.456-6.008t5.023-5.543q2.649-2.647,5.543-5.023t6.008-4.456q3.113-2.08,6.416-3.845t6.761-3.2q3.461-1.433,7.043-2.521t7.256-1.817q3.673-.73,7.4-1.1T721.1,4260.082Z" transform="translate(-29 66.102)" fill="#93e0fe"/>
    <circle id="Elipse_710" data-name="Elipse 710" cx="71.597" cy="71.597" r="71.597" transform="translate(621.125 4331.43)" fill="#fff"/>
    <g id="Grupo_2860" data-name="Grupo 2860" transform="translate(-29 66.102)">
      <g id="Grupo_3489" data-name="Grupo 3489">
        <g id="Grupo_2859" data-name="Grupo 2859">
          <ellipse id="Elipse_711" data-name="Elipse 711" cx="65.13" cy="65.352" rx="65.13" ry="65.352" transform="translate(656.592 4271.351)" fill="#f2f2f2"/>
        </g>
      </g>
    </g>
    <g id="Grupo_2875" data-name="Grupo 2875" transform="translate(-29 66.102)">
      <path id="Trazado_7797" data-name="Trazado 7797" d="M710.63,4347.333l11.016-4.254,2.258,5.139-1.77.852s-1.072-.86-2.072.794c-1.048,1.728-4.015,3.492-4.015,3.492Z" fill="#f0b991"/>
      <g id="Grupo_2862" data-name="Grupo 2862">
        <path id="Trazado_7798" data-name="Trazado 7798" d="M722.137,4349.238a3.7,3.7,0,0,1,2.523.308,16.018,16.018,0,0,1,3.789,2.48,2.823,2.823,0,0,0,2.58.128s.466-1.341-1.247-5.1c-1.311-2.874-5.237-2-6.27-4.264-.3-.663-1.3-.653-1.814-.424-.389.18-1.343,1.193-1.826,1.415-.145.064.126.237.126.237a13.9,13.9,0,0,1,1.486,1.136c.823.687,1.513,3.428.8,3.8C722.006,4349.088,722.137,4349.238,722.137,4349.238Z" fill="#3c3c3b"/>
        <g id="Grupo_2861" data-name="Grupo 2861">
          <path id="Trazado_7799" data-name="Trazado 7799" d="M730.97,4352.22a.406.406,0,0,0,.076-.071s.466-1.341-1.249-5.1c-1.311-2.874-5.237-2-6.27-4.264-.3-.663-1.307-.655-1.817-.426l-.064.044a4.963,4.963,0,0,1,.856-.685c.51-.232,1.518-.224,1.833.463,1.075,2.362,5.013,1.514,6.376,4.5,1.785,3.912,1.339,5.289,1.339,5.289C731.921,4352.151,731.468,4352.23,730.97,4352.22Z" fill="#c6c6c5"/>
        </g>
      </g>
      <path id="Trazado_7800" data-name="Trazado 7800" d="M719.093,4348.716c-.641,3.292-2.263,5.091-5.407,5.091h0c-3.37,0-3.956-1.131-5.3-5.091-1.656-4.858-.8-20.62-.8-20.62,0-2.812,2.73-5.091,6.1-5.091h0c3.369,0,6.1,2.279,6.1,5.091C719.786,4328.1,720.079,4343.666,719.093,4348.716Z" fill="#f9c69d"/>
      <path id="Trazado_7801" data-name="Trazado 7801" d="M724.311,4357.2a50.084,50.084,0,0,0,1.787,13.627c1.15,4.133-1.558,10.485-2.1,12.069l4.2,1.462,3.441-1.112s2.048-15.655,3.1-19.65a46.69,46.69,0,0,0,.949-5.876Z" fill="#f9c69d"/>
      <path id="Trazado_7802" data-name="Trazado 7802" d="M724.533,4348.163a63.564,63.564,0,0,0-.215,8.831l11.5-.281c.175-4.673.153-10.085.106-13.055-.076-4.831-.806-14.287-.633-15.525s.988-8.692.495-13.24l-13.62.328s.254,12.235,1.1,15.434A56.768,56.768,0,0,1,724.533,4348.163Z" fill="#f9c69d"/>
      <path id="Trazado_7803" data-name="Trazado 7803" d="M722.129,4250.128h-6.834v7.717c0,2.095,3.736,6.127,6.83,6.127h.014c3.093,0,6.83-4.032,6.83-6.127v-7.717Z" fill="#f9c69d"/>
      <path id="Trazado_7804" data-name="Trazado 7804" d="M722.294,4255.469c2.1,0,4.649-1.314,6.675-4.155v-1.474H715.295v1.624C717.56,4254.042,720.271,4255.469,722.294,4255.469Z" fill="#ececec"/>
      <path id="Trazado_7805" data-name="Trazado 7805" d="M722.294,4225.879s10.179-.666,10.179,11.509-5.991,17.408-10.179,17.408-11.319-6.087-11.319-15.887S715.539,4226.162,722.294,4225.879Z" fill="#f9c69d"/>
      <path id="Trazado_7806" data-name="Trazado 7806" d="M732.015,4239.146s.3-2.009,1.385-1.745.988,3.295,0,4.776-1.55,1.021-1.55,1.021" fill="#f9c69d"/>
      <path id="Trazado_7807" data-name="Trazado 7807" d="M711.275,4239.146s-.3-2.009-1.4-1.745-.993,3.295,0,4.776,1.558,1.021,1.558,1.021" fill="#f9c69d"/>
      <g id="Grupo_2864" data-name="Grupo 2864">
        <path id="Trazado_7808" data-name="Trazado 7808" d="M731.889,4382.537a4.859,4.859,0,0,0,.952,3.205,21.277,21.277,0,0,0,4.042,4.364c.682.471,1.168,2.864.732,3.315,0,0-1.634.9-6.882-.5-4.01-1.07-3.731-6.347-6.9-7.189-.924-.247-1.131-1.546-.942-2.255.146-.545,1.248-2,1.428-2.677.054-.2.335.113.335.113a17.681,17.681,0,0,0,1.8,1.674c1.067.917,4.771,1.212,5.089.207C731.667,4382.4,731.889,4382.537,731.889,4382.537Z" fill="#3c3c3b"/>
        <g id="Grupo_2863" data-name="Grupo 2863">
          <path id="Trazado_7809" data-name="Trazado 7809" d="M737.684,4393.325a.492.492,0,0,1-.074.118s-1.634.9-6.882-.5c-4.012-1.068-3.731-6.347-6.9-7.19-.924-.246-1.131-1.545-.944-2.255a.809.809,0,0,1,.039-.1,6.754,6.754,0,0,0-.7,1.26c-.188.707.041,2.016,1.005,2.27,3.288.877,3.056,6.166,7.226,7.278,5.457,1.454,7.148.571,7.148.571A2,2,0,0,0,737.684,4393.325Z" fill="#c6c6c5"/>
        </g>
      </g>
      <g id="Grupo_2865" data-name="Grupo 2865">
        <path id="Trazado_7810" data-name="Trazado 7810" d="M721.779,4337.381l.222-18.142.394,18.137h14.549l-.6-29.607h-28.8l-.434,30.339Z" fill="#2d2d2b"/>
      </g>
      <g id="Grupo_2866" data-name="Grupo 2866">
        <path id="Trazado_7811" data-name="Trazado 7811" d="M738.3,4262.779a103,103,0,0,0-9.328-5.107s-2.376,4.351-6.6,4.351c-4.826,0-7.071-4.351-7.071-4.351-2.7,1.447-7.019,2.842-10.09,4.912l2.363,15.979-.456,37.632h29.832l-.86-37.632Z" fill="#0071a1"/>
      </g>
      <path id="Trazado_7812" data-name="Trazado 7812" d="M732.239,4231.984a11.842,11.842,0,0,0-4.143-5.252,16.354,16.354,0,0,0-3.248-3.155,4.3,4.3,0,0,1,.611,1.466,4.253,4.253,0,0,0-1.636-1.678,4.02,4.02,0,0,1-1.482-1.2s-.443,1.464-1.19,1.626a1.549,1.549,0,0,0,.579-.983,13.381,13.381,0,0,1-4.606,2.768c-.161.061-.326.13-.493.2l-.119.05.006,0a10.577,10.577,0,0,0-5.339,5.69,10.275,10.275,0,0,0-.9,4.094h0a8.9,8.9,0,0,0,.194,2.014c.022.111.064.379.082.507a16.984,16.984,0,0,0,1.232,4.318s.286-1.123.619-1.276c.2-.091-.851-2.675-.528-5.011h0c.246-1.151,1.247-3.9,2.006-4.227,2.043-.88,3.551,2.2,7.9,2.238h.032c4.35-.042,5.839-3.068,7.9-2.238,2.467.994,2.055,8.471,2.255,8.562.33.153.327,1.22.327,1.22A11.317,11.317,0,0,0,732.239,4231.984Z" fill="#62300e"/>
      <path id="Trazado_7813" data-name="Trazado 7813" d="M735.818,4356.713l-.13,1.008-11.377-.52v-.409Z" fill="#f9c69d"/>
      <g id="Grupo_2870" data-name="Grupo 2870">
        <path id="Trazado_7814" data-name="Trazado 7814" d="M687.541,4282.016l15.566-17.891a4.657,4.657,0,0,1,7.412,5.641s-9.021,8.626-16.728,17.327C693.791,4287.093,687.987,4283.038,687.541,4282.016Z" fill="#f9c69d"/>
        <path id="Trazado_7815" data-name="Trazado 7815" d="M709.631,4263.24a4.657,4.657,0,0,0-6.524.885l-7.559,7.458c2.241,2.893,3.944,4.259,6.379,7.882,5.636-6.367,8.592-9.7,8.592-9.7A4.658,4.658,0,0,0,709.631,4263.24Z" fill="#0071a1"/>
        <g id="Grupo_2868" data-name="Grupo 2868">
          <g id="Grupo_2867" data-name="Grupo 2867">
            <path id="Trazado_7816" data-name="Trazado 7816" d="M690.43,4282.37s11.024,10.391,18.467,14.99l-1.713,3.687c-11.187-6.285-14.529-6.659-21.036-13.471-1.419-1.487-.221-3.5-.221-3.5C687.033,4282.094,687.94,4281.126,690.43,4282.37Z" fill="#f9c69d"/>
          </g>
        </g>
        <g id="Grupo_2869" data-name="Grupo 2869">
          <path id="Trazado_7817" data-name="Trazado 7817" d="M711.135,4296.448h0l2.487-1.584c.4-.249,1.163-.735,1.163-.735s1.07,1.294-.032,2.058l-1.787,1.141,3.266,1.57,1.229.592a.664.664,0,0,1,.313.894l-.1.217a.674.674,0,0,1-.9.316l-1.23-.594-.044.088,1.232.592a.67.67,0,0,1,.313.9l-.106.216a.669.669,0,0,1-.894.313l-1.23-.589-.049.1,1.229.591a.664.664,0,0,1,.313.893l-.1.219a.676.676,0,0,1-.895.316l-1.23-.595-.049.1,1.23.591a.669.669,0,0,1,.315.892l-.106.22a.666.666,0,0,1-.894.313l-1.228-.592-2.361-1.134-1.089-.522-3.547-2.728,1.644-3.72Z" fill="#f9c69d"/>
        </g>
      </g>
      <g id="Grupo_2874" data-name="Grupo 2874">
        <path id="Trazado_7818" data-name="Trazado 7818" d="M752.272,4285.959l-11.436-20.269a4.567,4.567,0,0,0-6.1-2.137c-2.275,1.092-2.767,3.744-1.678,6.019,0,0,5.937,10.134,12.2,20.035C745.257,4289.607,751.638,4286.856,752.272,4285.959Z" fill="#f9c69d"/>
        <g id="Grupo_2872" data-name="Grupo 2872">
          <g id="Grupo_2871" data-name="Grupo 2871">
            <path id="Trazado_7819" data-name="Trazado 7819" d="M749.726,4303.283c1.072-5.521,3.534-12.826,3.058-16.254-.337-2.4-3.071-2.763-3.071-2.763-2.639-.427-4.2-.3-4.872,2.913,0,0,0,7.611.784,15.818Z" fill="#f9c69d"/>
          </g>
        </g>
        <path id="Trazado_7820" data-name="Trazado 7820" d="M746.154,4274.422l-5.348-9.173a4.656,4.656,0,1,0-8.626,3.507s2.132,2.57,5.844,10.06C741.183,4276.9,746.073,4274.42,746.154,4274.422Z" fill="#0071a1"/>
        <g id="Grupo_2873" data-name="Grupo 2873">
          <path id="Trazado_7821" data-name="Trazado 7821" d="M743.746,4305.213h0l-2.629,1.33-1.228.626s.562,1.578,1.785,1.023l1.895-.954-.318,3.606-.123,1.363a.674.674,0,0,0,.611.725l.242.022a.675.675,0,0,0,.727-.609l.118-1.36.1.007-.121,1.363a.664.664,0,0,0,.609.724l.239.023a.672.672,0,0,0,.727-.609l.121-1.36.116.009-.121,1.361a.673.673,0,0,0,.608.727l.242.02a.671.671,0,0,0,.727-.607l.116-1.36.113.007-.121,1.361a.67.67,0,0,0,.609.727l.242.022a.671.671,0,0,0,.727-.609l.121-1.36.229-2.608.106-1.2-.53-4.444-4.04-.486Z" fill="#f9c69d"/>
        </g>
      </g>
    </g>
  </g>
</svg>
