<svg xmlns="http://www.w3.org/2000/svg" width="165.325" height="210.358" viewBox="0 0 165.325 210.358">
  <g id="Grupo_3488" data-name="Grupo 3488" transform="translate(-631.998 -4999.092)">
    <path id="Trazado_7822" data-name="Trazado 7822" d="M721.1,5057.007q3.746,0,7.471.367t7.4,1.1q3.673.73,7.256,1.817t7.043,2.52q3.459,1.434,6.762,3.2t6.416,3.846q3.113,2.081,6.008,4.456t5.542,5.023q2.648,2.648,5.023,5.542t4.456,6.008q2.081,3.114,3.846,6.416t3.2,6.762q1.433,3.459,2.52,7.043t1.817,7.256q.73,3.672,1.1,7.4t.367,7.471q0,3.744-.367,7.471t-1.1,7.4q-.73,3.672-1.817,7.256t-2.52,7.043q-1.434,3.459-3.2,6.761t-3.846,6.416q-2.08,3.114-4.456,6.008T775,5187.125q-2.648,2.649-5.542,5.024t-6.008,4.455q-3.114,2.082-6.416,3.846t-6.762,3.2q-3.459,1.433-7.043,2.52t-7.256,1.818q-3.672.731-7.4,1.1t-7.471.367q-3.744,0-7.471-.367t-7.4-1.1q-3.672-.73-7.256-1.818t-7.043-2.52q-3.459-1.433-6.761-3.2t-6.416-3.846q-3.114-2.079-6.008-4.455t-5.543-5.024q-2.647-2.648-5.023-5.542t-4.456-6.008q-2.08-3.114-3.845-6.416t-3.2-6.761q-1.434-3.461-2.52-7.043t-1.818-7.256q-.73-3.672-1.1-7.4t-.367-7.471q0-3.746.367-7.471t1.1-7.4q.73-3.673,1.818-7.256t2.52-7.043q1.433-3.459,3.2-6.762t3.845-6.416q2.081-3.112,4.456-6.008t5.023-5.542q2.649-2.648,5.543-5.023t6.008-4.456q3.113-2.081,6.416-3.846t6.761-3.2q3.461-1.433,7.043-2.52t7.256-1.817q3.673-.731,7.4-1.1T721.1,5057.007Z" fill="#93e0fe"/>
    <circle id="Elipse_712" data-name="Elipse 712" cx="71.597" cy="71.597" r="71.597" transform="translate(650.125 5062.253)" fill="#fff"/>
    <g id="Grupo_2877" data-name="Grupo 2877">
      <g id="Grupo_2876" data-name="Grupo 2876">
        <ellipse id="Elipse_713" data-name="Elipse 713" cx="65.13" cy="65.352" rx="65.13" ry="65.352" transform="translate(656.592 5068.276)" fill="#f2f2f2"/>
      </g>
    </g>
    <g id="Grupo_2896" data-name="Grupo 2896">
      <g id="Grupo_2880" data-name="Grupo 2880">
        <path id="Trazado_7823" data-name="Trazado 7823" d="M726.843,5091.7s5.888,12.3,8.212,15.16a63.207,63.207,0,0,1,9.358,17.188,60.436,60.436,0,0,0,13.442,22.643c3.328,3.445,4.037,11.1,4.348,12.949l4.892-.8,2.79-2.911s-6.3-16.431-7.394-20.907-6.292-15.926-8.594-20.794-7.4-14.13-7.788-15.463-3-9.282-5.592-13.674Z" fill="#f9c69d"/>
        <g id="Grupo_2879" data-name="Grupo 2879">
          <path id="Trazado_7824" data-name="Trazado 7824" d="M769.653,5154.883a5.408,5.408,0,0,0,2.85,2.4,23.949,23.949,0,0,0,6.437,1.585c.919.02,2.842,1.947,2.714,2.637,0,0-.971,1.836-6.714,3.751-4.387,1.464-7.364-3.615-10.827-2.464-1.016.337-2-.742-2.265-1.516-.2-.6-.062-2.627-.306-3.372-.074-.219.382-.1.382-.1a20,20,0,0,0,2.694.456c1.558.2,5.186-1.8,4.865-2.93C769.363,5154.9,769.653,5154.883,769.653,5154.883Z" fill="#93c01f"/>
          <g id="Grupo_2878" data-name="Grupo 2878">
            <path id="Trazado_7825" data-name="Trazado 7825" d="M781.656,5161.372a.444.444,0,0,1,0,.155s-.966,1.834-6.714,3.749c-4.384,1.466-7.359-3.618-10.822-2.462-1.01.34-2.006-.74-2.27-1.513,0-.035-.009-.082-.014-.116a6.854,6.854,0,0,0,.12,1.6c.259.779,1.275,1.853,2.327,1.5,3.6-1.205,6.627,3.862,11.189,2.334,5.974-1.989,7-3.842,7-3.842C782.536,5162.461,782.166,5161.9,781.656,5161.372Z" fill="#2d2d2b"/>
          </g>
        </g>
      </g>
      <g id="Grupo_2883" data-name="Grupo 2883">
        <path id="Trazado_7826" data-name="Trazado 7826" d="M730.246,5102.022s-6.255,12.162-8.862,14.77a63.366,63.366,0,0,0-11.052,16.151,60.475,60.475,0,0,1-15.68,21.156c-3.65,3.086-5.151,10.637-5.639,12.437l-4.783-1.292-2.482-3.177s7.948-15.714,9.481-20.052,7.882-15.2,10.667-19.808,8.8-13.307,9.321-14.593,3.931-8.925,6.958-13.031Z" fill="#f9c69d"/>
        <g id="Grupo_2882" data-name="Grupo 2882">
          <path id="Trazado_7827" data-name="Trazado 7827" d="M682.088,5161.049a5.376,5.376,0,0,1-3.076,2.1,23.845,23.845,0,0,1-6.566.924c-.924-.079-3.026,1.646-2.972,2.346,0,0,.781,1.925,6.295,4.417,4.217,1.9,7.7-2.854,11.024-1.348.969.436,2.068-.54,2.4-1.282.257-.574.328-2.612.651-3.322.1-.215-.367-.133-.367-.133a20.693,20.693,0,0,1-2.733.177c-1.568.035-4.977-2.319-4.543-3.411C682.371,5161.093,682.088,5161.049,682.088,5161.049Z" fill="#93c01f"/>
          <g id="Grupo_2881" data-name="Grupo 2881">
            <path id="Trazado_7828" data-name="Trazado 7828" d="M669.484,5166.289a.4.4,0,0,0-.018.15s.782,1.925,6.293,4.414c4.219,1.9,7.692-2.846,11.024-1.348.968.441,2.07-.532,2.4-1.284a.557.557,0,0,0,.037-.1,7.94,7.94,0,0,1-.281,1.575c-.338.744-1.459,1.713-2.467,1.257-3.465-1.563-6.99,3.167-11.367,1.188-5.745-2.591-6.578-4.543-6.578-4.543C668.5,5167.277,668.924,5166.755,669.484,5166.289Z" fill="#2d2d2b"/>
          </g>
        </g>
      </g>
      <g id="Grupo_2886" data-name="Grupo 2886">
        <path id="Trazado_7829" data-name="Trazado 7829" d="M675.056,5044.872,673.346,5070a4.812,4.812,0,0,0,4.308,5.271c2.642.267,4.55-1.851,4.808-4.49,0,0,1.087-14.388.893-26.729C683.355,5044.056,676.116,5044.418,675.056,5044.872Z" fill="#f9c69d"/>
        <g id="Grupo_2885" data-name="Grupo 2885">
          <g id="Grupo_2884" data-name="Grupo 2884">
            <path id="Trazado_7830" data-name="Trazado 7830" d="M679.374,5019.087c1.109,6.088,4.092,22.68,3.971,26.248-.089,2.49-2.467,3.4-3.746,3.5-2.65.234-3.983-.619-4.587-3.936-1.085-5.955-.74-16.311-.821-24.784Z" fill="#f9c69d"/>
          </g>
        </g>
        <path id="Trazado_7831" data-name="Trazado 7831" d="M673.518,5058.1l-.392,11.056c-.369,3.47,1.745,5.91,4.4,6.357a4.763,4.763,0,0,0,5.533-3.944s.173-5.309.846-13.917A99.959,99.959,0,0,0,673.518,5058.1Z" fill="#93c01f"/>
        <path id="Trazado_7832" data-name="Trazado 7832" d="M677.659,4999.417l-.284.229a.889.889,0,0,1,.661.35,1.221,1.221,0,0,1-.259,1.629l-3.423,2.78.269,2.337h0a5.985,5.985,0,0,0,.961,2.109h0c.064.087.133.166.2.245a.3.3,0,0,1,.042.032,1.113,1.113,0,0,0,.2.177c.02.007.039.032.056.044a2.419,2.419,0,0,0,.208.128.259.259,0,0,0,.076.042,1.92,1.92,0,0,0,.3.111,3.69,3.69,0,0,1-.877-2.25l-.4-3.411,3.559-2.891a1.239,1.239,0,0,0,.257-1.636A1.058,1.058,0,0,0,677.659,4999.417Z" fill="#f8be99"/>
        <path id="Trazado_7833" data-name="Trazado 7833" d="M676.479,4999.964l-4.018,3.266a1.285,1.285,0,0,0-.414,1.276l.468,4.06a.137.137,0,0,0,0,.041l.035.227.029.249a1.428,1.428,0,0,0,.067.284l1.141,6.139.429,4.907,5.254-.818.341-5.05c.263-.222-.131-3.766-.131-3.766s.061-2.425.035-2.7l-.469-3.965a1.282,1.282,0,0,0-1.385-1.154,1.269,1.269,0,0,0-1.067,1.435l.439,3.719c.022.606.315,1.442-.409,1.526a.323.323,0,0,1-.151-.013c-1.508-.379-2.05-2.888-2.05-2.888h0l-.269-2.337,3.423-2.78a1.221,1.221,0,0,0,.259-1.629A1.057,1.057,0,0,0,676.479,4999.964Z" fill="#f9c69d"/>
      </g>
      <g id="Grupo_2889" data-name="Grupo 2889">
        <path id="Trazado_7834" data-name="Trazado 7834" d="M675.214,5121.034l-2.8-25.026a4.81,4.81,0,0,1,4.077-5.454c2.629-.38,4.616,1.646,5,4.276,0,0,1.71,14.327,2.051,26.667C683.545,5121.5,676.291,5121.448,675.214,5121.034Z" fill="#f9c69d"/>
        <g id="Grupo_2888" data-name="Grupo 2888">
          <g id="Grupo_2887" data-name="Grupo 2887">
            <path id="Trazado_7835" data-name="Trazado 7835" d="M680.651,5146.614c.838-6.142,3.1-22.84,2.822-26.394-.19-2.484-2.608-3.293-3.887-3.344-2.657-.118-3.953.786-4.412,4.133-.835,6-.034,16.321.252,24.8Z" fill="#f9c69d"/>
          </g>
        </g>
        <path id="Trazado_7836" data-name="Trazado 7836" d="M673.1,5107.89l-.862-11.027a5.5,5.5,0,0,1,4.113-6.541,4.76,4.76,0,0,1,5.7,3.7s.4,5.291,1.452,13.859A99.967,99.967,0,0,1,673.1,5107.89Z" fill="#93c01f"/>
        <path id="Trazado_7837" data-name="Trazado 7837" d="M679.788,5166.338l-.291-.221a.894.894,0,0,0,.649-.373,1.229,1.229,0,0,0-.326-1.619l-3.549-2.632.173-2.337h0a5.984,5.984,0,0,1,.86-2.154h0c.064-.086.136-.172.2-.251a.162.162,0,0,0,.042-.04c.062-.059.123-.123.187-.174a.751.751,0,0,0,.062-.057c.064-.045.136-.094.207-.136a.421.421,0,0,1,.071-.039,1.753,1.753,0,0,1,.291-.128,3.7,3.7,0,0,0-.776,2.287l-.249,3.423,3.675,2.733a1.23,1.23,0,0,1,.323,1.627A1.056,1.056,0,0,1,679.788,5166.338Z" fill="#f8be99"/>
        <path id="Trazado_7838" data-name="Trazado 7838" d="M678.595,5165.84l-4.155-3.085a1.29,1.29,0,0,1-.48-1.262l.3-4.074c-.01-.02-.015-.035-.01-.047l.022-.217.025-.251a1.077,1.077,0,0,1,.054-.289l.86-6.183.222-4.92,5.281.589.58,5.033c.256.212.022,3.761.022,3.761s.17,2.423.143,2.7l-.289,3.978a1.29,1.29,0,0,1-1.34,1.215,1.265,1.265,0,0,1-1.117-1.388l.269-3.736c-.005-.607.249-1.452-.473-1.5a.315.315,0,0,0-.151.017c-1.488.441-1.917,2.979-1.917,2.979h0l-.173,2.337,3.549,2.632a1.229,1.229,0,0,1,.326,1.619A1.055,1.055,0,0,1,678.595,5165.84Z" fill="#f9c69d"/>
      </g>
      <path id="Trazado_7839" data-name="Trazado 7839" d="M726.843,5074.7s11.256,2.62,15.48,12.757c3.828,9.185,6.9,15.988,10.588,24.114,0,0,8.621,17.032,11.722,30.122.158.653,4.927,12.459,4.646,12.639-1.257.788-7.747,2.528-7.747,2.528.3-6.63-7.445-13.922-8.108-14.736-5.021-6.1-11.226-22.085-11.226-22.085a141.224,141.224,0,0,0-8.972-15.231c-1.483-2.071-1.811-4.294-2.223-4.146,0,0-1.848,4.025-1.947,4.2-6.746,12.247-12.074,17.312-14.738,21.953L703.091,5146a78.835,78.835,0,0,1-8.845,9.567c-1.678,1.45-4.6,8.493-4.6,8.493l-7.061-3.649s6.48-12.829,8.131-17.815c2-6.041,11.056-20.838,11.056-20.838a61.625,61.625,0,0,0,7.02-12.42c1.4-3.64,1.742-7.061,2.3-10.218Z" fill="#2d2d2b"/>
      <path id="Trazado_7840" data-name="Trazado 7840" d="M726.843,5074.7s-15.631.283-23.2-2.383c-18.041-6.357-29.232-4.935-29.232-4.935l-3.074,8.661s4.5,3.273,4.4,7.564c-.071,3.2-5.338,6.292-5.338,6.292l2.09,10.07a208.636,208.636,0,0,1,29.96-6.58c3.334-.468,8.342,3.086,8.648,5.73,0,0,5.42-4.335,8.052-8.611C725.416,5080.311,726.843,5074.7,726.843,5074.7Z" fill="#93c01f"/>
      <path id="Trazado_7841" data-name="Trazado 7841" d="M671.611,5075.3a11.847,11.847,0,0,1-2.788,5v9.148a9.237,9.237,0,0,1,2.746,4.819l.02.027c4.85-.106,8.692-4.3,8.7-9.5-.008-5.195-3.813-9.419-8.661-9.528Z" fill="#facca6"/>
      <path id="Trazado_7842" data-name="Trazado 7842" d="M635.728,5076.335c-1.405,1.782-1.3,2.973-1.148,3.483,0,0-6.376,4.044.912,13.967,2.9,3.943,9.819,5.173,13.755,5.173,7.147,0,12.56-4.663,16.173-11.436L665,5084.4C661.873,5068.7,640.495,5070.3,635.728,5076.335Z" fill="#472803"/>
      <path id="Trazado_7843" data-name="Trazado 7843" d="M662.8,5089.449h8.249c1.809,0,3.48-2.622,3.51-4.571-.03-1.947-1.232-4.567-3.51-4.567H662.8Z" fill="#facca6"/>
      <path id="Trazado_7844" data-name="Trazado 7844" d="M664.227,5089.449a8.6,8.6,0,0,0,1.727-4.621,7.6,7.6,0,0,0-1.725-4.517H662.8v9.138Z" fill="#ececec"/>
      <path id="Trazado_7845" data-name="Trazado 7845" d="M634.378,5084.887s-.708-10.777,12.185-10.777S665,5080.456,665,5084.887s-6.445,11.986-16.821,11.986S634.679,5092.037,634.378,5084.887Z" fill="#facca6"/>
      <g id="Grupo_2890" data-name="Grupo 2890">
        <path id="Trazado_7846" data-name="Trazado 7846" d="M648.754,5074.553s-2.078-.308-1.807-1.434,3.409-1.018,4.942,0,1.055,1.6,1.055,1.6" fill="#facca6"/>
        <path id="Trazado_7847" data-name="Trazado 7847" d="M648.754,5096.42s-2.078.307-1.807,1.439,3.409,1.028,4.942,0,1.055-1.612,1.055-1.612" fill="#facca6"/>
      </g>
      <g id="Grupo_2894" data-name="Grupo 2894">
        <g id="Grupo_2891" data-name="Grupo 2891">
          <path id="Trazado_7848" data-name="Trazado 7848" d="M640.278,5083.288s5.363-9.77,12.222-8.313a25.464,25.464,0,0,0-11.739-.994c-5.72.841-4.774,5.9-4.774,5.9Z" fill="#683b11"/>
          <path id="Trazado_7849" data-name="Trazado 7849" d="M641.165,5081.277s3.451-5.568,7.192-6.28c0,0-5.538-.843-8.419,5.1Z" fill="#b1b1b1"/>
          <path id="Trazado_7850" data-name="Trazado 7850" d="M636.544,5078.925s.929-5.579,9.923-4.315c0,0-5.459.306-6.773,5.577,0,0-.752-.522-1.361-.86A2.6,2.6,0,0,0,636.544,5078.925Z" fill="#b1b1b1"/>
        </g>
        <g id="Grupo_2893" data-name="Grupo 2893">
          <path id="Trazado_7851" data-name="Trazado 7851" d="M656.663,5094.95s-9.728,1.046-11.424-4.559c-1.925-6.354-4.379-11.823-8.954-11.823,0,0-3.881,3.182-2.146,9.139a17.3,17.3,0,0,0,3.8,7C640.505,5097.561,650.339,5098.667,656.663,5094.95Z" fill="#683b11"/>
          <g id="Grupo_2892" data-name="Grupo 2892">
            <path id="Trazado_7852" data-name="Trazado 7852" d="M637.252,5078.753a10.71,10.71,0,0,1,3.46,5.615c.843,3.6.872,10.1,11.409,11.516,0,0-8.319.158-10.783-4.2-3.039-5.368-2.46-9.5-5.418-10.213Z" fill="#b1b1b1"/>
            <path id="Trazado_7853" data-name="Trazado 7853" d="M646.393,5096.316s-7.394-1.284-8.4-10.359c-.3-2.679-1.387-3.9-2.24-3.687,0,0-1.612,1.807-.426,5.691A11.28,11.28,0,0,0,646.393,5096.316Z" fill="#b1b1b1"/>
          </g>
        </g>
      </g>
      <path id="Trazado_7854" data-name="Trazado 7854" d="M662.935,5092.111s6.352-1.1,7.4,9.615c.767,7.874-4.848,11.2-6.494,14.125s1.55,6.23,1.55,6.23-5.36-2.356-4.579-7.98,2.767-9.088.951-12.375a23.527,23.527,0,0,1-2.176-8.114C661.343,5091.771,662.935,5092.111,662.935,5092.111Z" fill="#472803"/>
      <g id="Grupo_2895" data-name="Grupo 2895">
        <path id="Trazado_7855" data-name="Trazado 7855" d="M653.121,5073.072a.769.769,0,1,1-.766.769A.773.773,0,0,1,653.121,5073.072Z" fill="#fff"/>
        <path id="Trazado_7856" data-name="Trazado 7856" d="M653.121,5096.474a.767.767,0,1,1-.766.769A.77.77,0,0,1,653.121,5096.474Z" fill="#fff"/>
      </g>
    </g>
  </g>
</svg>
