<svg xmlns="http://www.w3.org/2000/svg" width="57.144" height="65.307" viewBox="0 0 57.144 65.307">
  <g id="Grupo_3488" data-name="Grupo 3488" transform="translate(-514 -2686.438)">
    <path id="Trazado_7791" data-name="Trazado 7791" d="M543.245,2725.336a4.094,4.094,0,0,0-4.082,4.081v57.144a4.1,4.1,0,0,0,4.082,4.082h40.817a4.094,4.094,0,0,0,4.082-4.082v-44.9l-16.327-16.327Z" transform="translate(-17 -38.898)" fill="#f1f1f1"/>
    <path id="Rectángulo_321" data-name="Rectángulo 321" d="M2.041,0h44.9a2.041,2.041,0,0,1,2.041,2.041V22.45a2.04,2.04,0,0,1-2.04,2.04H2.041A2.041,2.041,0,0,1,0,22.449V2.041A2.041,2.041,0,0,1,2.041,0Z" transform="translate(514 2717.052)" fill="red" opacity="0.9"/>
    <path id="Trazado_7792" data-name="Trazado 7792" d="M553.023,2765.016v7.311h2.708c4.406,0,4.6-7.311,0-7.311Zm-1.021,9.3a1.02,1.02,0,0,1-1.121-.908c0-.038-.005-.075-.005-.112v-9.27a1.109,1.109,0,0,1,1.126-1.02h3.737c7.458,0,7.294,11.292.147,11.292Z" transform="translate(-17 -38.898)" fill="#fff"/>
    <path id="Trazado_7793" data-name="Trazado 7793" d="M565.678,2765.153v2.594h4.161a1.261,1.261,0,0,1,1.176,1.157,1.136,1.136,0,0,1-1.176.98h-4.161v3.426a.966.966,0,0,1-.923,1.009.5.5,0,0,1-.054,0,1.037,1.037,0,0,1-1.151-.909c0-.033-.006-.067-.007-.1v-9.269a1.029,1.029,0,0,1,1.158-1.021h5.728a1.021,1.021,0,0,1,1.136.891,1.115,1.115,0,0,1-1.135,1.24h-4.752Z" transform="translate(-17 -38.898)" fill="#fff"/>
    <path id="Trazado_7794" data-name="Trazado 7794" d="M575.9,2741.663h12.245l-16.327-16.327v12.245A4.1,4.1,0,0,0,575.9,2741.663Z" transform="translate(-17 -38.898)" fill="#b3b3b3"/>
    <path id="Trazado_7795" data-name="Trazado 7795" d="M541.316,2764.528v4.066h2.725a2.041,2.041,0,0,0,0-4.066Zm-2.153-.928a1.122,1.122,0,0,1,1.108-1.127h3.77a4.082,4.082,0,0,1,0,8.163h-2.723v2.156a1.019,1.019,0,0,1-.91,1.119,1,1,0,0,1-.135.005,1.1,1.1,0,0,1-1.108-1.092v-.032Z" transform="translate(-17 -38.898)" fill="#fff"/>
  </g>
</svg>
