<svg xmlns="http://www.w3.org/2000/svg" width="497.694" height="398.397" viewBox="0 0 497.694 398.397">
  <g id="Grupo_21886" data-name="Grupo 21886" transform="translate(-5825.881 -396.042)">
    <g id="Grupo_21800" data-name="Grupo 21800" transform="translate(6037.683 473.198)">
      <path id="Trazado_38920" data-name="Trazado 38920" d="M6391.009,662.157a3.406,3.406,0,0,1-3.406-3.394l-.056-16.347a3.406,3.406,0,0,1,3.394-3.417h.012a3.406,3.406,0,0,1,3.406,3.395l.056,16.347a3.406,3.406,0,0,1-3.395,3.417Z" transform="translate(-6387.547 -638.999)" fill="#fb737b"/>
    </g>
    <g id="Grupo_21801" data-name="Grupo 21801" transform="translate(6083.867 404.047)">
      <path id="Trazado_38921" data-name="Trazado 38921" d="M6536.383,467.377h0a3.407,3.407,0,0,1-3.4-3.41l.053-39.317a3.406,3.406,0,0,1,3.406-3.4h0a3.407,3.407,0,0,1,3.4,3.41l-.053,39.317A3.406,3.406,0,0,1,6536.383,467.377Z" transform="translate(-6532.977 -421.249)" fill="#fb737b"/>
    </g>
    <g id="Grupo_21802" data-name="Grupo 21802" transform="translate(6083.87 454.61)">
      <path id="Trazado_38922" data-name="Trazado 38922" d="M6536.39,594.949h-.021a3.406,3.406,0,0,1-3.385-3.426l.047-7.673a3.406,3.406,0,0,1,3.405-3.385h.022a3.4,3.4,0,0,1,3.384,3.426l-.047,7.673A3.406,3.406,0,0,1,6536.39,594.949Z" transform="translate(-6532.984 -580.465)" fill="#fb737b"/>
    </g>
    <g id="Grupo_21803" data-name="Grupo 21803" transform="translate(6083.875 473.024)">
      <path id="Trazado_38923" data-name="Trazado 38923" d="M6536.443,648.214a3.406,3.406,0,0,1-3.4-3.367l-.033-2.952a3.406,3.406,0,0,1,3.367-3.444h.041a3.405,3.405,0,0,1,3.4,3.367l.034,2.952a3.406,3.406,0,0,1-3.368,3.444Z" transform="translate(-6533.005 -638.451)" fill="#fb737b"/>
    </g>
    <g id="Grupo_21804" data-name="Grupo 21804" transform="translate(5987.578 424.019)">
      <path id="Trazado_38924" data-name="Trazado 38924" d="M6233.179,532.733h-.006a3.407,3.407,0,0,1-3.4-3.411l.07-41.783a3.405,3.405,0,0,1,3.406-3.4h0a3.406,3.406,0,0,1,3.4,3.411l-.069,41.783A3.405,3.405,0,0,1,6233.179,532.733Z" transform="translate(-6229.772 -484.139)" fill="#fcd008"/>
    </g>
    <g id="Grupo_21805" data-name="Grupo 21805" transform="translate(6090.67 716.897)">
      <path id="Trazado_38925" data-name="Trazado 38925" d="M6557.809,1422.833h-.017a3.407,3.407,0,0,1-3.389-3.423l.051-9.637a3.4,3.4,0,0,1,3.406-3.388h.016a3.406,3.406,0,0,1,3.389,3.423l-.05,9.637A3.406,3.406,0,0,1,6557.809,1422.833Z" transform="translate(-6554.403 -1406.385)" fill="#45c2cb"/>
    </g>
    <g id="Grupo_21806" data-name="Grupo 21806" transform="translate(6076.855 528.019)">
      <path id="Trazado_38926" data-name="Trazado 38926" d="M6514.369,838.861a3.4,3.4,0,0,1-3.4-3.395l-.063-20.424a3.406,3.406,0,0,1,3.395-3.416h.011a3.405,3.405,0,0,1,3.405,3.395l.062,20.424a3.4,3.4,0,0,1-3.4,3.416Z" transform="translate(-6510.901 -811.626)" fill="#fcd008"/>
    </g>
    <g id="Grupo_21807" data-name="Grupo 21807" transform="translate(6056.719 459.178)">
      <path id="Trazado_38927" data-name="Trazado 38927" d="M6450.985,643.275a3.405,3.405,0,0,1-3.406-3.4l-.086-41.612a3.4,3.4,0,0,1,3.4-3.413h.007a3.405,3.405,0,0,1,3.405,3.4l.086,41.613a3.405,3.405,0,0,1-3.4,3.413Z" transform="translate(-6447.493 -594.852)" fill="#45c2cb"/>
    </g>
    <g id="Grupo_21808" data-name="Grupo 21808" transform="translate(6056.805 509.432)">
      <path id="Trazado_38928" data-name="Trazado 38928" d="M6451.17,766.306a3.4,3.4,0,0,1-3.405-3.406v-6.4a3.405,3.405,0,1,1,6.811,0v6.4A3.405,3.405,0,0,1,6451.17,766.306Z" transform="translate(-6447.765 -753.097)" fill="#45c2cb"/>
    </g>
    <g id="Grupo_21809" data-name="Grupo 21809" transform="translate(6056.805 527.133)">
      <path id="Trazado_38929" data-name="Trazado 38929" d="M6451.17,818.172a3.4,3.4,0,0,1-3.405-3.405v-2.528a3.405,3.405,0,1,1,6.811,0v2.528A3.405,3.405,0,0,1,6451.17,818.172Z" transform="translate(-6447.765 -808.834)" fill="#45c2cb"/>
    </g>
    <g id="Grupo_21810" data-name="Grupo 21810" transform="translate(5976.68 439.068)">
      <path id="Trazado_38930" data-name="Trazado 38930" d="M6198.859,608.151h0a3.4,3.4,0,0,1-3.405-3.405V534.933a3.406,3.406,0,0,1,3.407-3.406h0a3.4,3.4,0,0,1,3.4,3.406v69.813A3.405,3.405,0,0,1,6198.859,608.151Z" transform="translate(-6195.454 -531.527)" fill="#fb737b"/>
    </g>
    <g id="Grupo_21811" data-name="Grupo 21811" transform="translate(6044.225 746.08)">
      <path id="Trazado_38931" data-name="Trazado 38931" d="M6411.57,1530.725a3.405,3.405,0,0,1-3.405-3.4l-.016-25.635a3.406,3.406,0,0,1,3.4-3.408h0a3.407,3.407,0,0,1,3.406,3.4l.016,25.635a3.406,3.406,0,0,1-3.4,3.408Z" transform="translate(-6408.149 -1498.279)" fill="#fb737b"/>
    </g>
    <g id="Grupo_21812" data-name="Grupo 21812" transform="translate(5878.277 490.128)">
      <path id="Trazado_38932" data-name="Trazado 38932" d="M5903.965,837.038c-8.328,0-14.107-.329-14.524-.353a4.087,4.087,0,0,1,.476-8.16c26.281,1.538,69.612-.861,73.991-13.8,8.624-25.484,17.244-38.472,29.172-56.449l3.186-4.81c10.566-16,13.028-32.667,14.66-43.695,1.465-9.919,2.717-18.489,10.668-17.357,12.084,1.721,21.389,13.745,22.123,28.591.837,16.912-2.61,30.352-5.379,41.151-2.153,8.388-3.852,15.014-2.652,19.851.844,3.393,3.886,4.877,14.679,8.574a4.086,4.086,0,0,1-2.647,7.732c-10.8-3.7-17.929-6.14-19.964-14.337-1.7-6.838.229-14.345,2.667-23.851,2.633-10.264,5.909-23.04,5.135-38.716-.519-10.475-6.684-19.265-14.461-20.793-.807,1.719-1.508,6.461-2.082,10.349-1.736,11.743-4.36,29.489-15.924,47l-3.2,4.826c-11.588,17.461-19.96,30.076-28.241,54.551-3.53,10.428-18.318,16.586-45.213,18.824C5918.3,836.843,5910.376,837.038,5903.965,837.038Z" transform="translate(-5885.592 -692.309)" fill="#fcd008"/>
    </g>
    <g id="Grupo_21813" data-name="Grupo 21813" transform="translate(6025.851 587.727)">
      <path id="Trazado_38933" data-name="Trazado 38933" d="M6399.9,1045.628a2.043,2.043,0,0,1-.665-3.975l17.821-6.13c11.03-3.794,14.178-5.727,14.643-8.993.781-5.461.851-15.925-3.84-20.511-2.051-2-4.809-2.679-8.44-2.08-4.075.678-8.956,1.843-13.677,2.968-6.98,1.664-13.562,3.189-17.42,3.22-19.312-.088-31.482-2.208-37.208-6.48a2.043,2.043,0,0,1,2.442-3.275c3.392,2.529,12.176,5.565,34.784,5.668,3.381.075,10.015-1.572,16.453-3.107,4.788-1.143,9.739-2.323,13.956-3.024,4.934-.822,8.961.252,11.966,3.19,7.067,6.907,5.429,21.212,5.03,24.009-.854,5.98-6.2,8.442-17.358,12.279l-17.822,6.13A2.044,2.044,0,0,1,6399.9,1045.628Z" transform="translate(-6350.292 -999.641)" fill="#374170"/>
    </g>
    <g id="Grupo_21814" data-name="Grupo 21814" transform="translate(6073.528 621)">
      <path id="Trazado_38934" data-name="Trazado 38934" d="M6505.646,1152.66a2.043,2.043,0,0,1-.9-3.878c1.288-.661,28.515-14.892,30.206-16,2.445-1.6,4.605-8.223,3.836-14.693-.338-2.848-1.551-7.855-5.875-9.4-3.654-1.307-15.826,3.536-23.1,6.427-2.465.979-4.792,1.9-6.661,2.569a2.043,2.043,0,1,1-1.371-3.85c1.8-.64,4.093-1.552,6.522-2.516,11.829-4.7,21.254-8.163,25.982-6.479,4.744,1.692,7.783,6.226,8.56,12.766.807,6.794-1.089,15.608-5.659,18.6-1.965,1.282-30.41,16.131-30.644,16.244A2.021,2.021,0,0,1,6505.646,1152.66Z" transform="translate(-6500.421 -1104.413)" fill="#374170"/>
    </g>
    <g id="Grupo_21815" data-name="Grupo 21815" transform="translate(6076.252 651.362)">
      <path id="Trazado_38935" data-name="Trazado 38935" d="M6511.046,1244.581a2.043,2.043,0,0,1-.975-3.839c.2-.109,20.179-10.949,23.623-13.081,8.566-5.306,8.463-10.608,7.5-20.294-.092-.928-.533-2.508-1.37-3.05-.158-.1-.638-.418-1.856-.012a2.043,2.043,0,1,1-1.293-3.876,6,6,0,0,1,5.372.459c2.59,1.679,3.115,5.075,3.213,6.076.919,9.271,1.714,17.276-9.417,24.173-3.544,2.194-23,12.749-23.828,13.2A2.029,2.029,0,0,1,6511.046,1244.581Z" transform="translate(-6509.001 -1200.019)" fill="#374170"/>
    </g>
    <g id="Grupo_21816" data-name="Grupo 21816" transform="translate(5905.407 683.095)">
      <path id="Trazado_38936" data-name="Trazado 38936" d="M6115.21,1349.8q-.716,0-1.447-.024c-10.718-.354-32-4.123-54.525-8.114-11.433-2.026-23.255-4.12-34.272-5.873-14.758-2.352-31.153,4.4-51.052,13.464a2.044,2.044,0,0,1-1.695-3.719c20.534-9.355,37.5-16.3,53.388-13.781,11.054,1.76,22.894,3.857,34.344,5.885,22.38,3.964,43.519,7.709,53.948,8.054.427.013.852.021,1.273.021,14.523,0,24.949-8.245,33.375-14.907,13.293-10.511,18.266-14.443,13.094-28.1a2.043,2.043,0,1,1,3.82-1.448c6.234,16.45-1.088,22.24-14.378,32.751C6142.158,1341.072,6131.114,1349.8,6115.21,1349.8Z" transform="translate(-5971.022 -1299.946)" fill="#374170"/>
    </g>
    <g id="Grupo_21817" data-name="Grupo 21817" transform="translate(5874.872 490.82)">
      <path id="Trazado_38937" data-name="Trazado 38937" d="M5892.382,835.184c-7.766,0-13.648-.3-15.588-.415a2.041,2.041,0,0,1-1.919-2.159,2,2,0,0,1,2.159-1.919c19.337,1.127,70.7.6,76.045-15.189,8.539-25.234,17.1-38.13,28.942-55.98l3.187-4.811c10.815-16.379,13.318-33.314,14.975-44.521,1.416-9.565,2.441-16.475,8.361-15.632,10.938,1.558,19.694,13.023,20.368,26.669.823,16.6-2.581,29.878-5.318,40.543-4.554,17.754-6.838,26.666,12.92,33.435a2.043,2.043,0,0,1-1.325,3.866c-23.331-7.991-20.069-20.711-15.553-38.316,2.666-10.4,5.986-23.34,5.195-39.326-.58-11.726-7.829-21.538-16.864-22.826-1.9-.28-2.754,5.5-3.741,12.184-1.709,11.564-4.292,29.041-15.607,46.177l-3.193,4.817c-11.673,17.591-20.107,30.3-28.475,55.029C5951.55,832.767,5914.4,835.184,5892.382,835.184Z" transform="translate(-5874.872 -694.488)" fill="#374170"/>
    </g>
    <g id="Grupo_21818" data-name="Grupo 21818" transform="translate(6062.159 604.157)">
      <path id="Trazado_38938" data-name="Trazado 38938" d="M6470.532,1076.868a.5.5,0,0,1-.325-.118.507.507,0,0,1-.066-.718c2.183-2.63,2.351-10.327.359-16.472-1.316-4.059-3.269-6.608-5.5-7.177a.511.511,0,1,1,.253-.99c2.579.66,4.785,3.448,6.213,7.852,1.891,5.829,2.122,14.227-.547,17.439A.505.505,0,0,1,6470.532,1076.868Z" transform="translate(-6464.62 -1051.377)" fill="#374170"/>
    </g>
    <g id="Grupo_21819" data-name="Grupo 21819" transform="translate(6070.061 641.556)">
      <path id="Trazado_38939" data-name="Trazado 38939" d="M6492.575,1192.868a.5.5,0,0,1-.384-.174.51.51,0,0,1,.048-.721c2.378-2.081,3.446-8.638,2.334-14.318-.786-4.015-2.509-6.757-4.725-7.52a.511.511,0,0,1,.332-.966c2.609.9,4.525,3.843,5.4,8.29,1.042,5.317.319,12.672-2.665,15.282A.507.507,0,0,1,6492.575,1192.868Z" transform="translate(-6489.503 -1169.141)" fill="#374170"/>
    </g>
    <g id="Grupo_21820" data-name="Grupo 21820" transform="translate(6072.363 673.926)">
      <path id="Trazado_38940" data-name="Trazado 38940" d="M6498.941,1289.608a.511.511,0,0,1-.38-.851c1.583-1.765,2.106-6.941,1.167-11.54-.563-2.754-1.539-4.639-2.678-5.171a.509.509,0,0,1-.247-.678.515.515,0,0,1,.678-.248c1.967.918,2.879,4.085,3.248,5.893.888,4.346.6,10.183-1.406,12.425A.511.511,0,0,1,6498.941,1289.608Z" transform="translate(-6496.754 -1271.074)" fill="#374170"/>
    </g>
    <g id="Grupo_21821" data-name="Grupo 21821" transform="translate(6070.484 700.299)">
      <path id="Trazado_38941" data-name="Trazado 38941" d="M6491.347,1370.618a.511.511,0,0,1-.31-.917c1.57-1.2,2.563-5.035,2.31-8.932-.188-2.875-1.019-5-2.225-5.695a.511.511,0,1,1,.508-.886c1.526.875,2.522,3.25,2.735,6.516.239,3.666-.614,8.213-2.708,9.808A.517.517,0,0,1,6491.347,1370.618Z" transform="translate(-6490.836 -1354.12)" fill="#374170"/>
    </g>
    <g id="Grupo_21822" data-name="Grupo 21822" transform="translate(6039.927 586.438)">
      <path id="Trazado_38942" data-name="Trazado 38942" d="M6396.659,1004.829a2.044,2.044,0,0,1-1.244-3.665c.172-.133,4.267-3.248,7.747-4.253a33.354,33.354,0,0,1,10.324-1.316l40.144,1.359a2.042,2.042,0,0,1,1.973,2.111,2.015,2.015,0,0,1-2.111,1.973l-40.129-1.36a30.219,30.219,0,0,0-9.066,1.159,24.708,24.708,0,0,0-6.4,3.569A2.031,2.031,0,0,1,6396.659,1004.829Z" transform="translate(-6394.615 -995.58)" fill="#374170"/>
    </g>
    <g id="Grupo_21823" data-name="Grupo 21823" transform="translate(5999.979 502.067)">
      <path id="Trazado_38943" data-name="Trazado 38943" d="M6270.885,752.474a5.087,5.087,0,0,1-1.737-.273.511.511,0,1,1,.372-.951,5.211,5.211,0,0,0,4.246-.6c2.265-1.3,4.34-12.847,5.181-20.291a.512.512,0,0,1,1.017.114c-.221,1.948-2.251,19.09-5.69,21.063A6.759,6.759,0,0,1,6270.885,752.474Z" transform="translate(-6268.823 -729.905)" fill="#374170"/>
    </g>
    <g id="Grupo_21825" data-name="Grupo 21825" transform="translate(6041.861 434.486)">
      <g id="Grupo_21824" data-name="Grupo 21824">
        <path id="Trazado_38944" data-name="Trazado 38944" d="M6429.359,539.769l-11.011-8.959-11.287,8.1-6.356-8.853,18.059-12.962,17.473,14.219Z" transform="translate(-6400.705 -517.098)" fill="#65c7cf"/>
      </g>
    </g>
    <g id="Grupo_21827" data-name="Grupo 21827" transform="translate(6042.563 415.264)">
      <g id="Grupo_21826" data-name="Grupo 21826" transform="translate(0)">
        <path id="Trazado_38945" data-name="Trazado 38945" d="M6431.571,479.241l-11.011-8.959-11.288,8.1-6.356-8.853,18.059-12.963,17.474,14.219Z" transform="translate(-6402.917 -456.569)" fill="#65c7cf"/>
      </g>
    </g>
    <g id="Grupo_21829" data-name="Grupo 21829" transform="translate(6043.266 396.042)">
      <g id="Grupo_21828" data-name="Grupo 21828" transform="translate(0)">
        <path id="Trazado_38946" data-name="Trazado 38946" d="M6433.783,418.714l-11.01-8.959-11.29,8.1L6405.129,409l18.059-12.962,17.473,14.219Z" transform="translate(-6405.129 -396.042)" fill="#65c7cf"/>
      </g>
    </g>
    <g id="Grupo_21831" data-name="Grupo 21831" transform="translate(5982.516 660.514)">
      <g id="Grupo_21830" data-name="Grupo 21830" transform="translate(0)">
        <path id="Trazado_38947" data-name="Trazado 38947" d="M6242.732,1251.225l-11.239-8.668-11.073,8.4-6.585-8.684,17.714-13.429,17.838,13.758Z" transform="translate(-6213.835 -1228.839)" fill="#fb737b"/>
      </g>
    </g>
    <g id="Grupo_21833" data-name="Grupo 21833" transform="translate(5982.718 641.28)">
      <g id="Grupo_21832" data-name="Grupo 21832" transform="translate(0)">
        <path id="Trazado_38948" data-name="Trazado 38948" d="M6243.368,1190.66l-11.24-8.668-11.075,8.394-6.583-8.684,17.713-13.428,17.838,13.758Z" transform="translate(-6214.471 -1168.274)" fill="#fb737b"/>
      </g>
    </g>
    <g id="Grupo_21835" data-name="Grupo 21835" transform="translate(6040.621 547.847)">
      <g id="Grupo_21834" data-name="Grupo 21834" transform="translate(0 0)">
        <path id="Trazado_38949" data-name="Trazado 38949" d="M6427.108,901.083l-11.351-11.541L6404.512,900.8l-7.711-7.7,19.017-19.033,19.059,19.379Z" transform="translate(-6396.801 -874.063)" fill="#fcd008"/>
      </g>
    </g>
    <g id="Grupo_21846" data-name="Grupo 21846" transform="translate(5825.881 490.627)">
      <g id="Grupo_21837" data-name="Grupo 21837" transform="translate(0.076 38.468)">
        <g id="Grupo_21836" data-name="Grupo 21836">
          <path id="Trazado_38950" data-name="Trazado 38950" d="M6048.907,837.372l-11.261-8.642-11.055,8.422-6.6-8.668,17.682-13.472,17.872,13.714Z" transform="translate(-6019.988 -815.012)" fill="#65c7cf"/>
        </g>
      </g>
      <g id="Grupo_21839" data-name="Grupo 21839" transform="translate(0.229 19.233)">
        <g id="Grupo_21838" data-name="Grupo 21838">
          <path id="Trazado_38951" data-name="Trazado 38951" d="M6049.389,776.8l-11.261-8.642-11.054,8.421-6.6-8.668,17.682-13.473,17.872,13.715Z" transform="translate(-6020.471 -754.444)" fill="#65c7cf"/>
        </g>
      </g>
      <g id="Grupo_21841" data-name="Grupo 21841" transform="translate(0.383)">
        <g id="Grupo_21840" data-name="Grupo 21840">
          <path id="Trazado_38952" data-name="Trazado 38952" d="M6049.874,716.241l-11.26-8.642-11.054,8.421-6.6-8.668,17.681-13.471L6056.51,707.6Z" transform="translate(-6020.957 -693.882)" fill="#65c7cf"/>
        </g>
      </g>
      <g id="Grupo_21843" data-name="Grupo 21843" transform="translate(0 77.782)">
        <g id="Grupo_21842" data-name="Grupo 21842">
          <path id="Trazado_38953" data-name="Trazado 38953" d="M6048.668,961.169l-11.262-8.642-11.053,8.422-6.6-8.668,17.681-13.472,17.873,13.715Z" transform="translate(-6019.75 -938.81)" fill="#65c7cf"/>
        </g>
      </g>
      <g id="Grupo_21845" data-name="Grupo 21845" transform="translate(0.154 58.547)">
        <g id="Grupo_21844" data-name="Grupo 21844">
          <path id="Trazado_38954" data-name="Trazado 38954" d="M6049.152,900.6l-11.259-8.642-11.054,8.422-6.6-8.669,17.68-13.473,17.872,13.715Z" transform="translate(-6020.236 -878.241)" fill="#65c7cf"/>
        </g>
      </g>
    </g>
    <g id="Grupo_21884" data-name="Grupo 21884" transform="translate(6157.624 397.784)">
      <g id="Grupo_21848" data-name="Grupo 21848" transform="translate(79.069 324.002)">
        <g id="Grupo_21847" data-name="Grupo 21847">
          <path id="Trazado_38955" data-name="Trazado 38955" d="M7044.518,1448.8l-11.351-11.542-11.246,11.257-7.71-7.7,19.016-19.034,19.059,19.38Z" transform="translate(-7014.212 -1421.779)" fill="#45c2cb"/>
        </g>
      </g>
      <g id="Grupo_21850" data-name="Grupo 21850" transform="translate(79.069 345.457)">
        <g id="Grupo_21849" data-name="Grupo 21849">
          <path id="Trazado_38956" data-name="Trazado 38956" d="M7044.518,1516.36l-11.351-11.542-11.246,11.257-7.71-7.7,19.016-19.034,19.059,19.38Z" transform="translate(-7014.212 -1489.339)" fill="#45c2cb"/>
        </g>
      </g>
      <g id="Grupo_21857" data-name="Grupo 21857" transform="translate(56.47 19.373)">
        <g id="Grupo_21852" data-name="Grupo 21852" transform="translate(0 38.444)">
          <g id="Grupo_21851" data-name="Grupo 21851">
            <path id="Trazado_38957" data-name="Trazado 38957" d="M6971.7,606.257l-11.011-8.959-11.288,8.1-6.356-8.853,18.059-12.962,17.474,14.219Z" transform="translate(-6943.048 -583.585)" fill="#65c7cf"/>
          </g>
        </g>
        <g id="Grupo_21854" data-name="Grupo 21854" transform="translate(0.702 19.221)">
          <g id="Grupo_21853" data-name="Grupo 21853">
            <path id="Trazado_38958" data-name="Trazado 38958" d="M6973.915,545.728l-11.011-8.959-11.288,8.1-6.356-8.853,18.059-12.963,17.474,14.219Z" transform="translate(-6945.26 -523.057)" fill="#65c7cf"/>
          </g>
        </g>
        <g id="Grupo_21856" data-name="Grupo 21856" transform="translate(1.405)">
          <g id="Grupo_21855" data-name="Grupo 21855">
            <path id="Trazado_38959" data-name="Trazado 38959" d="M6976.125,485.2l-11.01-8.959-11.291,8.1-6.354-8.853,18.059-12.962L6983,476.749Z" transform="translate(-6947.472 -462.53)" fill="#65c7cf"/>
          </g>
        </g>
      </g>
      <g id="Grupo_21858" data-name="Grupo 21858" transform="translate(50.137 92.28)">
        <path id="Trazado_38960" data-name="Trazado 38960" d="M6970.677,852.75a4.086,4.086,0,0,1-3.289-6.506c5.88-8,6.037-34.413-2.171-52.689-7.546-16.8-5.942-31.486-4.391-45.687l.124-1.137c.9-8.277,1.653-20.419.131-31.257-1.391-9.911-7.027-15.487-11.784-15.175-5.265.364-10.588,8.17-10.614,24.79-.006,4.646.322,9.669.64,14.527,1.111,16.991,2.26,34.558-9.265,45.87a4.087,4.087,0,0,1-5.726-5.832c8.851-8.687,7.871-23.656,6.834-39.5-.327-4.992-.665-10.154-.656-15.073.035-23.355,9.436-32.325,18.224-32.931,9.918-.7,18.539,8.645,20.44,22.192,1.638,11.671.851,24.538-.1,33.276l-.125,1.141c-1.5,13.719-2.914,26.676,3.722,41.45,8.977,19.988,9.607,49.573,1.3,60.878A4.081,4.081,0,0,1,6970.677,852.75Z" transform="translate(-6923.109 -692.108)" fill="#fcd008"/>
      </g>
      <g id="Grupo_21859" data-name="Grupo 21859" transform="translate(0 94.327)">
        <path id="Trazado_38961" data-name="Trazado 38961" d="M6800.806,934.11c-.393,0-.762-.007-1.1-.02-16.661-.665-18.887-16.846-20.218-26.513-.321-2.348-1.581-4.31-3.039-6.582a29.614,29.614,0,0,1-4.68-10.262,43.476,43.476,0,0,1-1.053-10.823,35.294,35.294,0,0,0-.249-5.413,13.943,13.943,0,0,0-1.689-4.389,27.725,27.725,0,0,1-3.533-14.893,27.225,27.225,0,0,1,2.642-11.532,11.294,11.294,0,0,0,1.285-4.411,34.405,34.405,0,0,0-.594-5.482,65.551,65.551,0,0,1-1.018-11.637c.234-16.022,12.46-20.72,24.286-25.263,7.385-2.837,15.02-5.771,20.736-11.381,9.519-9.343,8.463-25.485,7.441-41.1-.324-4.958-.659-10.085-.652-14.935.032-21.951,8.452-30.352,16.321-30.9,7.6-.532,16.3,6.329,18.277,20.438,1.607,11.462.829,24.147-.108,32.771l-.124,1.14c-1.464,13.386-2.975,27.229,3.887,42.51,8.566,19.075,9.319,48.215,1.518,58.831a2.044,2.044,0,1,1-3.294-2.421c6.323-8.6,6.665-35.551-1.952-54.736-7.317-16.3-5.744-30.7-4.222-44.627l.124-1.138c.911-8.393,1.673-20.716.123-31.761-1.616-11.512-8.4-17.313-13.949-16.929-5.756.4-12.487,7.661-12.515,26.825-.007,4.713.323,9.771.644,14.662,1.081,16.531,2.2,33.624-8.658,44.28-6.321,6.2-14.359,9.292-22.132,12.279-12,4.609-21.472,8.25-21.665,21.507a61.207,61.207,0,0,0,.969,10.947,36.682,36.682,0,0,1,.643,6.194,14.967,14.967,0,0,1-1.623,5.96,23.324,23.324,0,0,0-2.3,9.989,23.871,23.871,0,0,0,3.088,12.954,17.386,17.386,0,0,1,2.1,5.7,39.17,39.17,0,0,1,.286,5.99,39.418,39.418,0,0,0,.959,9.924,25.881,25.881,0,0,0,4.125,8.922c1.648,2.568,3.206,4.991,3.65,8.233,1.627,11.834,4.1,22.5,16.33,22.985,7.766.34,29.751-3.364,34.6-4.751,5.439-1.555,7.344-2.958,8.8-4.857,2-2.611,3.653-10.612,1.827-14.194-1.913-3.751-4.964-3.668-9.4-3.1-.461.058-.911.114-1.342.159a2.043,2.043,0,0,1-.432-4.063c.406-.044.827-.1,1.262-.151,4.062-.515,10.2-1.286,13.553,5.3,2.728,5.35.533,14.931-2.221,18.532-2.272,2.969-5.232,4.677-10.922,6.3C6830.647,930.6,6809.8,934.11,6800.806,934.11Z" transform="translate(-6765.231 -698.552)" fill="#374170"/>
      </g>
      <g id="Grupo_21860" data-name="Grupo 21860" transform="translate(64.544 144.292)">
        <path id="Trazado_38962" data-name="Trazado 38962" d="M6976.418,859.64a11.1,11.1,0,0,1-7.79-2.878.511.511,0,1,1,.715-.729c3.659,3.586,10.54,3.041,12.925.8a.511.511,0,0,1,.7.745A9.979,9.979,0,0,1,6976.418,859.64Z" transform="translate(-6968.475 -855.887)" fill="#374170"/>
      </g>
      <g id="Grupo_21861" data-name="Grupo 21861" transform="translate(49.94 186.684)">
        <path id="Trazado_38963" data-name="Trazado 38963" d="M6935.295,1005.187l-1.078-1.4c-.129-.166-.317-.467-.564-.863-1.456-2.34-4.864-7.821-10.759-9.066a.511.511,0,0,1,.209-1c5.35,1.131,8.823,5.563,10.608,8.259a26.117,26.117,0,0,0-4.861-10.9.51.51,0,1,1,.787-.649c4.672,5.664,5.462,13.532,5.493,13.864Z" transform="translate(-6922.487 -989.376)" fill="#374170"/>
      </g>
      <g id="Grupo_21862" data-name="Grupo 21862" transform="translate(74.128 212.788)">
        <path id="Trazado_38964" data-name="Trazado 38964" d="M6999.691,1090.419a.494.494,0,0,1-.2-.04.51.51,0,0,1-.274-.668c.974-2.337,1.6-14.334-.476-17.335a.511.511,0,1,1,.84-.583c2.341,3.38,1.655,15.726.577,18.312A.509.509,0,0,1,6999.691,1090.419Z" transform="translate(-6998.654 -1071.575)" fill="#374170"/>
      </g>
      <g id="Grupo_21863" data-name="Grupo 21863" transform="translate(74.591 242.087)">
        <path id="Trazado_38965" data-name="Trazado 38965" d="M7000.622,1183.572a.511.511,0,0,1-.408-.818c2.262-3.005,2.767-14.869.2-18.086a.511.511,0,1,1,.8-.639c2.832,3.542,2.3,16.045-.176,19.339A.515.515,0,0,1,7000.622,1183.572Z" transform="translate(-7000.112 -1163.837)" fill="#374170"/>
      </g>
      <g id="Grupo_21864" data-name="Grupo 21864" transform="translate(72.053 271.34)">
        <path id="Trazado_38966" data-name="Trazado 38966" d="M6992.629,1275.774a.511.511,0,0,1-.465-.721c3.05-6.738,1.215-15.788.332-18.427a.512.512,0,0,1,.323-.647.5.5,0,0,1,.646.322c.917,2.738,2.815,12.138-.369,19.172A.512.512,0,0,1,6992.629,1275.774Z" transform="translate(-6992.118 -1255.95)" fill="#374170"/>
      </g>
      <g id="Grupo_21865" data-name="Grupo 21865" transform="translate(70.429 301.171)">
        <path id="Trazado_38967" data-name="Trazado 38967" d="M6987.555,1366.872a.511.511,0,0,1-.457-.737c2.073-4.19,2.051-9.718-.063-15.562a.511.511,0,0,1,.306-.654.505.505,0,0,1,.654.306c2.21,6.11,2.217,11.921.019,16.363A.512.512,0,0,1,6987.555,1366.872Z" transform="translate(-6987.004 -1349.887)" fill="#374170"/>
      </g>
      <g id="Grupo_21866" data-name="Grupo 21866" transform="translate(25.683 201.111)">
        <path id="Trazado_38968" data-name="Trazado 38968" d="M6860.733,1073.383c-5.285,0-9.66-.1-12.694-.263a2.044,2.044,0,0,1,.221-4.082c7.662.414,24.046.407,41.926-.591,6.03-.335,10.148-1.177,12.96-2.649,1.839-.96,3.179-3.557,3.585-6.948.555-4.621-.749-9.618-3.031-11.621-3.2-2.8-8.494-3.948-10.041-4.232l-.169-.033c-10.263-2.293-23.881-3.741-38.334-4.073a2.045,2.045,0,0,1-2-2.09,2.1,2.1,0,0,1,2.09-2c14.712.339,28.615,1.821,39.144,4.174,2.319.424,8.126,1.778,12,5.18s4.984,10.245,4.393,15.178c-.577,4.8-2.672,8.474-5.75,10.083-3.345,1.751-7.994,2.739-14.625,3.109C6879.425,1073.141,6868.976,1073.383,6860.733,1073.383Z" transform="translate(-6846.106 -1034.805)" fill="#374170"/>
      </g>
      <g id="Grupo_21867" data-name="Grupo 21867" transform="translate(32.449 234.596)">
        <path id="Trazado_38969" data-name="Trazado 38969" d="M6869.451,1177.694a2.043,2.043,0,0,1-.091-4.084c18.262-.827,34.367-2.734,40.443-3.513,10.1-1.3,12.624-2.873,13.941-5.509,1.263-2.525,1.989-13.071-.82-16.645-3.214-4.091-11.754-3.726-17.993-3.45a2.044,2.044,0,1,1-.176-4.084c7.521-.325,16.874-.73,21.383,5.008,4.076,5.187,2.98,17.56,1.263,21-2.5,5.006-7.716,6.532-17.078,7.733-6.125.788-22.364,2.709-40.779,3.543C6869.513,1177.694,6869.482,1177.694,6869.451,1177.694Z" transform="translate(-6867.409 -1140.248)" fill="#374170"/>
      </g>
      <g id="Grupo_21868" data-name="Grupo 21868" transform="translate(41.759 264.577)">
        <path id="Trazado_38970" data-name="Trazado 38970" d="M6898.768,1272.188a2.043,2.043,0,0,1-.174-4.079,282.358,282.358,0,0,0,29.3-3.767l1.042-.172c4.271-.694,7.96-1.293,9.732-4.129,2.763-4.419,2.586-14.337.382-17.725-1.942-2.984-5.865-4.111-11.679-3.336a2.044,2.044,0,0,1-.537-4.052c7.5-1,12.766.739,15.642,5.16,3.214,4.941,3.031,16.723-.34,22.119-2.754,4.406-7.732,5.216-12.544,6l-1.025.167a284.859,284.859,0,0,1-29.622,3.807C6898.887,1272.186,6898.828,1272.188,6898.768,1272.188Z" transform="translate(-6896.728 -1234.655)" fill="#374170"/>
      </g>
      <g id="Grupo_21869" data-name="Grupo 21869" transform="translate(108.951 54.585)">
        <path id="Trazado_38971" data-name="Trazado 38971" d="M7111.714,621.832a3.405,3.405,0,0,1-3.406-3.406V576.814a3.406,3.406,0,0,1,6.812,0v41.613A3.406,3.406,0,0,1,7111.714,621.832Z" transform="translate(-7108.308 -573.408)" fill="#45c2cb"/>
      </g>
      <g id="Grupo_21870" data-name="Grupo 21870" transform="translate(113.719 243.934)">
        <path id="Trazado_38972" data-name="Trazado 38972" d="M7126.727,1218.075a3.406,3.406,0,0,1-3.406-3.406v-41.612a3.406,3.406,0,1,1,6.811,0v41.612A3.4,3.4,0,0,1,7126.727,1218.075Z" transform="translate(-7123.321 -1169.652)" fill="#fcd008"/>
      </g>
      <g id="Grupo_21871" data-name="Grupo 21871" transform="translate(108.951 111.665)">
        <path id="Trazado_38973" data-name="Trazado 38973" d="M7111.714,766.359a3.405,3.405,0,0,1-3.406-3.406v-6.4a3.406,3.406,0,0,1,6.812,0v6.4A3.406,3.406,0,0,1,7111.714,766.359Z" transform="translate(-7108.308 -753.149)" fill="#45c2cb"/>
      </g>
      <g id="Grupo_21872" data-name="Grupo 21872" transform="translate(108.951 129.363)">
        <path id="Trazado_38974" data-name="Trazado 38974" d="M7111.714,818.216a3.405,3.405,0,0,1-3.406-3.405v-2.527a3.406,3.406,0,0,1,6.812,0v2.527A3.406,3.406,0,0,1,7111.714,818.216Z" transform="translate(-7108.308 -808.878)" fill="#45c2cb"/>
      </g>
      <g id="Grupo_21873" data-name="Grupo 21873" transform="translate(118.559 14.757)">
        <path id="Trazado_38975" data-name="Trazado 38975" d="M7141.966,502.938a3.405,3.405,0,0,1-3.405-3.406V451.4a3.406,3.406,0,1,1,6.811,0v48.132A3.406,3.406,0,0,1,7141.966,502.938Z" transform="translate(-7138.561 -447.994)" fill="#fb737b"/>
      </g>
      <g id="Grupo_21874" data-name="Grupo 21874" transform="translate(118.559 0)">
        <path id="Trazado_38976" data-name="Trazado 38976" d="M7141.966,414.467a3.405,3.405,0,0,1-3.405-3.406v-6.13a3.406,3.406,0,0,1,6.811,0v6.13A3.406,3.406,0,0,1,7141.966,414.467Z" transform="translate(-7138.561 -401.526)" fill="#fb737b"/>
      </g>
      <g id="Grupo_21875" data-name="Grupo 21875" transform="translate(28.613 146.893)">
        <path id="Trazado_38977" data-name="Trazado 38977" d="M6858.736,882.241a3.4,3.4,0,0,1-3.4-3.406V867.484a3.405,3.405,0,1,1,6.811,0v11.352A3.406,3.406,0,0,1,6858.736,882.241Z" transform="translate(-6855.332 -864.078)" fill="#fcd008"/>
      </g>
      <g id="Grupo_21876" data-name="Grupo 21876" transform="translate(43.144 374.612)">
        <path id="Trazado_38978" data-name="Trazado 38978" d="M6904.493,1600.216a3.406,3.406,0,0,1-3.406-3.406v-12.26a3.406,3.406,0,1,1,6.811,0v12.26A3.405,3.405,0,0,1,6904.493,1600.216Z" transform="translate(-6901.087 -1581.145)" fill="#fb737b"/>
      </g>
      <g id="Grupo_21877" data-name="Grupo 21877" transform="translate(32.738 346.005)">
        <path id="Trazado_38979" data-name="Trazado 38979" d="M6871.727,1520.353a3.406,3.406,0,0,1-3.406-3.406V1494.47a3.406,3.406,0,0,1,6.812,0v22.477A3.406,3.406,0,0,1,6871.727,1520.353Z" transform="translate(-6868.321 -1491.065)" fill="#45c2cb"/>
      </g>
      <g id="Grupo_21878" data-name="Grupo 21878" transform="translate(126.012 279.484)">
        <path id="Trazado_38980" data-name="Trazado 38980" d="M7165.438,1318.375a3.406,3.406,0,0,1-3.406-3.406V1285a3.406,3.406,0,0,1,6.812,0v29.969A3.406,3.406,0,0,1,7165.438,1318.375Z" transform="translate(-7162.033 -1281.595)" fill="#fb737b"/>
      </g>
      <g id="Grupo_21879" data-name="Grupo 21879" transform="translate(28.613 171.3)">
        <path id="Trazado_38981" data-name="Trazado 38981" d="M6858.736,951.15a3.4,3.4,0,0,1-3.4-3.406v-3.406a3.405,3.405,0,0,1,6.811,0v3.406A3.406,3.406,0,0,1,6858.736,951.15Z" transform="translate(-6855.332 -940.934)" fill="#fcd008"/>
      </g>
      <g id="Grupo_21880" data-name="Grupo 21880" transform="translate(28.613 130.092)">
        <path id="Trazado_38982" data-name="Trazado 38982" d="M6858.736,821.392a3.4,3.4,0,0,1-3.4-3.406v-3.406a3.405,3.405,0,1,1,6.811,0v3.406A3.406,3.406,0,0,1,6858.736,821.392Z" transform="translate(-6855.332 -811.175)" fill="#fcd008"/>
      </g>
      <g id="Grupo_21881" data-name="Grupo 21881" transform="translate(28.613 118.456)">
        <path id="Trazado_38983" data-name="Trazado 38983" d="M6858.736,782.424a3.4,3.4,0,0,1-3.4-3.406V777.94a3.405,3.405,0,1,1,6.811,0v1.079A3.405,3.405,0,0,1,6858.736,782.424Z" transform="translate(-6855.332 -774.534)" fill="#fcd008"/>
      </g>
      <g id="Grupo_21882" data-name="Grupo 21882" transform="translate(28.613 43.818)">
        <path id="Trazado_38984" data-name="Trazado 38984" d="M6858.736,559.031a3.4,3.4,0,0,1-3.4-3.406V542.911a3.405,3.405,0,1,1,6.811,0v12.714A3.406,3.406,0,0,1,6858.736,559.031Z" transform="translate(-6855.332 -539.505)" fill="#fcd008"/>
      </g>
      <g id="Grupo_21883" data-name="Grupo 21883" transform="translate(7.31 105.572)">
        <path id="Trazado_38985" data-name="Trazado 38985" d="M6791.655,790.723a3.406,3.406,0,0,1-3.406-3.406V737.37a3.406,3.406,0,1,1,6.811,0v49.948A3.405,3.405,0,0,1,6791.655,790.723Z" transform="translate(-6788.249 -733.964)" fill="#45c2cb"/>
      </g>
      <circle id="Elipse_1054" data-name="Elipse 1054" cx="22.724" cy="22.724" r="22.724" transform="translate(101.677 180.949) rotate(-45)" fill="#fcd008"/>
      <circle id="Elipse_1055" data-name="Elipse 1055" cx="10.898" cy="10.898" r="10.898" transform="translate(13.03 78.555)" fill="#fb737b"/>
    </g>
    <g id="Grupo_21885" data-name="Grupo 21885" transform="translate(6056.597 768.67)">
      <path id="Trazado_38986" data-name="Trazado 38986" d="M6450.516,1595.181a3.406,3.406,0,0,1-3.405-3.406v-18.958a3.406,3.406,0,1,1,6.811,0v18.958A3.405,3.405,0,0,1,6450.516,1595.181Z" transform="translate(-6447.111 -1569.412)" fill="#fcd008"/>
    </g>
  </g>
</svg>
