<svg xmlns="http://www.w3.org/2000/svg" width="1544.444" height="425.126" viewBox="0 0 1544.444 425.126">
  <g id="Grupo_18390" data-name="Grupo 18390" transform="translate(452.144 2026.733)">
    <g id="Grupo_18306" data-name="Grupo 18306" transform="translate(-435.797 -1958.596)">
      <g id="Grupo_18300" data-name="Grupo 18300" transform="translate(40.859 0)">
        <g id="Grupo_18297" data-name="Grupo 18297" transform="translate(20.391)">
          <path id="Trazado_37384" data-name="Trazado 37384" d="M7045.467,391.791l-6.8,4.746L7032.957,395l6.8-4.746Z" transform="translate(-7032.957 -390.255)" fill="#fb737b"/>
        </g>
        <g id="Grupo_18298" data-name="Grupo 18298" transform="translate(10.195 7.118)">
          <path id="Trazado_37385" data-name="Trazado 37385" d="M7005.906,419.412l-6.8,4.746-5.713-1.536,6.8-4.746Z" transform="translate(-6993.396 -417.875)" fill="#fb737b"/>
        </g>
        <g id="Grupo_18299" data-name="Grupo 18299" transform="translate(0 14.237)">
          <path id="Trazado_37386" data-name="Trazado 37386" d="M6966.346,447.032l-6.8,4.746-5.713-1.536,6.8-4.746Z" transform="translate(-6953.835 -445.496)" fill="#fb737b"/>
        </g>
      </g>
      <g id="Grupo_18305" data-name="Grupo 18305" transform="translate(0 21.409)">
        <g id="Grupo_18301" data-name="Grupo 18301" transform="translate(30.586)">
          <path id="Trazado_37387" data-name="Trazado 37387" d="M6926.487,474.861l-6.8,4.746-5.713-1.536,6.8-4.746Z" transform="translate(-6913.977 -473.325)" fill="#fb737b"/>
        </g>
        <g id="Grupo_18302" data-name="Grupo 18302" transform="translate(20.391 7.118)">
          <path id="Trazado_37388" data-name="Trazado 37388" d="M6886.925,502.482l-6.8,4.746-5.713-1.536,6.8-4.746Z" transform="translate(-6874.415 -500.946)" fill="#fb737b"/>
        </g>
        <g id="Grupo_18303" data-name="Grupo 18303" transform="translate(10.195 14.237)">
          <path id="Trazado_37389" data-name="Trazado 37389" d="M6847.365,530.1l-6.8,4.746-5.713-1.536,6.8-4.745Z" transform="translate(-6834.854 -528.566)" fill="#fb737b"/>
        </g>
        <g id="Grupo_18304" data-name="Grupo 18304" transform="translate(0 21.355)">
          <path id="Trazado_37390" data-name="Trazado 37390" d="M6807.8,557.723l-6.8,4.746-5.713-1.536,6.8-4.745Z" transform="translate(-6795.294 -556.187)" fill="#fb737b"/>
        </g>
      </g>
    </g>
    <g id="Grupo_18311" data-name="Grupo 18311" transform="translate(-452.144 -1663.666)">
      <g id="Grupo_18310" data-name="Grupo 18310" transform="translate(0 0)">
        <g id="Grupo_18307" data-name="Grupo 18307" transform="translate(20.391)">
          <path id="Trazado_37391" data-name="Trazado 37391" d="M6823.5,1400.265l-6.8,4.745-5.714-1.536,6.8-4.745Z" transform="translate(-6810.988 -1398.729)" fill="#fcd008"/>
        </g>
        <g id="Grupo_18308" data-name="Grupo 18308" transform="translate(10.196 7.118)">
          <path id="Trazado_37392" data-name="Trazado 37392" d="M6783.938,1427.886l-6.8,4.745-5.713-1.536,6.8-4.746Z" transform="translate(-6771.428 -1426.349)" fill="#fcd008"/>
        </g>
        <g id="Grupo_18309" data-name="Grupo 18309" transform="translate(0 14.237)">
          <path id="Trazado_37393" data-name="Trazado 37393" d="M6744.377,1455.506l-6.8,4.746-5.713-1.536,6.8-4.746Z" transform="translate(-6731.867 -1453.97)" fill="#fcd008"/>
        </g>
      </g>
    </g>
    <g id="Grupo_18316" data-name="Grupo 18316" transform="translate(-299.49 -1982.827)">
      <g id="Grupo_18315" data-name="Grupo 18315" transform="translate(0)">
        <g id="Grupo_18312" data-name="Grupo 18312" transform="translate(20.391)">
          <path id="Trazado_37394" data-name="Trazado 37394" d="M7415.829,389.043l-6.8,4.746-5.713-1.536,6.8-4.746Z" transform="translate(-7403.319 -387.507)" fill="#fcd008"/>
        </g>
        <g id="Grupo_18313" data-name="Grupo 18313" transform="translate(10.196 7.118)">
          <path id="Trazado_37395" data-name="Trazado 37395" d="M7376.269,416.664l-6.8,4.746-5.713-1.536,6.8-4.746Z" transform="translate(-7363.759 -415.128)" fill="#fcd008"/>
        </g>
        <g id="Grupo_18314" data-name="Grupo 18314" transform="translate(0 14.237)">
          <path id="Trazado_37396" data-name="Trazado 37396" d="M7336.708,444.284l-6.8,4.746-5.713-1.536,6.8-4.746Z" transform="translate(-7324.197 -442.748)" fill="#fcd008"/>
        </g>
      </g>
    </g>
    <g id="Grupo_18326" data-name="Grupo 18326" transform="translate(-430.032 -1689.645)">
      <g id="Grupo_18320" data-name="Grupo 18320" transform="translate(40.859 0)">
        <g id="Grupo_18317" data-name="Grupo 18317" transform="translate(20.391)">
          <path id="Trazado_37397" data-name="Trazado 37397" d="M7067.839,1299.462l-6.8,4.745-5.713-1.536,6.8-4.746Z" transform="translate(-7055.329 -1297.925)" fill="#45c2cb"/>
        </g>
        <g id="Grupo_18318" data-name="Grupo 18318" transform="translate(10.195 7.118)">
          <path id="Trazado_37398" data-name="Trazado 37398" d="M7028.278,1327.082l-6.8,4.746-5.713-1.536,6.8-4.746Z" transform="translate(-7015.768 -1325.546)" fill="#45c2cb"/>
        </g>
        <g id="Grupo_18319" data-name="Grupo 18319" transform="translate(0 14.237)">
          <path id="Trazado_37399" data-name="Trazado 37399" d="M6988.718,1354.7l-6.8,4.746-5.713-1.536,6.8-4.745Z" transform="translate(-6976.208 -1353.167)" fill="#45c2cb"/>
        </g>
      </g>
      <g id="Grupo_18325" data-name="Grupo 18325" transform="translate(0 21.409)">
        <g id="Grupo_18321" data-name="Grupo 18321" transform="translate(30.586)">
          <path id="Trazado_37400" data-name="Trazado 37400" d="M6948.859,1382.532l-6.8,4.746-5.713-1.536,6.8-4.745Z" transform="translate(-6936.349 -1380.996)" fill="#45c2cb"/>
        </g>
        <g id="Grupo_18322" data-name="Grupo 18322" transform="translate(20.391 7.118)">
          <path id="Trazado_37401" data-name="Trazado 37401" d="M6909.3,1410.152l-6.8,4.745-5.713-1.536,6.8-4.745Z" transform="translate(-6896.788 -1408.616)" fill="#45c2cb"/>
        </g>
        <g id="Grupo_18323" data-name="Grupo 18323" transform="translate(10.196 14.237)">
          <path id="Trazado_37402" data-name="Trazado 37402" d="M6869.737,1437.773l-6.8,4.745-5.713-1.536,6.8-4.745Z" transform="translate(-6857.227 -1436.237)" fill="#45c2cb"/>
        </g>
        <g id="Grupo_18324" data-name="Grupo 18324" transform="translate(0 21.355)">
          <path id="Trazado_37403" data-name="Trazado 37403" d="M6830.176,1465.394l-6.8,4.745-5.713-1.536,6.8-4.746Z" transform="translate(-6817.666 -1463.857)" fill="#45c2cb"/>
        </g>
      </g>
    </g>
    <g id="Grupo_18336" data-name="Grupo 18336" transform="translate(-302.638 -2026.733)">
      <g id="Grupo_18330" data-name="Grupo 18330" transform="translate(40.859)">
        <g id="Grupo_18327" data-name="Grupo 18327" transform="translate(20.391)">
          <path id="Trazado_37404" data-name="Trazado 37404" d="M7562.155,218.674l-6.8,4.746-5.713-1.536,6.8-4.746Z" transform="translate(-7549.646 -217.138)" fill="#45c2cb"/>
        </g>
        <g id="Grupo_18328" data-name="Grupo 18328" transform="translate(10.195 7.118)">
          <path id="Trazado_37405" data-name="Trazado 37405" d="M7522.595,246.3l-6.8,4.746-5.713-1.536,6.8-4.746Z" transform="translate(-7510.084 -244.759)" fill="#45c2cb"/>
        </g>
        <g id="Grupo_18329" data-name="Grupo 18329" transform="translate(0 14.237)">
          <path id="Trazado_37406" data-name="Trazado 37406" d="M7483.035,273.916l-6.8,4.746-5.713-1.536,6.8-4.746Z" transform="translate(-7470.524 -272.379)" fill="#45c2cb"/>
        </g>
      </g>
      <g id="Grupo_18335" data-name="Grupo 18335" transform="translate(0 21.409)">
        <g id="Grupo_18331" data-name="Grupo 18331" transform="translate(30.586)">
          <path id="Trazado_37407" data-name="Trazado 37407" d="M7443.175,301.745l-6.8,4.746-5.713-1.536,6.8-4.746Z" transform="translate(-7430.665 -300.208)" fill="#45c2cb"/>
        </g>
        <g id="Grupo_18332" data-name="Grupo 18332" transform="translate(20.391 7.118)">
          <path id="Trazado_37408" data-name="Trazado 37408" d="M7403.614,329.365l-6.8,4.746-5.713-1.536,6.8-4.746Z" transform="translate(-7391.104 -327.829)" fill="#45c2cb"/>
        </g>
        <g id="Grupo_18333" data-name="Grupo 18333" transform="translate(10.195 14.237)">
          <path id="Trazado_37409" data-name="Trazado 37409" d="M7364.053,356.986l-6.8,4.746-5.713-1.536,6.8-4.746Z" transform="translate(-7351.543 -355.45)" fill="#45c2cb"/>
        </g>
        <g id="Grupo_18334" data-name="Grupo 18334" transform="translate(0 21.355)">
          <path id="Trazado_37410" data-name="Trazado 37410" d="M7324.492,384.607l-6.8,4.746-5.713-1.536,6.8-4.746Z" transform="translate(-7311.982 -383.07)" fill="#45c2cb"/>
        </g>
      </g>
    </g>
    <g id="Grupo_18348" data-name="Grupo 18348" transform="translate(-302.363 -1716.206)">
      <g id="Grupo_18342" data-name="Grupo 18342" transform="translate(40.859)">
        <g id="Grupo_18341" data-name="Grupo 18341">
          <path id="Trazado_37414" data-name="Trazado 37414" d="M7484.1,1242.842l-6.8,4.746-5.713-1.536,6.8-4.746Z" transform="translate(-7471.591 -1241.306)" fill="#fb737b"/>
        </g>
      </g>
      <g id="Grupo_18347" data-name="Grupo 18347" transform="translate(0 7.172)">
        <g id="Grupo_18343" data-name="Grupo 18343" transform="translate(30.586)">
          <path id="Trazado_37415" data-name="Trazado 37415" d="M7444.242,1270.671l-6.8,4.745-5.713-1.536,6.8-4.746Z" transform="translate(-7431.732 -1269.135)" fill="#fb737b"/>
        </g>
        <g id="Grupo_18344" data-name="Grupo 18344" transform="translate(20.391 7.118)">
          <path id="Trazado_37416" data-name="Trazado 37416" d="M7404.682,1298.292l-6.8,4.745-5.713-1.536,6.8-4.746Z" transform="translate(-7392.171 -1296.755)" fill="#fb737b"/>
        </g>
        <g id="Grupo_18345" data-name="Grupo 18345" transform="translate(10.195 14.237)">
          <path id="Trazado_37417" data-name="Trazado 37417" d="M7365.12,1325.912l-6.8,4.746-5.713-1.536,6.8-4.745Z" transform="translate(-7352.61 -1324.376)" fill="#fb737b"/>
        </g>
        <g id="Grupo_18346" data-name="Grupo 18346" transform="translate(0 21.355)">
          <path id="Trazado_37418" data-name="Trazado 37418" d="M7325.56,1353.533l-6.8,4.746-5.713-1.536,6.8-4.745Z" transform="translate(-7313.05 -1351.997)" fill="#fb737b"/>
        </g>
      </g>
    </g>
    <g id="Grupo_18356" data-name="Grupo 18356" transform="translate(-391.319 -1717.469)">
      <g id="Grupo_18350" data-name="Grupo 18350" transform="translate(40.859)">
        <g id="Grupo_18349" data-name="Grupo 18349">
          <path id="Trazado_37419" data-name="Trazado 37419" d="M7138.93,1296.109l-6.8,4.745-5.713-1.536,6.8-4.746Z" transform="translate(-7126.42 -1294.573)" fill="#fb737b"/>
        </g>
      </g>
      <g id="Grupo_18355" data-name="Grupo 18355" transform="translate(0 7.172)">
        <g id="Grupo_18351" data-name="Grupo 18351" transform="translate(30.586)">
          <path id="Trazado_37420" data-name="Trazado 37420" d="M7099.071,1323.938l-6.8,4.745-5.713-1.536,6.8-4.745Z" transform="translate(-7086.562 -1322.402)" fill="#fb737b"/>
        </g>
        <g id="Grupo_18352" data-name="Grupo 18352" transform="translate(20.391 7.118)">
          <path id="Trazado_37421" data-name="Trazado 37421" d="M7059.511,1351.559l-6.8,4.746-5.713-1.536,6.8-4.746Z" transform="translate(-7047.001 -1350.022)" fill="#fb737b"/>
        </g>
        <g id="Grupo_18353" data-name="Grupo 18353" transform="translate(10.196 14.237)">
          <path id="Trazado_37422" data-name="Trazado 37422" d="M7019.95,1379.179l-6.8,4.746-5.713-1.536,6.8-4.745Z" transform="translate(-7007.439 -1377.643)" fill="#fb737b"/>
        </g>
        <g id="Grupo_18354" data-name="Grupo 18354" transform="translate(0 21.355)">
          <path id="Trazado_37423" data-name="Trazado 37423" d="M6980.389,1406.8l-6.8,4.745-5.713-1.536,6.8-4.745Z" transform="translate(-6967.879 -1405.264)" fill="#fb737b"/>
        </g>
      </g>
    </g>
    <path id="Trazado_37424" data-name="Trazado 37424" d="M7050.78,1543.113a14.277,14.277,0,1,1-22.478,17.609l11.239-8.8Z" transform="translate(-7404.05 -3169.569)" fill="#fcd008"/>
    <path id="Trazado_37428" data-name="Trazado 37428" d="M7258.851,260.354a14.277,14.277,0,1,1-22.478,17.609l11.239-8.8Z" transform="translate(-7558.497 -2275.95)" fill="#fcd008"/>
    <circle id="Elipse_1019" data-name="Elipse 1019" cx="7.087" cy="7.087" r="7.087" transform="translate(-339.132 -1874.99) rotate(-76.717)" fill="#45c2cb"/>
    <circle id="Elipse_1020" data-name="Elipse 1020" cx="7.087" cy="7.087" r="7.087" transform="translate(-363.706 -1647.749) rotate(-76.717)" fill="#45c2cb"/>
    <circle id="Elipse_1021" data-name="Elipse 1021" cx="7.087" cy="7.087" r="7.087" transform="translate(-313.174 -1717.942) rotate(-45)" fill="#45c2cb"/>
    <circle id="Elipse_1022" data-name="Elipse 1022" cx="7.087" cy="7.087" r="7.087" transform="translate(-395.541 -1702.055) rotate(-45)" fill="#45c2cb"/>
    <circle id="Elipse_1023" data-name="Elipse 1023" cx="7.087" cy="7.087" r="7.087" transform="matrix(0.23, -0.973, 0.973, 0.23, -381.689, -1995.133)" fill="#45c2cb"/>
    <g id="Grupo_18361" data-name="Grupo 18361" transform="translate(-352.747 -2019.105)">
      <g id="Grupo_18357" data-name="Grupo 18357" transform="translate(0)">
        <path id="Trazado_37429" data-name="Trazado 37429" d="M7141.479,246.738v14.277l-23.932,18.908V265.646Z" transform="translate(-7117.547 -246.738)" fill="#45c2cb"/>
      </g>
      <g id="Grupo_18358" data-name="Grupo 18358" transform="translate(0 21.415)">
        <path id="Trazado_37430" data-name="Trazado 37430" d="M7141.479,329.834v14.277l-23.932,18.908V348.742Z" transform="translate(-7117.547 -329.834)" fill="#45c2cb"/>
      </g>
      <g id="Grupo_18359" data-name="Grupo 18359" transform="translate(0 42.831)">
        <path id="Trazado_37431" data-name="Trazado 37431" d="M7141.479,412.931v14.277l-23.932,18.908V431.839Z" transform="translate(-7117.547 -412.931)" fill="#45c2cb"/>
      </g>
      <g id="Grupo_18360" data-name="Grupo 18360" transform="translate(0 64.246)">
        <path id="Trazado_37432" data-name="Trazado 37432" d="M7141.479,496.027V510.3l-23.932,18.908V514.936Z" transform="translate(-7117.547 -496.027)" fill="#45c2cb"/>
      </g>
    </g>
    <g id="Grupo_18366" data-name="Grupo 18366" transform="translate(-339.981 -1699.038)">
      <g id="Grupo_18362" data-name="Grupo 18362">
        <path id="Trazado_37433" data-name="Trazado 37433" d="M7191.019,1261.475v14.277l-23.933,18.908v-14.277Z" transform="translate(-7167.086 -1261.475)" fill="#fcd008"/>
      </g>
      <g id="Grupo_18363" data-name="Grupo 18363" transform="translate(0 21.415)">
        <path id="Trazado_37434" data-name="Trazado 37434" d="M7191.019,1344.572v14.277l-23.933,18.908V1363.48Z" transform="translate(-7167.086 -1344.572)" fill="#fcd008"/>
      </g>
      <g id="Grupo_18364" data-name="Grupo 18364" transform="translate(0 42.831)">
        <path id="Trazado_37435" data-name="Trazado 37435" d="M7191.019,1427.668v14.277l-23.933,18.908v-14.277Z" transform="translate(-7167.086 -1427.668)" fill="#fcd008"/>
      </g>
      <g id="Grupo_18365" data-name="Grupo 18365" transform="translate(0 64.246)">
        <path id="Trazado_37436" data-name="Trazado 37436" d="M7191.019,1510.765v14.277l-23.933,18.908v-14.277Z" transform="translate(-7167.086 -1510.765)" fill="#fcd008"/>
      </g>
    </g>
    <g id="Grupo_18371" data-name="Grupo 18371" transform="translate(-366.921 -1986.484)">
      <g id="Grupo_18367" data-name="Grupo 18367" transform="translate(0)">
        <path id="Trazado_37437" data-name="Trazado 37437" d="M7086.481,373.314V387.59L7062.549,406.5V392.222Z" transform="translate(-7062.549 -373.314)" fill="#fcd008"/>
      </g>
      <g id="Grupo_18368" data-name="Grupo 18368" transform="translate(0 21.415)">
        <path id="Trazado_37438" data-name="Trazado 37438" d="M7086.481,456.41v14.277L7062.549,489.6V475.318Z" transform="translate(-7062.549 -456.41)" fill="#fcd008"/>
      </g>
      <g id="Grupo_18369" data-name="Grupo 18369" transform="translate(0 42.831)">
        <path id="Trazado_37439" data-name="Trazado 37439" d="M7086.481,539.507v14.277l-23.932,18.908V558.415Z" transform="translate(-7062.549 -539.507)" fill="#fcd008"/>
      </g>
      <g id="Grupo_18370" data-name="Grupo 18370" transform="translate(0 64.246)">
        <path id="Trazado_37440" data-name="Trazado 37440" d="M7086.481,622.6V636.88l-23.932,18.908V641.512Z" transform="translate(-7062.549 -622.603)" fill="#fcd008"/>
      </g>
    </g>
    <g id="Grupo_18372" data-name="Grupo 18372" transform="translate(-373.311 -1801.256)">
      <path id="Trazado_37441" data-name="Trazado 37441" d="M7095.665,963.794a16.786,16.786,0,0,1,12.974-6.158c7.68,0,12.974,6.275,12.974,13.719,0,10.4-14.921,17.022-30.065,30.269-15.146-13.247-21.829-19.865-21.829-30.269,0-7.443,5.293-13.719,12.974-13.719A16.784,16.784,0,0,1,7095.665,963.794Z" transform="translate(-7061.481 -957.636)" fill="#fcd008"/>
      <path id="Trazado_37442" data-name="Trazado 37442" d="M7063.705,963.794a16.784,16.784,0,0,1,12.974-6.158c7.68,0,12.974,6.275,12.974,13.719,0,10.4-6.685,17.022-21.829,30.269-15.145-13.247-30.065-19.865-30.065-30.269,0-7.443,5.293-13.719,12.974-13.719A16.785,16.785,0,0,1,7063.705,963.794Z" transform="translate(-7037.758 -957.636)" fill="#45c2cb"/>
      <path id="Trazado_37443" data-name="Trazado 37443" d="M7079.686,963.794a16.782,16.782,0,0,1,12.973-6.158c7.681,0,12.974,6.275,12.974,13.719,0,10.4-10.8,17.022-25.947,30.269-15.145-13.247-25.948-19.865-25.948-30.269,0-7.443,5.293-13.719,12.974-13.719A16.785,16.785,0,0,1,7079.686,963.794Z" transform="translate(-7049.619 -957.636)" fill="#fb737b"/>
    </g>
    <g id="Grupo_18373" data-name="Grupo 18373" transform="translate(-366.612 -1642.654)">
      <path id="Trazado_37444" data-name="Trazado 37444" d="M7172.343,1480.261a7.866,7.866,0,0,1-12.57,9.46l6.285-4.73Z" transform="translate(-7135.026 -1480.261)" fill="#fb737b"/>
      <path id="Trazado_37445" data-name="Trazado 37445" d="M7124.155,1516.526a7.866,7.866,0,1,1-12.57,9.46l6.285-4.73Z" transform="translate(-7099.257 -1507.18)" fill="#fb737b"/>
      <path id="Trazado_37446" data-name="Trazado 37446" d="M7076.319,1552.526a7.866,7.866,0,1,1-12.569,9.46l6.285-4.73Z" transform="translate(-7063.75 -1533.902)" fill="#fb737b"/>
    </g>
    <g id="Grupo_18374" data-name="Grupo 18374" transform="translate(-338.195 -2010.287)">
      <path id="Trazado_37447" data-name="Trazado 37447" d="M7282.606,280.953a7.866,7.866,0,0,1-12.57,9.46l6.285-4.73Z" transform="translate(-7245.289 -280.953)" fill="#fb737b"/>
      <path id="Trazado_37448" data-name="Trazado 37448" d="M7234.418,317.218a7.866,7.866,0,0,1-12.57,9.46l6.285-4.73Z" transform="translate(-7209.52 -307.872)" fill="#fb737b"/>
      <path id="Trazado_37449" data-name="Trazado 37449" d="M7186.582,353.218a7.866,7.866,0,0,1-12.57,9.46l6.285-4.73Z" transform="translate(-7174.012 -334.594)" fill="#fb737b"/>
    </g>
    <g id="Grupo_18376" data-name="Grupo 18376" transform="translate(869.036 -2026.733)">
      <g id="Grupo_18306-2" data-name="Grupo 18306" transform="translate(16.347 72.911)">
        <g id="Grupo_18300-2" data-name="Grupo 18300" transform="translate(40.859 0)">
          <g id="Grupo_18297-2" data-name="Grupo 18297" transform="translate(20.391)">
            <path id="Trazado_37384-2" data-name="Trazado 37384" d="M7045.467,391.791l-6.8,4.746L7032.957,395l6.8-4.746Z" transform="translate(-7032.957 -390.255)" fill="#fb737b"/>
          </g>
          <g id="Grupo_18298-2" data-name="Grupo 18298" transform="translate(10.195 7.118)">
            <path id="Trazado_37385-2" data-name="Trazado 37385" d="M7005.906,419.412l-6.8,4.746-5.713-1.536,6.8-4.746Z" transform="translate(-6993.396 -417.875)" fill="#fb737b"/>
          </g>
          <g id="Grupo_18299-2" data-name="Grupo 18299" transform="translate(0 14.237)">
            <path id="Trazado_37386-2" data-name="Trazado 37386" d="M6966.346,447.032l-6.8,4.746-5.713-1.536,6.8-4.746Z" transform="translate(-6953.835 -445.496)" fill="#fb737b"/>
          </g>
        </g>
        <g id="Grupo_18305-2" data-name="Grupo 18305" transform="translate(0 21.409)">
          <g id="Grupo_18301-2" data-name="Grupo 18301" transform="translate(30.586)">
            <path id="Trazado_37387-2" data-name="Trazado 37387" d="M6926.487,474.861l-6.8,4.746-5.713-1.536,6.8-4.746Z" transform="translate(-6913.977 -473.325)" fill="#fb737b"/>
          </g>
          <g id="Grupo_18302-2" data-name="Grupo 18302" transform="translate(20.391 7.118)">
            <path id="Trazado_37388-2" data-name="Trazado 37388" d="M6886.925,502.482l-6.8,4.746-5.713-1.536,6.8-4.746Z" transform="translate(-6874.415 -500.946)" fill="#fb737b"/>
          </g>
          <g id="Grupo_18303-2" data-name="Grupo 18303" transform="translate(10.195 14.237)">
            <path id="Trazado_37389-2" data-name="Trazado 37389" d="M6847.365,530.1l-6.8,4.746-5.713-1.536,6.8-4.745Z" transform="translate(-6834.854 -528.566)" fill="#fb737b"/>
          </g>
          <g id="Grupo_18304-2" data-name="Grupo 18304" transform="translate(0 21.355)">
            <path id="Trazado_37390-2" data-name="Trazado 37390" d="M6807.8,557.723l-6.8,4.746-5.713-1.536,6.8-4.745Z" transform="translate(-6795.294 -556.187)" fill="#fb737b"/>
          </g>
        </g>
      </g>
      <g id="Grupo_18311-2" data-name="Grupo 18311" transform="translate(0 363.067)">
        <g id="Grupo_18310-2" data-name="Grupo 18310" transform="translate(0 0)">
          <g id="Grupo_18307-2" data-name="Grupo 18307" transform="translate(20.391)">
            <path id="Trazado_37391-2" data-name="Trazado 37391" d="M6823.5,1400.265l-6.8,4.745-5.714-1.536,6.8-4.745Z" transform="translate(-6810.988 -1398.729)" fill="#fcd008"/>
          </g>
          <g id="Grupo_18308-2" data-name="Grupo 18308" transform="translate(10.196 7.118)">
            <path id="Trazado_37392-2" data-name="Trazado 37392" d="M6783.938,1427.886l-6.8,4.745-5.713-1.536,6.8-4.746Z" transform="translate(-6771.428 -1426.349)" fill="#fcd008"/>
          </g>
          <g id="Grupo_18309-2" data-name="Grupo 18309" transform="translate(0 14.237)">
            <path id="Trazado_37393-2" data-name="Trazado 37393" d="M6744.377,1455.506l-6.8,4.746-5.713-1.536,6.8-4.746Z" transform="translate(-6731.867 -1453.97)" fill="#fcd008"/>
          </g>
        </g>
      </g>
      <g id="Grupo_18316-2" data-name="Grupo 18316" transform="translate(152.653 68.348)">
        <g id="Grupo_18315-2" data-name="Grupo 18315" transform="translate(0)">
          <g id="Grupo_18312-2" data-name="Grupo 18312" transform="translate(20.391)">
            <path id="Trazado_37394-2" data-name="Trazado 37394" d="M7415.829,389.043l-6.8,4.746-5.713-1.536,6.8-4.746Z" transform="translate(-7403.319 -387.507)" fill="#fcd008"/>
          </g>
          <g id="Grupo_18313-2" data-name="Grupo 18313" transform="translate(10.196 7.118)">
            <path id="Trazado_37395-2" data-name="Trazado 37395" d="M7376.269,416.664l-6.8,4.746-5.713-1.536,6.8-4.746Z" transform="translate(-7363.759 -415.128)" fill="#fcd008"/>
          </g>
          <g id="Grupo_18314-2" data-name="Grupo 18314" transform="translate(0 14.237)">
            <path id="Trazado_37396-2" data-name="Trazado 37396" d="M7336.708,444.284l-6.8,4.746-5.713-1.536,6.8-4.746Z" transform="translate(-7324.197 -442.748)" fill="#fcd008"/>
          </g>
        </g>
      </g>
      <g id="Grupo_18336-2" data-name="Grupo 18336" transform="translate(149.505 0)">
        <g id="Grupo_18330-2" data-name="Grupo 18330" transform="translate(40.859)">
          <g id="Grupo_18327-2" data-name="Grupo 18327" transform="translate(20.391)">
            <path id="Trazado_37404-2" data-name="Trazado 37404" d="M7562.155,218.674l-6.8,4.746-5.713-1.536,6.8-4.746Z" transform="translate(-7549.646 -217.138)" fill="#45c2cb"/>
          </g>
          <g id="Grupo_18328-2" data-name="Grupo 18328" transform="translate(10.195 7.118)">
            <path id="Trazado_37405-2" data-name="Trazado 37405" d="M7522.595,246.3l-6.8,4.746-5.713-1.536,6.8-4.746Z" transform="translate(-7510.084 -244.759)" fill="#45c2cb"/>
          </g>
          <g id="Grupo_18329-2" data-name="Grupo 18329" transform="translate(0 14.237)">
            <path id="Trazado_37406-2" data-name="Trazado 37406" d="M7483.035,273.916l-6.8,4.746-5.713-1.536,6.8-4.746Z" transform="translate(-7470.524 -272.379)" fill="#45c2cb"/>
          </g>
        </g>
        <g id="Grupo_18335-2" data-name="Grupo 18335" transform="translate(0 21.409)">
          <g id="Grupo_18331-2" data-name="Grupo 18331" transform="translate(30.586)">
            <path id="Trazado_37407-2" data-name="Trazado 37407" d="M7443.175,301.745l-6.8,4.746-5.713-1.536,6.8-4.746Z" transform="translate(-7430.665 -300.208)" fill="#45c2cb"/>
          </g>
          <g id="Grupo_18332-2" data-name="Grupo 18332" transform="translate(20.391 7.118)">
            <path id="Trazado_37408-2" data-name="Trazado 37408" d="M7403.614,329.365l-6.8,4.746-5.713-1.536,6.8-4.746Z" transform="translate(-7391.104 -327.829)" fill="#45c2cb"/>
          </g>
          <g id="Grupo_18333-2" data-name="Grupo 18333" transform="translate(10.195 14.237)">
            <path id="Trazado_37409-2" data-name="Trazado 37409" d="M7364.053,356.986l-6.8,4.746-5.713-1.536,6.8-4.746Z" transform="translate(-7351.543 -355.45)" fill="#45c2cb"/>
          </g>
          <g id="Grupo_18334-2" data-name="Grupo 18334" transform="translate(0 21.355)">
            <path id="Trazado_37410-2" data-name="Trazado 37410" d="M7324.492,384.607l-6.8,4.746-5.713-1.536,6.8-4.746Z" transform="translate(-7311.982 -383.07)" fill="#45c2cb"/>
          </g>
        </g>
      </g>
      <path id="Trazado_37428-2" data-name="Trazado 37428" d="M7258.851,260.354a14.277,14.277,0,1,1-22.478,17.609l11.239-8.8Z" transform="translate(-7106.354 -249.217)" fill="#fcd008"/>
      <circle id="Elipse_1019-2" data-name="Elipse 1019" cx="7.087" cy="7.087" r="7.087" transform="translate(113.011 154.413) rotate(-76.717)" fill="#45c2cb"/>
      <circle id="Elipse_1023-2" data-name="Elipse 1023" cx="7.087" cy="7.087" r="7.087" transform="matrix(0.23, -0.973, 0.973, 0.23, 70.455, 31.6)" fill="#45c2cb"/>
      <g id="Grupo_18361-2" data-name="Grupo 18361" transform="translate(99.396 7.628)">
        <g id="Grupo_18357-2" data-name="Grupo 18357" transform="translate(0)">
          <path id="Trazado_37429-2" data-name="Trazado 37429" d="M7141.479,246.738v14.277l-23.932,18.908V265.646Z" transform="translate(-7117.547 -246.738)" fill="#45c2cb"/>
        </g>
        <g id="Grupo_18358-2" data-name="Grupo 18358" transform="translate(0 21.415)">
          <path id="Trazado_37430-2" data-name="Trazado 37430" d="M7141.479,329.834v14.277l-23.932,18.908V348.742Z" transform="translate(-7117.547 -329.834)" fill="#45c2cb"/>
        </g>
        <g id="Grupo_18359-2" data-name="Grupo 18359" transform="translate(0 42.831)">
          <path id="Trazado_37431-2" data-name="Trazado 37431" d="M7141.479,412.931v14.277l-23.932,18.908V431.839Z" transform="translate(-7117.547 -412.931)" fill="#45c2cb"/>
        </g>
        <g id="Grupo_18360-2" data-name="Grupo 18360" transform="translate(0 64.246)">
          <path id="Trazado_37432-2" data-name="Trazado 37432" d="M7141.479,496.027V510.3l-23.932,18.908V514.936Z" transform="translate(-7117.547 -496.027)" fill="#45c2cb"/>
        </g>
      </g>
      <g id="Grupo_18371-2" data-name="Grupo 18371" transform="translate(85.223 73.677)">
        <g id="Grupo_18367-2" data-name="Grupo 18367" transform="translate(0)">
          <path id="Trazado_37437-2" data-name="Trazado 37437" d="M7086.481,373.314V387.59L7062.549,406.5V392.222Z" transform="translate(-7062.549 -373.314)" fill="#fcd008"/>
        </g>
        <g id="Grupo_18368-2" data-name="Grupo 18368" transform="translate(0 21.415)">
          <path id="Trazado_37438-2" data-name="Trazado 37438" d="M7086.481,456.41v14.277L7062.549,489.6V475.318Z" transform="translate(-7062.549 -456.41)" fill="#fcd008"/>
        </g>
        <g id="Grupo_18369-2" data-name="Grupo 18369" transform="translate(0 42.831)">
          <path id="Trazado_37439-2" data-name="Trazado 37439" d="M7086.481,539.507v14.277l-23.932,18.908V558.415Z" transform="translate(-7062.549 -539.507)" fill="#fcd008"/>
        </g>
        <g id="Grupo_18370-2" data-name="Grupo 18370" transform="translate(0 64.246)">
          <path id="Trazado_37440-2" data-name="Trazado 37440" d="M7086.481,622.6V636.88l-23.932,18.908V641.512Z" transform="translate(-7062.549 -622.603)" fill="#fcd008"/>
        </g>
      </g>
      <g id="Grupo_18374-2" data-name="Grupo 18374" transform="translate(113.948 16.446)">
        <path id="Trazado_37447-2" data-name="Trazado 37447" d="M7282.606,280.953a7.866,7.866,0,0,1-12.57,9.46l6.285-4.73Z" transform="translate(-7245.289 -280.953)" fill="#fb737b"/>
        <path id="Trazado_37448-2" data-name="Trazado 37448" d="M7234.418,317.218a7.866,7.866,0,0,1-12.57,9.46l6.285-4.73Z" transform="translate(-7209.52 -307.872)" fill="#fb737b"/>
        <path id="Trazado_37449-2" data-name="Trazado 37449" d="M7186.582,353.218a7.866,7.866,0,0,1-12.57,9.46l6.285-4.73Z" transform="translate(-7174.012 -334.594)" fill="#fb737b"/>
      </g>
    </g>
  </g>
</svg>
