<svg xmlns="http://www.w3.org/2000/svg" xmlns:xlink="http://www.w3.org/1999/xlink" width="1149.556" height="487.654" viewBox="0 0 1149.556 487.654">
  <defs>
    <linearGradient id="linear-gradient" x1="0.5" x2="0.5" y2="1" gradientUnits="objectBoundingBox">
      <stop offset="0.346" stop-color="#fff"/>
      <stop offset="1" stop-color="#dbdee2"/>
    </linearGradient>
    <linearGradient id="linear-gradient-2" y1="0.5" x2="1" y2="0.5" gradientUnits="objectBoundingBox">
      <stop offset="0" stop-color="#858585"/>
      <stop offset="0.345" stop-color="#bfbfbf"/>
      <stop offset="0.899" stop-color="#828282"/>
    </linearGradient>
    <linearGradient id="linear-gradient-3" y1="0.5" x2="1" y2="0.5" gradientUnits="objectBoundingBox">
      <stop offset="0" stop-color="#595959"/>
      <stop offset="0.345" stop-color="#969696"/>
      <stop offset="0.899" stop-color="#575757"/>
    </linearGradient>
    <linearGradient id="linear-gradient-4" y1="0.5" x2="1" y2="0.5" gradientUnits="objectBoundingBox">
      <stop offset="0" stop-color="#6e6e6e"/>
      <stop offset="0.345" stop-color="#a6a6a6"/>
      <stop offset="0.899" stop-color="#696969"/>
    </linearGradient>
    <radialGradient id="radial-gradient" cx="8.234" cy="5.906" r="0.497" gradientTransform="translate(-0.003 -0.003) scale(1.007 1.007)" gradientUnits="objectBoundingBox">
      <stop offset="0.075" stop-color="#3b3a3c"/>
      <stop offset="0.392" stop-color="#545456"/>
      <stop offset="0.608" stop-color="#9a9c9f"/>
      <stop offset="0.817" stop-color="#b2b4b7"/>
      <stop offset="1" stop-color="#85878a"/>
    </radialGradient>
    <radialGradient id="radial-gradient-2" cx="-2052.536" cy="11.096" r="0.494" gradientTransform="matrix(-1.013, 0, 0, 1.013, 1.006, -0.007)" xlink:href="#radial-gradient"/>
  </defs>
  <g id="Grupo_3488" data-name="Grupo 3488" transform="translate(-240.294 -1777.559)">
    <g id="Grupo_1" data-name="Grupo 1" transform="translate(-4657.478 26)">
      <rect id="Rectángulo_2" data-name="Rectángulo 2" width="1149.556" height="484.35" transform="translate(4897.771 1751.559)" fill="url(#linear-gradient)"/>
      <rect id="Rectángulo_3" data-name="Rectángulo 3" width="1149.153" height="57.787" transform="translate(4898.174 1751.821)" fill="#93e0fe"/>
    </g>
    <text id="Ergonomía_en_el_puesto_de_trabajo_y_de_sistemas._" data-name="Ergonomía en el puesto de trabajo y de sistemas.




" transform="translate(326.226 2135.213)" fill="#444242" font-size="16" font-family="OpenSans, Open Sans"><tspan x="8.622" y="17">Ergonomía en el puesto de </tspan><tspan x="27.388" y="39">trabajo y de sistemas.</tspan><tspan x="108.595" y="61"></tspan></text>
    <text id="_LEODEGARIO_FERNANDEZ_MARCOS_s._f._" data-name="(LEODEGARIO FERNANDEZ MARCOS, s. f.)



" transform="translate(567.566 2224.213)" fill="#444242" font-size="16" font-family="OpenSans, Open Sans"><tspan x="93.941" y="17">(LEODEGARIO FERNANDEZ MARCOS, s. f.)</tspan></text>
    <text id="Ergonomía_preventiva_y_correctora._" data-name="Ergonomía preventiva y correctora.



" transform="translate(705.026 2135.213)" fill="#444242" font-size="16" font-family="OpenSans, Open Sans"><tspan x="20.454" y="17">Ergonomía preventiva y </tspan><tspan x="67.626" y="39">correctora.</tspan><tspan x="108.595" y="61"></tspan></text>
    <text id="Ergonomía_geométrica_ambiental_y_temporal._" data-name="Ergonomía geométrica, ambiental y temporal.



" transform="translate(1085.213 2135.213)" fill="#444242" font-size="16" font-family="OpenSans, Open Sans"><tspan x="21.966" y="17">Ergonomía geométrica, </tspan><tspan x="26.54" y="39">ambiental y temporal.</tspan><tspan x="108.595" y="61"></tspan></text>
    <g id="Grupo_186" data-name="Grupo 186" transform="translate(-4657.478 26)">
      <ellipse id="Elipse_155" data-name="Elipse 155" cx="89.764" cy="4.104" rx="89.764" ry="4.104" transform="translate(5758.088 2079.95)" fill="#a3a4a6" opacity="0.2"/>
      <ellipse id="Elipse_156" data-name="Elipse 156" cx="100.732" cy="5.35" rx="100.732" ry="5.35" transform="translate(5747.12 2078.991)" fill="#a3a4a6" opacity="0.2"/>
      <ellipse id="Elipse_157" data-name="Elipse 157" cx="111.136" cy="6.882" rx="111.136" ry="6.882" transform="translate(5736.715 2077.7)" fill="#a3a4a6" opacity="0.2"/>
      <ellipse id="Elipse_158" data-name="Elipse 158" cx="79.279" cy="2.661" rx="79.279" ry="2.661" transform="translate(5768.572 2080.819)" fill="#a3a4a6" opacity="0.2"/>
      <g id="Grupo_167" data-name="Grupo 167">
        <g id="Grupo_166" data-name="Grupo 166">
          <g id="Grupo_165" data-name="Grupo 165">
            <line id="Línea_1" data-name="Línea 1" x1="79.145" transform="translate(5809.414 1916.883)" fill="none" stroke="#8dc645" stroke-miterlimit="10" stroke-width="1"/>
            <g id="Grupo_163" data-name="Grupo 163">
              <path id="Trazado_609" data-name="Trazado 609" d="M5887.28,1915.008l6.995,1.874-6.995,1.875Z" fill="#8dc645"/>
            </g>
            <g id="Grupo_164" data-name="Grupo 164">
              <path id="Trazado_610" data-name="Trazado 610" d="M5810.692,1915.008l-6.995,1.874,6.995,1.875Z" fill="#8dc645"/>
            </g>
          </g>
        </g>
      </g>
      <g id="Grupo_170" data-name="Grupo 170">
        <g id="Grupo_169" data-name="Grupo 169">
          <g id="Grupo_168" data-name="Grupo 168">
            <line id="Línea_2" data-name="Línea 2" x1="1.242" y1="0.35" transform="translate(5890.124 1942.335)" fill="none" stroke="#8dc645" stroke-miterlimit="10" stroke-width="1"/>
            <line id="Línea_3" data-name="Línea 3" x1="83.899" y1="23.676" transform="translate(5803.72 1917.952)" fill="none" stroke="#8dc645" stroke-miterlimit="10" stroke-width="1" stroke-dasharray="4.033 4.033"/>
            <line id="Línea_4" data-name="Línea 4" x1="1.242" y1="0.35" transform="translate(5801.226 1917.248)" fill="none" stroke="#8dc645" stroke-miterlimit="10" stroke-width="1"/>
          </g>
        </g>
      </g>
      <g id="Grupo_171" data-name="Grupo 171">
        <path id="Trazado_611" data-name="Trazado 611" d="M5838.158,1908.329h-.016l-.874.472-.132-.518,1.1-.589h.581v5.03h-.658Z"/>
        <path id="Trazado_612" data-name="Trazado 612" d="M5840.59,1911.448a1.438,1.438,0,0,1,1-1.347l-.008-.023a1.245,1.245,0,0,1-.8-1.13,1.409,1.409,0,0,1,1.555-1.339,1.3,1.3,0,0,1,1.463,1.238,1.28,1.28,0,0,1-.828,1.177v.023a1.4,1.4,0,0,1,1.014,1.3,1.55,1.55,0,0,1-1.711,1.462C5841.224,1912.809,5840.59,1912.183,5840.59,1911.448Zm2.708-.031c0-.611-.426-.906-1.107-1.1a1.092,1.092,0,0,0-.9,1.036.93.93,0,0,0,1.006.96A.91.91,0,0,0,5843.3,1911.417Zm-1.873-2.516c0,.5.379.774.96.929a.992.992,0,0,0,.766-.913.782.782,0,0,0-.851-.82A.8.8,0,0,0,5841.425,1908.9Z"/>
        <path id="Trazado_613" data-name="Trazado 613" d="M5846.418,1910.38v.5h-1.911v-.5Z"/>
        <path id="Trazado_614" data-name="Trazado 614" d="M5847,1912.724v-.418l.534-.518c1.285-1.223,1.865-1.873,1.873-2.631a.9.9,0,0,0-1-.983,1.711,1.711,0,0,0-1.068.426l-.217-.48a2.206,2.206,0,0,1,1.424-.511,1.416,1.416,0,0,1,1.54,1.463c0,.928-.674,1.679-1.734,2.7l-.4.371v.016h2.26v.564Z"/>
        <path id="Trazado_615" data-name="Trazado 615" d="M5853.076,1912.724v-1.37h-2.336v-.448l2.244-3.212h.735v3.127h.7v.533h-.7v1.37Zm0-1.9v-1.679q0-.4.024-.79h-.024c-.154.294-.278.511-.417.743l-1.23,1.711v.015Z"/>
        <path id="Trazado_616" data-name="Trazado 616" d="M5856.011,1907.424a9.431,9.431,0,0,1-.719,1.833l-.434.055a11.717,11.717,0,0,0,.457-1.819Zm1.146,0a9.426,9.426,0,0,1-.72,1.833l-.433.055a10.993,10.993,0,0,0,.456-1.819Z"/>
      </g>
      <g id="Grupo_172" data-name="Grupo 172">
        <path id="Trazado_617" data-name="Trazado 617" d="M5926.625,2052.638v-.418l.534-.518c1.285-1.223,1.865-1.873,1.873-2.631a.9.9,0,0,0-1-.983,1.712,1.712,0,0,0-1.068.426l-.217-.481a2.215,2.215,0,0,1,1.424-.51,1.416,1.416,0,0,1,1.54,1.463c0,.928-.673,1.679-1.733,2.7l-.4.372v.015h2.26v.565Z"/>
        <path id="Trazado_618" data-name="Trazado 618" d="M5933.6,2048.181h-1.92l-.193,1.292a2.637,2.637,0,0,1,.41-.031,2.128,2.128,0,0,1,1.084.271,1.435,1.435,0,0,1,.719,1.292,1.745,1.745,0,0,1-1.873,1.718,2.467,2.467,0,0,1-1.253-.309l.17-.519a2.248,2.248,0,0,0,1.076.279,1.11,1.11,0,0,0,1.191-1.092c-.007-.649-.441-1.114-1.447-1.114a5.054,5.054,0,0,0-.7.055l.325-2.415h2.407Z"/>
        <path id="Trazado_619" data-name="Trazado 619" d="M5936.364,2050.294v.5h-1.911v-.5Z"/>
        <path id="Trazado_620" data-name="Trazado 620" d="M5937.108,2051.856a2.278,2.278,0,0,0,1.115.318c.874,0,1.145-.557,1.137-.976-.008-.7-.642-1-1.3-1h-.379v-.511h.379c.5,0,1.122-.255,1.122-.851,0-.4-.255-.758-.882-.758a1.845,1.845,0,0,0-1.006.332l-.178-.495a2.393,2.393,0,0,1,1.315-.387c.991,0,1.44.588,1.44,1.2a1.249,1.249,0,0,1-.929,1.184v.016a1.31,1.31,0,0,1,1.122,1.292c0,.8-.627,1.509-1.834,1.509a2.552,2.552,0,0,1-1.307-.341Z"/>
        <path id="Trazado_621" data-name="Trazado 621" d="M5944.26,2050.069c0,1.71-.634,2.654-1.749,2.654-.982,0-1.648-.921-1.663-2.584,0-1.687.727-2.616,1.749-2.616C5943.657,2047.523,5944.26,2048.467,5944.26,2050.069Zm-2.731.077c0,1.308.4,2.051,1.021,2.051.7,0,1.029-.813,1.029-2.1,0-1.239-.317-2.051-1.021-2.051C5941.962,2048.049,5941.529,2048.776,5941.529,2050.146Z"/>
        <path id="Trazado_622" data-name="Trazado 622" d="M5945.957,2047.337a9.478,9.478,0,0,1-.719,1.834l-.434.055a11.944,11.944,0,0,0,.457-1.819Zm1.145,0a9.416,9.416,0,0,1-.719,1.834l-.434.055a10.9,10.9,0,0,0,.457-1.819Z"/>
      </g>
      <g id="Grupo_176" data-name="Grupo 176">
        <g id="Grupo_175" data-name="Grupo 175">
          <g id="Grupo_174" data-name="Grupo 174">
            <line id="Línea_5" data-name="Línea 5" y2="45.993" transform="translate(5935.364 1999.702)" fill="none" stroke="#8dc645" stroke-miterlimit="10" stroke-width="1"/>
            <g id="Grupo_173" data-name="Grupo 173">
              <path id="Trazado_623" data-name="Trazado 623" d="M5933.489,2000.98l1.875-6.995,1.875,6.995Z" fill="#8dc645"/>
            </g>
          </g>
        </g>
      </g>
      <g id="Grupo_180" data-name="Grupo 180">
        <g id="Grupo_179" data-name="Grupo 179">
          <g id="Grupo_178" data-name="Grupo 178">
            <line id="Línea_6" data-name="Línea 6" y2="21.475" transform="translate(5935.364 2054.989)" fill="none" stroke="#8dc645" stroke-miterlimit="10" stroke-width="1"/>
            <g id="Grupo_177" data-name="Grupo 177">
              <path id="Trazado_624" data-name="Trazado 624" d="M5933.489,2075.185l1.875,6.994,1.875-6.994Z" fill="#8dc645"/>
            </g>
          </g>
        </g>
      </g>
      <g id="Grupo_181" data-name="Grupo 181">
        <rect id="Rectángulo_71" data-name="Rectángulo 71" width="7.511" height="34.768" transform="translate(5807.888 2064.177) rotate(180)" fill="url(#linear-gradient-2)"/>
        <rect id="Rectángulo_72" data-name="Rectángulo 72" width="10.616" height="19.875" transform="translate(5809.44 2075.098) rotate(180)" fill="url(#linear-gradient-3)"/>
        <rect id="Rectángulo_73" data-name="Rectángulo 73" width="8.663" height="17.458" transform="translate(5808.514 2060.297) rotate(180)" fill="url(#linear-gradient-4)"/>
        <path id="Trazado_625" data-name="Trazado 625" d="M5779.848,2079.645a3.611,3.611,0,1,1-3.611-3.635A3.623,3.623,0,0,1,5779.848,2079.645Z" fill="#404041"/>
        <path id="Trazado_626" data-name="Trazado 626" d="M5778.791,2079.645a2.554,2.554,0,1,1-2.554-2.57A2.563,2.563,0,0,1,5778.791,2079.645Z" fill="url(#radial-gradient)"/>
        <path id="Trazado_627" data-name="Trazado 627" d="M5803.982,2069.772,5777,2073.928c-2.979.273-4.066,1.983-4.066,3.809s2.5,1.84,4.01,1.651l27.038-3.243Z" fill="#4b4c51"/>
        <path id="Trazado_628" data-name="Trazado 628" d="M5827.953,2079.645a3.589,3.589,0,1,0,3.588-3.635A3.612,3.612,0,0,0,5827.953,2079.645Z" fill="#404041"/>
        <path id="Trazado_629" data-name="Trazado 629" d="M5829,2079.645a2.538,2.538,0,1,0,2.537-2.57A2.554,2.554,0,0,0,5829,2079.645Z" fill="url(#radial-gradient-2)"/>
        <path id="Trazado_630" data-name="Trazado 630" d="M5803.974,2069.772l26.809,4.156c2.96.273,4.04,1.983,4.04,3.809s-2.484,1.84-3.984,1.651l-26.865-3.243Z" fill="#4b4c51"/>
        <path id="Trazado_631" data-name="Trazado 631" d="M5769.429,1982.912c-4.607.545-3.974,12.928-3.005,32.023.556,10.945,9.214,12.733,18.829,12.733h40.813" fill="none" stroke="#58595b" stroke-linecap="round" stroke-miterlimit="10" stroke-width="8"/>
        <path id="Trazado_632" data-name="Trazado 632" d="M5778.913,2028.265h49.937a4.476,4.476,0,0,0,4.477-4.477h0a4.476,4.476,0,0,0-4.477-4.476h-49.937a4.476,4.476,0,0,0-4.476,4.476h0A4.476,4.476,0,0,0,5778.913,2028.265Z" fill="#45a0e6"/>
        <path id="Trazado_633" data-name="Trazado 633" d="M5762.227,1949.027l6.576,63.4a3.2,3.2,0,0,0,3.516,2.84l1.439-.147a3.19,3.19,0,0,0,2.859-3.493l-6.576-63.4a3.2,3.2,0,0,0-3.516-2.84l-1.439.147A3.189,3.189,0,0,0,5762.227,1949.027Z" fill="#45a0e6"/>
      </g>
      <path id="Trazado_634" data-name="Trazado 634" d="M5853.407,1985.787c1.082,1.243,4.088,1.285,5.24,1.878a6.287,6.287,0,0,1,1.953,1.567c1.008.926,2,1.036,2.4.764.419-.285-.015-1.021-.466-1.641s-1.8-1.481-2.452-2.276c-.693-.847-.421-1.882-1.216-2.729-1.8-1.92-5.007-2.12-6.038-.995C5852.387,1982.837,5852.055,1984.234,5853.407,1985.787Z"/>
      <path id="Trazado_635" data-name="Trazado 635" d="M5772.558,1967.628c-2.054-5.381,5.415-11.64,14.715-12.52,10.452-.989,15.624,8.238,17.328,13.321s1.329,9.494,1.428,15.483c.2,11.992-24.712,17.568-26.785,2.835C5778.576,1982,5775.138,1974.39,5772.558,1967.628Z" fill="#623752"/>
      <path id="Trazado_636" data-name="Trazado 636" d="M5775.615,1939.588c3.448-3.331,10.713-.846,16.084,3.134s10.778,10.571,12.42,16.56c1.239,4.521,1.669,11.771,1.183,14.517s-2.623,4.856-12.94,5.851c-8.972.866-13.631-2.155-17.626-7.514-2.606-3.5-3.522-9.635-4-14.537C5770.213,1952.252,5772.167,1942.919,5775.615,1939.588Z" fill="#623752"/>
      <path id="Trazado_637" data-name="Trazado 637" d="M5807.116,2006.086c.788-2.988-.727-8.791-2.1-9.719-3.542-2.4-21.556-2.719-25.9,3.6a15.633,15.633,0,0,0-1.127,15.672c2.576,5.118,12.846,4.742,16.744,3.359C5803.75,2015.8,5805.828,2010.973,5807.116,2006.086Z" fill="#1c1b19"/>
      <path id="Trazado_638" data-name="Trazado 638" d="M5790.749,1934.4a12.725,12.725,0,0,0-1.438,5.448c.057,1.445-.1,1.293-.2,1.319-1.089.305-2.5.4-6.755.172-3.793-.207-7.066-1.259-7-1.419a14.04,14.04,0,0,0,1.317-4.243c.559-2.915.582-5.159,1.094-6.327.812-1.849,3.968-4.972,9.138-3.23A6.189,6.189,0,0,1,5790.749,1934.4Z" fill="#fed8a7"/>
      <path id="Trazado_639" data-name="Trazado 639" d="M5798.668,1935.117c2.482-.925.773-4.1,1.448-4.725a1.979,1.979,0,0,0,.651-2.075s1.223-.917.961-1.463c-.352-.733-.389-1.71-.165-1.907.543-.477,1.212-.518,1.614-1.438.521-1.192-1.148-.732-2.428-3.7-.773-1.791-1.176-2.735-.776-4.122a10.227,10.227,0,0,0-1.071-6.045,7.676,7.676,0,0,0,.069-1.62c-.157-1.662-2.424-4.659-5.617-6.338-4.532-2.383-15.346-2.308-18.676,3.784-.713,1.305-.96.07-3.306,3.354-3.117,4.364-2.554,10.557.777,15.348.824,1.185,3.167,5.356,5.57,5.953,2.776.689,4.32-.672,5.559.223,1.615,1.167,1.191,2.883,3.673,3.731S5796.186,1936.041,5798.668,1935.117Z" fill="#fed8a7"/>
      <path id="Trazado_640" data-name="Trazado 640" d="M5862.171,2012.348c0-6.367-8.814-7.162-19.63-8.157s-25.2-2.657-36.656-2.985c-11.22-.321-21.633-.044-24.438,6.765-3.675,8.925,2.2,14.812,19.23,14.811,19.83,0,28.246-.6,42.465-.287C5856.362,2022.783,5862.171,2018.715,5862.171,2012.348Z" fill="#1c1b19"/>
      <path id="Trazado_641" data-name="Trazado 641" d="M5845.5,1980.664c3.157-.029,8.013-.249,9.315.149a35.977,35.977,0,0,1,5.558,2.736c.5.4.851.846,1.252,1.144s1.777.977,2.153,1.244c.689.487,2.1,1.2,2.154,1.645s-.917.623-1.335.533a6.77,6.77,0,0,1-2.221-.288c-1.276-.467-3.681-1.638-3.944-1.678a28.6,28.6,0,0,0-3.417-.362c-.952-.049-5.158,1.542-7.061,1.045s-1.452-.746-2.7-.9-3.606.567-6.009-.388-2.254-4.835.25-5.134S5842.338,1980.693,5845.5,1980.664Z"/>
      <path id="Trazado_642" data-name="Trazado 642" d="M5866.206,2077.979c5.046-.8,3.578-7.013,3.578-7.013l-2.634-15.444s-.894-4.253-6.424-3.507-3.659,7.909-3.659,7.909,1.658,9.649,2.309,12.509S5861.49,2078.725,5866.206,2077.979Z"/>
      <path id="Trazado_643" data-name="Trazado 643" d="M5859.943,2070.5c.829-1.163,2.868-2.042,6.025-1.805,2.72.205,5.245,2.468,5.605,2.718a48.42,48.42,0,0,0,18.014,7.865c3.361.694,2.566,3.284,1.348,3.431-6.577.8-30.759.329-30.759.329a8.722,8.722,0,0,1-1.979-5.007C5858.232,2075.376,5859.114,2071.658,5859.943,2070.5Z"/>
      <path id="Trazado_644" data-name="Trazado 644" d="M5859.767,2007.958c5.208,3.172,4.959,14.3,6.21,24.883,1.978,16.74,5.007,32.231,4.807,33.226s-1.8-.4-8.613.994-6.61,2.388-6.61,2.388-5.609-26.461-6.61-34.022-3.244-16.095-2.6-21.686C5847.148,2006.737,5854.559,2004.787,5859.767,2007.958Z" fill="#1c1b19"/>
      <rect id="Rectángulo_74" data-name="Rectángulo 74" width="122.187" height="4.914" transform="translate(5937.086 1992.583) rotate(180)" fill="#c19451"/>
      <rect id="Rectángulo_75" data-name="Rectángulo 75" width="95.947" height="6.792" transform="translate(5932.278 1998.965) rotate(180)" fill="#58595e"/>
      <path id="Rectángulo_76" data-name="Rectángulo 76" d="M0,0H52.4a0,0,0,0,1,0,0V1.175a5.617,5.617,0,0,1-5.617,5.617H6.792A6.792,6.792,0,0,1,0,0V0A0,0,0,0,1,0,0Z" transform="translate(5915.118 2083.281) rotate(180)" fill="#58595e"/>
      <rect id="Rectángulo_77" data-name="Rectángulo 77" width="17.627" height="84.315" transform="translate(5899.127 2083.281) rotate(180)" fill="#58595e"/>
      <g id="Grupo_182" data-name="Grupo 182">
        <rect id="Rectángulo_78" data-name="Rectángulo 78" width="6.131" height="39.427" transform="translate(5908.873 1944.884)" fill="#58595e"/>
        <path id="Trazado_645" data-name="Trazado 645" d="M5904.573,1983.545l14.69.2a7.216,7.216,0,0,1,2.547.5l6.274,1.659c.47.185.338,1.564-.167,1.564h-25.345v-1.916A2,2,0,0,1,5904.573,1983.545Z" fill="#58595e"/>
        <path id="Rectángulo_79" data-name="Rectángulo 79" d="M0,0H10.41a3.981,3.981,0,0,1,3.981,3.981v0A3.981,3.981,0,0,1,10.41,7.962H0a0,0,0,0,1,0,0V0A0,0,0,0,1,0,0Z" transform="translate(5902.572 1939.559)" fill="#58595e"/>
        <rect id="Rectángulo_80" data-name="Rectángulo 80" width="6.216" height="6.216" rx="3.108" transform="translate(5908.831 1940.581)" fill="#83868d"/>
        <circle id="Elipse_159" data-name="Elipse 159" cx="1.575" cy="1.575" r="1.575" transform="translate(5910.363 1942.114)" fill="#434449"/>
        <path id="Rectángulo_81" data-name="Rectángulo 81" d="M0,0H0A3.662,3.662,0,0,1,3.662,3.662V50.838A3.662,3.662,0,0,1,0,54.5H0a0,0,0,0,1,0,0V0A0,0,0,0,1,0,0Z" transform="translate(5896.885 1914.073) rotate(1.757)" fill="#58595e"/>
        <path id="Trazado_646" data-name="Trazado 646" d="M5901.8,1964.622l-4.086.634,1.536-48.685,4.038.89a4.263,4.263,0,0,1,3.061,4.442l-1.214,38.478A4.262,4.262,0,0,1,5901.8,1964.622Z" fill="#58595e"/>
        <rect id="Rectángulo_82" data-name="Rectángulo 82" width="4.3" height="32.766" transform="translate(5909.767 1949.843)" fill="#83868d"/>
        <rect id="Rectángulo_83" data-name="Rectángulo 83" width="2.441" height="30.202" transform="translate(5910.718 1951.271)" fill="#434449"/>
      </g>
      <path id="Trazado_647" data-name="Trazado 647" d="M5785.227,2013.281a4.214,4.214,0,1,1,1.973-5.623A4.215,4.215,0,0,1,5785.227,2013.281Z" fill="#87bc4a"/>
      <path id="Trazado_648" data-name="Trazado 648" d="M5783.705,1929.02a3.361,3.361,0,1,1,1.945-4.338A3.361,3.361,0,0,1,5783.705,1929.02Z" fill="#87bc4a"/>
      <path id="Trazado_649" data-name="Trazado 649" d="M5865.425,2077.573a3.277,3.277,0,1,1,1.534-4.372A3.277,3.277,0,0,1,5865.425,2077.573Z" fill="#87bc4a"/>
      <line id="Línea_7" data-name="Línea 7" x2="72.41" y2="4.446" transform="translate(5783.402 2009.483)" fill="none" stroke="#8dc645" stroke-miterlimit="10" stroke-width="1"/>
      <line id="Línea_8" data-name="Línea 8" x2="8.593" y2="59.831" transform="translate(5855.412 2014.754)" fill="none" stroke="#8dc645" stroke-miterlimit="10" stroke-width="1"/>
      <path id="Trazado_650" data-name="Trazado 650" d="M5855.674,2013.976l.6,6.769c-.2.018-.4.027-.6.027a6.828,6.828,0,0,1-6.795-6.8c0-.162.006-.324.017-.485Z" fill="none" stroke="#87bc4a" stroke-miterlimit="10" stroke-width="1"/>
      <line id="Línea_9" data-name="Línea 9" x1="4.253" y2="25.879" transform="translate(5778.257 1925.879)" fill="none" stroke="#8dc645" stroke-miterlimit="10" stroke-width="1"/>
      <path id="Trazado_651" data-name="Trazado 651" d="M5857.625,2018.355a4.5,4.5,0,1,1,2.109-6.01A4.5,4.5,0,0,1,5857.625,2018.355Z" fill="#87bc4a"/>
      <g id="Grupo_183" data-name="Grupo 183">
        <path id="Trazado_652" data-name="Trazado 652" d="M5855.3,2014.36a3.783,3.783,0,0,1-.083.84,1.988,1.988,0,0,1-.24.622,1.123,1.123,0,0,1-.387.389,1.021,1.021,0,0,1-.52.133,1.124,1.124,0,0,1-.529-.12v-.376a.983.983,0,0,0,.537.16.714.714,0,0,0,.367-.1.808.808,0,0,0,.274-.28,1.5,1.5,0,0,0,.171-.451,2.9,2.9,0,0,0,.059-.616h-.008a.686.686,0,0,1-.677.444.809.809,0,0,1-.638-.3,1.03,1.03,0,0,1-.184-.339,1.349,1.349,0,0,1-.065-.433,1.426,1.426,0,0,1,.072-.465,1.141,1.141,0,0,1,.2-.363.927.927,0,0,1,.309-.236.9.9,0,0,1,.39-.083.786.786,0,0,1,.4.1.875.875,0,0,1,.3.3,1.663,1.663,0,0,1,.184.493A3.186,3.186,0,0,1,5855.3,2014.36Zm-.374-.352a1.314,1.314,0,0,0-.046-.362.911.911,0,0,0-.125-.278.593.593,0,0,0-.192-.181.479.479,0,0,0-.242-.063.488.488,0,0,0-.232.057.567.567,0,0,0-.187.158.781.781,0,0,0-.125.242,1,1,0,0,0-.045.3,1.137,1.137,0,0,0,.043.326.716.716,0,0,0,.124.243.541.541,0,0,0,.193.152.591.591,0,0,0,.251.053.521.521,0,0,0,.227-.052.585.585,0,0,0,.186-.139.628.628,0,0,0,.124-.206A.686.686,0,0,0,5854.927,2014.008Z"/>
        <path id="Trazado_653" data-name="Trazado 653" d="M5857.452,2014.552a3.758,3.758,0,0,1-.069.764,1.955,1.955,0,0,1-.2.562.954.954,0,0,1-.32.347.794.794,0,0,1-.43.119.744.744,0,0,1-.407-.114.914.914,0,0,1-.3-.332,1.8,1.8,0,0,1-.186-.535,3.765,3.765,0,0,1-.063-.727,4.275,4.275,0,0,1,.066-.8,1.961,1.961,0,0,1,.2-.578.931.931,0,0,1,.32-.352.817.817,0,0,1,.439-.118Q5857.451,2012.792,5857.452,2014.552Zm-.355.038q0-1.465-.615-1.466-.65,0-.649,1.493,0,1.392.636,1.391T5857.1,2014.59Z"/>
        <path id="Trazado_654" data-name="Trazado 654" d="M5858.227,2014.135a.534.534,0,0,1-.415-.2.694.694,0,0,1-.171-.473.681.681,0,0,1,.169-.466.531.531,0,0,1,.413-.19.54.54,0,0,1,.417.191.67.67,0,0,1,.172.465.694.694,0,0,1-.171.473A.532.532,0,0,1,5858.227,2014.135Zm0-1.044a.3.3,0,0,0-.235.11.384.384,0,0,0-.1.266.413.413,0,0,0,.1.274.293.293,0,0,0,.233.114.3.3,0,0,0,.236-.115.407.407,0,0,0,.1-.273.391.391,0,0,0-.1-.268A.3.3,0,0,0,5858.227,2013.091Z"/>
      </g>
      <path id="Trazado_655" data-name="Trazado 655" d="M5799.467,1908.719c-.06-1.684-2.167-4.837-5.284-6.717-4.425-2.67-15.325-3.235-19.04,2.705-.8,1.274-.972.014-3.529,3.184-3.4,4.213-3.2,10.485-.126,15.509.76,1.243,2.873,5.583,5.259,6.327a6.892,6.892,0,0,0,.816.2c1.925-2.261,4.837-2.5,5.972-5.334.741-1.853.132-1-.807-1.336s-2.012-6.141.5-6.957c2.227-.724,3.509,2.226,3.691,2,1.368-1.688-.668-7.744,1.645-9.016,3.642-2,9.4,3.172,10.737,1.065A7.7,7.7,0,0,0,5799.467,1908.719Z" fill="#2d160e"/>
      <path id="Trazado_656" data-name="Trazado 656" d="M5805.957,1987.5c.124,6.119,1.622,10.883,1.931,13.626.039.352-2.1.875-14.974,1.5-11.713.564-15.043-.145-14.973-.576.37-2.274,3.362-5.7.824-17.878C5775.869,1970.261,5805.509,1965.272,5805.957,1987.5Z" fill="#623752"/>
      <path id="Trazado_657" data-name="Trazado 657" d="M5808.689,1973.476c-3.975-7.5-11.327-26.4-16.524-29.77-7.072-4.578-12.957-.554-13.018,5.745-.066,6.966,9.474,18.345,13.143,23.864,7.234,10.882,7.921,13.841,14.409,13.388C5812.063,1986.329,5812.664,1980.977,5808.689,1973.476Z" fill="#491f33"/>
      <path id="Trazado_658" data-name="Trazado 658" d="M5829.176,1978.017c-8.975-.88-20.39-4.32-26.086-1.879-5.108,2.188-4.958,8.3-.262,10.147,5.67,2.231,16.464.882,22.186.994,6.109.121,12.719-.1,19.379.234l.343-7.869C5840.237,1979.321,5834.274,1978.517,5829.176,1978.017Z" fill="#491f33"/>
      <line id="Línea_10" data-name="Línea 10" x2="5.604" y2="57.113" transform="translate(5777.798 1952.37)" fill="none" stroke="#8dc645" stroke-miterlimit="10" stroke-width="1"/>
      <path id="Trazado_659" data-name="Trazado 659" d="M5778.964,1954.819a3.277,3.277,0,1,1,1.9-4.228A3.277,3.277,0,0,1,5778.964,1954.819Z" fill="#87bc4a"/>
      <g id="Grupo_185" data-name="Grupo 185">
        <path id="Trazado_660" data-name="Trazado 660" d="M5795.4,1964.242l9.331,17.576,20.785.564" fill="none" stroke="#8dc645" stroke-miterlimit="10" stroke-width="1"/>
        <path id="Trazado_661" data-name="Trazado 661" d="M5801.925,1976.351c5.333-2.874,9.567.694,8.786,5.414" fill="none" stroke="#8dc645" stroke-miterlimit="10" stroke-width="1"/>
        <circle id="Elipse_160" data-name="Elipse 160" cx="3.894" cy="3.894" r="3.894" transform="matrix(0.871, -0.492, 0.492, 0.871, 5800.103, 1979.365)" fill="#87bc4a"/>
        <g id="Grupo_184" data-name="Grupo 184">
          <path id="Trazado_662" data-name="Trazado 662" d="M5803.185,1982.382h-.314v-2.688a.841.841,0,0,1-.106.093,1.732,1.732,0,0,1-.157.106,2.017,2.017,0,0,1-.184.1,1.163,1.163,0,0,1-.189.072v-.36a1.687,1.687,0,0,0,.219-.088c.077-.037.154-.078.228-.123s.145-.094.212-.143a1.806,1.806,0,0,0,.172-.147h.119Z"/>
          <path id="Trazado_663" data-name="Trazado 663" d="M5805.67,1980.813a3.41,3.41,0,0,1-.063.692,1.7,1.7,0,0,1-.18.509.858.858,0,0,1-.289.315.722.722,0,0,1-.389.107.67.67,0,0,1-.369-.1.829.829,0,0,1-.273-.3,1.67,1.67,0,0,1-.169-.484,3.484,3.484,0,0,1-.057-.659,3.842,3.842,0,0,1,.06-.72,1.792,1.792,0,0,1,.178-.524.831.831,0,0,1,.29-.319.733.733,0,0,1,.4-.108Q5805.67,1979.218,5805.67,1980.813Zm-.322.035q0-1.328-.557-1.328-.588,0-.588,1.351,0,1.262.576,1.262T5805.348,1980.848Z"/>
          <path id="Trazado_664" data-name="Trazado 664" d="M5807.588,1980.813a3.41,3.41,0,0,1-.063.692,1.715,1.715,0,0,1-.18.509.863.863,0,0,1-.289.315.722.722,0,0,1-.389.107.67.67,0,0,1-.369-.1.829.829,0,0,1-.273-.3,1.67,1.67,0,0,1-.169-.484,3.484,3.484,0,0,1-.057-.659,3.842,3.842,0,0,1,.06-.72,1.792,1.792,0,0,1,.178-.524.835.835,0,0,1,.29-.319.733.733,0,0,1,.4-.108Q5807.588,1979.218,5807.588,1980.813Zm-.322.035q0-1.328-.557-1.328-.588,0-.588,1.351,0,1.262.576,1.262T5807.266,1980.848Z"/>
          <path id="Trazado_665" data-name="Trazado 665" d="M5808.289,1980.435a.483.483,0,0,1-.376-.176.63.63,0,0,1-.154-.429.614.614,0,0,1,.153-.422.483.483,0,0,1,.373-.172.491.491,0,0,1,.378.173.608.608,0,0,1,.157.421.63.63,0,0,1-.155.429A.483.483,0,0,1,5808.289,1980.435Zm0-.946a.27.27,0,0,0-.212.1.347.347,0,0,0-.088.24.373.373,0,0,0,.086.249.264.264,0,0,0,.21.1.272.272,0,0,0,.214-.1.364.364,0,0,0,.091-.247.351.351,0,0,0-.089-.242A.275.275,0,0,0,5808.289,1979.489Z"/>
        </g>
      </g>
    </g>
    <text id="Existen_varios_tipos_de_ergonomía" data-name="Existen varios tipos de ergonomía" transform="translate(450.55 1787.314)" fill="#00181e" font-size="24" font-family="Montserrat-Bold, Montserrat" font-weight="700"><tspan x="140.292" y="23">Existen varios tipos de ergonomía</tspan></text>
    <g id="Grupo_246" data-name="Grupo 246" transform="translate(-4657.478 26)">
      <ellipse id="Elipse_161" data-name="Elipse 161" cx="53.071" cy="8.646" rx="53.071" ry="8.646" transform="translate(5361.438 2077.179)" fill="#a3a4a6" opacity="0.2"/>
      <ellipse id="Elipse_162" data-name="Elipse 162" cx="53.071" cy="8.646" rx="53.071" ry="8.646" transform="translate(5484.825 2077.179)" fill="#a3a4a6" opacity="0.2"/>
      <g id="Grupo_211" data-name="Grupo 211">
        <g id="Grupo_209" data-name="Grupo 209">
          <g id="Grupo_189" data-name="Grupo 189">
            <g id="Grupo_187" data-name="Grupo 187">
              <path id="Trazado_666" data-name="Trazado 666" d="M5430.788,1986.873c-.357-1.174-.9-1.974-.783-3.27.116.264.933,2.033,1.791,1.333.673-.549-.7-4.814-2.266-6.823a6.16,6.16,0,0,1-.985-2.072,20.052,20.052,0,0,0-6.034,1.6,1.108,1.108,0,0,1,0,.391,19.438,19.438,0,0,0,.628,6.075,9.974,9.974,0,0,0,2.031,4.414,3.61,3.61,0,0,0,3.786,1.408A2.657,2.657,0,0,0,5430.788,1986.873Z" fill="#ebbf99"/>
            </g>
            <g id="Grupo_188" data-name="Grupo 188">
              <path id="Trazado_667" data-name="Trazado 667" d="M5422.2,1943.811c-.186-.652-1.784-4.429-6.638-2.805s-4.36,4.256-4.36,4.256c.159.6.3,1.139.42,1.587,1.532,5.736,7.986,21.376,10.8,32.289l6.493-2.057C5425.353,1965.918,5427.57,1962.61,5422.2,1943.811Z" fill="#ebbf99"/>
            </g>
          </g>
          <g id="Grupo_190" data-name="Grupo 190">
            <path id="Trazado_668" data-name="Trazado 668" d="M5376.385,2054.951c-.82-.378-2.936.866-4.524,3.139-.8,1.141-1.99,2.752-2.139,3.7,0,0-2.037,1.211-1.21,2.862.407.813,19.429,13.417,19.429,13.417s2.891,1.746,4.931-.432-1.338-4.636-1.338-4.636c-.916-.144-4.9-11.163-6.123-12-1.74-1.186-3.543-.774-5.869-2.4S5377.615,2055.519,5376.385,2054.951Z" fill="#0e2f3c"/>
          </g>
          <g id="Grupo_191" data-name="Grupo 191">
            <path id="Trazado_669" data-name="Trazado 669" d="M5412.653,2014.546c-2.844,3.235-24.531,22.771-36.958,40.374,1.609,2.836,8.113,7.543,11.178,8.723,15.19-16.44,27.015-28.848,39.356-38.241,0,0,2.049-4.465-3.671-9.492S5412.653,2014.546,5412.653,2014.546Z" fill="#1a5480"/>
          </g>
          <g id="Grupo_192" data-name="Grupo 192">
            <path id="Trazado_670" data-name="Trazado 670" d="M5406.446,1970.058c-2.28,10.577-.4,12.477,1.256,26.633,1.271,10.869,2.978,22.164,2.714,25.6,0,0,.152,4.741,7.35,5.834s10.025-5.309,10.025-5.309c4.1-14.424,5.111-27.36,6.131-40.568.229-2.963.452-5.638.794-8.6,0,0-1.432-7.468-13.512-9.93S5406.446,1970.058,5406.446,1970.058Z" fill="#1a5480"/>
          </g>
          <g id="Grupo_193" data-name="Grupo 193">
            <path id="Trazado_671" data-name="Trazado 671" d="M5425.48,2073.368c-.886.166-1.891,2.405-1.87,5.178.01,1.393-.028,3.4.4,4.257,0,0-.96,2.168.67,3.035.8.427,23.61-.313,23.61-.313s3.368-.25,3.77-3.207-3.776-3.005-3.776-3.005c-.83.412-10.455-6.265-11.94-6.237-2.1.04-3.336,1.42-6.174,1.443S5426.813,2073.117,5425.48,2073.368Z" fill="#103645"/>
          </g>
          <g id="Grupo_194" data-name="Grupo 194">
            <path id="Trazado_672" data-name="Trazado 672" d="M5423.837,2020.257c.115,4.306-2.5,33.378.363,54.734,3.109.985,11.079.013,14.128-1.207-.044-22.383.186-39.522,2.845-54.8,0,0-1.534-4.667-9.147-4.462S5423.837,2020.257,5423.837,2020.257Z" fill="#216699"/>
          </g>
          <g id="Grupo_195" data-name="Grupo 195">
            <path id="Trazado_673" data-name="Trazado 673" d="M5405.645,1974.015c.859,10.787,3.205,12.066,8.864,25.147,4.345,10.044,9.229,20.37,9.965,23.737,0,0,1.51,4.5,8.718,3.473s8.073-7.969,8.073-7.969c-.22-14.995-2.976-27.674-5.8-40.617-.634-2.9-1.191-5.53-1.713-8.461,0,0-3.52-6.739-15.8-5.621S5405.645,1974.015,5405.645,1974.015Z" fill="#216699"/>
          </g>
          <g id="Grupo_196" data-name="Grupo 196">
            <path id="Trazado_674" data-name="Trazado 674" d="M5433.532,1892.716a21.369,21.369,0,0,1-1.108,2.705c-.117.239-.231.485-.351.711a14.452,14.452,0,0,1-5.145,4.913c7.483,2.246,12.794,16.309,12.794,16.309a37.79,37.79,0,0,0-1.053-6.727c-.341-.543.2-3.358.672-5.427C5435.8,1902.263,5433.97,1897.659,5433.532,1892.716Z" fill="#facca3"/>
          </g>
          <g id="Grupo_197" data-name="Grupo 197">
            <path id="Trazado_675" data-name="Trazado 675" d="M5441.015,1900.827c-3.022-.808-4.3-7.849-4.894-11.649-.592-2.09-1.335-2.07-2.073,1.538a13.622,13.622,0,0,1-.516,2c.438,4.943,2.272,9.547,5.809,12.484.278-1.226.529-2.191.554-2.264A5.111,5.111,0,0,1,5441.015,1900.827Z" fill="#ebc099"/>
          </g>
          <g id="Grupo_198" data-name="Grupo 198">
            <path id="Trazado_676" data-name="Trazado 676" d="M5454.506,1879.971c.349-.189.987,7.312-.156,8.859a2.131,2.131,0,0,0-.577,2.3c.465,1.591,1.174,4.254.93,4.943-.355,1-2.612,1.155-2.612,1.155-1.536.927-2.542,6.042-4.78,6.645-1.919.516-4.963-1.661-5.792-2.293-5.064-3.953-8.917-7.666-8.313-11.866C5439.052,1881.542,5445.741,1873.33,5454.506,1879.971Z" fill="#facca3"/>
          </g>
          <g id="Grupo_199" data-name="Grupo 199">
            <path id="Trazado_677" data-name="Trazado 677" d="M5453.944,1881.447a8.266,8.266,0,0,0-1.969-.792c-2.042-.482-5.792-1.057-8.036.5-3.2,2.221-2.065,4.09-2.139,5.146s-.266,1.28-1.54,2.22c-1.566.407-2.394-1.607-2.394-1.607l-1.966,2.023c.686.579-2.855,6.479-3.5,5.915,1.671-6.834-2.873-7.967-2.613-13.269.276-5.6,3.161-9.8,10.477-10.132,2.106-2.8,10.951-2.954,15.194,1.347C5459.442,1876.83,5456.561,1882.843,5453.944,1881.447Z" fill="#602e2d"/>
          </g>
          <g id="Grupo_200" data-name="Grupo 200">
            <path id="Trazado_678" data-name="Trazado 678" d="M5435.48,1887.954c.321,2.074,1.644,3.537,2.954,3.267s2.111-2.17,1.789-4.244-1.644-3.536-2.954-3.267S5435.158,1885.88,5435.48,1887.954Z" fill="#facca3"/>
          </g>
          <g id="Grupo_201" data-name="Grupo 201">
            <path id="Trazado_679" data-name="Trazado 679" d="M5441.044,1932.313c1.479-8.094-2.534-19.2-3.2-20.73a19.644,19.644,0,0,0-3.343-4.681c-3.729-3.927-6.87-6.333-8.017-6.38h0c-.1.031-.2.064-.294.1-2.154.782-10.765,2.385-16.116,12.021-8.734,15.729-6.578,37.531-4.6,59.474,4.1,3.015,21.17,4.982,28.705,4.172a11.754,11.754,0,0,0,2.473-.48c.009-5.132-1.367-17.117-.337-23.768S5440.424,1935.7,5441.044,1932.313Z" fill="#ee5f3e"/>
          </g>
          <g id="Grupo_208" data-name="Grupo 208">
            <g id="Grupo_204" data-name="Grupo 204">
              <g id="Grupo_202" data-name="Grupo 202">
                <path id="Trazado_680" data-name="Trazado 680" d="M5419.165,1982.091a22.411,22.411,0,0,0-6.477,2.166,1.163,1.163,0,0,1,.021.417,20.326,20.326,0,0,0,1.07,6.45,14.284,14.284,0,0,0,3.014,5.718,3.956,3.956,0,0,0,4.3.9,2.937,2.937,0,0,0,1.544-3.528c-.469-1.874-1.188-5.1-1.188-5.1s1.412,3.112,2.482,2.393c.779-.523-1.727-5.254-3.561-7.284A6.506,6.506,0,0,1,5419.165,1982.091Z" fill="#facca3"/>
              </g>
              <g id="Grupo_203" data-name="Grupo 203">
                <path id="Trazado_681" data-name="Trazado 681" d="M5410.207,1948.1c-.245-.683-2.226-4.6-7.416-2.5s-4.485,4.879-4.485,4.879c.212.636.4,1.2.559,1.666,2.035,6.019,10.064,22.258,13.827,33.716l6.949-2.686C5415.043,1971.505,5417.25,1967.8,5410.207,1948.1Z" fill="#facca3"/>
              </g>
            </g>
            <g id="Grupo_207" data-name="Grupo 207">
              <g id="Grupo_205" data-name="Grupo 205">
                <path id="Trazado_682" data-name="Trazado 682" d="M5421.11,1933.842l-14.5-6.5c-2.533,6.267-5.529,13.913-7.166,18.168,0,0-3.044,5.966,1.94,8.049,6.528,2.728,8.8-2.732,8.8-2.732a28.6,28.6,0,0,1,1.941-3.765A84.759,84.759,0,0,0,5421.11,1933.842Z" fill="#facca3"/>
              </g>
              <g id="Grupo_206" data-name="Grupo 206">
                <path id="Trazado_683" data-name="Trazado 683" d="M5422.08,1932.943c2.691-5.64,5.94-13.563,5.962-17.679s-4.354-9.066-8.75-7.951l-.169.044c-2.3.617-3.162,1.556-4.682,3.142-2.414,2.517-2.785,4.546-4.478,7.48-.576,1-2.372,5.294-4.467,10.48l15.377,6.893Q5421.479,1934.2,5422.08,1932.943Z" fill="#f1846a"/>
              </g>
            </g>
          </g>
        </g>
        <g id="Grupo_210" data-name="Grupo 210">
          <path id="Trazado_684" data-name="Trazado 684" d="M5388.663,1968.421a2.29,2.29,0,0,1-2.113-3.16,45.573,45.573,0,0,0,1.966-6.608,2.286,2.286,0,1,1,4.452,1.044,49.912,49.912,0,0,1-2.191,7.309A2.287,2.287,0,0,1,5388.663,1968.421Zm3.594-14.433A2.293,2.293,0,0,1,5390,1951.3c.412-2.338.809-4.846,1.178-7.455a2.286,2.286,0,1,1,4.527.641c-.376,2.66-.781,5.22-1.2,7.609A2.287,2.287,0,0,1,5392.257,1953.988Zm2.154-15.1a2.109,2.109,0,0,1-.262-.015,2.285,2.285,0,0,1-2.012-2.53c.287-2.512.541-5.044.756-7.527a2.287,2.287,0,0,1,4.556.4c-.219,2.523-.477,5.1-.769,7.649A2.287,2.287,0,0,1,5394.411,1938.89Zm1.327-15.191c-.064,0-.13,0-.195-.009a2.286,2.286,0,0,1-2.086-2.47,47.391,47.391,0,0,1,1.295-7.89,2.286,2.286,0,0,1,4.425,1.15,43.051,43.051,0,0,0-1.164,7.125A2.287,2.287,0,0,1,5395.738,1923.7Zm4.048-14.553a2.286,2.286,0,0,1-1.974-3.435,25.149,25.149,0,0,1,5.314-6.409,2.286,2.286,0,1,1,3,3.447,20.658,20.658,0,0,0-4.365,5.26A2.286,2.286,0,0,1,5399.786,1909.146Zm11.147-10.084a2.286,2.286,0,0,1-1.1-4.293l.489-.263a16.461,16.461,0,0,0,4.854-3.8,2.286,2.286,0,1,1,3.514,2.925,21.068,21.068,0,0,1-6.226,4.92l-.439.235A2.275,2.275,0,0,1,5410.933,1899.062Z" fill="#f00000"/>
        </g>
      </g>
      <g id="Grupo_240" data-name="Grupo 240">
        <g id="Grupo_238" data-name="Grupo 238">
          <g id="Grupo_218" data-name="Grupo 218">
            <g id="Grupo_214" data-name="Grupo 214">
              <g id="Grupo_212" data-name="Grupo 212">
                <path id="Trazado_685" data-name="Trazado 685" d="M5568.71,1978.265c-.582-1.178-1.5-2.6-1.886-3.654.391.341,1.63,1.318,2.087.426.4-.773-2.2-3.937-4.254-5.442a6.165,6.165,0,0,1-1.515-1.723,20.079,20.079,0,0,0-5.366,3.19,1.062,1.062,0,0,1,.1.376,19.459,19.459,0,0,0,2.265,5.674,13.623,13.623,0,0,0,3.858,4.641,3.609,3.609,0,0,0,4.039.015A2.735,2.735,0,0,0,5568.71,1978.265Z" fill="#ebbf99"/>
              </g>
              <g id="Grupo_213" data-name="Grupo 213">
                <path id="Trazado_686" data-name="Trazado 686" d="M5548.235,1938.6c-.358-.577-2.927-3.773-7.152-.885s-3.032,5.286-3.032,5.286c.319.539.6,1.014.839,1.413,3.041,5.1,13.524,18.379,19.215,28.106l5.683-3.752C5557.305,1959.007,5558.534,1955.219,5548.235,1938.6Z" fill="#ebbf99"/>
              </g>
            </g>
            <g id="Grupo_217" data-name="Grupo 217">
              <g id="Grupo_215" data-name="Grupo 215">
                <path id="Trazado_687" data-name="Trazado 687" d="M5541.141,1920.707l-12.6,7.223c3.333,5.365,7.45,11.841,9.758,15.422,0,0,2.835,5.58,7.053,3.014,5.524-3.361,2.654-8.081,2.654-8.081a27.234,27.234,0,0,1-1.779-3.537A80.979,80.979,0,0,0,5541.141,1920.707Z" fill="#ebbf99"/>
              </g>
              <g id="Grupo_216" data-name="Grupo 216">
                <path id="Trazado_688" data-name="Trazado 688" d="M5540.986,1919.485c-2.78-5.135-6.969-11.954-10.034-14.253s-9.1-1.775-10.616,2.125l-.057.151c-.768,2.06-.525,3.223-.151,5.237.594,3.2,1.912,4.6,3.2,7.489.439.984,2.692,4.706,5.45,9.146l13.363-7.658Q5541.6,1920.63,5540.986,1919.485Z" fill="#e07a62"/>
              </g>
            </g>
          </g>
          <g id="Grupo_219" data-name="Grupo 219">
            <path id="Trazado_689" data-name="Trazado 689" d="M5489.069,2055.6c-.824-.367-2.924.9-4.484,3.2-.783,1.151-1.953,2.778-2.09,3.73,0,0-2.022,1.238-1.174,2.877.418.808,19.6,13.168,19.6,13.168s2.912,1.708,4.925-.495-1.4-4.619-1.4-4.619c-.917-.133-5.038-11.1-6.276-11.92-1.754-1.164-3.552-.728-5.9-2.323S5490.307,2056.156,5489.069,2055.6Z" fill="#0e2f3c"/>
          </g>
          <g id="Grupo_220" data-name="Grupo 220">
            <path id="Trazado_690" data-name="Trazado 690" d="M5524.818,2014.738c-2.8,3.272-24.238,23.084-36.439,40.844,1.645,2.816,8.209,7.439,11.289,8.58,14.979-16.633,26.644-29.192,38.863-38.741,0,0,1.992-4.491-3.792-9.445S5524.818,2014.738,5524.818,2014.738Z" fill="#1a5480"/>
          </g>
          <g id="Grupo_221" data-name="Grupo 221">
            <path id="Trazado_691" data-name="Trazado 691" d="M5518.043,1970.334c-2.146,10.6-.242,12.481,1.6,26.615,1.411,10.851,3.262,22.124,3.042,25.563,0,0,.213,4.739,7.424,5.74s9.956-5.438,9.956-5.438c3.919-14.475,4.761-27.423,5.612-40.643.191-2.965.379-5.643.684-8.6,0,0-1.528-7.449-13.638-9.756S5518.043,1970.334,5518.043,1970.334Z" fill="#1a5480"/>
          </g>
          <g id="Grupo_222" data-name="Grupo 222">
            <path id="Trazado_692" data-name="Trazado 692" d="M5538.4,2073.391c-.885.178-1.861,2.43-1.805,5.2.028,1.392.016,3.4.456,4.251,0,0-.932,2.18.709,3.026.808.416,23.6-.614,23.6-.614s3.364-.294,3.729-3.256-3.814-2.956-3.814-2.956c-.825.423-10.535-6.131-12.02-6.084-2.1.067-3.317,1.463-6.154,1.522S5539.726,2073.125,5538.4,2073.391Z" fill="#103645"/>
          </g>
          <g id="Grupo_223" data-name="Grupo 223">
            <path id="Trazado_693" data-name="Trazado 693" d="M5536.074,2020.306c.17,4.3-2.07,33.407,1.063,54.725,3.122.945,11.078-.128,14.111-1.387-.33-22.381-.319-39.522,2.144-54.833,0,0-1.593-4.647-9.2-4.345S5536.074,2020.306,5536.074,2020.306Z" fill="#216699"/>
          </g>
          <g id="Grupo_224" data-name="Grupo 224">
            <path id="Trazado_694" data-name="Trazado 694" d="M5517.292,1974.3c1,10.775,3.359,12.023,9.185,25.031,4.473,9.987,9.489,20.251,10.268,23.608,0,0,1.567,4.477,8.761,3.361s7.971-8.072,7.971-8.072c-.412-14.991-3.33-27.634-6.318-40.539-.67-2.895-1.26-5.514-1.82-8.438,0,0-3.607-6.694-15.868-5.419S5517.292,1974.3,5517.292,1974.3Z" fill="#216699"/>
          </g>
          <g id="Grupo_225" data-name="Grupo 225">
            <path id="Trazado_695" data-name="Trazado 695" d="M5524.264,1889.3a21.388,21.388,0,0,1,.1,2.922c-.009.266-.013.537-.03.793a15.6,15.6,0,0,1-1.106,4.943,10,10,0,0,1-1.578,1.645c7.748-1.013,19.3,9.814,19.3,9.814a61.194,61.194,0,0,0-4.662-5.876c-.532-.356-1.189-3.147-1.608-5.227C5530.244,1897.082,5526.686,1893.632,5524.264,1889.3Z" fill="#facca3"/>
          </g>
          <g id="Grupo_226" data-name="Grupo 226">
            <path id="Trazado_696" data-name="Trazado 696" d="M5534.411,1893.639c-3.088.5-7.136-5.4-9.233-8.625-1.4-1.666-2.064-1.344-1.262,2.251a13.743,13.743,0,0,1,.348,2.035c2.422,4.332,5.98,7.782,10.408,9.014-.248-1.232-.413-2.215-.42-2.292A5.128,5.128,0,0,1,5534.411,1893.639Z" fill="#ebc099"/>
          </g>
          <g id="Grupo_227" data-name="Grupo 227">
            <path id="Trazado_697" data-name="Trazado 697" d="M5540.05,1870.566c.263-.3,3.426,6.534,2.881,8.379a2.129,2.129,0,0,0,.242,2.354c.981,1.337,2.557,3.6,2.562,4.328.009,1.061-2.06,1.978-2.06,1.978-1.126,1.4-.324,6.547-2.221,7.878-1.626,1.142-5.231.135-6.227-.175-6.109-1.985-11-4.158-11.867-8.312C5526.063,1877.322,5529.544,1867.319,5540.05,1870.566Z" fill="#facca3"/>
          </g>
          <g id="Grupo_228" data-name="Grupo 228">
            <path id="Trazado_698" data-name="Trazado 698" d="M5540.027,1872.145a8.239,8.239,0,0,0-2.121-.072c-2.084.244-5.8.986-7.382,3.216-2.25,3.181-.543,4.549-.252,5.567s.111,1.02-.765,2.34c-1.333.918-2.723-.42-2.723-.42l-1.156,2.573c.843.31-.469,7.065-1.264,6.753-.764-6.993-5.422-6.506-6.989-11.577-1.654-5.355-.378-10.29,6.384-13.1,1.022-3.351,9.282-6.517,14.74-3.925C5543.616,1865.927,5542.963,1872.562,5540.027,1872.145Z" fill="#602e2d"/>
          </g>
          <g id="Grupo_229" data-name="Grupo 229">
            <path id="Trazado_699" data-name="Trazado 699" d="M5524.9,1884.569c1.011,1.84,2.753,2.762,3.892,2.061s1.243-2.761.232-4.6-2.753-2.762-3.892-2.061S5523.886,1882.73,5524.9,1884.569Z" fill="#facca3"/>
          </g>
          <g id="Grupo_230" data-name="Grupo 230">
            <path id="Trazado_700" data-name="Trazado 700" d="M5546.5,1942.734c.151-7.865.59-14.882.206-18.309-.916-8.177-4.9-13.84-5.762-15.513-.357-.688-2.455-2.266-4.884-3.869-1.424-.939-2.96-1.886-4.328-2.668-4.7-2.686-8.4-4.084-9.515-3.8h0l-.255.178c-6.4,7-5.765,19.667-3.79,32.874,3.51,25.64-1.885,42.283-1.884,42.285,4.36,2.625,21.539,3.014,28.967,1.513a11.672,11.672,0,0,0,2.419-.706C5547.049,1967.876,5546.289,1953.639,5546.5,1942.734Z" fill="#ee5f3e"/>
          </g>
          <g id="Grupo_237" data-name="Grupo 237">
            <g id="Grupo_233" data-name="Grupo 233">
              <g id="Grupo_231" data-name="Grupo 231">
                <path id="Trazado_701" data-name="Trazado 701" d="M5520.743,1980.97a6.139,6.139,0,0,1-.422-2.255,20.073,20.073,0,0,0-6.243,0,1.1,1.1,0,0,1-.1.376,19.414,19.414,0,0,0-.949,6.034,13.618,13.618,0,0,0,.948,5.961,3.608,3.608,0,0,0,3.465,2.075,2.736,2.736,0,0,0,2.364-2.671c.139-1.8.408-4.093.408-4.093s.636,2.229,1.642,1.585C5522.584,1987.518,5521.741,1983.313,5520.743,1980.97Z" fill="#facca3"/>
              </g>
              <g id="Grupo_232" data-name="Grupo 232">
                <path id="Trazado_702" data-name="Trazado 702" d="M5522.445,1945.936c-.013-.678-.59-4.738-5.7-4.412s-5.305,3-5.305,3c0,.626,0,1.179,0,1.642.012,5.937,2.245,22.708,2.173,33.978l6.8-.325C5519.828,1968.113,5522.818,1965.482,5522.445,1945.936Z" fill="#facca3"/>
              </g>
            </g>
            <g id="Grupo_236" data-name="Grupo 236">
              <g id="Grupo_234" data-name="Grupo 234">
                <path id="Trazado_703" data-name="Trazado 703" d="M5529.465,1928.342l-14.1-3.5c-1.3,6.18-2.808,13.7-3.618,17.887,0,0-1.812,5.992,3.009,7.055,6.315,1.394,7.506-4,7.506-4a27.37,27.37,0,0,1,1.162-3.785A80.992,80.992,0,0,0,5529.465,1928.342Z" fill="#facca3"/>
              </g>
              <g id="Grupo_235" data-name="Grupo 235">
                <path id="Trazado_704" data-name="Trazado 704" d="M5530.2,1927.353c1.544-5.632,3.234-13.454,2.61-17.235s-5.346-7.577-9.137-5.807l-.145.069c-1.98.958-2.608,1.965-3.731,3.679-1.783,2.72-1.8,4.644-2.868,7.623-.363,1.015-1.31,5.261-2.388,10.376l14.948,3.71Q5529.854,1928.609,5530.2,1927.353Z" fill="#f1846a"/>
              </g>
            </g>
          </g>
        </g>
        <g id="Grupo_239" data-name="Grupo 239">
          <path id="Trazado_705" data-name="Trazado 705" d="M5505.475,1974.145a2.287,2.287,0,0,1-2.27-2.581c.3-2.306.553-4.815.751-7.459a2.286,2.286,0,1,1,4.559.342c-.2,2.727-.465,5.32-.776,7.706A2.285,2.285,0,0,1,5505.475,1974.145Zm1.169-15.193h-.076a2.286,2.286,0,0,1-2.211-2.359c.069-2.1.1-4.248.1-6.373l0-1.16a2.284,2.284,0,0,1,2.273-2.3h.013a2.286,2.286,0,0,1,2.286,2.273l0,1.184c0,2.174-.034,4.369-.105,6.523A2.284,2.284,0,0,1,5506.644,1958.952Zm-.085-15.238a2.286,2.286,0,0,1-2.283-2.19c-.1-2.485-.255-5.018-.448-7.528a2.286,2.286,0,1,1,4.559-.351c.2,2.562.351,5.149.457,7.687a2.286,2.286,0,0,1-2.188,2.38C5506.624,1943.714,5506.591,1943.714,5506.559,1943.714Zm-.919-15.213a2.287,2.287,0,0,1-2.284-2.216q-.056-1.787-.055-3.532c0-1.444.029-2.863.084-4.249a2.286,2.286,0,0,1,4.569.183q-.08,1.991-.08,4.066,0,1.675.053,3.392a2.287,2.287,0,0,1-2.216,2.355Zm.667-15.212a2.429,2.429,0,0,1-.305-.02,2.287,2.287,0,0,1-1.965-2.568,55.909,55.909,0,0,1,1.227-6.486c.071-.281.167-.621.278-1.013l.078-.279a2.287,2.287,0,0,1,4.4,1.236l-.081.284c-.1.349-.184.654-.249.907a51.318,51.318,0,0,0-1.123,5.954A2.287,2.287,0,0,1,5506.307,1913.289Zm2.994-14.928q-.1,0-.2-.009a2.286,2.286,0,0,1-2.077-2.478c.041-.466.24-3.881.258-4.369a2.32,2.32,0,0,1,2.364-2.2,2.286,2.286,0,0,1,2.205,2.365c-.02.57-.224,4.065-.272,4.611A2.286,2.286,0,0,1,5509.3,1898.361Z" fill="#2ec400"/>
        </g>
      </g>
      <g id="Grupo_243" data-name="Grupo 243">
        <g id="Grupo_241" data-name="Grupo 241">
          <path id="Trazado_706" data-name="Trazado 706" d="M5517.672,1845.859a12.536,12.536,0,1,1,12.536,12.537A12.549,12.549,0,0,1,5517.672,1845.859Zm3.588,0a8.948,8.948,0,1,0,8.948-8.947A8.959,8.959,0,0,0,5521.26,1845.859Z" fill="#6dc452"/>
        </g>
        <g id="Grupo_242" data-name="Grupo 242">
          <path id="Trazado_707" data-name="Trazado 707" d="M5530.208,1852.47a1.8,1.8,0,0,0,1.547-.885l4.635-7.882a1.794,1.794,0,0,0-3.093-1.819l-3.089,5.252-3.089-5.252a1.794,1.794,0,0,0-3.093,1.819l4.635,7.882A1.8,1.8,0,0,0,5530.208,1852.47Z" fill="#6dc452"/>
        </g>
      </g>
      <g id="Grupo_245" data-name="Grupo 245">
        <g id="Grupo_244" data-name="Grupo 244">
          <path id="Trazado_708" data-name="Trazado 708" d="M5414.509,1845.859a12.536,12.536,0,1,1,12.536,12.537A12.549,12.549,0,0,1,5414.509,1845.859Zm3.588,0a8.948,8.948,0,1,0,8.948-8.947A8.958,8.958,0,0,0,5418.1,1845.859Z" fill="#f55858"/>
        </g>
        <path id="Trazado_709" data-name="Trazado 709" d="M5424.508,1845.859l-2.715-2.715a1.794,1.794,0,0,1,2.537-2.537l2.715,2.715,2.715-2.715a1.794,1.794,0,0,1,2.537,2.537l-2.715,2.715,2.715,2.716a1.794,1.794,0,1,1-2.537,2.537l-2.715-2.715-2.715,2.715a1.794,1.794,0,0,1-2.537-2.537Z" fill="#f55858"/>
      </g>
    </g>
    <g id="Grupo_271" data-name="Grupo 271" transform="translate(-4657.478 26)">
      <path id="Trazado_710" data-name="Trazado 710" d="M5162.051,2088.414c0,2.166-38.415,3.922-85.8,3.922s-85.8-1.756-85.8-3.922,38.415-3.923,85.8-3.923S5162.051,2086.247,5162.051,2088.414Z" fill="#a3a4a6" opacity="0.2"/>
      <ellipse id="Elipse_163" data-name="Elipse 163" cx="96.287" cy="5.114" rx="96.287" ry="5.114" transform="translate(4979.962 2083.574)" fill="#a3a4a6" opacity="0.2"/>
      <ellipse id="Elipse_164" data-name="Elipse 164" cx="106.231" cy="6.578" rx="106.231" ry="6.578" transform="translate(4970.017 2082.34)" fill="#a3a4a6" opacity="0.2"/>
      <path id="Trazado_711" data-name="Trazado 711" d="M5152.029,2087.865c0,1.405-33.928,2.544-75.781,2.544s-75.78-1.139-75.78-2.544,33.928-2.544,75.78-2.544S5152.029,2086.46,5152.029,2087.865Z" fill="#a3a4a6" opacity="0.2"/>
      <path id="Trazado_712" data-name="Trazado 712" d="M5078.44,1944.454c1.378.617,3.893-.507,5.079-.458a5.8,5.8,0,0,1,2.228.55c1.195.382,2.063.09,2.29-.289.238-.4-.406-.843-1.02-1.185s-2.068-.537-2.916-.947c-.9-.437-1.075-1.4-2.062-1.8-2.239-.9-4.98.167-5.4,1.5C5076.455,1942.4,5076.717,1943.684,5078.44,1944.454Z" fill="#e2b98d"/>
      <path id="Trazado_713" data-name="Trazado 713" d="M5016.6,1921.955c.083-5.277,3.73-11.365,12.251-12.172,9.578-.906,14.316,7.549,15.878,12.206s1.218,8.7,1.308,14.188c.182,10.988-18.566,14.2-24.493,1.92C5019.352,1933.547,5016.524,1927.1,5016.6,1921.955Z" fill="#623752"/>
      <path id="Trazado_714" data-name="Trazado 714" d="M5046.034,1935.52c.113,5.608-1.821,10.973-1.07,24.966.592,11.05-1.206,40.745-10.231,28.645-5.389-7.227-17.1-11.418-17.3-24.68-.131-8.569,6.786-18.322,1.707-31.747C5014.536,1920.533,5045.623,1915.156,5046.034,1935.52Z" fill="#623752"/>
      <path id="Trazado_715" data-name="Trazado 715" d="M5018.174,1895.562c3.159-3.052,9.869-2.325,14.789,1.321s9.891,9.212,11.4,14.7c1.136,4.143,2.125,9,1.679,11.515s-3.064,8.263-12.518,9.175c-8.221.793-14.116,1.153-16.268-5.3a81.121,81.121,0,0,1-3.549-14.9C5013.223,1907.167,5015.015,1898.614,5018.174,1895.562Z" fill="#623752"/>
      <path id="Trazado_716" data-name="Trazado 716" d="M5035.613,1979.04c3.37.758,6.915-.736,7.977-1.98,2.747-3.216,2.43-22.376-4.231-26.9-6.513-4.422-13.268-4.09-16.457-.861-6.007,6.084-6.19,16.273-4.665,19.861C5021.764,1977.463,5030.1,1977.8,5035.613,1979.04Z" fill="#1c1b19"/>
      <path id="Trazado_717" data-name="Trazado 717" d="M5032.041,1890.8a11.644,11.644,0,0,0-1.317,4.992c.052,1.324.679,2.613.142,2.913a18.21,18.21,0,0,1-8.363-.052c-3.354-.934-4.35-1.812-4.689-2.519s.817-1.492,1.329-4.164.533-4.728,1-5.8c.744-1.694,3.636-4.556,8.373-2.959A5.67,5.67,0,0,1,5032.041,1890.8Z" fill="#fed8a7"/>
      <path id="Trazado_718" data-name="Trazado 718" d="M5039.3,1891.465c2.275-.847.709-3.753,1.327-4.33a1.814,1.814,0,0,0,.6-1.9s1.121-.84.88-1.34c-.322-.672-.356-1.567-.15-1.747.5-.437,1.11-.475,1.478-1.318.478-1.093-1.052-.671-2.225-3.389-.708-1.641-1.078-2.506-.71-3.776a9.378,9.378,0,0,0-.982-5.539,7.061,7.061,0,0,0,.063-1.485c-.144-1.523-2.221-4.269-5.147-5.808-4.153-2.184-14.062-2.115-17.113,3.467-.653,1.2-.88.064-3.029,3.074-2.856,4-2.34,9.673.712,14.064.755,1.086,2.9,4.907,5.1,5.454,2.543.631,3.958-.615,5.093.2,1.481,1.069,1.092,2.641,3.366,3.419S5037.023,1892.312,5039.3,1891.465Z" fill="#fed8a7"/>
      <path id="Trazado_719" data-name="Trazado 719" d="M5031.967,2027.436c5.831-.18,6.342-7.238,6.985-15.9s4.158-22.311,4.174-31.462c.017-8.965-2.843-15.15-9.149-17.194-8.265-2.681-13.511,2.179-13.089,15.769.492,15.828,1.247,22.529,1.315,33.887C5022.266,2023.1,5026.136,2027.617,5031.967,2027.436Z" fill="#1c1b19"/>
      <path id="Trazado_720" data-name="Trazado 720" d="M5038.425,2012.9c1.463,9.571-1.157,11.8-2.469,30.367-1.359,19.221-1.041,33.333-1.425,34.3s-2.631-.731-9.031-.581-6.425,1.187-6.425,1.187.928-27.614,1.064-35.427c.238-13.708,3.037-20.6,2.446-26.336C5021.187,2002.835,5037.552,2007.189,5038.425,2012.9Z" fill="#1c1b19"/>
      <path id="Trazado_721" data-name="Trazado 721" d="M5076.8,1938.342c2.89-.132,7.328-.495,8.534-.174a33.041,33.041,0,0,1,5.181,2.32c.472.348.808.746,1.184,1.006s1.66.836,2.014,1.067c.646.423,1.965,1.03,2.026,1.435s-.818.6-1.2.533a6.221,6.221,0,0,1-2.043-.19c-1.184-.385-3.426-1.378-3.668-1.406a26.258,26.258,0,0,0-3.141-.217c-.873-.014-4.672,1.584-6.431,1.192s-1.355-.635-2.506-.73-3.283.64-5.516-.155-2.224-4.352.059-4.708S5073.912,1938.474,5076.8,1938.342Z" fill="#fed8a7"/>
      <path id="Trazado_722" data-name="Trazado 722" d="M5044.4,1930.681c-2.422-7.391-6.371-24.139-10.54-27.986-5.674-5.235-11.614-2.517-12.649,3.161-1.144,6.28,6.1,17.75,8.557,23.305,4.839,10.952,8.163,17.414,14.886,14.028C5049.049,1940.972,5046.817,1938.073,5044.4,1930.681Z" fill="#491f33"/>
      <path id="Trazado_723" data-name="Trazado 723" d="M5062.385,1935.891c-8.236-.683-17.937-3.95-23.123-1.636-4.65,2.075-4.429,7.672-.1,9.3,5.226,1.967,14.293.855,19.537.879,5.6.027,10.012-.23,16.118-.016l.207-7.215C5070.9,1936.969,5067.063,1936.28,5062.385,1935.891Z" fill="#491f33"/>
      <path id="Trazado_724" data-name="Trazado 724" d="M5027.051,2087.42c4.627.714,5.082-5.12,5.082-5.12l2.018-14.213s.407-3.962-4.627-4.856-5.4,5.879-5.4,5.879-1.249,8.884-1.481,11.562S5022.727,2086.754,5027.051,2087.42Z"/>
      <path id="Trazado_725" data-name="Trazado 725" d="M5021.306,2076.871c.76-1.065,2.628-1.872,5.521-1.654,2.492.188,4.806,2.262,5.136,2.49a44.416,44.416,0,0,0,16.506,7.208c3.08.635,2.351,3.008,1.235,3.143-6.026.73-28.185.3-28.185.3a7.993,7.993,0,0,1-1.813-4.589C5019.738,2081.344,5020.546,2077.937,5021.306,2076.871Z"/>
      <path id="Trazado_726" data-name="Trazado 726" d="M5040.24,1867.311c-.055-1.565-2.013-4.494-4.909-6.241-4.111-2.48-14.237-3.005-17.688,2.514-.74,1.183-.9.013-3.279,2.957-3.158,3.914-2.971,9.741-.117,14.409.706,1.155,2.669,5.187,4.886,5.878a6.524,6.524,0,0,0,.758.184c1.788-2.1,4.494-2.319,5.549-4.956.688-1.721.122-.931-.751-1.241s-1.869-5.7.465-6.464c2.069-.672,3.26,2.069,3.429,1.86,1.27-1.569-.621-7.194,1.528-8.377,3.383-1.861,8.735,2.948,9.975.99A7.18,7.18,0,0,0,5040.24,1867.311Z" fill="#2d160e"/>
      <g id="Grupo_251" data-name="Grupo 251">
        <path id="Trazado_727" data-name="Trazado 727" d="M5035.691,1922.629l4.707,17.152,19.45.528" fill="none" stroke="#8dc645" stroke-miterlimit="10" stroke-width="1"/>
        <line id="Línea_11" data-name="Línea 11" x1="4.596" y2="25.221" transform="translate(5022.256 1882.451)" fill="none" stroke="#8dc645" stroke-miterlimit="10" stroke-width="1"/>
        <line id="Línea_12" data-name="Línea 12" x2="5.989" y2="53.357" transform="translate(5022.256 1907.672)" fill="none" stroke="#8dc645" stroke-miterlimit="10" stroke-width="1"/>
        <line id="Línea_13" data-name="Línea 13" x2="0.737" y2="57.9" transform="translate(5028.396 1961.029)" fill="none" stroke="#8dc645" stroke-miterlimit="10" stroke-width="1"/>
        <line id="Línea_14" data-name="Línea 14" x1="0.891" y2="61.407" transform="translate(5028.246 2021.18)" fill="none" stroke="#8dc645" stroke-miterlimit="10" stroke-width="1"/>
        <path id="Trazado_728" data-name="Trazado 728" d="M5030.706,2022.2a3.633,3.633,0,1,1,1.7-4.848A3.633,3.633,0,0,1,5030.706,2022.2Z" fill="#87bc4a"/>
        <path id="Trazado_729" data-name="Trazado 729" d="M5022.805,1910.55a3.08,3.08,0,1,1,1.782-3.974A3.081,3.081,0,0,1,5022.805,1910.55Z" fill="#87bc4a"/>
        <path id="Trazado_730" data-name="Trazado 730" d="M5029.579,1963.8a3.079,3.079,0,1,1,1.442-4.109A3.078,3.078,0,0,1,5029.579,1963.8Z" fill="#87bc4a"/>
        <path id="Trazado_731" data-name="Trazado 731" d="M5027.976,1885.4a3.159,3.159,0,1,1,1.828-4.077A3.159,3.159,0,0,1,5027.976,1885.4Z" fill="#87bc4a"/>
        <path id="Trazado_732" data-name="Trazado 732" d="M5029.579,2085.363a3.079,3.079,0,1,1,1.442-4.109A3.079,3.079,0,0,1,5029.579,2085.363Z" fill="#87bc4a"/>
        <g id="Grupo_249" data-name="Grupo 249">
          <g id="Grupo_248" data-name="Grupo 248">
            <g id="Grupo_247" data-name="Grupo 247">
              <line id="Línea_15" data-name="Línea 15" x1="0.003" y1="1.152" transform="translate(5027.497 2089.78)" fill="none" stroke="#8dc645" stroke-miterlimit="10" stroke-width="1"/>
              <line id="Línea_16" data-name="Línea 16" x1="0.534" y1="227.753" transform="translate(5026.958 1859.738)" fill="none" stroke="#8dc645" stroke-miterlimit="10" stroke-width="1" stroke-dasharray="3.973 3.973"/>
              <line id="Línea_17" data-name="Línea 17" x1="0.003" y1="1.152" transform="translate(5026.953 1857.441)" fill="none" stroke="#8dc645" stroke-miterlimit="10" stroke-width="1"/>
            </g>
          </g>
        </g>
        <path id="Trazado_733" data-name="Trazado 733" d="M5038.868,1934.207a5.146,5.146,0,0,1,7.124,5.524" fill="none" stroke="#8dc645" stroke-miterlimit="10" stroke-width="1"/>
        <path id="Trazado_734" data-name="Trazado 734" d="M5042.608,1942.15a3.644,3.644,0,1,1,1.707-4.863A3.645,3.645,0,0,1,5042.608,1942.15Z" fill="#87bc4a"/>
        <g id="Grupo_250" data-name="Grupo 250">
          <path id="Trazado_735" data-name="Trazado 735" d="M5038.922,1940.4h-.294v-2.516a.717.717,0,0,1-.1.088,1.575,1.575,0,0,1-.147.1c-.055.033-.112.063-.172.092a1.238,1.238,0,0,1-.177.067v-.337a1.544,1.544,0,0,0,.2-.082,2.2,2.2,0,0,0,.213-.116,2.3,2.3,0,0,0,.2-.134,1.858,1.858,0,0,0,.162-.137h.111Z"/>
          <path id="Trazado_736" data-name="Trazado 736" d="M5041.247,1938.931a3.2,3.2,0,0,1-.059.647,1.584,1.584,0,0,1-.168.476.819.819,0,0,1-.27.3.674.674,0,0,1-.365.1.631.631,0,0,1-.345-.1.767.767,0,0,1-.255-.281,1.562,1.562,0,0,1-.158-.454,3.15,3.15,0,0,1-.054-.616,3.622,3.622,0,0,1,.056-.674,1.708,1.708,0,0,1,.166-.491.8.8,0,0,1,.272-.3.681.681,0,0,1,.371-.1Q5041.247,1937.438,5041.247,1938.931Zm-.3.032q0-1.242-.522-1.242-.549,0-.55,1.264,0,1.18.54,1.18T5040.946,1938.963Z"/>
          <path id="Trazado_737" data-name="Trazado 737" d="M5043.041,1938.931a3.207,3.207,0,0,1-.058.647,1.611,1.611,0,0,1-.169.476.8.8,0,0,1-.27.3.673.673,0,0,1-.365.1.633.633,0,0,1-.345-.1.784.784,0,0,1-.255-.281,1.562,1.562,0,0,1-.158-.454,3.155,3.155,0,0,1-.053-.616,3.581,3.581,0,0,1,.056-.674,1.679,1.679,0,0,1,.166-.491.791.791,0,0,1,.271-.3.687.687,0,0,1,.372-.1Q5043.04,1937.438,5043.041,1938.931Zm-.3.032q0-1.242-.522-1.242-.549,0-.549,1.264,0,1.18.539,1.18T5042.74,1938.963Z"/>
          <path id="Trazado_738" data-name="Trazado 738" d="M5043.7,1938.577a.451.451,0,0,1-.351-.165.586.586,0,0,1-.145-.4.574.574,0,0,1,.143-.4.447.447,0,0,1,.35-.161.461.461,0,0,1,.354.162.567.567,0,0,1,.145.394.586.586,0,0,1-.145.4A.451.451,0,0,1,5043.7,1938.577Zm0-.885a.257.257,0,0,0-.2.093.33.33,0,0,0-.082.226.351.351,0,0,0,.08.232.25.25,0,0,0,.2.1.257.257,0,0,0,.2-.1.341.341,0,0,0,.084-.231.329.329,0,0,0-.082-.227A.259.259,0,0,0,5043.7,1937.692Z"/>
        </g>
      </g>
      <rect id="Rectángulo_84" data-name="Rectángulo 84" width="130.031" height="4.502" transform="translate(5179.987 1949.044) rotate(180)" fill="#c19451"/>
      <rect id="Rectángulo_85" data-name="Rectángulo 85" width="87.917" height="6.224" transform="translate(5165.555 1954.893) rotate(180)" fill="#565656"/>
      <path id="Rectángulo_86" data-name="Rectángulo 86" d="M0,0H56.118a0,0,0,0,1,0,0V1.364a4.86,4.86,0,0,1-4.86,4.86H5.876A5.876,5.876,0,0,1,0,.347V0A0,0,0,0,1,0,0Z" transform="translate(5153.884 2088.485) rotate(-180)" fill="#565656"/>
      <rect id="Rectángulo_87" data-name="Rectángulo 87" width="16.152" height="139.917" transform="translate(5135.178 2088.485) rotate(180)" fill="#565656"/>
      <g id="Grupo_252" data-name="Grupo 252">
        <rect id="Rectángulo_88" data-name="Rectángulo 88" width="5.678" height="43.625" transform="translate(5137.834 1897.452)" fill="#58595e"/>
        <path id="Trazado_739" data-name="Trazado 739" d="M5133.852,1940.914l13.6.181a6.707,6.707,0,0,1,2.359.463l5.81,1.536c.435.171.313,1.448-.154,1.448H5132v-1.774A1.854,1.854,0,0,1,5133.852,1940.914Z" fill="#58595e"/>
        <path id="Rectángulo_89" data-name="Rectángulo 89" d="M0,0H9.847a3.481,3.481,0,0,1,3.481,3.481v.412A3.481,3.481,0,0,1,9.847,7.374H0a0,0,0,0,1,0,0V0A0,0,0,0,1,0,0Z" transform="translate(5131.998 1896.703)" fill="#58595e"/>
        <rect id="Rectángulo_90" data-name="Rectángulo 90" width="5.757" height="5.757" rx="2.718" transform="translate(5137.795 1897.649)" fill="#83868d"/>
        <path id="Trazado_740" data-name="Trazado 740" d="M5139.214,1900.528a1.459,1.459,0,1,1,1.459,1.459A1.46,1.46,0,0,1,5139.214,1900.528Z" fill="#434449"/>
        <path id="Rectángulo_91" data-name="Rectángulo 91" d="M0,0H.189a3.2,3.2,0,0,1,3.2,3.2V47.273a3.2,3.2,0,0,1-3.2,3.2H0a0,0,0,0,1,0,0V0A0,0,0,0,1,0,0Z" transform="translate(5129.508 1872.898) rotate(8.122)" fill="#58595e"/>
        <path id="Trazado_741" data-name="Trazado 741" d="M5128.843,1919.93l-3.826.164,6.41-44.653,3.625,1.233a3.948,3.948,0,0,1,2.362,4.4l-5.066,35.291A3.948,3.948,0,0,1,5128.843,1919.93Z" fill="#58595e"/>
        <rect id="Rectángulo_92" data-name="Rectángulo 92" width="3.983" height="32.137" transform="translate(5138.663 1907.363)" fill="#83868d"/>
        <rect id="Rectángulo_93" data-name="Rectángulo 93" width="2.261" height="30.178" transform="translate(5139.543 1908.454)" fill="#434449"/>
      </g>
      <g id="Grupo_257" data-name="Grupo 257">
        <g id="Grupo_256" data-name="Grupo 256">
          <g id="Grupo_255" data-name="Grupo 255">
            <line id="Línea_18" data-name="Línea 18" x1="76.018" transform="translate(5046.982 1874.892)" fill="none" stroke="#8dc645" stroke-miterlimit="10" stroke-width="1"/>
            <g id="Grupo_253" data-name="Grupo 253">
              <path id="Trazado_742" data-name="Trazado 742" d="M5121.858,1873.219l6.245,1.674-6.245,1.674Z" fill="#8dc645"/>
            </g>
            <g id="Grupo_254" data-name="Grupo 254">
              <path id="Trazado_743" data-name="Trazado 743" d="M5048.124,1873.219l-6.245,1.674,6.245,1.674Z" fill="#8dc645"/>
            </g>
          </g>
        </g>
      </g>
      <g id="Grupo_261" data-name="Grupo 261">
        <g id="Grupo_260" data-name="Grupo 260">
          <g id="Grupo_259" data-name="Grupo 259">
            <line id="Línea_19" data-name="Línea 19" y2="57.402" transform="translate(5179.987 2025.979)" fill="none" stroke="#8dc645" stroke-miterlimit="10" stroke-width="1"/>
            <g id="Grupo_258" data-name="Grupo 258">
              <path id="Trazado_744" data-name="Trazado 744" d="M5178.313,2082.24l1.674,6.245,1.673-6.245Z" fill="#8dc645"/>
            </g>
          </g>
        </g>
      </g>
      <g id="Grupo_265" data-name="Grupo 265">
        <g id="Grupo_264" data-name="Grupo 264">
          <g id="Grupo_263" data-name="Grupo 263">
            <line id="Línea_20" data-name="Línea 20" y2="57.402" transform="translate(5179.987 1957.168)" fill="none" stroke="#8dc645" stroke-miterlimit="10" stroke-width="1"/>
            <g id="Grupo_262" data-name="Grupo 262">
              <path id="Trazado_745" data-name="Trazado 745" d="M5178.313,1958.309l1.674-6.245,1.673,6.245Z" fill="#8dc645"/>
            </g>
          </g>
        </g>
      </g>
      <g id="Grupo_268" data-name="Grupo 268">
        <g id="Grupo_267" data-name="Grupo 267">
          <g id="Grupo_266" data-name="Grupo 266">
            <line id="Línea_21" data-name="Línea 21" x1="1.109" y1="0.313" transform="translate(5124.545 1899.606)" fill="none" stroke="#8dc645" stroke-miterlimit="10" stroke-width="1"/>
            <line id="Línea_22" data-name="Línea 22" x1="79.157" y1="22.338" transform="translate(5043.158 1876.638)" fill="none" stroke="#8dc645" stroke-miterlimit="10" stroke-width="1" stroke-dasharray="4.022 4.022"/>
            <line id="Línea_23" data-name="Línea 23" x1="1.109" y1="0.313" transform="translate(5040.934 1876.011)" fill="none" stroke="#8dc645" stroke-miterlimit="10" stroke-width="1"/>
          </g>
        </g>
      </g>
      <g id="Grupo_269" data-name="Grupo 269">
        <path id="Trazado_746" data-name="Trazado 746" d="M5078.775,1866.878h-.014l-.741.4-.112-.44.933-.5h.492v4.268h-.558Z"/>
        <path id="Trazado_747" data-name="Trazado 747" d="M5080.835,1869.524a1.22,1.22,0,0,1,.847-1.142l-.007-.02a1.056,1.056,0,0,1-.676-.958,1.2,1.2,0,0,1,1.319-1.136,1.1,1.1,0,0,1,1.241,1.05,1.086,1.086,0,0,1-.7,1v.019a1.183,1.183,0,0,1,.861,1.1,1.315,1.315,0,0,1-1.452,1.241C5081.373,1870.68,5080.835,1870.148,5080.835,1869.524Zm2.3-.026c0-.519-.361-.768-.939-.932a.926.926,0,0,0-.768.88.789.789,0,0,0,.853.814A.773.773,0,0,0,5083.133,1869.5Zm-1.589-2.134c0,.427.322.657.814.788a.84.84,0,0,0,.65-.775.663.663,0,0,0-.722-.7A.679.679,0,0,0,5081.544,1867.364Z"/>
        <path id="Trazado_748" data-name="Trazado 748" d="M5085.777,1868.618v.427h-1.622v-.427Z"/>
        <path id="Trazado_749" data-name="Trazado 749" d="M5086.269,1870.608v-.354l.453-.44c1.09-1.038,1.582-1.59,1.589-2.233a.762.762,0,0,0-.847-.834,1.454,1.454,0,0,0-.906.361l-.184-.407a1.874,1.874,0,0,1,1.208-.433,1.2,1.2,0,0,1,1.307,1.241c0,.788-.571,1.425-1.471,2.291l-.341.316v.013h1.917v.479Z"/>
        <path id="Trazado_750" data-name="Trazado 750" d="M5091.421,1870.608v-1.162h-1.983v-.381l1.9-2.725h.624v2.653h.6v.453h-.6v1.162Zm0-1.615v-1.425c0-.224.007-.447.02-.67h-.02c-.131.25-.236.434-.354.63l-1.044,1.451v.014Z"/>
        <path id="Trazado_751" data-name="Trazado 751" d="M5093.909,1866.11a8.1,8.1,0,0,1-.611,1.556l-.368.046a9.95,9.95,0,0,0,.387-1.543Zm.971,0a8.04,8.04,0,0,1-.61,1.556l-.368.046a9.231,9.231,0,0,0,.387-1.543Z"/>
      </g>
      <g id="Grupo_270" data-name="Grupo 270">
        <path id="Trazado_752" data-name="Trazado 752" d="M5172.5,2021.123a1.932,1.932,0,0,0,.945.269c.742,0,.972-.473.966-.827-.007-.6-.546-.854-1.1-.854h-.321v-.434h.321c.421,0,.952-.216.952-.722,0-.341-.216-.643-.748-.643a1.573,1.573,0,0,0-.854.282l-.151-.42a2.034,2.034,0,0,1,1.116-.328c.841,0,1.222.5,1.222,1.017a1.061,1.061,0,0,1-.788,1.005v.013a1.112,1.112,0,0,1,.952,1.1c0,.683-.532,1.28-1.556,1.28a2.169,2.169,0,0,1-1.11-.289Z"/>
        <path id="Trazado_753" data-name="Trazado 753" d="M5175.68,2020.7a1.219,1.219,0,0,1,.848-1.142l-.007-.02a1.055,1.055,0,0,1-.676-.958,1.194,1.194,0,0,1,1.319-1.136,1.1,1.1,0,0,1,1.242,1.05,1.087,1.087,0,0,1-.7,1v.019a1.184,1.184,0,0,1,.86,1.1,1.315,1.315,0,0,1-1.451,1.241C5176.219,2021.858,5175.68,2021.326,5175.68,2020.7Zm2.3-.026c0-.519-.362-.768-.939-.932a.927.927,0,0,0-.769.88.789.789,0,0,0,.854.814A.773.773,0,0,0,5177.979,2020.676Zm-1.59-2.134c0,.427.322.657.815.788a.842.842,0,0,0,.65-.775.664.664,0,0,0-.723-.7A.679.679,0,0,0,5176.389,2018.542Z"/>
        <path id="Trazado_754" data-name="Trazado 754" d="M5180.623,2019.8v.427H5179v-.427Z"/>
        <path id="Trazado_755" data-name="Trazado 755" d="M5182.9,2021.786v-1.162h-1.984v-.381l1.9-2.725h.624v2.653h.6v.453h-.6v1.162Zm0-1.615v-1.425c0-.223.006-.447.019-.67h-.019c-.132.25-.237.434-.355.63l-1.044,1.451v.014Z"/>
        <path id="Trazado_756" data-name="Trazado 756" d="M5184.481,2021.786v-.354l.454-.44c1.09-1.038,1.582-1.59,1.589-2.233a.762.762,0,0,0-.847-.834,1.449,1.449,0,0,0-.906.361l-.184-.407a1.872,1.872,0,0,1,1.208-.433,1.2,1.2,0,0,1,1.306,1.241c0,.788-.571,1.425-1.47,2.291l-.342.316v.013h1.917v.479Z"/>
        <path id="Trazado_757" data-name="Trazado 757" d="M5188.755,2017.288a8.01,8.01,0,0,1-.611,1.556l-.368.046a9.947,9.947,0,0,0,.387-1.543Zm.971,0a8.015,8.015,0,0,1-.61,1.556l-.368.046a9.228,9.228,0,0,0,.388-1.543Z"/>
      </g>
    </g>
    <line id="Línea_24" data-name="Línea 24" y2="357" transform="translate(627.541 1840.99)" fill="none" stroke="#b2b2b2" stroke-miterlimit="10" stroke-width="2" stroke-dasharray="12"/>
    <line id="Línea_25" data-name="Línea 25" y2="357" transform="translate(1004.492 1840.99)" fill="none" stroke="#b2b2b2" stroke-miterlimit="10" stroke-width="2" stroke-dasharray="12"/>
  </g>
</svg>
