<svg xmlns="http://www.w3.org/2000/svg" width="134.869" height="134.869" viewBox="0 0 134.869 134.869">
  <g id="Grupo_3494" data-name="Grupo 3494" transform="translate(-507.008 -3914.331)">
    <circle id="Elipse_4" data-name="Elipse 4" cx="62.823" cy="62.823" r="62.823" transform="translate(511.62 3918.943)" fill="#93e0fe"/>
    <g id="Grupo_586" data-name="Grupo 586" transform="translate(-4751.478)">
      <circle id="Elipse_165" data-name="Elipse 165" cx="57.467" cy="57.467" r="57.467" transform="translate(5258.485 4027.125) rotate(-78.926)" fill="#00181e"/>
      <path id="Trazado_1264" data-name="Trazado 1264" d="M5383.2,3986.158c.11-1.451.184-2.913.184-4.392a57.341,57.341,0,0,0-3.266-19.105l-43.487,10.018a1.122,1.122,0,0,1-1.368-1.132L5334,3924.875a57.971,57.971,0,0,0-8.077-.576,57.187,57.187,0,0,0-29.342,8.057l8.021,59.359a19.689,19.689,0,0,0,26.972,15.584Z" fill="#fff"/>
      <path id="Trazado_1265" data-name="Trazado 1265" d="M5303.625,4005.136l-13.168,2.811,4.291,2.515-10.209,5.031,15.684-4.143-3.062-2.54Z" fill="#fff"/>
      <path id="Trazado_1266" data-name="Trazado 1266" d="M5319.328,4016.79l-.777,9.449,4.051-2.386,2.275,10.875v-14.537l-4.162,1.831Z" fill="#fff"/>
      <path id="Trazado_1267" data-name="Trazado 1267" d="M5311.911,4013.311l-9.321,3.479,4.439,2.55s-7.546,6.7-7.324,6.419,12.025-6.388,12.025-6.388l-4.257-2.581Z" fill="#fff"/>
    </g>
  </g>
</svg>
