<svg xmlns="http://www.w3.org/2000/svg" width="125.645" height="125.645" viewBox="0 0 125.645 125.645">
  <g id="Grupo_3496" data-name="Grupo 3496" transform="translate(-1016.646 -3918.331)">
    <circle id="Elipse_7" data-name="Elipse 7" cx="62.823" cy="62.823" r="62.823" transform="translate(1016.646 3918.331)" fill="#93e0fe"/>
    <g id="Grupo_591" data-name="Grupo 591" transform="translate(-4751.478)">
      <circle id="Elipse_168" data-name="Elipse 168" cx="57.467" cy="57.467" r="57.467" transform="translate(5773.479 3924.299)" fill="#00181e"/>
      <path id="Trazado_1270" data-name="Trazado 1270" d="M5859.693,3932.014a57.417,57.417,0,0,0-65.848,5.881,231.75,231.75,0,0,0-1.693,24.12c-.249,14.866,2.386,42.524,5.054,66.259a57.428,57.428,0,0,0,59.456,4.881c-2.01-5.83-4.125-11.984-6.061-17.642-6.385-18.665-5.894-41.67-.491-53.5C5853.252,3955.135,5857.058,3942.787,5859.693,3932.014Z" fill="#fff"/>
      <path id="Trazado_1271" data-name="Trazado 1271" d="M5841.76,4011.829s-8.1-30.362,1.964-54.765C5843.724,3957.064,5829.726,3980.149,5841.76,4011.829Z" fill="#97b5c1"/>
      <line id="Línea_26" data-name="Línea 26" x2="8.906" transform="translate(5856.73 3948.1)" fill="none" stroke="#fff" stroke-miterlimit="10" stroke-width="1"/>
      <line id="Línea_27" data-name="Línea 27" x2="8.906" transform="translate(5856.73 4021.913)" fill="none" stroke="#fff" stroke-miterlimit="10" stroke-width="1"/>
      <line id="Línea_28" data-name="Línea 28" y2="71.87" transform="translate(5861.184 3948.902)" fill="none" stroke="#fff" stroke-miterlimit="10" stroke-width="1"/>
    </g>
  </g>
</svg>
