<svg xmlns="http://www.w3.org/2000/svg" xmlns:xlink="http://www.w3.org/1999/xlink" width="125.645" height="125.645" viewBox="0 0 125.645 125.645">
  <defs>
    <clipPath id="clip-path">
      <circle id="Elipse_167" data-name="Elipse 167" cx="57.467" cy="57.467" r="57.467" transform="translate(5268.453 3754.208)" fill="none"/>
    </clipPath>
  </defs>
  <g id="Grupo_3489" data-name="Grupo 3489" transform="translate(-511.62 -3748.853)">
    <circle id="Elipse_2" data-name="Elipse 2" cx="62.823" cy="62.823" r="62.823" transform="translate(511.62 3748.853)" fill="#93e0fe"/>
    <g id="Grupo_590" data-name="Grupo 590" transform="translate(-4751.478)">
      <circle id="Elipse_166" data-name="Elipse 166" cx="57.467" cy="57.467" r="57.467" transform="translate(5268.453 3754.208)" fill="#00181e"/>
      <g id="Grupo_589" data-name="Grupo 589">
        <g id="Grupo_588" data-name="Grupo 588" clip-path="url(#clip-path)">
          <g id="Grupo_587" data-name="Grupo 587">
            <path id="Trazado_1268" data-name="Trazado 1268" d="M5365.514,3866.379l-7.428-37.642s2.064-12.91,2.6-19.121a174.886,174.886,0,0,0-.119-23.257c-.475-4.055-2.746-10.621-5.966-16.134s-4.519-7.207-5.533-6.935-1.245,2.869-.916,3.579,3.441,6.316,3.883,7.766,2.463,9.367,2.6,11.166.454,6.271.454,6.271-.587-3.907-.825-5.627-2.357-9.71-2.854-11.394-4.717-9.032-6.192-11.763-3.682-.629-2.963,3.917,3.383,7.946,4.155,11.608,1.732,9.315,1.051,13.88-4.087,15.382-4.087,15.382-4.167-8.538-5.478-12.3-5.755-4.2-5.282.471,2.6,13.05,4.262,21.849,4.738,13.28,5.911,14.782c.919,1.178-.907,24.825-1.74,35A57.721,57.721,0,0,0,5365.514,3866.379Z" fill="#fff"/>
            <path id="Trazado_1269" data-name="Trazado 1269" d="M5279.429,3870.309l7.428-37.642s-2.063-12.91-2.6-19.121a175.063,175.063,0,0,1,.118-23.257c.476-4.054,2.747-10.62,5.967-16.134s4.519-7.207,5.533-6.935,1.245,2.869.916,3.579-3.441,6.316-3.884,7.767-2.463,9.366-2.6,11.166-.454,6.27-.454,6.27.586-3.907.825-5.627,2.357-9.71,2.854-11.394,4.717-9.032,6.192-11.763,3.681-.628,2.962,3.918-3.382,7.945-4.154,11.608-1.732,9.314-1.052,13.879,4.088,15.383,4.088,15.383,4.166-8.538,5.478-12.3,5.755-4.2,5.282.471-2.6,13.051-4.263,21.849-4.737,13.28-5.91,14.783c-.919,1.177.907,24.824,1.74,35A57.708,57.708,0,0,1,5279.429,3870.309Z" fill="#fff"/>
          </g>
        </g>
      </g>
    </g>
  </g>
</svg>
