<svg xmlns="http://www.w3.org/2000/svg" width="162.541" height="162.541" viewBox="0 0 162.541 162.541">
  <g id="Grupo_3490" data-name="Grupo 3490" transform="translate(-752.612 -3730.405)">
    <circle id="Elipse_3" data-name="Elipse 3" cx="62.823" cy="62.823" r="62.823" transform="translate(771.06 3748.853)" fill="#93e0fe"/>
    <g id="Grupo_595" data-name="Grupo 595" transform="translate(-4751.478)">
      <circle id="Elipse_172" data-name="Elipse 172" cx="57.467" cy="57.467" r="57.467" transform="translate(5504.09 3811.675) rotate(-45)" fill="#00181e"/>
      <path id="Trazado_1284" data-name="Trazado 1284" d="M5600.6,3799.6c-1.266-3.374-12.021-14.973-14.236-16.977s-10.637-3.651-12.89-3.967-6.051.791-9.807,1.9-5.338.2-5.417,2.016,1.977,2.492,1.977,2.492a63.534,63.534,0,0,1,8.185-1.187,50.294,50.294,0,0,1,8.423,1.424,10.524,10.524,0,0,1,5.18,2.728c1.661,1.463,5.694,6.248,5.694,6.248s-6.722-6.327-8.462-7.355-8.541-1.9-9.965-2.293-8.778.87-10.756,1.9-.474,3.8,1.424,4.191a66.708,66.708,0,0,0,8.383.343c.738,0,5.378,2.109,6.221,2.425s7.382,7.276,7.8,8.647-.1,18.4-.1,18.4-5.062-10.755-9.965-16.924-8.383-5.061-9.49-3.005,3.954,6.169,5.852,10.6,1.266,9.332,2.215,14.394,12.337,16.133,12.337,16.133c-.106,4.76-5.089,18.422-8.381,26.958a49.684,49.684,0,0,0,6.621.455,49.176,49.176,0,0,0,18.072-3.43c2.809-10.289,5.339-20.379,5.674-24.457C5605.975,3831.606,5601.862,3802.977,5600.6,3799.6Z" fill="#fff"/>
      <rect id="Rectángulo_98" data-name="Rectángulo 98" width="61.373" height="2.417" transform="translate(5550.646 3771.103)" fill="#fff"/>
    </g>
  </g>
</svg>
