<svg xmlns="http://www.w3.org/2000/svg" width="162.541" height="162.541" viewBox="0 0 162.541 162.541">
  <g id="Grupo_3488" data-name="Grupo 3488" transform="translate(-249.619 -3730.405)">
    <circle id="Elipse_1" data-name="Elipse 1" cx="62.823" cy="62.823" r="62.823" transform="translate(268.067 3748.853)" fill="#93e0fe"/>
    <g id="Grupo_593" data-name="Grupo 593" transform="translate(-4751.478)">
      <circle id="Elipse_170" data-name="Elipse 170" cx="57.467" cy="57.467" r="57.467" transform="translate(5001.097 3811.675) rotate(-45)" fill="#00181e"/>
      <path id="Trazado_1277" data-name="Trazado 1277" d="M5060.091,3834.093l-9.891-9.137,4.974.026-6.213-9.536,11.374,11.566-3.929.623Z" fill="#fff"/>
      <path id="Trazado_1278" data-name="Trazado 1278" d="M5056.878,3840.281l-9.439-3.146,1.853,4.772s-10.079.473-9.731.4,13.37,2.582,13.37,2.582l-1.692-4.683Z" fill="#fff"/>
      <path id="Trazado_1279" data-name="Trazado 1279" d="M5105.339,3831.769c2.241-2.425,2.579-12.064,2.579-12.064a12.691,12.691,0,0,0,3.683-1.474s-4.413-6.322-1.842-20.629c2.948-16.393-15.226-35.794-38.679-22.655-22.792,12.768-8.719,40.644-4.543,49.485s3.438,20.63-6.877,26.032a58.2,58.2,0,0,0-11.107,7.666,57.445,57.445,0,0,0,68.088-.327c-8.622-8.183-20.251-12.823-21.494-14.583-1.473-2.088-1.412-10.438-1.412-10.438C5101.287,3834.993,5104,3833.217,5105.339,3831.769Z" fill="#fff"/>
    </g>
  </g>
</svg>
