<svg xmlns="http://www.w3.org/2000/svg" width="162.541" height="162.541" viewBox="0 0 162.541 162.541">
  <g id="Grupo_3491" data-name="Grupo 3491" transform="translate(-998.198 -3730.405)">
    <circle id="Elipse_6" data-name="Elipse 6" cx="62.823" cy="62.823" r="62.823" transform="translate(1016.646 3748.853)" fill="#93e0fe"/>
    <g id="Grupo_594" data-name="Grupo 594" transform="translate(-4751.478)">
      <circle id="Elipse_171" data-name="Elipse 171" cx="57.467" cy="57.467" r="57.467" transform="translate(5749.675 3811.675) rotate(-45)" fill="#00181e"/>
      <path id="Trazado_1280" data-name="Trazado 1280" d="M5836.259,3830.143l-3.638,12.964,4.223-2.628-.3,11.377,3.629-15.811-3.673,1.528Z" fill="#fff"/>
      <path id="Trazado_1281" data-name="Trazado 1281" d="M5853.88,3821.665l8,5.083-.228-4.7,10.685,3.046-12.868-6.763-.315,4.535Z" fill="#fff"/>
      <path id="Trazado_1282" data-name="Trazado 1282" d="M5847.35,3826.611l-1.257,9.87,4.322-2.743s2.418,9.8,2.275,9.47-.06-13.617-.06-13.617l-4.266,2.568Z" fill="#fff"/>
      <path id="Trazado_1283" data-name="Trazado 1283" d="M5807.435,3789.365c-3.929,1.473-17.437,14-19.77,16.577s-4.251,12.386-4.62,15.011.921,7.045,2.211,11.42.23,6.216,2.348,6.308,2.9-2.3,2.9-2.3a73.761,73.761,0,0,1-1.381-9.532,58.35,58.35,0,0,1,1.657-9.808,12.257,12.257,0,0,1,3.177-6.032c1.7-1.934,7.276-6.631,7.276-6.631s-7.368,7.828-8.565,9.854-2.21,9.946-2.671,11.6,1.013,10.223,2.211,12.525,4.42.553,4.881-1.658.4-8.9.4-9.762,2.456-6.262,2.824-7.244,8.473-8.6,10.069-9.087,21.427.123,21.427.123-12.525,5.894-19.708,11.6-5.894,9.762-3.5,11.051,7.184-4.6,12.341-6.815,10.867-1.474,16.761-2.579,18.788-14.366,18.788-14.366c5.542.123,21.452,5.925,31.392,9.759a57.141,57.141,0,0,0-3.464-28.755c-11.982-3.271-23.732-6.217-28.481-6.607C5844.7,3783.1,5811.364,3787.891,5807.435,3789.365Z" fill="#fff"/>
    </g>
  </g>
</svg>
