<svg xmlns="http://www.w3.org/2000/svg" width="131.299" height="131.299" viewBox="0 0 131.299 131.299">
  <g id="Grupo_3493" data-name="Grupo 3493" transform="translate(-265.241 -3916.116)">
    <circle id="Elipse_5" data-name="Elipse 5" cx="62.823" cy="62.823" r="62.823" transform="translate(268.067 3918.943)" fill="#93e0fe"/>
    <g id="Grupo_3492" data-name="Grupo 3492">
      <g id="Grupo_596" data-name="Grupo 596" transform="translate(-4751.478)">
        <circle id="Elipse_173" data-name="Elipse 173" cx="57.467" cy="57.467" r="57.467" transform="translate(5016.718 4029.672) rotate(-81.119)" fill="#00181e"/>
        <path id="Trazado_1285" data-name="Trazado 1285" d="M5096.743,3958.654l2.457-13.239,2.629,4.222,4.755-10.34-3.721,15.789-2.621-2.992Z" fill="#fff"/>
        <path id="Trazado_1286" data-name="Trazado 1286" d="M5108.813,3974.038l9.424-1.03-2.276,4.113,10.932,1.982-14.532.39,1.719-4.209Z" fill="#fff"/>
        <path id="Trazado_1287" data-name="Trazado 1287" d="M5105.137,3966.718l3.228-9.412,2.668,4.369s6.492-7.723,6.22-7.494-6.063,12.193-6.063,12.193l-2.694-4.187Z" fill="#fff"/>
        <path id="Trazado_1288" data-name="Trazado 1288" d="M5103.088,4009.149c-1.351-6.877,3.07-27.2-7.245-39.908s-29.47-14.919-36.285-20.261c-4.325-3.39-6.052-11.229-6.738-16.506a57.467,57.467,0,0,0,21.325,106.164c.62-1.539,1.207-3.066,1.683-4.44a73.221,73.221,0,0,0,2.947-12.156c.6,4.726,2.071,11.49,3.424,17.187.056,0,.112,0,.169,0a57.233,57.233,0,0,0,24.983-5.7C5106.363,4024.312,5104,4013.792,5103.088,4009.149Z" fill="#fff"/>
        <path id="Trazado_1289" data-name="Trazado 1289" d="M5054.4,4030.023s15.656-5.525,22.839-16.392A29.365,29.365,0,0,1,5054.4,4030.023Z" fill="#97b5c1"/>
        <path id="Trazado_1290" data-name="Trazado 1290" d="M5027.448,3974.644s3.745-5.035,6.14-6.508,20.813-5.894,20.813-5.894-16.761,2.394-20.813,4.6S5029.413,3971.114,5027.448,3974.644Z" fill="#97b5c1"/>
      </g>
    </g>
  </g>
</svg>
