<svg xmlns="http://www.w3.org/2000/svg" width="827.184" height="273.109" viewBox="0 0 827.184 273.109">
  <g id="Grupo_162" data-name="Grupo 162" transform="translate(-5057.671 -755.612)">
    <ellipse id="Elipse_149" data-name="Elipse 149" cx="63.87" cy="6.273" rx="63.87" ry="6.273" transform="translate(5057.671 1015.035)" fill="#a6d3d8"/>
    <ellipse id="Elipse_150" data-name="Elipse 150" cx="76.939" cy="6.273" rx="76.939" ry="6.273" transform="translate(5474.539 1016.175)" fill="#a6d3d8"/>
    <ellipse id="Elipse_151" data-name="Elipse 151" cx="40.085" cy="5.988" rx="40.085" ry="5.988" transform="translate(5679.266 1015.605)" fill="#a6d3d8"/>
    <ellipse id="Elipse_152" data-name="Elipse 152" cx="51.895" cy="4.562" rx="51.895" ry="4.562" transform="translate(5780.774 1015.795)" fill="#a6d3d8"/>
    <ellipse id="Elipse_153" data-name="Elipse 153" cx="89.342" cy="6.273" rx="89.342" ry="6.273" transform="translate(5244.149 1009.902)" fill="#a6d3d8"/>
    <g id="Grupo_118" data-name="Grupo 118">
      <g id="Grupo_116" data-name="Grupo 116">
        <path id="Trazado_431" data-name="Trazado 431" d="M5173.323,880.375l-3.387,15.5-11.489-5.05,3.28-17.855,1.387-4.924.94-3.355,8.533,4.085Z" fill="#ff9b6b"/>
        <path id="Trazado_432" data-name="Trazado 432" d="M5169.378,872.2a11.389,11.389,0,0,1-2.648,2.546,16.711,16.711,0,0,1-5.77,2.392l.767-4.171,1.386-4.924,6.945.155Z" fill="#e55345"/>
        <g id="Grupo_115" data-name="Grupo 115">
          <path id="Trazado_433" data-name="Trazado 433" d="M5169.494,872.741a14.274,14.274,0,0,0,1.368,1.834,4.881,4.881,0,0,0,.35.381,12.7,12.7,0,0,0,1.227,1.156,7.381,7.381,0,0,0,2.757,1.681,4.828,4.828,0,0,0,1.2.206c1.576.094,3-.5,5.693-.365a14.019,14.019,0,0,1,1.523.15c0-.007.009-.005.013,0,.137.013.273.033.393.055l.02.006.334-.641.059.018,2.8.755a.748.748,0,0,0,.946-.654,29.513,29.513,0,0,0-.177-6.59,31.461,31.461,0,0,0,1.439-5.394c.131-.738.228-1.458.3-2.142a4.8,4.8,0,0,1-2.141.491c-2.021-.046-2.563-1.573-5.507-3.848-1.732-.418-5.729-1.244-7.8-.484-.371.453-.727.932-1.072,1.443A23.151,23.151,0,0,0,5169.494,872.741Z" fill="#ff9b6b"/>
          <path id="Trazado_434" data-name="Trazado 434" d="M5158.762,859.641a32.075,32.075,0,0,0,.411,9.607,2.535,2.535,0,0,1-.61.847c-1.047.963-2.5.644-2.714,1.384-.246.859,1.406,2.128,2.619,2.743a7.2,7.2,0,0,0,2.756.747.09.09,0,0,0,.049,0c.069-.064.135-.143.2-.207a10.156,10.156,0,0,0,3.041-2.487,8.945,8.945,0,0,0,.827-1.191,8.816,8.816,0,0,0,.432-.845,7.694,7.694,0,0,0,.365-.928,2.952,2.952,0,0,1-.383-.3c-.081-.081-.156-.16-.234-.254-1.56-1.92-1.258-6.408.574-7.72a2.517,2.517,0,0,1,2.411-.239,2.394,2.394,0,0,1,1.036.872,4.082,4.082,0,0,1,.591,1.506c.056.307.062.521.069.544l-2.131,5.906-.039.01a.959.959,0,0,0-.024.127,16.184,16.184,0,0,0,1.618,10.918,15.9,15.9,0,0,0,4.524,4.978,21.645,21.645,0,0,0,4.515,2.524c.586.25,1.149.459,1.68.632a2.545,2.545,0,0,0,3.186-1.53,15.612,15.612,0,0,0,.952-6.756,14.516,14.516,0,0,0-.469-2.657l0-.03c-.12-.022-.256-.042-.393-.055,0-.009-.011-.011-.013,0a14.019,14.019,0,0,0-1.523-.15c-3.341-.168-4.741.793-6.888.159a7.381,7.381,0,0,1-2.757-1.681,12.7,12.7,0,0,1-1.227-1.156c-.125-.122-.24-.256-.35-.381a14.376,14.376,0,0,1-1.369-1.834,23.163,23.163,0,0,1,3.729-11.938c.345-.511.7-.989,1.072-1.443,2.067-.76,6.064.066,7.8.484,2.944,2.275,3.486,3.8,5.507,3.848a4.8,4.8,0,0,0,2.141-.491,11.115,11.115,0,0,0,3.9-3.556,9.375,9.375,0,0,0,1.23-2.666,9.858,9.858,0,0,0-1.99-.686,9.318,9.318,0,0,0-1.909-.231,10.1,10.1,0,0,0,.5-2.956c.029-.96.118-4.53-2.033-5.83a3.474,3.474,0,0,0-1.534-.464,13.418,13.418,0,0,0-6.714,1.455c-.32.144-.613.3-.889.438a17.161,17.161,0,0,0-6.415-1.712c-1.553-.1-8.426-.314-12.389,4.473C5159.434,853.958,5159.1,856.689,5158.762,859.641Z" fill="#1c2d3d"/>
          <path id="Trazado_435" data-name="Trazado 435" d="M5187.663,865.228l-2.613-.413-2.038.856.3.6,3.945.422Z" fill="#1c2d3d"/>
          <path id="Trazado_436" data-name="Trazado 436" d="M5183.831,868.819c-.216.714,0,1.412.479,1.557s1.046-.317,1.261-1.031,0-1.412-.479-1.557S5184.047,868.1,5183.831,868.819Z" fill="#272626"/>
          <path id="Trazado_437" data-name="Trazado 437" d="M5175.124,858.906c-.037.121-3.678,8.516-3.678,8.516l.177,10.079-2.068-2.215-1.148-3.217,2.935-11.17,1.669-2.455Z" fill="#1c2d3d"/>
          <path id="Trazado_438" data-name="Trazado 438" d="M5194.34,857.426c-.088.222-.219.528-.4.881a10.709,10.709,0,0,1-3.816,4.25,10.55,10.55,0,0,0,1.449-1.579,9.247,9.247,0,0,0,1.566-3.914Z" fill="#53616e"/>
          <path id="Trazado_439" data-name="Trazado 439" d="M5190.583,855.828a21.192,21.192,0,0,0,.292-3.158c-.047-1.839-.1-3.153-1.028-4.2a3.782,3.782,0,0,0-1.208-.9h0a9.376,9.376,0,0,0-2.876.1h0a3.988,3.988,0,0,1,1.6.483C5190.493,849.925,5190.583,855.828,5190.583,855.828Z" fill="#53616e"/>
          <path id="Trazado_440" data-name="Trazado 440" d="M5174.322,858.708l-3.479,8.664,1.3-9.278Z" fill="#53616e"/>
          <g id="Grupo_114" data-name="Grupo 114">
            <path id="Trazado_441" data-name="Trazado 441" d="M5165.525,868.758c.078.094.153.173.234.254a2.952,2.952,0,0,0,.383.3c.011.01.031.016.042.027a2.74,2.74,0,0,0,1.78.3l.072-.006.039-.01,2.131-5.906c-.007-.023-.013-.237-.069-.544a4.082,4.082,0,0,0-.591-1.506,2.394,2.394,0,0,0-1.036-.872,2.517,2.517,0,0,0-2.411.239C5164.267,862.35,5163.965,866.838,5165.525,868.758Zm.332-4.839c.268-.746,1.082-1.665,1.741-1.46.5.158.833.916.773,1.838,0,0-.963-.3-1.18-.095-.618.6.169,3.443.169,3.443C5166.067,866.519,5165.448,865.06,5165.857,863.919Z" fill="#ff9b6b"/>
          </g>
          <path id="Trazado_442" data-name="Trazado 442" d="M5165.857,863.919c-.409,1.141.21,2.6,1.5,3.726,0,0-.787-2.845-.169-3.443.217-.2,1.18.095,1.18.095.06-.922-.276-1.68-.773-1.838C5166.939,862.254,5166.125,863.173,5165.857,863.919Z" fill="#e55345"/>
        </g>
        <path id="Trazado_443" data-name="Trazado 443" d="M5171.891,876.3a5.913,5.913,0,0,0,3.269.773c1.779-.14,2.487-1.158,3.967-1.477,1.146-.248,2.868-.1,5.323,1.752l-.582,1.3-7.766,1.409Z" fill="#1c2d3d"/>
        <path id="Trazado_444" data-name="Trazado 444" d="M5183.608,877.35c-.42,1.773-1.316,3.055-2.082,2.914s-1.152-1.658-.915-3.464Z" fill="#fff"/>
      </g>
      <g id="Grupo_117" data-name="Grupo 117">
        <path id="Trazado_445" data-name="Trazado 445" d="M5073.38,941.953a.58.58,0,0,1-.379-.142.569.569,0,0,1-.049-.8l3.021-3.42a.57.57,0,1,1,.855.753l-3.021,3.419A.561.561,0,0,1,5073.38,941.953Zm6.041-6.836a.578.578,0,0,1-.379-.143.571.571,0,0,1-.049-.806l3.025-3.417a.571.571,0,1,1,.856.757l-3.025,3.417A.573.573,0,0,1,5079.421,935.117Zm6.046-6.837a.582.582,0,0,1-.379-.142.573.573,0,0,1-.049-.807l3.021-3.417a.571.571,0,1,1,.855.757l-3.021,3.418A.568.568,0,0,1,5085.467,928.28Zm6.041-6.836a.579.579,0,0,1-.379-.143.571.571,0,0,1-.049-.806l3.021-3.418a.571.571,0,1,1,.855.758l-3.02,3.417A.572.572,0,0,1,5091.508,921.444Zm6.046-6.835a.582.582,0,0,1-.379-.142.57.57,0,0,1-.049-.8l3.021-3.419A.57.57,0,1,1,5101,911l-3.021,3.419A.56.56,0,0,1,5097.554,914.609Zm6.041-6.836a.579.579,0,0,1-.379-.143.569.569,0,0,1-.049-.8l3.021-3.42a.57.57,0,1,1,.855.753l-3.02,3.42A.567.567,0,0,1,5103.6,907.773Zm6.046-6.837a.582.582,0,0,1-.379-.142.57.57,0,0,1-.049-.8l3.021-3.419a.57.57,0,1,1,.855.753l-3.02,3.419A.567.567,0,0,1,5109.641,900.936Zm6.041-6.836a.577.577,0,0,1-.379-.143.571.571,0,0,1-.049-.806l3.021-3.418a.571.571,0,1,1,.855.758l-3.02,3.417A.572.572,0,0,1,5115.682,894.1Zm6.041-6.837a.571.571,0,0,1-.427-.949l3.025-3.417a.571.571,0,1,1,.855.757l-3.025,3.417A.571.571,0,0,1,5121.723,887.263Zm6.046-6.837a.571.571,0,0,1-.428-.949l3.021-3.417a.572.572,0,1,1,.856.758l-3.021,3.417A.57.57,0,0,1,5127.769,880.426Z" fill="#91d85d"/>
      </g>
      <path id="Trazado_446" data-name="Trazado 446" d="M5139.668,870.162a3.259,3.259,0,1,1-3.452-3.052A3.258,3.258,0,0,1,5139.668,870.162Z" fill="#91d85d"/>
      <path id="Trazado_447" data-name="Trazado 447" d="M5170.286,908.52l-8.9,10.721a21.614,21.614,0,0,1-6.006,5.567c-6.96,4.349-11.134,7.393-17.952,11.9-.2.136-7.515,5.98-9.023,6.778-8.266-2.144-20.292-2.4-29.816-8.692,14.245-16.01,27.246-31.155,31.737-36.133a70.471,70.471,0,0,1,5.411-5.411c.413-.365.819-.724,1.224-1.069a29.878,29.878,0,0,1,6.27-4.106,55.714,55.714,0,0,1,9.355-3.6l.44-.074a18.787,18.787,0,0,1,6.277.02l6.581,7.785Z" fill="#93e0fe"/>
      <path id="Trazado_448" data-name="Trazado 448" d="M5146.253,948.905l-2.759,9.368-.2.656-.527,1.8-.2.663-1.3,4.417-2.137,7.251-33.746-4.221h-.034a15.047,15.047,0,0,1-9.4-3.781,16.444,16.444,0,0,1-4.512-8.57,18.6,18.6,0,0,1,2.706-13.528l4.735-8.57h.007c-.021.088-.041.176-.061.264q5.946,1.4,12.229,3.179c5.716,1.617,12.568,3.45,17.7,5.242l-.453,3.267,15.557,2.367Z" fill="#457492"/>
      <path id="Trazado_449" data-name="Trazado 449" d="M5167.018,963.089a39.239,39.239,0,0,1-5.9,14.367c-3.558,5.478-12.047,17.6-23.783,33.481a3.325,3.325,0,0,0-1.285-.061,3,3,0,0,0-2.178,1.583,2.807,2.807,0,0,0-.256,1.468c-.021.034-.042.067-.062.1a4.793,4.793,0,0,1-3.835,2.6,5.519,5.519,0,0,1-2.421-.738,5.684,5.684,0,0,1-1.353-1.068,4.5,4.5,0,0,0-.311-.541,3.671,3.671,0,0,0-.765-.853q8.38-18.15,17.512-36.654,3-6.067,6.014-12.053-3.663.588-7.123,1.082l4.985-16.9,10.931.913a10.614,10.614,0,0,1,8.827,6.27l.284.649A10.663,10.663,0,0,1,5167.018,963.089Z" fill="#ff9b6b"/>
      <path id="Trazado_450" data-name="Trazado 450" d="M5112.435,947.693l-.044-.675,15.9-1.015.044.675Z" fill="#fff"/>
      <path id="Trazado_451" data-name="Trazado 451" d="M5147,1024.154l-23.958.291a1.107,1.107,0,0,1-1.082-1.414l.271-.933h25.885l.034.054A1.34,1.34,0,0,1,5147,1024.154Z" fill="#fff"/>
      <path id="Trazado_452" data-name="Trazado 452" d="M5122.228,1022.1l1.609-5.621a2.531,2.531,0,0,1-.656-1.089c-.257-.859-.094-2.07.507-2.306a1.275,1.275,0,0,1,1.177.351,3.671,3.671,0,0,1,.765.853,4.5,4.5,0,0,1,.311.541,5.684,5.684,0,0,0,1.353,1.068,5.519,5.519,0,0,0,2.421.738,4.793,4.793,0,0,0,3.835-2.6h.068l1.454-.047,2.306,2.638.062.068,7.7,2.279a3.758,3.758,0,0,1,2.165,1.718l.8,1.414Z" fill="#1c2d3d"/>
      <path id="Trazado_453" data-name="Trazado 453" d="M5137.8,1014.509a6.488,6.488,0,0,0-.42,2.11l-2.306-2.638-1.454.047c0-.027-.006-.06-.006-.1a2.807,2.807,0,0,1,.256-1.468,3,3,0,0,1,2.178-1.583,3.325,3.325,0,0,1,1.285.061,1.928,1.928,0,0,1,1.482,1.076C5139.023,1012.709,5138.312,1013.19,5137.8,1014.509Z" fill="#fff"/>
      <path id="Trazado_454" data-name="Trazado 454" d="M5231.386,915.526l-.038.171-1.265,6c-11.316-.895-23.013-2.225-35.057-4.057-2.483-.382-6.237-1.91-8.674-2.317l3.279-8.29a12.52,12.52,0,0,0,2.705.254,35.424,35.424,0,0,1,10.946.69C5206.906,909.093,5214.722,910.914,5231.386,915.526Z" fill="#ff9b6b"/>
      <path id="Trazado_455" data-name="Trazado 455" d="M5237.385,913.168l.159.3a.975.975,0,0,1-.37,1.3l-1.847,1.078,2.843.319a5.582,5.582,0,0,1,1.072.238l3.6,1.234a2.072,2.072,0,0,1,1.378,1.658l.059.352a2.09,2.09,0,0,1-.639,1.835l-1,.93a4.553,4.553,0,0,1-2.974,1.218l-3.428.077a6.551,6.551,0,0,1-2.761-.536l-3.4-1.475,1.265-6,2-1.114Z" fill="#ff9b6b"/>
      <path id="Trazado_456" data-name="Trazado 456" d="M5172.436,895.212l-1.718,4.85-.223.636-.507,1.433-.223.636-2.936,8.293c-11.661-3.585-16.037-6.419-18.249-8-1.231-.887-2.354-1.78-3.369-2.652a5.906,5.906,0,0,1-1.738-6.419l.014-.047a11.086,11.086,0,0,1,.852-1.86c.013-.021.02-.041.034-.062.1-.175.21-.344.325-.514a9.7,9.7,0,0,1,1.217-1.508,5.258,5.258,0,0,1,.528-.507,11.342,11.342,0,0,1,10.768-2.354c.331.1.676.209,1.021.324.474.163.934.332,1.36.508a30.135,30.135,0,0,1,5.871,3.1C5166.951,892.067,5169.2,893.413,5172.436,895.212Z" fill="#fff"/>
      <path id="Trazado_457" data-name="Trazado 457" d="M5195.313,907.151l-.122.365-2.916,8.854-.182.548a190.2,190.2,0,0,1-21.956-4.877c-.616-.176-1.211-.352-1.793-.521-.52-.156-1.021-.3-1.515-.46l5.607-15.848C5177.422,897.985,5184.761,901.841,5195.313,907.151Z" fill="#ff9b6b"/>
      <path id="Trazado_458" data-name="Trazado 458" d="M5170.718,900.062l-.223.636-24.58-10.7a5.258,5.258,0,0,1,.528-.507Z" fill="#77899a"/>
      <path id="Trazado_459" data-name="Trazado 459" d="M5169.988,902.131l-.223.636-25.426-10.686c.013-.021.02-.041.034-.062.1-.175.21-.344.325-.514Z" fill="#77899a"/>
      <path id="Trazado_460" data-name="Trazado 460" d="M5142.77,960.728l-.2.663c-17.411-1.224-29-1.461-35.417-.737-1.183.135-4.166.48-6.128-1.326-3.6-3.321-.886-11.188-.764-11.519a16.962,16.962,0,0,1,3.449-5.756l.5.46a16.244,16.244,0,0,0-3.314,5.519c-.027.075-2.692,7.779.588,10.8,1.732,1.6,4.491,1.286,5.527,1.164C5113.543,959.247,5125.231,959.49,5142.77,960.728Z" fill="#fff"/>
      <path id="Trazado_461" data-name="Trazado 461" d="M5143.494,958.273l-.2.656c-4.4-.426-8.84-.731-13.23-.92-6.582-.277-13.379-.561-17.661-.088a25.289,25.289,0,0,1-2.672.115,24.537,24.537,0,0,0-2.813.142l-.318.041a4.77,4.77,0,0,1-3.193-.3,4.447,4.447,0,0,1-1.84-2.327,7.523,7.523,0,0,1-.054-4.376,17.336,17.336,0,0,1,1.935-4.911,39.647,39.647,0,0,1,4.389-6.4l.521.432a38.948,38.948,0,0,0-4.315,6.291,16.828,16.828,0,0,0-1.874,4.728,7.11,7.11,0,0,0,.027,3.991,3.75,3.75,0,0,0,1.542,1.982,4.177,4.177,0,0,0,2.767.216l.324-.047a26,26,0,0,1,2.9-.142,26.053,26.053,0,0,0,2.6-.108c4.336-.481,11.16-.2,17.755.081C5134.544,957.522,5139.036,957.84,5143.494,958.273Z" fill="#fff"/>
    </g>
    <g id="Grupo_128" data-name="Grupo 128">
      <path id="Trazado_462" data-name="Trazado 462" d="M5728.111,1022.651c-7.353.018-17.917.042-24.181.03l.279-7.171.077-2.1,8.935,3.041,1.3,1.782,9.19,2a9.5,9.5,0,0,1,4.07,1.937A1.04,1.04,0,0,1,5728.111,1022.651Z" fill="#dd474d"/>
      <g id="Grupo_121" data-name="Grupo 121">
        <path id="Trazado_463" data-name="Trazado 463" d="M5719.515,794.255l-.568,12.967h-12.175V789.067l.473-5.093.318-3.47,9.132,2.475Z" fill="#ff9b6b"/>
        <path id="Trazado_464" data-name="Trazado 464" d="M5714.158,786.929a11.39,11.39,0,0,1-2.144,2.983,16.729,16.729,0,0,1-5.242,3.4v-4.241l.473-5.093,6.858-1.1Z" fill="#e55345"/>
        <g id="Grupo_120" data-name="Grupo 120">
          <path id="Trazado_465" data-name="Trazado 465" d="M5714.369,787.439a14.455,14.455,0,0,0,1.677,1.556,4.6,4.6,0,0,0,.414.312,12.589,12.589,0,0,0,1.415.915,7.377,7.377,0,0,0,3.015,1.155,4.789,4.789,0,0,0,1.213-.014c1.567-.192,2.866-1.032,5.533-1.386a13.678,13.678,0,0,1,1.525-.129c0-.007.008-.006.014,0,.137-.012.274-.017.4-.017l.02,0,.213-.691.061.007,2.893.237a.75.75,0,0,0,.813-.815,29.015,29.015,0,0,0-.495-3.227,28.322,28.322,0,0,0-.871-3.222,31.414,31.414,0,0,0,.441-5.566c0-.749-.038-1.474-.091-2.161a4.792,4.792,0,0,1-2.017.87c-2,.32-2.805-1.084-6.112-2.79-1.779-.1-5.86-.188-7.755.934-.282.513-.547,1.048-.794,1.613A23.167,23.167,0,0,0,5714.369,787.439Z" fill="#ff9b6b"/>
          <path id="Trazado_466" data-name="Trazado 466" d="M5701.447,776.494a32.087,32.087,0,0,0,2.14,9.374,2.559,2.559,0,0,1-.446.944c-.856,1.136-2.341,1.085-2.42,1.852-.086.889,1.767,1.839,3.072,2.224a7.2,7.2,0,0,0,2.845.237.094.094,0,0,0,.049-.008c.056-.076.107-.165.163-.24a10.2,10.2,0,0,0,2.542-3,8.894,8.894,0,0,0,.6-1.322,8.379,8.379,0,0,0,.272-.908,7.663,7.663,0,0,0,.192-.979,3.014,3.014,0,0,1-.431-.225c-.1-.066-.183-.13-.276-.208-1.882-1.607-2.4-6.075-.831-7.7a2.519,2.519,0,0,1,2.328-.671,2.393,2.393,0,0,1,1.177.67,4.076,4.076,0,0,1,.853,1.375c.111.292.155.5.166.523l-1.029,6.194-.035.016a.938.938,0,0,0,0,.129,16.181,16.181,0,0,0,3.565,10.447,15.873,15.873,0,0,0,5.348,4.078,21.629,21.629,0,0,0,4.9,1.666c.62.141,1.212.244,1.766.318a2.544,2.544,0,0,0,2.857-2.08,15.61,15.61,0,0,0-.285-6.817,14.58,14.58,0,0,0-.941-2.529l-.01-.028c-.123,0-.26.005-.4.017-.006-.008-.013-.009-.014,0a13.678,13.678,0,0,0-1.525.129c-3.316.437-4.52,1.636-6.746,1.4a7.377,7.377,0,0,1-3.015-1.155,12.589,12.589,0,0,1-1.415-.915c-.146-.1-.283-.208-.414-.312a14.455,14.455,0,0,1-1.677-1.556,23.167,23.167,0,0,1,1.509-12.415c.247-.565.512-1.1.794-1.613,1.9-1.122,5.976-1.031,7.755-.934,3.307,1.706,4.116,3.11,6.112,2.79a4.792,4.792,0,0,0,2.017-.87,11.137,11.137,0,0,0,3.195-4.2,9.369,9.369,0,0,0,.727-2.845,9.956,9.956,0,0,0-2.082-.315,9.372,9.372,0,0,0-1.918.118,10.092,10.092,0,0,0-.038-3c-.145-.949-.7-4.476-3.053-5.366a3.472,3.472,0,0,0-1.593-.179,13.412,13.412,0,0,0-6.341,2.645c-.288.2-.549.4-.795.591a17.159,17.159,0,0,0-6.618-.525c-1.546.187-8.345,1.214-11.377,6.639C5701.08,770.783,5701.242,773.53,5701.447,776.494Z" fill="#1c2d3d"/>
          <path id="Trazado_467" data-name="Trazado 467" d="M5730.881,776.766l-2.645.066-1.851,1.21.4.54,3.957-.3Z" fill="#1c2d3d"/>
          <path id="Trazado_468" data-name="Trazado 468" d="M5727.762,780.99c-.084.742.253,1.389.752,1.445s.971-.5,1.054-1.242-.253-1.388-.752-1.444S5727.845,780.249,5727.762,780.99Z" fill="#272626"/>
          <path id="Trazado_469" data-name="Trazado 469" d="M5717.406,772.814c-.015.126-2.078,9.041-2.078,9.041l2,9.881-2.435-1.8-1.71-2.957.867-11.517,1.2-2.715Z" fill="#1c2d3d"/>
          <path id="Trazado_470" data-name="Trazado 470" d="M5736.038,767.887c-.046.233-.119.557-.232.937a10.692,10.692,0,0,1-2.986,4.869,10.471,10.471,0,0,0,1.14-1.814,9.217,9.217,0,0,0,.832-4.133Z" fill="#53616e"/>
          <path id="Trazado_471" data-name="Trazado 471" d="M5732.055,766.992a21.207,21.207,0,0,0-.284-3.158c-.378-1.8-.668-3.083-1.769-3.942a3.779,3.779,0,0,0-1.351-.662h0a9.364,9.364,0,0,0-2.81.62h0a4,4,0,0,1,1.66.186C5730.9,761.2,5732.055,766.992,5732.055,766.992Z" fill="#53616e"/>
          <path id="Trazado_472" data-name="Trazado 472" d="M5716.582,772.764l-1.856,9.15-.4-9.361Z" fill="#53616e"/>
          <g id="Grupo_119" data-name="Grupo 119">
            <path id="Trazado_473" data-name="Trazado 473" d="M5709.746,784.239c.093.078.181.142.276.208a3.014,3.014,0,0,0,.431.225c.013.008.033.01.045.018a2.747,2.747,0,0,0,1.807-.022l.07-.019.035-.016,1.029-6.194c-.011-.022-.055-.231-.166-.523a4.076,4.076,0,0,0-.853-1.375,2.393,2.393,0,0,0-1.177-.67,2.519,2.519,0,0,0-2.328.671C5707.351,778.164,5707.864,782.632,5709.746,784.239Zm-.548-4.82c.128-.782.763-1.833,1.449-1.75.516.065.984.751,1.092,1.668,0,0-1-.119-1.177.12-.5.7.787,3.355.787,3.355C5709.875,781.939,5709,780.616,5709.2,779.419Z" fill="#ff9b6b"/>
          </g>
          <path id="Trazado_474" data-name="Trazado 474" d="M5709.2,779.419c-.2,1.2.677,2.52,2.151,3.393,0,0-1.288-2.656-.787-3.355.176-.239,1.177-.12,1.177-.12-.108-.917-.576-1.6-1.092-1.668C5709.961,777.586,5709.326,778.637,5709.2,779.419Z" fill="#e55345"/>
        </g>
        <path id="Trazado_475" data-name="Trazado 475" d="M5717.37,790.506a5.926,5.926,0,0,0,3.355.169c1.725-.459,2.237-1.588,3.635-2.17,1.082-.45,2.8-.616,5.552.761l-.338,1.381-7.384,2.79Z" fill="#1c2d3d"/>
        <path id="Trazado_476" data-name="Trazado 476" d="M5729.084,789.421c-.093,1.82-.742,3.243-1.521,3.243s-1.433-1.423-1.526-3.243Z" fill="#fff"/>
      </g>
      <path id="Trazado_477" data-name="Trazado 477" d="M5722.932,811.083a34.437,34.437,0,0,1-16.255-4.674c-.723-.431-1.407-.874-2.054-1.343l1.692-2.82,13.351,4.666Z" fill="#fdf6b1"/>
      <path id="Trazado_478" data-name="Trazado 478" d="M5728.4,879.3c-.095.508-.183,1.022-.284,1.536-.46,2.448-.988,4.964-1.59,7.528-.088.372-.176.751-.271,1.116-.493,2.043-1,4.025-1.542,5.959,0,2.361,0,4.715.007,7.082q.071,22.168.433,44.006a6.635,6.635,0,0,1-.372,2.294l-1.86,5.174-7.217,62.878h-.63l-8.515-1.17-6.412-.879,1.014-73.079-1.6-8.272-7.014-37.31a22.768,22.768,0,0,1,1.109-12.337l1.691-4.444.65-1.705c.04-.081.074-.162.108-.237,3.686.453,7.535.853,11.539,1.15,5.668.433,11.08.65,16.207.7C5725.394,879.31,5726.909,879.317,5728.4,879.3Z" fill="#457492"/>
      <path id="Trazado_479" data-name="Trazado 479" d="M5728.114,880.839c-.46,2.448-.988,4.964-1.59,7.528-.088.372-.176.751-.271,1.116l-7.237-2.6s-19.744-6.3-23.674-7.494l.65-1.705c.04-.081.074-.162.108-.237,3.686.453,7.535.853,11.539,1.15,5.668.433,11.08.65,16.207.7Z" fill="#314f67"/>
      <path id="Trazado_480" data-name="Trazado 480" d="M5732.866,881.739q-3.246.03-6.6-.028c-6.6-.128-12.935-.561-18.978-1.231q-4.49-.486-8.752-1.15c-1-.148-1.976-.3-2.956-.466,2.767-14.009,1.9-23.5.232-29.944-1.612-6.23-1.983-10.437-2.724-18.858-.45-5.141-.566-9.159,1.272-13.691a30.845,30.845,0,0,1,4.72-7.7,36.433,36.433,0,0,1,2.985-3.267l2.644-1.691c.248.2.494.392.756.582.617.48,1.278.939,1.982,1.4a42.025,42.025,0,0,0,16.582,5.952h.022a2.591,2.591,0,0,1,2.172,1.9c.755,3.233,1.561,7.115,2.288,11.505,1.1,6.69,1.91,12.5,2.709,18.371.45,3.328.632,6.947,1.1,10.66A142.28,142.28,0,0,1,5732.866,881.739Z" fill="#dd474d"/>
      <path id="Trazado_481" data-name="Trazado 481" d="M5726.713,1024.083l-21.045.362c-1.012.012-1.83-.647-1.753-1.426l.015-.338c6.264.012,16.828-.012,24.181-.03C5728.342,1023.322,5727.725,1024.071,5726.713,1024.083Z" fill="#59032c"/>
      <g id="Grupo_122" data-name="Grupo 122">
        <path id="Trazado_482" data-name="Trazado 482" d="M5715.754,885.572a75.545,75.545,0,0,1-13.624-1.232c-1.907-.347-3.823-.777-5.694-1.274l.178-.655c1.854.495,3.752.92,5.641,1.265a75.82,75.82,0,0,0,21.127.84l.062.673C5720.878,885.443,5718.307,885.572,5715.754,885.572Z" fill="#fff"/>
      </g>
      <path id="Trazado_483" data-name="Trazado 483" d="M5718.68,912.382l-.255.223a.974.974,0,0,1-1.354-.061l-1.472-1.551.34,2.84a5.537,5.537,0,0,1,.014,1.1l-.376,3.788a2.074,2.074,0,0,1-1.3,1.721l-.328.138a2.089,2.089,0,0,1-1.933-.2l-1.133-.758a4.542,4.542,0,0,1-1.866-2.616l-.861-3.318a6.542,6.542,0,0,1-.11-2.811l.658-3.646,6.132-.142,1.543,1.694Z" fill="#ff9b6b"/>
      <g id="Grupo_123" data-name="Grupo 123">
        <path id="Trazado_484" data-name="Trazado 484" d="M5715.438,903.308l-3.408-2.437,7.262-12.1.579.348-6.941,11.57,2.9,2.072Z" fill="#fff"/>
      </g>
      <path id="Trazado_485" data-name="Trazado 485" d="M5715.01,907.082l-.174,0-6.132.142c-1.72-11.22-3.1-22.911-4.078-35.054-.2-2.5-.379-4.979-.541-7.445l9.632-.235c.1.813.226,1.715.372,2.69.838,5.823,1.687,10.071,1.834,10.814C5716.64,881.72,5715.686,889.8,5715.01,907.082Z" fill="#ff9b6b"/>
      <g id="Grupo_124" data-name="Grupo 124">
        <path id="Trazado_486" data-name="Trazado 486" d="M5731.53,880.034h-.018l-11.583-.762a.256.256,0,0,1-.236-.269.254.254,0,0,1,.254-.238h.017l11.317.744c.013-2.333.08-19.238-.936-27.939-.535-4.625-4.188-27.995-4.223-28.229l-1.293-5.17-1.808.225a.214.214,0,0,1-.205-.065.253.253,0,0,1-.08-.2l.12-2.653c-1.813-.717-7.262-2.9-11.851-5.012a35.92,35.92,0,0,1-5.658-3.15c-.7-.474-1.243-.889-1.577-1.149a.254.254,0,1,1,.311-.4c.33.258.869.663,1.551,1.131a35.421,35.421,0,0,0,5.587,3.11c4.727,2.174,10.376,4.426,11.993,5.066a.253.253,0,0,1,.161.247l-.116,2.533,1.733-.216a.25.25,0,0,1,.276.189l1.35,5.411c.045.258,3.7,23.639,4.237,28.273,1.087,9.342.931,28.083.931,28.271a.254.254,0,0,1-.254.251Z" fill="#1c2d3d"/>
      </g>
      <path id="Trazado_487" data-name="Trazado 487" d="M5719.4,829.822c-1.147,4.564-2.8,14.672-5.272,34.662l-.407.009-9.632.235-.6.018a196.9,196.9,0,0,1-2.888-23.078c-1-15.2.4-21.166,1.248-24.117.424-1.476.892-2.849,1.376-4.114a6.193,6.193,0,0,1,5.675-4.017h.051a13.32,13.32,0,0,1,9.085,3.88,6.266,6.266,0,0,1,1.913,3.534,30.644,30.644,0,0,1,.445,4.7A31.07,31.07,0,0,1,5719.4,829.822Z" fill="#fdf6b1"/>
      <g id="Grupo_125" data-name="Grupo 125">
        <path id="Trazado_488" data-name="Trazado 488" d="M5704.077,864.111a.252.252,0,0,1-.25-.218c-.552-3.921-1.006-7.89-1.354-11.795a227.151,227.151,0,0,1-.677-22.858c0-.013.044-1.37.227-3.9a35.333,35.333,0,0,1,1.7-9.708,8.527,8.527,0,0,1,1.337-2.493,8.181,8.181,0,0,1,2.851-2.268.247.247,0,0,1,.339.116.254.254,0,0,1-.116.339,7.675,7.675,0,0,0-2.673,2.129,7.773,7.773,0,0,0-1.257,2.35,34.747,34.747,0,0,0-1.675,9.57c-.187,2.52-.227,3.865-.227,3.878a224.733,224.733,0,0,0,.677,22.8c.343,3.9.8,7.857,1.345,11.769a.251.251,0,0,1-.213.287A.217.217,0,0,1,5704.077,864.111Z" fill="#fff"/>
      </g>
      <g id="Grupo_126" data-name="Grupo 126">
        <path id="Trazado_489" data-name="Trazado 489" d="M5700.245,862.639a.155.155,0,0,1-.049-.007l-3.688-1.013a.188.188,0,0,1-.139-.15l-.877-4.566a.186.186,0,0,1,.026-.145.205.205,0,0,1,.125-.08l3.792-.677a.216.216,0,0,1,.151.035.211.211,0,0,1,.076.129l.775,6.258a.2.2,0,0,1-.192.216Zm-3.524-1.359,3.3.907-.713-5.772-3.4.608Z" fill="#1c2d3d"/>
      </g>
      <g id="Grupo_127" data-name="Grupo 127">
        <path id="Trazado_490" data-name="Trazado 490" d="M5685.2,885.327a.57.57,0,0,1-.571-.57V880.2a.571.571,0,1,1,1.141,0v4.562A.57.57,0,0,1,5685.2,885.327Zm0-9.124a.57.57,0,0,1-.571-.57V871.07a.571.571,0,0,1,1.141,0v4.563A.57.57,0,0,1,5685.2,876.2Zm0-9.125a.57.57,0,0,1-.571-.57v-4.562a.571.571,0,0,1,1.141,0v4.562A.57.57,0,0,1,5685.2,867.078Zm0-9.124a.57.57,0,0,1-.571-.57v-4.562a.571.571,0,1,1,1.141,0v4.562A.57.57,0,0,1,5685.2,857.954Zm0-9.124a.57.57,0,0,1-.571-.57V843.7a.571.571,0,0,1,1.141,0v4.563A.57.57,0,0,1,5685.2,848.83Zm0-9.125a.57.57,0,0,1-.571-.57v-4.562a.571.571,0,0,1,1.141,0v4.562A.57.57,0,0,1,5685.2,839.705Zm0-9.124a.57.57,0,0,1-.571-.57v-4.562a.571.571,0,1,1,1.141,0v4.562A.57.57,0,0,1,5685.2,830.581Zm0-9.124a.57.57,0,0,1-.571-.57v-4.563a.571.571,0,0,1,1.141,0v4.563A.57.57,0,0,1,5685.2,821.457Zm0-9.125a.57.57,0,0,1-.571-.57V807.2a.571.571,0,0,1,1.141,0v4.562A.57.57,0,0,1,5685.2,812.332Zm0-9.124a.57.57,0,0,1-.571-.57v-4.562a.571.571,0,1,1,1.141,0v4.562A.57.57,0,0,1,5685.2,803.208Z" fill="#91d85d"/>
      </g>
      <path id="Trazado_491" data-name="Trazado 491" d="M5687.69,787.494a3.258,3.258,0,1,1-4.608,0A3.257,3.257,0,0,1,5687.69,787.494Z" fill="#91d85d"/>
    </g>
    <g id="Grupo_141" data-name="Grupo 141">
      <path id="Trazado_492" data-name="Trazado 492" d="M5523.309,1017.961l-16.64-7.937a1.515,1.515,0,0,1-.639-2.141l.186-.339c4.891,2.485,13.163,6.63,18.921,9.514A1.3,1.3,0,0,1,5523.309,1017.961Z" fill="#59032c"/>
      <path id="Trazado_493" data-name="Trazado 493" d="M5525.137,1017.058c-5.758-2.884-14.03-7.029-18.921-9.514l3.9-7.178,1.137-2.1,5.425,6.618.1,2.324,6.158,5.662a7.7,7.7,0,0,1,2.189,3.575A1.257,1.257,0,0,1,5525.137,1017.058Z" fill="#dd474d"/>
      <path id="Trazado_494" data-name="Trazado 494" d="M5566.8,1020.6l-18.432.413a1.516,1.516,0,0,1-1.536-1.623l.014-.386c5.486.014,14.739-.014,21.178-.034A1.3,1.3,0,0,1,5566.8,1020.6Z" fill="#59032c"/>
      <path id="Trazado_495" data-name="Trazado 495" d="M5568.021,1018.971c-6.439.02-15.692.048-21.178.034l.244-8.164.067-2.388,7.826,3.463,1.137,2.03,8.049,2.279a7.7,7.7,0,0,1,3.564,2.205A1.249,1.249,0,0,1,5568.021,1018.971Z" fill="#dd474d"/>
      <path id="Trazado_496" data-name="Trazado 496" d="M5571.45,948.23l-14.407,65.482-12.175-2.7,9.469-65.834-.893-.467-14.867-7.792-16.93-8.868-5.919-3.105a27.638,27.638,0,0,1-14.644-21.434,15.156,15.156,0,0,1,.907-7.089l3.422-8.963c.683.474,3.463,3.085,4.174,3.552a89.218,89.218,0,0,0,16.287,8.394l2.537.622,10.484,3.72-1.184,3.89,29.173,24.8a10.5,10.5,0,0,1,3.5,5.952l1.1,5.52A10.455,10.455,0,0,1,5571.45,948.23Z" fill="#457492"/>
      <path id="Trazado_497" data-name="Trazado 497" d="M5553.444,944.706l-35.855,62.019-12.852-5.411,31.026-59.05c-3.443-3.45-9.645-9.672-14.116-14.218l16.93,8.868Z" fill="#314f67"/>
      <g id="Grupo_129" data-name="Grupo 129">
        <path id="Trazado_498" data-name="Trazado 498" d="M5534.934,906.095a76.756,76.756,0,0,1-27.342-12.483l.392-.548a75.971,75.971,0,0,0,27.11,12.372Z" fill="#fff"/>
      </g>
      <g id="Grupo_130" data-name="Grupo 130">
        <rect id="Rectángulo_61" data-name="Rectángulo 61" width="2.308" height="0.672" transform="translate(5530.816 904.613) rotate(-66.153)" fill="#fff"/>
      </g>
      <g id="Grupo_131" data-name="Grupo 131">
        <rect id="Rectángulo_62" data-name="Rectángulo 62" width="2.417" height="0.675" transform="translate(5517.242 899.307) rotate(-53.584)" fill="#fff"/>
      </g>
      <g id="Grupo_132" data-name="Grupo 132">
        <rect id="Rectángulo_63" data-name="Rectángulo 63" width="6.51" height="1.606" transform="translate(5583.856 980.733)" fill="#53616e"/>
        <rect id="Rectángulo_64" data-name="Rectángulo 64" width="6.511" height="1.606" transform="translate(5623.594 980.733)" fill="#53616e"/>
        <path id="Trazado_499" data-name="Trazado 499" d="M5602.582,976.576a9.166,9.166,0,0,0-1.982,1.7,9.415,9.415,0,0,0-2.131,4.728l-2-.311a11.4,11.4,0,0,1,2.6-5.756,10.976,10.976,0,0,1,2.036-1.813.294.294,0,0,0,.047.054Z" fill="#586069"/>
        <path id="Trazado_500" data-name="Trazado 500" d="M5619.776,983.192l-2,.324a10.947,10.947,0,0,0-4.086-6.818l.352.007,1.251-1.332A13.2,13.2,0,0,1,5619.776,983.192Z" fill="#586069"/>
        <path id="Trazado_501" data-name="Trazado 501" d="M5641.773,985.295v35.687a3.461,3.461,0,0,1-3.464,3.463H5629a3.463,3.463,0,0,0,3.47-3.463V985.295a3.463,3.463,0,0,0-3.47-3.463h9.307A3.461,3.461,0,0,1,5641.773,985.295Z" fill="#53616e"/>
        <path id="Trazado_502" data-name="Trazado 502" d="M5637.376,985.295v35.687a3.461,3.461,0,0,1-3.463,3.463h-.717a3.461,3.461,0,0,0,3.463-3.463V985.295a3.461,3.461,0,0,0-3.463-3.463h.717A3.461,3.461,0,0,1,5637.376,985.295Z" fill="#3c4248"/>
        <path id="Trazado_503" data-name="Trazado 503" d="M5632.472,985.295v35.687a3.463,3.463,0,0,1-3.47,3.463h-1.069a3.462,3.462,0,0,0,3.47-3.463V985.295a3.463,3.463,0,0,0-3.47-3.463H5629A3.463,3.463,0,0,1,5632.472,985.295Z" fill="#b7c9de"/>
        <path id="Trazado_504" data-name="Trazado 504" d="M5631.4,985.295v35.687a3.462,3.462,0,0,1-3.47,3.463h-47.456a3.462,3.462,0,0,1-3.469-3.463V985.295a3.462,3.462,0,0,1,3.469-3.463h47.456A3.463,3.463,0,0,1,5631.4,985.295Z" fill="#989fa9"/>
        <path id="Trazado_505" data-name="Trazado 505" d="M5631.4,985.295v35.687a3.462,3.462,0,0,1-3.47,3.463h-47.456a3.462,3.462,0,0,1-3.469-3.463V985.295a3.462,3.462,0,0,1,3.469-3.463h47.456A3.463,3.463,0,0,1,5631.4,985.295Z" fill="#989fa9"/>
        <path id="Trazado_506" data-name="Trazado 506" d="M5615.413,975.244l-.122.129-1.251,1.332-.352-.007-11.093-.108-.013-.014-1.427-1.4a.294.294,0,0,1-.047-.054.813.813,0,0,1,.622-1.339c.541.006,1.17.006,1.853.013,2.74.021,6.4.041,9.166.061.777.007,1.487.014,2.083.014A.813.813,0,0,1,5615.413,975.244Z" fill="#3c4248"/>
      </g>
      <g id="Grupo_135" data-name="Grupo 135">
        <path id="Trazado_507" data-name="Trazado 507" d="M5587.061,847.779l-9.5,19.833-7.259-12.78,7-16.752,2.4-4.517,1.63-3.079,7.472,5.8Z" fill="#ff9b6b"/>
        <path id="Trazado_508" data-name="Trazado 508" d="M5584.941,838.955a11.4,11.4,0,0,1-3.128,1.926,16.708,16.708,0,0,1-6.146,1.112l1.634-3.913,2.4-4.517,6.753,1.626Z" fill="#e55345"/>
        <g id="Grupo_134" data-name="Grupo 134">
          <path id="Trazado_509" data-name="Trazado 509" d="M5584.939,839.507a14.477,14.477,0,0,0,.947,2.082,5.063,5.063,0,0,0,.262.448,12.733,12.733,0,0,0,.954,1.389,7.374,7.374,0,0,0,2.337,2.228,4.793,4.793,0,0,0,1.124.455c1.52.427,3.043.151,5.64.853a13.887,13.887,0,0,1,1.457.469c0-.006.009,0,.012.007.131.042.26.09.372.137l.018.01.464-.555.052.03,2.579,1.333a.75.75,0,0,0,1.064-.438,29.654,29.654,0,0,0,1.226-6.477,31.592,31.592,0,0,0,2.552-4.966c.285-.693.533-1.375.749-2.029a4.8,4.8,0,0,1-2.2.025c-1.966-.474-2.171-2.082-4.565-4.93-1.6-.776-5.334-2.432-7.516-2.128-.458.365-.908.757-1.354,1.182A23.158,23.158,0,0,0,5584.939,839.507Z" fill="#ff9b6b"/>
          <path id="Trazado_510" data-name="Trazado 510" d="M5577.234,824.426a32.078,32.078,0,0,0-1.638,9.476,2.569,2.569,0,0,1-.776.7c-1.227.719-2.578.1-2.947.776-.422.787.923,2.378,1.978,3.236a7.2,7.2,0,0,0,2.534,1.316.091.091,0,0,0,.048.011c.081-.048.163-.111.243-.159a10.155,10.155,0,0,0,3.5-1.784,8.959,8.959,0,0,0,1.061-.989,8.61,8.61,0,0,0,.6-.734,7.477,7.477,0,0,0,.554-.829,2.833,2.833,0,0,1-.31-.374,3.344,3.344,0,0,1-.175-.3c-1.117-2.209.132-6.529,2.2-7.422a2.517,2.517,0,0,1,2.407.278,2.393,2.393,0,0,1,.828,1.072,4.12,4.12,0,0,1,.257,1.6c-.011.312-.051.522-.048.547l-3.337,5.319h-.04a.974.974,0,0,0-.05.119,16.184,16.184,0,0,0-.738,11.013,15.905,15.905,0,0,0,3.364,5.825,21.63,21.63,0,0,0,3.877,3.424c.518.37,1.025.693,1.507.975a2.545,2.545,0,0,0,3.438-.819,15.614,15.614,0,0,0,2.365-6.4,14.58,14.58,0,0,0,.106-2.7v-.03c-.112-.047-.241-.1-.372-.137,0-.009-.009-.013-.012-.007a13.887,13.887,0,0,0-1.457-.469c-3.229-.874-4.8-.232-6.764-1.308a7.374,7.374,0,0,1-2.337-2.228,12.733,12.733,0,0,1-.954-1.389c-.1-.147-.18-.3-.262-.448a14.477,14.477,0,0,1-.947-2.082,23.163,23.163,0,0,1,6.178-10.875c.446-.425.9-.817,1.354-1.182,2.182-.3,5.912,1.352,7.516,2.128,2.394,2.848,2.6,4.456,4.565,4.93a4.8,4.8,0,0,0,2.2-.025,11.134,11.134,0,0,0,4.567-2.646,9.388,9.388,0,0,0,1.768-2.345,9.89,9.89,0,0,0-1.8-1.093,9.371,9.371,0,0,0-1.816-.631,10.088,10.088,0,0,0,1.121-2.782c.232-.931,1.077-4.4-.749-6.128a3.478,3.478,0,0,0-1.4-.779,13.42,13.42,0,0,0-6.87,0c-.342.073-.661.159-.961.239a17.168,17.168,0,0,0-5.9-3.035c-1.5-.423-8.168-2.1-13.056,1.741C5579.1,819.016,5578.187,821.613,5577.234,824.426Z" fill="#1c2d3d"/>
          <path id="Trazado_511" data-name="Trazado 511" d="M5604.29,836.023l-2.466-.959-2.174.4.162.652,3.766,1.25Z" fill="#1c2d3d"/>
          <path id="Trazado_512" data-name="Trazado 512" d="M5599.782,838.719c-.362.652-.3,1.378.138,1.622s1.089-.087,1.452-.739.3-1.379-.138-1.623S5600.145,838.066,5599.782,838.719Z" fill="#272626"/>
          <path id="Trazado_513" data-name="Trazado 513" d="M5593.379,827.182c-.062.111-5.4,7.542-5.4,7.542l-1.966,9.886-1.551-2.6-.438-3.387,5.239-10.292,2.152-2.044Z" fill="#1c2d3d"/>
          <path id="Trazado_514" data-name="Trazado 514" d="M5612.471,829.817c-.133.2-.326.469-.576.776a10.7,10.7,0,0,1-4.632,3.342,10.5,10.5,0,0,0,1.751-1.235,9.214,9.214,0,0,0,2.361-3.492Z" fill="#53616e"/>
          <path id="Trazado_515" data-name="Trazado 515" d="M5609.14,827.457a21.382,21.382,0,0,0,.956-3.024c.344-1.806.572-3.1-.114-4.319a3.765,3.765,0,0,0-.991-1.132h0a9.348,9.348,0,0,0-2.831-.511h0a3.992,3.992,0,0,1,1.459.811C5610.305,821.669,5609.14,827.457,5609.14,827.457Z" fill="#53616e"/>
          <path id="Trazado_516" data-name="Trazado 516" d="M5592.638,826.819l-5.24,7.728,3.243-8.79Z" fill="#53616e"/>
          <g id="Grupo_133" data-name="Grupo 133">
            <path id="Trazado_517" data-name="Trazado 517" d="M5581.907,834.772a3.344,3.344,0,0,0,.175.3,2.833,2.833,0,0,0,.31.374c.009.012.026.022.035.035a2.753,2.753,0,0,0,1.675.676l.072.009h.04l3.337-5.319c0-.025.037-.235.048-.547a4.12,4.12,0,0,0-.257-1.6,2.393,2.393,0,0,0-.828-1.072,2.517,2.517,0,0,0-2.407-.278C5582.039,828.243,5580.79,832.563,5581.907,834.772Zm1.352-4.658c.42-.672,1.412-1.4,2.011-1.057.452.259.619,1.072.366,1.96,0,0-.878-.5-1.133-.343-.732.452-.567,3.4-.567,3.4C5582.912,832.7,5582.617,831.142,5583.259,830.114Z" fill="#ff9b6b"/>
          </g>
          <path id="Trazado_518" data-name="Trazado 518" d="M5583.259,830.114c-.642,1.028-.347,2.585.677,3.959,0,0-.165-2.947.567-3.4.255-.153,1.133.343,1.133.343.253-.888.086-1.7-.366-1.96C5584.671,828.716,5583.679,829.442,5583.259,830.114Z" fill="#e55345"/>
        </g>
        <path id="Trazado_519" data-name="Trazado 519" d="M5586.527,843.494a5.93,5.93,0,0,0,3.029,1.449c1.769.241,2.677-.6,4.191-.6,1.173,0,2.824.511,4.83,2.842l-.844,1.144-7.889-.272Z" fill="#1c2d3d"/>
        <path id="Trazado_520" data-name="Trazado 520" d="M5597.753,847.008c-.787,1.643-1.935,2.705-2.654,2.405s-.773-1.865-.158-3.58Z" fill="#fff"/>
      </g>
      <g id="Grupo_136" data-name="Grupo 136">
        <path id="Trazado_521" data-name="Trazado 521" d="M5491.584,887.47a.57.57,0,0,1-.343-1.025l3.636-2.76a.569.569,0,1,1,.686.909l-3.636,2.76A.56.56,0,0,1,5491.584,887.47Zm7.267-5.52a.569.569,0,0,1-.343-1.025l3.635-2.757a.575.575,0,0,1,.8.109.567.567,0,0,1-.112.8l-3.635,2.758A.565.565,0,0,1,5498.851,881.95Zm7.266-5.518a.569.569,0,0,1-.343-1.024l3.636-2.758a.569.569,0,1,1,.686.909l-3.636,2.757A.562.562,0,0,1,5506.117,876.432Zm7.267-5.518a.569.569,0,0,1-.343-1.024l3.635-2.758a.577.577,0,0,1,.8.109.568.568,0,0,1-.112.8l-3.635,2.758A.565.565,0,0,1,5513.384,870.914Zm7.266-5.517a.57.57,0,0,1-.343-1.025l3.636-2.758a.575.575,0,0,1,.8.109.567.567,0,0,1-.111.8l-3.636,2.758A.562.562,0,0,1,5520.65,865.4Zm7.267-5.518a.569.569,0,0,1-.343-1.025l3.635-2.76a.576.576,0,0,1,.8.109.568.568,0,0,1-.112.8l-3.635,2.76A.564.564,0,0,1,5527.917,859.879Zm7.266-5.518a.57.57,0,0,1-.343-1.025l3.636-2.76a.576.576,0,0,1,.8.109.568.568,0,0,1-.111.8l-3.636,2.76A.563.563,0,0,1,5535.183,854.361Zm7.267-5.518a.569.569,0,0,1-.343-1.025l3.635-2.76a.569.569,0,1,1,.686.909l-3.635,2.76A.566.566,0,0,1,5542.45,848.843Zm7.266-5.518a.569.569,0,0,1-.343-1.024l3.636-2.76a.572.572,0,0,1,.8.109.566.566,0,0,1-.111.8l-3.636,2.761A.567.567,0,0,1,5549.716,843.325Zm7.267-5.517a.569.569,0,0,1-.343-1.025l3.635-2.76a.577.577,0,0,1,.8.109.569.569,0,0,1-.112.8l-3.635,2.76A.566.566,0,0,1,5556.983,837.808Z" fill="#91d85d"/>
      </g>
      <path id="Trazado_522" data-name="Trazado 522" d="M5570.555,830.064a3.258,3.258,0,1,1-2.787-3.67A3.258,3.258,0,0,1,5570.555,830.064Z" fill="#91d85d"/>
      <path id="Trazado_523" data-name="Trazado 523" d="M5579.871,869.781l-12.8,17.445S5541.857,903,5541.4,903.067a35.3,35.3,0,0,0-3.409,1.684,90.635,90.635,0,0,1-28.517-12.845c-2.05-1.4-3.971-2.841-5.757-4.295q5.257-4.068,10.647-8.13c16.071-12.108,27.536-28.01,47.808-33.739l.439-.074a18.83,18.83,0,0,1,8.435.52l2.672.792Z" fill="#93e0fe"/>
      <path id="Trazado_524" data-name="Trazado 524" d="M5593.479,937.434l-.16.068-5.634,2.426q-8.689-14.643-16.9-30.983c-1.118-2.25-1.138-5.389-2.211-7.615l7.769-2.908c.4.714.851,1.505,1.351,2.355,2.956,5.086,5.333,8.708,5.746,9.342C5585.5,913.3,5587.642,921.159,5593.479,937.434Z" fill="#ff9b6b"/>
      <path id="Trazado_525" data-name="Trazado 525" d="M5598.865,940.976l-.152.3a.974.974,0,0,1-1.279.449l-1.946-.887,1.379,2.507a5.563,5.563,0,0,1,.423,1.013l1.068,3.654a2.073,2.073,0,0,1-.561,2.082l-.253.251a2.092,2.092,0,0,1-1.868.536l-1.334-.279a4.552,4.552,0,0,1-2.71-1.728l-2.039-2.756a6.528,6.528,0,0,1-1.154-2.565l-.754-3.627,5.634-2.426,2.064.993Z" fill="#ff9b6b"/>
      <path id="Trazado_526" data-name="Trazado 526" d="M5579.929,903.938l-.385.115-9.219,2.814-.568.176a197.8,197.8,0,0,1-8.97-21.463q-.324-.933-.629-1.826c-4.423-13.081-4.653-18.811-4.633-21.739.014-1.533.1-2.979.223-4.325a6.209,6.209,0,0,1,4.394-5.4l.05-.015c4.85-1.393,9.287.819,11.668,2.415a31.327,31.327,0,0,1,2.6,6.183c.149.493.278.98.386,1.447a31.028,31.028,0,0,1,.879,6.811C5575.837,873.838,5576.96,884.018,5579.929,903.938Z" fill="#fff"/>
      <g id="Grupo_137" data-name="Grupo 137">
        <path id="Trazado_527" data-name="Trazado 527" d="M5570.326,905.231a.248.248,0,0,1-.231-.152c-3-6.756-5.587-13.45-7.7-19.892-.886-2.718-1.394-4.473-2.37-7.875a78.623,78.623,0,0,1-2.709-11.871c-.053-.367-.066-2.328-.089-6.373a4.377,4.377,0,0,1,3.551-5.144,11.209,11.209,0,0,1,4.669-.608.256.256,0,0,1,.236.274.24.24,0,0,1-.271.234,10.358,10.358,0,0,0-4.465.577,3.893,3.893,0,0,0-3.212,4.662c.022,3.914.036,5.973.08,6.309a78.439,78.439,0,0,0,2.7,11.8c.972,3.395,1.479,5.146,2.362,7.855,2.111,6.426,4.695,13.1,7.685,19.845a.252.252,0,0,1-.129.335A.243.243,0,0,1,5570.326,905.231Z" fill="#1c2d3d"/>
      </g>
      <path id="Trazado_528" data-name="Trazado 528" d="M5572.546,846.869a26.6,26.6,0,0,0,2.085-2.423l6.37,16.177-2.48,5.749Z" fill="#fdf6b1"/>
      <g id="Grupo_138" data-name="Grupo 138">
        <path id="Trazado_529" data-name="Trazado 529" d="M5576.35,869.163a.228.228,0,0,1-.063-.008.253.253,0,0,1-.182-.308l.659-2.635-5.725-17.431a.251.251,0,0,1,.16-.321.256.256,0,0,1,.321.16l5.747,17.5a.256.256,0,0,1,0,.142l-.677,2.707A.251.251,0,0,1,5576.35,869.163Z" fill="#1c2d3d"/>
      </g>
      <g id="Grupo_139" data-name="Grupo 139">
        <path id="Trazado_530" data-name="Trazado 530" d="M5538.444,903.378a.245.245,0,0,1-.213-.121.25.25,0,0,1,.08-.349l22.093-13.754a.258.258,0,0,1,.348.083.25.25,0,0,1-.08.349l-22.094,13.754A.27.27,0,0,1,5538.444,903.378Z" fill="#1c2d3d"/>
      </g>
      <g id="Grupo_140" data-name="Grupo 140">
        <path id="Trazado_531" data-name="Trazado 531" d="M5529.877,916.42v-8.788h.677v7.9l1.6-.443.178.65Z" fill="#fff"/>
      </g>
    </g>
    <g id="Grupo_150" data-name="Grupo 150">
      <g id="Grupo_144" data-name="Grupo 144">
        <path id="Trazado_532" data-name="Trazado 532" d="M5313.625,848.407l-.568,12.967h-12.175V843.219l.474-5.094.318-3.47,9.131,2.476Z" fill="#ff9b6b"/>
        <path id="Trazado_533" data-name="Trazado 533" d="M5308.268,841.081a11.375,11.375,0,0,1-2.144,2.984,16.743,16.743,0,0,1-5.242,3.4v-4.241l.473-5.093,6.859-1.1Z" fill="#e55345"/>
        <g id="Grupo_143" data-name="Grupo 143">
          <path id="Trazado_534" data-name="Trazado 534" d="M5308.479,841.592a14.461,14.461,0,0,0,1.677,1.556,4.881,4.881,0,0,0,.414.312,12.583,12.583,0,0,0,1.415.914,7.386,7.386,0,0,0,3.016,1.155,4.793,4.793,0,0,0,1.213-.014c1.566-.191,2.865-1.032,5.532-1.386a13.949,13.949,0,0,1,1.526-.129c0-.006.007-.006.013,0,.137-.012.274-.017.4-.017l.02,0,.213-.691.061.006,2.893.237a.75.75,0,0,0,.813-.814,29.583,29.583,0,0,0-1.365-6.449,31.521,31.521,0,0,0,.44-5.566c0-.75-.038-1.475-.091-2.161a4.8,4.8,0,0,1-2.016.869c-2,.32-2.806-1.084-6.113-2.789-1.779-.1-5.86-.188-7.755.933-.282.513-.547,1.048-.793,1.613A23.161,23.161,0,0,0,5308.479,841.592Z" fill="#ff9b6b"/>
          <path id="Trazado_535" data-name="Trazado 535" d="M5295.557,830.646a32.048,32.048,0,0,0,2.14,9.375,2.562,2.562,0,0,1-.446.943c-.856,1.136-2.341,1.085-2.42,1.852-.086.889,1.768,1.839,3.072,2.224a7.188,7.188,0,0,0,2.846.237.08.08,0,0,0,.048-.008c.056-.075.107-.165.163-.24a10.17,10.17,0,0,0,2.542-2.995,8.937,8.937,0,0,0,.6-1.322,8.4,8.4,0,0,0,.273-.909,7.486,7.486,0,0,0,.191-.979,2.817,2.817,0,0,1-.431-.225c-.094-.065-.182-.13-.276-.208-1.882-1.607-2.4-6.075-.831-7.7a2.514,2.514,0,0,1,2.328-.671,2.386,2.386,0,0,1,1.177.669,4.109,4.109,0,0,1,.854,1.376c.11.291.154.5.166.522l-1.029,6.194-.036.017a1.121,1.121,0,0,0,0,.129,16.193,16.193,0,0,0,3.565,10.446,15.884,15.884,0,0,0,5.348,4.078,21.724,21.724,0,0,0,4.9,1.667c.622.14,1.214.243,1.767.318a2.545,2.545,0,0,0,2.857-2.081,15.624,15.624,0,0,0-.284-6.817,14.5,14.5,0,0,0-.942-2.528l-.01-.029c-.123,0-.26.005-.4.017-.006-.008-.013-.008-.013,0a13.949,13.949,0,0,0-1.526.129c-3.316.438-4.519,1.636-6.745,1.4a7.386,7.386,0,0,1-3.016-1.155,12.583,12.583,0,0,1-1.415-.914c-.145-.1-.283-.209-.414-.312a14.461,14.461,0,0,1-1.677-1.556,23.161,23.161,0,0,1,1.51-12.416c.246-.565.511-1.1.793-1.613,1.895-1.121,5.976-1.031,7.755-.933,3.307,1.705,4.116,3.109,6.113,2.789a4.8,4.8,0,0,0,2.016-.869,11.123,11.123,0,0,0,3.194-4.2,9.378,9.378,0,0,0,.729-2.846,9.978,9.978,0,0,0-2.082-.315,9.38,9.38,0,0,0-1.919.118,10.061,10.061,0,0,0-.038-3c-.145-.948-.7-4.475-3.053-5.365a3.459,3.459,0,0,0-1.593-.179,13.414,13.414,0,0,0-6.341,2.644c-.287.2-.548.4-.794.591a17.165,17.165,0,0,0-6.619-.525c-1.545.187-8.345,1.215-11.376,6.639C5295.191,824.935,5295.352,827.683,5295.557,830.646Z" fill="#1c2d3d"/>
          <path id="Trazado_536" data-name="Trazado 536" d="M5324.992,830.918l-2.645.066-1.85,1.21.4.54,3.957-.3Z" fill="#1c2d3d"/>
          <path id="Trazado_537" data-name="Trazado 537" d="M5321.872,835.143c-.083.742.254,1.388.752,1.444s.972-.5,1.055-1.242-.254-1.388-.753-1.444S5321.955,834.4,5321.872,835.143Z" fill="#272626"/>
          <path id="Trazado_538" data-name="Trazado 538" d="M5311.516,826.967c-.014.125-2.078,9.04-2.078,9.04l2,9.881-2.435-1.8-1.71-2.957.867-11.516,1.2-2.716Z" fill="#1c2d3d"/>
          <path id="Trazado_539" data-name="Trazado 539" d="M5330.149,822.039c-.047.233-.12.558-.233.938a10.711,10.711,0,0,1-2.985,4.869,10.643,10.643,0,0,0,1.139-1.815,9.213,9.213,0,0,0,.832-4.132Z" fill="#53616e"/>
          <path id="Trazado_540" data-name="Trazado 540" d="M5326.165,821.145a21.3,21.3,0,0,0-.283-3.159c-.379-1.8-.668-3.082-1.77-3.942a3.773,3.773,0,0,0-1.351-.662h0a9.376,9.376,0,0,0-2.81.62h0a4.008,4.008,0,0,1,1.659.186C5325.009,815.355,5326.165,821.145,5326.165,821.145Z" fill="#53616e"/>
          <path id="Trazado_541" data-name="Trazado 541" d="M5310.692,826.916l-1.856,9.151-.4-9.361Z" fill="#53616e"/>
          <g id="Grupo_142" data-name="Grupo 142">
            <path id="Trazado_542" data-name="Trazado 542" d="M5303.856,838.391c.094.078.182.143.276.208a2.817,2.817,0,0,0,.431.225c.013.008.033.011.045.019a2.753,2.753,0,0,0,1.807-.022l.07-.019.036-.017,1.029-6.194c-.012-.022-.056-.231-.166-.522a4.109,4.109,0,0,0-.854-1.376,2.386,2.386,0,0,0-1.177-.669,2.514,2.514,0,0,0-2.328.671C5301.461,832.316,5301.974,836.784,5303.856,838.391Zm-.548-4.819c.128-.782.764-1.834,1.449-1.75.517.064.984.75,1.092,1.667,0,0-1-.119-1.177.12-.5.7.787,3.356.787,3.356C5303.985,836.091,5303.112,834.768,5303.308,833.572Z" fill="#ff9b6b"/>
          </g>
          <path id="Trazado_543" data-name="Trazado 543" d="M5303.308,833.572c-.2,1.2.677,2.519,2.151,3.393,0,0-1.288-2.657-.787-3.356.176-.239,1.177-.12,1.177-.12-.108-.917-.575-1.6-1.092-1.667C5304.072,831.738,5303.436,832.79,5303.308,833.572Z" fill="#e55345"/>
        </g>
        <path id="Trazado_544" data-name="Trazado 544" d="M5311.481,844.659a5.921,5.921,0,0,0,3.353.169c1.726-.46,2.238-1.589,3.636-2.17,1.083-.451,2.8-.617,5.552.761l-.338,1.381-7.384,2.79Z" fill="#1c2d3d"/>
        <path id="Trazado_545" data-name="Trazado 545" d="M5323.194,843.574c-.093,1.819-.742,3.242-1.521,3.242s-1.432-1.423-1.526-3.242Z" fill="#fff"/>
      </g>
      <path id="Trazado_546" data-name="Trazado 546" d="M5390.174,1020.127c-6.439.02-15.692.047-21.178.034l.243-8.164.068-2.388,7.826,3.463,1.136,2.029,8.05,2.279a7.7,7.7,0,0,1,3.564,2.206A1.238,1.238,0,0,1,5390.174,1020.127Z" fill="#dd474d"/>
      <path id="Trazado_547" data-name="Trazado 547" d="M5296.581,934.385l-3.869-67.065a18.392,18.392,0,0,1,5.451-14.074l.949-.949,18.8,8.93,13.38,26.447,1.446,49.229a65.14,65.14,0,0,1-11.933,2.977,67,67,0,0,1-25.071-1.03Z" fill="#dd474d"/>
      <path id="Trazado_548" data-name="Trazado 548" d="M5380.709,1013.449l-15.259.765-5.986-28.443-3.994-20.655a3.184,3.184,0,0,0-3.159-2.58l-14.8.143-18.756-.278-10.6-.155a10.128,10.128,0,0,1-5.378-1.961,14.829,14.829,0,0,1-6.256-10.972l-.677-7.684-.405-4.464q1.562.518,3.212.954a54.35,54.35,0,0,0,8.218,1.495q2.142.223,4.215.284a61.533,61.533,0,0,0,12.5-.947,70.88,70.88,0,0,0,8.827-2.178c.149-.048.305-.1.467-.149-.027-.061-.047-.128-.074-.2s-.055-.162-.082-.25l36.17,7.83a7.024,7.024,0,0,1,4.427,3.075l1.7,2.646a7.029,7.029,0,0,1,1.09,3.258Z" fill="#457492"/>
      <rect id="Rectángulo_65" data-name="Rectángulo 65" width="34.158" height="96.387" transform="translate(5398.935 913.656)" fill="#53616e"/>
      <path id="Trazado_549" data-name="Trazado 549" d="M5295,959.99l-12.626-82.746,5.411-2.706q.824,3.346,1.578,6.764a297.576,297.576,0,0,1,6.538,78.237" fill="#989fa9"/>
      <path id="Trazado_550" data-name="Trazado 550" d="M5329.005,864.331l3.092-2.695,12.151,10.23" fill="#fff"/>
      <rect id="Rectángulo_66" data-name="Rectángulo 66" width="6.088" height="34.948" transform="translate(5314.159 966.303)" fill="#989fa9"/>
      <rect id="Rectángulo_67" data-name="Rectángulo 67" width="8.793" height="11.274" transform="translate(5312.807 966.303)" fill="#5e6771"/>
      <path id="Trazado_551" data-name="Trazado 551" d="M5284.669,881.077c1.377-1.2,8.562-7.681,8.508-17.578,0-.688-.229-12.864-8.01-16.152a10.879,10.879,0,0,0-5.459-.713Z" fill="#989fa9"/>
      <path id="Trazado_552" data-name="Trazado 552" d="M5388.95,1021.757l-18.432.412a1.516,1.516,0,0,1-1.536-1.623l.014-.385c5.486.013,14.739-.014,21.178-.034A1.3,1.3,0,0,1,5388.95,1021.757Z" fill="#59032c"/>
      <path id="Trazado_553" data-name="Trazado 553" d="M5377,903.766l-.026.172-.874,6.071c-11.35-.16-23.109-.729-35.246-1.776-2.5-.221-3.587-4.277-6.045-4.525l-.025-5.71c.819.03,1.728.059,2.715.077,5.881.137,10.21,0,10.968-.02C5352.252,897.963,5360.068,900.242,5377,903.766Z" fill="#ff9b6b"/>
      <path id="Trazado_554" data-name="Trazado 554" d="M5352.168,962.962s-22.436-1.619-29.915-1.619c-7.867,0-31.466,1.619-31.466,1.619-1.474,0-2.669,1.467-2.669,3.277h0c0,1.81,1.195,3.277,2.669,3.277h61.381c1.474,0,2.669-1.467,2.669-3.277h0C5354.837,964.429,5353.642,962.962,5352.168,962.962Z" fill="#53616e"/>
      <path id="Trazado_555" data-name="Trazado 555" d="M5292.459,965.437,5276.1,848.827a3.141,3.141,0,0,1,2.826-3.566h0a3.143,3.143,0,0,1,3.4,2.718L5297.9,965.813Z" fill="#53616e"/>
      <path id="Trazado_556" data-name="Trazado 556" d="M5315.512,997.417,5286,1014.31a6.324,6.324,0,0,0-3.183,5.488v1.519h3.608l28.634-16.234Z" fill="#989fa9"/>
      <circle id="Elipse_154" data-name="Elipse 154" cx="3.889" cy="3.889" r="3.889" transform="translate(5281.833 1016.667)" fill="#5e6771"/>
      <path id="Trazado_557" data-name="Trazado 557" d="M5319.486,997.417,5349,1014.31a6.322,6.322,0,0,1,3.183,5.488v1.519h-3.608l-28.634-16.234Z" fill="#989fa9"/>
      <path id="Trazado_558" data-name="Trazado 558" d="M5345.386,1020.556a3.889,3.889,0,1,0,3.89-3.889A3.889,3.889,0,0,0,5345.386,1020.556Z" fill="#5e6771"/>
      <path id="Trazado_559" data-name="Trazado 559" d="M5317.26,1024.135h0a3,3,0,0,1-2.988-2.988V1000.63a3,3,0,0,1,2.988-2.987h0a3,3,0,0,1,2.987,2.987v20.517A3,3,0,0,1,5317.26,1024.135Z" fill="#53616e"/>
      <path id="Trazado_560" data-name="Trazado 560" d="M5344.1,897.847l-.289.281-4.873,9.586-.422.419a197.9,197.9,0,0,1-17.9-14.856q-.72-.676-1.4-1.326c-9.986-9.539-12.846-14.509-14.186-17.113-.728-1.422-1.347-2.795-1.872-4.093a6.069,6.069,0,0,1,1.453-6.665l.038-.036a11.292,11.292,0,0,1,15.739.127q.439.415.886.875c.36.369.7.741,1.012,1.1a30.947,30.947,0,0,1,3.938,5.627C5328.5,875.894,5332.229,881.575,5344.1,897.847Z" fill="#fdf6b1"/>
      <g id="Grupo_145" data-name="Grupo 145">
        <path id="Trazado_561" data-name="Trazado 561" d="M5338.061,906.291a.251.251,0,0,1-.156-.055,212.306,212.306,0,0,1-16.052-14.052c-2.094-2.039-3.391-3.4-5.747-5.874a78.508,78.508,0,0,1-7.908-9.263c-.21-.3-1.043-1.853-3.034-5.609a4.373,4.373,0,0,1,.757-6.2,11.211,11.211,0,0,1,3.854-2.7.251.251,0,0,1,.334.134.255.255,0,0,1-.129.334,10.663,10.663,0,0,0-3.685,2.579,3.893,3.893,0,0,0-.686,5.623c1.729,3.257,2.8,5.268,3,5.551a78.849,78.849,0,0,0,7.864,9.205c2.352,2.47,3.649,3.831,5.738,5.86a211.72,211.72,0,0,0,16.008,14.021.255.255,0,0,1,.045.356A.262.262,0,0,1,5338.061,906.291Z" fill="#1c2d3d"/>
      </g>
      <path id="Trazado_562" data-name="Trazado 562" d="M5376.969,903.938l8.311-2.17a6.248,6.248,0,0,1,4.254.4l7.629,3.617a2,2,0,0,1,.886.822h0a2.011,2.011,0,0,1-.752,2.745l-1.537.876-19.665-.219-6.905-2.573Z" fill="#ff9b6b"/>
      <rect id="Rectángulo_68" data-name="Rectángulo 68" width="113.635" height="2.705" transform="translate(5359.027 909.598)" fill="#53616e"/>
      <rect id="Rectángulo_69" data-name="Rectángulo 69" width="72.036" height="2.199" transform="translate(5379.996 912.135)" fill="#1c2d3d"/>
      <path id="Trazado_563" data-name="Trazado 563" d="M5433.091,936.109v86.19h-34.158V968.515c2.631-1.6,5.363-3.186,8.15-5.032v14.068h17.249v-30.8c.669-.947,1.332-1.948,2-2.989A45.551,45.551,0,0,1,5433.091,936.109Z" fill="#989fa9"/>
      <path id="Trazado_564" data-name="Trazado 564" d="M5409.408,907.226h29.611l14.674-33.477,1.834.922-14.609,35.012h-32.034Z" fill="#1c2d3d"/>
      <g id="Grupo_146" data-name="Grupo 146">
        <path id="Trazado_565" data-name="Trazado 565" d="M5314.413,952.719l-2.878-3.257.383-.2,10.261-5.3.312.6-9.877,5.1,2.308,2.606Z" fill="#fff"/>
      </g>
      <path id="Trazado_566" data-name="Trazado 566" d="M5424.332,946.748v30.8h-17.249V963.483A61.948,61.948,0,0,0,5424.332,946.748Z" fill="#455a6e"/>
      <path id="Trazado_567" data-name="Trazado 567" d="M5424.332,919.72v27.028a61.948,61.948,0,0,1-17.249,16.735V919.888C5407.638,919.875,5424.332,919.72,5424.332,919.72Z" fill="#1c2d3d"/>
      <g id="Grupo_147" data-name="Grupo 147">
        <path id="Trazado_568" data-name="Trazado 568" d="M5267.624,957.293h0a.57.57,0,0,1-.566-.575l.036-4.562a.573.573,0,0,1,.57-.566h0a.569.569,0,0,1,.566.575l-.036,4.562A.571.571,0,0,1,5267.624,957.293Zm.075-9.125h0a.569.569,0,0,1-.566-.574l.036-4.563a.57.57,0,0,1,.57-.565h.005a.567.567,0,0,1,.565.574l-.035,4.562A.572.572,0,0,1,5267.7,948.168Zm.072-9.124h0a.569.569,0,0,1-.566-.575l.041-4.562a.571.571,0,0,1,.57-.566h0a.568.568,0,0,1,.566.575l-.04,4.562A.571.571,0,0,1,5267.771,939.044Zm.075-9.124h0a.57.57,0,0,1-.566-.575l.04-4.562a.573.573,0,0,1,.571-.566h0a.569.569,0,0,1,.566.575l-.04,4.562A.573.573,0,0,1,5267.846,929.92Zm.076-9.125h0a.567.567,0,0,1-.566-.574l.04-4.563a.57.57,0,0,1,.57-.565h0a.569.569,0,0,1,.566.574l-.041,4.562A.571.571,0,0,1,5267.922,920.795Zm.076-9.124h0a.567.567,0,0,1-.565-.575l.035-4.562a.573.573,0,0,1,.571-.566h0a.569.569,0,0,1,.566.575l-.036,4.562A.571.571,0,0,1,5268,911.671Zm.076-9.122h-.005a.569.569,0,0,1-.566-.575l.036-4.562a.572.572,0,0,1,.57-.566h0a.569.569,0,0,1,.566.575l-.036,4.562A.572.572,0,0,1,5268.074,902.549Zm.075-9.124h0a.57.57,0,0,1-.566-.575l.036-4.562a.571.571,0,0,1,.57-.566h0a.567.567,0,0,1,.565.575l-.035,4.562A.573.573,0,0,1,5268.149,893.425Zm.076-9.125h0a.568.568,0,0,1-.566-.575l.036-4.562a.572.572,0,0,1,.57-.566h0a.569.569,0,0,1,.566.575l-.036,4.562A.571.571,0,0,1,5268.225,884.3Zm.076-9.124h0a.568.568,0,0,1-.565-.575l.035-4.562a.573.573,0,0,1,.571-.566h0a.569.569,0,0,1,.566.575l-.036,4.562A.572.572,0,0,1,5268.3,875.176Z" fill="#91d85d"/>
      </g>
      <path id="Trazado_569" data-name="Trazado 569" d="M5270.919,859.482a3.258,3.258,0,1,1-4.608-.038A3.258,3.258,0,0,1,5270.919,859.482Z" fill="#91d85d"/>
      <g id="Grupo_148" data-name="Grupo 148">
        <path id="Trazado_570" data-name="Trazado 570" d="M5312.7,943.354a50.308,50.308,0,0,1-14.1-2.011l.187-.651a49.327,49.327,0,0,0,8.4,1.68,51.781,51.781,0,0,0,25.426-3.7l.259.628A53.493,53.493,0,0,1,5312.7,943.354Z" fill="#fff"/>
      </g>
      <g id="Grupo_149" data-name="Grupo 149">
        <path id="Trazado_571" data-name="Trazado 571" d="M5311.5,938.173a43.032,43.032,0,0,1-12.2-1.76.252.252,0,0,1-.182-.234l-2.705-71.923a.255.255,0,0,1,.245-.263h.009a.255.255,0,0,1,.254.245l2.7,71.741a42.939,42.939,0,0,0,6.1,1.294,44.182,44.182,0,0,0,18.833-1.57.262.262,0,0,1,.316.169.253.253,0,0,1-.174.316A45.625,45.625,0,0,1,5311.5,938.173Z" fill="#1c2d3d"/>
      </g>
      <path id="Trazado_572" data-name="Trazado 572" d="M5300.782,849.874h-.62l-.789,2.875,14.937,6.933-.4-3.1Z" fill="#fdf6b1"/>
    </g>
    <g id="Grupo_161" data-name="Grupo 161">
      <path id="Trazado_573" data-name="Trazado 573" d="M5837.028,826.357c-2.271,4.122-6.437,13.479-13.917,32.18l-.4-.095-9.375-2.223-.582-.134a196.956,196.956,0,0,1,3.078-23.054c2.9-14.956,5.776-20.367,7.343-23.006a50.237,50.237,0,0,1,4.455-6.324,12.007,12.007,0,0,1,4.482.267c4.894,1.246,7.608,5.39,8.86,7.967a30.664,30.664,0,0,1-3.948,14.422Z" fill="#fdf6b1"/>
      <path id="Trazado_574" data-name="Trazado 574" d="M5813.131,899.959l-.17-.041L5807,898.495q1.786-16.932,4.974-34.938c.448-2.472.9-4.912,1.371-7.338l9.375,2.223c-.1.814-.218,1.716-.325,2.7-.671,5.844-.93,10.168-.977,10.924C5821.159,875.846,5818.179,883.422,5813.131,899.959Z" fill="#e55345"/>
      <path id="Trazado_575" data-name="Trazado 575" d="M5815.331,906.019l-.3.15a.973.973,0,0,1-1.294-.4l-1.029-1.874-.394,2.834a5.477,5.477,0,0,1-.266,1.065l-1.327,3.567a2.077,2.077,0,0,1-1.695,1.335l-.353.049a2.092,2.092,0,0,1-1.818-.686l-.9-1.022a4.553,4.553,0,0,1-1.139-3.005l.013-3.428a6.524,6.524,0,0,1,.608-2.746l1.564-3.359,5.966,1.423,1.061,2.03Z" fill="#e55345"/>
      <path id="Trazado_576" data-name="Trazado 576" d="M5824.88,1024.4l-17.861-4.57a1.515,1.515,0,0,1-1.041-1.977l.117-.368c5.278,1.491,14.2,3.959,20.4,5.675A1.3,1.3,0,0,1,5824.88,1024.4Z" fill="#1c2d3d"/>
      <path id="Trazado_577" data-name="Trazado 577" d="M5826.5,1023.161c-6.206-1.716-15.125-4.184-20.4-5.675l2.434-7.8.709-2.281,6.6,5.444.548,2.26,7.137,4.365a7.694,7.694,0,0,1,2.838,3.084A1.258,1.258,0,0,1,5826.5,1023.161Z" fill="#1c2d3d"/>
      <path id="Trazado_578" data-name="Trazado 578" d="M5874.764,1016.429l-18.432.413a1.516,1.516,0,0,1-1.535-1.624l.013-.385c5.486.014,14.739-.014,21.178-.034A1.3,1.3,0,0,1,5874.764,1016.429Z" fill="#1c2d3d"/>
      <path id="Trazado_579" data-name="Trazado 579" d="M5875.988,1014.8c-6.439.02-15.692.048-21.178.034l.244-8.164.067-2.388,7.826,3.463,1.137,2.03,8.049,2.279a7.71,7.71,0,0,1,3.565,2.205A1.256,1.256,0,0,1,5875.988,1014.8Z" fill="#1c2d3d"/>
      <path id="Trazado_580" data-name="Trazado 580" d="M5864.081,1003.8l-.223,4.505-16.011-1.353-4.227-42.769-1.184-12.019-3.49-13.278q2.354-17.217,4.951-34.618.518-3.469,1.049-6.926,1.451-3.217,2.847-6.656c.906-2.239,2.462-7,3.578-10.369.21.48.453,1.021.7,1.616,3.227,7.623,5.4,16.065,7.008,34.26.332,3.842.65,8.123.94,12.919.372,6.095.507,9.47.507,9.47C5861.091,952.407,5862.1,973.342,5864.081,1003.8Z" fill="#457492"/>
      <path id="Trazado_581" data-name="Trazado 581" d="M5852.247,877.707c-.23.656-.528,1.569-.873,2.61-1.116,3.369-2.672,8.131-3.578,10.37q-1.4,3.439-2.848,6.656-.527,3.459-1.048,6.926-2.588,17.4-4.951,34.618-.6,4.27-1.171,8.536a6.258,6.258,0,0,1-.716,2.185l-2.6,4.8-16.5,60.477-.622-.094-8.246-2.428-6.209-1.827,11.885-71.4-.352-8.333-1.38-37.587a22.438,22.438,0,0,1,2.929-11.912l3.233-5.668c.054-.075.1-.149.149-.216,3.571,1,7.437-1.044,11.353-.144C5837.9,876.92,5845.868,876.787,5852.247,877.707Z" fill="#457492"/>
      <path id="Trazado_582" data-name="Trazado 582" d="M5859.082,916.193c-8.333,25.189-11.756,36.1-11.756,36.1-1.535,4.9-2.726,8.8-3.706,11.89l-1.184-12.019-3.49-13.278q2.354-17.217,4.951-34.618.518-3.469,1.049-6.926,1.451-3.217,2.847-6.656c.906-2.239,2.462-7,3.578-10.369.21.48.453,1.021.7,1.616C5855.3,889.556,5857.472,898,5859.082,916.193Z" fill="#314f67"/>
      <g id="Grupo_151" data-name="Grupo 151">
        <path id="Trazado_583" data-name="Trazado 583" d="M5832.477,900.263l-3.462-2.475,10.622-11.782.5.454-10.114,11.216,2.847,2.034Z" fill="#fff"/>
      </g>
      <g id="Grupo_152" data-name="Grupo 152">
        <path id="Trazado_584" data-name="Trazado 584" d="M5848.115,883.866a170.782,170.782,0,0,1-17.4-1.13c-4.121-.481-8.3-1.127-12.425-1.92l.124-.664c4.108.791,8.274,1.433,12.381,1.912a169.027,169.027,0,0,0,17.327,1.125Z" fill="#fff"/>
      </g>
      <g id="Grupo_153" data-name="Grupo 153">
        <path id="Trazado_585" data-name="Trazado 585" d="M5846.217,883.474l-.677-.031.125-2.622.677.031Z" fill="#fff"/>
      </g>
      <g id="Grupo_154" data-name="Grupo 154">
        <rect id="Rectángulo_70" data-name="Rectángulo 70" width="2.371" height="0.678" transform="translate(5832.674 882.498) rotate(-87.363)" fill="#fff"/>
      </g>
      <g id="Grupo_157" data-name="Grupo 157">
        <path id="Trazado_586" data-name="Trazado 586" d="M5842.18,791.278l-.568,12.967h-12.175V786.09l.473-5.094.318-3.47,9.132,2.476Z" fill="#ff9b6b"/>
        <path id="Trazado_587" data-name="Trazado 587" d="M5836.823,783.952a11.39,11.39,0,0,1-2.145,2.983,16.718,16.718,0,0,1-5.242,3.4V786.09l.474-5.094,6.858-1.1Z" fill="#e55345"/>
        <g id="Grupo_156" data-name="Grupo 156">
          <path id="Trazado_588" data-name="Trazado 588" d="M5837.034,784.462a14.444,14.444,0,0,0,1.676,1.556,4.82,4.82,0,0,0,.415.312,12.5,12.5,0,0,0,1.415.915,7.377,7.377,0,0,0,3.015,1.155,4.792,4.792,0,0,0,1.213-.014c1.567-.191,2.866-1.033,5.533-1.387a13.928,13.928,0,0,1,1.525-.128c0-.007.007-.006.013,0,.138-.011.275-.016.4-.016l.02,0,.214-.69.061.006,2.893.236a.749.749,0,0,0,.813-.814,28.8,28.8,0,0,0-.5-3.227,28.231,28.231,0,0,0-.87-3.222,31.591,31.591,0,0,0,.441-5.566c0-.749-.039-1.474-.091-2.161a4.783,4.783,0,0,1-2.017.869c-2,.321-2.805-1.083-6.112-2.788-1.779-.1-5.86-.188-7.755.933-.283.513-.547,1.048-.794,1.612A23.152,23.152,0,0,0,5837.034,784.462Z" fill="#ff9b6b"/>
          <path id="Trazado_589" data-name="Trazado 589" d="M5824.111,773.517a32.08,32.08,0,0,0,2.141,9.374,2.569,2.569,0,0,1-.447.944c-.855,1.136-2.34,1.085-2.419,1.852-.087.889,1.767,1.839,3.072,2.223a7.167,7.167,0,0,0,2.845.238.107.107,0,0,0,.049-.008c.056-.075.107-.165.163-.241a10.158,10.158,0,0,0,2.541-2.995,8.978,8.978,0,0,0,.6-1.321,8.565,8.565,0,0,0,.272-.909,7.651,7.651,0,0,0,.192-.979,2.762,2.762,0,0,1-.431-.226,3.14,3.14,0,0,1-.276-.208c-1.882-1.606-2.4-6.074-.831-7.7a2.518,2.518,0,0,1,2.328-.671,2.4,2.4,0,0,1,1.177.67,4.07,4.07,0,0,1,.853,1.376c.11.291.155.5.166.522l-1.029,6.194-.035.016a.818.818,0,0,0,0,.13,16.179,16.179,0,0,0,3.565,10.446,15.9,15.9,0,0,0,5.348,4.078,21.626,21.626,0,0,0,4.9,1.666c.621.141,1.213.244,1.767.318a2.546,2.546,0,0,0,2.857-2.08,15.639,15.639,0,0,0-.285-6.817,14.583,14.583,0,0,0-.941-2.529l-.011-.028c-.122,0-.259.005-.4.016-.006-.007-.012-.008-.013,0a13.928,13.928,0,0,0-1.525.128c-3.317.438-4.52,1.637-6.746,1.4a7.372,7.372,0,0,1-3.015-1.155,12.5,12.5,0,0,1-1.415-.915c-.146-.1-.283-.209-.415-.312a14.444,14.444,0,0,1-1.676-1.556,23.152,23.152,0,0,1,1.509-12.416c.247-.564.511-1.1.793-1.612,1.9-1.121,5.977-1.031,7.756-.933,3.307,1.705,4.116,3.109,6.112,2.788a4.783,4.783,0,0,0,2.017-.869,11.119,11.119,0,0,0,3.194-4.2,9.389,9.389,0,0,0,.728-2.845,9.966,9.966,0,0,0-2.082-.315,9.378,9.378,0,0,0-1.919.118,10.067,10.067,0,0,0-.037-3c-.145-.949-.7-4.476-3.053-5.366a3.458,3.458,0,0,0-1.593-.178,13.411,13.411,0,0,0-6.341,2.643c-.288.2-.549.4-.795.592a17.159,17.159,0,0,0-6.618-.525c-1.546.187-8.345,1.214-11.377,6.639C5823.745,767.806,5823.907,770.554,5824.111,773.517Z" fill="#1c2d3d"/>
          <path id="Trazado_590" data-name="Trazado 590" d="M5853.546,773.789l-2.645.066-1.851,1.21.4.54,3.957-.3Z" fill="#1c2d3d"/>
          <path id="Trazado_591" data-name="Trazado 591" d="M5850.427,778.014c-.084.741.253,1.388.752,1.444s.971-.5,1.054-1.242-.254-1.388-.753-1.444S5850.51,777.272,5850.427,778.014Z" fill="#272626"/>
          <path id="Trazado_592" data-name="Trazado 592" d="M5840.07,769.837c-.014.126-2.078,9.041-2.078,9.041l2,9.88-2.435-1.8-1.71-2.957.867-11.516,1.2-2.716Z" fill="#1c2d3d"/>
          <path id="Trazado_593" data-name="Trazado 593" d="M5858.7,764.909c-.046.234-.119.559-.232.938a10.692,10.692,0,0,1-2.986,4.869,10.474,10.474,0,0,0,1.14-1.814,9.217,9.217,0,0,0,.832-4.133Z" fill="#53616e"/>
          <path id="Trazado_594" data-name="Trazado 594" d="M5854.72,764.016a21.36,21.36,0,0,0-.284-3.159c-.379-1.8-.668-3.083-1.769-3.942a3.779,3.779,0,0,0-1.351-.662h0a9.383,9.383,0,0,0-2.81.62h0a4.01,4.01,0,0,1,1.659.186C5853.564,758.226,5854.72,764.016,5854.72,764.016Z" fill="#53616e"/>
          <path id="Trazado_595" data-name="Trazado 595" d="M5839.247,769.787l-1.856,9.151-.4-9.361Z" fill="#53616e"/>
          <g id="Grupo_155" data-name="Grupo 155">
            <path id="Trazado_596" data-name="Trazado 596" d="M5832.411,781.261a3.14,3.14,0,0,0,.276.208,2.762,2.762,0,0,0,.431.226c.012.008.032.01.045.019a2.75,2.75,0,0,0,1.806-.022l.071-.02.035-.016,1.029-6.194c-.011-.022-.056-.231-.166-.522a4.07,4.07,0,0,0-.853-1.376,2.4,2.4,0,0,0-1.177-.67,2.518,2.518,0,0,0-2.328.671C5830.016,775.187,5830.529,779.655,5832.411,781.261Zm-.548-4.819c.128-.782.763-1.833,1.449-1.75.516.065.984.75,1.092,1.668,0,0-1-.119-1.177.12-.5.7.787,3.355.787,3.355C5832.54,778.962,5831.667,777.639,5831.863,776.442Z" fill="#ff9b6b"/>
          </g>
          <path id="Trazado_597" data-name="Trazado 597" d="M5831.863,776.442c-.2,1.2.677,2.52,2.151,3.393,0,0-1.288-2.656-.787-3.355.176-.239,1.177-.12,1.177-.12-.108-.918-.576-1.6-1.092-1.668C5832.626,774.609,5831.991,775.66,5831.863,776.442Z" fill="#e55345"/>
        </g>
        <path id="Trazado_598" data-name="Trazado 598" d="M5840.035,787.529a5.913,5.913,0,0,0,3.354.17c1.725-.46,2.238-1.589,3.636-2.171,1.082-.45,2.8-.616,5.552.761l-.338,1.381-7.384,2.791Z" fill="#1c2d3d"/>
        <path id="Trazado_599" data-name="Trazado 599" d="M5851.749,786.444c-.093,1.82-.743,3.242-1.522,3.242s-1.432-1.422-1.525-3.242Z" fill="#fff"/>
      </g>
      <path id="Trazado_600" data-name="Trazado 600" d="M5845.6,808.106a34.438,34.438,0,0,1-16.255-4.674c-.723-.43-1.407-.874-2.054-1.342l1.692-2.822,13.35,4.667Z" fill="#fdf6b1"/>
      <path id="Trazado_601" data-name="Trazado 601" d="M5855.531,878.761q-3.245.031-6.6-.027c-6.6-.128-12.935-.561-18.978-1.231q-4.49-.486-8.752-1.15c-1-.148-1.976-.3-2.956-.466,2.767-14.008,1.9-23.5.232-29.945-1.612-6.229-1.983-10.436-2.724-18.858-.45-5.14-.566-9.158,1.271-13.69a30.87,30.87,0,0,1,4.721-7.7,36.433,36.433,0,0,1,2.985-3.267l2.644-1.691c.247.2.494.392.756.581.617.481,1.278.941,1.982,1.4a42.025,42.025,0,0,0,16.582,5.952h.022a2.587,2.587,0,0,1,2.171,1.9c.756,3.233,1.562,7.115,2.288,11.505,1.1,6.69,1.911,12.5,2.709,18.371.451,3.328.632,6.947,1.1,10.66A142.159,142.159,0,0,1,5855.531,878.761Z" fill="#dd474d"/>
      <g id="Grupo_158" data-name="Grupo 158">
        <path id="Trazado_602" data-name="Trazado 602" d="M5854.2,877.058h-.017L5842.6,876.3a.254.254,0,0,1,.018-.508h.018l11.311.744c.018-2.332.081-19.239-.931-27.941-.539-4.622-4.188-27.992-4.223-28.226l-1.3-5.172-1.8.225a.212.212,0,0,1-.205-.065.251.251,0,0,1-.08-.2l.116-2.651c-1.805-.715-7.231-2.889-11.851-5.014a36.244,36.244,0,0,1-5.659-3.148c-.659-.454-1.189-.851-1.577-1.149a.254.254,0,0,1,.312-.4c.383.291.9.686,1.551,1.131a35.436,35.436,0,0,0,5.586,3.108c4.759,2.187,10.386,4.433,11.994,5.068a.251.251,0,0,1,.16.247l-.111,2.53,1.729-.216a.241.241,0,0,1,.276.19l1.354,5.413c.045.258,3.694,23.639,4.237,28.271,1.083,9.342.931,28.085.931,28.272a.254.254,0,0,1-.254.252Z" fill="#1c2d3d"/>
      </g>
      <g id="Grupo_159" data-name="Grupo 159">
        <path id="Trazado_603" data-name="Trazado 603" d="M5801.651,882.351a.57.57,0,0,1-.57-.57v-4.562a.57.57,0,1,1,1.14,0v4.562A.569.569,0,0,1,5801.651,882.351Zm0-9.124a.57.57,0,0,1-.57-.571v-4.562a.57.57,0,0,1,1.14,0v4.562A.57.57,0,0,1,5801.651,873.227Zm0-9.125a.57.57,0,0,1-.57-.57V858.97a.57.57,0,0,1,1.14,0v4.562A.569.569,0,0,1,5801.651,864.1Zm0-9.124a.57.57,0,0,1-.57-.57v-4.562a.57.57,0,1,1,1.14,0v4.562A.569.569,0,0,1,5801.651,854.978Zm0-9.124a.57.57,0,0,1-.57-.571v-4.562a.57.57,0,0,1,1.14,0v4.562A.57.57,0,0,1,5801.651,845.854Zm0-9.125a.57.57,0,0,1-.57-.57V831.6a.57.57,0,0,1,1.14,0v4.562A.569.569,0,0,1,5801.651,836.729Zm0-9.124a.57.57,0,0,1-.57-.57v-4.562a.57.57,0,1,1,1.14,0v4.562A.569.569,0,0,1,5801.651,827.6Zm0-9.124a.57.57,0,0,1-.57-.571v-4.562a.57.57,0,0,1,1.14,0v4.562A.57.57,0,0,1,5801.651,818.481Zm0-9.125a.57.57,0,0,1-.57-.57v-4.562a.57.57,0,0,1,1.14,0v4.562A.569.569,0,0,1,5801.651,809.356Zm0-9.124a.57.57,0,0,1-.57-.57V795.1a.57.57,0,1,1,1.14,0v4.562A.569.569,0,0,1,5801.651,800.232Z" fill="#91d85d"/>
      </g>
      <path id="Trazado_604" data-name="Trazado 604" d="M5804.145,784.517a3.258,3.258,0,1,1-4.608,0A3.259,3.259,0,0,1,5804.145,784.517Z" fill="#91d85d"/>
      <path id="Trazado_605" data-name="Trazado 605" d="M5882.045,887.1l-.021.338a.974.974,0,0,1-.994.921l-2.139-.041,2.262,1.752a5.563,5.563,0,0,1,.791.761l2.432,2.929a2.073,2.073,0,0,1,.314,2.134l-.133.33a2.1,2.1,0,0,1-1.5,1.235l-1.336.274a4.55,4.55,0,0,1-3.173-.509l-2.966-1.718a6.531,6.531,0,0,1-2.079-1.9l-2.133-3.029,4.205-4.465,2.289.091Z" fill="#ff9b6b"/>
      <path id="Trazado_606" data-name="Trazado 606" d="M5875.694,885.986l-.12.127-4.205,4.465q-13.794-9.983-27.82-21.715c-1.921-1.619-3.187-4.492-5.056-6.108l5.973-5.757c.653.5,1.38,1.043,2.177,1.625,4.734,3.492,8.354,5.871,8.986,6.289C5858.783,867.015,5863.868,873.372,5875.694,885.986Z" fill="#ff9b6b"/>
      <path id="Trazado_607" data-name="Trazado 607" d="M5844.419,825.053c.118,4.705,1.239,14.886,4.21,34.807l-.39.118-9.216,2.808-.57.177a196.727,196.727,0,0,1-8.968-21.46c-5.034-14.379-5.282-20.5-5.26-23.569.012-1.535.095-2.984.222-4.332a6.2,6.2,0,0,1,4.39-5.391l.05-.015a13.355,13.355,0,0,1,9.866,1.342,6.24,6.24,0,0,1,2.736,2.895,30.557,30.557,0,0,1,2.93,12.62Z" fill="#fdf6b1"/>
      <g id="Grupo_160" data-name="Grupo 160">
        <path id="Trazado_608" data-name="Trazado 608" d="M5838.5,861.405a.256.256,0,0,1-.236-.161c-1.417-3.582-3.123-7.921-5.07-12.94-.263-.673-6.416-16.616-7.792-26.266a23.916,23.916,0,0,1,0-7.346,22.952,22.952,0,0,1,1.2-4.529.252.252,0,1,1,.472.178,22.66,22.66,0,0,0-1.171,4.431,23.664,23.664,0,0,0,0,7.2c1.372,9.592,7.507,25.482,7.765,26.154,1.911,4.923,3.591,9.194,4.99,12.736l7.993-1.729a.25.25,0,0,1,.3.194.257.257,0,0,1-.2.3l-8.2,1.775A.237.237,0,0,1,5838.5,861.405Z" fill="#1c2d3d"/>
      </g>
    </g>
  </g>
</svg>
