<svg xmlns="http://www.w3.org/2000/svg" width="125.645" height="125.645" viewBox="0 0 125.645 125.645">
  <g id="Grupo_3495" data-name="Grupo 3495" transform="translate(-770.826 -3918.331)">
    <circle id="Elipse_8" data-name="Elipse 8" cx="62.823" cy="62.823" r="62.823" transform="translate(770.826 3918.331)" fill="#93e0fe"/>
    <g id="Grupo_592" data-name="Grupo 592" transform="translate(-4751.478)">
      <circle id="Elipse_169" data-name="Elipse 169" cx="57.467" cy="57.467" r="57.467" transform="translate(5527.894 3924.299)" fill="#00181e"/>
      <path id="Trazado_1272" data-name="Trazado 1272" d="M5560.468,3971.662l-8.976-10.037-.055,4.973-9.434-6.367,11.38,11.56.686-3.918Z" fill="#fff"/>
      <path id="Trazado_1273" data-name="Trazado 1273" d="M5558.142,3991.077l-8.588,4.015,4.081,2.333-8.312,7.372,12.621-7.214-3.654-2.7Z" fill="#fff"/>
      <path id="Trazado_1274" data-name="Trazado 1274" d="M5557.482,3982.912l-7.646-6.366-.011,5.119s-9.559-3.228-9.207-3.173,11.513,7.27,11.513,7.27l.128-4.977Z" fill="#fff"/>
      <path id="Trazado_1275" data-name="Trazado 1275" d="M5624.955,3940.138a57.254,57.254,0,0,0-39.594-15.839c-1.255,0-2.495.054-3.729.133-4.465,13.038-16.546,49.076-17.146,58.976-.685,11.3,8.182,39.8,11.207,55a57.372,57.372,0,0,0,28.933-2.494c-.108-9.151-.507-21.5-1.829-26.35-2.21-8.1-7.183-19.34-3.315-28.365C5602.046,3975.214,5615.9,3953.86,5624.955,3940.138Z" fill="#fff"/>
      <path id="Trazado_1276" data-name="Trazado 1276" d="M5579.4,3984.738s-1.581,6.823-5.871,11.114C5573.529,3995.852,5579.852,3993.269,5579.4,3984.738Z" fill="#97b5c1"/>
    </g>
  </g>
</svg>
