<svg xmlns="http://www.w3.org/2000/svg" width="549.529" height="389.896" viewBox="0 0 549.529 389.896">
  <g id="Grupo_18985" data-name="Grupo 18985" transform="translate(-1635.191 -478.605)">
    <g id="Grupo_18953" data-name="Grupo 18953" transform="translate(1635.191 517.979)">
      <g id="Grupo_18936" data-name="Grupo 18936" transform="translate(0 28.419)">
        <path id="Trazado_45278" data-name="Trazado 45278" d="M1900.249,927.7a3.049,3.049,0,0,1-1.911-.671c-1.284-1.027-11.342-8.341-15.2-11.141-.353-.228-.8-.523-1.351-.884-5.942-3.906-24.024-15.793-61.607-34.812-5.057-2.559-11.029-5.149-16.8-7.653-10.63-4.609-20.669-8.962-26.2-13.449-8.632-7.007-26.148-36.447-33.744-52.875-10.033-21.7-22.978-44.15-49.529-61.374-13.35-8.66-24.9-16.96-34.178-23.629-9.765-7.018-17.477-12.561-22.9-15.411a3.062,3.062,0,1,1,2.85-5.419c5.8,3.049,13.661,8.7,23.619,15.858,9.227,6.631,20.709,14.884,33.937,23.464,27.855,18.069,41.336,41.41,51.754,63.941,7.214,15.6,24.44,44.517,32.046,50.69,4.875,3.957,14.991,8.344,24.774,12.586,5.857,2.54,11.914,5.166,17.133,7.807,37.892,19.176,56.192,31.206,62.206,35.159.566.372,1.022.672,1.372.9q.072.046.141.1c.564.409,13.835,10.032,15.5,11.367a3.062,3.062,0,0,1-1.915,5.453Z" transform="translate(-1635.19 -700.029)" fill="#fcd008"/>
      </g>
      <g id="Grupo_18952" data-name="Grupo 18952" transform="translate(6.369 0)">
        <g id="Grupo_18937" data-name="Grupo 18937" transform="translate(188.008 103.253)">
          <path id="Trazado_45279" data-name="Trazado 45279" d="M2270.427,949.535a.367.367,0,0,1-.144-.7c.942-.4,1.809-.787,2.646-1.162,6.225-2.783,10.338-4.622,24.75-1.835a.367.367,0,1,1-.14.72c-14.184-2.742-18-1.038-24.311,1.785-.841.376-1.711.765-2.659,1.168A.369.369,0,0,1,2270.427,949.535Z" transform="translate(-2270.06 -944.449)" fill="#374170"/>
        </g>
        <g id="Grupo_18938" data-name="Grupo 18938" transform="translate(87.899)">
          <path id="Trazado_45280" data-name="Trazado 45280" d="M2115.679,844.236a4.265,4.265,0,0,1-2.875-1.107l-.115-.1c-8.224-7.463-18.46-16.752-32.207-25.246-19.938-12.39-62.731-46.238-63.025-46.494-3.574-3.109-7.994-10.249-11.894-16.548-2.636-4.258-5.125-8.279-6.371-9.378a1.468,1.468,0,1,1,1.942-2.2c1.57,1.386,3.933,5.2,6.924,10.034,3.594,5.806,8.066,13.03,11.3,15.861,1.035.824,42.921,33.962,62.667,46.232,13.974,8.634,24.32,18.023,32.633,25.567l.116.1a1.347,1.347,0,0,0,1.894-.085,9.8,9.8,0,0,0,2.719-7.654c-.852-12.236-20.755-28.63-32.646-38.425a109.31,109.31,0,0,1-9.738-8.537c-7.986-8.924-16.882-19.448-22.318-29.844-5.862-11.212-6.9-20.721-3.18-29.07,2.118-4.751,10.341-17.813,20-15.595,6.934,1.593,12.356,3.923,16.578,7.122a71.353,71.353,0,0,1,7.215,6.475c4.523,4.467,8.094,7.994,14.949,8.662,6.621.646,10.292-1.281,10.912-5.725a3.025,3.025,0,0,0-1.222-2.815c-8.345-6.267-15.373-17-19.932-24.527-3.274-5.4-31.925-17.429-47.044-22.642a71.752,71.752,0,0,0-15.02-3.434c-18.739-2.192-30.879-3.985-43.791-12.854-11.944-8.2-24.731-22.16-50.711-52.375a1.468,1.468,0,1,1,2.226-1.914c25.8,30.012,38.475,43.852,50.147,51.87,11.741,8.065,21.958,9.959,42.469,12.358a74.677,74.677,0,0,1,15.636,3.575c8.558,2.951,44.1,16.477,48.6,23.9,6.949,11.473,13.224,19.226,19.185,23.7a5.962,5.962,0,0,1,2.366,5.568c-.367,2.629-2.243,8.369-11.57,8.37-.79,0-1.633-.041-2.534-.129-7.892-.769-12.184-5.007-16.727-9.5a69.018,69.018,0,0,0-6.926-6.224c-3.883-2.943-8.941-5.1-15.461-6.6-7.872-1.807-15.144,10.527-16.661,13.929-3.333,7.477-2.32,16.15,3.1,26.515,5.286,10.111,14.039,20.458,21.9,29.247a111.588,111.588,0,0,0,9.417,8.228c13.049,10.749,32.768,26.992,33.708,40.487a12.756,12.756,0,0,1-3.485,9.843A4.271,4.271,0,0,1,2115.679,844.236Z" transform="translate(-1943.085 -607.208)" fill="#374170"/>
        </g>
        <g id="Grupo_18939" data-name="Grupo 18939" transform="translate(192.252 133.669)">
          <path id="Trazado_45281" data-name="Trazado 45281" d="M2297.407,1066.076a.366.366,0,0,1-.292-.145,40.448,40.448,0,0,0-4.373-4.443c-.789-.725-1.413-1.3-1.686-1.625-3.02-3.6-6.95-15.094-7.115-15.581a.367.367,0,0,1,.694-.236c.04.118,4.051,11.849,6.983,15.346.243.29.881.877,1.621,1.556a40.932,40.932,0,0,1,4.46,4.539.367.367,0,0,1-.292.589Z" transform="translate(-2283.921 -1043.797)" fill="#374170"/>
        </g>
        <g id="Grupo_18940" data-name="Grupo 18940" transform="translate(135.799 154.282)">
          <path id="Trazado_45282" data-name="Trazado 45282" d="M2227.313,1208.352a5.134,5.134,0,0,1-3.187-1.106c-.645-.51-64.888-51.11-97.583-65.39a71.416,71.416,0,0,1-9.36-5.659c-5.434-3.868-8.915-9.475-12.6-15.411-1.5-2.422-3.058-4.926-4.777-7.349a1.468,1.468,0,0,1,2.395-1.7c1.771,2.5,3.35,5.039,4.877,7.5,3.526,5.679,6.855,11.042,11.809,14.568a70.568,70.568,0,0,0,8.832,5.361c33.038,14.43,97.58,65.265,98.228,65.776a2.138,2.138,0,0,0,2.893-.177c3.041-3.319,2.6-9.26-1.254-16.727a1.468,1.468,0,1,1,2.609-1.345c5.709,11.074,3.591,17.019.81,20.055A4.987,4.987,0,0,1,2227.313,1208.352Z" transform="translate(-2099.536 -1111.12)" fill="#374170"/>
        </g>
        <g id="Grupo_18941" data-name="Grupo 18941" transform="translate(0 29.035)">
          <path id="Trazado_45283" data-name="Trazado 45283" d="M1904.07,915.245a1.468,1.468,0,0,1-.794-.233c-.36-.232-.828-.539-1.409-.921-5.96-3.918-24.1-15.842-61.764-34.9-5.1-2.581-11.094-5.18-16.891-7.694-10.526-4.564-20.468-8.875-25.826-13.224-8.465-6.872-25.768-36.014-33.3-52.306-10.134-21.915-23.218-44.6-50.109-62.042-13.318-8.64-24.85-16.927-34.115-23.587-9.815-7.054-17.567-12.625-23.084-15.527a1.468,1.468,0,0,1,1.367-2.6c5.7,3,13.523,8.621,23.431,15.742,9.24,6.641,20.74,14.906,34,23.508,27.516,17.849,40.857,40.959,51.176,63.273,7.247,15.673,24.463,44.745,32.487,51.259,5.045,4.095,15.263,8.525,25.144,12.81,5.836,2.531,11.871,5.148,17.049,7.768,37.343,18.9,55.6,30.829,61.821,34.918a1.468,1.468,0,0,1,2.484.485,2.572,2.572,0,0,1-.8,3A1.465,1.465,0,0,1,1904.07,915.245Z" transform="translate(-1655.992 -702.041)" fill="#374170"/>
        </g>
        <g id="Grupo_18951" data-name="Grupo 18951" transform="translate(149 91.809)">
          <g id="Grupo_18942" data-name="Grupo 18942" transform="translate(11.512 58.616)">
            <path id="Trazado_45284" data-name="Trazado 45284" d="M2180.814,1110.773a.53.53,0,0,1-.333-.117c-.379-.283-.294-.865.305-2.079a.367.367,0,1,1,.657.325,5.5,5.5,0,0,0-.433,1.069c1.021-.485,4.439-3.87,7.109-7.285,1.816-2.323,2.111-3.168,2.155-3.421a1.721,1.721,0,0,0-.361.111.367.367,0,0,1-.277-.68c.236-.1.956-.389,1.275.111.163.255.544.852-2.4,4.566a56.273,56.273,0,0,1-5.2,5.7C2181.854,1110.432,2181.187,1110.773,2180.814,1110.773Z" transform="translate(-2180.253 -1098.525)" fill="#374170"/>
          </g>
          <g id="Grupo_18943" data-name="Grupo 18943" transform="translate(0 74.714)">
            <path id="Trazado_45285" data-name="Trazado 45285" d="M2143.021,1158.837a.326.326,0,0,1-.053,0,.366.366,0,0,1-.31-.415,10.9,10.9,0,0,1,4.791-7.264.367.367,0,0,1,.378.63,10.313,10.313,0,0,0-4.443,6.739A.367.367,0,0,1,2143.021,1158.837Z" transform="translate(-2142.654 -1151.102)" fill="#374170"/>
          </g>
          <g id="Grupo_18944" data-name="Grupo 18944" transform="translate(61.784 100.969)">
            <path id="Trazado_45286" data-name="Trazado 45286" d="M2344.827,1244.861a.367.367,0,0,1-.364-.323c-.224-1.828,2.362-7.182,5.724-7.677a.367.367,0,1,1,.107.726c-3.009.443-5.267,5.518-5.1,6.862a.367.367,0,0,1-.32.409Z" transform="translate(-2344.45 -1236.857)" fill="#374170"/>
          </g>
          <g id="Grupo_18945" data-name="Grupo 18945" transform="translate(54.786 111.258)">
            <path id="Trazado_45287" data-name="Trazado 45287" d="M2322.009,1275.763a.367.367,0,0,1-.359-.294,4.632,4.632,0,0,1,.919-3.359,3.642,3.642,0,0,1,2.25-1.643.367.367,0,1,1,.109.726,2.976,2.976,0,0,0-1.757,1.339,3.949,3.949,0,0,0-.8,2.792.367.367,0,0,1-.287.433A.357.357,0,0,1,2322.009,1275.763Z" transform="translate(-2321.595 -1270.462)" fill="#374170"/>
          </g>
          <g id="Grupo_18946" data-name="Grupo 18946" transform="translate(101.46 15.065)">
            <path id="Trazado_45288" data-name="Trazado 45288" d="M2485.3,970.368a.366.366,0,0,1-.178-.047c-.281-.157-6.914-3.876-10.03-6.781a2.76,2.76,0,0,1-1.05-2.214c.117-1.607,1.97-2.888,3.459-3.918a11,11,0,0,0,1.349-1.022.367.367,0,0,1,.522.517,11.23,11.23,0,0,1-1.453,1.108c-1.288.891-3.053,2.112-3.145,3.368A2.053,2.053,0,0,0,2475.6,963c3.051,2.844,9.819,6.639,9.887,6.676a.367.367,0,0,1-.179.687Z" transform="translate(-2474.04 -956.279)" fill="#374170"/>
          </g>
          <g id="Grupo_18947" data-name="Grupo 18947" transform="translate(97.85 129.291)">
            <path id="Trazado_45289" data-name="Trazado 45289" d="M2475.771,1338.849a.368.368,0,0,1-.305-.162c-3.258-4.838-6.327-7.718-9.122-8.559-.97-.257-2.4.97-3.4,2.919a.367.367,0,1,1-.654-.334c.993-1.937,2.691-3.707,4.254-3.291,2.973.895,6.176,3.873,9.531,8.855a.367.367,0,0,1-.3.572Z" transform="translate(-2462.249 -1329.361)" fill="#374170"/>
          </g>
          <g id="Grupo_18948" data-name="Grupo 18948" transform="translate(101.455 145.316)">
            <path id="Trazado_45290" data-name="Trazado 45290" d="M2488.378,1391.048a.367.367,0,0,1-.306-.164,28.884,28.884,0,0,0-7.012-7.031c-3.53-2.365-4.083-1.551-5.723.866-.2.295-.413.609-.646.938a.367.367,0,1,1-.6-.425c.23-.325.441-.635.638-.926,1.805-2.659,2.77-3.722,6.739-1.064a29.079,29.079,0,0,1,7.216,7.235.367.367,0,0,1-.306.57Z" transform="translate(-2474.023 -1381.703)" fill="#374170"/>
          </g>
          <g id="Grupo_18949" data-name="Grupo 18949" transform="translate(85.641 138.091)">
            <path id="Trazado_45291" data-name="Trazado 45291" d="M2422.74,1361.353a.367.367,0,0,1-.3-.579c.23-.326.441-.636.639-.927a14.774,14.774,0,0,1,1.2-1.624.367.367,0,0,1,.542.5,14.343,14.343,0,0,0-1.138,1.542c-.2.295-.414.609-.647.939A.367.367,0,0,1,2422.74,1361.353Z" transform="translate(-2422.373 -1358.103)" fill="#374170"/>
          </g>
          <g id="Grupo_18950" data-name="Grupo 18950" transform="translate(89.656)">
            <path id="Trazado_45292" data-name="Trazado 45292" d="M2435.853,914.14a.367.367,0,0,1-.357-.454,9.442,9.442,0,0,1,6.634-6.606.367.367,0,0,1,.137.721,8.64,8.64,0,0,0-6.058,6.059A.367.367,0,0,1,2435.853,914.14Z" transform="translate(-2435.485 -907.073)" fill="#374170"/>
          </g>
        </g>
      </g>
    </g>
    <g id="Grupo_18976" data-name="Grupo 18976" transform="translate(1780.385 517.979)">
      <g id="Grupo_18957" data-name="Grupo 18957" transform="translate(0 21.479)">
        <g id="Grupo_18954" data-name="Grupo 18954" transform="translate(47.532)">
          <path id="Trazado_45293" data-name="Trazado 45293" d="M2275.827,718.227l-11.157-16.078q.433-.3.868-.6l11.037,16.161Q2276.2,717.968,2275.827,718.227Zm5.3-3.469-10.286-16.649q.449-.278.9-.552l10.156,16.729Q2281.507,714.52,2281.123,714.758Zm5.472-3.182-9.384-17.174q.463-.253.927-.5l9.253,17.245Q2286.993,711.358,2286.6,711.576Zm5.632-2.886-8.453-17.65q.475-.227.95-.451l8.323,17.712Q2292.637,708.494,2292.228,708.69Zm5.782-2.585-7.509-18.072q.487-.2.973-.4l7.375,18.128Q2298.429,705.931,2298.01,706.1Zm5.91-2.274-6.542-18.445q.5-.176,1-.349l6.4,18.494Q2304.347,703.679,2303.92,703.831Zm6.021-1.958-5.556-18.765q.5-.149,1.006-.294l5.425,18.8Q2310.379,701.743,2309.941,701.873Zm6.121-1.639L2311.5,681.2q.511-.123,1.024-.241l4.421,19.064Q2316.5,700.128,2316.062,700.234Zm6.195-1.313-3.551-19.246q.515-.1,1.031-.186l3.416,19.27Q2322.7,698.838,2322.257,698.92Zm6.259-.987-2.538-19.405q.521-.068,1.042-.132l2.4,19.423Q2328.965,697.874,2328.515,697.933Zm6.3-.657-1.516-19.512q.521-.04,1.044-.077l1.38,19.522Q2335.27,697.241,2334.817,697.276Zm6.328-.326-.493-19.564q.527-.013,1.054-.023l.341,19.568Q2341.6,696.939,2341.145,696.951Z" transform="translate(-2264.67 -677.364)" fill="#fcd008"/>
        </g>
        <g id="Grupo_18955" data-name="Grupo 18955" transform="translate(129.947 195.289)">
          <path id="Trazado_45294" data-name="Trazado 45294" d="M2534.328,1398.987l-.476-19.565q.451-.011.9-.026l.628,19.56Q2534.855,1398.974,2534.328,1398.987Zm7.36-.375-1.516-19.512q.454-.035.908-.074l1.651,19.5C2542.383,1398.557,2542.035,1398.585,2541.688,1398.612Zm7.323-.76-2.537-19.405q.452-.059.9-.121l2.672,19.387Q2549.53,1397.785,2549.01,1397.853Zm7.272-1.143-3.55-19.246q.448-.083.895-.168l3.684,19.22Q2556.8,1396.615,2556.283,1396.71Zm7.2-1.523-4.546-19.035q.439-.105.876-.213l4.7,19Q2564,1395.065,2563.482,1395.188Zm7.118-1.9-5.547-18.768c.29-.085.578-.172.868-.26l5.689,18.725Q2571.106,1393.137,2570.6,1393.286Zm7-2.273-6.524-18.451q.425-.15.848-.3l6.673,18.4Q2578.1,1390.836,2577.6,1391.013Zm6.878-2.642-7.49-18.081q.415-.172.829-.347l7.639,18.018Q2584.973,1388.168,2584.483,1388.371Zm6.735-3.005-8.447-17.654q.408-.2.814-.393l8.583,17.588Q2591.693,1385.138,2591.218,1385.366Zm6.563-3.358-9.373-17.18c.264-.145.53-.291.793-.437l9.5,17.108Q2598.244,1381.756,2597.781,1382.008Zm6.377-3.7-10.275-16.656q.385-.239.771-.48l10.4,16.579Q2604.605,1378.028,2604.157,1378.3Zm6.171-4.037-11.147-16.085q.372-.258.743-.519l11.271,16Q2610.762,1373.966,2610.328,1374.267Zm5.948-4.361-11.988-15.469q.358-.277.715-.558l12.106,15.377Q2616.694,1369.583,2616.277,1369.906Zm5.705-4.667-12.786-14.816q.344-.3.686-.6l12.9,14.719Q2622.381,1364.895,2621.982,1365.24Zm5.449-4.958-13.548-14.123q.327-.313.651-.629l13.654,14.021Q2627.81,1359.918,2627.431,1360.282Zm5.174-5.229-14.263-13.4q.309-.328.616-.661l14.365,13.29C2633.085,1354.54,2632.845,1354.8,2632.6,1355.053Zm4.9-5.491-14.938-12.642q.292-.346.583-.694l15.031,12.533Q2637.84,1349.162,2637.5,1349.562Zm4.607-5.741-15.582-11.841q.274-.361.545-.722l15.669,11.725Q2642.426,1343.4,2642.108,1343.821Zm4.3-5.975-16.182-11.007c.169-.249.339-.5.506-.75L2647,1336.974Q2646.7,1337.41,2646.407,1337.846Zm3.981-6.2-16.742-10.133q.235-.388.467-.777l16.817,10.011Q2650.66,1331.2,2650.389,1331.648Zm3.647-6.4-17.255-9.234q.214-.4.424-.8l17.323,9.106Q2654.284,1324.785,2654.036,1325.248Z" transform="translate(-2533.852 -1315.214)" fill="#fcd008"/>
        </g>
        <g id="Grupo_18956" data-name="Grupo 18956" transform="translate(0 189.347)">
          <path id="Trazado_45295" data-name="Trazado 45295" d="M2156.75,1360.6q-.432-.3-.86-.6l11.311-15.971q.37.262.741.521Zm-5.929-4.369q-.415-.322-.827-.648l12.136-15.353q.356.281.713.559Zm-5.687-4.67q-.395-.342-.788-.688l12.913-14.705q.342.3.686.6Zm-5.435-4.956q-.38-.365-.757-.732l13.663-14.012q.324.316.652.631Zm-5.177-5.239q-.358-.382-.713-.767l14.37-13.286q.309.335.622.668Zm-4.9-5.5q-.342-.4-.679-.811l15.061-12.5c.191.231.385.461.579.691Zm-4.6-5.756q-.32-.422-.635-.846l15.7-11.685q.269.362.542.722Zm-4.292-6q-.3-.436-.586-.875l16.3-10.837q.25.378.5.753Zm-3.965-6.213q-.271-.451-.538-.9l16.846-9.961c.154.26.309.521.464.78Zm-3.627-6.413q-.248-.466-.492-.934L2130,1301.5q.209.4.42.8Zm-3.283-6.6q-.222-.476-.439-.953l17.806-8.119q.189.414.38.826Z" transform="translate(-2109.421 -1295.807)" fill="#fcd008"/>
        </g>
        <circle id="Elipse_1484" data-name="Elipse 1484" cx="11.804" cy="11.804" r="11.804" transform="matrix(0.75, -0.662, 0.662, 0.75, 82.407, 42.489)" fill="#45c2cb"/>
      </g>
      <g id="Grupo_18975" data-name="Grupo 18975" transform="translate(128.762)">
        <g id="Grupo_18958" data-name="Grupo 18958" transform="translate(7.45 28.419)">
          <path id="Trazado_45296" data-name="Trazado 45296" d="M2557.378,927.7a3.062,3.062,0,0,1-1.914-5.453c1.668-1.335,14.939-10.958,15.5-11.367.046-.033.094-.066.141-.1.35-.225.806-.525,1.372-.9,6.014-3.953,24.314-15.983,62.206-35.159,5.22-2.641,11.276-5.267,17.133-7.807,9.783-4.242,19.9-8.628,24.775-12.586,7.605-6.174,24.832-35.089,32.045-50.69,10.419-22.532,23.9-45.872,51.755-63.941,13.228-8.581,24.71-16.833,33.937-23.465,9.958-7.157,17.823-12.809,23.619-15.858a3.062,3.062,0,0,1,2.851,5.419c-5.419,2.85-13.132,8.393-22.9,15.411-9.279,6.669-20.828,14.969-34.178,23.629-26.552,17.224-39.5,39.676-49.529,61.374-7.6,16.428-25.113,45.867-33.745,52.875-5.528,4.487-15.568,8.84-26.2,13.45-5.775,2.5-11.747,5.094-16.8,7.653-37.582,19.019-55.665,30.906-61.607,34.812-.549.361-1,.656-1.351.884-3.862,2.8-13.921,10.115-15.2,11.142A3.05,3.05,0,0,1,2557.378,927.7Z" transform="translate(-2554.314 -700.03)" fill="#fcd008"/>
        </g>
        <g id="Grupo_18974" data-name="Grupo 18974">
          <g id="Grupo_18959" data-name="Grupo 18959" transform="translate(54.138 103.253)">
            <path id="Trazado_45297" data-name="Trazado 45297" d="M2734.357,949.536a.368.368,0,0,1-.143-.029c-.948-.4-1.818-.791-2.659-1.167-6.315-2.823-10.127-4.527-24.311-1.785a.367.367,0,0,1-.14-.721c14.412-2.786,18.525-.948,24.75,1.835.838.375,1.7.762,2.646,1.162a.367.367,0,0,1-.144.7Z" transform="translate(-2706.807 -944.451)" fill="#374170"/>
          </g>
          <g id="Grupo_18960" data-name="Grupo 18960" transform="translate(1.127)">
            <path id="Trazado_45298" data-name="Trazado 45298" d="M2542.106,844.237a4.27,4.27,0,0,1-3.154-1.38,12.759,12.759,0,0,1-3.485-9.843c.939-13.495,20.659-29.739,33.708-40.487a111.421,111.421,0,0,0,9.417-8.228c7.865-8.789,16.618-19.136,21.9-29.247,5.419-10.365,6.433-19.038,3.1-26.515-1.517-3.4-8.791-15.736-16.662-13.929-6.52,1.5-11.578,3.657-15.46,6.6a68.986,68.986,0,0,0-6.926,6.224c-4.543,4.488-8.835,8.726-16.727,9.5-11.535,1.125-13.706-5.389-14.1-8.241a5.958,5.958,0,0,1,2.366-5.568c5.96-4.475,12.235-12.228,19.184-23.7,4.494-7.419,40.041-20.945,48.6-23.9a74.7,74.7,0,0,1,15.635-3.575c20.513-2.4,30.729-4.293,42.47-12.358,11.673-8.018,24.343-21.858,50.147-51.87a1.468,1.468,0,1,1,2.226,1.914c-25.98,30.216-38.768,44.172-50.712,52.376-12.912,8.869-25.052,10.662-43.791,12.854a71.718,71.718,0,0,0-15.02,3.434c-15.12,5.212-43.771,17.237-47.044,22.642-4.56,7.528-11.588,18.26-19.933,24.527a3.023,3.023,0,0,0-1.222,2.815c.62,4.444,4.292,6.37,10.911,5.725,6.855-.668,10.428-4.2,14.949-8.662a71.346,71.346,0,0,1,7.216-6.475c4.221-3.2,9.643-5.529,16.577-7.122,9.659-2.218,17.881,10.843,20,15.595,3.722,8.35,2.682,17.859-3.179,29.07-5.436,10.4-14.332,20.921-22.318,29.844a109.248,109.248,0,0,1-9.739,8.536c-11.891,9.8-31.793,26.19-32.646,38.425a9.8,9.8,0,0,0,2.719,7.654,1.348,1.348,0,0,0,1.894.085l.116-.106c8.313-7.544,18.659-16.932,32.635-25.568,19.771-12.285,61.629-45.406,62.663-46.23,3.239-2.832,7.709-10.055,11.3-15.86,2.991-4.832,5.354-8.648,6.925-10.034a1.468,1.468,0,1,1,1.942,2.2c-1.245,1.1-3.735,5.12-6.371,9.378-3.9,6.3-8.32,13.439-11.894,16.548-.292.254-42.983,34.04-63.023,46.492-13.75,8.5-23.985,17.784-32.209,25.247l-.117.106A4.264,4.264,0,0,1,2542.106,844.237Z" transform="translate(-2533.661 -607.209)" fill="#374170"/>
          </g>
          <g id="Grupo_18961" data-name="Grupo 18961" transform="translate(63.959 133.669)">
            <path id="Trazado_45299" data-name="Trazado 45299" d="M2739.25,1066.076a.367.367,0,0,1-.292-.589,40.932,40.932,0,0,1,4.461-4.54c.738-.679,1.377-1.265,1.62-1.555,2.932-3.5,6.942-15.228,6.983-15.346a.367.367,0,0,1,.694.236c-.166.488-4.1,11.98-7.115,15.582-.274.327-.9.9-1.686,1.624a40.445,40.445,0,0,0-4.373,4.444A.367.367,0,0,1,2739.25,1066.076Z" transform="translate(-2738.883 -1043.796)" fill="#374170"/>
          </g>
          <g id="Grupo_18962" data-name="Grupo 18962" transform="translate(0 154.281)">
            <path id="Trazado_45300" data-name="Trazado 45300" d="M2536.469,1208.352a4.983,4.983,0,0,1-3.689-1.6c-2.782-3.037-4.9-8.981.809-20.055a1.468,1.468,0,1,1,2.609,1.345c-3.849,7.467-4.294,13.407-1.253,16.727a2.138,2.138,0,0,0,2.893.177c.648-.512,65.19-51.346,98.227-65.776a70.546,70.546,0,0,0,8.832-5.361c4.953-3.526,8.283-8.889,11.809-14.568,1.527-2.46,3.106-5,4.877-7.5a1.468,1.468,0,1,1,2.394,1.7c-1.718,2.423-3.273,4.927-4.777,7.348-3.686,5.937-7.166,11.544-12.6,15.411a71.406,71.406,0,0,1-9.36,5.659c-32.695,14.281-96.938,64.881-97.583,65.39A5.136,5.136,0,0,1,2536.469,1208.352Z" transform="translate(-2529.982 -1111.12)" fill="#374170"/>
          </g>
          <g id="Grupo_18963" data-name="Grupo 18963" transform="translate(20.144 29.034)">
            <path id="Trazado_45301" data-name="Trazado 45301" d="M2597.617,915.245a1.466,1.466,0,0,1-.859-.278,2.572,2.572,0,0,1-.8-3,1.468,1.468,0,0,1,2.483-.485c6.222-4.09,24.478-16.02,61.821-34.918,5.177-2.62,11.212-5.237,17.049-7.768,9.881-4.285,20.1-8.715,25.144-12.81,8.025-6.514,25.24-35.586,32.488-51.259,10.318-22.314,23.659-45.424,51.175-63.273,13.259-8.6,24.759-16.867,34-23.508,9.907-7.12,17.733-12.745,23.43-15.742a1.468,1.468,0,1,1,1.367,2.6c-5.518,2.9-13.27,8.474-23.084,15.527-9.266,6.659-20.8,14.947-34.116,23.587-26.891,17.444-39.975,40.127-50.109,62.042-7.533,16.293-24.836,45.435-33.3,52.306-5.357,4.349-15.3,8.66-25.826,13.224-5.8,2.514-11.792,5.113-16.891,7.694-37.666,19.061-55.8,30.985-61.764,34.9-.581.382-1.049.69-1.409.921A1.467,1.467,0,0,1,2597.617,915.245Z" transform="translate(-2595.775 -702.041)" fill="#374170"/>
          </g>
          <g id="Grupo_18973" data-name="Grupo 18973" transform="translate(4.887 91.809)">
            <g id="Grupo_18964" data-name="Grupo 18964" transform="translate(93.893 58.616)">
              <path id="Trazado_45302" data-name="Trazado 45302" d="M2862.827,1110.773c-.373,0-1.04-.34-2.5-1.7a56.34,56.34,0,0,1-5.2-5.7c-2.944-3.714-2.563-4.311-2.4-4.566.32-.5,1.039-.207,1.275-.111a.367.367,0,1,1-.276.68,1.724,1.724,0,0,0-.361-.111c.044.253.338,1.1,2.155,3.42,2.67,3.416,6.087,6.8,7.109,7.286a5.477,5.477,0,0,0-.433-1.069.367.367,0,1,1,.658-.325c.6,1.213.685,1.8.3,2.079A.528.528,0,0,1,2862.827,1110.773Z" transform="translate(-2852.618 -1098.525)" fill="#374170"/>
            </g>
            <g id="Grupo_18965" data-name="Grupo 18965" transform="translate(110.825 74.714)">
              <path id="Trazado_45303" data-name="Trazado 45303" d="M2912.9,1158.837a.366.366,0,0,1-.362-.314,10.346,10.346,0,0,0-4.443-6.739.367.367,0,1,1,.378-.63,10.9,10.9,0,0,1,4.791,7.264.366.366,0,0,1-.31.415A.382.382,0,0,1,2912.9,1158.837Z" transform="translate(-2907.919 -1151.102)" fill="#374170"/>
            </g>
            <g id="Grupo_18966" data-name="Grupo 18966" transform="translate(48.234 100.97)">
              <path id="Trazado_45304" data-name="Trazado 45304" d="M2709.268,1244.862l-.045,0a.367.367,0,0,1-.32-.409c.165-1.344-2.094-6.419-5.1-6.862a.367.367,0,0,1,.106-.726c3.362.495,5.948,5.849,5.725,7.677A.367.367,0,0,1,2709.268,1244.862Z" transform="translate(-2703.487 -1236.858)" fill="#374170"/>
            </g>
            <g id="Grupo_18967" data-name="Grupo 18967" transform="translate(57.745 111.258)">
              <path id="Trazado_45305" data-name="Trazado 45305" d="M2737.782,1275.763a.367.367,0,0,1-.36-.44,3.949,3.949,0,0,0-.8-2.792,2.975,2.975,0,0,0-1.757-1.339.367.367,0,1,1,.108-.726,3.641,3.641,0,0,1,2.25,1.643,4.633,4.633,0,0,1,.919,3.359A.367.367,0,0,1,2737.782,1275.763Z" transform="translate(-2734.55 -1270.462)" fill="#374170"/>
            </g>
            <g id="Grupo_18968" data-name="Grupo 18968" transform="translate(3.085 15.065)">
              <path id="Trazado_45306" data-name="Trazado 45306" d="M2556.389,970.368a.367.367,0,0,1-.179-.687c.068-.038,6.837-3.833,9.887-6.677a2.051,2.051,0,0,0,.818-1.624c-.091-1.257-1.856-2.477-3.144-3.368a11.187,11.187,0,0,1-1.453-1.109.367.367,0,0,1,.521-.517,11.047,11.047,0,0,0,1.349,1.022c1.489,1.03,3.342,2.312,3.459,3.919a2.76,2.76,0,0,1-1.05,2.213c-3.116,2.9-9.749,6.624-10.03,6.781A.366.366,0,0,1,2556.389,970.368Z" transform="translate(-2556.022 -956.278)" fill="#374170"/>
            </g>
            <g id="Grupo_18969" data-name="Grupo 18969" transform="translate(4.438 129.293)">
              <path id="Trazado_45307" data-name="Trazado 45307" d="M2560.806,1338.854a.367.367,0,0,1-.3-.572c3.355-4.982,6.558-7.96,9.52-8.852,1.572-.419,3.274,1.35,4.266,3.287a.367.367,0,0,1-.654.335c-1-1.95-2.436-3.175-3.412-2.916-2.784.838-5.854,3.717-9.112,8.555A.366.366,0,0,1,2560.806,1338.854Z" transform="translate(-2560.439 -1329.369)" fill="#374170"/>
            </g>
            <g id="Grupo_18970" data-name="Grupo 18970" transform="translate(0 145.316)">
              <path id="Trazado_45308" data-name="Trazado 45308" d="M2546.312,1391.048a.367.367,0,0,1-.306-.57,29.069,29.069,0,0,1,7.215-7.235c3.969-2.659,4.934-1.6,6.74,1.064.2.291.407.6.638.926a.367.367,0,0,1-.6.424c-.234-.33-.447-.644-.647-.938-1.641-2.417-2.193-3.231-5.723-.866a28.873,28.873,0,0,0-7.012,7.031A.368.368,0,0,1,2546.312,1391.048Z" transform="translate(-2545.945 -1381.703)" fill="#374170"/>
            </g>
            <g id="Grupo_18971" data-name="Grupo 18971" transform="translate(27.987 138.091)">
              <path id="Trazado_45309" data-name="Trazado 45309" d="M2639.537,1361.353a.368.368,0,0,1-.3-.155c-.233-.33-.447-.644-.647-.939a14.278,14.278,0,0,0-1.138-1.542.367.367,0,0,1,.542-.5,14.836,14.836,0,0,1,1.2,1.624c.2.291.408.6.638.927a.368.368,0,0,1-.3.579Z" transform="translate(-2637.356 -1358.103)" fill="#374170"/>
            </g>
            <g id="Grupo_18972" data-name="Grupo 18972" transform="translate(19.44)">
              <path id="Trazado_45310" data-name="Trazado 45310" d="M2616.154,914.14a.367.367,0,0,1-.356-.28,8.641,8.641,0,0,0-6.058-6.059.367.367,0,0,1,.137-.721,9.44,9.44,0,0,1,6.634,6.606.367.367,0,0,1-.269.444A.375.375,0,0,1,2616.154,914.14Z" transform="translate(-2609.441 -907.073)" fill="#374170"/>
            </g>
          </g>
          <circle id="Elipse_1485" data-name="Elipse 1485" cx="11.804" cy="11.804" r="11.804" transform="translate(42.328 238.799)" fill="#45c2cb"/>
        </g>
      </g>
      <circle id="Elipse_1486" data-name="Elipse 1486" cx="11.804" cy="11.804" r="11.804" transform="translate(44.535 288.377)" fill="#45c2cb"/>
    </g>
    <g id="Grupo_18984" data-name="Grupo 18984" transform="translate(1742.267 478.605)">
      <g id="Grupo_18977" data-name="Grupo 18977" transform="translate(110.919 0)">
        <path id="Trazado_45311" data-name="Trazado 45311" d="M2571.934,723.634c-6.372,0-10.764,5.424-10.764,11.742,0,7.313,5.986,15.965,21.528,23.484,15.541-7.52,21.527-16.172,21.527-23.484,0-6.318-4.391-11.742-10.763-11.742-7.664,0-10.764,7.045-10.764,7.045S2579.6,723.634,2571.934,723.634Z" transform="translate(-2495.66 -648.614)" fill="#fcd008"/>
        <path id="Trazado_45312" data-name="Trazado 45312" d="M2364.192,1443.8c-6.372,0-10.763,5.425-10.763,11.742,0,7.313,5.986,15.965,21.527,23.485,15.541-7.52,21.528-16.172,21.528-23.485,0-6.318-4.392-11.742-10.764-11.742-7.664,0-10.764,7.045-10.764,7.045S2371.856,1443.8,2364.192,1443.8Z" transform="translate(-2351.523 -1148.291)" fill="#fcd008"/>
        <path id="Trazado_45313" data-name="Trazado 45313" d="M2571.934,600.054c-6.372,0-10.764,5.425-10.764,11.742,0,7.312,5.986,15.965,21.528,23.485,15.541-7.52,21.527-16.172,21.527-23.485,0-6.318-4.391-11.742-10.763-11.742-7.664,0-10.764,7.045-10.764,7.045S2579.6,600.054,2571.934,600.054Z" transform="translate(-2495.66 -562.87)" fill="#fcd008"/>
        <path id="Trazado_45314" data-name="Trazado 45314" d="M2571.934,478.605c-6.372,0-10.764,5.425-10.764,11.742,0,7.313,5.986,15.965,21.528,23.485,15.541-7.52,21.527-16.172,21.527-23.485,0-6.317-4.391-11.742-10.763-11.742-7.664,0-10.764,7.046-10.764,7.046S2579.6,478.605,2571.934,478.605Z" transform="translate(-2495.66 -478.605)" fill="#fcd008"/>
        <path id="Trazado_45315" data-name="Trazado 45315" d="M2653.076,524.19c-2.751,0-4.648,2.411-4.648,5.219,0,3.25,2.585,7.1,9.3,10.438,6.711-3.342,9.3-7.188,9.3-10.438,0-2.808-1.9-5.219-4.648-5.219a5.774,5.774,0,0,1-9.3,0Z" transform="translate(-2556.203 -510.233)" fill="#fb737b"/>
        <path id="Trazado_45316" data-name="Trazado 45316" d="M2653.076,581.718c-2.751,0-4.648,2.411-4.648,5.219,0,3.25,2.585,7.1,9.3,10.438,6.711-3.342,9.3-7.188,9.3-10.438,0-2.808-1.9-5.219-4.648-5.219a5.774,5.774,0,0,1-9.3,0Z" transform="translate(-2556.203 -550.148)" fill="#fb737b"/>
        <path id="Trazado_45317" data-name="Trazado 45317" d="M2653.076,639.247c-2.751,0-4.648,2.411-4.648,5.219,0,3.25,2.585,7.1,9.3,10.438,6.711-3.342,9.3-7.188,9.3-10.437,0-2.808-1.9-5.219-4.648-5.219a5.774,5.774,0,0,1-9.3,0Z" transform="translate(-2556.203 -590.064)" fill="#fb737b"/>
        <path id="Trazado_45318" data-name="Trazado 45318" d="M2351.851,1428.664c-2.752,0-4.648,2.411-4.648,5.219,0,3.25,2.585,7.1,9.3,10.438,6.711-3.342,9.3-7.187,9.3-10.437,0-2.808-1.9-5.219-4.648-5.219a5.773,5.773,0,0,1-9.3,0Z" transform="translate(-2347.203 -1137.786)" fill="#fb737b"/>
        <path id="Trazado_45319" data-name="Trazado 45319" d="M2351.851,1486.193c-2.752,0-4.648,2.411-4.648,5.219,0,3.25,2.585,7.1,9.3,10.438,6.711-3.342,9.3-7.188,9.3-10.438,0-2.808-1.9-5.219-4.648-5.219a5.774,5.774,0,0,1-9.3,0Z" transform="translate(-2347.203 -1177.702)" fill="#fb737b"/>
        <path id="Trazado_45320" data-name="Trazado 45320" d="M2351.851,1543.721c-2.752,0-4.648,2.411-4.648,5.219,0,3.25,2.585,7.1,9.3,10.438,6.711-3.342,9.3-7.188,9.3-10.438,0-2.808-1.9-5.219-4.648-5.219a5.773,5.773,0,0,1-9.3,0Z" transform="translate(-2347.203 -1217.617)" fill="#fb737b"/>
        <path id="Trazado_45321" data-name="Trazado 45321" d="M2653.076,696.775c-2.751,0-4.648,2.411-4.648,5.219,0,3.25,2.585,7.1,9.3,10.438,6.711-3.342,9.3-7.188,9.3-10.438,0-2.808-1.9-5.219-4.648-5.219a5.774,5.774,0,0,1-9.3,0Z" transform="translate(-2556.203 -629.978)" fill="#fb737b"/>
        <path id="Trazado_45322" data-name="Trazado 45322" d="M2653.076,754.3c-2.751,0-4.648,2.411-4.648,5.219,0,3.25,2.585,7.1,9.3,10.438,6.711-3.342,9.3-7.187,9.3-10.437,0-2.808-1.9-5.219-4.648-5.219a5.774,5.774,0,0,1-9.3,0Z" transform="translate(-2556.203 -669.894)" fill="#fb737b"/>
      </g>
      <g id="Grupo_18981" data-name="Grupo 18981" transform="translate(0 49.953)">
        <g id="Grupo_18978" data-name="Grupo 18978" transform="translate(229.828)">
          <path id="Trazado_45323" data-name="Trazado 45323" d="M2778.324,684.1c-1.7-1.686-3.464-3.357-5.246-4.968-1.454-1.314-2.95-2.616-4.448-3.869l8.794-10.5c1.629,1.364,3.257,2.78,4.839,4.21,1.939,1.753,3.86,3.572,5.709,5.407Zm-14.809-12.937c-3.459-2.654-7.069-5.185-10.73-7.524l7.375-11.544c3.99,2.549,7.925,5.308,11.694,8.2Zm-16.326-10.932c-3.765-2.182-7.671-4.225-11.608-6.073l5.819-12.4c4.294,2.015,8.553,4.243,12.659,6.623Z" transform="translate(-2735.581 -641.76)" fill="#45c2cb"/>
        </g>
        <g id="Grupo_18979" data-name="Grupo 18979" transform="translate(0 166.99)">
          <path id="Trazado_45324" data-name="Trazado 45324" d="M2011.244,1261.943c-2.611-3.963-5.079-8.088-7.337-12.263l12.05-6.517c2.071,3.828,4.334,7.61,6.728,11.244Zm-10.6-18.622c-2.074-4.266-3.987-8.676-5.685-13.108l12.792-4.9c1.558,4.065,3.313,8.109,5.214,12.022Zm-8.1-19.833c-1.5-4.5-2.832-9.116-3.946-13.729l13.317-3.215c1.022,4.233,2.24,8.471,3.62,12.6Zm-5.473-20.707c-.914-4.652-1.638-9.4-2.151-14.119l13.618-1.482c.471,4.329,1.136,8.689,1.975,12.959Z" transform="translate(-1984.922 -1187.181)" fill="#45c2cb"/>
        </g>
        <g id="Grupo_18980" data-name="Grupo 18980" transform="translate(237.666 182.963)">
          <path id="Trazado_45325" data-name="Trazado 45325" d="M2767.7,1352.967l-6.518-12.049c3.827-2.07,7.609-4.333,11.243-6.728l7.537,11.44C2776,1348.241,2771.875,1350.709,2767.7,1352.967Zm18.144-11.4-8.026-11.1c3.524-2.547,6.983-5.282,10.28-8.129l8.952,10.37C2793.456,1335.811,2789.686,1338.792,2785.845,1341.569Zm16.512-13.645-9.388-9.977c3.012-2.834,5.953-5.835,8.741-8.921l.421-.467,10.2,9.147-.457.507C2808.837,1321.572,2805.636,1324.839,2802.357,1327.925Zm14.624-15.632-10.578-8.705c2.771-3.367,5.426-6.888,7.889-10.464l11.282,7.771C2822.891,1304.79,2820,1308.625,2816.981,1312.292Zm12.516-17.366-11.606-7.278c2.312-3.688,4.49-7.52,6.472-11.388l12.192,6.247C2834.394,1286.726,2832.019,1290.9,2829.5,1294.927Zm10.177-18.845-12.451-5.713c1.813-3.953,3.476-8.034,4.942-12.131l12.9,4.615C2843.465,1267.32,2841.652,1271.771,2839.674,1276.082Zm7.65-20.006-13.086-4.052c1.286-4.154,2.407-8.417,3.332-12.672l13.387,2.909C2849.949,1246.9,2848.726,1251.547,2847.324,1256.075Z" transform="translate(-2761.183 -1239.351)" fill="#45c2cb"/>
        </g>
      </g>
      <g id="Grupo_18982" data-name="Grupo 18982" transform="translate(126.498 169.449)">
        <path id="Trazado_45326" data-name="Trazado 45326" d="M2467.552,1072.1a19.94,19.94,0,0,1,15.412-7.316c9.125,0,15.413,7.455,15.413,16.3,0,12.361-12.833,20.223-30.825,35.96-17.992-15.738-30.825-23.6-30.825-35.96,0-8.842,6.289-16.3,15.412-16.3A19.941,19.941,0,0,1,2467.552,1072.1Z" transform="translate(-2424.897 -1054.763)" fill="#fb737b"/>
        <rect id="Rectángulo_3586" data-name="Rectángulo 3586" width="8.93" height="8.93" transform="translate(75.468 16.391) rotate(-90)" fill="#fb737b"/>
        <rect id="Rectángulo_3587" data-name="Rectángulo 3587" width="5.943" height="5.943" transform="translate(88.363 5.943) rotate(-90)" fill="#fb737b"/>
        <rect id="Rectángulo_3588" data-name="Rectángulo 3588" width="8.93" height="8.93" transform="translate(20.55 49.741) rotate(90)" fill="#fb737b"/>
        <rect id="Rectángulo_3589" data-name="Rectángulo 3589" width="5.943" height="5.943" transform="translate(5.943 61.291) rotate(90)" fill="#fb737b"/>
      </g>
      <g id="Grupo_18983" data-name="Grupo 18983" transform="translate(53.166 49.797)">
        <path id="Trazado_45327" data-name="Trazado 45327" d="M2166.8,641.251l24.684,47.445-32.915-42.153Z" transform="translate(-2158.572 -641.251)" fill="#fb737b"/>
        <path id="Trazado_45328" data-name="Trazado 45328" d="M2168.6,738.213l8.867,19.332-16.584-13.316Z" transform="translate(-2160.177 -708.526)" fill="#fb737b"/>
        <path id="Trazado_45329" data-name="Trazado 45329" d="M2732.336,1641.053l-21.453-48.99,30.02,44.262Z" transform="translate(-2541.784 -1300.955)" fill="#fb737b"/>
        <path id="Trazado_45330" data-name="Trazado 45330" d="M2673.755,1630.093l-3.452-20.987,12.483,17.22Z" transform="translate(-2513.627 -1312.78)" fill="#fb737b"/>
      </g>
    </g>
  </g>
</svg>
