<svg xmlns="http://www.w3.org/2000/svg" xmlns:xlink="http://www.w3.org/1999/xlink" width="134.505" height="134.505" viewBox="0 0 134.505 134.505">
  <defs>
    <clipPath id="clip-path">
      <circle id="Elipse_424" data-name="Elipse 424" cx="57.466" cy="57.466" r="57.466" transform="translate(1917.694 5343.192)" fill="none"/>
    </clipPath>
    <radialGradient id="radial-gradient" cx="-1.555" cy="-5.384" r="0.506" gradientTransform="translate(0.012 0) scale(0.976 1)" gradientUnits="objectBoundingBox">
      <stop offset="0.561" stop-color="#edb421"/>
      <stop offset="0.679" stop-color="#ffc95f"/>
      <stop offset="0.797" stop-color="#ffc95f"/>
      <stop offset="0.866" stop-color="#e8ae0f"/>
      <stop offset="0.952" stop-color="#ffc95f"/>
    </radialGradient>
  </defs>
  <g id="Grupo_3491" data-name="Grupo 3491" transform="translate(-294.456 -5352.541)">
    <g id="Grupo_1593" data-name="Grupo 1593" transform="translate(-1614 19.135)">
      <path id="Trazado_4304" data-name="Trazado 4304" d="M1975.708,5333.406q3.3,0,6.592.324t6.529.969q3.24.643,6.4,1.6t6.214,2.224q3.053,1.263,5.966,2.821t5.661,3.393q2.746,1.835,5.3,3.932t4.89,4.432q2.336,2.336,4.432,4.89t3.932,5.3q1.835,2.747,3.393,5.661t2.821,5.966q1.265,3.053,2.224,6.214t1.6,6.4q.645,3.24.969,6.528t.324,6.592q0,3.3-.324,6.592t-.969,6.529q-.643,3.24-1.6,6.4t-2.224,6.214q-1.264,3.053-2.821,5.966t-3.393,5.661q-1.836,2.747-3.932,5.3t-4.432,4.89q-2.337,2.336-4.89,4.432t-5.3,3.931q-2.748,1.835-5.661,3.394t-5.966,2.821q-3.052,1.264-6.214,2.224t-6.4,1.6q-3.242.645-6.529.969t-6.592.324q-3.3,0-6.591-.324t-6.529-.969q-3.24-.644-6.4-1.6t-6.214-2.224q-3.053-1.264-5.966-2.821t-5.661-3.394q-2.746-1.835-5.3-3.931t-4.89-4.432q-2.337-2.336-4.432-4.89t-3.932-5.3q-1.835-2.748-3.393-5.661t-2.821-5.966q-1.265-3.053-2.224-6.214t-1.6-6.4q-.645-3.241-.969-6.529t-.324-6.592q0-3.3.324-6.592t.969-6.528q.643-3.24,1.6-6.4t2.224-6.214q1.263-3.052,2.821-5.966t3.393-5.661q1.836-2.747,3.932-5.3t4.432-4.89q2.336-2.337,4.89-4.432t5.3-3.932q2.747-1.835,5.661-3.393t5.966-2.821q3.052-1.264,6.214-2.224t6.4-1.6q3.24-.645,6.529-.969T1975.708,5333.406Z" fill="#6595bf"/>
    </g>
    <circle id="Elipse_405" data-name="Elipse 405" cx="63.171" cy="63.171" r="63.171" transform="translate(298.537 5356.622)" fill="#fff"/>
    <g id="Grupo_1594" data-name="Grupo 1594" transform="translate(-1614 19.135)">
      <circle id="Elipse_406" data-name="Elipse 406" cx="57.466" cy="57.466" r="57.466" transform="translate(1917.694 5343.192)" fill="#aed3f2"/>
    </g>
    <g id="Grupo_1912" data-name="Grupo 1912" transform="translate(-1614 19.135)">
      <g id="Grupo_1911" data-name="Grupo 1911" clip-path="url(#clip-path)">
        <g id="Grupo_1910" data-name="Grupo 1910">
          <g id="Grupo_1882" data-name="Grupo 1882">
            <g id="Grupo_1878" data-name="Grupo 1878">
              <g id="Grupo_1877" data-name="Grupo 1877">
                <path id="Trazado_5581" data-name="Trazado 5581" d="M1903.109,5402.1a3.463,3.463,0,0,1-1.433-.391.821.821,0,0,0-1.156.727,9.121,9.121,0,0,0,2.439,4.572c.676.515-.043-.466.866-.143Z" fill="#644436"/>
                <path id="Trazado_5582" data-name="Trazado 5582" d="M1907.405,5409.935a11.717,11.717,0,0,1-4.8-3,5.353,5.353,0,0,1-1.2-5.3,33.649,33.649,0,0,0,20.341-1.848,31.688,31.688,0,0,0,14.841-13.02l2.981,1.759c-3.634,3.552-3.782,9.483-6.224,14.1a17.508,17.508,0,0,1-11.324,8.5A24.742,24.742,0,0,1,1907.405,5409.935Z" fill="#ec9507"/>
                <path id="Trazado_5583" data-name="Trazado 5583" d="M1934.213,5395.3c1.6-2.38,4.213-7.45,4.213-7.45l-1.836-1.084a31.688,31.688,0,0,1-14.841,13.02,33.649,33.649,0,0,1-20.341,1.848,4.2,4.2,0,0,0-.273,1.791C1916.955,5409.409,1928.934,5403.155,1934.213,5395.3Z" fill="#ffaf29"/>
              </g>
              <path id="Trazado_5584" data-name="Trazado 5584" d="M1923.227,5406.442a24.528,24.528,0,0,1-6.4,1.617c-2.368.2-5.071.853-7.462.431-.723-.128-4.915-.616-6.186-.973a12.912,12.912,0,0,0,4.225,2.418,24.734,24.734,0,0,0,14.618,1.2,17.508,17.508,0,0,0,11.324-8.5,21.5,21.5,0,0,0,1.267-3C1932.027,5402.4,1926.29,5405.306,1923.227,5406.442Z" fill="#e0bd57" opacity="0.65"/>
            </g>
            <g id="Grupo_1880" data-name="Grupo 1880">
              <g id="Grupo_1879" data-name="Grupo 1879">
                <path id="Trazado_5585" data-name="Trazado 5585" d="M1905.474,5410.9a3.439,3.439,0,0,1-1.492-.1.833.833,0,0,0-1,.962,9.237,9.237,0,0,0,3.315,4.071c.768.377-.135-.457.825-.32Z" fill="#644436"/>
                <path id="Trazado_5586" data-name="Trazado 5586" d="M1911.259,5417.85a11.624,11.624,0,0,1-5.321-2.015,5.478,5.478,0,0,1-2.235-5.05,33.417,33.417,0,0,0,19.626-5.968,32.121,32.121,0,0,0,11.937-15.929l3.245,1.159c-2.843,4.254-1.828,10.18-3.3,15.263a17.73,17.73,0,0,1-9.382,10.746A24.394,24.394,0,0,1,1911.259,5417.85Z" fill="#ec9507"/>
                <path id="Trazado_5587" data-name="Trazado 5587" d="M1934.619,5397.85c1.092-2.685,2.647-8.248,2.647-8.248l-2-.714a32.121,32.121,0,0,1-11.937,15.929,33.417,33.417,0,0,1-19.626,5.968,4.357,4.357,0,0,0,.087,1.847C1920.529,5415.374,1931.01,5406.72,1934.619,5397.85Z" fill="#ffaf29"/>
              </g>
              <path id="Trazado_5588" data-name="Trazado 5588" d="M1926.082,5411.145a24.417,24.417,0,0,1-5.943,2.911c-2.282.686-4.806,1.884-7.239,1.952-.736.02-4.957.39-6.28.294a12.769,12.769,0,0,0,4.639,1.548,24.394,24.394,0,0,0,14.568-1.794,17.73,17.73,0,0,0,9.382-10.746,22.313,22.313,0,0,0,.648-3.233C1933.878,5405.344,1928.852,5409.4,1926.082,5411.145Z" fill="#e0bd57" opacity="0.65"/>
            </g>
            <g id="Grupo_1881" data-name="Grupo 1881">
              <path id="Trazado_5589" data-name="Trazado 5589" d="M1914.517,5419.032a3.256,3.256,0,0,1-1.4.289.814.814,0,0,0-.681,1.161,8.855,8.855,0,0,0,4.089,2.984c.8.157-.24-.4.681-.513Z" fill="#644436"/>
              <path id="Trazado_5590" data-name="Trazado 5590" d="M1921.6,5424.084a10.917,10.917,0,0,1-5.414-.531,5.313,5.313,0,0,1-3.334-4.181,31.423,31.423,0,0,0,23.618-28.576l3.255.288c-1.552,4.707.834,10.022.737,15.16a17.378,17.378,0,0,1-5.929,12.439A22.99,22.99,0,0,1,1921.6,5424.084Z" fill="#ec9507"/>
              <path id="Trazado_5591" data-name="Trazado 5591" d="M1938.083,5399.389c.338-2.8.39-8.416.39-8.416l-2.007-.177a31.423,31.423,0,0,1-23.618,28.576,4.286,4.286,0,0,0,.544,1.717C1929.5,5419.392,1936.969,5408.622,1938.083,5399.389Z" fill="#ffaf29"/>
              <path id="Trazado_5592" data-name="Trazado 5592" d="M1939.308,5392.985c.108-.758,1.3-5.763,1.51-6.4-.819-.925-1.393-1.527-3.732-1.533-.027.45-.6,2.308-2.814,5.121C1935.281,5390.174,1938.472,5392.325,1939.308,5392.985Z" fill="#3e7745"/>
            </g>
          </g>
          <g id="Grupo_1884" data-name="Grupo 1884">
            <path id="Trazado_5593" data-name="Trazado 5593" d="M2034.9,5406.981a3.38,3.38,0,0,1-1.658,2.181,14.041,14.041,0,0,1-2.968,1.339,16.425,16.425,0,0,1-3.756.976,6.462,6.462,0,0,1-3.8-.618,4.768,4.768,0,0,1-2.081-3.335,6.275,6.275,0,0,1-.229-2.486,3.06,3.06,0,0,1,1.515-2.173c1.569-.9,3.826-.62,5.775-.291a18.043,18.043,0,0,1,4.825,1.275C2033.958,5404.544,2035.066,5405.734,2034.9,5406.981Z" fill="#00683b"/>
            <path id="Trazado_5594" data-name="Trazado 5594" d="M2024.25,5414.582a6.161,6.161,0,0,0,2.769,5.328,6.476,6.476,0,0,0,6.014.465,5.044,5.044,0,0,0,2.575-2.354,3.468,3.468,0,0,0-.171-3.4c-.877-1.273-2.561-1.644-4.083-1.915-1.553-.276-3.331-.5-4.55.5-.4.33-.7.769-1.109,1.1A1.367,1.367,0,0,1,2024.25,5414.582Z" fill="#00683b"/>
            <path id="Trazado_5595" data-name="Trazado 5595" d="M2025.688,5403.887a32.528,32.528,0,0,1-3.082,4.08,7.451,7.451,0,0,1-4.406,2.4c-.884.095-1.777-.033-2.663.035a6.151,6.151,0,0,0-4.575,2.674q.71,3.637,1.418,7.276a7.952,7.952,0,0,0,5.622-1.336,14.688,14.688,0,0,1,3.128-2.155,7.631,7.631,0,0,1,4.164.1l7.361,1.574,1.294-2.712-8.385-.489a17.106,17.106,0,0,1,5.8-2.719,7.066,7.066,0,0,0,2.76-1.043,1.912,1.912,0,0,0,.506-2.609,32.218,32.218,0,0,0-9.9,3.18c-.557.285-1.28.573-1.755.165a1.125,1.125,0,0,1,.226-1.637,4.805,4.805,0,0,1,1.753-.662,6.9,6.9,0,0,0,4.845-6.866c-1.073-.415-2.357-.809-3.3-.157A3.428,3.428,0,0,0,2025.688,5403.887Z" fill="#369f57"/>
            <path id="Trazado_5596" data-name="Trazado 5596" d="M2034.633,5408.966a32.242,32.242,0,0,0-6.291,1.6c-3.541,3.554-10.032,4.491-16.2,5.262a1.046,1.046,0,0,0-.594.237l.834,4.281a7.952,7.952,0,0,0,5.622-1.336,14.688,14.688,0,0,1,3.128-2.155,7.631,7.631,0,0,1,4.164.1l7.361,1.574,1.294-2.712-8.385-.489a17.106,17.106,0,0,1,5.8-2.719,7.066,7.066,0,0,0,2.76-1.043A1.912,1.912,0,0,0,2034.633,5408.966Z" fill="#20754c" opacity="0.25"/>
            <path id="Trazado_5597" data-name="Trazado 5597" d="M2014.177,5413.8a10.476,10.476,0,0,0-.063,6.6,7.941,7.941,0,0,0,3.888-1.38,14.688,14.688,0,0,1,3.128-2.155,7.631,7.631,0,0,1,4.164.1l.234.05a31.543,31.543,0,0,1-3.613-3.218C2020.286,5411.76,2015.4,5410.945,2014.177,5413.8Z" fill="#2b9560" opacity="0.37"/>
            <path id="Trazado_5598" data-name="Trazado 5598" d="M2022.577,5396.363a7.839,7.839,0,0,0-2.51,2.805c-.635,1.064-1.186,2.385-.651,3.5.568,1.185,2.053,1.544,3.349,1.767,1.683.289,3.527.551,5-.308a4.2,4.2,0,0,0,1.95-2.967,4.743,4.743,0,0,0-7.141-4.8Z" fill="#008d59"/>
            <g id="Grupo_1883" data-name="Grupo 1883">
              <path id="Trazado_5599" data-name="Trazado 5599" d="M2033.21,5414.385a5.379,5.379,0,0,0-4.552,1.8,4.769,4.769,0,1,0,7.343,6.087,4.424,4.424,0,0,1,1.263-1.316c1.085-.538,2.477.338,3.57-.185a1.877,1.877,0,0,0,.915-2.023,3.079,3.079,0,0,0-1.357-1.891,9.15,9.15,0,0,0-2.17-.98l-2.14-.751A11.88,11.88,0,0,0,2033.21,5414.385Z" fill="#008d59"/>
              <path id="Trazado_5600" data-name="Trazado 5600" d="M2033.759,5422.222c1.918-.767.553-2.234,5.489-2.487a1.951,1.951,0,0,0,1.735-1.3c.106-.3.2-.583.274-.758a3.664,3.664,0,0,0-.865-.815,9.15,9.15,0,0,0-2.17-.98l-2.14-.751a11.88,11.88,0,0,0-2.872-.744,5.563,5.563,0,0,0-3.358.791C2027.045,5421.391,2029.943,5423.749,2033.759,5422.222Z" fill="#008d59"/>
              <path id="Trazado_5601" data-name="Trazado 5601" d="M2035.178,5414.93c-1.326-.347-3.03-.609-4.039.166-.941.724-1.153,2.147-1.208,3.4a1.414,1.414,0,0,0,.727,1.281c.076.043.148.088.217.133,3.3,1.238,3.675-2.118,5.356-3.726v-.012C2035.862,5415.771,2035.508,5415.361,2035.178,5414.93Z" fill="#2b9560" opacity="0.55"/>
            </g>
            <path id="Trazado_5602" data-name="Trazado 5602" d="M2041.749,5418.751a2.59,2.59,0,0,0-.492-1.076l0,0a3.575,3.575,0,0,0-.624-.635c-.077-.062-.157-.121-.239-.177a9.15,9.15,0,0,0-2.17-.98l-2.14-.751a11.88,11.88,0,0,0-2.872-.744,5.277,5.277,0,0,0-.556-.016l-.18.006c-.13.006-.26.018-.39.034-.095.011-.189.024-.284.04-.121.021-.242.044-.362.073s-.224.059-.336.093l-.124.04a5.05,5.05,0,0,0-2.32,1.533,4.866,4.866,0,0,0-.808,4.707,4.758,4.758,0,0,0,1.3,1.876c-.031-2.316.915-4.205,3.353-4.9,3.706-1.112,5.726,1.149,8.515,2.792A1.922,1.922,0,0,0,2041.749,5418.751Z" fill="#2b9560" opacity="0.37"/>
            <path id="Trazado_5603" data-name="Trazado 5603" d="M2042.833,5412.72a25.519,25.519,0,0,0-1-3.173c-.4-1.692.137-3.573-.607-5.144a4.159,4.159,0,0,0-3.752-2.191,6.587,6.587,0,0,0-4.158,1.693,8.719,8.719,0,0,0-3.12,6.564,7.546,7.546,0,0,0,3.441,6.309,6.66,6.66,0,0,0,7.094-.085A4.5,4.5,0,0,0,2042.833,5412.72Z" fill="#00ab79"/>
            <path id="Trazado_5604" data-name="Trazado 5604" d="M2026.865,5398.324c-2.115.65-4.159,2.111-4.721,4.251s.52,4.448,2.1,6.013a8.125,8.125,0,0,0,4.889,2.43,5.632,5.632,0,0,0,4.941-2.021,8.245,8.245,0,0,0,1.358-3.746,7.908,7.908,0,0,0-.073-3.7,5.436,5.436,0,0,0-3.534-3.327A8.313,8.313,0,0,0,2026.865,5398.324Z" fill="#00ab79"/>
            <path id="Trazado_5605" data-name="Trazado 5605" d="M2022.577,5396.363a7.839,7.839,0,0,0-2.51,2.805c-.635,1.064-1.186,2.385-.651,3.5.568,1.185,2.053,1.544,3.349,1.767,1.683.289,3.527.551,5-.308a4.2,4.2,0,0,0,1.95-2.967,4.743,4.743,0,0,0-7.141-4.8Z" fill="#008d59"/>
            <path id="Trazado_5606" data-name="Trazado 5606" d="M2027.679,5396.484a4.46,4.46,0,0,0-.915-.459c-2.507,1.582-2.864,4.459-5.867,5.568-.542.2-1.614-.259-1.678-.232a2.377,2.377,0,0,0,.2,1.31c.568,1.185,2.053,1.544,3.349,1.767,1.683.289,3.527.551,5-.308a4.2,4.2,0,0,0,1.95-2.967A4.855,4.855,0,0,0,2027.679,5396.484Z" fill="#2b9560" opacity="0.37"/>
            <path id="Trazado_5607" data-name="Trazado 5607" d="M2042.833,5412.72a25.519,25.519,0,0,0-1-3.173c-.4-1.692.137-3.573-.607-5.144a4.159,4.159,0,0,0-3.752-2.191,6.587,6.587,0,0,0-4.158,1.693,8.719,8.719,0,0,0-3.12,6.564,7.546,7.546,0,0,0,3.441,6.309,6.66,6.66,0,0,0,7.094-.085A4.5,4.5,0,0,0,2042.833,5412.72Z" fill="#00ab79"/>
            <path id="Trazado_5608" data-name="Trazado 5608" d="M2038.613,5408.909c.985-2.3.117-4.6-.9-6.681-.08,0-.16-.016-.241-.016a6.587,6.587,0,0,0-4.158,1.693,8.719,8.719,0,0,0-3.12,6.564,7.729,7.729,0,0,0,1.284,4.191A10.792,10.792,0,0,0,2038.613,5408.909Z" fill="#00ab79"/>
            <path id="Trazado_5609" data-name="Trazado 5609" d="M2039.427,5410.131c-2.265-2.266-7.678.721-7.806,4.739a7,7,0,0,0,2.017,1.908,6.66,6.66,0,0,0,7.094-.085,4.987,4.987,0,0,0,1.941-2.53C2041.462,5413,2040.574,5411.048,2039.427,5410.131Z" fill="#2b9560" opacity="0.37"/>
            <path id="Trazado_5610" data-name="Trazado 5610" d="M2026.865,5398.324c-2.115.65-4.159,2.111-4.721,4.251s.52,4.448,2.1,6.013a8.125,8.125,0,0,0,4.889,2.43,5.632,5.632,0,0,0,4.941-2.021,8.245,8.245,0,0,0,1.358-3.746,7.908,7.908,0,0,0-.073-3.7,5.436,5.436,0,0,0-3.534-3.327A8.313,8.313,0,0,0,2026.865,5398.324Z" fill="#00ab79"/>
            <path id="Trazado_5611" data-name="Trazado 5611" d="M2030.62,5399.8c-.763-1.371-3.839-.078-5.237.632-1.572.8-2.63,1.912-1.432,3.59.815,1.629,3.665,2.444,5.7,1.222C2030.5,5404.4,2031.321,5401.058,2030.62,5399.8Z" fill="#2b9560" opacity="0.37"/>
            <path id="Trazado_5612" data-name="Trazado 5612" d="M2035.359,5401.547a5.365,5.365,0,0,0-3.17-3.188,14.742,14.742,0,0,1-.5,5.256c-1.114,4.828-5.276,4.575-8.78,3.258a8.422,8.422,0,0,0,1.335,1.715,8.125,8.125,0,0,0,4.889,2.43,5.632,5.632,0,0,0,4.941-2.021,8.245,8.245,0,0,0,1.358-3.746A7.908,7.908,0,0,0,2035.359,5401.547Z" fill="#008d59"/>
            <path id="Trazado_5613" data-name="Trazado 5613" d="M2027.542,5403.96c-4.015,1.378-.794,4.062-.757,6.407a7.115,7.115,0,0,0,2.348.651,5.632,5.632,0,0,0,4.941-2.021,8.245,8.245,0,0,0,1.358-3.746,11.24,11.24,0,0,0,.175-2.262c-1.78-2.783-2.074-.386-3.918.626C2030.915,5404.04,2028.377,5403.673,2027.542,5403.96Z" fill="#83bd9b" opacity="0.25"/>
            <path id="Trazado_5614" data-name="Trazado 5614" d="M2023.625,5396.936a3.761,3.761,0,0,0-1.9,1.2.458.458,0,0,0,.322.754,2.823,2.823,0,0,0,2.164-.928c.223-.255.394-.658.171-.912A.749.749,0,0,0,2023.625,5396.936Z" fill="#43a172" opacity="0.55"/>
            <path id="Trazado_5615" data-name="Trazado 5615" d="M2026.965,5400.42a2.935,2.935,0,0,0-.851.143.835.835,0,0,0-.53.636.8.8,0,0,0,.4.721,1.787,1.787,0,0,0,.829.228,4.994,4.994,0,0,0,2.192-.322c.344-.133.725-.392.693-.759C2029.675,5400.823,2029.055,5400.188,2026.965,5400.42Z" fill="#6bb590" opacity="0.55"/>
            <path id="Trazado_5616" data-name="Trazado 5616" d="M2040.788,5414.136c.148-.4-.766-1.514-.856-2.031a2.078,2.078,0,0,0-.845-1.364c-.632-.379-1.15.054-1.527.477l-1.84,2.058a3.114,3.114,0,0,0-.695,1.035,2.043,2.043,0,0,0,.087,1.515C2035.357,5416.359,2039.136,5418.618,2040.788,5414.136Z" fill="#43a172" opacity="0.35"/>
            <path id="Trazado_5617" data-name="Trazado 5617" d="M2012.442,5420.231a8.863,8.863,0,0,0,2.428-2.053,3.011,3.011,0,0,0,.44-3.01,3.309,3.309,0,0,0-1.9-1.5c-.777-.283-1.6-.409-2.39-.666Z" fill="#90d393"/>
          </g>
          <g id="Grupo_1888" data-name="Grupo 1888">
            <g id="Grupo_1887" data-name="Grupo 1887">
              <path id="Trazado_5618" data-name="Trazado 5618" d="M1989.558,5354.047c-.263-.368,0-4.1,0-4.1h-6.616s.262,3.728,0,4.1-8.874,8.769-8.874,11.867v47.5a2.971,2.971,0,0,0,1.481,2.59c1.858,1.057,5.449,1.742,10.7,1.742s8.843-.685,10.7-1.742a2.97,2.97,0,0,0,1.482-2.59v-47.5C1998.432,5362.816,1989.821,5354.415,1989.558,5354.047Z" fill="#e8e0de"/>
              <g id="Grupo_1885" data-name="Grupo 1885">
                <path id="Trazado_5619" data-name="Trazado 5619" d="M1989.461,5351.834c.033-.968.1-1.883.1-1.883h-.09C1989.442,5350.626,1989.428,5351.353,1989.461,5351.834Z" fill="#d3c4c0"/>
                <path id="Trazado_5620" data-name="Trazado 5620" d="M1983.032,5349.951h-.09s.064.915.1,1.883C1983.072,5351.353,1983.058,5350.626,1983.032,5349.951Z" fill="#d3c4c0"/>
                <path id="Trazado_5621" data-name="Trazado 5621" d="M1996.95,5414.3c-1.857,1.057-5.449,1.742-10.7,1.742s-8.843-.685-10.7-1.742a2.97,2.97,0,0,1-1.481-2.59v1.7a2.971,2.971,0,0,0,1.481,2.59c1.858,1.057,5.449,1.742,10.7,1.742s8.843-.685,10.7-1.742a2.97,2.97,0,0,0,1.482-2.59v-1.7A2.969,2.969,0,0,1,1996.95,5414.3Z" fill="#d3c4c0"/>
              </g>
              <path id="Trazado_5622" data-name="Trazado 5622" d="M1974.333,5364.787c3.983,2.118,9.024,2.045,13.335,2.069a27.913,27.913,0,0,0,10.622-1.722c-1.1-3.531-8.489-10.747-8.732-11.087-.263-.368,0-4.1,0-4.1h-6.616s.262,3.728,0,4.1C1982.707,5354.376,1975.775,5361.151,1974.333,5364.787Z" fill="#b7e2f3" opacity="0.32"/>
              <path id="Trazado_5623" data-name="Trazado 5623" d="M1982.945,5354.038a9.4,9.4,0,0,0,6.613.009c-.263-.368,0-4.1,0-4.1h-6.616S1983.2,5353.638,1982.945,5354.038Z" fill="#c9b6b1" opacity="0.32"/>
              <path id="Trazado_5624" data-name="Trazado 5624" d="M1986.25,5378.092a99.391,99.391,0,0,1-12.182-.735v18.333a101.473,101.473,0,0,0,24.364,0v-18.333A99.4,99.4,0,0,1,1986.25,5378.092Z" fill="#629fd6"/>
              <path id="Trazado_5625" data-name="Trazado 5625" d="M1993.461,5386.891a7.211,7.211,0,1,1-7.211-7.211A7.21,7.21,0,0,1,1993.461,5386.891Z" fill="#90d2ec"/>
              <circle id="Elipse_421" data-name="Elipse 421" cx="6.004" cy="6.004" r="6.004" transform="translate(1980.246 5380.887)" fill="#fdf0e9"/>
              <path id="Trazado_5626" data-name="Trazado 5626" d="M1989.349,5355.686c-.644-1.12-.266-3.861-.385-5.034l-1.449.52c.138,1.391-.135,3.774.255,4.989,1.055,3.279,2.934,5.988,3.5,9.473.839,5.191.128,47.753.253,51.825a21.6,21.6,0,0,0,3.386-.654c.016-4.906.776-48.96.147-52.19C1994.494,5361.744,1991.169,5358.85,1989.349,5355.686Z" fill="#b3d0dc" opacity="0.32"/>
              <path id="Trazado_5627" data-name="Trazado 5627" d="M1979.826,5403.769c.138-6.9-.136-13.792.123-20.682.215-5.7-1.136-13.557,1.26-18.892,1.624-3.616,3.777-7.207,3.938-9.557.1-1.507-.1-2.984-.011-4.463h-2.194s.288,3.444.025,3.812-8.9,9.053-8.9,12.151v47.494a2.97,2.97,0,0,0,1.481,2.59,13.184,13.184,0,0,0,4.272,1.295C1979.648,5412.93,1979.736,5408.272,1979.826,5403.769Z" fill="#d4c5c1" opacity="0.32"/>
              <path id="Trazado_5628" data-name="Trazado 5628" d="M1989.444,5388.441a3.194,3.194,0,0,1-6.388,0c0-1.764,3.194-6.294,3.194-6.294S1989.444,5386.677,1989.444,5388.441Z" fill="#7bcae9"/>
              <path id="Trazado_5629" data-name="Trazado 5629" d="M1981.787,5348.582v3.536a16.791,16.791,0,0,0,8.926,0v-3.536a28.622,28.622,0,0,1-8.926,0Z" fill="#7bcae9"/>
              <path id="Trazado_5630" data-name="Trazado 5630" d="M1987.283,5348.918v3.779a16.194,16.194,0,0,0,1.96-.2v-3.7C1988.736,5348.853,1988.088,5348.9,1987.283,5348.918Z" fill="#ccdfe8" opacity="0.32"/>
              <path id="Trazado_5631" data-name="Trazado 5631" d="M1985.882,5348.927a27.663,27.663,0,0,1-3.1-.175v3.659a16.389,16.389,0,0,0,3.1.3Z" fill="#609db6" opacity="0.35"/>
              <path id="Trazado_5632" data-name="Trazado 5632" d="M1990.713,5348.582c0,.575-2,1.041-4.463,1.041s-4.463-.466-4.463-1.041,2-1.042,4.463-1.042S1990.713,5348.007,1990.713,5348.582Z" fill="#a3daf0"/>
              <g id="Grupo_1886" data-name="Grupo 1886">
                <path id="Trazado_5633" data-name="Trazado 5633" d="M1988.02,5349.537c.423-.564.833-1.135,1.218-1.721-.249-.052-.519-.1-.814-.138a25.864,25.864,0,0,1-2.755,1.932c.192.006.382.013.581.013C1986.879,5349.623,1987.477,5349.592,1988.02,5349.537Z" fill="#d8eff9" opacity="0.32"/>
                <path id="Trazado_5634" data-name="Trazado 5634" d="M1985.761,5348.489c.5-.288.992-.6,1.482-.921-.321-.017-.651-.028-.993-.028-.07,0-.135,0-.2,0-1.083.529-2.165,1.184-3.168,1.713a9.472,9.472,0,0,0,1.153.218C1984.61,5349.119,1985.214,5348.8,1985.761,5348.489Z" fill="#d8eff9" opacity="0.32"/>
              </g>
            </g>
            <path id="Trazado_5635" data-name="Trazado 5635" d="M1989.179,5404.078c-4.7-1.529-8.885-6.861-10.59-11.542-1.44-3.956-2.788-7.893-4.017-11.882v32.311a3,3,0,0,0,1.421,2.59,12.246,12.246,0,0,0,4.094,1.295c0-.074,0-.148-.005-.222a37.425,37.425,0,0,0,6.168.446c5.034,0,8.476-.686,10.257-1.742a3,3,0,0,0,1.421-2.59v-9A13.856,13.856,0,0,1,1989.179,5404.078Z" fill="#e8e0de" opacity="0.32"/>
          </g>
          <g id="Grupo_1894" data-name="Grupo 1894">
            <path id="Trazado_5636" data-name="Trazado 5636" d="M1966.885,5385.462a18.455,18.455,0,0,0,2.466,1.426,3.38,3.38,0,0,0,2.234-2.306c.31-1.54.65-6.211-1.7-5.971S1966.885,5385.462,1966.885,5385.462Z" fill="#008d5b"/>
            <path id="Trazado_5637" data-name="Trazado 5637" d="M1971.01,5382.914c-.092-.368-.179-.682-.263-.965-.072.018-.141.042-.212.058-.465.137-.935.254-1.4.366-.164,1.229-.217,2.541-.217,2.541-1.624,1.167-3.99,12.39-4.362,22.514-.357,9.73,2.212,21.116,2.212,21.116,1.219-.377,4-3.707,4-3.707a17.813,17.813,0,0,0,5.489.184C1979.267,5410.712,1971.464,5384.736,1971.01,5382.914Z" fill="#008d5b"/>
            <path id="Trazado_5638" data-name="Trazado 5638" d="M1943,5381.083a80.9,80.9,0,0,0-5.811,22c-1.005,10.747-2.382,20.35-1.307,21.137,12.284,5.153,29.159,4.536,30.879,4.327,0,0-1.312-15.38-1.511-21.5a65.176,65.176,0,0,1,2.2-16.7c.693-2.483.985-5.01,1.872-5.992Z" fill="#00ab79"/>
            <path id="Trazado_5639" data-name="Trazado 5639" d="M1955.188,5388.039c3.52.95,6.505,3,9.887,4.223.562.2,1.154.409,1.761.6.194-.871.4-1.716.622-2.51.693-2.483.985-5.01,1.872-5.992L1943,5381.083a83.386,83.386,0,0,0-3.7,10.781C1943.874,5388.72,1949.815,5386.589,1955.188,5388.039Z" fill="#008d5b"/>
            <path id="Trazado_5640" data-name="Trazado 5640" d="M1962.624,5397.823c-7.188-.191-20.276-2.542-20.276-2.542-1.936,6.278-3.131,13.073-3.14,17.221,0,0,6.918,3.129,21.768,3.17A160.768,160.768,0,0,1,1962.624,5397.823Z" fill="#fef7f3"/>
            <g id="Grupo_1890" data-name="Grupo 1890">
              <g id="Grupo_1889" data-name="Grupo 1889">
                <path id="Trazado_5641" data-name="Trazado 5641" d="M1960.358,5400.376a.119.119,0,0,0-.169-.014c-.448.369-.958.684-1.435,1.027a4.3,4.3,0,0,0-1.28,1.282,3,3,0,0,0-.208.465,2.4,2.4,0,0,0-.159,1.215,1.476,1.476,0,0,0,.648.987.34.34,0,0,0,.278.07.88.88,0,0,0,.292-.115,4.931,4.931,0,0,0,2.352-2.719A3.477,3.477,0,0,0,1960.358,5400.376Z" fill="#00ab79"/>
                <path id="Trazado_5642" data-name="Trazado 5642" d="M1960.181,5401.6a1.039,1.039,0,0,1-.7.477q.091-.153.189-.306c.138-.216.279-.5.438-.7,0,0-.32.375-.732.979a.813.813,0,0,1-.042-.809.662.662,0,0,0,.02.841c-.136.2-.281.424-.428.668a1.28,1.28,0,0,1-.351-.952,1.041,1.041,0,0,0,.3,1.034c-.153.259-.307.537-.452.831a1.677,1.677,0,0,1-.405-1.194,1.155,1.155,0,0,0,.37,1.264c-.116.238-.225.485-.324.738a3.812,3.812,0,0,1-.5-1.131,2.049,2.049,0,0,0,.464,1.224,7.212,7.212,0,0,0-.375,1.349.264.264,0,0,0,.231.016,10.068,10.068,0,0,1,.376-1.283,2.189,2.189,0,0,0,1.249-.523,2.921,2.921,0,0,1-1.22.443q.114-.315.268-.678c.017-.041.035-.082.053-.123a2.6,2.6,0,0,0,1.352-.655,3.054,3.054,0,0,1-1.317.575c.116-.261.243-.527.383-.8a1.778,1.778,0,0,0,1.185-.686,2.034,2.034,0,0,1-1.157.632q.184-.352.4-.714A.908.908,0,0,0,1960.181,5401.6Z" fill="#008d5b" opacity="0.55"/>
              </g>
            </g>
            <g id="Grupo_1892" data-name="Grupo 1892">
              <g id="Grupo_1891" data-name="Grupo 1891">
                <path id="Trazado_5643" data-name="Trazado 5643" d="M1943.687,5397.6a.119.119,0,0,1,.168.028c.287.464.656.892.982,1.338a3.635,3.635,0,0,1,.737,1.543,2.838,2.838,0,0,1,.023.5,2.469,2.469,0,0,1-.306,1.2,1.777,1.777,0,0,1-.992.78.355.355,0,0,1-.291,0,.734.734,0,0,1-.236-.182,4.217,4.217,0,0,1-1.219-3.183A3.9,3.9,0,0,1,1943.687,5397.6Z" fill="#00ab79"/>
                <path id="Trazado_5644" data-name="Trazado 5644" d="M1943.394,5398.811a.87.87,0,0,0,.487.629c-.02-.112-.042-.225-.065-.339-.05-.24-.079-.543-.154-.778a10.568,10.568,0,0,1,.33,1.117.9.9,0,0,0,.345-.761.691.691,0,0,1-.336.8c.054.225.108.475.156.744a1.514,1.514,0,0,0,.7-.82s.009.487-.68.91c.049.285.09.59.118.907a1.971,1.971,0,0,0,.836-1.039,1.3,1.3,0,0,1-.829,1.114c.02.256.031.519.031.785a4.631,4.631,0,0,0,.905-.954,2.4,2.4,0,0,1-.906,1.052,6.875,6.875,0,0,1-.151,1.381.262.262,0,0,1-.226-.043,9.8,9.8,0,0,0,.125-1.318,1.854,1.854,0,0,1-.995-.81,2.515,2.515,0,0,0,1,.727c.006-.219.007-.458,0-.714,0-.043,0-.087-.005-.131a2.174,2.174,0,0,1-1.042-.962,2.6,2.6,0,0,0,1.039.877c-.012-.277-.032-.563-.064-.858a1.492,1.492,0,0,1-.872-.95,1.708,1.708,0,0,0,.866.891c-.028-.254-.065-.515-.112-.781A.767.767,0,0,1,1943.394,5398.811Z" fill="#008d5b" opacity="0.55"/>
              </g>
            </g>
            <path id="Trazado_5645" data-name="Trazado 5645" d="M1972.9,5406.771c-.447-1.9-1.759-17.393-2.816-22.6a2.827,2.827,0,0,0-.326-1,8.9,8.9,0,0,1-.569.948c-.009.013-.016.026-.025.039-.248,1.134-.4,2.759-.4,2.759-.145.082-.982,19.916-.9,22.137.118,3.2.482,14.434.574,18.274a33.433,33.433,0,0,0,2.324-2.489,15.417,15.417,0,0,0,2.793.309C1973.909,5423.19,1974.495,5413.572,1972.9,5406.771Z" fill="#00ab79"/>
            <path id="Trazado_5646" data-name="Trazado 5646" d="M1970.76,5424.837a33.433,33.433,0,0,1-2.324,2.489c-.092-3.84-.456-15.077-.574-18.274-.139-3.744.678-22.127.9-22.137C1968.761,5386.915,1971.731,5425.043,1970.76,5424.837Z" fill="#008d5b" opacity="0.55"/>
            <path id="Trazado_5647" data-name="Trazado 5647" d="M1951.9,5377.5a59.3,59.3,0,0,0,6.8.8,86.538,86.538,0,0,0,9.664.205c1.151-.11,2.168-.045,2.529.407.676.848-.151,2.642-1.034,4.347-1.341,2.588-1.011,3.477-5.031,3.121-3.994-.353-10.883-1.04-13.051-1.731s-7.327-.678-9.408-1.108-1.566-1.817-.291-5.077C1943.219,5375.557,1944.48,5376.182,1951.9,5377.5Z" fill="#00ab79"/>
            <path id="Trazado_5648" data-name="Trazado 5648" d="M1943.777,5381.214c1,.573,2.343.347,3.5.4a46.259,46.259,0,0,1,6.148.868c3.2.563,7.092,1.348,10.486.587a12.316,12.316,0,0,0,6.452-3.691c.653.723-.141,2.269-.991,3.739-1.29,2.234-.971,3-4.852,2.713-3.856-.283-10.506-.838-12.6-1.421s-7.073-.545-9.081-.9c-1.83-.327-1.566-1.359-.555-3.675A3.974,3.974,0,0,0,1943.777,5381.214Z" fill="#008d5b"/>
            <g id="Grupo_1893" data-name="Grupo 1893">
              <path id="Trazado_5649" data-name="Trazado 5649" d="M1946.245,5403.487l.642-4.459.812.071.22,3.222,1.067-3.108.81.072-.527,4.531-.6-.066.355-3.106-1.037,3.031-.465-.05-.231-3.156-.446,3.083Z" fill="#2e445c"/>
              <path id="Trazado_5650" data-name="Trazado 5650" d="M1950.832,5404.038a.915.915,0,0,1-.743-.39,1.438,1.438,0,0,1-.116-.926l.122-.915a1.5,1.5,0,0,1,.362-.882.978.978,0,0,1,.826-.235,1.152,1.152,0,0,1,.472.133.629.629,0,0,1,.274.288,1.158,1.158,0,0,1,.1.417,2.746,2.746,0,0,1-.03.551l-.058.427-1.267-.129-.067.487c-.009.068-.015.12-.019.158s-.007.083-.01.135a.484.484,0,0,0,.01.126.466.466,0,0,0,.034.094.16.16,0,0,0,.07.073.345.345,0,0,0,.111.03.225.225,0,0,0,.224-.085.689.689,0,0,0,.1-.306l.024-.188.72.075-.017.129a1.135,1.135,0,0,1-.355.745A.981.981,0,0,1,1950.832,5404.038Zm-.005-2.044.546.055.042-.31a.751.751,0,0,0-.013-.362.214.214,0,0,0-.2-.128.221.221,0,0,0-.23.1,1.174,1.174,0,0,0-.116.434Z" fill="#2e445c"/>
              <path id="Trazado_5651" data-name="Trazado 5651" d="M1952.961,5404.27a.617.617,0,0,1-.469-.295.812.812,0,0,1-.121-.559,1.238,1.238,0,0,1,.162-.486.926.926,0,0,1,.355-.332,2.791,2.791,0,0,1,.385-.185c.1-.038.252-.084.459-.14l.131-.038.039-.275a.769.769,0,0,0-.006-.33.2.2,0,0,0-.195-.124c-.171-.016-.276.1-.313.336l-.038.2-.734-.1c0-.012.005-.032.01-.06s.007-.05.008-.059a1.142,1.142,0,0,1,.41-.727,1.16,1.16,0,0,1,.8-.17.888.888,0,0,1,.685.333,1.065,1.065,0,0,1,.129.774l-.213,1.5a6.011,6.011,0,0,0-.055.83l-.7-.077q-.018-.325-.012-.489a.908.908,0,0,1-.283.354A.6.6,0,0,1,1952.961,5404.27Zm.377-.568a.289.289,0,0,0,.185-.047.787.787,0,0,0,.157-.12l.127-.9q-.617.26-.673.663a.493.493,0,0,0,.027.285A.206.206,0,0,0,1953.338,5403.7Z" fill="#2e445c"/>
              <path id="Trazado_5652" data-name="Trazado 5652" d="M1954.951,5404.432l.66-4.634.792.069-.668,4.65Z" fill="#2e445c"/>
              <path id="Trazado_5653" data-name="Trazado 5653" d="M1942.222,5409.6a1.483,1.483,0,0,1-.457-.133.968.968,0,0,1-.31-.239.988.988,0,0,1-.177-.337,1.5,1.5,0,0,1-.067-.407,3.089,3.089,0,0,1,.023-.476l.18-1.494a3.2,3.2,0,0,1,.094-.494,1.626,1.626,0,0,1,.165-.388.87.87,0,0,1,.25-.28.928.928,0,0,1,.358-.148,1.664,1.664,0,0,1,1,.137.8.8,0,0,1,.319.3,1.1,1.1,0,0,1,.137.415,2.154,2.154,0,0,1-.007.529l-.046.372-.729-.091.045-.368a1.961,1.961,0,0,0,.021-.441.321.321,0,0,0-.288-.274l-.04,0a.567.567,0,0,0-.169,0,.254.254,0,0,0-.124.061.5.5,0,0,0-.086.1.543.543,0,0,0-.06.145c-.016.061-.028.116-.037.168s-.017.119-.027.2l-.222,1.819a1.188,1.188,0,0,0,.024.549.347.347,0,0,0,.3.2.5.5,0,0,0,.143,0,.341.341,0,0,0,.108-.036.234.234,0,0,0,.08-.075.716.716,0,0,0,.056-.1.749.749,0,0,0,.039-.13c.012-.056.02-.1.026-.144s.013-.094.021-.164l.047-.383.728.094-.044.354a2.591,2.591,0,0,1-.087.43,1.385,1.385,0,0,1-.155.346.854.854,0,0,1-.239.253.907.907,0,0,1-.34.131A1.482,1.482,0,0,1,1942.222,5409.6Z" fill="#2e445c"/>
              <path id="Trazado_5654" data-name="Trazado 5654" d="M1944.721,5409.938a.886.886,0,0,1-.7-.393,1.415,1.415,0,0,1-.116-.892l.109-.874a1.412,1.412,0,0,1,.336-.838.882.882,0,0,1,.773-.2,1.127,1.127,0,0,1,.444.14.626.626,0,0,1,.259.283,1.163,1.163,0,0,1,.1.4,2.766,2.766,0,0,1-.023.529l-.053.407-1.191-.156-.059.466c-.008.065-.014.114-.018.15s-.006.08-.008.13a.443.443,0,0,0,.01.121.571.571,0,0,0,.033.091.171.171,0,0,0,.066.072.3.3,0,0,0,.1.032.206.206,0,0,0,.211-.075.646.646,0,0,0,.094-.294l.022-.177.676.09-.016.124a1.056,1.056,0,0,1-.328.706A.885.885,0,0,1,1944.721,5409.938Zm-.017-1.961.512.066.038-.3a.721.721,0,0,0-.014-.346.21.21,0,0,0-.188-.128.2.2,0,0,0-.216.09,1.1,1.1,0,0,0-.106.412Z" fill="#2e445c"/>
              <path id="Trazado_5655" data-name="Trazado 5655" d="M1946.189,5410.092l.566-4.383.727.087-.573,4.4Z" fill="#2e445c"/>
              <path id="Trazado_5656" data-name="Trazado 5656" d="M1947.524,5410.276l.58-4.408.736.088-.587,4.422Z" fill="#2e445c"/>
              <path id="Trazado_5657" data-name="Trazado 5657" d="M1949.313,5410.572a.428.428,0,0,1-.363-.25.9.9,0,0,1-.057-.5l.337-2.526.741.092-.321,2.382a.422.422,0,0,0,.014.224.179.179,0,0,0,.158.093.616.616,0,0,0,.337-.09l.345-2.543.748.093-.437,3.185-.742-.1.04-.3A1.128,1.128,0,0,1,1949.313,5410.572Z" fill="#2e445c"/>
              <path id="Trazado_5658" data-name="Trazado 5658" d="M1951.442,5410.819l.619-4.482.763.09-.628,4.5Z" fill="#2e445c"/>
              <path id="Trazado_5659" data-name="Trazado 5659" d="M1953.757,5411.192a.994.994,0,0,1-.736-.4,1.236,1.236,0,0,1-.138-.867l.149-1.06a1.268,1.268,0,0,1,.374-.805,1.008,1.008,0,0,1,.825-.2,1,1,0,0,1,.751.393,1.216,1.216,0,0,1,.141.877l-.154,1.07a1.24,1.24,0,0,1-.381.8A1.021,1.021,0,0,1,1953.757,5411.192Zm.079-.535a.265.265,0,0,0,.159-.02.237.237,0,0,0,.1-.114.875.875,0,0,0,.058-.161c.013-.053.026-.122.038-.206l.166-1.17c.01-.068.017-.124.02-.17a1.008,1.008,0,0,0,0-.148.336.336,0,0,0-.028-.13.256.256,0,0,0-.072-.088.248.248,0,0,0-.125-.047.262.262,0,0,0-.16.023.244.244,0,0,0-.1.118.9.9,0,0,0-.058.162c-.012.052-.026.121-.038.208l-.165,1.167c-.009.065-.015.122-.019.166a1.009,1.009,0,0,0,0,.147.333.333,0,0,0,.027.128.262.262,0,0,0,.072.087A.244.244,0,0,0,1953.836,5410.657Z" fill="#2e445c"/>
              <path id="Trazado_5660" data-name="Trazado 5660" d="M1956.195,5411.529a.99.99,0,0,1-.639-.316,1.16,1.16,0,0,1-.266-.694l.622-.131a.984.984,0,0,0,.114.43.33.33,0,0,0,.26.171.285.285,0,0,0,.216-.059.27.27,0,0,0,.1-.194c.01-.119-.077-.28-.263-.486l-.391-.432a1.085,1.085,0,0,1-.346-.91.842.842,0,0,1,.36-.589,1,1,0,0,1,.705-.151.886.886,0,0,1,.6.312,1.1,1.1,0,0,1,.23.664l-.554.147c-.021-.349-.131-.536-.326-.563a.263.263,0,0,0-.209.05.259.259,0,0,0-.1.175c-.017.1.056.241.22.425l.4.464a2.442,2.442,0,0,1,.166.2,1.753,1.753,0,0,1,.132.212.824.824,0,0,1,.089.259.935.935,0,0,1,0,.285.79.79,0,0,1-.376.6A1.111,1.111,0,0,1,1956.195,5411.529Z" fill="#2e445c"/>
              <path id="Trazado_5661" data-name="Trazado 5661" d="M1958.639,5411.867a1.01,1.01,0,0,1-.785-.423,1.411,1.411,0,0,1-.117-.948l.138-.925a1.452,1.452,0,0,1,.394-.887,1.046,1.046,0,0,1,.88-.209,1.318,1.318,0,0,1,.5.152.675.675,0,0,1,.289.3,1.208,1.208,0,0,1,.1.429,2.743,2.743,0,0,1-.036.562l-.066.432-1.347-.177-.074.494c-.011.068-.018.121-.023.159s-.008.085-.011.138a.472.472,0,0,0,.009.128.478.478,0,0,0,.036.1.175.175,0,0,0,.073.077.34.34,0,0,0,.118.035.243.243,0,0,0,.24-.078.674.674,0,0,0,.111-.309l.028-.189.765.1-.02.132a1.1,1.1,0,0,1-.384.746A1.062,1.062,0,0,1,1958.639,5411.867Zm.013-2.081.58.076.047-.314a.738.738,0,0,0-.01-.369.241.241,0,0,0-.212-.138.237.237,0,0,0-.245.094,1.138,1.138,0,0,0-.128.437Z" fill="#2e445c"/>
            </g>
            <path id="Trazado_5662" data-name="Trazado 5662" d="M1946.645,5415.734a19.227,19.227,0,0,1-8.98-7.448c-.842,8.069-1.642,14.595-.791,15.219,11.5,4.831,27.3,4.251,28.915,4.054,0,0-.493-5.7-.907-11.364C1959.136,5418.4,1951.977,5417.882,1946.645,5415.734Z" fill="#008d5b" opacity="0.32"/>
          </g>
          <g id="Grupo_1903" data-name="Grupo 1903">
            <path id="Trazado_5663" data-name="Trazado 5663" d="M2017.286,5400.422c-.365-2.011-5.139-3.392-5.139-3.392l-4.753.71-4.753-.71s-4.774,1.381-5.139,3.392,0,23.157,0,23.157.275,3.107,9.892,3.107,9.892-3.107,9.892-3.107S2017.652,5402.433,2017.286,5400.422Z" fill="#e8e1d8"/>
            <path id="Trazado_5664" data-name="Trazado 5664" d="M2007.523,5402.341a36.074,36.074,0,0,0,9.808-1.539c-.013-.162-.028-.291-.045-.38-.365-2.011-5.139-3.392-5.139-3.392l-4.753.71-4.753-.71s-4.774,1.381-5.139,3.392c-.014.075-.027.179-.038.306A35.733,35.733,0,0,0,2007.523,5402.341Z" fill="#f0ebe5"/>
            <path id="Trazado_5665" data-name="Trazado 5665" d="M2006.4,5397.591l-2.411-.36a49.914,49.914,0,0,0-3.538,4.231c-.008.012-.017.022-.025.035a34.14,34.14,0,0,0,5.459.793C2005.9,5401.549,2006.3,5398.413,2006.4,5397.591Z" fill="#f0ebe5" opacity="0.32"/>
            <path id="Trazado_5666" data-name="Trazado 5666" d="M2007.936,5397.727l2.411-.361a50.372,50.372,0,0,1,3.538,4.231c.007.013.016.023.024.036a34.075,34.075,0,0,1-5.458.792C2008.431,5401.685,2008.031,5398.549,2007.936,5397.727Z" fill="#f0ebe5" opacity="0.32"/>
            <path id="Trazado_5667" data-name="Trazado 5667" d="M2007.394,5394.48l-4.753-.325v3.128a16.694,16.694,0,0,0,9.506,0v-3.128Z" fill="#c8bfb1"/>
            <path id="Trazado_5668" data-name="Trazado 5668" d="M2006.81,5394.44l-3.008-.205v3.338a18.335,18.335,0,0,0,3.008.388Z" fill="#baaf9d"/>
            <path id="Trazado_5669" data-name="Trazado 5669" d="M2007.394,5392.1a26.24,26.24,0,0,1-5.809-1.189v4.022a15.525,15.525,0,0,0,11.619,0v-4.022A26.254,26.254,0,0,1,2007.394,5392.1Z" fill="#7bcae9"/>
            <path id="Trazado_5670" data-name="Trazado 5670" d="M2011.484,5391.449c-.808.188-1.679.337-2.411.444v4.083a15.526,15.526,0,0,0,2.411-.441Z" fill="#0498d8" opacity="0.32"/>
            <path id="Trazado_5671" data-name="Trazado 5671" d="M2006.393,5391.986a30.835,30.835,0,0,1-3.422-.617v4.073a15.563,15.563,0,0,0,3.422.589Z" fill="#0498d8" opacity="0.32"/>
            <path id="Trazado_5672" data-name="Trazado 5672" d="M2007,5389.788s-3.835-.051-5.416,1.127c0,0,1.117,1.453,5.416,1.453,5.085,0,6.2-1.453,6.2-1.453C2011.622,5389.737,2007,5389.788,2007,5389.788Z" fill="#a8dcf0"/>
            <path id="Trazado_5673" data-name="Trazado 5673" d="M2007,5392.18c-4.2,0-5.376-1.3-5.416-1.265,0,0,1.117,1.564,5.416,1.564,5.085,0,6.2-1.564,6.2-1.564C2013.162,5390.884,2012.029,5392.18,2007,5392.18Z" fill="#c6e8f5"/>
            <path id="Trazado_5674" data-name="Trazado 5674" d="M2007.394,5417.412a48.684,48.684,0,0,0,9.993-1c.047-4.108.085-9.094.045-12.428a50.327,50.327,0,0,1-20.076,0c-.04,3.334,0,8.32.045,12.428A48.684,48.684,0,0,0,2007.394,5417.412Z" fill="#ffaf29"/>
            <g id="Grupo_1900" data-name="Grupo 1900">
              <path id="Trazado_5675" data-name="Trazado 5675" d="M2007.4,5408.927a43.2,43.2,0,0,1-8.72-.862v5.71a44.54,44.54,0,0,0,17.407.007v-5.711A43.186,43.186,0,0,1,2007.4,5408.927Z" fill="#fef7f3"/>
              <g id="Grupo_1896" data-name="Grupo 1896">
                <g id="Grupo_1895" data-name="Grupo 1895">
                  <path id="Trazado_5676" data-name="Trazado 5676" d="M2007.4,5413.9a45.253,45.253,0,0,1-8.195-.727l-.085-.016v-4.134l.122.022a46.31,46.31,0,0,0,16.282.006l.123-.023v4.135l-.085.016A45.357,45.357,0,0,1,2007.4,5413.9Zm-8.073-.916a46.313,46.313,0,0,0,16.112.006v-3.713a46.5,46.5,0,0,1-16.112-.006Z" fill="#7bcae9"/>
                </g>
              </g>
              <g id="Grupo_1899" data-name="Grupo 1899">
                <g id="Grupo_1898" data-name="Grupo 1898">
                  <g id="Grupo_1897" data-name="Grupo 1897">
                    <path id="Trazado_5677" data-name="Trazado 5677" d="M2000.277,5412.291c.033-.693.05-1.039.083-1.732l.545.024a.838.838,0,0,1,.413.12.738.738,0,0,1,.277.3.883.883,0,0,1,.086.436l0,.079a.886.886,0,0,1-.119.426.724.724,0,0,1-.3.281.865.865,0,0,1-.426.087C2000.61,5412.307,2000.5,5412.3,2000.277,5412.291Zm.435-1.427-.053,1.157.178.008a.4.4,0,0,0,.336-.123.61.61,0,0,0,.133-.387l0-.092a.62.62,0,0,0-.1-.4.4.4,0,0,0-.322-.15Z" fill="#7bcae9"/>
                    <path id="Trazado_5678" data-name="Trazado 5678" d="M2001.949,5410.736a.17.17,0,0,1,.058-.126.234.234,0,0,1,.287.01.18.18,0,0,1-.009.256.2.2,0,0,1-.145.045.2.2,0,0,1-.142-.055A.169.169,0,0,1,2001.949,5410.736Zm.317,1.635-.357-.013c.019-.515.029-.773.048-1.288l.354.012Z" fill="#7bcae9"/>
                    <path id="Trazado_5679" data-name="Trazado 5679" d="M2003.171,5412.422a.66.66,0,0,1-.471-.187.61.61,0,0,1-.169-.47v-.033a.772.772,0,0,1,.089-.345.564.564,0,0,1,.226-.229.619.619,0,0,1,.324-.073.556.556,0,0,1,.422.178.669.669,0,0,1,.144.477l0,.141c-.338-.009-.507-.013-.845-.023a.306.306,0,0,0,.314.287.387.387,0,0,0,.325-.135c.068.077.1.116.169.194a.535.535,0,0,1-.221.165A.719.719,0,0,1,2003.171,5412.422Zm-.009-1.06a.224.224,0,0,0-.173.065.357.357,0,0,0-.09.2l.492.014v-.028a.252.252,0,0,0-.059-.179A.236.236,0,0,0,2003.162,5411.362Z" fill="#7bcae9"/>
                    <path id="Trazado_5680" data-name="Trazado 5680" d="M2004.381,5410.821l-.006.317.225,0-.005.253-.226,0c-.005.257-.008.385-.013.643a.111.111,0,0,0,.133.136.692.692,0,0,0,.1-.006l-.006.26a.713.713,0,0,1-.216.027.334.334,0,0,1-.373-.373l.017-.7-.193,0,.006-.252.193,0,.007-.317Z" fill="#7bcae9"/>
                    <path id="Trazado_5681" data-name="Trazado 5681" d="M2005.358,5411.977a.394.394,0,0,1,.073-.222c.047-.067.251-.193.257-.224s-.093-.135-.122-.2a.416.416,0,0,1-.043-.191.442.442,0,0,1,.135-.328.493.493,0,0,1,.354-.123.468.468,0,0,1,.325.119.373.373,0,0,1,.125.289.45.45,0,0,1-.218.364l-.138.1.305.351a.651.651,0,0,0,.074-.305l.3,0a.872.872,0,0,1-.163.547l.266.3-.4,0-.091-.1a.826.826,0,0,1-.457.122.639.639,0,0,1-.424-.14A.444.444,0,0,1,2005.358,5411.977Zm.6.22a.454.454,0,0,0,.243-.066l-.348-.4-.026.017a.273.273,0,0,0-.111.212.221.221,0,0,0,.066.169A.246.246,0,0,0,2005.957,5412.2Zm-.118-1.054a.405.405,0,0,0,.1.226l.095-.06a.3.3,0,0,0,.1-.087.187.187,0,0,0,.029-.1.144.144,0,0,0-.044-.1.156.156,0,0,0-.116-.045.16.16,0,0,0-.122.046A.181.181,0,0,0,2005.839,5411.143Z" fill="#7bcae9"/>
                    <path id="Trazado_5682" data-name="Trazado 5682" d="M2009.165,5412.451l-.369,0c0-.3,0-.446-.006-.744l-.717,0c0,.3,0,.446,0,.744h-.37c0-.693,0-1.04,0-1.734h.365c0,.281,0,.422,0,.7l.716,0c0-.281,0-.422-.006-.7l.365,0C2009.154,5411.411,2009.158,5411.757,2009.165,5412.451Z" fill="#7bcae9"/>
                    <path id="Trazado_5683" data-name="Trazado 5683" d="M2010.078,5412.463a.664.664,0,0,1-.479-.167.605.605,0,0,1-.19-.461v-.033a.772.772,0,0,1,.072-.349.56.56,0,0,1,.215-.238.627.627,0,0,1,.321-.088.559.559,0,0,1,.429.16.668.668,0,0,1,.166.47l0,.14c-.338.007-.507.01-.846.015a.308.308,0,0,0,.328.273.387.387,0,0,0,.318-.149l.178.186a.537.537,0,0,1-.213.175A.727.727,0,0,1,2010.078,5412.463Zm-.058-1.058a.223.223,0,0,0-.169.072.352.352,0,0,0-.081.2l.492-.008v-.028a.249.249,0,0,0-.066-.176A.231.231,0,0,0,2010.02,5411.4Z" fill="#7bcae9"/>
                    <path id="Trazado_5684" data-name="Trazado 5684" d="M2011.6,5412.408a.776.776,0,0,1-.039-.115.931.931,0,0,1-.332.148.477.477,0,0,1-.327-.1.346.346,0,0,1-.134-.273.361.361,0,0,1,.149-.318.788.788,0,0,1,.449-.121l.162,0,0-.074a.208.208,0,0,0-.05-.142.192.192,0,0,0-.15-.05.222.222,0,0,0-.139.045.141.141,0,0,0-.048.116l-.354.007a.342.342,0,0,1,.067-.208.463.463,0,0,1,.2-.154.732.732,0,0,1,.289-.061.592.592,0,0,1,.391.11.417.417,0,0,1,.153.332l.016.559a.6.6,0,0,0,.06.276v.02Zm-.3-.232a.321.321,0,0,0,.144-.038.226.226,0,0,0,.1-.093l-.006-.222-.132,0c-.178,0-.271.065-.279.185v.02a.135.135,0,0,0,.049.1A.188.188,0,0,0,2011.3,5412.176Z" fill="#7bcae9"/>
                    <path id="Trazado_5685" data-name="Trazado 5685" d="M2012.554,5412.38l-.357.011c-.023-.731-.034-1.1-.056-1.829l.352-.011C2012.518,5411.283,2012.53,5411.649,2012.554,5412.38Z" fill="#7bcae9"/>
                    <path id="Trazado_5686" data-name="Trazado 5686" d="M2013.212,5410.751l.012.317.225-.009.01.253-.226.008.025.643a.112.112,0,0,0,.141.128.535.535,0,0,0,.1-.012l.011.261a.784.784,0,0,1-.215.039.334.334,0,0,1-.394-.352l-.025-.694-.193.006-.008-.253.193-.006-.012-.317Z" fill="#7bcae9"/>
                    <path id="Trazado_5687" data-name="Trazado 5687" d="M2014,5411.178a.445.445,0,0,1,.345-.179q.429-.018.459.467l.04.825-.356.016c-.015-.326-.022-.49-.037-.817a.235.235,0,0,0-.057-.162.212.212,0,0,0-.165-.046.243.243,0,0,0-.219.126l.039.918-.355.014c-.03-.731-.045-1.1-.075-1.828l.352-.014C2013.979,5410.77,2013.984,5410.906,2014,5411.178Z" fill="#7bcae9"/>
                  </g>
                </g>
              </g>
            </g>
            <path id="Trazado_5688" data-name="Trazado 5688" d="M2014.6,5417.658c-2.927.525-7.643,1.185-10.255-.715-4.3-3.122-6.268-8.62-6.471-9.221,0,6.5.154,15.5.154,15.5s.261,2.941,9.362,2.941,9.362-2.941,9.362-2.941.045-2.58.086-5.976C2016,5417.428,2015.2,5417.551,2014.6,5417.658Z" fill="#d5c8b8" opacity="0.55"/>
            <g id="Grupo_1901" data-name="Grupo 1901">
              <path id="Trazado_5689" data-name="Trazado 5689" d="M2000.423,5425.73a19.986,19.986,0,0,0,5.393.821v-24.267a34.115,34.115,0,0,1-5.393-.787Z" fill="#d7cbbb" opacity="0.32"/>
            </g>
            <path id="Trazado_5690" data-name="Trazado 5690" d="M2007.523,5402.082c-3.784,0-10.05-1.455-10.059-1.354a28.326,28.326,0,0,0,19.867.074C2017.323,5400.7,2011.194,5402.082,2007.523,5402.082Z" fill="#f6f3ef"/>
            <g id="Grupo_1902" data-name="Grupo 1902" opacity="0.55">
              <path id="Trazado_5691" data-name="Trazado 5691" d="M2013.91,5425.73a20,20,0,0,1-5.393.821v-24.267a34.15,34.15,0,0,0,5.393-.787Z" fill="#fdfcfc" opacity="0.32"/>
            </g>
          </g>
          <g id="Grupo_1904" data-name="Grupo 1904">
            <ellipse id="Elipse_422" data-name="Elipse 422" cx="3.859" cy="2.925" rx="3.859" ry="2.925" transform="translate(2015.39 5426.675)" fill="#ffaf29"/>
            <path id="Trazado_5692" data-name="Trazado 5692" d="M2022.083,5428.579c0,.62-.712,1.124-1.59,1.124s-1.59-.5-1.59-1.124.712-1.124,1.59-1.124S2022.083,5427.958,2022.083,5428.579Z" fill="#ffe388" opacity="0.55"/>
            <path id="Trazado_5693" data-name="Trazado 5693" d="M2020.163,5430.792c-2.132,0-3.859-1.309-3.859-2.925,0-.055.006-.11.011-.164a2.541,2.541,0,0,0-.926,1.9c0,1.615,1.728,2.925,3.86,2.925,2.058,0,3.735-1.222,3.848-2.761A4.431,4.431,0,0,1,2020.163,5430.792Z" fill="#cfa0ae" opacity="0.55"/>
          </g>
          <g id="Grupo_1905" data-name="Grupo 1905">
            <ellipse id="Elipse_423" data-name="Elipse 423" cx="3.859" cy="2.925" rx="3.859" ry="2.925" transform="translate(2007.394 5430.189)" fill="#ffaf29"/>
            <path id="Trazado_5694" data-name="Trazado 5694" d="M2014.088,5431.991c0,.62-.712,1.124-1.59,1.124s-1.59-.5-1.59-1.124.711-1.125,1.59-1.125S2014.088,5431.37,2014.088,5431.991Z" fill="#ffe388" opacity="0.55"/>
            <path id="Trazado_5695" data-name="Trazado 5695" d="M2012.179,5434.308c-2.132,0-3.86-1.31-3.86-2.926,0-.055.007-.109.011-.164a2.543,2.543,0,0,0-.925,1.9c0,1.615,1.728,2.925,3.859,2.925,2.059,0,3.736-1.222,3.849-2.76A4.438,4.438,0,0,1,2012.179,5434.308Z" fill="#cfa0ae" opacity="0.55"/>
          </g>
          <g id="Grupo_1906" data-name="Grupo 1906">
            <path id="Trazado_5696" data-name="Trazado 5696" d="M1981.31,5410.936s-6.846-5.44-11.347,1.01,7.3,21.248,16.715,18.287,11.443-20.073,2.949-23.712C1983.734,5404,1981.87,5408.1,1981.31,5410.936Z" fill="#d12135"/>
            <path id="Trazado_5697" data-name="Trazado 5697" d="M1979.467,5421.224c-3.6-.841-5.115-6.142-9.074-7.72-1.852,6.384,8.042,18.892,16.011,16.387,4.8-1.51,7.472-7.029,7.567-12.2C1987.186,5423.142,1982.177,5421.858,1979.467,5421.224Z" fill="#a12135" opacity="0.32"/>
            <path id="Trazado_5698" data-name="Trazado 5698" d="M1978.139,5414.486c1.61.948,4.02,1.932,6.043.946,2.232-1.088,2.5-3.239,1.846-5.335-.95-3.045-3.792,1.062-5.337,1.163-1.944.127-4.077-1.724-5.608.512C1974.37,5412.814,1977.441,5414.075,1978.139,5414.486Z" fill="#a12135" opacity="0.32"/>
            <path id="Trazado_5699" data-name="Trazado 5699" d="M1981.928,5413.9s-3.674-9.043-.777-11.551,1.36,2.953.508,3.962S1982.413,5411.852,1981.928,5413.9Z" fill="#542d17"/>
            <path id="Trazado_5700" data-name="Trazado 5700" d="M1987.755,5416.08a5.487,5.487,0,0,0,3.577-1.366,4.186,4.186,0,0,0,1.361-3.513,3.4,3.4,0,0,0-2.367-2.83,1.793,1.793,0,0,0-1.666.28c-.593.54-.528,1.465-.586,2.264a5.75,5.75,0,0,1-.828,2.58,5.252,5.252,0,0,0-.648,1.18,1.114,1.114,0,0,0,.313,1.225A1.412,1.412,0,0,0,1987.755,5416.08Z" fill="#eae3d1" opacity="0.32"/>
            <path id="Trazado_5701" data-name="Trazado 5701" d="M1985.87,5416.957c-.031-.388-.258-.825-.646-.849a1.148,1.148,0,0,0-.6.21,5.619,5.619,0,0,1-3.857.576,23.12,23.12,0,0,0-3.321-.9,1.166,1.166,0,0,0-.756.157,1.079,1.079,0,0,0-.318,1.045,2.942,2.942,0,0,0,1.268,1.914,5.272,5.272,0,0,0,2.2.809,8.758,8.758,0,0,0,2.878-.023,4.726,4.726,0,0,0,2.175-.886A2.481,2.481,0,0,0,1985.87,5416.957Z" fill="#eae3d1" opacity="0.32"/>
            <path id="Trazado_5702" data-name="Trazado 5702" d="M1987.447,5418.186a1.616,1.616,0,0,0,.96.021.648.648,0,0,0-.275-1.267,1.626,1.626,0,0,0-.9.442.542.542,0,0,0-.248.423C1987,5418.019,1987.24,5418.131,1987.447,5418.186Z" fill="#eae3d1" opacity="0.32"/>
          </g>
          <g id="Grupo_1909" data-name="Grupo 1909">
            <g id="Grupo_1908" data-name="Grupo 1908">
              <path id="Trazado_5703" data-name="Trazado 5703" d="M1990.878,5429.052a17.6,17.6,0,0,1-2.135,3.341,7.567,7.567,0,0,1-2.849,2.083,7.164,7.164,0,0,1-5.321-.48,21.073,21.073,0,0,1-2.663-1.544,19.644,19.644,0,0,0-3.475-2.285,5.437,5.437,0,0,0-1.991-.437,9.533,9.533,0,0,0-3.914.828c-.073.028-.149.048-.217.082-1.524.732-2.625,1.362-3.452,1.765a13.322,13.322,0,0,1-6.461,1.279l-6.493,5.634a48.544,48.544,0,0,0,10.839-1.278c4.55-1.278,10.225-3.528,11.657-3.476s8.538,4.09,10.378,4.754,8.64,1.534,11.555-7.311Z" fill="#ffaf29"/>
              <path id="Trazado_5704" data-name="Trazado 5704" d="M1993.483,5432.87c.509.15,1.38.458,2.275.654.206-.471.4-.975.578-1.517l-5.458-2.955s-.3.63-.8,1.455A9.286,9.286,0,0,0,1993.483,5432.87Z" fill="#c99a5f" opacity="0.55"/>
              <path id="Trazado_5705" data-name="Trazado 5705" d="M1991.981,5436.289a13.548,13.548,0,0,1-4.12-3.035,7.442,7.442,0,0,1-1.727,1.123,5.143,5.143,0,0,1,.415,4.036,4.759,4.759,0,0,1-.653,1.179,8.487,8.487,0,0,0,7.726-2.7A9.141,9.141,0,0,1,1991.981,5436.289Z" fill="#c99a5f" opacity="0.32"/>
              <path id="Trazado_5706" data-name="Trazado 5706" d="M1968.371,5433.844a12.345,12.345,0,0,1-1.181-1.887c-.11-.2-.219-.394-.332-.589-.807.418-1.461.776-2,1.037a13.322,13.322,0,0,1-6.461,1.279l-6.493,5.634a48.544,48.544,0,0,0,10.839-1.278c2.416-.679,5.145-1.629,7.392-2.366A14.608,14.608,0,0,1,1968.371,5433.844Z" fill="#c99a5f" opacity="0.32"/>
              <path id="Trazado_5707" data-name="Trazado 5707" d="M1982.884,5434.7a9.807,9.807,0,0,1-2.311-.7,20.138,20.138,0,0,1-2.451-1.4,8.758,8.758,0,0,1-.694,1.371,15.854,15.854,0,0,1-.949,1.32c1.612.72,3.775,1.844,5.547,2.738A10.032,10.032,0,0,0,1982.884,5434.7Z" fill="#c99a5f" opacity="0.32"/>
              <path id="Trazado_5708" data-name="Trazado 5708" d="M1995.415,5434.248a16.432,16.432,0,0,0,.921-2.241l-5.458-2.955a18.5,18.5,0,0,1-1.555,2.594C1990.977,5433.375,1993.149,5433.924,1995.415,5434.248Z" fill="#c99a5f" opacity="0.55"/>
              <path id="Trazado_5709" data-name="Trazado 5709" d="M1984.781,5438.814c-1.84-.664-8.947-4.7-10.378-4.755s-7.107,2.2-11.657,3.477a46.479,46.479,0,0,1-10.249,1.27l-.59.512a48.544,48.544,0,0,0,10.839-1.278c4.55-1.278,10.225-3.528,11.657-3.476s8.538,4.09,10.378,4.754,8.64,1.534,11.555-7.311l-.15-.081C1993.2,5440.312,1986.591,5439.468,1984.781,5438.814Z" fill="#ffdfa0"/>
              <path id="Trazado_5710" data-name="Trazado 5710" d="M1963.364,5435.317a13.272,13.272,0,0,0,.473-2.486,12.739,12.739,0,0,1-5.437.853l-6.493,5.634a51.242,51.242,0,0,0,9.945-1.048A15.031,15.031,0,0,0,1963.364,5435.317Z" fill="#c99a5f" opacity="0.55"/>
              <path id="Trazado_5711" data-name="Trazado 5711" d="M1990.609,5428.555l-1.011,2a.337.337,0,0,0,.123.44,26.69,26.69,0,0,0,5.909,2.747.336.336,0,0,0,.4-.173,15.433,15.433,0,0,0,.939-2.281.329.329,0,0,0-.181-.384c-.939-.445-4.315-2.029-5.772-2.514A.333.333,0,0,0,1990.609,5428.555Z" fill="#4e6175"/>
              <path id="Trazado_5712" data-name="Trazado 5712" d="M1992.429,5430.78a6.092,6.092,0,0,1-2.186-1.5l-.645,1.274a.338.338,0,0,0,.123.44,26.668,26.668,0,0,0,5.909,2.747.336.336,0,0,0,.4-.173,17.95,17.95,0,0,0,.828-1.929A8.574,8.574,0,0,1,1992.429,5430.78Z" fill="#2e445c"/>
              <g id="Grupo_1907" data-name="Grupo 1907">
                <path id="Trazado_5713" data-name="Trazado 5713" d="M1960.086,5433.692l.107,1.8.213-.018-.172-1.791Z" fill="#2e445c"/>
                <path id="Trazado_5714" data-name="Trazado 5714" d="M1960.569,5433.641l.113.866.178-.027-.124-.865Z" fill="#2e445c"/>
                <path id="Trazado_5715" data-name="Trazado 5715" d="M1961.078,5433.563l.146.861.178-.033-.156-.859Z" fill="#2e445c"/>
                <path id="Trazado_5716" data-name="Trazado 5716" d="M1961.587,5433.464l.175.856.177-.036-.184-.854Z" fill="#2e445c"/>
                <path id="Trazado_5717" data-name="Trazado 5717" d="M1962.094,5433.352l.2.849.175-.044-.212-.847Z" fill="#2e445c"/>
                <path id="Trazado_5718" data-name="Trazado 5718" d="M1962.763,5433.181l-.166.042.476,1.735.185-.048.182-.057-.514-1.725Z" fill="#2e445c"/>
                <path id="Trazado_5719" data-name="Trazado 5719" d="M1963.256,5433.021l.268.831.172-.056-.278-.828Z" fill="#2e445c"/>
                <path id="Trazado_5720" data-name="Trazado 5720" d="M1963.75,5432.862l.3.822.167-.067-.306-.818Z" fill="#2e445c"/>
                <path id="Trazado_5721" data-name="Trazado 5721" d="M1964.228,5432.668l.326.811.167-.068-.336-.807Z" fill="#2e445c"/>
                <path id="Trazado_5722" data-name="Trazado 5722" d="M1964.706,5432.475l.356.8.164-.075-.366-.793Z" fill="#2e445c"/>
                <path id="Trazado_5723" data-name="Trazado 5723" d="M1965.317,5432.171l-.15.077.8,1.613.172-.087.172-.088-.84-1.591Z" fill="#2e445c"/>
                <path id="Trazado_5724" data-name="Trazado 5724" d="M1965.774,5431.939l.428.761.159-.085-.431-.76Z" fill="#2e445c"/>
                <path id="Trazado_5725" data-name="Trazado 5725" d="M1966.26,5431.671l.423.764.158-.088-.419-.767Z" fill="#2e445c"/>
                <path id="Trazado_5726" data-name="Trazado 5726" d="M1966.757,5431.4l.409.772.16-.085-.4-.774Z" fill="#2e445c"/>
                <path id="Trazado_5727" data-name="Trazado 5727" d="M1967.263,5431.141l.392.781.162-.081-.385-.784Z" fill="#2e445c"/>
                <path id="Trazado_5728" data-name="Trazado 5728" d="M1967.951,5430.811l-.172.079.763,1.629.156-.072.156-.072-.731-1.645Z" fill="#2e445c"/>
                <path id="Trazado_5729" data-name="Trazado 5729" d="M1968.482,5430.579l.336.807.167-.07-.326-.81Z" fill="#2e445c"/>
                <path id="Trazado_5730" data-name="Trazado 5730" d="M1969.025,5430.364l.3.819.17-.062-.291-.824Z" fill="#2e445c"/>
                <path id="Trazado_5731" data-name="Trazado 5731" d="M1969.584,5430.171l.265.833.174-.053-.25-.837Z" fill="#2e445c"/>
                <path id="Trazado_5732" data-name="Trazado 5732" d="M1970.158,5430l.219.846.176-.042-.2-.85Z" fill="#2e445c"/>
                <path id="Trazado_5733" data-name="Trazado 5733" d="M1970.949,5429.836l-.2.033.339,1.767.157-.025.157-.026-.254-1.781Z" fill="#2e445c"/>
                <path id="Trazado_5734" data-name="Trazado 5734" d="M1971.562,5429.757l.077.87.181-.015-.052-.872Z" fill="#2e445c"/>
                <path id="Trazado_5735" data-name="Trazado 5735" d="M1972.189,5430.6h.182l.028-.873-.209,0Z" fill="#2e445c"/>
                <path id="Trazado_5736" data-name="Trazado 5736" d="M1972.739,5430.63l.181.02.117-.866-.211-.023Z" fill="#2e445c"/>
                <path id="Trazado_5737" data-name="Trazado 5737" d="M1973.464,5429.86l-.18.854.178.039.211-.848Z" fill="#2e445c"/>
                <path id="Trazado_5738" data-name="Trazado 5738" d="M1974.293,5430.1l-.2-.07-.565,1.708.139.047a1.171,1.171,0,0,1,.139.05l.691-1.661C1974.5,5430.167,1974.293,5430.1,1974.293,5430.1Z" fill="#2e445c"/>
                <path id="Trazado_5739" data-name="Trazado 5739" d="M1974.887,5430.36l-.395.779.163.08.423-.764Z" fill="#2e445c"/>
                <path id="Trazado_5740" data-name="Trazado 5740" d="M1975.444,5430.683l-.475.733.154.1.5-.716Z" fill="#2e445c"/>
                <rect id="Rectngulo_223" data-name="Rectngulo 223" width="0.873" height="0.182" transform="matrix(0.592, -0.806, 0.806, 0.592, 1975.423, 5431.726)" fill="#2e445c"/>
                <rect id="Rectngulo_224" data-name="Rectngulo 224" width="0.873" height="0.181" transform="translate(1975.864 5432.053) rotate(-53.342)" fill="#2e445c"/>
                <path id="Trazado_5741" data-name="Trazado 5741" d="M1976.967,5431.783l-.144-.105-1.068,1.448.148.108.149.108,1.058-1.455Z" fill="#2e445c"/>
                <path id="Trazado_5742" data-name="Trazado 5742" d="M1977.4,5432.1l-.507.711.147.1.5-.714Z" fill="#2e445c"/>
                <rect id="Rectngulo_225" data-name="Rectngulo 225" width="0.873" height="0.178" transform="matrix(0.566, -0.824, 0.824, 0.566, 1977.344, 5433.123)" fill="#2e445c"/>
                <path id="Trazado_5743" data-name="Trazado 5743" d="M1978.279,5432.7l-.48.73.151.1.474-.733Z" fill="#2e445c"/>
                <path id="Trazado_5744" data-name="Trazado 5744" d="M1978.415,5433.82l.455-.745-.147-.092-.462.741Z" fill="#2e445c"/>
                <path id="Trazado_5745" data-name="Trazado 5745" d="M1979.32,5433.342l-.148-.087-.909,1.553.163.1.166.093.878-1.57Z" fill="#2e445c"/>
                <path id="Trazado_5746" data-name="Trazado 5746" d="M1979.776,5433.593l-.41.771.16.083.4-.776Z" fill="#2e445c"/>
                <path id="Trazado_5747" data-name="Trazado 5747" d="M1980.237,5433.827l-.382.786.163.077.372-.791Z" fill="#2e445c"/>
                <path id="Trazado_5748" data-name="Trazado 5748" d="M1980.7,5434.042l-.35.8.166.071.339-.805Z" fill="#2e445c"/>
                <path id="Trazado_5749" data-name="Trazado 5749" d="M1981.173,5434.235l-.314.815.169.064.3-.82Z" fill="#2e445c"/>
                <path id="Trazado_5750" data-name="Trazado 5750" d="M1981.649,5434.405l-.564,1.708.186.062.19.054.5-1.727-.158-.045Z" fill="#2e445c"/>
                <path id="Trazado_5751" data-name="Trazado 5751" d="M1982.073,5435.44l.176.039.195-.852-.159-.034Z" fill="#2e445c"/>
                <path id="Trazado_5752" data-name="Trazado 5752" d="M1982.608,5435.558l.178.027.14-.862-.159-.023Z" fill="#2e445c"/>
                <path id="Trazado_5753" data-name="Trazado 5753" d="M1983.149,5435.639s.179.015.179.015l.08-.87s-.159-.009-.159-.013Z" fill="#2e445c"/>
                <path id="Trazado_5754" data-name="Trazado 5754" d="M1983.694,5435.681s.18,0,.18,0l.014-.873s-.157,0-.158,0Z" fill="#2e445c"/>
                <path id="Trazado_5755" data-name="Trazado 5755" d="M1984.364,5434.8l-.156.008.068,1.8s.2-.011.2-.011l.205-.019-.166-1.791Z" fill="#2e445c"/>
                <path id="Trazado_5756" data-name="Trazado 5756" d="M1984.834,5434.75l.13.864.177-.033-.155-.86Z" fill="#2e445c"/>
                <path id="Trazado_5757" data-name="Trazado 5757" d="M1985.3,5434.662l.2.849.173-.05-.229-.843Z" fill="#2e445c"/>
                <path id="Trazado_5758" data-name="Trazado 5758" d="M1985.749,5434.531l.277.829c0,.005.169-.064.169-.064l-.3-.82A1.275,1.275,0,0,1,1985.749,5434.531Z" fill="#2e445c"/>
                <path id="Trazado_5759" data-name="Trazado 5759" d="M1986.188,5434.36l.347.8s.167-.068.165-.072l-.369-.792S1986.188,5434.36,1986.188,5434.36Z" fill="#2e445c"/>
                <path id="Trazado_5760" data-name="Trazado 5760" d="M1986.754,5434.08l-.14.071.849,1.586.182-.094s.173-.106.173-.106l-.929-1.541S1986.756,5434.085,1986.754,5434.08Z" fill="#2e445c"/>
                <path id="Trazado_5761" data-name="Trazado 5761" d="M1987.8,5434.448l-.506-.712-.133.087.488.724Z" fill="#2e445c"/>
                <path id="Trazado_5762" data-name="Trazado 5762" d="M1987.552,5433.534l.538.688.142-.111-.553-.676Z" fill="#2e445c"/>
                <path id="Trazado_5763" data-name="Trazado 5763" d="M1987.928,5433.22l.581.652.132-.123-.594-.641Z" fill="#2e445c"/>
                <path id="Trazado_5764" data-name="Trazado 5764" d="M1988.292,5432.884l.619.616.122-.133-.63-.605Z" fill="#2e445c"/>
                <path id="Trazado_5765" data-name="Trazado 5765" d="M1988.743,5432.393l-.112.121,1.34,1.2.132-.145.066-.072.061-.076-1.379-1.156Z" fill="#2e445c"/>
                <path id="Trazado_5766" data-name="Trazado 5766" d="M1989.86,5432.4l-.694-.531-.1.131.686.541Z" fill="#2e445c"/>
                <path id="Trazado_5767" data-name="Trazado 5767" d="M1990.182,5431.955l-.715-.5-.1.14.708.511Z" fill="#2e445c"/>
                <path id="Trazado_5768" data-name="Trazado 5768" d="M1989.663,5431.168l.727.483.1-.149-.733-.474Z" fill="#2e445c"/>
                <path id="Trazado_5769" data-name="Trazado 5769" d="M1989.941,5430.731l.744.458.093-.155-.749-.45Z" fill="#2e445c"/>
                <path id="Trazado_5770" data-name="Trazado 5770" d="M1990.3,5430.138l-.088.147,1.561.894.1-.164Z" fill="#2e445c"/>
              </g>
            </g>
            <path id="Trazado_5771" data-name="Trazado 5771" d="M1951.462,5417.1a11.277,11.277,0,1,0,11.556,11.273A11.417,11.417,0,0,0,1951.462,5417.1Zm0,15.473a4.2,4.2,0,1,1,4.3-4.2A4.254,4.254,0,0,1,1951.462,5432.568Z" fill="url(#radial-gradient)"/>
            <path id="Trazado_5772" data-name="Trazado 5772" d="M1951.462,5417.1a11.277,11.277,0,1,0,11.556,11.273A11.417,11.417,0,0,0,1951.462,5417.1Zm0,22.014a10.744,10.744,0,1,1,11.01-10.741A10.879,10.879,0,0,1,1951.462,5439.109Z" fill="#ffdfa0"/>
            <path id="Trazado_5773" data-name="Trazado 5773" d="M1951.462,5423.126a5.244,5.244,0,1,0,5.373,5.242A5.309,5.309,0,0,0,1951.462,5423.126Zm0,9.442a4.2,4.2,0,1,1,4.3-4.2A4.254,4.254,0,0,1,1951.462,5432.568Z" fill="#b37f5f" opacity="0.55"/>
            <path id="Trazado_5774" data-name="Trazado 5774" d="M1951.462,5418.83a9.542,9.542,0,1,0,9.778,9.538A9.66,9.66,0,0,0,1951.462,5418.83Zm0,18.707a9.171,9.171,0,1,1,9.4-9.169A9.286,9.286,0,0,1,1951.462,5437.537Z" fill="#8e7b78"/>
            <path id="Trazado_5775" data-name="Trazado 5775" d="M1951.462,5420.389a7.982,7.982,0,1,0,8.179,7.979A8.081,8.081,0,0,0,1951.462,5420.389Zm0,15.649a7.672,7.672,0,1,1,7.862-7.67A7.768,7.768,0,0,1,1951.462,5436.038Z" fill="#8e7b78"/>
            <path id="Trazado_5776" data-name="Trazado 5776" d="M1951.462,5422.029a6.341,6.341,0,1,0,6.5,6.339A6.421,6.421,0,0,0,1951.462,5422.029Zm0,12.433a6.1,6.1,0,1,1,6.246-6.094A6.172,6.172,0,0,1,1951.462,5434.462Z" fill="#8e7b78"/>
          </g>
        </g>
      </g>
    </g>
  </g>
</svg>
