<svg xmlns="http://www.w3.org/2000/svg" width="160.483" height="125.643" viewBox="0 0 160.483 125.643">
  <g id="Grupo_3490" data-name="Grupo 3490" transform="translate(-976.983 -4057.324)">
    <path id="Trazado_4193" data-name="Trazado 4193" d="M2689.922,4078.012a62.822,62.822,0,1,1-62.822-62.822A62.823,62.823,0,0,1,2689.922,4078.012Z" transform="translate(-1572 42.135)" fill="#43ab6c"/>
    <g id="Grupo_1545" data-name="Grupo 1545" transform="translate(-1572 42.135)" opacity="0.9">
      <path id="Trazado_4200" data-name="Trazado 4200" d="M2591.794,4047.428v8.4l-19.841,47.6h-13.431l19.154-45.44h-17.7v9.12h-10.989v-19.68Z" fill="#00181e"/>
      <path id="Trazado_4201" data-name="Trazado 4201" d="M2606.828,4100.948a22.8,22.8,0,0,1-8.128-9.96,42.673,42.673,0,0,1,0-31.12,22.809,22.809,0,0,1,8.128-9.96,22.055,22.055,0,0,1,23.656,0,22.834,22.834,0,0,1,8.128,9.96,42.673,42.673,0,0,1,0,31.12,22.821,22.821,0,0,1-8.128,9.96,22.055,22.055,0,0,1-23.656,0Zm19.5-11.92q2.785-4.4,2.786-13.6t-2.786-13.6a8.817,8.817,0,0,0-15.262,0q-2.787,4.4-2.785,13.6t2.785,13.6a8.817,8.817,0,0,0,15.262,0Z" fill="#00181e"/>
      <path id="Trazado_4202" data-name="Trazado 4202" d="M2650.363,4073.468q-3.7-4.2-3.7-11.24t3.7-11.24a12.976,12.976,0,0,1,19.116,0q3.663,4.2,3.663,11.24t-3.663,11.24a12.976,12.976,0,0,1-19.116,0Zm13.659-4.6q1.488-2.238,1.488-6.64t-1.488-6.64a4.783,4.783,0,0,0-8.127.04,15.034,15.034,0,0,0,0,13.2,4.783,4.783,0,0,0,8.127.04Zm27.74-21.44h9.081l-36.477,56h-9.081Zm-2.4,54.76a12.52,12.52,0,0,1-4.693-5.4,20.669,20.669,0,0,1,0-16.32,12.31,12.31,0,0,1,11.523-7.28,12.173,12.173,0,0,1,9.577,4.2q3.7,4.2,3.7,11.24t-3.7,11.24a12.174,12.174,0,0,1-9.577,4.2A12.646,12.646,0,0,1,2689.358,4102.188Zm10.913-6.96a15.381,15.381,0,0,0,0-13.2,4.784,4.784,0,0,0-8.128-.04q-1.527,2.241-1.526,6.64t1.526,6.64a4.784,4.784,0,0,0,8.128-.04Z" fill="#00181e"/>
    </g>
  </g>
</svg>
