<svg xmlns="http://www.w3.org/2000/svg" xmlns:xlink="http://www.w3.org/1999/xlink" width="444.681" height="377.666" viewBox="0 0 444.681 377.666">
  <defs>
    <filter id="Rectángulo_189" x="37.483" y="0" width="407.197" height="316.124" filterUnits="userSpaceOnUse">
      <feOffset dx="7" dy="7" input="SourceAlpha"/>
      <feGaussianBlur stdDeviation="2.5" result="blur"/>
      <feFlood flood-color="#515151" flood-opacity="0.451"/>
      <feComposite operator="in" in2="blur"/>
      <feComposite in="SourceGraphic"/>
    </filter>
  </defs>
  <g id="Grupo_3488" data-name="Grupo 3488" transform="translate(-1813.853 -5725.409)">
    <g transform="matrix(1, 0, 0, 1, 1813.85, 5725.41)" filter="url(#Rectángulo_189)">
      <rect id="Rectángulo_189-2" data-name="Rectángulo 189" width="392.197" height="301.124" transform="translate(37.98 0.5)" fill="#fff"/>
    </g>
    <rect id="Rectángulo_190" data-name="Rectángulo 190" width="53.933" height="301.117" transform="translate(1851.837 5725.909)" fill="#a3bd31"/>
    <rect id="Rectángulo_191" data-name="Rectángulo 191" width="33.337" height="338.499" transform="translate(1905.77 5759.246) rotate(-90)" fill="#76aadb"/>
    <text id="Alimento_" data-name="Alimento 
" transform="translate(1905.019 5731.832)" fill="#fff" font-size="16" font-family="OpenSans-Bold, Open Sans" font-weight="700"><tspan x="22.717" y="17">Alimento </tspan><tspan x="59.385" y="39"></tspan></text>
    <text id="Garbanzos_Lentejas_Alubias_Guisantes_Habas_Judias_" data-name="Garbanzos

Lentejas

Alubias

Guisantes

Habas

Judias
" transform="translate(1905.019 5770.554)" fill="#444242" font-size="16" font-family="OpenSans, Open Sans"><tspan x="12.551" y="17">Garbanzos</tspan><tspan x="52.742" y="39"></tspan><tspan x="21.59" y="61">Lentejas</tspan><tspan x="52.742" y="83"></tspan><tspan x="25.555" y="105">Alubias</tspan><tspan x="52.742" y="127"></tspan><tspan x="15.68" y="149">Guisantes</tspan><tspan x="52.742" y="171"></tspan><tspan x="29.223" y="193">Habas</tspan><tspan x="52.742" y="215"></tspan><tspan x="30.504" y="237">Judias</tspan><tspan x="52.742" y="259"></tspan></text>
    <text id="Cocidos_Estofadas_Pintas_Secos_Rehogadas_Fabada_" data-name="Cocidos

Estofadas

Pintas

Secos

Rehogadas

Fabada
" transform="translate(2026.542 5770.554)" fill="#db9600" font-size="16" font-family="OpenSans, Open Sans"><tspan x="24.052" y="17">Cocidos</tspan><tspan x="53.314" y="39"></tspan><tspan x="17.064" y="61">Estofadas</tspan><tspan x="53.314" y="83"></tspan><tspan x="30.474" y="105">Pintas</tspan><tspan x="53.314" y="127"></tspan><tspan x="31.978" y="149">Secos</tspan><tspan x="53.314" y="171"></tspan><tspan x="12.138" y="193">Rehogadas</tspan><tspan x="53.314" y="215"></tspan><tspan x="26.033" y="237">Fabada</tspan><tspan x="53.314" y="259"></tspan></text>
    <text id="_1090_690_285_346_100_1300" data-name="1090

690

285

346

100

1300" transform="translate(2129.583 5770.554)" fill="#444242" font-size="16" font-family="OpenSans, Open Sans"><tspan x="41.088" y="17">1090</tspan><tspan x="59.385" y="39"></tspan><tspan x="45.662" y="61">690</tspan><tspan x="59.385" y="83"></tspan><tspan x="45.662" y="105">285</tspan><tspan x="59.385" y="127"></tspan><tspan x="45.662" y="149">346</tspan><tspan x="59.385" y="171"></tspan><tspan x="45.662" y="193">100</tspan><tspan x="59.385" y="215"></tspan><tspan x="41.088" y="237">1300</tspan></text>
    <text id="Calorias" transform="translate(2128.864 5731.832)" fill="#fff" font-size="16" font-family="OpenSans-Bold, Open Sans" font-weight="700"><tspan x="27.898" y="17">Calorias</tspan></text>
    <g id="Grupo_2027" data-name="Grupo 2027">
      <g id="Grupo_1913" data-name="Grupo 1913">
        <path id="Trazado_5777" data-name="Trazado 5777" d="M1838.035,6096.11l0,0a117.66,117.66,0,0,1-13.744,6.832,1.2,1.2,0,0,1-1.441-.226c-.558-.621-.135-1.561.008-1.835.11-.225.307-.568.565-1.015,12.826-22.17,9.272-55.566,4.035-79.683-1.359-6.251-3.351-12.4-5.279-18.34-2.376-7.327-4.832-14.905-6.185-22.88-2.358-13.887-4.193-32.168,2.61-50.434,1.729-4.636,3.361-9.012,8.961-13.356l.42-.327.478.237c5.2,2.571,9.871,2.666,15.787,2.788.158,0,.282,0,.406,0l1.229,0-.062.9a1.626,1.626,0,0,0,.447,1.258,8.554,8.554,0,0,0,1.367,1.2,2.489,2.489,0,0,1,.629,1.926,3.765,3.765,0,0,0,.078.776l.245.235-.053.243c1.816,32.721,13.228,51.8,23.3,68.644,2.206,3.691,4.292,7.179,6.253,10.746,5.956,10.86,8.111,23.326,6.4,37.053C1881.128,6067.827,1853.943,6087.051,1838.035,6096.11Zm-13.249,4.79a126.263,126.263,0,0,0,12.4-6.265c15.633-8.9,42.343-27.754,45.608-53.989,1.662-13.365-.425-25.486-6.2-36.023-1.946-3.543-4.025-7.017-6.223-10.693-10.146-16.964-21.64-36.19-23.522-69.174a3.443,3.443,0,0,1-.285-1.532,5.5,5.5,0,0,0-.054-.705,10.061,10.061,0,0,1-1.489-1.336,3.309,3.309,0,0,1-.84-1.612c-5.944-.123-10.668-.224-15.989-2.726-4.886,3.933-6.332,7.81-8,12.281-6.664,17.885-4.852,35.879-2.526,49.553,1.33,7.855,3.768,15.373,6.124,22.643,1.941,5.983,3.946,12.167,5.321,18.5,5.3,24.409,8.876,58.254-4.224,80.894C1824.855,6100.783,1824.819,6100.842,1824.786,6100.9Z" fill="#3a7d18"/>
      </g>
      <g id="Grupo_1915" data-name="Grupo 1915">
        <g id="Grupo_1914" data-name="Grupo 1914">
          <path id="Trazado_5778" data-name="Trazado 5778" d="M1848.22,5904.949c-2.425,1.456-5.477,1.6-8.153,2.934a25.977,25.977,0,0,0-7.15,5.448,52.945,52.945,0,0,0-12.088,20.023c-5.195,15.437-4.065,31.138-.994,46.8,2.639,13.474,7.488,25.723,11.669,38.538,4.38,13.432,5.3,27.581,4.95,41.7-.117,4.9-.022,10.008-.5,14.831-.4,4.048-2.1,8.383-1.96,12.445,12.044-6.123,18.356-23.329,21.571-35.594,2.012-7.673,5.122-15.379,5.841-23.476.857-9.622-1.138-18.6-4.177-27.544-2.747-8.094-6.045-16.068-8.21-24.38-1.96-7.525-6.468-13.667-7.652-21.688-1.805-12.211-3.41-27.109,1.2-38.812.913-2.323,6.032-8.93,5.885-10.07Z" fill="#488528"/>
        </g>
      </g>
      <g id="Grupo_1917" data-name="Grupo 1917">
        <g id="Grupo_1916" data-name="Grupo 1916">
          <path id="Trazado_5779" data-name="Trazado 5779" d="M1848.22,5904.949c-2.459,1.475-5.543,1.634-8.252,2.99a26.679,26.679,0,0,0-7.255,5.508,53.861,53.861,0,0,0-12.325,20.158c-5.337,15.518-4.286,31.263-1.273,46.959,2.587,13.5,7.417,25.764,11.562,38.6,4.349,13.449,5.192,27.64,4.762,41.8-.147,4.914-.079,10.041-.589,14.882-.431,4.064-2.17,8.423-2.052,12.5,12.2-6.211,18.675-23.51,21.995-35.835,2.074-7.708,5.263-15.459,6.035-23.587.922-9.659-1.043-18.655-4.06-27.61-2.729-8.1-6.016-16.085-8.153-24.412-1.939-7.538-6.454-13.676-7.606-21.715-1.75-12.242-3.289-27.177,1.435-38.946.936-2.336,6.143-8.994,6-10.136Z" fill="#4da620"/>
        </g>
      </g>
      <g id="Grupo_1919" data-name="Grupo 1919">
        <g id="Grupo_1918" data-name="Grupo 1918">
          <path id="Trazado_5780" data-name="Trazado 5780" d="M1848.22,5904.949c-2.425,1.456-5.477,1.6-8.153,2.934a25.977,25.977,0,0,0-7.15,5.448,52.945,52.945,0,0,0-12.088,20.023c-5.195,15.437-4.065,31.138-.994,46.8,2.639,13.474,7.488,25.723,11.669,38.538,4.38,13.432,5.3,27.581,4.95,41.7-.117,4.9-.022,10.008-.5,14.831-.4,4.048-2.1,8.383-1.96,12.445,12.044-6.123,18.356-23.329,21.571-35.594,2.012-7.673,5.122-15.379,5.841-23.476.857-9.622-1.138-18.6-4.177-27.544-2.747-8.094-6.045-16.068-8.21-24.38-1.96-7.525-6.468-13.667-7.652-21.688-1.805-12.211-3.41-27.109,1.2-38.812.913-2.323,6.032-8.93,5.885-10.07Z" fill="#488528"/>
        </g>
      </g>
      <g id="Grupo_1926" data-name="Grupo 1926">
        <g id="Grupo_1922" data-name="Grupo 1922">
          <g id="Grupo_1921" data-name="Grupo 1921">
            <g id="Grupo_1920" data-name="Grupo 1920">
              <path id="Trazado_5781" data-name="Trazado 5781" d="M1836.782,5983.4a10.108,10.108,0,1,1-11.151,8.763A10.027,10.027,0,0,1,1836.782,5983.4Z" fill="#f6ffda"/>
            </g>
          </g>
        </g>
        <g id="Grupo_1925" data-name="Grupo 1925">
          <g id="Grupo_1924" data-name="Grupo 1924">
            <g id="Grupo_1923" data-name="Grupo 1923">
              <path id="Trazado_5782" data-name="Trazado 5782" d="M1830.512,5986.669c1.579.2-.2,2.825-.612,6.039s.7,5.807-.875,5.6-2.529-2.97-2.117-6.186S1828.932,5986.469,1830.512,5986.669Z" fill="#fff"/>
            </g>
          </g>
        </g>
      </g>
      <g id="Grupo_1933" data-name="Grupo 1933">
        <g id="Grupo_1929" data-name="Grupo 1929">
          <g id="Grupo_1928" data-name="Grupo 1928">
            <g id="Grupo_1927" data-name="Grupo 1927">
              <path id="Trazado_5783" data-name="Trazado 5783" d="M1831.325,5966.9a8.819,8.819,0,1,1-9.7,7.648A8.739,8.739,0,0,1,1831.325,5966.9Z" fill="#f6ffda"/>
            </g>
          </g>
        </g>
        <g id="Grupo_1932" data-name="Grupo 1932">
          <g id="Grupo_1931" data-name="Grupo 1931">
            <g id="Grupo_1930" data-name="Grupo 1930">
              <path id="Trazado_5784" data-name="Trazado 5784" d="M1825.869,5969.756c1.375.176-.173,2.463-.532,5.267s.607,5.065-.765,4.89-2.2-2.591-1.84-5.4S1824.5,5969.581,1825.869,5969.756Z" fill="#fff"/>
            </g>
          </g>
        </g>
      </g>
      <g id="Grupo_1940" data-name="Grupo 1940">
        <g id="Grupo_1936" data-name="Grupo 1936">
          <g id="Grupo_1935" data-name="Grupo 1935">
            <g id="Grupo_1934" data-name="Grupo 1934">
              <path id="Trazado_5785" data-name="Trazado 5785" d="M1840.831,6001.243a9.289,9.289,0,1,1-10.221,8.057A9.2,9.2,0,0,1,1840.831,6001.243Z" fill="#f6ffda"/>
            </g>
          </g>
        </g>
        <g id="Grupo_1939" data-name="Grupo 1939">
          <g id="Grupo_1938" data-name="Grupo 1938">
            <g id="Grupo_1937" data-name="Grupo 1937">
              <path id="Trazado_5786" data-name="Trazado 5786" d="M1835.082,6004.246c1.447.188-.185,2.595-.561,5.55s.64,5.335-.805,5.15-2.314-2.728-1.937-5.686S1833.638,6004.063,1835.082,6004.246Z" fill="#fff"/>
            </g>
          </g>
        </g>
      </g>
      <g id="Grupo_1947" data-name="Grupo 1947">
        <g id="Grupo_1943" data-name="Grupo 1943">
          <g id="Grupo_1942" data-name="Grupo 1942">
            <g id="Grupo_1941" data-name="Grupo 1941">
              <path id="Trazado_5787" data-name="Trazado 5787" d="M1845.117,6018.006a8.879,8.879,0,1,1-9.77,7.7A8.8,8.8,0,0,1,1845.117,6018.006Z" fill="#f6ffda"/>
            </g>
          </g>
        </g>
        <g id="Grupo_1946" data-name="Grupo 1946">
          <g id="Grupo_1945" data-name="Grupo 1945">
            <g id="Grupo_1944" data-name="Grupo 1944">
              <path id="Trazado_5788" data-name="Trazado 5788" d="M1839.622,6020.875c1.384.181-.177,2.482-.535,5.305s.61,5.1-.77,4.922-2.213-2.606-1.852-5.433S1838.239,6020.7,1839.622,6020.875Z" fill="#fff"/>
            </g>
          </g>
        </g>
      </g>
      <g id="Grupo_1954" data-name="Grupo 1954">
        <g id="Grupo_1950" data-name="Grupo 1950">
          <g id="Grupo_1949" data-name="Grupo 1949">
            <g id="Grupo_1948" data-name="Grupo 1948">
              <path id="Trazado_5789" data-name="Trazado 5789" d="M1846.093,6035.76a7.552,7.552,0,1,1-8.309,6.552A7.48,7.48,0,0,1,1846.093,6035.76Z" fill="#f6ffda"/>
            </g>
          </g>
        </g>
        <g id="Grupo_1953" data-name="Grupo 1953">
          <g id="Grupo_1952" data-name="Grupo 1952">
            <g id="Grupo_1951" data-name="Grupo 1951">
              <path id="Trazado_5790" data-name="Trazado 5790" d="M1841.421,6038.2c1.177.153-.15,2.11-.457,4.513s.521,4.338-.655,4.187-1.882-2.218-1.573-4.622S1840.245,6038.051,1841.421,6038.2Z" fill="#fff"/>
            </g>
          </g>
        </g>
      </g>
      <g id="Grupo_1961" data-name="Grupo 1961">
        <g id="Grupo_1957" data-name="Grupo 1957">
          <g id="Grupo_1956" data-name="Grupo 1956">
            <g id="Grupo_1955" data-name="Grupo 1955">
              <path id="Trazado_5791" data-name="Trazado 5791" d="M1845.513,6050.385a5.925,5.925,0,1,1-6.518,5.139A5.869,5.869,0,0,1,1845.513,6050.385Z" fill="#f6ffda"/>
            </g>
          </g>
        </g>
        <g id="Grupo_1960" data-name="Grupo 1960">
          <g id="Grupo_1959" data-name="Grupo 1959">
            <g id="Grupo_1958" data-name="Grupo 1958">
              <path id="Trazado_5792" data-name="Trazado 5792" d="M1841.847,6052.3c.924.122-.119,1.657-.36,3.54s.41,3.405-.512,3.287-1.474-1.741-1.235-3.627S1840.926,6052.184,1841.847,6052.3Z" fill="#fff"/>
            </g>
          </g>
        </g>
      </g>
      <g id="Grupo_1968" data-name="Grupo 1968">
        <g id="Grupo_1964" data-name="Grupo 1964">
          <g id="Grupo_1963" data-name="Grupo 1963">
            <g id="Grupo_1962" data-name="Grupo 1962">
              <path id="Trazado_5793" data-name="Trazado 5793" d="M1829.723,5950.628a8.329,8.329,0,1,1-9.166,7.222A8.248,8.248,0,0,1,1829.723,5950.628Z" fill="#f6ffda"/>
            </g>
          </g>
        </g>
        <g id="Grupo_1967" data-name="Grupo 1967">
          <g id="Grupo_1966" data-name="Grupo 1966">
            <g id="Grupo_1965" data-name="Grupo 1965">
              <path id="Trazado_5794" data-name="Trazado 5794" d="M1824.57,5953.32c1.3.167-.167,2.328-.506,4.975s.576,4.784-.72,4.619-2.075-2.45-1.736-5.1S1823.273,5953.156,1824.57,5953.32Z" fill="#fff"/>
            </g>
          </g>
        </g>
      </g>
      <g id="Grupo_1975" data-name="Grupo 1975">
        <g id="Grupo_1971" data-name="Grupo 1971">
          <g id="Grupo_1970" data-name="Grupo 1970">
            <g id="Grupo_1969" data-name="Grupo 1969">
              <path id="Trazado_5795" data-name="Trazado 5795" d="M1828.594,5938.54a6.63,6.63,0,1,1-7.3,5.749A6.57,6.57,0,0,1,1828.594,5938.54Z" fill="#f6ffda"/>
            </g>
          </g>
        </g>
        <g id="Grupo_1974" data-name="Grupo 1974">
          <g id="Grupo_1973" data-name="Grupo 1973">
            <g id="Grupo_1972" data-name="Grupo 1972">
              <path id="Trazado_5796" data-name="Trazado 5796" d="M1824.493,5940.683c1.031.134-.132,1.852-.4,3.96s.457,3.808-.574,3.677-1.651-1.949-1.382-4.059S1823.46,5940.553,1824.493,5940.683Z" fill="#fff"/>
            </g>
          </g>
        </g>
      </g>
      <g id="Grupo_1982" data-name="Grupo 1982">
        <g id="Grupo_1978" data-name="Grupo 1978">
          <g id="Grupo_1977" data-name="Grupo 1977">
            <g id="Grupo_1976" data-name="Grupo 1976">
              <path id="Trazado_5797" data-name="Trazado 5797" d="M1831.218,5927.513a5.9,5.9,0,1,1-6.494,5.118A5.848,5.848,0,0,1,1831.218,5927.513Z" fill="#f6ffda"/>
            </g>
          </g>
        </g>
        <g id="Grupo_1981" data-name="Grupo 1981">
          <g id="Grupo_1980" data-name="Grupo 1980">
            <g id="Grupo_1979" data-name="Grupo 1979">
              <path id="Trazado_5798" data-name="Trazado 5798" d="M1827.566,5929.42c.92.12-.116,1.651-.355,3.528s.406,3.39-.511,3.272-1.471-1.735-1.232-3.612S1826.648,5929.305,1827.566,5929.42Z" fill="#fff"/>
            </g>
          </g>
        </g>
      </g>
      <g id="Grupo_1984" data-name="Grupo 1984">
        <g id="Grupo_1983" data-name="Grupo 1983">
          <path id="Trazado_5799" data-name="Trazado 5799" d="M1848.176,5904.122c-12.766,9.03-18.665,23.424-19.922,39.107-1.6,20.023,19.458,88.929,16.525,106.438a144.742,144.742,0,0,1-7.285,27.881c-2.512,6.555-6.937,12.694-9.793,18.85,0,0,.714.483.879.4,17.357-8.625,48.022-24,52.731-60.257,1.565-12.052-.4-22.431-6.3-32.8-10.773-18.921-21.547-34.277-26.022-56.194-2.572-12.6-2.21-26.164-.811-38.738.172-1.547.274-3.12.364-4.628.394-.025.027.294,0,.584Z" fill="#6cd138"/>
        </g>
      </g>
      <g id="Grupo_1986" data-name="Grupo 1986">
        <g id="Grupo_1985" data-name="Grupo 1985">
          <path id="Trazado_5800" data-name="Trazado 5800" d="M1848.182,5904.119c-12.543,8.9-18.264,23.195-19.4,38.806-1.441,19.932,19.847,88.708,17.075,106.125a143.772,143.772,0,0,1-7,27.716c-2.579,6.9-7.284,13.321-10.021,19.8,16.083-8.241,48.483-23.242,53-60.329a50.6,50.6,0,0,0-6.457-32.714c-10.772-18.921-21.521-34.292-26.095-56.152-2.633-12.568-2.369-26.073-1.077-38.587.158-1.539.247-3.1.326-4.606.39-.023.028.293.006.582Z" fill="#4da620"/>
        </g>
      </g>
      <g id="Grupo_1988" data-name="Grupo 1988">
        <g id="Grupo_1987" data-name="Grupo 1987">
          <path id="Trazado_5801" data-name="Trazado 5801" d="M1848.182,5904.119c-12.543,8.9-18.264,23.195-19.4,38.806-1.441,19.932,19.847,88.708,17.075,106.125a143.772,143.772,0,0,1-7,27.716c-2.579,6.9-7.284,13.321-10.021,19.8,16.083-8.241,48.483-23.242,53-60.329a50.6,50.6,0,0,0-6.457-32.714c-10.772-18.921-21.521-34.292-26.095-56.152-2.633-12.568-2.369-26.073-1.077-38.587.158-1.539.247-3.1.326-4.606.39-.023.028.293.006.582Z" fill="#4da620"/>
        </g>
      </g>
      <g id="Grupo_1991" data-name="Grupo 1991" opacity="0.22">
        <g id="Grupo_1990" data-name="Grupo 1990">
          <g id="Grupo_1989" data-name="Grupo 1989">
            <path id="Trazado_5802" data-name="Trazado 5802" d="M1881.311,6036.543c1.565-12.052-.4-22.431-6.3-32.8-1.659-2.913-3.315-5.735-4.95-8.517-1.743,5.75-3.952,11.326-7.75,16.208-5.025,6.456-11.988,11.475-19.433,15.106,1.751,10.095,2.686,18.455,1.9,23.129a144.742,144.742,0,0,1-7.285,27.881c-2.663,6.946-6.956,12.328-9.773,18.855.528-.269.558.551,1.119.266C1845.647,6088.1,1876.627,6072.609,1881.311,6036.543Z" fill="#66b23e"/>
          </g>
        </g>
      </g>
      <g id="Grupo_1993" data-name="Grupo 1993">
        <g id="Grupo_1992" data-name="Grupo 1992">
          <path id="Trazado_5803" data-name="Trazado 5803" d="M1848.737,5903.439c-4.465-.888-11.164,2.412-12.663,4.4-4.884,6.458-14.322,9.629-14.727,9.638,1.934.822,10.051,5.846,21.1-5.239a52.686,52.686,0,0,0,3.752-4.346c1.051-1.3,2.53-2.4,2.963-4.059Z" fill="#43911c"/>
        </g>
      </g>
      <g id="Grupo_1995" data-name="Grupo 1995">
        <g id="Grupo_1994" data-name="Grupo 1994">
          <path id="Trazado_5804" data-name="Trazado 5804" d="M1849.7,5904.436c1.049,1.573,1.65,4.381.743,5.942-3.716,6.386-1.37,16.7-1.23,17.541-1.153.142-14.267-8.071-7.573-19.947C1842.44,5906.555,1848.137,5902.1,1849.7,5904.436Z" fill="#3a7d18"/>
        </g>
      </g>
      <g id="Grupo_1997" data-name="Grupo 1997">
        <g id="Grupo_1996" data-name="Grupo 1996">
          <path id="Trazado_5805" data-name="Trazado 5805" d="M1846.325,5902.7c1.584-1.013,2.9-3.208,3.848-5.362a17.757,17.757,0,0,0,1.618-6.919l0-.045a.89.89,0,0,1,1.771-.125,19.829,19.829,0,0,1-.747,8.023,22.065,22.065,0,0,1-1.457,3.833,11.5,11.5,0,0,1-2.647,3.59l-.091.078a1.924,1.924,0,1,1-2.522-2.906A1.779,1.779,0,0,1,1846.325,5902.7Z" fill="#3c8219"/>
        </g>
      </g>
      <g id="Grupo_1998" data-name="Grupo 1998">
        <path id="Trazado_5806" data-name="Trazado 5806" d="M1846.629,5905.709a1.922,1.922,0,0,1,.193-2.712,2.192,2.192,0,0,1,.224-.169c1.584-1.013,2.9-3.208,3.848-5.358a17.825,17.825,0,0,0,1.62-6.921v-.045a.872.872,0,0,1,.673-.851.86.86,0,0,0-.511-.173.888.888,0,0,0-.884.894l0,.045a17.757,17.757,0,0,1-1.618,6.919c-.951,2.154-2.264,4.349-3.848,5.362a1.779,1.779,0,0,0-.225.167,1.925,1.925,0,0,0-.192,2.714,1.9,1.9,0,0,0,1.482.639A1.9,1.9,0,0,1,1846.629,5905.709Z" fill="#3a7d18"/>
      </g>
      <g id="Grupo_2000" data-name="Grupo 2000">
        <g id="Grupo_1999" data-name="Grupo 1999">
          <path id="Trazado_5807" data-name="Trazado 5807" d="M1900.466,5958.647a.83.83,0,0,1-.481.106.839.839,0,0,1-.771-.9,20.854,20.854,0,0,1,1.451-4.826c1.211-3.227,2.724-7.241,1.616-9.31a2.884,2.884,0,0,0-2.054-1.381,9.694,9.694,0,0,0-3.7.254,5.076,5.076,0,0,1-1.443,3.94c-4.212,4.685-10.6,6.405-15.226,7.028-6.43.86-11.764-.867-14.267-4.624-2.878-4.316-2.032-9.608-.977-13.736,1.169-4.579,1.41-7.945.72-10.04a6.178,6.178,0,0,1-4.14,2.3,3.767,3.767,0,0,1-3.233-1.508,3.014,3.014,0,0,1-.414-2.944c.735-1.885,3.9-2.215,5.353-1.973a4.931,4.931,0,0,1,2.456,1.116c1.5-2.812,2.066-6.435,1.6-8.371-1.041-4.289-3.807-6.136-8.222-5.508-.1,2.947-1.545,5.261-3.767,6.024-1.658.578-2.487.081-2.892-.438-.794-1.019-.347-2.7.449-3.909a6.736,6.736,0,0,1,4.451-3.049,4.464,4.464,0,0,0-2.36-3.606c-.92-.389-2.631-.065-4.157.79l-.057.032a4.531,4.531,0,0,0-2.43,2.7.841.841,0,0,1-1.663-.255,5.981,5.981,0,0,1,3.257-3.9l.072-.041c1.6-.894,3.92-1.594,5.633-.87a6.052,6.052,0,0,1,3.367,4.846c5.2-.689,8.717,1.7,9.951,6.792.673,2.768-.263,7.131-2.109,10.19,1.923,3.589.309,9.91-.234,12.039-1.031,4.025-1.747,8.646.747,12.386,3.171,4.758,10.479,4.182,12.644,3.891,4.345-.584,10.335-2.179,14.2-6.484a3.471,3.471,0,0,0,1.019-2.506c-2.66.452-5.569.552-6.962-2.516a3.842,3.842,0,0,1,1.276-4.732l.07-.04c1.379-.785,3.45-.923,5.611,2.691a14.794,14.794,0,0,1,1.31,2.643,11.3,11.3,0,0,1,4.45-.25,4.519,4.519,0,0,1,3.157,2.227c1.467,2.737-.123,6.966-1.524,10.694a20.733,20.733,0,0,0-1.35,4.366A.84.84,0,0,1,1900.466,5958.647Zm-10.361-21.6-.079.048a2.191,2.191,0,0,0-.607,2.6c.858,1.885,2.511,1.98,5.055,1.563a14.664,14.664,0,0,0-1.072-2.091C1891.7,5936.326,1890.587,5936.773,1890.1,5937.047Zm-30.525-13.889a1.013,1.013,0,0,0-.47.462,1.331,1.331,0,0,0,.2,1.328,2.1,2.1,0,0,0,1.752.835,5.006,5.006,0,0,0,3.373-2.188,3.188,3.188,0,0,0-1.818-.9A5.4,5.4,0,0,0,1859.58,5923.158Zm-3.913-13.99a5.042,5.042,0,0,0-1.744,1.7,2.435,2.435,0,0,0-.53,1.95c.029.039.3.135,1.018-.114,1.717-.6,2.459-2.485,2.612-4.087A5.966,5.966,0,0,0,1855.667,5909.168Z" fill="#3a7d18"/>
        </g>
      </g>
      <g id="Grupo_2002" data-name="Grupo 2002">
        <g id="Grupo_2001" data-name="Grupo 2001">
          <path id="Trazado_5808" data-name="Trazado 5808" d="M1857.722,5908.39a7.171,7.171,0,0,0-.7.234,4.676,4.676,0,0,1-2.4,3.983,3.273,3.273,0,0,0,.486-.131C1856.827,5911.878,1857.567,5909.991,1857.722,5908.39Z" fill="#3a7d18"/>
        </g>
      </g>
      <g id="Grupo_2004" data-name="Grupo 2004">
        <g id="Grupo_2003" data-name="Grupo 2003">
          <path id="Trazado_5809" data-name="Trazado 5809" d="M1854.61,5903.293a4.457,4.457,0,0,1,2.352,3.571c.229-.072.463-.137.708-.2a4.476,4.476,0,0,0-2.359-3.606,4.546,4.546,0,0,0-3.075.283A3.89,3.89,0,0,1,1854.61,5903.293Z" fill="#3a7d18"/>
        </g>
      </g>
      <g id="Grupo_2006" data-name="Grupo 2006">
        <g id="Grupo_2005" data-name="Grupo 2005">
          <path id="Trazado_5810" data-name="Trazado 5810" d="M1867.65,5913.548c-1.042-4.288-3.807-6.139-8.222-5.508,0,.063-.014.12-.017.18,4.01-.342,6.555,1.5,7.54,5.559.442,1.821-.04,5.125-1.35,7.851a4.338,4.338,0,0,1,.45.288C1867.556,5919.107,1868.119,5915.485,1867.65,5913.548Z" fill="#3a7d18"/>
        </g>
      </g>
      <g id="Grupo_2008" data-name="Grupo 2008">
        <g id="Grupo_2007" data-name="Grupo 2007">
          <path id="Trazado_5811" data-name="Trazado 5811" d="M1894.85,5942.9a3.471,3.471,0,0,1-1.019,2.506,19.178,19.178,0,0,1-8.326,5.137,19.623,19.623,0,0,0,9.023-5.37,3.472,3.472,0,0,0,1.022-2.506c-2.66.451-5.57.555-6.963-2.514a3.84,3.84,0,0,1,1.276-4.732l.07-.039c.1-.058.214-.1.323-.153a3.545,3.545,0,0,0-1.022.383l-.07.04a3.842,3.842,0,0,0-1.276,4.732C1889.281,5943.451,1892.19,5943.351,1894.85,5942.9Z" fill="#3a7d18"/>
        </g>
      </g>
      <g id="Grupo_2010" data-name="Grupo 2010">
        <g id="Grupo_2009" data-name="Grupo 2009">
          <path id="Trazado_5812" data-name="Trazado 5812" d="M1895.173,5941.023a14.479,14.479,0,0,0-1.073-2.093c-1.7-2.837-2.812-2.389-3.3-2.113l-.068.038c.6-.036,1.49.344,2.666,2.308a14.984,14.984,0,0,1,1.015,1.968C1894.661,5941.1,1894.908,5941.065,1895.173,5941.023Z" fill="#3a7d18"/>
        </g>
      </g>
      <g id="Grupo_2012" data-name="Grupo 2012">
        <g id="Grupo_2011" data-name="Grupo 2011">
          <path id="Trazado_5813" data-name="Trazado 5813" d="M1854.962,5914.295c.066-.021.125-.059.19-.084a2.129,2.129,0,0,1-2.383-.587c-.8-1.018-.349-2.7.447-3.908a6.536,6.536,0,0,1,3.275-2.686,6.6,6.6,0,0,0-3.972,2.918c-.8,1.211-1.243,2.89-.449,3.909C1852.475,5914.376,1853.3,5914.873,1854.962,5914.295Z" fill="#3a7d18"/>
        </g>
      </g>
      <g id="Grupo_2014" data-name="Grupo 2014">
        <g id="Grupo_2013" data-name="Grupo 2013">
          <path id="Trazado_5814" data-name="Trazado 5814" d="M1899.913,5957.62a20.79,20.79,0,0,1,1.451-4.827c1.213-3.227,2.724-7.241,1.618-9.31a2.9,2.9,0,0,0-2.057-1.383,9.8,9.8,0,0,0-3.7.254c0,.035,0,.072,0,.108a7.94,7.94,0,0,1,3.006-.129,2.884,2.884,0,0,1,2.054,1.381c1.108,2.069-.405,6.083-1.616,9.31a20.854,20.854,0,0,0-1.451,4.826.839.839,0,0,0,.771.9.83.83,0,0,0,.481-.106.866.866,0,0,0,.151-.144A.832.832,0,0,1,1899.913,5957.62Z" fill="#3a7d18"/>
        </g>
      </g>
      <g id="Grupo_2016" data-name="Grupo 2016">
        <g id="Grupo_2015" data-name="Grupo 2015">
          <path id="Trazado_5815" data-name="Trazado 5815" d="M1857.959,5925.951a3.767,3.767,0,0,0,3.233,1.508,5.161,5.161,0,0,0,1.521-.39,5.1,5.1,0,0,1-.821.157,3.76,3.76,0,0,1-3.232-1.507,3.016,3.016,0,0,1-.416-2.943,2.961,2.961,0,0,1,1.782-1.568,3.4,3.4,0,0,0-2.481,1.8A3.014,3.014,0,0,0,1857.959,5925.951Z" fill="#3a7d18"/>
        </g>
      </g>
      <g id="Grupo_2018" data-name="Grupo 2018">
        <g id="Grupo_2017" data-name="Grupo 2017">
          <path id="Trazado_5816" data-name="Trazado 5816" d="M1880.554,5953.322c-6.429.863-11.763-.865-14.266-4.622-2.876-4.316-2.033-9.61-.977-13.738,1.169-4.576,1.41-7.942.719-10.039-.194.222-.4.4-.606.6.559,2.108.294,5.342-.812,9.674-1.055,4.128-1.9,9.42.977,13.736,2.5,3.757,7.837,5.484,14.267,4.624a34.011,34.011,0,0,0,6.2-1.427A34.329,34.329,0,0,1,1880.554,5953.322Z" fill="#3a7d18"/>
        </g>
      </g>
      <g id="Grupo_2020" data-name="Grupo 2020">
        <g id="Grupo_2019" data-name="Grupo 2019">
          <path id="Trazado_5817" data-name="Trazado 5817" d="M1847.7,5907.282a.844.844,0,0,1-.7-.957,5.983,5.983,0,0,1,3.26-3.9l.072-.041a9.991,9.991,0,0,1,1.391-.642,10,10,0,0,0-2.092.873l-.072.041a5.981,5.981,0,0,0-3.257,3.9.841.841,0,0,0,.706.958A.829.829,0,0,0,1847.7,5907.282Z" fill="#3a7d18"/>
        </g>
      </g>
      <g id="Grupo_2022" data-name="Grupo 2022">
        <g id="Grupo_2021" data-name="Grupo 2021">
          <path id="Trazado_5818" data-name="Trazado 5818" d="M1863.316,5922.459a5.508,5.508,0,0,0-2.776.359,5.6,5.6,0,0,1,2.078-.127,3.188,3.188,0,0,1,1.818.9,6.011,6.011,0,0,1-2.219,1.883,5.348,5.348,0,0,0,2.919-2.116A3.194,3.194,0,0,0,1863.316,5922.459Z" fill="#3a7d18"/>
        </g>
      </g>
      <g id="Grupo_2024" data-name="Grupo 2024">
        <g id="Grupo_2023" data-name="Grupo 2023">
          <path id="Trazado_5819" data-name="Trazado 5819" d="M1836.41,5937.482a29.159,29.159,0,0,0-1.7,11.768,67.168,67.168,0,0,0,1.577,11.836c1.671,7.811,3.97,15.5,6.259,23.195,2.166,7.733,4.4,15.489,5.83,23.439,1.406,7.921,2.18,16.112.835,24.075a63.915,63.915,0,0,0-.2-12,102.45,102.45,0,0,0-1.9-11.83c-1.674-7.819-3.883-15.526-6.173-23.222-2.153-7.731-4.492-15.453-5.912-23.417a66.807,66.807,0,0,1-1.131-12.075A27.9,27.9,0,0,1,1836.41,5937.482Z" fill="#fff"/>
        </g>
      </g>
      <g id="Grupo_2026" data-name="Grupo 2026" opacity="0.6">
        <g id="Grupo_2025" data-name="Grupo 2025">
          <path id="Trazado_5820" data-name="Trazado 5820" d="M1869.1,6007.5c5.091,13.364,6.724,24.961,2.814,38.313-3.674,12.537-13.023,19.346-21.055,28.43-2.2,2.489,2.062,5.936,4.236,3.479,9.31-10.535,18.222-17.787,22.449-32.205,4-13.641,1.41-26.475-3.711-39.936A2.556,2.556,0,1,0,1869.1,6007.5Z" fill="#3a7d18"/>
        </g>
      </g>
    </g>
    <g id="Grupo_2142" data-name="Grupo 2142">
      <g id="Grupo_2028" data-name="Grupo 2028">
        <path id="Trazado_5821" data-name="Trazado 5821" d="M1893.116,6090.356l0,0a117.544,117.544,0,0,1-11.805,9.809,1.2,1.2,0,0,1-1.454.112c-.686-.477-.49-1.489-.414-1.788.055-.244.168-.624.316-1.118,7.385-24.525-3.753-56.209-14.4-78.475-2.759-5.772-6.111-11.294-9.355-16.635-4-6.585-8.13-13.4-11.28-20.846-5.488-12.971-11.477-30.341-9.057-49.682.618-4.909,1.2-9.544,5.65-15.059l.334-.415.52.122c5.649,1.306,10.219.325,16.005-.918.155-.032.274-.065.4-.1l1.195-.286.147.9a1.628,1.628,0,0,0,.724,1.121,8.55,8.55,0,0,0,1.608.858,2.492,2.492,0,0,1,1.055,1.73,3.769,3.769,0,0,0,.254.737l.292.172.005.249c9.291,31.426,24.785,47.375,38.457,61.448,3,3.084,5.828,6,8.557,9.02,8.293,9.2,13.256,20.836,14.748,34.588C1928.55,6052.922,1906.514,6077.882,1893.116,6090.356Zm-11.793,7.708a126.291,126.291,0,0,0,10.631-8.949c13.167-12.259,34.826-36.747,31.972-63.03-1.456-13.388-6.274-24.705-14.322-33.631-2.709-3-5.53-5.9-8.514-8.975-13.775-14.177-29.383-30.244-38.8-61.912a3.441,3.441,0,0,1-.63-1.426,5.53,5.53,0,0,0-.215-.673,10.111,10.111,0,0,1-1.756-.958,3.3,3.3,0,0,1-1.188-1.376c-5.813,1.248-10.434,2.235-16.187,1.024-3.851,4.951-4.367,9.056-4.96,13.79-2.372,18.939,3.529,36.034,8.936,48.807,3.1,7.339,7.2,14.094,11.167,20.628,3.265,5.376,6.638,10.934,9.433,16.784,10.775,22.535,22.032,54.652,14.49,79.7C1881.363,6097.934,1881.341,6098,1881.323,6098.064Z" fill="#3a7d18"/>
      </g>
      <g id="Grupo_2030" data-name="Grupo 2030">
        <g id="Grupo_2029" data-name="Grupo 2029">
          <path id="Trazado_5822" data-name="Trazado 5822" d="M1859.073,5901.975c-2.026,1.975-4.963,2.813-7.26,4.73a25.994,25.994,0,0,0-5.706,6.946,52.958,52.958,0,0,0-7.16,22.266c-1.506,16.219,3.2,31.238,9.794,45.775,5.666,12.506,13.2,23.312,20.217,34.822,7.351,12.065,11.5,25.625,14.405,39.441,1.012,4.793,2.28,9.746,2.925,14.549.538,4.032-.116,8.642.954,12.562,10.313-8.728,12.5-26.924,12.808-39.6.194-7.93,1.449-16.145.287-24.19-1.379-9.561-5.384-17.841-10.4-25.846-4.535-7.245-9.579-14.247-13.6-21.838-3.637-6.873-9.437-11.814-12.433-19.348-4.565-11.469-9.552-25.6-7.758-38.047.354-2.471,3.817-10.078,3.412-11.154Z" fill="#488528"/>
        </g>
      </g>
      <g id="Grupo_2032" data-name="Grupo 2032">
        <g id="Grupo_2031" data-name="Grupo 2031">
          <path id="Trazado_5823" data-name="Trazado 5823" d="M1859.073,5901.975c-2.054,2-5.019,2.865-7.343,4.807a26.684,26.684,0,0,0-5.795,7.029,53.86,53.86,0,0,0-7.36,22.452c-1.625,16.33,3.018,31.411,9.559,45.994,5.623,12.546,13.142,23.368,20.128,34.905,7.324,12.09,11.408,25.707,14.246,39.59.987,4.815,2.232,9.789,2.849,14.619.515,4.054-.175,8.7.877,12.633,10.444-8.85,12.769-27.173,13.165-39.932.246-7.979,1.567-16.255.45-24.342-1.323-9.613-5.3-17.916-10.3-25.937-4.52-7.26-9.554-14.271-13.549-21.883-3.619-6.891-9.425-11.826-12.4-19.384-4.518-11.512-9.45-25.694-7.558-38.233.374-2.489,3.91-10.166,3.509-11.244Z" fill="#4da620"/>
        </g>
      </g>
      <g id="Grupo_2034" data-name="Grupo 2034">
        <g id="Grupo_2033" data-name="Grupo 2033">
          <path id="Trazado_5824" data-name="Trazado 5824" d="M1859.073,5901.975c-2.026,1.975-4.963,2.813-7.26,4.73a25.994,25.994,0,0,0-5.706,6.946,52.958,52.958,0,0,0-7.16,22.266c-1.506,16.219,3.2,31.238,9.794,45.775,5.666,12.506,13.2,23.312,20.217,34.822,7.351,12.065,11.5,25.625,14.405,39.441,1.012,4.793,2.28,9.746,2.925,14.549.538,4.032-.116,8.642.954,12.562,10.313-8.728,12.5-26.924,12.808-39.6.194-7.93,1.449-16.145.287-24.19-1.379-9.561-5.384-17.841-10.4-25.846-4.535-7.245-9.579-14.247-13.6-21.838-3.637-6.873-9.437-11.814-12.433-19.348-4.565-11.469-9.552-25.6-7.758-38.047.354-2.471,3.817-10.078,3.412-11.154Z" fill="#488528"/>
        </g>
      </g>
      <g id="Grupo_2041" data-name="Grupo 2041">
        <g id="Grupo_2037" data-name="Grupo 2037">
          <g id="Grupo_2036" data-name="Grupo 2036">
            <g id="Grupo_2035" data-name="Grupo 2035">
              <path id="Trazado_5825" data-name="Trazado 5825" d="M1865.981,5980.958a10.108,10.108,0,1,1-8.838,11.093A10.027,10.027,0,0,1,1865.981,5980.958Z" fill="#f6ffda"/>
            </g>
          </g>
        </g>
        <g id="Grupo_2040" data-name="Grupo 2040">
          <g id="Grupo_2039" data-name="Grupo 2039">
            <g id="Grupo_2038" data-name="Grupo 2038">
              <path id="Trazado_5826" data-name="Trazado 5826" d="M1860.63,5985.577c1.583-.165.452,2.8.792,6.018s2.019,5.49.437,5.654-3.144-2.309-3.483-5.533S1859.046,5985.746,1860.63,5985.577Z" fill="#fff"/>
            </g>
          </g>
        </g>
      </g>
      <g id="Grupo_2048" data-name="Grupo 2048">
        <g id="Grupo_2044" data-name="Grupo 2044">
          <g id="Grupo_2043" data-name="Grupo 2043">
            <g id="Grupo_2042" data-name="Grupo 2042">
              <path id="Trazado_5827" data-name="Trazado 5827" d="M1856.876,5966.155a8.819,8.819,0,1,1-7.682,9.674A8.738,8.738,0,0,1,1856.876,5966.155Z" fill="#f6ffda"/>
            </g>
          </g>
        </g>
        <g id="Grupo_2047" data-name="Grupo 2047">
          <g id="Grupo_2046" data-name="Grupo 2046">
            <g id="Grupo_2045" data-name="Grupo 2045">
              <path id="Trazado_5828" data-name="Trazado 5828" d="M1852.222,5970.185c1.378-.144.4,2.437.693,5.249s1.756,4.789.38,4.934-2.735-2.016-3.031-4.829S1850.847,5970.33,1852.222,5970.185Z" fill="#fff"/>
            </g>
          </g>
        </g>
      </g>
      <g id="Grupo_2055" data-name="Grupo 2055">
        <g id="Grupo_2051" data-name="Grupo 2051">
          <g id="Grupo_2050" data-name="Grupo 2050">
            <g id="Grupo_2049" data-name="Grupo 2049">
              <path id="Trazado_5829" data-name="Trazado 5829" d="M1874.024,5997.388a9.289,9.289,0,1,1-8.1,10.191A9.205,9.205,0,0,1,1874.024,5997.388Z" fill="#f6ffda"/>
            </g>
          </g>
        </g>
        <g id="Grupo_2054" data-name="Grupo 2054">
          <g id="Grupo_2053" data-name="Grupo 2053">
            <g id="Grupo_2052" data-name="Grupo 2052">
              <path id="Trazado_5830" data-name="Trazado 5830" d="M1869.118,6001.632c1.452-.149.418,2.569.731,5.531s1.85,5.045.4,5.2-2.879-2.123-3.193-5.088S1867.671,6001.787,1869.118,6001.632Z" fill="#fff"/>
            </g>
          </g>
        </g>
      </g>
      <g id="Grupo_2062" data-name="Grupo 2062">
        <g id="Grupo_2058" data-name="Grupo 2058">
          <g id="Grupo_2057" data-name="Grupo 2057">
            <g id="Grupo_2056" data-name="Grupo 2056">
              <path id="Trazado_5831" data-name="Trazado 5831" d="M1882.049,6012.716a8.879,8.879,0,1,1-7.738,9.743A8.8,8.8,0,0,1,1882.049,6012.716Z" fill="#f6ffda"/>
            </g>
          </g>
        </g>
        <g id="Grupo_2061" data-name="Grupo 2061">
          <g id="Grupo_2060" data-name="Grupo 2060">
            <g id="Grupo_2059" data-name="Grupo 2059">
              <path id="Trazado_5832" data-name="Trazado 5832" d="M1877.361,6016.772c1.388-.142.4,2.456.7,5.286s1.766,4.823.382,4.968-2.753-2.029-3.051-4.863S1875.975,6016.921,1877.361,6016.772Z" fill="#fff"/>
            </g>
          </g>
        </g>
      </g>
      <g id="Grupo_2069" data-name="Grupo 2069">
        <g id="Grupo_2065" data-name="Grupo 2065">
          <g id="Grupo_2064" data-name="Grupo 2064">
            <g id="Grupo_2063" data-name="Grupo 2063">
              <path id="Trazado_5833" data-name="Trazado 5833" d="M1887.081,6029.77a7.552,7.552,0,1,1-6.58,8.287A7.479,7.479,0,0,1,1887.081,6029.77Z" fill="#f6ffda"/>
            </g>
          </g>
        </g>
        <g id="Grupo_2068" data-name="Grupo 2068">
          <g id="Grupo_2067" data-name="Grupo 2067">
            <g id="Grupo_2066" data-name="Grupo 2066">
              <path id="Trazado_5834" data-name="Trazado 5834" d="M1883.095,6033.218c1.18-.122.339,2.089.593,4.5s1.5,4.1.325,4.224-2.341-1.725-2.594-4.135S1881.916,6033.345,1883.095,6033.218Z" fill="#fff"/>
            </g>
          </g>
        </g>
      </g>
      <g id="Grupo_2076" data-name="Grupo 2076">
        <g id="Grupo_2072" data-name="Grupo 2072">
          <g id="Grupo_2071" data-name="Grupo 2071">
            <g id="Grupo_2070" data-name="Grupo 2070">
              <path id="Trazado_5835" data-name="Trazado 5835" d="M1889.879,6044.136a5.925,5.925,0,1,1-5.162,6.5A5.869,5.869,0,0,1,1889.879,6044.136Z" fill="#f6ffda"/>
            </g>
          </g>
        </g>
        <g id="Grupo_2075" data-name="Grupo 2075">
          <g id="Grupo_2074" data-name="Grupo 2074">
            <g id="Grupo_2073" data-name="Grupo 2073">
              <path id="Trazado_5836" data-name="Trazado 5836" d="M1886.751,6046.841c.928-.094.266,1.641.464,3.528s1.182,3.22.257,3.317-1.835-1.355-2.036-3.246S1885.828,6046.942,1886.751,6046.841Z" fill="#fff"/>
            </g>
          </g>
        </g>
      </g>
      <g id="Grupo_2083" data-name="Grupo 2083">
        <g id="Grupo_2079" data-name="Grupo 2079">
          <g id="Grupo_2078" data-name="Grupo 2078">
            <g id="Grupo_2077" data-name="Grupo 2077">
              <path id="Trazado_5837" data-name="Trazado 5837" d="M1851.574,5950.684a8.329,8.329,0,1,1-7.259,9.136A8.248,8.248,0,0,1,1851.574,5950.684Z" fill="#f6ffda"/>
            </g>
          </g>
        </g>
        <g id="Grupo_2082" data-name="Grupo 2082">
          <g id="Grupo_2081" data-name="Grupo 2081">
            <g id="Grupo_2080" data-name="Grupo 2080">
              <path id="Trazado_5838" data-name="Trazado 5838" d="M1847.179,5954.488c1.3-.136.373,2.3.651,4.959s1.661,4.523.362,4.66-2.583-1.907-2.862-4.563S1845.878,5954.626,1847.179,5954.488Z" fill="#fff"/>
            </g>
          </g>
        </g>
      </g>
      <g id="Grupo_2090" data-name="Grupo 2090">
        <g id="Grupo_2086" data-name="Grupo 2086">
          <g id="Grupo_2085" data-name="Grupo 2085">
            <g id="Grupo_2084" data-name="Grupo 2084">
              <path id="Trazado_5839" data-name="Trazado 5839" d="M1847.7,5939.179a6.629,6.629,0,1,1-5.778,7.272A6.569,6.569,0,0,1,1847.7,5939.179Z" fill="#f6ffda"/>
            </g>
          </g>
        </g>
        <g id="Grupo_2089" data-name="Grupo 2089">
          <g id="Grupo_2088" data-name="Grupo 2088">
            <g id="Grupo_2087" data-name="Grupo 2087">
              <path id="Trazado_5840" data-name="Trazado 5840" d="M1844.2,5942.207c1.034-.106.3,1.833.519,3.947s1.321,3.6.287,3.71-2.055-1.517-2.278-3.632S1843.163,5942.318,1844.2,5942.207Z" fill="#fff"/>
            </g>
          </g>
        </g>
      </g>
      <g id="Grupo_2097" data-name="Grupo 2097">
        <g id="Grupo_2093" data-name="Grupo 2093">
          <g id="Grupo_2092" data-name="Grupo 2092">
            <g id="Grupo_2091" data-name="Grupo 2091">
              <path id="Trazado_5841" data-name="Trazado 5841" d="M1847.714,5927.844a5.9,5.9,0,1,1-5.143,6.474A5.847,5.847,0,0,1,1847.714,5927.844Z" fill="#f6ffda"/>
            </g>
          </g>
        </g>
        <g id="Grupo_2096" data-name="Grupo 2096">
          <g id="Grupo_2095" data-name="Grupo 2095">
            <g id="Grupo_2094" data-name="Grupo 2094">
              <path id="Trazado_5842" data-name="Trazado 5842" d="M1844.6,5930.54c.923-.1.267,1.633.465,3.515s1.175,3.206.255,3.3-1.83-1.351-2.029-3.233S1843.679,5930.638,1844.6,5930.54Z" fill="#fff"/>
            </g>
          </g>
        </g>
      </g>
      <g id="Grupo_2099" data-name="Grupo 2099">
        <g id="Grupo_2098" data-name="Grupo 2098">
          <path id="Trazado_5843" data-name="Trazado 5843" d="M1858.84,5901.18c-10.348,11.724-12.78,27.089-10.4,42.64,3.045,19.856,39.385,82.072,40.557,99.787a144.778,144.778,0,0,1-.679,28.808c-.938,6.957-3.833,13.949-5.2,20.6,0,0,.807.307.948.189,14.91-12.384,41.216-34.4,37.463-70.767-1.248-12.088-5.548-21.737-13.676-30.474-14.834-15.936-28.851-28.4-38.246-48.7-5.4-11.673-8.166-24.955-9.7-37.514-.188-1.545-.45-3.1-.709-4.588.377-.114.093.28.136.568Z" fill="#6cd138"/>
        </g>
      </g>
      <g id="Grupo_2101" data-name="Grupo 2101">
        <g id="Grupo_2100" data-name="Grupo 2100">
          <path id="Trazado_5844" data-name="Trazado 5844" d="M1858.844,5901.176c-10.159,11.548-12.441,26.773-9.951,42.226,3.18,19.729,39.712,81.767,41.019,99.355a143.777,143.777,0,0,1-.435,28.582c-.923,7.307-4.026,14.639-5.2,21.576,13.757-11.719,41.839-33.768,37.707-70.9a50.594,50.594,0,0,0-13.806-30.353c-14.834-15.937-28.829-28.424-38.308-48.647-5.451-11.626-8.3-24.83-9.92-37.305-.2-1.534-.474-3.078-.742-4.558.375-.112.095.278.14.565Z" fill="#4da620"/>
        </g>
      </g>
      <g id="Grupo_2103" data-name="Grupo 2103">
        <g id="Grupo_2102" data-name="Grupo 2102">
          <path id="Trazado_5845" data-name="Trazado 5845" d="M1858.844,5901.176c-10.159,11.548-12.441,26.773-9.951,42.226,3.18,19.729,39.712,81.767,41.019,99.355a143.777,143.777,0,0,1-.435,28.582c-.923,7.307-4.026,14.639-5.2,21.576,13.757-11.719,41.839-33.768,37.707-70.9a50.594,50.594,0,0,0-13.806-30.353c-14.834-15.937-28.829-28.424-38.308-48.647-5.451-11.626-8.3-24.83-9.92-37.305-.2-1.534-.474-3.078-.742-4.558.375-.112.095.278.14.565Z" fill="#4da620"/>
        </g>
      </g>
      <g id="Grupo_2106" data-name="Grupo 2106" opacity="0.22">
        <g id="Grupo_2105" data-name="Grupo 2105">
          <g id="Grupo_2104" data-name="Grupo 2104">
            <path id="Trazado_5846" data-name="Trazado 5846" d="M1921.535,6022.434c-1.248-12.088-5.548-21.737-13.676-30.474-2.284-2.453-4.544-4.818-6.775-7.15-.374,6-1.241,11.931-3.815,17.555-3.406,7.439-9.029,13.925-15.44,19.17,4.026,9.422,6.858,17.343,7.171,22.072a144.778,144.778,0,0,1-.679,28.808c-.995,7.373-3.935,13.6-5.176,20.6.452-.384.67.408,1.151,0C1898.682,6080.811,1925.269,6058.611,1921.535,6022.434Z" fill="#66b23e"/>
          </g>
        </g>
      </g>
      <g id="Grupo_2108" data-name="Grupo 2108">
        <g id="Grupo_2107" data-name="Grupo 2107">
          <path id="Trazado_5847" data-name="Trazado 5847" d="M1859.228,5900.387c-4.549.162-10.31,4.915-11.312,7.194-3.267,7.408-11.724,12.664-12.115,12.766,2.071.355,11.125,3.378,19.328-9.951a52.814,52.814,0,0,0,2.652-5.091c.722-1.512,1.91-2.92,1.95-4.632Z" fill="#43911c"/>
        </g>
      </g>
      <g id="Grupo_2110" data-name="Grupo 2110">
        <g id="Grupo_2109" data-name="Grupo 2109">
          <path id="Trazado_5848" data-name="Trazado 5848" d="M1860.4,5901.136c1.382,1.289,2.613,3.884,2.089,5.611-2.148,7.07,2.506,16.567,2.836,17.355-1.089.4-15.74-4.574-11.956-17.672C1853.817,5904.868,1858.335,5899.217,1860.4,5901.136Z" fill="#3a7d18"/>
        </g>
      </g>
      <g id="Grupo_2112" data-name="Grupo 2112">
        <g id="Grupo_2111" data-name="Grupo 2111">
          <path id="Trazado_5849" data-name="Trazado 5849" d="M1856.712,5900.222c1.307-1.35,2.081-3.788,2.511-6.1a17.769,17.769,0,0,0-.016-7.107l-.009-.043a.89.89,0,0,1,1.695-.529,19.813,19.813,0,0,1,1.118,7.98,22.031,22.031,0,0,1-.536,4.064,11.515,11.515,0,0,1-1.751,4.1l-.071.1a1.924,1.924,0,1,1-3.122-2.249A1.76,1.76,0,0,1,1856.712,5900.222Z" fill="#3c8219"/>
        </g>
      </g>
      <g id="Grupo_2113" data-name="Grupo 2113">
        <path id="Trazado_5850" data-name="Trazado 5850" d="M1857.7,5903.081a1.923,1.923,0,0,1-.436-2.684,2.1,2.1,0,0,1,.18-.216c1.308-1.35,2.081-3.788,2.512-6.1a17.8,17.8,0,0,0-.015-7.107l-.009-.044a.873.873,0,0,1,.459-.983.862.862,0,0,0-.537-.051.89.89,0,0,0-.655,1.074l.009.043a17.769,17.769,0,0,1,.016,7.107c-.43,2.314-1.2,4.752-2.511,6.1a1.76,1.76,0,0,0-.181.214,1.925,1.925,0,0,0,.436,2.686,1.9,1.9,0,0,0,1.59.281A1.9,1.9,0,0,1,1857.7,5903.081Z" fill="#3a7d18"/>
      </g>
      <g id="Grupo_2115" data-name="Grupo 2115">
        <g id="Grupo_2114" data-name="Grupo 2114">
          <path id="Trazado_5851" data-name="Trazado 5851" d="M1922.266,5942.221a.828.828,0,0,1-.444.214.841.841,0,0,1-.958-.7,20.89,20.89,0,0,1,.3-5.03c.437-3.419.986-7.674-.567-9.432a2.89,2.89,0,0,0-2.317-.872,9.705,9.705,0,0,0-3.545,1.1,5.074,5.074,0,0,1-.5,4.167c-3.021,5.528-8.847,8.672-13.2,10.34-6.06,2.316-11.648,1.861-14.948-1.219-3.793-3.539-4.187-8.884-4.109-13.143.085-4.726-.454-8.057-1.608-9.937a6.181,6.181,0,0,1-3.5,3.195,3.769,3.769,0,0,1-3.493-.725,3.013,3.013,0,0,1-1.08-2.77c.282-2,3.288-3.052,4.755-3.151a4.932,4.932,0,0,1,2.647.522c.816-3.083.532-6.738-.37-8.515-2-3.934-5.116-5.1-9.268-3.469.582,2.89-.294,5.475-2.281,6.728-1.481.944-2.4.652-2.916.239-1.007-.809-.958-2.546-.462-3.907a6.739,6.739,0,0,1,3.631-3.991,4.466,4.466,0,0,0-3.125-2.967c-.985-.166-2.576.542-3.865,1.725l-.047.044a4.532,4.532,0,0,0-1.746,3.184.841.841,0,0,1-1.676.134,5.978,5.978,0,0,1,2.273-4.545l.06-.056c1.352-1.239,3.449-2.453,5.282-2.143a6.052,6.052,0,0,1,4.391,3.942c4.9-1.865,8.874-.349,11.246,4.322,1.291,2.539,1.384,7,.291,10.4,2.7,3.052,2.579,9.574,2.541,11.771-.079,4.154.288,8.816,3.575,11.883,4.18,3.9,11.159,1.66,13.2.879,4.095-1.567,9.557-4.5,12.328-9.576a3.473,3.473,0,0,0,.417-2.673c-2.485,1.052-5.293,1.819-7.355-.848a3.84,3.84,0,0,1,.154-4.9l.059-.055c1.161-1.081,3.145-1.692,6.079,1.329a14.78,14.78,0,0,1,1.883,2.27,11.308,11.308,0,0,1,4.274-1.266,4.523,4.523,0,0,1,3.584,1.441c2.057,2.327,1.482,6.808.975,10.758a20.737,20.737,0,0,0-.309,4.559A.846.846,0,0,1,1922.266,5942.221Zm-15.05-18.639c-.025.023-.046.047-.066.065a2.192,2.192,0,0,0,.006,2.666c1.268,1.638,2.9,1.35,5.279.359a14.7,14.7,0,0,0-1.524-1.789C1908.607,5922.513,1907.622,5923.2,1907.216,5923.582Zm-32.9-6.5a1.007,1.007,0,0,0-.352.557,1.332,1.332,0,0,0,.5,1.246,2.1,2.1,0,0,0,1.9.41,5.006,5.006,0,0,0,2.78-2.9,3.188,3.188,0,0,0-1.978-.462A5.392,5.392,0,0,0,1874.316,5917.085Zm-7.026-12.717a5.054,5.054,0,0,0-1.305,2.06,2.437,2.437,0,0,0-.068,2.02c.038.031.326.062.965-.345,1.533-.978,1.821-2.984,1.6-4.578A5.994,5.994,0,0,0,1867.29,5904.368Z" fill="#3a7d18"/>
        </g>
      </g>
      <g id="Grupo_2117" data-name="Grupo 2117">
        <g id="Grupo_2116" data-name="Grupo 2116">
          <path id="Trazado_5852" data-name="Trazado 5852" d="M1869.111,5903.14a7.18,7.18,0,0,0-.627.388,4.676,4.676,0,0,1-1.42,4.428,3.18,3.18,0,0,0,.443-.24C1869.042,5906.74,1869.329,5904.732,1869.111,5903.14Z" fill="#3a7d18"/>
        </g>
      </g>
      <g id="Grupo_2119" data-name="Grupo 2119">
        <g id="Grupo_2118" data-name="Grupo 2118">
          <path id="Trazado_5853" data-name="Trazado 5853" d="M1864.911,5898.894a4.457,4.457,0,0,1,3.11,2.935c.206-.122.419-.24.644-.355a4.476,4.476,0,0,0-3.125-2.966,4.543,4.543,0,0,0-2.928.982A3.9,3.9,0,0,1,1864.911,5898.894Z" fill="#3a7d18"/>
        </g>
      </g>
      <g id="Grupo_2121" data-name="Grupo 2121">
        <g id="Grupo_2120" data-name="Grupo 2120">
          <path id="Trazado_5854" data-name="Trazado 5854" d="M1879.959,5905.876c-2-3.934-5.116-5.1-9.268-3.469.011.061.014.119.025.178,3.824-1.254,6.725-.045,8.616,3.676.849,1.671,1.139,5,.492,7.952a4.61,4.61,0,0,1,.5.176C1881.146,5911.308,1880.861,5907.653,1879.959,5905.876Z" fill="#3a7d18"/>
        </g>
      </g>
      <g id="Grupo_2123" data-name="Grupo 2123">
        <g id="Grupo_2122" data-name="Grupo 2122">
          <path id="Trazado_5855" data-name="Trazado 5855" d="M1913.18,5928.186a3.473,3.473,0,0,1-.417,2.673,19.163,19.163,0,0,1-6.921,6.914,19.634,19.634,0,0,0,7.547-7.3,3.479,3.479,0,0,0,.418-2.675c-2.485,1.052-5.293,1.822-7.355-.844a3.84,3.84,0,0,1,.155-4.9l.058-.055c.085-.079.185-.149.28-.223a3.543,3.543,0,0,0-.907.608l-.059.055a3.84,3.84,0,0,0-.154,4.9C1907.887,5930,1910.695,5929.238,1913.18,5928.186Z" fill="#3a7d18"/>
        </g>
      </g>
      <g id="Grupo_2125" data-name="Grupo 2125">
        <g id="Grupo_2124" data-name="Grupo 2124">
          <path id="Trazado_5856" data-name="Trazado 5856" d="M1913.063,5926.287a14.506,14.506,0,0,0-1.526-1.791c-2.3-2.371-3.286-1.678-3.694-1.3l-.057.054c.577-.174,1.529-.009,3.125,1.632a14.89,14.89,0,0,1,1.44,1.683C1912.581,5926.478,1912.814,5926.388,1913.063,5926.287Z" fill="#3a7d18"/>
        </g>
      </g>
      <g id="Grupo_2127" data-name="Grupo 2127">
        <g id="Grupo_2126" data-name="Grupo 2126">
          <path id="Trazado_5857" data-name="Trazado 5857" d="M1867.783,5909.52c.06-.035.108-.086.166-.125a2.127,2.127,0,0,1-2.454-.024c-1.009-.807-.96-2.544-.464-3.906a6.532,6.532,0,0,1,2.57-3.366,6.6,6.6,0,0,0-3.2,3.753c-.5,1.361-.545,3.1.462,3.907C1865.381,5910.172,1866.3,5910.464,1867.783,5909.52Z" fill="#3a7d18"/>
        </g>
      </g>
      <g id="Grupo_2129" data-name="Grupo 2129">
        <g id="Grupo_2128" data-name="Grupo 2128">
          <path id="Trazado_5858" data-name="Trazado 5858" d="M1921.491,5941.348a20.848,20.848,0,0,1,.3-5.03c.439-3.42.986-7.674-.566-9.434a2.9,2.9,0,0,0-2.319-.872,9.775,9.775,0,0,0-3.545,1.1c.011.033.014.07.023.1a7.936,7.936,0,0,1,2.9-.817,2.89,2.89,0,0,1,2.317.872c1.553,1.758,1,6.013.567,9.432a20.89,20.89,0,0,0-.3,5.03.841.841,0,0,0,.958.7.828.828,0,0,0,.444-.214.883.883,0,0,0,.114-.175A.833.833,0,0,1,1921.491,5941.348Z" fill="#3a7d18"/>
        </g>
      </g>
      <g id="Grupo_2131" data-name="Grupo 2131">
        <g id="Grupo_2130" data-name="Grupo 2130">
          <path id="Trazado_5859" data-name="Trazado 5859" d="M1873.38,5920.175a3.769,3.769,0,0,0,3.493.725,5.144,5.144,0,0,0,1.39-.73,5.1,5.1,0,0,1-.763.342,3.76,3.76,0,0,1-3.491-.724,3.014,3.014,0,0,1-1.082-2.768,2.964,2.964,0,0,1,1.374-1.936,3.4,3.4,0,0,0-2,2.321A3.013,3.013,0,0,0,1873.38,5920.175Z" fill="#3a7d18"/>
        </g>
      </g>
      <g id="Grupo_2133" data-name="Grupo 2133">
        <g id="Grupo_2132" data-name="Grupo 2132">
          <path id="Trazado_5860" data-name="Trazado 5860" d="M1901.663,5941.617c-6.059,2.318-11.647,1.863-14.947-1.217-3.791-3.54-4.188-8.885-4.109-13.146.085-4.722-.454-8.054-1.609-9.935-.138.261-.3.486-.453.721,1.03,1.923,1.515,5.132,1.435,9.6-.078,4.259.316,9.6,4.109,13.143,3.3,3.08,8.888,3.535,14.948,1.219a33.987,33.987,0,0,0,5.7-2.812A34.485,34.485,0,0,1,1901.663,5941.617Z" fill="#3a7d18"/>
        </g>
      </g>
      <g id="Grupo_2135" data-name="Grupo 2135">
        <g id="Grupo_2134" data-name="Grupo 2134">
          <path id="Trazado_5861" data-name="Trazado 5861" d="M1859.107,5904.364a.842.842,0,0,1-.9-.769,5.984,5.984,0,0,1,2.276-4.546l.06-.056a10.012,10.012,0,0,1,1.207-.945,10.021,10.021,0,0,0-1.836,1.332l-.06.056a5.978,5.978,0,0,0-2.273,4.545.84.84,0,0,0,.907.77A.827.827,0,0,0,1859.107,5904.364Z" fill="#3a7d18"/>
        </g>
      </g>
      <g id="Grupo_2137" data-name="Grupo 2137">
        <g id="Grupo_2136" data-name="Grupo 2136">
          <path id="Trazado_5862" data-name="Trazado 5862" d="M1877.79,5915.545a5.519,5.519,0,0,0-2.619.988,5.6,5.6,0,0,1,1.993-.6,3.188,3.188,0,0,1,1.978.462,6.023,6.023,0,0,1-1.727,2.343,5.349,5.349,0,0,0,2.354-2.731A3.205,3.205,0,0,0,1877.79,5915.545Z" fill="#3a7d18"/>
        </g>
      </g>
      <g id="Grupo_2139" data-name="Grupo 2139">
        <g id="Grupo_2138" data-name="Grupo 2138">
          <path id="Trazado_5863" data-name="Trazado 5863" d="M1855.059,5936.352a29.168,29.168,0,0,0,1.055,11.843,67.13,67.13,0,0,0,4.256,11.156c3.423,7.218,7.428,14.17,11.425,21.135,3.886,7.028,7.846,14.061,11.063,21.47,3.19,7.385,5.826,15.179,6.349,23.238a64.043,64.043,0,0,0-2.953-11.629,102.6,102.6,0,0,0-4.573-11.075c-3.426-7.225-7.348-14.217-11.347-21.18-3.872-7.03-7.924-14.007-11.138-21.43a66.79,66.79,0,0,1-3.877-11.492A27.915,27.915,0,0,1,1855.059,5936.352Z" fill="#fff"/>
        </g>
      </g>
      <g id="Grupo_2141" data-name="Grupo 2141" opacity="0.6">
        <g id="Grupo_2140" data-name="Grupo 2140">
          <path id="Trazado_5864" data-name="Trazado 5864" d="M1902.968,5996.975c8.028,11.836,12.284,22.747,11.549,36.639-.693,13.047-8.226,21.823-13.954,32.511-1.566,2.927,3.372,5.3,4.923,2.411,6.638-12.393,13.644-21.5,14.442-36.5.752-14.194-4.715-26.09-12.795-38.012A2.556,2.556,0,1,0,1902.968,5996.975Z" fill="#3a7d18"/>
        </g>
      </g>
    </g>
    <line id="Línea_34" data-name="Línea 34" y2="254.135" transform="translate(2025.667 5765.607)" fill="none" stroke="#cecece" stroke-miterlimit="10" stroke-width="2" stroke-dasharray="6"/>
    <line id="Línea_35" data-name="Línea 35" x1="313.339" transform="translate(1919.997 5800.241)" fill="none" stroke="#cecece" stroke-miterlimit="10" stroke-width="2" stroke-dasharray="6"/>
    <line id="Línea_36" data-name="Línea 36" x1="313.339" transform="translate(1919.997 5846.356)" fill="none" stroke="#cecece" stroke-miterlimit="10" stroke-width="2" stroke-dasharray="6"/>
    <line id="Línea_37" data-name="Línea 37" x1="313.339" transform="translate(1919.997 5891.332)" fill="none" stroke="#cecece" stroke-miterlimit="10" stroke-width="2" stroke-dasharray="6"/>
    <line id="Línea_38" data-name="Línea 38" x1="313.339" transform="translate(1919.997 5937.447)" fill="none" stroke="#cecece" stroke-miterlimit="10" stroke-width="2" stroke-dasharray="6"/>
    <line id="Línea_39" data-name="Línea 39" x1="313.339" transform="translate(1919.997 5980.477)" fill="none" stroke="#cecece" stroke-miterlimit="10" stroke-width="2" stroke-dasharray="6"/>
    <line id="Línea_40" data-name="Línea 40" y2="254.135" transform="translate(2133.17 5765.607)" fill="none" stroke="#cecece" stroke-miterlimit="10" stroke-width="2" stroke-dasharray="6"/>
    <line id="Línea_41" data-name="Línea 41" y2="23.842" transform="translate(2025.667 5730.284)" fill="none" stroke="#fff" stroke-miterlimit="10" stroke-width="2" stroke-dasharray="6"/>
    <line id="Línea_42" data-name="Línea 42" y2="23.842" transform="translate(2133.17 5730.284)" fill="none" stroke="#fff" stroke-miterlimit="10" stroke-width="2" stroke-dasharray="6"/>
    <text id="LEGUMBRES" transform="translate(1890.367 5824.683) rotate(-90)" fill="#fff" font-size="25.413" font-family="OpenSans-Bold, Open Sans" font-weight="700"><tspan x="-76.122" y="0">LEGUMBRES</tspan></text>
  </g>
</svg>
