<svg xmlns="http://www.w3.org/2000/svg" width="134.505" height="134.504" viewBox="0 0 134.505 134.504">
  <g id="Grupo_3490" data-name="Grupo 3490" transform="translate(-294.456 -5193.49)">
    <g id="Grupo_1591" data-name="Grupo 1591" transform="translate(-1614 19.135)">
      <path id="Trazado_4303" data-name="Trazado 4303" d="M1975.708,5174.355q3.3,0,6.592.323t6.529.969q3.24.645,6.4,1.6t6.214,2.224q3.053,1.264,5.966,2.822t5.661,3.393q2.746,1.835,5.3,3.931t4.89,4.432q2.336,2.337,4.432,4.89t3.932,5.3q1.835,2.748,3.393,5.661t2.821,5.966q1.265,3.052,2.224,6.214t1.6,6.4q.645,3.242.969,6.529t.324,6.592q0,3.3-.324,6.591t-.969,6.529q-.643,3.24-1.6,6.4t-2.224,6.214q-1.264,3.053-2.821,5.966t-3.393,5.661q-1.836,2.746-3.932,5.3t-4.432,4.89q-2.337,2.337-4.89,4.432t-5.3,3.932q-2.748,1.836-5.661,3.393t-5.966,2.821q-3.052,1.265-6.214,2.224t-6.4,1.6q-3.242.644-6.529.968t-6.592.324q-3.3,0-6.591-.324t-6.529-.968q-3.24-.645-6.4-1.6t-6.214-2.224q-3.053-1.264-5.966-2.821t-5.661-3.393q-2.746-1.836-5.3-3.932t-4.89-4.432q-2.337-2.336-4.432-4.89t-3.932-5.3q-1.835-2.747-3.393-5.661t-2.821-5.966q-1.265-3.052-2.224-6.214t-1.6-6.4q-.645-3.24-.969-6.529t-.324-6.591q0-3.3.324-6.592t.969-6.529q.643-3.24,1.6-6.4t2.224-6.214q1.263-3.051,2.821-5.966t3.393-5.661q1.836-2.747,3.932-5.3t4.432-4.89q2.336-2.335,4.89-4.432t5.3-3.931q2.747-1.836,5.661-3.393t5.966-2.822q3.052-1.265,6.214-2.224t6.4-1.6q3.24-.645,6.529-.969T1975.708,5174.355Z" fill="#6595bf"/>
    </g>
    <circle id="Elipse_403" data-name="Elipse 403" cx="63.171" cy="63.171" r="63.171" transform="translate(298.537 5197.57)" fill="#fff"/>
    <g id="Grupo_1592" data-name="Grupo 1592" transform="translate(-1614 19.135)">
      <circle id="Elipse_404" data-name="Elipse 404" cx="57.466" cy="57.466" r="57.466" transform="translate(1917.694 5184.141)" fill="#aed3f2"/>
    </g>
    <path id="Trazado_5100" data-name="Trazado 5100" d="M2010.523,5225.526l-15.414-17.572-.111-.387.111.387h0l-.356,7.233-1.512-1.1-.788,1.082-3.64-3.636-1.7-.762-1.061,2.377-3.8-3.954-1.823-.391-.836,3.9-4.25-4.44h-1.867v4.665l5.883,5.884c-.4-.086-.8-.172-1.2-.237l0-.012-.026.006c-.11-.018-.219-.036-.332-.051l-9.407-9.721-1.823.388.969,4.564,4.825,4.615a23.2,23.2,0,0,0-2.9.436l-7.761-8.032-1.626.724v.211l1.818,4.086,4.069,4.069a23.263,23.263,0,0,0-3.159,1.508l-2.728-2.746v3.562l.582.575c-.2.146-.386.313-.582.467v66.846H1955.7c.762,2.957,2.865,7.163,8.676,7.863,12.264,1.478,19.244,0,19.244,0a57.12,57.12,0,0,0,47.118-47.106Zm-18.177-10.2-.071-.032.071.029Z" transform="translate(-1614 19.135)" fill="#81aecc"/>
    <g id="Grupo_1756" data-name="Grupo 1756" transform="translate(-1614 19.135)">
      <g id="Grupo_1755" data-name="Grupo 1755">
        <path id="Trazado_5101" data-name="Trazado 5101" d="M1980.674,5189.381c-.43-.6,0-6.718,0-6.718h-10.852s.43,6.115,0,6.718-14.556,14.384-14.556,19.466v77.906a4.872,4.872,0,0,0,2.43,4.248c3.047,1.733,8.938,2.858,17.552,2.858s14.505-1.125,17.552-2.858a4.873,4.873,0,0,0,2.431-4.248v-77.906C1995.231,5203.765,1981.1,5189.984,1980.674,5189.381Z" fill="#e8e0de"/>
        <g id="Grupo_1753" data-name="Grupo 1753">
          <path id="Trazado_5102" data-name="Trazado 5102" d="M1980.515,5185.752c.054-1.588.159-3.089.159-3.089h-.148C1980.484,5183.77,1980.461,5184.963,1980.515,5185.752Z" fill="#d3c4c0"/>
          <path id="Trazado_5103" data-name="Trazado 5103" d="M1969.97,5182.663h-.148s.1,1.5.16,3.089C1970.035,5184.963,1970.013,5183.77,1969.97,5182.663Z" fill="#d3c4c0"/>
          <path id="Trazado_5104" data-name="Trazado 5104" d="M1992.8,5288.215c-3.047,1.733-8.938,2.857-17.552,2.857s-14.505-1.124-17.552-2.857a4.875,4.875,0,0,1-2.43-4.249v2.787a4.872,4.872,0,0,0,2.43,4.248c3.047,1.733,8.938,2.858,17.552,2.858s14.505-1.125,17.552-2.858a4.873,4.873,0,0,0,2.431-4.248v-2.787A4.876,4.876,0,0,1,1992.8,5288.215Z" fill="#d3c4c0"/>
        </g>
        <path id="Trazado_5105" data-name="Trazado 5105" d="M1955.7,5207c6.533,3.476,14.8,3.355,21.873,3.4a45.757,45.757,0,0,0,17.424-2.825c-1.809-5.792-13.925-17.628-14.324-18.186-.43-.6,0-6.718,0-6.718h-10.852s.43,6.115,0,6.718C1969.436,5189.921,1958.065,5201.034,1955.7,5207Z" fill="#b7e2f3" opacity="0.32"/>
        <path id="Trazado_5106" data-name="Trazado 5106" d="M1969.828,5189.367c5.133,2.276,10.869.046,10.846.014-.43-.6,0-6.718,0-6.718h-10.852S1970.247,5188.71,1969.828,5189.367Z" fill="#c9b6b1" opacity="0.32"/>
        <path id="Trazado_5107" data-name="Trazado 5107" d="M1975.248,5228.823a163.061,163.061,0,0,1-19.982-1.206v30.071a166.276,166.276,0,0,0,39.965,0v-30.071A163.088,163.088,0,0,1,1975.248,5228.823Z" fill="#629fd6"/>
        <path id="Trazado_5108" data-name="Trazado 5108" d="M1987.077,5243.255a11.829,11.829,0,1,1-11.829-11.828A11.829,11.829,0,0,1,1987.077,5243.255Z" fill="#90d2ec"/>
        <circle id="Elipse_418" data-name="Elipse 418" cx="9.848" cy="9.848" r="9.848" transform="translate(1965.4 5233.407)" fill="#fdf0e9"/>
        <path id="Trazado_5109" data-name="Trazado 5109" d="M1980.331,5192.069c-1.056-1.836-.436-6.333-.632-8.257l-2.376.854c.227,2.281-.222,6.19.419,8.183,1.73,5.378,4.813,9.823,5.736,15.538,1.375,8.515.209,78.329.415,85.009a35.616,35.616,0,0,0,5.554-1.072c.026-8.047,1.273-80.31.241-85.608C1988.77,5202.007,1983.317,5197.259,1980.331,5192.069Z" fill="#b3d0dc" opacity="0.32"/>
        <path id="Trazado_5110" data-name="Trazado 5110" d="M1964.711,5270.94c.226-11.309-.223-22.622.2-33.924.352-9.353-1.864-22.238,2.066-30.989,2.664-5.931,6.2-11.821,6.46-15.676.17-2.472-.159-4.9-.019-7.321h-3.6s.472,5.649.042,6.252-14.6,14.85-14.6,19.932v77.905a4.874,4.874,0,0,0,2.43,4.249,21.65,21.65,0,0,0,7.006,2.124C1964.419,5285.968,1964.563,5278.327,1964.711,5270.94Z" fill="#d4c5c1" opacity="0.32"/>
        <path id="Trazado_5111" data-name="Trazado 5111" d="M1980.487,5245.8a5.239,5.239,0,1,1-10.478,0c0-2.893,5.239-10.323,5.239-10.323S1980.487,5242.9,1980.487,5245.8Z" fill="#7bcae9"/>
        <path id="Trazado_5112" data-name="Trazado 5112" d="M1967.927,5180.417v5.8s2.08.991,7.321.991,7.321-.991,7.321-.991v-5.8a46.956,46.956,0,0,1-14.642,0Z" fill="#7bcae9"/>
        <path id="Trazado_5113" data-name="Trazado 5113" d="M1976.942,5180.968v6.2a26.626,26.626,0,0,0,3.215-.326v-6.062C1979.327,5180.861,1978.263,5180.932,1976.942,5180.968Z" fill="#ccdfe8" opacity="0.32"/>
        <path id="Trazado_5114" data-name="Trazado 5114" d="M1974.645,5180.983a45.692,45.692,0,0,1-5.082-.287v6a26.812,26.812,0,0,0,5.082.495Z" fill="#609db6" opacity="0.35"/>
        <path id="Trazado_5115" data-name="Trazado 5115" d="M1982.569,5180.417c0,.943-3.278,1.708-7.321,1.708s-7.321-.765-7.321-1.708,3.278-1.709,7.321-1.709S1982.569,5179.473,1982.569,5180.417Z" fill="#a3daf0"/>
        <g id="Grupo_1754" data-name="Grupo 1754">
          <path id="Trazado_5116" data-name="Trazado 5116" d="M1978.151,5181.984c.694-.925,1.366-1.862,2-2.823-.409-.086-.851-.164-1.335-.227a42.376,42.376,0,0,1-4.519,3.169c.315.009.626.022.953.022A28.974,28.974,0,0,0,1978.151,5181.984Z" fill="#d8eff9" opacity="0.32"/>
          <path id="Trazado_5117" data-name="Trazado 5117" d="M1974.445,5180.265c.821-.472,1.629-.984,2.431-1.511-.525-.028-1.066-.046-1.628-.046-.114,0-.22.007-.333.008-1.776.868-3.551,1.943-5.2,2.809a15.646,15.646,0,0,0,1.892.359C1972.559,5181.3,1973.549,5180.78,1974.445,5180.265Z" fill="#d8eff9" opacity="0.32"/>
        </g>
      </g>
      <path id="Trazado_5118" data-name="Trazado 5118" d="M1980.053,5271.448c-7.711-2.509-14.575-11.256-17.371-18.934-2.362-6.488-4.573-12.946-6.589-19.49v53a4.917,4.917,0,0,0,2.33,4.248,20.128,20.128,0,0,0,6.716,2.125c-.005-.121-.005-.243-.009-.364a61.629,61.629,0,0,0,10.118.73c8.257,0,13.9-1.124,16.825-2.857a4.918,4.918,0,0,0,2.33-4.249V5270.9A22.721,22.721,0,0,1,1980.053,5271.448Z" fill="#e8e0de" opacity="0.32"/>
    </g>
  </g>
</svg>
