<svg xmlns="http://www.w3.org/2000/svg" width="146.06" height="125.53" viewBox="0 0 146.06 125.53">
  <g id="Grupo_3488" data-name="Grupo 3488" transform="translate(-335.776 -4061.438)">
    <path id="Trazado_4191" data-name="Trazado 4191" d="M2040.834,4082.07a62.765,62.765,0,1,1-62.765-62.767A62.765,62.765,0,0,1,2040.834,4082.07Z" transform="translate(-1572 42.135)" fill="#98bd11"/>
    <g id="Grupo_1543" data-name="Grupo 1543" transform="translate(-1572 42.135)" opacity="0.9">
      <path id="Trazado_4194" data-name="Trazado 4194" d="M1930.822,4047.427v56h-12.363v-45.6h-10.683v-10.4Z" fill="#00181e"/>
      <path id="Trazado_4195" data-name="Trazado 4195" d="M1951.2,4100.948a22.8,22.8,0,0,1-8.127-9.961,42.671,42.671,0,0,1,0-31.119,22.8,22.8,0,0,1,8.127-9.96,22.051,22.051,0,0,1,23.657,0,22.816,22.816,0,0,1,8.127,9.96,42.671,42.671,0,0,1,0,31.119,22.817,22.817,0,0,1-8.127,9.961,22.062,22.062,0,0,1-23.657,0Zm19.5-11.92q2.786-4.4,2.785-13.6t-2.785-13.6a8.816,8.816,0,0,0-15.262,0q-2.787,4.4-2.786,13.6t2.786,13.6a8.818,8.818,0,0,0,15.262,0Z" fill="#00181e"/>
      <path id="Trazado_4196" data-name="Trazado 4196" d="M1994.732,4073.467q-3.7-4.2-3.7-11.239t3.7-11.241a12.978,12.978,0,0,1,19.116,0q3.663,4.2,3.663,11.241t-3.663,11.239a12.974,12.974,0,0,1-19.116,0Zm13.66-4.6q1.488-2.239,1.488-6.64t-1.488-6.64a4.783,4.783,0,0,0-8.127.04,15.035,15.035,0,0,0,0,13.2,4.783,4.783,0,0,0,8.127.04Zm27.739-21.441h9.082l-36.478,56h-9.081Zm-2.4,54.761a12.522,12.522,0,0,1-4.694-5.4,20.67,20.67,0,0,1,0-16.321,12.314,12.314,0,0,1,11.524-7.279,12.174,12.174,0,0,1,9.577,4.2q3.7,4.2,3.7,11.24t-3.7,11.24a12.175,12.175,0,0,1-9.577,4.2A12.645,12.645,0,0,1,2033.728,4102.188Zm10.912-6.96a15.381,15.381,0,0,0,0-13.2,4.636,4.636,0,0,0-4.082-2.28,4.685,4.685,0,0,0-4.045,2.239q-1.527,2.242-1.526,6.641t1.526,6.64a4.683,4.683,0,0,0,4.045,2.24A4.636,4.636,0,0,0,2044.64,4095.228Z" fill="#00181e"/>
    </g>
  </g>
</svg>
