<svg xmlns="http://www.w3.org/2000/svg" xmlns:xlink="http://www.w3.org/1999/xlink" width="134.505" height="134.504" viewBox="0 0 134.505 134.504">
  <defs>
    <clipPath id="clip-path">
      <circle id="Elipse_415" data-name="Elipse 415" cx="57.466" cy="57.466" r="57.466" transform="translate(1917.694 4866.037)" fill="none"/>
    </clipPath>
    <linearGradient id="linear-gradient" y1="0.5" x2="1" y2="0.5" gradientUnits="objectBoundingBox">
      <stop offset="0.011" stop-color="#100b21"/>
      <stop offset="1" stop-color="#3b3648"/>
    </linearGradient>
  </defs>
  <g id="Grupo_3488" data-name="Grupo 3488" transform="translate(-294.456 -4875.386)">
    <g id="Grupo_1587" data-name="Grupo 1587" transform="translate(-1614 19.135)">
      <path id="Trazado_4301" data-name="Trazado 4301" d="M1975.708,4856.251q3.3,0,6.592.324t6.529.968q3.24.645,6.4,1.6t6.214,2.223q3.053,1.264,5.966,2.822t5.661,3.393q2.746,1.836,5.3,3.932t4.89,4.432q2.336,2.335,4.432,4.89t3.932,5.3q1.835,2.747,3.393,5.661t2.821,5.966q1.265,3.052,2.224,6.214t1.6,6.4q.645,3.24.969,6.528t.324,6.592q0,3.3-.324,6.592t-.969,6.529q-.643,3.24-1.6,6.4t-2.224,6.214q-1.264,3.051-2.821,5.966t-3.393,5.66q-1.836,2.748-3.932,5.3t-4.432,4.89q-2.337,2.336-4.89,4.432t-5.3,3.931q-2.748,1.836-5.661,3.393t-5.966,2.822q-3.052,1.264-6.214,2.223t-6.4,1.6q-3.242.645-6.529.968t-6.592.324q-3.3,0-6.591-.324t-6.529-.968q-3.24-.645-6.4-1.6t-6.214-2.223q-3.053-1.265-5.966-2.822t-5.661-3.393q-2.746-1.834-5.3-3.931t-4.89-4.432q-2.337-2.337-4.432-4.89t-3.932-5.3q-1.835-2.747-3.393-5.66t-2.821-5.966q-1.265-3.053-2.224-6.214t-1.6-6.4q-.645-3.242-.969-6.529t-.324-6.592q0-3.3.324-6.592t.969-6.528q.643-3.24,1.6-6.4t2.224-6.214q1.263-3.053,2.821-5.966t3.393-5.661q1.836-2.747,3.932-5.3t4.432-4.89q2.336-2.337,4.89-4.432t5.3-3.932q2.747-1.836,5.661-3.393t5.966-2.822q3.052-1.265,6.214-2.223t6.4-1.6q3.24-.644,6.529-.968T1975.708,4856.251Z" fill="#6595bf"/>
    </g>
    <circle id="Elipse_399" data-name="Elipse 399" cx="63.171" cy="63.171" r="63.171" transform="translate(298.537 4879.467)" fill="#fff"/>
    <g id="Grupo_1588" data-name="Grupo 1588" transform="translate(-1614 19.135)">
      <circle id="Elipse_400" data-name="Elipse 400" cx="57.466" cy="57.466" r="57.466" transform="translate(1917.694 4866.037)" fill="#aed3f2"/>
    </g>
    <g id="Grupo_1637" data-name="Grupo 1637" transform="translate(-1614 19.135)">
      <g id="Grupo_1636" data-name="Grupo 1636" clip-path="url(#clip-path)">
        <g id="Grupo_1635" data-name="Grupo 1635">
          <g id="Grupo_1602" data-name="Grupo 1602">
            <g id="Grupo_1598" data-name="Grupo 1598">
              <g id="Grupo_1597" data-name="Grupo 1597">
                <path id="Trazado_4306" data-name="Trazado 4306" d="M2028.1,4885.349a3.647,3.647,0,0,0,1.028-1.166.865.865,0,0,1,1.432-.04,9.339,9.339,0,0,1,.512,5.339c-.291.829-.231-.424-.837.377Z" fill="#644436"/>
                <path id="Trazado_4307" data-name="Trazado 4307" d="M2029.323,4883.962a35.662,35.662,0,0,1-29.133,10.682c.214.375.434.748.634,1.129.49.752.985,1.5,1.5,2.234,1.723,2.448,3.644,4.756,5.419,7.158a20.493,20.493,0,0,0,9.1-1.148,26.3,26.3,0,0,0,12.053-9.479,12.114,12.114,0,0,0,2.443-5.327A5.488,5.488,0,0,0,2029.323,4883.962Z" fill="#ec9507"/>
                <path id="Trazado_4308" data-name="Trazado 4308" d="M2029.323,4883.962a35.662,35.662,0,0,1-29.133,10.682c.214.375.434.748.634,1.129.49.752.985,1.5,1.5,2.234.284.4.575.8.868,1.2,8.781.774,19.309-2.679,27.406-13.854A4.362,4.362,0,0,0,2029.323,4883.962Z" fill="#ffaf29"/>
              </g>
              <path id="Trazado_4309" data-name="Trazado 4309" d="M2026.353,4894.443c-1.84,1.742-4.581,2.758-6.775,3.96a26.694,26.694,0,0,1-6.584,2.353,48.812,48.812,0,0,1-7.76,1.127c.846,1.089,1.693,2.176,2.51,3.282a20.493,20.493,0,0,0,9.1-1.148,26.3,26.3,0,0,0,12.053-9.479,13.343,13.343,0,0,0,2.28-4.5C2030.277,4891.08,2026.909,4893.917,2026.353,4894.443Z" fill="#e0bd57" opacity="0.65"/>
            </g>
            <g id="Grupo_1600" data-name="Grupo 1600">
              <g id="Grupo_1599" data-name="Grupo 1599">
                <path id="Trazado_4310" data-name="Trazado 4310" d="M2034.615,4891.948a3.648,3.648,0,0,0,1.236-.942.865.865,0,0,1,1.412.242,9.34,9.34,0,0,1-.545,5.335c-.447.757-.143-.461-.894.206Z" fill="#644436"/>
                <path id="Trazado_4311" data-name="Trazado 4311" d="M2033.589,4901.113a12.112,12.112,0,0,0,3.439-4.743,5.489,5.489,0,0,0-.947-5.543,35.816,35.816,0,0,1-41.2-.418l-2.208,2.945c5.267,2.011,8.062,7.712,12.518,11.166a19.4,19.4,0,0,0,14.723,3.525A26.3,26.3,0,0,0,2033.589,4901.113Z" fill="#ec9507"/>
                <path id="Trazado_4312" data-name="Trazado 4312" d="M2001.1,4897.808c-2.661-1.67-7.585-5.584-7.585-5.584l1.361-1.815a35.816,35.816,0,0,0,41.2.418,4.352,4.352,0,0,1,.979,1.613C2024.125,4904.4,2009.772,4903.248,2001.1,4897.808Z" fill="#ffaf29"/>
              </g>
              <path id="Trazado_4313" data-name="Trazado 4313" d="M2016.776,4904.093a26.727,26.727,0,0,0,6.917-1.017c2.387-.748,5.274-1.206,7.42-2.554.648-.407,4.507-2.528,5.593-3.369a13.345,13.345,0,0,1-3.117,3.96,26.3,26.3,0,0,1-13.679,6.932,19.4,19.4,0,0,1-14.723-3.525,23.654,23.654,0,0,1-2.569-2.362C2006.39,4903.766,2013.293,4904.239,2016.776,4904.093Z" fill="#e0bd57" opacity="0.65"/>
            </g>
            <g id="Grupo_1601" data-name="Grupo 1601">
              <path id="Trazado_4314" data-name="Trazado 4314" d="M2033.91,4903.374a3.5,3.5,0,0,0,1.377-.569.83.83,0,0,1,1.25.57,8.975,8.975,0,0,1-1.815,4.812c-.6.591-.02-.463-.88-.029Z" fill="#644436"/>
              <path id="Trazado_4315" data-name="Trazado 4315" d="M2030.709,4911.617a11.606,11.606,0,0,0,4.352-3.552,5.263,5.263,0,0,0,.483-5.37,34.338,34.338,0,0,1-38.087-10.5l-2.769,2.187c4.388,3.157,5.579,9.127,8.861,13.422a18.6,18.6,0,0,0,12.78,6.882A25.226,25.226,0,0,0,2030.709,4911.617Z" fill="#ec9507"/>
              <path id="Trazado_4316" data-name="Trazado 4316" d="M2001.41,4900.578c-2.057-2.2-5.66-7.037-5.66-7.037l1.707-1.348a34.341,34.341,0,0,0,38.087,10.5,4.185,4.185,0,0,1,.511,1.735C2021.13,4912.343,2008.11,4907.749,2001.41,4900.578Z" fill="#ffaf29"/>
              <path id="Trazado_4317" data-name="Trazado 4317" d="M1994.24,4889.414c-.392.451-.8,1.088-1.114,1.534-.265.375-1.056,1.914-1.376,2.377,1.5,1.262,4.121,2.05,4.523,2.462.337-1.07.724-3.241,1.64-3.839A6.7,6.7,0,0,1,1994.24,4889.414Z" fill="#576d33"/>
            </g>
          </g>
          <g id="Grupo_1604" data-name="Grupo 1604">
            <path id="Trazado_4318" data-name="Trazado 4318" d="M2008.212,4879.022a3.145,3.145,0,0,1-.726,2.442,13.012,13.012,0,0,1-2.143,2.14,15.3,15.3,0,0,1-2.947,2.082,6.02,6.02,0,0,1-3.509.711,4.436,4.436,0,0,1-2.906-2.219,5.853,5.853,0,0,1-1.016-2.087,2.849,2.849,0,0,1,.6-2.388c1.069-1.3,3.125-1.8,4.928-2.15a16.807,16.807,0,0,1,4.617-.476C2006.589,4877.212,2007.944,4877.883,2008.212,4879.022Z" fill="#00683b"/>
            <path id="Trazado_4319" data-name="Trazado 4319" d="M2001.44,4889.134a5.727,5.727,0,0,0,4.158,3.726,6.025,6.025,0,0,0,5.385-1.57,4.7,4.7,0,0,0,1.468-2.894,3.224,3.224,0,0,0-1.265-2.9c-1.181-.82-2.768-.59-4.181-.325-1.442.269-3.062.659-3.794,1.931-.241.419-.36.9-.606,1.317A1.269,1.269,0,0,1,2001.44,4889.134Z" fill="#00683b"/>
            <path id="Trazado_4320" data-name="Trazado 4320" d="M1999.178,4879.356a30.172,30.172,0,0,1-1.341,4.562,6.932,6.932,0,0,1-3.046,3.534c-.737.372-1.557.555-2.305.9a5.721,5.721,0,0,0-3.1,3.83l3.623,5.864a7.391,7.391,0,0,0,4.453-3.008,13.657,13.657,0,0,1,2.013-2.9,7.1,7.1,0,0,1,3.658-1.277l6.921-1.047q.118-1.392.235-2.785l-7.456,2.328a15.911,15.911,0,0,1,4.156-4.272,6.55,6.55,0,0,0,2.059-1.813,1.779,1.779,0,0,0-.416-2.436,29.959,29.959,0,0,0-7.568,6.017c-.391.431-.925.919-1.472.72a1.046,1.046,0,0,1-.341-1.5,4.453,4.453,0,0,1,1.307-1.151,6.412,6.412,0,0,0,1.961-7.566c-1.069-.007-2.316.071-2.926.949A3.2,3.2,0,0,0,1999.178,4879.356Z" fill="#369f57"/>
            <path id="Trazado_4321" data-name="Trazado 4321" d="M2008.629,4880.838a29.927,29.927,0,0,0-4.946,3.462c-1.915,4.255-7.254,7.2-12.369,9.9a.973.973,0,0,0-.439.4q1.065,1.726,2.131,3.451a7.391,7.391,0,0,0,4.453-3.008,13.625,13.625,0,0,1,2.014-2.9,7.1,7.1,0,0,1,3.657-1.277l6.921-1.047q.118-1.392.235-2.785l-7.456,2.328a15.893,15.893,0,0,1,4.156-4.271,6.565,6.565,0,0,0,2.059-1.814A1.779,1.779,0,0,0,2008.629,4880.838Z" fill="#20754c" opacity="0.25"/>
            <path id="Trazado_4322" data-name="Trazado 4322" d="M1992.417,4891.758a9.752,9.752,0,0,0,2.112,5.761,7.381,7.381,0,0,0,2.93-2.477,13.625,13.625,0,0,1,2.014-2.9,7.1,7.1,0,0,1,3.657-1.277l.22-.033a29.534,29.534,0,0,1-4.2-1.613C1997.064,4887.98,1992.544,4888.876,1992.417,4891.758Z" fill="#2b9560" opacity="0.37"/>
            <path id="Trazado_4323" data-name="Trazado 4323" d="M1994,4873.832a7.279,7.279,0,0,0-1.262,3.264c-.2,1.135-.249,2.465.584,3.261.883.845,2.293.67,3.493.438,1.559-.3,3.25-.678,4.252-1.91a3.907,3.907,0,0,0,.722-3.222,4.41,4.41,0,0,0-7.789-1.831Z" fill="#008d59"/>
            <g id="Grupo_1603" data-name="Grupo 1603">
              <path id="Trazado_4324" data-name="Trazado 4324" d="M2009.17,4886.019a5,5,0,0,0-3.368,3.065,4.434,4.434,0,1,0,8.387,2.884,4.124,4.124,0,0,1,.667-1.559c.767-.825,2.266-.52,3.045-1.333a1.746,1.746,0,0,0,.132-2.061,2.863,2.863,0,0,0-1.8-1.2,8.538,8.538,0,0,0-2.21-.141l-2.109.05A11.1,11.1,0,0,0,2009.17,4886.019Z" fill="#008d59"/>
              <path id="Trazado_4325" data-name="Trazado 4325" d="M2012.222,4892.658c1.416-1.3-.254-2.125,3.958-3.966a1.812,1.812,0,0,0,1.082-1.7c-.006-.3-.019-.572-.01-.75a3.427,3.427,0,0,0-1.02-.425,8.538,8.538,0,0,0-2.21-.141l-2.109.05a11.1,11.1,0,0,0-2.743.295,5.184,5.184,0,0,0-2.662,1.791C2006.107,4894.14,2009.4,4895.239,2012.222,4892.658Z" fill="#008d59"/>
              <path id="Trazado_4326" data-name="Trazado 4326" d="M2011.062,4885.848c-1.268.133-2.837.465-3.46,1.471-.581.938-.3,2.247.063,3.35a1.316,1.316,0,0,0,1.054.875c.08.014.157.028.232.046,3.277-.007,2.5-3.051,3.437-5l0-.011C2011.933,4886.355,2011.49,4886.115,2011.062,4885.848Z" fill="#2b9560" opacity="0.55"/>
            </g>
            <path id="Trazado_4327" data-name="Trazado 4327" d="M2018.033,4887.015a2.4,2.4,0,0,0-.781-.775l0,0a3.326,3.326,0,0,0-.751-.347c-.088-.029-.177-.054-.266-.076a8.538,8.538,0,0,0-2.21-.141l-2.109.05a11.1,11.1,0,0,0-2.743.295c-.166.047-.328.106-.489.169l-.154.065c-.112.048-.221.1-.329.157-.079.041-.157.084-.233.128-.1.058-.2.118-.291.183s-.176.125-.262.191c-.032.025-.064.05-.095.076a4.7,4.7,0,0,0-1.515,2.1,4.526,4.526,0,0,0,.842,4.36,4.416,4.416,0,0,0,1.749,1.205c-.788-2-.586-3.959,1.307-5.366,2.859-2.184,5.359-.881,8.325-.367A1.786,1.786,0,0,0,2018.033,4887.015Z" fill="#2b9560" opacity="0.37"/>
            <path id="Trazado_4328" data-name="Trazado 4328" d="M2017,4881.412a23.784,23.784,0,0,0-1.911-2.433c-.9-1.341-1.054-3.154-2.217-4.276a3.868,3.868,0,0,0-3.984-.675,6.126,6.126,0,0,0-3.062,2.839,8.11,8.11,0,0,0-.56,6.735,7.017,7.017,0,0,0,5.067,4.359,6.194,6.194,0,0,0,6.144-2.4A4.19,4.19,0,0,0,2017,4881.412Z" fill="#00ab79"/>
            <path id="Trazado_4329" data-name="Trazado 4329" d="M1998.376,4874.129c-1.627,1.261-2.925,3.2-2.711,5.249a6.054,6.054,0,0,0,3.8,4.543,7.566,7.566,0,0,0,5.052.508,5.242,5.242,0,0,0,3.635-3.38,7.668,7.668,0,0,0-.049-3.7,7.334,7.334,0,0,0-1.28-3.2,5.053,5.053,0,0,0-4.167-1.735A7.738,7.738,0,0,0,1998.376,4874.129Z" fill="#00ab79"/>
            <path id="Trazado_4330" data-name="Trazado 4330" d="M1994,4873.832a7.279,7.279,0,0,0-1.262,3.264c-.2,1.135-.249,2.465.584,3.261.883.845,2.293.67,3.493.438,1.559-.3,3.25-.678,4.252-1.91a3.907,3.907,0,0,0,.722-3.222,4.41,4.41,0,0,0-7.789-1.831Z" fill="#008d59"/>
            <path id="Trazado_4331" data-name="Trazado 4331" d="M1998.48,4872.261a4.161,4.161,0,0,0-.946-.1c-1.663,2.2-1.028,4.82-3.277,6.772-.4.351-1.489.3-1.536.348a2.194,2.194,0,0,0,.6,1.075c.883.845,2.293.67,3.493.438,1.559-.3,3.25-.678,4.252-1.91a3.907,3.907,0,0,0,.722-3.222A4.514,4.514,0,0,0,1998.48,4872.261Z" fill="#2b9560" opacity="0.37"/>
            <path id="Trazado_4332" data-name="Trazado 4332" d="M2017,4881.412a23.784,23.784,0,0,0-1.911-2.433c-.9-1.341-1.054-3.154-2.217-4.276a3.868,3.868,0,0,0-3.984-.675,6.126,6.126,0,0,0-3.062,2.839,8.11,8.11,0,0,0-.56,6.735,7.017,7.017,0,0,0,5.067,4.359,6.194,6.194,0,0,0,6.144-2.4A4.19,4.19,0,0,0,2017,4881.412Z" fill="#00ab79"/>
            <path id="Trazado_4333" data-name="Trazado 4333" d="M2012.073,4879.482c.1-2.323-1.408-4.038-2.974-5.519-.072.023-.145.039-.215.065a6.126,6.126,0,0,0-3.062,2.839,8.11,8.11,0,0,0-.56,6.735,7.2,7.2,0,0,0,2.494,3.225A10.033,10.033,0,0,0,2012.073,4879.482Z" fill="#00ab79"/>
            <path id="Trazado_4334" data-name="Trazado 4334" d="M2013.183,4880.277c-2.715-1.227-6.444,3.149-5.236,6.686a6.509,6.509,0,0,0,2.382,1,6.194,6.194,0,0,0,6.144-2.4,4.638,4.638,0,0,0,.858-2.838C2015.894,4882.1,2014.481,4880.7,2013.183,4880.277Z" fill="#2b9560" opacity="0.37"/>
            <path id="Trazado_4335" data-name="Trazado 4335" d="M1998.376,4874.129c-1.627,1.261-2.925,3.2-2.711,5.249a6.054,6.054,0,0,0,3.8,4.543,7.566,7.566,0,0,0,5.052.508,5.242,5.242,0,0,0,3.635-3.38,7.668,7.668,0,0,0-.049-3.7,7.334,7.334,0,0,0-1.28-3.2,5.053,5.053,0,0,0-4.167-1.735A7.738,7.738,0,0,0,1998.376,4874.129Z" fill="#00ab79"/>
            <path id="Trazado_4336" data-name="Trazado 4336" d="M2002.128,4874.181c-1.114-.942-3.366,1.193-4.349,2.27-1.106,1.211-1.661,2.527-.067,3.593,1.243,1.15,3.991.922,5.362-.809C2003.532,4878.22,2003.15,4875.046,2002.128,4874.181Z" fill="#2b9560" opacity="0.37"/>
            <path id="Trazado_4337" data-name="Trazado 4337" d="M2006.824,4874.145a4.983,4.983,0,0,0-3.8-1.733,13.708,13.708,0,0,1,1.29,4.737c.617,4.566-3.087,5.713-6.569,5.718a7.911,7.911,0,0,0,1.725,1.054,7.566,7.566,0,0,0,5.052.508,5.242,5.242,0,0,0,3.635-3.38,7.668,7.668,0,0,0-.049-3.7A7.334,7.334,0,0,0,2006.824,4874.145Z" fill="#008d59"/>
            <path id="Trazado_4338" data-name="Trazado 4338" d="M2000.816,4878.811c-3.041,2.517.643,3.795,1.445,5.823a6.611,6.611,0,0,0,2.257-.2,5.242,5.242,0,0,0,3.635-3.38,7.668,7.668,0,0,0-.049-3.7,10.394,10.394,0,0,0-.591-2.026c-2.462-1.837-1.931.345-3.2,1.831C2003.776,4877.773,2001.448,4878.287,2000.816,4878.811Z" fill="#83bd9b" opacity="0.25"/>
            <path id="Trazado_4339" data-name="Trazado 4339" d="M1995.1,4873.986a3.5,3.5,0,0,0-1.259,1.666.425.425,0,0,0,.528.55,2.625,2.625,0,0,0,1.577-1.517c.111-.295.127-.7-.151-.85A.7.7,0,0,0,1995.1,4873.986Z" fill="#43a172" opacity="0.55"/>
            <path id="Trazado_4340" data-name="Trazado 4340" d="M1999.151,4875.92a2.724,2.724,0,0,0-.693.405.772.772,0,0,0-.252.726.741.741,0,0,0,.584.5,1.678,1.678,0,0,0,.8-.074,4.655,4.655,0,0,0,1.8-1c.255-.228.5-.579.352-.887C2001.641,4875.381,2000.893,4875.033,1999.151,4875.92Z" fill="#6bb590" opacity="0.55"/>
            <path id="Trazado_4341" data-name="Trazado 4341" d="M2015.682,4883.315c0-.4-1.164-1.065-1.412-1.486a1.94,1.94,0,0,0-1.183-.91c-.674-.122-.982.426-1.172.917q-.464,1.2-.925,2.4a2.883,2.883,0,0,0-.265,1.128,1.9,1.9,0,0,0,.573,1.291C2011.687,4887.032,2015.716,4887.757,2015.682,4883.315Z" fill="#43a172" opacity="0.35"/>
            <path id="Trazado_4342" data-name="Trazado 4342" d="M1993.021,4897.926a8.234,8.234,0,0,0,1.438-2.584,2.8,2.8,0,0,0-.606-2.763,3.066,3.066,0,0,0-2.146-.683c-.769.009-1.529.17-2.3.205Z" fill="#90d393"/>
          </g>
          <g id="Grupo_1611" data-name="Grupo 1611">
            <g id="Grupo_1605" data-name="Grupo 1605">
              <path id="Trazado_4343" data-name="Trazado 4343" d="M1974.974,4910l-37.986-.006a3.182,3.182,0,0,1-3.056-2.351l-3.2-12.621a6.855,6.855,0,0,1,6.745-8.705l35.235.142a7.446,7.446,0,0,1,7.311,8.692l-2.206,12.516A2.856,2.856,0,0,1,1974.974,4910Z" fill="#86422e"/>
              <path id="Trazado_4344" data-name="Trazado 4344" d="M1958.345,4905.727c-16.595.231-23.185-3.227-25.113-5.135l1.738,6.89a3.032,3.032,0,0,0,2.914,2.246l36.159.007a2.724,2.724,0,0,0,2.708-2.229l.812-4.658C1973.073,4905.611,1963.863,4905.651,1958.345,4905.727Z" fill="#b85c38" opacity="0.35"/>
              <path id="Trazado_4345" data-name="Trazado 4345" d="M1972.707,4886.459l-35.235-.142a6.855,6.855,0,0,0-6.745,8.705l.392,1.543a3.551,3.551,0,0,0,.243.652,3.782,3.782,0,0,0,2.669,1.139l42.983.088a3.414,3.414,0,0,0,2.544-1.118,3.243,3.243,0,0,0,.19-.646l.27-1.53A7.446,7.446,0,0,0,1972.707,4886.459Z" fill="#b85c38" opacity="0.35"/>
              <path id="Trazado_4346" data-name="Trazado 4346" d="M1936.147,4897.4l38.707.086c2.536.005,4.7.278,5.141-2.205l.023-.129a7.446,7.446,0,0,0-7.311-8.692l-35.235-.142a6.855,6.855,0,0,0-6.745,8.705l.033.131C1931.4,4897.658,1933.577,4897.393,1936.147,4897.4Z" fill="#712109"/>
              <path id="Trazado_4347" data-name="Trazado 4347" d="M1975.505,4889.506c.005.689-1.854,1.239-4.154,1.232s-4.181-.572-4.195-1.261,1.85-1.245,4.161-1.236S1975.5,4888.817,1975.505,4889.506Z" fill="#98422e"/>
              <path id="Trazado_4348" data-name="Trazado 4348" d="M1964.837,4889.469c.01.411-1.1.741-2.477.736s-2.506-.342-2.519-.754,1.1-.743,2.479-.738S1964.827,4889.057,1964.837,4889.469Z" fill="#98422e"/>
            </g>
            <path id="Trazado_4349" data-name="Trazado 4349" d="M1944.743,4890.141a25.08,25.08,0,0,1,4.614-1.15,8.766,8.766,0,0,1,4.553,2.139c6.058,5.011,2.038,12.72-.112,18.866l-16.81,0a3.182,3.182,0,0,1-3.056-2.351l-3.2-12.621a7.32,7.32,0,0,1-.218-1.916c2.17-.269,4.25-.88,6.414-1.219A52.036,52.036,0,0,0,1944.743,4890.141Z" fill="#c06f4f" opacity="0.32"/>
            <g id="Grupo_1608" data-name="Grupo 1608">
              <g id="Grupo_1607" data-name="Grupo 1607">
                <g id="Grupo_1606" data-name="Grupo 1606">
                  <path id="Trazado_4350" data-name="Trazado 4350" d="M1946.91,4910.467l-14.407-1.094c-.958-.067-1.45-.994-1.172-2.2l2.471-10.717c.845-3.665,4.357-6.988,7.415-6.988h10.535c3.348,0,5.751,3.758,3.777,7.669l-5.7,11.286A3.418,3.418,0,0,1,1946.91,4910.467Z" fill="#86422e"/>
                  <path id="Trazado_4351" data-name="Trazado 4351" d="M1954.9,4898.381h-21.545l.443-1.922c.846-3.665,4.358-6.988,7.416-6.988h10.535c3.348,0,5.751,3.758,3.777,7.669Z" fill="#712109"/>
                  <path id="Trazado_4352" data-name="Trazado 4352" d="M1944.126,4910.233l-13.373-.921c-.958-.066-1.453-.994-1.179-2.2l2.443-10.722c.836-3.667,4.342-6.992,7.4-6.992h10.543c3.35,0,4.7,3.573,2.737,7.489l-5.653,11.3A3.4,3.4,0,0,1,1944.126,4910.233Z" fill="#86422e"/>
                  <path id="Trazado_4353" data-name="Trazado 4353" d="M1932.735,4897.871l18.428.558a3.466,3.466,0,0,0,2.689-1.819l.011-.019c2.449-4.077,1.214-8.023-2.633-8.017l-12.028.02c-3.469,0-7.076,3.656-7.6,7.461l0,.017C1931.463,4897.1,1931.936,4897.847,1932.735,4897.871Z" fill="#712109"/>
                  <path id="Trazado_4354" data-name="Trazado 4354" d="M1943.644,4908.583l-11.38-.723c-.822-.052-1.25-.84-1.018-1.865l2.067-9.157c.709-3.141,3.714-5.982,6.333-5.969l8.967.044c2.831.014,3.952,3.056,2.289,6.374l-4.792,9.56A2.9,2.9,0,0,1,1943.644,4908.583Z" fill="#f7d8b7"/>
                  <path id="Trazado_4355" data-name="Trazado 4355" d="M1936.93,4895.015a.808.808,0,0,1-.672.552c-.258,0-.375-.26-.262-.57a.81.81,0,0,1,.671-.551C1936.925,4894.45,1937.043,4894.705,1936.93,4895.015Z" fill="#e1b892"/>
                  <path id="Trazado_4356" data-name="Trazado 4356" d="M1940.061,4898.775a.815.815,0,0,1-.689.558c-.265-.008-.388-.272-.273-.589a.814.814,0,0,1,.687-.558C1940.052,4898.194,1940.175,4898.457,1940.061,4898.775Z" fill="#e1b892"/>
                  <path id="Trazado_4357" data-name="Trazado 4357" d="M1940.673,4901.71a.809.809,0,0,1-.695.56c-.268-.011-.392-.28-.277-.6a.813.813,0,0,1,.694-.56C1940.663,4901.121,1940.788,4901.389,1940.673,4901.71Z" fill="#e1b892"/>
                  <path id="Trazado_4358" data-name="Trazado 4358" d="M1948.859,4898.94a.838.838,0,0,1-.718.575c-.281-.01-.416-.281-.3-.607a.834.834,0,0,1,.716-.574C1948.838,4898.342,1948.974,4898.613,1948.859,4898.94Z" fill="#e1b892"/>
                  <path id="Trazado_4359" data-name="Trazado 4359" d="M1947.966,4892.444a.842.842,0,0,1-.7.572c-.276,0-.407-.264-.294-.582a.842.842,0,0,1,.7-.571C1947.947,4891.865,1948.079,4892.125,1947.966,4892.444Z" fill="#e1b892"/>
                  <path id="Trazado_4360" data-name="Trazado 4360" d="M1934.113,4901.44a.8.8,0,0,1-.674.549c-.256-.012-.371-.274-.256-.587a.8.8,0,0,1,.671-.548C1934.111,4900.864,1934.227,4901.126,1934.113,4901.44Z" fill="#e1b892"/>
                  <path id="Trazado_4361" data-name="Trazado 4361" d="M1936.935,4899.252a.8.8,0,0,1-.679.553c-.26-.009-.378-.271-.264-.584a.806.806,0,0,1,.678-.553C1936.93,4898.676,1937.05,4898.938,1936.935,4899.252Z" fill="#e1b892"/>
                  <path id="Trazado_4362" data-name="Trazado 4362" d="M1942.7,4892.8a.828.828,0,0,1-.688.562c-.267,0-.391-.26-.278-.573a.831.831,0,0,1,.686-.562C1942.684,4892.234,1942.81,4892.49,1942.7,4892.8Z" fill="#e1b892"/>
                  <path id="Trazado_4363" data-name="Trazado 4363" d="M1944.07,4895.448a.829.829,0,0,1-.7.566c-.271-.006-.4-.268-.284-.585a.83.83,0,0,1,.7-.565C1944.055,4894.869,1944.183,4895.13,1944.07,4895.448Z" fill="#e1b892"/>
                  <path id="Trazado_4364" data-name="Trazado 4364" d="M1944.4,4906.406a.813.813,0,0,1-.714.568c-.278-.016-.408-.3-.292-.624a.815.815,0,0,1,.713-.568C1944.386,4905.8,1944.518,4906.077,1944.4,4906.406Z" fill="#e1b892"/>
                  <path id="Trazado_4365" data-name="Trazado 4365" d="M1936.858,4905.872a.8.8,0,0,1-.689.555c-.264-.016-.383-.288-.268-.608a.8.8,0,0,1,.688-.554C1936.853,4905.279,1936.974,4905.551,1936.858,4905.872Z" fill="#e1b892"/>
                  <path id="Trazado_4366" data-name="Trazado 4366" d="M1946.06,4901.932a1.4,1.4,0,0,1-1.212.968c-.47-.021-.692-.486-.5-1.039a1.4,1.4,0,0,1,1.206-.966C1946.03,4900.912,1946.256,4901.377,1946.06,4901.932Z" fill="#e1b892"/>
                  <path id="Trazado_4367" data-name="Trazado 4367" d="M1940.544,4904.894a1.368,1.368,0,0,1-1.188.953c-.457-.026-.667-.491-.47-1.038a1.373,1.373,0,0,1,1.183-.951C1940.528,4903.88,1940.741,4904.344,1940.544,4904.894Z" fill="#e1b892"/>
                  <path id="Trazado_4368" data-name="Trazado 4368" d="M1936.008,4903.661a1.352,1.352,0,0,1-1.159.938c-.443-.023-.641-.478-.445-1.016a1.353,1.353,0,0,1,1.154-.936C1936,4902.667,1936.2,4903.121,1936.008,4903.661Z" fill="#e1b892"/>
                  <path id="Trazado_4369" data-name="Trazado 4369" d="M1948.633,4895.43a1.424,1.424,0,0,1-1.21.974c-.472-.01-.7-.462-.5-1.008a1.429,1.429,0,0,1,1.2-.973C1948.6,4894.431,1948.826,4894.882,1948.633,4895.43Z" fill="#e1b892"/>
                  <path id="Trazado_4370" data-name="Trazado 4370" d="M1939.871,4895.258a1.389,1.389,0,0,1-1.16.947c-.446-.01-.649-.449-.457-.979a1.393,1.393,0,0,1,1.155-.945C1939.856,4894.288,1940.063,4894.725,1939.871,4895.258Z" fill="#e1b892"/>
                  <path id="Trazado_4371" data-name="Trazado 4371" d="M1943.972,4899.074a1.4,1.4,0,0,1-1.193.962c-.461-.017-.677-.471-.482-1.015a1.4,1.4,0,0,1,1.187-.96C1943.947,4898.075,1944.166,4898.528,1943.972,4899.074Z" fill="#e1b892"/>
                </g>
                <path id="Trazado_4372" data-name="Trazado 4372" d="M1938.144,4902.4c-3.995-.458-5.665-2.194-6.22-2.863l-1.677,7.387c-.254,1.12.209,1.982,1.1,2.043l12.422.838a3.158,3.158,0,0,0,2.7-1.9l4.107-8.2A18.524,18.524,0,0,1,1938.144,4902.4Z" fill="#eacdb2" opacity="0.75"/>
              </g>
              <path id="Trazado_4373" data-name="Trazado 4373" d="M1953.727,4889.958a3.841,3.841,0,0,0-2.821-1.053l-12.028.019c-3.469.006-7.076,3.657-7.6,7.461l0,.018a1.716,1.716,0,0,0,.395,1.5l-2.1,9.215c-.274,1.2.221,2.131,1.179,2.2l10.261.707,5.9.448a3.418,3.418,0,0,0,2.924-2.042l5.7-11.286C1957.081,4894.065,1955.923,4891.093,1953.727,4889.958Z" fill="#834635" opacity="0.32"/>
            </g>
            <g id="Grupo_1610" data-name="Grupo 1610">
              <g id="Grupo_1609" data-name="Grupo 1609">
                <path id="Trazado_4374" data-name="Trazado 4374" d="M1939.733,4910.994l-15.175-1.148c-1.009-.07-1.539-1.044-1.263-2.308l2.462-11.27c.843-3.859,4.5-7.359,7.725-7.359h11.1c3.528,0,6.1,3.958,4.066,8.075l-5.867,11.864A3.549,3.549,0,0,1,1939.733,4910.994Z" fill="#86422e"/>
                <path id="Trazado_4375" data-name="Trazado 4375" d="M1948.381,4897.532h-22.9l.276-1.264c.843-3.859,4.5-7.359,7.725-7.359h11.1c3.528,0,6.1,3.958,4.066,8.075Z" fill="#712109"/>
                <path id="Trazado_4376" data-name="Trazado 4376" d="M1936.8,4910.749l-14.085-.966c-1.01-.07-1.543-1.045-1.271-2.309l2.431-11.276c.832-3.86,4.485-7.363,7.71-7.362H1942.7c3.531,0,4.989,3.764,2.97,7.886l-5.82,11.88A3.531,3.531,0,0,1,1936.8,4910.749Z" fill="#86422e"/>
                <path id="Trazado_4377" data-name="Trazado 4377" d="M1924.315,4898.1l19.415.587a3.6,3.6,0,0,0,2.811-1.914l.012-.02c2.534-4.29,1.188-8.447-2.866-8.441l-12.677.019c-3.657.006-7.411,3.852-7.909,7.857l0,.019C1922.964,4897.288,1923.473,4898.077,1924.315,4898.1Z" fill="#712109"/>
                <path id="Trazado_4378" data-name="Trazado 4378" d="M1936.273,4909.015l-11.987-.758c-.866-.055-1.326-.882-1.1-1.96l2.057-9.63c.706-3.306,3.836-6.3,6.6-6.285l9.451.047c2.982.015,4.2,3.219,2.485,6.71l-4.932,10.052A3.005,3.005,0,0,1,1936.273,4909.015Z" fill="#f7d8b7"/>
                <path id="Trazado_4379" data-name="Trazado 4379" d="M1929.035,4894.748a.843.843,0,0,1-.7.582c-.272-.006-.4-.275-.283-.6a.84.84,0,0,1,.7-.58C1929.022,4894.153,1929.15,4894.422,1929.035,4894.748Z" fill="#e1b892"/>
                <path id="Trazado_4380" data-name="Trazado 4380" d="M1932.38,4898.705a.846.846,0,0,1-.719.588c-.279-.01-.411-.287-.3-.62a.844.844,0,0,1,.717-.587C1932.363,4898.094,1932.5,4898.371,1932.38,4898.705Z" fill="#e1b892"/>
                <path id="Trazado_4381" data-name="Trazado 4381" d="M1933.061,4901.792a.841.841,0,0,1-.725.59c-.282-.012-.416-.295-.3-.632a.843.843,0,0,1,.724-.589C1933.044,4901.172,1933.179,4901.455,1933.061,4901.792Z" fill="#e1b892"/>
                <path id="Trazado_4382" data-name="Trazado 4382" d="M1941.648,4898.878a.866.866,0,0,1-.75.6c-.3-.01-.441-.295-.324-.638a.867.867,0,0,1,.748-.6C1941.618,4898.25,1941.765,4898.535,1941.648,4898.878Z" fill="#e1b892"/>
                <path id="Trazado_4383" data-name="Trazado 4383" d="M1940.631,4892.042a.872.872,0,0,1-.736.6c-.291,0-.432-.278-.317-.613a.876.876,0,0,1,.734-.6C1940.6,4891.432,1940.746,4891.706,1940.631,4892.042Z" fill="#e1b892"/>
                <path id="Trazado_4384" data-name="Trazado 4384" d="M1926.149,4901.508a.821.821,0,0,1-.7.577c-.27-.011-.394-.288-.278-.617a.826.826,0,0,1,.7-.576C1926.14,4900.9,1926.266,4901.179,1926.149,4901.508Z" fill="#e1b892"/>
                <path id="Trazado_4385" data-name="Trazado 4385" d="M1929.094,4899.207a.834.834,0,0,1-.708.582c-.274-.01-.4-.285-.286-.615a.836.836,0,0,1,.707-.581C1929.081,4898.6,1929.21,4898.876,1929.094,4899.207Z" fill="#e1b892"/>
                <path id="Trazado_4386" data-name="Trazado 4386" d="M1935.083,4892.42a.861.861,0,0,1-.718.593c-.281,0-.415-.274-.3-.6a.862.862,0,0,1,.716-.592C1935.063,4891.82,1935.2,4892.09,1935.083,4892.42Z" fill="#e1b892"/>
                <path id="Trazado_4387" data-name="Trazado 4387" d="M1936.562,4895.2a.86.86,0,0,1-.728.6c-.285-.007-.421-.282-.3-.616a.859.859,0,0,1,.725-.6C1936.54,4894.594,1936.678,4894.87,1936.562,4895.2Z" fill="#e1b892"/>
                <path id="Trazado_4388" data-name="Trazado 4388" d="M1937.044,4906.729a.846.846,0,0,1-.746.6c-.292-.016-.432-.31-.314-.656a.844.844,0,0,1,.743-.6C1937.02,4906.089,1937.162,4906.382,1937.044,4906.729Z" fill="#e1b892"/>
                <path id="Trazado_4389" data-name="Trazado 4389" d="M1929.1,4906.168a.826.826,0,0,1-.718.582c-.278-.016-.408-.3-.29-.638a.826.826,0,0,1,.716-.582C1929.084,4905.545,1929.215,4905.83,1929.1,4906.168Z" fill="#e1b892"/>
                <path id="Trazado_4390" data-name="Trazado 4390" d="M1938.736,4902.025a1.452,1.452,0,0,1-1.264,1.019c-.5-.022-.735-.512-.535-1.093a1.453,1.453,0,0,1,1.258-1.016C1938.693,4900.954,1938.935,4901.442,1938.736,4902.025Z" fill="#e1b892"/>
                <path id="Trazado_4391" data-name="Trazado 4391" d="M1932.965,4905.14a1.417,1.417,0,0,1-1.239,1c-.481-.027-.708-.515-.507-1.091a1.419,1.419,0,0,1,1.233-1C1932.935,4904.074,1933.166,4904.561,1932.965,4905.14Z" fill="#e1b892"/>
                <path id="Trazado_4392" data-name="Trazado 4392" d="M1928.174,4903.844a1.4,1.4,0,0,1-1.209.986c-.466-.024-.681-.5-.482-1.068a1.4,1.4,0,0,1,1.2-.984C1928.155,4902.8,1928.373,4903.276,1928.174,4903.844Z" fill="#e1b892"/>
                <path id="Trazado_4393" data-name="Trazado 4393" d="M1941.368,4895.185a1.477,1.477,0,0,1-1.262,1.026c-.5-.011-.74-.487-.542-1.061a1.483,1.483,0,0,1,1.256-1.024C1941.319,4894.134,1941.565,4894.608,1941.368,4895.185Z" fill="#e1b892"/>
                <path id="Trazado_4394" data-name="Trazado 4394" d="M1932.136,4895a1.44,1.44,0,0,1-1.21,1c-.47-.011-.69-.472-.494-1.03a1.444,1.444,0,0,1,1.2-1C1932.108,4893.983,1932.332,4894.443,1932.136,4895Z" fill="#e1b892"/>
                <path id="Trazado_4395" data-name="Trazado 4395" d="M1936.5,4899.02a1.445,1.445,0,0,1-1.244,1.011c-.486-.017-.718-.495-.52-1.067a1.453,1.453,0,0,1,1.239-1.01C1936.464,4897.968,1936.7,4898.445,1936.5,4899.02Z" fill="#e1b892"/>
              </g>
            </g>
          </g>
          <g id="Grupo_1613" data-name="Grupo 1613">
            <path id="Trazado_4396" data-name="Trazado 4396" d="M1955.727,4883.856a7.949,7.949,0,0,0,3.022,3.757,15.042,15.042,0,0,0,12.131,1.744,7.966,7.966,0,0,0,5.145-5.374,7.692,7.692,0,0,0-1.658-6.484,11.464,11.464,0,0,0-5.792-3.614,12.527,12.527,0,0,0-6.613-.173,9.251,9.251,0,0,0-5.373,3.742A7.358,7.358,0,0,0,1955.727,4883.856Z" fill="#d12135"/>
            <path id="Trazado_4397" data-name="Trazado 4397" d="M1961.31,4876.851a4.848,4.848,0,0,0,1.877,1.414,12.783,12.783,0,0,0,2.612.856,12.511,12.511,0,0,0,4.284.316c1.323-.179,2.415-.746,2.63-1.566.192-.733-.339-1.592-1.243-2.268a9.928,9.928,0,0,0-3.426-1.5,11.945,11.945,0,0,0-3.722-.377,4.723,4.723,0,0,0-2.836,1A1.541,1.541,0,0,0,1961.31,4876.851Z" fill="#a91123" opacity="0.55"/>
            <path id="Trazado_4398" data-name="Trazado 4398" d="M1958.777,4877.3a.714.714,0,0,0,.429.629,2.117,2.117,0,0,0,.783.162,1.837,1.837,0,0,0,.729-.044.619.619,0,0,0,.444-.529c.008-.4-.459-.608-.842-.714a2.1,2.1,0,0,0-.923-.111A.72.72,0,0,0,1958.777,4877.3Z" fill="#e0795b" opacity="0.32"/>
            <path id="Trazado_4399" data-name="Trazado 4399" d="M1961.66,4878.558a1.844,1.844,0,0,0-1.055.072.635.635,0,0,0-.3.889.906.906,0,0,0,.632.256,1.805,1.805,0,0,0,.648,0,.651.651,0,0,0,.48-.4.668.668,0,0,0-.433-.759C1961.336,4878.493,1961.977,4878.6,1961.66,4878.558Z" fill="#e0795b" opacity="0.32"/>
            <path id="Trazado_4400" data-name="Trazado 4400" d="M1967.911,4886.289a12.3,12.3,0,0,1-6.418-2.986,4.152,4.152,0,0,1-.918-.939c-.052-.075-.1-.154-.146-.232a7.066,7.066,0,0,1-.723-1.209c-.014-.019-.025-.04-.039-.059a1.755,1.755,0,0,0-1.475-.8c-.884.084-1.361,1.117-1.364,2a6.087,6.087,0,0,0,2.439,4.444,11.51,11.51,0,0,0,13.031,1.018,7.614,7.614,0,0,0,2.725-2.679A11.023,11.023,0,0,1,1967.911,4886.289Z" fill="#a91123" opacity="0.55"/>
            <g id="Grupo_1612" data-name="Grupo 1612">
              <path id="Trazado_4401" data-name="Trazado 4401" d="M1963.965,4867.9s.2,1.258-1.16.813C1962.805,4868.713,1962.707,4867.511,1963.965,4867.9Z" fill="#29b763"/>
              <path id="Trazado_4402" data-name="Trazado 4402" d="M1959.936,4874.737a9.939,9.939,0,0,0,5.4.5c-1.7-.011-3.8-.537-3.936-3.081a6.319,6.319,0,0,0,4.809,2.592,13.605,13.605,0,0,0-.807-2.876c-.383-.972-1.666-2.875-2.6-3.158.721.051.895-.141,1.16-.813,1.571,1.057,4,3.983,3.783,6.947.219-.016.3.057.521.008a3.508,3.508,0,0,0,2.675-2.45,3.679,3.679,0,0,1-2.275,3.577,5.693,5.693,0,0,0,4.442-.254,2.663,2.663,0,0,1-2.386,2.006,3.51,3.51,0,0,1-3.011-1.22,4.464,4.464,0,0,0,1.6,3.216,3.008,3.008,0,0,1-2.66-3.434,2.767,2.767,0,0,1-1.735,1.758,2.815,2.815,0,0,1-2.482-.244,5.12,5.12,0,0,0,3.133-1.822C1963.255,4877.043,1961.649,4876.43,1959.936,4874.737Z" fill="#00ab68"/>
              <path id="Trazado_4403" data-name="Trazado 4403" d="M1964.764,4868.83a8.113,8.113,0,0,1,2.638,5.656c-.007.162-.022.5-.191.526a.312.312,0,0,1-.288-.152.5.5,0,0,1-.093-.316,5.113,5.113,0,0,0-.216-2.035,6.152,6.152,0,0,0-2.637-3.594c-.041-.163.142-.31.319-.306A.8.8,0,0,1,1964.764,4868.83Z" fill="#3ec672"/>
            </g>
            <path id="Trazado_4404" data-name="Trazado 4404" d="M1971.637,4880.366a6.236,6.236,0,0,0-2.415-.151c-1.72.283-2.48,1.822-1.462,2.742a4.392,4.392,0,0,0,3.515,1.026c1.267-.09,2.576-.824,2.556-1.778C1973.822,4881.792,1973.574,4880.814,1971.637,4880.366Z" fill="#e0795b" opacity="0.32"/>
          </g>
          <g id="Grupo_1616" data-name="Grupo 1616">
            <path id="Trazado_4405" data-name="Trazado 4405" d="M2023.956,4909.12s5.653-.093,7.785,1.343,2.27,5,.973,8.063a37.9,37.9,0,0,1-4.24,6.812l-1.413-2.41s3.475-4.077,3.8-7.367-2.456-4.773-8.2-4.032C2022.658,4911.529,2020.759,4910.371,2023.956,4909.12Z" fill="#b5e9f3"/>
            <path id="Trazado_4406" data-name="Trazado 4406" d="M2028.3,4922.822s3.053-4.257,3.392-7.691-1.989-4.983-7.987-4.209c0,0-1.129-.691-.243-1.592-2.494,1.168-.808,2.2-.808,2.2,5.746-.741,8.527.742,8.2,4.032s-3.8,7.367-3.8,7.367l1.413,2.41s.081-.1.212-.278Z" fill="#8edded"/>
            <path id="Trazado_4407" data-name="Trazado 4407" d="M2017.837,4936.691h-6.849a18.888,18.888,0,0,0,1.1,3.568c.221.248,2.857.661,5.746.68,2.889-.019,5.525-.432,5.746-.68a18.887,18.887,0,0,0,1.1-3.568Z" fill="#b5e9f3"/>
            <path id="Trazado_4408" data-name="Trazado 4408" d="M2007.738,4906.756s4.448,3.723,3.707,7.662-5.746,6.884-5.746,14.043c0,3.782,3.173,8.734,6.545,9.524a25.807,25.807,0,0,0,12.134-.295s6.343-4.614,5.509-10.823-6.3-10.979-6.3-12.511c0-3.339,1.923-7.6,1.923-7.6Z" fill="#b5e9f3"/>
            <path id="Trazado_4409" data-name="Trazado 4409" d="M2028.378,4926.827c-.73-5.432-5-9.707-5.513-10.945-1.013-2.447.208-6.14.859-7.5-4.656.61-8.132,1.112-13.183,0,.878,1.239,2.645,3.868,2.178,6.348-.649,3.446-5.5,7.232-5.5,13.5,0,3.309,2.777,7.641,5.726,8.333a22.593,22.593,0,0,0,10.615-.259S2029.108,4932.259,2028.378,4926.827Z" fill="#d6f4f7"/>
            <path id="Trazado_4410" data-name="Trazado 4410" d="M2024.686,4918.52a54.5,54.5,0,0,1-7.119.36c-2.318.033-3.632-.053-6.735-.243-1.606,2.549-3.615,5.552-3.615,9.584,0,3.309,2.777,7.641,5.726,8.333a22.593,22.593,0,0,0,10.615-.259s5.55-4.036,4.82-9.468A19.328,19.328,0,0,0,2024.686,4918.52Z" fill="#f6f3ef"/>
            <ellipse id="Elipse_409" data-name="Elipse 409" cx="8.88" cy="0.996" rx="8.88" ry="0.996" transform="translate(2007.749 4905.679)" fill="#b5e9f3"/>
            <ellipse id="Elipse_410" data-name="Elipse 410" cx="8.88" cy="0.996" rx="8.88" ry="0.996" transform="translate(2007.749 4905.679)" fill="#d6f4f7"/>
            <ellipse id="Elipse_411" data-name="Elipse 411" cx="7.264" cy="0.585" rx="7.264" ry="0.585" transform="translate(2009.365 4906.09)" fill="#8edded"/>
            <path id="Trazado_4411" data-name="Trazado 4411" d="M2024.741,4918.6c0,.459-3.132.831-6.995.831s-6.926-.372-6.926-.831,3.062-.831,6.926-.831S2024.741,4918.139,2024.741,4918.6Z" fill="#fff"/>
            <g id="Grupo_1614" data-name="Grupo 1614">
              <path id="Trazado_4412" data-name="Trazado 4412" d="M2016.611,4913.475c.159-1.987.2-3.885.194-5.805h-.176c-1.4,0-2.726-.037-3.905-.1a14.488,14.488,0,0,1-.03,13.34c-2.073,4.054-4.232,8.86-1.482,13.21a28.045,28.045,0,0,1,3.167,6.616c.675.077,1.459.138,2.289.173a54.907,54.907,0,0,0-1.4-7.651,22.2,22.2,0,0,1-.143-7.988C2015.685,4921.337,2016.294,4917.437,2016.611,4913.475Z" fill="#d6e8ed" opacity="0.55"/>
            </g>
            <g id="Grupo_1615" data-name="Grupo 1615" opacity="0.85">
              <path id="Trazado_4413" data-name="Trazado 4413" d="M2019.167,4913.435c-.159-1.987-.2-3.885-.194-5.805h.176c1.4,0,2.726-.037,3.9-.1a14.488,14.488,0,0,0,.03,13.34c2.073,4.054,4.232,8.86,1.482,13.21a28.045,28.045,0,0,0-3.167,6.616c-.675.077-1.459.138-2.289.173a55.008,55.008,0,0,1,1.4-7.651,22.2,22.2,0,0,0,.143-7.988C2020.093,4921.3,2019.484,4917.4,2019.167,4913.435Z" fill="#f6fafc" opacity="0.55"/>
            </g>
            <path id="Trazado_4414" data-name="Trazado 4414" d="M2029.825,4926.483c.025.151-5.372,2.809-11.8,1.978-8.676-1.121-9.87-5.809-10.079-7.659a14.257,14.257,0,0,0-2.247,7.659c0,3.393,2.556,7.719,5.517,9.145a12.122,12.122,0,0,0,.875,2.653c.221.248,2.857.661,5.746.68,2.889-.019,5.525-.432,5.746-.68a11.926,11.926,0,0,0,.868-2.624c.7-.537,6.217-4.952,5.436-10.768C2029.87,4926.738,2029.846,4926.611,2029.825,4926.483Z" fill="#c2deed" opacity="0.55"/>
            <ellipse id="Elipse_412" data-name="Elipse 412" cx="2.287" cy="1.865" rx="2.287" ry="1.865" transform="translate(2019.814 4921.678)" fill="#f6fafc"/>
          </g>
          <g id="Grupo_1617" data-name="Grupo 1617">
            <path id="Trazado_4415" data-name="Trazado 4415" d="M1981.8,4921.782a12.016,12.016,0,0,0,3.138-2.181,4.067,4.067,0,0,0,1.173-3.5c-4.7.124-9.691.933-13.163,4.1a4.451,4.451,0,0,0-.554.611,3.289,3.289,0,0,1,.313,1.463,7.2,7.2,0,0,1-.352,2.091,27.212,27.212,0,0,0,5.572,2.959,8.789,8.789,0,0,0,9.1.041A10.384,10.384,0,0,0,1981.8,4921.782Z" fill="#6a8eab"/>
            <path id="Trazado_4416" data-name="Trazado 4416" d="M1973.792,4920.543a14.416,14.416,0,0,0,1.736-.7,31.278,31.278,0,0,1,9.455-2.554c-1.47,3-2.576,3.216-5.293,4.438,1.612.357.43.39,1.892,1.158a4.929,4.929,0,0,1,1.047.687c.24.219.891.993,1.1,1.243a12.526,12.526,0,0,0,1.864,2.17c-1.273-.1-2.543.446-3.809.272a6.946,6.946,0,0,1-1.963-.695q-2.574-1.206-5.189-2.317a12.019,12.019,0,0,0-2.224-.772,4.584,4.584,0,0,1-1.262-.345,5.288,5.288,0,0,1-.827-.648,4.543,4.543,0,0,0-1.556-.842,20.088,20.088,0,0,1,2.761-.664A18.632,18.632,0,0,0,1973.792,4920.543Z" fill="#507a9c"/>
            <path id="Trazado_4417" data-name="Trazado 4417" d="M1947.473,4909.927l-.545.688a10.343,10.343,0,0,1,2.314.122l-.562.418a21.287,21.287,0,0,1,3.513.9,1.6,1.6,0,0,0-1.088.4,12.454,12.454,0,0,1,2.842,1.239c-1.587.706-3.414.41-5.134.171a63.837,63.837,0,0,0-23.47,1.112,19.812,19.812,0,0,1,12.161-7.064,2.2,2.2,0,0,0-.772.737l3.287-.333q-.167.324-.334.648l3.183-.455-.544.792h2.634l-.548.532Z" fill="#6a8eab"/>
            <path id="Trazado_4418" data-name="Trazado 4418" d="M1940.7,4910.714q1.774,0,3.543.161a2.385,2.385,0,0,0-.9.543,34.452,34.452,0,0,1,3.436.43,2.076,2.076,0,0,0-.844.287,11.038,11.038,0,0,1,3.35,1.292,67.211,67.211,0,0,0-11.554-.312,36.746,36.746,0,0,0-10.525,1.4,16.753,16.753,0,0,1,8.863-5.336,5.554,5.554,0,0,0-1.267,1.009,22.889,22.889,0,0,1,3.507-.56,2.483,2.483,0,0,0-.93.766,40.518,40.518,0,0,1,4.442-.389A4.73,4.73,0,0,0,1940.7,4910.714Z" fill="#507a9c"/>
            <path id="Trazado_4419" data-name="Trazado 4419" d="M1925.59,4929.484c1.5.43,2.682,1.558,4.036,2.332,3.014,1.723,6.7,1.614,10.165,1.456a3.285,3.285,0,0,0,2.981-1.313l2.432-2.622q-7.812-.409-15.64-.358A11.472,11.472,0,0,0,1925.59,4929.484Z" fill="#6a8eab"/>
            <path id="Trazado_4420" data-name="Trazado 4420" d="M1929.042,4929.9c1.735,1.42,3.81,1.749,5.927,2.122,3.463.61,6.77-1.265,10.026-2.456l.209-.225q-7.812-.409-15.64-.358c-.6,0-1.212.017-1.815.066A8.113,8.113,0,0,1,1929.042,4929.9Z" fill="#507a9c"/>
            <path id="Trazado_4421" data-name="Trazado 4421" d="M1974.473,4921.084a1.265,1.265,0,0,0-.668-.463c-3.3-1.345-6.531-1.649-9.692-3.288a83.14,83.14,0,0,0-10.356-3.685,60.842,60.842,0,0,0-44.03,7.9,3.587,3.587,0,0,0-1.56,1.462,2.816,2.816,0,0,0,1.083,3.077,10.5,10.5,0,0,0,4.64,1.9c12.46,2.753,23.746,2.3,36.507,2.276a28.275,28.275,0,0,0,11.287-1.889l4.477-1.422c1.5-.476,4.617-.518,5.912-1.408a5.423,5.423,0,0,0,2.491-3.822A1.1,1.1,0,0,0,1974.473,4921.084Z" fill="#b2cde0"/>
            <path id="Trazado_4422" data-name="Trazado 4422" d="M1952.857,4919.024c-2.69-.521-6.239,1.338-9.011,1.573-3.495.3-6.935.1-10.433.129-3.618.024-7.431.73-11.027.448-2.048-.161-4.144-.231-6.243-.308a7.191,7.191,0,0,0,1.664,1.159c3.476,1.706,7.3,1.708,11.092,1.537a22.9,22.9,0,0,1,7.988.93c4.183,1.231,7.285.712,11.252-.73,4.253-1.546,10.438-2.424,14.872-1.3a21.6,21.6,0,0,0,10.293.579,5.793,5.793,0,0,0,1.082-.474,4.081,4.081,0,0,0,.177-.852,1.092,1.092,0,0,0-.087-.623,50.636,50.636,0,0,1-12.018-.075C1959.187,4920.548,1956.073,4919.646,1952.857,4919.024Z" fill="#a5bfde"/>
            <path id="Trazado_4423" data-name="Trazado 4423" d="M1935.495,4918.146c4.815.113,9.265-.048,13.856-1.663,2.6-.913,4.948.4,7.436.905a85.6,85.6,0,0,0,8.984,1.538,17.233,17.233,0,0,1-1.658-.737,83.309,83.309,0,0,0-10.356-3.686,60.138,60.138,0,0,0-36.188,3.847C1923.555,4918.42,1929.6,4918.009,1935.495,4918.146Z" fill="#77a7c8" opacity="0.32"/>
            <path id="Trazado_4424" data-name="Trazado 4424" d="M1961.239,4924.243c-4.661-.636-8.417-.6-12.841.957a26.123,26.123,0,0,1-7.708,1.487c-5.9.219-12.111.549-17.463-2.449-3.766-2.109-6.568-3.549-11-3.118q-1.1.106-2.175.235c-.109.065-.22.123-.329.189a3.837,3.837,0,0,0-1.485,1.339,3.2,3.2,0,0,0,1.225,2.421,10.5,10.5,0,0,0,4.641,1.9c12.46,2.753,23.745,2.3,36.506,2.276a28.29,28.29,0,0,0,11.287-1.889l4.477-1.422c1.5-.476,4.617-.518,5.912-1.408a5.98,5.98,0,0,0,2.211-2.656,3.83,3.83,0,0,0,.062-.387c0-.012,0-.024,0-.036C1970.386,4923.835,1966.814,4925,1961.239,4924.243Z" fill="#97b5d9"/>
            <path id="Trazado_4425" data-name="Trazado 4425" d="M1921.317,4929.284l.014-.019a12.551,12.551,0,0,0,2.061-6.259,6.374,6.374,0,0,0-.561-3.264,7.336,7.336,0,0,0-3.566-2.941,64.343,64.343,0,0,0-9.538,4.743,3.587,3.587,0,0,0-1.56,1.462,2.816,2.816,0,0,0,1.083,3.077,10.5,10.5,0,0,0,4.64,1.9c2.433.537,4.885.943,7.346,1.29Z" fill="#ccd9ea"/>
            <path id="Trazado_4426" data-name="Trazado 4426" d="M1938.978,4921.4c-1.737.086-3.445.405-5.169.6-2.229.254-4.481.3-6.721.467a2.213,2.213,0,0,0-.87.185,1.378,1.378,0,0,0-.234.162,3,3,0,0,0,2.577,1.375,4.962,4.962,0,0,1,2.134.52c.852.124,1.686.349,2.54.454,2.656.324,5.277-.533,7.778-1.376a7.521,7.521,0,0,0,3.07-1.6A11.02,11.02,0,0,0,1938.978,4921.4Z" fill="#6a8eab"/>
            <path id="Trazado_4427" data-name="Trazado 4427" d="M1915.55,4926.748c.884-.382-.7-.558-1.209-.7-.048-.014-.1-.029-.143-.045-.706-.24-1.3-.714-2-.973a5.717,5.717,0,0,0-3.853-.058,3.637,3.637,0,0,0,.34.519,8.651,8.651,0,0,1,2.886-.033c.81.312,1.5.831,2.306,1.152A2.683,2.683,0,0,0,1915.55,4926.748Z" fill="#7593b9"/>
            <path id="Trazado_4428" data-name="Trazado 4428" d="M1918.587,4922.042a1.267,1.267,0,1,1-1.267-1.266A1.266,1.266,0,0,1,1918.587,4922.042Z" fill="#192b39"/>
            <path id="Trazado_4429" data-name="Trazado 4429" d="M1918.05,4921.728a.314.314,0,1,1-.314-.313A.314.314,0,0,1,1918.05,4921.728Z" fill="#616d77"/>
          </g>
          <g id="Grupo_1619" data-name="Grupo 1619">
            <path id="Trazado_4430" data-name="Trazado 4430" d="M1997.923,4936.045a14.469,14.469,0,0,0-7.617,10,15.161,15.161,0,0,0,3.005,12.421c3.487,4.253,9.222,6.013,14.515,5.309a17.464,17.464,0,0,0,10.353-5.162,15.536,15.536,0,0,0,4.276-11.059,12.827,12.827,0,0,0-5.551-10.241,17.3,17.3,0,0,0-6.1-2.165C2006.5,4934.31,2001.9,4934.118,1997.923,4936.045Z" fill="#5ec559"/>
            <path id="Trazado_4431" data-name="Trazado 4431" d="M2004.459,4962.947a3.2,3.2,0,0,1-1.382.844,6.147,6.147,0,0,1-2.394-.56,17.8,17.8,0,0,0,7.653-6.762,16.657,16.657,0,0,0,2.642-9.383c.193.1,1.536,1.152,1.621,2.056s-.249,1-.6,1.83C2010.11,4955.386,2008.091,4959.981,2004.459,4962.947Z" fill="#76ce72" opacity="0.55"/>
            <path id="Trazado_4432" data-name="Trazado 4432" d="M2011.441,4952.437a9.886,9.886,0,0,0,6.077-3.156l1.62.551a10.034,10.034,0,0,1-8.64,4.292Q2010.969,4953.281,2011.441,4952.437Z" fill="#76ce72" opacity="0.55"/>
            <path id="Trazado_4433" data-name="Trazado 4433" d="M2013.811,4958.339a22.783,22.783,0,0,0-6.814,1.616c.54-1.731,2.349-2.627,4.037-3.029a16.277,16.277,0,0,1,8.1.571,12.591,12.591,0,0,1-2.155,2.251,2.125,2.125,0,0,0-1.4-1.281A4.373,4.373,0,0,0,2013.811,4958.339Z" fill="#76ce72" opacity="0.55"/>
            <path id="Trazado_4434" data-name="Trazado 4434" d="M2005.47,4951.1a6.2,6.2,0,0,1,2.555,6.027,4.007,4.007,0,0,0,.432-5.468c-1.219-1.376-3.215-1.59-4.691-2.65a5.5,5.5,0,0,1-2.057-5.409l-1.268-.071a6.2,6.2,0,0,0,2.51,6.206C2003.752,4950.268,2004.669,4950.577,2005.47,4951.1Z" fill="#76ce72" opacity="0.55"/>
            <path id="Trazado_4435" data-name="Trazado 4435" d="M1999.107,4953.632a10.336,10.336,0,0,1-2.32-3.58l-2.1-4.5a9.83,9.83,0,0,0,1,6.318,9.064,9.064,0,0,0,4.637,4.144,9.918,9.918,0,0,1,3.163,1.411,3.605,3.605,0,0,1,.936,3.849c1.219-.412,1.61-2.178,1.047-3.388a5.5,5.5,0,0,0-2.934-2.468A13.152,13.152,0,0,1,1999.107,4953.632Z" fill="#76ce72" opacity="0.55"/>
            <path id="Trazado_4436" data-name="Trazado 4436" d="M2017.623,4937.943a5.866,5.866,0,0,1-3.434,3.177,24.758,24.758,0,0,0-4.328,1.926,4.307,4.307,0,0,0-2.043,4.137l1.432-.171a3.985,3.985,0,0,1,2.481-3.434c1.316-.639,2.787-.847,4.122-1.439a4.181,4.181,0,0,0,2.71-3.275Z" fill="#76ce72" opacity="0.55"/>
            <path id="Trazado_4437" data-name="Trazado 4437" d="M2007.1,4938.935a4.461,4.461,0,0,0-1.613-.16,1.6,1.6,0,0,0-1.284.925q3.946,1.027,7.939,1.843a4.046,4.046,0,0,0,1.565.11,1.5,1.5,0,0,0,1.183-.971Z" fill="#76ce72" opacity="0.55"/>
            <path id="Trazado_4438" data-name="Trazado 4438" d="M2019.256,4945.24a5.528,5.528,0,0,0-1.4-2.154,2.569,2.569,0,0,1-.7-2.4,1.588,1.588,0,0,0-1.075,1.455,4.092,4.092,0,0,0,.417,1.9,8.042,8.042,0,0,1,.647,1.847,3.242,3.242,0,0,1-1.537,3.249l1.763-.168a8.172,8.172,0,0,0,1.441-1.619A2.93,2.93,0,0,0,2019.256,4945.24Z" fill="#76ce72" opacity="0.55"/>
            <path id="Trazado_4439" data-name="Trazado 4439" d="M2002.159,4941.59a14.525,14.525,0,0,0-2.772-2.656,5.626,5.626,0,0,0-2.957-1.248,2.89,2.89,0,0,0-1.24.143c-.618.25-1.1,1.066-1.378,1.33a4.764,4.764,0,0,1,4.638.349,5.337,5.337,0,0,1,2.364,4.238A1.852,1.852,0,0,0,2002.159,4941.59Z" fill="#76ce72" opacity="0.55"/>
            <path id="Trazado_4440" data-name="Trazado 4440" d="M2001.7,4936.048a16.678,16.678,0,0,1,2.513-1.373,7.005,7.005,0,0,1-5.58,4.077.635.635,0,0,0-.593-.422Z" fill="#76ce72" opacity="0.55"/>
            <path id="Trazado_4441" data-name="Trazado 4441" d="M1995.771,4938.53a4.161,4.161,0,0,1,.005,3.777c-.4.752-1.014,1.346-1.469,2.06a2.579,2.579,0,0,0-.361,2.427,1.212,1.212,0,0,1,1.577-.592,1.915,1.915,0,0,1,.248-1.909c.369-.558.882-1,1.249-1.554a3.821,3.821,0,0,0-.239-4.379Z" fill="#76ce72" opacity="0.55"/>
            <path id="Trazado_4442" data-name="Trazado 4442" d="M2020.012,4956.093l.789-1.855a4.636,4.636,0,0,0-.928-3.65,4.146,4.146,0,0,0-3.275-1.542c-1.121.028-2.311.517-3.318,0-.859-.445-1.279-1.486-2.027-2.115-1.2-1.009-2.919-.755-4.451-.624s-3.387-.108-4.071-1.557a3.59,3.59,0,0,1,.8-3.637c.822-1,1.907-1.723,2.728-2.721a3.584,3.584,0,0,0,.791-3.637l-.786.061a2.7,2.7,0,0,1-.822,2.619c-.659.681-1.493,1.152-2.153,1.833a5.444,5.444,0,0,0-1.041,5.713,4.952,4.952,0,0,0,4.717,3.028c1.406-.087,2.957-.781,4.126.046.849.6,1.15,1.821,1.995,2.429a4.3,4.3,0,0,0,3.017.323,2.9,2.9,0,0,1,2.837.862C2019.794,4952.954,2018.805,4955.167,2020.012,4956.093Z" fill="#52c14d" opacity="0.75"/>
            <path id="Trazado_4443" data-name="Trazado 4443" d="M2002.543,4945.026a2.412,2.412,0,0,0-2.414-.466,5.013,5.013,0,0,0-1.725,1.32,5.108,5.108,0,0,1-1.721,1.327c-1,.382-2.112.069-3.168.2a4.091,4.091,0,0,0-3.3,2.978,3.623,3.623,0,0,1,2.68-4.255c1.082-.185,2.253.192,3.254-.28.847-.4,1.357-1.311,2.077-1.929a3.6,3.6,0,0,1,3.739-.571C2002,4943.915,2002.5,4944.464,2002.543,4945.026Z" fill="#52c14d" opacity="0.75"/>
            <g id="Grupo_1618" data-name="Grupo 1618">
              <path id="Trazado_4444" data-name="Trazado 4444" d="M1990.086,4949.37c.023-.044.049-.086.073-.13a3.581,3.581,0,0,1,2.732-3.106c1.082-.185,2.253.192,3.254-.28.847-.4,1.357-1.311,2.077-1.929a3.6,3.6,0,0,1,3.646-.6,5.4,5.4,0,0,1,1.42-4.057c.66-.681,1.494-1.152,2.153-1.833a2.7,2.7,0,0,0,.822-2.619l.5-.039c.006-.059.018-.113.028-.169a17.384,17.384,0,0,0-8.868,1.441,14.469,14.469,0,0,0-7.617,10,14.672,14.672,0,0,0-.28,3.456C1990.046,4949.456,1990.064,4949.412,1990.086,4949.37Z" fill="#6fa13c" opacity="0.55"/>
              <path id="Trazado_4445" data-name="Trazado 4445" d="M1997.794,4941.644c2.24-1.348,3.457-4.041,3.859-6.792a14.5,14.5,0,0,0-3.73,1.193,14.245,14.245,0,0,0-6.563,6.819A8.621,8.621,0,0,0,1997.794,4941.644Z" fill="#6fa13c" opacity="0.55"/>
              <path id="Trazado_4446" data-name="Trazado 4446" d="M2022.455,4947.552a12.894,12.894,0,0,0-5.262-10.042c.236,2.192.953,5.494-.4,6.923-1.251,1.557-4.065,1.608-5.676,2.389.047.034.094.067.14.1.748.629,1.168,1.67,2.027,2.115,1.007.521,2.2.032,3.318,0a4.146,4.146,0,0,1,3.275,1.542,4.636,4.636,0,0,1,.928,3.65l-.1.236c.035.129.073.257.1.388A15.089,15.089,0,0,0,2022.455,4947.552Z" fill="#c8dbb4" opacity="0.55"/>
              <path id="Trazado_4447" data-name="Trazado 4447" d="M2020.113,4955.857l-.1.236c-.752-.577-.652-1.654-.676-2.7-.009-.122-.014-.246-.017-.37a2.758,2.758,0,0,0-.38-1.362,1.722,1.722,0,0,0-.164-.2c-.308-.212-.631-.4-.9-.553a4.532,4.532,0,0,0-1.772-.113,4.3,4.3,0,0,1-3.017-.323,7.153,7.153,0,0,1-1.36-1.763,3.2,3.2,0,0,0-1.784-1c-.161-.018-.327-.038-.492-.058-.809.044-1.671.3-2.485.347a4.952,4.952,0,0,1-4.717-3.028c-.039-.093-.072-.187-.1-.282a2.808,2.808,0,0,0-2.013-.135,5.013,5.013,0,0,0-1.725,1.32,5.108,5.108,0,0,1-1.721,1.327c-1,.382-2.112.069-3.168.2a4.091,4.091,0,0,0-3.3,2.978,2.889,2.889,0,0,1-.05-.291c-.03.065-.06.13-.093.194a14.98,14.98,0,0,0,3.243,8.172c3.487,4.253,9.222,6.013,14.515,5.309a17.464,17.464,0,0,0,10.353-5.162,15.621,15.621,0,0,0,2.01-2.643C2020.163,4955.931,2020.137,4955.894,2020.113,4955.857Z" fill="#8eb565" opacity="0.35"/>
              <path id="Trazado_4448" data-name="Trazado 4448" d="M2020.113,4955.857l-.1.236c-.752-.577-.652-1.654-.676-2.7-.009-.122-.014-.246-.017-.37a2.758,2.758,0,0,0-.38-1.362,1.722,1.722,0,0,0-.164-.2c-.308-.212-.631-.4-.9-.553a4.532,4.532,0,0,0-1.772-.113c-.187.02-.378.041-.57.06-6.19,6.594-17.168,9.025-24.68,3.119a14.426,14.426,0,0,0,2.459,4.482c3.487,4.253,9.222,6.013,14.515,5.309a17.464,17.464,0,0,0,10.353-5.162,15.621,15.621,0,0,0,2.01-2.643C2020.163,4955.931,2020.137,4955.894,2020.113,4955.857Z" fill="#8eb565" opacity="0.35"/>
              <path id="Trazado_4449" data-name="Trazado 4449" d="M2001.961,4943.354c-.03-.014-.062-.021-.093-.033a5.177,5.177,0,0,0,.274,1.374,1.107,1.107,0,0,1,.4.331C2002.5,4944.464,2002,4943.915,2001.961,4943.354Z" fill="#4c812f"/>
            </g>
          </g>
          <g id="Grupo_1620" data-name="Grupo 1620">
            <path id="Trazado_4450" data-name="Trazado 4450" d="M1943,4934.288s-9.047-6.719-14.574,1.779,10.3,27.064,22.3,22.853,13.894-26.34,2.8-30.67C1945.827,4925.246,1943.6,4930.609,1943,4934.288Z" fill="#5ec559"/>
            <path id="Trazado_4451" data-name="Trazado 4451" d="M1941.057,4947.619c-4.668-.932-6.848-7.7-12.015-9.562-2.116,8.3,11.156,24,21.317,20.433,6.12-2.146,9.329-9.368,9.232-16.03C1951.081,4949.764,1944.574,4948.321,1941.057,4947.619Z" fill="#52c14d" opacity="0.75"/>
            <path id="Trazado_4452" data-name="Trazado 4452" d="M1939.061,4938.994c2.115,1.155,5.262,2.32,7.825.965,2.83-1.5,3.084-4.278,2.153-6.951-1.351-3.882-4.839,1.529-6.825,1.724-2.5.246-5.326-2.05-7.2.9C1934.136,4937,1938.146,4938.494,1939.061,4938.994Z" fill="#76ce72"/>
            <path id="Trazado_4453" data-name="Trazado 4453" d="M1943.919,4938.083s-5.115-11.494-1.489-14.847,1.877,3.746.822,5.082S1944.457,4935.422,1943.919,4938.083Z" fill="#712109"/>
            <path id="Trazado_4454" data-name="Trazado 4454" d="M1951.516,4940.642a7.06,7.06,0,0,0,4.55-1.91,5.394,5.394,0,0,0,1.606-4.582,4.377,4.377,0,0,0-3.168-3.546,2.311,2.311,0,0,0-2.135.431c-.741.721-.619,1.909-.659,2.941a7.413,7.413,0,0,1-.958,3.359,6.741,6.741,0,0,0-.785,1.547,1.435,1.435,0,0,0,.455,1.564A1.8,1.8,0,0,0,1951.516,4940.642Z" fill="#76ce72" opacity="0.55"/>
            <path id="Trazado_4455" data-name="Trazado 4455" d="M1949.126,4941.852c-.057-.5-.369-1.052-.869-1.067a1.479,1.479,0,0,0-.765.3,7.238,7.238,0,0,1-4.944.9c-1.458-.261-2.835-.973-4.316-1.012a1.484,1.484,0,0,0-.967.233,1.39,1.39,0,0,0-.366,1.359,3.788,3.788,0,0,0,1.715,2.413,6.762,6.762,0,0,0,2.864.949,11.315,11.315,0,0,0,3.706-.151,6.091,6.091,0,0,0,2.764-1.232A3.2,3.2,0,0,0,1949.126,4941.852Z" fill="#76ce72" opacity="0.55"/>
            <path id="Trazado_4456" data-name="Trazado 4456" d="M1951.209,4943.369a2.078,2.078,0,0,0,1.237-.014.835.835,0,0,0-.408-1.62,2.1,2.1,0,0,0-1.145.607.7.7,0,0,0-.3.556C1950.626,4943.173,1950.939,4943.307,1951.209,4943.369Z" fill="#76ce72" opacity="0.55"/>
          </g>
          <g id="Grupo_1634" data-name="Grupo 1634">
            <path id="Trazado_4457" data-name="Trazado 4457" d="M1993.319,4910.669s16.234-22.8,19.49-20.738,4.258,9.4-16.717,31.132C1996.092,4921.063,1992.567,4913.173,1993.319,4910.669Z" fill="#fabba4"/>
            <path id="Trazado_4458" data-name="Trazado 4458" d="M1993.319,4910.669s16.234-22.8,19.49-20.738,4.258,9.4-16.717,31.132C1996.092,4921.063,1992.567,4913.173,1993.319,4910.669Z" fill="#ef9f86"/>
            <path id="Trazado_4459" data-name="Trazado 4459" d="M1980.637,4984.007s-14.384,2.532-26.782-1.224c0,0,16.128-67.113,20.636-75.941s25.222-1.932,27.263,4.387-1.266,33.375-5.624,38.819-11.688,14.085-14.409,15.588S1980.637,4984.007,1980.637,4984.007Z" fill="#fabba4"/>
            <path id="Trazado_4460" data-name="Trazado 4460" d="M1953.855,4982.783s.913-23.12-1.153-28.493-4.321-17.206-3.194-21.9,4.383-19.536,2.881-27.675,2.254-6.909,5.635-3.079,5.79,10.025,3.735,19.442c-2.634,12.063,3.306,13.753,4.794,15.867s9.144,12.942,3.25,21.225-5.08,22.728-5.08,22.728S1962.871,4985.788,1953.855,4982.783Z" fill="#fabba4"/>
            <path id="Trazado_4461" data-name="Trazado 4461" d="M1968.756,4934.785c-1.575,2.225-9.208-4.565-9.713-1.95-1.012,5.245-6.994,28.771,4.686,29.926,4.275.422,16.2.553,22.674-1.371,3.18-3.365,7.021-7.962,9.727-11.342,4.358-5.444,7.664-32.5,5.624-38.819s-22.755-13.216-27.263-4.387c-1.555,3.046-4.745,12.072-8.254,22.578C1968.6,4929.888,1970.521,4932.292,1968.756,4934.785Z" fill="#ef9f86"/>
            <path id="Trazado_4462" data-name="Trazado 4462" d="M1958.647,4902.382c.268,4.46.688,10.094-.367,14.7-1.316,5.741-4.058,10.477-2.181,16.255,1.2,3.708,3.582,7.222,4.176,11.126.541,3.558.281,7.756,1.614,11.093,1.719,4.3,5.5,3.035,8.806,1.132,4.117-8.041-2.741-17.752-4.142-19.742-1.488-2.114-7.428-3.8-4.794-15.867C1963.685,4912.249,1961.689,4906.253,1958.647,4902.382Z" fill="#ef9f86"/>
            <path id="Trazado_4463" data-name="Trazado 4463" d="M1952.8,4911.174c.059.133.187.184.454.218a1.366,1.366,0,0,0,1.284-.466,8.766,8.766,0,0,0,1.014-4.091,7.931,7.931,0,0,0-.084-3.124c-.417-1.421-2.429-2.9-3.292-3.489a12.323,12.323,0,0,0,.218,4.491,25.021,25.021,0,0,1,.365,3.873c.02.744.008,1.487,0,2.231A.908.908,0,0,0,1952.8,4911.174Z" fill="#ffe8e8"/>
            <g id="Grupo_1630" data-name="Grupo 1630">
              <g id="Grupo_1621" data-name="Grupo 1621">
                <rect id="Rectngulo_202" data-name="Rectngulo 202" width="44.75" height="75.104" rx="3.286" transform="translate(1960.986 4881.072)" fill="url(#linear-gradient)"/>
                <rect id="Rectngulo_203" data-name="Rectngulo 203" width="38.491" height="59.666" transform="translate(1964.115 4886.391)" fill="#212121"/>
                <rect id="Rectngulo_204" data-name="Rectngulo 204" width="36.613" height="57.371" transform="translate(1965.054 4887.539)" fill="#00e5f6"/>
                <rect id="Rectngulo_205" data-name="Rectngulo 205" width="36.613" height="57.371" transform="translate(1965.054 4887.539)" fill="#fef7f3"/>
                <rect id="Rectngulo_206" data-name="Rectngulo 206" width="36.613" height="11.756" transform="translate(1965.054 4887.539)" fill="#5ec559"/>
                <rect id="Rectngulo_207" data-name="Rectngulo 207" width="4.299" height="4.299" transform="translate(1981.211 4947.805)" fill="#535353"/>
                <rect id="Rectngulo_208" data-name="Rectngulo 208" width="3.296" height="3.296" transform="translate(1981.712 4948.307)" fill="#e8e1d8"/>
                <rect id="Rectngulo_209" data-name="Rectngulo 209" width="1.825" height="1.799" transform="translate(1982.448 4883.301)" fill="#010101"/>
              </g>
              <g id="Grupo_1622" data-name="Grupo 1622">
                <path id="Trazado_4464" data-name="Trazado 4464" d="M1970.87,4896.1a2.3,2.3,0,0,1-.715-.1,1.331,1.331,0,0,1-.842-.733,2.213,2.213,0,0,1-.177-.578,4.154,4.154,0,0,1-.052-.694v-2.187a4.334,4.334,0,0,1,.054-.724,2.216,2.216,0,0,1,.178-.587,1.282,1.282,0,0,1,.327-.445,1.439,1.439,0,0,1,.511-.272,2.344,2.344,0,0,1,.716-.1,2.3,2.3,0,0,1,.8.125,1.193,1.193,0,0,1,.526.367,1.54,1.54,0,0,1,.279.566,2.884,2.884,0,0,1,.088.755v.537h-1.1v-.533a2.587,2.587,0,0,0-.05-.632.477.477,0,0,0-.48-.341h-.06a.863.863,0,0,0-.252.034.4.4,0,0,0-.176.108.7.7,0,0,0-.11.157.713.713,0,0,0-.062.218,2.152,2.152,0,0,0-.027.247c0,.076-.005.172-.005.288v2.656a1.639,1.639,0,0,0,.138.788.525.525,0,0,0,.494.234.762.762,0,0,0,.213-.028.538.538,0,0,0,.155-.072.345.345,0,0,0,.106-.125.784.784,0,0,0,.066-.151.965.965,0,0,0,.035-.195c.007-.084.012-.154.012-.212s0-.138,0-.239v-.56h1.1v.515a3.652,3.652,0,0,1-.05.632,2.023,2.023,0,0,1-.168.526,1.239,1.239,0,0,1-.309.409,1.367,1.367,0,0,1-.483.255A2.3,2.3,0,0,1,1970.87,4896.1Z" fill="#fff"/>
                <path id="Trazado_4465" data-name="Trazado 4465" d="M1973.031,4896.026l1.276-6.274h1.192l1.27,6.274h-1.063l-.253-1.457h-1.086l-.257,1.457Zm1.457-2.2h.84l-.42-2.577Z" fill="#fff"/>
                <path id="Trazado_4466" data-name="Trazado 4466" d="M1977.386,4896.026v-6.274h1.143v5.483h1.5v.791Z" fill="#fff"/>
                <path id="Trazado_4467" data-name="Trazado 4467" d="M1982.275,4896.1a1.677,1.677,0,0,1-1.388-.526,2.422,2.422,0,0,1-.421-1.541v-2.315a3.511,3.511,0,0,1,.1-.867,1.714,1.714,0,0,1,.3-.635,1.272,1.272,0,0,1,.562-.4,2.373,2.373,0,0,1,.847-.135,1.687,1.687,0,0,1,1.387.519,2.365,2.365,0,0,1,.422,1.521v2.315a3.434,3.434,0,0,1-.1.865,1.78,1.78,0,0,1-.306.647,1.291,1.291,0,0,1-.562.415A2.285,2.285,0,0,1,1982.275,4896.1Zm-.285-.9a.744.744,0,0,0,.285.049.735.735,0,0,0,.284-.049.508.508,0,0,0,.187-.129.563.563,0,0,0,.11-.208,1.3,1.3,0,0,0,.053-.257,3.007,3.007,0,0,0,.014-.307v-2.849a2.618,2.618,0,0,0-.023-.378.993.993,0,0,0-.089-.286.432.432,0,0,0-.2-.2.753.753,0,0,0-.337-.066.771.771,0,0,0-.339.066.425.425,0,0,0-.2.2.986.986,0,0,0-.087.286,2.618,2.618,0,0,0-.023.378v2.849a3.007,3.007,0,0,0,.014.307,1.245,1.245,0,0,0,.053.257.562.562,0,0,0,.108.208A.477.477,0,0,0,1981.99,4895.205Z" fill="#fff"/>
                <path id="Trazado_4468" data-name="Trazado 4468" d="M1984.92,4896.026v-6.274h1.438a3.864,3.864,0,0,1,.851.082,1.68,1.68,0,0,1,.619.272,1.153,1.153,0,0,1,.394.519,2.186,2.186,0,0,1,.13.8,2.274,2.274,0,0,1-.176.965,1.08,1.08,0,0,1-.581.545l.871,3.091h-1.147l-.749-2.864h-.507v2.864Zm1.143-3.595h.276a1,1,0,0,0,.721-.215,1.028,1.028,0,0,0,.214-.738,1.109,1.109,0,0,0-.186-.721.866.866,0,0,0-.681-.218h-.344Z" fill="#fff"/>
                <path id="Trazado_4469" data-name="Trazado 4469" d="M1989.253,4896.026v-6.274h1.127v6.274Z" fill="#fff"/>
                <path id="Trazado_4470" data-name="Trazado 4470" d="M1991.345,4896.026v-6.274h2.626v.806h-1.483v1.8h1.173v.806h-1.173v2.07h1.5v.791Z" fill="#fff"/>
                <path id="Trazado_4471" data-name="Trazado 4471" d="M1996.23,4896.1q-1.656,0-1.741-1.915l1-.208q.038,1.245.711,1.245a.466.466,0,0,0,.388-.159.669.669,0,0,0,.127-.428,1.185,1.185,0,0,0-.1-.478,1.263,1.263,0,0,0-.22-.356,4.54,4.54,0,0,0-.355-.342l-.825-.716a2.3,2.3,0,0,1-.541-.66,1.842,1.842,0,0,1-.178-.857,1.486,1.486,0,0,1,.429-1.135,1.684,1.684,0,0,1,1.179-.413,1.84,1.84,0,0,1,.609.086,1.273,1.273,0,0,1,.437.238,1.245,1.245,0,0,1,.288.373,2.022,2.022,0,0,1,.172.463,3.468,3.468,0,0,1,.08.536l-.977.192c-.005-.125-.013-.235-.025-.329a1.753,1.753,0,0,0-.058-.284.712.712,0,0,0-.108-.232.464.464,0,0,0-.177-.142.517.517,0,0,0-.26-.042.538.538,0,0,0-.388.169.6.6,0,0,0-.134.41.948.948,0,0,0,.119.5,1.947,1.947,0,0,0,.373.418l.817.711a4.242,4.242,0,0,1,.356.36,3.043,3.043,0,0,1,.29.4,1.832,1.832,0,0,1,.209.492,2.18,2.18,0,0,1,.072.568,1.492,1.492,0,0,1-.433,1.112A1.548,1.548,0,0,1,1996.23,4896.1Z" fill="#fff"/>
              </g>
              <g id="Grupo_1629" data-name="Grupo 1629">
                <g id="Grupo_1624" data-name="Grupo 1624">
                  <g id="Grupo_1623" data-name="Grupo 1623">
                    <path id="Trazado_4472" data-name="Trazado 4472" d="M1967.589,4900.854a3.728,3.728,0,0,1,.672-.061,1.174,1.174,0,0,1,.634.137.516.516,0,0,1,.3.467.644.644,0,0,1-.517.608v.011a.552.552,0,0,1,.4.558.716.716,0,0,1-.349.608,1.767,1.767,0,0,1-.965.205,3.486,3.486,0,0,1-.646-.045Zm.136,2.1a1.706,1.706,0,0,0,.21.012c.3,0,.566-.118.566-.4,0-.254-.213-.331-.468-.331h-.17Zm.221-1.12h.183c.3,0,.505-.129.505-.346,0-.186-.152-.266-.361-.266a.958.958,0,0,0-.213.019Z" fill="#2e445c"/>
                    <path id="Trazado_4473" data-name="Trazado 4473" d="M1969.807,4900.861a3.192,3.192,0,0,1,.684-.068,1.322,1.322,0,0,1,.672.148.556.556,0,0,1,.285.5.752.752,0,0,1-.581.722v.015c.152.065.216.236.243.467a4.578,4.578,0,0,0,.1.726h-.561a4.165,4.165,0,0,1-.077-.6c-.022-.312-.128-.407-.345-.407h-.167l-.191,1.011h-.543Zm.33,1.091h.228a.46.46,0,0,0,.513-.43c0-.205-.175-.3-.391-.3a.854.854,0,0,0-.213.019Z" fill="#2e445c"/>
                    <path id="Trazado_4474" data-name="Trazado 4474" d="M1973.2,4902.285h-.912l-.118.619h1.022l-.087.468h-1.569l.486-2.56h1.516l-.091.467h-.965l-.107.547h.913Z" fill="#2e445c"/>
                    <path id="Trazado_4475" data-name="Trazado 4475" d="M1974.208,4902.707l-.3.665h-.582l1.246-2.56h.7l.3,2.56H1975l-.054-.665Zm.714-.418-.049-.55c-.011-.141-.026-.346-.038-.5h-.007c-.065.156-.137.354-.2.5l-.255.55Z" fill="#2e445c"/>
                    <path id="Trazado_4476" data-name="Trazado 4476" d="M1976.335,4900.812h.539l-.217,1.143h.012c.077-.11.156-.2.228-.292l.71-.851h.685l-1.038,1.1.593,1.455h-.593l-.429-1.113-.273.258-.164.855h-.54Z" fill="#2e445c"/>
                    <path id="Trazado_4477" data-name="Trazado 4477" d="M1978.576,4900.812h1.5l-.092.467h-.949l-.118.6h.893l-.092.463h-.888l-.194,1.029h-.548Z" fill="#2e445c"/>
                    <path id="Trazado_4478" data-name="Trazado 4478" d="M1980.508,4902.707l-.3.665h-.582l1.246-2.56h.7l.3,2.56h-.574l-.053-.665Zm.714-.418-.049-.55c-.011-.141-.026-.346-.038-.5h-.008c-.064.156-.136.354-.2.5l-.254.55Z" fill="#2e445c"/>
                    <path id="Trazado_4479" data-name="Trazado 4479" d="M1982.259,4902.779a1.2,1.2,0,0,0,.6.164c.213,0,.407-.1.407-.3,0-.144-.11-.24-.346-.361-.273-.149-.532-.346-.532-.68,0-.517.453-.832,1.011-.832a1.206,1.206,0,0,1,.6.129l-.171.456a1.008,1.008,0,0,0-.479-.114c-.254,0-.387.129-.387.27s.156.239.372.361a.773.773,0,0,1,.509.676c0,.57-.471.862-1.041.862a1.287,1.287,0,0,1-.733-.182Z" fill="#2e445c"/>
                    <path id="Trazado_4480" data-name="Trazado 4480" d="M1984.945,4901.291h-.677l.1-.479h1.9l-.09.479h-.685l-.39,2.081h-.548Z" fill="#2e445c"/>
                  </g>
                  <rect id="Rectngulo_210" data-name="Rectngulo 210" width="18.684" height="0.403" transform="translate(1967.043 4904.095)"/>
                </g>
                <g id="Grupo_1626" data-name="Grupo 1626">
                  <g id="Grupo_1625" data-name="Grupo 1625">
                    <path id="Trazado_4481" data-name="Trazado 4481" d="M1967.6,4916.947h.547l-.394,2.081h.983l-.091.479h-1.531Z" fill="#2e445c"/>
                    <path id="Trazado_4482" data-name="Trazado 4482" d="M1969.842,4916.947l-.281,1.473a1.4,1.4,0,0,0-.028.3.344.344,0,0,0,.373.365c.285,0,.475-.19.566-.665l.281-1.477h.548l-.278,1.454c-.148.775-.49,1.147-1.185,1.147a.752.752,0,0,1-.851-.816,1.972,1.972,0,0,1,.037-.357l.27-1.428Z" fill="#2e445c"/>
                    <path id="Trazado_4483" data-name="Trazado 4483" d="M1971.307,4919.507l.486-2.56h.642l.338.976c.1.327.171.593.232.873h.011a6.3,6.3,0,0,1,.118-.919l.175-.93h.509l-.482,2.56h-.566l-.358-1.022a8.313,8.313,0,0,1-.251-.893l-.011,0c-.03.247-.091.611-.167,1.015l-.167.9Z" fill="#2e445c"/>
                    <path id="Trazado_4484" data-name="Trazado 4484" d="M1975.758,4919.435a1.751,1.751,0,0,1-.676.11,1.038,1.038,0,0,1-1.132-1.087,1.491,1.491,0,0,1,.645-1.28,1.6,1.6,0,0,1,.943-.274,1.221,1.221,0,0,1,.558.11l-.148.445a1.129,1.129,0,0,0-.464-.084.91.91,0,0,0-.584.2,1.035,1.035,0,0,0-.354.825.621.621,0,0,0,.68.679,1.352,1.352,0,0,0,.486-.083Z" fill="#2e445c"/>
                    <path id="Trazado_4485" data-name="Trazado 4485" d="M1977.084,4916.947l-.19,1h.93l.191-1h.546l-.486,2.56h-.547l.2-1.075h-.927l-.2,1.075h-.547l.486-2.56Z" fill="#2e445c"/>
                  </g>
                  <rect id="Rectngulo_211" data-name="Rectngulo 211" width="18.684" height="0.403" transform="translate(1967.043 4920.23)"/>
                </g>
                <g id="Grupo_1628" data-name="Grupo 1628">
                  <g id="Grupo_1627" data-name="Grupo 1627">
                    <path id="Trazado_4486" data-name="Trazado 4486" d="M1967.6,4933.764a4.241,4.241,0,0,1,.706-.056,1.41,1.41,0,0,1,.935.277,1,1,0,0,1,.338.8,1.5,1.5,0,0,1-.528,1.178,1.865,1.865,0,0,1-1.228.338,4.523,4.523,0,0,1-.7-.046Zm.151,2.083a1.524,1.524,0,0,0,.24.015.94.94,0,0,0,.725-.3,1.136,1.136,0,0,0,.266-.771.593.593,0,0,0-.676-.642,1.307,1.307,0,0,0-.232.015Z" fill="#2e445c"/>
                    <path id="Trazado_4487" data-name="Trazado 4487" d="M1970.723,4933.727l-.486,2.56h-.548l.487-2.56Z" fill="#2e445c"/>
                    <path id="Trazado_4488" data-name="Trazado 4488" d="M1970.741,4936.287l.486-2.56h.642l.338.976c.1.327.171.593.232.874h.011a6.324,6.324,0,0,1,.118-.92l.175-.93h.509l-.482,2.56h-.566l-.358-1.021a8.47,8.47,0,0,1-.251-.893l-.011,0c-.03.247-.091.612-.167,1.015l-.167.9Z" fill="#2e445c"/>
                    <path id="Trazado_4489" data-name="Trazado 4489" d="M1973.27,4936.287l.486-2.56h.642l.338.976c.1.327.171.593.232.874h.011a6.307,6.307,0,0,1,.118-.92l.174-.93h.51l-.482,2.56h-.566l-.358-1.021a8.441,8.441,0,0,1-.251-.893l-.011,0c-.03.247-.091.612-.167,1.015l-.167.9Z" fill="#2e445c"/>
                    <path id="Trazado_4490" data-name="Trazado 4490" d="M1977.463,4935.2h-.911l-.118.62h1.022l-.088.467H1975.8l.487-2.56h1.515l-.09.467h-.965l-.107.547h.912Z" fill="#2e445c"/>
                    <path id="Trazado_4491" data-name="Trazado 4491" d="M1978.245,4933.776a3.192,3.192,0,0,1,.684-.068,1.328,1.328,0,0,1,.673.148.557.557,0,0,1,.284.5.751.751,0,0,1-.581.722v.015c.152.065.216.236.243.467a4.694,4.694,0,0,0,.1.726h-.561a4.132,4.132,0,0,1-.077-.6c-.022-.311-.128-.406-.345-.406h-.167l-.191,1.01h-.543Zm.331,1.091h.227a.46.46,0,0,0,.513-.43c0-.205-.175-.3-.391-.3a.854.854,0,0,0-.213.019Z" fill="#2e445c"/>
                  </g>
                  <rect id="Rectngulo_212" data-name="Rectngulo 212" width="18.684" height="0.403" transform="translate(1967.043 4937.011)"/>
                </g>
                <rect id="Rectngulo_213" data-name="Rectngulo 213" width="18.173" height="7.826" transform="translate(1967.043 4906.341)" fill="#7bcae9"/>
                <rect id="Rectngulo_214" data-name="Rectngulo 214" width="18.173" height="7.826" transform="translate(1967.043 4923.202)" fill="#7bcae9"/>
                <rect id="Rectngulo_215" data-name="Rectngulo 215" width="18.173" height="4.357" transform="translate(1967.043 4939.66)" fill="#7bcae9"/>
                <circle id="Elipse_413" data-name="Elipse 413" cx="5.567" cy="5.567" r="5.567" transform="translate(1987.433 4915.335) rotate(-85.205)" fill="#ffaf29"/>
                <path id="Trazado_4492" data-name="Trazado 4492" d="M1995.179,4904.99a5.5,5.5,0,0,0-1.734-.3,5.567,5.567,0,0,0-5.567,5.566h5.567Z" fill="#d12135"/>
                <circle id="Elipse_414" data-name="Elipse 414" cx="5.567" cy="5.567" r="5.567" transform="translate(1987.228 4922.285) rotate(-7.158)" fill="#d12135"/>
                <path id="Trazado_4493" data-name="Trazado 4493" d="M1999,4927.265c0-.051.015-.1.015-.15h-.018a4.652,4.652,0,0,0-.012-.623,5.567,5.567,0,0,0-6.155-4.908l.624,5.531h-.006l-1.734,5.264a5.466,5.466,0,0,0,7.239-4.653C1998.97,4927.573,1998.989,4927.421,1999,4927.265Z" fill="#ffaf29"/>
                <path id="Trazado_4494" data-name="Trazado 4494" d="M1987.88,4943.99l0-.014a5.567,5.567,0,0,1,11.134,0l0,.014Z" fill="#d12135"/>
                <path id="Trazado_4495" data-name="Trazado 4495" d="M1991.711,4938.713a5.5,5.5,0,0,1,7.3,5.263h-5.567Z" fill="#ffaf29"/>
              </g>
            </g>
            <g id="Grupo_1631" data-name="Grupo 1631">
              <path id="Trazado_4496" data-name="Trazado 4496" d="M2005.373,4910.7c-2.221,2.4-5.445,5.924-7.285,9.4-2.55,4.819.321,8.278,4.07,5.658a23.048,23.048,0,0,0,5.524-5.207,9.125,9.125,0,0,0,.8-5.588C2007.832,4912,2005.862,4910.175,2005.373,4910.7Z" fill="#fabba4"/>
              <path id="Trazado_4497" data-name="Trazado 4497" d="M2003.143,4913.225a47.137,47.137,0,0,0-5.055,6.878c-2.55,4.819.321,8.278,4.07,5.658a35.663,35.663,0,0,0,3.215-2.591A20.1,20.1,0,0,1,2003.143,4913.225Z" fill="#ef9f86"/>
              <path id="Trazado_4498" data-name="Trazado 4498" d="M2001.433,4919.543a1.425,1.425,0,0,0-1.714.437c-.788,1.013-1.945,2.922-.954,4.437,1.4,2.14,3.373-.083,4.148-1.122a1.435,1.435,0,0,0,.269-1.1A3.423,3.423,0,0,0,2001.433,4919.543Z" fill="#ffd3c5"/>
            </g>
            <g id="Grupo_1632" data-name="Grupo 1632">
              <path id="Trazado_4499" data-name="Trazado 4499" d="M2006.372,4922.195c-1.8,1.618-5.609,5.2-7.445,8.768-2.252,4.383.706,7.835,4.017,5.374a40.738,40.738,0,0,0,5.68-5.049c.551-.61,1.262-2.594.749-5.287S2006.779,4921.829,2006.372,4922.195Z" fill="#fabba4"/>
              <path id="Trazado_4500" data-name="Trazado 4500" d="M2004.99,4929.76c-.541-1.849-1.2-3.435-1.055-5.293a35.461,35.461,0,0,0-5.008,6.5c-2.252,4.383.706,7.835,4.017,5.374,1.031-.767,2.317-1.817,3.6-3A12.575,12.575,0,0,1,2004.99,4929.76Z" fill="#ef9f86"/>
              <path id="Trazado_4501" data-name="Trazado 4501" d="M2001.988,4930.95a1.47,1.47,0,0,0-1.606.353c-.739.821-1.8,2.564-.87,3.792,1.31,1.734,2.712-.206,3.437-1.048a1.946,1.946,0,0,0,.361-1.22A2.01,2.01,0,0,0,2001.988,4930.95Z" fill="#ffd3c5"/>
            </g>
            <g id="Grupo_1633" data-name="Grupo 1633">
              <path id="Trazado_4502" data-name="Trazado 4502" d="M2007.377,4932.139a31.084,31.084,0,0,0-4.806,5.32c-2.291,3.488-.673,6.749,2.421,4.942a26.993,26.993,0,0,0,4.535-3.026c.417-.38,1.137-2.9.08-5.273C2009,4932.732,2007.944,4931.623,2007.377,4932.139Z" fill="#fabba4"/>
              <path id="Trazado_4503" data-name="Trazado 4503" d="M2006.557,4933.357c-.06-.088-.119-.178-.176-.269a27.293,27.293,0,0,0-3.81,4.371c-2.291,3.488-.674,6.749,2.421,4.942,1.07-.625,2.129-1.256,3.09-1.937C2006.719,4938.535,2006.405,4935.816,2006.557,4933.357Z" fill="#ef9f86"/>
              <path id="Trazado_4504" data-name="Trazado 4504" d="M2004.528,4938a1.211,1.211,0,0,0-1.325.291c-.608.677-1.483,2.114-.717,3.127,1.08,1.429,2.236-.171,2.834-.865a1.606,1.606,0,0,0,.3-1.006A1.658,1.658,0,0,0,2004.528,4938Z" fill="#ffd3c5"/>
            </g>
          </g>
        </g>
      </g>
    </g>
  </g>
</svg>
