<svg xmlns="http://www.w3.org/2000/svg" width="338.305" height="246.8" viewBox="0 0 338.305 246.8">
  <g id="Grupo_3491" data-name="Grupo 3491" transform="translate(-548.184 -4315.849)">
    <path id="Trazado_4203" data-name="Trazado 4203" d="M2266.831,4498.458a82.565,82.565,0,0,0,21.807-9.228c18.885-11.6,25.866-30.267,24.882-52.343-.365-8.206-1.146-16.451-3.362-24.334-2.846-10.132-8-19.418-13.961-27.95-9.724-13.91-21.759-26.171-29.56-41.341-3.8-7.392-6.532-15.363-10.637-22.576A69.062,69.062,0,0,0,2215.185,4289a72.782,72.782,0,0,0-58.09,8.349,63.573,63.573,0,0,0-20.036,19.518c-5.6,8.828-8.674,19.115-11.281,29.348-3.142,12.336-5.729,24.96-5.588,37.722.331,29.706,15.455,57.305,34.426,79.467,10.928,12.766,23.736,25.3,39.371,31.35A119.943,119.943,0,0,0,2266.831,4498.458Z" transform="translate(-1572 42.135)" fill="#93e0fe"/>
    <path id="Trazado_4204" data-name="Trazado 4204" d="M2403.82,4305.28c-15.283-1.151-31.117,2.135-43.758,10.222-10.4,6.654-18.282,16.2-28.226,23.432-15.974,11.618-36.494,16.739-52.581,28.222-22.6,16.132-33.717,43.147-36.056,69.584-.864,9.755-.66,19.73,2.322,29.116,4.422,13.92,14.827,25.794,27.537,34.189s27.628,13.518,42.822,16.724c21.852,4.609,44.913,5.369,66.561-.016s41.785-17.225,54.457-34.445c13.462-18.294,16.893-40.071,19.429-61.657a315.924,315.924,0,0,0,1.91-49.513c-.6-15-.288-31.821-8.489-45.25C2440.432,4310.633,2421.272,4306.6,2403.82,4305.28Z" transform="translate(-1572 42.135)" fill="#93e0fe"/>
    <g id="Grupo_1565" data-name="Grupo 1565" transform="translate(-1572 42.135)">
      <g id="Grupo_1546" data-name="Grupo 1546">
        <path id="Trazado_4205" data-name="Trazado 4205" d="M2167.783,4400l-28.167,12.25v30.272s10.34,10.184,49.126-25.614Z" fill="#e5b48f"/>
        <path id="Trazado_4206" data-name="Trazado 4206" d="M2188.429,4388.395l-28.307,12.7,24.123,27.517Z" fill="#bf6962"/>
      </g>
      <g id="Grupo_1548" data-name="Grupo 1548">
        <g id="Grupo_1547" data-name="Grupo 1547">
          <path id="Trazado_4207" data-name="Trazado 4207" d="M2310.838,4393.912s6.255,32.127-42.19,16.6-80.093-16.874-80.093-16.874l-29.216-10.542L2145,4393.1s-12.175-5.41-6.221-14.608a.034.034,0,0,0-.011-.022,30.835,30.835,0,0,1-.455-3.055,21.766,21.766,0,0,1,.722-8.576c1.566-4.866,5.81-8.931,16.241-6.743,0,0-4.677-10.664,1.988-13.853s18.041,1.389,22.362-12.808,1.2-24.839,7.1-31.57,42.768-13.708,42.768-13.708,25.928-1.922,39.969,21.884,10.531,36.047,23.795,39.935c4.421,1.3,7.009,3.555,8.487,5.965a14.56,14.56,0,0,1,1.521,10.331S2324.635,4377.139,2310.838,4393.912Z" fill="#684f3e"/>
          <path id="Trazado_4208" data-name="Trazado 4208" d="M2310.838,4393.912s6.255,32.127-42.19,16.6-80.093-16.874-80.093-16.874l-29.216-10.542L2145,4393.1s-12.175-5.41-6.221-14.608a.034.034,0,0,0-.011-.022,30.835,30.835,0,0,1-.455-3.055,21.766,21.766,0,0,1,.722-8.576,26.776,26.776,0,0,1,4.31-2.122,17.547,17.547,0,0,1,14.263.767c2.378,1.255,3.433,4.365,4.788,6.565-.133-6.665-5.332-13.642-1.966-19.4,3.266-5.621,11.953-4.943,16.652-9.442,2.91-2.777,3.766-7.021,5.732-10.542,5.687-10.2,20.451-12.431,30.893-7.2,4.988,2.5,9.264,6.321,14.408,8.465s11.93,2.1,15.43-2.244c1.644-2.055,2.321-4.754,4.021-6.765,4.666-5.554,16.33-5.288,21.373-.544,5.732,5.365,7.954,13.264,12.053,19.762,2.221,3.521,5.032,6.743,8.975,8.354,3.711,1.522,8.376,1.71,11.776,3.443a14.56,14.56,0,0,1,1.521,10.331S2324.635,4377.139,2310.838,4393.912Z" fill="#cc6464" opacity="0.44"/>
        </g>
        <path id="Trazado_4209" data-name="Trazado 4209" d="M2188.109,4314.17c1.24-4.452-1.312,9.286-4.457,12.673a23.769,23.769,0,0,1-11.959,6.614c-4.369,1.047-9.013,1.159-13.094,3.037a15.964,15.964,0,0,0-9.036,11.934,14.87,14.87,0,0,0,5.595,13.777h-6.278s-9.535-13.149,2.464-24.684S2180.875,4340.154,2188.109,4314.17Z" fill="#684f3e"/>
      </g>
      <path id="Trazado_4210" data-name="Trazado 4210" d="M2284.844,4451.933a75.242,75.242,0,0,1-12.086,19.662c-6.987,7.965-15.63,13.264-25.783,13.763-32.726,1.633-58.187-28.793-63.663-58.442a59.419,59.419,0,0,1-.644-18.8c.077-.588.166-1.166.266-1.744,5.821-33.925,21.773-27.849,21.773-27.849s1.877-.355,5.077-.844c8.02-1.244,24.361-3.366,40.3-3,15.341.344,30.315,2.988,37.124,10.93C2296.842,4396.834,2295.475,4427.527,2284.844,4451.933Z" fill="#db7c75"/>
      <path id="Trazado_4211" data-name="Trazado 4211" d="M2250.086,4374.684c-1.078,4.387-6.788,23.916-23.784,23.55-13.341-.3-16.085-12.931-16.518-20.551C2217.8,4376.439,2234.145,4374.317,2250.086,4374.684Z" fill="#e0928c"/>
      <g id="Grupo_1556" data-name="Grupo 1556">
        <path id="Trazado_4212" data-name="Trazado 4212" d="M2186.159,4326.816s-6.032-8.428-11.22-5.059,4.405,23.152,15.925,19.416S2186.159,4326.816,2186.159,4326.816Z" fill="#cc7a71"/>
        <path id="Trazado_4213" data-name="Trazado 4213" d="M2260.128,4335.226c-.045,1.5-.134,2.977-.289,4.421-.122,1.244-.289,2.466-.522,3.666a26.468,26.468,0,0,1-6.432,13.3,38.471,38.471,0,0,1-15.841,10.064,57.434,57.434,0,0,1-9.276,2.411,78.861,78.861,0,0,1-13.186,1.177c-.288.011-.566.011-.855.011-20.462,0-28.816-22.361-30.549-42.69-.166-1.933-.266-3.855-.322-5.732-.077-2.177-.055-4.3.023-6.343a33.135,33.135,0,0,1,.8-6.154c3.777-16.83,19.474-19.829,19.474-19.829,28.2-7.432,40.546,6.5,48.478,10.209a4.767,4.767,0,0,1,.611.344c3.976,2.466,6.287,10.32,7.309,19.44.056.445.1.889.144,1.333.145,1.455.256,2.9.323,4.355.033.322.044.655.055.977.045.878.078,1.767.089,2.644.011.334.022.656.011.989C2260.205,4331.627,2260.183,4333.426,2260.128,4335.226Z" fill="#e5b48f"/>
        <path id="Trazado_4214" data-name="Trazado 4214" d="M2242.754,4378.838a12,12,0,0,1-.933,1.922c-2.355,4.055-9.754,12.63-27.961,6.254l.722-16.752.067-1.577,12.453-2.066,9.209-1.522.733,1.577Z" fill="#e5b48f"/>
        <g id="Grupo_1550" data-name="Grupo 1550">
          <path id="Trazado_4215" data-name="Trazado 4215" d="M2264.471,4339.536a10.113,10.113,0,0,1-4.632.111,13.54,13.54,0,0,1-6.232-3.244l-2.188-10.2s3.032-5.488,8.131-6.688a8.948,8.948,0,0,1,5.854.633C2273.947,4323.951,2271.2,4337.759,2264.471,4339.536Z" fill="#e5b48f"/>
          <g id="Grupo_1549" data-name="Grupo 1549">
            <path id="Trazado_4216" data-name="Trazado 4216" d="M2256.261,4333.549a9.49,9.49,0,0,1,.28-3.606,8.427,8.427,0,0,1,1.693-3.29,8.779,8.779,0,0,1,.666-.672l.753-.579a6.712,6.712,0,0,1,1.721-.755,6.827,6.827,0,0,1,1.824-.283,12.369,12.369,0,0,1,1.8.169,12.38,12.38,0,0,0-3.386.8,6.671,6.671,0,0,0-2.68,1.931,10.16,10.16,0,0,0-1.709,2.908A18.9,18.9,0,0,0,2256.261,4333.549Z" fill="#2d2e44"/>
            <path id="Trazado_4217" data-name="Trazado 4217" d="M2256.208,4331.615a11.659,11.659,0,0,1,9.6-3.7c-1.7.511-3.318.977-4.9,1.6C2259.322,4330.11,2257.809,4330.853,2256.208,4331.615Z" fill="#2d2e44"/>
          </g>
        </g>
        <g id="Grupo_1555" data-name="Grupo 1555">
          <path id="Trazado_4218" data-name="Trazado 4218" d="M2231.793,4349.457a10.274,10.274,0,0,1-3.326,4.9,10.906,10.906,0,0,1-1.772,1.169,13.165,13.165,0,0,1-6.408,1.385,15.18,15.18,0,0,1-7.765-2.328c-2.092-1.338-5.664-4.74-4.043-7.576,2.243-3.93,5.428-.811,8.152-1.414s3.025-8.877,8.368-8.773c3.769.066,6.191,3.336,6.983,6.738A11.058,11.058,0,0,1,2231.793,4349.457Z" fill="#2d2e44"/>
          <path id="Trazado_4219" data-name="Trazado 4219" d="M2231.793,4349.457a10.274,10.274,0,0,1-3.326,4.9,10.906,10.906,0,0,1-1.772,1.169,13.165,13.165,0,0,1-6.408,1.385C2221.38,4353.594,2224.179,4348.42,2231.793,4349.457Z" fill="#cc7a71"/>
          <path id="Trazado_4220" data-name="Trazado 4220" d="M2199.406,4342.165a5.175,5.175,0,1,1-5.174-5.174A5.174,5.174,0,0,1,2199.406,4342.165Z" fill="#cc6464" opacity="0.44"/>
          <path id="Trazado_4221" data-name="Trazado 4221" d="M2237.943,4332.346a5.175,5.175,0,1,1-5.175-5.175A5.175,5.175,0,0,1,2237.943,4332.346Z" fill="#cc6464" opacity="0.44"/>
          <path id="Trazado_4222" data-name="Trazado 4222" d="M2198.417,4326.759l5.686-3.692S2199.894,4319.964,2198.417,4326.759Z" fill="#684f3e"/>
          <path id="Trazado_4223" data-name="Trazado 4223" d="M2219.554,4321.527l8.049,1.582S2221.769,4316.431,2219.554,4321.527Z" fill="#684f3e"/>
          <g id="Grupo_1553" data-name="Grupo 1553">
            <g id="Grupo_1551" data-name="Grupo 1551">
              <path id="Trazado_4224" data-name="Trazado 4224" d="M2222.077,4328.825c0,1.337-.632,2.421-1.412,2.421s-1.412-1.084-1.412-2.421.632-2.421,1.412-2.421S2222.077,4327.488,2222.077,4328.825Z" fill="#2d2e44"/>
              <path id="Trazado_4225" data-name="Trazado 4225" d="M2219.253,4331.994c.432-.213,1.305-2.5,4.326-1.623" fill="#cc7a71"/>
            </g>
            <g id="Grupo_1552" data-name="Grupo 1552">
              <ellipse id="Elipse_397" data-name="Elipse 397" cx="1.412" cy="2.421" rx="1.412" ry="2.421" transform="translate(2202.691 4327.151)" fill="#2d2e44"/>
              <path id="Trazado_4226" data-name="Trazado 4226" d="M2205.516,4332.855a5.226,5.226,0,0,0-4.7-2.282" fill="#cc7a71"/>
            </g>
          </g>
          <g id="Grupo_1554" data-name="Grupo 1554">
            <path id="Trazado_4227" data-name="Trazado 4227" d="M2216.127,4336.015a10.567,10.567,0,0,1-.523,1.966,6.859,6.859,0,0,1-3.521,3.943c-4.854,2.311-12.064-1.066-11.2-4.1,1.21-4.232,5.154-1.81,8.376-2.521s2.121-9.887,4.543-9.687S2216.171,4335.715,2216.127,4336.015Z" fill="#cc6464" opacity="0.44"/>
            <path id="Trazado_4228" data-name="Trazado 4228" d="M2215.6,4337.981a6.859,6.859,0,0,1-3.521,3.943,1.083,1.083,0,0,1-.589-.644,1.3,1.3,0,0,1,.156-1.044,3.6,3.6,0,0,1,1.588-1.455A7.488,7.488,0,0,1,2215.6,4337.981Z" fill="#cc6464" opacity="0.44"/>
          </g>
        </g>
        <path id="Trazado_4229" data-name="Trazado 4229" d="M2264.471,4339.536a10.113,10.113,0,0,1-4.632.111c-.122,1.244-.289,2.466-.522,3.666a26.468,26.468,0,0,1-6.432,13.3,38.471,38.471,0,0,1-15.841,10.064l5.71,12.164a12,12,0,0,1-.933,1.922c-9.076-.778-12.72-7.832-14.053-11.675a17.251,17.251,0,0,1-.666-2.466c26.561-7.232,22.984-34.27,22.984-34.27-51.089,3.388-45.8-41.569-45.8-41.569l33.659,5.666,14.3,3.632c3.976,2.466,6.287,10.32,7.309,19.44a8.948,8.948,0,0,1,5.854.633C2273.947,4323.951,2271.2,4337.759,2264.471,4339.536Z" fill="#cc6464" opacity="0.44"/>
        <path id="Trazado_4230" data-name="Trazado 4230" d="M2183.178,4327.583c-.166-1.933-.266-3.855-.322-5.732-.077-2.177-.055-4.3.023-6.343a33.135,33.135,0,0,1,.8-6.154l21.151-18.574S2205.107,4321.385,2183.178,4327.583Z" fill="#cc6464" opacity="0.44"/>
        <path id="Trazado_4231" data-name="Trazado 4231" d="M2257.373,4296.646c-8.354-3.711-23.573-15.341-53.266-7.91,0,0-20.629,3.988-21.539,26.272-.078,2.044-.023,5.177.044,7.354,6.687-2.633,22.173-11.375,21.673-31.582,1.044,42.424,37.091,36.659,48.256,33.848.377-.466.833-1,1.366-1.544a15.627,15.627,0,0,1,1.9-1.644,10.126,10.126,0,0,1,5.033-2.1C2260.417,4309.754,2261.639,4298.534,2257.373,4296.646Zm-50.633,4.91c3.91,9.3,14.252,20.762,42.246,21.506C2221.536,4329.983,2210.828,4313.431,2206.74,4301.556Z" fill="#684f3e"/>
      </g>
      <path id="Trazado_4232" data-name="Trazado 4232" d="M2284.844,4451.933a75.242,75.242,0,0,1-12.086,19.662,51.022,51.022,0,0,1-20.428.478,51.6,51.6,0,0,1-30.905-18.518,86.552,86.552,0,0,1-6.965-10.609c-3.643-6.276-7.031-12.486-10.22-19.007-6.7,2.411-13.985,4.044-20.928,2.977a59.419,59.419,0,0,1-.644-18.8,22.49,22.49,0,0,1,8.642-8.12c15.33-8.387,49.344,31.526,49.344,31.526l43.7,18.1Z" fill="#cc6464" opacity="0.28"/>
      <g id="Grupo_1560" data-name="Grupo 1560">
        <path id="Trazado_4233" data-name="Trazado 4233" d="M2170.315,4401.333s-1.818,12.435,11.9,15.4,27.229-6.218,32.2-19.346,1.755-20.609,1.755-20.609l-10.295-2.131Z" fill="#684f3e"/>
        <path id="Trazado_4234" data-name="Trazado 4234" d="M2168.792,4399.165l-4.613,7.6s4.673-2.616,7.021.923a11.833,11.833,0,0,0,6.1,4.567l2.345-4.41,11.662,1.876,2.926,5.03,4.185-3.466a9.991,9.991,0,0,1,4.274-1.1,3.814,3.814,0,0,0,2.825-.782l1.224-2.449,1.329-2.115-2.553-5.677,5.924-4.028-2.963-9.628h12.939l.268-4.718-1.4-3.594-1.034-3.434-3.114-3.9s.668-3.191,0-2.089-4.7-2.027-4.7-2.027l-3.371.816-9.652,2.971Z" fill="#8baf64"/>
        <g id="Grupo_1557" data-name="Grupo 1557">
          <path id="Trazado_4235" data-name="Trazado 4235" d="M2178.067,4407.749s1.488,6.685,8.492,7,7.962-7,7.962-7Z" fill="#9b4848"/>
          <path id="Trazado_4236" data-name="Trazado 4236" d="M2215,4375.961s8.474-9.93-3.563-11.832S2215,4375.961,2215,4375.961Z" fill="#9b4848"/>
        </g>
        <g id="Grupo_1559" data-name="Grupo 1559">
          <path id="Trazado_4237" data-name="Trazado 4237" d="M2211.206,4397.778c-3.689,6.388-9.621,11.631-16.708,13.653-12.253,3.477-24.539-4.5-28.893-15.8a24.465,24.465,0,0,1-1.555-6.443,28.628,28.628,0,0,1,1.088-9.831c1.777-7.032,4.732-12.819,10.964-16.774a30.672,30.672,0,0,1,18.707-4.654,47.452,47.452,0,0,1,6.01.833c6.132,1.255,12,4.01,14.652,10.109C2219.159,4377.35,2215.593,4390.2,2211.206,4397.778Z" fill="#ffd878"/>
          <path id="Trazado_4238" data-name="Trazado 4238" d="M2211.206,4397.778c-3.689,6.388-9.621,11.631-16.708,13.653-12.253,3.477-24.539-4.5-28.893-15.8a25.233,25.233,0,0,0,1.621,1.978,24.9,24.9,0,0,0,7.232,5.421,23.5,23.5,0,0,0,9.509,2.5c9.954.4,19.729-5.721,24.184-14.63a23.17,23.17,0,0,0,2.532-9.431,30.057,30.057,0,0,0-5.165-18.6,19.127,19.127,0,0,0-4.7-4.11c6.132,1.255,12,4.01,14.652,10.109C2219.159,4377.35,2215.593,4390.2,2211.206,4397.778Z" fill="#cc6464" opacity="0.28"/>
          <g id="Grupo_1558" data-name="Grupo 1558">
            <path id="Trazado_4239" data-name="Trazado 4239" d="M2195.985,4395.137s-1.405,2.491-.5,3.1S2195.985,4395.137,2195.985,4395.137Z" fill="#fff"/>
            <path id="Trazado_4240" data-name="Trazado 4240" d="M2187.054,4386.44s-1.5,2.943-.8,3.512S2187.054,4386.44,2187.054,4386.44Z" fill="#fff"/>
            <path id="Trazado_4241" data-name="Trazado 4241" d="M2181.635,4373.763s-.9,3.01,0,3.01S2181.635,4373.763,2181.635,4373.763Z" fill="#fff"/>
            <path id="Trazado_4242" data-name="Trazado 4242" d="M2196.888,4368.545s-.6,2.308,0,2.609S2196.888,4368.545,2196.888,4368.545Z" fill="#fff"/>
            <path id="Trazado_4243" data-name="Trazado 4243" d="M2195.18,4379.081s-2.3,3.211-.948,3.412S2195.18,4379.081,2195.18,4379.081Z" fill="#fff"/>
            <path id="Trazado_4244" data-name="Trazado 4244" d="M2190.483,4364.129s-1.422,2.91-.519,3.211S2190.483,4364.129,2190.483,4364.129Z" fill="#fff"/>
            <path id="Trazado_4245" data-name="Trazado 4245" d="M2181.234,4394.735s-.7,3.23,0,3.572S2181.234,4394.735,2181.234,4394.735Z" fill="#fff"/>
            <path id="Trazado_4246" data-name="Trazado 4246" d="M2204.615,4372.659s-.9,4.415,0,4.114S2204.615,4372.659,2204.615,4372.659Z" fill="#fff"/>
            <path id="Trazado_4247" data-name="Trazado 4247" d="M2183.241,4361.721s-1.205,3.34,0,3.376S2183.241,4361.721,2183.241,4361.721Z" fill="#fff"/>
          </g>
        </g>
      </g>
      <g id="Grupo_1563" data-name="Grupo 1563">
        <g id="Grupo_1561" data-name="Grupo 1561">
          <path id="Trazado_4248" data-name="Trazado 4248" d="M2266.284,4404.807l-3.908,16.483s-13.39-27.8-29.059-37.045c-10.7-6.315-24.8-6.8-25.485-5.1s7.642,3.568,7.642,3.568-7.986-.509-9.006,1.7,6.66,2.528,6.66,2.528-7.34-.319-8.189,1.89,8.1,1.529,8.1,1.529-9.286.34-8.946,3.059,10.536.933,15.8,13.382,15.663,62.068,45.557,60.2,30.4-53.1,25.641-71.923Z" fill="#e5b48f"/>
          <path id="Trazado_4249" data-name="Trazado 4249" d="M2262.376,4421.29s11.324,12.235,12.845,22.784" fill="#cc7a71"/>
          <path id="Trazado_4250" data-name="Trazado 4250" d="M2215.6,4378.538a41.782,41.782,0,0,1,6.938,1.138,52.154,52.154,0,0,1,6.709,2.168,40.62,40.62,0,0,1,6.233,3.33,24.149,24.149,0,0,1,5.166,4.778,34.6,34.6,0,0,0-5.513-4.24,48.138,48.138,0,0,0-6.205-3.1,65.762,65.762,0,0,0-6.558-2.322Q2219.035,4379.286,2215.6,4378.538Z" fill="#cc7a71"/>
        </g>
        <g id="Grupo_1562" data-name="Grupo 1562">
          <path id="Trazado_4251" data-name="Trazado 4251" d="M2298.986,4424.461l-37.9-13.275,2.5-6.8,9.809-26.661c21.751,5.255,25.506,26.705,25.861,38.636A57.809,57.809,0,0,1,2298.986,4424.461Z" fill="#db7c75"/>
          <path id="Trazado_4252" data-name="Trazado 4252" d="M2298.986,4424.461l-37.9-13.275,1.7-7.065.8.267,35.67,11.975A57.809,57.809,0,0,1,2298.986,4424.461Z" fill="#e0928c"/>
          <path id="Trazado_4253" data-name="Trazado 4253" d="M2264.488,4412.383c-1.181-.267-2.344-.585-3.507-.9l-.232-.063.03-.279c.36-3.4.871-6.769,1.474-10.124s1.3-6.7,2.235-10c-.2,3.424-.642,6.807-1.17,10.175s-1.157,6.72-1.931,10.047l-.2-.342C2262.292,4411.377,2263.4,4411.855,2264.488,4412.383Z" fill="#b7605a"/>
        </g>
      </g>
      <g id="Grupo_1564" data-name="Grupo 1564">
        <path id="Trazado_4254" data-name="Trazado 4254" d="M2161.428,4387.3s12.235,5.661,14.1,4.784-11.045-9.543-11.045-9.543,9.546,5.268,11.23,3.4-10.041-7.987-10.041-7.987,10.366,3.059,11.386.85-10.706-4.484-10.706-4.484,12.065,2.084,12.235-.709-19.2-9.591-32.457,4.683-24.517,60.879-3.229,65.424C2162.332,4447.869,2164.838,4403.854,2161.428,4387.3Z" fill="#e5b48f"/>
        <path id="Trazado_4255" data-name="Trazado 4255" d="M2162.685,4404.842s1.325,16.1-2.563,23.771" fill="#cc7a71"/>
      </g>
    </g>
    <g id="Grupo_1586" data-name="Grupo 1586" transform="translate(-1572 42.135)">
      <path id="Trazado_4256" data-name="Trazado 4256" d="M2291.3,4429.817s-10.722,47.4,7.643,55.785,25.183-58.139,25.183-58.139Z" fill="#efbc9a"/>
      <g id="Grupo_1566" data-name="Grupo 1566">
        <path id="Trazado_4257" data-name="Trazado 4257" d="M2333.518,4441.427a48.519,48.519,0,0,1-7.7,1.707,61.532,61.532,0,0,1-25.5-2.314,74.625,74.625,0,0,1-16.987-7.285c10.994-49.091,59.155-46.019,59.155-46.019S2358.67,4433.615,2333.518,4441.427Z" fill="#5f6caf"/>
      </g>
      <g id="Grupo_1576" data-name="Grupo 1576">
        <path id="Trazado_4258" data-name="Trazado 4258" d="M2376.376,4294.488s2.3-6.225,9.287-2.665Z" fill="#2d2e44"/>
        <path id="Trazado_4259" data-name="Trazado 4259" d="M2323.076,4295.925s-6.258-1.9-5.336-7.068Z" fill="#2d2e44"/>
        <path id="Trazado_4260" data-name="Trazado 4260" d="M2395.438,4326.259s5.815-6.9,12.055-2.909-3.153,18.727-12.764,15.91S2395.438,4326.259,2395.438,4326.259Z" fill="#cc7a71"/>
        <path id="Trazado_4261" data-name="Trazado 4261" d="M2324.5,4332.055s-13.453-1.919-13.158-11.128,6.577-11.707,6.577-11.707-3.592-9,0-13.122,11.487-2.358,11.487-2.358,1.093-12.526,9.788-15.768,15.435,5.158,15.435,5.158-1.988-3.832.793-4.421,5.617,3.831,5.617,3.831.914-5.32,3.682-5.313,1.233,3.987,1.233,3.987,5.414-12.232,16.958-5.453,8.482,16.923,8.482,16.923,23.2,10.082,12.3,30.436C2392.59,4343.835,2324.5,4332.055,2324.5,4332.055Z" fill="#2d2e44"/>
        <path id="Trazado_4262" data-name="Trazado 4262" d="M2399.039,4352.855a29.13,29.13,0,0,1-9.508,11.51,42.076,42.076,0,0,1-14.946,6.882,47.859,47.859,0,0,1-9.378,1.414,43.615,43.615,0,0,1-16.814-2.263c-7.771-2.718-14.37-7.912-17.937-15.926-.546-1.233-1.041-2.486-1.516-3.749a61.993,61.993,0,0,1-3.314-14.177,64.758,64.758,0,0,1-.313-13.036c.03-.525.081-1.041.141-1.566.131-1.243.313-2.466.536-3.648,1-5.325,2.89-10.034,5.84-13.318,9.166-10.227,29.113-10.783,38.9-10.378,3.456.141,5.649.4,5.649.4s11.388.818,17.9,17.5a61.92,61.92,0,0,1,2.375,7.518C2399.231,4330.463,2403.617,4342.326,2399.039,4352.855Z" fill="#efbc9a"/>
        <path id="Trazado_4263" data-name="Trazado 4263" d="M2379.345,4390.611s-20.11,9.732-32.741.617a19.328,19.328,0,0,1-1.728-1.418l3.517-20.134.646-3.7.213-1.2,24.373,1.577.96,4.06Z" fill="#efbc9a"/>
        <path id="Trazado_4264" data-name="Trazado 4264" d="M2327.646,4348.071c-8.284-6.507-10.026-10.485-4.633-21.05l3.879,11.036S2331.563,4345.164,2327.646,4348.071Z" fill="#2d2e44"/>
        <path id="Trazado_4265" data-name="Trazado 4265" d="M2333.872,4326.592l-5.386,10.136a14.684,14.684,0,0,1-2.86-.182c-10.237-1.718-13.965-14.45-5.366-17.826a8.784,8.784,0,0,1,5.73-.424C2331.376,4319.8,2333.872,4326.592,2333.872,4326.592Z" fill="#efbc9a"/>
        <g id="Grupo_1567" data-name="Grupo 1567">
          <path id="Trazado_4266" data-name="Trazado 4266" d="M2318.265,4324.363a7.829,7.829,0,0,1,7.553-1.036,8.82,8.82,0,0,1,3.209,2.343,14.249,14.249,0,0,1,1.152,1.583c.286.587.583,1.16.826,1.753-.442-.479-.815-.988-1.227-1.463-.454-.436-.846-.922-1.314-1.321a10.477,10.477,0,0,0-1.443-1.112,8.232,8.232,0,0,0-1.579-.845,8.548,8.548,0,0,0-3.518-.611A12.068,12.068,0,0,0,2318.265,4324.363Z" fill="#2d2e44"/>
          <path id="Trazado_4267" data-name="Trazado 4267" d="M2319.778,4327.936a8.109,8.109,0,0,1,8.7-2.234,34.481,34.481,0,0,0-4.439.78A33.89,33.89,0,0,0,2319.778,4327.936Z" fill="#2d2e44"/>
        </g>
        <g id="Grupo_1575" data-name="Grupo 1575">
          <g id="Grupo_1573" data-name="Grupo 1573">
            <circle id="Elipse_398" data-name="Elipse 398" cx="5.891" cy="5.891" r="5.891" transform="translate(2343.652 4327.795)" fill="#cc6464" opacity="0.44"/>
            <path id="Trazado_4268" data-name="Trazado 4268" d="M2391.842,4334.275a6.771,6.771,0,1,1-6.771-6.771A6.771,6.771,0,0,1,2391.842,4334.275Z" fill="#cc6464" opacity="0.44"/>
            <g id="Grupo_1571" data-name="Grupo 1571">
              <g id="Grupo_1568" data-name="Grupo 1568">
                <path id="Trazado_4269" data-name="Trazado 4269" d="M2352.372,4321.966l7.925-4.692S2352.816,4313.517,2352.372,4321.966Z" fill="#2d2e44"/>
                <path id="Trazado_4270" data-name="Trazado 4270" d="M2377.532,4317.335l6.137,3.566S2381.712,4314.044,2377.532,4317.335Z" fill="#2d2e44"/>
              </g>
              <g id="Grupo_1569" data-name="Grupo 1569">
                <path id="Trazado_4271" data-name="Trazado 4271" d="M2361.33,4325.135c.1,1.373-.466,2.534-1.267,2.593s-1.532-1.006-1.634-2.379.466-2.534,1.267-2.593S2361.228,4323.762,2361.33,4325.135Z" fill="#2d2e44"/>
                <path id="Trazado_4272" data-name="Trazado 4272" d="M2354.556,4327.289s2.881-1.852,6.515.891" fill="#cc6464"/>
              </g>
              <g id="Grupo_1570" data-name="Grupo 1570">
                <path id="Trazado_4273" data-name="Trazado 4273" d="M2378.983,4324.3c.1,1.373-.466,2.534-1.267,2.593s-1.532-1.006-1.634-2.379.466-2.534,1.267-2.593S2378.881,4322.927,2378.983,4324.3Z" fill="#2d2e44"/>
                <path id="Trazado_4274" data-name="Trazado 4274" d="M2376.146,4327.419s3.086-2.761,6.172-1.184" fill="#cc6464"/>
              </g>
            </g>
            <g id="Grupo_1572" data-name="Grupo 1572">
              <path id="Trazado_4275" data-name="Trazado 4275" d="M2372.877,4335.717a4.168,4.168,0,0,1-1.212.1c-2.163-.1-3.749-1.9-4.81-4.264-2.2-4.9-2.133-12.268-.142-12.349,3.123-.131,2.991,7.943,2.991,7.943C2376.606,4323.894,2380.567,4334.03,2372.877,4335.717Z" fill="#cc6464" opacity="0.44"/>
              <path id="Trazado_4276" data-name="Trazado 4276" d="M2371.665,4335.818c-2.163-.1-3.749-1.9-4.81-4.264a6.621,6.621,0,0,1,3.961,1.869,3.583,3.583,0,0,1,.768,1.132A2.247,2.247,0,0,1,2371.665,4335.818Z" fill="#cc6464" opacity="0.44"/>
            </g>
          </g>
          <g id="Grupo_1574" data-name="Grupo 1574">
            <path id="Trazado_4277" data-name="Trazado 4277" d="M2361.107,4331.982c.086,1.051.189,2.093.37,3.123a22.093,22.093,0,0,0,.657,3.038,12.848,12.848,0,0,0,1.158,2.81,5.152,5.152,0,0,0,1.981,2.062,4.739,4.739,0,0,0,2.8.449,5.859,5.859,0,0,0,2.754-.959,7.309,7.309,0,0,0,2.092-2.159,11.091,11.091,0,0,0,1.358-2.8,8.525,8.525,0,0,1-3.041,5.532,6.134,6.134,0,0,1-3.068,1.248,5.047,5.047,0,0,1-.832.044,4.557,4.557,0,0,1-.844-.032,4.4,4.4,0,0,1-1.651-.518,5.92,5.92,0,0,1-2.3-2.444,11.432,11.432,0,0,1-1.084-3.06A20.721,20.721,0,0,1,2361.107,4331.982Z" fill="#2d2e44"/>
            <path id="Trazado_4278" data-name="Trazado 4278" d="M2374.272,4336.736s-.875,3.292,3.26,5.714" fill="#cc6464" opacity="0.44"/>
            <path id="Trazado_4279" data-name="Trazado 4279" d="M2362.111,4330.337s-1.37,4.608-4.9,5.054" fill="#cc6464" opacity="0.44"/>
            <path id="Trazado_4280" data-name="Trazado 4280" d="M2363.866,4345.574s3.571,2.083,6.4,0" fill="#cc6464" opacity="0.44"/>
          </g>
        </g>
        <path id="Trazado_4281" data-name="Trazado 4281" d="M2349,4308.575s1.516,14.1-12.237,16.269c0,0-6.164,30.154,12.277,41.31,4.073,2.455,9.358,3.991,16.168,4.072a21.86,21.86,0,0,1,0,2.435c-.3,5.558-2.7,19-18.6,22.464a19.951,19.951,0,0,1-1.728-1.627l3.517-23.1c-7.771-2.718-14.37-7.912-17.937-15.926-.546-1.233-1.041-2.486-1.516-3.749a61.993,61.993,0,0,1-3.314-14.177c-10.237-1.718-13.965-14.45-5.366-17.826a8.784,8.784,0,0,1,5.73-.424c1-5.325,2.89-10.034,5.84-13.318,9.166-10.227,29.113-10.783,38.9-10.378,1.425,3.971,5.517,14.935,5.517,14.935s-11.237,3.042-14.127-4.982A13.054,13.054,0,0,1,2349,4308.575Z" fill="#cc6464" opacity="0.44"/>
        <path id="Trazado_4282" data-name="Trazado 4282" d="M2397.1,4319.181c-14.4-.51-10.221-14.67-10.221-14.67-5.36.284-6.2-3.342-6.2-3.342-7.017.97-4.43,8.369-4.43,8.369-14.133.067-11.181-11.564-11.181-11.564-4.766,11.5-14.534,3.342-14.534,3.342-.4,5.709-6.536,2.754-6.536,2.754-.341,20.337-16.4,14.03-18.615,14.079.744-6.811,3.3-9.993,6.914-14.021,12.406-13.827,44.54-9.966,44.54-9.966s11.388.813,17.9,17.493A62.114,62.114,0,0,1,2397.1,4319.181Z" fill="#2d2e44"/>
      </g>
      <path id="Trazado_4283" data-name="Trazado 4283" d="M2333.872,4504.978l.262,1c-.171.091-.262.141-.262.141Z" fill="#cc6464" opacity="0.44"/>
      <g id="Grupo_1584" data-name="Grupo 1584">
        <g id="Grupo_1577" data-name="Grupo 1577">
          <path id="Trazado_4284" data-name="Trazado 4284" d="M2430.141,4462.119c-1.15-18.311-9.621-41.761-10.17-42.127l-18.938,14.152v23.006C2405.732,4456.808,2414.515,4457.442,2430.141,4462.119Z" fill="#efbc9a"/>
          <path id="Trazado_4285" data-name="Trazado 4285" d="M2389.822,4388.9s25.248,3.832,36.417,32.362c0,0-12.485,12.459-36.417,16.781Z" fill="#5f6caf"/>
        </g>
        <g id="Grupo_1578" data-name="Grupo 1578">
          <path id="Trazado_4286" data-name="Trazado 4286" d="M2407.568,4425.511c-.485,2.9-.96,5.77-1.344,8.68-.05.334-.1.677-.141,1.011-.95,7.4-1.971,14.794-3.628,22.059-3.1,13.642-8.691,29.012-21.969,35.772a66.249,66.249,0,0,1-26.738,7.6,47.415,47.415,0,0,1-10.145-.495c-18.705-3.1-23.434-18.745-32.266-38.015-7.407-16.148-2.011-32.336,2.021-51.021,6.063-28.062,33.731-21.988,33.731-21.988l21.958,1.556c33.176-11.8,40.754,18.088,40.754,18.1C2410.872,4412.971,2408.3,4421.186,2407.568,4425.511Z" fill="#5f6caf"/>
          <path id="Trazado_4287" data-name="Trazado 4287" d="M2406.224,4434.191c-.05.334-.1.677-.141,1.011-.95,7.4-1.971,14.794-3.628,22.059-3.1,13.642-8.691,29.012-21.969,35.772a66.249,66.249,0,0,1-26.738,7.6,47.415,47.415,0,0,1-10.145-.495c12.747-3.518,30.592-7.543,9.338-21.422l29.375-16.593s22.827-20.18,18.714-44.9A123.106,123.106,0,0,1,2406.224,4434.191Z" fill="#2e3966" opacity="0.36"/>
          <path id="Trazado_4288" data-name="Trazado 4288" d="M2336.863,4405.917l-2.86,30.255-8.185,6.962a61.532,61.532,0,0,1-25.5-2.314Z" fill="#2e3966" opacity="0.36"/>
          <path id="Trazado_4289" data-name="Trazado 4289" d="M2338.266,4387.91s16.512,23.88,46.8-.432l-7.539-4.42s-21.7,5.332-32.295,0Z" fill="#2d2e44"/>
        </g>
        <g id="Grupo_1583" data-name="Grupo 1583">
          <g id="Grupo_1579" data-name="Grupo 1579">
            <path id="Trazado_4290" data-name="Trazado 4290" d="M2353.764,4406.781c-7.276,2.456-9.145-.182-9.145-.182a15.534,15.534,0,0,1-6.356,2.557,11.14,11.14,0,0,1-9.479-3.032c-7.387-6.811-7.66-22.918-1.506-27.314,5.568-3.981,12.965,1.4,14.319,2.466.142.111.222.172.222.172.011-.021.021-.031.031-.051s.01-.02.01-.03c4.153-8.377,11.1-8.216,16.411-4.4a3.663,3.663,0,0,0,1.232,5.6,4.827,4.827,0,0,0,6.094,7.124C2366.587,4399.1,2360.564,4404.477,2353.764,4406.781Z" fill="#cc6464"/>
            <path id="Trazado_4291" data-name="Trazado 4291" d="M2341.818,4381.447s-8.912-10.906-1.7-16.535C2340.118,4364.912,2343.871,4375.466,2341.818,4381.447Z" fill="#8baf64"/>
            <path id="Trazado_4292" data-name="Trazado 4292" d="M2333.706,4382.17c0-.032,0-.064.007-.1a2.753,2.753,0,0,0-.371-1.433,2.137,2.137,0,0,0-2.326-1.31,3.916,3.916,0,0,0-1.679.963,10.9,10.9,0,0,0-1.82,14.359c.5.737,1.584,2.1,1.6.424a15.713,15.713,0,0,0-.578-2.668,17.273,17.273,0,0,1-.318-3.318,3.077,3.077,0,0,1,2-3.009C2331.529,4385.357,2333.541,4383.814,2333.706,4382.17Z" fill="#fff"/>
            <path id="Trazado_4293" data-name="Trazado 4293" d="M2353.764,4406.781c-7.276,2.456-9.145-.182-9.145-.182a15.534,15.534,0,0,1-6.356,2.557,14.613,14.613,0,0,1-2.446-5.134,32.658,32.658,0,0,1-.758-7.417c-.081-4.416-.2-11.277,3.85-14.147a7.615,7.615,0,0,1,2.688-1.182.294.294,0,0,1,.253.121.687.687,0,0,1,.03.081c-.01-.04-.01-.071-.02-.111,4.153-8.377,11.1-8.216,16.411-4.4a3.663,3.663,0,0,0,1.232,5.6,4.827,4.827,0,0,0,6.094,7.124C2366.587,4399.1,2360.564,4404.477,2353.764,4406.781Z" fill="#cc6464" opacity="0.44"/>
          </g>
          <g id="Grupo_1582" data-name="Grupo 1582">
            <g id="Grupo_1581" data-name="Grupo 1581">
              <path id="Trazado_4294" data-name="Trazado 4294" d="M2358.206,4401c-5.055-3.436-11.49,0-11.49,0s.607-11.441-1.3-11.886-3.441,5.4-3.441,5.4.4-6.166-2.032-6.166-2.92,5.517-2.92,5.517-2.14-4.532-3.684-4.34c-1.2.148-4.523,12.845,1.747,19.659-7.595,8.343-31.973,35.163-37.589,41.867-6.675,7.968-10.024,35.42,8.729,36.692C2322.925,4488.866,2370.264,4409.191,2358.206,4401Z" fill="#efbc9a"/>
              <g id="Grupo_1580" data-name="Grupo 1580">
                <path id="Trazado_4295" data-name="Trazado 4295" d="M2337.027,4393.856s-.831,6.349,1.239,9.5" fill="#cc6464" opacity="0.44"/>
                <path id="Trazado_4296" data-name="Trazado 4296" d="M2341.979,4394.5s-.392,6.421,1.279,8.221" fill="#cc6464" opacity="0.44"/>
              </g>
            </g>
            <path id="Trazado_4297" data-name="Trazado 4297" d="M2305.339,4442.1s-7.741,5.444-10.034,12.52" fill="#cc6464" opacity="0.44"/>
          </g>
        </g>
      </g>
      <g id="Grupo_1585" data-name="Grupo 1585">
        <path id="Trazado_4298" data-name="Trazado 4298" d="M2403.3,4453.284s8.166-2.907,13.653,1.337" fill="#cc6464" opacity="0.44"/>
        <path id="Trazado_4299" data-name="Trazado 4299" d="M2367.462,4462.458s-10.089-8.186-12.181-7.826,8.792,9.629,8.54,9.7-11.768-5.193-14.076-3.967,12.237,8.8,12.237,8.8-13.742-5.122-16.122-2.67,14.1,7.069,14.1,7.069-14.135-1.3-14.712,1.37,17.39,5.985,17.39,5.985Z" fill="#efbc9a"/>
        <path id="Trazado_4300" data-name="Trazado 4300" d="M2403.3,4453.284l-36.014,8.835-4.643,18.8c43.181,7,67.628-15.458,67.628-15.458-.011-1.089-.057-2.207-.128-3.342C2414.515,4457.442,2408,4452.943,2403.3,4453.284Z" fill="#efbc9a"/>
      </g>
    </g>
  </g>
</svg>
