<svg xmlns="http://www.w3.org/2000/svg" xmlns:xlink="http://www.w3.org/1999/xlink" width="431.912" height="340.145" viewBox="0 0 431.912 340.145">
  <defs>
    <filter id="Rectángulo_244" x="24.715" y="0" width="407.197" height="316.124" filterUnits="userSpaceOnUse">
      <feOffset dx="7" dy="7" input="SourceAlpha"/>
      <feGaussianBlur stdDeviation="2.5" result="blur"/>
      <feFlood flood-color="#515151" flood-opacity="0.451"/>
      <feComposite operator="in" in2="blur"/>
      <feComposite in="SourceGraphic"/>
    </filter>
  </defs>
  <g id="Grupo_3495" data-name="Grupo 3495" transform="translate(-794.179 -6879.591)">
    <g transform="matrix(1, 0, 0, 1, 794.18, 6879.59)" filter="url(#Rectángulo_244)">
      <rect id="Rectángulo_244-2" data-name="Rectángulo 244" width="392.197" height="301.124" transform="translate(25.21 0.5)" fill="#fff"/>
    </g>
    <rect id="Rectángulo_245" data-name="Rectángulo 245" width="53.933" height="300.903" transform="translate(819.394 6880.091)" fill="#b79400"/>
    <rect id="Rectángulo_246" data-name="Rectángulo 246" width="33.337" height="338.499" transform="translate(873.327 6913.427) rotate(-90)" fill="#76aadb"/>
    <text id="Alimento_" data-name="Alimento 
" transform="translate(872.576 6886.014)" fill="#fff" font-size="16" font-family="OpenSans-Bold, Open Sans" font-weight="700"><tspan x="22.717" y="17">Alimento </tspan><tspan x="59.385" y="39"></tspan></text>
    <text id="Raviolis_Canalones_Chocolate_Helado_Pizza_Pan" data-name="Raviolis

Canalones

Chocolate

Helado

Pizza

Pan" transform="translate(872.576 6924.736)" fill="#444242" font-size="16" font-family="OpenSans, Open Sans"><tspan x="24.621" y="17">Raviolis</tspan><tspan x="52.742" y="39"></tspan><tspan x="13.817" y="61">Canalones</tspan><tspan x="52.742" y="83"></tspan><tspan x="15.528" y="105">Chocolate</tspan><tspan x="52.742" y="127"></tspan><tspan x="26.145" y="149">Helado</tspan><tspan x="52.742" y="171"></tspan><tspan x="33.969" y="193">Pizza</tspan><tspan x="52.742" y="215"></tspan><tspan x="38.567" y="237">Pan</tspan></text>
    <text id="Carne_Pollo_Con_leche_Vainilla_Básica_Blanco" data-name="Carne

Pollo

Con leche

Vainilla

Básica

Blanco" transform="translate(994.099 6924.736)" fill="#db9600" font-size="16" font-family="OpenSans, Open Sans"><tspan x="31.154" y="17">Carne</tspan><tspan x="53.314" y="39"></tspan><tspan x="34.787" y="61">Pollo</tspan><tspan x="53.314" y="83"></tspan><tspan x="16.728" y="105">Con leche</tspan><tspan x="53.314" y="127"></tspan><tspan x="26.65" y="149">Vainilla</tspan><tspan x="53.314" y="171"></tspan><tspan x="29.583" y="193">Básica</tspan><tspan x="53.314" y="215"></tspan><tspan x="28.107" y="237">Blanco</tspan></text>
    <text id="_536_780_655_259_300_130" data-name="536

780

655

259

300

130" transform="translate(1097.141 6924.736)" fill="#444242" font-size="16" font-family="OpenSans, Open Sans"><tspan x="45.662" y="17">536</tspan><tspan x="59.385" y="39"></tspan><tspan x="45.662" y="61">780</tspan><tspan x="59.385" y="83"></tspan><tspan x="45.662" y="105">655</tspan><tspan x="59.385" y="127"></tspan><tspan x="45.662" y="149">259</tspan><tspan x="59.385" y="171"></tspan><tspan x="45.662" y="193">300</tspan><tspan x="59.385" y="215"></tspan><tspan x="45.662" y="237">130</tspan></text>
    <text id="Calorias" transform="translate(1096.421 6886.014)" fill="#fff" font-size="16" font-family="OpenSans-Bold, Open Sans" font-weight="700"><tspan x="27.898" y="17">Calorias</tspan></text>
    <line id="Línea_97" data-name="Línea 97" y2="254.135" transform="translate(993.224 6919.789)" fill="none" stroke="#cecece" stroke-miterlimit="10" stroke-width="2" stroke-dasharray="6"/>
    <line id="Línea_98" data-name="Línea 98" x1="313.339" transform="translate(887.554 6954.423)" fill="none" stroke="#cecece" stroke-miterlimit="10" stroke-width="2" stroke-dasharray="6"/>
    <line id="Línea_99" data-name="Línea 99" x1="313.339" transform="translate(887.554 7000.538)" fill="none" stroke="#cecece" stroke-miterlimit="10" stroke-width="2" stroke-dasharray="6"/>
    <line id="Línea_100" data-name="Línea 100" x1="313.339" transform="translate(887.554 7045.514)" fill="none" stroke="#cecece" stroke-miterlimit="10" stroke-width="2" stroke-dasharray="6"/>
    <line id="Línea_101" data-name="Línea 101" x1="313.339" transform="translate(887.554 7091.628)" fill="none" stroke="#cecece" stroke-miterlimit="10" stroke-width="2" stroke-dasharray="6"/>
    <line id="Línea_102" data-name="Línea 102" x1="313.339" transform="translate(887.554 7134.658)" fill="none" stroke="#cecece" stroke-miterlimit="10" stroke-width="2" stroke-dasharray="6"/>
    <line id="Línea_103" data-name="Línea 103" y2="254.135" transform="translate(1100.727 6919.789)" fill="none" stroke="#cecece" stroke-miterlimit="10" stroke-width="2" stroke-dasharray="6"/>
    <line id="Línea_104" data-name="Línea 104" y2="23.842" transform="translate(993.223 6884.466)" fill="none" stroke="#fff" stroke-miterlimit="10" stroke-width="2" stroke-dasharray="6"/>
    <line id="Línea_105" data-name="Línea 105" y2="23.842" transform="translate(1100.727 6884.466)" fill="none" stroke="#fff" stroke-miterlimit="10" stroke-width="2" stroke-dasharray="6"/>
    <text id="Varios" transform="translate(854.188 6974.865) rotate(-90)" fill="#fff" font-size="25.413" font-family="OpenSans-Bold, Open Sans" font-weight="700"><tspan x="-39.764" y="0">Varios</tspan></text>
    <g id="Grupo_2337" data-name="Grupo 2337" transform="translate(-1547 17.135)">
      <g id="Grupo_2216" data-name="Grupo 2216">
        <g id="Grupo_2202" data-name="Grupo 2202">
          <path id="Trazado_5990" data-name="Trazado 5990" d="M2399.146,7168.554s6.056,5.823,4.122-16.1,11.048-67.776,23.417-86.376-41.768-28.025-56.659-17.058S2364.951,7122.309,2399.146,7168.554Z" fill="#f7af41"/>
        </g>
        <g id="Grupo_2203" data-name="Grupo 2203" opacity="0.3">
          <path id="Trazado_5991" data-name="Trazado 5991" d="M2398.221,7166.43s6.981,7.947,5.047-13.971,11.048-67.776,23.417-86.376-41.768-28.025-56.659-17.058S2364.026,7120.185,2398.221,7166.43Z" fill="#6c184e"/>
        </g>
        <g id="Grupo_2204" data-name="Grupo 2204">
          <path id="Trazado_5992" data-name="Trazado 5992" d="M2403.234,7166.971a3.615,3.615,0,0,1-1.672,1.787c-2.068.948-4.142-1.15-4.229-1.24a.88.88,0,0,1-.075-.088,191.128,191.128,0,0,1-28.607-57.2c-5.544-18.2-7.68-35.555-5.861-47.622,1.05-6.964,3.313-11.769,6.725-14.282,5.408-3.983,16.045-5.657,28.455-4.479,12.159,1.155,22.848,4.86,27.894,9.67,3.637,3.467,4.459,7.419,2.426,11.512a14.093,14.093,0,0,1-.887,1.527c-12.727,19.138-25.126,64.856-23.276,85.822C2404.768,7159.649,2404.477,7164.47,2403.234,7166.971Zm-4.628-.619c.379.366,1.473,1.192,2.24.837.644-.3,2.659-2.234,1.563-14.654-.917-10.388,1.406-26.694,6.372-44.737,4.809-17.468,11.232-33.241,17.186-42.192,2.591-3.9,2.158-7.546-1.293-10.836-4.779-4.555-15.074-8.081-26.867-9.2-11.821-1.123-22.269.468-27.269,4.15-2.988,2.2-5.077,6.748-6.043,13.151-1.782,11.821.334,28.9,5.806,46.862A189.392,189.392,0,0,0,2398.606,7166.352Z" fill="#6c184e"/>
        </g>
        <g id="Grupo_2214" data-name="Grupo 2214">
          <g id="Grupo_2205" data-name="Grupo 2205">
            <path id="Trazado_5993" data-name="Trazado 5993" d="M2379.58,7052.473c-1.7,2.066-1.3-.934-5.917.626a5.553,5.553,0,0,0-3.773,6.219,3.2,3.2,0,0,0-2.969-1.581c-5.049.81-6.187,8.955-10.448,10.026s-4.552,8.539-4.552,8.539,3.649,47.267,23.53,70.155,27.969,25.914,28.488,20.516-1.732-10.684,3-12.475,8.446,5.226,13.288,2.624c2.712-1.458,2.437-8.088-3.076-7.707s-15.077-.237-16.535-7.96,2.686-21.735,8.272-18.011c13.844,9.23,15.387-9.61,6.715-7.829-7.365,1.513-14.782-6.929-5.06-13.63,8.16-5.625,1.81-7.55,3.1-16.457.961-6.644,6.121-17.186,6.121-17.186-.668-9.528-6.119-3.922-6.119-3.922s-1.689-8.545-5.746-8.628-8.865-3.409-14.041-6.151S2381.275,7050.406,2379.58,7052.473Z" fill="#ffce00"/>
          </g>
          <g id="Grupo_2206" data-name="Grupo 2206" opacity="0.3">
            <path id="Trazado_5994" data-name="Trazado 5994" d="M2379.58,7052.473c-1.7,2.066-1.3-.934-5.917.626a5.553,5.553,0,0,0-3.773,6.219,3.2,3.2,0,0,0-2.969-1.581c-5.049.81-6.187,8.955-10.448,10.026s-4.552,8.539-4.552,8.539.085,1.1.3,3.041c8.664-9.917,29.968-28.684,62.023-7.356,0,0-19.351,47.152-17.79,63.533,1.123,11.782,7.144,26.053,5.007,33.742,1.535.136,2.328-.719,2.479-2.289.518-5.4-1.732-10.684,3-12.475s8.446,5.226,13.288,2.624c2.712-1.458,2.437-8.088-3.076-7.707s-15.077-.237-16.535-7.96,2.686-21.735,8.272-18.011c13.844,9.23,15.387-9.61,6.715-7.829-7.365,1.513-14.782-6.929-5.06-13.63,8.16-5.625,1.81-7.55,3.1-16.457.961-6.644,6.121-17.186,6.121-17.186-.668-9.528-6.119-3.922-6.119-3.922s-1.689-8.545-5.746-8.628-8.865-3.409-14.041-6.151S2381.275,7050.406,2379.58,7052.473Z" fill="#6c184e"/>
          </g>
          <g id="Grupo_2212" data-name="Grupo 2212" opacity="0.65">
            <g id="Grupo_2207" data-name="Grupo 2207">
              <path id="Trazado_5995" data-name="Trazado 5995" d="M2381.742,7051.062a4.793,4.793,0,0,1,.569-.566,12.049,12.049,0,0,0-1.978,1.257C2380.76,7051.9,2381.1,7051.843,2381.742,7051.062Z" fill="#fff"/>
            </g>
            <g id="Grupo_2208" data-name="Grupo 2208">
              <path id="Trazado_5996" data-name="Trazado 5996" d="M2415.858,7062.958l-.058.021.006.031Z" fill="#fff"/>
            </g>
            <g id="Grupo_2209" data-name="Grupo 2209">
              <path id="Trazado_5997" data-name="Trazado 5997" d="M2372.052,7057.907a5.94,5.94,0,0,1,1.349-4.71,5.182,5.182,0,0,0-3.238,3.214A4.081,4.081,0,0,1,2372.052,7057.907Z" fill="#fff"/>
            </g>
            <g id="Grupo_2210" data-name="Grupo 2210">
              <path id="Trazado_5998" data-name="Trazado 5998" d="M2366.047,7057.963c-3.368,1.2-4.87,5.864-7.261,8.343C2361.925,7065.377,2363.36,7060.577,2366.047,7057.963Z" fill="#fff"/>
            </g>
            <g id="Grupo_2211" data-name="Grupo 2211">
              <path id="Trazado_5999" data-name="Trazado 5999" d="M2351.921,7076.3a196.724,196.724,0,0,0,8.609,41.838,6.246,6.246,0,0,0,.618,1.8c3.43,9.763,8.068,19.339,14.3,26.516,18.669,21.5,26.939,25.471,28.307,21.406-3.68-.192-11.875-6.387-26.145-22.816-5.367-6.179-9.551-14.136-12.8-22.46a2.365,2.365,0,0,0,.756-.148c1.7-.646,2.339-3.115,1.427-5.515s-3.029-3.821-4.729-3.175a2.376,2.376,0,0,0-.464.244,307.518,307.518,0,0,1-9.23-38.677s1.691-5.041,3.839-7.535C2352.21,7068.908,2351.921,7076.3,2351.921,7076.3Z" fill="#fff"/>
            </g>
          </g>
          <g id="Grupo_2213" data-name="Grupo 2213">
            <path id="Trazado_6000" data-name="Trazado 6000" d="M2422.215,7156.175a3.829,3.829,0,0,1-1.579,1.706c-2.949,1.585-5.529.116-7.8-1.179-1.906-1.085-3.706-2.11-5.587-1.4-2.642,1-2.657,3.214-2.454,7.04a31.379,31.379,0,0,1,.007,4.711,3.028,3.028,0,0,1-2.012,2.936c-5.2,1.663-18.087-11.572-27.985-22.968-10.386-11.958-16.287-30.545-19.409-44.032a201.573,201.573,0,0,1-4.329-26.623.687.687,0,0,1,0-.1c.013-.331.371-8.127,5.2-9.341,1.671-.42,2.877-2.322,4.155-4.335,1.551-2.445,3.31-5.216,6.367-5.706a3.234,3.234,0,0,1,2.252.464,6.17,6.17,0,0,1,4.35-5.068c2.767-.934,4.04-.376,4.8-.043.1.043.226.1.295.12a2.1,2.1,0,0,0,.431-.433h0c1.952-2.38,9.775-6,15.347-3.047,1.143.606,2.272,1.242,3.363,1.856,3.774,2.126,7.339,4.134,10.291,4.194,3.669.076,5.54,5.318,6.248,7.945a4.1,4.1,0,0,1,3.632-.783c1.653.6,2.579,2.63,2.828,6.191a.866.866,0,0,1-.085.439c-.051.1-5.112,10.5-6.043,16.93a17.081,17.081,0,0,0,.6,7.361c.929,3.625,1.231,6.033-4.065,9.682-3.628,2.5-5.043,5.5-3.88,8.229,1.22,2.86,4.856,4.551,8.278,3.848a4.938,4.938,0,0,1,5.727,2.634,6.967,6.967,0,0,1-1.445,8.024c-1.512,1.333-4.991,2.941-11.3-1.267a2.13,2.13,0,0,0-2.595-.063c-3.155,2.088-5.474,11.249-4.351,17.2,1.4,7.431,11.4,7.553,15.627,7.26a4.91,4.91,0,0,1,5.449,3.548A5.736,5.736,0,0,1,2422.215,7156.175Zm-18.513.036a5.087,5.087,0,0,1,2.931-2.52c2.64-1,4.984.335,7.051,1.512,2.161,1.23,4.027,2.292,6.135,1.159,1.011-.544,1.5-2.275,1.064-3.781-.27-.937-1.107-2.483-3.673-2.306-4.691.325-15.782.13-17.441-8.66-1.152-6.106,1.015-16.255,5.094-18.955a3.824,3.824,0,0,1,4.5.067c3.967,2.645,7.236,3.145,9.205,1.408a5.242,5.242,0,0,0,1.043-5.96,3.21,3.21,0,0,0-3.838-1.715c-4.195.862-8.68-1.273-10.21-4.861-1.492-3.5.185-7.359,4.487-10.324,4.574-3.153,4.173-4.717,3.373-7.835a18.785,18.785,0,0,1-.638-8.035c.905-6.258,5.34-15.659,6.1-17.23-.276-3.44-1.168-4.275-1.682-4.464-.994-.366-2.495.855-2.943,1.311a.863.863,0,0,1-1.463-.435c-.405-2.04-2.178-7.877-4.918-7.933-3.386-.07-7.134-2.181-11.1-4.416-1.082-.609-2.2-1.24-3.324-1.835-4.637-2.456-11.621.684-13.207,2.616-1.017,1.241-1.752,1.238-2.752.8-.6-.263-1.421-.623-3.555.1a4.682,4.682,0,0,0-3.2,5.251.862.862,0,0,1-1.532.676c-1.094-1.423-1.888-1.3-2.148-1.254-2.29.367-3.7,2.582-5.184,4.927-1.4,2.21-2.853,4.5-5.191,5.083-2.956.743-3.812,5.75-3.9,7.686a200.761,200.761,0,0,0,4.292,26.342c3.077,13.288,8.876,31.581,19.025,43.265,7.276,8.377,13.372,14.557,18.118,18.367,5.355,4.3,7.406,4.292,8.04,4.09.173-.056.7-.225.82-1.458a29.979,29.979,0,0,0-.012-4.456C2402.951,7160.223,2402.832,7157.964,2403.7,7156.211Z" fill="#6c184e"/>
          </g>
        </g>
        <g id="Grupo_2215" data-name="Grupo 2215">
          <path id="Trazado_6001" data-name="Trazado 6001" d="M2405.378,7096c1.4-4.806,2.879-9.589,4.515-14.327.819-2.369,1.677-4.726,2.595-7.064s1.894-4.658,2.974-6.941a.755.755,0,0,1,1.365.646l-.016.031,0,0c-1.172,2.184-2.252,4.428-3.279,6.7s-2,4.572-2.93,6.888C2408.734,7086.572,2407.013,7091.27,2405.378,7096Z" fill="#6c184e"/>
        </g>
      </g>
      <g id="Grupo_2220" data-name="Grupo 2220" opacity="0.3">
        <g id="Grupo_2217" data-name="Grupo 2217">
          <path id="Trazado_6002" data-name="Trazado 6002" d="M2365.358,7058.363s-.006-.031-.013-.084l-.038.02Z" fill="#6c184e"/>
        </g>
        <g id="Grupo_2218" data-name="Grupo 2218">
          <path id="Trazado_6003" data-name="Trazado 6003" d="M2389.324,7048.687c5.176,2.742,9.983,6.067,14.041,6.15a2.882,2.882,0,0,1,.633.086c-3.116-1.184-6.54-3.374-10.142-5.282a9.385,9.385,0,0,0-4.63-1C2389.258,7048.656,2389.292,7048.67,2389.324,7048.687Z" fill="#6c184e"/>
        </g>
        <g id="Grupo_2219" data-name="Grupo 2219">
          <path id="Trazado_6004" data-name="Trazado 6004" d="M2404.592,7055.137c3.174,1.522,4.519,8.329,4.519,8.329s2.108-2.168,3.863-1.516c-.828-2.53-2.46-6.1-5.077-6.158A11.034,11.034,0,0,1,2404.592,7055.137Z" fill="#6c184e"/>
        </g>
      </g>
      <g id="Grupo_2243" data-name="Grupo 2243">
        <g id="Grupo_2221" data-name="Grupo 2221">
          <ellipse id="Elipse_436" data-name="Elipse 436" cx="10.012" cy="12.545" rx="10.012" ry="12.545" transform="matrix(0.994, -0.113, 0.113, 0.994, 2358.555, 7067.738)" fill="#ee1822"/>
        </g>
        <g id="Grupo_2222" data-name="Grupo 2222" opacity="0.65">
          <path id="Trazado_6005" data-name="Trazado 6005" d="M2379.578,7081.832c-1.31,6.22-6.479,9.681-11.546,7.731s-8.112-8.574-6.8-14.794c.963-4.574,4.014-7.653,7.576-8.188-4.024.3-7.544,3.651-8.617,8.75-1.389,6.6,1.841,13.619,7.214,15.687s10.854-1.6,12.243-8.2a15.3,15.3,0,0,0,.177-5.213A14.378,14.378,0,0,1,2379.578,7081.832Z" fill="#fff"/>
        </g>
        <g id="Grupo_2223" data-name="Grupo 2223">
          <path id="Trazado_6006" data-name="Trazado 6006" d="M2363.168,7074.627l14.219,5.474c.212-4.343-2.073-8.563-5.6-9.919S2364.68,7070.785,2363.168,7074.627Z" fill="#bd1622"/>
        </g>
        <g id="Grupo_2224" data-name="Grupo 2224">
          <path id="Trazado_6007" data-name="Trazado 6007" d="M2362.44,7078.248c-.134,4.273,2.134,8.385,5.6,9.721s7-.545,8.551-4.272Z" fill="#bd1622"/>
        </g>
        <g id="Grupo_2225" data-name="Grupo 2225">
          <path id="Trazado_6008" data-name="Trazado 6008" d="M2362.44,7078.248c-.134,4.273,2.134,8.385,5.6,9.721s7-.545,8.551-4.272Z" fill="#bd1622"/>
        </g>
        <g id="Grupo_2226" data-name="Grupo 2226">
          <path id="Trazado_6009" data-name="Trazado 6009" d="M2367.214,7080.009a3.273,3.273,0,0,0,1.836,3.186,2.182,2.182,0,0,0,2.8-1.4Z" fill="#ee1822"/>
        </g>
        <g id="Grupo_2227" data-name="Grupo 2227">
          <path id="Trazado_6010" data-name="Trazado 6010" d="M2367.944,7076.542a2.181,2.181,0,0,1,2.8-1.4,3.274,3.274,0,0,1,1.836,3.186Z" fill="#ee1822"/>
        </g>
        <g id="Grupo_2228" data-name="Grupo 2228">
          <path id="Trazado_6011" data-name="Trazado 6011" d="M2379.193,7086.373a11.019,11.019,0,0,1-4.524,4.861,8.861,8.861,0,0,1-7.529.467c-5.685-2.188-9.125-9.6-7.667-16.521a12.006,12.006,0,0,1,5.693-8.264,8.866,8.866,0,0,1,7.529-.467c5.685,2.189,9.125,9.6,7.667,16.522A14.239,14.239,0,0,1,2379.193,7086.373Zm-17.239-13.947a12.757,12.757,0,0,0-1.049,3.056c-1.316,6.249,1.717,12.912,6.76,14.853a7.419,7.419,0,0,0,6.3-.387,10.56,10.56,0,0,0,4.96-7.279c1.316-6.249-1.717-12.912-6.761-14.853a7.418,7.418,0,0,0-6.3.387A9.546,9.546,0,0,0,2361.954,7072.426Z" fill="#6c184e"/>
        </g>
        <g id="Grupo_2234" data-name="Grupo 2234">
          <g id="Grupo_2229" data-name="Grupo 2229">
            <path id="Trazado_6012" data-name="Trazado 6012" d="M2372.4,7084.707a4.464,4.464,0,0,1,.659.114,1.972,1.972,0,0,1,.582.21.528.528,0,1,1-.54.907.535.535,0,0,1-.113-.091,1.931,1.931,0,0,1-.332-.522A4.429,4.429,0,0,1,2372.4,7084.707Z" fill="#f6c547"/>
          </g>
          <g id="Grupo_2230" data-name="Grupo 2230">
            <path id="Trazado_6013" data-name="Trazado 6013" d="M2370.282,7085.527a4.507,4.507,0,0,1,.521.424,1.942,1.942,0,0,1,.408.47.528.528,0,1,1-.914.528.591.591,0,0,1-.054-.134,1.982,1.982,0,0,1-.037-.621A4.559,4.559,0,0,1,2370.282,7085.527Z" fill="#f6c547"/>
          </g>
          <g id="Grupo_2231" data-name="Grupo 2231">
            <path id="Trazado_6014" data-name="Trazado 6014" d="M2367.9,7084.84a4.277,4.277,0,0,1,.227.588,1.7,1.7,0,0,1,.106.567.529.529,0,1,1-1.057-.022.564.564,0,0,1,.026-.154,1.716,1.716,0,0,1,.289-.5A4.078,4.078,0,0,1,2367.9,7084.84Z" fill="#f6c547"/>
          </g>
          <g id="Grupo_2232" data-name="Grupo 2232">
            <path id="Trazado_6015" data-name="Trazado 6015" d="M2366.074,7082.887a3.762,3.762,0,0,1-.156.575,1.525,1.525,0,0,1-.239.483.529.529,0,1,1-.7-.778,1.523,1.523,0,0,1,.506-.186A3.7,3.7,0,0,1,2366.074,7082.887Z" fill="#f6c547"/>
          </g>
          <g id="Grupo_2233" data-name="Grupo 2233">
            <path id="Trazado_6016" data-name="Trazado 6016" d="M2365.457,7080.353a3.788,3.788,0,0,1-.512.341,1.62,1.62,0,0,1-.516.217.529.529,0,0,1-.2-1.039.534.534,0,0,1,.162-.006,1.644,1.644,0,0,1,.53.183A3.855,3.855,0,0,1,2365.457,7080.353Z" fill="#f6c547"/>
          </g>
        </g>
        <g id="Grupo_2240" data-name="Grupo 2240">
          <g id="Grupo_2235" data-name="Grupo 2235">
            <path id="Trazado_6017" data-name="Trazado 6017" d="M2374.2,7076.062a4.081,4.081,0,0,1,.549-.3,1.686,1.686,0,0,1,.545-.179.529.529,0,1,1,.117,1.051.543.543,0,0,1-.157-.006,1.706,1.706,0,0,1-.529-.221A3.931,3.931,0,0,1,2374.2,7076.062Z" fill="#f6c547"/>
          </g>
          <g id="Grupo_2236" data-name="Grupo 2236">
            <path id="Trazado_6018" data-name="Trazado 6018" d="M2372.688,7073.881a3.656,3.656,0,0,1,.213-.555,1.48,1.48,0,0,1,.286-.457.529.529,0,1,1,.616.844,1.5,1.5,0,0,1-.521.134A3.753,3.753,0,0,1,2372.688,7073.881Z" fill="#f6c547"/>
          </g>
          <g id="Grupo_2237" data-name="Grupo 2237">
            <path id="Trazado_6019" data-name="Trazado 6019" d="M2370.36,7072.758a3.883,3.883,0,0,1-.185-.586,1.628,1.628,0,0,1-.065-.557.529.529,0,0,1,1.053.1.542.542,0,0,1-.039.157,1.6,1.6,0,0,1-.323.458A3.813,3.813,0,0,1,2370.36,7072.758Z" fill="#f6c547"/>
          </g>
          <g id="Grupo_2238" data-name="Grupo 2238">
            <path id="Trazado_6020" data-name="Trazado 6020" d="M2368.029,7073.087a4.275,4.275,0,0,1-.5-.434,1.873,1.873,0,0,1-.38-.474.528.528,0,1,1,.936-.488.517.517,0,0,1,.049.139,1.876,1.876,0,0,1,0,.608A4.4,4.4,0,0,1,2368.029,7073.087Z" fill="#f6c547"/>
          </g>
          <g id="Grupo_2239" data-name="Grupo 2239">
            <path id="Trazado_6021" data-name="Trazado 6021" d="M2366.513,7074.752a4.563,4.563,0,0,1-.656-.141,1.973,1.973,0,0,1-.576-.235.527.527,0,1,1,.576-.884.541.541,0,0,1,.109.094,1.952,1.952,0,0,1,.314.537A4.6,4.6,0,0,1,2366.513,7074.752Z" fill="#f6c547"/>
          </g>
        </g>
        <g id="Grupo_2241" data-name="Grupo 2241">
          <path id="Trazado_6022" data-name="Trazado 6022" d="M2378.043,7080.426a.732.732,0,0,1-.919.358l-14.219-5.473a.733.733,0,0,1-.418-.951c1.691-4.3,5.715-6.344,9.566-4.862,3.745,1.442,6.3,5.916,6.065,10.638A.735.735,0,0,1,2378.043,7080.426Zm-13.9-6.206,12.509,4.815c-.17-3.711-2.224-7.052-5.13-8.17-2.859-1.1-5.861.3-7.374,3.346Z" fill="#bd1622"/>
        </g>
        <g id="Grupo_2242" data-name="Grupo 2242">
          <path id="Trazado_6023" data-name="Trazado 6023" d="M2376.99,7084.6c-1.854,3.733-5.631,5.433-9.208,4.056-3.724-1.433-6.221-5.721-6.074-10.427a.732.732,0,0,1,.995-.66l14.156,5.448a.732.732,0,0,1,.413.965C2377.184,7084.189,2377.09,7084.4,2376.99,7084.6Zm-13.8-5.275c.24,3.623,2.286,6.875,5.118,7.965s5.748-.214,7.294-3.188Z" fill="#bd1622"/>
        </g>
      </g>
      <g id="Grupo_2266" data-name="Grupo 2266">
        <g id="Grupo_2244" data-name="Grupo 2244">
          <ellipse id="Elipse_437" data-name="Elipse 437" cx="9.366" cy="11.735" rx="9.366" ry="11.735" transform="translate(2371.873 7103.926) rotate(-6.47)" fill="#ee1822"/>
        </g>
        <g id="Grupo_2245" data-name="Grupo 2245" opacity="0.65">
          <path id="Trazado_6024" data-name="Trazado 6024" d="M2391.538,7117.11c-1.226,5.818-6.061,9.056-10.8,7.232s-7.589-8.02-6.364-13.838c.9-4.279,3.755-7.159,7.087-7.66-3.764.284-7.056,3.415-8.061,8.185-1.3,6.17,1.722,12.74,6.748,14.674s10.154-1.5,11.453-7.669a14.341,14.341,0,0,0,.166-4.876A13.488,13.488,0,0,1,2391.538,7117.11Z" fill="#fff"/>
        </g>
        <g id="Grupo_2246" data-name="Grupo 2246">
          <path id="Trazado_6025" data-name="Trazado 6025" d="M2376.188,7110.371l13.3,5.119c.2-4.062-1.939-8.009-5.235-9.278S2377.6,7106.776,2376.188,7110.371Z" fill="#bd1622"/>
        </g>
        <g id="Grupo_2247" data-name="Grupo 2247">
          <path id="Trazado_6026" data-name="Trazado 6026" d="M2375.506,7113.757c-.125,4,2,7.844,5.243,9.094s6.549-.51,8-4Z" fill="#bd1622"/>
        </g>
        <g id="Grupo_2248" data-name="Grupo 2248">
          <path id="Trazado_6027" data-name="Trazado 6027" d="M2375.506,7113.757c-.125,4,2,7.844,5.243,9.094s6.549-.51,8-4Z" fill="#bd1622"/>
        </g>
        <g id="Grupo_2249" data-name="Grupo 2249">
          <path id="Trazado_6028" data-name="Trazado 6028" d="M2379.972,7115.4a3.061,3.061,0,0,0,1.718,2.98,2.04,2.04,0,0,0,2.62-1.31Z" fill="#ee1822"/>
        </g>
        <g id="Grupo_2250" data-name="Grupo 2250">
          <path id="Trazado_6029" data-name="Trazado 6029" d="M2380.655,7112.162a2.039,2.039,0,0,1,2.62-1.309,3.06,3.06,0,0,1,1.718,2.979Z" fill="#ee1822"/>
        </g>
        <g id="Grupo_2251" data-name="Grupo 2251">
          <path id="Trazado_6030" data-name="Trazado 6030" d="M2391.24,7121.389a10.376,10.376,0,0,1-4.261,4.578,8.359,8.359,0,0,1-7.1.44c-5.349-2.058-8.586-9.027-7.216-15.534a11.3,11.3,0,0,1,5.361-7.777,8.362,8.362,0,0,1,7.1-.44h0c5.349,2.059,8.586,9.027,7.215,15.534A13.409,13.409,0,0,1,2391.24,7121.389Zm-16.126-13.046a11.9,11.9,0,0,0-.975,2.841c-1.224,5.814,1.593,12.011,6.28,13.815a6.873,6.873,0,0,0,5.839-.358,9.811,9.811,0,0,0,4.6-6.762c1.224-5.813-1.594-12.011-6.281-13.815h0a6.874,6.874,0,0,0-5.839.358A8.872,8.872,0,0,0,2375.114,7108.343Z" fill="#6c184e"/>
        </g>
        <g id="Grupo_2257" data-name="Grupo 2257">
          <g id="Grupo_2252" data-name="Grupo 2252">
            <path id="Trazado_6031" data-name="Trazado 6031" d="M2385.486,7118.954a4.086,4.086,0,0,1,.589-.037,1.919,1.919,0,0,1,.55.056.434.434,0,0,1-.242.834.487.487,0,0,1-.1-.042,1.91,1.91,0,0,1-.419-.359A4.121,4.121,0,0,1,2385.486,7118.954Z" fill="#f6c547"/>
          </g>
          <g id="Grupo_2253" data-name="Grupo 2253">
            <path id="Trazado_6032" data-name="Trazado 6032" d="M2383.912,7120.354a4.462,4.462,0,0,1,.546.287,2.1,2.1,0,0,1,.465.348.434.434,0,0,1-.631.6.42.42,0,0,1-.06-.081,2.1,2.1,0,0,1-.2-.545A4.474,4.474,0,0,1,2383.912,7120.354Z" fill="#f6c547"/>
          </g>
          <g id="Grupo_2254" data-name="Grupo 2254">
            <path id="Trazado_6033" data-name="Trazado 6033" d="M2381.707,7120.419a4.1,4.1,0,0,1,.329.5,1.935,1.935,0,0,1,.228.508.434.434,0,1,1-.843.209.477.477,0,0,1-.013-.1,1.933,1.933,0,0,1,.1-.549A4.223,4.223,0,0,1,2381.707,7120.419Z" fill="#f6c547"/>
          </g>
          <g id="Grupo_2255" data-name="Grupo 2255">
            <path id="Trazado_6034" data-name="Trazado 6034" d="M2379.647,7119.126a3.753,3.753,0,0,1,.008.55,1.66,1.66,0,0,1-.081.5.435.435,0,0,1-.816-.3.442.442,0,0,1,.055-.1,1.634,1.634,0,0,1,.372-.347A3.725,3.725,0,0,1,2379.647,7119.126Z" fill="#f6c547"/>
          </g>
          <g id="Grupo_2256" data-name="Grupo 2256">
            <path id="Trazado_6035" data-name="Trazado 6035" d="M2378.453,7116.929a3.478,3.478,0,0,1-.341.42,1.586,1.586,0,0,1-.378.326.435.435,0,0,1-.426-.759.446.446,0,0,1,.111-.043,1.544,1.544,0,0,1,.5-.019A3.489,3.489,0,0,1,2378.453,7116.929Z" fill="#f6c547"/>
          </g>
        </g>
        <g id="Grupo_2263" data-name="Grupo 2263">
          <g id="Grupo_2258" data-name="Grupo 2258">
            <path id="Trazado_6036" data-name="Trazado 6036" d="M2386.5,7111.713a3.966,3.966,0,0,1,.513-.247,1.8,1.8,0,0,1,.508-.146.435.435,0,0,1,.079.866.426.426,0,0,1-.112,0,1.77,1.77,0,0,1-.5-.184A4.045,4.045,0,0,1,2386.5,7111.713Z" fill="#f6c547"/>
          </g>
          <g id="Grupo_2259" data-name="Grupo 2259">
            <path id="Trazado_6037" data-name="Trazado 6037" d="M2385.092,7109.673a3.5,3.5,0,0,1,.221-.491,1.543,1.543,0,0,1,.28-.409.435.435,0,0,1,.606.625.515.515,0,0,1-.1.071,1.571,1.571,0,0,1-.475.143A3.531,3.531,0,0,1,2385.092,7109.673Z" fill="#f6c547"/>
          </g>
          <g id="Grupo_2260" data-name="Grupo 2260">
            <path id="Trazado_6038" data-name="Trazado 6038" d="M2382.915,7108.622a3.8,3.8,0,0,1-.138-.54,1.683,1.683,0,0,1-.04-.514.435.435,0,0,1,.864.1.445.445,0,0,1-.028.111,1.678,1.678,0,0,1-.28.434A3.739,3.739,0,0,1,2382.915,7108.622Z" fill="#f6c547"/>
          </g>
          <g id="Grupo_2261" data-name="Grupo 2261">
            <path id="Trazado_6039" data-name="Trazado 6039" d="M2380.734,7108.93a4.373,4.373,0,0,1-.43-.418,1.942,1.942,0,0,1-.335-.451.434.434,0,0,1,.778-.386.482.482,0,0,1,.035.1,2,2,0,0,1,.024.562A4.2,4.2,0,0,1,2380.734,7108.93Z" fill="#f6c547"/>
          </g>
          <g id="Grupo_2262" data-name="Grupo 2262">
            <path id="Trazado_6040" data-name="Trazado 6040" d="M2379.316,7110.488a4.327,4.327,0,0,1-.59-.16,2.034,2.034,0,0,1-.524-.236.434.434,0,1,1,.488-.718.453.453,0,0,1,.077.067,2.073,2.073,0,0,1,.308.485A4.478,4.478,0,0,1,2379.316,7110.488Z" fill="#f6c547"/>
          </g>
        </g>
        <g id="Grupo_2264" data-name="Grupo 2264">
          <path id="Trazado_6041" data-name="Trazado 6041" d="M2390.164,7115.826a.754.754,0,0,1-.947.369l-13.3-5.12a.756.756,0,0,1-.432-.98c1.6-4.058,5.4-5.988,9.039-4.587,3.53,1.359,5.934,5.572,5.718,10.019A.747.747,0,0,1,2390.164,7115.826Zm-12.963-5.873,11.53,4.437c-.193-3.4-2.085-6.448-4.749-7.474C2381.361,7105.908,2378.61,7107.178,2377.2,7109.953Z" fill="#bd1622"/>
        </g>
        <g id="Grupo_2265" data-name="Grupo 2265">
          <path id="Trazado_6042" data-name="Trazado 6042" d="M2389.179,7119.727c-1.751,3.525-5.32,5.13-8.7,3.828-3.51-1.351-5.865-5.39-5.726-9.821a.755.755,0,0,1,1.025-.681l13.242,5.1a.755.755,0,0,1,.426.994C2389.362,7119.344,2389.273,7119.538,2389.179,7119.727Zm-12.894-4.861c.256,3.318,2.14,6.282,4.735,7.281s5.262-.18,6.7-2.88Z" fill="#bd1622"/>
        </g>
      </g>
      <g id="Grupo_2301" data-name="Grupo 2301">
        <g id="Grupo_2270" data-name="Grupo 2270">
          <g id="Grupo_2267" data-name="Grupo 2267">
            <path id="Trazado_6043" data-name="Trazado 6043" d="M2374.252,7127.694c-3.254,7.284.3,9.224,7.007,9.73C2381.6,7132.247,2379.86,7127.845,2374.252,7127.694Z" fill="#48c75a"/>
          </g>
          <g id="Grupo_2268" data-name="Grupo 2268">
            <path id="Trazado_6044" data-name="Trazado 6044" d="M2382.422,7138.218a.752.752,0,0,1-.774.413c-3.73-.494-7.377-1.31-8.8-3.914-.989-1.812-.754-4.214.719-7.344a.745.745,0,0,1,.678-.433,7.316,7.316,0,0,1,5.5,2.153c1.883,1.925,2.862,5.054,2.757,8.811A.754.754,0,0,1,2382.422,7138.218Zm-7.691-9.759c-1.075,2.439-1.257,4.252-.557,5.535,1,1.839,3.911,2.585,6.821,3.021-.063-2.928-.894-5.4-2.33-6.867A5.729,5.729,0,0,0,2374.731,7128.459Z" fill="#661a47"/>
          </g>
          <g id="Grupo_2269" data-name="Grupo 2269">
            <path id="Trazado_6045" data-name="Trazado 6045" d="M2375,7127.8a6.85,6.85,0,0,0,.171,1.749,9.8,9.8,0,0,0,.6,1.8,15.257,15.257,0,0,0,2.19,3.429,8.435,8.435,0,0,1-1.77-1.2,9.676,9.676,0,0,1-1.476-1.61,7.043,7.043,0,0,1-1.045-2,4.677,4.677,0,0,1-.169-2.37.757.757,0,0,1,1.5.179Z" fill="#651b47"/>
          </g>
        </g>
        <g id="Grupo_2274" data-name="Grupo 2274">
          <g id="Grupo_2271" data-name="Grupo 2271">
            <path id="Trazado_6046" data-name="Trazado 6046" d="M2361.191,7105.1c-.194-7.976,3.829-8.4,10.216-6.277C2369.725,7103.726,2366.424,7107.117,2361.191,7105.1Z" fill="#48c75a"/>
          </g>
          <g id="Grupo_2272" data-name="Grupo 2272">
            <path id="Trazado_6047" data-name="Trazado 6047" d="M2372.045,7100.436a11.019,11.019,0,0,1-5.247,5.486,7.319,7.319,0,0,1-5.9-.133.755.755,0,0,1-.459-.661c-.152-3.456.556-5.763,2.168-7.054,2.315-1.855,6-1.2,9.626-.219a.754.754,0,0,1,.507,1Q2372.42,7099.684,2372.045,7100.436Zm-10.116,4.137a5.724,5.724,0,0,0,4.28-.041c1.89-.8,3.611-2.763,4.8-5.438-2.854-.72-5.824-1.152-7.459.158C2362.407,7100.165,2361.876,7101.909,2361.929,7104.573Z" fill="#661a47"/>
          </g>
          <g id="Grupo_2273" data-name="Grupo 2273">
            <path id="Trazado_6048" data-name="Trazado 6048" d="M2360.461,7104.9a4.663,4.663,0,0,1,1.07-2.122,7.049,7.049,0,0,1,1.737-1.448,9.734,9.734,0,0,1,1.982-.916,8.45,8.45,0,0,1,2.1-.426,15.308,15.308,0,0,0-3.343,2.32,9.815,9.815,0,0,0-1.252,1.43,6.854,6.854,0,0,0-.832,1.547l-.01.026a.756.756,0,0,1-1.449-.411Z" fill="#651b47"/>
          </g>
        </g>
        <g id="Grupo_2278" data-name="Grupo 2278">
          <g id="Grupo_2275" data-name="Grupo 2275">
            <path id="Trazado_6049" data-name="Trazado 6049" d="M2397.6,7088.153c-6.971,2.641-5.918,6.271-1.835,11.052C2399.424,7096.021,2401.2,7091.97,2397.6,7088.153Z" fill="#48c75a"/>
          </g>
          <g id="Grupo_2276" data-name="Grupo 2276">
            <path id="Trazado_6050" data-name="Trazado 6050" d="M2399.35,7096.332a14.384,14.384,0,0,1-3.081,4.012.7.7,0,0,1-1.044-.087c-2.128-2.8-3.989-5.751-3.2-8.408.548-1.85,2.3-3.275,5.341-4.36a.705.705,0,0,1,.734.165,6.838,6.838,0,0,1,2.193,5.061A8.436,8.436,0,0,1,2399.35,7096.332Zm-3.483,2.429a9.49,9.49,0,0,0,3.017-6.066,5.354,5.354,0,0,0-1.471-3.72c-2.325.893-3.646,1.966-4.036,3.275C2392.819,7094.127,2394.239,7096.545,2395.867,7098.761Z" fill="#661a47"/>
          </g>
          <g id="Grupo_2277" data-name="Grupo 2277">
            <path id="Trazado_6051" data-name="Trazado 6051" d="M2398.028,7088.717a6.381,6.381,0,0,0-1.047,1.264,9.206,9.206,0,0,0-.8,1.588,14.311,14.311,0,0,0-.832,3.709,7.963,7.963,0,0,1-.369-1.965,9.065,9.065,0,0,1,.1-2.037,6.635,6.635,0,0,1,.641-2.014,4.373,4.373,0,0,1,1.46-1.672.707.707,0,0,1,.866,1.109Z" fill="#651b47"/>
          </g>
        </g>
        <g id="Grupo_2300" data-name="Grupo 2300">
          <g id="Grupo_2279" data-name="Grupo 2279">
            <path id="Trazado_6052" data-name="Trazado 6052" d="M2381.328,7149.677c.214-.375.427-.722.655-1.077s.464-.7.718-1.042a11.538,11.538,0,0,1,.828-1.013,5.431,5.431,0,0,1,1.119-.966l.055-.034a1.049,1.049,0,1,1,1.111,1.779,1.247,1.247,0,0,1-.178.089,3.444,3.444,0,0,0-.793.512,9.917,9.917,0,0,0-.826.755c-.27.271-.535.557-.792.852s-.514.6-.747.9l-.01.013a.689.689,0,0,1-1.14-.767Z" fill="#48c75a"/>
          </g>
          <g id="Grupo_2280" data-name="Grupo 2280" opacity="0.3">
            <path id="Trazado_6053" data-name="Trazado 6053" d="M2381.328,7149.677c.214-.375.427-.722.655-1.077s.464-.7.718-1.042a11.538,11.538,0,0,1,.828-1.013,5.431,5.431,0,0,1,1.119-.966l.055-.034a1.049,1.049,0,1,1,1.111,1.779,1.247,1.247,0,0,1-.178.089,3.444,3.444,0,0,0-.793.512,9.917,9.917,0,0,0-.826.755c-.27.271-.535.557-.792.852s-.514.6-.747.9l-.01.013a.689.689,0,0,1-1.14-.767Z" fill="#6c184e"/>
          </g>
          <g id="Grupo_2281" data-name="Grupo 2281">
            <path id="Trazado_6054" data-name="Trazado 6054" d="M2386.735,7147.171a1.643,1.643,0,0,1-.6.663,1.726,1.726,0,0,1-.276.138,2.653,2.653,0,0,0-.636.421,9.125,9.125,0,0,0-.776.71c-.257.257-.514.534-.767.824s-.509.6-.727.875a1.29,1.29,0,0,1-2.146-1.423h0c.208-.364.421-.715.673-1.1.239-.372.488-.734.74-1.074a12.084,12.084,0,0,1,.869-1.065,5.968,5.968,0,0,1,1.242-1.067l.056-.035a1.65,1.65,0,0,1,2.35,2.137Zm-4.888,2.809a.088.088,0,0,0,.025.107.082.082,0,0,0,.064.018.085.085,0,0,0,.058-.032c.241-.308.506-.627.778-.937s.545-.606.819-.881a10.16,10.16,0,0,1,.876-.8,3.87,3.87,0,0,1,.953-.6.462.462,0,0,0,.077-.038.447.447,0,0,0-.475-.758l-.056.034a4.932,4.932,0,0,0-1,.868,10.946,10.946,0,0,0-.78.958c-.241.325-.468.655-.7,1.011-.239.372-.442.705-.639,1.05Z" fill="#661a47"/>
          </g>
          <g id="Grupo_2288" data-name="Grupo 2288">
            <g id="Grupo_2282" data-name="Grupo 2282">
              <path id="Trazado_6055" data-name="Trazado 6055" d="M2382.486,7149.183c-9.044-1.777-7.1,10.6-7.1,10.6S2387.573,7156.868,2382.486,7149.183Z" fill="#48c75a"/>
            </g>
            <g id="Grupo_2283" data-name="Grupo 2283" opacity="0.65">
              <path id="Trazado_6056" data-name="Trazado 6056" d="M2382.542,7149.272c-.019-.029-.036-.059-.056-.089-9.044-1.777-7.1,10.6-7.1,10.6s.414-.1,1.058-.309C2376.209,7157.214,2375.764,7148.734,2382.542,7149.272Z" fill="#fff"/>
            </g>
            <g id="Grupo_2284" data-name="Grupo 2284">
              <path id="Trazado_6057" data-name="Trazado 6057" d="M2383.718,7155.164c-1.966,3.958-8.228,5.794-8.505,5.874a.6.6,0,0,1-.763-.5c-.038-.305-.878-7.5,2.523-10.665a6.1,6.1,0,0,1,5.629-1.275.6.6,0,0,1,.385.258,6.184,6.184,0,0,1,.981,5.734A5.913,5.913,0,0,1,2383.718,7155.164Zm-8.136,4.485c1.73-.613,6.136-2.443,7.258-5.482a4.944,4.944,0,0,0-.719-4.439,4.863,4.863,0,0,0-4.327,1.019C2375.42,7152.955,2375.468,7157.8,2375.582,7159.649Z" fill="#661a47"/>
            </g>
            <g id="Grupo_2287" data-name="Grupo 2287">
              <g id="Grupo_2285" data-name="Grupo 2285">
                <line id="Línea_106" data-name="Línea 106" x1="3.848" y2="5.747" transform="translate(2378.638 7149.184)" fill="#48c75a"/>
              </g>
              <g id="Grupo_2286" data-name="Grupo 2286">
                <path id="Trazado_6058" data-name="Trazado 6058" d="M2382.985,7149.518a14.233,14.233,0,0,1-.947,1.447c-.337.467-.7.915-1.071,1.363-.738.893-1.5,1.772-2.329,2.6.45-1.086.974-2.122,1.518-3.145.275-.51.549-1.019.853-1.51a14.35,14.35,0,0,1,.977-1.426.6.6,0,0,1,1,.669Z" fill="#651b47"/>
              </g>
            </g>
          </g>
          <g id="Grupo_2289" data-name="Grupo 2289">
            <path id="Trazado_6059" data-name="Trazado 6059" d="M2383.62,7155.35q-.4-1.494-.777-3c-.248-1-.489-2.009-.7-3.039a.6.6,0,0,1,1.186-.236.615.615,0,0,1,.012.113v0c0,1.013.043,2.043.092,3.07S2383.549,7154.321,2383.62,7155.35Z" fill="#661a47"/>
          </g>
          <g id="Grupo_2294" data-name="Grupo 2294">
            <g id="Grupo_2290" data-name="Grupo 2290">
              <path id="Trazado_6060" data-name="Trazado 6060" d="M2382.6,7149.21s-2.026,4.783,5.484,9.841C2388.086,7159.051,2389.78,7148.067,2382.6,7149.21Z" fill="#48c75a"/>
            </g>
            <g id="Grupo_2291" data-name="Grupo 2291" opacity="0.65">
              <path id="Trazado_6061" data-name="Trazado 6061" d="M2388,7157.342c-6.158-4.147-4.636-8.072-4.58-8.211a6.749,6.749,0,0,0-.823.079s-2.026,4.783,5.484,9.841a18.99,18.99,0,0,0,.038-4.788A16.291,16.291,0,0,1,2388,7157.342Z" fill="#fff"/>
            </g>
            <g id="Grupo_2292" data-name="Grupo 2292">
              <path id="Trazado_6062" data-name="Trazado 6062" d="M2388.625,7159.319a.6.6,0,0,1-.875.231c-7.832-5.274-5.793-10.36-5.7-10.574a.6.6,0,0,1,.459-.36,4.79,4.79,0,0,1,4.367,1.186c2.783,2.769,1.848,9.074,1.807,9.341A.616.616,0,0,1,2388.625,7159.319Zm-5.564-9.563c-.252,1.034-.571,4.427,4.536,8.213.139-1.8.192-5.562-1.572-7.315A3.457,3.457,0,0,0,2383.061,7149.756Z" fill="#661a47"/>
            </g>
            <g id="Grupo_2293" data-name="Grupo 2293">
              <path id="Trazado_6063" data-name="Trazado 6063" d="M2384.8,7153.572q-.721-1-1.416-2.019c-.461-.685-.915-1.372-1.337-2.111a.606.606,0,0,1,1.052-.6.637.637,0,0,1,.058.138c.213.761.484,1.534.763,2.3S2384.5,7152.811,2384.8,7153.572Z" fill="#661a47"/>
            </g>
          </g>
          <g id="Grupo_2299" data-name="Grupo 2299">
            <g id="Grupo_2295" data-name="Grupo 2295">
              <path id="Trazado_6064" data-name="Trazado 6064" d="M2382.559,7149.237s-3.853,3.484-11.1-1.951C2371.463,7147.286,2381.283,7142.081,2382.559,7149.237Z" fill="#48c75a"/>
            </g>
            <g id="Grupo_2296" data-name="Grupo 2296" opacity="0.65">
              <path id="Trazado_6065" data-name="Trazado 6065" d="M2373.124,7146.543a17.921,17.921,0,0,0-1.661.743c7.243,5.435,11.1,1.951,11.1,1.951-.015-.087-.033-.171-.051-.254C2381.443,7149.53,2378.078,7150.65,2373.124,7146.543Z" fill="#fff"/>
            </g>
            <g id="Grupo_2297" data-name="Grupo 2297">
              <path id="Trazado_6066" data-name="Trazado 6066" d="M2383.1,7149.5a.6.6,0,0,1-.136.178c-.172.156-4.307,3.752-11.86-1.916a.6.6,0,0,1,.08-1.012c.238-.127,5.887-3.08,9.416-1.36a4.789,4.789,0,0,1,2.553,3.736A.6.6,0,0,1,2383.1,7149.5Zm-10.452-2.112c5.252,3.582,8.353,2.167,9.247,1.59a3.456,3.456,0,0,0-1.821-2.506C2377.837,7145.387,2374.3,7146.672,2372.646,7147.393Z" fill="#661a47"/>
            </g>
            <g id="Grupo_2298" data-name="Grupo 2298">
              <path id="Trazado_6067" data-name="Trazado 6067" d="M2377.717,7148.591q1.23.059,2.456.079c.815.012,1.634.014,2.423-.035a.606.606,0,0,1,.075,1.21.562.562,0,0,1-.149-.009c-.837-.156-1.634-.359-2.433-.57S2378.5,7148.828,2377.717,7148.591Z" fill="#661a47"/>
            </g>
          </g>
        </g>
      </g>
      <g id="Grupo_2302" data-name="Grupo 2302">
        <path id="Trazado_6068" data-name="Trazado 6068" d="M2400.263,7168.262a.237.237,0,0,0,.095-.022.364.364,0,0,0,.112-.1,1.612,1.612,0,0,0,.258-.522,6.52,6.52,0,0,0,.249-1.53,22.649,22.649,0,0,0-.095-3.361c-.214-2.266-.588-4.539-1.031-6.8s-.97-4.5-1.554-6.736q-.221-.836-.452-1.669c-.153-.559-.32-1.1-.468-1.677-.075-.285-.155-.568-.225-.854l-.191-.86-.094-.431-.078-.433-.156-.866a51.043,51.043,0,0,1-.081-13.961q.408-3.465,1.163-6.87a65.975,65.975,0,0,1,1.816-6.715,81.7,81.7,0,0,0-2.414,13.644,64.2,64.2,0,0,0-.247,6.9,44.443,44.443,0,0,0,.664,6.843l.171.841.085.42.1.415.2.831c.075.275.158.548.236.821.152.543.34,1.1.506,1.659s.335,1.114.5,1.673c.644,2.236,1.228,4.49,1.735,6.766a63.985,63.985,0,0,1,1.2,6.915,24.034,24.034,0,0,1,.157,3.577,7.854,7.854,0,0,1-.286,1.894,3.02,3.02,0,0,1-.512,1.024,1.87,1.87,0,0,1-.544.465,1.725,1.725,0,0,1-.733.215.755.755,0,0,1-.1-1.506Z" fill="#6c184e"/>
      </g>
      <g id="Grupo_2316" data-name="Grupo 2316">
        <g id="Grupo_2303" data-name="Grupo 2303" opacity="0.3">
          <ellipse id="Elipse_438" data-name="Elipse 438" cx="1.204" cy="0.88" rx="1.204" ry="0.88" transform="matrix(0.206, -0.979, 0.979, 0.206, 2406.21, 7075.135)" fill="#6c184e"/>
        </g>
        <g id="Grupo_2304" data-name="Grupo 2304" opacity="0.3">
          <ellipse id="Elipse_439" data-name="Elipse 439" cx="1.958" cy="1.431" rx="1.958" ry="1.431" transform="matrix(0.206, -0.979, 0.979, 0.206, 2400.291, 7079.358)" fill="#6c184e"/>
        </g>
        <g id="Grupo_2305" data-name="Grupo 2305" opacity="0.3">
          <ellipse id="Elipse_440" data-name="Elipse 440" cx="1.527" cy="1.2" rx="1.527" ry="1.2" transform="translate(2387.688 7086.624) rotate(-84.268)" fill="#6c184e"/>
        </g>
        <g id="Grupo_2306" data-name="Grupo 2306" opacity="0.3">
          <ellipse id="Elipse_441" data-name="Elipse 441" cx="1.056" cy="0.829" rx="1.056" ry="0.829" transform="translate(2381.451 7066.731) rotate(-84.268)" fill="#6c184e"/>
        </g>
        <g id="Grupo_2307" data-name="Grupo 2307" opacity="0.3">
          <ellipse id="Elipse_442" data-name="Elipse 442" cx="1.199" cy="0.942" rx="1.199" ry="0.942" transform="translate(2391.988 7070.033) rotate(-84.269)" fill="#6c184e"/>
        </g>
        <g id="Grupo_2308" data-name="Grupo 2308" opacity="0.3">
          <path id="Trazado_6069" data-name="Trazado 6069" d="M2384.591,7077.46a1.018,1.018,0,1,1-.871.907A.9.9,0,0,1,2384.591,7077.46Z" fill="#6c184e"/>
        </g>
        <g id="Grupo_2309" data-name="Grupo 2309" opacity="0.3">
          <ellipse id="Elipse_443" data-name="Elipse 443" cx="0.856" cy="1.089" rx="0.856" ry="1.089" transform="translate(2388.172 7098.65) rotate(-9.379)" fill="#6c184e"/>
        </g>
        <g id="Grupo_2310" data-name="Grupo 2310" opacity="0.3">
          <ellipse id="Elipse_444" data-name="Elipse 444" cx="0.849" cy="1.081" rx="0.849" ry="1.081" transform="translate(2379.934 7091.847) rotate(-9.379)" fill="#6c184e"/>
        </g>
        <g id="Grupo_2311" data-name="Grupo 2311" opacity="0.3">
          <ellipse id="Elipse_445" data-name="Elipse 445" cx="1.127" cy="1.435" rx="1.127" ry="1.435" transform="matrix(0.987, -0.163, 0.163, 0.987, 2389.525, 7133.41)" fill="#6c184e"/>
        </g>
        <g id="Grupo_2312" data-name="Grupo 2312" opacity="0.3">
          <ellipse id="Elipse_446" data-name="Elipse 446" cx="0.953" cy="1.213" rx="0.953" ry="1.213" transform="translate(2383.216 7129.582) rotate(-9.379)" fill="#6c184e"/>
        </g>
        <g id="Grupo_2313" data-name="Grupo 2313" opacity="0.3">
          <ellipse id="Elipse_447" data-name="Elipse 447" cx="0.627" cy="0.798" rx="0.627" ry="0.798" transform="translate(2391.813 7146.965) rotate(-9.379)" fill="#6c184e"/>
        </g>
        <g id="Grupo_2314" data-name="Grupo 2314" opacity="0.3">
          <ellipse id="Elipse_448" data-name="Elipse 448" cx="0.953" cy="1.213" rx="0.953" ry="1.213" transform="translate(2370.858 7123.145) rotate(-9.379)" fill="#6c184e"/>
        </g>
        <g id="Grupo_2315" data-name="Grupo 2315" opacity="0.3">
          <ellipse id="Elipse_449" data-name="Elipse 449" cx="1.245" cy="1.584" rx="1.245" ry="1.584" transform="matrix(0.987, -0.163, 0.163, 0.987, 2368.4, 7109.946)" fill="#6c184e"/>
        </g>
      </g>
      <g id="Grupo_2332" data-name="Grupo 2332">
        <g id="Grupo_2325" data-name="Grupo 2325">
          <g id="Grupo_2321" data-name="Grupo 2321">
            <g id="Grupo_2317" data-name="Grupo 2317">
              <path id="Trazado_6070" data-name="Trazado 6070" d="M2413.986,7065.708c7.065,5.206,17.1-11.843,17.1-11.843s-20.638-24.207-51.969-17.258-40.143,33.2-36.193,38.5,9,1.2,9,1.2S2375.67,7037.473,2413.986,7065.708Z" fill="#eb984e"/>
            </g>
            <g id="Grupo_2318" data-name="Grupo 2318" opacity="0.65">
              <path id="Trazado_6071" data-name="Trazado 6071" d="M2379.114,7036.607c-31.33,6.95-40.143,33.2-36.193,38.5,3.52,4.721,7.911,1.98,8.828,1.326-1.689.5-4.031.445-6.062-2.278-.863-1.158-1.07-3.394-.5-6.219.081.757.342,1.287.764,1.41.853.249,2.04-1.247,2.652-3.342s.418-4-.435-4.244a1.109,1.109,0,0,0-1.005.356c4.137-8.875,14.143-19.75,32.176-23.75,29.126-6.461,48.313,16.043,48.313,16.043s-6.618,11.244-12.629,11.9c6.968,3.015,16.064-12.441,16.064-12.441S2410.445,7029.658,2379.114,7036.607Z" fill="#fff"/>
            </g>
            <g id="Grupo_2319" data-name="Grupo 2319" opacity="0.3">
              <path id="Trazado_6072" data-name="Trazado 6072" d="M2431.083,7053.865a52.446,52.446,0,0,0-7.938-7.111,27.559,27.559,0,0,0-8.174,5.424,7.111,7.111,0,0,1-8.438.769c-6.911-4.213-16.025-8.7-26.885-6.293-24.5,5.433-31.628,25.746-28.816,30.335a7.128,7.128,0,0,0,1.089-.687s23.748-38.829,62.065-10.594C2421.051,7070.914,2431.083,7053.865,2431.083,7053.865Z" fill="#6c184e"/>
            </g>
            <g id="Grupo_2320" data-name="Grupo 2320">
              <path id="Trazado_6073" data-name="Trazado 6073" d="M2431.856,7054.248c-.01.019-.019.036-.03.054-.282.48-6.991,11.767-13.6,13.121a5.753,5.753,0,0,1-4.747-1.021c-11.388-8.391-22.576-11.588-33.252-9.5-17.3,3.38-27.466,19.688-27.566,19.852a.875.875,0,0,1-.192.219,8.037,8.037,0,0,1-5.519,1.661,6.942,6.942,0,0,1-4.716-3.012c-1.551-2.08-1.375-6.437.458-11.368,4.006-10.773,15.629-23.915,36.24-28.486a53.287,53.287,0,0,1,38.347,6.115,58.364,58.364,0,0,1,14.464,11.425A.86.86,0,0,1,2431.856,7054.248Zm-17.87,11.46.512-.694a4.04,4.04,0,0,0,3.378.719c5.117-1.047,10.735-9.536,12.135-11.769a59.541,59.541,0,0,0-13.645-10.616,51.574,51.574,0,0,0-37.065-5.9c-19.935,4.422-31.15,17.057-35,27.4-1.828,4.915-1.665,8.432-.692,9.736a5.3,5.3,0,0,0,3.534,2.33,6.268,6.268,0,0,0,4.128-1.21,51.4,51.4,0,0,1,7.4-8.837c4.459-4.3,11.756-9.812,21.2-11.662,11.175-2.188,22.823,1.11,34.621,9.8Z" fill="#6c184e"/>
            </g>
          </g>
          <g id="Grupo_2322" data-name="Grupo 2322">
            <path id="Trazado_6074" data-name="Trazado 6074" d="M2431.083,7053.865s2.187,5.4-3.325,11.175-11.03,5.033-13.772.668S2425.55,7045.01,2431.083,7053.865Z" fill="#f7af41"/>
          </g>
          <g id="Grupo_2323" data-name="Grupo 2323" opacity="0.3">
            <path id="Trazado_6075" data-name="Trazado 6075" d="M2431.083,7053.865s2.187,5.4-3.325,11.175-11.03,5.033-13.772.668S2425.55,7045.01,2431.083,7053.865Z" fill="#6c184e"/>
          </g>
          <g id="Grupo_2324" data-name="Grupo 2324">
            <path id="Trazado_6076" data-name="Trazado 6076" d="M2431.121,7061.8a15.641,15.641,0,0,1-2.74,3.832c-3.814,4-7.152,4.582-9.281,4.367a7.818,7.818,0,0,1-5.844-3.835c-1.062-1.69-.171-4.146.762-5.91,2.44-4.6,7.906-9.677,12.483-9.841a5.815,5.815,0,0,1,5.313,2.992.758.758,0,0,1,.068.133A10.558,10.558,0,0,1,2431.121,7061.8Zm-15.745-.414c-.857,1.724-1.1,3.152-.66,3.861a6.06,6.06,0,0,0,4.557,3.037c2.468.248,5.26-1.116,7.861-3.842,4.773-5,3.393-9.571,3.173-10.194a4.052,4.052,0,0,0-3.744-2.111c-3.838.136-8.8,4.725-11.021,8.924C2415.484,7061.173,2415.429,7061.282,2415.376,7061.389Zm15.707-7.524v0Z" fill="#6c184e"/>
          </g>
        </g>
        <g id="Grupo_2328" data-name="Grupo 2328">
          <g id="Grupo_2326" data-name="Grupo 2326">
            <path id="Trazado_6077" data-name="Trazado 6077" d="M2353.338,7065.036a2.887,2.887,0,0,1-1.2-.326,3.587,3.587,0,0,1-1.011-.76,2.862,2.862,0,0,1-.662-1.1,2.178,2.178,0,0,1-.044-1.271c.264.356.43.683.654.979.207.3.413.585.647.86s.485.54.755.805S2353.03,7064.751,2353.338,7065.036Z" fill="#6d184e"/>
          </g>
          <g id="Grupo_2327" data-name="Grupo 2327">
            <path id="Trazado_6078" data-name="Trazado 6078" d="M2355.707,7063.66a4.556,4.556,0,0,1-1.528-.756,5.42,5.42,0,0,1-1.21-1.237,4.3,4.3,0,0,1-.722-1.593c-.027-.145-.059-.287-.075-.432s-.014-.293-.014-.438a2.176,2.176,0,0,1,.038-.433c.027-.144.053-.285.093-.423.225.543.363,1.046.6,1.515a9.633,9.633,0,0,0,.738,1.356,11.62,11.62,0,0,0,.95,1.249C2354.926,7062.873,2355.3,7063.259,2355.707,7063.66Z" fill="#6d184e"/>
          </g>
        </g>
        <g id="Grupo_2331" data-name="Grupo 2331">
          <g id="Grupo_2329" data-name="Grupo 2329">
            <path id="Trazado_6079" data-name="Trazado 6079" d="M2403.008,7051.127a5,5,0,0,1-.014-1.821,5.944,5.944,0,0,1,.585-1.753,4.685,4.685,0,0,1,1.152-1.468c.123-.1.242-.2.37-.286s.27-.159.406-.232a2.311,2.311,0,0,1,.427-.182c.148-.048.294-.095.443-.128-.412.47-.829.845-1.163,1.3a9.627,9.627,0,0,0-.933,1.373,11.917,11.917,0,0,0-.716,1.528C2403.355,7049.993,2403.18,7050.546,2403.008,7051.127Z" fill="#6d184e"/>
          </g>
          <g id="Grupo_2330" data-name="Grupo 2330">
            <path id="Trazado_6080" data-name="Trazado 6080" d="M2406.153,7053.759a7.675,7.675,0,0,1,.42-2.479,8.724,8.724,0,0,1,1.147-2.275c.13-.171.245-.353.388-.514s.286-.322.434-.478.318-.29.48-.432l.246-.208.268-.18c.181-.115.358-.237.544-.341s.391-.178.584-.266a2.841,2.841,0,0,1,.295-.119l.307-.087c.207-.052.411-.1.617-.141a17.426,17.426,0,0,0-1.93,1.487l-.223.193-.206.214c-.134.145-.282.275-.411.424s-.257.3-.385.447-.24.312-.362.467a14.647,14.647,0,0,0-1.25,2.034A20.278,20.278,0,0,0,2406.153,7053.759Z" fill="#6d184e"/>
          </g>
        </g>
      </g>
      <g id="Grupo_2336" data-name="Grupo 2336">
        <g id="Grupo_2333" data-name="Grupo 2333">
          <path id="Trazado_6081" data-name="Trazado 6081" d="M2388.99,7072.746c-.167-6.908,3.317-7.272,8.849-5.436C2396.381,7071.56,2393.523,7074.5,2388.99,7072.746Z" fill="#48c75a"/>
        </g>
        <g id="Grupo_2334" data-name="Grupo 2334">
          <path id="Trazado_6082" data-name="Trazado 6082" d="M2398.391,7068.712a9.542,9.542,0,0,1-4.544,4.75,6.334,6.334,0,0,1-5.112-.115.652.652,0,0,1-.4-.572c-.133-2.994.482-4.992,1.877-6.109,2-1.607,5.192-1.041,8.337-.19a.653.653,0,0,1,.439.865Q2398.715,7068.059,2398.391,7068.712Zm-8.762,3.582a4.956,4.956,0,0,0,3.708-.035,8.8,8.8,0,0,0,4.155-4.71c-2.472-.624-5.044-1-6.46.137C2390.044,7068.477,2389.584,7069.987,2389.629,7072.294Z" fill="#661a47"/>
        </g>
        <g id="Grupo_2335" data-name="Grupo 2335">
          <path id="Trazado_6083" data-name="Trazado 6083" d="M2388.359,7072.579a4.044,4.044,0,0,1,.925-1.838,6.165,6.165,0,0,1,1.505-1.254,8.465,8.465,0,0,1,1.717-.793,7.305,7.305,0,0,1,1.816-.369,13.27,13.27,0,0,0-2.9,2.009,8.564,8.564,0,0,0-1.085,1.238,5.983,5.983,0,0,0-.72,1.341l-.008.022a.655.655,0,0,1-1.255-.356Z" fill="#651b47"/>
        </g>
      </g>
    </g>
  </g>
</svg>
