<svg xmlns="http://www.w3.org/2000/svg" width="161.475" height="125.643" viewBox="0 0 161.475 125.643">
  <g id="Grupo_3489" data-name="Grupo 3489" transform="translate(-658.734 -4061.381)">
    <path id="Trazado_4192" data-name="Trazado 4192" d="M2364.249,4082.069a62.822,62.822,0,1,1-62.82-62.823A62.821,62.821,0,0,1,2364.249,4082.069Z" transform="translate(-1572 42.135)" fill="#f6b53e"/>
    <g id="Grupo_1544" data-name="Grupo 1544" transform="translate(-1572 42.135)" opacity="0.9">
      <path id="Trazado_4197" data-name="Trazado 4197" d="M2273.545,4092.924v10.56h-40.369v-8.4l20.6-20.4a22.754,22.754,0,0,0,4.426-5.64,10.649,10.649,0,0,0,1.145-4.68,6.318,6.318,0,0,0-2.175-5.16q-2.175-1.8-6.372-1.8a14.077,14.077,0,0,0-6.334,1.4,12.29,12.29,0,0,0-4.731,4.2l-9.005-6.081a21.427,21.427,0,0,1,8.623-7.64,27.7,27.7,0,0,1,12.592-2.76,24.846,24.846,0,0,1,10.416,2.04,16.209,16.209,0,0,1,6.944,5.76,15.426,15.426,0,0,1,2.481,8.76,20.315,20.315,0,0,1-1.832,8.56q-1.831,4-7.1,9.12l-12.286,12.16Z" fill="#00181e"/>
      <path id="Trazado_4198" data-name="Trazado 4198" d="M2289.57,4101a22.8,22.8,0,0,1-8.127-9.961,42.669,42.669,0,0,1,0-31.12,22.8,22.8,0,0,1,8.127-9.959,22.05,22.05,0,0,1,23.657,0,22.817,22.817,0,0,1,8.127,9.959,42.673,42.673,0,0,1,0,31.12,22.812,22.812,0,0,1-8.127,9.961,22.062,22.062,0,0,1-23.657,0Zm19.5-11.921q2.784-4.4,2.785-13.6t-2.785-13.6a8.817,8.817,0,0,0-15.262,0q-2.787,4.4-2.786,13.6t2.786,13.6a8.817,8.817,0,0,0,15.262,0Z" fill="#00181e"/>
      <path id="Trazado_4199" data-name="Trazado 4199" d="M2333.1,4073.524q-3.7-4.2-3.7-11.24t3.7-11.24a12.976,12.976,0,0,1,19.116,0q3.663,4.2,3.663,11.24t-3.663,11.24a12.975,12.975,0,0,1-19.116,0Zm13.66-4.6q1.488-2.238,1.488-6.64t-1.488-6.64a4.783,4.783,0,0,0-8.127.04,15.028,15.028,0,0,0,0,13.2,4.783,4.783,0,0,0,8.127.04Zm27.739-21.44h9.081l-36.477,56h-9.081Zm-2.4,54.76a12.516,12.516,0,0,1-4.693-5.4,20.67,20.67,0,0,1,0-16.32,12.31,12.31,0,0,1,11.524-7.28,12.175,12.175,0,0,1,9.577,4.2q3.7,4.2,3.7,11.239t-3.7,11.24a12.176,12.176,0,0,1-9.577,4.2A12.643,12.643,0,0,1,2372.1,4102.244Zm10.913-6.96a15.381,15.381,0,0,0,0-13.2,4.637,4.637,0,0,0-4.082-2.28,4.686,4.686,0,0,0-4.045,2.24q-1.527,2.241-1.526,6.64t1.526,6.64a4.783,4.783,0,0,0,8.127-.04Z" fill="#00181e"/>
    </g>
  </g>
</svg>
