<svg xmlns="http://www.w3.org/2000/svg" width="187" height="187" viewBox="0 0 187 187">
  <g id="Grupo_18684" data-name="Grupo 18684" transform="translate(-422 -4550)">
    <circle id="Elipse_1454" data-name="Elipse 1454" cx="93.5" cy="93.5" r="93.5" transform="translate(422 4550)" fill="#fff0aa"/>
    <g id="Grupo_18651" data-name="Grupo 18651" transform="translate(-5875.862 3147.788)">
      <g id="Grupo_18646" data-name="Grupo 18646" transform="translate(6378.887 1434.788)">
        <g id="Grupo_18643" data-name="Grupo 18643" transform="translate(12.281 7.62)">
          <g id="Grupo_18642" data-name="Grupo 18642">
            <g id="Grupo_18641" data-name="Grupo 18641">
              <path id="Trazado_44947" data-name="Trazado 44947" d="M6639.381,1490.371c-6.891.386-12.555-5.807-12.214-13.353.293-6.462,5.083-11.718,10.984-12.051,6.9-.389,12.564,5.809,12.219,13.358C6650.075,1484.787,6645.282,1490.04,6639.381,1490.371Z" transform="translate(-6618.586 -1464.95)" fill="#c7ddeb"/>
              <path id="Trazado_44948" data-name="Trazado 44948" d="M6597.306,1614.153a4.359,4.359,0,0,1-3.98-5.335c2.125-11.737,10.85-22.244,21.3-22.255s19.2,10.478,21.351,22.21a4.36,4.36,0,0,1-3.97,5.343Z" transform="translate(-6593.245 -1555.84)" fill="#c7ddeb"/>
            </g>
          </g>
        </g>
        <g id="Grupo_18645" data-name="Grupo 18645">
          <g id="Grupo_18644" data-name="Grupo 18644">
            <path id="Trazado_44949" data-name="Trazado 44949" d="M6604.207,1469.252q-.441,0-.883-.023a17.277,17.277,0,1,1,.883.023Zm.042-31.324a14.093,14.093,0,0,0-.765,28.166h0a14.094,14.094,0,0,0,1.493-28.147C6604.735,1437.934,6604.491,1437.928,6604.249,1437.928Z" transform="translate(-6576.293 -1434.788)" fill="#3d4451"/>
            <path id="Trazado_44950" data-name="Trazado 44950" d="M6595.411,1601.026h-.007l-44.061-.046a6.728,6.728,0,0,1-6.578-8.067,36.863,36.863,0,0,1,10.032-18.764c5.345-5.3,11.946-8.213,18.588-8.213h.024c6.651.007,13.256,2.937,18.6,8.252a36.859,36.859,0,0,1,9.993,18.785,6.728,6.728,0,0,1-6.588,8.053Zm0-3.14h0a3.562,3.562,0,0,0,2.76-1.3,3.6,3.6,0,0,0,.749-3,33.686,33.686,0,0,0-9.127-17.171c-4.75-4.726-10.569-7.332-16.386-7.338h-.021c-5.809,0-11.625,2.593-16.378,7.3a33.7,33.7,0,0,0-9.164,17.152,3.6,3.6,0,0,0,.743,3,3.558,3.558,0,0,0,2.76,1.309Z" transform="translate(-6544.631 -1532.805)" fill="#3d4451"/>
          </g>
        </g>
      </g>
      <path id="Trazado_44951" data-name="Trazado 44951" d="M6779.8,1788.955l2.331,5.067,9.91,1.086-5.776,6.389,1.711,8.918-7.811-4.541-7.781,4.9,3.232-10.2-4.229-4.465,5.483-.182Z" transform="translate(-335.218 -264.695)" fill="#f04f4c"/>
      <path id="Trazado_44952" data-name="Trazado 44952" d="M6751.82,1796.7l1.539-9.135-6.652-6.446,9.163-1.359,4.075-8.318,4.124,8.295,9.171,1.305-6.614,6.485,1.592,9.125-8.211-4.286Zm-.354-14.05,4.268,4.136-.987,5.861,5.253-2.781,5.27,2.751-1.021-5.855,4.244-4.162-5.885-.837-2.646-5.322-2.614,5.338Z" transform="translate(-316.771 -251.604)" fill="#3d4451"/>
      <path id="Trazado_44953" data-name="Trazado 44953" d="M6751.82,1796.7l1.539-9.135-6.652-6.446,9.163-1.359,4.075-8.318,4.124,8.295,9.171,1.305-6.614,6.485,1.592,9.125-8.211-4.286Zm-.354-14.05,4.268,4.136-.987,5.861,5.253-2.781,5.27,2.751-1.021-5.855,4.244-4.162-5.885-.837-2.646-5.322-2.614,5.338Z" transform="translate(-316.771 -251.604)" fill="#3d4451"/>
      <path id="Trazado_44954" data-name="Trazado 44954" d="M6355.958,1788.955l2.331,5.067,9.909,1.086-5.776,6.389,1.712,8.918-7.812-4.541-7.781,4.9,3.232-10.2-4.229-4.465,5.482-.182Z" transform="translate(-18.448 -264.695)" fill="#f04f4c"/>
      <path id="Trazado_44955" data-name="Trazado 44955" d="M6327.975,1796.7l1.54-9.135-6.652-6.446,9.163-1.359,4.075-8.318,4.124,8.295,9.171,1.305-6.615,6.485,1.593,9.125-8.212-4.286Zm-.354-14.05,4.269,4.136-.987,5.861,5.253-2.781,5.27,2.751-1.022-5.855,4.244-4.162-5.884-.837-2.646-5.322-2.615,5.338Z" transform="translate(0 -251.604)" fill="#3d4451"/>
      <path id="Trazado_44956" data-name="Trazado 44956" d="M6327.975,1796.7l1.54-9.135-6.652-6.446,9.163-1.359,4.075-8.318,4.124,8.295,9.171,1.305-6.615,6.485,1.593,9.125-8.212-4.286Zm-.354-14.05,4.269,4.136-.987,5.861,5.253-2.781,5.27,2.751-1.022-5.855,4.244-4.162-5.884-.837-2.646-5.322-2.615,5.338Z" transform="translate(0 -251.604)" fill="#3d4451"/>
      <path id="Trazado_44957" data-name="Trazado 44957" d="M6673.544,1789.385l2.331,5.067,9.91,1.086-5.777,6.389,1.712,8.918-7.811-4.541-7.781,4.9,3.231-10.2-4.229-4.465,5.483-.182Z" transform="translate(-255.803 -265.017)" fill="#f04f4c"/>
      <path id="Trazado_44958" data-name="Trazado 44958" d="M6645.562,1797.127l1.539-9.135-6.652-6.446,9.163-1.359,4.075-8.318,4.124,8.295,9.171,1.305-6.614,6.485,1.592,9.125-8.212-4.287Zm-.354-14.05,4.269,4.136-.988,5.861,5.252-2.781,5.27,2.75-1.021-5.855,4.244-4.162-5.885-.837-2.646-5.323-2.615,5.338Z" transform="translate(-237.356 -251.925)" fill="#3d4451"/>
      <path id="Trazado_44959" data-name="Trazado 44959" d="M6645.562,1797.127l1.539-9.135-6.652-6.446,9.163-1.359,4.075-8.318,4.124,8.295,9.171,1.305-6.614,6.485,1.592,9.125-8.212-4.287Zm-.354-14.05,4.269,4.136-.988,5.861,5.252-2.781,5.27,2.75-1.021-5.855,4.244-4.162-5.885-.837-2.646-5.323-2.615,5.338Z" transform="translate(-237.356 -251.925)" fill="#3d4451"/>
      <path id="Trazado_44960" data-name="Trazado 44960" d="M6566.089,1788.955l2.332,5.067,9.91,1.086-5.777,6.389,1.712,8.918-7.811-4.541-7.781,4.9,3.232-10.2-4.229-4.465,5.483-.182Z" transform="translate(-175.494 -264.695)" fill="#f04f4c"/>
      <path id="Trazado_44961" data-name="Trazado 44961" d="M6538.108,1796.7l1.539-9.135-6.652-6.446,9.163-1.359,4.075-8.318,4.125,8.295,9.17,1.305-6.614,6.485,1.593,9.125-8.212-4.286Zm-.355-14.05,4.269,4.136-.988,5.861,5.253-2.781,5.27,2.751-1.022-5.855,4.245-4.162-5.885-.837-2.646-5.322-2.615,5.338Z" transform="translate(-157.048 -251.604)" fill="#3d4451"/>
      <path id="Trazado_44962" data-name="Trazado 44962" d="M6538.108,1796.7l1.539-9.135-6.652-6.446,9.163-1.359,4.075-8.318,4.125,8.295,9.17,1.305-6.614,6.485,1.593,9.125-8.212-4.286Zm-.355-14.05,4.269,4.136-.988,5.861,5.253-2.781,5.27,2.751-1.022-5.855,4.245-4.162-5.885-.837-2.646-5.322-2.615,5.338Z" transform="translate(-157.048 -251.604)" fill="#3d4451"/>
      <path id="Trazado_44963" data-name="Trazado 44963" d="M6459.831,1789.385l2.331,5.067,9.91,1.086-5.777,6.389,1.712,8.918-7.812-4.541-7.781,4.9,3.232-10.2-4.229-4.465,5.483-.182Z" transform="translate(-96.08 -265.017)" fill="#f04f4c"/>
      <path id="Trazado_44964" data-name="Trazado 44964" d="M6431.849,1797.127l1.539-9.135-6.651-6.446,9.163-1.359,4.076-8.318,4.123,8.295,9.171,1.305-6.614,6.485,1.592,9.125-8.212-4.287Zm-.355-14.05,4.269,4.136-.988,5.861,5.253-2.781,5.269,2.75-1.022-5.855,4.244-4.162-5.884-.837-2.646-5.323-2.615,5.338Z" transform="translate(-77.633 -251.925)" fill="#3d4451"/>
      <path id="Trazado_44965" data-name="Trazado 44965" d="M6431.849,1797.127l1.539-9.135-6.651-6.446,9.163-1.359,4.076-8.318,4.123,8.295,9.171,1.305-6.614,6.485,1.592,9.125-8.212-4.287Zm-.355-14.05,4.269,4.136-.988,5.861,5.253-2.781,5.269,2.75-1.022-5.855,4.244-4.162-5.884-.837-2.646-5.323-2.615,5.338Z" transform="translate(-77.633 -251.925)" fill="#3d4451"/>
      <g id="Grupo_18649" data-name="Grupo 18649" transform="translate(6331.156 1466.195)">
        <g id="Grupo_18648" data-name="Grupo 18648">
          <path id="Trazado_44966" data-name="Trazado 44966" d="M6478.859,1581.746l-10.572.006,0-10.038s0-4.231,0-5.06a1.758,1.758,0,0,0-.75-1.327l-6.056,0c-1,0-1.244.5-1.244.5s-5.469,12.53-7.872,16.6-7.3,3.9-7.3,3.9l.012,21.572,7.136,0,4.648,3.979,19.661-.011a5.156,5.156,0,0,0,3.312-1.207l2.359-1.979a5.159,5.159,0,0,0,1.843-3.953l-.01-17.823a5.159,5.159,0,0,0-2.5-4.417h0A5.158,5.158,0,0,0,6478.859,1581.746Z" transform="translate(-6422.482 -1563.757)" fill="#f5fafc"/>
          <path id="Trazado_44967" data-name="Trazado 44967" d="M6476.905,1616.709l-9.958.005,0-7.853s0-3.31,0-3.958a1.375,1.375,0,0,0-.706-1.038l-5.7,0c-.938,0-1.172.39-1.172.39s-5.151,9.8-7.415,12.983-6.875,3.053-6.875,3.053l.009,16.875,6.721,0,4.377,3.112,18.518-.01a5.488,5.488,0,0,0,3.12-.944l2.222-1.549a3.8,3.8,0,0,0,1.735-3.093l-.007-13.942a3.951,3.951,0,0,0-2.355-3.456h0A5.623,5.623,0,0,0,6476.905,1616.709Z" transform="translate(-6422.491 -1592.56)" fill="#fdc345"/>
          <path id="Trazado_44968" data-name="Trazado 44968" d="M6451.627,1608.8l-4.648-3.979-8.125,0-.014-24.766,1.624.054c.152.006,4.011.056,5.9-3.132,2.327-3.936,7.73-16.3,7.785-16.424l.034-.072a2.826,2.826,0,0,1,2.647-1.369l6.531,0,.4.262a3.276,3.276,0,0,1,1.451,2.634l.007,13.528,9,0h0a6.727,6.727,0,0,1,6.726,6.723l.01,17.823a6.71,6.71,0,0,1-2.4,5.157l-2.358,1.98a6.74,6.74,0,0,1-4.32,1.574Zm-3.488-7.119,4.648,3.979,19.081-.01a3.59,3.59,0,0,0,2.3-.839l2.36-1.98a3.576,3.576,0,0,0,1.281-2.75l-.009-17.823a3.586,3.586,0,0,0-3.586-3.585h0l-12.142.007-.009-16.426-5.235,0h0c-1.011,2.3-5.571,12.611-7.766,16.323a9.728,9.728,0,0,1-7.08,4.551l.01,18.554Z" transform="translate(-6417.835 -1559.111)" fill="#3d4451"/>
          <g id="Grupo_18647" data-name="Grupo 18647" transform="translate(0 17.723)">
            <rect id="Rect치ngulo_3258" data-name="Rect치ngulo 3258" width="23.716" height="28.372" transform="translate(1.579 1.577)" fill="#7eb9c7"/>
            <path id="Trazado_44969" data-name="Trazado 44969" d="M6355.71,1660.793l-.017-31.512,26.856-.014.017,31.512Zm3.124-28.374.014,25.232,20.577-.011-.014-25.232Z" transform="translate(-6355.693 -1629.266)" fill="#3d4451"/>
          </g>
          <rect id="Rect치ngulo_3259" data-name="Rect치ngulo 3259" width="19.911" height="5.575" transform="translate(3.52 21.079)" fill="#f5fafc"/>
        </g>
      </g>
      <g id="Grupo_18650" data-name="Grupo 18650" transform="translate(6404.604 1467.937)">
        <path id="Trazado_44970" data-name="Trazado 44970" d="M6671.3,1610.921a4.153,4.153,0,0,1-2.887-1.347l-14.18-14.813a3.447,3.447,0,0,1,.312-5.1,4.085,4.085,0,0,1,5.46.271l11.1,11.532,23.074-27.3a4.074,4.074,0,0,1,5.43-.616,3.413,3.413,0,0,1,.659,5.033l-25.928,30.823a4,4,0,0,1-2.921,1.522Z" transform="translate(-6651.528 -1571.069)" fill="#4ece46"/>
        <path id="Trazado_44971" data-name="Trazado 44971" d="M6666.326,1607.58h-.122a5.834,5.834,0,0,1-4.128-1.875l-14.184-14.817a5.131,5.131,0,0,1-1.452-3.884,5.188,5.188,0,0,1,1.911-3.735,5.842,5.842,0,0,1,7.8.4l9.779,10.157,21.842-25.846a5.829,5.829,0,0,1,7.758-.9,5.223,5.223,0,0,1,2.157,3.615,5.086,5.086,0,0,1-1.194,3.923l-25.926,30.82A5.712,5.712,0,0,1,6666.326,1607.58Zm-14.287-22.175a2.347,2.347,0,0,0-1.493.52,1.782,1.782,0,0,0-.666,1.275,1.725,1.725,0,0,0,.5,1.3l14.184,14.817a2.465,2.465,0,0,0,1.644.815h.122a2.331,2.331,0,0,0,1.6-.91l25.928-30.822a1.68,1.68,0,0,0,.407-1.292,1.807,1.807,0,0,0-.763-1.24,2.358,2.358,0,0,0-3.1.335L6666.1,1598.97l-12.428-12.907A2.257,2.257,0,0,0,6652.039,1585.4Z" transform="translate(-6646.432 -1566.006)" fill="#3d4451"/>
      </g>
    </g>
  </g>
</svg>
