<svg xmlns="http://www.w3.org/2000/svg" width="187" height="187" viewBox="0 0 187 187">
  <g id="Grupo_18685" data-name="Grupo 18685" transform="translate(-422 -4803)">
    <circle id="Elipse_1455" data-name="Elipse 1455" cx="93.5" cy="93.5" r="93.5" transform="translate(422 4803)" fill="#fff0aa"/>
    <g id="Grupo_18660" data-name="Grupo 18660" transform="translate(-4366.395 3338.577)">
      <rect id="Rectángulo_3260" data-name="Rectángulo 3260" width="103.816" height="82.484" rx="24.142" transform="translate(4830.367 1520.499)" fill="#7eb9c7"/>
      <path id="Trazado_44972" data-name="Trazado 44972" d="M4865.842,1565.75v49.966a10.311,10.311,0,0,1,10.311,10.311c0,.133,0,.265-.01.4h74.176c0-.132-.01-.264-.01-.4a10.311,10.311,0,0,1,10.311-10.311V1565.75a10.311,10.311,0,0,1-10.311-10.311h-74.156A10.311,10.311,0,0,1,4865.842,1565.75Z" transform="translate(-31.153 -31.154)" fill="#ebf6fc"/>
      <g id="Grupo_18652" data-name="Grupo 18652" transform="translate(4860.189 1537.967)">
        <path id="Trazado_44973" data-name="Trazado 44973" d="M4990.235,1607.295h-20.148l-10.074,17.448,10.074,17.449h20.148l10.074-17.449Z" transform="translate(-4958.868 -1606.303)" fill="#7eb9c7"/>
        <path id="Trazado_44974" data-name="Trazado 44974" d="M4987.906,1640.671h-21.292l-10.647-18.44,10.647-18.44h21.292l10.646,18.44Zm-20.147-1.983h19l9.5-16.457-9.5-16.457h-19l-9.5,16.457Z" transform="translate(-4955.967 -1603.791)" fill="#3d4451"/>
      </g>
      <path id="Trazado_44975" data-name="Trazado 44975" d="M4942.155,1607.959H4822.4v-95.967h119.76Zm-115.794-3.966H4938.19v-88.036H4826.361Z" fill="#3d4451"/>
      <path id="Trazado_44976" data-name="Trazado 44976" d="M4947.649,1623.686h-77.882l.069-1.852c0-.109.009-.219.009-.329a8.536,8.536,0,0,0-8.526-8.526h-1.784v-53.535h1.784a8.536,8.536,0,0,0,8.526-8.526v-1.784h77.726v1.784a8.535,8.535,0,0,0,8.525,8.526h1.785v53.535H4956.1a8.536,8.536,0,0,0-8.525,8.526c0,.11,0,.22.008.329Zm-74.314-3.569h70.746a12.121,12.121,0,0,1,10.231-10.576v-46.66a12.123,12.123,0,0,1-10.179-10.179h-70.85a12.122,12.122,0,0,1-10.179,10.179v46.66A12.121,12.121,0,0,1,4873.335,1620.117Z" transform="translate(-26.631 -26.632)" fill="#3d4451"/>
      <g id="Grupo_18653" data-name="Grupo 18653" transform="translate(4872.196 1596.992)">
        <path id="Trazado_44977" data-name="Trazado 44977" d="M5003.593,1812.4v21.653l8.212-8.27,7.914,8.872v-21.294" transform="translate(-5002.123 -1812.396)" fill="#f04f4c"/>
        <path id="Trazado_44978" data-name="Trazado 44978" d="M5017.464,1838.5l-9.44-10.583-9.625,9.692V1812.4h2.939v18.088l6.8-6.849,6.387,7.16v-17.439h2.939Z" transform="translate(-4998.399 -1812.396)" fill="#3d4451"/>
      </g>
      <g id="Grupo_18654" data-name="Grupo 18654" transform="translate(4870.061 1582.117)">
        <ellipse id="Elipse_1456" data-name="Elipse 1456" cx="10.114" cy="9.846" rx="10.114" ry="9.846" transform="translate(1.503 1.503)" fill="#f04f4c"/>
        <path id="Trazado_44979" data-name="Trazado 44979" d="M5002.472,1782.525a11.352,11.352,0,1,1,11.617-11.349A11.5,11.5,0,0,1,5002.472,1782.525Zm0-19.693a8.347,8.347,0,1,0,8.611,8.344A8.49,8.49,0,0,0,5002.472,1762.833Z" transform="translate(-4990.854 -1759.827)" fill="#3d4451"/>
      </g>
      <circle id="Elipse_1457" data-name="Elipse 1457" cx="3.767" cy="3.767" r="3.767" transform="translate(4848.594 1580.398) rotate(-45)" fill="#3d4451"/>
      <circle id="Elipse_1458" data-name="Elipse 1458" cx="3.767" cy="3.767" r="3.767" transform="matrix(0.23, -0.973, 0.973, 0.23, 4904.907, 1583.199)" fill="#3d4451"/>
      <path id="Trazado_44980" data-name="Trazado 44980" d="M4900.13,1656.937h-9.914a1.443,1.443,0,0,1,0-2.885h9.914a1.443,1.443,0,0,1,0,2.885Z" transform="translate(-47.597 -101.864)" fill="#3d4451"/>
      <path id="Trazado_44981" data-name="Trazado 44981" d="M4900.13,1679.361h-9.914a1.443,1.443,0,0,1,0-2.885h9.914a1.443,1.443,0,0,1,0,2.885Z" transform="translate(-47.597 -117.943)" fill="#3d4451"/>
      <path id="Trazado_44982" data-name="Trazado 44982" d="M5136.282,1657.637h-9.914a1.443,1.443,0,0,1,0-2.885h9.914a1.443,1.443,0,1,1,0,2.885Z" transform="translate(-216.929 -102.366)" fill="#3d4451"/>
      <path id="Trazado_44983" data-name="Trazado 44983" d="M5136.282,1680.061h-9.914a1.443,1.443,0,0,1,0-2.885h9.914a1.443,1.443,0,1,1,0,2.885Z" transform="translate(-216.929 -118.445)" fill="#3d4451"/>
      <g id="Grupo_18659" data-name="Grupo 18659" transform="translate(4872.113 1545.656)">
        <g id="Grupo_18658" data-name="Grupo 18658" transform="translate(0 0)">
          <g id="Grupo_18656" data-name="Grupo 18656">
            <g id="Grupo_18655" data-name="Grupo 18655">
              <path id="Trazado_44984" data-name="Trazado 44984" d="M5002.226,1637.942q.324,4.165.646,8.33c0,2.8,1.908,5.382,5.013,6.792l2.744,1.523,2.744-1.523c3.1-1.409,5.013-3.995,5.013-6.792l.646-8.33a34,34,0,0,1-8.486-2.695,30.311,30.311,0,0,1-8.321,2.695Z" transform="translate(-5001.06 -1634.036)" fill="#f5fafc"/>
              <path id="Trazado_44985" data-name="Trazado 44985" d="M5007.675,1652.765l-3.236-1.8c-3.447-1.581-5.592-4.533-5.611-7.723l-.721-9.283.982-.167a29.242,29.242,0,0,0,8.021-2.6l.471-.232.476.223a32.955,32.955,0,0,0,8.213,2.608l.974.174-.72,9.275c-.02,3.19-2.164,6.142-5.612,7.723Zm-7.239-17,.574,7.437c0,2.352,1.676,4.573,4.372,5.8l.079.04,2.214,1.229,2.293-1.269c2.7-1.224,4.372-3.446,4.372-5.8l0-.084.57-7.358a35.082,35.082,0,0,1-7.311-2.375,31.432,31.432,0,0,1-7.168,2.381Z" transform="translate(-4998.106 -1630.966)" fill="#3d4451"/>
            </g>
          </g>
          <g id="Grupo_18657" data-name="Grupo 18657" transform="translate(2.683 2.835)">
            <path id="Trazado_44986" data-name="Trazado 44986" d="M5007.588,1643.107q.277,3.278.552,6.555c0,2.2,1.627,4.236,4.275,5.345l2.341,1.2.005,0v-15.194l-.076-.023Z" transform="translate(-5007.588 -1640.986)" fill="#f99841"/>
            <path id="Trazado_44987" data-name="Trazado 44987" d="M5032.939,1641.067v15.194l2.335-1.2c2.647-1.109,4.276-3.144,4.276-5.345l.551-6.555Z" transform="translate(-5025.766 -1641.044)" fill="#ffc655"/>
          </g>
        </g>
      </g>
    </g>
  </g>
</svg>
