<svg xmlns="http://www.w3.org/2000/svg" width="187" height="187" viewBox="0 0 187 187">
  <g id="Grupo_18686" data-name="Grupo 18686" transform="translate(-422 -5061)">
    <circle id="Elipse_1459" data-name="Elipse 1459" cx="93.5" cy="93.5" r="93.5" transform="translate(422 5061)" fill="#fff0aa"/>
    <g id="Grupo_18665" data-name="Grupo 18665" transform="translate(-3606.042 3650.977)">
      <g id="Grupo_18662" data-name="Grupo 18662" transform="translate(4094.375 1435.636)">
        <g id="Grupo_18661" data-name="Grupo 18661" transform="translate(0)">
          <rect id="Rectángulo_3261" data-name="Rectángulo 3261" width="52.967" height="41.671" transform="translate(1.127 12.091)" fill="#f5fafc"/>
          <path id="Trazado_44988" data-name="Trazado 44988" d="M4184.575,1465l8.651-7.913h33.03l7.078,7.913" transform="translate(-4179.24 -1451.127)" fill="#fdc345"/>
          <rect id="Rectángulo_3262" data-name="Rectángulo 3262" width="43.95" height="34.273" transform="translate(10.144 19.489)" fill="#fdc345"/>
          <path id="Trazado_44989" data-name="Trazado 44989" d="M4167.635,1448.759l-2.254-1.989,9.373-10.626,1.127-.509h35.786l1.219.624,7.668,10.626-2.437,1.759-7.219-10h-34.339Z" transform="translate(-4165.381 -1435.636)" fill="#3d4451"/>
          <path id="Trazado_44990" data-name="Trazado 44990" d="M4219.041,1517.926h-51.976l-1.5-1.5v-41.055l1.5-1.5h51.976l1.5,1.5v41.055Zm-50.474-3.006h48.971v-38.048h-48.971Z" transform="translate(-4165.512 -1463.24)" fill="#3d4451"/>
        </g>
        <rect id="Rectángulo_3263" data-name="Rectángulo 3263" width="3.169" height="8.416" transform="translate(25.957 2.958)" fill="#3d4451"/>
      </g>
      <g id="Grupo_18663" data-name="Grupo 18663" transform="translate(4067.042 1492.857)">
        <path id="Trazado_44991" data-name="Trazado 44991" d="M4228.49,1674.231h0a5.685,5.685,0,0,0-8.217,0L4199,1696.179h0a6.024,6.024,0,0,0,.39-2.136h0a5.785,5.785,0,0,0-5.693-5.873h-31.739a5.277,5.277,0,0,0-3.611,1.44l-15.976,15.023,16.39,16.909,6.438-6.82a3.3,3.3,0,0,1,2.367-1.011h28.667A5.25,5.25,0,0,0,4200,1712.1l28.489-29.391A6.129,6.129,0,0,0,4228.49,1674.231Z" transform="translate(-4121.432 -1663.868)" fill="#c7ddeb"/>
        <path id="Trazado_44992" data-name="Trazado 44992" d="M4108.049,1782.674l20.155,20.793a.943.943,0,0,1,0,1.3l-6.5,6.7a.875.875,0,0,1-1.265,0L4100,1790.385a.943.943,0,0,1,.028-1.333l6.788-6.406A.875.875,0,0,1,4108.049,1782.674Z" transform="translate(-4090.648 -1743.242)" fill="#7eb9c7"/>
        <path id="Trazado_44993" data-name="Trazado 44993" d="M4123.642,1698.283l-19.986-20.619,18.392-17.3a7.308,7.308,0,0,1,5.014-2h34.106a7.826,7.826,0,0,1,7.532,5.992l19.838-20.467a7.766,7.766,0,0,1,11.208,0,8.263,8.263,0,0,1,0,11.415l-30.613,31.582a7.35,7.35,0,0,1-5.241,2.235h-30.8a1.875,1.875,0,0,0-1.354.583Zm-15.269-20.51,15.237,15.719,5.729-6.07a5.244,5.244,0,0,1,3.747-1.606h30.8a3.965,3.965,0,0,0,2.863-1.228l30.613-31.582a4.926,4.926,0,0,0,0-6.8,4.453,4.453,0,0,0-6.452,0l-22.637,23.353a7.781,7.781,0,0,1-7.112,4.751h-19.095a1.656,1.656,0,1,1,0-3.312h19.095a4.474,4.474,0,0,0,4.134-2.9c.011-.03.022-.06.034-.09a4.808,4.808,0,0,0,.294-1.662,4.567,4.567,0,0,0-4.462-4.656h-34.106a4.007,4.007,0,0,0-2.747,1.1Z" transform="translate(-4093.479 -1641.507)" fill="#3d4451"/>
        <path id="Trazado_44994" data-name="Trazado 44994" d="M4091.628,1792.393h0a2.582,2.582,0,0,1-1.868-.794l-21.968-22.664a2.669,2.669,0,0,1,.083-3.79l7.293-6.884a2.581,2.581,0,0,1,3.654.082l21.658,22.343a2.684,2.684,0,0,1,0,3.708l-6.982,7.2A2.584,2.584,0,0,1,4091.628,1792.393Zm-21-25.291,21,21.667,6.036-6.228-20.734-21.39Zm27.475,15.89h0Zm-21.658-22.343,0,0,0,0Z" transform="translate(-4067.042 -1725.293)" fill="#3d4451"/>
      </g>
      <g id="Grupo_18664" data-name="Grupo 18664" transform="translate(4104.156 1452.179)">
        <path id="Trazado_44995" data-name="Trazado 44995" d="M4217.391,1528.052a2.36,2.36,0,0,1-1.754-.914l-8.259-9.737a2.727,2.727,0,0,1,.111-3.6,2.193,2.193,0,0,1,3.284.122l6.2,4.8,20.4-16.346a2.2,2.2,0,0,1,3.252-.5,2.688,2.688,0,0,1,.471,3.544l-21.894,21.528a2.316,2.316,0,0,1-1.732,1.112Z" transform="translate(-4205.033 -1499.634)" fill="#4ece46"/>
        <path id="Trazado_44996" data-name="Trazado 44996" d="M4212.9,1525.3a4.055,4.055,0,0,1-3.031-1.518l-8.264-9.741a4.47,4.47,0,0,1,.2-5.931,3.913,3.913,0,0,1,5.688.064l5,3.872,19.167-15.359a4.011,4.011,0,0,1,2.56-1.489,3.881,3.881,0,0,1,3.034.859,4.394,4.394,0,0,1,.8,5.855l-.094.137-21.9,21.539a3.9,3.9,0,0,1-3.011,1.712l-.074,0Zm-8.281-14.936a.51.51,0,0,0-.361.168,1.012,1.012,0,0,0-.028,1.273l8.265,9.742a.93.93,0,0,0,.411.306h.035a1.092,1.092,0,0,0,.376-.363l.094-.138,21.863-21.5a.96.96,0,0,0-.205-1.13.461.461,0,0,0-.361-.113.566.566,0,0,0-.376.26l-.145.21-21.657,17.355-7.41-5.736-.115-.134a.513.513,0,0,0-.371-.2Z" transform="translate(-4200.571 -1495.154)" fill="#3d4451"/>
      </g>
    </g>
  </g>
</svg>
