<svg xmlns="http://www.w3.org/2000/svg" width="187" height="187" viewBox="0 0 187 187">
  <g id="Grupo_18687" data-name="Grupo 18687" transform="translate(-422 -5367)">
    <circle id="Elipse_1460" data-name="Elipse 1460" cx="93.5" cy="93.5" r="93.5" transform="translate(422 5367)" fill="#fff0aa"/>
    <g id="Grupo_18683" data-name="Grupo 18683" transform="translate(-2758.64 4012.52)">
      <rect id="Rectángulo_3264" data-name="Rectángulo 3264" width="98.098" height="21.857" rx="10.929" transform="translate(3227.005 1484.787)" fill="#c7ddeb"/>
      <g id="Grupo_18666" data-name="Grupo 18666" transform="translate(3265.219 1480.102)">
        <circle id="Elipse_1461" data-name="Elipse 1461" cx="7.286" cy="7.286" r="7.286" transform="translate(0 10.304) rotate(-45)" fill="#f3fdff"/>
        <path id="Trazado_44997" data-name="Trazado 44997" d="M3443.422,1796.772a8.459,8.459,0,1,1,8.459-8.459A8.469,8.469,0,0,1,3443.422,1796.772Zm0-14.572a6.112,6.112,0,1,0,6.112,6.112A6.12,6.12,0,0,0,3443.422,1782.2Z" transform="translate(-3433.119 -1778.01)" fill="#3d4451"/>
      </g>
      <g id="Grupo_18667" data-name="Grupo 18667" transform="translate(3233.459 1481.641)">
        <circle id="Elipse_1462" data-name="Elipse 1462" cx="7.286" cy="7.286" r="7.286" transform="translate(0 3.348) rotate(-13.283)" fill="#f3fdff"/>
        <path id="Trazado_44998" data-name="Trazado 44998" d="M3299.247,1796.772a8.459,8.459,0,1,1,8.459-8.459A8.468,8.468,0,0,1,3299.247,1796.772Zm0-14.572a6.112,6.112,0,1,0,6.112,6.112A6.12,6.12,0,0,0,3299.247,1782.2Z" transform="translate(-3290.482 -1779.548)" fill="#3d4451"/>
      </g>
      <g id="Grupo_18668" data-name="Grupo 18668" transform="translate(3297.585 1480.102)">
        <circle id="Elipse_1463" data-name="Elipse 1463" cx="7.286" cy="7.286" r="7.286" transform="translate(0 10.304) rotate(-45)" fill="#f3fdff"/>
        <path id="Trazado_44999" data-name="Trazado 44999" d="M3583.563,1796.772a8.459,8.459,0,1,1,8.459-8.459A8.468,8.468,0,0,1,3583.563,1796.772Zm0-14.572a6.112,6.112,0,1,0,6.113,6.112A6.12,6.12,0,0,0,3583.563,1782.2Z" transform="translate(-3573.26 -1778.01)" fill="#3d4451"/>
      </g>
      <g id="Grupo_18670" data-name="Grupo 18670" transform="translate(3296.393 1436.455)">
        <g id="Grupo_18669" data-name="Grupo 18669" transform="translate(0 0)">
          <rect id="Rectángulo_3265" data-name="Rectángulo 3265" width="16.913" height="18.995" transform="translate(4.554 2.732)" fill="#fdc345"/>
          <path id="Trazado_45000" data-name="Trazado 45000" d="M3580.953,1602.92H3563a1.041,1.041,0,0,1-1.041-1.041v-17.954a1.041,1.041,0,0,1,1.041-1.041h17.955a1.041,1.041,0,0,1,1.041,1.041v17.954A1.041,1.041,0,0,1,3580.953,1602.92Zm-16.914-2.082h15.873v-15.873H3564.04Z" transform="translate(-3561.958 -1582.884)" fill="#3d4451"/>
        </g>
        <rect id="Rectángulo_3266" data-name="Rectángulo 3266" width="17.954" height="1.561" transform="translate(1.431 4.033)" fill="#3d4451"/>
      </g>
      <rect id="Rectángulo_3267" data-name="Rectángulo 3267" width="113.71" height="7.719" transform="translate(3218.722 1399.722)" fill="#c7ddeb"/>
      <path id="Trazado_45001" data-name="Trazado 45001" d="M3332.432,1410.824H3217.94a1.3,1.3,0,0,1-1.3-1.3v-15.178a1.3,1.3,0,0,1,1.3-1.3h114.491a1.3,1.3,0,0,1,1.3,1.3v15.178A1.3,1.3,0,0,1,3332.432,1410.824Zm-113.19-2.6H3331.13v-12.577H3219.242Z" transform="translate(0 -0.434)" fill="#3d4451"/>
      <g id="Grupo_18675" data-name="Grupo 18675" transform="translate(3231.294 1392.48)">
        <g id="Grupo_18672" data-name="Grupo 18672" transform="translate(4.602)">
          <g id="Grupo_18671" data-name="Grupo 18671">
            <path id="Rectángulo_3268" data-name="Rectángulo 3268" d="M0,0H17.174a0,0,0,0,1,0,0V11.579a8.587,8.587,0,0,1-8.587,8.587h0A8.587,8.587,0,0,1,0,11.579V0A0,0,0,0,1,0,0Z" transform="translate(1.301 1.301)" fill="#fff"/>
            <path id="Trazado_45002" data-name="Trazado 45002" d="M3315.5,1415.248H3304.3a4.289,4.289,0,0,1-4.284-4.284V1392.48h19.776v18.484A4.289,4.289,0,0,1,3315.5,1415.248Zm-12.89-20.166v15.883a1.684,1.684,0,0,0,1.682,1.682H3315.5a1.684,1.684,0,0,0,1.682-1.682v-15.883Z" transform="translate(-3300.012 -1392.48)" fill="#3d4451"/>
          </g>
        </g>
        <g id="Grupo_18673" data-name="Grupo 18673" transform="translate(0 21.467)">
          <path id="Trazado_45003" data-name="Trazado 45003" d="M3282.525,1577.481h-2.437v-11.189a1.219,1.219,0,0,1,.736-1.119l13.271-5.725.965,2.238-12.535,5.407Z" transform="translate(-3280.088 -1542.353)" fill="#3d4451"/>
          <path id="Trazado_45004" data-name="Trazado 45004" d="M3353.256,1520.557h-2.438V1510.17l-12.534-5.407a1.218,1.218,0,0,1-.736-1.119v-18.214h2.438v17.413l12.534,5.407a1.219,1.219,0,0,1,.736,1.119Z" transform="translate(-3324.277 -1485.429)" fill="#3d4451"/>
        </g>
        <g id="Grupo_18674" data-name="Grupo 18674" transform="translate(10.847 7.936)">
          <circle id="Elipse_1464" data-name="Elipse 1464" cx="2.862" cy="2.862" r="2.862" transform="translate(0.2 5.771) rotate(-76.717)" fill="#f04f4c"/>
          <path id="Trazado_45005" data-name="Trazado 45005" d="M3330.695,1434.129a3.643,3.643,0,1,1,3.643-3.643A3.647,3.647,0,0,1,3330.695,1434.129Zm0-5.724a2.082,2.082,0,1,0,2.082,2.082A2.084,2.084,0,0,0,3330.695,1428.4Z" transform="translate(-3327.052 -1426.843)" fill="#3d4451"/>
        </g>
      </g>
      <g id="Grupo_18680" data-name="Grupo 18680" transform="translate(3292.1 1392.48)">
        <g id="Grupo_18678" data-name="Grupo 18678" transform="translate(5.464)">
          <g id="Grupo_18676" data-name="Grupo 18676">
            <path id="Rectángulo_3269" data-name="Rectángulo 3269" d="M0,0H15.612a0,0,0,0,1,0,0V11.319a7.806,7.806,0,0,1-7.806,7.806h0A7.806,7.806,0,0,1,0,11.319V0A0,0,0,0,1,0,0Z" transform="translate(1.301 1.301)" fill="#fff"/>
            <path id="Trazado_45006" data-name="Trazado 45006" d="M3580.7,1414.207h-9.136a4.544,4.544,0,0,1-4.539-4.539V1392.48h18.214v17.188A4.544,4.544,0,0,1,3580.7,1414.207Zm-11.073-19.125v14.586a1.94,1.94,0,0,0,1.937,1.937h9.136a1.94,1.94,0,0,0,1.937-1.937v-14.586Z" transform="translate(-3567.029 -1392.48)" fill="#3d4451"/>
          </g>
          <g id="Grupo_18677" data-name="Grupo 18677" transform="translate(5.367 7.059)">
            <circle id="Elipse_1465" data-name="Elipse 1465" cx="2.862" cy="2.862" r="2.862" transform="translate(0 2.191) rotate(-22.5)" fill="#f04f4c"/>
            <path id="Trazado_45007" data-name="Trazado 45007" d="M3594.331,1430.749a3.643,3.643,0,1,1,3.643-3.643A3.647,3.647,0,0,1,3594.331,1430.749Zm0-5.724a2.082,2.082,0,1,0,2.082,2.082A2.084,2.084,0,0,0,3594.331,1425.024Z" transform="translate(-3590.591 -1423.366)" fill="#3d4451"/>
          </g>
        </g>
        <g id="Grupo_18679" data-name="Grupo 18679" transform="translate(0 20.296)">
          <path id="Trazado_45008" data-name="Trazado 45008" d="M3547.25,1554.193l-3.123-1.431a1.3,1.3,0,0,1-.759-1.183v-14.832a1.3,1.3,0,0,1,.786-1.195l13.271-5.725,1.031,2.389-12.485,5.386v13.141l2.364,1.083Z" transform="translate(-3543.369 -1518.403)" fill="#3d4451"/>
          <path id="Trazado_45009" data-name="Trazado 45009" d="M3612.484,1516.05l-.934-2.428,2.549-.98v-13.082l-12.485-5.386a1.3,1.3,0,0,1-.786-1.195v-12.62h2.6v11.764l12.485,5.386a1.3,1.3,0,0,1,.786,1.195v14.832a1.3,1.3,0,0,1-.834,1.214Z" transform="translate(-3587.557 -1480.358)" fill="#3d4451"/>
        </g>
      </g>
      <g id="Grupo_18682" data-name="Grupo 18682" transform="translate(3230.527 1455.538)">
        <g id="Grupo_18681" data-name="Grupo 18681" transform="translate(0 0)">
          <rect id="Rectángulo_3270" data-name="Rectángulo 3270" width="17.174" height="16.393" transform="translate(5.204 2.342)" fill="#fdc345"/>
          <path id="Trazado_45010" data-name="Trazado 45010" d="M3296.8,1685.546h-20.036V1665.51H3296.8Zm-17.954-2.082h15.872v-15.873H3278.85Z" transform="translate(-3276.768 -1665.51)" fill="#3d4451"/>
        </g>
        <rect id="Rectángulo_3271" data-name="Rectángulo 3271" width="17.954" height="1.561" transform="translate(1.041 3.643)" fill="#3d4451"/>
      </g>
      <path id="Trazado_45011" data-name="Trazado 45011" d="M3444.583,1593.719h-13.531a.911.911,0,0,1,0-1.822h13.531a.911.911,0,0,1,0,1.822Z" transform="translate(-164.192 -153.361)" fill="#3d4451"/>
      <path id="Trazado_45012" data-name="Trazado 45012" d="M3467.9,1617.378H3450.2a.911.911,0,0,1,0-1.821H3467.9a.911.911,0,1,1,0,1.821Z" transform="translate(-178.921 -171.556)" fill="#3d4451"/>
      <path id="Trazado_45013" data-name="Trazado 45013" d="M3420.7,1616.815h-2.6a.911.911,0,0,1,0-1.822h2.6a.911.911,0,0,1,0,1.822Z" transform="translate(-154.227 -171.122)" fill="#3d4451"/>
      <path id="Trazado_45014" data-name="Trazado 45014" d="M3324,1784.811h-94.021a11.288,11.288,0,0,1-11.275-11.276V1768.5a11.288,11.288,0,0,1,11.275-11.276H3324a11.288,11.288,0,0,1,11.275,11.276v5.031A11.288,11.288,0,0,1,3324,1784.811Zm-94.021-24.459a8.162,8.162,0,0,0-8.153,8.153v5.031a8.162,8.162,0,0,0,8.153,8.153H3324a8.162,8.162,0,0,0,8.153-8.153V1768.5a8.162,8.162,0,0,0-8.153-8.153Z" transform="translate(-1.589 -280.508)" fill="#3d4451"/>
      <circle id="Elipse_1466" data-name="Elipse 1466" cx="4.057" cy="4.057" r="4.057" transform="translate(3236.924 1492.601) rotate(-67.5)" fill="#3d4451"/>
      <circle id="Elipse_1467" data-name="Elipse 1467" cx="4.057" cy="4.057" r="4.057" transform="translate(3270.65 1487.389) rotate(-13.283)" fill="#3d4451"/>
      <circle id="Elipse_1468" data-name="Elipse 1468" cx="4.057" cy="4.057" r="4.057" transform="translate(3302.496 1492.601) rotate(-67.5)" fill="#3d4451"/>
    </g>
  </g>
</svg>
