<svg xmlns="http://www.w3.org/2000/svg" width="300" height="300" viewBox="0 0 300 300">
  <g id="Grupo_18770" data-name="Grupo 18770" transform="translate(-689.854 -395.88)">
    <g id="Grupo_18699" data-name="Grupo 18699" transform="translate(689.854 395.88)">
      <g id="Grupo_18698" data-name="Grupo 18698" transform="translate(0)">
        <g id="Grupo_18697" data-name="Grupo 18697">
          <g id="Grupo_18696" data-name="Grupo 18696">
            <g id="Grupo_18695" data-name="Grupo 18695">
              <g id="Grupo_18694" data-name="Grupo 18694">
                <g id="Grupo_18693" data-name="Grupo 18693">
                  <g id="Grupo_18692" data-name="Grupo 18692">
                    <g id="Grupo_18691" data-name="Grupo 18691">
                      <g id="Grupo_18690" data-name="Grupo 18690">
                        <g id="Grupo_18689" data-name="Grupo 18689">
                          <path id="Trazado_45024" data-name="Trazado 45024" d="M824.856,491.586a1.888,1.888,0,0,1-1.5-3.027,152.124,152.124,0,0,1,12.468-14.471,1.888,1.888,0,0,1,2.7,2.64,148.349,148.349,0,0,0-12.158,14.11A1.884,1.884,0,0,1,824.856,491.586Zm26.327-26.919a1.888,1.888,0,0,1-1.174-3.367,151.634,151.634,0,0,1,15.684-10.9,1.888,1.888,0,1,1,1.954,3.23,147.826,147.826,0,0,0-15.292,10.627A1.879,1.879,0,0,1,851.182,464.667Zm32.213-19.48a1.888,1.888,0,0,1-.765-3.614,149.838,149.838,0,0,1,17.923-6.6,1.888,1.888,0,1,1,1.075,3.619,146,146,0,0,0-17.47,6.431A1.879,1.879,0,0,1,883.395,445.187Zm36.081-10.715a1.888,1.888,0,0,1-.3-3.752,151.1,151.1,0,0,1,19.008-1.848,1.888,1.888,0,0,1,.127,3.773,147.228,147.228,0,0,0-18.531,1.8A1.922,1.922,0,0,1,919.476,434.472Z" transform="translate(-783.126 -418.998)" fill="#1c5a88"/>
                          <path id="Trazado_45025" data-name="Trazado 45025" d="M896.146,1275.786a1.887,1.887,0,0,1-.564-.087,149.9,149.9,0,0,1-17.833-6.854,1.888,1.888,0,1,1,1.577-3.43,146.047,146.047,0,0,0,17.383,6.681,1.888,1.888,0,0,1-.563,3.69Zm-34.214-15.722a1.877,1.877,0,0,1-1-.287,151.687,151.687,0,0,1-15.532-11.121,1.888,1.888,0,0,1,2.388-2.925,147.894,147.894,0,0,0,15.143,10.844,1.888,1.888,0,0,1-1,3.489Zm-29.168-23.808a1.882,1.882,0,0,1-1.368-.587,152.14,152.14,0,0,1-12.264-14.645,1.888,1.888,0,0,1,3.042-2.237,148.323,148.323,0,0,0,11.959,14.28,1.888,1.888,0,0,1-1.368,3.188Z" transform="translate(-780.18 -992.294)" fill="#1c5a88"/>
                          <path id="Trazado_45026" data-name="Trazado 45026" d="M1627.339,917.123a1.888,1.888,0,0,1-1.545-2.97,147.429,147.429,0,0,0,9.69-15.905,1.888,1.888,0,1,1,3.342,1.756,151.189,151.189,0,0,1-9.939,16.314A1.886,1.886,0,0,1,1627.339,917.123Zm17.506-33.335a1.889,1.889,0,0,1-1.769-2.546,145.8,145.8,0,0,0,5.358-17.835,1.888,1.888,0,0,1,3.678.852,149.48,149.48,0,0,1-5.5,18.3A1.888,1.888,0,0,1,1644.844,883.788Zm8.5-36.681c-.063,0-.127,0-.19-.009a1.888,1.888,0,0,1-1.69-2.067c.487-4.863.735-9.82.735-14.735,0-1.288-.017-2.595-.051-3.882a1.888,1.888,0,0,1,3.774-.1c.034,1.321.052,2.66.052,3.981,0,5.039-.253,10.124-.753,15.111A1.888,1.888,0,0,1,1653.349,847.107Zm-1-37.642a1.888,1.888,0,0,1-1.863-1.6,145.994,145.994,0,0,0-4.009-18.185,1.888,1.888,0,0,1,3.627-1.047,149.716,149.716,0,0,1,4.113,18.657,1.887,1.887,0,0,1-1.578,2.153A1.912,1.912,0,0,1,1652.354,809.465Z" transform="translate(-1365.768 -682.636)" fill="#1c5a88"/>
                          <g id="Grupo_18688" data-name="Grupo 18688">
                            <circle id="Elipse_1469" data-name="Elipse 1469" cx="106.066" cy="106.066" r="106.066" transform="translate(0 150) rotate(-45)" fill="#c9f0fb"/>
                          </g>
                        </g>
                      </g>
                    </g>
                  </g>
                </g>
              </g>
            </g>
          </g>
        </g>
      </g>
    </g>
    <g id="Grupo_18713" data-name="Grupo 18713" transform="translate(825.624 406.221)">
      <path id="Trazado_45027" data-name="Trazado 45027" d="M1504.019,672.8l2.852-15.053s2.239-7.8,11.027-6.139,7.125,10.113,7.125,10.113l-3.444,22.126a8.342,8.342,0,0,1-8.2,6.351H1494.7s-1.594-.38-2.016,2.265-3.016,18.856-3.016,18.856-.8,4.779-6.454,4.552-4.52-6.582-4.52-6.582l3.885-24.2s.348-7.024,10.443-5.713c0,0-1.325-6.4,3.743-6.447S1504.019,672.8,1504.019,672.8Z" transform="translate(-1398.639 -585.246)" fill="#fff"/>
      <path id="Trazado_45028" data-name="Trazado 45028" d="M1259.618,672.8l-2.852-15.053s-2.239-7.8-11.028-6.139-7.125,10.113-7.125,10.113l3.445,22.126a8.342,8.342,0,0,0,8.2,6.351h18.683s1.594-.38,2.016,2.265,3.016,18.856,3.016,18.856.8,4.779,6.453,4.552,4.52-6.582,4.52-6.582l-3.885-24.2s-.348-7.024-10.443-5.713c0,0,1.325-6.4-3.743-6.447S1259.618,672.8,1259.618,672.8Z" transform="translate(-1230.397 -585.246)" fill="#fff"/>
      <g id="Grupo_18700" data-name="Grupo 18700" transform="translate(60.166 85.126)">
        <path id="Trazado_45029" data-name="Trazado 45029" d="M1418.775,767.654V721.141h9.735v46.513" transform="translate(-1416.887 -719.253)" fill="#fcdf90"/>
        <path id="Trazado_45030" data-name="Trazado 45030" d="M1424.091,765.123a1.888,1.888,0,0,1-1.888-1.888V718.609h-5.96v44.626a1.888,1.888,0,1,1-3.775,0V716.722a1.888,1.888,0,0,1,1.887-1.888h9.736a1.888,1.888,0,0,1,1.887,1.888v46.513A1.888,1.888,0,0,1,1424.091,765.123Z" transform="translate(-1412.468 -714.834)" fill="#1c5a89"/>
      </g>
      <g id="Grupo_18701" data-name="Grupo 18701" transform="translate(41.165 77.554)">
        <path id="Trazado_45031" data-name="Trazado 45031" d="M1399.48,695.843h-40.4a3.786,3.786,0,0,0-3.786,3.786h0a3.786,3.786,0,0,0,3.786,3.786h40.4a3.786,3.786,0,0,0,3.786-3.786h0A3.786,3.786,0,0,0,1399.48,695.843Z" transform="translate(-1353.407 -693.956)" fill="#fcdf90"/>
        <path id="Trazado_45032" data-name="Trazado 45032" d="M1395.061,700.884h-40.4a5.673,5.673,0,0,1,0-11.347h40.4a5.673,5.673,0,1,1,0,11.347Zm-40.4-7.572a1.9,1.9,0,0,0,0,3.8h40.4a1.9,1.9,0,0,0,0-3.8Z" transform="translate(-1348.988 -689.537)" fill="#1c5a89"/>
      </g>
      <g id="Grupo_18704" data-name="Grupo 18704" transform="translate(0 37.068)">
        <g id="Grupo_18702" data-name="Grupo 18702" transform="translate(0 33.548)">
          <path id="Trazado_45033" data-name="Trazado 45033" d="M1217.786,676.22,1222,708.854a3.153,3.153,0,0,0,3.128,2.75h22.017a3.172,3.172,0,0,0,3.172-3.172v-.146a3.172,3.172,0,0,0-3.172-3.172h-11.211a8.469,8.469,0,0,1-8.37-7.181l-3.478-22.609a3.138,3.138,0,0,0-3.1-2.661h-.067A3.153,3.153,0,0,0,1217.786,676.22Z" transform="translate(-1215.872 -670.775)" fill="#ffa197"/>
          <path id="Trazado_45034" data-name="Trazado 45034" d="M1242.724,709.073h-22.017a5.053,5.053,0,0,1-5-4.4l-4.211-32.634h0a5.041,5.041,0,0,1,5-5.686h.067a5,5,0,0,1,4.967,4.261l3.478,22.609a6.546,6.546,0,0,0,6.5,5.581h11.211a5.065,5.065,0,0,1,5.06,5.06v.146A5.065,5.065,0,0,1,1242.724,709.073Zm-27.483-37.513,4.211,32.634a1.268,1.268,0,0,0,1.255,1.1h22.017a1.286,1.286,0,0,0,1.284-1.285v-.146a1.286,1.286,0,0,0-1.284-1.284h-11.211a10.3,10.3,0,0,1-10.236-8.782l-3.479-22.609a1.243,1.243,0,0,0-1.235-1.06h-.067a1.265,1.265,0,0,0-1.255,1.428Z" transform="translate(-1211.454 -666.356)" fill="#1c5a89"/>
        </g>
        <path id="Trazado_45035" data-name="Trazado 45035" d="M1269.8,824.542a1.888,1.888,0,0,1-1.888-1.888V801.96a1.888,1.888,0,0,1,3.775,0v20.694A1.888,1.888,0,0,1,1269.8,824.542Z" transform="translate(-1251.012 -726.502)" fill="#1c5a89"/>
        <path id="Trazado_45036" data-name="Trazado 45036" d="M1255.822,670.166a1.888,1.888,0,0,1-1.854-1.544l-2.608-14.07a7.161,7.161,0,0,0-7.04-5.856,8.185,8.185,0,0,0-6.244,2.8,6.366,6.366,0,0,0-1.4,5.366,1.887,1.887,0,1,1-3.716.664,10.166,10.166,0,0,1,2.22-8.453,12,12,0,0,1,9.139-4.157,10.936,10.936,0,0,1,10.752,8.943l2.608,14.07a1.89,1.89,0,0,1-1.858,2.232Z" transform="translate(-1226.404 -617.789)" fill="#1c5a89"/>
        <path id="Trazado_45037" data-name="Trazado 45037" d="M1330.625,779a7.376,7.376,0,0,1-7.315-6.238l-3.117-19.488a.053.053,0,0,0-.052-.044h-6.976a1.888,1.888,0,0,1,0-3.776h6.976a3.811,3.811,0,0,1,3.779,3.223l3.117,19.488a3.633,3.633,0,0,0,7.177-1.133l-3.818-24.5a4.84,4.84,0,0,0-4.806-4.116h-4.344a1.888,1.888,0,1,1,0-3.775h4.344a8.6,8.6,0,0,1,8.537,7.309l3.818,24.5a7.408,7.408,0,0,1-7.32,8.549Z" transform="translate(-1281.399 -683.454)" fill="#1c5a89"/>
        <path id="Trazado_45038" data-name="Trazado 45038" d="M1276.2,697.121h-14.493a6.674,6.674,0,0,1-6.52-5.33l-2.8-14.108a1.888,1.888,0,1,1,3.7-.735l2.8,14.1a2.884,2.884,0,0,0,2.819,2.3H1276.2a2.439,2.439,0,0,0,0-4.878h-11.9a1.888,1.888,0,0,1-1.848-1.5l-2.869-13.78a1.888,1.888,0,0,1,3.7-.77l2.556,12.277H1276.2a6.214,6.214,0,0,1,0,12.429Z" transform="translate(-1240.112 -636.001)" fill="#1c5a89"/>
        <g id="Grupo_18703" data-name="Grupo 18703" transform="translate(2.821)">
          <circle id="Elipse_1470" data-name="Elipse 1470" cx="9.735" cy="9.735" r="9.735" transform="translate(0 7.451) rotate(-22.5)" fill="#fff"/>
          <path id="Trazado_45039" data-name="Trazado 45039" d="M1236.166,581.184a11.623,11.623,0,1,1,11.623-11.623A11.636,11.636,0,0,1,1236.166,581.184Zm0-19.471a7.848,7.848,0,1,0,7.848,7.848A7.857,7.857,0,0,0,1236.166,561.713Z" transform="translate(-1223.446 -556.841)" fill="#1c5a89"/>
        </g>
      </g>
      <g id="Grupo_18707" data-name="Grupo 18707" transform="translate(78.165 38.077)">
        <g id="Grupo_18705" data-name="Grupo 18705" transform="translate(20.306 32.539)">
          <path id="Trazado_45040" data-name="Trazado 45040" d="M1579.279,676.22l-4.211,32.634a3.153,3.153,0,0,1-3.127,2.75h-22.017a3.172,3.172,0,0,1-3.172-3.172v-.146a3.172,3.172,0,0,1,3.172-3.172h11.211a8.469,8.469,0,0,0,8.371-7.181l3.478-22.609a3.138,3.138,0,0,1,3.1-2.661h.067A3.154,3.154,0,0,1,1579.279,676.22Z" transform="translate(-1544.863 -670.775)" fill="#ffa197"/>
          <path id="Trazado_45041" data-name="Trazado 45041" d="M1567.521,709.073H1545.5a5.066,5.066,0,0,1-5.06-5.06v-.146a5.066,5.066,0,0,1,5.06-5.06h11.211a6.546,6.546,0,0,0,6.505-5.581l3.478-22.609a5,5,0,0,1,4.967-4.261h.067a5.042,5.042,0,0,1,5,5.686h0l-4.211,32.634A5.054,5.054,0,0,1,1567.521,709.073Zm-22.017-6.49a1.286,1.286,0,0,0-1.285,1.284v.146a1.286,1.286,0,0,0,1.285,1.285h22.017a1.269,1.269,0,0,0,1.256-1.1l4.211-32.634h0a1.266,1.266,0,0,0-1.255-1.428h-.067a1.243,1.243,0,0,0-1.235,1.06l-3.478,22.609a10.3,10.3,0,0,1-10.237,8.782ZM1574.86,671.8h0Z" transform="translate(-1540.444 -666.356)" fill="#1c5a89"/>
        </g>
        <path id="Trazado_45042" data-name="Trazado 45042" d="M1594.639,824.542a1.888,1.888,0,0,1-1.888-1.888V801.96a1.888,1.888,0,0,1,3.775,0v20.694A1.888,1.888,0,0,1,1594.639,824.542Z" transform="translate(-1556.789 -727.51)" fill="#1c5a89"/>
        <path id="Trazado_45043" data-name="Trazado 45043" d="M1559.11,670.166a1.89,1.89,0,0,1-1.858-2.232l2.607-14.07a10.937,10.937,0,0,1,10.753-8.943,12,12,0,0,1,9.138,4.156,10.169,10.169,0,0,1,2.221,8.453,1.888,1.888,0,0,1-3.717-.664,6.367,6.367,0,0,0-1.4-5.366,8.185,8.185,0,0,0-6.244-2.8,7.162,7.162,0,0,0-7.041,5.856l-2.607,14.069A1.888,1.888,0,0,1,1559.11,670.166Z" transform="translate(-1531.893 -618.797)" fill="#1c5a89"/>
        <path id="Trazado_45044" data-name="Trazado 45044" d="M1480.012,779a7.408,7.408,0,0,1-7.32-8.549l3.818-24.5a8.6,8.6,0,0,1,8.537-7.309h4.344a1.888,1.888,0,1,1,0,3.775h-4.344a4.84,4.84,0,0,0-4.807,4.116l-3.818,24.5a3.633,3.633,0,0,0,7.178,1.133l3.117-19.488a3.811,3.811,0,0,1,3.779-3.223h6.976a1.888,1.888,0,0,1,0,3.776H1490.5a.052.052,0,0,0-.052.044l-3.117,19.488A7.377,7.377,0,0,1,1480.012,779Z" transform="translate(-1472.603 -684.462)" fill="#1c5a89"/>
        <path id="Trazado_45045" data-name="Trazado 45045" d="M1541.18,697.121h-14.493a6.214,6.214,0,0,1,0-12.429h10.363l2.556-12.277a1.888,1.888,0,0,1,3.7.77l-2.869,13.78a1.888,1.888,0,0,1-1.848,1.5h-11.9a2.439,2.439,0,0,0,0,4.878h14.493a2.887,2.887,0,0,0,2.82-2.306l2.8-14.093a1.888,1.888,0,1,1,3.7.735l-2.8,14.1A6.676,6.676,0,0,1,1541.18,697.121Z" transform="translate(-1506.144 -637.009)" fill="#1c5a89"/>
        <g id="Grupo_18706" data-name="Grupo 18706" transform="translate(29.383)">
          <circle id="Elipse_1471" data-name="Elipse 1471" cx="9.735" cy="9.735" r="9.735" transform="matrix(0.973, -0.23, 0.23, 0.973, 0, 4.473)" fill="#fff"/>
          <path id="Trazado_45046" data-name="Trazado 45046" d="M1582.69,581.184a11.623,11.623,0,1,1,11.623-11.623A11.636,11.636,0,0,1,1582.69,581.184Zm0-19.471a7.848,7.848,0,1,0,7.848,7.848A7.856,7.856,0,0,0,1582.69,561.713Z" transform="translate(-1570.978 -557.849)" fill="#1c5a89"/>
        </g>
      </g>
      <g id="Grupo_18710" data-name="Grupo 18710" transform="translate(29.479 0)">
        <g id="Grupo_18708" data-name="Grupo 18708" transform="translate(23.67 24.714)">
          <path id="Trazado_45047" data-name="Trazado 45047" d="M1395.331,528.936v15.236a9.462,9.462,0,0,0,9.462,9.462h27.667c.271,0,.538-.018.8-.041l9.108,10.979-.454-20.308c0-.031,0-.062,0-.093V528.766a9.462,9.462,0,0,0-9.462-9.462h-14.076" transform="translate(-1393.443 -517.417)" fill="#fff"/>
          <path id="Trazado_45048" data-name="Trazado 45048" d="M1437.952,562.042a1.887,1.887,0,0,1-1.453-.683L1427.99,551.1h-27.617a11.363,11.363,0,0,1-11.35-11.35V524.517a1.888,1.888,0,1,1,3.776,0v15.236a7.583,7.583,0,0,0,7.574,7.574h27.667c.214,0,.446-.017.644-.034a1.893,1.893,0,0,1,1.611.676l5.647,6.807-.333-14.888c0-.02,0-.04,0-.06q0-.063,0-.125V524.348a7.583,7.583,0,0,0-7.574-7.574h-14.076a1.888,1.888,0,1,1,0-3.775h14.076a11.362,11.362,0,0,1,11.35,11.35v15.406q0,.063,0,.125l.452,20.233a1.888,1.888,0,0,1-1.887,1.93Z" transform="translate(-1389.024 -512.998)" fill="#1c5a89"/>
        </g>
        <g id="Grupo_18709" data-name="Grupo 18709">
          <path id="Trazado_45049" data-name="Trazado 45049" d="M1316.251,482.34l.116-20.645c0-.031,0-.062,0-.093V446.2a9.462,9.462,0,0,1,9.462-9.462h27.667a9.462,9.462,0,0,1,9.462,9.462V461.6a9.462,9.462,0,0,1-9.462,9.462h-27.667c-.271,0-.538-.018-.8-.041Z" transform="translate(-1314.363 -434.847)" fill="#66c5ff"/>
          <path id="Trazado_45050" data-name="Trazado 45050" d="M1311.831,479.809a1.888,1.888,0,0,1-1.887-1.9l.116-20.587c0-.048,0-.093,0-.14V441.778a11.363,11.363,0,0,1,11.35-11.35h27.667a11.362,11.362,0,0,1,11.349,11.35v15.406a11.362,11.362,0,0,1-11.349,11.35H1321.5l-8.173,10.544A1.888,1.888,0,0,1,1311.831,479.809Zm2-22.675c0,.043,0,.084,0,.125l-.085,15.105,5.36-6.915a1.89,1.89,0,0,1,1.65-.725c.2.017.43.034.645.034h27.667a7.583,7.583,0,0,0,7.574-7.574V441.778a7.583,7.583,0,0,0-7.574-7.574h-27.667a7.583,7.583,0,0,0-7.574,7.574Z" transform="translate(-1309.944 -430.428)" fill="#1c5a89"/>
        </g>
      </g>
      <g id="Grupo_18711" data-name="Grupo 18711" transform="translate(39.768 11.202)">
        <path id="Trazado_45051" data-name="Trazado 45051" d="M1372.939,471.631h-26.732a1.888,1.888,0,1,1,0-3.776h26.732a1.888,1.888,0,0,1,0,3.776Z" transform="translate(-1344.319 -467.855)" fill="#1c5a89"/>
        <path id="Trazado_45052" data-name="Trazado 45052" d="M1372.939,491.9h-26.732a1.888,1.888,0,1,1,0-3.775h26.732a1.888,1.888,0,0,1,0,3.775Z" transform="translate(-1344.319 -482.058)" fill="#1c5a89"/>
        <path id="Trazado_45053" data-name="Trazado 45053" d="M1372.939,512.17h-26.732a1.888,1.888,0,1,1,0-3.775h26.732a1.888,1.888,0,0,1,0,3.775Z" transform="translate(-1344.319 -496.261)" fill="#1c5a89"/>
      </g>
      <g id="Grupo_18712" data-name="Grupo 18712" transform="translate(62.396 36.814)">
        <path id="Trazado_45054" data-name="Trazado 45054" d="M1481.951,557.2h-12.459a1.888,1.888,0,1,1,0-3.775h12.459a1.888,1.888,0,1,1,0,3.775Z" transform="translate(-1453.331 -553.424)" fill="#1c5a89"/>
        <path id="Trazado_45055" data-name="Trazado 45055" d="M1448.538,577.469h-26.732a1.888,1.888,0,0,1,0-3.776h26.732a1.888,1.888,0,0,1,0,3.776Z" transform="translate(-1419.918 -567.626)" fill="#1c5a89"/>
        <path id="Trazado_45056" data-name="Trazado 45056" d="M1448.538,597.738h-26.732a1.888,1.888,0,1,1,0-3.775h26.732a1.888,1.888,0,1,1,0,3.775Z" transform="translate(-1419.918 -581.829)" fill="#1c5a89"/>
      </g>
    </g>
    <g id="Grupo_18735" data-name="Grupo 18735" transform="translate(708.863 464.589)">
      <g id="Grupo_18730" data-name="Grupo 18730" transform="translate(0 10.887)">
        <g id="Grupo_18722" data-name="Grupo 18722" transform="translate(32.293)">
          <g id="Grupo_18715" data-name="Grupo 18715" transform="translate(21.698 30.836)">
            <g id="Grupo_18714" data-name="Grupo 18714">
              <path id="Trazado_45057" data-name="Trazado 45057" d="M965.739,839.627a6.542,6.542,0,0,1-2.366-.444l-17.118-6.63a6.364,6.364,0,0,1-4.054-5.237l-2.11-19.574a6.376,6.376,0,0,1,5.742-6.982,6.442,6.442,0,0,1,7.1,5.643l1.7,15.747,13.476,5.22a6.314,6.314,0,0,1,3.641,8.233A6.46,6.46,0,0,1,965.739,839.627Z" transform="translate(-938.165 -798.835)" fill="#66c5ff"/>
              <path id="Trazado_45058" data-name="Trazado 45058" d="M961.318,837.094a8.409,8.409,0,0,1-3.048-.571l-17.118-6.63a8.226,8.226,0,0,1-5.25-6.795l-2.11-19.574a8.113,8.113,0,0,1,1.776-6.008,8.379,8.379,0,0,1,14.822,4.264l1.575,14.6,12.4,4.8a8.235,8.235,0,0,1,4.62,4.419,8.086,8.086,0,0,1,.091,6.277A8.3,8.3,0,0,1,961.318,837.094Zm-19.219-38.9a4.69,4.69,0,0,0-.491.026,4.565,4.565,0,0,0-3.1,1.672,4.364,4.364,0,0,0-.958,3.23l2.11,19.573a4.464,4.464,0,0,0,2.859,3.679L959.634,833a4.648,4.648,0,0,0,1.684.316,4.543,4.543,0,0,0,4.257-2.838,4.336,4.336,0,0,0-.049-3.367,4.488,4.488,0,0,0-2.521-2.4l-13.476-5.22a1.887,1.887,0,0,1-1.2-1.558l-1.7-15.747A4.535,4.535,0,0,0,942.1,798.191Z" transform="translate(-933.745 -794.415)" fill="#1c5a89"/>
            </g>
          </g>
          <g id="Grupo_18716" data-name="Grupo 18716" transform="translate(11.54)">
            <ellipse id="Elipse_1472" data-name="Elipse 1472" cx="12.535" cy="12.323" rx="12.535" ry="12.323" transform="translate(1.888 1.888)" fill="#fff"/>
            <path id="Trazado_45059" data-name="Trazado 45059" d="M914.231,719.813A14.212,14.212,0,1,1,928.654,705.6,14.334,14.334,0,0,1,914.231,719.813Zm0-24.646A10.438,10.438,0,1,0,924.879,705.6,10.555,10.555,0,0,0,914.231,695.166Z" transform="translate(-899.808 -691.391)" fill="#1c5a89"/>
          </g>
          <g id="Grupo_18718" data-name="Grupo 18718" transform="translate(0 70.493)">
            <g id="Grupo_18717" data-name="Grupo 18717">
              <path id="Trazado_45060" data-name="Trazado 45060" d="M874.4,989.974a6.9,6.9,0,0,1-3.474-.937,6.658,6.658,0,0,1-2.405-9.207c4.339-7.213,9.141-15.389,10.775-18.431l-.856-21.193a6.839,6.839,0,0,1,13.665-.533l.939,23.273-.048.47c-.176,1.715-.265,2.576-12.7,23.256A6.859,6.859,0,0,1,874.4,989.974Z" transform="translate(-865.678 -931.329)" fill="#66c5ff"/>
              <path id="Trazado_45061" data-name="Trazado 45061" d="M869.976,987.442a8.811,8.811,0,0,1-4.422-1.193,8.56,8.56,0,0,1-4.029-5.3,8.456,8.456,0,0,1,.955-6.508c3.874-6.44,8.6-14.458,10.485-17.9l-.835-20.674a8.491,8.491,0,0,1,2.269-6.142,8.755,8.755,0,0,1,15.168,5.456l.939,23.273a1.918,1.918,0,0,1-.008.269l-.048.47c-.217,2.117-.307,2.994-12.963,24.037A8.794,8.794,0,0,1,869.976,987.442Zm10.875-56.757c-.067,0-.134,0-.2,0a4.96,4.96,0,0,0-3.478,1.592,4.74,4.74,0,0,0-1.27,3.428l.856,21.193a1.886,1.886,0,0,1-.223.969c-1.717,3.2-6.743,11.732-10.82,18.511a4.707,4.707,0,0,0-.533,3.623,4.814,4.814,0,0,0,2.27,2.978,5.02,5.02,0,0,0,6.8-1.706c11.678-19.416,12.3-21.06,12.443-22.476l.034-.336-.934-23.138A4.9,4.9,0,0,0,880.851,930.685Z" transform="translate(-861.254 -926.909)" fill="#1c5a89"/>
            </g>
          </g>
          <g id="Grupo_18719" data-name="Grupo 18719" transform="translate(0.335 26.988)">
            <path id="Trazado_45062" data-name="Trazado 45062" d="M912.386,880.44l-3.555-20.759a28.644,28.644,0,0,0-2.364-7.88l-.174-.374-6.384-10.214a14,14,0,0,0,3.711-9.1l.828-29.673a14.3,14.3,0,0,0-14.034-14.574c-.136,0-.269-.005-.4-.005a14.5,14.5,0,0,0-10.524,4.509l-.009-.013-.028.051c-1.719,1.82-9.952,18.629-9.952,18.629a6.26,6.26,0,0,0,.416,6.847l5.028,6.946-.181,6.5a14.244,14.244,0,0,0,11.891,14.342l7.533,12.052a15.355,15.355,0,0,1,1.122,3.936l3.595,21a6.807,6.807,0,0,0,6.734,5.607,6.946,6.946,0,0,0,1.143-.095A6.734,6.734,0,0,0,912.386,880.44Z" transform="translate(-866.787 -785.978)" fill="#66c5ff"/>
            <path id="Trazado_45063" data-name="Trazado 45063" d="M901.221,885.748a8.665,8.665,0,0,1-8.6-7.176l-3.594-21c0-.016-.005-.032-.008-.048a13.472,13.472,0,0,0-.931-3.328l-7.027-11.241a16.214,16.214,0,0,1-12.607-16.083l.163-5.865-4.652-6.427a8.155,8.155,0,0,1-.558-8.835c1.931-3.941,8.1-16.4,10.081-18.848a1.883,1.883,0,0,1,.393-.427,16.492,16.492,0,0,1,11.71-4.908c.151,0,.3,0,.454.006a16.33,16.33,0,0,1,11.4,5.008,15.84,15.84,0,0,1,4.474,11.506l-.828,29.673a15.907,15.907,0,0,1-3.272,9.2l5.659,9.054a1.967,1.967,0,0,1,.11.2l.174.374a30.539,30.539,0,0,1,2.517,8.38l3.551,20.739h0a8.468,8.468,0,0,1-1.463,6.383,8.675,8.675,0,0,1-5.7,3.542A8.855,8.855,0,0,1,901.221,885.748Zm-8.464-28.794,3.591,20.981a4.9,4.9,0,0,0,4.874,4.038,5.121,5.121,0,0,0,.834-.069,4.928,4.928,0,0,0,3.239-2.007,4.72,4.72,0,0,0,.817-3.556l-3.555-20.759-.007-.042a26.755,26.755,0,0,0-2.208-7.361l-.125-.268-6.323-10.116a1.888,1.888,0,0,1,.209-2.276,12.169,12.169,0,0,0,3.215-7.872l.828-29.673a12.091,12.091,0,0,0-3.42-8.782,12.575,12.575,0,0,0-8.778-3.852c-.119,0-.235,0-.353,0a12.529,12.529,0,0,0-9.157,3.923l-.014.015-.017.018c-.979,1.062-5.664,10.069-9.629,18.162q-.026.053-.055.105a4.387,4.387,0,0,0,.292,4.787l5.041,6.964a1.888,1.888,0,0,1,.358,1.16l-.181,6.5a12.426,12.426,0,0,0,10.329,12.43,1.887,1.887,0,0,1,1.276.859l7.533,12.052a1.879,1.879,0,0,1,.13.246A17.245,17.245,0,0,1,892.756,856.954Z" transform="translate(-862.372 -781.559)" fill="#1c5a89"/>
          </g>
          <g id="Grupo_18721" data-name="Grupo 18721" transform="translate(1.574 44.323)">
            <g id="Grupo_18720" data-name="Grupo 18720">
              <path id="Trazado_45064" data-name="Trazado 45064" d="M890.166,845.782l-4.628,8.623L897.015,870a6.278,6.278,0,0,1-1.411,8.87,6.531,6.531,0,0,1-9.022-1.386L872.82,858.47" transform="translate(-870.932 -843.894)" fill="#66c5ff"/>
              <path id="Trazado_45065" data-name="Trazado 45065" d="M887.384,877.556a8.415,8.415,0,0,1-6.738-3.37l-13.775-19.03a1.888,1.888,0,0,1,3.058-2.214l13.762,19.011a4.644,4.644,0,0,0,6.393.96,4.414,4.414,0,0,0,1.812-2.922,4.352,4.352,0,0,0-.817-3.289L879.6,851.1a1.889,1.889,0,0,1-.143-2.012l4.628-8.623a1.888,1.888,0,0,1,3.327,1.785l-4.063,7.572,10.769,14.633a8.165,8.165,0,0,1-1.83,11.523A8.357,8.357,0,0,1,887.384,877.556Z" transform="translate(-866.512 -839.474)" fill="#1c5a89"/>
            </g>
          </g>
        </g>
        <g id="Grupo_18729" data-name="Grupo 18729">
          <g id="Grupo_18723" data-name="Grupo 18723" transform="translate(11.54)">
            <ellipse id="Elipse_1473" data-name="Elipse 1473" cx="12.535" cy="12.323" rx="12.535" ry="12.323" transform="translate(1.888 1.888)" fill="#fff"/>
            <path id="Trazado_45066" data-name="Trazado 45066" d="M806.341,719.813A14.212,14.212,0,1,1,820.764,705.6,14.334,14.334,0,0,1,806.341,719.813Zm0-24.646A10.438,10.438,0,1,0,816.989,705.6,10.555,10.555,0,0,0,806.341,695.166Z" transform="translate(-791.918 -691.391)" fill="#1c5a89"/>
          </g>
          <g id="Grupo_18725" data-name="Grupo 18725" transform="translate(0 70.494)">
            <g id="Grupo_18724" data-name="Grupo 18724">
              <path id="Trazado_45067" data-name="Trazado 45067" d="M766.51,989.974a6.9,6.9,0,0,1-3.474-.937,6.659,6.659,0,0,1-2.405-9.207c4.339-7.213,9.141-15.389,10.775-18.431l-.856-21.193a6.838,6.838,0,0,1,13.664-.533l.939,23.273-.048.47c-.176,1.715-.265,2.576-12.7,23.256A6.858,6.858,0,0,1,766.51,989.974Z" transform="translate(-757.788 -931.33)" fill="#fcdf90"/>
              <path id="Trazado_45068" data-name="Trazado 45068" d="M762.085,987.443a8.811,8.811,0,0,1-4.422-1.193,8.56,8.56,0,0,1-4.029-5.3,8.455,8.455,0,0,1,.955-6.508c3.873-6.44,8.6-14.458,10.486-17.9l-.835-20.674a8.49,8.49,0,0,1,2.269-6.142,8.755,8.755,0,0,1,15.168,5.456l.939,23.273a1.864,1.864,0,0,1-.008.269l-.048.47c-.217,2.117-.307,2.994-12.963,24.037A8.794,8.794,0,0,1,762.085,987.443Zm10.875-56.757c-.067,0-.134,0-.2,0a4.96,4.96,0,0,0-3.478,1.592,4.742,4.742,0,0,0-1.271,3.428l.856,21.193a1.889,1.889,0,0,1-.223.969c-1.717,3.2-6.743,11.732-10.82,18.511a4.707,4.707,0,0,0-.533,3.623,4.813,4.813,0,0,0,2.27,2.978,5.02,5.02,0,0,0,6.8-1.706c11.678-19.416,12.3-21.06,12.443-22.476l.035-.336L777.9,935.33A4.9,4.9,0,0,0,772.961,930.687Z" transform="translate(-753.363 -926.911)" fill="#1c5a89"/>
            </g>
          </g>
          <g id="Grupo_18726" data-name="Grupo 18726" transform="translate(0.335 26.988)">
            <path id="Trazado_45069" data-name="Trazado 45069" d="M804.5,880.44l-3.554-20.759a28.642,28.642,0,0,0-2.364-7.88l-.174-.374-6.385-10.214a13.992,13.992,0,0,0,3.711-9.1l.828-29.673a14.3,14.3,0,0,0-14.034-14.574c-.136,0-.269-.005-.4-.005a14.5,14.5,0,0,0-10.525,4.509l-.009-.013-.028.051c-1.72,1.82-9.952,18.629-9.952,18.629a6.26,6.26,0,0,0,.416,6.847l5.028,6.946-.181,6.5a14.244,14.244,0,0,0,11.891,14.342l7.533,12.052a15.355,15.355,0,0,1,1.122,3.936l3.594,21a6.807,6.807,0,0,0,6.734,5.607,6.948,6.948,0,0,0,1.143-.095A6.734,6.734,0,0,0,804.5,880.44Z" transform="translate(-758.897 -785.978)" fill="#fcdf90"/>
            <path id="Trazado_45070" data-name="Trazado 45070" d="M793.331,885.748a8.665,8.665,0,0,1-8.6-7.176l-3.594-21c0-.016-.005-.031-.008-.047a13.5,13.5,0,0,0-.931-3.328l-7.027-11.241a16.214,16.214,0,0,1-12.608-16.083l.164-5.865-4.652-6.427a8.156,8.156,0,0,1-.558-8.835c1.931-3.941,8.1-16.4,10.08-18.848a1.883,1.883,0,0,1,.394-.428,16.493,16.493,0,0,1,11.709-4.907c.151,0,.3,0,.454.006a16.329,16.329,0,0,1,11.4,5.008,15.839,15.839,0,0,1,4.474,11.506l-.828,29.673a15.908,15.908,0,0,1-3.271,9.2l5.659,9.054a1.967,1.967,0,0,1,.11.2l.174.374a30.534,30.534,0,0,1,2.517,8.379l3.551,20.739a8.467,8.467,0,0,1-1.463,6.383,8.675,8.675,0,0,1-5.7,3.542A8.862,8.862,0,0,1,793.331,885.748Zm-8.464-28.794,3.591,20.981a4.9,4.9,0,0,0,4.874,4.038,5.121,5.121,0,0,0,.834-.069A4.927,4.927,0,0,0,797.4,879.9a4.718,4.718,0,0,0,.818-3.556h0l-3.555-20.759-.007-.042a26.759,26.759,0,0,0-2.208-7.361l-.125-.268L786,837.795a1.888,1.888,0,0,1,.209-2.276,12.171,12.171,0,0,0,3.215-7.872l.828-29.673a12.092,12.092,0,0,0-3.419-8.782,12.575,12.575,0,0,0-8.778-3.852c-.119,0-.236,0-.353,0a12.529,12.529,0,0,0-9.157,3.923l-.017.018-.014.015c-.979,1.062-5.664,10.069-9.629,18.162-.017.036-.036.071-.055.105a4.387,4.387,0,0,0,.292,4.787l5.041,6.964a1.889,1.889,0,0,1,.358,1.159l-.181,6.5a12.426,12.426,0,0,0,10.329,12.43,1.887,1.887,0,0,1,1.276.859l7.533,12.052a1.9,1.9,0,0,1,.13.246A17.278,17.278,0,0,1,784.866,856.954Z" transform="translate(-754.482 -781.559)" fill="#1c5a89"/>
          </g>
          <g id="Grupo_18728" data-name="Grupo 18728" transform="translate(1.574 44.323)">
            <g id="Grupo_18727" data-name="Grupo 18727">
              <path id="Trazado_45071" data-name="Trazado 45071" d="M782.275,845.782l-4.628,8.623,8.923,18.1a6.278,6.278,0,0,1-1.41,8.87,6.531,6.531,0,0,1-9.022-1.386L764.929,858.47" transform="translate(-763.041 -843.894)" fill="#fcdf90"/>
              <path id="Trazado_45072" data-name="Trazado 45072" d="M776.939,880.066A8.415,8.415,0,0,1,770.2,876.7a1.878,1.878,0,0,1-.159-.253l-11.208-21.522a1.888,1.888,0,1,1,3.349-1.744l11.133,21.377a4.645,4.645,0,0,0,6.323.869,4.414,4.414,0,0,0,1.813-2.922,4.352,4.352,0,0,0-.817-3.289,1.9,1.9,0,0,1-.177-.291l-8.923-18.1a1.888,1.888,0,0,1,.03-1.727l4.628-8.623a1.888,1.888,0,0,1,3.327,1.785l-4.168,7.767,8.423,17.089a8.166,8.166,0,0,1-1.933,11.382A8.356,8.356,0,0,1,776.939,880.066Z" transform="translate(-758.621 -839.474)" fill="#1c5a89"/>
            </g>
          </g>
        </g>
      </g>
      <g id="Grupo_18732" data-name="Grupo 18732" transform="translate(74.77 1.887)">
        <g id="Grupo_18731" data-name="Grupo 18731">
          <path id="Trazado_45073" data-name="Trazado 45073" d="M1043.793,675.078c0-7.6-9.094-13.754-20.312-13.754s-20.312,6.158-20.312,13.754c0,5.53,4.97,10.609,11.935,12.823a1.75,1.75,0,0,1,1.253,1.278l.383,4.723a.348.348,0,0,0,.558.184c.9-.691,3.051-2.265,7.005-4.725a3.493,3.493,0,0,1,1.559-.629C1035.957,687.935,1043.793,682.128,1043.793,675.078Z" transform="translate(-1003.168 -661.324)" fill="#fff"/>
        </g>
      </g>
      <g id="Grupo_18734" data-name="Grupo 18734" transform="translate(72.882 0)">
        <g id="Grupo_18733" data-name="Grupo 18733">
          <path id="Trazado_45074" data-name="Trazado 45074" d="M1012.655,691.631a2.282,2.282,0,0,1-.925-.2,2.164,2.164,0,0,1-1.291-1.8l-.354-4.363c-7.911-2.525-13.224-8.4-13.224-14.614,0-4.319,2.407-8.328,6.779-11.288a29.493,29.493,0,0,1,30.843,0c4.372,2.96,6.779,6.969,6.779,11.288,0,7.971-8.456,14.651-19.67,15.538a2.446,2.446,0,0,0-.711.349c-3.856,2.4-5.947,3.923-6.851,4.618A2.251,2.251,0,0,1,1012.655,691.631Zm6.406-32.838a23.922,23.922,0,0,0-13.3,3.7c-3.3,2.236-5.12,5.134-5.12,8.162,0,4.575,4.267,9,10.619,11.025a3.634,3.634,0,0,1,2.536,2.726,1.845,1.845,0,0,1,.027.2l.157,1.937c1.192-.824,2.8-1.892,4.911-3.2a5.235,5.235,0,0,1,2.407-.907c9.08-.718,16.193-5.89,16.193-11.774,0-3.028-1.818-5.926-5.12-8.162A23.921,23.921,0,0,0,1019.061,658.793Zm-8.883,26.518Z" transform="translate(-996.861 -655.018)" fill="#1c5a89"/>
        </g>
      </g>
    </g>
    <g id="Grupo_18769" data-name="Grupo 18769" transform="translate(810.481 539.633)">
      <g id="Grupo_18736" data-name="Grupo 18736" transform="translate(85.422 64.202)">
        <path id="Trazado_45075" data-name="Trazado 45075" d="M1446.518,1164.959l-5.844,3.834h-10.085l1.577,6.187h8.63a5.494,5.494,0,0,0,2.52-.613l3.361-1.734" transform="translate(-1428.701 -1163.071)" fill="#fff"/>
        <path id="Trazado_45076" data-name="Trazado 45076" d="M1436.376,1172.448h-8.629a1.888,1.888,0,0,1-1.829-1.422l-1.577-6.188a1.887,1.887,0,0,1,1.829-2.354h9.521l5.373-3.524a1.888,1.888,0,1,1,2.071,3.156l-5.844,3.834a1.886,1.886,0,0,1-1.035.309H1428.6l.615,2.412h7.162a3.628,3.628,0,0,0,1.655-.4l3.361-1.734a1.888,1.888,0,1,1,1.73,3.355l-3.361,1.734A7.417,7.417,0,0,1,1436.376,1172.448Z" transform="translate(-1424.282 -1158.651)" fill="#1c5a89"/>
      </g>
      <g id="Grupo_18745" data-name="Grupo 18745" transform="translate(31.621 10.543)">
        <g id="Grupo_18737" data-name="Grupo 18737" transform="translate(0 26.416)">
          <path id="Trazado_45077" data-name="Trazado 45077" d="M1267.1,1157.628V1089.7l-.039.166-7.1,27.974a4.649,4.649,0,0,1-4.484,3.567h0a4.71,4.71,0,0,1-4.517-5.766l7.287-33.5a10.3,10.3,0,0,1,10-8.2h21.931a10.287,10.287,0,0,1,9.926,7.9l8.051,32.485a4.713,4.713,0,0,1-4.486,5.9h-.728a4.647,4.647,0,0,1-4.469-3.505l-7.109-27.027-.165-.4v68.058" transform="translate(-1248.952 -1072.052)" fill="#fff"/>
          <path id="Trazado_45078" data-name="Trazado 45078" d="M1262.677,1155.1a1.887,1.887,0,0,1-1.887-1.888v-52.815l-3.426,13.491a6.528,6.528,0,0,1-6.314,4.99,6.451,6.451,0,0,1-5.04-2.425,6.671,6.671,0,0,1-1.322-5.63l7.286-33.5a12.112,12.112,0,0,1,11.84-9.69h21.931a12.162,12.162,0,0,1,11.758,9.338l8.051,32.486a6.66,6.66,0,0,1-1.219,5.744,6.442,6.442,0,0,1-5.1,2.5h-.729a6.543,6.543,0,0,1-6.294-4.913l-3.56-13.535v53.688a1.888,1.888,0,0,1-3.775,0v-68.058a1.888,1.888,0,0,1,3.632-.721l.164.4a1.865,1.865,0,0,1,.081.241l7.109,27.027a2.766,2.766,0,0,0,2.643,2.1h.729a2.689,2.689,0,0,0,2.125-1.051,2.908,2.908,0,0,0,.529-2.509l-8.051-32.485a8.4,8.4,0,0,0-8.094-6.47h-21.931a8.361,8.361,0,0,0-8.151,6.717l-7.286,33.5a2.911,2.911,0,0,0,.573,2.459,2.693,2.693,0,0,0,2.1,1.019,2.763,2.763,0,0,0,2.653-2.135l7.138-28.123a1.888,1.888,0,0,1,3.723.44v67.929A1.888,1.888,0,0,1,1262.677,1155.1Z" transform="translate(-1244.532 -1067.633)" fill="#1c5a89"/>
        </g>
        <g id="Grupo_18738" data-name="Grupo 18738" transform="translate(17.595)">
          <ellipse id="Elipse_1474" data-name="Elipse 1474" cx="9.368" cy="9.588" rx="9.368" ry="9.588" transform="translate(1.888 1.888)" fill="#fff"/>
          <path id="Trazado_45079" data-name="Trazado 45079" d="M1314.574,1002.328a11.478,11.478,0,1,1,11.255-11.476A11.381,11.381,0,0,1,1314.574,1002.328Zm0-19.177a7.7,7.7,0,1,0,7.48,7.7A7.6,7.6,0,0,0,1314.574,983.151Z" transform="translate(-1303.318 -979.376)" fill="#1c5a89"/>
        </g>
        <g id="Grupo_18739" data-name="Grupo 18739" transform="translate(28.302 71.482)">
          <path id="Trazado_45080" data-name="Trazado 45080" d="M1345.394,1224.5v40.024a6.424,6.424,0,0,0,.369,2.153" transform="translate(-1343.507 -1222.617)" fill="#fff"/>
          <path id="Trazado_45081" data-name="Trazado 45081" d="M1341.344,1264.151a1.888,1.888,0,0,1-1.779-1.257,8.293,8.293,0,0,1-.477-2.784v-40.024a1.888,1.888,0,0,1,3.775,0v40.024a4.539,4.539,0,0,0,.26,1.522,1.89,1.89,0,0,1-1.779,2.52Z" transform="translate(-1339.088 -1218.198)" fill="#1c5a89"/>
        </g>
        <g id="Grupo_18740" data-name="Grupo 18740" transform="translate(1.502 64.487)">
          <line id="Línea_11" data-name="Línea 11" x2="8.031" y2="2.349" transform="translate(1.888 1.888)" fill="#fff"/>
          <path id="Trazado_45082" data-name="Trazado 45082" d="M1259.469,1200.951a1.884,1.884,0,0,1-.531-.076l-8.031-2.349a1.888,1.888,0,1,1,1.06-3.624l8.031,2.348a1.888,1.888,0,0,1-.529,3.7Z" transform="translate(-1249.549 -1194.826)" fill="#1c5a89"/>
        </g>
        <g id="Grupo_18741" data-name="Grupo 18741" transform="translate(47.394 64.487)">
          <line id="Línea_12" data-name="Línea 12" x1="8.031" y2="2.349" transform="translate(1.888 1.888)" fill="#fff"/>
          <path id="Trazado_45083" data-name="Trazado 45083" d="M1404.761,1200.952a1.888,1.888,0,0,1-.529-3.7l8.031-2.348a1.888,1.888,0,1,1,1.06,3.623l-8.031,2.349A1.888,1.888,0,0,1,1404.761,1200.952Z" transform="translate(-1402.874 -1194.827)" fill="#1c5a89"/>
        </g>
        <g id="Grupo_18742" data-name="Grupo 18742" transform="translate(16.664 59.618)">
          <line id="Línea_13" data-name="Línea 13" x2="23.681" transform="translate(1.888 1.888)" fill="#fff"/>
          <path id="Trazado_45084" data-name="Trazado 45084" d="M1325.777,1182.336H1302.1a1.888,1.888,0,1,1,0-3.775h23.682a1.888,1.888,0,0,1,0,3.775Z" transform="translate(-1300.208 -1178.561)" fill="#1c5a89"/>
        </g>
        <g id="Grupo_18743" data-name="Grupo 18743" transform="translate(28.302 108.407)">
          <path id="Trazado_45085" data-name="Trazado 45085" d="M1352.755,1347.869h0a7.36,7.36,0,0,1,7.36,7.36v2.228h-14.721v-2.228A7.36,7.36,0,0,1,1352.755,1347.869Z" transform="translate(-1343.507 -1345.982)" fill="#ffa197"/>
          <path id="Trazado_45086" data-name="Trazado 45086" d="M1355.7,1354.926h-14.72a1.888,1.888,0,0,1-1.888-1.888v-2.228a9.248,9.248,0,0,1,18.5,0v2.228A1.887,1.887,0,0,1,1355.7,1354.926Zm-12.833-3.775h10.946v-.34a5.473,5.473,0,0,0-10.946,0Z" transform="translate(-1339.088 -1341.563)" fill="#1c5a89"/>
        </g>
        <g id="Grupo_18744" data-name="Grupo 18744" transform="translate(13.581 108.407)">
          <path id="Trazado_45087" data-name="Trazado 45087" d="M1303.572,1347.869h0a7.36,7.36,0,0,1,7.36,7.36v2.228h-14.721v-2.228A7.36,7.36,0,0,1,1303.572,1347.869Z" transform="translate(-1294.324 -1345.982)" fill="#ffa197"/>
          <path id="Trazado_45088" data-name="Trazado 45088" d="M1306.514,1354.926h-14.721a1.888,1.888,0,0,1-1.888-1.888v-2.228a9.248,9.248,0,0,1,18.5,0v2.228A1.887,1.887,0,0,1,1306.514,1354.926Zm-12.833-3.775h10.946v-.34a5.473,5.473,0,0,0-10.946,0Z" transform="translate(-1289.905 -1341.563)" fill="#1c5a89"/>
        </g>
      </g>
      <g id="Grupo_18752" data-name="Grupo 18752" transform="translate(0 9.394)">
        <g id="Grupo_18746" data-name="Grupo 18746" transform="translate(0 60.766)">
          <path id="Trazado_45089" data-name="Trazado 45089" d="M1166.031,1185.952v47.368l-20.836.325v-48.781" transform="translate(-1143.307 -1182.976)" fill="#fff"/>
          <path id="Trazado_45090" data-name="Trazado 45090" d="M1140.775,1231.113a1.887,1.887,0,0,1-1.887-1.887v-48.781a1.888,1.888,0,1,1,3.775,0v46.863l17.061-.266v-45.509a1.888,1.888,0,1,1,3.776,0V1228.9a1.888,1.888,0,0,1-1.858,1.887l-20.836.325Z" transform="translate(-1138.888 -1178.557)" fill="#1c5a89"/>
        </g>
        <g id="Grupo_18747" data-name="Grupo 18747" transform="translate(0 25.522)">
          <path id="Trazado_45091" data-name="Trazado 45091" d="M1166.03,1098.14v-21.429a9.488,9.488,0,0,0-9.376-9.6h-2.083a9.489,9.489,0,0,0-9.377,9.6v25.818h11.324" transform="translate(-1143.307 -1065.226)" fill="#66c5ff"/>
          <path id="Trazado_45092" data-name="Trazado 45092" d="M1152.1,1100h-11.324a1.888,1.888,0,0,1-1.887-1.887v-25.818a11.389,11.389,0,0,1,11.264-11.485h2.083a11.389,11.389,0,0,1,11.264,11.485v21.429a1.888,1.888,0,0,1-3.776,0v-21.429a7.61,7.61,0,0,0-7.489-7.709h-2.083a7.61,7.61,0,0,0-7.489,7.709v23.931h9.436a1.888,1.888,0,0,1,0,3.775Z" transform="translate(-1138.888 -1060.807)" fill="#1c5a89"/>
        </g>
        <g id="Grupo_18748" data-name="Grupo 18748" transform="translate(14.586 75.337)">
          <line id="Línea_14" data-name="Línea 14" y1="34.21" transform="translate(1.888 1.888)" fill="#fff"/>
          <path id="Trazado_45093" data-name="Trazado 45093" d="M1189.505,1265.223a1.887,1.887,0,0,1-1.887-1.887v-34.21a1.888,1.888,0,1,1,3.775,0v34.21A1.888,1.888,0,0,1,1189.505,1265.223Z" transform="translate(-1187.618 -1227.238)" fill="#1c5a89"/>
        </g>
        <g id="Grupo_18749" data-name="Grupo 18749" transform="translate(15.627 109.547)">
          <path id="Trazado_45094" data-name="Trazado 45094" d="M1197.405,1347.84h4.48a7.064,7.064,0,0,1,6.98,7.145v2.453h-6.251" transform="translate(-1195.517 -1345.952)" fill="#66c5ff"/>
          <path id="Trazado_45095" data-name="Trazado 45095" d="M1204.446,1354.905h-6.251a1.888,1.888,0,1,1,0-3.775h4.363v-.565a5.183,5.183,0,0,0-5.093-5.257h-4.48a1.888,1.888,0,1,1,0-3.775h4.48a8.961,8.961,0,0,1,8.868,9.032v2.452A1.887,1.887,0,0,1,1204.446,1354.905Z" transform="translate(-1191.098 -1341.533)" fill="#1c5a89"/>
        </g>
        <g id="Grupo_18750" data-name="Grupo 18750" transform="translate(1.653)">
          <ellipse id="Elipse_1475" data-name="Elipse 1475" cx="9.368" cy="9.588" rx="9.368" ry="9.588" transform="translate(1.888 1.888)" fill="#fff"/>
          <path id="Trazado_45096" data-name="Trazado 45096" d="M1155.666,998.49a11.478,11.478,0,1,1,11.256-11.476A11.38,11.38,0,0,1,1155.666,998.49Zm0-19.177a7.7,7.7,0,1,0,7.48,7.7A7.6,7.6,0,0,0,1155.666,979.313Z" transform="translate(-1144.411 -975.538)" fill="#1c5a89"/>
        </g>
        <g id="Grupo_18751" data-name="Grupo 18751" transform="translate(0 109.547)">
          <path id="Trazado_45097" data-name="Trazado 45097" d="M1166.03,1357.437h-17.372a3.464,3.464,0,0,1-3.464-3.464v-6.133h11.24a9.6,9.6,0,0,1,9.6,9.6Z" transform="translate(-1143.307 -1345.952)" fill="#66c5ff"/>
          <path id="Trazado_45098" data-name="Trazado 45098" d="M1161.612,1354.905h-17.372a5.357,5.357,0,0,1-5.351-5.351v-6.133a1.887,1.887,0,0,1,1.887-1.888h11.24a11.5,11.5,0,0,1,11.485,11.485A1.888,1.888,0,0,1,1161.612,1354.905Zm-18.948-9.6v4.246a1.578,1.578,0,0,0,1.576,1.576h15.251a7.723,7.723,0,0,0-7.475-5.822Z" transform="translate(-1138.888 -1341.533)" fill="#1c5a89"/>
        </g>
      </g>
      <g id="Grupo_18762" data-name="Grupo 18762" transform="translate(93.636 36.753)">
        <g id="Grupo_18753" data-name="Grupo 18753" transform="translate(7.868 47.842)">
          <path id="Trazado_45099" data-name="Trazado 45099" d="M1484.318,1236.1v33.706H1500v-36.719" transform="translate(-1482.43 -1231.204)" fill="#fff"/>
          <path id="Trazado_45100" data-name="Trazado 45100" d="M1495.583,1267.279H1479.9a1.887,1.887,0,0,1-1.887-1.887v-33.706a1.888,1.888,0,0,1,3.775,0V1263.5h11.909v-34.831a1.888,1.888,0,1,1,3.775,0v36.719A1.887,1.887,0,0,1,1495.583,1267.279Z" transform="translate(-1478.011 -1226.785)" fill="#1c5a89"/>
        </g>
        <g id="Grupo_18754" data-name="Grupo 18754" transform="translate(7.868 21.313)">
          <path id="Trazado_45101" data-name="Trazado 45101" d="M1484.318,1166.515v-14.833a7.142,7.142,0,0,1,7.058-7.224h1.568a7.142,7.142,0,0,1,7.058,7.224v19.434h-7.153" transform="translate(-1482.43 -1142.571)" fill="#fcdf90"/>
          <path id="Trazado_45102" data-name="Trazado 45102" d="M1495.583,1168.585h-7.153a1.888,1.888,0,0,1,0-3.775h5.265v-17.547a5.261,5.261,0,0,0-5.17-5.336h-1.569a5.261,5.261,0,0,0-5.17,5.336V1162.1a1.888,1.888,0,1,1-3.775,0v-14.833a9.04,9.04,0,0,1,8.945-9.111h1.569a9.04,9.04,0,0,1,8.945,9.111V1166.7A1.887,1.887,0,0,1,1495.583,1168.585Z" transform="translate(-1478.011 -1138.152)" fill="#1c5a89"/>
        </g>
        <g id="Grupo_18755" data-name="Grupo 18755" transform="translate(12.573 56.542)">
          <line id="Línea_15" data-name="Línea 15" y1="28.018" transform="translate(1.888 1.888)" fill="#fff"/>
          <path id="Trazado_45103" data-name="Trazado 45103" d="M1495.619,1287.647a1.888,1.888,0,0,1-1.888-1.887v-28.018a1.888,1.888,0,0,1,3.776,0v28.018A1.888,1.888,0,0,1,1495.619,1287.647Z" transform="translate(-1493.731 -1255.854)" fill="#1c5a89"/>
        </g>
        <g id="Grupo_18758" data-name="Grupo 18758" transform="translate(0 30.745)">
          <g id="Grupo_18756" data-name="Grupo 18756">
            <path id="Trazado_45104" data-name="Trazado 45104" d="M1470.787,1175.972l.057,11.113-10.445,3.126a3.36,3.36,0,0,0-2.366,3.31h0a3.305,3.305,0,0,0,4.168,3.169l11.927-3.382a4.3,4.3,0,0,0,3.063-3.578l1.693-12.423" transform="translate(-1456.143 -1174.085)" fill="#fff"/>
            <path id="Trazado_45105" data-name="Trazado 45105" d="M1456.893,1194.283a5.1,5.1,0,0,1-3.036-1.008,5.288,5.288,0,0,1,1.582-9.291l9.092-2.721-.05-9.7a1.888,1.888,0,0,1,1.878-1.9h.01a1.887,1.887,0,0,1,1.887,1.878l.057,11.114a1.888,1.888,0,0,1-1.346,1.818l-10.445,3.126a1.473,1.473,0,0,0-1.02,1.459,1.49,1.49,0,0,0,.6,1.178,1.327,1.327,0,0,0,1.167.217l11.927-3.382a2.413,2.413,0,0,0,1.708-2.016l1.693-12.423a1.888,1.888,0,1,1,3.741.51l-1.693,12.423a6.187,6.187,0,0,1-4.418,5.139l-11.927,3.382A5.142,5.142,0,0,1,1456.893,1194.283Z" transform="translate(-1451.724 -1169.666)" fill="#1c5a89"/>
          </g>
          <g id="Grupo_18757" data-name="Grupo 18757" transform="translate(13.351 0.97)">
            <line id="Línea_16" data-name="Línea 16" x1="6.851" y1="0.923" transform="translate(1.888 1.887)" fill="#fff"/>
            <path id="Trazado_45106" data-name="Trazado 45106" d="M1505.07,1177.6a1.915,1.915,0,0,1-.254-.017l-6.851-.923a1.888,1.888,0,0,1,.5-3.741l6.851.923a1.888,1.888,0,0,1-.25,3.759Z" transform="translate(-1496.33 -1172.906)" fill="#1c5a89"/>
          </g>
        </g>
        <g id="Grupo_18759" data-name="Grupo 18759" transform="translate(3.163 84.56)">
          <path id="Trazado_45107" data-name="Trazado 45107" d="M1477.224,1355.769h-3.372a5.317,5.317,0,0,0-5.254,5.378v1.846h4.705" transform="translate(-1466.71 -1353.881)" fill="#66c5ff"/>
          <path id="Trazado_45108" data-name="Trazado 45108" d="M1468.884,1360.461h-4.7a1.887,1.887,0,0,1-1.888-1.888v-1.846a7.213,7.213,0,0,1,7.142-7.266h3.372a1.888,1.888,0,1,1,0,3.775h-3.372a3.432,3.432,0,0,0-3.366,3.449h2.817a1.888,1.888,0,1,1,0,3.775Z" transform="translate(-1462.291 -1349.462)" fill="#1c5a89"/>
        </g>
        <g id="Grupo_18760" data-name="Grupo 18760" transform="translate(6.152)">
          <ellipse id="Elipse_1476" data-name="Elipse 1476" cx="9.105" cy="9.319" rx="9.105" ry="9.319" transform="translate(1.888 1.888)" fill="#fff"/>
          <path id="Trazado_45109" data-name="Trazado 45109" d="M1483.269,1089.359a11.209,11.209,0,1,1,10.993-11.207A11.114,11.114,0,0,1,1483.269,1089.359Zm0-18.638a7.434,7.434,0,1,0,7.217,7.431A7.334,7.334,0,0,0,1483.269,1070.722Z" transform="translate(-1472.277 -1066.946)" fill="#1c5a89"/>
        </g>
        <g id="Grupo_18761" data-name="Grupo 18761" transform="translate(7.868 84.56)">
          <path id="Trazado_45110" data-name="Trazado 45110" d="M1484.318,1362.993h13.077a2.607,2.607,0,0,0,2.607-2.607v-4.617h-8.46a7.224,7.224,0,0,0-7.224,7.224Z" transform="translate(-1482.43 -1353.881)" fill="#66c5ff"/>
          <path id="Trazado_45111" data-name="Trazado 45111" d="M1492.975,1360.461H1479.9a1.887,1.887,0,0,1-1.887-1.888,9.122,9.122,0,0,1,9.112-9.111h8.46a1.887,1.887,0,0,1,1.887,1.888v4.616A4.5,4.5,0,0,1,1492.975,1360.461Zm-10.844-3.775h10.844a.721.721,0,0,0,.719-.72v-2.729h-6.572A5.345,5.345,0,0,0,1482.131,1356.686Z" transform="translate(-1478.011 -1349.462)" fill="#1c5a89"/>
        </g>
      </g>
      <g id="Grupo_18763" data-name="Grupo 18763" transform="translate(6.161 46.847)">
        <path id="Trazado_45112" data-name="Trazado 45112" d="M1175.531,1106.974v12.917l8.273,10.25a4.723,4.723,0,0,1-.29,6.239h0a4.465,4.465,0,0,1-6.591-.191l-9.787-11.219a5.544,5.544,0,0,1-1.358-3.643v-14.354" transform="translate(-1163.891 -1105.086)" fill="#fff"/>
        <path id="Trazado_45113" data-name="Trazado 45113" d="M1175.885,1135.209l-.176,0a6.4,6.4,0,0,1-4.628-2.195l-9.787-11.219a7.423,7.423,0,0,1-1.823-4.884v-14.354a1.888,1.888,0,1,1,3.775,0v14.354a3.651,3.651,0,0,0,.892,2.4l9.787,11.219a2.577,2.577,0,0,0,3.818.112,2.85,2.85,0,0,0,.171-3.735l-8.273-10.25a1.887,1.887,0,0,1-.419-1.186v-12.917a1.888,1.888,0,1,1,3.775,0v12.25l7.854,9.732a6.592,6.592,0,0,1-.408,8.744A6.4,6.4,0,0,1,1175.885,1135.209Z" transform="translate(-1159.472 -1100.667)" fill="#1c5a89"/>
      </g>
      <g id="Grupo_18764" data-name="Grupo 18764" transform="translate(6.157 46.597)">
        <line id="Línea_17" data-name="Línea 17" x2="9.727" transform="translate(1.888 1.888)" fill="#fff"/>
        <path id="Trazado_45114" data-name="Trazado 45114" d="M1171.074,1103.608h-9.727a1.888,1.888,0,1,1,0-3.775h9.727a1.888,1.888,0,1,1,0,3.775Z" transform="translate(-1159.459 -1099.833)" fill="#1c5a89"/>
      </g>
      <g id="Grupo_18766" data-name="Grupo 18766" transform="translate(27.162 0)">
        <g id="Grupo_18765" data-name="Grupo 18765">
          <path id="Trazado_45115" data-name="Trazado 45115" d="M1241.924,951.97a3.209,3.209,0,0,1,5.931,1.7s.458,5.042-5.959,7.334h.007c-6.417-2.292-5.959-7.334-5.959-7.334a3.209,3.209,0,0,1,5.963-1.647" transform="translate(-1234.051 -948.572)" fill="#ffa197"/>
          <path id="Trazado_45116" data-name="Trazado 45116" d="M1237.487,958.471a1.9,1.9,0,0,1-.676-.125c-7.2-2.594-7.214-8.263-7.17-9.157a8.341,8.341,0,0,1,15.686,0c.044.891.031,6.53-7.106,9.134A1.883,1.883,0,0,1,1237.487,958.471Zm-2.75-10.543a1.322,1.322,0,0,0-1.321,1.321,1.091,1.091,0,0,1-.008.171c-.019.33-.073,3.37,4.075,5.136,4.149-1.766,4.095-4.807,4.073-5.164a.769.769,0,0,1-.006-.143,1.321,1.321,0,0,0-2.372-.8,1.888,1.888,0,0,1-3.307.125A1.313,1.313,0,0,0,1234.737,947.928Z" transform="translate(-1229.635 -944.153)" fill="#1c5a89"/>
        </g>
      </g>
      <g id="Grupo_18768" data-name="Grupo 18768" transform="translate(84.03 11.79)">
        <g id="Grupo_18767" data-name="Grupo 18767">
          <path id="Trazado_45117" data-name="Trazado 45117" d="M1435.416,992.239a5.078,5.078,0,0,1,9.385,2.688s.725,7.978-9.429,11.6h.011c-10.155-3.626-9.429-11.6-9.429-11.6a5.078,5.078,0,0,1,9.435-2.606" transform="translate(-1424.055 -987.962)" fill="#ffa197"/>
          <path id="Trazado_45118" data-name="Trazado 45118" d="M1430.962,1004a1.893,1.893,0,0,1-.68-.126c-5.843-2.1-8.427-5.593-9.567-8.157a11.777,11.777,0,0,1-1.069-5.283,12.164,12.164,0,0,1,22.621-.012c.256,3.283-1.62,10.171-10.551,13.421A1.883,1.883,0,0,1,1430.962,1004Zm-4.352-16.682a3.193,3.193,0,0,0-3.189,3.189c0,.057,0,.114-.007.171-.018.245-.359,6.278,7.543,9.415,7.9-3.138,7.561-9.17,7.542-9.432-.005-.057-.006-.1-.006-.154a3.19,3.19,0,0,0-5.8-1.831,1.888,1.888,0,0,1-3.341.2A3.169,3.169,0,0,0,1426.61,987.319Z" transform="translate(-1419.633 -983.543)" fill="#1c5a89"/>
        </g>
      </g>
    </g>
  </g>
</svg>
