<svg xmlns="http://www.w3.org/2000/svg" width="300" height="300" viewBox="0 0 300 300">
  <g id="Grupo_18875" data-name="Grupo 18875" transform="translate(-1690.215 -189.574)">
    <g id="Grupo_18777" data-name="Grupo 18777" transform="translate(1690.215 189.574)">
      <g id="Grupo_18776" data-name="Grupo 18776">
        <g id="Grupo_18775" data-name="Grupo 18775">
          <g id="Grupo_18774" data-name="Grupo 18774">
            <g id="Grupo_18773" data-name="Grupo 18773">
              <g id="Grupo_18772" data-name="Grupo 18772">
                <g id="Grupo_18771" data-name="Grupo 18771">
                  <circle id="Elipse_1477" data-name="Elipse 1477" cx="106.066" cy="106.066" r="106.066" transform="translate(0 150) rotate(-45)" fill="#92e0ff"/>
                </g>
              </g>
            </g>
          </g>
        </g>
      </g>
      <path id="Trazado_45119" data-name="Trazado 45119" d="M1732.486,333.911a1.631,1.631,0,0,1-1.514-2.231c.795-2,1.645-4.018,2.529-5.991a1.63,1.63,0,0,1,2.974,1.333c-.864,1.929-1.7,3.9-2.474,5.86A1.629,1.629,0,0,1,1732.486,333.911Zm8.347-17.571a1.63,1.63,0,0,1-1.421-2.425c2.131-3.818,4.46-7.59,6.921-11.211a1.63,1.63,0,1,1,2.7,1.832c-2.407,3.541-4.685,7.232-6.771,10.967A1.628,1.628,0,0,1,1740.834,316.339Zm14.636-21.538a1.63,1.63,0,0,1-1.261-2.66c2.766-3.39,5.715-6.7,8.765-9.837a1.63,1.63,0,1,1,2.337,2.273c-2.985,3.069-5.87,6.306-8.577,9.625A1.629,1.629,0,0,1,1755.469,294.8Zm18.158-18.669a1.629,1.629,0,0,1-1.066-2.863c3.313-2.861,6.793-5.608,10.34-8.167a1.63,1.63,0,0,1,1.907,2.643c-3.471,2.5-6.875,5.192-10.117,7.99A1.623,1.623,0,0,1,1773.628,276.132Z" transform="translate(-1710.192 -226.547)" fill="#0c6bc2"/>
      <path id="Trazado_45120" data-name="Trazado 45120" d="M1937.837,216.84a1.63,1.63,0,0,1-.368-3.218c4.259-.99,8.617-1.8,12.954-2.417a1.63,1.63,0,0,1,.456,3.228c-4.242.6-8.505,1.4-12.671,2.365A1.662,1.662,0,0,1,1937.837,216.84Zm64.675-.658a1.647,1.647,0,0,1-.338-.036c-4.183-.883-8.462-1.591-12.717-2.1a1.63,1.63,0,0,1,.39-3.236c4.349.525,8.722,1.248,13,2.151a1.63,1.63,0,0,1-.336,3.225Zm-38.89-2.993a1.63,1.63,0,0,1-.085-3.257c4.362-.232,8.825-.276,13.174-.132a1.63,1.63,0,1,1-.108,3.258c-4.256-.141-8.624-.1-12.893.13Z" transform="translate(-1821.534 -199.476)" fill="#0c6bc2"/>
      <path id="Trazado_45121" data-name="Trazado 45121" d="M2269.7,455.765a1.656,1.656,0,0,1-.328-.034,1.63,1.63,0,0,1-1.27-1.924c.858-4.191,1.539-8.474,2.026-12.73a1.63,1.63,0,1,1,3.238.37c-.5,4.351-1.194,8.729-2.07,13.013A1.63,1.63,0,0,1,2269.7,455.765Zm2.965-25.874h-.045a1.63,1.63,0,0,1-1.585-1.673c.036-1.337.054-2.7.054-4.042,0-2.943-.088-5.923-.262-8.855a1.63,1.63,0,1,1,3.254-.193c.178,3,.268,6.04.268,9.048,0,1.375-.019,2.765-.056,4.131A1.63,1.63,0,0,1,2272.664,429.891Zm-1.552-26a1.629,1.629,0,0,1-1.61-1.392c-.627-4.238-1.449-8.5-2.444-12.658a1.63,1.63,0,1,1,3.17-.758c1.018,4.255,1.858,8.608,2.5,12.939a1.63,1.63,0,0,1-1.374,1.851A1.609,1.609,0,0,1,2271.112,403.887Zm-6.06-25.33a1.63,1.63,0,0,1-1.545-1.112c-1.36-4.058-2.917-8.106-4.63-12.031a1.63,1.63,0,0,1,2.987-1.3c1.752,4.012,3.344,8.151,4.734,12.3a1.63,1.63,0,0,1-1.028,2.063A1.611,1.611,0,0,1,2265.052,378.557Zm-10.416-23.869a1.629,1.629,0,0,1-1.432-.85c-2.051-3.757-4.294-7.469-6.667-11.034A1.63,1.63,0,1,1,2249.25,341c2.426,3.643,4.718,7.438,6.815,11.278a1.631,1.631,0,0,1-1.429,2.411Z" transform="translate(-1984.589 -271.496)" fill="#0c6bc2"/>
      <path id="Trazado_45122" data-name="Trazado 45122" d="M2004.351,784.14a1.63,1.63,0,1,1,0-3.259c4.293,0,8.627-.187,12.883-.556a1.63,1.63,0,0,1,.282,3.247C2013.167,783.949,2008.738,784.14,2004.351,784.14Zm25.946-2.256a1.63,1.63,0,0,1-.281-3.235c4.219-.743,8.454-1.682,12.585-2.792a1.629,1.629,0,1,1,.846,3.147c-4.223,1.135-8.552,2.1-12.865,2.855A1.646,1.646,0,0,1,2030.3,781.883Zm25.153-6.758a1.63,1.63,0,0,1-.561-3.161c4.017-1.47,8.02-3.139,11.9-4.961a1.63,1.63,0,1,1,1.385,2.951c-3.964,1.861-8.056,3.568-12.163,5.071A1.62,1.62,0,0,1,2055.45,775.125Z" transform="translate(-1856.961 -494.381)" fill="#0c6bc2"/>
    </g>
    <g id="Grupo_18796" data-name="Grupo 18796" transform="translate(1713.518 295.143)">
      <g id="Grupo_18792" data-name="Grupo 18792">
        <g id="Grupo_18782" data-name="Grupo 18782">
          <g id="Grupo_18778" data-name="Grupo 18778">
            <path id="Trazado_45123" data-name="Trazado 45123" d="M1811.2,452.361v-6.982c0-1.973-1.283-3.568-2.87-3.568h-66.21c-1.587,0-2.87,1.6-2.87,3.568l.107,6.982v67.65l-.107,48.66v10.62c0,1.973,1.283,3.568,2.87,3.568h66.21c1.587,0,2.87-1.6,2.87-3.568V452.361Z" transform="translate(-1737.621 -440.181)" fill="#fff"/>
            <path id="Trazado_45124" data-name="Trazado 45124" d="M1806.755,582.913h-66.21c-2.481,0-4.5-2.331-4.5-5.2V567.1l.107-48.663V450.785l-.107-6.957c0-2.891,2.018-5.222,4.5-5.222h66.21c2.481,0,4.5,2.332,4.5,5.2V577.716C1811.255,580.582,1809.237,582.913,1806.755,582.913Zm-66.21-141.047c-.587,0-1.24.8-1.24,1.938l.107,6.957v67.675l-.107,49.829v9.451c0,1.142.653,1.938,1.24,1.938h66.21c.587,0,1.24-.8,1.24-1.938V443.8c0-1.142-.653-1.938-1.24-1.938Z" transform="translate(-1736.046 -438.606)" fill="#0c6bc2"/>
          </g>
          <g id="Grupo_18779" data-name="Grupo 18779" transform="translate(0.107 16.393)">
            <line id="Línea_18" data-name="Línea 18" x1="71.842" transform="translate(1.63 1.629)" fill="#fff"/>
            <path id="Trazado_45125" data-name="Trazado 45125" d="M1809.729,474.106h-71.842a1.63,1.63,0,1,1,0-3.259h71.842a1.63,1.63,0,1,1,0,3.259Z" transform="translate(-1736.257 -470.847)" fill="#0c6bc2"/>
          </g>
          <g id="Grupo_18780" data-name="Grupo 18780" transform="translate(0.004 125.108)">
            <line id="Línea_19" data-name="Línea 19" x2="71.946" transform="translate(1.629 1.63)" fill="#fff"/>
            <path id="Trazado_45126" data-name="Trazado 45126" d="M1809.629,687.916h-71.945a1.63,1.63,0,1,1,0-3.259h71.945a1.63,1.63,0,1,1,0,3.259Z" transform="translate(-1736.054 -684.657)" fill="#0c6bc2"/>
          </g>
          <g id="Grupo_18781" data-name="Grupo 18781" transform="translate(25.844 8.035)">
            <line id="Línea_20" data-name="Línea 20" x2="20.229" transform="translate(1.629 1.63)" fill="#fff"/>
            <path id="Trazado_45127" data-name="Trazado 45127" d="M1808.732,457.667H1788.5a1.63,1.63,0,0,1,0-3.259h20.229a1.63,1.63,0,1,1,0,3.259Z" transform="translate(-1786.873 -454.408)" fill="#0c6bc2"/>
          </g>
        </g>
        <g id="Grupo_18787" data-name="Grupo 18787" transform="translate(7.682 69.974)">
          <g id="Grupo_18783" data-name="Grupo 18783">
            <rect id="Rectángulo_3273" data-name="Rectángulo 3273" width="56.831" height="27.823" rx="13.911" transform="translate(1.63 1.63)" fill="#caf4ff"/>
            <path id="Trazado_45128" data-name="Trazado 45128" d="M1795.7,607.306H1766.7a15.541,15.541,0,1,1,0-31.082H1795.7a15.541,15.541,0,0,1,0,31.082ZM1766.7,579.483a12.282,12.282,0,1,0,0,24.563H1795.7a12.282,12.282,0,1,0,0-24.563Z" transform="translate(-1751.155 -576.224)" fill="#0c6bc2"/>
          </g>
          <g id="Grupo_18786" data-name="Grupo 18786" transform="translate(12.827 7.243)">
            <g id="Grupo_18784" data-name="Grupo 18784" transform="translate(10.333 0.081)">
              <path id="Trazado_45129" data-name="Trazado 45129" d="M1798.334,607.143a1.631,1.631,0,0,1-1.53-2.19l4.853-13.255a1.63,1.63,0,0,1,1.514-1.069h.016a1.63,1.63,0,0,1,1.519,1.039l5.155,13.255a1.63,1.63,0,0,1-3.038,1.182l-3.59-9.231-3.369,9.2A1.631,1.631,0,0,1,1798.334,607.143Z" transform="translate(-1796.705 -590.628)" fill="#0c6bc2"/>
              <path id="Trazado_45130" data-name="Trazado 45130" d="M1808.4,611.8h-6.666a1.63,1.63,0,1,1,0-3.259h6.666a1.63,1.63,0,1,1,0,3.259Z" transform="translate(-1798.377 -599.434)" fill="#0c6bc2"/>
            </g>
            <path id="Trazado_45131" data-name="Trazado 45131" d="M1778.013,607.185a1.63,1.63,0,0,1-1.63-1.63V592.345a1.63,1.63,0,0,1,1.63-1.63h4.412a4.521,4.521,0,0,1,4.407,4.512c0,2.315-1.885,4.9-4.407,4.9h-2.783v5.424A1.629,1.629,0,0,1,1778.013,607.185Zm1.63-10.313h2.783c.474,0,1.148-.851,1.148-1.645a1.252,1.252,0,0,0-1.148-1.253h-2.783Z" transform="translate(-1776.383 -590.59)" fill="#0c6bc2"/>
            <g id="Grupo_18785" data-name="Grupo 18785" transform="translate(23.348)">
              <path id="Trazado_45132" data-name="Trazado 45132" d="M1828.067,600.5h-.02a1.629,1.629,0,0,1-1.37-.78l-4.135-6.767a1.63,1.63,0,0,1,2.782-1.7l2.782,4.553,2.961-4.587a1.63,1.63,0,1,1,2.739,1.768l-4.368,6.768A1.63,1.63,0,0,1,1828.067,600.5Z" transform="translate(-1822.302 -590.469)" fill="#0c6bc2"/>
              <path id="Trazado_45133" data-name="Trazado 45133" d="M1832.065,613.607a1.63,1.63,0,0,1-1.63-1.63V605.41a1.63,1.63,0,0,1,3.259,0v6.568A1.63,1.63,0,0,1,1832.065,613.607Z" transform="translate(-1826.3 -597.012)" fill="#0c6bc2"/>
            </g>
          </g>
        </g>
        <g id="Grupo_18791" data-name="Grupo 18791" transform="translate(16.954 25.113)">
          <g id="Grupo_18788" data-name="Grupo 18788" transform="translate(0 0)">
            <circle id="Elipse_1478" data-name="Elipse 1478" cx="15.791" cy="15.791" r="15.791" transform="translate(0 12.086) rotate(-22.5)" fill="#caf4ff"/>
            <path id="Trazado_45134" data-name="Trazado 45134" d="M1793.128,529.155a17.421,17.421,0,1,1,17.421-17.421A17.441,17.441,0,0,1,1793.128,529.155Zm0-31.583a14.162,14.162,0,1,0,14.162,14.162A14.178,14.178,0,0,0,1793.128,497.572Z" transform="translate(-1772.495 -491.102)" fill="#0c6bc2"/>
          </g>
          <g id="Grupo_18790" data-name="Grupo 18790" transform="translate(13.488 8.875)">
            <path id="Trazado_45135" data-name="Trazado 45135" d="M1803.062,529.069c-3.94,0-7.145-2.756-7.145-6.144a1.63,1.63,0,1,1,3.259,0c0,1.564,1.779,2.884,3.886,2.884s3.886-1.321,3.886-2.884-1.78-2.885-3.886-2.885c-3.734,0-6.772-2.6-6.772-5.8,0-3.181,3-5.768,6.686-5.768s6.686,2.587,6.686,5.768a1.63,1.63,0,1,1-3.259,0c0-1.36-1.57-2.509-3.427-2.509s-3.427,1.149-3.427,2.509,1.642,2.537,3.513,2.537c3.94,0,7.145,2.756,7.145,6.144S1807,529.069,1803.062,529.069Z" transform="translate(-1795.917 -506.938)" fill="#0c6bc2"/>
            <g id="Grupo_18789" data-name="Grupo 18789" transform="translate(5.515)">
              <line id="Línea_21" data-name="Línea 21" y1="20.256" transform="translate(1.629 1.629)" fill="#fff"/>
              <path id="Trazado_45136" data-name="Trazado 45136" d="M1808.394,528.967a1.63,1.63,0,0,1-1.63-1.63V507.082a1.63,1.63,0,1,1,3.259,0v20.256A1.629,1.629,0,0,1,1808.394,528.967Z" transform="translate(-1806.764 -505.452)" fill="#0c6bc2"/>
            </g>
          </g>
        </g>
      </g>
      <g id="Grupo_18795" data-name="Grupo 18795" transform="translate(42.363 88.36)">
        <g id="Grupo_18794" data-name="Grupo 18794">
          <g id="Grupo_18793" data-name="Grupo 18793">
            <path id="Trazado_45137" data-name="Trazado 45137" d="M1862.339,698.076c-17.827-7.482-36.629-25.608-36.629-25.608a7.491,7.491,0,1,1,8.685-12.209l18.153,12.924h0l-26.324-46.41a7.491,7.491,0,1,1,13.031-7.391l15.971,28.158a7.491,7.491,0,1,1,13.031-7.391l.739,1.3a7.491,7.491,0,1,1,13.031-7.392l.74,1.3a7.491,7.491,0,1,1,13.031-7.392l11.014,19.418a35.685,35.685,0,0,1-44.474,50.686" transform="translate(-1820.934 -613.957)" fill="#fff"/>
            <path id="Trazado_45138" data-name="Trazado 45138" d="M1874.243,700.767q-1.143,0-2.29-.071a37.418,37.418,0,0,1-11.8-2.682l-.018-.007c-17.479-7.336-35.481-24.359-37.045-25.856a9.121,9.121,0,0,1,10.677-14.791l12.16,8.657-22.694-40.011a9.121,9.121,0,1,1,15.867-9l12.522,22.076a9.118,9.118,0,0,1,13.349-4.564q.071-.383.176-.764a9.117,9.117,0,0,1,13.594-5.324c.048-.255.106-.51.177-.764a9.12,9.12,0,0,1,16.726-2.07l11.014,19.417a37.328,37.328,0,0,1-32.416,55.753ZM1861.388,695a34.06,34.06,0,0,0,42.435-48.375L1892.81,627.2a5.861,5.861,0,0,0-10.2,5.772l.006.012a1.63,1.63,0,1,1-2.835,1.608h0l-.74-1.3a5.861,5.861,0,1,0-10.2,5.783,1.63,1.63,0,0,1-2.835,1.609l-.739-1.3a5.861,5.861,0,1,0-10.2,5.783,1.63,1.63,0,0,1-2.835,1.608l-15.971-28.158a5.861,5.861,0,1,0-10.2,5.783l26.3,46.36a1.631,1.631,0,0,1-2.377,2.151l-18.11-12.893a5.862,5.862,0,1,0-6.8,9.553,1.618,1.618,0,0,1,.185.154C1825.455,669.9,1844.058,687.72,1861.388,695Z" transform="translate(-1819.362 -612.384)" fill="#0c6bc2"/>
          </g>
        </g>
      </g>
    </g>
    <g id="Grupo_18834" data-name="Grupo 18834" transform="translate(1782.872 216.536)">
      <g id="Grupo_18797" data-name="Grupo 18797">
        <path id="Trazado_45139" data-name="Trazado 45139" d="M2063.06,365.009H1906.648a2.6,2.6,0,0,1-2.6-2.605V248.41a2.6,2.6,0,0,1,2.6-2.6H2063.06a2.6,2.6,0,0,1,2.6,2.6V362.4A2.6,2.6,0,0,1,2063.06,365.009Z" transform="translate(-1902.416 -244.175)" fill="#fff"/>
        <path id="Trazado_45140" data-name="Trazado 45140" d="M2061.485,365.064H1905.073a4.239,4.239,0,0,1-4.233-4.235V246.834a4.238,4.238,0,0,1,4.233-4.234h156.412a4.238,4.238,0,0,1,4.232,4.234V360.829A4.239,4.239,0,0,1,2061.485,365.064Zm-156.412-119.2a.975.975,0,0,0-.973.975V360.829a.976.976,0,0,0,.973.976h156.412a.975.975,0,0,0,.973-.976V246.834a.975.975,0,0,0-.973-.975Z" transform="translate(-1900.84 -242.6)" fill="#0c6bc2"/>
      </g>
      <g id="Grupo_18833" data-name="Grupo 18833" transform="translate(0.246 6.194)">
        <g id="Grupo_18798" data-name="Grupo 18798" transform="translate(97.191 52.904)">
          <path id="Trazado_45141" data-name="Trazado 45141" d="M2104.49,379.663h28.182a8.814,8.814,0,0,0,8.814-8.814h0a8.814,8.814,0,0,0-8.814-8.814H2104.49a8.814,8.814,0,0,0-8.814,8.814h0A8.814,8.814,0,0,0,2104.49,379.663Z" transform="translate(-2094.047 -360.405)" fill="#64bdfa"/>
          <path id="Trazado_45142" data-name="Trazado 45142" d="M2131.1,379.718h-28.181a10.444,10.444,0,1,1,0-20.888H2131.1a10.444,10.444,0,0,1,0,20.888Zm-28.181-17.628a7.185,7.185,0,0,0,0,14.369H2131.1a7.185,7.185,0,0,0,0-14.369Z" transform="translate(-2092.471 -358.83)" fill="#0c6bc2"/>
        </g>
        <g id="Grupo_18801" data-name="Grupo 18801" transform="translate(108.445 57.933)">
          <g id="Grupo_18799" data-name="Grupo 18799" transform="translate(8.204 0.029)">
            <path id="Trazado_45143" data-name="Trazado 45143" d="M2132.368,380.243a1.631,1.631,0,0,1-1.5-2.266l3.479-8.207a1.632,1.632,0,0,1,1.483-.994,1.678,1.678,0,0,1,1.5.961l3.7,8.207a1.63,1.63,0,0,1-2.973,1.338l-2.163-4.806-2.023,4.773A1.631,1.631,0,0,1,2132.368,380.243Z" transform="translate(-2130.738 -368.776)" fill="#0c6bc2"/>
            <path id="Trazado_45144" data-name="Trazado 45144" d="M2139.466,384.452h-5.518a1.63,1.63,0,1,1,0-3.259h5.518a1.63,1.63,0,1,1,0,3.259Z" transform="translate(-2131.515 -374.879)" fill="#0c6bc2"/>
          </g>
          <path id="Trazado_45145" data-name="Trazado 45145" d="M2116.233,380.242a1.629,1.629,0,0,1-1.63-1.63v-8.176a1.629,1.629,0,0,1,1.63-1.63h3.163a3.621,3.621,0,0,1,0,7.242h-1.533v2.564A1.63,1.63,0,0,1,2116.233,380.242Zm1.629-7.453h1.533a.362.362,0,0,0,0-.723h-1.533Z" transform="translate(-2114.603 -368.762)" fill="#0c6bc2"/>
          <g id="Grupo_18800" data-name="Grupo 18800" transform="translate(18.703)">
            <path id="Trazado_45146" data-name="Trazado 45146" d="M2155.979,376.4h-.021a1.631,1.631,0,0,1-1.333-.722l-2.963-4.42a1.63,1.63,0,1,1,2.707-1.815l1.646,2.455,1.764-2.49a1.629,1.629,0,1,1,2.659,1.884l-3.13,4.42A1.631,1.631,0,0,1,2155.979,376.4Z" transform="translate(-2151.386 -368.719)" fill="#0c6bc2"/>
            <path id="Trazado_45147" data-name="Trazado 45147" d="M2158.845,384.516a1.629,1.629,0,0,1-1.63-1.63v-3.845a1.63,1.63,0,1,1,3.259,0v3.845A1.63,1.63,0,0,1,2158.845,384.516Z" transform="translate(-2154.251 -372.992)" fill="#0c6bc2"/>
          </g>
        </g>
        <g id="Grupo_18808" data-name="Grupo 18808">
          <g id="Grupo_18804" data-name="Grupo 18804">
            <g id="Grupo_18802" data-name="Grupo 18802" transform="translate(0 13.197)">
              <line id="Línea_22" data-name="Línea 22" x2="160.705" transform="translate(1.63 1.63)" fill="#fff"/>
              <path id="Trazado_45148" data-name="Trazado 45148" d="M2063.657,284h-160.7a1.63,1.63,0,0,1,0-3.259h160.7a1.63,1.63,0,1,1,0,3.259Z" transform="translate(-1901.323 -280.736)" fill="#0c6bc2"/>
            </g>
            <path id="Trazado_45149" data-name="Trazado 45149" d="M2197.89,256.53h-2.435a.358.358,0,0,0-.271.125l-1.406,1.645a.357.357,0,0,1-.543,0l-1.405-1.645a.358.358,0,0,0-.271-.125h-2.435a.357.357,0,0,0-.271.59l2.769,3.241a.358.358,0,0,1,0,.465l-2.809,3.288a.358.358,0,0,0,.278.59l2.473-.044a.354.354,0,0,0,.265-.125l1.408-1.648a.356.356,0,0,1,.543,0l1.406,1.645a.357.357,0,0,0,.271.125h2.435a.357.357,0,0,0,.271-.59l-2.769-3.241a.359.359,0,0,1,0-.465l2.769-3.241A.357.357,0,0,0,2197.89,256.53Z" transform="translate(-2042.592 -255.641)" fill="#0c6bc2"/>
            <g id="Grupo_18803" data-name="Grupo 18803" transform="translate(42.238)">
              <rect id="Rectángulo_3274" data-name="Rectángulo 3274" width="90.594" height="7.061" rx="3.53" transform="translate(1.63 1.63)" fill="#fff"/>
              <path id="Trazado_45150" data-name="Trazado 45150" d="M2073.508,265.1h-84.374a4.744,4.744,0,0,1-4.74-4.739v-.841a4.744,4.744,0,0,1,4.74-4.739h84.374a4.745,4.745,0,0,1,4.74,4.739v.841A4.745,4.745,0,0,1,2073.508,265.1Zm-84.374-7.061a1.482,1.482,0,0,0-1.48,1.48v.841a1.482,1.482,0,0,0,1.48,1.48h84.374a1.481,1.481,0,0,0,1.48-1.48v-.841a1.481,1.481,0,0,0-1.48-1.48Z" transform="translate(-1984.394 -254.782)" fill="#0c6bc2"/>
            </g>
          </g>
          <g id="Grupo_18805" data-name="Grupo 18805" transform="translate(6.316 0.409)">
            <path id="Trazado_45151" data-name="Trazado 45151" d="M1923.2,261.913a3.126,3.126,0,1,1-3.126-3.121A3.123,3.123,0,0,1,1923.2,261.913Z" transform="translate(-1915.32 -257.162)" fill="#fff"/>
            <path id="Trazado_45152" data-name="Trazado 45152" d="M1918.5,265.089a4.751,4.751,0,1,1,4.755-4.751A4.758,4.758,0,0,1,1918.5,265.089Zm0-6.242a1.491,1.491,0,1,0,1.5,1.491A1.5,1.5,0,0,0,1918.5,258.847Z" transform="translate(-1913.744 -255.587)" fill="#0c6bc2"/>
          </g>
          <g id="Grupo_18806" data-name="Grupo 18806" transform="translate(18.35 0.409)">
            <path id="Trazado_45153" data-name="Trazado 45153" d="M1946.868,261.913a3.126,3.126,0,1,1-3.125-3.121A3.123,3.123,0,0,1,1946.868,261.913Z" transform="translate(-1938.988 -257.162)" fill="#fff"/>
            <path id="Trazado_45154" data-name="Trazado 45154" d="M1942.167,265.089a4.751,4.751,0,1,1,4.755-4.751A4.758,4.758,0,0,1,1942.167,265.089Zm0-6.242a1.491,1.491,0,1,0,1.5,1.491A1.5,1.5,0,0,0,1942.167,258.847Z" transform="translate(-1937.412 -255.587)" fill="#0c6bc2"/>
          </g>
          <g id="Grupo_18807" data-name="Grupo 18807" transform="translate(30.023 0.409)">
            <path id="Trazado_45155" data-name="Trazado 45155" d="M1969.825,261.913a3.126,3.126,0,1,1-3.125-3.121A3.123,3.123,0,0,1,1969.825,261.913Z" transform="translate(-1961.944 -257.162)" fill="#fff"/>
            <path id="Trazado_45156" data-name="Trazado 45156" d="M1965.124,265.089a4.751,4.751,0,1,1,4.755-4.751A4.758,4.758,0,0,1,1965.124,265.089Zm0-6.242a1.491,1.491,0,1,0,1.5,1.491A1.5,1.5,0,0,0,1965.124,258.847Z" transform="translate(-1960.369 -255.587)" fill="#0c6bc2"/>
          </g>
        </g>
        <g id="Grupo_18810" data-name="Grupo 18810" transform="translate(25.456 25.912)">
          <g id="Grupo_18809" data-name="Grupo 18809">
            <rect id="Rectángulo_3275" data-name="Rectángulo 3275" width="55.107" height="34.618" transform="translate(1.63 1.63)" fill="#caf4ff"/>
            <path id="Trazado_45157" data-name="Trazado 45157" d="M2008.125,343.62h-55.107a1.63,1.63,0,0,1-1.629-1.63V307.373a1.63,1.63,0,0,1,1.629-1.63h55.107a1.63,1.63,0,0,1,1.63,1.63v34.618A1.63,1.63,0,0,1,2008.125,343.62Zm-53.478-3.259H2006.5V309h-51.848Z" transform="translate(-1951.388 -305.743)" fill="#0c6bc2"/>
          </g>
        </g>
        <g id="Grupo_18824" data-name="Grupo 18824" transform="translate(13.783 76.292)">
          <g id="Grupo_18811" data-name="Grupo 18811">
            <line id="Línea_23" data-name="Línea 23" x2="82" transform="translate(1.63 1.63)" fill="#fff"/>
            <path id="Trazado_45158" data-name="Trazado 45158" d="M2012.061,408.086h-82a1.63,1.63,0,0,1,0-3.259h82a1.63,1.63,0,1,1,0,3.259Z" transform="translate(-1928.431 -404.827)" fill="#0c6bc2"/>
          </g>
          <g id="Grupo_18812" data-name="Grupo 18812" transform="translate(0 6.636)">
            <line id="Línea_24" data-name="Línea 24" x2="50.77" transform="translate(1.63 1.63)" fill="#fff"/>
            <path id="Trazado_45159" data-name="Trazado 45159" d="M1980.831,421.137h-50.771a1.63,1.63,0,0,1,0-3.259h50.771a1.63,1.63,0,0,1,0,3.259Z" transform="translate(-1928.431 -417.878)" fill="#0c6bc2"/>
          </g>
          <g id="Grupo_18813" data-name="Grupo 18813" transform="translate(0 17.839)">
            <line id="Línea_25" data-name="Línea 25" x2="16.041" transform="translate(1.63 1.63)" fill="#fff"/>
            <path id="Trazado_45160" data-name="Trazado 45160" d="M1946.1,443.171h-16.041a1.63,1.63,0,0,1,0-3.259H1946.1a1.63,1.63,0,0,1,0,3.259Z" transform="translate(-1928.431 -439.912)" fill="#0c6bc2"/>
          </g>
          <g id="Grupo_18814" data-name="Grupo 18814" transform="translate(19.373 17.839)">
            <line id="Línea_26" data-name="Línea 26" x2="8.185" transform="translate(1.63 1.63)" fill="#fff"/>
            <path id="Trazado_45161" data-name="Trazado 45161" d="M1976.348,443.171h-8.186a1.63,1.63,0,0,1,0-3.259h8.186a1.63,1.63,0,1,1,0,3.259Z" transform="translate(-1966.533 -439.912)" fill="#0c6bc2"/>
          </g>
          <g id="Grupo_18815" data-name="Grupo 18815" transform="translate(31.486 17.839)">
            <line id="Línea_27" data-name="Línea 27" x2="16.499" transform="translate(1.63 1.63)" fill="#fff"/>
            <path id="Trazado_45162" data-name="Trazado 45162" d="M2008.485,443.171h-16.5a1.63,1.63,0,1,1,0-3.259h16.5a1.63,1.63,0,0,1,0,3.259Z" transform="translate(-1990.355 -439.912)" fill="#0c6bc2"/>
          </g>
          <g id="Grupo_18816" data-name="Grupo 18816" transform="translate(52.191 17.839)">
            <line id="Línea_28" data-name="Línea 28" x2="11.845" transform="translate(1.63 1.63)" fill="#fff"/>
            <path id="Trazado_45163" data-name="Trazado 45163" d="M2044.55,443.171H2032.7a1.63,1.63,0,1,1,0-3.259h11.845a1.63,1.63,0,1,1,0,3.259Z" transform="translate(-2031.075 -439.912)" fill="#0c6bc2"/>
          </g>
          <g id="Grupo_18817" data-name="Grupo 18817" transform="translate(67.622 17.839)">
            <line id="Línea_29" data-name="Línea 29" x2="11.845" transform="translate(1.63 1.63)" fill="#fff"/>
            <path id="Trazado_45164" data-name="Trazado 45164" d="M2074.9,443.171h-11.845a1.63,1.63,0,1,1,0-3.259H2074.9a1.63,1.63,0,1,1,0,3.259Z" transform="translate(-2061.424 -439.912)" fill="#0c6bc2"/>
          </g>
          <g id="Grupo_18818" data-name="Grupo 18818" transform="translate(84.649 17.839)">
            <line id="Línea_30" data-name="Línea 30" x2="12.066" transform="translate(1.63 1.63)" fill="#fff"/>
            <path id="Trazado_45165" data-name="Trazado 45165" d="M2108.609,443.171h-12.067a1.63,1.63,0,0,1,0-3.259h12.067a1.63,1.63,0,0,1,0,3.259Z" transform="translate(-2094.912 -439.912)" fill="#0c6bc2"/>
          </g>
          <g id="Grupo_18819" data-name="Grupo 18819" transform="translate(0 27.529)">
            <line id="Línea_31" data-name="Línea 31" x2="16.041" transform="translate(1.63 1.63)" fill="#fff"/>
            <path id="Trazado_45166" data-name="Trazado 45166" d="M1946.1,462.228h-16.041a1.63,1.63,0,0,1,0-3.259H1946.1a1.63,1.63,0,0,1,0,3.259Z" transform="translate(-1928.431 -458.969)" fill="#0c6bc2"/>
          </g>
          <g id="Grupo_18820" data-name="Grupo 18820" transform="translate(19.373 27.529)">
            <line id="Línea_32" data-name="Línea 32" x2="10.041" transform="translate(1.63 1.63)" fill="#fff"/>
            <path id="Trazado_45167" data-name="Trazado 45167" d="M1978.2,462.228h-10.042a1.63,1.63,0,0,1,0-3.259H1978.2a1.63,1.63,0,1,1,0,3.259Z" transform="translate(-1966.533 -458.969)" fill="#0c6bc2"/>
          </g>
          <g id="Grupo_18821" data-name="Grupo 18821" transform="translate(33.342 27.529)">
            <line id="Línea_33" data-name="Línea 33" x2="14.643" transform="translate(1.63 1.63)" fill="#fff"/>
            <path id="Trazado_45168" data-name="Trazado 45168" d="M2010.279,462.228h-14.644a1.63,1.63,0,1,1,0-3.259h14.644a1.63,1.63,0,1,1,0,3.259Z" transform="translate(-1994.006 -458.969)" fill="#0c6bc2"/>
          </g>
          <g id="Grupo_18822" data-name="Grupo 18822" transform="translate(52.191 27.529)">
            <line id="Línea_34" data-name="Línea 34" x2="11.845" transform="translate(1.63 1.63)" fill="#fff"/>
            <path id="Trazado_45169" data-name="Trazado 45169" d="M2044.55,462.228H2032.7a1.63,1.63,0,1,1,0-3.259h11.845a1.63,1.63,0,1,1,0,3.259Z" transform="translate(-2031.075 -458.969)" fill="#0c6bc2"/>
          </g>
          <g id="Grupo_18823" data-name="Grupo 18823" transform="translate(67.622 27.529)">
            <line id="Línea_35" data-name="Línea 35" x2="17.414" transform="translate(1.63 1.63)" fill="#fff"/>
            <path id="Trazado_45170" data-name="Trazado 45170" d="M2080.468,462.228h-17.414a1.63,1.63,0,1,1,0-3.259h17.414a1.63,1.63,0,1,1,0,3.259Z" transform="translate(-2061.424 -458.969)" fill="#0c6bc2"/>
          </g>
        </g>
        <g id="Grupo_18828" data-name="Grupo 18828" transform="translate(101.691 26.825)">
          <g id="Grupo_18825" data-name="Grupo 18825">
            <line id="Línea_36" data-name="Línea 36" x2="39.911" transform="translate(1.63 1.63)" fill="#fff"/>
            <path id="Trazado_45171" data-name="Trazado 45171" d="M2142.861,310.8H2102.95a1.63,1.63,0,1,1,0-3.259h39.911a1.63,1.63,0,1,1,0,3.259Z" transform="translate(-2101.32 -307.539)" fill="#0c6bc2"/>
          </g>
          <g id="Grupo_18826" data-name="Grupo 18826" transform="translate(0 8.602)">
            <line id="Línea_37" data-name="Línea 37" x2="31.693" transform="translate(1.63 1.63)" fill="#fff"/>
            <path id="Trazado_45172" data-name="Trazado 45172" d="M2134.643,327.715H2102.95a1.63,1.63,0,1,1,0-3.259h31.693a1.63,1.63,0,1,1,0,3.259Z" transform="translate(-2101.32 -324.456)" fill="#0c6bc2"/>
          </g>
          <g id="Grupo_18827" data-name="Grupo 18827" transform="translate(0 16.667)">
            <line id="Línea_38" data-name="Línea 38" x2="37.171" transform="translate(1.63 1.63)" fill="#fff"/>
            <path id="Trazado_45173" data-name="Trazado 45173" d="M2140.122,343.578H2102.95a1.63,1.63,0,1,1,0-3.259h37.172a1.63,1.63,0,0,1,0,3.259Z" transform="translate(-2101.32 -340.319)" fill="#0c6bc2"/>
          </g>
        </g>
        <g id="Grupo_18832" data-name="Grupo 18832" transform="translate(128.667 75.262)">
          <g id="Grupo_18830" data-name="Grupo 18830">
            <g id="Grupo_18829" data-name="Grupo 18829">
              <path id="Trazado_45174" data-name="Trazado 45174" d="M2157.579,406.006l4.5,10.563,6.113-6.179-10.61-4.384,4.5,10.563,6.113-6.179Z" transform="translate(-2155.949 -404.376)" fill="#fff"/>
              <path id="Trazado_45175" data-name="Trazado 45175" d="M2160.5,416.623a1.629,1.629,0,0,1-1.5-.992l-4.5-10.563a1.63,1.63,0,0,1,2.122-2.145l10.61,4.384a1.63,1.63,0,0,1,.975,1.183,1.6,1.6,0,0,1,.032.323,1.63,1.63,0,0,1-.471,1.146l-6.114,6.179A1.629,1.629,0,0,1,2160.5,416.623Zm-1.437-9.165,1.986,4.663,2.7-2.728Z" transform="translate(-2154.374 -402.8)" fill="#0c6bc2"/>
            </g>
          </g>
          <g id="Grupo_18831" data-name="Grupo 18831" transform="translate(5.611 5.543)">
            <line id="Línea_39" data-name="Línea 39" x2="5.649" y2="5.649" transform="translate(1.63 1.629)" fill="#fff"/>
            <path id="Trazado_45176" data-name="Trazado 45176" d="M2172.688,422.61a1.624,1.624,0,0,1-1.153-.477l-5.649-5.65a1.63,1.63,0,0,1,2.305-2.3l5.649,5.649a1.63,1.63,0,0,1-1.152,2.782Z" transform="translate(-2165.409 -413.701)" fill="#0c6bc2"/>
          </g>
        </g>
      </g>
    </g>
    <g id="Grupo_18874" data-name="Grupo 18874" transform="translate(1832.805 324.56)">
      <g id="Grupo_18840" data-name="Grupo 18840" transform="translate(2.849)">
        <g id="Grupo_18836" data-name="Grupo 18836">
          <g id="Grupo_18835" data-name="Grupo 18835">
            <path id="Trazado_45177" data-name="Trazado 45177" d="M2156.025,549.951l-28.4,62.65a3.6,3.6,0,0,1-4.8,1.687l-99.746-45.22a3.6,3.6,0,0,1-1.9-4.726l28.4-62.65a3.605,3.605,0,0,1,4.8-1.688l99.746,45.22A3.6,3.6,0,0,1,2156.025,549.951Z" transform="translate(-2019.239 -498.035)" fill="#caf4ff"/>
            <path id="Trazado_45178" data-name="Trazado 45178" d="M2122.811,614.688a5.434,5.434,0,0,1-2.245-.489l-99.746-45.22a5.363,5.363,0,0,1-2.783-2.891,5.037,5.037,0,0,1,.074-3.992l28.4-62.649a5.238,5.238,0,0,1,6.962-2.5l99.746,45.22a5.363,5.363,0,0,1,2.784,2.892,5.037,5.037,0,0,1-.075,3.991h0l-28.4,62.65a5.037,5.037,0,0,1-2.952,2.687A5.315,5.315,0,0,1,2122.811,614.688ZM2051.23,499.719a1.888,1.888,0,0,0-1.748,1.073l-28.4,62.649a1.807,1.807,0,0,0-.017,1.432,2.117,2.117,0,0,0,1.1,1.137l99.746,45.22a2.122,2.122,0,0,0,1.584.081,1.805,1.805,0,0,0,1.064-.957l28.4-62.65h0a1.807,1.807,0,0,0,.018-1.432,2.118,2.118,0,0,0-1.1-1.137l-99.746-45.22A2.172,2.172,0,0,0,2051.23,499.719Z" transform="translate(-2017.662 -496.461)" fill="#0c6bc2"/>
          </g>
        </g>
        <g id="Grupo_18839" data-name="Grupo 18839" transform="translate(17.825 10.004)">
          <g id="Grupo_18837" data-name="Grupo 18837" transform="translate(0 16.974)">
            <line id="Línea_40" data-name="Línea 40" x1="105.569" y1="47.86" transform="translate(1.63 1.63)" fill="#fff"/>
            <path id="Trazado_45179" data-name="Trazado 45179" d="M2159.917,600.64a1.626,1.626,0,0,1-.672-.146l-105.569-47.859a1.63,1.63,0,0,1,1.345-2.969l105.569,47.859a1.63,1.63,0,0,1-.674,3.115Z" transform="translate(-2052.719 -549.52)" fill="#0c6bc2"/>
          </g>
          <g id="Grupo_18838" data-name="Grupo 18838" transform="translate(7.265)">
            <line id="Línea_41" data-name="Línea 41" x2="105.926" y2="48.021" transform="translate(1.63 1.63)" fill="#fff"/>
            <path id="Trazado_45180" data-name="Trazado 45180" d="M2174.562,567.418a1.628,1.628,0,0,1-.672-.145l-105.926-48.022a1.63,1.63,0,0,1,1.345-2.969L2175.236,564.3a1.63,1.63,0,0,1-.674,3.114Z" transform="translate(-2067.007 -516.136)" fill="#0c6bc2"/>
          </g>
        </g>
      </g>
      <g id="Grupo_18873" data-name="Grupo 18873" transform="translate(0 34.123)">
        <g id="Grupo_18841" data-name="Grupo 18841">
          <path id="Trazado_45181" data-name="Trazado 45181" d="M2141.191,569.967l.237,62.662c.007,1.77-1.762,3.214-3.953,3.222l-118,.446c-2.188.008-3.97-1.423-3.977-3.193l-.236-62.662c-.007-1.77,1.765-3.214,3.952-3.222l118-.445C2139.405,566.766,2141.184,568.2,2141.191,569.967Z" transform="translate(-2013.634 -565.145)" fill="#fff"/>
          <path id="Trazado_45182" data-name="Trazado 45182" d="M2017.883,636.351c-3.074,0-5.578-2.155-5.589-4.816l-.237-62.662c-.01-2.667,2.491-4.846,5.576-4.858l118-.445h.025a6.08,6.08,0,0,1,3.809,1.288,4.573,4.573,0,0,1,1.778,3.528l.237,62.661c.01,2.667-2.492,4.847-5.576,4.858l-118,.445Zm117.774-69.521h-.013l-118,.445c-1.243.005-2.332.746-2.329,1.587l.237,62.661c0,.837,1.09,1.569,2.329,1.569h.012l118-.445c1.244,0,2.332-.746,2.33-1.587l-.237-62.661h0a1.361,1.361,0,0,0-.56-1A2.855,2.855,0,0,0,2135.657,566.829Z" transform="translate(-2012.058 -563.57)" fill="#0c6bc2"/>
        </g>
        <g id="Grupo_18842" data-name="Grupo 18842" transform="translate(10.64 12.106)">
          <rect id="Rectángulo_3276" data-name="Rectángulo 3276" width="13.603" height="13.603" rx="6.802" transform="translate(1.59 1.696) rotate(-0.443)" fill="#64bdfa"/>
          <path id="Trazado_45183" data-name="Trazado 45183" d="M2039.777,604.268a6.768,6.768,0,0,1-6.767-6.716l-.026-3.326a6.776,6.776,0,0,1,6.716-6.82l3.327-.026h.054a6.769,6.769,0,0,1,6.766,6.716l.026,3.326a6.767,6.767,0,0,1-6.716,6.821l-3.326.026Zm3.3-13.629h-.028l-3.327.026a3.512,3.512,0,0,0-3.481,3.536l.025,3.326a3.509,3.509,0,0,0,3.508,3.482h.027l3.326-.026h0a3.509,3.509,0,0,0,3.482-3.536l-.026-3.326a3.507,3.507,0,0,0-3.507-3.482Z" transform="translate(-2032.985 -587.379)" fill="#0c6bc2"/>
        </g>
        <g id="Grupo_18843" data-name="Grupo 18843" transform="translate(90.821 51.652)">
          <path id="Trazado_45184" data-name="Trazado 45184" d="M2214.342,674.812a6.5,6.5,0,1,1-6.552-6.452A6.5,6.5,0,0,1,2214.342,674.812Z" transform="translate(-2192.252 -666.73)" fill="#64bdfa"/>
          <path id="Trazado_45185" data-name="Trazado 45185" d="M2198.8,681.474a10.1,10.1,0,0,1,7.4-16.319h.064a8.141,8.141,0,0,1,8.131,8.069h0a8.13,8.13,0,0,1-8.069,8.192h-.064a8.011,8.011,0,0,0-7.394.057Zm0-13h-.039a4.871,4.871,0,0,0,.037,9.742h.039a4.823,4.823,0,0,0,2.785-.9,1.629,1.629,0,0,1,1.876-.014,4.9,4.9,0,0,0,2.8.858,4.872,4.872,0,0,0,4.835-4.908h0a4.878,4.878,0,0,0-4.872-4.835h-.039a4.824,4.824,0,0,0-2.783.9,1.629,1.629,0,0,1-1.875.015A4.83,4.83,0,0,0,2198.807,668.472Z" transform="translate(-2190.677 -665.154)" fill="#0c6bc2"/>
        </g>
        <g id="Grupo_18847" data-name="Grupo 18847" transform="translate(32.503 9.359)">
          <g id="Grupo_18844" data-name="Grupo 18844" transform="translate(0 6.146)">
            <path id="Trazado_45186" data-name="Trazado 45186" d="M2079.188,597.27a3.787,3.787,0,0,1,.042,5.355" transform="translate(-2077.558 -595.64)" fill="#fff"/>
            <path id="Trazado_45187" data-name="Trazado 45187" d="M2077.654,602.678a1.63,1.63,0,0,1-1.162-2.773,2.159,2.159,0,0,0-.024-3.05,1.63,1.63,0,0,1,2.288-2.322,5.417,5.417,0,0,1,.06,7.659A1.626,1.626,0,0,1,2077.654,602.678Z" transform="translate(-2075.982 -594.064)" fill="#0c6bc2"/>
          </g>
          <g id="Grupo_18845" data-name="Grupo 18845" transform="translate(3.219 3.543)">
            <path id="Trazado_45188" data-name="Trazado 45188" d="M2085.519,592.15a7.432,7.432,0,0,1,.081,10.511" transform="translate(-2083.889 -590.52)" fill="#fff"/>
            <path id="Trazado_45189" data-name="Trazado 45189" d="M2084.025,602.715a1.63,1.63,0,0,1-1.162-2.773,5.8,5.8,0,0,0-.063-8.206,1.63,1.63,0,1,1,2.287-2.323,9.063,9.063,0,0,1,.1,12.816A1.625,1.625,0,0,1,2084.025,602.715Z" transform="translate(-2082.313 -588.944)" fill="#0c6bc2"/>
          </g>
          <g id="Grupo_18846" data-name="Grupo 18846" transform="translate(6.052)">
            <path id="Trazado_45190" data-name="Trazado 45190" d="M2091.089,585.183a12.411,12.411,0,0,1,.135,17.552" transform="translate(-2089.459 -583.553)" fill="#fff"/>
            <path id="Trazado_45191" data-name="Trazado 45191" d="M2089.649,602.788a1.629,1.629,0,0,1-1.161-2.773,10.794,10.794,0,0,0-.118-15.247,1.63,1.63,0,0,1,2.287-2.323,14.058,14.058,0,0,1,.154,19.857A1.626,1.626,0,0,1,2089.649,602.788Z" transform="translate(-2087.884 -581.977)" fill="#0c6bc2"/>
          </g>
        </g>
        <g id="Grupo_18848" data-name="Grupo 18848" transform="translate(79.603 18.573)">
          <line id="Línea_42" data-name="Línea 42" y1="0.088" x2="11.406" transform="translate(1.63 1.63)" fill="#fff"/>
          <path id="Trazado_45192" data-name="Trazado 45192" d="M2170.244,603.445a1.63,1.63,0,0,1-.011-3.259l11.406-.088h.013a1.63,1.63,0,0,1,.012,3.259l-11.406.089Z" transform="translate(-2168.615 -600.097)" fill="#0c6bc2"/>
        </g>
        <g id="Grupo_18849" data-name="Grupo 18849" transform="translate(61.016 18.733)">
          <line id="Línea_43" data-name="Línea 43" y1="0.088" x2="11.406" transform="translate(1.63 1.63)" fill="#fff"/>
          <path id="Trazado_45193" data-name="Trazado 45193" d="M2133.689,603.761a1.63,1.63,0,0,1-.012-3.26l11.406-.088h.012a1.63,1.63,0,0,1,.012,3.259l-11.406.088Z" transform="translate(-2132.06 -600.413)" fill="#0c6bc2"/>
        </g>
        <g id="Grupo_18850" data-name="Grupo 18850" transform="translate(56.957 59.002)">
          <line id="Línea_44" data-name="Línea 44" y1="0.088" x2="11.406" transform="translate(1.63 1.63)" fill="#fff"/>
          <path id="Trazado_45194" data-name="Trazado 45194" d="M2125.705,682.958a1.63,1.63,0,0,1-.012-3.259l11.406-.089h.013a1.63,1.63,0,0,1,.012,3.259l-11.406.088Z" transform="translate(-2124.076 -679.61)" fill="#0c6bc2"/>
        </g>
        <g id="Grupo_18851" data-name="Grupo 18851" transform="translate(39.081 59.162)">
          <line id="Línea_45" data-name="Línea 45" y1="0.088" x2="11.406" transform="translate(1.63 1.63)" fill="#fff"/>
          <path id="Trazado_45195" data-name="Trazado 45195" d="M2090.549,683.273a1.63,1.63,0,0,1-.012-3.259l11.406-.088h.013a1.63,1.63,0,0,1,.012,3.259l-11.406.089Z" transform="translate(-2088.92 -679.925)" fill="#0c6bc2"/>
        </g>
        <g id="Grupo_18872" data-name="Grupo 18872" transform="translate(6.419 37.334)">
          <g id="Grupo_18856" data-name="Grupo 18856">
            <g id="Grupo_18852" data-name="Grupo 18852" transform="translate(5.957)">
              <path id="Trazado_45196" data-name="Trazado 45196" d="M2039.606,642.989l2.154-2.788v8.345" transform="translate(-2037.976 -638.571)" fill="#fff"/>
              <path id="Trazado_45197" data-name="Trazado 45197" d="M2040.183,648.6a1.629,1.629,0,0,1-1.63-1.63v-4.013a1.63,1.63,0,0,1-1.814-2.54l2.154-2.788a1.63,1.63,0,0,1,2.92,1v8.344A1.63,1.63,0,0,1,2040.183,648.6Z" transform="translate(-2036.4 -636.996)" fill="#0c6bc2"/>
            </g>
            <g id="Grupo_18853" data-name="Grupo 18853">
              <path id="Trazado_45198" data-name="Trazado 45198" d="M2027.889,642.989l2.154-2.788v8.345" transform="translate(-2026.259 -638.571)" fill="#fff"/>
              <path id="Trazado_45199" data-name="Trazado 45199" d="M2028.467,648.6a1.63,1.63,0,0,1-1.63-1.63v-4.013a1.63,1.63,0,0,1-1.814-2.54l2.153-2.788a1.63,1.63,0,0,1,2.919,1v8.344A1.629,1.629,0,0,1,2028.467,648.6Z" transform="translate(-2024.684 -636.996)" fill="#0c6bc2"/>
            </g>
            <g id="Grupo_18854" data-name="Grupo 18854" transform="translate(12.02)">
              <path id="Trazado_45200" data-name="Trazado 45200" d="M2051.529,642.989l2.153-2.788v8.345" transform="translate(-2049.899 -638.571)" fill="#fff"/>
              <path id="Trazado_45201" data-name="Trazado 45201" d="M2052.106,648.6a1.629,1.629,0,0,1-1.629-1.63v-4.013a1.63,1.63,0,0,1-1.814-2.54l2.154-2.788a1.63,1.63,0,0,1,2.92,1v8.344A1.63,1.63,0,0,1,2052.106,648.6Z" transform="translate(-2048.323 -636.996)" fill="#0c6bc2"/>
            </g>
            <g id="Grupo_18855" data-name="Grupo 18855" transform="translate(17.403)">
              <path id="Trazado_45202" data-name="Trazado 45202" d="M2062.115,642.989l2.154-2.788v8.345" transform="translate(-2060.485 -638.571)" fill="#fff"/>
              <path id="Trazado_45203" data-name="Trazado 45203" d="M2062.693,648.6a1.63,1.63,0,0,1-1.63-1.63v-4.013a1.63,1.63,0,0,1-1.814-2.54l2.153-2.788a1.63,1.63,0,0,1,2.92,1v8.344A1.63,1.63,0,0,1,2062.693,648.6Z" transform="translate(-2058.91 -636.996)" fill="#0c6bc2"/>
            </g>
          </g>
          <g id="Grupo_18861" data-name="Grupo 18861" transform="translate(30.452)">
            <g id="Grupo_18857" data-name="Grupo 18857" transform="translate(5.958)">
              <path id="Trazado_45204" data-name="Trazado 45204" d="M2099.5,642.989l2.154-2.788v8.345" transform="translate(-2097.867 -638.571)" fill="#fff"/>
              <path id="Trazado_45205" data-name="Trazado 45205" d="M2100.075,648.6a1.63,1.63,0,0,1-1.63-1.63v-4.013a1.63,1.63,0,0,1-1.813-2.54l2.153-2.788a1.63,1.63,0,0,1,2.92,1v8.344A1.63,1.63,0,0,1,2100.075,648.6Z" transform="translate(-2096.292 -636.996)" fill="#0c6bc2"/>
            </g>
            <g id="Grupo_18858" data-name="Grupo 18858">
              <path id="Trazado_45206" data-name="Trazado 45206" d="M2087.78,642.989l2.154-2.788v8.345" transform="translate(-2086.15 -638.571)" fill="#fff"/>
              <path id="Trazado_45207" data-name="Trazado 45207" d="M2088.358,648.6a1.629,1.629,0,0,1-1.63-1.63v-4.013a1.63,1.63,0,0,1-1.814-2.54l2.154-2.788a1.63,1.63,0,0,1,2.919,1v8.344A1.63,1.63,0,0,1,2088.358,648.6Z" transform="translate(-2084.575 -636.996)" fill="#0c6bc2"/>
            </g>
            <g id="Grupo_18859" data-name="Grupo 18859" transform="translate(12.02)">
              <path id="Trazado_45208" data-name="Trazado 45208" d="M2111.42,642.989l2.154-2.788v8.345" transform="translate(-2109.79 -638.571)" fill="#fff"/>
              <path id="Trazado_45209" data-name="Trazado 45209" d="M2112,648.6a1.63,1.63,0,0,1-1.63-1.63v-4.013a1.63,1.63,0,0,1-1.813-2.54l2.153-2.788a1.63,1.63,0,0,1,2.92,1v8.344A1.629,1.629,0,0,1,2112,648.6Z" transform="translate(-2108.215 -636.996)" fill="#0c6bc2"/>
            </g>
            <g id="Grupo_18860" data-name="Grupo 18860" transform="translate(17.403)">
              <path id="Trazado_45210" data-name="Trazado 45210" d="M2122.006,642.989l2.153-2.788v8.345" transform="translate(-2120.376 -638.571)" fill="#fff"/>
              <path id="Trazado_45211" data-name="Trazado 45211" d="M2122.584,648.6a1.63,1.63,0,0,1-1.63-1.63v-4.013a1.63,1.63,0,0,1-1.814-2.54l2.154-2.788a1.63,1.63,0,0,1,2.919,1v8.344A1.629,1.629,0,0,1,2122.584,648.6Z" transform="translate(-2118.801 -636.996)" fill="#0c6bc2"/>
            </g>
          </g>
          <g id="Grupo_18866" data-name="Grupo 18866" transform="translate(60.905)">
            <g id="Grupo_18862" data-name="Grupo 18862" transform="translate(5.958)">
              <path id="Trazado_45212" data-name="Trazado 45212" d="M2159.388,642.989l2.153-2.788v8.345" transform="translate(-2157.759 -638.571)" fill="#fff"/>
              <path id="Trazado_45213" data-name="Trazado 45213" d="M2159.966,648.6a1.63,1.63,0,0,1-1.63-1.63v-4.013a1.63,1.63,0,0,1-1.813-2.54l2.153-2.788a1.63,1.63,0,0,1,2.92,1v8.344A1.629,1.629,0,0,1,2159.966,648.6Z" transform="translate(-2156.183 -636.996)" fill="#0c6bc2"/>
            </g>
            <g id="Grupo_18863" data-name="Grupo 18863">
              <path id="Trazado_45214" data-name="Trazado 45214" d="M2147.672,642.989l2.153-2.788v8.345" transform="translate(-2146.042 -638.571)" fill="#fff"/>
              <path id="Trazado_45215" data-name="Trazado 45215" d="M2148.249,648.6a1.63,1.63,0,0,1-1.629-1.63v-4.013a1.63,1.63,0,0,1-1.813-2.54l2.153-2.788a1.629,1.629,0,0,1,2.919,1v8.344A1.629,1.629,0,0,1,2148.249,648.6Z" transform="translate(-2144.467 -636.996)" fill="#0c6bc2"/>
            </g>
            <g id="Grupo_18864" data-name="Grupo 18864" transform="translate(12.019)">
              <path id="Trazado_45216" data-name="Trazado 45216" d="M2171.312,642.989l2.153-2.788v8.345" transform="translate(-2169.682 -638.571)" fill="#fff"/>
              <path id="Trazado_45217" data-name="Trazado 45217" d="M2171.889,648.6a1.629,1.629,0,0,1-1.63-1.63v-4.013a1.63,1.63,0,0,1-1.814-2.54l2.154-2.788a1.63,1.63,0,0,1,2.919,1v8.344A1.63,1.63,0,0,1,2171.889,648.6Z" transform="translate(-2168.105 -636.996)" fill="#0c6bc2"/>
            </g>
            <g id="Grupo_18865" data-name="Grupo 18865" transform="translate(17.402)">
              <path id="Trazado_45218" data-name="Trazado 45218" d="M2181.9,642.989l2.154-2.788v8.345" transform="translate(-2180.268 -638.571)" fill="#fff"/>
              <path id="Trazado_45219" data-name="Trazado 45219" d="M2182.475,648.6a1.629,1.629,0,0,1-1.63-1.63v-4.013a1.63,1.63,0,0,1-1.814-2.54l2.154-2.788a1.63,1.63,0,0,1,2.92,1v8.344A1.63,1.63,0,0,1,2182.475,648.6Z" transform="translate(-2178.692 -636.996)" fill="#0c6bc2"/>
            </g>
          </g>
          <g id="Grupo_18871" data-name="Grupo 18871" transform="translate(91.357)">
            <g id="Grupo_18867" data-name="Grupo 18867" transform="translate(5.958)">
              <path id="Trazado_45220" data-name="Trazado 45220" d="M2219.28,642.989l2.154-2.788v8.345" transform="translate(-2217.649 -638.571)" fill="#fff"/>
              <path id="Trazado_45221" data-name="Trazado 45221" d="M2219.857,648.6a1.629,1.629,0,0,1-1.63-1.63v-4.013a1.63,1.63,0,0,1-1.814-2.54l2.154-2.788a1.63,1.63,0,0,1,2.92,1v8.344A1.63,1.63,0,0,1,2219.857,648.6Z" transform="translate(-2216.073 -636.996)" fill="#0c6bc2"/>
            </g>
            <g id="Grupo_18868" data-name="Grupo 18868">
              <path id="Trazado_45222" data-name="Trazado 45222" d="M2207.563,642.989l2.154-2.788v8.345" transform="translate(-2205.933 -638.571)" fill="#fff"/>
              <path id="Trazado_45223" data-name="Trazado 45223" d="M2208.14,648.6a1.629,1.629,0,0,1-1.629-1.63v-4.013a1.63,1.63,0,0,1-1.814-2.54l2.154-2.788a1.63,1.63,0,0,1,2.919,1v8.344A1.63,1.63,0,0,1,2208.14,648.6Z" transform="translate(-2204.357 -636.996)" fill="#0c6bc2"/>
            </g>
            <g id="Grupo_18869" data-name="Grupo 18869" transform="translate(12.02)">
              <path id="Trazado_45224" data-name="Trazado 45224" d="M2231.2,642.989l2.154-2.788v8.345" transform="translate(-2229.573 -638.571)" fill="#fff"/>
              <path id="Trazado_45225" data-name="Trazado 45225" d="M2231.78,648.6a1.63,1.63,0,0,1-1.63-1.63v-4.013a1.63,1.63,0,0,1-1.813-2.54l2.153-2.788a1.63,1.63,0,0,1,2.92,1v8.344A1.63,1.63,0,0,1,2231.78,648.6Z" transform="translate(-2227.997 -636.996)" fill="#0c6bc2"/>
            </g>
            <g id="Grupo_18870" data-name="Grupo 18870" transform="translate(17.403)">
              <path id="Trazado_45226" data-name="Trazado 45226" d="M2241.789,642.989l2.153-2.788v8.345" transform="translate(-2240.159 -638.571)" fill="#fff"/>
              <path id="Trazado_45227" data-name="Trazado 45227" d="M2242.367,648.6a1.63,1.63,0,0,1-1.63-1.63v-4.013a1.63,1.63,0,0,1-1.814-2.54l2.153-2.788a1.63,1.63,0,0,1,2.919,1v8.344A1.629,1.629,0,0,1,2242.367,648.6Z" transform="translate(-2238.583 -636.996)" fill="#0c6bc2"/>
            </g>
          </g>
        </g>
      </g>
    </g>
  </g>
</svg>
