<svg xmlns="http://www.w3.org/2000/svg" width="274.111" height="264.698" viewBox="0 0 274.111 264.698">
  <g id="Grupo_18934" data-name="Grupo 18934" transform="translate(-4798.01 -579.792)">
    <g id="Grupo_18894" data-name="Grupo 18894" transform="translate(4839.708 579.792)">
      <g id="Grupo_18893" data-name="Grupo 18893" transform="translate(0 32.433)">
        <g id="Grupo_18892" data-name="Grupo 18892">
          <g id="Grupo_18891" data-name="Grupo 18891">
            <g id="Grupo_18890" data-name="Grupo 18890">
              <g id="Grupo_18889" data-name="Grupo 18889">
                <g id="Grupo_18888" data-name="Grupo 18888">
                  <g id="Grupo_18887" data-name="Grupo 18887">
                    <g id="Grupo_18886" data-name="Grupo 18886">
                      <g id="Grupo_18885" data-name="Grupo 18885">
                        <g id="Grupo_18884" data-name="Grupo 18884">
                          <g id="Grupo_18883" data-name="Grupo 18883">
                            <g id="Grupo_18882" data-name="Grupo 18882">
                              <g id="Grupo_18881" data-name="Grupo 18881">
                                <g id="Grupo_18880" data-name="Grupo 18880">
                                  <g id="Grupo_18879" data-name="Grupo 18879">
                                    <g id="Grupo_18878" data-name="Grupo 18878">
                                      <g id="Grupo_18877" data-name="Grupo 18877">
                                        <g id="Grupo_18876" data-name="Grupo 18876">
                                          <ellipse id="Elipse_1479" data-name="Elipse 1479" cx="99.956" cy="99.882" rx="99.956" ry="99.882" fill="#92e0ff"/>
                                        </g>
                                      </g>
                                    </g>
                                  </g>
                                </g>
                              </g>
                            </g>
                          </g>
                        </g>
                      </g>
                    </g>
                  </g>
                </g>
              </g>
            </g>
          </g>
        </g>
      </g>
      <path id="Trazado_45228" data-name="Trazado 45228" d="M4969.167,616.811a1.63,1.63,0,0,1-1.1-2.832,131.525,131.525,0,0,1,10.165-8.421,1.63,1.63,0,0,1,1.951,2.612,128.149,128.149,0,0,0-9.913,8.211A1.625,1.625,0,0,1,4969.167,616.811Zm20.865-15.578a1.63,1.63,0,0,1-.84-3.028A130.5,130.5,0,0,1,5000.844,592a1.63,1.63,0,0,1,1.385,2.952A127.339,127.339,0,0,0,4990.869,601,1.621,1.621,0,0,1,4990.033,601.233Zm23.572-11.057a1.631,1.631,0,0,1-.539-3.169,129.831,129.831,0,0,1,12.668-3.719,1.63,1.63,0,0,1,.758,3.171,126.547,126.547,0,0,0-12.349,3.625A1.624,1.624,0,0,1,5013.6,590.176Zm64.3-5.356a1.663,1.663,0,0,1-.276-.023,127.713,127.713,0,0,0-12.781-1.517,1.63,1.63,0,0,1,.221-3.253,131.005,131.005,0,0,1,13.107,1.556,1.63,1.63,0,0,1-.271,3.238Zm-38.973-.7a1.63,1.63,0,0,1-.213-3.246,131.7,131.7,0,0,1,13.154-1.085h.053a1.63,1.63,0,0,1,.051,3.26,128.389,128.389,0,0,0-12.827,1.058A1.679,1.679,0,0,1,5038.927,584.124Z" transform="translate(-4958.313 -579.792)" fill="#0c6bc2"/>
      <path id="Trazado_45229" data-name="Trazado 45229" d="M5649.87,978.282a1.631,1.631,0,0,1-1.486-2.3,126.745,126.745,0,0,0,4.651-12,1.63,1.63,0,1,1,3.1,1.022,129.675,129.675,0,0,1-4.771,12.309A1.63,1.63,0,0,1,5649.87,978.282Zm8.162-24.725a1.631,1.631,0,0,1-1.593-1.981,127.5,127.5,0,0,0,2.124-12.692,1.63,1.63,0,0,1,3.239.374,130.3,130.3,0,0,1-2.179,13.019A1.63,1.63,0,0,1,5658.032,953.557Zm2.993-25.863H5661a1.63,1.63,0,0,1-1.606-1.654q.014-.949.015-1.9c0-3.653-.157-7.342-.467-10.964a1.63,1.63,0,0,1,3.249-.278c.317,3.713.478,7.5.478,11.242q0,.977-.014,1.949A1.63,1.63,0,0,1,5661.025,927.694ZM5658.8,901.75a1.631,1.631,0,0,1-1.6-1.328,126.77,126.77,0,0,0-3.029-12.508,1.63,1.63,0,1,1,3.125-.928,129.986,129.986,0,0,1,3.107,12.831,1.632,1.632,0,0,1-1.6,1.933Z" transform="translate(-5430.257 -791.629)" fill="#0c6bc2"/>
      <path id="Trazado_45230" data-name="Trazado 45230" d="M5070.346,1373.083c-3.1,0-6.233-.11-9.312-.328a1.63,1.63,0,0,1,.229-3.252c4.252.3,8.6.39,12.871.264a1.63,1.63,0,0,1,.095,3.259C5072.942,1373.064,5071.636,1373.083,5070.346,1373.083Zm16.828-1.09a1.63,1.63,0,0,1-.209-3.247c4.125-.539,8.266-1.289,12.308-2.23a1.63,1.63,0,1,1,.739,3.175c-4.146.965-8.394,1.735-12.625,2.288A1.681,1.681,0,0,1,5087.174,1371.992Zm-38.958-.806a1.626,1.626,0,0,1-.28-.024,129.868,129.868,0,0,1-12.871-2.913,1.63,1.63,0,1,1,.88-3.139,126.7,126.7,0,0,0,12.547,2.84,1.63,1.63,0,0,1-.276,3.236Zm-25.062-7.032a1.629,1.629,0,0,1-.6-.114,130.139,130.139,0,0,1-12.015-5.462,1.63,1.63,0,1,1,1.5-2.9,127.034,127.034,0,0,0,11.713,5.324,1.63,1.63,0,0,1-.6,3.147Zm-23.123-11.963a1.62,1.62,0,0,1-.89-.266,131.121,131.121,0,0,1-10.669-7.771,1.63,1.63,0,0,1,2.05-2.535,127.937,127.937,0,0,0,10.4,7.577,1.63,1.63,0,0,1-.894,2.995Z" transform="translate(-4972.535 -1108.385)" fill="#0c6bc2"/>
    </g>
    <g id="Grupo_18904" data-name="Grupo 18904" transform="translate(4943.23 727.387)">
      <g id="Grupo_18897" data-name="Grupo 18897" transform="translate(55.112 33.009)">
        <g id="Grupo_18895" data-name="Grupo 18895" transform="translate(15.975)">
          <path id="Trazado_45231" data-name="Trazado 45231" d="M5523.152,1209.751l-13.886-24.051,13.226-2.664a3.26,3.26,0,0,0,1.892-1.147l7.442-9.213,10.569,18.308a13.244,13.244,0,0,1,1.709,5,10.957,10.957,0,0,1-3.359,9.867c-3.523,3.153-8.062,3.619-10.651,3.87Z" transform="translate(-5507.636 -1171.046)" fill="#fff"/>
          <path id="Trazado_45232" data-name="Trazado 45232" d="M5519.355,1207.585a1.632,1.632,0,0,1-1.412-.815l-13.885-24.051a1.63,1.63,0,0,1,1.089-2.413l13.226-2.665a1.63,1.63,0,0,0,.945-.573l7.442-9.213a1.63,1.63,0,0,1,2.68.209l10.57,18.307a14.822,14.822,0,0,1,1.915,5.615,12.533,12.533,0,0,1-3.89,11.282c-3.952,3.536-8.914,4.019-11.58,4.278-.05,0-.1.007-.15.007l-6.942.031Zm-11.339-24.531,12.278,21.267,5.921-.026c2.463-.24,6.521-.66,9.646-3.456a9.4,9.4,0,0,0,2.828-8.453,11.562,11.562,0,0,0-1.5-4.383l-9.382-16.251-5.95,7.366a4.9,4.9,0,0,1-2.837,1.721Z" transform="translate(-5503.84 -1167.25)" fill="#0c6bc2"/>
        </g>
        <g id="Grupo_18896" data-name="Grupo 18896" transform="translate(0 25.848)">
          <path id="Trazado_45233" data-name="Trazado 45233" d="M5505.519,1263.672l-17.332,26.479a8.865,8.865,0,0,1-7.509,3.98l-11.809-.146-.289,9.458-12.5-21.559,12.51-23.153.02,10.917s21.685.531,24.274.279,7.126-.717,10.65-3.871Z" transform="translate(-5454.454 -1257.099)" fill="#caf4ff"/>
          <path id="Trazado_45234" data-name="Trazado 45234" d="M5464.784,1301.275a1.63,1.63,0,0,1-1.41-.813l-12.5-21.559a1.63,1.63,0,0,1-.024-1.592l12.509-23.153a1.63,1.63,0,0,1,3.064.772l.017,9.327c6.848.159,20.606.432,22.489.249,2.433-.237,6.49-.631,9.634-3.386l1.9-2.287a1.63,1.63,0,0,1,2.617,1.935l-17.332,26.479a10.478,10.478,0,0,1-8.893,4.717l-10.208-.126-.24,7.857a1.631,1.631,0,0,1-1.629,1.581Zm-10.628-23.218,9.172,15.825.114-3.745a1.63,1.63,0,0,1,1.629-1.581h.021l11.81.147h.091a7.205,7.205,0,0,0,6.036-3.249l12.354-18.873a26.685,26.685,0,0,1-6.135,1.168c-2.613.255-22.242-.218-24.472-.272a1.63,1.63,0,0,1-1.59-1.627l-.008-4.494Z" transform="translate(-5450.658 -1253.301)" fill="#0c6bc2"/>
        </g>
      </g>
      <g id="Grupo_18900" data-name="Grupo 18900" transform="translate(18.176 0)">
        <g id="Grupo_18898" data-name="Grupo 18898">
          <path id="Trazado_45235" data-name="Trazado 45235" d="M5369.528,1076.568l-13.809,24.095-8.952-10.093a3.261,3.261,0,0,0-1.942-1.059l-11.706-1.8,10.511-18.341a13.264,13.264,0,0,1,3.462-3.99,10.958,10.958,0,0,1,10.218-2.057c4.5,1.461,7.181,5.149,8.7,7.26Z" transform="translate(-5331.489 -1061.17)" fill="#fff"/>
          <path id="Trazado_45236" data-name="Trazado 45236" d="M5351.922,1098.483a1.628,1.628,0,0,1-1.219-.549l-8.953-10.093a1.638,1.638,0,0,0-.972-.529l-11.705-1.8a1.63,1.63,0,0,1-1.167-2.422l10.511-18.341a14.836,14.836,0,0,1,3.891-4.478,12.533,12.533,0,0,1,11.708-2.31c5.043,1.638,7.956,5.685,9.52,7.859a1.5,1.5,0,0,1,.083.126l3.517,5.986a1.63,1.63,0,0,1,.009,1.637l-13.808,24.095a1.629,1.629,0,0,1-1.247.811A1.654,1.654,0,0,1,5351.922,1098.483Zm-20-15.833,9.358,1.44a4.9,4.9,0,0,1,2.915,1.588l7.446,8.4,12.211-21.305-3-5.1c-1.446-2.009-3.851-5.306-7.837-6.6a9.4,9.4,0,0,0-8.729,1.805,11.589,11.589,0,0,0-3.033,3.5Z" transform="translate(-5327.692 -1057.359)" fill="#0c6bc2"/>
        </g>
        <g id="Grupo_18899" data-name="Grupo 18899" transform="translate(21.136 0.007)">
          <path id="Trazado_45237" data-name="Trazado 45237" d="M5403.484,1062.813l31.6,1.67a8.864,8.864,0,0,1,7.214,4.489l5.812,10.282,8.32-4.505-12.354,21.641-26.3.827,9.426-5.506s-10.443-19.012-11.962-21.123-4.2-5.8-8.7-7.26Z" transform="translate(-5401.854 -1061.182)" fill="#caf4ff"/>
          <path id="Trazado_45238" data-name="Trazado 45238" d="M5413.979,1095.049a1.63,1.63,0,0,1-.822-3.038l8.055-4.7c-3.305-6-9.987-18.03-11.092-19.565-1.428-1.984-3.81-5.293-7.771-6.626l-2.933-.494a1.63,1.63,0,0,1,.356-3.235l31.6,1.67a10.454,10.454,0,0,1,8.549,5.315l5.023,8.888,6.913-3.743a1.63,1.63,0,0,1,2.191,2.242L5441.7,1093.4a1.63,1.63,0,0,1-1.365.821l-26.3.827Zm-5.306-33.927a26.731,26.731,0,0,1,4.094,4.715c1.533,2.13,10.995,19.336,12.068,21.291a1.631,1.631,0,0,1-.606,2.192l-3.881,2.267,18.972-.6,9.068-15.886-3.295,1.785a1.63,1.63,0,0,1-2.2-.631l-5.811-10.282a7.2,7.2,0,0,0-5.888-3.664Z" transform="translate(-5398.057 -1057.384)" fill="#0c6bc2"/>
        </g>
      </g>
      <g id="Grupo_18903" data-name="Grupo 18903" transform="translate(0 36.684)">
        <g id="Grupo_18901" data-name="Grupo 18901" transform="translate(14.911 31.681)">
          <path id="Trazado_45239" data-name="Trazado 45239" d="M5327.856,1290.55l27.771-.17-4.227,12.812a3.262,3.262,0,0,0,.061,2.211l4.326,11.025-21.14.13a13.262,13.262,0,0,1-5.189-.988,10.958,10.958,0,0,1-6.914-7.8c-1-4.623.843-8.8,1.9-11.171Z" transform="translate(-5320.625 -1288.75)" fill="#fff"/>
          <path id="Trazado_45240" data-name="Trazado 45240" d="M5330.756,1314.391a14.8,14.8,0,0,1-5.727-1.114,12.528,12.528,0,0,1-7.88-8.961c-1.119-5.184.917-9.735,2.01-12.18q.031-.069.067-.135l3.408-6.049a1.629,1.629,0,0,1,1.41-.83l27.771-.171h.01a1.631,1.631,0,0,1,1.548,2.141l-4.227,12.812a1.632,1.632,0,0,0,.031,1.105l4.325,11.025a1.63,1.63,0,0,1-1.508,2.226l-21.14.13Zm-8.651-20.855c-1.01,2.26-2.653,5.995-1.769,10.093a9.4,9.4,0,0,0,5.947,6.64,11.6,11.6,0,0,0,4.553.863l18.764-.115-3.458-8.814a4.9,4.9,0,0,1-.093-3.317l3.516-10.657-24.556.151Z" transform="translate(-5316.824 -1284.952)" fill="#0c6bc2"/>
        </g>
        <g id="Grupo_18902" data-name="Grupo 18902">
          <path id="Trazado_45241" data-name="Trazado 45241" d="M5288.9,1236.882l-14.438-28.161a8.869,8.869,0,0,1,.255-8.494l5.97-10.191-8.077-4.929,24.918-.2,13.934,22.325-9.5-5.383s-11.188,18.583-12.25,20.958-2.9,6.548-1.9,11.17Z" transform="translate(-5270.979 -1183.281)" fill="#caf4ff"/>
          <path id="Trazado_45242" data-name="Trazado 45242" d="M5285.1,1234.716a1.631,1.631,0,0,1-1.452-.887l-14.438-28.161a10.457,10.457,0,0,1,.3-10.062l5.16-8.809-6.709-4.1a1.63,1.63,0,0,1,.836-3.022l24.918-.2h.013a1.629,1.629,0,0,1,1.383.767l13.934,22.325a1.63,1.63,0,0,1-2.187,2.281l-8.115-4.6c-3.525,5.872-10.569,17.7-11.341,19.422-1,2.232-2.662,5.953-1.823,10.048l1.047,2.784a1.63,1.63,0,0,1-1.525,2.2ZM5274.54,1182.9l3.2,1.952a1.63,1.63,0,0,1,.557,2.215l-5.968,10.191a7.205,7.205,0,0,0-.209,6.932l10.292,20.072a26.713,26.713,0,0,1,2.019-5.909c1.071-2.4,11.191-19.223,12.342-21.133a1.629,1.629,0,0,1,2.2-.577l3.911,2.216-10.05-16.1Z" transform="translate(-5267.183 -1179.484)" fill="#0c6bc2"/>
        </g>
      </g>
    </g>
    <g id="Grupo_18920" data-name="Grupo 18920" transform="translate(4798.01 638.256)">
      <g id="Grupo_18913" data-name="Grupo 18913" transform="translate(0)">
        <g id="Grupo_18905" data-name="Grupo 18905" transform="translate(6.259 28.412)">
          <path id="Trazado_45243" data-name="Trazado 45243" d="M4907.83,990.054h-65.744c-4.353,0-7.993-3.872-8.408-8.944l-9.4-114.667h101.368l-9.4,114.667C4915.823,986.182,4912.183,990.054,4907.83,990.054Z" transform="translate(-4822.643 -864.813)" fill="#fff"/>
          <path id="Trazado_45244" data-name="Trazado 45244" d="M4904.033,987.887h-65.744c-5.232,0-9.546-4.489-10.034-10.441l-9.4-114.667a1.631,1.631,0,0,1,1.625-1.763h101.369a1.631,1.631,0,0,1,1.625,1.763l-9.4,114.667C4913.578,983.4,4909.265,987.887,4904.033,987.887Zm-81.787-123.611,9.259,112.9c.348,4.246,3.264,7.447,6.784,7.447h65.744c3.519,0,6.436-3.2,6.784-7.447l9.259-112.9Z" transform="translate(-4818.846 -861.016)" fill="#0c6bc2"/>
        </g>
        <g id="Grupo_18906" data-name="Grupo 18906" transform="translate(0 18.112)">
          <rect id="Rectángulo_3277" data-name="Rectángulo 3277" width="113.887" height="10.3" transform="translate(1.63 1.63)" fill="#caf4ff"/>
          <path id="Trazado_45245" data-name="Trazado 45245" d="M4913.526,840.287H4799.64a1.631,1.631,0,0,1-1.63-1.63v-10.3a1.63,1.63,0,0,1,1.63-1.63h113.886a1.63,1.63,0,0,1,1.63,1.63v10.3A1.63,1.63,0,0,1,4913.526,840.287Zm-112.257-3.261H4911.9v-7.039H4801.27Z" transform="translate(-4798.01 -826.726)" fill="#0c6bc2"/>
        </g>
        <g id="Grupo_18907" data-name="Grupo 18907" transform="translate(6.259 5.751)">
          <path id="Rectángulo_3278" data-name="Rectángulo 3278" d="M12.361,0H89.007a12.361,12.361,0,0,1,12.361,12.361v0a0,0,0,0,1,0,0H0a0,0,0,0,1,0,0v0A12.361,12.361,0,0,1,12.361,0Z" transform="translate(1.63 1.63)" fill="#65bffc"/>
          <path id="Trazado_45246" data-name="Trazado 45246" d="M4921.845,801.2H4820.477a1.63,1.63,0,0,1-1.63-1.63v-1.645a12.36,12.36,0,0,1,12.346-12.346h79.936a12.36,12.36,0,0,1,12.346,12.346v1.645A1.631,1.631,0,0,1,4921.845,801.2Zm-99.738-3.261h98.108v-.015a9.1,9.1,0,0,0-9.086-9.086h-79.936a9.1,9.1,0,0,0-9.086,9.086Z" transform="translate(-4818.847 -785.575)" fill="#0c6bc2"/>
        </g>
        <g id="Grupo_18908" data-name="Grupo 18908" transform="translate(43.294)">
          <rect id="Rectángulo_3279" data-name="Rectángulo 3279" width="25.834" height="5.751" transform="translate(1.63 1.63)" fill="#fff"/>
          <path id="Trazado_45247" data-name="Trazado 45247" d="M4969.6,775.44h-25.834a1.63,1.63,0,0,1-1.63-1.63v-5.751a1.63,1.63,0,0,1,1.63-1.63H4969.6a1.63,1.63,0,0,1,1.63,1.63v5.751A1.63,1.63,0,0,1,4969.6,775.44Zm-24.2-3.26h22.574v-2.491H4945.4Z" transform="translate(-4942.139 -766.428)" fill="#0c6bc2"/>
        </g>
        <g id="Grupo_18909" data-name="Grupo 18909" transform="translate(67.159 123.059)">
          <path id="Trazado_45248" data-name="Trazado 45248" d="M5027.016,1210.5v-8.564a20.4,20.4,0,0,1,20.4-20.4h12.156" transform="translate(-5025.386 -1179.901)" fill="#fff"/>
          <path id="Trazado_45249" data-name="Trazado 45249" d="M5023.219,1208.328a1.63,1.63,0,0,1-1.63-1.63v-8.564a22.055,22.055,0,0,1,22.03-22.03h12.156a1.63,1.63,0,1,1,0,3.261h-12.156a18.79,18.79,0,0,0-18.769,18.769v8.564A1.63,1.63,0,0,1,5023.219,1208.328Z" transform="translate(-5021.589 -1176.104)" fill="#0c6bc2"/>
        </g>
        <g id="Grupo_18910" data-name="Grupo 18910" transform="translate(72.751 128.293)">
          <circle id="Elipse_1480" data-name="Elipse 1480" cx="16.168" cy="16.168" r="16.168" transform="translate(1.63 1.63)" fill="#65bffc"/>
          <path id="Trazado_45250" data-name="Trazado 45250" d="M5058,1229.126a17.8,17.8,0,1,1,17.8-17.8A17.818,17.818,0,0,1,5058,1229.126Zm0-32.336a14.538,14.538,0,1,0,14.538,14.538A14.554,14.554,0,0,0,5058,1196.79Z" transform="translate(-5040.206 -1193.529)" fill="#0c6bc2"/>
        </g>
        <g id="Grupo_18911" data-name="Grupo 18911" transform="translate(24.464 145.492)">
          <circle id="Elipse_1481" data-name="Elipse 1481" cx="7.237" cy="7.237" r="7.237" transform="translate(1.63 1.63)" fill="#fff"/>
          <path id="Trazado_45251" data-name="Trazado 45251" d="M4888.321,1268.522a8.868,8.868,0,1,1,8.867-8.868A8.878,8.878,0,0,1,4888.321,1268.522Zm0-14.475a5.607,5.607,0,1,0,5.607,5.607A5.614,5.614,0,0,0,4888.321,1254.047Z" transform="translate(-4879.453 -1250.787)" fill="#0c6bc2"/>
        </g>
        <g id="Grupo_18912" data-name="Grupo 18912" transform="translate(84.649 140.191)">
          <circle id="Elipse_1482" data-name="Elipse 1482" cx="4.27" cy="4.27" r="4.27" transform="translate(1.63 1.63)" fill="#fff"/>
          <path id="Trazado_45252" data-name="Trazado 45252" d="M5085.714,1244.939a5.9,5.9,0,1,1,5.9-5.9A5.907,5.907,0,0,1,5085.714,1244.939Zm0-8.541a2.64,2.64,0,1,0,2.641,2.64A2.643,2.643,0,0,0,5085.714,1236.4Z" transform="translate(-5079.814 -1233.138)" fill="#0c6bc2"/>
        </g>
      </g>
      <g id="Grupo_18914" data-name="Grupo 18914" transform="translate(62.557 63.803)">
        <path id="Trazado_45253" data-name="Trazado 45253" d="M5011.694,994.7l12.287-.347,5.8-10.09" transform="translate(-5010.064 -982.631)" fill="#fff"/>
        <path id="Trazado_45254" data-name="Trazado 45254" d="M5007.9,992.532a1.63,1.63,0,0,1-.045-3.26l11.375-.321,5.347-9.3a1.63,1.63,0,0,1,2.827,1.625l-5.8,10.09a1.632,1.632,0,0,1-1.368.817l-12.287.347Z" transform="translate(-5006.268 -978.834)" fill="#0c6bc2"/>
      </g>
      <g id="Grupo_18915" data-name="Grupo 18915" transform="translate(44.742 53.561)">
        <path id="Trazado_45255" data-name="Trazado 45255" d="M4952.389,966.528l5.854-11.635a8.593,8.593,0,0,1,8.148-4.717h0a8.592,8.592,0,0,1,7.01,4.356l9.1,16.116" transform="translate(-4950.758 -948.534)" fill="#fff"/>
        <path id="Trazado_45256" data-name="Trazado 45256" d="M4978.7,968.483a1.628,1.628,0,0,1-1.42-.829l-9.1-16.116a6.963,6.963,0,0,0-12.283.293l-5.854,11.634a1.63,1.63,0,0,1-2.913-1.465l5.855-11.635a10.223,10.223,0,0,1,18.034-.43l9.1,16.116a1.631,1.631,0,0,1-1.418,2.432Z" transform="translate(-4946.959 -944.738)" fill="#0c6bc2"/>
      </g>
      <g id="Grupo_18916" data-name="Grupo 18916" transform="translate(59.798 93.737)">
        <path id="Trazado_45257" data-name="Trazado 45257" d="M5008.263,1083.916l-5.752,10.863,5.921,10.021" transform="translate(-5000.88 -1082.285)" fill="#fff"/>
        <path id="Trazado_45258" data-name="Trazado 45258" d="M5004.636,1102.632a1.629,1.629,0,0,1-1.4-.8l-5.921-10.021a1.633,1.633,0,0,1-.037-1.592l5.752-10.863a1.63,1.63,0,0,1,2.882,1.526l-5.325,10.057,5.457,9.235a1.631,1.631,0,0,1-1.4,2.459Z" transform="translate(-4997.083 -1078.487)" fill="#0c6bc2"/>
      </g>
      <g id="Grupo_18917" data-name="Grupo 18917" transform="translate(59.798 79.982)">
        <path id="Trazado_45259" data-name="Trazado 45259" d="M5020.933,1038.126l7.239,10.828a8.592,8.592,0,0,1,.089,9.415h0a8.593,8.593,0,0,1-7.244,3.953l-18.507-.023" transform="translate(-5000.881 -1036.495)" fill="#fff"/>
        <path id="Trazado_45260" data-name="Trazado 45260" d="M5017.233,1060.155h-.014l-18.507-.023a1.63,1.63,0,0,1,0-3.26h0l18.507.023h.009a6.963,6.963,0,0,0,5.787-10.832l-7.239-10.828a1.63,1.63,0,1,1,2.71-1.812l7.238,10.828a10.222,10.222,0,0,1-8.5,15.9Z" transform="translate(-4997.084 -1032.698)" fill="#0c6bc2"/>
      </g>
      <g id="Grupo_18918" data-name="Grupo 18918" transform="translate(28.869 76.554)">
        <path id="Trazado_45261" data-name="Trazado 45261" d="M4917.824,1037.055l-6.644-10.342-11.637.244" transform="translate(-4897.914 -1025.083)" fill="#fff"/>
        <path id="Trazado_45262" data-name="Trazado 45262" d="M4914.029,1034.888a1.629,1.629,0,0,1-1.373-.749l-6.15-9.574-10.725.224a1.63,1.63,0,0,1-.068-3.259l11.637-.244h.034a1.633,1.633,0,0,1,1.373.749l6.644,10.342a1.63,1.63,0,0,1-1.371,2.511Z" transform="translate(-4894.117 -1021.286)" fill="#0c6bc2"/>
      </g>
      <g id="Grupo_18919" data-name="Grupo 18919" transform="translate(30.811 76.554)">
        <path id="Trazado_45263" data-name="Trazado 45263" d="M4928.269,1054.625l-12.987,1a8.591,8.591,0,0,1-8.248-4.541h0a8.59,8.59,0,0,1,.108-8.251l9.1-16.116" transform="translate(-4904.396 -1025.083)" fill="#fff"/>
        <path id="Trazado_45264" data-name="Trazado 45264" d="M4910.81,1053.479a10.222,10.222,0,0,1-8.9-15.249l9.1-16.116a1.63,1.63,0,1,1,2.839,1.6l-9.1,16.116a6.963,6.963,0,0,0,6.6,10.366l12.987-1a1.63,1.63,0,1,1,.249,3.251l-12.986,1Q4911.2,1053.479,4910.81,1053.479Z" transform="translate(-4900.584 -1021.286)" fill="#0c6bc2"/>
      </g>
    </g>
    <g id="Grupo_18933" data-name="Grupo 18933" transform="translate(4940.3 593.094)">
      <g id="Grupo_18926" data-name="Grupo 18926" transform="translate(0 0)">
        <g id="Grupo_18925" data-name="Grupo 18925">
          <g id="Grupo_18922" data-name="Grupo 18922" transform="translate(37.161)">
            <path id="Trazado_45265" data-name="Trazado 45265" d="M5440.786,720.207a1.63,1.63,0,0,1-1.21-2.721,53.977,53.977,0,0,0-56.314-87.623,1.63,1.63,0,0,1-.98-3.109,57.244,57.244,0,0,1,73.04,67.2A57.571,57.571,0,0,1,5442,719.668,1.628,1.628,0,0,1,5440.786,720.207Z" transform="translate(-5381.142 -624.077)" fill="#0c6bc2"/>
            <g id="Grupo_18921" data-name="Grupo 18921" transform="translate(47.981 84.657)">
              <path id="Trazado_45266" data-name="Trazado 45266" d="M5563.425,924.188a.927.927,0,0,1-.481,1.566l-15.541,2.967a.927.927,0,0,1-1.084-1.082l2.933-15.547a.927.927,0,0,1,1.565-.484Z" transform="translate(-5544.671 -909.706)" fill="#caf4ff"/>
              <path id="Trazado_45267" data-name="Trazado 45267" d="M5543.431,926.572a2.557,2.557,0,0,1-2.512-3.031l2.934-15.547a2.557,2.557,0,0,1,4.318-1.336l12.608,12.581a2.557,2.557,0,0,1-1.327,4.322l-15.542,2.967A2.562,2.562,0,0,1,5543.431,926.572Zm3.379-16.667-2.5,13.225,13.22-2.523Zm11.666,11.642h0Z" transform="translate(-5540.875 -905.91)" fill="#0c6bc2"/>
            </g>
          </g>
          <g id="Grupo_18924" data-name="Grupo 18924" transform="translate(0 9.127)">
            <path id="Trazado_45268" data-name="Trazado 45268" d="M5314.687,780.307a57.237,57.237,0,0,1-41.519-96.662,1.63,1.63,0,1,1,2.365,2.244,53.977,53.977,0,0,0,54.014,89.059,1.63,1.63,0,0,1,.9,3.134A57.094,57.094,0,0,1,5314.687,780.307Z" transform="translate(-5257.427 -674.524)" fill="#0c6bc2"/>
            <g id="Grupo_18923" data-name="Grupo 18923" transform="translate(7.406)">
              <path id="Trazado_45269" data-name="Trazado 45269" d="M5287.783,664.439a.927.927,0,0,1,.481-1.566l15.541-2.967a.926.926,0,0,1,1.084,1.082l-2.933,15.547a.927.927,0,0,1-1.565.484Z" transform="translate(-5285.88 -658.259)" fill="#caf4ff"/>
              <path id="Trazado_45270" data-name="Trazado 45270" d="M5297.247,675.126a2.551,2.551,0,0,1-1.8-.748L5282.835,661.8h0a2.558,2.558,0,0,1,1.327-4.322l15.541-2.967a2.557,2.557,0,0,1,2.992,2.986l-2.933,15.547a2.561,2.561,0,0,1-2.515,2.084Zm-11.167-14.7,10.725,10.7,2.5-13.225Zm-.941-.939v0Z" transform="translate(-5282.084 -654.464)" fill="#0c6bc2"/>
            </g>
          </g>
        </g>
      </g>
      <g id="Grupo_18932" data-name="Grupo 18932" transform="translate(1.568 3.523)">
        <g id="Grupo_18931" data-name="Grupo 18931" transform="translate(0 0)">
          <g id="Grupo_18930" data-name="Grupo 18930">
            <g id="Grupo_18927" data-name="Grupo 18927">
              <circle id="Elipse_1483" data-name="Elipse 1483" cx="38.259" cy="38.259" r="38.259" transform="translate(0 54.106) rotate(-45)" fill="#caf4ff"/>
              <path id="Trazado_45271" data-name="Trazado 45271" d="M5349.866,762.915a39.889,39.889,0,1,1,39.889-39.889A39.934,39.934,0,0,1,5349.866,762.915Zm0-76.518a36.629,36.629,0,1,0,36.628,36.629A36.67,36.67,0,0,0,5349.866,686.4Z" transform="translate(-5295.76 -668.92)" fill="#0c6bc2"/>
            </g>
            <path id="Trazado_45272" data-name="Trazado 45272" d="M5384.7,763.346a1.625,1.625,0,0,1-1.138-.463c-12.87-12.539-19.206-25.962-18.83-39.9.313-11.557,5.3-21.243,9.431-27.334a59.364,59.364,0,0,1,8.99-10.568,1.63,1.63,0,0,1,2.147,2.454h0c-.167.147-16.767,14.936-17.309,35.565-.341,12.979,5.665,25.577,17.847,37.446a1.631,1.631,0,0,1-1.138,2.8Z" transform="translate(-5334.06 -669.999)" fill="#0c6bc2"/>
            <g id="Grupo_18928" data-name="Grupo 18928" transform="translate(52.476 14.217)">
              <line id="Línea_46" data-name="Línea 46" y1="76.518" transform="translate(1.63 1.63)" fill="#fff"/>
              <path id="Trazado_45273" data-name="Trazado 45273" d="M5438.975,762.915a1.63,1.63,0,0,1-1.63-1.63V684.767a1.63,1.63,0,1,1,3.26,0v76.518A1.63,1.63,0,0,1,5438.975,762.915Z" transform="translate(-5437.345 -683.137)" fill="#0c6bc2"/>
            </g>
            <g id="Grupo_18929" data-name="Grupo 18929" transform="translate(14.217 52.476)">
              <line id="Línea_47" data-name="Línea 47" x2="76.518" transform="translate(1.63 1.63)" fill="#fff"/>
              <path id="Trazado_45274" data-name="Trazado 45274" d="M5388.125,813.766h-76.518a1.63,1.63,0,0,1,0-3.261h76.518a1.63,1.63,0,0,1,0,3.261Z" transform="translate(-5309.977 -810.505)" fill="#0c6bc2"/>
            </g>
            <path id="Trazado_45275" data-name="Trazado 45275" d="M5397.414,871.835a1.625,1.625,0,0,1-.615-.121c-21.2-8.642-40.106-8.643-61.3,0a1.63,1.63,0,1,1-1.231-3.019c11.069-4.513,21.5-6.707,31.881-6.707h0c10.382,0,20.812,2.194,31.883,6.708a1.63,1.63,0,0,1-.616,3.14Z" transform="translate(-5312.041 -794.047)" fill="#0c6bc2"/>
            <path id="Trazado_45276" data-name="Trazado 45276" d="M5364.987,751.926a84.571,84.571,0,0,1-32.377-6.707,1.63,1.63,0,0,1,1.23-3.019,78.25,78.25,0,0,0,62.293,0,1.63,1.63,0,0,1,1.231,3.019A84.583,84.583,0,0,1,5364.987,751.926Z" transform="translate(-5310.883 -710.156)" fill="#0c6bc2"/>
            <path id="Trazado_45277" data-name="Trazado 45277" d="M5451.792,763.346a1.63,1.63,0,0,1-1.126-2.809c11.577-11.052,17.408-23.054,17.33-35.673-.131-21.195-17.058-37.2-17.229-37.36a1.63,1.63,0,0,1,2.22-2.388,63.447,63.447,0,0,1,9.078,11.255c4.148,6.438,9.11,16.6,9.191,28.444.092,13.563-6.078,26.375-18.34,38.08A1.622,1.622,0,0,1,5451.792,763.346Z" transform="translate(-5393.835 -670)" fill="#0c6bc2"/>
          </g>
        </g>
      </g>
    </g>
  </g>
</svg>
