<svg xmlns="http://www.w3.org/2000/svg" width="66.3" height="54.717" viewBox="0 0 66.3 54.717">
  <g id="Grupo_26540" data-name="Grupo 26540" transform="translate(-1269.154 409.682)">
    <g id="Grupo_26524" data-name="Grupo 26524" transform="translate(1269.154 -404.568)">
      <path id="Trazado_67310" data-name="Trazado 67310" d="M1336.361-375.6h2.073a.771.771,0,0,1,.772.771v43.373a.771.771,0,0,1-.772.771l-27.468,0a1.111,1.111,0,0,0-1.029.671,3.05,3.05,0,0,1-2.813,1.879,3.053,3.053,0,0,1-2.816-1.88,1.107,1.107,0,0,0-1.028-.671h-27.467a.771.771,0,0,1-.771-.771v-43.373a.771.771,0,0,1,.771-.771h1.9l29.3,5.255Z" transform="translate(-1273.973 376.666)" fill="#ffd354"/>
      <path id="Trazado_67311" data-name="Trazado 67311" d="M1302.3-331.883a4.112,4.112,0,0,1-3.8-2.537l-27.51-.015a1.841,1.841,0,0,1-1.839-1.839v-43.373a1.841,1.841,0,0,1,1.839-1.839h1.9a1.057,1.057,0,0,1,.188.017l29.116,5.221,29.154-5.221a1.073,1.073,0,0,1,.188-.017h2.073a1.841,1.841,0,0,1,1.84,1.839v43.373a1.841,1.841,0,0,1-1.84,1.839h-27.467A4.2,4.2,0,0,1,1302.3-331.883Zm-31.014-4.688h27.17a2.166,2.166,0,0,1,2.015,1.331,1.98,1.98,0,0,0,1.829,1.221,1.978,1.978,0,0,0,1.828-1.222,2.173,2.173,0,0,1,2.015-1.328h27.172v-42.78h-1.682l-29.249,5.238a1.068,1.068,0,0,1-.377,0L1272.8-379.35h-1.511Z" transform="translate(-1269.154 381.486)" fill="#325a6a"/>
    </g>
    <g id="Grupo_26525" data-name="Grupo 26525" transform="translate(1274.501 -409.53)">
      <path id="Trazado_67312" data-name="Trazado 67312" d="M1331.249-352.443c-11.737-14.288-26.727-10.96-26.727-10.96V-402.7s15-3.667,26.735,10.622Z" transform="translate(-1303.454 404.158)" fill="#fff"/>
      <path id="Trazado_67313" data-name="Trazado 67313" d="M1326.43-356.061a1.069,1.069,0,0,1-.826-.39c-11.157-13.582-25.085-10.724-25.672-10.6a1.07,1.07,0,0,1-.9-.211,1.069,1.069,0,0,1-.4-.832v-39.294a1.068,1.068,0,0,1,.814-1.037c.156-.038,15.79-3.658,27.814,10.981a1.07,1.07,0,0,1,.243.678l-.009,39.633a1.067,1.067,0,0,1-.708,1.005A1.066,1.066,0,0,1,1326.43-356.061Zm-22.9-13.406a29.962,29.962,0,0,1,21.828,9.529l.008-36.439c-9.7-11.563-21.413-10.637-24.6-10.126v37.18A25.713,25.713,0,0,1,1303.535-369.467Z" transform="translate(-1298.635 408.844)" fill="#325a6a"/>
    </g>
    <g id="Grupo_26526" data-name="Grupo 26526" transform="translate(1301.236 -409.681)">
      <path id="Trazado_67314" data-name="Trazado 67314" d="M1451.925-353.169c11.824-14.4,26.735-10.8,26.735-10.8v-39.589s-14.911-3.6-26.735,10.8Z" transform="translate(-1450.857 404.993)" fill="#fff"/>
      <path id="Trazado_67315" data-name="Trazado 67315" d="M1447.106-356.79a1.068,1.068,0,0,1-.36-.063,1.068,1.068,0,0,1-.708-1.005v-39.588a1.068,1.068,0,0,1,.242-.678c12.109-14.743,27.654-11.194,27.811-11.157a1.068,1.068,0,0,1,.817,1.038v39.589a1.068,1.068,0,0,1-.407.839,1.067,1.067,0,0,1-.911.2c-.582-.139-14.426-3.241-25.659,10.436A1.069,1.069,0,0,1,1447.106-356.79Zm1.068-40.271v36.393a29.192,29.192,0,0,1,24.6-9.24v-37.45C1469.6-407.854,1457.946-408.71,1448.175-397.061Z" transform="translate(-1446.039 409.681)" fill="#325a6a"/>
    </g>
    <g id="Grupo_26527" data-name="Grupo 26527" transform="translate(1318.494 -399.469)">
      <path id="Trazado_67316" data-name="Trazado 67316" d="M1542.253-350.871a1.068,1.068,0,0,1-1.05-.878,1.068,1.068,0,0,1,.861-1.241,23.99,23.99,0,0,1,5.439-.355,1.068,1.068,0,0,1,1.013,1.12,1.069,1.069,0,0,1-1.12,1.013,21.8,21.8,0,0,0-4.954.324A1.063,1.063,0,0,1,1542.253-350.871Z" transform="translate(-1541.187 353.374)" fill="#325a6a"/>
    </g>
    <g id="Grupo_26528" data-name="Grupo 26528" transform="translate(1306.339 -398.331)">
      <path id="Trazado_67317" data-name="Trazado 67317" d="M1475.241-339.951a1.065,1.065,0,0,1-.783-.341,1.068,1.068,0,0,1,.056-1.509,27.051,27.051,0,0,1,9.463-5.248,1.068,1.068,0,0,1,1.342.693,1.068,1.068,0,0,1-.693,1.342,25.192,25.192,0,0,0-8.659,4.778A1.063,1.063,0,0,1,1475.241-339.951Z" transform="translate(-1474.173 347.1)" fill="#325a6a"/>
    </g>
    <g id="Grupo_26529" data-name="Grupo 26529" transform="translate(1306.339 -394.366)">
      <path id="Trazado_67318" data-name="Trazado 67318" d="M1475.241-316.954a1.065,1.065,0,0,1-.783-.341,1.068,1.068,0,0,1,.056-1.509,26.575,26.575,0,0,1,18.131-6.408,1.068,1.068,0,0,1,1.013,1.12,1.068,1.068,0,0,1-1.12,1.013c-9.649-.485-16.5,5.776-16.571,5.84A1.063,1.063,0,0,1,1475.241-316.954Z" transform="translate(-1474.173 325.242)" fill="#325a6a"/>
    </g>
    <g id="Grupo_26530" data-name="Grupo 26530" transform="translate(1306.339 -389.263)">
      <path id="Trazado_67319" data-name="Trazado 67319" d="M1475.242-288.817a1.066,1.066,0,0,1-.784-.342,1.067,1.067,0,0,1,.057-1.508,26.637,26.637,0,0,1,18.131-6.408,1.068,1.068,0,0,1,1.013,1.12,1.068,1.068,0,0,1-1.12,1.013c-9.615-.484-16.5,5.777-16.572,5.84A1.064,1.064,0,0,1,1475.242-288.817Z" transform="translate(-1474.174 297.103)" fill="#325a6a"/>
    </g>
    <g id="Grupo_26531" data-name="Grupo 26531" transform="translate(1306.339 -384.67)">
      <path id="Trazado_67320" data-name="Trazado 67320" d="M1475.242-263.493a1.066,1.066,0,0,1-.784-.342,1.068,1.068,0,0,1,.057-1.508,26.642,26.642,0,0,1,18.131-6.407,1.068,1.068,0,0,1,1.013,1.12,1.067,1.067,0,0,1-1.12,1.013c-9.615-.482-16.5,5.777-16.572,5.841A1.065,1.065,0,0,1,1475.242-263.493Z" transform="translate(-1474.174 271.78)" fill="#325a6a"/>
    </g>
    <g id="Grupo_26532" data-name="Grupo 26532" transform="translate(1311.188 -380.076)">
      <path id="Trazado_67321" data-name="Trazado 67321" d="M1501.974-241.42a1.068,1.068,0,0,1-.948-.575,1.068,1.068,0,0,1,.454-1.44,25.754,25.754,0,0,1,13.047-2.989,1.068,1.068,0,0,1,1.013,1.12,1.074,1.074,0,0,1-1.12,1.013,23.62,23.62,0,0,0-11.955,2.75A1.063,1.063,0,0,1,1501.974-241.42Z" transform="translate(-1500.905 246.453)" fill="#325a6a"/>
    </g>
    <g id="Grupo_26533" data-name="Grupo 26533" transform="translate(1306.339 -375.997)">
      <path id="Trazado_67322" data-name="Trazado 67322" d="M1475.242-219.756a1.065,1.065,0,0,1-.784-.342,1.067,1.067,0,0,1,.057-1.508,22.108,22.108,0,0,1,2.952-2.19,1.068,1.068,0,0,1,1.474.329,1.068,1.068,0,0,1-.329,1.474,20.454,20.454,0,0,0-2.645,1.954A1.065,1.065,0,0,1,1475.242-219.756Z" transform="translate(-1474.174 223.962)" fill="#325a6a"/>
    </g>
    <g id="Grupo_26534" data-name="Grupo 26534" transform="translate(1279.291 -399.469)">
      <path id="Trazado_67323" data-name="Trazado 67323" d="M1343.464-345.09a1.064,1.064,0,0,1-.725-.284c-.069-.063-6.965-6.322-16.574-5.84a1.075,1.075,0,0,1-1.12-1.013,1.068,1.068,0,0,1,1.013-1.12,26.63,26.63,0,0,1,18.132,6.408,1.067,1.067,0,0,1,.056,1.508A1.063,1.063,0,0,1,1343.464-345.09Z" transform="translate(-1325.045 353.377)" fill="#325a6a"/>
    </g>
    <g id="Grupo_26535" data-name="Grupo 26535" transform="translate(1279.291 -394.366)">
      <path id="Trazado_67324" data-name="Trazado 67324" d="M1343.464-316.954a1.064,1.064,0,0,1-.725-.284c-.069-.063-6.965-6.323-16.574-5.84a1.074,1.074,0,0,1-1.12-1.013,1.068,1.068,0,0,1,1.013-1.12,26.631,26.631,0,0,1,18.132,6.408,1.067,1.067,0,0,1,.056,1.508A1.064,1.064,0,0,1,1343.464-316.954Z" transform="translate(-1325.045 325.241)" fill="#325a6a"/>
    </g>
    <g id="Grupo_26536" data-name="Grupo 26536" transform="translate(1279.292 -389.262)">
      <path id="Trazado_67325" data-name="Trazado 67325" d="M1330.722-294.7a1.1,1.1,0,0,1-.164-.013,21.693,21.693,0,0,0-4.385-.229,1.067,1.067,0,0,1-1.12-1.013,1.068,1.068,0,0,1,1.013-1.12,23.882,23.882,0,0,1,4.818.251,1.068,1.068,0,0,1,.893,1.218A1.068,1.068,0,0,1,1330.722-294.7Z" transform="translate(-1325.05 297.102)" fill="#325a6a"/>
    </g>
    <g id="Grupo_26537" data-name="Grupo 26537" transform="translate(1286.915 -388.327)">
      <path id="Trazado_67326" data-name="Trazado 67326" d="M1377.873-284.592a1.064,1.064,0,0,1-.725-.284,25.464,25.464,0,0,0-9.3-4.973,1.068,1.068,0,0,1-.73-1.322,1.067,1.067,0,0,1,1.322-.73,27.148,27.148,0,0,1,10.159,5.459,1.068,1.068,0,0,1,.057,1.508A1.065,1.065,0,0,1,1377.873-284.592Z" transform="translate(-1367.077 291.943)" fill="#325a6a"/>
    </g>
    <g id="Grupo_26538" data-name="Grupo 26538" transform="translate(1279.291 -384.67)">
      <path id="Trazado_67327" data-name="Trazado 67327" d="M1343.464-263.495a1.064,1.064,0,0,1-.725-.284c-.069-.063-6.965-6.324-16.574-5.841a1.073,1.073,0,0,1-1.12-1.013,1.068,1.068,0,0,1,1.013-1.12,26.635,26.635,0,0,1,18.132,6.407,1.067,1.067,0,0,1,.056,1.508A1.063,1.063,0,0,1,1343.464-263.495Z" transform="translate(-1325.045 271.782)" fill="#325a6a"/>
    </g>
    <g id="Grupo_26539" data-name="Grupo 26539" transform="translate(1279.291 -380.077)">
      <path id="Trazado_67328" data-name="Trazado 67328" d="M1343.464-238.172a1.063,1.063,0,0,1-.725-.284c-.069-.063-6.965-6.322-16.574-5.84a1.075,1.075,0,0,1-1.12-1.013,1.068,1.068,0,0,1,1.013-1.12,26.639,26.639,0,0,1,18.132,6.408,1.067,1.067,0,0,1,.056,1.508A1.064,1.064,0,0,1,1343.464-238.172Z" transform="translate(-1325.045 246.459)" fill="#325a6a"/>
    </g>
  </g>
</svg>
